<svg version="1.1" x="0px" y="0px" viewBox="73.63848383142093 241.01372703850123 126.47776494634306 225.2865238672854" style="enable-background:new 0 0 750 500;" xml:space="preserve" id="svg383" sodipodi:docname="simpletrees.svg" inkscape:version="1.4.2 (f4327f4, 2025-05-13)" xmlns:inkscape="http://www.inkscape.org/namespaces/inkscape" xmlns:sodipodi="http://sodipodi.sourceforge.net/DTD/sodipodi-0.dtd" xmlns="http://www.w3.org/2000/svg" xmlns:svg="http://www.w3.org/2000/svg"><defs id="defs383"/><g id="g138">
		<path style="fill-rule:evenodd;clip-rule:evenodd;fill:#FFFFFF;" d="M137.669,277.436c-2.595,79.583-5.393,127.351-9.988,192.299    c-0.644,5.897,21.103,5.33,21.161-0.126c-4.577-61.017-3.303-131.279-7.879-192.295    C140.671,271.976,137.611,272.655,137.669,277.436z" id="path76"/>
		<path style="fill-rule:evenodd;clip-rule:evenodd;fill:#272828;" d="M138.382,277.458c-1.297,39.816-2.646,71.658-4.243,101.652    c-1.601,30.052-3.448,58.228-5.744,90.676l-0.004,0.045c-0.118,1.217,1.235,2.115,3.246,2.686c1.39,0.395,3.068,0.62,4.818,0.685    c1.757,0.064,3.595-0.037,5.294-0.292c3.482-0.525,6.317-1.651,6.379-3.267c-2.285-30.483-3.111-63.323-3.937-96.162    c-0.825-32.792-1.65-65.586-3.939-96.113l-0.002-0.051c-0.093-1.625-0.43-2.573-0.827-2.941c-0.066-0.059-0.116-0.087-0.146-0.086    c-0.044,0.003-0.106,0.045-0.183,0.126c-0.416,0.435-0.73,1.457-0.712,3.014V277.458L138.382,277.458z M132.712,379.037    c1.599-30.022,2.948-61.855,4.243-101.617c-0.019-1.949,0.468-3.326,1.109-3.995c0.331-0.348,0.719-0.538,1.129-0.561    c0.422-0.025,0.832,0.125,1.195,0.461c0.64,0.594,1.168,1.877,1.286,3.91l0.003,0.026c2.286,30.489,3.113,63.34,3.94,96.187    c0.824,32.791,1.65,65.584,3.939,96.108v0.06c-0.027,2.489-3.422,4.079-7.595,4.709c-1.771,0.268-3.7,0.371-5.557,0.304    c-1.866-0.069-3.659-0.311-5.154-0.735c-2.691-0.765-4.483-2.139-4.283-4.194l0.001-0.013    C129.268,437.184,131.117,409,132.712,379.037z" id="path77"/>
		<path style="fill-rule:evenodd;clip-rule:evenodd;fill:#FFFFFF;" d="M111.364,345.501c0,0-8.537,16.879-20.152,26.66    c-11.617,9.782-14.608,8.728-15.754,13.905c-1.144,5.179,7.041,7.097,12.322,3.357c5.279-3.74-2.993,6.329,0.44,9.015    c3.432,2.685,7.479-1.631,7.479-1.631s-2.729,7.961,2.112,9.879c4.841,1.918,10.209-6.904,10.209-6.904s-1.408,8.918,4.313,9.975    c5.719,1.054,9.943-5.755,9.943-5.755s1.057,6.233,4.664,5.945c3.609-0.288,3.609-4.602,3.609-4.602s-0.089,8.63,6.601,8.725    c6.688,0.097,5.808-6.425,5.808-6.425s2.552,5.371,7.392,4.795c4.84-0.575,3.52-6.616,3.52-6.616s3.255,5.37,7.304,4.123    c4.048-1.247,2.376-6.426,2.376-6.426s0.705,8.632,8.712,7.769c8.009-0.862,1.848-9.782,1.848-9.782s4.401,6.042,8.977,3.453    c4.577-2.59,0.264-7.482,0.264-7.482s4.049,3.069,7.657,0.191c3.609-2.876-0.265-8.534-0.265-8.534s5.536,4.73,8-0.831    c2.464-5.563-2.983-7.416-5.184-9.239c-2.2-1.822-26.578-23.304-30.274-34.429C159.59,333.514,115.589,331.403,111.364,345.501z" id="path78"/>
		<path style="fill-rule:evenodd;clip-rule:evenodd;fill:#272828;" d="M111.974,345.875c-0.513,1.001-8.923,17.249-20.303,26.831    c-4.773,4.02-8.087,6.215-10.423,7.763c-3.216,2.131-4.477,2.966-5.093,5.752c-0.157,0.712-0.104,1.341,0.113,1.881    c0.323,0.804,1.021,1.439,1.944,1.877c0.986,0.466,2.214,0.704,3.522,0.681c1.888-0.032,3.926-0.607,5.636-1.817    c1.51-1.069,2.33-1.164,2.752-0.568c0.027,0.037,0.05,0.078,0.069,0.118c0.305,0.63-0.139,1.705-0.698,3.058    c-0.91,2.208-2.206,5.353-0.834,6.427c2.916,2.281,6.514-1.551,6.523-1.561c0.271-0.286,0.724-0.298,1.01-0.025    c0.215,0.205,0.274,0.513,0.174,0.773c-0.166,0.501-2.349,7.352,1.708,8.96c4.277,1.694,9.322-6.591,9.336-6.614    c0.206-0.337,0.646-0.443,0.982-0.238c0.251,0.154,0.375,0.439,0.334,0.714c-0.002,0.023-1.294,8.24,3.734,9.168    c5.24,0.965,9.2-5.415,9.212-5.434c0.21-0.333,0.65-0.433,0.983-0.223c0.178,0.111,0.29,0.288,0.324,0.48    c0.004,0.016,0.953,5.592,3.906,5.355c2.899-0.23,2.947-3.759,2.948-3.886v-0.003h1.433v0.007    c-0.001,0.26,0.014,7.922,5.892,8.007c5.86,0.084,5.092-5.609,5.09-5.626c-0.047-0.392,0.232-0.749,0.624-0.796    c0.327-0.041,0.628,0.146,0.748,0.436c0.222,0.445,2.529,4.849,6.647,4.357c4.056-0.481,2.908-5.742,2.905-5.758    c-0.083-0.386,0.164-0.766,0.551-0.848c0.313-0.065,0.622,0.083,0.771,0.349c0.212,0.341,3.084,4.835,6.471,3.792    c2.063-0.635,2.31-2.577,2.194-3.982c-0.227-0.866-0.299-1.508-0.314-1.661c-0.049-0.342,0.157-0.679,0.497-0.783    c0.377-0.115,0.776,0.097,0.892,0.474c0.002,0.006,0.235,0.728,0.333,1.726c0.619,2.264,2.437,6.1,7.621,5.541    c6.813-0.734,1.35-8.646,1.335-8.669c-0.222-0.326-0.138-0.771,0.188-0.993c0.325-0.223,0.771-0.139,0.993,0.189l0.011,0.015    c0.372,0.493,4.2,5.383,8.023,3.219c3.811-2.155,0.09-6.376,0.079-6.39c-0.26-0.296-0.229-0.747,0.067-1.006    c0.256-0.225,0.629-0.232,0.892-0.039c0.011,0.006,3.616,2.737,6.79,0.208c3.084-2.458-0.407-7.563-0.416-7.578    c-0.22-0.328-0.13-0.773,0.198-0.992c0.282-0.188,0.65-0.149,0.887,0.072c0.416,0.342,4.877,3.871,6.856-0.597    c1.749-3.95-1.155-5.836-3.388-7.284c-0.6-0.389-1.158-0.752-1.597-1.116c-1.436-1.189-12.279-10.716-20.708-20.303    c-4.576-5.204-8.457-10.45-9.787-14.452c-0.899-2.707-4.545-4.875-9.497-6.359c-4.63-1.387-10.357-2.149-16.069-2.183    c-5.709-0.034-11.397,0.655-15.95,2.168c-4.627,1.536-8.053,3.912-9.044,7.217C112.031,345.765,112.005,345.822,111.974,345.875    L111.974,345.875z M90.753,371.615c11.107-9.353,19.367-25.25,19.943-26.375c1.16-3.776,4.917-6.435,9.951-8.106    c4.704-1.563,10.55-2.275,16.403-2.241c5.853,0.035,11.723,0.816,16.472,2.24c5.38,1.611,9.379,4.081,10.442,7.28    c1.258,3.786,5.036,8.87,9.507,13.956c8.369,9.517,19.122,18.967,20.546,20.145c0.396,0.329,0.911,0.663,1.462,1.021    c2.678,1.738,6.161,3.998,3.919,9.058c-1.745,3.938-4.754,3.475-6.835,2.517c0.832,2.101,1.381,5.135-1.11,7.12    c-2.177,1.736-4.477,1.554-6.139,1.015c0.869,1.884,1.286,4.549-1.874,6.336c-2.551,1.444-5.008,0.557-6.836-0.703    c1.018,2.912,1.127,6.541-4.265,7.122c-4.444,0.479-6.823-1.701-8.089-3.961c-0.417,1.102-1.261,2.097-2.866,2.591    c-2.791,0.859-5.194-0.971-6.647-2.533c-0.106,2.026-0.913,4.651-4.302,5.055c-3.254,0.387-5.55-1.613-6.852-3.243    c-0.377,2.135-1.76,4.944-6.441,4.876c-4.4-0.064-6.151-3.376-6.848-6.058c-0.62,0.969-1.634,1.802-3.296,1.934    c-2.961,0.237-4.423-2.998-5.043-5.003c-1.617,2.017-5.22,5.636-9.75,4.801c-4.263-0.786-5.021-5.278-5.049-8.21    c-2.038,2.615-5.883,6.577-9.606,5.102c-3.732-1.479-3.553-5.935-3.059-8.628c-1.667,1.108-4.287,2.174-6.709,0.279    c-2.227-1.742-0.688-5.474,0.392-8.093c0.416-1.009,0.791-1.737,0.787-1.805c-0.111-0.157-0.095,0.426-0.768,0.902    c-1.956,1.385-4.283,2.044-6.435,2.081c-1.527,0.027-2.976-0.258-4.154-0.815c-1.24-0.588-2.194-1.48-2.66-2.637    c-0.321-0.799-0.402-1.711-0.181-2.721c0.741-3.353,2.137-4.276,5.698-6.636C82.777,377.74,86.066,375.563,90.753,371.615z" id="path79"/>
		<path style="fill-rule:evenodd;clip-rule:evenodd;fill:#FFFFFF;" d="M113.987,317.076c0,0-7.675,14.219-18.12,22.458    c-10.445,8.241-13.135,7.352-14.165,11.714c-1.029,4.363,5.731,7.971,10.478,4.821c-4.718,5.997,2.069,12.403,7.123,6.22    c-3.379,8.603,5.643,9.803,11.677,0.512c-1.742,10.339,7.973,10.651,12.731,3.466c-1.632,8,6.733,7.521,7.526,1.22    c-0.105,9.729,11.512,9.293,11.157,1.939c2.359,6.919,10.376,6.818,9.813-1.535c2.116,7.35,8.415,8.227,8.294,0.409    c2.17,10.013,15.214,8.428,9.905-4.044c5.526,8.73,12.86,3.77,8.309-3.394c4.343,4.629,11.334-0.61,6.646-7.028    c4.355,3.487,13.938,0.368,2.532-8.481c-1.979-1.535-23.896-19.63-27.219-29.001C157.35,306.978,117.785,305.202,113.987,317.076z    " id="path80"/>
		<path style="fill-rule:evenodd;clip-rule:evenodd;fill:#272828;" d="M114.612,317.418c-0.022,0.04-7.742,14.345-18.304,22.676    c-4.29,3.384-7.275,5.237-9.381,6.545c-2.864,1.776-3.986,2.474-4.528,4.771c-0.219,0.931-0.002,1.824,0.507,2.594    c0.367,0.554,0.884,1.045,1.502,1.445c0.628,0.408,1.362,0.722,2.147,0.906c1.683,0.397,3.593,0.204,5.231-0.883    c0.329-0.218,0.771-0.127,0.99,0.201c0.175,0.263,0.151,0.601-0.035,0.836c-1.564,1.99-1.727,4-1.081,5.454    c0.239,0.541,0.588,1.004,1.015,1.356c0.422,0.351,0.921,0.598,1.466,0.708l0.002,0.001c1.372,0.279,3.057-0.295,4.606-2.19    c0.249-0.307,0.699-0.353,1.004-0.103c0.247,0.201,0.324,0.532,0.214,0.813c-0.845,2.152-0.861,3.752-0.327,4.76    c0.268,0.508,0.689,0.864,1.217,1.06c0.573,0.212,1.277,0.245,2.063,0.091c2.262-0.442,5.084-2.388,7.46-6.047    c0.214-0.33,0.656-0.425,0.987-0.209c0.246,0.158,0.361,0.443,0.316,0.715c-0.445,2.647-0.107,4.557,0.71,5.793    c0.511,0.775,1.217,1.286,2.03,1.546c0.842,0.27,1.813,0.278,2.823,0.04c2.067-0.486,4.26-1.998,5.867-4.426    c0.217-0.328,0.661-0.418,0.99-0.201c0.261,0.173,0.371,0.486,0.298,0.773c-0.468,2.329-0.026,3.803,0.8,4.532    c0.341,0.3,0.75,0.476,1.186,0.532c0.457,0.06,0.948-0.007,1.426-0.193c1.283-0.498,2.451-1.842,2.711-3.915    c0.048-0.393,0.406-0.671,0.797-0.624c0.384,0.048,0.658,0.389,0.625,0.772c-0.018,3.274,1.389,5.257,3.148,6.11    c0.69,0.335,1.434,0.499,2.162,0.503c0.729,0.004,1.445-0.151,2.082-0.458c1.413-0.679,2.441-2.126,2.339-4.244    c-0.018-0.393,0.286-0.729,0.68-0.746c0.326-0.016,0.611,0.189,0.71,0.483c0.764,2.239,2.15,3.662,3.595,4.223    c0.642,0.25,1.293,0.326,1.899,0.226c0.589-0.099,1.14-0.371,1.598-0.819c0.922-0.899,1.49-2.512,1.331-4.887    c-0.026-0.395,0.272-0.734,0.666-0.762c0.342-0.022,0.644,0.2,0.735,0.518c0.744,2.584,2.009,4.288,3.282,5.014    c0.48,0.272,0.953,0.396,1.384,0.363c0.402-0.032,0.779-0.206,1.098-0.531c0.705-0.714,1.162-2.102,1.128-4.233    c-0.005-0.394,0.311-0.716,0.706-0.721c0.345-0.004,0.636,0.237,0.706,0.563c0.71,3.268,2.642,5.181,4.623,5.776    c0.841,0.252,1.686,0.267,2.436,0.044c0.733-0.217,1.382-0.664,1.857-1.337c1.08-1.533,1.281-4.228-0.366-8.098    c-0.155-0.363,0.014-0.782,0.377-0.938c0.336-0.142,0.719-0.009,0.898,0.3c1.908,3.005,3.984,4.256,5.621,4.296    c0.555,0.014,1.056-0.118,1.472-0.37l0.044-0.024c0.39-0.248,0.708-0.61,0.927-1.064c0.613-1.272,0.455-3.235-0.977-5.49    c-0.212-0.332-0.113-0.775,0.221-0.986c0.305-0.194,0.7-0.127,0.928,0.141c1.262,1.33,2.757,1.71,4.034,1.418    c0.579-0.132,1.119-0.403,1.571-0.788c0.452-0.383,0.817-0.878,1.05-1.458c0.556-1.385,0.368-3.267-1.13-5.317    c-0.232-0.318-0.162-0.765,0.157-0.996c0.271-0.197,0.636-0.176,0.881,0.033c1.467,1.164,3.589,1.492,5.111,1.025    c0.515-0.158,0.948-0.408,1.236-0.746c0.266-0.311,0.416-0.713,0.395-1.206c-0.059-1.458-1.439-3.601-5.107-6.445    c-1.292-1.003-11.048-9.034-18.629-17.112c-4.128-4.397-7.628-8.831-8.829-12.217c-0.723-2.041-3.493-3.724-7.327-4.949    c-4.311-1.379-9.906-2.143-15.499-2.183c-5.585-0.04-11.153,0.643-15.418,2.154c-3.634,1.289-6.284,3.165-7.089,5.683    C114.652,317.336,114.634,317.379,114.612,317.418L114.612,317.418z M95.424,338.975c9.979-7.87,17.396-21.252,17.906-22.187    c0.983-2.959,3.94-5.104,7.948-6.525c4.417-1.567,10.158-2.273,15.899-2.233c5.732,0.041,11.482,0.828,15.925,2.249    c4.249,1.36,7.357,3.331,8.245,5.834c1.126,3.176,4.511,7.442,8.52,11.713c7.521,8.015,17.183,15.968,18.461,16.961    c4.054,3.145,5.587,5.683,5.662,7.521c0.036,0.88-0.241,1.613-0.736,2.19c-0.471,0.552-1.135,0.946-1.902,1.183    c-1.235,0.379-2.779,0.346-4.213-0.115c0.663,1.695,0.612,3.262,0.1,4.536c-0.321,0.804-0.827,1.488-1.452,2.02    c-0.624,0.529-1.372,0.905-2.181,1.09c-0.988,0.225-2.062,0.165-3.109-0.251c0.541,1.722,0.432,3.247-0.123,4.396    c-0.337,0.699-0.84,1.264-1.462,1.655l-0.056,0.037c-0.644,0.389-1.407,0.592-2.245,0.571c-1.35-0.033-2.903-0.665-4.432-2.071    c0.482,2.592,0.048,4.568-0.895,5.906c-0.668,0.949-1.587,1.579-2.623,1.886c-1.018,0.301-2.143,0.288-3.248-0.045    c-1.731-0.52-3.423-1.825-4.553-3.925c-0.27,0.94-0.68,1.661-1.182,2.171c-0.574,0.584-1.263,0.899-2.005,0.957    c-0.716,0.055-1.467-0.132-2.201-0.549c-0.993-0.564-1.97-1.573-2.77-2.99c-0.297,1.245-0.843,2.206-1.543,2.89    c-0.674,0.658-1.487,1.058-2.359,1.204c-0.856,0.144-1.765,0.04-2.648-0.302c-1.247-0.486-2.45-1.455-3.376-2.888    c-0.51,1.46-1.549,2.517-2.819,3.126c-0.831,0.398-1.76,0.602-2.702,0.598c-0.941-0.005-1.896-0.216-2.778-0.643    c-1.585-0.768-2.941-2.227-3.574-4.435c-0.678,1.036-1.601,1.758-2.573,2.137c-0.699,0.271-1.431,0.367-2.124,0.276    c-0.716-0.093-1.389-0.381-1.947-0.873c-0.819-0.723-1.387-1.879-1.462-3.494c-1.581,1.651-3.437,2.715-5.223,3.135    c-1.254,0.295-2.484,0.275-3.579-0.074c-1.123-0.358-2.092-1.06-2.791-2.117c-0.698-1.056-1.12-2.468-1.143-4.248    c-2.261,2.702-4.757,4.199-6.864,4.613c-1.047,0.205-2.013,0.148-2.83-0.153c-0.86-0.318-1.548-0.902-1.989-1.736    c-0.469-0.884-0.646-2.047-0.431-3.463c-1.396,0.931-2.824,1.172-4.086,0.916c-0.783-0.16-1.496-0.513-2.096-1.011    c-0.598-0.495-1.083-1.137-1.412-1.877c-0.608-1.371-0.686-3.093,0.054-4.872c-1.4,0.4-2.848,0.393-4.174,0.08    c-0.943-0.222-1.832-0.602-2.6-1.1c-0.779-0.507-1.44-1.138-1.915-1.855c-0.723-1.087-1.026-2.364-0.709-3.706    c0.678-2.873,1.943-3.657,5.171-5.661C88.257,344.134,91.207,342.304,95.424,338.975z" id="path81"/>
		<path style="fill-rule:evenodd;clip-rule:evenodd;fill:#FFFFFF;" d="M116.607,289.127c0,0-6.813,12.365-16.086,19.531    c-9.273,7.164-11.662,6.392-12.575,10.186c-0.914,3.793,5.62,5.198,9.835,2.459c-5.149,5.263,1.103,11.327,6.323,5.409    c0,0-2.178,5.83,1.686,7.235c3.864,1.406,8.15-5.057,8.15-5.057s-1.125,6.533,3.442,7.305c4.567,0.773,7.939-4.214,7.939-4.214    s-0.198,4.42,2.682,4.209c2.881-0.21,3.921-3.226,3.921-3.226s-0.07,6.323,5.269,6.392c5.339,0.071,4.637-4.705,4.637-4.705    s2.038,3.934,5.901,3.512c3.864-0.422,2.809-4.848,2.809-4.848s2.602,3.934,5.833,3.021c3.232-0.912,1.897-4.706,1.897-4.706    s0.561,6.322,6.954,5.69c6.393-0.633,1.476-7.166,1.476-7.166s3.512,4.427,7.166,2.529c3.653-1.897,0.21-5.479,0.21-5.479    s3.232,2.247,6.113,0.14c2.879-2.108-0.211-6.252-0.211-6.252s4.419,3.466,6.386-0.608c1.967-4.075-2.381-5.434-4.138-6.769    c-1.756-1.334-21.216-17.071-24.166-25.22C155.107,280.346,119.981,278.801,116.607,289.127z" id="path82"/>
		<path style="fill-rule:evenodd;clip-rule:evenodd;fill:#272828;" d="M117.235,289.472c-0.021,0.035-6.885,12.493-16.277,19.751    c-3.8,2.936-6.46,4.553-8.336,5.693c-2.522,1.533-3.511,2.134-3.983,4.093c-0.103,0.426-0.081,0.805,0.038,1.133    c0.2,0.552,0.696,1,1.37,1.321c0.749,0.356,1.697,0.55,2.716,0.557c1.541,0.009,3.229-0.404,4.631-1.315    c0.331-0.215,0.772-0.121,0.988,0.21c0.186,0.286,0.14,0.656-0.09,0.889c-1.606,1.643-1.971,3.33-1.567,4.595    c0.157,0.495,0.433,0.927,0.796,1.262c0.365,0.336,0.819,0.579,1.329,0.695c1.329,0.305,3.059-0.232,4.722-2.116    c0.26-0.294,0.711-0.321,1.006-0.061c0.224,0.198,0.293,0.505,0.2,0.771c-0.004,0.015-1.924,5.171,1.256,6.327    c3.336,1.214,7.299-4.763,7.31-4.781c0.218-0.328,0.661-0.419,0.991-0.201c0.242,0.161,0.355,0.444,0.31,0.714    c-0.002,0.017-1.002,5.831,2.854,6.482c4.116,0.697,7.222-3.896,7.231-3.909c0.22-0.325,0.664-0.41,0.99-0.19    c0.212,0.145,0.323,0.382,0.313,0.622c0.001,0.01-0.162,3.616,1.92,3.464c2.408-0.176,3.298-2.751,3.301-2.759    c0.135-0.37,0.546-0.561,0.916-0.425c0.29,0.106,0.47,0.38,0.47,0.672c0.001,0.016-0.059,5.618,4.562,5.68    c4.502,0.059,3.918-3.896,3.918-3.907c-0.048-0.392,0.232-0.748,0.623-0.797c0.315-0.038,0.607,0.134,0.735,0.407    c0.2,0.365,1.994,3.452,5.176,3.104c3.056-0.333,2.192-3.969,2.189-3.979c-0.086-0.385,0.156-0.767,0.54-0.854    c0.296-0.067,0.592,0.063,0.75,0.301c0.009,0.009,2.317,3.499,5.046,2.729c1.518-0.429,1.713-1.735,1.632-2.694    c-0.17-0.606-0.232-1.064-0.249-1.208c-0.055-0.34,0.14-0.679,0.476-0.793c0.375-0.127,0.781,0.073,0.907,0.447    c0.001,0.004,0.193,0.549,0.276,1.305c0.487,1.608,1.908,4.303,5.932,3.904c5.128-0.507,0.987-6.009,0.975-6.024    c-0.238-0.314-0.176-0.764,0.14-1.001c0.308-0.232,0.742-0.178,0.984,0.118c0.01,0.01,3.157,3.971,6.285,2.347    c2.802-1.455,0.025-4.347,0.018-4.355c-0.27-0.287-0.256-0.739,0.031-1.01c0.246-0.232,0.615-0.255,0.886-0.074    c0.009,0.004,2.827,1.963,5.294,0.158c2.297-1.682-0.355-5.241-0.363-5.251c-0.234-0.316-0.167-0.764,0.149-0.998    c0.264-0.195,0.617-0.182,0.864,0.011c0.104,0.079,3.744,2.875,5.304-0.356c1.309-2.713-0.922-4.043-2.638-5.064    c-0.475-0.282-0.914-0.542-1.288-0.826c-1.149-0.874-9.819-7.865-16.549-14.888c-3.671-3.832-6.786-7.698-7.857-10.656    c-0.611-1.688-2.92-3.099-6.137-4.149c-3.855-1.259-8.943-1.959-14.028-1.996c-5.082-0.038-10.148,0.583-13.963,1.964    c-3.063,1.108-5.285,2.692-5.971,4.79C117.273,289.392,117.255,289.432,117.235,289.472L117.235,289.472z M100.085,308.093    c8.825-6.819,15.39-18.402,15.867-19.258c0.862-2.529,3.387-4.377,6.82-5.62c3.976-1.439,9.217-2.088,14.455-2.048    c5.233,0.038,10.477,0.762,14.464,2.064c3.624,1.183,6.262,2.877,7.038,5.021c0.994,2.746,3.993,6.447,7.545,10.153    c6.679,6.971,15.247,13.881,16.38,14.742c0.294,0.223,0.71,0.471,1.157,0.736c2.204,1.314,5.07,3.023,3.194,6.91    c-1.353,2.803-3.614,2.671-5.294,2.05c0.59,1.574,0.83,3.663-1.101,5.076c-1.634,1.196-3.349,1.178-4.666,0.855    c0.604,1.417,0.708,3.267-1.752,4.543c-1.913,0.994-3.758,0.513-5.197-0.302c0.691,2.136,0.507,4.599-3.703,5.015    c-3.455,0.342-5.377-1.141-6.441-2.756c-0.379,0.749-1.073,1.407-2.286,1.75c-2.15,0.607-4.017-0.577-5.215-1.695    c-0.16,1.494-0.92,3.258-3.545,3.544c-2.505,0.274-4.314-1.053-5.398-2.227c-0.388,1.578-1.604,3.472-5.223,3.425    c-3.85-0.051-5.22-2.901-5.708-4.977c-0.72,0.85-1.825,1.693-3.424,1.809c-2.211,0.162-3.01-1.655-3.294-3.134    c-1.453,1.526-4.165,3.694-7.495,3.131c-3.308-0.56-4.053-3.603-4.148-5.802c-1.697,1.93-4.675,4.573-7.569,3.521    c-2.78-1.012-2.955-3.821-2.669-5.859c-1.525,1.035-3.058,1.284-4.348,0.988c-0.76-0.174-1.434-0.536-1.978-1.037    c-0.542-0.507-0.955-1.149-1.189-1.882c-0.355-1.115-0.301-2.441,0.331-3.801c-0.979,0.288-1.983,0.423-2.938,0.417    c-1.233-0.008-2.395-0.248-3.325-0.689c-1.004-0.479-1.759-1.197-2.098-2.127c-0.211-0.583-0.254-1.237-0.082-1.95    c0.612-2.539,1.744-3.228,4.632-4.981C93.723,312.578,96.332,310.991,100.085,308.093z" id="path83"/>
		<path style="fill-rule:evenodd;clip-rule:evenodd;fill:#FFFFFF;" d="M105.174,278.411c-19.102,6.77-10.187,5.585-10.985,8.899    c-0.798,3.314,4.909,4.541,8.592,2.149c-4.28,4.326,0.521,11.313,5.524,4.726c-2.69,7.203,4.879,9.931,8.593,1.902    c-1.351,7.856,7.308,9.655,9.943,2.7c-0.245,5.695,5.461,4.818,5.77,0.86c-0.125,6.467,8.508,6.884,8.653,1.472    c0.592,5.071,8.78,4.376,7.612-1.165c1.836,5.323,7.51,3.456,6.751-1.474c0.658,7.406,10.725,6.009,7.365-1.288    c3.182,6.461,10.189,2.826,6.444-2.578c2.918,3.636,8.968,0.239,5.156-5.34c0,0,6.062,2.676,7.781-0.885    c1.718-3.559,0.105-7.463-15.962-11.874c-19.345-5.31-19.385-34.699-29.025-33.766    C128.291,243.63,125.504,271.205,105.174,278.411z" id="path84"/>
		<path style="fill-rule:evenodd;clip-rule:evenodd;fill:#272828;" d="M105.412,279.085c-10.372,3.676-12.104,4.661-11.901,5.233    c0.038,0.108,0.212,0.29,0.399,0.487c0.597,0.63,1.288,1.358,0.973,2.67c-0.086,0.354-0.069,0.668,0.028,0.939    c0.167,0.457,0.583,0.832,1.152,1.103c0.642,0.306,1.456,0.472,2.331,0.477c1.331,0.009,2.788-0.347,3.998-1.134    c0.33-0.215,0.772-0.12,0.987,0.211c0.187,0.286,0.14,0.656-0.091,0.891c-1.389,1.406-1.685,3.111-1.283,4.4    c0.155,0.499,0.415,0.93,0.753,1.247c0.318,0.299,0.711,0.496,1.153,0.55c1.044,0.125,2.393-0.517,3.825-2.403    c0.239-0.314,0.686-0.375,0.999-0.137c0.257,0.194,0.345,0.528,0.238,0.815c-0.798,2.14-0.616,3.8,0.106,4.795    c0.294,0.405,0.679,0.7,1.12,0.867c0.453,0.172,0.972,0.216,1.519,0.114c1.525-0.282,3.25-1.653,4.531-4.421    c0.166-0.358,0.59-0.516,0.948-0.351c0.3,0.139,0.458,0.459,0.405,0.77c-0.404,2.354,0.161,4.079,1.181,5.102    c0.477,0.478,1.058,0.805,1.685,0.969c0.629,0.166,1.31,0.169,1.981-0.001c1.474-0.374,2.907-1.586,3.722-3.74    c0.139-0.37,0.552-0.557,0.92-0.418c0.305,0.116,0.486,0.417,0.461,0.726c-0.065,1.645,0.406,2.606,1.063,3.025    c0.249,0.158,0.531,0.241,0.82,0.253h0.006c0.299,0.012,0.609-0.052,0.903-0.18c0.794-0.349,1.462-1.178,1.552-2.349    c0.03-0.394,0.373-0.689,0.767-0.66c0.393,0.029,0.689,0.373,0.66,0.767l-0.001,0.006c-0.025,2.111,1.011,3.46,2.312,4.064    c0.488,0.227,1.011,0.352,1.528,0.377c0.514,0.024,1.022-0.05,1.48-0.222c1.056-0.397,1.868-1.339,1.909-2.822    c0.009-0.394,0.335-0.706,0.73-0.696c0.36,0.008,0.652,0.283,0.692,0.632c0.175,1.484,1.146,2.361,2.273,2.666    c0.491,0.133,1.013,0.159,1.517,0.084c0.495-0.073,0.965-0.247,1.36-0.516l0.037-0.022c0.831-0.584,1.335-1.642,1.016-3.152    c-0.08-0.386,0.168-0.764,0.554-0.845c0.357-0.073,0.706,0.133,0.821,0.468c0.534,1.543,1.399,2.374,2.289,2.634    c0.393,0.116,0.794,0.12,1.172,0.023c0.379-0.095,0.735-0.294,1.036-0.579c0.63-0.597,1.023-1.58,0.915-2.851l-0.044-0.362    c-0.058-0.391,0.212-0.756,0.602-0.814c0.391-0.059,0.755,0.211,0.814,0.602c0.026,0.17,0.045,0.337,0.058,0.5    c0.305,1.968,1.391,3.133,2.604,3.585c0.641,0.239,1.32,0.282,1.933,0.141c0.59-0.136,1.118-0.443,1.482-0.911    c0.666-0.851,0.82-2.264-0.07-4.198c-0.166-0.358-0.009-0.783,0.349-0.948c0.359-0.165,0.784-0.008,0.948,0.349l0.002,0.004    c1.028,2.074,2.451,2.966,3.686,3.028c0.488,0.023,0.944-0.082,1.328-0.295c0.376-0.205,0.683-0.515,0.881-0.901    c0.453-0.882,0.362-2.19-0.689-3.708c-0.224-0.324-0.142-0.77,0.182-0.993c0.311-0.214,0.73-0.149,0.962,0.14    c0.828,1.031,1.948,1.376,2.929,1.195c0.417-0.076,0.809-0.245,1.142-0.496c0.329-0.247,0.601-0.575,0.784-0.971    c0.465-1.007,0.351-2.467-0.846-4.218c-0.221-0.326-0.138-0.77,0.189-0.993c0.214-0.146,0.481-0.159,0.702-0.059    c0.351,0.15,5.468,2.289,6.838-0.545c0.724-1.502,0.738-3.085-1.147-4.776c-2.122-1.904-6.447-3.928-14.358-6.1    c-11.259-3.091-16.103-13.951-19.982-22.648c-2.823-6.333-5.107-11.452-8.789-11.095c-3.434,0.332-6.061,5.254-9.319,11.362    C123.433,263.634,117.469,274.811,105.412,279.085L105.412,279.085z M92.162,284.793c-0.505-1.424,1.256-2.975,12.774-7.057    c11.537-4.089,17.354-14.992,21.939-23.586c3.457-6.482,6.244-11.705,10.443-12.11c4.701-0.456,7.172,5.084,10.227,11.933    c3.758,8.425,8.449,18.943,19.053,21.854c8.155,2.238,12.669,4.373,14.941,6.412c2.509,2.253,2.47,4.402,1.477,6.461    c-1.357,2.809-4.804,2.406-6.93,1.834c0.62,1.543,0.547,2.9,0.059,3.957c-0.284,0.614-0.709,1.127-1.226,1.514    c-0.511,0.384-1.108,0.644-1.741,0.76c-0.667,0.122-1.372,0.087-2.057-0.129c0.219,1.045,0.075,1.982-0.314,2.74    c-0.333,0.65-0.843,1.165-1.462,1.507c-0.61,0.336-1.327,0.504-2.084,0.467c-0.941-0.048-1.946-0.415-2.875-1.176    c-0.044,0.964-0.358,1.768-0.849,2.394c-0.575,0.736-1.388,1.218-2.288,1.426c-0.876,0.202-1.841,0.142-2.75-0.196    c-0.997-0.373-1.929-1.08-2.598-2.146c-0.229,0.46-0.525,0.857-0.869,1.183c-0.483,0.457-1.059,0.775-1.675,0.932    c-0.618,0.156-1.275,0.149-1.921-0.04c-0.695-0.203-1.374-0.622-1.96-1.277c-0.288,0.839-0.826,1.5-1.504,1.973l-0.042,0.033    c-0.579,0.393-1.255,0.645-1.954,0.75c-0.694,0.104-1.416,0.065-2.099-0.118c-0.98-0.265-1.879-0.821-2.5-1.685    c-0.513,0.893-1.312,1.513-2.236,1.859c-0.642,0.241-1.342,0.346-2.046,0.312c-0.7-0.032-1.406-0.201-2.059-0.505    c-1.161-0.539-2.166-1.497-2.71-2.875c-0.398,0.47-0.887,0.828-1.41,1.058c-0.489,0.215-1.013,0.317-1.529,0.298h-0.012    c-0.533-0.023-1.056-0.178-1.525-0.478c-0.621-0.395-1.139-1.038-1.443-1.958c-0.997,1.378-2.286,2.215-3.611,2.551    c-0.905,0.229-1.828,0.224-2.692-0.005c-0.866-0.228-1.67-0.681-2.333-1.344c-0.845-0.847-1.455-2.032-1.657-3.522    c-1.28,1.666-2.76,2.565-4.139,2.819c-0.81,0.15-1.589,0.081-2.28-0.181c-0.704-0.267-1.313-0.73-1.773-1.364    c-0.638-0.882-0.985-2.098-0.875-3.569c-1.173,0.898-2.309,1.199-3.302,1.08c-0.759-0.092-1.427-0.426-1.965-0.93    c-0.518-0.486-0.911-1.131-1.14-1.864c-0.342-1.1-0.321-2.411,0.199-3.69c-0.818,0.225-1.654,0.331-2.45,0.326    c-1.09-0.007-2.119-0.22-2.941-0.611c-0.898-0.428-1.575-1.071-1.879-1.907c-0.19-0.527-0.228-1.115-0.073-1.756    c0.134-0.56-0.271-0.985-0.621-1.355C92.577,285.477,92.302,285.189,92.162,284.793z" id="path85"/>
		<path style="fill-rule:evenodd;clip-rule:evenodd;fill:#272828;" d="M122.654,273.104c-2.499-0.623-5.939,2.605-4.021,5.004    c1.238,1.551,5.106,0.44,5.687-1.252c0.074-0.214-0.155-0.419-0.36-0.361c-1.331,0.376-2.518,1.396-3.992,1.085    c-0.939-0.197-0.823-1.381-0.466-2.033c0.551-1.008,1.907-1.889,3.069-1.83C122.925,273.734,122.992,273.19,122.654,273.104z" id="path86"/>
		<path style="fill-rule:evenodd;clip-rule:evenodd;fill:#272828;" d="M123.541,276.536c-0.388,1.254-0.457,3.793,1.333,4.021    c0.634,0.08,1.153-0.367,1.455-0.878c0.215-0.363,0.322-0.79,0.386-1.203c0.093-0.586-0.003-1.016-0.275-1.521    c-0.105-0.195-0.358-0.118-0.427,0.057c-0.147,0.367-0.227,0.653-0.291,1.048c-0.053,0.325-0.104,0.642-0.216,0.952    c-0.096,0.264-0.349,0.575-0.556,0.535c-0.312-0.06-0.492-0.469-0.593-0.744c-0.251-0.691-0.174-1.456-0.104-2.17    C124.294,276.21,123.657,276.161,123.541,276.536z" id="path87"/>
		<path style="fill-rule:evenodd;clip-rule:evenodd;fill:#272828;" d="M125.927,276.926c0.094,1.204,0.999,2.181,2.268,1.968    c1.066-0.179,1.881-1.95,0.706-2.55c-0.185-0.094-0.441-0.023-0.492,0.199c-0.123,0.538,0.245,1.197-0.479,1.391    c-0.747,0.2-1.243-0.439-1.391-1.091C126.46,276.502,125.898,276.573,125.927,276.926z" id="path88"/>
		<path style="fill-rule:evenodd;clip-rule:evenodd;fill:#272828;" d="M153.812,276.957c1.373-0.171,2.696,0.145,3.742,1.078    c0.879,0.783,1.406,2.482,0.569,3.473c-0.553,0.655-1.565,0.647-2.32,0.463c-1.092-0.268-1.522-1.121-2.302-1.801    c-0.245-0.213-0.673-0.085-0.665,0.275c0.06,2.684,4.795,3.672,6.211,1.552c0.872-1.306,0.39-3.005-0.526-4.147    c-1.105-1.377-3.151-1.592-4.756-1.245C153.57,276.649,153.612,276.982,153.812,276.957z" id="path89"/>
		<path style="fill-rule:evenodd;clip-rule:evenodd;fill:#272828;" d="M152.631,280.676c0.428,1.268-0.103,2.652-1.569,2.788    c-0.553,0.052-1.051-0.143-1.418-0.555c-0.462-0.517-0.216-1.392-0.719-1.83c-0.109-0.096-0.29-0.149-0.422-0.055    c-0.85,0.614-0.228,2.084,0.308,2.719c0.564,0.667,1.533,0.918,2.371,0.811c2.141-0.277,2.856-2.296,2.02-4.119    C153.053,280.113,152.519,280.342,152.631,280.676z" id="path90"/>
		<path style="fill-rule:evenodd;clip-rule:evenodd;fill:#272828;" d="M147.851,281.185c-0.27,0.443-0.671,1.091-1.265,0.884    c-0.539-0.188-0.647-1.133-0.94-1.528c-0.184-0.25-0.643-0.274-0.721,0.094c-0.2,0.952,0.483,2.268,1.463,2.52    c1.067,0.275,1.717-0.938,1.974-1.754C148.458,281.091,148.013,280.918,147.851,281.185z" id="path91"/>
		<path style="fill-rule:evenodd;clip-rule:evenodd;fill:#272828;" d="M143.937,263.626c1.022,0.92,2.206,2.594,0.544,3.511    c-0.462,0.256-1.037,0.331-1.545,0.188c-0.668-0.188-0.623-0.799-1.056-1.202c-0.171-0.159-0.412-0.116-0.539,0.069    c-0.566,0.821,0.48,1.833,1.169,2.107c0.794,0.315,1.76,0.111,2.486-0.279c0.76-0.408,1.324-1.186,1.308-2.066    c-0.025-1.234-1.092-2.136-2.034-2.759C144.01,263.021,143.706,263.418,143.937,263.626z" id="path92"/>
		<path style="fill-rule:evenodd;clip-rule:evenodd;fill:#272828;" d="M141.326,266.072c-0.058,1.057-0.844,1.71-1.879,1.718    c-1.18,0.01-0.878-1.164-1.386-1.808c-0.122-0.155-0.343-0.103-0.473,0c-0.601,0.476-0.299,1.603,0.097,2.115    c0.426,0.551,1.083,0.794,1.762,0.813c1.527,0.042,2.648-1.389,2.502-2.839C141.911,265.677,141.349,265.664,141.326,266.072z" id="path93"/>
		<path style="fill-rule:evenodd;clip-rule:evenodd;fill:#272828;" d="M118.169,285.472c-1.696,0.98-2.54,3.232-1.459,4.989    c0.46,0.748,1.276,1.183,2.15,1.143c1.11-0.05,2.638-0.974,2.812-2.136c0.031-0.21-0.123-0.409-0.35-0.349    c-1.154,0.3-2.634,2.338-3.702,0.681c-0.807-1.25-0.33-2.993,0.845-3.82C118.77,285.765,118.502,285.279,118.169,285.472z" id="path94"/>
		<path style="fill-rule:evenodd;clip-rule:evenodd;fill:#272828;" d="M120.773,289.153c-0.386,1.573,0.523,3.046,2.19,3.149    c0.699,0.042,1.389-0.313,1.803-0.863c0.424-0.567,0.69-1.74,0.081-2.27c-0.164-0.145-0.371-0.108-0.497,0.063    c-0.514,0.702-0.16,1.926-1.387,1.953c-1.033,0.024-1.512-1.068-1.516-1.94C121.447,288.861,120.867,288.772,120.773,289.153z" id="path95"/>
		<path style="fill-rule:evenodd;clip-rule:evenodd;fill:#272828;" d="M144.718,288.618c1.104-0.074,2.255,0.67,1.997,1.898    c-0.158,0.754-1.032,0.985-1.664,1.138c-0.582,0.139-1.212,0.116-1.79-0.019c-0.549-0.129-0.844-0.513-1.258-0.847    c-0.139-0.111-0.394-0.136-0.483,0.061c-0.416,0.924,0.5,1.528,1.261,1.799c1.087,0.387,2.427,0.193,3.448-0.285    c1.023-0.48,1.514-1.505,1.3-2.599c-0.252-1.291-1.733-1.83-2.876-1.643C144.37,288.169,144.436,288.637,144.718,288.618z" id="path96"/>
		<path style="fill-rule:evenodd;clip-rule:evenodd;fill:#272828;" d="M141.093,290.936c-0.13,0.745-0.689,1.396-1.49,1.363    c-0.91-0.037-0.993-1.167-1.394-1.727c-0.122-0.168-0.356-0.183-0.475,0c-0.808,1.242,0.58,2.664,1.765,2.801    c1.412,0.163,2.109-1.166,2.107-2.368C141.605,290.719,141.144,290.64,141.093,290.936z" id="path97"/>
		<path style="fill-rule:evenodd;clip-rule:evenodd;fill:#272828;" d="M110.25,307.74c-2.594,0.212-6.233,3.311-3.983,6.03    c1.771,2.139,5.518-0.042,6.547-1.956c0.096-0.177-0.064-0.457-0.284-0.371c-1.477,0.58-3.073,2.318-4.766,2.001    c-1.501-0.281-1.033-2.411-0.526-3.268c0.635-1.07,1.822-1.967,3.048-2.176C110.433,307.976,110.4,307.728,110.25,307.74z" id="path98"/>
		<path style="fill-rule:evenodd;clip-rule:evenodd;fill:#272828;" d="M112.497,311.765c-0.649,1.714-0.161,3.712,1.748,4.294    c1.894,0.575,3.457-1.516,2.941-3.272c-0.136-0.46-0.816-0.475-0.945,0c-0.253,0.938-0.276,2.517-1.698,2.192    c-1.312-0.299-1.753-1.922-1.552-3.078C113.049,311.574,112.614,311.455,112.497,311.765z" id="path99"/>
		<path style="fill-rule:evenodd;clip-rule:evenodd;fill:#272828;" d="M116.694,313.006c-0.115,1.044,0.623,2.11,1.763,1.978    c1.065-0.123,1.995-1.605,1.078-2.462c-0.123-0.115-0.338-0.103-0.425,0.056c-0.266,0.49-0.117,1.3-0.781,1.449    c-0.619,0.138-0.961-0.636-1.04-1.101C117.227,312.561,116.73,312.696,116.694,313.006z" id="path100"/>
		<path style="fill-rule:evenodd;clip-rule:evenodd;fill:#272828;" d="M148.94,311.404c1.899,1.035,4.941,2.514,4.121,5.152    c-0.48,1.536-2.077,2.777-3.576,1.841c-1.171-0.729-1.365-2.252-1.786-3.432c-0.12-0.339-0.558-0.332-0.681,0    c-0.566,1.525,0.311,3.45,1.596,4.361c1.496,1.064,3.144,0.745,4.37-0.555c1.253-1.33,1.695-3.221,0.71-4.804    c-0.945-1.52-2.87-2.388-4.398-3.174C148.894,310.588,148.54,311.185,148.94,311.404z" id="path101"/>
		<path style="fill-rule:evenodd;clip-rule:evenodd;fill:#272828;" d="M147.085,314.983c-0.226,1.2-0.838,3.168-2.283,3.294    c-0.729,0.063-1.259-0.651-1.548-1.218c-0.347-0.677-0.084-1.401-0.204-2.105c-0.043-0.262-0.379-0.354-0.585-0.239    c-0.958,0.533-0.786,1.944-0.421,2.797c0.417,0.978,1.25,1.852,2.352,1.98c2.546,0.297,3.138-2.481,3.249-4.431    C147.66,314.742,147.144,314.669,147.085,314.983z" id="path102"/>
		<path style="fill-rule:evenodd;clip-rule:evenodd;fill:#272828;" d="M142.427,314.921c-0.315,0.671-0.998,1.04-1.703,0.679    c-0.706-0.366-0.679-1.092-1.085-1.685c-0.085-0.125-0.252-0.157-0.366-0.047c-0.97,0.931,0.179,2.406,1.146,2.742    c1.173,0.408,2.164-0.398,2.509-1.477C143.024,314.839,142.561,314.637,142.427,314.921z" id="path103"/>
		<path style="fill-rule:evenodd;clip-rule:evenodd;fill:#272828;" d="M167.452,311.517c0.97,0.007,2.342,0.203,2.765,1.243    c0.31,0.763-0.028,1.623-0.448,2.271c-0.368,0.568-1.017,1.142-1.718,1.209c-1.079,0.105-1.355-1.107-2.171-1.5    c-0.201-0.097-0.498-0.03-0.546,0.223c-0.259,1.336,1.352,2.481,2.552,2.501c1.177,0.021,2.149-0.888,2.718-1.836    c0.561-0.937,0.774-2.146,0.291-3.154c-0.61-1.276-2.23-1.338-3.443-1.203C167.298,311.287,167.289,311.516,167.452,311.517z" id="path104"/>
		<path style="fill-rule:evenodd;clip-rule:evenodd;fill:#272828;" d="M165.303,314.62c-0.024,0.786-0.346,2.172-1.194,2.523    c-0.821,0.341-1.212-1.333-1.528-1.796c-0.145-0.212-0.477-0.192-0.554,0.072c-0.381,1.322,0.681,3.452,2.31,2.87    c1.502-0.534,1.696-2.393,1.442-3.734C165.727,314.277,165.311,314.355,165.303,314.62z" id="path105"/>
		<path style="fill-rule:evenodd;clip-rule:evenodd;fill:#272828;" d="M123.869,319.731c-0.842,0.794-1.69,1.837-1.554,3.07    c0.118,1.067,0.902,1.781,1.861,2.153c0.992,0.386,2.15,0.169,3.028-0.388c1.035-0.655,2.172-2.333,1.759-3.599    c-0.083-0.254-0.461-0.421-0.658-0.173c-0.633,0.793-0.702,1.835-1.487,2.565c-0.554,0.514-1.376,0.688-2.102,0.533    c-2.044-0.434-1.557-2.645-0.511-3.825C124.409,319.84,124.094,319.519,123.869,319.731z" id="path106"/>
		<path style="fill-rule:evenodd;clip-rule:evenodd;fill:#272828;" d="M128.648,321.22c-0.136,1.865,3.091,2.828,3.154,0.657    c0.011-0.342-0.156-1.091-0.659-0.953c-0.485,0.135-0.292,0.797-0.48,1.133c-0.116,0.208-0.514,0.073-0.661,0.005    c-0.437-0.201-0.703-0.547-0.926-0.957C128.959,320.892,128.665,321.005,128.648,321.22z" id="path107"/>
		<path style="fill-rule:evenodd;clip-rule:evenodd;fill:#272828;" d="M104.245,342.25c-1.48,0.954-2.871,2.409-3.104,4.23    c-0.218,1.702,0.489,3.436,2.103,4.185c2.567,1.189,6.23-1.729,6.827-4.146c0.069-0.278-0.249-0.429-0.452-0.262    c-1.486,1.217-2.767,2.816-4.7,3.322c-1.623,0.424-2.629-1.273-2.682-2.657c-0.061-1.59,1.174-3.296,2.34-4.239    C104.822,342.485,104.505,342.082,104.245,342.25z" id="path108"/>
		<path style="fill-rule:evenodd;clip-rule:evenodd;fill:#272828;" d="M109.781,346.505c-0.545,1.71,0.322,3.632,2.212,3.865    c0.711,0.088,1.437-0.161,1.917-0.696c0.627-0.698,0.663-1.658,0.508-2.535c-0.099-0.557-0.338-1.139-0.804-1.478    c-0.555-0.403-0.646,0.505-0.595,0.809c0.128,0.75,0.596,1.744-0.001,2.42c-0.346,0.395-0.954,0.422-1.422,0.204    c-0.699-0.326-1.044-1.118-1.128-1.848c-0.024-0.215-0.029-0.436-0.031-0.652C110.434,346.209,109.895,346.148,109.781,346.505z" id="path109"/>
		<path style="fill-rule:evenodd;clip-rule:evenodd;fill:#272828;" d="M113.418,346.128c0.477,0.664,1.209,1.208,2.066,0.987    c0.868-0.226,1.169-1.479,0.613-2.114c-0.074-0.084-0.23-0.061-0.281,0.037c-0.211,0.417-0.144,1.032-0.543,1.328    c-0.493,0.364-1.162-0.187-1.48-0.527C113.61,345.645,113.258,345.906,113.418,346.128z" id="path110"/>
		<path style="fill-rule:evenodd;clip-rule:evenodd;fill:#272828;" d="M132.897,348.79c-2,0.904-3.368,2.7-3.746,4.855    c-0.275,1.576,0.363,3.728,1.833,4.546c2.517,1.4,6.205-3.185,5.929-5.438c-0.051-0.411-0.508-0.544-0.76-0.205    c-1.13,1.521-1.825,4.393-4.089,4.684c-1.512,0.194-1.895-2.446-1.854-3.443c0.074-1.788,1.415-3.745,2.862-4.697    C133.263,348.966,133.1,348.699,132.897,348.79z" id="path111"/>
		<path style="fill-rule:evenodd;clip-rule:evenodd;fill:#272828;" d="M136.188,352.754c0.159,2.291,2.746,5.521,5.287,4.167    c1.134-0.605,1.345-1.754,1.152-2.935c-0.139-0.847-0.817-2.78-1.869-2.799c-0.236-0.003-0.366,0.186-0.394,0.395    c-0.082,0.605,0.617,1.361,0.847,1.912c0.289,0.693,0.586,1.8-0.145,2.325c-1.715,1.232-3.97-1.713-4.257-3.147    C136.74,352.321,136.164,352.399,136.188,352.754z" id="path112"/>
		<path style="fill-rule:evenodd;clip-rule:evenodd;fill:#272828;" d="M140.499,351.841c1.186,1.482,3.261,3.19,5.279,2.217    c1.405-0.676,1.929-3.036,0.05-3.515c-0.214-0.055-0.48,0.154-0.389,0.389c0.184,0.474,0.523,0.845,0.538,1.373    c0.021,0.728-1.015,0.935-1.537,0.958c-1.274,0.057-2.596-1.099-3.424-1.941C140.678,350.978,140.211,351.48,140.499,351.841z" id="path113"/>
		<path style="fill-rule:evenodd;clip-rule:evenodd;fill:#272828;" d="M170.036,343.429c1.292,0.359,2.581,1.043,2.972,2.417    c0.282,0.99-0.135,2.045-0.708,2.844c-0.501,0.698-1.417,1.284-2.305,1.152c-1.483-0.223-1.855-1.793-2.856-2.639    c-0.252-0.215-0.649-0.082-0.657,0.271c-0.04,1.615,1.653,3.29,3.183,3.567c1.382,0.252,2.696-0.486,3.508-1.57    c0.798-1.069,1.094-2.452,0.693-3.736c-0.511-1.628-2.155-2.419-3.714-2.722C169.879,342.961,169.765,343.353,170.036,343.429z" id="path114"/>
		<path style="fill-rule:evenodd;clip-rule:evenodd;fill:#272828;" d="M166.242,347.328c-0.009,1.591-1.455,4.999-3.504,3.242    c-1.124-0.964-1.013-2.827-2.15-3.69c-0.195-0.148-0.44,0.021-0.511,0.208c-0.379,0.998,0.361,2.387,0.827,3.256    c0.492,0.918,1.335,1.77,2.41,1.901c1.154,0.142,2.517-0.436,3.139-1.449c0.684-1.113,0.626-2.305,0.438-3.556    C166.833,346.863,166.244,346.967,166.242,347.328z" id="path115"/>
		<path style="fill-rule:evenodd;clip-rule:evenodd;fill:#272828;" d="M160.163,347.329c-0.31,0.511-0.852,0.995-1.469,0.69    c-0.639-0.316-0.608-1.267-1.197-1.56c-0.132-0.065-0.287-0.059-0.394,0.051c-0.413,0.418-0.149,1.129,0.066,1.592    c0.219,0.475,0.686,0.877,1.166,1.065c1.219,0.479,2.025-0.601,2.356-1.617C160.795,347.231,160.33,347.055,160.163,347.329z" id="path116"/>
		<path style="fill-rule:evenodd;clip-rule:evenodd;fill:#272828;" d="M100.963,375.17c-1.245,0.374-2.353,1.018-3.004,2.174    c-0.512,0.91-0.598,2-0.166,2.952c0.405,0.89,1.395,1.303,2.324,1.224c0.647-0.053,1.254-0.313,1.813-0.633    c0.709-0.405,1.693-1.101,1.874-1.941c0.049-0.232-0.144-0.443-0.384-0.384c-0.611,0.153-1.119,0.709-1.616,1.079    c-0.449,0.336-0.938,0.612-1.48,0.764c-0.668,0.188-1.312-0.004-1.667-0.613c-1.002-1.729,1.039-3.684,2.442-4.295    C101.289,375.414,101.153,375.112,100.963,375.17z" id="path117"/>
		<path style="fill-rule:evenodd;clip-rule:evenodd;fill:#272828;" d="M103.377,378.701c-0.643,0.957-0.961,2.028-0.475,3.118    c0.397,0.893,1.373,1.46,2.302,1.615c0.935,0.156,1.908-0.07,2.586-0.757c0.765-0.773,1.041-2.37,0.204-3.173    c-0.197-0.187-0.469-0.083-0.559,0.147c-0.274,0.696-0.008,1.537-0.526,2.143c-0.356,0.416-0.966,0.531-1.486,0.452    c-1.635-0.248-2.091-1.839-1.499-3.226C104.081,378.653,103.61,378.357,103.377,378.701z" id="path118"/>
		<path style="fill-rule:evenodd;clip-rule:evenodd;fill:#272828;" d="M107.492,379.963c0.378,0.98,1.349,1.738,2.438,1.583    c0.928-0.135,2.112-1.261,1.62-2.257c-0.071-0.144-0.3-0.211-0.433-0.114c-0.554,0.405-0.586,1.177-1.308,1.428    c-0.753,0.263-1.403-0.419-1.858-0.908C107.772,379.501,107.391,379.701,107.492,379.963z" id="path119"/>
		<path style="fill-rule:evenodd;clip-rule:evenodd;fill:#272828;" d="M137.535,380.867c0.908,0.502,1.801,1.27,1.841,2.38    c0.028,0.786-0.296,1.526-0.854,2.069c-0.552,0.536-1.335,0.723-2.068,0.52c-1.309-0.364-1.644-1.795-2.607-2.556    c-0.258-0.203-0.657-0.092-0.666,0.275c-0.029,1.503,1.504,2.921,2.82,3.408c1.135,0.419,2.372,0.021,3.238-0.757    c0.818-0.734,1.24-1.88,1.089-2.962c-0.191-1.369-1.31-2.342-2.507-2.868C137.494,380.233,137.206,380.686,137.535,380.867z" id="path120"/>
		<path style="fill-rule:evenodd;clip-rule:evenodd;fill:#272828;" d="M132.838,383.408c-0.071,1.571-0.648,4.166-2.641,4.263    c-2.175,0.105-2.325-2.731-3.242-3.984c-0.17-0.229-0.485-0.195-0.586,0.077c-0.845,2.254,1.553,5.16,3.829,5.181    c2.849,0.027,3.445-3.377,3.228-5.536C133.388,383.037,132.855,383.025,132.838,383.408z" id="path121"/>
		<path style="fill-rule:evenodd;clip-rule:evenodd;fill:#272828;" d="M126.101,383.772c-0.278,1.032-1.1,1.555-2.022,0.913    c-0.41-0.285-0.607-0.784-0.736-1.241c-0.171-0.609,0.039-1.292-0.173-1.878c-0.063-0.176-0.288-0.318-0.466-0.189    c-0.76,0.55-0.732,1.721-0.542,2.542c0.183,0.789,0.789,1.557,1.497,1.936c0.617,0.33,1.362,0.376,1.983,0.049    c0.738-0.388,0.939-1.301,1.035-2.055C126.72,383.513,126.185,383.46,126.101,383.772z" id="path122"/>
		<path style="fill-rule:evenodd;clip-rule:evenodd;fill:#272828;" d="M155.841,380.183c-2.594,1.367-3.37,4.625-1.175,6.767    c0.867,0.847,2.148,1.182,3.29,0.734c1.369-0.537,2.911-2.402,2.65-3.929c-0.049-0.289-0.407-0.304-0.59-0.156    c-0.551,0.448-0.825,1.222-1.209,1.812c-0.302,0.464-0.707,0.848-1.196,1.107c-0.763,0.405-1.622,0.059-2.199-0.492    c-1.672-1.6-0.961-4.073,0.773-5.258C156.542,380.523,156.23,379.977,155.841,380.183z" id="path123"/>
		<path style="fill-rule:evenodd;clip-rule:evenodd;fill:#272828;" d="M160.104,383.408c-0.034,1.177,0.254,2.41,1.287,3.098    c0.848,0.565,1.946,0.436,2.829,0.044c0.878-0.389,1.576-1.263,1.712-2.216c0.163-1.133-0.482-2.832-1.764-3.013    c-0.256-0.036-0.479,0.144-0.417,0.418c0.187,0.836,0.928,1.401,0.888,2.319c-0.024,0.583-0.511,1.061-0.984,1.333    c-0.497,0.288-1.148,0.352-1.674,0.103c-0.837-0.395-1.134-1.319-1.273-2.168C160.65,382.974,160.114,383.076,160.104,383.408z" id="path124"/>
		<path style="fill-rule:evenodd;clip-rule:evenodd;fill:#272828;" d="M163.568,382.014c1.056,0.862,2.513,1.102,3.369-0.151    c0.347-0.509,0.371-1.191,0.208-1.766c-0.168-0.594-0.781-1.56-1.513-1.305c-0.097,0.034-0.163,0.111-0.165,0.218    c-0.011,0.477,0.392,0.744,0.624,1.118c0.205,0.333,0.229,0.717,0.113,1.082c-0.319,1.013-1.611,0.724-2.265,0.32    C163.648,381.35,163.295,381.789,163.568,382.014z" id="path125"/>
		<path style="fill-rule:evenodd;clip-rule:evenodd;fill:#272828;" d="M142.689,393.699c-1.381,1.193-1.58,3.388,0.074,4.427    c1.935,1.216,3.233-0.929,3.743-2.487c0.1-0.309,0.497-1.723-0.227-1.64c-0.782,0.088-1.033,1.527-1.264,2.11    c-0.354,0.893-1.069,1.6-1.987,0.826c-0.807-0.683-0.427-2.056,0.199-2.697C143.574,393.883,143.057,393.383,142.689,393.699z" id="path126"/>
		<path style="fill-rule:evenodd;clip-rule:evenodd;fill:#272828;" d="M146.121,394.263c-0.118,0.962,0.163,1.986,1.082,2.453    c0.832,0.423,1.832,0.305,2.66-0.054c0.827-0.357,1.449-1.116,1.538-2.017c0.116-1.173-1.008-2.108-2.064-2.258    c-0.205-0.028-0.46,0.179-0.306,0.398c0.377,0.531,1.102,1.216,1.115,1.795c0.009,0.377-0.365,0.746-0.831,0.993    c-0.474,0.253-1.043,0.38-1.577,0.234c-0.697-0.191-0.89-0.902-0.902-1.546C146.827,393.789,146.175,393.817,146.121,394.263z" id="path127"/>
		<path style="fill-rule:evenodd;clip-rule:evenodd;fill:#272828;" d="M109.485,388.657c-0.904,0.706-1.632,1.648-1.733,2.821    c-0.077,0.891,0.633,2.171,1.488,2.488c0.828,0.308,1.645-0.126,2.276-0.651c0.663-0.552,1.658-1.365,1.754-2.279    c0.02-0.188-0.19-0.405-0.381-0.381c-1.068,0.139-1.724,1.466-2.587,2.026c-0.706,0.457-1.026-0.166-1.313-0.765    c-0.482-1.001,0.151-2.193,0.853-2.902C110.077,388.776,109.735,388.463,109.485,388.657z" id="path128"/>
		<path style="fill-rule:evenodd;clip-rule:evenodd;fill:#272828;" d="M112.98,390.685c-1.227,1.273-0.913,2.915,0.643,3.727    c0.772,0.4,1.686,0.455,2.522,0.258c0.705-0.165,1.67-0.854,1.494-1.676c-0.044-0.206-0.26-0.285-0.445-0.253    c-0.438,0.076-0.825,0.48-1.249,0.645c-0.515,0.199-1.058,0.147-1.579,0.01c-1.219-0.313-1.603-1.309-0.935-2.36    C113.61,390.756,113.206,390.45,112.98,390.685z" id="path129"/>
		<path style="fill-rule:evenodd;clip-rule:evenodd;fill:#272828;" d="M145.727,413.036c-0.017,9.741-14.32,8.05-16.252,16.351    c-0.074,0.314,0.377,0.529,0.536,0.225c2.342-4.486,6.539-5.881,10.745-8.202c3.317-1.83,5.648-4.413,5.301-8.373    C146.038,412.828,145.727,412.82,145.727,413.036z" id="path130"/>
		<path style="fill-rule:evenodd;clip-rule:evenodd;fill:#272828;" d="M145.69,417.758c-1.695,3.89-5.607,5.359-9.175,7.081    c-2.499,1.206-5.927,3.162-6.248,6.239c-0.026,0.245,0.303,0.272,0.419,0.112c1.263-1.749,2.119-3.192,3.981-4.423    c1.619-1.07,3.461-1.811,5.198-2.66c2.817-1.377,5.242-3.089,6.253-6.169C146.199,417.69,145.796,417.515,145.69,417.758z" id="path131"/>
		<path style="fill-rule:evenodd;clip-rule:evenodd;fill:#272828;" d="M146.185,420.725c-1.518,3.54-5.689,5.531-9.036,7.03    c-2.42,1.084-5.705,2.148-6.43,5.024c-0.05,0.197,0.222,0.396,0.367,0.214c4.161-5.218,12.809-5.452,15.409-12.138    C146.565,420.677,146.261,420.549,146.185,420.725z" id="path132"/>
		<path style="fill-rule:evenodd;clip-rule:evenodd;fill:#272828;" d="M145.892,424.098c-2.165,4.441-5.795,6.093-10.08,7.981    c-2.212,0.976-5.401,2.587-5.66,5.305c-0.019,0.2,0.267,0.25,0.359,0.098c3.779-6.191,13.39-5.729,15.691-13.252    C146.258,424.047,145.977,423.924,145.892,424.098z" id="path133"/>
		<path style="fill-rule:evenodd;clip-rule:evenodd;fill:#272828;" d="M144.279,438.411c-0.421,4.146-0.417,8.317-0.398,12.485    c0.017,3.758-0.035,7.83,0.84,11.501c0.085,0.359,0.557,0.237,0.594-0.079c0.436-3.733-0.154-7.681-0.379-11.422    c-0.253-4.166-0.372-8.314-0.364-12.485C144.573,438.218,144.297,438.226,144.279,438.411z" id="path134"/>
		<path style="fill-rule:evenodd;clip-rule:evenodd;fill:#272828;" d="M144.817,464.425c-0.172,0.534-0.306,1.19-0.079,1.72    c0.088,0.208,0.457,0.206,0.546,0c0.209-0.483,0.09-1.022,0.213-1.532C145.606,464.168,144.957,463.992,144.817,464.425z" id="path135"/>
		<path style="fill-rule:evenodd;clip-rule:evenodd;fill:#272828;" d="M174.547,384.664c-0.251,1.01-0.262,2.064,0.454,2.889    c0.587,0.676,1.601,0.814,2.429,0.617c0.857-0.203,1.581-0.891,1.727-1.77c0.092-0.553-0.018-1.097-0.237-1.606    c-0.215-0.499-0.722-1.337-1.348-1.303c-0.09,0.006-0.181,0.061-0.203,0.155c-0.109,0.494,0.3,0.936,0.478,1.368    c0.148,0.359,0.27,0.697,0.252,1.09c-0.023,0.497-0.431,0.878-0.88,1.033c-0.536,0.184-1.077,0.075-1.547-0.223    c-0.684-0.43-0.754-1.406-0.646-2.12C175.071,384.488,174.626,384.346,174.547,384.664z" id="path136"/>
		<path style="fill-rule:evenodd;clip-rule:evenodd;fill:#272828;" d="M177.509,384.119c0.733,1.176,2.436,1.396,3.418,0.395    c0.424-0.432,0.546-1.059,0.379-1.63c-0.192-0.65-1.03-1.593-1.762-1.385c-0.16,0.046-0.262,0.216-0.215,0.378    c0.197,0.671,1.692,1.122,0.966,2.006c-0.663,0.811-1.746,0.362-2.454-0.098C177.637,383.653,177.383,383.915,177.509,384.119z" id="path137"/>
		<path style="fill-rule:evenodd;clip-rule:evenodd;fill:#272828;" d="M180.141,381.909c1.101,0.232,2.479-0.162,2.924-1.3    c0.418-1.068-0.35-2.455-1.533-2.518c-0.133-0.007-0.236,0.163-0.158,0.276c0.431,0.633,1.289,1.04,1.03,1.934    c-0.255,0.88-1.434,1.067-2.192,1.076C179.915,381.382,179.835,381.846,180.141,381.909z" id="path138"/>
	</g></svg>