<svg version="1.1" x="0px" y="0px" viewBox="384.63655072058583 238.7007469322121 142.2372928587517 235.94722331530937" style="enable-background:new 0 0 750 500;" xml:space="preserve" id="svg383" sodipodi:docname="simpletrees.svg" inkscape:version="1.4.2 (f4327f4, 2025-05-13)" xmlns:inkscape="http://www.inkscape.org/namespaces/inkscape" xmlns:sodipodi="http://sodipodi.sourceforge.net/DTD/sodipodi-0.dtd" xmlns="http://www.w3.org/2000/svg" xmlns:svg="http://www.w3.org/2000/svg"><defs id="defs383"/><g id="g265">
		<path style="fill-rule:evenodd;clip-rule:evenodd;fill:#FFFFFF;" d="M420.239,302.448c-6.643,24.309,2.621,46.459,15.72,51.875    c0.271-3.926,0.136-1.963,0.406-5.889C430.579,345.534,416.574,327.824,420.239,302.448z" id="path204"/>
		<path style="fill-rule:evenodd;clip-rule:evenodd;fill:#272828;" d="M418.982,313.377c-0.669,7.445,0.114,14.438,1.947,20.489    c2.82,9.301,8.107,16.36,14.386,19.387l0.306-4.411c-3.655-2.122-9.896-9.197-13.613-19.798    C420.399,324.452,419.253,319.191,418.982,313.377L418.982,313.377z M419.566,334.279c-2.763-9.115-3.207-20.299-0.029-31.966    c0.072-0.372,0.424-0.627,0.803-0.573c0.391,0.056,0.663,0.418,0.608,0.809c-1.45,10.046-0.098,18.872,2.41,26.025    c3.718,10.604,9.923,17.488,13.29,19.203c0.271,0.117,0.452,0.396,0.43,0.706l-0.404,5.887c-0.006,0.075-0.023,0.15-0.053,0.225    c-0.15,0.363-0.568,0.538-0.932,0.389C428.615,352.06,422.644,344.44,419.566,334.279z" id="path205"/>
		<path style="fill-rule:evenodd;clip-rule:evenodd;fill:#FFFFFF;" d="M446.195,262.173c5.887-6.266,1.067-10.94-4.087-3.54    c2.279-4.897-0.608-8.538-3.725-2.688c1.51-3.905,0.224-8.463-3.36-3.571c5.026-13.842-3.752-15.633-4.668-5.539    c-0.118-7.047-5.601-6.823-4.626,1.641c-1.819-9.722-8.707-6.804-5.152,1.638c-5.31-3.911-10.282-0.314-4.893,5.234    c-4.734-3.896-9.041-1.476-4.759,2.438c-3.424-2.677-5.139-2.042-3.459,3.086c-2.528-3.491-10.086-1.877-2.134,4.248    c-4.047-2.499-8.062,1.185-1.809,4.206c-4.771-2.226-6.484,0.89-2.986,3.725c-5.203-2.655-3.277,2.851,0.427,6.698    c-5.079-2.689-6.771,1.535-2.085,4.596c-4.656-1.984-6.357,3.749-3.273,6.05c-4.91-3.798-8.463-0.302-2.26,5.556    c-5.596-4.473-11.204,3.924-2.445,7.261c-5.1,2.15-3.701,10.108,4.154,6.7c-3.108,6.483,0.16,7.357,4.278,2.696    c-1.015,5.855,4.571,6.278,5.383,1.82c-0.254,5.346,7.111,6.936,6.317-0.348c-0.064,7.916,5.434,7.523,6.103,1.623    c-0.319,8.631,6.779,7.727,7.893,2.869c0.738,4.825,6.196,5.263,6.018-1.329c1.014,8.446,6.869,7.304,7.503,0.366    c0.195,6.491,6.055,6.585,6.69,1.467c0.145,7.581,10.527,5.552,8.893-1.299c2.944,5.94,7.945,2.87,6.742-2.517    c2.305,5.234,9.252,2.503,7.916-1.734c5.987,1.298,5.452-5.966,1.444-6.64c9.686-2.214,9.996-11.83-0.499-7.281    c6.824-4.215,6.111-9.838-1.293-6.793c8.348-4.913,4.955-13.139-3.673-6.644c5.844-5.77-0.355-10.118-4.185-5.83    c6.803-8.393,1.233-9.343-2.126-4.795c2.26-6.464-0.667-11.324-4.218-3.862c0.987-3.853-0.393-10.636-4.377-6.053    C454.111,260.759,450.734,257.592,446.195,262.173z" id="path206"/>
		<path style="fill-rule:evenodd;clip-rule:evenodd;fill:#272828;" d="M445.675,261.684c1.949-2.075,2.634-3.897,2.49-5.07    c-0.046-0.379-0.182-0.666-0.385-0.837c-0.197-0.165-0.483-0.242-0.839-0.209c-1.086,0.102-2.611,1.128-4.245,3.474    c-0.225,0.323-0.673,0.404-0.997,0.18c-0.29-0.202-0.385-0.58-0.24-0.891c0.815-1.752,0.918-3.278,0.57-4.152    c-0.091-0.226-0.209-0.389-0.344-0.472c-0.099-0.06-0.226-0.074-0.379-0.034c-0.611,0.163-1.411,0.952-2.293,2.609    c-0.186,0.347-0.618,0.478-0.965,0.294c-0.322-0.172-0.458-0.556-0.33-0.888c0.584-1.511,0.719-3.102,0.433-4.089    c-0.081-0.273-0.186-0.476-0.31-0.578c-0.067-0.054-0.162-0.071-0.287-0.04c-0.465,0.117-1.112,0.665-1.955,1.816    c-0.233,0.319-0.681,0.388-0.999,0.154c-0.271-0.197-0.361-0.547-0.24-0.843c1.811-5,1.776-8.295,0.978-9.949    c-0.263-0.547-0.598-0.875-0.951-0.984c-0.33-0.102-0.713-0.017-1.096,0.251c-1.02,0.712-1.957,2.53-2.226,5.476    c-0.036,0.392-0.383,0.681-0.773,0.646c-0.367-0.032-0.644-0.339-0.649-0.699c-0.036-2.166-0.587-3.531-1.262-4.091    c-0.199-0.165-0.396-0.238-0.574-0.222c-0.186,0.019-0.383,0.139-0.576,0.363c-0.69,0.801-1.125,2.604-0.791,5.497    c0.043,0.392-0.237,0.746-0.63,0.791c-0.385,0.044-0.734-0.227-0.789-0.607c-0.572-3.039-1.621-4.708-2.633-5.285    c-0.348-0.199-0.677-0.247-0.955-0.157c-0.288,0.093-0.551,0.339-0.752,0.722c-0.595,1.124-0.618,3.201,0.553,5.98    c0.153,0.363-0.019,0.781-0.381,0.934c-0.239,0.102-0.504,0.062-0.699-0.082c-1.767-1.301-3.451-1.696-4.63-1.426    c-0.431,0.098-0.783,0.286-1.028,0.55c-0.232,0.249-0.381,0.579-0.412,0.977c-0.085,1.014,0.515,2.416,2.113,4.058    c0.274,0.283,0.268,0.735-0.014,1.011c-0.271,0.262-0.694,0.268-0.971,0.022c-1.765-1.443-3.41-1.936-4.469-1.767    c-0.288,0.045-0.515,0.142-0.661,0.278c-0.116,0.107-0.188,0.254-0.199,0.431c-0.035,0.578,0.409,1.416,1.523,2.435    c0.29,0.267,0.311,0.718,0.046,1.008c-0.255,0.276-0.675,0.308-0.965,0.081c-1.011-0.789-1.832-1.26-2.414-1.375    c-0.186-0.036-0.311-0.033-0.375,0.01c-0.065,0.047-0.116,0.174-0.146,0.383c-0.097,0.653,0.084,1.734,0.592,3.286    c0.122,0.375-0.083,0.778-0.458,0.9c-0.302,0.099-0.624-0.017-0.801-0.261c-0.786-1.087-2.157-1.583-3.227-1.513    c-0.396,0.025-0.727,0.127-0.936,0.303c-0.153,0.128-0.237,0.323-0.216,0.584c0.072,0.839,0.967,2.124,3.261,3.89    c0.312,0.242,0.369,0.69,0.128,1.002c-0.229,0.299-0.65,0.364-0.959,0.159c-1.281-0.785-2.52-0.863-3.297-0.518    c-0.249,0.113-0.438,0.265-0.543,0.442c-0.094,0.155-0.127,0.347-0.084,0.561c0.145,0.702,0.969,1.588,2.818,2.481    c0.355,0.172,0.505,0.599,0.334,0.954c-0.172,0.355-0.599,0.505-0.954,0.333l-0.038-0.018c-1.451-0.67-2.534-0.794-3.198-0.569    c-0.22,0.075-0.377,0.189-0.467,0.33c-0.09,0.138-0.126,0.321-0.103,0.536l0.002,0.015c0.07,0.623,0.573,1.42,1.578,2.234    c0.307,0.249,0.353,0.698,0.104,1.004c-0.223,0.275-0.608,0.341-0.906,0.171c-0.956-0.485-1.588-0.656-1.953-0.593    c-0.074,0.012-0.117,0.048-0.133,0.102c-0.059,0.19-0.033,0.491,0.065,0.868c0.365,1.415,1.649,3.473,3.316,5.205    c0.273,0.284,0.264,0.737-0.02,1.011c-0.228,0.219-0.563,0.257-0.828,0.117c-1.487-0.787-2.589-0.923-3.238-0.655    c-0.206,0.085-0.355,0.216-0.443,0.378c-0.096,0.175-0.129,0.402-0.096,0.666c0.106,0.857,0.865,1.962,2.416,2.976    c0.331,0.216,0.424,0.66,0.207,0.99c-0.197,0.304-0.589,0.407-0.907,0.253c-1.143-0.479-2.039-0.413-2.665-0.035    c-0.345,0.209-0.617,0.516-0.809,0.879c-0.2,0.381-0.314,0.824-0.332,1.281c-0.039,0.983,0.361,2.029,1.27,2.707    c0.316,0.237,0.382,0.685,0.145,1.002c-0.235,0.316-0.685,0.382-1.001,0.146l-0.134-0.105c-1.422-1.067-2.66-1.456-3.482-1.311    c-0.271,0.049-0.48,0.159-0.609,0.322c-0.137,0.174-0.208,0.428-0.197,0.754c0.035,1.103,0.93,2.768,3.08,4.801    c0.288,0.27,0.302,0.723,0.031,1.009c-0.268,0.284-0.713,0.301-1,0.04c-1.538-1.213-3.042-1.318-4.133-0.806    c-0.565,0.267-1.022,0.699-1.315,1.223c-0.289,0.521-0.416,1.138-0.324,1.78c0.197,1.36,1.379,2.845,4.061,3.866    c0.369,0.14,0.555,0.554,0.414,0.923c-0.078,0.206-0.242,0.355-0.434,0.422c-1.573,0.681-2.411,1.995-2.511,3.249    c-0.039,0.47,0.026,0.925,0.193,1.329c0.16,0.391,0.422,0.737,0.781,1.002c0.98,0.724,2.693,0.865,5.174-0.212    c0.361-0.156,0.781,0.011,0.938,0.372c0.084,0.196,0.074,0.41-0.012,0.59c-0.951,1.984-1.268,3.36-1.131,4.149    c0.037,0.219,0.105,0.355,0.199,0.411c0.109,0.066,0.293,0.07,0.539,0.013c0.873-0.207,2.113-1.094,3.494-2.657    c0.261-0.295,0.712-0.322,1.007-0.061c0.192,0.17,0.271,0.419,0.232,0.654c-0.319,1.849,0.071,3.032,0.73,3.603    c0.223,0.191,0.478,0.313,0.742,0.361c0.269,0.05,0.552,0.027,0.827-0.064c0.754-0.254,1.442-1.032,1.679-2.323    c0.068-0.389,0.44-0.646,0.827-0.577c0.357,0.064,0.604,0.383,0.586,0.735c-0.079,1.673,0.701,2.9,1.682,3.475    c0.389,0.228,0.807,0.351,1.206,0.353c0.375,0.002,0.737-0.104,1.046-0.333c0.549-0.407,0.947-1.202,1.008-2.463    c-0.035-0.43-0.053-0.889-0.051-1.375c-0.02-0.376,0.259-0.707,0.638-0.747c0.393-0.042,0.746,0.242,0.787,0.634    c0.058,0.533,0.075,1.026,0.056,1.479c0.161,1.793,0.669,2.936,1.308,3.508c0.259,0.231,0.537,0.353,0.812,0.374    c0.278,0.02,0.566-0.061,0.843-0.237c0.787-0.503,1.458-1.698,1.664-3.502c0.043-0.393,0.396-0.676,0.787-0.633    c0.387,0.042,0.667,0.386,0.636,0.771c-0.093,2.678,0.555,4.313,1.487,5.127c0.394,0.343,0.841,0.537,1.301,0.597    c0.468,0.06,0.957-0.014,1.421-0.207c1.042-0.433,1.95-1.452,2.273-2.868c0.089-0.385,0.472-0.625,0.856-0.538    c0.295,0.068,0.506,0.31,0.547,0.592c0.224,1.445,0.906,2.412,1.691,2.815c0.296,0.151,0.61,0.219,0.912,0.193    c0.292-0.026,0.58-0.142,0.841-0.355c0.706-0.579,1.21-1.826,1.154-3.86c-0.01-0.394,0.302-0.722,0.696-0.73    c0.371-0.009,0.684,0.268,0.725,0.63c0.317,2.635,1.1,4.228,2.015,4.935c0.356,0.274,0.727,0.4,1.086,0.391    c0.367-0.01,0.742-0.159,1.096-0.44c0.931-0.734,1.685-2.279,1.889-4.5c0.035-0.393,0.383-0.682,0.773-0.646    c0.365,0.032,0.639,0.335,0.649,0.69c0.063,2.084,0.739,3.4,1.606,4.018c0.333,0.236,0.694,0.366,1.052,0.391    c0.355,0.023,0.712-0.053,1.042-0.229c0.762-0.41,1.39-1.345,1.566-2.779c0.048-0.392,0.405-0.671,0.798-0.623    c0.375,0.046,0.647,0.377,0.628,0.75c0.053,2.088,0.979,3.308,2.162,3.804c0.616,0.258,1.309,0.33,1.986,0.234    c0.687-0.097,1.357-0.363,1.924-0.781c1.166-0.863,1.895-2.392,1.409-4.43c-0.091-0.385,0.146-0.77,0.53-0.862    c0.348-0.082,0.695,0.103,0.827,0.42c0.827,1.653,1.788,2.5,2.681,2.732c0.404,0.107,0.799,0.081,1.152-0.056    c0.363-0.143,0.696-0.406,0.971-0.77c0.661-0.876,0.961-2.292,0.582-3.994c-0.085-0.385,0.158-0.766,0.543-0.851    c0.338-0.073,0.671,0.103,0.806,0.41c0.716,1.622,1.932,2.347,3.132,2.435c0.517,0.039,1.032-0.036,1.508-0.205    c0.47-0.165,0.897-0.424,1.241-0.753c0.692-0.659,1.042-1.622,0.698-2.711c-0.116-0.377,0.093-0.779,0.47-0.895    c0.123-0.038,0.247-0.041,0.365-0.017c1.626,0.353,2.643-0.004,3.158-0.665c0.225-0.29,0.364-0.642,0.422-1.018    c0.062-0.397,0.036-0.825-0.071-1.247c-0.278-1.097-1.103-2.099-2.332-2.306c-0.389-0.064-0.653-0.434-0.589-0.822    c0.05-0.298,0.276-0.522,0.555-0.581c3.533-0.81,5.71-2.624,6.472-4.288c0.261-0.568,0.342-1.102,0.24-1.542    c-0.088-0.39-0.337-0.72-0.748-0.935c-1.056-0.555-3.039-0.461-6.03,0.836c-0.361,0.154-0.782-0.011-0.938-0.372    c-0.141-0.33-0.017-0.707,0.28-0.89c2.512-1.551,3.923-3.259,4.288-4.583c0.116-0.416,0.118-0.771,0.01-1.042    c-0.093-0.235-0.29-0.425-0.588-0.547c-0.825-0.34-2.277-0.208-4.357,0.647c-0.365,0.149-0.782-0.024-0.932-0.389    c-0.141-0.341,0.004-0.727,0.319-0.898c2.88-1.701,4.243-3.77,4.409-5.388c0.058-0.563-0.037-1.058-0.268-1.438    c-0.219-0.36-0.576-0.631-1.054-0.768c-1.281-0.368-3.335,0.148-5.989,2.146c-0.314,0.237-0.763,0.173-0.999-0.142    c-0.217-0.29-0.18-0.689,0.071-0.937c1.879-1.856,2.39-3.483,2.115-4.634c-0.101-0.42-0.311-0.775-0.598-1.052    c-0.292-0.279-0.663-0.478-1.08-0.577c-1.073-0.257-2.441,0.128-3.592,1.416c-0.263,0.293-0.714,0.317-1.008,0.055    c-0.284-0.254-0.316-0.688-0.077-0.98c2.293-2.832,3.106-4.7,3.059-5.739c-0.012-0.246-0.077-0.405-0.182-0.485    c-0.118-0.091-0.317-0.121-0.57-0.093c-0.93,0.105-2.222,0.93-3.308,2.398c-0.234,0.316-0.681,0.383-0.998,0.148    c-0.257-0.19-0.35-0.521-0.249-0.809c0.88-2.517,0.938-4.737,0.466-5.967c-0.127-0.329-0.28-0.559-0.452-0.661    c-0.11-0.068-0.259-0.07-0.439,0.004c-0.665,0.275-1.516,1.29-2.473,3.301c-0.168,0.357-0.594,0.509-0.951,0.342    c-0.327-0.155-0.483-0.528-0.375-0.865c0.408-1.63,0.367-3.803-0.143-5.291c-0.174-0.504-0.394-0.906-0.653-1.146    c-0.186-0.17-0.411-0.249-0.669-0.198c-0.444,0.088-1.003,0.478-1.691,1.271c-0.259,0.298-0.713,0.329-1.011,0.069    c-0.298-0.259-0.33-0.711-0.069-1.009l0.107-0.122c1.287-1.513,1.759-2.777,1.654-3.605c-0.029-0.244-0.118-0.434-0.251-0.558    c-0.132-0.123-0.325-0.196-0.568-0.21c-0.849-0.045-2.109,0.545-3.564,2.011c-0.278,0.279-0.73,0.28-1.01,0.003    C445.416,262.406,445.41,261.964,445.675,261.684L445.675,261.684z M449.586,256.44c0.101,0.823-0.077,1.855-0.615,3.009    c0.499-0.166,0.959-0.231,1.365-0.209c0.594,0.032,1.094,0.238,1.471,0.59c0.379,0.353,0.619,0.836,0.692,1.424    c0.077,0.599-0.029,1.32-0.355,2.129c0.61-0.035,1.137,0.185,1.583,0.593c0.452,0.414,0.797,1.019,1.044,1.733    c0.29,0.847,0.45,1.884,0.482,2.94c0.549-0.665,1.078-1.081,1.567-1.283c0.633-0.263,1.216-0.213,1.723,0.097    c0.45,0.272,0.803,0.744,1.044,1.372c0.395,1.027,0.503,2.571,0.211,4.359c0.835-0.609,1.676-0.963,2.387-1.043    c0.619-0.069,1.17,0.054,1.592,0.378c0.438,0.335,0.709,0.855,0.742,1.56c0.042,0.899-0.349,2.197-1.381,3.904    c0.661-0.137,1.311-0.124,1.902,0.019c0.667,0.16,1.265,0.481,1.74,0.936c0.478,0.458,0.827,1.052,0.995,1.75    c0.211,0.883,0.122,1.932-0.391,3.077c1.699-0.743,3.124-0.864,4.197-0.557c0.839,0.241,1.475,0.733,1.881,1.399    c0.395,0.647,0.561,1.448,0.47,2.328c-0.134,1.321-0.864,2.854-2.291,4.307c0.793-0.053,1.454,0.042,1.974,0.255    c0.673,0.276,1.131,0.74,1.371,1.34c0.225,0.564,0.239,1.229,0.042,1.949c-0.255,0.919-0.881,1.963-1.885,3.014    c1.549-0.25,2.737-0.084,3.568,0.351c0.807,0.425,1.298,1.085,1.479,1.88c0.172,0.745,0.058,1.595-0.335,2.454    c-0.768,1.678-2.656,3.465-5.602,4.543c0.798,0.642,1.34,1.555,1.585,2.515c0.15,0.598,0.186,1.22,0.093,1.813    c-0.095,0.614-0.325,1.192-0.702,1.677c-0.697,0.897-1.865,1.468-3.559,1.339c0.069,1.233-0.444,2.313-1.277,3.107    c-0.489,0.468-1.093,0.833-1.752,1.067c-0.653,0.232-1.368,0.336-2.082,0.283c-0.993-0.074-1.987-0.443-2.832-1.18    c-0.123,1.043-0.477,1.936-0.989,2.613c-0.432,0.574-0.98,0.999-1.599,1.239c-0.627,0.244-1.318,0.291-2.024,0.107    c-0.732-0.191-1.48-0.638-2.181-1.382c-0.255,1.413-1.034,2.529-2.059,3.285c-0.762,0.563-1.66,0.922-2.575,1.051    c-0.926,0.13-1.875,0.028-2.732-0.33c-1.063-0.445-1.975-1.272-2.518-2.524c-0.393,0.584-0.88,1.023-1.417,1.311    c-0.57,0.305-1.19,0.439-1.81,0.397c-0.616-0.042-1.228-0.258-1.782-0.653c-0.605-0.429-1.139-1.074-1.533-1.94    c-0.436,1.03-1.021,1.819-1.674,2.334c-0.6,0.475-1.265,0.73-1.946,0.748c-0.685,0.019-1.365-0.205-1.991-0.686    c-0.659-0.509-1.261-1.324-1.727-2.467c-0.288,0.635-0.661,1.123-1.086,1.471c-0.491,0.402-1.05,0.622-1.624,0.673    c-0.566,0.047-1.142-0.073-1.684-0.351c-0.72-0.368-1.377-1.023-1.843-1.929c-0.599,0.923-1.425,1.604-2.327,1.978    c-0.69,0.288-1.431,0.397-2.153,0.304c-0.731-0.096-1.44-0.399-2.056-0.939c-0.717-0.625-1.307-1.57-1.652-2.878    c-0.357,0.542-0.773,0.959-1.218,1.243c-0.541,0.345-1.127,0.504-1.709,0.46c-0.584-0.042-1.154-0.284-1.662-0.737    c-0.451-0.405-0.856-0.991-1.17-1.767c-0.225,0.33-0.485,0.602-0.773,0.814c-0.566,0.42-1.226,0.616-1.9,0.612    c-0.653-0.003-1.318-0.193-1.925-0.548c-0.827-0.484-1.553-1.28-1.981-2.324c-0.46,0.557-1.023,0.938-1.617,1.139    c-0.504,0.168-1.031,0.208-1.537,0.114c-0.51-0.094-0.997-0.323-1.418-0.686c-0.702-0.606-1.217-1.592-1.318-2.959    c-1.079,0.964-2.074,1.543-2.881,1.733c-0.622,0.148-1.166,0.087-1.606-0.179c-0.456-0.275-0.759-0.742-0.872-1.396    c-0.14-0.802,0.029-1.963,0.597-3.474c-2.225,0.623-3.899,0.299-5-0.514c-0.579-0.426-0.998-0.984-1.257-1.613    c-0.256-0.616-0.355-1.296-0.301-1.983c0.109-1.354,0.82-2.752,2.134-3.732c-2.335-1.217-3.427-2.855-3.651-4.414    c-0.137-0.96,0.056-1.888,0.494-2.675c0.435-0.784,1.115-1.427,1.952-1.821c0.745-0.35,1.614-0.508,2.543-0.393    c-0.901-1.286-1.311-2.416-1.34-3.314c-0.022-0.676,0.159-1.245,0.505-1.683c0.354-0.447,0.861-0.737,1.483-0.849    c0.608-0.107,1.343-0.034,2.157,0.244c-0.109-0.44-0.153-0.889-0.135-1.33c0.025-0.67,0.195-1.322,0.494-1.891    c0.309-0.588,0.758-1.091,1.334-1.438c0.402-0.244,0.861-0.411,1.375-0.478c-0.662-0.794-1.02-1.595-1.109-2.307    c-0.069-0.561,0.021-1.079,0.26-1.517c0.244-0.452,0.636-0.806,1.158-1.021c0.512-0.21,1.157-0.283,1.918-0.174    c-0.986-1.362-1.708-2.744-1.987-3.825c-0.163-0.631-0.189-1.194-0.048-1.646c0.184-0.59,0.59-0.977,1.258-1.092    c0.123-0.021,0.256-0.031,0.398-0.029c-0.225-0.422-0.355-0.832-0.4-1.215l-0.004-0.026c-0.057-0.547,0.054-1.044,0.32-1.459    c0.267-0.413,0.675-0.729,1.212-0.911c0.239-0.081,0.507-0.135,0.802-0.158c-0.387-0.476-0.613-0.944-0.703-1.384    c-0.119-0.584-0.018-1.122,0.256-1.579c0.262-0.435,0.675-0.784,1.193-1.016c0.433-0.189,0.947-0.299,1.514-0.308    c-0.988-1.106-1.432-2.043-1.496-2.796c-0.066-0.77,0.217-1.371,0.724-1.798c0.452-0.38,1.075-0.594,1.765-0.638    c0.822-0.055,1.777,0.135,2.649,0.573c-0.126-0.718-0.151-1.305-0.082-1.767c0.09-0.62,0.343-1.066,0.737-1.345    c0.399-0.282,0.894-0.36,1.473-0.246l0.215,0.051c-0.089-0.314-0.122-0.61-0.104-0.884c0.036-0.561,0.265-1.031,0.651-1.388    c0.355-0.331,0.837-0.552,1.411-0.643c0.727-0.116,1.634-0.02,2.633,0.341c-0.404-0.875-0.555-1.676-0.497-2.373    c0.061-0.731,0.343-1.354,0.799-1.841c0.442-0.472,1.04-0.801,1.749-0.963c1.121-0.256,2.544-0.088,4.054,0.622    c-0.63-2.319-0.448-4.151,0.157-5.299c0.383-0.725,0.936-1.208,1.581-1.416c0.657-0.213,1.384-0.132,2.096,0.274    c0.705,0.401,1.411,1.149,2.018,2.283c0.219-1.063,0.588-1.853,1.036-2.371c0.439-0.513,0.967-0.795,1.522-0.849    c0.564-0.057,1.125,0.125,1.626,0.539c0.42,0.349,0.806,0.882,1.109,1.593c0.538-1.441,1.282-2.44,2.072-2.99    c0.76-0.531,1.574-0.68,2.33-0.446c0.732,0.225,1.376,0.802,1.82,1.727c0.769,1.597,0.975,4.382-0.064,8.325    c0.227-0.129,0.442-0.218,0.648-0.268c0.6-0.151,1.113-0.024,1.531,0.319c0.359,0.293,0.62,0.74,0.779,1.29    c0.147,0.5,0.212,1.111,0.191,1.78c0.429-0.364,0.841-0.59,1.224-0.692c0.557-0.148,1.067-0.07,1.5,0.196    c0.397,0.245,0.711,0.645,0.918,1.166c0.225,0.564,0.325,1.3,0.265,2.144c1.168-1.052,2.277-1.563,3.195-1.649    c0.748-0.07,1.393,0.126,1.885,0.539C449.184,255.094,449.495,255.694,449.586,256.44z" id="path207"/>
		<path style="fill-rule:evenodd;clip-rule:evenodd;fill:#FFFFFF;" d="M455.755,322.735c-6.345,29.975-4.953,62.921,9.696,78.316    c8.78-6.169,17.993-50.024,28.324-55.852c-11.371,9.507-7.886,50.126-23.789,63.145c13.936,22.544,18.832,39.226,20.957,63.336    c-1.823,3.521-19.931,2.771-19.982-1.232c4.182-44.754-43.634-74.094-18.218-147.801    C453.012,318.731,455.809,319.228,455.755,322.735z" id="path208"/>
		<path style="fill-rule:evenodd;clip-rule:evenodd;fill:#272828;" d="M456.454,322.884c-3.342,15.787-4.527,32.399-2.743,46.807    c1.543,12.463,5.307,23.256,11.815,30.393c3.814-3.311,7.845-14.042,12.026-25.179c4.985-13.274,10.184-27.115,15.874-30.325    c0.343-0.193,0.777-0.071,0.971,0.271c0.172,0.305,0.095,0.681-0.164,0.897c-5.009,4.189-7.079,14.938-9.317,26.564    c-2.656,13.797-5.545,28.805-14,36.183c6.822,11.103,11.459,20.811,14.657,30.713c3.251,10.064,5.018,20.311,6.085,32.412    c0.014,0.163-0.029,0.318-0.11,0.447c-0.953,1.694-4.788,2.523-8.927,2.578c-1.938,0.025-3.955-0.108-5.767-0.392    c-1.85-0.29-3.497-0.738-4.655-1.338c-1.206-0.625-1.939-1.441-1.952-2.457l0.004-0.077c1.61-17.243-4.607-32.25-11.315-48.439    c-10.623-25.639-22.463-54.219-6.897-99.441c0.124-1.539,0.636-2.518,1.255-2.973c0.336-0.248,0.707-0.357,1.082-0.336    c0.367,0.022,0.718,0.169,1.026,0.434c0.621,0.535,1.089,1.61,1.065,3.119C456.468,322.793,456.462,322.839,456.454,322.884    L456.454,322.884z M452.29,369.863c-1.802-14.543-0.61-31.295,2.753-47.212c0.002-1.004-0.243-1.661-0.568-1.939    c-0.069-0.059-0.131-0.09-0.182-0.094c-0.044-0.003-0.095,0.018-0.154,0.061c-0.323,0.238-0.6,0.875-0.679,1.983    c-0.002,0.072-0.014,0.146-0.039,0.216c-15.435,44.766-3.694,73.102,6.836,98.521c6.772,16.343,13.047,31.493,11.417,49.068    c0.024,0.407,0.466,0.806,1.181,1.177c1.022,0.53,2.518,0.932,4.217,1.198c1.737,0.271,3.673,0.399,5.532,0.376    c3.553-0.047,6.781-0.601,7.608-1.709c-1.063-11.907-2.807-21.989-5.998-31.866c-3.209-9.932-7.887-19.677-14.806-30.876    c-0.223-0.306-0.17-0.735,0.124-0.978c8.426-6.896,11.322-21.939,13.981-35.746c1.265-6.575,2.479-12.875,4.223-17.957    c-3.01,5.775-5.964,13.642-8.845,21.314c-4.44,11.826-8.714,23.203-13.027,26.234c-0.286,0.2-0.684,0.168-0.93-0.093    C457.922,394.175,453.902,382.896,452.29,369.863z" id="path209"/>
		<path style="fill-rule:evenodd;clip-rule:evenodd;fill:#FFFFFF;" d="M447.061,308.283c-7.785-8.281-1.415-14.459,5.398-4.679    c-3.009-6.472,0.806-11.283,4.925-3.553c-1.995-5.16-0.292-11.185,4.444-4.719c-6.646-18.296,4.955-20.664,6.167-7.32    c0.156-9.315,7.401-9.02,6.116,2.168c2.401-12.851,11.506-8.992,6.811,2.165c7.014-5.171,13.59-0.416,6.466,6.916    c6.258-5.146,11.947-1.95,6.289,3.222c4.525-3.537,6.793-2.696,4.573,4.081c3.339-4.614,13.329-2.48,2.82,5.614    c5.348-3.303,10.655,1.566,2.392,5.56c6.304-2.941,8.567,1.176,3.945,4.924c6.876-3.51,4.332,3.766-0.564,8.853    c6.714-3.555,8.948,2.027,2.757,6.072c6.151-2.622,8.401,4.956,4.326,7.999c6.491-5.021,11.185-0.398,2.986,7.342    c7.396-5.912,14.811,5.186,3.232,9.599c6.741,2.841,4.893,13.358-5.49,8.854c4.104,8.568-0.214,9.725-5.656,3.562    c1.342,7.74-6.041,8.301-7.117,2.408c0.338,7.065-9.398,9.167-8.346-0.46c0.085,10.464-7.184,9.943-8.068,2.147    c0.423,11.406-8.96,10.212-10.432,3.791c-0.978,6.377-8.19,6.955-7.954-1.758c-1.338,11.165-9.08,9.656-9.915,0.483    c-0.258,8.58-8.004,8.705-8.843,1.941c-0.191,10.02-13.914,7.336-11.755-1.717c-3.892,7.851-10.503,3.793-8.912-3.328    c-3.046,6.919-12.227,3.309-10.462-2.292c-7.914,1.715-7.208-7.885-1.911-8.775c-12.802-2.927-13.214-15.639,0.66-9.626    c-9.022-5.57-8.074-13.003,1.709-8.977c-11.034-6.495-6.549-17.367,4.854-8.781c-7.725-7.627,0.47-13.374,5.532-7.708    c-8.99-11.091-1.629-12.349,2.809-6.336c-2.985-8.543,0.883-14.971,5.576-5.105c-1.305-5.093,0.521-14.057,5.786-8.001    C436.596,306.414,441.06,302.228,447.061,308.283z" id="path210"/>
		<path style="fill-rule:evenodd;clip-rule:evenodd;fill:#272828;" d="M443.852,305.102c-0.888-1.689-1.189-3.197-1.048-4.367    c0.112-0.926,0.497-1.67,1.094-2.171c0.602-0.508,1.4-0.747,2.326-0.66l0.026,0.003c1.28,0.13,2.851,0.913,4.507,2.539    c-0.184-1.334-0.068-2.491,0.271-3.339c0.257-0.641,0.64-1.133,1.121-1.429c0.521-0.319,1.131-0.413,1.802-0.234    c0.599,0.159,1.256,0.561,1.935,1.244c-0.083-1.076-0.01-2.064,0.217-2.841c0.197-0.681,0.518-1.232,0.955-1.589    c0.495-0.406,1.107-0.558,1.824-0.378c0.395,0.1,0.826,0.311,1.29,0.654c-1.535-5.46-1.293-9.277-0.258-11.425    c0.559-1.163,1.359-1.885,2.267-2.164c0.929-0.287,1.936-0.102,2.881,0.559c1.113,0.775,2.157,2.255,2.857,4.43    c0.413-1.196,0.987-2.064,1.627-2.593c0.611-0.507,1.294-0.73,1.977-0.663c0.674,0.067,1.315,0.414,1.858,1.045    c0.661,0.766,1.192,2,1.441,3.706c0.842-1.806,1.866-2.96,2.885-3.54c0.884-0.505,1.78-0.604,2.588-0.345    c0.797,0.257,1.479,0.857,1.957,1.76c0.821,1.555,1.03,4.095,0.048,7.334c2.115-1.106,4.12-1.39,5.67-1.034    c0.892,0.203,1.644,0.617,2.196,1.207c0.566,0.605,0.918,1.38,0.993,2.293c0.085,1.022-0.184,2.223-0.9,3.548    c1.498-0.638,2.859-0.823,3.918-0.655c0.708,0.113,1.304,0.385,1.742,0.79c0.47,0.432,0.746,1.002,0.789,1.682    c0.03,0.457-0.055,0.965-0.272,1.513c0.244-0.091,0.474-0.158,0.691-0.2c0.7-0.14,1.297-0.049,1.77,0.286    c0.47,0.332,0.771,0.87,0.88,1.623c0.101,0.686,0.041,1.595-0.199,2.735c1.222-0.723,2.619-1.04,3.805-0.962    c0.864,0.056,1.643,0.321,2.199,0.79c0.613,0.517,0.957,1.245,0.876,2.181c-0.091,1.04-0.76,2.368-2.285,3.96    c0.927-0.067,1.767,0.076,2.444,0.376c0.643,0.286,1.153,0.715,1.473,1.246c0.334,0.556,0.456,1.211,0.31,1.923    c-0.134,0.658-0.513,1.368-1.193,2.089c0.56-0.005,1.056,0.071,1.475,0.214c0.659,0.225,1.161,0.608,1.483,1.11    c0.323,0.503,0.458,1.11,0.387,1.777c-0.064,0.599-0.298,1.254-0.719,1.928c0.34-0.043,0.64-0.04,0.902,0.005    c0.787,0.137,1.268,0.591,1.482,1.285c0.172,0.555,0.14,1.257-0.067,2.051c-0.394,1.527-1.47,3.521-2.935,5.444    c1.21-0.272,2.216-0.203,2.979,0.11c0.641,0.265,1.118,0.695,1.417,1.246c0.29,0.536,0.402,1.175,0.315,1.867    c-0.124,1.002-0.675,2.147-1.707,3.269c0.825,0.034,1.551,0.265,2.169,0.639c0.724,0.437,1.288,1.069,1.68,1.81    c0.379,0.723,0.594,1.551,0.627,2.401c0.028,0.706-0.066,1.43-0.294,2.123c1.202-0.482,2.285-0.623,3.156-0.469    c0.766,0.136,1.389,0.491,1.819,1.036c0.424,0.537,0.646,1.237,0.617,2.074c-0.041,1.251-0.665,2.86-2.054,4.707    c1.387-0.29,2.686-0.104,3.777,0.408c1.061,0.501,1.926,1.316,2.478,2.311c0.555,0.996,0.799,2.174,0.624,3.392    c-0.299,2.064-1.798,4.248-5.041,5.832c1.875,1.262,2.886,3.155,3.033,4.985c0.071,0.872-0.055,1.737-0.379,2.517    c-0.327,0.793-0.856,1.497-1.585,2.033c-1.478,1.09-3.771,1.485-6.855,0.512c0.87,2.168,1.135,3.806,0.945,4.905    c-0.139,0.794-0.502,1.357-1.046,1.688c-0.527,0.318-1.19,0.389-1.948,0.209c-1.125-0.266-2.538-1.123-4.071-2.568    c-0.035,1.992-0.721,3.405-1.686,4.239c-0.522,0.452-1.131,0.736-1.767,0.854c-0.629,0.117-1.286,0.067-1.916-0.144    c-0.854-0.287-1.66-0.875-2.279-1.756c-0.52,1.52-1.516,2.669-2.666,3.343c-0.766,0.448-1.607,0.69-2.428,0.693    c-0.845,0.004-1.668-0.24-2.374-0.765c-0.468-0.347-0.881-0.814-1.21-1.413c-0.418,1.209-0.995,2.099-1.652,2.685    c-0.629,0.563-1.336,0.864-2.059,0.916c-0.721,0.054-1.447-0.143-2.12-0.573c-0.683-0.436-1.314-1.125-1.823-2.044    c-0.417,1.961-1.231,3.347-2.242,4.228c-0.779,0.681-1.674,1.063-2.595,1.184c-0.916,0.119-1.854-0.02-2.729-0.384    c-1.266-0.526-2.414-1.524-3.19-2.889c-0.597,1.352-1.508,2.314-2.517,2.829c-0.675,0.347-1.396,0.498-2.098,0.438l-0.004-0.001    c-0.711-0.062-1.403-0.336-2.018-0.839c-0.648-0.529-1.205-1.32-1.586-2.389c-0.626,1.755-1.477,2.977-2.42,3.704    c-0.783,0.603-1.634,0.883-2.486,0.86c-0.847-0.022-1.68-0.344-2.435-0.939c-0.941-0.743-1.773-1.935-2.349-3.518    c-0.513,1.369-1.283,2.363-2.163,2.99c-0.698,0.497-1.467,0.769-2.24,0.821c-0.773,0.053-1.551-0.115-2.266-0.498    c-0.789-0.422-1.496-1.107-2.028-2.04c-0.661,1.834-1.904,3.021-3.371,3.635c-1.091,0.458-2.305,0.588-3.487,0.421    c-1.176-0.164-2.327-0.624-3.302-1.345c-1.421-1.05-2.473-2.644-2.702-4.681c-0.984,1.171-2.052,1.853-3.096,2.126    c-0.885,0.231-1.751,0.172-2.536-0.134c-0.775-0.302-1.467-0.837-2.014-1.563c-0.726-0.962-1.207-2.27-1.302-3.807    c-1.147,1.151-2.548,1.717-3.947,1.82c-0.912,0.068-1.824-0.065-2.66-0.362c-0.841-0.297-1.608-0.763-2.234-1.358    c-1.111-1.061-1.773-2.523-1.593-4.193c-2.297,0.247-3.86-0.483-4.774-1.657c-0.474-0.609-0.764-1.337-0.884-2.111    c-0.116-0.752-0.071-1.543,0.122-2.304c0.342-1.354,1.153-2.635,2.352-3.452c-4.059-1.383-6.65-3.782-7.677-6.026    c-0.499-1.09-0.645-2.162-0.431-3.098c0.228-0.987,0.837-1.807,1.838-2.332c1.184-0.622,2.948-0.81,5.297-0.308    c-1.607-1.531-2.585-3.073-2.952-4.404c-0.251-0.901-0.233-1.731,0.045-2.43c0.294-0.734,0.858-1.303,1.688-1.643    c0.791-0.327,1.846-0.434,3.15-0.256c-2.153-2.011-3.243-4.173-3.431-6.009c-0.112-1.113,0.095-2.122,0.59-2.935    c0.506-0.83,1.303-1.446,2.353-1.748c1.492-0.429,3.527-0.202,5.975,0.992c-0.9-1.688-1.086-3.227-0.782-4.49    c0.21-0.879,0.651-1.625,1.252-2.201c0.598-0.573,1.352-0.978,2.192-1.18c0.914-0.219,1.93-0.196,2.954,0.113    c-1.561-2.447-2.146-4.276-2.088-5.511c0.039-0.858,0.365-1.487,0.89-1.889c0.51-0.392,1.183-0.539,1.942-0.454    c1.034,0.115,2.289,0.692,3.509,1.694c-0.503-2.564-0.387-4.789,0.166-6.226c0.3-0.782,0.734-1.367,1.281-1.699    c0.605-0.369,1.308-0.429,2.072-0.111c0.732,0.303,1.537,0.991,2.378,2.14c-0.014-1.593,0.197-3.194,0.635-4.469    c0.313-0.91,0.748-1.677,1.315-2.195c0.636-0.58,1.401-0.848,2.304-0.674c-0.535-1.177-0.717-2.221-0.608-3.063    c0.091-0.722,0.385-1.315,0.845-1.743c0.46-0.429,1.07-0.679,1.796-0.72l0.022-0.001    C442.266,304.603,443.023,304.748,443.852,305.102L443.852,305.102z M444.226,300.908c-0.195,1.608,0.727,4.088,3.355,6.886    c0.265,0.28,0.259,0.722-0.016,0.995c-0.28,0.278-0.732,0.277-1.011-0.003c-1.968-1.985-3.698-2.784-4.877-2.725h-0.006    c-0.379,0.021-0.686,0.14-0.899,0.339c-0.216,0.2-0.355,0.498-0.403,0.876c-0.149,1.173,0.518,2.958,2.345,5.066l0.036,0.041    c0.258,0.298,0.225,0.749-0.073,1.007c-0.298,0.259-0.748,0.226-1.007-0.073c-0.945-1.086-1.727-1.623-2.362-1.75    c-0.422-0.083-0.785,0.043-1.085,0.318c-0.375,0.344-0.686,0.909-0.926,1.608c-0.689,2.004-0.744,4.93-0.195,7.124    c0.118,0.339-0.038,0.721-0.369,0.88c-0.357,0.17-0.783,0.018-0.953-0.339c-1.295-2.719-2.461-4.096-3.391-4.48    c-0.311-0.129-0.576-0.117-0.786,0.011c-0.271,0.166-0.509,0.506-0.694,0.988c-0.64,1.667-0.566,4.661,0.616,8.045    c0.099,0.287,0.008,0.617-0.251,0.808c-0.315,0.235-0.764,0.168-0.997-0.147c-1.474-1.996-3.246-3.117-4.529-3.262    c-0.395-0.044-0.712,0.011-0.919,0.168c-0.191,0.146-0.313,0.415-0.33,0.814c-0.067,1.421,1.022,3.947,4.096,7.739    c0.238,0.295,0.207,0.727-0.079,0.981c-0.292,0.263-0.744,0.237-1.007-0.056c-1.583-1.771-3.479-2.298-4.972-1.94    c-0.592,0.141-1.118,0.423-1.533,0.82c-0.41,0.395-0.712,0.903-0.854,1.503c-0.381,1.591,0.308,3.822,2.859,6.341    c0.251,0.247,0.286,0.647,0.069,0.936c-0.236,0.316-0.683,0.379-0.999,0.144c-3.573-2.69-6.362-3.38-8.117-2.875    c-0.69,0.198-1.205,0.591-1.525,1.116c-0.333,0.546-0.47,1.249-0.389,2.044c0.226,2.203,2.066,5.009,5.948,7.299    c0.316,0.173,0.458,0.558,0.318,0.898c-0.15,0.365-0.566,0.539-0.932,0.39c-2.81-1.156-4.79-1.326-5.934-0.855    c-0.452,0.187-0.754,0.48-0.902,0.85c-0.161,0.405-0.161,0.926,0.004,1.523c0.498,1.8,2.396,4.109,5.769,6.191    c0.297,0.184,0.423,0.561,0.28,0.89c-0.155,0.361-0.576,0.527-0.938,0.371c-4.023-1.743-6.714-1.858-8.166-1.096    c-0.607,0.319-0.977,0.806-1.109,1.386c-0.144,0.631-0.029,1.388,0.336,2.186c1.032,2.255,3.967,4.71,8.713,5.798    c0.278,0.059,0.505,0.283,0.555,0.581c0.065,0.389-0.197,0.757-0.586,0.822c-1.728,0.29-2.882,1.688-3.268,3.219    c-0.149,0.585-0.186,1.183-0.099,1.738c0.083,0.535,0.28,1.036,0.603,1.45c0.73,0.94,2.151,1.453,4.405,0.965    c0.116-0.025,0.241-0.022,0.363,0.017c0.377,0.116,0.586,0.518,0.47,0.895c-0.483,1.534,0.01,2.891,0.982,3.818    c0.48,0.456,1.072,0.815,1.726,1.046c0.657,0.232,1.369,0.336,2.084,0.283c1.665-0.123,3.347-1.12,4.332-3.356    c0.136-0.305,0.47-0.483,0.809-0.408c0.385,0.085,0.628,0.466,0.543,0.851c-0.518,2.32-0.1,4.26,0.81,5.466    c0.387,0.515,0.862,0.89,1.383,1.093c0.512,0.198,1.08,0.236,1.666,0.083c1.239-0.324,2.567-1.485,3.696-3.744    c0.132-0.318,0.479-0.504,0.825-0.421c0.385,0.091,0.623,0.477,0.53,0.861c-0.665,2.797,0.34,4.902,1.954,6.094    c0.779,0.576,1.701,0.943,2.646,1.076c0.935,0.132,1.891,0.031,2.745-0.326c1.647-0.689,2.931-2.374,3-5.252    c-0.021-0.373,0.251-0.704,0.628-0.75c0.393-0.048,0.75,0.232,0.797,0.624c0.245,1.977,1.121,3.272,2.192,3.846    c0.474,0.253,0.987,0.364,1.5,0.329c0.516-0.034,1.03-0.22,1.506-0.558c1.198-0.853,2.136-2.654,2.221-5.491    c0.01-0.356,0.286-0.658,0.65-0.69c0.392-0.036,0.74,0.253,0.775,0.646c0.272,3.003,1.305,5.102,2.579,6.107    c0.51,0.401,1.052,0.617,1.585,0.631c0.529,0.015,1.067-0.169,1.581-0.564c1.255-0.969,2.324-3.128,2.749-6.679    c0.043-0.361,0.355-0.638,0.727-0.629c0.395,0.009,0.706,0.336,0.696,0.729c-0.075,2.771,0.628,4.48,1.61,5.285    c0.379,0.315,0.804,0.482,1.237,0.521c0.442,0.037,0.898-0.06,1.33-0.28c1.098-0.563,2.051-1.9,2.354-3.891    c0.044-0.282,0.255-0.523,0.549-0.591c0.385-0.089,0.768,0.152,0.856,0.537c0.446,1.95,1.701,3.355,3.142,3.953    c0.65,0.271,1.337,0.375,1.996,0.288c0.65-0.085,1.284-0.358,1.841-0.843c1.283-1.119,2.173-3.344,2.045-6.969    c-0.032-0.386,0.248-0.729,0.633-0.772c0.394-0.043,0.746,0.24,0.79,0.632c0.278,2.459,1.21,4.099,2.305,4.798    c0.407,0.259,0.837,0.379,1.252,0.349c0.414-0.03,0.828-0.212,1.209-0.553c0.887-0.791,1.591-2.361,1.809-4.809    c-0.025-0.591-0.002-1.233,0.072-1.929c0.042-0.393,0.395-0.677,0.786-0.636c0.381,0.041,0.657,0.371,0.639,0.748    c0.004,0.647-0.022,1.256-0.068,1.826c0.083,1.753,0.647,2.865,1.427,3.443c0.447,0.332,0.975,0.487,1.518,0.484    c0.57-0.002,1.16-0.176,1.711-0.497c1.361-0.797,2.443-2.494,2.333-4.801c-0.016-0.353,0.23-0.671,0.588-0.735    c0.387-0.068,0.758,0.188,0.827,0.576c0.327,1.801,1.303,2.89,2.374,3.25c0.398,0.134,0.813,0.166,1.206,0.093    c0.389-0.071,0.762-0.249,1.087-0.53c0.928-0.8,1.48-2.439,1.042-4.974c-0.039-0.235,0.04-0.485,0.231-0.654    c0.296-0.262,0.746-0.234,1.006,0.061c1.861,2.105,3.543,3.3,4.739,3.583c0.385,0.092,0.687,0.077,0.884-0.041    c0.182-0.11,0.312-0.344,0.373-0.703c0.189-1.085-0.237-2.95-1.516-5.62c-0.085-0.18-0.095-0.394-0.01-0.591    c0.155-0.36,0.574-0.527,0.935-0.371c3.368,1.461,5.711,1.254,7.067,0.254c0.509-0.376,0.88-0.869,1.108-1.424    c0.235-0.567,0.326-1.207,0.272-1.862c-0.14-1.737-1.297-3.558-3.474-4.492c-0.193-0.067-0.356-0.215-0.434-0.422    c-0.141-0.369,0.043-0.782,0.412-0.923c3.636-1.385,5.244-3.419,5.515-5.294c0.128-0.9-0.05-1.765-0.456-2.496    c-0.411-0.735-1.05-1.339-1.842-1.712c-1.516-0.715-3.598-0.573-5.713,1.102c-0.288,0.261-0.734,0.244-1.001-0.039    c-0.271-0.287-0.257-0.74,0.029-1.011c2.896-2.732,4.096-4.991,4.145-6.505c0.016-0.487-0.095-0.873-0.31-1.145    c-0.207-0.261-0.531-0.436-0.947-0.51c-1.145-0.202-2.852,0.324-4.792,1.787l-0.164,0.125c-0.315,0.236-0.764,0.171-1-0.145    c-0.237-0.317-0.172-0.766,0.146-1.002c1.266-0.946,1.824-2.403,1.769-3.773c-0.025-0.639-0.184-1.257-0.466-1.792    c-0.272-0.516-0.659-0.952-1.152-1.251c-0.888-0.537-2.149-0.635-3.74,0.036c-0.319,0.153-0.71,0.051-0.909-0.254    c-0.216-0.33-0.123-0.774,0.207-0.989c2.113-1.381,3.149-2.903,3.298-4.097c0.049-0.396-0.004-0.744-0.152-1.018    c-0.142-0.262-0.379-0.469-0.702-0.604c-0.918-0.378-2.441-0.201-4.475,0.875c-0.264,0.14-0.602,0.102-0.828-0.117    c-0.284-0.273-0.293-0.726-0.021-1.01c2.23-2.317,3.947-5.077,4.44-6.981c0.141-0.54,0.176-0.979,0.083-1.275    c-0.047-0.155-0.163-0.26-0.357-0.294c-0.529-0.091-1.426,0.147-2.762,0.83c-0.296,0.147-0.663,0.078-0.88-0.189    c-0.249-0.306-0.201-0.755,0.105-1.004c1.388-1.126,2.08-2.242,2.173-3.125c0.035-0.338-0.023-0.632-0.17-0.86    c-0.148-0.228-0.395-0.412-0.735-0.528c-0.932-0.315-2.43-0.149-4.413,0.769l-0.038,0.018c-0.354,0.172-0.783,0.021-0.955-0.333    c-0.17-0.354-0.022-0.782,0.334-0.954c2.518-1.218,3.646-2.449,3.85-3.441c0.069-0.342,0.015-0.649-0.138-0.904    c-0.166-0.278-0.452-0.511-0.823-0.676c-1.089-0.484-2.81-0.383-4.578,0.701c-0.308,0.206-0.729,0.14-0.959-0.159    c-0.241-0.313-0.184-0.76,0.128-1.001c3.093-2.381,4.299-4.139,4.4-5.303c0.037-0.428-0.108-0.75-0.367-0.968    c-0.315-0.265-0.802-0.418-1.37-0.455c-1.478-0.097-3.377,0.59-4.466,2.095c-0.176,0.244-0.497,0.358-0.8,0.26    c-0.375-0.122-0.58-0.525-0.457-0.9c0.683-2.086,0.923-3.55,0.791-4.446c-0.05-0.345-0.148-0.563-0.288-0.661    c-0.137-0.097-0.365-0.112-0.673-0.051c-0.804,0.159-1.923,0.796-3.286,1.861c-0.29,0.227-0.711,0.195-0.965-0.081    c-0.265-0.29-0.245-0.741,0.045-1.007c1.531-1.399,2.14-2.574,2.086-3.401c-0.018-0.295-0.136-0.542-0.333-0.725    c-0.228-0.212-0.566-0.358-0.997-0.427c-1.454-0.232-3.702,0.433-6.092,2.392c-0.276,0.245-0.701,0.238-0.972-0.022    c-0.282-0.275-0.288-0.728-0.014-1.01c2.163-2.227,2.975-4.143,2.858-5.544c-0.048-0.58-0.263-1.064-0.606-1.431    c-0.357-0.382-0.862-0.654-1.477-0.793c-1.616-0.37-3.911,0.16-6.305,1.925c-0.195,0.142-0.46,0.182-0.699,0.081    c-0.363-0.153-0.534-0.571-0.381-0.935c1.575-3.744,1.533-6.563,0.723-8.1c-0.296-0.56-0.69-0.924-1.129-1.065    c-0.427-0.138-0.928-0.07-1.446,0.226c-1.392,0.794-2.822,3.056-3.595,7.153c-0.055,0.381-0.402,0.651-0.787,0.606    c-0.393-0.044-0.675-0.398-0.63-0.791c0.448-3.896-0.151-6.343-1.099-7.441c-0.294-0.342-0.612-0.527-0.918-0.559    c-0.296-0.028-0.613,0.087-0.926,0.345c-0.939,0.776-1.701,2.643-1.75,5.58c-0.006,0.36-0.282,0.666-0.649,0.699    c-0.391,0.036-0.738-0.253-0.773-0.646c-0.361-3.968-1.643-6.43-3.038-7.404c-0.57-0.397-1.145-0.518-1.647-0.363    c-0.529,0.164-1.021,0.637-1.399,1.421c-1.075,2.234-1.131,6.657,1.291,13.335c0.118,0.296,0.027,0.647-0.241,0.844    c-0.319,0.232-0.766,0.163-0.998-0.154c-1.151-1.569-2.053-2.321-2.718-2.487c-0.241-0.061-0.433-0.021-0.576,0.098    c-0.203,0.165-0.367,0.473-0.485,0.878c-0.392,1.347-0.214,3.508,0.578,5.552c0.128,0.331-0.01,0.714-0.332,0.886    c-0.347,0.186-0.779,0.055-0.965-0.293c-1.2-2.255-2.309-3.332-3.172-3.564c-0.266-0.07-0.497-0.04-0.683,0.073    c-0.221,0.136-0.406,0.389-0.545,0.734c-0.479,1.202-0.352,3.278,0.74,5.644c0.164,0.314,0.073,0.709-0.227,0.916    c-0.324,0.226-0.77,0.146-0.997-0.179c-2.198-3.157-4.276-4.544-5.771-4.688l-0.01-0.001c-0.531-0.051-0.967,0.07-1.274,0.329    C444.502,299.918,444.295,300.348,444.226,300.908z" id="path211"/>
		<path style="fill-rule:evenodd;clip-rule:evenodd;fill:#272828;" d="M415.631,298.172c-0.107-0.304-0.588-0.36-0.669,0    c-0.138,0.605-0.103,1.436-0.604,1.881c-0.839,0.742-1.467-0.005-1.571-0.896c-0.065-0.556-0.886-0.766-1.038-0.141    c-0.472,1.941-2.982,3.194-2.688,0.319c0.057-0.55-0.8-0.765-1.036-0.281c-2.02,4.116-4.263-1.452-1.844-1.721    c0.178-0.02,0.188-0.286,0-0.284c-1.926,0.015-2.512,1.854-1.51,3.387c1.037,1.585,2.381,1.444,3.398,0.467    c0.247,0.816,0.83,1.422,1.908,1.38c1.04-0.039,1.808-0.784,2.291-1.669C413.547,302.237,416.502,300.611,415.631,298.172z" id="path212"/>
		<path style="fill-rule:evenodd;clip-rule:evenodd;fill:#272828;" d="M432.98,301.099c-0.251-0.328-0.698-0.209-0.748,0.203    c-0.025,0.21-0.03,0.438-0.043,0.662c-0.088,0.138-0.11,0.317-0.056,0.474c-0.088,0.455-0.315,0.8-1.021,0.754    c-1.203-0.08-1.655-1.173-1.61-2.247c0.018-0.438-0.617-0.606-0.825-0.224c-0.826,1.532-3.232,2.322-2.709-0.277    c0.031-0.164-0.201-0.23-0.253-0.069c-0.317,1.041-0.416,2.335,0.896,2.616c0.78,0.166,1.537-0.296,2.113-0.886    c0.304,1.202,1.199,2.293,2.577,2.185C432.82,304.17,434.036,302.48,432.98,301.099z" id="path213"/>
		<path style="fill-rule:evenodd;clip-rule:evenodd;fill:#272828;" d="M451.183,286.407c1.705,0.879,1.715,3.055,0.694,4.477    c-0.447,0.623-1.087,1.094-1.871,1.131c-0.762,0.037-1.657-0.71-1.533-1.505c0.021-0.135,0.191-0.215,0.316-0.178    c0.445,0.135,0.714,0.611,1.217,0.641c0.484,0.028,0.902-0.461,1.145-0.816c0.694-1.02,0.868-2.489-0.247-3.272    C450.614,286.682,450.863,286.241,451.183,286.407z" id="path214"/>
		<path style="fill-rule:evenodd;clip-rule:evenodd;fill:#272828;" d="M448.484,290.156c-0.104,0.718-0.675,1.862-1.61,1.589    c-0.129-0.037-0.237-0.091-0.334-0.153c-0.043-0.056-0.097-0.103-0.165-0.133c-0.441-0.422-0.474-1.145-0.402-1.774    c0.063-0.567-0.744-0.574-0.922-0.125c-0.261,0.66-1.181,1.575-1.974,1.059c-0.561-0.363-0.077-1.12-0.037-1.648    c0.014-0.182-0.191-0.25-0.328-0.188c-1.176,0.525-1.06,2.179,0.052,2.699c0.842,0.394,1.701,0.102,2.34-0.466    c0.198,0.892,0.738,1.657,1.807,1.69c1.46,0.044,2.135-1.158,2.052-2.485C448.946,289.964,448.526,289.871,448.484,290.156z" id="path215"/>
		<path style="fill-rule:evenodd;clip-rule:evenodd;fill:#272828;" d="M419.803,276.528c-0.118-0.393-0.671-0.391-0.791,0    c-0.317,1.028-1.465,2.661-2.331,0.895c-0.219-0.452-0.917-0.317-1.038,0.136c-0.896,3.395-3.491,0.592-3.306-1.637    c0.042-0.487-0.781-0.602-0.856-0.115c-0.238,1.546-1.506,2.589-2.556,0.902c-0.92-1.474-0.377-2.823,1.104-3.666    c0.211-0.12,0.025-0.41-0.188-0.318c-1.985,0.863-2.901,3.154-1.185,4.861c1.148,1.141,2.247,0.957,2.956,0.086    c0.721,2.386,3.451,3.622,4.738,1.168C417.879,280.119,420.493,278.808,419.803,276.528z" id="path216"/>
		<path style="fill-rule:evenodd;clip-rule:evenodd;fill:#272828;" d="M443.715,267.107c0.833-0.069,1.678,0.221,2.092,0.986    c0.393,0.725,0.272,1.647-0.099,2.349c-0.419,0.788-1.226,1.278-2.109,1.31c-0.997,0.035-2.785-0.796-2.866-1.908    c-0.012-0.152,0.146-0.316,0.302-0.301c0.498,0.048,0.897,0.463,1.299,0.735c0.326,0.22,0.707,0.402,1.103,0.445    c0.584,0.063,1.087-0.228,1.399-0.712c0.276-0.429,0.416-0.992,0.296-1.494c-0.166-0.684-0.764-0.927-1.417-0.941    C443.409,267.57,443.417,267.134,443.715,267.107z" id="path217"/>
		<path style="fill-rule:evenodd;clip-rule:evenodd;fill:#272828;" d="M441.131,269.863c0.661,1.137,0.371,2.694-1.085,2.957    c-0.645,0.116-1.241-0.105-1.725-0.526c-0.466-0.405-1.015-1.369-0.51-1.918c0.085-0.092,0.212-0.088,0.315-0.04    c0.428,0.191,0.505,0.743,0.787,1.079c0.232,0.277,0.557,0.415,0.914,0.402c0.853-0.03,0.864-1.125,0.722-1.709    C440.464,269.759,440.945,269.546,441.131,269.863z" id="path218"/>
		<path style="fill-rule:evenodd;clip-rule:evenodd;fill:#272828;" d="M438.303,270.646c-0.232,0.823-0.919,1.867-1.881,1.901    c-0.977,0.035-1.756-1.165-1.103-1.983c0.081-0.101,0.267-0.092,0.349,0c0.305,0.344,0.274,1.081,0.835,1.029    c0.577-0.055,1.013-0.725,1.218-1.194C437.869,270.064,438.4,270.306,438.303,270.646z" id="path219"/>
		<path style="fill-rule:evenodd;clip-rule:evenodd;fill:#272828;" d="M429.825,259.524c0.673,1.245,0.449,3.041-0.964,3.678    c-0.588,0.265-1.249,0.218-1.758-0.191c-0.62-0.498-1.013-1.651-0.742-2.404c0.103-0.283,0.563-0.431,0.712-0.094    c0.28,0.626,0.299,2.382,1.471,1.855c1.036-0.466,1.192-1.689,0.798-2.641C429.225,259.448,429.685,259.266,429.825,259.524z" id="path220"/>
		<path style="fill-rule:evenodd;clip-rule:evenodd;fill:#272828;" d="M426.847,260.551c-0.164,1.231-1.189,2.666-2.603,2.111    c-0.548-0.215-0.923-0.694-1.042-1.269c-0.134-0.648,0.044-1.709,0.668-2.055c0.246-0.136,0.548,0.035,0.554,0.318    c0.015,0.698-0.793,1.636,0.108,2.138c0.839,0.47,1.518-0.725,1.747-1.32C426.385,260.195,426.893,260.204,426.847,260.551z" id="path221"/>
		<path style="fill-rule:evenodd;clip-rule:evenodd;fill:#272828;" d="M423.896,259.678c-0.529,0.656-1.33,1.066-2.145,0.69    c-0.793-0.365-0.888-1.536-0.381-2.146c0.118-0.143,0.402-0.072,0.433,0.114c0.072,0.434-0.1,1.099,0.329,1.38    c0.448,0.292,1.062-0.136,1.368-0.438C423.764,259.022,424.119,259.401,423.896,259.678z" id="path222"/>
		<path style="fill-rule:evenodd;clip-rule:evenodd;fill:#272828;" d="M429.053,288.516c-0.099-0.263-0.52-0.403-0.665-0.087    c-0.418,0.9-0.428,2.242-1.456,2.73c-1.204,0.572-1.928-0.595-2.25-1.599c-0.112-0.351-0.665-0.497-0.849-0.111    c-1.2,2.515-3.994,0.011-1.778-1.659c0.29-0.219,0.038-0.697-0.29-0.5c-1.403,0.844-2.07,2.497-0.685,3.729    c1.043,0.927,2.25,0.541,3.032-0.332c0.525,1.117,1.5,2.128,2.843,1.698C428.453,291.905,429.638,290.065,429.053,288.516z" id="path223"/>
		<path style="fill-rule:evenodd;clip-rule:evenodd;fill:#272828;" d="M450.78,273.633c0.643-0.279,1.458-0.54,2.147-0.283    c0.575,0.213,0.935,0.798,1.04,1.381c0.224,1.257-0.728,2.704-2.125,2.453c-0.328-0.058-0.806-0.214-0.906-0.578    c-0.134-0.493,0.439-0.519,0.766-0.466c0.525,0.085,0.922,0.025,1.188-0.458c0.221-0.395,0.209-0.936-0.021-1.322    c-0.385-0.642-1.214-0.624-1.84-0.457c-0.039,0.013-0.079,0.024-0.118,0.037C450.73,273.991,450.604,273.708,450.78,273.633z" id="path224"/>
		<path style="fill-rule:evenodd;clip-rule:evenodd;fill:#272828;" d="M451.482,276.521c0.462,0.165,1.024,0.395,1.214,0.893    c0.166,0.432,0.016,0.847-0.269,1.185c-0.578,0.685-2.39,1.123-2.903,0.162c-0.097-0.183-0.01-0.392,0.186-0.456    c0.549-0.178,1.131,0.063,1.685-0.189c0.685-0.313,0.398-0.734-0.149-1.035C450.945,276.915,451.151,276.404,451.482,276.521z" id="path225"/>
		<path style="fill-rule:evenodd;clip-rule:evenodd;fill:#272828;" d="M430.512,311.565c-0.099-0.394-0.646-0.359-0.76,0    c-0.485,1.517-1.81,3.614-3.468,1.63c-0.251-0.299-0.81-0.212-0.98,0.126c-1.399,2.766-3.446,1.555-4.401-0.648    c-0.118-0.271-0.584-0.329-0.767-0.098c-0.677,1.21-1.473,0.755-2.384-1.365c0.095-0.173-0.152-0.312-0.261-0.153    c-1.69,2.462,0.795,4.031,2.768,2.686c1.172,2.749,4.036,3.404,5.742,0.862C428.059,316.028,431.201,314.322,430.512,311.565z" id="path226"/>
		<path style="fill-rule:evenodd;clip-rule:evenodd;fill:#272828;" d="M470.278,303.157c-0.29-0.296-0.793,0.006-0.687,0.399    c0.292,1.074,0.503,2.216-0.638,2.913c-0.905,0.553-2.202,0.854-2.552-0.486c-0.153-0.594-1.081-0.473-1.069,0.145    c0.031,1.333-0.429,3.233-2.171,3.047c-1.61-0.171-2.202-1.626-1.926-3.076c0.08-0.424-0.251-0.793-0.689-0.691    c-3.371,0.783-3.722-4.004-0.986-3.343c0.298,0.073,0.406-0.35,0.126-0.452c-1.759-0.643-3.063,0.519-2.909,2.351    c0.154,1.841,1.702,2.581,3.293,2.581c-0.063,1.759,0.823,3.513,2.806,3.724c1.906,0.202,3.004-1.035,3.39-2.607    C468.416,309.124,472.874,305.806,470.278,303.157z" id="path227"/>
		<path style="fill-rule:evenodd;clip-rule:evenodd;fill:#272828;" d="M480.893,298.558c-0.276-0.037-0.324,0.408-0.065,0.477    c1.672,0.441,0.65,2.34-0.775,1.691c-0.539-0.239-1.009,0.556-0.464,0.796c0.035,0.016,0.075,0.025,0.111,0.039    c-0.001,0.002-0.002,0.005-0.003,0.007c0.321,0.132,0.795,0.452,0.849,0.768c-0.018,0.059-0.026,0.12-0.024,0.182    c-0.046,0.104-0.144,0.205-0.339,0.292c-0.507,0.226-1.077,0.121-1.614,0.133c-0.335,0.007-0.432,0.432-0.164,0.609    c0.815,0.541,2.339,0.443,2.851-0.527c0.024-0.047,0.032-0.091,0.052-0.137c0.175-0.146,0.218-0.406,0.125-0.611    c-0.012-0.206-0.083-0.396-0.187-0.574c0.563-0.131,1.04-0.486,1.223-1.151C482.779,299.417,481.948,298.696,480.893,298.558z" id="path228"/>
		<path style="fill-rule:evenodd;clip-rule:evenodd;fill:#272828;" d="M498.867,311.495c-0.232-0.103-0.432,0.214-0.203,0.348    c2.639,1.538-0.537,3.27-2.277,2.947c-0.598-0.111-0.815,0.691-0.249,0.906c0.968,0.366,1.836,1.611,0.369,2.034    c-1.142,0.328-1.728-0.59-2.052-1.558c-0.176-0.521-0.847-0.493-1.03,0c-0.228,0.614-0.853,1.933-1.712,1.838    c-0.558-0.062-0.436-1.372-0.497-1.782c-0.043-0.289-0.47-0.307-0.598-0.078c-0.52,0.935-0.497,2.731,0.897,2.882    c1.07,0.115,1.874-0.651,2.418-1.533c0.82,1.221,2.277,2.006,3.621,0.791c0.994-0.9,0.837-1.856,0.181-2.584    C500.018,315.224,501.844,312.822,498.867,311.495z" id="path229"/>
		<path style="fill-rule:evenodd;clip-rule:evenodd;fill:#272828;" d="M451.724,323.019c-0.058-0.354-0.547-0.283-0.645,0    c-0.29,0.84-1.415,4.479-3.412,2.215c-0.272-0.309-0.784-0.13-0.889,0.235c-0.805,2.773-3.377,1.117-3.706-0.87    c-0.048-0.278-0.429-0.412-0.653-0.266c-0.519,0.34-1.042,0.832-1.605,1.092c-1.689-0.529-2.123-1.392-1.303-2.588    c0.195-0.281,0.391-0.564,0.586-0.845c0.152-0.189-0.101-0.459-0.271-0.271c-0.729,0.795-2.341,2.866-1.208,3.982    c1.375,1.355,2.416,0.633,3.73-0.258c0.764,2.563,3.876,3.5,5.148,1.06C449.627,328.039,452.15,325.623,451.724,323.019z" id="path230"/>
		<path style="fill-rule:evenodd;clip-rule:evenodd;fill:#272828;" d="M496.799,329.848c0.792,0.07,1.599,0.426,1.859,1.237    c0.251,0.778-0.071,1.676-0.537,2.304c-0.505,0.682-1.245,1.146-2.104,1.181c-0.827,0.034-2.362-0.717-2.186-1.71    c0.021-0.122,0.166-0.228,0.286-0.219c0.685,0.051,1.071,0.886,1.811,0.949c0.566,0.05,1.054-0.287,1.413-0.691    c0.354-0.398,0.549-0.942,0.522-1.472c-0.034-0.65-0.549-0.98-1.125-1.127C496.489,330.236,496.535,329.824,496.799,329.848z" id="path231"/>
		<path style="fill-rule:evenodd;clip-rule:evenodd;fill:#272828;" d="M494.355,332.515c0.44,1.553-0.099,2.975-1.626,3.608    c-1.446,0.601-2.869-0.359-3.195-1.799c-0.085-0.374,0.06-1.996,0.752-1.303c0.267,0.267,0.237,0.822,0.316,1.166    c0.085,0.367,0.29,0.679,0.609,0.877c1.527,0.945,2.745-1.256,2.658-2.484C493.851,332.295,494.283,332.253,494.355,332.515z" id="path232"/>
		<path style="fill-rule:evenodd;clip-rule:evenodd;fill:#272828;" d="M490.274,333.19c-0.434,1.48-1.603,2.649-3.242,2.188    c-1.35-0.382-2.706-2.59-1.819-3.881c0.145-0.213,0.52-0.275,0.65,0c0.233,0.489,0.176,1.034,0.31,1.556    c0.138,0.545,0.493,0.991,0.975,1.265c1.076,0.611,2.144-0.491,2.619-1.342C489.924,332.703,490.361,332.89,490.274,333.19z" id="path233"/>
		<path style="fill-rule:evenodd;clip-rule:evenodd;fill:#272828;" d="M485.236,331.823c-0.874,1.475-2.513,2.306-4.115,1.413    c-1.423-0.792-1.776-2.935-0.482-4.017c0.15-0.127,0.33-0.162,0.51-0.066c0.068,0.037,0.104,0.086,0.149,0.15    c0.089,0.126,0.064,0.295,0,0.424c-0.495,0.994-0.814,1.983,0.284,2.718c1.143,0.764,2.457,0.08,3.186-0.897    C484.972,331.274,485.422,331.515,485.236,331.823z" id="path234"/>
		<path style="fill-rule:evenodd;clip-rule:evenodd;fill:#272828;" d="M466.531,319.243c-0.483,0.923-0.466,2.137,0.528,2.71    c0.31,0.18,0.711,0.185,1.034,0.034c0.474-0.219,0.622-0.791,1.072-1.03c0.128-0.067,0.27-0.007,0.315,0.128    c0.221,0.666-0.427,1.338-0.965,1.629c-0.557,0.302-1.206,0.22-1.739-0.091c-1.288-0.75-1.17-2.405-0.479-3.515    C466.391,318.961,466.609,319.09,466.531,319.243z" id="path235"/>
		<path style="fill-rule:evenodd;clip-rule:evenodd;fill:#272828;" d="M469.686,320.963c-0.077,1.122,0.497,1.956,1.68,1.871    c1.18-0.084,1.348-1.186,1.982-1.909c0.12-0.137,0.404-0.114,0.479,0.061c0.651,1.513-1.311,2.772-2.589,2.829    c-1.676,0.076-2.311-1.494-2.012-2.916C469.28,320.643,469.704,320.698,469.686,320.963z" id="path236"/>
		<path style="fill-rule:evenodd;clip-rule:evenodd;fill:#272828;" d="M423.5,353.651c-0.734,0.889-1.333,1.949-0.989,3.125    c0.239,0.815,1.017,1.366,1.786,1.619c0.811,0.266,1.699,0.181,2.422-0.273c1.034-0.65,0.704-1.818,1.292-2.679    c0.164-0.241,0.504-0.256,0.667,0c0.723,1.142-0.381,2.864-1.29,3.557c-0.938,0.714-2.285,0.741-3.367,0.399    c-1.077-0.339-2.015-1.157-2.331-2.261c-0.41-1.43,0.537-2.841,1.49-3.807C423.387,353.121,423.682,353.431,423.5,353.651z" id="path237"/>
		<path style="fill-rule:evenodd;clip-rule:evenodd;fill:#272828;" d="M428.793,356.099c0.375,1.597,1.477,3.057,3.236,2.241    c1.622-0.753,1.602-2.388,2.234-3.794c0.116-0.26,0.553-0.249,0.673,0c0.969,2.007-0.959,4.441-2.777,5.118    c-2.388,0.891-3.733-1.516-3.917-3.491C428.213,355.855,428.722,355.794,428.793,356.099z" id="path238"/>
		<path style="fill-rule:evenodd;clip-rule:evenodd;fill:#272828;" d="M434.906,354.479c0.326,0.91,1.028,1.964,2.122,1.459    c1.038-0.479,1.1-1.729,1.573-2.615c0.11-0.21,0.47-0.228,0.576,0c0.661,1.4-0.419,3.298-1.804,3.795    c-1.716,0.617-2.797-0.999-3.081-2.469C434.214,354.245,434.769,354.093,434.906,354.479z" id="path239"/>
		<path style="fill-rule:evenodd;clip-rule:evenodd;fill:#272828;" d="M469.984,361.047c-0.263,1.558,0.502,3.213,1.581,4.314    c0.414,0.422,0.99,0.876,1.624,0.752c0.768-0.15,1.009-1.164,1.55-1.614c0.254-0.214,0.576-0.065,0.615,0.254    c0.114,0.978-0.689,1.999-1.563,2.371c-0.835,0.354-1.735,0.083-2.418-0.462c-1.632-1.301-2.321-3.726-1.736-5.71    C469.704,360.725,470.022,360.822,469.984,361.047z" id="path240"/>
		<path style="fill-rule:evenodd;clip-rule:evenodd;fill:#272828;" d="M475.602,364.573c0.147,1.878,1.559,2.861,3.36,2.318    c0.811-0.244,1.494-0.829,1.964-1.519c0.564-0.831,0.495-1.799,0.862-2.685c0.11-0.266,0.512-0.404,0.673-0.088    c1.171,2.276-1.308,4.969-3.38,5.531c-2.47,0.668-4.202-1.155-3.982-3.558C475.128,364.252,475.578,364.249,475.602,364.573z" id="path241"/>
		<path style="fill-rule:evenodd;clip-rule:evenodd;fill:#272828;" d="M482.524,362.581c0.87,0.962,2.439,1.009,3.594,0.61    c0.454-0.157,0.951-0.454,1.127-0.928c0.224-0.601-0.232-1.196-0.221-1.801c0.004-0.193,0.189-0.347,0.383-0.291    c0.858,0.25,1.282,1.309,1.137,2.148c-0.158,0.893-0.831,1.53-1.624,1.902c-1.662,0.778-3.947,0.425-4.848-1.29    C481.925,362.65,482.298,362.329,482.524,362.581z" id="path242"/>
		<path style="fill-rule:evenodd;clip-rule:evenodd;fill:#272828;" d="M487.684,360.147c1.184,0.039,2.471-0.182,3.351-1.034    c1.017-0.982-0.41-2.091-0.647-3.027c-0.063-0.25,0.168-0.506,0.429-0.427c1.48,0.447,2.072,2.596,1.297,3.849    c-0.908,1.468-3.02,1.484-4.514,1.258C487.245,360.712,487.334,360.137,487.684,360.147z" id="path243"/>
		<path style="fill-rule:evenodd;clip-rule:evenodd;fill:#272828;" d="M511.098,344.79c1.748,0.226,3.13,1.58,2.432,3.421    c-0.288,0.758-0.91,1.401-1.68,1.675c-0.74,0.262-2.031,0.31-2.418-0.546c-0.07-0.159-0.02-0.349,0.164-0.399    c0.557-0.158,1.147,0.118,1.717,0.003c0.514-0.104,0.916-0.462,1.179-0.9c0.75-1.254-0.294-2.325-1.475-2.661    C510.701,345.293,510.752,344.744,511.098,344.79z" id="path244"/>
		<path style="fill-rule:evenodd;clip-rule:evenodd;fill:#272828;" d="M510.075,349.331c1.204,1.216,1.16,2.718-0.245,3.736    c-0.654,0.475-1.535,0.627-2.326,0.581c-0.691-0.043-1.711-0.367-1.85-1.158c-0.031-0.18,0.073-0.324,0.259-0.339    c0.474-0.036,0.951,0.205,1.409,0.298c0.513,0.105,1.021,0.035,1.512-0.126c1.229-0.401,1.583-1.504,0.783-2.535    C509.373,349.469,509.773,349.027,510.075,349.331z" id="path245"/>
		<path style="fill-rule:evenodd;clip-rule:evenodd;fill:#272828;" d="M506.116,352.838c0.719,0.975,0.251,2.152-0.692,2.764    c-0.723,0.469-2.836,0.593-2.828-0.68c0-0.12,0.085-0.245,0.205-0.272c0.328-0.07,0.646,0.057,0.963,0.14    c0.352,0.093,0.671,0.059,1.013-0.058c0.773-0.261,1.079-0.951,0.912-1.714C505.629,352.747,505.961,352.627,506.116,352.838z" id="path246"/>
		<path style="fill-rule:evenodd;clip-rule:evenodd;fill:#272828;" d="M451.809,342.103c-1.198,1.51-0.024,2.822,1.523,3.299    c0.704,0.216,1.448,0.204,2.146-0.021c0.752-0.245,1.013-0.962,1.581-1.423c0.182-0.148,0.51-0.123,0.566,0.148    c0.222,1.061-0.764,1.949-1.68,2.283c-1.054,0.384-2.22,0.301-3.254-0.103c-2.098-0.823-2.919-2.878-1.34-4.641    C451.635,341.33,452.059,341.784,451.809,342.103z" id="path247"/>
		<path style="fill-rule:evenodd;clip-rule:evenodd;fill:#272828;" d="M458.086,344.197c0.054,1.112,1.164,1.983,2.219,2.097    c0.479,0.051,0.959-0.05,1.304-0.401c0.388-0.393,0.237-1.032,0.573-1.461c0.144-0.188,0.449-0.145,0.602,0    c0.659,0.617,0.205,1.769-0.292,2.343c-0.525,0.603-1.431,0.783-2.186,0.724c-1.822-0.145-3.107-1.546-2.712-3.367    C457.656,343.843,458.072,343.925,458.086,344.197z" id="path248"/>
		<path style="fill-rule:evenodd;clip-rule:evenodd;fill:#272828;" d="M462.71,344.506c0.918,0.745,2.279,0.794,3.311,0.264    c0.514-0.262,0.864-0.688,1.013-1.242c0.154-0.581-0.211-1.165-0.021-1.734c0.047-0.144,0.217-0.279,0.377-0.213    c1.762,0.725,0.564,3.233-0.474,4.009c-1.438,1.074-3.576,0.752-4.662-0.627C461.998,344.636,462.385,344.241,462.71,344.506z" id="path249"/>
		<path style="fill-rule:evenodd;clip-rule:evenodd;fill:#272828;" d="M441.043,366.905c-0.699,0.879-0.94,2.167,0.225,2.751    c0.397,0.197,0.91,0.141,1.297-0.041c0.588-0.275,0.762-0.995,1.32-1.253c0.223-0.104,0.472-0.022,0.548,0.223    c0.263,0.845-0.718,1.729-1.4,2.054c-0.734,0.348-1.571,0.272-2.278-0.103c-0.621-0.329-1.058-0.977-1.141-1.67    c-0.11-0.921,0.425-1.716,1.057-2.334C440.918,366.288,441.25,366.645,441.043,366.905z" id="path250"/>
		<path style="fill-rule:evenodd;clip-rule:evenodd;fill:#272828;" d="M444.34,368.685c0.004,1.081,0.622,1.826,1.733,1.55    c0.462-0.114,0.868-0.456,1.133-0.84c0.315-0.454,0.341-1.108,0.732-1.492c0.13-0.129,0.362-0.141,0.491,0    c0.582,0.639,0.143,1.77-0.292,2.377c-0.468,0.649-1.187,1.097-1.976,1.225c-1.834,0.296-2.605-1.319-2.347-2.892    C443.864,368.308,444.34,368.39,444.34,368.685z" id="path251"/>
		<path style="fill-rule:evenodd;clip-rule:evenodd;fill:#272828;" d="M507.756,365.77c1.161,1.109,1.737,2.848,0.166,3.88    c-0.651,0.43-1.508,0.431-2.237,0.24c-0.699-0.182-1.985-0.892-1.897-1.742c0.021-0.176,0.141-0.35,0.34-0.339    c0.584,0.03,1.042,0.619,1.553,0.885c0.462,0.241,1.001,0.259,1.49,0.115c1.303-0.38,0.734-1.87,0.119-2.571    C507.009,365.919,507.444,365.472,507.756,365.77z" id="path252"/>
		<path style="fill-rule:evenodd;clip-rule:evenodd;fill:#272828;" d="M504.682,367.969c0.039,1.485-1.086,2.874-2.59,3.034    c-0.712,0.076-1.363-0.154-1.874-0.653c-0.502-0.49-0.867-1.435-0.39-2.03c0.069-0.086,0.233-0.104,0.32-0.041    c0.768,0.541,0.605,1.7,1.806,1.675c1.092-0.022,1.78-1.15,1.987-2.084C504.038,367.442,504.672,367.555,504.682,367.969z" id="path253"/>
		<path style="fill-rule:evenodd;clip-rule:evenodd;fill:#272828;" d="M500.247,368.462c-0.476,1.008-1.565,1.802-2.637,1.076    c-0.825-0.56-1.518-2.291-0.568-3.016c0.106-0.081,0.243-0.008,0.31,0.081c0.433,0.581,0.209,1.399,0.705,1.973    c0.561,0.648,1.328,0.003,1.77-0.44C500.052,367.911,500.373,368.196,500.247,368.462z" id="path254"/>
		<path style="fill-rule:evenodd;clip-rule:evenodd;fill:#272828;" d="M465.7,407.791c0.992,0.133,2.084,0.079,3.074-0.079    c1.135-0.18,1.743-1.056,2.732-1.464c0.268-0.11,0.452,0.197,0.419,0.417c-0.184,1.166-1.536,1.755-2.56,2.021    c-1.32,0.344-2.487-0.05-3.723-0.476C465.428,408.138,465.447,407.758,465.7,407.791z" id="path255"/>
		<path style="fill-rule:evenodd;clip-rule:evenodd;fill:#272828;" d="M438.607,338.688c-0.115-0.259-0.456-0.134-0.537,0.071    c-0.099,0.252-0.193,0.563-0.309,0.867c-0.104,0.096-0.161,0.232-0.161,0.374c-0.266,0.549-0.655,0.977-1.38,0.811    c-1.29-0.296-1.685-1.498-1.701-2.69c-0.006-0.304-0.288-0.507-0.578-0.44c-0.497,0.119-0.677,1.022-1.185,0.992    c-0.348-0.021-0.486-0.703-0.527-0.958c-0.182-1.09,0.145-2.291,1.386-1.403c0.17,0.12,0.361-0.145,0.219-0.283    c-0.46-0.449-1.19-0.952-1.778-0.401c-0.505,0.473-0.619,1.309-0.551,1.968c0.067,0.63,0.239,1.422,0.857,1.74    c0.47,0.241,0.901,0.029,1.259-0.295c0.165,1.405,1.068,2.701,2.589,2.89C438.001,342.152,439.329,340.332,438.607,338.688z" id="path256"/>
		<path style="fill-rule:evenodd;clip-rule:evenodd;fill:#272828;" d="M456.732,360.194c-0.087-0.244-0.493-0.378-0.622-0.082    c-0.233,0.539-0.385,1.194-0.671,1.589c-0.036,0.032-0.066,0.067-0.091,0.107c-0.281,0.302-0.684,0.368-1.365-0.074    c-1.078-0.7-1.774-1.729-2.023-2.985c-0.083-0.429-0.632-0.323-0.764,0c-0.535,1.308-2.43,2.226-2.604,0.105    c-0.024-0.292-0.473-0.3-0.46,0c0.094,2.346,2.062,2.333,3.238,1.029c0.423,1.398,1.551,2.761,2.886,3.169    C456.041,363.601,457.332,361.88,456.732,360.194z" id="path257"/>
		<path style="fill-rule:evenodd;clip-rule:evenodd;fill:#272828;" d="M474.541,392.658c-0.927,2.291-1.62,5.553-3.526,7.259    c-0.168,0.15-0.379-0.035-0.296-0.229c0.495-1.14,1.253-2.214,1.833-3.322c0.649-1.238,1.198-2.526,1.828-3.775    C474.425,392.502,474.579,392.565,474.541,392.658z" id="path258"/>
		<path style="fill-rule:evenodd;clip-rule:evenodd;fill:#272828;" d="M456.932,393.25c0.34,0.659,0.657,1.329,1.021,1.977    c0.406,0.725,1.01,1.283,1.45,1.975c0.091,0.145-0.083,0.284-0.219,0.218c-1.372-0.68-1.98-2.683-2.592-3.971    C456.483,393.222,456.815,393.022,456.932,393.25z" id="path259"/>
		<path style="fill-rule:evenodd;clip-rule:evenodd;fill:#272828;" d="M467.409,432.464c2.104,5.099,4.233,10.167,5.981,15.403    c1.585,4.742,3.241,10.314,2.773,15.367c-0.028,0.291-0.474,0.398-0.545,0.073c-1.098-5.092-1.654-10.16-3.112-15.196    c-1.527-5.268-3.528-10.403-5.299-15.592C467.162,432.389,467.359,432.343,467.409,432.464z" id="path260"/>
		<path style="fill-rule:evenodd;clip-rule:evenodd;fill:#272828;" d="M464.281,425.618c-0.359-0.77-0.541-1.601-0.86-2.384    c-0.06-0.146,0.18-0.241,0.252-0.107c0.399,0.732,0.581,1.549,0.941,2.296C464.721,425.648,464.386,425.843,464.281,425.618z" id="path261"/>
		<path style="fill-rule:evenodd;clip-rule:evenodd;fill:#272828;" d="M456.348,397.517c5.05,6.172,7.563,13.877,13.191,19.669    c2.431,2.502,4.361,5.51,6.078,8.53c1.583,2.78,3.837,6.548,3.938,9.815c0.002,0.099-0.123,0.116-0.174,0.047    c-1.989-2.751-2.846-6.417-4.535-9.408c-1.989-3.521-4.599-6.512-7.259-9.526c-4.867-5.515-7.359-12.875-11.51-18.916    C455.969,397.565,456.225,397.367,456.348,397.517z" id="path262"/>
		<path style="fill-rule:evenodd;clip-rule:evenodd;fill:#272828;" d="M480.127,437.461c0.418,1.564,1.133,3.053,1.431,4.646    c0.025,0.142-0.174,0.248-0.247,0.104c-0.73-1.461-1.127-3.084-1.442-4.679C479.835,437.363,480.081,437.292,480.127,437.461z" id="path263"/>
		<path style="fill-rule:evenodd;clip-rule:evenodd;fill:#272828;" d="M426.433,367.636c-1.388,0.545-0.756,2.394-0.013,3.209    c0.425,0.462,0.999,0.73,1.617,0.549c0.959-0.281,1.389-1.393,2.086-2.002c0.162-0.142,0.464-0.06,0.449,0.186    c-0.063,1.217-1.073,2.49-2.255,2.824c-0.954,0.27-1.911-0.219-2.532-0.92c-1.098-1.236-1.52-3.772,0.537-4.251    C426.59,367.169,426.681,367.538,426.433,367.636z" id="path264"/>
		<path style="fill-rule:evenodd;clip-rule:evenodd;fill:#272828;" d="M485.432,343.578c1.976,0.679,2.295,2.818,1.32,4.495    c-0.439,0.755-1.154,1.266-2.024,1.36c-0.842,0.091-1.976-0.592-2.026-1.482c-0.014-0.221,0.223-0.376,0.423-0.322    c0.596,0.154,0.936,0.745,1.603,0.728c0.516-0.013,0.954-0.525,1.204-0.918c0.73-1.147,0.495-2.667-0.71-3.363    C484.96,343.923,485.134,343.477,485.432,343.578z" id="path265"/>
	</g></svg>