<svg version="1.1" x="0px" y="0px" viewBox="70.1396246235213 24.35239295168185 161.3126142363593 160.77766871328708" style="enable-background:new 0 0 750 500;" xml:space="preserve" id="svg383" sodipodi:docname="simpletrees.svg" inkscape:version="1.4.2 (f4327f4, 2025-05-13)" xmlns:inkscape="http://www.inkscape.org/namespaces/inkscape" xmlns:sodipodi="http://sodipodi.sourceforge.net/DTD/sodipodi-0.dtd" xmlns="http://www.w3.org/2000/svg" xmlns:svg="http://www.w3.org/2000/svg"><defs id="defs383"/><g id="g26">
		<path style="fill-rule:evenodd;clip-rule:evenodd;fill:#FFFFFF;" d="M133.144,226.422c3.389-16.932,7.716-38.658,4.253-55.571    c-1.49-7.273-2.707-11.052-8.395-14.549c-5.687-3.497-15.301-3.497-21.19-2.099c-5.89,1.398-14.759,1.68-16.52,0.141    c-1.76-1.539-0.27-1.75,1.049-1.33c1.32,0.42,7.346,0.245,12.627-1.713c5.281-1.959,10.696-2.379,11.51-1.889    c0.812,0.489,2.437-3.497-3.995-5.386c-6.432-1.889-10.698-4.758-11.307-6.646c-0.609-1.889,0.542-1.434,2.504,0.141    c1.964,1.572,6.975,3.706,10.461,4.162c3.487,0.454,9.783,7.658,12.626,7.309c2.844-0.35,0.272-8.674,0.543-12.662    c0.271-3.986,1.422-7.832-1.15-11.75c-2.573-3.917-7.718-12.45-8.259-20.145c-0.543-7.694-7.582-8.254-12.186-7.415    c-4.604,0.84,8.462-4.266,11.373-0.069c2.912,4.196,2.844,7.484,4.063,12.239c1.219,4.758,4.873,11.611,7.244,11.611    c2.37,0,2.166-3.218,1.422-5.734c-0.745-2.519,0.067-7.975,0.948-9.863c0.88-1.889,0.203,6.995,1.218,9.304    c1.016,2.308,1.49,7.765,0.407,15.179c-1.083,7.414,0.812,16.648,2.979,22.523c2.167,5.875,5.958,13.29,9.885,11.191    c3.926-2.099,2.572-20.285,1.354-24.343c-1.218-4.057-3.655-13.988-0.677-20.703c2.979-6.716,6.229-12.45,6.499-13.57    c0.271-1.119-1.624,9.092-4.061,14.688c-2.438,5.597-0.88,17.138,0.474,17.627c1.354,0.49,3.723-1.889,4.129-7.274    c0.406-5.386,6.161-11.541,8.192-12.101c2.031-0.56-6.195,7.868-6.499,12.065c-0.305,4.197-5.11,16.789-3.351,20.424    c1.76,3.639,5.078-12.03,10.9-13.079c5.823-1.05,11.848-3.638,14.692-8.044c2.844-4.406,11.374-3.847,14.352-6.436    c2.98-2.588-5.314,5.597-10.459,6.54c-5.146,0.943-2.742,5.701-9.478,7.8c-6.737,2.098-9.173,1.817-11.407,5.595    c-2.235,3.777-5.958,9.023-6.704,13.64c-0.744,4.618-0.609,4.408,1.693,3.568c2.302-0.839,5.755-6.435,11.848-7.694    c2.794-0.577,3.999,2.539,7.562,3.645c4.209,1.307,10.77,0.57,13.629-1.4c5.28-3.636,12.727-5.105,15.097-4.826    c2.369,0.281-10.155,2.17-13.743,6.436c-3.588,4.267-6.161,3.639-9.953,3.218c-3.791-0.419,1.287,3.079,5.62,3.079    c4.333,0,7.854,1.607,8.529,3.217c0.678,1.608-4.095-1.854-9.105-1.713c-5.011,0.138-7.955-3.184-9.816-4.198    c-0.798-0.434-3.339-3.088-5.633-3.624c-3.06-0.715-6.089,0.858-7.908,2.217c-3.182,2.38-9.004,8.325-9.681,11.962    c-1.831,9.84,1.132,46.646,5.504,55.094C158.071,229.828,131.727,230.025,133.144,226.422z" id="path1"/>
		<path style="fill-rule:evenodd;clip-rule:evenodd;fill:#272828;" d="M132.451,226.235c1.69-8.447,3.613-18.084,4.678-27.684    c1.065-9.599,1.283-19.188-0.432-27.559c-0.732-3.578-1.395-6.289-2.556-8.503c-1.139-2.17-2.788-3.901-5.515-5.579    c-2.478-1.522-5.752-2.359-9.128-2.692c-4.114-0.407-8.365-0.067-11.522,0.683c-3.092,0.734-6.999,1.164-10.301,1.191    c-3.184,0.027-5.864-0.346-6.853-1.211c-0.591-0.518-0.899-0.955-1.002-1.314c-0.111-0.387-0.035-0.716,0.183-0.983    c0.174-0.216,0.427-0.352,0.731-0.421c0.481-0.106,1.181-0.032,1.823,0.173c0.69,0.219,2.909,0.244,5.679-0.132    c2.027-0.275,4.319-0.771,6.484-1.573c2.337-0.868,4.709-1.441,6.712-1.769c2.303-0.378,4.189-0.411,5.056-0.195    c0.016-0.044,0.031-0.095,0.042-0.153c0.043-0.198,0.043-0.447-0.029-0.728l-0.005-0.024c-0.256-0.972-1.329-2.202-4.215-3.05    c-3.104-0.911-5.72-2.052-7.684-3.205c-2.281-1.341-3.729-2.751-4.101-3.906c-0.556-1.724-0.104-2.345,1.082-2.151    c0.589,0.096,1.476,0.656,2.55,1.517c0.969,0.776,2.747,1.707,4.71,2.488c1.818,0.724,3.781,1.312,5.394,1.521    c1.879,0.245,4.298,2.103,6.665,3.919c2.33,1.788,4.604,3.533,5.783,3.389c1.159-0.143,0.732-3.463,0.312-6.736    c-0.247-1.925-0.493-3.836-0.396-5.263c0.053-0.785,0.14-1.563,0.226-2.334c0.339-3.05,0.672-6.037-1.259-8.978    c-1.298-1.979-3.248-5.124-4.941-8.745c-1.707-3.653-3.156-7.795-3.434-11.74c-0.031-0.426-0.08-0.818-0.145-1.179    c-0.461-2.527-1.801-4.044-3.487-4.892c-1.742-0.875-3.872-1.068-5.823-0.931c-0.67,0.047-1.306,0.131-1.892,0.237    c-0.565,0.103-0.938,0.124-1.145,0.087c-1.669-0.304-1.463-0.969,0.26-1.736c0.48-0.214,1.229-0.477,2.115-0.717    c3.291-0.896,8.694-1.565,10.605,1.189c2.231,3.216,2.771,5.888,3.405,9.032c0.217,1.077,0.447,2.212,0.761,3.438    c0.637,2.485,1.962,5.567,3.412,7.89c1.155,1.854,2.324,3.181,3.142,3.181c0.154,0,0.285-0.017,0.395-0.05    c0.269-0.079,0.458-0.274,0.583-0.542c0.163-0.351,0.231-0.824,0.231-1.358c0-0.9-0.196-1.934-0.473-2.867    c-0.368-1.245-0.388-3.112-0.211-4.954c0.207-2.162,0.689-4.327,1.195-5.412c0.304-0.653,0.703-0.827,1.187-0.602l0.049,0.024    c0.203,0.113,0.331,0.314,0.36,0.534c0.244,0.702,0.281,1.949,0.324,3.383c0.066,2.212,0.147,4.943,0.602,5.978    c0.578,1.313,0.991,3.551,1.07,6.515c0.067,2.52-0.102,5.581-0.61,9.055l-0.003,0.021c-0.477,3.284-0.358,6.936,0.111,10.487    c0.572,4.32,1.664,8.489,2.834,11.667c0.69,1.87,1.542,3.89,2.503,5.689c0.947,1.771,2,3.335,3.105,4.333    c0.974,0.877,1.976,1.288,2.946,0.931c0.114-0.043,0.223-0.091,0.324-0.145c1.31-0.7,1.934-3.902,2.148-7.74    c0.333-5.999-0.428-13.387-1.144-15.77c-0.617-2.052-1.542-5.594-1.937-9.488c-0.4-3.934-0.255-8.222,1.292-11.708    c1.618-3.648,3.324-7.021,4.585-9.518c1.038-2.054,1.771-3.503,1.875-3.932l0.044-0.157l0.042-0.106    c0.301-1.271,0.699-2.098,1.051-2.499c0.443-0.861,0.687-0.939,0.691-0.161c0.25,0.352,0.226,1.412-0.397,3.133l-0.085,0.473    c-0.066,0.352-0.168,0.866-0.297,1.483c-0.648,3.076-2.074,9.101-3.761,12.977c-0.082,0.188-0.156,0.374-0.223,0.559    c-1,2.771-1.143,6.775-0.879,10.159c0.251,3.194,0.755,5.738,1.178,5.957l0.077,0.014c0.263,0.02,0.614-0.166,0.999-0.561    c0.475-0.486,0.943-1.251,1.324-2.302c0.367-1.013,0.645-2.282,0.76-3.812c0.183-2.422,1.37-4.967,2.837-7.135    c1.996-2.946,4.583-5.244,5.881-5.601c0.66-0.182,1.041,0.024,1.191,0.564c0.034,0.122,0.034,0.246,0.005,0.36    c-0.132,0.745-1.011,1.958-2.105,3.467c-1.901,2.619-4.531,6.245-4.688,8.411c-0.112,1.543-0.787,4.096-1.536,6.934    c-1.331,5.037-2.91,11.013-1.885,13.131c0.025,0.053-0.234,0.207-0.128,0.156c0.462-0.224,1.263-1.863,2.244-3.872    c1.913-3.918,4.45-9.114,8.015-9.756c3.044-0.549,6.143-1.525,8.787-2.973c2.257-1.235,4.176-2.813,5.429-4.756    c1.819-2.818,5.577-3.731,9.018-4.567c2.255-0.548,4.363-1.061,5.469-2.022c0.331-0.286,0.537-0.453,0.633-0.521l0.232-0.161    c1.052-0.927,1.908-1.418,2.455-1.566c0.958-0.518,1.182-0.416,0.663,0.285c-0.048,0.448-0.736,1.324-2.29,2.444l-0.349,0.336    c-0.24,0.231-0.638,0.593-1.149,1.029c-2.241,1.911-6.729,5.325-10.059,5.938c-2.121,0.389-2.782,1.567-3.525,2.896    c-0.976,1.742-2.073,3.7-5.869,4.882c-4.478,1.394,0.101,0.038-4.017,1.15c-3.658,0.988-5.412,1.464-6.988,4.127    c-0.378,0.64-0.855,1.409-1.354,2.215c-2.116,3.413-4.673,7.542-5.26,11.173c-0.393,2.435-0.669,3.207-0.598,3.218    c0.109,0.018,0.513-0.13,1.102-0.346l0.266-0.097c0.67-0.257,1.567-1.09,2.655-2.102c2.199-2.041,5.123-4.755,9.268-5.611    c2.463-0.51,6.076,3.785,8.996,3.947c4.391,0.242,8.909,0.493,11.932-1.59c2.325-1.601,5.052-2.792,7.6-3.605    c3.418-1.093,6.554-1.513,7.984-1.343h0.003c0.696,0.08,0.985,0.387,0.923,0.905c-0.074,0.62-1.185,0.945-2.845,1.429    c-3.281,0.959-9.184,2.684-11.36,5.27c-3.601,4.282-4.781,3.879-8.403,3.457l-0.59-0.068c1.228,0.78,2.512,1.568,4.59,1.568    c2.152,0,3.647,0.548,5.199,1.134c1.803,0.68,2.559,1.971,2.988,2.991c0.289,0.688,0.66,0.805,0.114,1.034    c-0.503,0.213-1.291-0.085-2.414-0.509c-1.693-0.64-4.302-1.626-6.919-1.554c-4.088,0.114-6.832-1.9-8.769-3.322    c-0.546-0.4-1.024-0.752-1.408-0.961c-0.827-0.45-3.961-4.441-6.514-3.896c-2.373,0.505-4.826,1.366-6.257,2.436    c-1.771,1.323-4.377,3.775-6.421,6.301c-1.521,1.882-2.72,3.778-2.987,5.216c-0.955,5.134-0.583,17.761,0.619,29.789    c1.072,10.73,2.797,20.943,4.818,24.85c0.03,0.057,0.05,0.116,0.063,0.175c0.411,1.644-1.265,2.79-3.979,3.507    c-2.754,0.727-6.692,1.078-10.388,1.07c-3.721-0.009-7.228-0.387-9.082-1.115C132.755,227.991,132.102,227.236,132.451,226.235    L132.451,226.235z M138.549,198.708c-1.078,9.707-3.008,19.382-4.704,27.854c-0.009,0.04-0.021,0.08-0.037,0.121    c-0.044,0.112,0.267,0.291,0.814,0.506c1.694,0.666,5.006,1.012,8.562,1.02c3.582,0.008,7.384-0.329,10.023-1.025    c1.853-0.488,3.061-1.082,2.965-1.732c-2.087-4.131-3.845-14.468-4.925-25.277c-1.213-12.141-1.58-24.931-0.601-30.184    c0.317-1.706,1.628-3.819,3.278-5.858c2.126-2.623,4.835-5.172,6.676-6.55c1.604-1.196,4.267-2.144,6.817-2.687    c2.846-0.607,6.372,3.43,7.493,4.042c0.482,0.263,0.991,0.636,1.572,1.062c1.774,1.304,4.289,3.148,7.884,3.049    c2.897-0.081,5.659,0.962,7.454,1.64c-0.509-1.248-4.881-2.43-6.859-2.43c-2.501,0-4.371-0.759-5.713-1.693    c-0.407-0.283-0.712-0.573-0.883-0.84c-0.356-0.559-1.18-0.677-0.643-1.043c0.313-0.213,0.864-0.305,1.697-0.213l0.733,0.084    c3.183,0.372,5.491,0.642,8.596-3.051c1.267-1.507,3.525-2.715,5.883-3.671c-2.146,0.756-4.367,1.786-6.287,3.108    c-3.427,2.361-8.19,2.098-12.821,1.841c-2.83-0.157-6.354-4.445-8.633-3.974c-3.749,0.774-6.506,3.334-8.579,5.259    c-1.202,1.116-2.191,2.036-3.128,2.393l-0.275,0.102c-0.795,0.292-1.338,0.491-1.818,0.414c-1.248-0.201-1.152-1.357-0.588-4.852    c0.633-3.915,3.272-8.176,5.456-11.699c0.461-0.743,0.9-1.454,1.337-2.191c1.873-3.166,3.809-3.69,7.849-4.782    c1.134-0.306,2.444-0.66,3.961-1.133c3.253-1.013,4.202-2.708,5.046-4.218c0.915-1.636,1.73-3.091,4.515-3.601    c1.95-0.358,4.416-1.846,6.492-3.343c-0.49,0.127-0.994,0.248-1.504,0.373c-3.173,0.771-6.641,1.614-8.15,3.952    c-1.391,2.156-3.493,3.892-5.951,5.236c-2.782,1.523-6.031,2.55-9.216,3.124c-2.847,0.512-5.203,5.339-6.98,8.978    c-1.1,2.253-1.998,4.093-2.91,4.532c-0.718,0.35-1.316,0.135-1.779-0.822c-1.254-2.592,0.398-8.844,1.79-14.115    c0.731-2.767,1.389-5.257,1.491-6.67c0.187-2.575,2.957-6.394,4.958-9.15l0.829-1.143c-1.058,0.909-2.337,2.329-3.462,3.991    c-1.344,1.984-2.429,4.291-2.591,6.441c-0.125,1.663-0.434,3.061-0.844,4.191c-0.454,1.253-1.039,2.19-1.643,2.812    c-0.696,0.713-1.452,1.042-2.128,0.99c-0.16-0.012-0.318-0.046-0.471-0.102l-0.061-0.023c-0.876-0.382-1.754-3.456-2.043-7.165    c-0.277-3.543-0.115-7.766,0.963-10.749c0.083-0.229,0.169-0.444,0.256-0.646c1.059-2.431,2.017-5.761,2.734-8.628    c-1.146,2.277-2.529,5.078-3.862,8.083c-1.431,3.228-1.558,7.266-1.179,10.99c0.382,3.764,1.285,7.217,1.887,9.222    c0.745,2.479,1.541,10.104,1.199,16.256c-0.238,4.29-1.065,7.938-2.902,8.92c-0.175,0.093-0.342,0.169-0.503,0.229    c-1.547,0.57-3.027,0.021-4.394-1.211c-1.235-1.115-2.387-2.815-3.407-4.725c-1.004-1.88-1.884-3.959-2.587-5.868    c-1.201-3.257-2.32-7.535-2.907-11.975c-0.486-3.675-0.608-7.46-0.111-10.875l0.003-0.023c0.498-3.404,0.663-6.38,0.598-8.814    c-0.074-2.764-0.44-4.812-0.952-5.973c-0.55-1.252-0.646-4.044-0.714-6.356c-0.114,0.641-0.208,1.323-0.274,2.01    c-0.161,1.681-0.152,3.354,0.162,4.417c0.312,1.055,0.535,2.229,0.535,3.27c0,0.727-0.108,1.402-0.365,1.957    c-0.296,0.637-0.773,1.106-1.479,1.314c-0.246,0.073-0.511,0.111-0.797,0.111c-1.376,0-2.953-1.611-4.355-3.858    c-1.517-2.432-2.907-5.67-3.579-8.293c-0.324-1.262-0.557-2.415-0.777-3.51c-0.602-2.984-1.115-5.52-3.183-8.5    c-0.992-1.43-3.518-1.562-5.943-1.247c1.264,0.144,2.515,0.463,3.642,1.03c2.06,1.036,3.693,2.871,4.249,5.916    c0.078,0.429,0.134,0.873,0.166,1.328c0.264,3.75,1.658,7.721,3.301,11.237c1.658,3.547,3.568,6.628,4.841,8.565    c2.216,3.376,1.856,6.613,1.488,9.917c-0.084,0.754-0.17,1.514-0.221,2.274c-0.087,1.302,0.148,3.139,0.386,4.988    c0.51,3.979,1.029,8.017-1.554,8.336c-1.756,0.215-4.259-1.706-6.823-3.674c-2.218-1.703-4.488-3.444-5.982-3.639    c-1.732-0.226-3.818-0.849-5.737-1.612c-2.09-0.832-4.006-1.841-5.079-2.7c-0.889-0.714-1.56-1.168-1.884-1.22    c-0.273-0.045,0.453,0.14,0.505,0.305c0.268,0.831,1.489,1.951,3.463,3.111c1.868,1.097,4.373,2.188,7.365,3.065    c3.485,1.023,4.832,2.695,5.194,4.055l0.012,0.039c0.128,0.508,0.122,0.982,0.04,1.375c-0.095,0.443-0.298,0.806-0.536,1.031    c-0.382,0.361-0.847,0.449-1.286,0.185c-0.338-0.204-2.066-0.144-4.447,0.247c-1.913,0.313-4.187,0.863-6.444,1.7    c-2.268,0.84-4.668,1.359-6.791,1.647c-2.972,0.403-5.459,0.342-6.3,0.075c-0.223-0.071-0.445-0.121-0.642-0.143    c0.076,0.074,0.168,0.159,0.278,0.256c0.707,0.62,3.036,0.884,5.901,0.859c3.19-0.026,6.976-0.445,9.982-1.159    c3.286-0.78,7.711-1.134,11.993-0.71c3.576,0.354,7.065,1.251,9.737,2.895c2.96,1.82,4.764,3.728,6.029,6.138    c1.241,2.368,1.934,5.183,2.69,8.878C139.845,179.251,139.628,188.983,138.549,198.708z" id="path2"/>
		<path style="fill-rule:evenodd;clip-rule:evenodd;fill:#FFFFFF;" d="M127.339,41.499c-0.679-3.161,2.451-5.157,4.517-1.567    c-1.727-4.436,2.863-6.7,4.807-4.195c-3.891-5.986,2.966-8.876,5.078-5.105c-0.642-5.928,7.449-5.82,6.906-1.189    c1.726-5.072,8.581-2.103,7.04,3.007c2.697-2.321,6.947,2.246,4.13,4.688c3.823-3.533,7.47-1.016,5.043,3.951    c2.196-2.547,6.513-3.395,5.62,2.938c2.642-6.776,7.73-4.328,6.769-0.351c2.085-4.548,7.875-3.005,6.365,2.414    c4.751-4.549,8.297-2.378,4.536,3.427c3.845-3.426,6.357-0.343,3.926,3.043c4.821-1.808,7.828-0.839,5.315,4.861    c4.607-2.159,6.469,0.862,3.317,4.267c3.589-1.926,5.467,1.193,3.183,4.442c2.051-2.075,9.628-7.672,10.157-1.297    c5.263-3.233,9.868,0.964,7.379,4.616c3.703-2.39,9.096,1.278,5.078,5.737c5.015,0.385,6.365,8.253-0.337,8.253    c3.6,2.547,1.751,7.623-3.284,6.436c7.669,2.673,3.374,9.597-1.795,4.825c3.444,3.832,2.237,8.353-3.656,6.26    c0.965,0.893,4.57,2.169,3.149,6.155c-1.423,3.988-6.499,0.805-6.499,0.805c3.202,1.501,7.34,6.691,3.555,9.41    c5.689-2.547,11.339,10.56,1.997,9.406c6.689,4.224,2.619,9.335-2.234,7.206c2.785,5.104-2.95,9.672-5.011,2.236    c0.408,4.754-3.205,6.109-5.414,2.38c1.711,5.402-4.861,7.965-6.905,2.517c1.103,5.443-6.343,6.813-6.975,2.029    c0.604,4.851-4.873,6.085-5.009,1.119c-1.04,6.359-8.462,6.028-8.396,0.14c-2.096,6.571-9.341,4.685-9.206-0.561    c-2.624,5.394-10.227,2.691-7.752-3.146c-3.668,2.465-5.231-1.249-3.283-3.427c-3.458,1.332-5.282-0.934-4.265-3.567    c-2.793,5.868-7.816,2.452-6.161-1.329c-1.74,2.27-6.139,0.282-5.754-2.588c-1.6,3.566-7.246,3.994-6.772,0.07    c0,0,1.22,3.286-2.234,5.595c-3.453,2.309-4.4-2.518-4.4-2.518s1.828,4.756-0.88,6.645c-2.709,1.889-4.401-3.147-4.401-3.147    s0.812,5.875-3.113,6.295c-3.928,0.421-2.844-3.847-2.844-3.847s-1.422,6.506-5.958,6.295c-4.536-0.209-1.624-5.386-1.624-5.386    s-3.318,7.136-6.838,5.666c-3.521-1.469-0.88-4.895-0.88-4.895s-4.063,7.765-6.567,6.365c-2.505-1.399-0.542-5.946-0.542-5.946    c-3.828,10.709-10.38,4.367-9.072,1.049c-4.099,8.087-11.645,1.386-6.16-1.959c-7.187,3.046-8.892-4.223-2.437-5.595    c-6.699-0.094-5.522-7.397,0.134-5.875c-8.333-2.85-3.035-8.722,1.896-5.526c-3.682-3.104,0.93-5.354,4.129-4.058    c0,0-2.979-2.238-0.948-3.986c-4.256,2.288-7.468-1.644-3.994-3.847c-4.176,1.245-4.867-3.496-2.166-4.408    c-5.29,1.834-6.505-4.365-2.539-5.56c-5.305-1.307-3.112-6.199-0.034-5.317c-3.445-4.102,1.184-7.366,3.589-5.279    c-2.683-2.081-0.976-5.663,1.93-4.321c-3.16-1.347-2.346-4.838,1.118-4.336c-5.572-1.258-3.077-6.361,0.541-6.226    c-6.685-1.359-3.68-7.109-0.744-6.785c-4.81-2.998-0.46-7.833,2.846-4.687c-2.293-3.461-1.373-7.101,3.148-8.919    c-2.982-7.123,4.17-7.617,5.043-2.972c-0.832-6.3,5.269-8.785,5.991-3.707c-0.977-4.953,3.416-10.283,6.128-3.567    c-2.059-7.696,4.606-10.849,8.022-3.814c-0.854-5.278,4.687-5.229,5.112-0.839c1.276-3.751,5.057-3.24,5.281,0.559    C124.357,37.76,126.644,38.875,127.339,41.499z" id="path3"/>
		<path style="fill-rule:evenodd;clip-rule:evenodd;fill:#272828;" d="M126.831,39.086c0.103-0.243,0.23-0.468,0.376-0.667    c0.31-0.422,0.712-0.742,1.172-0.931c0.47-0.193,0.99-0.243,1.524-0.121c0.287,0.066,0.58,0.183,0.868,0.355    c0.049-0.709,0.255-1.335,0.569-1.863c0.341-0.572,0.809-1.028,1.34-1.347c0.534-0.318,1.134-0.501,1.737-0.528h0.017    c0.204-0.008,0.408,0.002,0.609,0.03c-0.473-1.51-0.286-2.789,0.27-3.76c0.336-0.588,0.809-1.06,1.357-1.4    c0.54-0.337,1.156-0.544,1.788-0.608c0.906-0.094,1.842,0.105,2.633,0.634c0.276-1.406,1.087-2.382,2.099-2.949    c0.668-0.375,1.428-0.565,2.176-0.578c0.751-0.012,1.495,0.154,2.131,0.49c0.651,0.344,1.193,0.854,1.528,1.524    c0.69-0.752,1.557-1.149,2.46-1.245c0.632-0.067,1.278,0.016,1.888,0.229c0.604,0.213,1.173,0.551,1.66,0.994    c0.988,0.902,1.651,2.235,1.593,3.826c0.883-0.21,1.792-0.015,2.583,0.436c0.446,0.253,0.854,0.589,1.194,0.978    c0.342,0.391,0.62,0.84,0.804,1.315c0.16,0.413,0.251,0.844,0.257,1.275c0.646-0.28,1.265-0.409,1.831-0.405    c0.696,0.006,1.314,0.207,1.813,0.578c0.504,0.375,0.878,0.91,1.082,1.581c0.181,0.597,0.224,1.306,0.097,2.106    c0.377-0.2,0.762-0.354,1.142-0.451c0.668-0.171,1.331-0.172,1.925,0.048c0.621,0.229,1.146,0.683,1.498,1.407    c0.157,0.322,0.279,0.701,0.359,1.143c0.818-1.089,1.723-1.713,2.593-1.972c0.634-0.189,1.255-0.188,1.82-0.034    c0.567,0.157,1.075,0.469,1.479,0.901c0.364,0.39,0.645,0.876,0.811,1.433c0.7-0.658,1.507-1.043,2.309-1.175    c0.642-0.105,1.283-0.05,1.867,0.156c0.592,0.211,1.126,0.572,1.547,1.077c0.569,0.683,0.931,1.62,0.941,2.778    c1.264-0.917,2.422-1.369,3.344-1.415c0.661-0.033,1.228,0.131,1.662,0.473c0.445,0.351,0.732,0.865,0.827,1.527    c0.099,0.69-0.025,1.568-0.422,2.602c0.557-0.195,1.069-0.26,1.523-0.215c0.563,0.055,1.041,0.272,1.415,0.614    c0.369,0.338,0.626,0.791,0.746,1.32c0.138,0.607,0.096,1.327-0.164,2.096c0.97-0.252,1.846-0.366,2.588-0.322    c0.851,0.05,1.555,0.3,2.068,0.777c0.526,0.488,0.824,1.183,0.848,2.101c0.016,0.641-0.108,1.403-0.39,2.295    c0.99-0.269,1.835-0.282,2.502-0.101c0.609,0.166,1.084,0.489,1.406,0.934c0.32,0.441,0.478,0.989,0.456,1.608    c-0.02,0.532-0.178,1.125-0.489,1.746c0.346-0.023,0.67,0.002,0.968,0.069c0.613,0.14,1.116,0.459,1.483,0.911    c0.355,0.437,0.575,0.99,0.637,1.62c0.024,0.248,0.024,0.51-0.003,0.781c0.929-0.682,2.001-1.363,3.061-1.854    c1.02-0.472,2.049-0.774,2.968-0.758c1.047,0.021,1.938,0.431,2.525,1.414c0.192,0.322,0.347,0.703,0.458,1.149    c1.691-0.801,3.301-0.92,4.637-0.59c0.899,0.224,1.674,0.649,2.272,1.213c0.613,0.577,1.042,1.298,1.229,2.091    c0.126,0.538,0.142,1.107,0.029,1.682c1.055-0.242,2.127-0.154,3.058,0.191c0.696,0.259,1.317,0.664,1.798,1.185    c0.497,0.537,0.843,1.192,0.971,1.933c0.171,0.986-0.044,2.109-0.81,3.281c1.548,0.491,2.678,1.646,3.251,2.983    c0.282,0.66,0.429,1.369,0.422,2.067c-0.006,0.714-0.173,1.414-0.516,2.042c-0.566,1.035-1.595,1.86-3.153,2.193    c0.544,0.7,0.852,1.474,0.945,2.239c0.09,0.734-0.021,1.466-0.315,2.12c-0.294,0.658-0.771,1.235-1.412,1.66    c-0.359,0.238-0.768,0.429-1.224,0.559c1.096,0.83,1.695,1.781,1.905,2.684c0.191,0.825,0.063,1.618-0.31,2.266    c-0.377,0.652-0.996,1.151-1.779,1.384c-0.662,0.197-1.446,0.204-2.294-0.05c0.232,0.585,0.367,1.156,0.405,1.693    c0.055,0.786-0.095,1.508-0.45,2.104c-0.367,0.614-0.939,1.082-1.713,1.338c-0.375,0.124-0.8,0.197-1.274,0.21    c1.09,1.071,1.889,2.639,0.991,5.155c-0.713,1.999-2.125,2.545-3.538,2.498c0.254,0.286,0.495,0.586,0.715,0.893    c0.601,0.837,1.064,1.745,1.284,2.654c0.235,0.967,0.199,1.935-0.219,2.826l-0.031,0.065c1.444,0.107,2.779,0.939,3.81,2.107    c0.911,1.032,1.586,2.335,1.881,3.613c0.31,1.348,0.206,2.69-0.467,3.728c-0.57,0.875-1.518,1.511-2.927,1.714    c1.329,1.222,1.961,2.479,2.078,3.606c0.076,0.74-0.066,1.426-0.377,2.02c-0.31,0.588-0.787,1.079-1.384,1.437    c-0.918,0.55-2.13,0.779-3.452,0.544c0.453,1.604,0.207,3.08-0.41,4.118c-0.367,0.617-0.87,1.091-1.448,1.362    c-0.608,0.285-1.289,0.344-1.974,0.116c-0.689-0.232-1.376-0.764-1.972-1.672c-0.148,0.443-0.343,0.829-0.575,1.152    c-0.392,0.548-0.895,0.928-1.459,1.124c-0.572,0.2-1.194,0.205-1.819,0.002c-0.341-0.11-0.684-0.285-1.018-0.525    c-0.099,1.15-0.565,2.107-1.241,2.805c-0.458,0.475-1.009,0.826-1.606,1.038c-0.6,0.213-1.247,0.283-1.894,0.196    c-0.881-0.122-1.755-0.537-2.492-1.297c-0.295,1.056-0.933,1.876-1.732,2.432c-0.545,0.379-1.168,0.632-1.81,0.752    c-0.639,0.118-1.299,0.103-1.918-0.059c-0.638-0.166-1.229-0.48-1.711-0.95c-0.296,0.803-0.779,1.425-1.344,1.84    c-0.452,0.333-0.961,0.535-1.475,0.597c-0.532,0.063-1.068-0.026-1.555-0.277c-0.447-0.231-0.85-0.597-1.16-1.105    c-0.646,1.213-1.577,2.037-2.595,2.485c-0.71,0.313-1.462,0.443-2.193,0.395c-0.74-0.049-1.457-0.277-2.085-0.683    c-0.759-0.489-1.387-1.229-1.768-2.206c-0.757,1.139-1.719,1.872-2.737,2.254c-0.845,0.316-1.725,0.389-2.562,0.253    c-0.837-0.138-1.632-0.486-2.306-1.012c-0.778-0.607-1.395-1.45-1.728-2.478c-1.064,1.145-2.415,1.679-3.722,1.709    c-0.722,0.016-1.433-0.125-2.075-0.404c-0.653-0.283-1.235-0.705-1.689-1.249c-0.785-0.94-1.2-2.229-0.958-3.767    c-0.688,0.215-1.3,0.222-1.818,0.075c-0.52-0.146-0.941-0.438-1.254-0.824c-0.301-0.371-0.499-0.83-0.584-1.329    c-0.087-0.511-0.056-1.07,0.107-1.622c-0.713,0.073-1.345-0.011-1.879-0.217c-0.419-0.163-0.78-0.399-1.075-0.695    c-0.294-0.296-0.521-0.651-0.674-1.048l-0.064-0.183c-0.833,0.854-1.738,1.27-2.594,1.352c-0.591,0.056-1.157-0.045-1.663-0.271    c-0.503-0.226-0.945-0.573-1.292-1.009c-0.505-0.632-0.815-1.454-0.824-2.36c-0.21,0.063-0.425,0.106-0.645,0.13    c-0.729,0.08-1.498-0.055-2.197-0.355c-0.696-0.298-1.333-0.764-1.8-1.347c-0.183-0.227-0.339-0.472-0.466-0.73    c-0.766,0.793-1.733,1.325-2.695,1.57c-0.658,0.169-1.321,0.204-1.924,0.102c-0.394-0.066-0.763-0.194-1.091-0.383    c-0.333,1.039-1.054,2.168-2.502,3.137c-1.532,1.025-2.667,0.96-3.494,0.445c-0.052,1.356-0.48,2.771-1.775,3.674    c-1.803,1.258-3.204,0.287-4.14-0.946c-0.274,1.846-1.155,3.946-3.708,4.22c-1.926,0.206-2.901-0.461-3.374-1.353    c-0.997,1.889-2.73,3.933-5.534,3.804c-2.164-0.1-3.004-1.052-3.216-2.194c-1.422,1.748-3.382,3.301-5.49,2.421    c-1.176-0.49-1.806-1.148-2.098-1.849c-1.549,2.109-3.677,4.257-5.421,3.281c-0.955-0.532-1.399-1.392-1.559-2.324    c-1.042,1.393-2.159,2.102-3.228,2.338c-0.771,0.168-1.514,0.094-2.191-0.153c-0.659-0.242-1.251-0.647-1.739-1.147    c-0.536-0.551-0.948-1.225-1.19-1.929c-1.3,1.571-2.771,2.211-4.094,2.241c-1.057,0.024-2.017-0.34-2.735-0.934    c-0.735-0.607-1.224-1.46-1.316-2.394c-0.058-0.584,0.036-1.194,0.319-1.786c-1.482,0.192-2.655-0.103-3.47-0.667    c-0.619-0.431-1.038-1.011-1.244-1.66c-0.205-0.645-0.197-1.355,0.038-2.05c0.29-0.865,0.933-1.708,1.956-2.352    c-1.118-0.434-1.872-1.133-2.294-1.922c-0.348-0.651-0.469-1.362-0.382-2.042c0.087-0.685,0.384-1.336,0.869-1.862    c0.389-0.422,0.896-0.764,1.51-0.979c-1.104-0.766-1.715-1.611-1.945-2.428c-0.211-0.752-0.113-1.478,0.219-2.107    c0.317-0.6,0.849-1.104,1.522-1.451c0.856-0.442,1.959-0.629,3.14-0.419c-0.049-0.176-0.079-0.349-0.089-0.518    c-0.039-0.611,0.16-1.157,0.529-1.617c0.333-0.415,0.807-0.753,1.365-0.998c0.686-0.301,1.52-0.465,2.378-0.457    c-0.29-0.48-0.499-1.031-0.479-1.606c-1.221,0.25-2.309,0.057-3.122-0.396c-0.472-0.262-0.858-0.614-1.131-1.021    c-0.284-0.423-0.449-0.904-0.469-1.409l-0.001-0.021c-0.014-0.467,0.093-0.945,0.341-1.408c-0.759-0.105-1.359-0.433-1.798-0.885    c-0.33-0.339-0.562-0.743-0.698-1.174c-0.134-0.423-0.176-0.877-0.127-1.32c0.034-0.299,0.107-0.592,0.223-0.871    c-1.042-0.055-1.869-0.45-2.461-1.033c-0.412-0.403-0.706-0.896-0.877-1.43c-0.169-0.524-0.219-1.089-0.145-1.642    c0.117-0.88,0.543-1.736,1.292-2.371c-1.217-0.619-1.868-1.489-2.097-2.379c-0.131-0.508-0.124-1.017-0.006-1.489    c0.118-0.471,0.347-0.909,0.659-1.278c0.444-0.522,1.056-0.909,1.764-1.057c-0.628-1.188-0.693-2.301-0.405-3.234    c0.184-0.593,0.509-1.107,0.924-1.521c0.411-0.41,0.911-0.722,1.448-0.913c0.364-0.129,0.747-0.203,1.132-0.217    c-0.137-0.4-0.195-0.803-0.185-1.189c0.015-0.508,0.147-0.986,0.378-1.396c0.239-0.425,0.582-0.78,1.008-1.024    c0.129-0.073,0.266-0.138,0.408-0.19c-0.179-0.267-0.309-0.546-0.391-0.827c-0.142-0.481-0.147-0.966-0.026-1.414    c0.125-0.457,0.375-0.875,0.746-1.211c0.136-0.125,0.289-0.237,0.458-0.337c-0.58-0.418-0.972-0.91-1.203-1.436    c-0.253-0.576-0.312-1.184-0.211-1.775v-0.003c0.097-0.567,0.344-1.119,0.704-1.607c0.346-0.467,0.8-0.878,1.332-1.191    c-1.119-0.592-1.776-1.373-2.086-2.205c-0.222-0.597-0.264-1.212-0.168-1.801c0.093-0.572,0.32-1.122,0.638-1.606    c0.419-0.638,1.007-1.164,1.671-1.483c-0.942-0.967-1.28-2.026-1.202-2.982c0.052-0.644,0.295-1.237,0.671-1.728    c0.372-0.482,0.878-0.864,1.462-1.09c0.591-0.231,1.259-0.302,1.946-0.163c-0.398-1.231-0.424-2.453-0.067-3.588    c0.405-1.278,1.292-2.433,2.681-3.352c0.372-0.247,0.782-0.477,1.229-0.69c-0.827-2.33-0.588-4.008,0.15-5.045    c0.416-0.585,0.985-0.967,1.618-1.153c0.615-0.18,1.288-0.172,1.937,0.016c0.57,0.165,1.125,0.474,1.601,0.916    c0.302-1.601,1.066-2.826,1.979-3.576c0.485-0.4,1.017-0.672,1.554-0.801c0.566-0.137,1.139-0.117,1.668,0.073    c0.252,0.091,0.493,0.219,0.716,0.386c0.207-1.189,0.652-2.266,1.241-3.058c0.426-0.573,0.934-1.012,1.492-1.263    c0.609-0.272,1.263-0.322,1.926-0.088c0.371,0.132,0.74,0.356,1.1,0.684c0.048-1.495,0.464-2.729,1.109-3.633    c0.5-0.699,1.138-1.207,1.855-1.495c0.727-0.291,1.528-0.356,2.345-0.168c1.08,0.249,2.186,0.947,3.168,2.159    c0.21-0.79,0.61-1.384,1.11-1.785c0.426-0.34,0.925-0.537,1.445-0.597c0.505-0.058,1.031,0.02,1.526,0.226    c0.741,0.311,1.422,0.913,1.87,1.792c0.386-0.491,0.831-0.851,1.296-1.078c0.541-0.266,1.109-0.358,1.657-0.287    c0.55,0.072,1.074,0.308,1.521,0.699c0.366,0.322,0.68,0.748,0.911,1.273c0.154-0.165,0.314-0.303,0.477-0.416    c0.494-0.341,1.017-0.462,1.532-0.396c0.495,0.064,0.962,0.298,1.37,0.669L126.831,39.086L126.831,39.086z M128.36,39.264    c-0.352,0.479-0.507,1.218-0.321,2.086c0.079,0.371-0.147,0.742-0.517,0.839c-0.382,0.101-0.773-0.127-0.874-0.508    c-0.191-0.724-0.515-1.301-0.897-1.648c-0.194-0.177-0.395-0.287-0.587-0.311c-0.17-0.021-0.354,0.025-0.541,0.154    c-0.317,0.221-0.633,0.649-0.918,1.33c-0.095,0.26-0.336,0.451-0.629,0.468c-0.394,0.023-0.732-0.277-0.755-0.671    c-0.059-0.989-0.385-1.689-0.836-2.084c-0.23-0.202-0.494-0.323-0.765-0.358c-0.273-0.036-0.563,0.014-0.846,0.151    c-0.566,0.278-1.101,0.907-1.445,1.92c-0.089,0.258-0.321,0.454-0.61,0.48c-0.392,0.036-0.74-0.252-0.776-0.644    c-0.126-1.303-0.774-2.122-1.51-2.431c-0.272-0.112-0.556-0.155-0.823-0.125c-0.254,0.028-0.499,0.127-0.71,0.295    c-0.559,0.446-0.894,1.392-0.658,2.892c0.063,0.311-0.09,0.641-0.39,0.784c-0.355,0.172-0.783,0.022-0.954-0.332    c-1.01-2.08-2.289-3.168-3.484-3.443c-0.527-0.122-1.038-0.083-1.494,0.101c-0.466,0.187-0.886,0.525-1.224,0.997    c-0.837,1.173-1.163,3.133-0.486,5.663c0.092,0.345-0.086,0.712-0.425,0.848c-0.365,0.146-0.782-0.031-0.929-0.396    c-0.648-1.604-1.349-2.41-2.008-2.645c-0.296-0.105-0.592-0.08-0.869,0.043c-0.329,0.147-0.645,0.429-0.927,0.809    c-0.807,1.086-1.275,2.863-1.014,4.64c0.023,0.114,0.043,0.232,0.061,0.353c0.055,0.392-0.216,0.754-0.607,0.81    c-0.378,0.054-0.73-0.199-0.802-0.57c-0.024-0.12-0.044-0.24-0.063-0.359c-0.201-0.972-0.64-1.521-1.159-1.707    c-0.261-0.094-0.554-0.101-0.852-0.028c-0.33,0.08-0.667,0.254-0.984,0.515c-1.053,0.866-1.838,2.625-1.527,5.035    c0.062,0.382-0.191,0.745-0.574,0.816c-0.387,0.072-0.761-0.183-0.833-0.57c-0.244-1.297-1.068-2.096-1.948-2.353    c-0.388-0.111-0.783-0.118-1.138-0.015c-0.335,0.099-0.636,0.301-0.856,0.61c-0.546,0.768-0.638,2.179,0.261,4.323l0.002,0.008    c0.147,0.366-0.031,0.783-0.397,0.93c-0.611,0.245-1.15,0.526-1.619,0.837c-1.101,0.729-1.798,1.62-2.104,2.593    c-0.305,0.966-0.231,2.031,0.206,3.118c0.174,0.433,0.408,0.873,0.699,1.313c0.181,0.271,0.156,0.641-0.078,0.886    c-0.272,0.286-0.724,0.298-1.011,0.025c-0.879-0.838-1.823-0.973-2.547-0.692c-0.337,0.13-0.63,0.352-0.845,0.632    c-0.212,0.273-0.347,0.605-0.376,0.966c-0.066,0.818,0.419,1.801,1.793,2.657c0.225,0.141,0.365,0.403,0.333,0.686    c-0.042,0.392-0.397,0.675-0.789,0.633c-0.763-0.085-1.556,0.425-2.042,1.162c-0.209,0.32-0.359,0.681-0.42,1.053    c-0.058,0.357-0.035,0.725,0.096,1.073c0.323,0.866,1.303,1.671,3.302,2.082c0.35,0.056,0.613,0.365,0.6,0.73    c-0.014,0.393-0.344,0.7-0.738,0.688c-1.085-0.04-2.047,0.498-2.599,1.245c-0.228,0.308-0.382,0.65-0.441,0.998    c-0.055,0.323-0.025,0.653,0.111,0.961c0.293,0.665,1.078,1.269,2.539,1.604c0.378,0.067,0.636,0.422,0.583,0.805    c-0.056,0.391-0.418,0.662-0.809,0.607c-0.897-0.131-1.543,0.051-1.915,0.391c-0.164,0.148-0.273,0.328-0.327,0.522    c-0.053,0.2-0.05,0.421,0.015,0.642c0.145,0.498,0.591,1.003,1.373,1.364l0.135,0.06c0.359,0.165,0.515,0.591,0.351,0.948    c-0.166,0.358-0.59,0.516-0.948,0.35l-0.09-0.039c-0.616-0.261-1.132-0.23-1.498-0.02c-0.197,0.113-0.358,0.28-0.471,0.481    c-0.122,0.216-0.191,0.469-0.199,0.735c-0.017,0.594,0.261,1.268,0.928,1.84l0.166,0.134c0.298,0.259,0.331,0.709,0.073,1.008    c-0.252,0.291-0.689,0.329-0.987,0.09l-0.135-0.109c-0.573-0.426-1.299-0.474-1.942-0.245c-0.34,0.121-0.657,0.318-0.916,0.577    c-0.255,0.255-0.454,0.568-0.565,0.928c-0.252,0.817-0.053,1.893,0.95,3.097c0.157,0.177,0.224,0.428,0.154,0.672    c-0.107,0.38-0.504,0.601-0.883,0.492c-0.762-0.219-1.445,0.051-1.855,0.535c-0.173,0.202-0.298,0.444-0.363,0.7    c-0.063,0.255-0.068,0.526,0,0.79c0.191,0.748,0.961,1.496,2.589,1.902c0.25,0.052,0.466,0.234,0.543,0.497    c0.113,0.378-0.104,0.776-0.481,0.89c-1.108,0.334-1.699,1.151-1.813,1.999c-0.045,0.346-0.016,0.696,0.089,1.021    c0.103,0.316,0.277,0.609,0.52,0.849c0.617,0.605,1.704,0.87,3.248,0.351l0.065-0.022c0.373-0.125,0.777,0.077,0.903,0.451    c0.125,0.373-0.076,0.777-0.45,0.903c-0.671,0.226-1.042,0.796-1.108,1.394c-0.028,0.247-0.004,0.499,0.071,0.734    c0.072,0.229,0.191,0.438,0.356,0.609c0.436,0.447,1.226,0.658,2.4,0.313c0.303-0.099,0.646,0.016,0.825,0.297    c0.211,0.334,0.113,0.776-0.221,0.987c-0.821,0.521-1.161,1.121-1.144,1.652l0.001,0.003c0.009,0.235,0.088,0.465,0.227,0.671    c0.149,0.221,0.366,0.417,0.639,0.568c0.819,0.455,2.096,0.5,3.549-0.281c0.289-0.153,0.656-0.096,0.879,0.162    c0.257,0.299,0.225,0.75-0.073,1.008c-1.275,1.098,0.649,2.672,0.89,2.86c0.268,0.187,0.381,0.54,0.252,0.854    c-0.148,0.366-0.565,0.543-0.931,0.395c-1.149-0.466-2.504-0.404-3.467,0.019c-0.349,0.153-0.636,0.352-0.822,0.583    c-0.149,0.187-0.231,0.401-0.216,0.633c0.028,0.436,0.347,0.97,1.076,1.591c0.295,0.224,0.372,0.643,0.167,0.958    c-0.214,0.33-0.657,0.425-0.987,0.209c-1.525-0.986-3.061-0.986-4.079-0.463c-0.414,0.211-0.732,0.507-0.913,0.848    c-0.165,0.314-0.213,0.678-0.106,1.057c0.262,0.936,1.385,1.974,3.8,2.802c0.366,0.113,0.581,0.496,0.48,0.87    c-0.102,0.381-0.493,0.607-0.875,0.506c-1.564-0.42-2.689-0.076-3.295,0.582c-0.282,0.308-0.455,0.683-0.505,1.074    c-0.05,0.395,0.021,0.81,0.225,1.191c0.467,0.872,1.618,1.585,3.592,1.622c0.343-0.016,0.659,0.219,0.732,0.565    c0.082,0.386-0.165,0.766-0.551,0.848c-1.932,0.411-3.01,1.376-3.34,2.363c-0.135,0.401-0.141,0.805-0.026,1.167    c0.113,0.355,0.346,0.676,0.69,0.915c0.881,0.611,2.452,0.733,4.654-0.191c0.327-0.158,0.728-0.046,0.92,0.27    c0.206,0.337,0.099,0.776-0.238,0.982c-1.218,0.743-1.655,1.641-1.577,2.427c0.055,0.547,0.355,1.058,0.808,1.433    c0.47,0.388,1.099,0.625,1.796,0.609c1.31-0.03,2.861-0.958,4.117-3.428c0.159-0.335,0.554-0.495,0.905-0.357    c0.367,0.143,0.548,0.558,0.405,0.926c-0.354,0.896,0.075,2.122,0.909,2.977c0.344,0.353,0.753,0.635,1.202,0.8    c0.432,0.157,0.908,0.205,1.401,0.098c1.312-0.288,2.771-1.66,4.02-4.886c0.086-0.253,0.158-0.434,0.192-0.517l0.021-0.053    c0.15-0.365,0.567-0.539,0.932-0.389c0.354,0.145,0.529,0.543,0.401,0.899c-0.079,0.23-0.163,0.45-0.247,0.664    c-0.39,1.166-0.991,3.605,0.463,4.418c1.371,0.765,3.744-2.874,4.906-4.857c0.328-0.773,0.743-1.313,0.746-1.317    c0.24-0.314,0.689-0.373,1.002-0.135c0.283,0.218,0.36,0.605,0.195,0.907c-0.028,0.054-0.246,0.466-0.603,1.064    c-0.357,0.885-0.5,2.153,1.129,2.832c2.399,1.001,4.901-3.336,5.677-4.825c0.149-0.325,0.261-0.523,0.262-0.526    c0.191-0.346,0.627-0.469,0.971-0.277c0.339,0.188,0.465,0.614,0.285,0.956c-0.028,0.058-0.104,0.215-0.222,0.441    c-0.491,1.068-1.465,3.773,1.246,3.898c3.692,0.171,5.059-5.027,5.215-5.675l0.016-0.066l1.393,0.318l-0.012,0.051    c-0.09,0.41-0.613,3.215,2.083,2.927c3.07-0.328,2.532-5.088,2.485-5.465c-0.059-0.341,0.138-0.683,0.476-0.798    c0.374-0.126,0.779,0.074,0.906,0.448c0.004,0.012,1.393,4.134,3.315,2.793c1.557-1.086,1.256-3.449,0.924-4.804    c-0.238-0.622-0.333-1.107-0.334-1.111c-0.08-0.387,0.167-0.765,0.553-0.845c0.362-0.076,0.718,0.139,0.827,0.482    c0.038,0.104,0.159,0.446,0.285,0.939c0.399,0.999,1.3,2.364,3.037,1.203c1.583-1.059,2.039-2.331,2.118-3.293    c-0.203-0.497-0.281-1.095-0.197-1.793c0.047-0.393,0.403-0.673,0.795-0.627c0.297,0.035,0.53,0.249,0.606,0.52    c0.056,0.176,0.228,0.769,0.23,1.572c0.051,0.08,0.109,0.153,0.173,0.217c0.225,0.222,0.54,0.363,0.904,0.425    c0.404,0.069,0.864,0.041,1.332-0.078c1.111-0.283,2.231-1.072,2.784-2.295c0.122-0.287,0.425-0.471,0.75-0.428    c0.391,0.05,0.666,0.408,0.616,0.799c-0.079,0.587,0.12,1.132,0.477,1.576c0.319,0.398,0.76,0.719,1.246,0.927    c0.482,0.207,1.004,0.302,1.486,0.248c0.493-0.053,0.949-0.27,1.27-0.689c0.195-0.256,0.545-0.355,0.853-0.221    c0.361,0.157,0.527,0.578,0.369,0.939c-0.464,1.059-0.282,2.071,0.246,2.732c0.207,0.258,0.467,0.465,0.757,0.594    c0.287,0.128,0.61,0.187,0.946,0.154c0.945-0.091,2.025-0.881,2.912-2.745c0.16-0.332,0.552-0.492,0.903-0.356    c0.368,0.142,0.55,0.555,0.408,0.922c-0.279,0.724-0.301,1.395-0.1,1.916c0.082,0.212,0.201,0.4,0.356,0.556    c0.155,0.156,0.348,0.283,0.575,0.37c0.607,0.234,1.456,0.209,2.51-0.198c0.242-0.092,0.527-0.049,0.732,0.135    c0.294,0.263,0.318,0.713,0.056,1.007c-0.545,0.609-0.738,1.363-0.632,1.988c0.044,0.257,0.142,0.488,0.288,0.668    c0.132,0.164,0.31,0.288,0.527,0.349c0.504,0.142,1.23-0.014,2.172-0.645c0.192-0.129,0.445-0.161,0.674-0.064    c0.363,0.153,0.534,0.571,0.381,0.935c-0.718,1.694-0.47,3.051,0.261,3.925c0.314,0.375,0.712,0.665,1.157,0.859    c0.456,0.197,0.963,0.297,1.483,0.285c1.32-0.03,2.715-0.796,3.55-2.511c0.118-0.243,0.371-0.408,0.66-0.402    c0.394,0.01,0.706,0.336,0.696,0.729c-0.036,1.431,0.561,2.562,1.449,3.255c0.484,0.377,1.055,0.627,1.657,0.726    c0.6,0.098,1.231,0.046,1.834-0.18c1.169-0.438,2.251-1.534,2.868-3.454c0.087-0.3,0.364-0.518,0.692-0.516    c0.394,0.004,0.71,0.325,0.708,0.719c-0.019,1.642,0.616,2.761,1.51,3.338c0.422,0.271,0.905,0.426,1.401,0.458    c0.506,0.034,1.031-0.059,1.529-0.277c1.178-0.52,2.207-1.761,2.537-3.779c0.054-0.331,0.337-0.589,0.686-0.599    c0.394-0.01,0.723,0.3,0.732,0.694c0.036,1.303,0.472,2.055,1.03,2.342c0.226,0.117,0.479,0.157,0.733,0.128    c0.272-0.032,0.547-0.145,0.798-0.329c0.71-0.521,1.218-1.606,1.025-3.153c-0.046-0.389,0.229-0.744,0.618-0.795    c0.391-0.051,0.749,0.226,0.8,0.616l0.01,0.073c0.186,1.219,0.928,1.912,1.805,2.14c0.414,0.107,0.864,0.118,1.304,0.036    c0.438-0.082,0.868-0.258,1.249-0.522c0.928-0.645,1.535-1.839,1.203-3.505c-0.079-0.344,0.107-0.701,0.446-0.827    c0.37-0.138,0.781,0.05,0.918,0.42c0.605,1.612,1.638,2.395,2.665,2.536c0.416,0.057,0.837,0.01,1.227-0.129    c0.392-0.139,0.754-0.37,1.053-0.68c0.767-0.794,1.136-2.118,0.609-3.781c-0.097-0.31,0.026-0.658,0.318-0.831    c0.34-0.201,0.779-0.088,0.979,0.252c0.566,0.957,1.213,1.514,1.823,1.713c0.321,0.105,0.632,0.106,0.908,0.01    c0.284-0.098,0.546-0.304,0.766-0.61c0.458-0.639,0.709-1.676,0.59-3.069c-0.027-0.336,0.187-0.653,0.523-0.746    c0.379-0.105,0.773,0.117,0.878,0.497c0.57,2.057,1.388,3.056,2.172,3.317c0.317,0.105,0.634,0.077,0.917-0.056    c0.315-0.147,0.6-0.425,0.822-0.796c0.577-0.972,0.682-2.517-0.207-4.157c-0.108-0.189-0.129-0.425-0.036-0.641    c0.157-0.361,0.578-0.526,0.939-0.369c1.436,0.63,2.768,0.541,3.662,0.007c0.372-0.223,0.665-0.523,0.852-0.877    c0.184-0.351,0.266-0.762,0.22-1.209c-0.117-1.138-1.033-2.51-3.125-3.841c-0.251-0.135-0.408-0.415-0.371-0.718    c0.048-0.392,0.406-0.671,0.797-0.623c2.051,0.254,3.231-0.231,3.773-1.063c0.445-0.687,0.499-1.64,0.271-2.63    c-0.244-1.058-0.803-2.134-1.557-2.988c-1.141-1.293-2.728-2.059-4.28-1.364c-0.303,0.135-0.668,0.044-0.869-0.235    c-0.231-0.319-0.158-0.766,0.162-0.995c0.477-0.342,0.796-0.725,0.985-1.127c0.27-0.575,0.286-1.222,0.125-1.887    c-0.175-0.723-0.556-1.463-1.054-2.156c-0.771-1.075-1.811-2.026-2.818-2.646c-0.458-0.226-0.742-0.403-0.746-0.406    c-0.335-0.203-0.444-0.642-0.24-0.979c0.19-0.314,0.585-0.43,0.912-0.276c0.251,0.117,0.506,0.256,0.764,0.411    c1.273,0.616,3.918,1.551,4.759-0.81c0.972-2.725-0.926-3.984-2.114-4.773c-0.304-0.201-0.571-0.379-0.792-0.572    c-0.242-0.182-0.349-0.507-0.244-0.808c0.131-0.372,0.54-0.567,0.913-0.438c1.509,0.537,2.645,0.604,3.421,0.348    c0.431-0.144,0.743-0.392,0.935-0.713c0.201-0.337,0.284-0.773,0.249-1.271c-0.072-1.034-0.646-2.276-1.719-3.471    c-0.244-0.271-0.246-0.688,0.005-0.962c0.267-0.29,0.72-0.31,1.01-0.043c1.425,1.316,2.717,1.628,3.611,1.361    c0.426-0.128,0.757-0.387,0.95-0.725c0.197-0.341,0.262-0.771,0.154-1.235c-0.241-1.04-1.313-2.206-3.604-3.014    c-0.363-0.104-0.584-0.476-0.497-0.849c0.089-0.385,0.474-0.624,0.859-0.535c1.366,0.322,2.437,0.129,3.165-0.354    c0.409-0.272,0.712-0.638,0.898-1.053c0.188-0.415,0.256-0.888,0.197-1.369c-0.1-0.824-0.58-1.675-1.496-2.342    c-0.215-0.124-0.359-0.356-0.359-0.621c0-0.396,0.32-0.716,0.716-0.716c1.885,0,3.008-0.679,3.514-1.604    c0.228-0.417,0.338-0.889,0.344-1.371c0.005-0.497-0.104-1.011-0.311-1.496c-0.521-1.217-1.675-2.231-3.262-2.353    c-0.153-0.013-0.303-0.071-0.425-0.182c-0.293-0.265-0.317-0.717-0.053-1.01c1.033-1.146,1.351-2.192,1.205-3.039    c-0.079-0.461-0.296-0.869-0.607-1.206c-0.327-0.353-0.759-0.633-1.25-0.814c-1.058-0.394-2.373-0.329-3.505,0.402    c-0.235,0.15-0.547,0.156-0.791-0.011c-0.326-0.223-0.41-0.668-0.188-0.993c0.532-0.78,0.668-1.581,0.502-2.285    c-0.121-0.516-0.405-0.99-0.814-1.375c-0.424-0.398-0.982-0.703-1.635-0.865c-1.234-0.306-2.803-0.101-4.467,0.922    c-0.093,0.057-0.2,0.095-0.317,0.104c-0.394,0.032-0.739-0.261-0.771-0.654c-0.058-0.705-0.206-1.223-0.422-1.585    c-0.299-0.501-0.768-0.709-1.323-0.721c-0.682-0.013-1.502,0.239-2.347,0.63c-1.939,0.896-3.916,2.482-4.819,3.392    c-0.239,0.266-0.643,0.316-0.943,0.105c-0.323-0.227-0.4-0.673-0.173-0.995c0.67-0.953,0.929-1.868,0.857-2.589    c-0.034-0.345-0.146-0.64-0.324-0.858c-0.167-0.205-0.402-0.352-0.694-0.418c-0.529-0.121-1.241,0.003-2.099,0.464    c-0.261,0.138-0.593,0.105-0.822-0.107c-0.289-0.266-0.306-0.717-0.04-1.006c0.914-0.987,1.348-1.902,1.373-2.609    c0.01-0.291-0.054-0.535-0.187-0.719c-0.129-0.18-0.339-0.315-0.623-0.393c-0.682-0.186-1.703-0.043-3.014,0.564    c-0.188,0.103-0.421,0.121-0.632,0.028c-0.361-0.159-0.525-0.582-0.366-0.943c0.603-1.37,0.866-2.422,0.848-3.19    c-0.012-0.505-0.152-0.863-0.395-1.089c-0.257-0.238-0.657-0.367-1.172-0.397c-0.955-0.055-2.226,0.222-3.693,0.771    c-0.215,0.08-0.465,0.055-0.665-0.09c-0.319-0.229-0.393-0.676-0.163-0.995c0.712-0.99,0.931-1.912,0.78-2.572    c-0.055-0.244-0.164-0.443-0.314-0.582c-0.147-0.135-0.349-0.222-0.593-0.245c-0.671-0.066-1.615,0.302-2.744,1.308    c-0.235,0.207-0.588,0.243-0.863,0.063c-0.332-0.214-0.425-0.657-0.212-0.986c1.153-1.778,1.565-3.134,1.443-3.991    c-0.04-0.28-0.143-0.485-0.296-0.604c-0.161-0.127-0.404-0.187-0.71-0.172c-0.953,0.049-2.321,0.753-3.878,2.243    c-0.175,0.169-0.433,0.244-0.685,0.174c-0.38-0.105-0.603-0.498-0.499-0.878c0.435-1.562,0.192-2.716-0.388-3.411    c-0.252-0.303-0.573-0.521-0.927-0.645c-0.361-0.129-0.76-0.162-1.162-0.096c-0.948,0.155-1.923,0.865-2.544,2.21    c-0.135,0.313-0.48,0.494-0.824,0.411c-0.383-0.093-0.618-0.479-0.525-0.861c0.249-1.029,0.01-1.913-0.496-2.454    c-0.224-0.24-0.503-0.413-0.813-0.498c-0.312-0.086-0.665-0.084-1.037,0.026c-1.029,0.308-2.165,1.409-3.052,3.671    c-0.107,0.32-0.429,0.529-0.777,0.481c-0.39-0.054-0.663-0.415-0.61-0.806c0.221-1.56,0.109-2.608-0.208-3.26    c-0.179-0.366-0.424-0.588-0.705-0.691c-0.308-0.113-0.682-0.105-1.081-0.003c-0.815,0.207-1.682,0.786-2.347,1.545    c-0.202,0.267-0.572,0.364-0.884,0.211c-0.355-0.172-0.503-0.601-0.33-0.956c0.704-1.441,0.846-2.615,0.599-3.429    c-0.111-0.372-0.306-0.659-0.56-0.849c-0.258-0.191-0.59-0.296-0.972-0.298c-0.808-0.006-1.82,0.418-2.883,1.371l-0.118,0.105    c-0.298,0.258-0.749,0.227-1.007-0.072c-0.252-0.293-0.226-0.733,0.057-0.992l0.117-0.108c0.63-0.614,0.692-1.394,0.424-2.087    c-0.123-0.316-0.312-0.621-0.547-0.889c-0.237-0.27-0.519-0.503-0.825-0.677c-0.736-0.418-1.626-0.481-2.349,0.141    c-0.18,0.151-0.429,0.214-0.671,0.142c-0.379-0.112-0.594-0.511-0.482-0.889c0.494-1.64-0.022-3.009-0.932-3.84    c-0.347-0.315-0.748-0.556-1.167-0.702c-0.414-0.146-0.848-0.203-1.267-0.158c-0.941,0.1-1.836,0.746-2.306,2.109    c-0.1,0.322-0.417,0.537-0.764,0.498c-0.392-0.045-0.674-0.399-0.629-0.792c0.13-1.102-0.37-1.863-1.104-2.252    c-0.426-0.225-0.932-0.336-1.443-0.327c-0.514,0.009-1.037,0.141-1.499,0.398c-0.939,0.528-1.619,1.62-1.441,3.345    c0.044,0.285-0.091,0.581-0.358,0.731c-0.345,0.193-0.781,0.071-0.973-0.273c-0.566-1.011-1.566-1.411-2.514-1.313    c-0.414,0.043-0.821,0.181-1.179,0.403c-0.351,0.218-0.654,0.52-0.87,0.896c-0.557,0.976-0.532,2.47,0.702,4.372    c0.208,0.31,0.142,0.731-0.157,0.963c-0.312,0.24-0.761,0.184-1.002-0.128c-0.424-0.547-1.02-0.784-1.615-0.76h-0.005    c-0.366,0.016-0.734,0.128-1.064,0.326c-0.333,0.199-0.627,0.486-0.843,0.85c-0.437,0.734-0.554,1.788-0.048,3.087    c0.123,0.322-0.002,0.697-0.311,0.874c-0.341,0.196-0.777,0.079-0.973-0.263c-0.539-0.935-1.125-1.404-1.654-1.525    c-0.241-0.056-0.468-0.034-0.668,0.047C128.707,38.893,128.516,39.051,128.36,39.264z" id="path4"/>
		<path style="fill-rule:evenodd;clip-rule:evenodd;fill:#272828;" d="M145.019,176.997c0.608-7.063-1.759-13.452-6.519-18.457    c-0.15-0.156-0.4,0.004-0.35,0.211c0.234,0.979,0.648,1.528,1.273,2.293c1.079,1.323,1.903,2.731,2.666,4.268    c1.714,3.454,2.547,7.836,2.716,11.686C144.812,177.14,145.006,177.136,145.019,176.997z" id="path5"/>
		<path style="fill-rule:evenodd;clip-rule:evenodd;fill:#272828;" d="M145.165,181.664c-0.182,0.597-0.318,1.196-0.438,1.809    c-0.098,0.499-0.294,1.054-0.04,1.524c0.082,0.154,0.294,0.177,0.411,0.055c0.329-0.337,0.303-0.801,0.349-1.254    c0.065-0.662,0.155-1.322,0.264-1.978C145.771,181.453,145.276,181.298,145.165,181.664z" id="path6"/>
		<path style="fill-rule:evenodd;clip-rule:evenodd;fill:#272828;" d="M210.638,103.126c1.381,1.284,3.211,3.758,2.271,5.785    c-0.386,0.832-1.291,1.227-2.105,1.415c-0.964,0.225-1.579-0.395-2.448-0.53c-0.141-0.021-0.288,0.059-0.286,0.225    c0.016,0.967,1.167,1.519,1.994,1.569c1.319,0.08,2.53-0.431,3.43-1.428c2.29-2.537-0.546-5.932-2.598-7.383    C210.696,102.638,210.458,102.959,210.638,103.126z" id="path7"/>
		<path style="fill-rule:evenodd;clip-rule:evenodd;fill:#272828;" d="M207.77,109.806c-0.706,1.687-1.858,3.397-3.787,3.562    c-1.579,0.134-2.501-1.582-3.763-2.196c-0.354-0.172-0.691,0.173-0.521,0.539c0.756,1.643,3.029,3.307,4.869,2.844    c1.981-0.498,4.024-2.422,3.479-4.712C208.019,109.72,207.825,109.678,207.77,109.806z" id="path8"/>
		<path style="fill-rule:evenodd;clip-rule:evenodd;fill:#272828;" d="M199.794,111.445c-0.573,1.849-2.66-0.243-3.458-0.813    c-0.142-0.101-0.343,0.033-0.339,0.201c0.024,1.206,1.212,2.026,2.218,2.351c1.243,0.4,1.95-0.505,2.055-1.673    C200.295,111.219,199.874,111.189,199.794,111.445z" id="path9"/>
		<path style="fill-rule:evenodd;clip-rule:evenodd;fill:#272828;" d="M202.566,66.287c-1.656-0.459-2.631,1.162-2.859,2.575    c-0.384-0.27-0.852-0.491-1.314-0.554c-0.846-0.114-1.738,0.016-2.413,0.614c-1.05,0.93-1.89,2.67-1.356,4.001    c-2.179-0.203-4.408,1.506-3.477,3.981c0.142,0.377,0.722,0.352,0.717-0.101c-0.026-2.792,1.678-2.845,3.703-2.861    c0.208-0.002,0.378-0.178,0.38-0.393c0.008-1.631-0.429-2.882,1.162-4.024c1.165-0.838,2.044,0.566,3.021,0.834    c0.399,0.109,0.747-0.198,0.77-0.605c0.214-3.712,3.686-2.038,4.34,0.454c0.06,0.229,0.382,0.132,0.34-0.097    C205.245,68.315,204.349,66.781,202.566,66.287z" id="path10"/>
		<path style="fill-rule:evenodd;clip-rule:evenodd;fill:#272828;" d="M183.665,119.104c-0.176,1.728-0.956,4.487-3.299,4.069    c-1.646-0.295-1.28-1.731-2.363-1.93c-0.297-0.054-0.632,0.078-0.706,0.415c-0.103,0.791-0.397,1.508-0.881,2.15    c-0.961,1.21-2.803-0.504-3.407-1.058c-0.263-0.239-0.727-0.238-0.903,0.12c-1.627,3.318-3.639,1.701-5.39-0.262    c-0.268-0.301-0.788,0.01-0.665,0.399c1.185,3.789,4.804,4.054,6.679,1.125c0.991,0.945,2.09,1.555,3.53,1.293    c0.417-0.075,0.921-0.475,1.17-0.81c0.265-0.357,0.516-0.704,0.644-1.145c0.276-0.952-0.089-0.716,0.648,0.008    c3.092,3.03,5.538-1.617,5.387-4.377C184.092,118.804,183.695,118.814,183.665,119.104z" id="path11"/>
		<path style="fill-rule:evenodd;clip-rule:evenodd;fill:#272828;" d="M135.965,112.868c-0.167,1.479-0.589,3.276-1.804,4.226    c-1.604,1.253-2.995-1.581-3.501-2.596c-0.165-0.331-0.735-0.365-0.889,0c-1.059,2.515-3.835,2.6-5.393,0.523    c-0.293-0.389-0.786-0.918-1.338-0.682c-0.759,0.325-1.265,0.836-1.853,1.426c-2.993,3.004-3.639-2.347-3.771-4.119    c-0.039-0.543-0.708-0.62-0.894-0.124c-1.098,2.933,1.833,8.596,5.073,5.521c1.226-1.163,2.119-1.985,3.317-0.264    c0.315,0.454,0.832,1.074,1.391,1.233c1.76,0.5,3.274-0.806,4.066-2.32c1.163,1.361,2.027,3.064,4.114,2.19    c1.714-0.72,1.927-3.428,2.056-5.015C136.571,112.482,136.007,112.495,135.965,112.868z" id="path12"/>
		<path style="fill-rule:evenodd;clip-rule:evenodd;fill:#272828;" d="M112.162,106.348c-1.284,0.404-2.395-0.204-2.564-1.616    c-0.034-0.273-0.207-0.539-0.509-0.524c-0.851,0.037-1.812,0.129-2.6-0.272c-0.891-0.455-0.587-1.963-0.801-2.806    c-0.066-0.258-0.386-0.272-0.517-0.069c-0.712,1.09-0.66,2.64,0.276,3.587c0.166,0.168,0.367,0.287,0.58,0.384    c0.009,0.004,0.018,0.009,0.027,0.013c0.784,0.346,1.808,0.292,2.642,0.239c0.449,1.782,1.843,2.396,3.619,1.63    C112.638,106.772,112.521,106.236,112.162,106.348z" id="path13"/>
		<path style="fill-rule:evenodd;clip-rule:evenodd;fill:#272828;" d="M90.989,119.996c-1.431-1.423-2.887-3.371-5.059-2.747    c-1.446,0.415-2.063,1.919-1.713,3.218c-0.932,0.234-1.675,0.76-1.64,1.976c0.036,1.186,1.005,2.938,1.892,3.658    c0.377,0.307,0.913,0.032,0.808-0.487c-0.265-1.328-2.954-3.9-0.072-3.925c0.614-0.005,0.834-0.729,0.47-1.173    c-0.378-1.454,0.128-2.146,1.518-2.078c0.648,0.135,1.219,0.784,1.679,1.229c0.563,0.547,1.067,1.146,1.664,1.656    c0.254,0.218,0.639,0.278,0.886,0c0.913-1.025,1.856-1.337,2.515,0.2c0.103,0.243,0.47,0.067,0.405-0.176    C93.794,119.309,92.423,118.813,90.989,119.996z" id="path14"/>
		<path style="fill-rule:evenodd;clip-rule:evenodd;fill:#272828;" d="M117.284,74.982c-0.176-0.328-0.717-0.192-0.696,0.194    c0.096,1.719,0.301,3.693-1.907,3.74c-1.765,0.036-3.326-1.431-4.042-2.959c-0.081-0.172-0.316-0.315-0.502-0.297    c-0.043,0.005-0.087,0.009-0.131,0.014c-0.248,0.025-0.485,0.159-0.548,0.431c-0.446,1.948-2.124,2.722-3.593,1.477    c-0.962-0.813-1.296-2.171-1.504-3.368c-0.078-0.454-0.625-0.492-0.908-0.249c-2.263,1.146-3.375,0.458-3.336-2.068    c0.2-0.732,0.463-1.441,0.787-2.126c0.146-0.36-0.012-0.896-0.479-0.861c-2.709,0.201-4.699-1.613-2.815-4.298    c0.192-0.273,0.005-0.766-0.322-0.82c-1.578-0.26-1.494-1.94-0.741-3.058c0.813-1.206,0.862-2.117,2.828-1.963    c0.302,0.023,0.349-0.452,0.07-0.533c-3.465-1.005-6.41,4.438-3.128,6.32c-1.803,2.865,0.07,5.346,3.17,5.509    c-0.783,1.597-1.315,3.47,0.075,4.906c1.094,1.129,2.575,0.895,3.836,0.272c0.347,1.955,1.511,4.24,3.605,4.32    c1.011,0.038,1.706-0.412,2.388-1.157c0.596-0.65,0.62-0.905,0.369-1.529c0.225,0.558,0.586,1.016,0.96,1.47    C113.579,81.817,119.932,79.931,117.284,74.982z" id="path15"/>
		<path style="fill-rule:evenodd;clip-rule:evenodd;fill:#272828;" d="M175.725,62.053c-0.113-0.125-0.335,0.045-0.233,0.185    c1.303,1.781,1.83,4.873-1.333,4.238c-0.341-0.069-0.588,0.203-0.531,0.549c0.169,1.022-0.938,5.032-2.915,2.78    c-0.231-0.264-0.752-0.15-0.812,0.221c-0.279,1.709-0.776,3.288-2.708,3.354c-0.912,0.03-3.073-0.573-3.617-1.364    c-0.116-0.168-0.381-0.257-0.533-0.07c-1.53,1.879-4.557,5.162-5.823,1.228c-0.139-0.435-0.712-0.336-0.749,0.105    c-0.422,5.119,5.23,2.173,6.787-0.058c0.657-0.941,1.531,0.082,2.471,0.493c0.754,0.329,1.47,0.554,2.289,0.568    c1.764,0.033,2.448-1.747,2.722-3.301c2.118,1.058,3.911-1.171,3.791-3.573C177.773,67.631,177.762,64.326,175.725,62.053z" id="path16"/>
		<path style="fill-rule:evenodd;clip-rule:evenodd;fill:#272828;" d="M141.44,70.234c-1.71,1.839-3.225,1.326-4.557-0.567    c-0.175-0.25-0.44-0.276-0.671-0.09c-2.108,1.704-3.126,0.544-4.729-0.862c-0.221-0.193-0.61-0.016-0.514,0.311    c0.82,2.79,3.522,3.124,5.453,1.536c0.057,0.086,0.117,0.163,0.176,0.242c0.032,0.152,0.122,0.287,0.28,0.347    c1.455,1.649,3.352,1.556,4.946-0.521C142.034,70.354,141.689,69.967,141.44,70.234z" id="path17"/>
		<path style="fill-rule:evenodd;clip-rule:evenodd;fill:#272828;" d="M192.92,97.074c-0.077-0.118-0.28-0.046-0.233,0.102    c-0.262,2.201-1.096,3.102-2.501,2.699c-0.218-0.029-0.431,0.182-0.484,0.382c-0.347,1.285-0.873,2.288-2.169,2.752    c-1.789,0.642-1.403-0.702-2.179-1.086c-0.265-0.132-0.628-0.091-0.775,0.21c-0.432,0.882-0.833,1.645-1.489,2.383    c-1.232,1.389-2.663-0.484-3.32-1.225c-0.26-0.292-0.707-0.12-0.816,0.223c-0.554,1.754-2.919,2.774-4.371,1.905    c-0.06-0.115-0.163-0.199-0.311-0.23c-0.225-0.202-0.421-0.457-0.565-0.784c-0.133-0.304-0.608-0.215-0.675,0.092    c-0.782,3.566,5.029,2.636,6.545,0.053c1.063,1.118,2.266,1.98,3.818,1.231c0.413-0.199,2.183-2.385,1.981-2.548    c0.748,0.604,1.33,0.966,2.303,0.911c2.208-0.125,2.197-3.137,3.938-3.467C193.515,100.321,193.846,98.508,192.92,97.074z" id="path18"/>
		<path style="fill-rule:evenodd;clip-rule:evenodd;fill:#272828;" d="M156.306,97.096c-0.431,1.944-2.523,1.129-3.436,0.613    c-0.194-0.108-0.475-0.061-0.583,0.157c-0.8,1.637-2.291,2.7-3.875,1.082c-0.248-0.253-0.756-0.164-0.826,0.225    c-0.602,3.316-2.969,0.946-3.961-0.025c-0.298-0.292-0.773-0.002-0.679,0.408c0.688,2.958,4.027,2.906,5.261,0.689    c1.584,1.581,3.878,1.644,4.639-1.217c0.258-0.972,3.864,1.448,3.774-1.887C156.615,96.957,156.348,96.909,156.306,97.096z" id="path19"/>
		<path style="fill-rule:evenodd;clip-rule:evenodd;fill:#272828;" d="M147.709,163.932c1.632-1.607,3.414-2.063,5.447-2.876    c1.353-0.543,2.969-1.3,3.89-2.481c0.137-0.176,0.008-0.393-0.204-0.361c-1.978,0.295-3.827,1.905-5.756,2.547    c-1.602,0.533-2.507,1.712-3.546,2.998C147.444,163.878,147.596,164.044,147.709,163.932z" id="path20"/>
		<path style="fill-rule:evenodd;clip-rule:evenodd;fill:#272828;" d="M133.098,154.071c-1.445-1.946-3.179-3.323-5.259-4.494    c-2.14-1.204-4.356-2.636-6.594-3.599c-0.131-0.056-0.229,0.122-0.172,0.23c1.01,1.894,3.166,2.922,4.994,3.776    c2.462,1.152,4.898,2.178,6.721,4.333C132.935,154.49,133.233,154.255,133.098,154.071z" id="path21"/>
		<path style="fill-rule:evenodd;clip-rule:evenodd;fill:#272828;" d="M149.617,157.198c0.666-1.547,1.241-3.232,2.15-4.644    c0.789-1.226,2.102-2.497,2.289-3.984c0.031-0.245-0.282-0.389-0.463-0.274c-1.221,0.773-1.994,2.49-2.621,3.78    c-0.764,1.574-0.894,3.425-1.499,5.06C149.442,157.219,149.58,157.281,149.617,157.198z" id="path22"/>
		<path style="fill-rule:evenodd;clip-rule:evenodd;fill:#272828;" d="M122.641,150.781c-1.782-0.543-3.531-1.083-5.34-1.55    c-1.343-0.348-2.738-0.766-4.047-0.164c-0.131,0.062-0.072,0.245,0.037,0.286c1.375,0.523,2.918,0.764,4.343,1.137    c1.616,0.423,3.328,0.128,4.934,0.568C122.742,151.108,122.814,150.833,122.641,150.781z" id="path23"/>
		<path style="fill-rule:evenodd;clip-rule:evenodd;fill:#272828;" d="M116.835,127.1c-0.727,2.856-3.407,2.085-5.262,0.956    c-0.249-0.151-0.535-0.047-0.689,0.186c-2.256,3.437-2.845,0.747-3.597-0.23c-0.218-0.284-0.46-0.617-0.824-0.721    c-0.437-0.124-0.913,0.05-1.324,0.163c-1.424,0.393-2.582-0.612-2.806-2.014c-0.04-0.254-0.447-0.314-0.547-0.074    c-0.561,1.347-0.057,3.491,1.746,3.474c0.611-0.007,0.641-0.02,1.256-0.186c1.271-0.345,1.819,0.311,2.509,1.26    c0.434,0.595,1.388,0.966,2.09,0.719c0.152-0.054,2.364-1.227,2.065-1.424c0.747,0.489,1.779,0.902,2.662,0.964    c2.011,0.141,3.278-0.891,3.067-3.023C117.162,126.954,116.889,126.889,116.835,127.1z" id="path24"/>
		<path style="fill-rule:evenodd;clip-rule:evenodd;fill:#272828;" d="M97.409,93.318c-1.417,0.077-2.793,0.37-3.349-1.513    c-0.042-0.142-0.174-0.266-0.326-0.256c-0.634,0.038-1.259,0.128-1.891,0.187c-2.331,0.221-1.469-3.467-1.435-4.538    c0.006-0.203-0.164-0.349-0.348-0.358c-0.326-0.017-0.651-0.033-0.976-0.052c-0.555-0.03-1.077-0.333-1.445-0.752    c-0.021-0.03-0.045-0.056-0.073-0.081c-0.614-0.766-0.716-1.872,0.394-2.49c0.179-0.099,0.051-0.364-0.133-0.325    c-1.328,0.287-1.616,1.662-1.444,2.906c0.213,1.56,1.976,1.636,3.212,1.55c-0.577,2.415-0.481,6.047,2.863,5.181    c0.785-0.204,0.807-0.493,1.263,0.312c0.28,0.495,0.697,0.777,1.171,1.032c0.921,0.493,1.95,0.249,2.66-0.449    C97.674,93.55,97.584,93.308,97.409,93.318z" id="path25"/>
		<path style="fill-rule:evenodd;clip-rule:evenodd;fill:#272828;" d="M204.998,123.671c-0.04-0.087-0.183-0.024-0.149,0.065    c-0.099,0.93,0.068,3.347-2.193,1.601c-0.226-0.228-0.628-0.189-0.784,0.105c-0.722,1.353-1.627,2.097-2.629,2.04    c-0.068-0.039-0.145-0.066-0.242-0.066c-0.034,0-0.059,0.013-0.089,0.018c-0.581-0.134-1.189-0.529-1.811-1.237    c-0.31-0.354-0.791-0.121-0.935,0.255c-0.662,1.727-2.883,2.383-3.986,0.649c-0.226-0.354-0.828-0.242-0.81,0.228    c0.124,3.272,3.941,2.073,5.424,0.186c2.009,1.87,4.295,1.411,5.675-1.038C204.469,127.838,206.131,126.147,204.998,123.671z" id="path26"/>
	</g></svg>