<svg version="1.1" x="0px" y="0px" viewBox="248.4630253623476 51.98733459064672 149.1331944608686 177.260540497052" style="enable-background:new 0 0 750 500;" xml:space="preserve" id="svg383" sodipodi:docname="simpletrees.svg" inkscape:version="1.4.2 (f4327f4, 2025-05-13)" xmlns:inkscape="http://www.inkscape.org/namespaces/inkscape" xmlns:sodipodi="http://sodipodi.sourceforge.net/DTD/sodipodi-0.dtd" xmlns="http://www.w3.org/2000/svg" xmlns:svg="http://www.w3.org/2000/svg"><defs id="defs383"/><g id="g383">
		<path style="fill-rule:evenodd;clip-rule:evenodd;fill:#FFFFFF;" d="M334.578,149.442c0,0,1.111,8.383-4.445,11.009    c-5.555,2.627-1.516,10.606-4.949,12.122c-6.799,2.999-9.559,43.547-4.35,53.521c-3.473,4.692-6.034,2.282-9.898,1.212    c-1.313-5.151,0.579-39.784,1.992-43.016c1.414-3.232-0.038-10.499-0.169-15.051c-0.131-4.551-14.343-15.454-14.142-22.222    c0.203-6.769,2.576-2.88,2.779,0.049c0.202,2.93,3.484,6.92,6.768,9.85c3.282,2.93,6.262,7.423,6.919,9.444    c0.656,2.02,1.969,10,1.969,10s5-4.496,4.192-7.778c-0.808-3.282-6.061-7.121-6.515-12.828    c-0.455-5.707,1.223-25.117,0.364-25.976c-0.859-0.859,2.776-3.334,3.029,1.465c0.086,1.627,0.853,6.232,0.763,9.605    c-0.021,0.804,19.685-9.425,20.685-18.455c2.149,17.502-26.098,17.754-20.311,34.914c1.515,3.434,4.105,5.668,4.105,6.73    c0,1.06,1.466-5.96,4.445-6.666c2.979-0.708,4.293-5.305,4.293-7.829C332.102,147.016,334.527,147.267,334.578,149.442z" id="path355"/>
		<path style="fill-rule:evenodd;clip-rule:evenodd;fill:#272828;" d="M335.29,149.382c0.071,0.59,0.97,8.963-4.852,11.714    c-2.715,1.284-2.81,4.198-2.894,6.746c-0.079,2.403-0.149,4.537-2.071,5.385l-0.134,0.065c-3.026,1.649-5.205,11.878-6.086,23.053    c-0.893,11.331-0.395,23.547,1.947,28.854c0.095,0.217,0.186,0.406,0.268,0.564c0.131,0.251,0.098,0.542-0.059,0.755    c-3.108,4.201-5.533,3.306-8.572,2.183c-0.67-0.248-1.374-0.508-2.09-0.706c-0.256-0.071-0.44-0.272-0.501-0.513    c-0.642-2.512-0.549-11.684-0.119-20.963c0.476-10.27,1.374-20.741,2.148-22.515c0.917-2.095,0.51-6.246,0.136-10.063    c-0.165-1.677-0.324-3.291-0.364-4.682c-0.05-1.757-2.783-4.921-5.796-8.41c-3.996-4.627-8.465-9.8-8.344-13.852    c0.063-2.11,0.354-3.306,0.74-3.864c0.347-0.502,0.779-0.661,1.254-0.557h0.003c0.356,0.078,0.683,0.329,0.965,0.7    c0.608,0.799,1.147,2.374,1.241,3.742c0.083,1.202,0.771,2.644,1.787,4.123c1.254,1.823,2.997,3.684,4.743,5.241    c1.556,1.389,3.039,3.11,4.25,4.763c1.43,1.952,2.499,3.838,2.874,4.992c0.499,1.537,1.357,6.36,1.765,8.745    c1.329-1.407,3.522-4.102,3.022-6.131c-0.286-1.161-1.262-2.493-2.356-3.987c-1.795-2.449-3.888-5.305-4.178-8.956    c-0.217-2.721,0.043-8.482,0.289-13.907c0.266-5.896,0.514-11.386,0.281-11.617c-0.439-0.439-0.436-0.999-0.144-1.515    c0.225-0.396,0.659-0.77,1.166-0.964c0.527-0.201,1.15-0.226,1.729,0.085c0.756,0.404,1.397,1.384,1.499,3.314    c0.025,0.479,0.121,1.294,0.236,2.271c0.218,1.863,0.505,4.317,0.532,6.484c0.107-0.061,0.237-0.128,0.397-0.202    c0.746-0.343,1.762-0.866,2.942-1.535c5.744-3.263,15.256-9.934,15.918-15.909c0.043-0.392,0.397-0.675,0.789-0.632    c0.336,0.037,0.593,0.303,0.632,0.624c1.095,8.919-5.211,13.479-11.296,17.876c-6.034,4.362-11.837,8.558-9.063,16.857    c0.78,1.763,1.865,3.21,2.704,4.329c0.256,0.342,0.492,0.655,0.695,0.948c0.738-1.983,2.127-5.121,4.324-5.643    c1.052-0.249,1.875-1.132,2.478-2.231c0.862-1.572,1.263-3.553,1.263-4.9c0-1.165,0.444-1.915,1.025-2.274    c0.275-0.171,0.577-0.254,0.879-0.254c0.296,0,0.592,0.08,0.865,0.234C334.763,147.595,335.253,148.331,335.29,149.382    L335.29,149.382z M329.829,159.804c5.083-2.402,4.044-10.248,4.041-10.271l-0.005-0.074c-0.012-0.516-0.191-0.842-0.414-0.969    c-0.052-0.029-0.108-0.045-0.16-0.045c-0.045,0-0.091,0.012-0.129,0.036c-0.195,0.121-0.344,0.458-0.344,1.061    c0,1.535-0.457,3.793-1.44,5.588c-0.783,1.426-1.902,2.58-3.403,2.938c-1.796,0.425-3.073,4.046-3.614,5.582    c-0.263,0.744-0.428,1.213-0.975,1.213c-0.491,0-0.737-0.264-0.737-0.825c0-0.26-0.497-0.923-1.164-1.814    c-0.889-1.186-2.04-2.722-2.88-4.628l-0.023-0.061c-3.143-9.319,3.089-13.824,9.568-18.509c4.683-3.385,9.503-6.87,10.591-12.418    c-3.16,5.206-10.358,10.167-15.095,12.857c-1.211,0.688-2.268,1.231-3.054,1.593c-0.591,0.271-1.086,0.441-1.444,0.503    c-0.153,0.054-0.325,0.056-0.488-0.006c-0.334-0.126-0.5-0.369-0.489-0.729c0.059-2.242-0.275-5.094-0.521-7.186    c-0.116-0.986-0.213-1.807-0.242-2.361c-0.07-1.33-0.383-1.934-0.743-2.129c-0.168-0.089-0.368-0.073-0.549-0.005    c-0.181,0.069-0.332,0.181-0.41,0.296c0.537,1.178,0.288,6.659,0.023,12.523c-0.243,5.372-0.5,11.078-0.288,13.735    c0.257,3.247,2.22,5.926,3.904,8.223c1.182,1.614,2.238,3.054,2.591,4.491c0.91,3.697-4.392,8.466-4.407,8.479    c-0.099,0.089-0.223,0.151-0.364,0.174c-0.39,0.063-0.757-0.201-0.819-0.59c-0.004-0.022-1.302-7.921-1.944-9.894    c-0.333-1.024-1.323-2.755-2.668-4.59c-1.162-1.587-2.578-3.233-4.046-4.545c-1.82-1.623-3.642-3.57-4.967-5.499    c-1.153-1.679-1.937-3.359-2.039-4.833c-0.077-1.114-0.489-2.364-0.95-2.971l-0.012-0.016c-0.197,0.45-0.344,1.36-0.39,2.909    c-0.105,3.498,4.173,8.451,7.999,12.88c3.186,3.689,6.078,7.035,6.143,9.303c0.038,1.331,0.195,2.926,0.357,4.583    c0.392,3.994,0.817,8.338-0.247,10.773c-0.711,1.622-1.563,11.874-2.031,22.006c-0.405,8.719-0.518,17.302-0.006,20.16    c0.637,0.193,1.22,0.408,1.781,0.615c2.393,0.886,4.32,1.597,6.67-1.346l-0.108-0.234c-2.436-5.522-2.972-18.015-2.063-29.543    c0.911-11.556,3.327-22.226,6.809-24.182l0.077-0.045l0.183-0.089c1.102-0.485,1.159-2.195,1.222-4.12    C326.214,164.842,326.326,161.46,329.829,159.804z" id="path356"/>
		<path style="fill-rule:evenodd;clip-rule:evenodd;fill:#FFFFFF;" d="M350.242,81.098c0.229-0.924,0.339-1.717,0.355-2.388    c0.099-4.066-3.239-3.675-4.103-1.088c2.481-5.494,0.637-10.045-3.311-5.974c1.763-4.431,0.446-9.702-2.933-5.973    c3.076-8.426-4.78-9.838-7.06-5.92c-0.072-5.465-3.02-6.57-5.105-1.031c0,0-1.465-5.43-5.483-4.996    c-4.019,0.435-4.182,6.517-4.182,6.517s-1.195-3.747-2.77-3.476c-1.575,0.271-2.66,4.235-2.66,4.235s-0.706-5.918-4.453-5.322    c-3.747,0.598-2.77,5.648-2.77,5.648s-3.149-2.443-6.081-1.032c-2.933,1.413-0.272,5.648-0.272,5.648s-2.153-0.563-4.521-0.194    c-1.16,0.181-2.372,0.585-3.407,1.389c-3.15,2.443-0.597,6.733-0.597,6.733s-3.15,0.977-3.421,3.747    c-0.271,2.77,5.484,2.77,5.484,2.77s-5.376,0.814-5.593,3.149c-0.217,2.335,2.118,4.127,2.118,4.127s-2.361,1.981-2.878,1.655    c-0.515-0.325,0.055-4.181-1.275-4.75c-1.331-0.57-1.901,1.221-1.901,1.221s-0.353-4.669-3.475-4.615    c-3.122,0.055-1.548,3.855-1.548,3.855s-2.091-1.276-3.366-0.055c-1.276,1.222,0.624,4.018,0.624,4.018s-2.172-3.068-4.127-2.226    c-1.956,0.842-1.739,3.558-1.739,3.558s-2.226-3.883-3.854-3.313c-1.63,0.57-1.63,3.476-1.63,3.476s-1.872-1.765-3.311-0.108    c-1.44,1.655,1.085,3.23,1.085,3.23s-3.176-1.194-3.665,0.951c-0.489,2.145,2.145,2.469,2.145,2.469s-3.122-0.732-3.747,0.788    c-0.625,1.521,1.792,3.694,1.792,3.694s-3.176-0.788-4.126,0.705c-0.95,1.493,0.841,2.905,0.841,2.905s-2.932,0.326-3.122,1.412    c-0.189,1.086,1.331,2.362,1.331,2.362s-3.123,0.162-3.339,1.792c-0.218,1.628,2.389,2.063,2.389,2.063s-2.878,2.471-1.928,4.317    c0.95,1.846,4.126,0.76,4.126,0.76s-2.172,4.127-0.38,5.539c1.792,1.411,3.801-0.814,3.801-0.814s-0.435,3.204,3.149,3.964    c3.584,0.761,3.584-1.901,3.584-1.901s0.544,3.476,3.585,3.313c3.04-0.163,3.801-3.802,3.801-3.802s-1.013,2.507,1.918,2.615    c1.22,0.046,2.164-0.521,2.85-1.199c2.049-2.021,1.165-3.067,0.944-0.358c-0.075,0.929,0.048,2.191,0.753,3.705    c1.074,2.463,2.169,2.84,2.169,2.84s-3.854,0.813-3.91,3.963c-0.053,3.151,3.856,1.577,3.856,1.577s-4.128,2.388-3.15,4.886    c0.978,2.499,4.018,2.118,4.018,2.118s-2.389,4.236-0.271,7.06c2.117,2.824,6.571-0.055,6.571-0.055s-1.304,4.834,1.466,6.028    c2.768,1.194,5.756-2.389,5.756-2.389s0.869,4.344,3.313,4.724c2.443,0.381,2.716-3.422,2.716-3.422s1.465,3.585,4.126,3.747    c2.661,0.164,2.064-3.692,2.064-3.692s2.987,4.997,5.864,4.127c2.878-0.868,0.707-6.299,0.707-6.299s2.933,1.847,4.561,0.544    c1.63-1.304,0.761-4.236,0.761-4.236s2.499,2.661,4.779,1.9c2.28-0.761-0.327-5.376-0.327-5.376s1.874,1.602,4.888,1.872    c3.015,0.272,2.336-2.769,2.336-2.769s0.924,5.214,3.367,5.918c2.444,0.707,3.23-1.058,3.23-1.058s2.987,2.959,5.051,2.145    c2.063-0.815,1.032-4.779,1.032-4.779s1.466,1.629,4.154,1.195c2.688-0.435,3.041-3.286,3.041-3.286s4.996,3.178,7.331,1.275    c2.336-1.899,0-5.594,0-5.594s3.584,0.599,4.888-0.759c1.302-1.357,0.217-2.661,0.217-2.661s4.616-0.435,5.376-3.041    c0.761-2.606-1.412-4.615-1.412-4.615s5.214,2.064,8.092,0.324c2.879-1.737,1.249-6.082,1.249-6.082s3.91,2.281,6.951,0.544    c3.041-1.738,1.63-6.519,1.63-6.519c4.659,0.814,14.33-0.083,9.503-7.058c2.981-6.345,3.982-12.554-5.159-7.984    c3.251-5.465-2.022-9.925-3.801-5.32c-1.916-6.004-4.111-6.6-7.143-3.724c-3.601,3.414-1.46,2.592-1.093-0.546    c0.246-2.12-1.153-3.189-2.7-3.478c-4.761-0.887-2.573,3.264-2.299-3.769c0.163-4.243-2.34-6.564-5.99-2.495    c2.674-7.882-2.661-9.387-6.408-3.692c2.269-5.6-2.899-9.504-5.43,0.543C355.353,75.873,351.79,76.264,350.242,81.098z" id="path357"/>
		<path style="fill-rule:evenodd;clip-rule:evenodd;fill:#272828;" d="M349.548,80.927c0.104-0.423,0.185-0.821,0.24-1.193    c0.058-0.39,0.089-0.736,0.097-1.04c0.026-1.064-0.199-1.729-0.539-2.065c-0.136-0.137-0.294-0.215-0.459-0.239    c-0.181-0.027-0.379,0.004-0.573,0.087c-0.357,0.152-0.695,0.464-0.939,0.904c-0.072,0.178-0.149,0.357-0.23,0.536    c-0.149,0.33-0.527,0.5-0.878,0.384c-0.373-0.126-0.574-0.53-0.45-0.904c0.071-0.213,0.157-0.414,0.254-0.603    c0.79-1.954,0.992-3.714,0.725-4.877c-0.095-0.412-0.245-0.727-0.441-0.917c-0.149-0.143-0.342-0.215-0.577-0.195    c-0.526,0.045-1.226,0.457-2.084,1.342c-0.274,0.282-0.728,0.288-1.01,0.015c-0.222-0.216-0.273-0.541-0.152-0.808    c0.735-1.866,0.89-3.866,0.549-5.166c-0.105-0.4-0.251-0.711-0.434-0.898c-0.116-0.119-0.255-0.178-0.414-0.16    c-0.365,0.042-0.848,0.355-1.456,1.026c-0.264,0.291-0.715,0.313-1.006,0.049c-0.221-0.199-0.288-0.507-0.192-0.771    c0.971-2.66,0.783-4.512,0.036-5.646c-0.322-0.489-0.755-0.847-1.241-1.077c-0.495-0.235-1.048-0.341-1.601-0.32    c-1.167,0.041-2.331,0.634-2.965,1.725c-0.197,0.341-0.635,0.458-0.976,0.261c-0.237-0.138-0.366-0.391-0.356-0.646    c-0.026-1.715-0.341-2.927-0.813-3.562c-0.158-0.213-0.321-0.339-0.479-0.37c-0.149-0.029-0.332,0.021-0.538,0.156    c-0.611,0.403-1.275,1.383-1.893,3.023c-0.139,0.369-0.55,0.556-0.92,0.416c-0.231-0.087-0.39-0.28-0.443-0.503    c-0.105-0.369-1.439-4.804-4.714-4.45c-3.396,0.366-3.544,5.813-3.544,5.827c-0.013,0.396-0.341,0.704-0.736,0.691    c-0.311-0.01-0.569-0.218-0.658-0.497c-0.004-0.01-1.005-3.153-1.969-2.986c-1.127,0.194-2.09,3.708-2.093,3.718    c-0.104,0.379-0.496,0.604-0.875,0.501c-0.289-0.079-0.487-0.325-0.521-0.605c-0.004-0.014-0.62-5.18-3.633-4.7    c-3.011,0.479-2.178,4.807-2.176,4.819c0.068,0.391-0.192,0.761-0.582,0.828c-0.222,0.039-0.438-0.029-0.596-0.168    c-0.367-0.269-2.95-2.056-5.298-0.925c-2.206,1.061,0.024,4.626,0.03,4.636c0.204,0.337,0.095,0.777-0.244,0.981    c-0.188,0.112-0.405,0.13-0.597,0.065c-0.292-0.071-2.143-0.484-4.184-0.167c-0.562,0.087-1.14,0.234-1.703,0.464    c-0.483,0.196-0.948,0.453-1.377,0.785c-2.647,2.054-0.421,5.799-0.414,5.81c0.197,0.342,0.081,0.778-0.261,0.976    c-0.047,0.028-0.096,0.049-0.146,0.064c-0.007,0.003-2.698,0.839-2.923,3.133c-0.194,1.985,4.76,1.985,4.774,1.985    c0.396,0,0.717,0.321,0.717,0.717c0,0.369-0.28,0.674-0.641,0.711c-0.386,0.063-4.801,0.801-4.958,2.503    c-0.182,1.942,1.841,3.496,1.846,3.5c0.311,0.242,0.366,0.69,0.124,1.002c-0.038,0.047-0.079,0.088-0.126,0.124    c-0.244,0.203-2.779,2.275-3.695,1.696c-0.507-0.321-0.557-1.127-0.614-2.102c-0.064-1.061-0.146-2.418-0.561-2.596    c-0.606-0.261-0.942,0.783-0.943,0.787c-0.124,0.373-0.527,0.576-0.9,0.453c-0.28-0.093-0.465-0.342-0.488-0.618    c-0.004-0.011-0.31-4.003-2.754-3.961c-2.065,0.036-0.897,2.874-0.893,2.882c0.143,0.368-0.039,0.782-0.406,0.926    c-0.228,0.089-0.473,0.054-0.66-0.074c-0.208-0.119-1.656-0.911-2.471-0.13c-0.788,0.753,0.524,2.809,0.7,3.074l0.019,0.028    c0.221,0.326,0.136,0.77-0.19,0.99c-0.321,0.218-0.757,0.139-0.98-0.178c-0.007-0.006-1.841-2.594-3.265-1.981    c-1.482,0.639-1.308,2.844-1.306,2.851c0.027,0.394-0.27,0.735-0.663,0.764c-0.303,0.021-0.575-0.15-0.697-0.409    c-0.23-0.395-1.968-3.296-2.973-2.943c-1.149,0.401-1.149,2.795-1.149,2.802c0,0.395-0.32,0.716-0.716,0.716    c-0.204,0-0.389-0.087-0.52-0.225c-0.242-0.206-1.405-1.108-2.252-0.133c-0.889,1.022,0.925,2.158,0.929,2.161    c0.332,0.212,0.43,0.653,0.219,0.985c-0.185,0.288-0.543,0.4-0.851,0.285c-0.007-0.002-2.414-0.906-2.72,0.439    c-0.239,1.046,0.766,1.428,1.263,1.551c0.146,0.023,0.251,0.046,0.304,0.058c0.372,0.063,0.635,0.406,0.591,0.786    c-0.044,0.392-0.4,0.674-0.791,0.629c-0.002,0-0.153-0.02-0.385-0.075c-0.688-0.122-2.314-0.324-2.621,0.424    c-0.431,1.051,1.607,2.892,1.613,2.896c0.291,0.266,0.31,0.718,0.045,1.008c-0.183,0.199-0.453,0.271-0.699,0.209    c-0.008,0.001-2.678-0.661-3.352,0.398c-0.604,0.947,0.675,1.954,0.679,1.957c0.312,0.242,0.368,0.692,0.125,1.005    c-0.133,0.17-0.329,0.265-0.53,0.274c-0.304,0.036-2.36,0.298-2.452,0.82c-0.119,0.677,1.089,1.697,1.092,1.699    c0.298,0.259,0.331,0.71,0.073,1.008c-0.13,0.15-0.309,0.233-0.495,0.245c-0.007,0.001-2.539,0.141-2.676,1.172    c-0.125,0.935,1.81,1.268,1.815,1.269c0.387,0.074,0.642,0.449,0.568,0.837c-0.034,0.175-0.128,0.322-0.257,0.425    c-0.238,0.209-2.393,2.158-1.738,3.431c0.667,1.297,3.253,0.412,3.259,0.41c0.374-0.128,0.781,0.071,0.909,0.444    c0.071,0.206,0.042,0.423-0.061,0.596c-0.163,0.318-1.819,3.618-0.555,4.614c1.266,0.998,2.826-0.729,2.83-0.733    c0.266-0.293,0.719-0.313,1.011-0.048c0.178,0.162,0.254,0.393,0.228,0.616c0,0.007-0.346,2.556,2.588,3.177    c2.719,0.577,2.72-1.195,2.72-1.201c0-0.396,0.32-0.716,0.715-0.716c0.366,0,0.668,0.275,0.712,0.631    c0.059,0.322,0.593,2.804,2.836,2.685c1.899-0.102,2.728-1.93,3.016-2.796c0.069-0.333,0.159-0.555,0.16-0.559    c0.127-0.317,0.471-0.507,0.817-0.43c0.384,0.085,0.628,0.466,0.543,0.851c-0.001,0.002-0.035,0.163-0.115,0.42    c-0.075,0.46-0.011,1.277,1.362,1.327c0.445,0.018,0.845-0.068,1.197-0.217c0.434-0.183,0.81-0.465,1.126-0.777    c0.451-0.445,0.736-0.823,0.908-1.106c0.06-0.254,0.121-0.437,0.171-0.552c0.419-0.947,0.974-0.86,1.364-0.168l0.003,0.006    c0.093,0.167,0.123,0.47,0.008,0.793c-0.039,0.112-0.103,0.257-0.196,0.429c-0.038,0.203-0.073,0.468-0.101,0.805    c-0.033,0.41-0.021,0.899,0.076,1.455c0.1,0.562,0.289,1.195,0.613,1.892l0.025,0.062c0.941,2.137,1.735,2.408,1.737,2.408    c0.371,0.135,0.563,0.545,0.428,0.914c-0.091,0.249-0.305,0.418-0.548,0.46c-0.271,0.063-3.276,0.805-3.319,3.272    c-0.035,2.07,2.88,0.902,2.889,0.899c0.367-0.141,0.779,0.043,0.919,0.411c0.126,0.329-0.009,0.696-0.304,0.869    c-0.01,0.006-3.599,2.085-2.846,4.012c0.776,1.981,3.256,1.67,3.263,1.669c0.391-0.049,0.749,0.229,0.798,0.619    c0.019,0.157-0.014,0.308-0.085,0.436c-0.006,0.012-2.161,3.836-0.324,6.285c1.718,2.29,5.603-0.221,5.614-0.227    c0.332-0.214,0.775-0.117,0.989,0.216c0.114,0.18,0.14,0.391,0.085,0.582c-0.07,0.27-1.065,4.257,1.062,5.175    c2.281,0.983,4.918-2.179,4.926-2.188c0.251-0.303,0.701-0.345,1.004-0.093c0.13,0.108,0.212,0.252,0.243,0.405    c0.003,0.011,0.774,3.858,2.722,4.161c1.674,0.262,1.893-2.764,1.894-2.771c0.031-0.393,0.375-0.688,0.769-0.657    c0.286,0.021,0.519,0.21,0.614,0.462c0.122,0.285,1.397,3.157,3.499,3.286c1.775,0.108,1.316-2.866,1.315-2.874    c-0.059-0.391,0.21-0.756,0.601-0.814c0.313-0.047,0.609,0.116,0.745,0.383c0.275,0.447,2.803,4.437,5.019,3.767    c2.125-0.641,0.252-5.343,0.249-5.355c-0.142-0.368,0.04-0.782,0.409-0.924c0.212-0.082,0.441-0.056,0.622,0.053    c0.007,0.005,2.525,1.58,3.75,0.601c1.253-1.003,0.521-3.469,0.519-3.476c-0.112-0.379,0.103-0.777,0.482-0.89    c0.287-0.085,0.586,0.018,0.763,0.238c0.287,0.293,2.28,2.242,3.993,1.671c1.461-0.487-0.714-4.339-0.72-4.35    c-0.193-0.343-0.071-0.778,0.272-0.971c0.27-0.151,0.596-0.109,0.816,0.082c0.129,0.105,1.803,1.46,4.483,1.701    c2.04,0.184,1.573-1.914,1.572-1.92c-0.077-0.387,0.174-0.765,0.563-0.842c0.387-0.077,0.764,0.175,0.84,0.563l0.026,0.134    c0.153,0.768,1.024,4.717,2.838,5.24c1.847,0.533,2.379-0.658,2.381-0.661c0.159-0.36,0.58-0.523,0.939-0.363    c0.083,0.036,0.155,0.087,0.216,0.147l0.002-0.002c0.008,0.007,2.65,2.627,4.283,1.986c1.468-0.581,0.603-3.932,0.6-3.941    c-0.095-0.383,0.138-0.771,0.521-0.866c0.27-0.068,0.544,0.028,0.714,0.226c0.17,0.175,1.368,1.303,3.501,0.958    c2.156-0.349,2.444-2.67,2.445-2.676c0.052-0.391,0.412-0.665,0.803-0.614c0.117,0.017,0.224,0.06,0.314,0.125    c0.379,0.235,4.617,2.815,6.472,1.306c1.84-1.497-0.151-4.653-0.157-4.662c-0.208-0.334-0.105-0.776,0.229-0.983    c0.154-0.096,0.33-0.127,0.496-0.099c0.009,0.002,3.213,0.534,4.255-0.55c0.86-0.896,0.188-1.703,0.186-1.705    c-0.255-0.301-0.217-0.752,0.084-1.007c0.113-0.096,0.249-0.149,0.386-0.165c0.012-0.001,4.144-0.396,4.766-2.529    c0.636-2.183-1.203-3.884-1.208-3.888c-0.291-0.265-0.313-0.718-0.047-1.01c0.211-0.232,0.542-0.293,0.815-0.174    c0.438,0.167,4.988,1.846,7.437,0.367c2.368-1.43,0.951-5.217,0.947-5.227c-0.133-0.371,0.058-0.78,0.429-0.914    c0.207-0.076,0.43-0.049,0.605,0.056c0.012,0.005,3.551,2.07,6.232,0.538c2.55-1.458,1.303-5.686,1.299-5.697    c-0.108-0.379,0.108-0.775,0.487-0.885c0.107-0.03,0.215-0.035,0.317-0.018c1.885,0.326,4.612,0.367,6.789-0.193    c1.015-0.262,1.896-0.65,2.479-1.198c0.515-0.482,0.791-1.111,0.698-1.919c-0.085-0.725-0.448-1.598-1.17-2.64    c-0.154-0.225-0.164-0.506-0.048-0.733c1.119-2.384,1.948-4.729,2.022-6.421c0.03-0.689-0.066-1.243-0.325-1.6l-0.022-0.032    c-0.231-0.291-0.622-0.458-1.21-0.464c-1.032-0.012-2.55,0.439-4.672,1.499c-0.351,0.176-0.779,0.032-0.957-0.319    c-0.11-0.225-0.093-0.48,0.026-0.682c1.211-2.043,1.11-3.891,0.466-5.046c-0.222-0.392-0.5-0.696-0.802-0.889l-0.039-0.026    c-0.253-0.15-0.52-0.221-0.774-0.192c-0.497,0.056-1.004,0.498-1.373,1.451c-0.142,0.368-0.555,0.551-0.924,0.409    c-0.217-0.084-0.371-0.264-0.428-0.474c-0.891-2.779-1.79-4.283-2.766-4.733c-0.854-0.396-1.91,0.114-3.199,1.336    c-1.085,1.03-1.624,1.649-1.845,1.932l-0.099,0.142c-0.032,0.05-0.071,0.098-0.117,0.14l-0.025,0.021    c-1.067,1.318-1.681,1.58-1.912,1.336c-0.533,0.202-0.673-0.081,0.162-1.331c0.163-0.334,0.402-0.679,0.702-0.974l0.128-0.169    c0.206-0.347,0.581-1.126,0.711-2.24c0.089-0.765-0.081-1.342-0.402-1.757c-0.396-0.509-1.034-0.813-1.714-0.94    c-1.405-0.261-2.033-0.056-2.286,0.107c-0.631,1.125-1.162,0.313-1.302-0.163c-0.012-0.036-0.021-0.072-0.027-0.112l-0.008-0.087    c-0.001-0.037,0.032-0.174,0.11-0.33c0.02-0.063,0.046-0.132,0.078-0.204c0.165-0.375,0.461-1.372,0.551-3.706    c0.047-1.215-0.138-2.238-0.515-2.947c-0.211-0.396-0.476-0.68-0.781-0.82c-0.295-0.134-0.658-0.146-1.082-0.011    c-0.675,0.218-1.47,0.785-2.367,1.784c-0.262,0.293-0.712,0.318-1.006,0.056c-0.219-0.196-0.288-0.497-0.199-0.76    c0.829-2.45,0.849-4.19,0.379-5.216c-0.184-0.401-0.444-0.677-0.755-0.824c-0.317-0.151-0.708-0.18-1.143-0.084    c-1.112,0.242-2.433,1.248-3.619,3.051c-0.216,0.33-0.659,0.421-0.988,0.205c-0.289-0.19-0.395-0.556-0.27-0.864    c0.704-1.741,0.624-3.254,0.125-4.105c-0.163-0.278-0.367-0.467-0.59-0.54c-0.206-0.066-0.458-0.033-0.74,0.122    c-0.954,0.526-2.033,2.186-2.87,5.509c-0.096,0.383-0.483,0.615-0.867,0.52c-0.361-0.091-0.589-0.442-0.533-0.804    c0.165-1.595-0.012-2.604-0.37-3.092c-0.1-0.138-0.209-0.212-0.32-0.229l-0.012-0.002c-0.135-0.015-0.302,0.033-0.486,0.142    c-0.682,0.401-1.417,1.447-1.939,3.078c-0.121,0.375-0.523,0.581-0.898,0.46C349.664,81.663,349.459,81.289,349.548,80.927    L349.548,80.927z M350.353,75.615c0.453,0.453,0.793,1.149,0.913,2.119c0.286-0.312,0.581-0.554,0.873-0.726    c0.472-0.277,0.95-0.389,1.403-0.328l0.028,0.003c0.49,0.074,0.923,0.338,1.26,0.8c0.126,0.173,0.239,0.375,0.334,0.609    c0.769-1.696,1.64-2.695,2.465-3.15c0.65-0.358,1.29-0.415,1.869-0.227c0.561,0.183,1.037,0.593,1.38,1.177    c0.371,0.634,0.589,1.498,0.576,2.5c0.891-0.794,1.802-1.279,2.642-1.464c0.745-0.163,1.447-0.098,2.055,0.19    c0.614,0.292,1.113,0.803,1.443,1.524c0.43,0.938,0.568,2.262,0.276,3.952c0.411-0.27,0.805-0.462,1.181-0.583    c0.783-0.251,1.493-0.209,2.112,0.073c0.606,0.277,1.096,0.776,1.453,1.445c0.489,0.923,0.734,2.199,0.677,3.67    c-0.051,1.308-0.168,2.257-0.3,2.936c0.517-0.062,1.18-0.051,2.015,0.105c0.999,0.186,1.956,0.657,2.587,1.471    c0.513,0.661,0.801,1.527,0.712,2.618c1.691-1.563,3.211-2.147,4.654-1.479c1.133,0.522,2.125,1.861,3.02,4.16    c0.505-0.57,1.103-0.868,1.717-0.937c0.578-0.063,1.158,0.083,1.682,0.401l0.053,0.031c0.499,0.316,0.945,0.795,1.283,1.396    c0.651,1.169,0.907,2.827,0.327,4.676c1.483-0.603,2.658-0.864,3.574-0.854c1.08,0.012,1.84,0.385,2.337,1.032l0.041,0.051    c0.46,0.635,0.638,1.492,0.595,2.501c-0.081,1.812-0.889,4.203-2,6.623c0.715,1.107,1.088,2.086,1.189,2.947    c0.15,1.31-0.302,2.335-1.141,3.122c-0.77,0.723-1.867,1.22-3.104,1.539c-2.009,0.517-4.427,0.57-6.354,0.362    c0.26,1.653,0.373,4.831-2.181,6.29c-2.182,1.246-4.715,0.67-6.255,0.095c0.269,1.611,0.257,4.115-1.931,5.436    c-1.958,1.184-4.797,0.812-6.698,0.349c0.442,0.929,0.735,2.153,0.333,3.528c-0.649,2.229-3.488,3.092-5.011,3.399    c0.188,0.687,0.169,1.64-0.753,2.6c-0.981,1.021-2.9,1.144-4.195,1.092c0.578,1.424,1.121,3.792-0.757,5.319    c-2.076,1.691-5.703,0.109-7.331-0.754c-0.381,1.04-1.289,2.577-3.379,2.915c-1.402,0.228-2.521-0.047-3.323-0.411    c0.092,1.418-0.111,3.323-1.713,3.956c-1.848,0.729-4.142-0.876-5.214-1.766c-0.588,0.591-1.693,1.229-3.528,0.699    c-1.516-0.438-2.507-2.202-3.106-3.777c-0.472,0.465-1.235,0.763-2.459,0.651c-1.315-0.118-2.431-0.474-3.294-0.856    c0.551,1.63,0.839,3.721-0.979,4.327c-1.486,0.495-3.001-0.178-4.067-0.889c0.001,1.049-0.249,2.299-1.254,3.105    c-1.144,0.914-2.701,0.646-3.844,0.235c0.469,1.899,0.78,4.911-1.661,5.649c-2.104,0.636-4.15-1.198-5.414-2.701    c-0.238,1.196-0.928,2.408-2.764,2.295c-1.736-0.105-3.011-1.393-3.798-2.513c-0.445,1.191-1.338,2.454-3.11,2.178    c-1.982-0.308-3.063-2.596-3.56-4.059c-1.21,1.085-3.461,2.635-5.684,1.677c-2.222-0.958-2.318-3.677-2.132-5.392    c-1.664,0.719-4.492,1.455-6.192-0.813c-1.698-2.264-0.885-5.243-0.263-6.794c-1.157-0.132-2.84-0.661-3.579-2.551    c-0.603-1.542,0.268-2.986,1.286-4.043c-1.087-0.13-2.072-0.773-2.038-2.69c0.042-2.399,1.888-3.638,3.197-4.215    c-0.424-0.479-0.912-1.192-1.374-2.24l-0.018-0.035c-0.38-0.817-0.606-1.573-0.725-2.251c-0.04-0.223-0.067-0.438-0.085-0.645    c-0.375,0.328-0.811,0.62-1.313,0.831c-0.533,0.224-1.134,0.354-1.801,0.328c-1.149-0.042-1.846-0.363-2.257-0.799    c-0.681,0.974-1.754,1.896-3.402,1.984c-1.984,0.106-3.085-1.031-3.679-2.106c-0.613,0.641-1.709,1.097-3.675,0.68    c-2.489-0.528-3.334-2.074-3.607-3.261c-0.931,0.574-2.305,1.024-3.636-0.024c-1.491-1.175-0.929-3.605-0.375-5.122    c-1.199,0.136-2.829,0.016-3.565-1.412c-0.791-1.539,0.35-3.284,1.233-4.307c-0.899-0.385-1.949-1.131-1.766-2.494    c0.175-1.32,1.545-1.923,2.635-2.194c-0.4-0.559-0.748-1.278-0.624-1.99c0.167-0.955,1.459-1.48,2.481-1.751    c-0.459-0.718-0.788-1.739-0.098-2.827c0.631-0.989,1.906-1.231,2.999-1.231c-0.615-0.882-1.142-2.035-0.723-3.055    c0.315-0.768,1.014-1.135,1.771-1.293c-0.267-0.463-0.383-1.066-0.204-1.851c0.317-1.398,1.372-1.799,2.392-1.834    c-0.402-0.743-0.511-1.674,0.344-2.658c1.119-1.287,2.393-1.069,3.268-0.656c0.2-1.055,0.705-2.472,1.98-2.918    c1.281-0.448,2.68,0.881,3.617,2.057c0.268-0.873,0.816-1.807,1.928-2.284c0.928-0.4,1.859-0.157,2.661,0.304    c-0.066-0.713,0.073-1.42,0.629-1.953c0.855-0.819,1.942-0.812,2.8-0.608c-0.231-1.405-0.063-3.345,2.597-3.391    c2.374-0.042,3.421,2.021,3.872,3.576c0.441-0.31,1.032-0.453,1.796-0.126c1.228,0.525,1.34,2.38,1.426,3.826    c0.035,0.575-0.165,0.905-0.05,0.978c0.043,0.027,0.83-0.604,1.413-1.082c-0.764-0.793-1.917-2.315-1.745-4.162    c0.126-1.352,1.487-2.269,2.902-2.861c-1.529-0.459-2.961-1.346-2.794-3.059c0.225-2.291,2.078-3.52,3.154-4.046    c-0.638-1.452-1.65-4.77,1.139-6.934c0.54-0.418,1.119-0.738,1.711-0.98c0.661-0.27,1.35-0.443,2.023-0.548    c1.263-0.196,2.472-0.143,3.363-0.04c-0.649-1.579-1.23-4.169,1.228-5.353c2.096-1.009,4.25-0.313,5.562,0.343    c-0.013-1.758,0.459-4.537,3.488-5.021c2.69-0.428,4.051,1.794,4.709,3.642c0.555-1.158,1.37-2.377,2.396-2.555    c1.057-0.183,1.926,0.736,2.543,1.735c0.5-1.975,1.679-4.482,4.453-4.781c3.021-0.327,4.76,2.12,5.603,3.861    c0.554-1.037,1.148-1.737,1.735-2.121c0.537-0.35,1.08-0.466,1.601-0.36c0.515,0.104,0.972,0.415,1.346,0.919    c0.446,0.6,0.788,1.516,0.963,2.707c0.853-0.664,1.901-1.025,2.95-1.063c0.778-0.027,1.558,0.122,2.261,0.454    c0.712,0.339,1.347,0.864,1.823,1.588c0.746,1.133,1.09,2.742,0.693,4.848c0.197-0.075,0.388-0.123,0.571-0.144    c0.636-0.073,1.172,0.145,1.599,0.583c0.36,0.37,0.627,0.898,0.793,1.531c0.274,1.05,0.289,2.457,0.011,3.922    c0.421-0.217,0.819-0.336,1.186-0.366c0.67-0.057,1.237,0.157,1.686,0.591c0.401,0.388,0.687,0.945,0.844,1.628    c0.211,0.917,0.194,2.109-0.087,3.443c0.33-0.092,0.665-0.115,0.992-0.067C349.555,75.043,349.988,75.251,350.353,75.615z" id="path358"/>
		<path style="fill-rule:evenodd;clip-rule:evenodd;fill:#272828;" d="M314.734,184.835c0.354-1.792,0.663-3.62,1.17-5.378    c0.31-1.075,0.679-1.94,1.469-2.738c0.617-0.624,1.244-0.989,1.639-1.784c0.124-0.252-0.134-0.56-0.4-0.4    c-4.019,2.43-3.595,6.149-4.081,10.272C314.519,184.923,314.71,184.948,314.734,184.835z" id="path359"/>
		<path style="fill-rule:evenodd;clip-rule:evenodd;fill:#272828;" d="M324.012,168.387c0.193-1.564,0.543-2.793-0.203-4.3    c-0.434-0.88-1.094-2.4-2.128-2.642c-0.109-0.025-0.237,0.032-0.262,0.148c-0.206,0.903,0.55,1.673,1.007,2.409    c0.794,1.282,1.169,2.9,1.357,4.384C323.801,168.535,323.994,168.536,324.012,168.387z" id="path360"/>
		<path style="fill-rule:evenodd;clip-rule:evenodd;fill:#272828;" d="M318.613,156.431c0.164,1.3-0.453,2.404-0.917,3.571    c-0.322,0.808-0.787,1.939-0.237,2.73c0.063,0.091,0.235,0.098,0.259-0.033c0.1-0.54,0.009-1.056,0.109-1.608    c0.101-0.555,0.331-1.097,0.524-1.623c0.381-1.047,0.621-1.95,0.386-3.055C318.722,156.344,318.604,156.36,318.613,156.431z" id="path361"/>
		<path style="fill-rule:evenodd;clip-rule:evenodd;fill:#272828;" d="M319.174,157.694c-0.133,1.237-0.642,2.428-0.951,3.627    c-0.158,0.608-0.411,1.628,0.095,2.121c0.099,0.097,0.245,0.021,0.255-0.106c0.032-0.377-0.065-0.74-0.042-1.123    c0.034-0.559,0.197-1.127,0.329-1.668c0.23-0.946,0.524-1.869,0.495-2.851C319.353,157.575,319.187,157.58,319.174,157.694z" id="path362"/>
		<path style="fill-rule:evenodd;clip-rule:evenodd;fill:#272828;" d="M319.607,158.956c-0.098,1.609-0.883,3.732-0.17,5.269    c0.043,0.095,0.167,0.035,0.175-0.048c0.093-0.857-0.017-1.742,0.049-2.61c0.065-0.872,0.123-1.735,0.104-2.61    C319.764,158.854,319.615,158.855,319.607,158.956z" id="path363"/>
		<path style="fill-rule:evenodd;clip-rule:evenodd;fill:#272828;" d="M313.086,171.503c0.318-2.708,2.012-6.193,0.783-8.852    c-0.081-0.174-0.344-0.079-0.347,0.095c-0.018,1.582,0.049,3.004-0.197,4.596c-0.217,1.395-0.418,2.742-0.341,4.161    C312.987,171.571,313.079,171.568,313.086,171.503z" id="path364"/>
		<path style="fill-rule:evenodd;clip-rule:evenodd;fill:#272828;" d="M312.985,167.798c0.079-1.642,0.561-4.094-0.411-5.549    c-0.087-0.129-0.266-0.073-0.28,0.075c-0.083,0.894,0.223,1.809,0.295,2.706c0.074,0.922,0.118,1.844,0.159,2.767    C312.754,167.952,312.977,167.951,312.985,167.798z" id="path365"/>
		<path style="fill-rule:evenodd;clip-rule:evenodd;fill:#272828;" d="M330.959,154.277c-0.51,1.303-1.461,2.303-2.194,3.477    c-0.746,1.2-0.603,2.542-0.732,3.898c-0.016,0.168,0.215,0.199,0.294,0.08c0.262-0.395,0.343-0.486,0.355-0.984    c0.025-1.123,0.168-2.12,0.768-3.092c0.689-1.117,1.479-1.999,1.867-3.28C331.389,154.141,331.045,154.058,330.959,154.277z" id="path366"/>
		<path style="fill-rule:evenodd;clip-rule:evenodd;fill:#272828;" d="M328.244,158.144c-0.644,0.468-0.913,1.042-1.061,1.811    c-0.123,0.625-0.229,1.622,0.152,2.176c0.051,0.074,0.188,0.078,0.209-0.027c0.105-0.541-0.039-1.135-0.002-1.689    c0.047-0.72,0.248-1.656,0.777-2.17C328.371,158.194,328.303,158.101,328.244,158.144z" id="path367"/>
		<path style="fill-rule:evenodd;clip-rule:evenodd;fill:#272828;" d="M314.397,187.82c-0.186,0.963-0.46,2.068-0.354,3.051    c0.008,0.074,0.122,0.132,0.162,0.044c0.411-0.938,0.216-2.076,0.332-3.076C314.546,187.76,314.412,187.742,314.397,187.82z" id="path368"/>
		<path style="fill-rule:evenodd;clip-rule:evenodd;fill:#272828;" d="M313.406,197.004c-0.976,4.785-0.817,9.961-0.953,14.838    c-0.157,5.663,1.028,11.324,0.925,17.005c-0.01,0.535,0.821,0.534,0.829,0c0.079-5.37-0.782-10.691-1.034-16.043    c-0.247-5.194-0.095-10.604,0.334-15.786C313.512,196.96,313.417,196.948,313.406,197.004z" id="path369"/>
		<path style="fill-rule:evenodd;clip-rule:evenodd;fill:#272828;" d="M315.028,204.175c-0.076,1.114-0.363,2.465,0.182,3.51    c0.057,0.109,0.204,0.047,0.213-0.058c0.095-1.121-0.263-2.33-0.34-3.452C315.081,204.139,315.03,204.139,315.028,204.175z" id="path370"/>
		<path style="fill-rule:evenodd;clip-rule:evenodd;fill:#272828;" d="M315.405,209.901c-0.204,3.217,0.092,6.439,0.681,9.603    c0.365,1.962,0.931,3.79,1.105,5.797c0.093,1.078,0.385,2,0.924,2.92c0.146,0.249,0.576,0.084,0.476-0.201    c-0.888-2.529-0.936-5.209-1.676-7.799c-0.939-3.295-1.235-6.917-1.368-10.319C315.544,209.808,315.411,209.809,315.405,209.901z" id="path371"/>
		<path style="fill-rule:evenodd;clip-rule:evenodd;fill:#272828;" d="M269.617,114.585c-0.638,1.726-0.563,3.79,1.124,4.911    c1.298,0.862,4.056,1.046,4.878-0.599c0.063-0.128-0.011-0.334-0.182-0.316c-0.665,0.073-1.198,0.483-1.848,0.658    c-0.751,0.204-1.559,0.055-2.233-0.304c-1.475-0.785-1.807-2.805-1.464-4.275C269.932,114.48,269.679,114.415,269.617,114.585z" id="path372"/>
		<path style="fill-rule:evenodd;clip-rule:evenodd;fill:#272828;" d="M275.534,118.713c-0.653,1.791,0.423,3.585,2.208,4.069    c1.564,0.423,4.288-0.349,4.876-1.997c0.09-0.251-0.201-0.569-0.46-0.462c-1.285,0.535-2.072,1.471-3.584,1.495    c-1.93,0.03-2.21-1.583-2.477-3.105C276.042,118.403,275.624,118.468,275.534,118.713z" id="path373"/>
		<path style="fill-rule:evenodd;clip-rule:evenodd;fill:#272828;" d="M297.187,114.598c-0.12-0.131-0.381-0.035-0.365,0.151    c0.125,1.371,0.57,2.519-0.489,3.689c-1.104,1.221-3.183,1.202-4.614,0.826c-0.168-0.044-0.407,0.021-0.482,0.196    c-0.726,1.708-2.165,2.275-3.719,1.123c-0.195-0.145-0.439-0.015-0.561,0.147c-1.354,1.786-3.209,1.839-4.344-0.18    c-0.145-0.256-0.584-0.083-0.483,0.205c0.992,2.82,3.645,2.962,5.283,0.754c0.846,0.558,1.931,0.95,2.887,0.483    c0.013,0.001,0.021,0.007,0.034,0.007c0.237,0,0.385-0.136,0.448-0.306c0.437-0.33,0.734-0.669,1.03-1.186    c0.261-0.454,1.472-0.149,1.985-0.167C296.609,120.242,299.508,117.138,297.187,114.598z" id="path374"/>
		<path style="fill-rule:evenodd;clip-rule:evenodd;fill:#272828;" d="M282.708,97.33c-0.088-0.146-0.309-0.15-0.396,0    c-0.411,0.713-0.489,1.46-1.239,1.962c-1.213,0.814-2.734,0.088-3.333-1.075c-0.179-0.348-0.621-0.263-0.818,0    c-1.59,2.123-2.341-1.012-2.471-1.767c-0.031-0.186-0.231-0.302-0.404-0.308c-0.723-0.025-3.494-1.146-1.919-2.187    c0.184-0.121,0.071-0.44-0.155-0.367c-2.578,0.837,0.145,3.05,1.619,3.369c0.338,0.073,0.75,2.42,1.413,2.862    c0.952,0.634,1.701,0.177,2.302-0.542c0.823,1.045,2.054,1.436,3.449,1.187C282.088,100.227,283.491,98.646,282.708,97.33z" id="path375"/>
		<path style="fill-rule:evenodd;clip-rule:evenodd;fill:#272828;" d="M345.022,136.154c-0.064-0.139-0.293-0.04-0.245,0.104    c0.888,2.681-1.938,4.188-3.921,2.372c-0.251-0.231-0.642-0.192-0.824,0.105c-1.528,2.504-3.346,2.252-5.381,0.542    c-0.239-0.2-0.623-0.202-0.788,0.1c-1.245,2.284-3.54,1.998-5.156,0.286c-0.184-0.196-0.507-0.184-0.694,0    c-1.21,1.19-2.676,1.888-4.124,0.58c-0.711-0.643-0.939-1.803-1.325-2.662c-0.141-0.313-0.543-0.109-0.574,0.155    c-0.357,3.042,3.023,5.863,5.709,3.585c0.847-0.718,0.849-0.286,1.618,0.302c0.663,0.507,1.442,0.658,2.248,0.72    c1.376,0.106,2.389-0.825,2.951-1.953c2.461,1.654,4.429,2.114,6.143-0.649C343.258,141.262,346.497,139.32,345.022,136.154z" id="path376"/>
		<path style="fill-rule:evenodd;clip-rule:evenodd;fill:#272828;" d="M306.759,136.019c-0.142,0.352-0.32,0.685-0.535,0.996    c-1.423,2.352-2.764,0.414-3.545-0.374c-0.215-0.217-0.6-0.172-0.752,0.096c-1.501,2.648-3.588,1.868-4.844-0.386    c-0.141-0.253-0.435-0.287-0.677-0.178c-2.572,1.173-3.584-2.389-4.108-3.955c-0.094-0.282-0.568-0.341-0.631,0    c-0.376,2.053,2.091,6.728,4.746,5.11c-0.386,0.235,2.47,2.317,3.038,2.345c1.491,0.074,2.401-0.717,3.024-1.877    c0.612,0.631,1.463,1.444,2.253,1.151c1.435-0.529,1.914-1.367,2.304-2.811C307.076,135.975,306.831,135.862,306.759,136.019z" id="path377"/>
		<path style="fill-rule:evenodd;clip-rule:evenodd;fill:#272828;" d="M357.48,89.873c-0.159-0.082-0.289,0.143-0.139,0.239    c1.665,1.065,0.237,3.934-1.36,2.193c-0.258-0.28-0.689-0.11-0.8,0.212c-0.731,2.117-2.572,2.647-4.09,0.89    c-0.213-0.247-0.689-0.188-0.832,0.107c-1.112,2.303-3.74,3.061-5.101,0.478c-0.164-0.31-0.684-0.407-0.918-0.118    c-1.562,1.937-2.871-0.646-3.52-1.62c-0.147-0.22-0.505-0.143-0.507,0.139c-0.022,2.382,2.479,4.236,4.329,2.812    c1.731,2.365,4.863,1.934,6.329-0.56c1.857,1.498,4.061,0.934,5.016-1.28C358.232,94.55,360.031,91.193,357.48,89.873z" id="path378"/>
		<path style="fill-rule:evenodd;clip-rule:evenodd;fill:#272828;" d="M326.992,76.456c-0.152-0.188-0.446,0.054-0.328,0.254    c0.849,1.442,0.305,5.508-2.113,3.449c-0.268-0.228-0.771-0.181-0.851,0.226c-0.192,0.973-0.686,1.407-1.286,1.518    c-0.069-0.04-0.148-0.07-0.248-0.07c-0.115,0-0.203,0.039-0.277,0.092c-0.774-0.069-1.629-0.525-2.243-1.029    c-0.311-0.256-0.778-0.179-0.903,0.238c-0.656,2.194-2.17,1.656-3.446,0.447c-0.181-0.17-0.48-0.05-0.485,0.201    c-0.024,1.349,0.989,2.034,2.26,2.115c1.145,0.073,1.969-0.824,2.434-1.783c1.897,1.239,4.35,1.427,5.047-0.917    c0.992,0.347,2.092,0.496,2.779-0.54C328.264,79.257,328.022,77.72,326.992,76.456z" id="path379"/>
		<path style="fill-rule:evenodd;clip-rule:evenodd;fill:#272828;" d="M372.367,110.134c-0.215-0.063-0.358,0.264-0.153,0.368    c-0.293,2.64-1.228,3.481-2.804,2.527c-0.355-0.171-0.696-0.366-1.022-0.586c-0.164-0.102-0.45-0.087-0.576,0.074    c-0.904,1.163-3.292,3.764-4.563,0.983c-0.144-0.316-0.663-0.3-0.811,0c-0.349,0.699-0.75,1.313-1.297,1.872    c-1.527,1.566-2.361,0.224-3.22-0.755c-0.246-0.282-0.696,0.018-0.606,0.354c0.97,3.627,4.323,1.808,5.657-0.458    c0.853,0.797,1.868,1.505,3.085,0.869c0.829-0.434,1.421-0.943,2.035-1.648c0.326-0.377,1.714,0.367,2.157,0.479    C372.949,114.901,375.459,111.041,372.367,110.134z" id="path380"/>
		<path style="fill-rule:evenodd;clip-rule:evenodd;fill:#272828;" d="M341.819,110.744c-0.11-0.419-0.74-0.241-0.647,0.179    c0.222,1.003,0.152,1.952-0.545,2.752c-0.89,1.019-2.101-0.032-2.664-0.791c-0.245-0.331-0.834-0.255-0.826,0.224    c0.029,1.691-1.521,1.06-2.588,1.142c-0.184,0.014-0.314,0.201-0.214,0.374c0.486,0.843,1.426,0.934,2.313,0.731    c0.675-0.153,1.085-0.62,1.271-1.191c0.771,0.72,1.718,1.085,2.823,0.535C342.15,113.996,342.16,112.027,341.819,110.744z" id="path381"/>
		<path style="fill-rule:evenodd;clip-rule:evenodd;fill:#272828;" d="M322.977,103.838c-0.075-0.226-0.388-0.131-0.35,0.097    c-1.844,2.564-3.281,2.884-4.309,0.956c-0.202-0.264-0.541-0.349-0.803-0.104c-1.808,1.686-3.413,1.531-5.002-0.211    c-0.21-0.229-0.554-0.137-0.711,0.092c-0.825,1.194-2.033,2.23-3.42,1.026c-0.625-0.545-0.861-1.77-1.121-2.542    c-0.142-0.425-0.727-0.334-0.76,0.103c-0.303,3.919,3.66,5.258,5.753,2.375c1.882,1.942,3.56,2.084,5.603,0.242    c0.917,0.939,2.423,2.237,3.692,1.515C323.036,106.541,323.521,105.478,322.977,103.838z" id="path382"/>
		<path style="fill-rule:evenodd;clip-rule:evenodd;fill:#272828;" d="M303.765,80.315c-1.096,0.219-1.772,0.813-2.943,0.313    c-1.123-0.479-1.658-1.726-1.047-2.815c0.175-0.312-0.109-0.65-0.445-0.578c-1.628,0.354-3.081-1.471-1.47-2.662    c0.136-0.101,0.019-0.318-0.135-0.231c-2.166,1.228-0.912,3.634,1.094,3.716c-0.434,1.296-0.014,2.489,1.255,3.336    c1.152,0.77,3.536,0.866,4.112-0.657C304.288,80.473,303.997,80.268,303.765,80.315z" id="path383"/>
	</g></svg>