<svg version="1.1" x="0px" y="0px" viewBox="417.28754548357955 33.00949952470915 87.26738714735768 176.26034819629587" style="enable-background:new 0 0 750 500;" xml:space="preserve" id="svg383" sodipodi:docname="simpletrees.svg" inkscape:version="1.4.2 (f4327f4, 2025-05-13)" xmlns:inkscape="http://www.inkscape.org/namespaces/inkscape" xmlns:sodipodi="http://sodipodi.sourceforge.net/DTD/sodipodi-0.dtd" xmlns="http://www.w3.org/2000/svg" xmlns:svg="http://www.w3.org/2000/svg"><defs id="defs383"/><g id="g52">
		<path style="fill-rule:evenodd;clip-rule:evenodd;fill:#FFFFFF;" d="M440.823,137.372c0,0-1.262,9.519,5.046,12.502    c6.31,2.98,3.103,10.324,5.621,13.762c8.52,11.625,7.644,39.694,4.129,57.347c-2.783,13.977,11.814,6.996,10.552-1.834    c-1.261-8.832-0.114-36.475-1.721-40.144c-1.605-3.671,0.999-13.985,1.146-19.154c0.15-5.166,16.286-17.549,16.058-25.231    c-0.229-7.686-2.925-3.271-3.154,0.056c-0.229,3.327-3.957,7.858-7.683,11.184c-3.729,3.325-7.113,8.43-7.857,10.725    c-0.746,2.293-3.499,12.844-3.499,12.844s-4.414-6.594-3.497-10.322c0.918-3.727,6.882-8.085,7.397-14.566    c0.517-6.479-0.229-11.525,0.746-12.5c0.975-0.976-3.154-3.786-3.44,1.662c-0.288,5.448-0.057,7.341-1.778,11.24    c-1.721,3.9-5.334,7.799-5.334,9.004c0,1.204-1.664-6.768-5.047-7.57c-3.383-0.803-4.872-6.021-4.872-8.889    C443.636,134.618,440.882,134.905,440.823,137.372z" id="path27"/>
		<path style="fill-rule:evenodd;clip-rule:evenodd;fill:#272828;" d="M441.531,137.458c-0.002,0.025-1.189,9.01,4.645,11.769    c4.294,2.029,4.559,5.779,4.801,9.212c0.133,1.871,0.257,3.638,1.09,4.774c3.87,5.282,5.842,13.818,6.521,23.235    c0.843,11.703-0.302,24.807-2.266,34.671c-0.686,3.453-0.288,5.474,0.649,6.427c0.523,0.529,1.245,0.722,2.043,0.645    c0.88-0.085,1.851-0.493,2.772-1.14c2.258-1.586,4.141-4.566,3.677-7.803c-0.59-4.142-0.657-12.348-0.723-20.318    c-0.073-9.059-0.143-17.81-0.943-19.641c-1.135-2.59-0.365-7.948,0.336-12.834c0.359-2.512,0.702-4.896,0.752-6.625    c0.073-2.54,3.345-6.327,6.95-10.503c4.356-5.043,9.227-10.68,9.106-14.689c-0.058-1.938-0.257-3.01-0.518-3.479l-0.111,0.139    c-0.532,0.699-1.01,2.141-1.097,3.424c-0.114,1.656-0.999,3.549-2.3,5.441c-1.504,2.188-3.566,4.393-5.622,6.229    c-1.68,1.497-3.29,3.367-4.61,5.168c-1.533,2.094-2.662,4.071-3.043,5.242c-0.738,2.273-3.479,12.774-3.487,12.806    c-0.099,0.382-0.492,0.608-0.873,0.509c-0.175-0.046-0.319-0.155-0.412-0.295c-0.014-0.018-4.591-6.853-3.598-10.888    c0.397-1.612,1.591-3.241,2.927-5.066c1.918-2.619,4.156-5.673,4.452-9.388c0.219-2.759,0.211-5.231,0.203-7.244    c-0.01-2.795-0.018-4.769,0.659-5.605c-0.095-0.156-0.292-0.313-0.532-0.404c-0.229-0.087-0.486-0.105-0.703,0.012    c-0.436,0.233-0.815,0.945-0.896,2.497c-0.05,0.93-0.081,1.713-0.111,2.424c-0.157,3.788-0.236,5.693-1.725,9.067    c-0.922,2.086-2.354,4.15-3.517,5.826c-0.983,1.416-1.757,2.532-1.757,2.89c0,0.571-0.244,0.84-0.74,0.84    c-0.552,0-0.729-0.507-1.014-1.313c-0.62-1.759-2.084-5.905-4.172-6.4c-1.676-0.398-2.928-1.69-3.802-3.287    c-1.108-2.023-1.624-4.566-1.624-6.299c0-0.721-0.189-1.133-0.436-1.285c-0.063-0.038-0.13-0.056-0.197-0.056    c-0.077,0-0.155,0.021-0.23,0.064c-0.278,0.158-0.503,0.559-0.52,1.18L441.531,137.458L441.531,137.458z M445.565,150.519    c-6.706-3.169-5.486-12.975-5.453-13.229c0.046-1.147,0.576-1.947,1.237-2.324c0.296-0.168,0.616-0.255,0.936-0.255    c0.326,0,0.651,0.09,0.949,0.274c0.632,0.394,1.115,1.217,1.115,2.499c0,1.545,0.46,3.812,1.446,5.61    c0.697,1.271,1.652,2.291,2.878,2.582c2.501,0.593,4.073,4.262,4.893,6.487c0.348-0.567,0.793-1.211,1.286-1.922    c1.125-1.622,2.511-3.618,3.381-5.591c1.384-3.135,1.459-4.945,1.608-8.547c0.032-0.749,0.065-1.573,0.111-2.441    c0.114-2.153,0.818-3.237,1.651-3.683c0.63-0.338,1.309-0.311,1.883-0.09c0.555,0.212,1.03,0.619,1.275,1.051    c0.31,0.546,0.313,1.136-0.148,1.599l-0.004,0.003c-0.348,0.349-0.342,2.128-0.332,4.694c0.006,2.06,0.017,4.592-0.203,7.356    c-0.329,4.118-2.695,7.35-4.727,10.122c-1.249,1.704-2.362,3.224-2.691,4.561c-0.595,2.417,1.346,6.285,2.537,8.349    c0.804-3.054,2.517-9.514,3.085-11.264c0.423-1.301,1.63-3.434,3.251-5.645c1.373-1.874,3.055-3.826,4.811-5.393    c1.989-1.775,3.975-3.893,5.398-5.966c1.164-1.694,1.952-3.347,2.049-4.731c0.104-1.534,0.708-3.303,1.389-4.195    c0.307-0.403,0.659-0.676,1.044-0.761c0.5-0.109,0.956,0.062,1.324,0.594c0.429,0.619,0.752,1.961,0.823,4.335    c0.137,4.563-4.926,10.422-9.453,15.663c-3.432,3.975-6.546,7.579-6.604,9.608c-0.054,1.837-0.4,4.248-0.764,6.786    c-0.673,4.696-1.411,9.847-0.442,12.063c0.916,2.094,0.987,10.991,1.062,20.199c0.063,7.911,0.131,16.057,0.713,20.129    c0.547,3.829-1.642,7.325-4.271,9.173c-1.117,0.785-2.329,1.281-3.462,1.392c-1.218,0.118-2.345-0.2-3.195-1.064    c-1.247-1.27-1.827-3.72-1.036-7.702c1.944-9.763,3.077-22.725,2.244-34.296c-0.661-9.174-2.552-17.449-6.246-22.491    c-1.078-1.471-1.218-3.437-1.364-5.518C449.337,155.505,449.102,152.191,445.565,150.519z" id="path28"/>
		<path style="fill-rule:evenodd;clip-rule:evenodd;fill:#FFFFFF;" d="M459.888,155.076c-0.703,5.656-7.492,7.835-8.102,3.326    c-1.399,8.218-9.652,6.886-8.167,0.745c-5.267,5.63-12.231,4.696-9.015-1.893c-7.048,6.421-15.784,0.273-6.142-2.523    c-12.426,0.488-11.158-5.869-4.508-6.48c-6.847-2.358-5.328-9.777,1.96-8.544c-5.645-0.938-7.369-7.089,0.783-8.66    c-8.502-1.132-6.051-8.657-0.13-5.621c-5.113-7.304,0.477-11.604,5.618-3.899c-0.961-6.703,2.248-6.483,7.906-3.527    c-3.724-2.087-6.982-8.105-2.811-9.118c-7.354,0.231-7.489-5.744-1.634-6.651c-5.281-1.039-6.85-6.817,0.98-7.284    c-4.602-0.324-10.548-7.377-1.895-7.856c-7.377-2.528-4.126-8,0.328-5.219c-3.34-4.65,0.858-7.293,2.678-4.357    c-0.298-3.785,0.541-6.803,4.674-2.925c0,0-2.743-6.74-0.064-8.402c2.678-1.663,4.18,3.269,4.18,3.269s-3.526-6.251-1.764-9.348    c1.764-3.097,3.789,0.229,3.789,0.229s-4.703-7.054-2.548-9.92c2.157-2.869,4.705,3.382,4.705,3.382s-4.313-9.863-1.83-11.642    c2.483-1.777,4.966,3.27,4.966,3.27s-2.876-7.513,0.914-8.946c3.789-1.434,3.136,4.531,3.136,4.531s1.634-6.824,6.337-6.251    c4.705,0.574,4.247,5.104,4.247,5.104s4.9-2.925,7.578,0.458c2.679,3.384-4.572,7.513-4.572,7.513s4.05-0.632,5.554,2.122    c1.502,2.752-3.529,4.472-3.529,4.472s4.442,0,6.077,2.524c1.632,2.523-3.529,4.472-3.529,4.472s5.685-0.4,7.121,2.812    c1.439,3.21-3.592,5.906-3.592,5.906s6.204-1.491,7.708,0.458c1.502,1.95-3.594,6.021-3.594,6.021s4.378-1.721,6.142,1.091    c1.763,2.811-5.554,5.104-5.554,5.104s7.972-0.459,8.886,2.752c0.915,3.212-6.077,5.736-6.077,5.736s4.247-0.977,5.751,2.179    c1.502,3.153-2.026,5.103-2.026,5.103s4.965,1.434,3.724,4.703c-1.241,3.269-6.532,1.777-6.532,1.777s4.966,2.266,4.638,4.186    c-0.325,1.922-7.773,1.893-7.773,1.893s5.912,0.518,5.944,2.124c0.033,1.604-3.725,3.411-3.725,3.411s6.732-1.663,7.744-0.229    c1.013,1.434-0.26,3.27-0.26,3.27s6.956-1.922,7.807,1.376c0.849,3.298-4.835,3.584-4.835,3.584s4.148,3.039,2.743,5.505    c-1.405,2.466-9.374-0.344-9.374-0.344s5.749,2.695,4.965,4.931c-0.783,2.237-3.461,3.04-3.461,3.04s7.903-1.892,8.622,1.549    c0.721,3.441-3.331,4.588-3.331,4.588s6.73,1.147,6.076,5.333c-0.653,4.186-6.534,3.268-6.534,3.268s5.227,3.957,2.026,6.078    c-3.2,2.122-5.03-1.721-5.03-1.721c-1.555,7.255-9.838,8.1-10.389,0.46c-1.427,6.337-7.777,6.782-7.709-0.114    c-4.578,6.621-10.872,4.17-8.363-2.122C466.611,160.26,460.4,160.107,459.888,155.076z" id="path29"/>
		<path style="fill-rule:evenodd;clip-rule:evenodd;fill:#272828;" d="M459.931,157.508c-0.675,1.453-1.74,2.56-2.889,3.238    c-0.707,0.417-1.451,0.678-2.161,0.762l-0.022,0.002c-0.746,0.084-1.461-0.023-2.072-0.342c-0.309-0.159-0.587-0.37-0.825-0.631    c-0.821,2.223-2.223,3.53-3.675,4.061c-0.732,0.267-1.484,0.336-2.186,0.226c-0.717-0.111-1.382-0.409-1.927-0.874    c-0.795-0.676-1.342-1.695-1.434-2.994c-1.932,1.606-3.967,2.457-5.633,2.585c-0.888,0.068-1.689-0.064-2.344-0.393    c-0.699-0.352-1.22-0.92-1.49-1.694c-0.215-0.614-0.263-1.357-0.104-2.222c-2.519,1.543-5.057,1.805-6.855,1.378    c-0.996-0.235-1.796-0.69-2.283-1.271c-0.566-0.676-0.73-1.494-0.353-2.348c0.235-0.538,0.713-1.083,1.477-1.593    c-2.955-0.225-4.846-0.947-5.852-1.85c-0.603-0.54-0.924-1.153-0.999-1.785c-0.075-0.64,0.108-1.275,0.516-1.857    c0.554-0.79,1.557-1.489,2.898-1.93c-1.427-0.903-2.305-2.076-2.672-3.271c-0.243-0.785-0.267-1.582-0.085-2.326    c0.184-0.75,0.574-1.443,1.16-2.014c0.595-0.58,1.392-1.034,2.373-1.287c-0.523-0.381-0.96-0.819-1.291-1.291    c-0.489-0.692-0.764-1.466-0.787-2.256c-0.024-0.798,0.211-1.6,0.737-2.339c0.572-0.801,1.496-1.526,2.82-2.086    c-1.663-0.644-2.68-1.605-3.157-2.598c-0.361-0.752-0.425-1.527-0.233-2.223c0.191-0.707,0.644-1.32,1.303-1.736    c0.76-0.479,1.802-0.691,3.039-0.458c-1.087-2.112-1.296-3.932-0.911-5.205c0.215-0.717,0.611-1.28,1.148-1.653    c0.539-0.375,1.202-0.55,1.945-0.49c1.228,0.102,2.71,0.872,4.2,2.493c0.045-2.204,0.799-3.379,2.147-3.781    c0.799-0.239,1.796-0.15,2.968,0.193c-0.315-0.417-0.6-0.846-0.845-1.279c-0.518-0.922-0.862-1.876-0.943-2.752    c-0.075-0.804,0.067-1.543,0.481-2.15c-1.677-0.27-2.857-0.923-3.554-1.742c-0.448-0.528-0.703-1.127-0.77-1.745l-0.002-0.023    c-0.06-0.608,0.066-1.23,0.376-1.811c0.405-0.767,1.14-1.466,2.182-1.966c-1.026-0.537-1.813-1.262-2.292-2.054    c-0.379-0.624-0.57-1.298-0.549-1.968c0.025-0.687,0.273-1.354,0.775-1.941c0.509-0.593,1.286-1.105,2.366-1.465    c-1.258-0.665-2.395-1.623-3.126-2.638c-0.458-0.635-0.772-1.306-0.879-1.961c-0.116-0.727,0.014-1.424,0.462-2.036    c0.421-0.572,1.125-1.048,2.177-1.36c-1.45-0.869-2.233-1.886-2.51-2.833c-0.195-0.673-0.148-1.317,0.095-1.872    c0.24-0.557,0.675-1.013,1.251-1.308c0.636-0.326,1.448-0.451,2.354-0.28c-0.497-1.286-0.46-2.388-0.114-3.211l0.02-0.042    c0.205-0.469,0.511-0.852,0.876-1.127c0.385-0.291,0.839-0.466,1.316-0.509c0.466-0.042,0.949,0.042,1.407,0.267    c0.023-0.782,0.118-1.491,0.308-2.065c0.205-0.625,0.531-1.116,0.999-1.414c0.497-0.316,1.102-0.396,1.829-0.169    c0.28,0.087,0.582,0.224,0.908,0.413c-0.612-2.313-1.098-5.758,0.951-7.029l0.056-0.03c0.741-0.446,1.404-0.528,1.989-0.38    c-0.51-1.87-0.715-3.931,0.13-5.414c0.752-1.321,1.533-1.779,2.25-1.792c-1.21-2.469-2.451-5.989-0.959-7.975    c0.988-1.315,1.987-1.337,2.875-0.791c-0.866-3.006-1.425-6.491,0.154-7.621c1.399-1.004,2.735-0.434,3.793,0.516    c-0.367-2.421-0.223-5.343,2.252-6.279c2.471-0.936,3.491,0.421,3.894,1.992c1.072-1.973,2.94-4.117,5.917-3.754l0.037,0.005    c3.719,0.472,4.604,3.11,4.798,4.686c1.727-0.729,5.22-1.692,7.462,1.139c2.147,2.712-0.725,5.639-2.855,7.274    c1.376,0.206,3.008,0.818,3.903,2.461c1.084,1.983-0.312,3.478-1.727,4.402c1.484,0.336,3.276,1.047,4.247,2.547    c1.168,1.805-0.128,3.299-1.525,4.276c1.887,0.273,4.247,1.037,5.173,3.104c0.901,2.015-0.233,3.802-1.508,5.042    c2.026-0.188,4.539-0.115,5.535,1.178c1.157,1.499-0.389,3.706-1.823,5.242c1.517-0.097,3.339,0.219,4.411,1.925    c1.284,2.049-0.815,3.763-2.866,4.858c2.522,0.244,5.658,0.993,6.282,3.182c0.634,2.229-1.63,4.082-3.661,5.252    c1.245,0.285,2.544,0.982,3.292,2.552c1.16,2.435-0.146,4.241-1.216,5.215c1.583,0.747,3.986,2.383,2.936,5.15    c-0.708,1.865-2.441,2.449-4.052,2.554c1.25,0.914,2.395,2.098,2.195,3.275c-0.193,1.128-1.895,1.745-3.725,2.082    c1.061,0.425,1.887,1.009,1.902,1.801c0.014,0.741-0.515,1.476-1.199,2.113c2.054-0.256,4.402-0.299,5.089,0.673    c0.64,0.904,0.591,1.901,0.375,2.685c2.26-0.396,6.525-0.729,7.279,2.195c0.718,2.794-2.022,3.854-3.887,4.248    c1.246,1.242,2.856,3.385,1.726,5.37c-0.874,1.533-3.539,1.488-5.929,1.081c1.137,1.004,1.987,2.206,1.573,3.389    c-0.228,0.645-0.587,1.188-0.997,1.635c2.532-0.164,5.676,0.145,6.184,2.573c0.482,2.31-0.794,3.735-2,4.542    c2.142,0.735,5.256,2.379,4.749,5.633c-0.487,3.115-3.321,3.833-5.325,3.941c1.477,1.558,3.17,4.129,0.506,5.893    c-2.426,1.607-4.183,0.435-5.161-0.677c-0.766,2.034-2.082,3.466-3.545,4.234c-0.882,0.464-1.821,0.689-2.733,0.663    c-0.932-0.025-1.829-0.312-2.61-0.867c-0.819-0.582-1.504-1.458-1.95-2.64c-0.663,1.232-1.545,2.101-2.477,2.585l-0.04,0.02    c-0.667,0.338-1.365,0.486-2.036,0.436c-0.703-0.053-1.37-0.32-1.944-0.808l-0.045-0.042c-0.727-0.638-1.287-1.641-1.544-3.018    c-1.545,1.693-3.205,2.561-4.659,2.746c-0.841,0.106-1.622-0.009-2.289-0.321c-0.688-0.32-1.245-0.843-1.62-1.537    c-0.226-0.418-0.383-0.9-0.46-1.436c-0.28,0.23-0.579,0.422-0.887,0.577c-0.716,0.36-1.492,0.52-2.248,0.483    c-0.766-0.037-1.512-0.273-2.165-0.706C460.748,158.571,460.288,158.1,459.931,157.508L459.931,157.508z M456.313,159.516    c1.371-0.811,2.598-2.391,2.863-4.527c0.042-0.325,0.303-0.591,0.64-0.624c0.393-0.038,0.742,0.248,0.781,0.641    c0.133,1.311,0.705,2.218,1.461,2.72c0.434,0.288,0.934,0.447,1.44,0.472c0.518,0.024,1.048-0.086,1.539-0.334    c0.695-0.349,1.318-0.977,1.729-1.887c0.095-0.357,0.217-0.728,0.369-1.109c0.144-0.365,0.559-0.545,0.925-0.4    c0.332,0.133,0.51,0.484,0.433,0.822c-0.097,0.424-0.227,0.817-0.383,1.179c-0.294,1.197-0.195,2.166,0.176,2.854    c0.225,0.419,0.559,0.731,0.965,0.922c0.425,0.199,0.937,0.27,1.506,0.198c1.463-0.187,3.228-1.299,4.815-3.596    c0.131-0.188,0.348-0.309,0.594-0.307c0.393,0.002,0.711,0.325,0.707,0.719c-0.018,1.905,0.476,3.151,1.2,3.795l0.035,0.026    c0.335,0.285,0.723,0.441,1.127,0.472c0.41,0.031,0.849-0.063,1.278-0.281l0.032-0.018c1.111-0.577,2.143-1.931,2.619-4.008    c0.055-0.316,0.319-0.567,0.655-0.591c0.393-0.027,0.733,0.269,0.762,0.662c0.147,2.046,0.884,3.392,1.876,4.099    c0.545,0.387,1.173,0.586,1.822,0.604c0.669,0.018,1.365-0.15,2.03-0.5c1.455-0.765,2.737-2.378,3.247-4.759    c0.045-0.205,0.18-0.39,0.381-0.49c0.353-0.176,0.781-0.032,0.957,0.319c0.004,0.009,1.484,3.11,3.998,1.443    c2.227-1.477-1.591-4.545-2.026-4.886c-0.226-0.148-0.355-0.419-0.313-0.703c0.058-0.391,0.423-0.659,0.813-0.602    c0.014,0.002,5.181,0.807,5.722-2.67c0.517-3.307-4.865-4.404-5.445-4.513c-0.278-0.029-0.525-0.223-0.609-0.507    c-0.113-0.379,0.103-0.777,0.482-0.891c0.008-0.003,3.418-0.971,2.836-3.756c-0.545-2.61-7.154-1.14-7.721-1.01l-0.002,0.001    c-0.379,0.111-0.775-0.105-0.889-0.484c-0.11-0.378,0.107-0.775,0.486-0.887c0.006-0.002,2.324-0.697,2.987-2.589    c0.572-1.629-4.578-4.041-4.592-4.048c-0.33-0.154-0.494-0.534-0.373-0.883c0.13-0.373,0.536-0.569,0.909-0.44    c0.021,0.008,7.411,2.61,8.518,0.666c1.087-1.905-2.542-4.574-2.553-4.582c-0.163-0.123-0.272-0.314-0.281-0.534    c-0.022-0.394,0.281-0.729,0.675-0.749c0.014-0.001,4.812-0.245,4.182-2.696c-0.667-2.586-6.911-0.865-6.929-0.86    c-0.195,0.052-0.411,0.022-0.591-0.101c-0.327-0.223-0.41-0.667-0.188-0.992c0.002-0.005,0.991-1.431,0.267-2.455    c-0.732-1.038-6.969,0.507-6.986,0.511c-0.323,0.081-0.671-0.075-0.819-0.389c-0.167-0.356-0.016-0.782,0.342-0.951    c0.01-0.004,3.339-1.601,3.315-2.751c-0.02-0.933-4.906-1.39-5.27-1.422c-0.377-0.02-0.679-0.333-0.679-0.716    c0-0.395,0.322-0.716,0.717-0.716c0.02,0,6.846,0.021,7.069-1.293c0.223-1.312-3.798-3.218-4.198-3.404    c-0.335-0.134-0.523-0.503-0.424-0.857c0.106-0.38,0.501-0.602,0.882-0.496c0.012,0.004,4.663,1.314,5.672-1.341    c0.945-2.49-3.083-3.713-3.254-3.765c-0.172-0.049-0.328-0.163-0.423-0.331c-0.197-0.343-0.077-0.781,0.265-0.977    c0.008-0.005,2.946-1.63,1.734-4.175c-1.255-2.634-4.945-1.789-4.957-1.787c-0.34,0.07-0.689-0.115-0.813-0.45    c-0.138-0.368,0.05-0.78,0.419-0.917c0.02-0.007,6.366-2.308,5.638-4.871c-0.726-2.547-7.553-2.266-8.125-2.237    c-0.331,0.034-0.653-0.168-0.756-0.499c-0.116-0.376,0.093-0.777,0.47-0.895c0.018-0.006,6.432-2.019,5.163-4.041    c-1.382-2.199-4.912-0.942-5.254-0.815c-0.288,0.126-0.633,0.049-0.841-0.208c-0.246-0.307-0.197-0.756,0.109-1.004    c0.014-0.011,4.547-3.638,3.475-5.028c-1.17-1.521-6.503-0.311-6.944-0.208c-0.318,0.092-0.665-0.046-0.827-0.348    c-0.188-0.348-0.058-0.781,0.29-0.968c0.012-0.007,4.444-2.384,3.28-4.986c-1.232-2.755-6.408-2.39-6.422-2.389    c-0.304,0.019-0.599-0.159-0.713-0.459c-0.142-0.367,0.044-0.779,0.411-0.92c0.012-0.005,4.333-1.642,3.183-3.418    c-1.421-2.196-5.465-2.196-5.477-2.196c-0.294-0.003-0.568-0.185-0.671-0.476c-0.134-0.37,0.06-0.78,0.431-0.912    c0.012-0.004,4.235-1.459,3.142-3.46c-1.259-2.309-4.814-1.756-4.823-1.755c-0.28,0.04-0.57-0.09-0.723-0.35    c-0.197-0.342-0.081-0.778,0.261-0.976c0.02-0.012,6.53-3.729,4.371-6.454c-2.287-2.89-6.643-0.292-6.654-0.284    c-0.124,0.071-0.27,0.108-0.425,0.095c-0.393-0.033-0.683-0.38-0.649-0.771c0-0.011,0.388-3.836-3.609-4.33l-0.014-0.002    c-4.067-0.495-5.552,5.696-5.558,5.714c-0.085,0.338-0.406,0.572-0.762,0.537c-0.393-0.038-0.679-0.388-0.642-0.78    c0.002-0.014,0.522-4.813-2.173-3.792c-3.112,1.177-0.505,8.01-0.499,8.028c0.126,0.338-0.02,0.723-0.35,0.887    c-0.351,0.176-0.781,0.033-0.957-0.319c-0.006-0.012-2.115-4.29-3.909-3.006c-1.784,1.278,1.218,8.758,1.924,10.44    c0.095,0.212,0.148,0.34,0.148,0.343c0.153,0.364-0.019,0.784-0.383,0.938c-0.365,0.152-0.786-0.019-0.938-0.384    c-0.006-0.014-2.084-5.081-3.474-3.232c-1.85,2.46,2.561,9.079,2.573,9.098l0.014,0.026c0.205,0.336,0.097,0.774-0.24,0.979    c-0.328,0.198-0.752,0.101-0.964-0.216l-0.1-0.152c-0.317-0.451-1.478-1.865-2.473-0.118c-0.945,1.662-0.103,4.476,0.713,6.441    c0.738,1.115,1.111,2.339,1.113,2.347c0.114,0.377-0.1,0.775-0.477,0.89c-0.327,0.1-0.671-0.049-0.83-0.336    c-0.004-0.007-0.523-0.926-1.07-2.253c-0.528-0.742-1.241-1.276-2.088-0.771l-0.022,0.015c-2.062,1.28,0.12,6.957,0.332,7.491    c0.122,0.258,0.08,0.575-0.127,0.794c-0.271,0.287-0.723,0.3-1.008,0.03c-0.948-0.888-1.682-1.374-2.236-1.548    c-0.292-0.091-0.502-0.081-0.638,0.007c-0.168,0.105-0.302,0.336-0.406,0.658c-0.259,0.78-0.29,1.952-0.189,3.232    c0.018,0.258-0.103,0.518-0.34,0.662c-0.333,0.207-0.773,0.104-0.98-0.231c-0.411-0.663-0.957-0.935-1.437-0.892    c-0.208,0.019-0.409,0.098-0.583,0.23c-0.173,0.131-0.323,0.317-0.426,0.55l-0.012,0.032c-0.33,0.784-0.182,2.033,0.938,3.608    c0.188,0.23,0.219,0.564,0.053,0.831c-0.207,0.334-0.649,0.437-0.984,0.229c-1.2-0.749-2.25-0.804-2.917-0.461    c-0.276,0.142-0.481,0.354-0.592,0.608c-0.113,0.256-0.131,0.566-0.032,0.902c0.278,0.959,1.413,2.061,3.821,2.886    c0.269,0.092,0.468,0.338,0.483,0.638c0.021,0.394-0.28,0.731-0.673,0.753c-1.987,0.109-3.073,0.557-3.518,1.16    c-0.205,0.279-0.26,0.612-0.203,0.967c0.069,0.427,0.292,0.891,0.626,1.353c1.069,1.483,3.159,2.819,4.999,2.95    c0.354,0.025,0.642,0.309,0.663,0.672c0.023,0.394-0.276,0.732-0.671,0.755c-2.277,0.135-3.649,0.724-4.305,1.488    c-0.282,0.329-0.42,0.691-0.432,1.058c-0.015,0.384,0.108,0.79,0.347,1.185c0.582,0.963,1.826,1.808,3.505,2.137    c0.286,0.059,0.52,0.288,0.566,0.594c0.062,0.39-0.205,0.754-0.594,0.813c-1.752,0.272-2.873,1.022-3.331,1.883    c-0.176,0.325-0.249,0.667-0.217,0.999l0.002,0.015c0.035,0.334,0.181,0.669,0.439,0.973c0.711,0.837,2.219,1.437,4.593,1.365    c0.337-0.019,0.649,0.205,0.73,0.544c0.093,0.383-0.143,0.77-0.525,0.862c-0.458,0.111-0.789,0.291-1.011,0.521    c-0.325,0.339-0.437,0.829-0.385,1.395c0.061,0.663,0.342,1.42,0.77,2.183c0.829,1.47,2.189,2.902,3.618,3.703    c0.333,0.19,0.462,0.611,0.282,0.954c-0.182,0.349-0.614,0.483-0.963,0.302l-0.061-0.032c-2.639-1.373-4.668-2.121-5.838-1.772    c-1.009,0.299-1.388,1.679-0.969,4.6c0.037,0.263-0.075,0.536-0.311,0.692c-0.327,0.221-0.77,0.133-0.99-0.195    c-1.684-2.523-3.353-3.65-4.597-3.751c-0.404-0.034-0.752,0.051-1.019,0.237c-0.269,0.188-0.475,0.489-0.596,0.886    c-0.375,1.247,0.056,3.271,1.769,5.72c0.147,0.209,0.178,0.492,0.053,0.737c-0.179,0.351-0.609,0.489-0.959,0.309    c-1.593-0.816-2.846-0.776-3.6-0.303c-0.351,0.222-0.588,0.541-0.686,0.903c-0.103,0.373-0.062,0.803,0.144,1.233    c0.508,1.052,1.952,2.072,4.654,2.438c0.311,0.025,0.582,0.255,0.646,0.579c0.072,0.387-0.18,0.762-0.568,0.835    c-2.383,0.46-3.825,1.307-4.516,2.273c-0.34,0.476-0.492,0.979-0.476,1.472c0.014,0.499,0.199,1.005,0.528,1.473    c0.675,0.958,1.939,1.736,3.6,2.025l0.062,0.01c0.391,0.065,0.653,0.434,0.588,0.822c-0.064,0.39-0.432,0.653-0.822,0.588    c-2.201-0.373-3.786,0.104-4.682,0.98c-0.389,0.379-0.647,0.834-0.767,1.326c-0.12,0.496-0.103,1.034,0.063,1.57    c0.393,1.278,1.616,2.543,3.775,3.287c0.256,0.091,0.451,0.324,0.478,0.613c0.037,0.392-0.253,0.739-0.646,0.774    c-2,0.184-3.431,0.902-4.03,1.763c-0.203,0.29-0.298,0.591-0.265,0.877c0.034,0.292,0.205,0.594,0.529,0.884    c1.104,0.991,3.675,1.71,8.182,1.533c0.32-0.013,0.62,0.193,0.713,0.515c0.11,0.379-0.108,0.774-0.487,0.884    c-2.244,0.65-3.361,1.436-3.675,2.15c-0.134,0.304-0.069,0.602,0.142,0.854c0.291,0.347,0.821,0.631,1.517,0.796    c1.885,0.446,4.781-0.045,7.458-2.472c0.209-0.207,0.534-0.27,0.814-0.134c0.355,0.173,0.504,0.602,0.332,0.957    c-0.742,1.518-0.893,2.656-0.628,3.415c0.143,0.405,0.416,0.702,0.785,0.889c0.417,0.209,0.964,0.292,1.595,0.243    c1.753-0.135,4.028-1.256,6.069-3.423c0.167-0.203,0.443-0.305,0.718-0.239c0.383,0.093,0.618,0.479,0.525,0.862    c-0.403,1.662,0.004,2.882,0.783,3.544c0.348,0.295,0.77,0.484,1.224,0.556c0.468,0.073,0.977,0.023,1.483-0.16    c1.417-0.517,2.788-2.086,3.277-4.97c0.052-0.301,0.293-0.548,0.61-0.591c0.391-0.052,0.752,0.223,0.804,0.613    c0.112,0.821,0.469,1.339,0.955,1.592c0.349,0.183,0.781,0.241,1.247,0.191l0.018-0.002    C455.229,160.026,455.78,159.831,456.313,159.516z" id="path30"/>
		<path style="fill-rule:evenodd;clip-rule:evenodd;fill:#272828;" d="M463.251,183.29c0.213-3.152-0.956-5.983-1.714-9.002    c-0.773-3.08-1.657-5.854-3.77-8.295c-0.157-0.182-0.404,0.019-0.368,0.216c0.186,1.03,0.55,1.671,1.064,2.599    c0.856,1.54,1.32,3.23,1.837,4.902c0.375,1.214,0.69,2.434,1.233,3.588c0.962,2.046,1.336,3.766,1.51,5.992    C463.053,183.424,463.242,183.424,463.251,183.29z" id="path31"/>
		<path style="fill-rule:evenodd;clip-rule:evenodd;fill:#272828;" d="M461.825,160.115c-0.23,1.208,0.299,2.3,0.78,3.394    c0.872,1.982,0.87,4.01,1.516,6.02c0.057,0.184,0.313,0.144,0.327-0.044c0.235-3.36-1.539-6.24-2.382-9.37    C462.037,160.001,461.85,159.99,461.825,160.115z" id="path32"/>
		<path style="fill-rule:evenodd;clip-rule:evenodd;fill:#272828;" d="M461.388,161.815c-0.334,2.807,1.689,5.464,2.554,8.023    c0.027,0.078,0.149,0.067,0.147-0.02c-0.037-2.845-2.433-5.118-2.518-8.004C461.567,161.695,461.401,161.701,461.388,161.815z" id="path33"/>
		<path style="fill-rule:evenodd;clip-rule:evenodd;fill:#272828;" d="M453.339,160.214c-0.018,1.604-1.493,4.91-0.053,6.194    c0.122,0.107,0.28,0.026,0.298-0.125c0.061-0.51-0.099-0.916-0.15-1.437c-0.049-0.511,0.011-1.038,0.058-1.548    c0.097-1.076,0.141-2.034-0.012-3.104C453.468,160.115,453.339,160.137,453.339,160.214z" id="path34"/>
		<path style="fill-rule:evenodd;clip-rule:evenodd;fill:#272828;" d="M454.274,160.977c-0.268,1.716-2.017,4.962-0.487,6.464    c0.145,0.142,0.363,0.031,0.377-0.157c0.075-1.093-0.11-2.084,0.085-3.201c0.184-1.049,0.391-1.994,0.304-3.067    C454.539,160.867,454.301,160.809,454.274,160.977z" id="path35"/>
		<path style="fill-rule:evenodd;clip-rule:evenodd;fill:#272828;" d="M464.843,188.973c-0.422,1.189-0.369,2.261-0.323,3.521    c0.083,2.302-0.557,4.604-1.765,6.543c-1.265,2.031-4.881,3.29-5.336,5.688c-0.034,0.174,0.18,0.264,0.282,0.118    c1.693-2.424,4.557-3.637,6.12-6.218c1.736-2.863,1.16-6.448,1.417-9.601C465.256,188.788,464.916,188.772,464.843,188.973z" id="path36"/>
		<path style="fill-rule:evenodd;clip-rule:evenodd;fill:#272828;" d="M465.007,198.294c-0.775,1.711-1.6,3.392-3.037,4.65    c-1.289,1.131-3.039,2.031-3.813,3.617c-0.069,0.142,0.104,0.29,0.221,0.172c1.355-1.356,2.95-2.515,4.228-3.936    c1.184-1.319,1.974-2.766,2.652-4.396C465.316,198.255,465.07,198.152,465.007,198.294z" id="path37"/>
		<path style="fill-rule:evenodd;clip-rule:evenodd;fill:#272828;" d="M460.872,198.513c1.828-3.519,4.887-8.127,3.9-12.294    c-0.044-0.184-0.313-0.174-0.361,0c-0.557,1.952-0.588,3.99-1.212,5.946c-0.681,2.133-1.695,4.183-2.548,6.254    C460.6,198.547,460.811,198.632,460.872,198.513z" id="path38"/>
		<path style="fill-rule:evenodd;clip-rule:evenodd;fill:#272828;" d="M462.266,206.306c-0.524,0.947-1.189,1.804-1.713,2.743    c-0.069,0.125,0.073,0.277,0.199,0.2c0.995-0.602,1.357-1.815,1.734-2.851C462.534,206.268,462.331,206.187,462.266,206.306z" id="path39"/>
		<path style="fill-rule:evenodd;clip-rule:evenodd;fill:#272828;" d="M435.668,141.689c-2.129,1.171-1.194,3.929,0.497,5.147    c0.769,0.553,1.508,0.802,2.398,0.396c0.195-0.09,0.521-0.471,0.586-0.669c0.025-0.071,0.8,0.945,1.065,1.09    c0.924,0.501,2.068,0.654,2.965-0.043c0.663-0.517,0.969-1.119,1.401-1.827c0.221-0.358,0.856,0.365,1.265,0.477    c2.356,0.641,5.94-0.309,4.284-3.402c-0.146-0.274-0.534-0.128-0.55,0.15c-0.2,3.492-2.623,2.15-4.906,1.902    c-0.073-0.008-0.168,0.048-0.2,0.115c-1.02,2.097-3.42,2.531-4.777,0.441c-0.255-0.393-0.872-0.146-0.758,0.318    c0.505,2.021-2.602-0.059-2.816-0.288c-0.928-0.983-1.249-2.511-0.288-3.593C435.936,141.789,435.807,141.612,435.668,141.689z" id="path40"/>
		<path style="fill-rule:evenodd;clip-rule:evenodd;fill:#272828;" d="M475.31,141.116c-0.014-0.069-0.112-0.095-0.159-0.043    c-1.386,1.537-2.894,2.616-4.409,0.412c-0.188-0.272-0.58-0.229-0.689,0.09c-0.93,2.757-4.162,1.447-3.685-1.174    c0.053-0.289-0.348-0.404-0.442-0.121c-1.186,3.536,3.131,5.257,4.546,2.352c0.358,0.544,0.861,0.964,1.463,1.165    c0.078,0.07,0.179,0.121,0.315,0.121c0.042,0,0.074-0.015,0.111-0.023c0.256,0.036,0.522,0.045,0.803-0.006    C474.49,143.65,475.617,142.53,475.31,141.116z" id="path41"/>
		<path style="fill-rule:evenodd;clip-rule:evenodd;fill:#272828;" d="M474.92,140.782c0.756,1.455,2.513,1.976,4.028,1.536    c1.352-0.393,2.859-2.148,2.121-3.591c-0.095-0.186-0.402-0.188-0.497,0c-0.553,1.113-0.515,2.17-1.877,2.673    c-1.259,0.466-2.356-0.176-3.232-1.037C475.177,140.08,474.74,140.437,474.92,140.782z" id="path42"/>
		<path style="fill-rule:evenodd;clip-rule:evenodd;fill:#272828;" d="M480.797,120.279c-0.207-0.143-0.434,0.17-0.262,0.341    c1.545,1.544,0.333,4.325-1.737,2.761c-0.246-0.187-0.651,0.008-0.714,0.291c-0.46,2.056-2.733,4.183-4.171,1.479    c-0.213-0.401-0.779-0.268-0.909,0.119c-0.934,2.806-2.925-0.611-2.967-1.469c-0.021-0.433-0.449-0.672-0.834-0.479    c-1.254,0.634-2.548,0.575-2.795-1.097c-0.061-0.416-0.69-0.365-0.787,0c-0.647,2.438,1.619,2.906,3.443,2.334    c0.611,2.157,3.189,3.806,4.469,1.898c1.703,2.326,4.476,0.651,5.324-1.907C481.541,125.829,483.322,122.011,480.797,120.279z" id="path43"/>
		<path style="fill-rule:evenodd;clip-rule:evenodd;fill:#272828;" d="M454.334,109.324c-0.186-0.038-0.329,0.141-0.241,0.312    c1.238,2.381-2.068,2.825-3.718,1.895c-0.247-0.14-0.616-0.022-0.679,0.276c-0.533,2.548-2.882,0.49-3.489-0.605    c-0.178-0.321-0.59-0.198-0.707,0.093c-1.387,1.091-2.204,0.978-2.453-0.342c-0.205-0.515-0.292-1.08-0.416-1.618    c-0.064-0.276-0.433-0.183-0.458,0.061c-0.164,1.485,0.336,3.094,1.556,4.012c0.965,0.726,1.707-0.255,2.162-1.134    c1.211,1.911,3.869,2.788,4.577,0.329c1.438,0.583,3.448,0.572,4.568-0.558C456.031,111.041,455.803,109.623,454.334,109.324z" id="path44"/>
		<path style="fill-rule:evenodd;clip-rule:evenodd;fill:#272828;" d="M480.394,82.021c-0.025-0.126-0.221-0.096-0.219,0.03    c0.278,1.933-0.817,2.576-3.288,1.931c-0.286-0.264-0.655-0.118-0.793,0.209c-0.571,1.357-1.962,2.807-3.193,2.454    c-0.037-0.02-0.082-0.029-0.127-0.039c-0.445-0.176-0.865-0.596-1.211-1.367c-0.152-0.342-0.634-0.336-0.873-0.113    c-2.266,2.11-2.842,0.101-3.387-1.016c-0.189-0.392-0.75-0.173-0.768,0.209c-0.135,2.803,2.508,3.343,4.358,2.074    c1.575,2.737,4.64,1.341,5.858-1.296C479.091,86.802,481.017,84.992,480.394,82.021z" id="path45"/>
		<path style="fill-rule:evenodd;clip-rule:evenodd;fill:#272828;" d="M454.689,78.195c-0.817,0.741-1.689,1.314-2.724,0.542    c-0.182-0.136-0.508-0.041-0.602,0.157c-0.817,1.703-2.507,2.318-2.93-0.028c-0.059-0.318-0.532-0.437-0.739-0.195    c-1.26,1.461-1.453-1.473-1.273-2.314c0.042-0.194-0.232-0.271-0.296-0.081c-0.308,0.919-0.618,2.405-0.067,3.29    c0.482,0.774,1.098,0.69,1.651,0.298c0.675,2.275,3.666,2.232,4.347-0.095c1.211,0.468,2.636,0.064,2.919-1.406    C455.007,78.194,454.821,78.077,454.689,78.195z" id="path46"/>
		<path style="fill-rule:evenodd;clip-rule:evenodd;fill:#272828;" d="M468.565,57.641c-0.014-0.192-0.286-0.193-0.3,0    c-0.141,2.203-2.474,3.709-4.064,1.68c-0.17-0.217-0.603-0.159-0.715,0.092c-0.404,0.917-2.096,3.617-3.435,1.496    c-0.193-0.309-0.585-0.422-0.908-0.237c-3.061,1.749-4.006-1.452-4.484-3.535c-0.088-0.384-0.671-0.374-0.764,0    c-0.854,3.417,2.296,6.207,5.385,4.934c1.583,1.766,3.94,0.516,4.796-1.543C466.252,62.588,468.789,60.837,468.565,57.641z" id="path47"/>
		<path style="fill-rule:evenodd;clip-rule:evenodd;fill:#272828;" d="M446.396,123.057c-0.235,1.025-1.028,2.514-2.161,1.182    c-0.259-0.303-0.756-0.121-0.857,0.226c-0.308,1.08-1.299,1.568-2.366,1.56c-1.237-0.01-1.042-1.135-1.819-1.632    c-0.097-0.062-0.212-0.03-0.293,0.038c-1.233,1.024,0.893,2.547,1.857,2.628c1.333,0.113,2.609-0.478,3.273-1.583    c1.591,1.293,2.89-0.327,2.93-2.341C446.969,122.811,446.47,122.739,446.396,123.057z" id="path48"/>
		<path style="fill-rule:evenodd;clip-rule:evenodd;fill:#272828;" d="M484.504,97.352c-0.097-0.084-0.255,0.023-0.182,0.142    c2.003,3.274-1.832,4.153-3.932,2.914c-0.244-0.145-0.634-0.021-0.689,0.281c-0.535,2.804-2.87,3.102-4.695,1.181    c-0.288-0.304-0.736-0.119-0.866,0.229c-1.003,2.685-6.075,3.437-4.976-0.287c0.118-0.4-0.395-0.675-0.681-0.396    c-1.558,1.499-0.521,3.374,1.283,3.937c2.061,0.643,4.075-0.515,5.045-2.264c2.184,1.748,4.933,1.242,5.677-1.615    C483.413,102.484,487.797,100.21,484.504,97.352z" id="path49"/>
		<path style="fill-rule:evenodd;clip-rule:evenodd;fill:#272828;" d="M449.582,95.553c-0.152-0.409-0.734-0.346-0.76,0.104    c-0.081,1.344-0.442,2.153-1.958,1.938c-1.04-0.148-1.871-0.849-2.391-1.728c-0.114-0.196-0.37-0.17-0.491,0    c-1.756,2.474-4.549,0.792-3.558-1.96c0.043-0.12-0.148-0.2-0.206-0.086c-1.638,3.244,1.871,5.283,3.938,2.763    C445.516,99.27,450.895,99.103,449.582,95.553z" id="path50"/>
		<path style="fill-rule:evenodd;clip-rule:evenodd;fill:#272828;" d="M473.961,68.867c-0.15-0.032-0.201,0.172-0.063,0.225    c2.364,0.914-0.215,3.354-2.061,2.18c-0.268-0.171-0.679,0.048-0.656,0.376c0.112,1.654-0.767,3.063-2.402,3.49    c-1.98,0.514-2.018-1.361-2.405-2.675c-0.067-0.227-0.392-0.283-0.51-0.067c-1.036,1.874,0.663,3.837,2.596,3.762    c2.087-0.082,3.478-1.901,3.595-3.836c1.113,0.382,2.397,0.182,3.131-0.873C476.055,70.192,475.309,69.158,473.961,68.867z" id="path51"/>
		<path style="fill-rule:evenodd;clip-rule:evenodd;fill:#272828;" d="M475.712,151.984c-0.087-0.219-0.427-0.14-0.361,0.101    c0.791,2.97-3.549,3.029-4.384,1.03c-0.176-0.424-0.884-0.702-1.127-0.148c-1.311,2.965-4.052,0.54-5.585-0.684    c-0.271-0.215-0.663-0.281-0.926,0c-2.098,1.065-3.277,0.74-3.538-0.976c-0.054-0.171-0.193-1.645-0.257-2.042    c-0.053-0.322-0.555-0.371-0.694-0.09c-0.847,1.711-0.189,3.633,1.135,4.928c1.248,1.223,2.79,0.477,3.867-0.491    c2.272,1.755,5.308,3.515,6.847,0.467c1.37,0.616,2.449,1.395,4.129,1.035C476.41,154.77,476.153,153.116,475.712,151.984z" id="path52"/>
	</g></svg>