<svg version="1.1" x="0px" y="0px" viewBox="240.7114587517278 232.66446529844848 95.60794246157886 232.02691251084104" style="enable-background:new 0 0 750 500;" xml:space="preserve" id="svg383" sodipodi:docname="simpletrees.svg" inkscape:version="1.4.2 (f4327f4, 2025-05-13)" xmlns:inkscape="http://www.inkscape.org/namespaces/inkscape" xmlns:sodipodi="http://sodipodi.sourceforge.net/DTD/sodipodi-0.dtd" xmlns="http://www.w3.org/2000/svg" xmlns:svg="http://www.w3.org/2000/svg"><defs id="defs383"/><g id="g203">
		<path style="fill-rule:evenodd;clip-rule:evenodd;fill:#FFFFFF;" d="M288.677,290.81c-2.417,74.166-5.024,118.684-9.307,179.212    c-0.602,5.494,19.667,4.968,19.72-0.118c-4.265-56.863-3.077-122.346-7.341-179.209    C291.475,285.72,288.623,286.353,288.677,290.81z" id="path139"/>
		<path style="fill-rule:evenodd;clip-rule:evenodd;fill:#272828;" d="M289.391,290.831c-1.209,37.108-2.466,66.783-3.955,94.734    c-1.491,28.011-3.214,54.269-5.353,84.506l-0.005,0.046c-0.104,1.104,1.141,1.922,2.991,2.448    c1.292,0.367,2.852,0.577,4.478,0.637c1.636,0.06,3.346-0.034,4.928-0.272c3.218-0.485,5.838-1.518,5.899-2.993    c-2.129-28.403-2.899-59.006-3.669-89.609c-0.768-30.563-1.537-61.125-3.672-89.579l-0.002-0.048    c-0.086-1.501-0.393-2.374-0.756-2.708l-0.029-0.028c-0.033-0.028-0.057-0.04-0.069-0.04c-0.027,0.002-0.076,0.036-0.138,0.103    c-0.38,0.397-0.666,1.337-0.649,2.774V290.831L289.391,290.831z M284.01,385.493c1.49-27.979,2.747-57.646,3.954-94.701    c-0.017-1.829,0.442-3.125,1.047-3.756c0.317-0.333,0.689-0.516,1.083-0.538c0.386-0.022,0.762,0.108,1.101,0.4l0.049,0.042    c0.605,0.559,1.104,1.768,1.215,3.678l0.002,0.023c2.131,28.417,2.902,59.035,3.671,89.652c0.769,30.555,1.538,61.11,3.67,89.556    v0.06c-0.023,2.349-3.203,3.846-7.112,4.436c-1.654,0.248-3.456,0.346-5.193,0.283c-1.745-0.064-3.423-0.29-4.819-0.689    c-2.528-0.718-4.21-2.015-4.022-3.956l0.001-0.014C280.8,439.68,282.523,413.414,284.01,385.493z" id="path140"/>
		<path style="fill-rule:evenodd;clip-rule:evenodd;fill:#FFFFFF;" d="M290.933,413.746c12.556-1.359,37.433-3.892,39.893-9.304    c2.46-5.412-9.233-2.888-9.233-2.888c16.945-4.225,13.534-12.444,9.15-10.153c6.826-3.466,4.418-13.535-3.199-7.709    c12.469-6.965,6.377-15.123-1.313-10.333c15.519-11.804,8.091-17.759,3.691-11.894c5.953-6.866-7.638-8.388-9.38-5.869    c14.817-13.062,6.174-20.853-1.887-11.811c13.408-13.185,4.59-18.838,0.163-10.826c5.731-9.066,1.601-13.679-3.28-9.104    c11.802-13.954,3.02-20.281-2.87-12.795c6.793-9.045,2.994-13.396-2.542-8.199c11.503-13.016,3.863-18.207-0.329-10.825    c0,0,7.382-10.663,5.577-12.549c-1.804-1.886-6.725,4.183-6.725,4.183c10.773-13.609,1.833-18.945-2.296-11.482    c5.344-8.622,2.003-14.661-2.954-9.268c0,0,2.789-7.71,0.738-8.857c-2.049-1.149-3.28,3.034-3.28,3.034s1.312-10.005-2.625-10.17    c-3.936-0.164-3.198,7.136-3.198,7.136s1.475-17.797-2.214-19.519c-3.69-1.724-6.233,10.415-6.233,10.415s-2.46-3.363-5.249-3.363    c-2.788,0,1.149,11.893,1.149,11.893s-4.675-7.217-6.644-6.726c-1.968,0.492,0.738,9.842,0.738,9.842s-3.936-6.316-7.955-3.938    c-4.018,2.38,0.985,14.354,0.985,14.354c-8.113-4.84-3.139,7.979-0.985,11.235c-4.453-5.626-9.961-3.675-2.706,5.577    c-3.904-4.852-10.416,0.358-0.411,6.725c-10.241-3.545-3.88,8.433-0.943,11.688c-7.08-9.439-8.639,0.094-3.977,8.733    c0,0-3.855-2.706-5.741-0.902c-1.886,1.805,3.363,9.021,3.363,9.021s-2.953-1.475-4.757,2.052    c-1.804,3.527,5.741,14.353,5.741,14.353s-3.773-2.132-6.644-0.574c-2.87,1.559,4.593,10.007,4.593,10.007    s-1.558-1.313-3.854,0.41c-2.295,1.722,1.804,5.822,1.804,5.822s-8.12-3.607-9.349,1.232c-1.23,4.839,5.166,11.81,5.166,11.81    s-4.838-3.527-7.054-1.149c-2.213,2.379,6.973,15.255,6.973,15.255s-1.887-2.295-4.265-0.738c-2.379,1.559,1.886,7.3,1.886,7.3    s-3.936-2.46-5.906,0.575c-1.968,3.033,13.122,16.648,13.122,16.648s-7.054-3.526-8.774,0.082    C248.451,409.072,273.068,412.927,290.933,413.746z" id="path141"/>
		<path style="fill-rule:evenodd;clip-rule:evenodd;fill:#272828;" d="M290.908,413.029l1.048-0.112    c12.708-1.371,35.997-3.882,38.218-8.768c1.872-4.117-8.403-1.901-8.433-1.896c-0.386,0.083-0.766-0.164-0.847-0.551    c-0.082-0.383,0.161-0.76,0.543-0.846c7.349-1.835,10.705-4.373,11.787-6.42c0.329-0.621,0.428-1.173,0.359-1.614    c-0.06-0.38-0.252-0.682-0.532-0.87c-0.448-0.303-1.132-0.331-1.888,0.035l-0.099,0.052c-0.348,0.173-0.774,0.037-0.954-0.309    c-0.182-0.349-0.046-0.78,0.302-0.962l0.009-0.005c2.413-1.227,3.547-3.343,3.621-5.15c0.029-0.683-0.097-1.313-0.362-1.818    c-0.246-0.468-0.615-0.827-1.094-1.014c-0.665-0.259-1.556-0.213-2.657,0.279c-0.611,0.416-1.278,0.83-2.007,1.237    c-0.309,0.192-0.719,0.122-0.944-0.172c-0.24-0.315-0.18-0.763,0.134-1.002c0.743-0.568,1.447-0.998,2.107-1.304    c3.085-2.115,4.487-4.216,4.724-5.905c0.095-0.685-0.008-1.288-0.271-1.779c-0.258-0.483-0.681-0.874-1.226-1.133    c-1.38-0.657-3.505-0.489-5.836,0.961c-0.336,0.209-0.776,0.106-0.984-0.229c-0.206-0.332-0.108-0.767,0.217-0.978    c6.251-4.761,8.648-8.468,9.009-10.77c0.113-0.723,0.011-1.262-0.234-1.61c-0.212-0.302-0.558-0.467-0.97-0.48    c-0.801-0.025-1.817,0.456-2.76,1.515c-0.13,0.171-0.272,0.346-0.425,0.521c-0.243,0.28-0.666,0.33-0.967,0.104    c-0.316-0.236-0.379-0.684-0.144-0.999c0.135-0.18,0.273-0.351,0.415-0.511c0.94-1.242,1.11-2.211,0.794-2.942    c-0.215-0.498-0.663-0.924-1.248-1.273c-0.641-0.382-1.436-0.666-2.281-0.855c-2.078-0.465-4.394-0.401-5.45,0.169l-0.567,0.509    c-0.241,0.21-0.603,0.241-0.879,0.051c-0.324-0.225-0.405-0.67-0.182-0.994c0.136-0.195,0.327-0.373,0.563-0.531    c5.263-4.752,7.297-8.689,7.369-11.253c0.024-0.879-0.191-1.567-0.586-2.036c-0.378-0.448-0.943-0.713-1.636-0.765    c-1.429-0.105-3.331,0.653-5.313,2.475c-0.368,0.388-0.757,0.783-1.165,1.184c-0.262,0.292-0.712,0.317-1.006,0.056    c-0.295-0.263-0.321-0.715-0.059-1.01c0.411-0.461,0.825-0.88,1.238-1.26c4.227-4.463,5.717-7.876,5.709-10.005    c-0.003-0.775-0.214-1.338-0.558-1.676c-0.315-0.31-0.77-0.44-1.29-0.374c-1.019,0.13-2.241,0.944-3.307,2.537    c-0.149,0.255-0.306,0.513-0.471,0.774c-0.191,0.344-0.624,0.47-0.969,0.28c-0.346-0.19-0.473-0.626-0.282-0.971    c0.168-0.304,0.341-0.591,0.521-0.857c1.809-3.1,2.37-5.556,2.122-7.163c-0.093-0.599-0.299-1.057-0.591-1.362    c-0.265-0.275-0.615-0.43-1.023-0.45c-0.862-0.045-1.98,0.456-3.193,1.593c-0.287,0.27-0.74,0.257-1.009-0.031    c-0.252-0.267-0.258-0.677-0.026-0.95c4.649-5.496,6.011-9.697,5.605-12.257c-0.128-0.801-0.431-1.42-0.857-1.843    c-0.408-0.405-0.941-0.64-1.547-0.689c-1.458-0.116-3.309,0.796-4.961,2.897c-0.245,0.311-0.694,0.365-1.004,0.12    c-0.311-0.243-0.364-0.693-0.121-1.003l0.035-0.045c2.563-3.428,3.538-6.094,3.45-7.747c-0.027-0.514-0.161-0.898-0.379-1.144    c-0.192-0.214-0.475-0.332-0.828-0.34c-0.933-0.023-2.253,0.616-3.768,2.037c-0.287,0.27-0.74,0.257-1.01-0.03    c-0.263-0.279-0.257-0.717,0.009-0.988c4.536-5.139,5.993-8.946,5.852-11.168c-0.044-0.697-0.249-1.198-0.559-1.495    c-0.273-0.264-0.654-0.373-1.088-0.317c-0.786,0.1-1.714,0.68-2.588,1.787c-0.47,0.724-0.791,1.191-0.839,1.262    c-0.206,0.309-0.619,0.41-0.946,0.225c-0.343-0.194-0.463-0.63-0.268-0.974c0.292-0.515,0.603-0.974,0.924-1.38    c1.85-2.806,5.845-9.185,4.756-10.323l-0.017-0.018c-1.273-1.233-5.622,4.141-5.634,4.156c-0.247,0.307-0.697,0.355-1.005,0.108    c-0.307-0.247-0.355-0.696-0.108-1.005l0.038-0.045c4.176-5.291,5.274-9.211,4.836-11.532c-0.144-0.762-0.457-1.324-0.875-1.677    c-0.392-0.332-0.892-0.483-1.437-0.444c-1.077,0.078-2.316,0.87-3.34,2.45l-0.335,0.558c-0.19,0.347-0.625,0.474-0.971,0.283    c-0.346-0.189-0.473-0.625-0.282-0.97c0.127-0.231,0.26-0.451,0.396-0.66c1.907-3.293,2.477-6.103,2.158-7.892    c-0.103-0.585-0.302-1.036-0.573-1.327c-0.229-0.245-0.524-0.377-0.87-0.377c-0.758,0.001-1.759,0.56-2.914,1.815    c-0.267,0.29-0.72,0.309-1.01,0.042c-0.224-0.206-0.286-0.523-0.18-0.791c0.154-0.431,2.53-7.142,1.053-7.969    c-1.258-0.705-2.246,2.61-2.248,2.621c-0.116,0.376-0.515,0.588-0.893,0.473c-0.343-0.107-0.55-0.449-0.495-0.795    c0.056-0.439,1.132-9.217-1.947-9.346c-1.274-0.052-1.916,0.999-2.232,2.261c-0.079,2.46-0.224,4.203-0.225,4.218    c-0.028,0.339-0.296,0.621-0.647,0.655c-0.392,0.036-0.74-0.252-0.777-0.643c-0.001-0.013-0.224-2.212,0.235-4.291    c0.2-5.223,0.169-13.62-2.041-14.65c-2.865-1.337-5.225,9.886-5.232,9.918c-0.082,0.387-0.462,0.633-0.848,0.55    c-0.183-0.038-0.333-0.143-0.434-0.284c-0.127-0.171-2.309-3.061-4.667-3.061c-1.787,0,1.818,10.924,1.83,10.956    c0.121,0.375-0.084,0.779-0.46,0.9c-0.327,0.105-0.675-0.036-0.839-0.322c-0.32-0.487-4.439-6.742-5.852-6.39    c-1.243,0.312,1.245,8.928,1.253,8.954c0.107,0.379-0.113,0.775-0.493,0.883c-0.316,0.09-0.645-0.048-0.808-0.316    c-0.176-0.277-3.648-5.664-6.98-3.692c-3.482,2.062,1.267,13.431,1.281,13.464c0.151,0.365-0.022,0.783-0.386,0.935    c-0.23,0.095-0.48,0.062-0.673-0.066c-1.204-0.715-2.046-0.997-2.599-0.954c-0.335,0.024-0.539,0.231-0.645,0.558    c-0.161,0.499-0.151,1.232-0.025,2.082c0.436,2.927,2.213,6.952,3.278,8.562c0.217,0.329,0.127,0.773-0.201,0.99    c-0.325,0.215-0.761,0.13-0.981-0.188c-1.431-1.795-2.923-2.735-3.971-2.834c-0.298-0.027-0.534,0.02-0.684,0.143    c-0.148,0.122-0.243,0.347-0.265,0.678c-0.085,1.258,0.811,3.482,3.334,6.708l0.028,0.035c0.243,0.311,0.188,0.759-0.123,1.002    c-0.308,0.24-0.751,0.188-0.995-0.115c-1.026-1.274-2.22-1.742-3.137-1.62c-0.421,0.058-0.775,0.241-1.003,0.526    c-0.229,0.292-0.346,0.701-0.29,1.207c0.155,1.4,1.513,3.37,4.959,5.564c0.332,0.212,0.43,0.653,0.219,0.984    c-0.184,0.287-0.538,0.398-0.845,0.288c-1.724-0.596-2.899-0.724-3.651-0.517c-0.523,0.144-0.812,0.493-0.927,0.971    c-0.146,0.608-0.057,1.425,0.185,2.334c0.59,2.227,2.061,4.871,3.322,6.616c0.295,0.347,0.599,0.729,0.912,1.144    c0.254,0.293,0.228,0.738-0.062,0.999c-0.293,0.265-0.745,0.241-1.01-0.053c-0.302-0.334-0.637-0.756-0.989-1.243    c-1.263-1.486-2.264-2.228-3.012-2.399c-0.339-0.076-0.603,0.001-0.788,0.203c-0.264,0.286-0.443,0.787-0.535,1.447    c-0.322,2.316,0.496,6.182,2.506,9.91c0.186,0.348,0.057,0.78-0.291,0.967c-0.254,0.138-0.556,0.103-0.771-0.062    c-0.324-0.22-3.428-2.278-4.816-0.952l-0.017,0.016c-1.372,1.408,3.453,8.053,3.467,8.071c0.23,0.319,0.157,0.766-0.162,0.996    c-0.218,0.156-0.494,0.172-0.72,0.067l-0.011-0.006c-0.174-0.081-2.383-1.053-3.809,1.736c-1.605,3.138,5.672,13.592,5.693,13.622    c0.224,0.323,0.143,0.769-0.182,0.993c-0.23,0.158-0.52,0.163-0.749,0.038c-0.011-0.004-3.438-1.939-5.959-0.571l-0.022,0.012    c-1.991,1.167,4.795,8.874,4.814,8.896c0.259,0.3,0.228,0.751-0.07,1.011c-0.276,0.24-0.685,0.23-0.949-0.009    c-0.188-0.136-1.272-0.808-2.947,0.45c-1.636,1.227,1.873,4.734,1.883,4.744c0.279,0.28,0.279,0.734,0,1.014    c-0.233,0.231-0.584,0.271-0.857,0.117c-0.71-0.304-7.336-3.025-8.306,0.783c-1.135,4.467,4.981,11.133,4.999,11.151    c0.266,0.291,0.246,0.742-0.044,1.008c-0.253,0.232-0.626,0.246-0.895,0.056c-0.013-0.008-4.338-3.154-6.117-1.243    c-1.817,1.951,7.006,14.318,7.03,14.354c0.229,0.32,0.154,0.767-0.167,0.995c-0.306,0.219-0.727,0.159-0.963-0.126    c-0.006-0.004-1.482-1.802-3.324-0.595c-1.733,1.134,2.063,6.266,2.072,6.28c0.232,0.32,0.161,0.767-0.159,0.999    c-0.252,0.182-0.581,0.177-0.824,0.011c-0.373-0.221-3.414-1.92-4.902,0.374c-1.632,2.515,12.963,15.693,13.005,15.731    c0.292,0.265,0.313,0.718,0.047,1.01c-0.226,0.249-0.59,0.301-0.874,0.145c-0.437-0.214-6.112-2.926-7.664-0.452    c0.852,2.613,5.702,4.81,12.311,6.544C268.911,411.167,280.954,412.57,290.908,413.029L290.908,413.029z M292.106,414.337    l-1.098,0.118l-0.106,0.003c-10.054-0.46-22.24-1.879-31.294-4.256c-7.27-1.909-12.591-4.494-13.398-7.799    c-0.054-0.167-0.047-0.355,0.035-0.527c1.141-2.392,4.05-2.237,6.395-1.638c-4.307-4.16-12.405-12.537-10.695-15.174    c1.285-1.98,3.211-2.039,4.697-1.682c-1.15-2.033-2.424-5.123-0.469-6.402c0.891-0.584,1.723-0.728,2.45-0.648    c-2.597-3.976-7.205-11.698-5.289-13.757c1.312-1.409,3.281-1.166,4.936-0.561c-1.821-2.586-4.037-6.572-3.22-9.788    c0.958-3.767,5.208-3.279,7.949-2.53c-1.011-1.547-1.841-3.641-0.138-4.918c0.891-0.668,1.701-0.944,2.39-1.014    c-2.102-2.69-5.656-7.881-3.124-9.41l0.083-0.052c1.718-0.933,3.687-0.707,5.15-0.293c-2.114-3.36-6.031-10.269-4.542-13.181    c1.126-2.2,2.653-2.736,3.843-2.754c-1.473-2.31-3.942-6.753-2.371-8.44l0.066-0.072c1.288-1.231,3.196-0.834,4.638-0.24    c-1.442-3.351-1.995-6.639-1.697-8.784c0.132-0.948,0.432-1.713,0.899-2.219c0.545-0.59,1.265-0.831,2.154-0.627    c0.165,0.036,0.336,0.093,0.515,0.165c-0.582-1.16-1.078-2.364-1.372-3.473c-0.298-1.12-0.397-2.169-0.19-3.028    c0.238-0.989,0.842-1.715,1.94-2.017c0.358-0.099,0.771-0.146,1.245-0.137c-1.966-1.74-2.83-3.358-2.973-4.65    c-0.101-0.907,0.133-1.676,0.593-2.252c0.465-0.578,1.145-0.947,1.929-1.053c0.396-0.053,0.821-0.039,1.258,0.05    c-1.222-2.064-1.674-3.651-1.601-4.74c0.051-0.747,0.333-1.312,0.786-1.684c0.452-0.371,1.045-0.525,1.724-0.462    c0.608,0.057,1.31,0.305,2.048,0.742c-0.766-1.816-1.464-3.912-1.723-5.645c-0.156-1.05-0.155-1.998,0.081-2.726    c0.291-0.901,0.89-1.473,1.896-1.547c0.492-0.038,1.085,0.065,1.792,0.336c-1.246-3.533-3.546-11.44-0.035-13.519    c2.65-1.57,5.191,0.026,6.879,1.677c-0.632-3.018-1.186-7.232,0.529-7.661c1.345-0.337,3.42,1.774,5.033,3.769    c-0.934-3.777-1.777-8.958,0.634-8.958c2.011,0,3.826,1.485,4.876,2.563c0.847-3.286,3.302-11.23,6.91-9.546    c2.402,1.121,2.903,7.707,2.899,13.063c0.557-0.493,1.286-0.785,2.238-0.746c3.007,0.125,3.524,4.533,3.505,7.725    c0.688-0.723,1.598-1.13,2.723-0.5c1.686,0.945,0.989,4.811,0.305,7.375c0.734-0.442,1.425-0.65,2.045-0.65    c0.761-0.002,1.412,0.29,1.915,0.83c0.461,0.494,0.784,1.191,0.938,2.053c0.249,1.397,0.05,3.3-0.751,5.504    c0.544-0.266,1.088-0.415,1.613-0.453c0.919-0.066,1.775,0.2,2.461,0.779c0.66,0.558,1.147,1.401,1.356,2.506    c0.345,1.832-0.093,4.471-1.866,7.791c1.23-0.743,2.464-1.059,3.32-0.24l0.067,0.061c1.287,1.347-0.794,5.687-2.756,9.076    c0.17-0.049,0.338-0.082,0.503-0.103c0.875-0.111,1.664,0.132,2.258,0.704c0.561,0.539,0.926,1.359,0.995,2.435    c0.126,2.007-0.817,5.062-3.617,8.968c0.406-0.113,0.788-0.164,1.141-0.155c0.761,0.02,1.395,0.3,1.857,0.816    c0.437,0.486,0.698,1.169,0.743,2.02c0.066,1.242-0.341,2.921-1.373,4.945c0.926-0.418,1.833-0.586,2.658-0.52    c0.945,0.075,1.788,0.45,2.443,1.101c0.637,0.633,1.085,1.518,1.261,2.633c0.382,2.416-0.537,6.02-3.698,10.527    c0.343-0.073,0.672-0.102,0.984-0.086c0.783,0.041,1.458,0.346,1.979,0.888c0.494,0.514,0.833,1.234,0.971,2.134    c0.188,1.212,0.008,2.795-0.669,4.675c0.503-0.26,1.001-0.416,1.472-0.476c0.963-0.118,1.83,0.15,2.465,0.775    c0.606,0.597,0.978,1.507,0.982,2.694c0.007,1.801-0.869,4.353-3.173,7.505c0.88-0.308,1.707-0.426,2.445-0.372    c1.084,0.081,1.991,0.521,2.625,1.274c0.617,0.732,0.956,1.746,0.922,2.993c-0.07,2.522-1.724,6.13-5.844,10.36    c1.225-0.109,2.598-0.029,3.871,0.256c0.989,0.222,1.93,0.561,2.704,1.023c0.83,0.495,1.48,1.137,1.825,1.934    c0.231,0.534,0.322,1.122,0.235,1.764c0.553-0.227,1.092-0.328,1.587-0.313c0.87,0.028,1.614,0.4,2.095,1.084    c0.448,0.638,0.648,1.534,0.474,2.651c-0.333,2.126-2.104,5.236-6.351,9.048c1.201-0.133,2.279,0.043,3.151,0.457    c0.818,0.39,1.462,0.993,1.869,1.755c0.403,0.754,0.566,1.653,0.427,2.647c-0.214,1.532-1.171,3.314-3.116,5.123    c0.306,0.038,0.593,0.111,0.86,0.216c0.82,0.319,1.441,0.915,1.843,1.679c0.382,0.727,0.563,1.606,0.525,2.541    c-0.065,1.591-0.771,3.366-2.211,4.796c0.211,0.076,0.411,0.178,0.593,0.3c0.602,0.406,1.018,1.045,1.142,1.838    c0.114,0.73-0.023,1.589-0.505,2.499c-0.864,1.635-2.914,3.524-6.751,5.181c2.834,0.154,5.245,1.143,3.741,4.452    C328.917,410.368,305.102,412.936,292.106,414.337z" id="path142"/>
		<path style="fill-rule:evenodd;clip-rule:evenodd;fill:#272828;" d="M276.28,272.53c-0.551-0.677-1.522-2.431-0.724-3.261    c0.311-0.322,0.929,0.095,1.195,0.272c0.398,0.267,1.306,1.608,1.849,1.028c0.109-0.116,0.175-0.296,0.12-0.454    c-0.309-0.886-1.413-1.65-2.283-1.942c-0.604-0.203-1.33-0.065-1.739,0.444c-1.119,1.396,0.05,3.365,1.097,4.396    C276.117,273.329,276.551,272.866,276.28,272.53z" id="path143"/>
		<path style="fill-rule:evenodd;clip-rule:evenodd;fill:#272828;" d="M278.629,270.221c-0.04-1.031,0.534-1.906,1.6-2.032    c-0.149-0.086-0.298-0.172-0.448-0.258c0.171,0.385,0.334,0.761,0.434,1.171c0.102,0.42,0.023,0.826,0.332,1.167    c0.099,0.108,0.271,0.12,0.393,0.051c1.002-0.564,0.128-2.213-0.263-2.912c-0.117-0.212-0.359-0.287-0.586-0.238    c-0.682,0.147-1.242,0.466-1.648,1.037c-0.431,0.608-0.366,1.381-0.25,2.074C278.234,270.529,278.639,270.468,278.629,270.221z" id="path144"/>
		<path style="fill-rule:evenodd;clip-rule:evenodd;fill:#272828;" d="M281.622,269.856c0.054-0.8,0.75-1.778,1.667-1.354    c1.342,0.621-0.128,2.463-0.023,3.359c0.017,0.143,0.146,0.295,0.308,0.234c0.967-0.357,1.323-1.823,1.252-2.766    c-0.056-0.748-0.471-1.402-1.172-1.693c-1.499-0.623-2.677,0.821-2.63,2.22C281.037,270.245,281.595,270.239,281.622,269.856z" id="path145"/>
		<path style="fill-rule:evenodd;clip-rule:evenodd;fill:#272828;" d="M302.22,275.683c0.605-1.301,1.183-2.925,0.562-4.328    c-0.414-0.936-1.34-1.458-2.336-1.522c-0.992-0.064-1.981,0.506-2.513,1.32c-0.277,0.424-0.39,0.96-0.371,1.459    c0.021,0.56,0.289,1.608,0.95,1.708c0.193,0.028,0.44-0.011,0.531-0.216c0.205-0.461-0.049-0.951-0.138-1.42    c-0.053-0.287,0.008-0.584,0.126-0.81c0.261-0.496,0.868-0.761,1.415-0.81c0.623-0.057,1.165,0.192,1.48,0.793    c0.557,1.064,0.051,2.538-0.346,3.557C301.435,275.782,302.053,276.041,302.22,275.683z" id="path146"/>
		<path style="fill-rule:evenodd;clip-rule:evenodd;fill:#272828;" d="M298.525,273.683c0.033-1.377-0.679-2.695-2.223-2.481    c-0.656,0.092-1.187,0.678-1.457,1.242c-0.281,0.588-0.606,1.914,0.146,2.283c0.151,0.073,0.316,0.063,0.44-0.057    c0.381-0.364,0.214-0.992,0.327-1.465c0.095-0.396,0.348-0.758,0.693-0.973c1.021-0.642,1.518,0.616,1.569,1.45    C298.04,274.007,298.517,274.011,298.525,273.683z" id="path147"/>
		<path style="fill-rule:evenodd;clip-rule:evenodd;fill:#272828;" d="M255.682,388.993c-1.623-1.665-0.965-4.626,0.555-6.107    c1.658-1.617,2.936,2.525,3.955,3.179c0.224,0.143,0.51-0.045,0.514-0.295c0.021-1.234-1.087-2.642-1.878-3.516    c-0.833-0.92-1.987-1.141-3.027-0.448c-2.396,1.597-2.682,5.742-0.596,7.665C255.524,389.765,255.987,389.308,255.682,388.993z" id="path148"/>
		<path style="fill-rule:evenodd;clip-rule:evenodd;fill:#272828;" d="M261.166,385.881c-0.225-1.413,0.346-3.355,1.623-4.148    c1.533-0.951,1.326,2.745,1.595,3.334c0.131,0.285,0.567,0.247,0.708,0c0.894-1.569-0.249-5.541-2.622-4.406    c-1.915,0.916-2.47,3.516-1.815,5.362C260.771,386.349,261.219,386.216,261.166,385.881z" id="path149"/>
		<path style="fill-rule:evenodd;clip-rule:evenodd;fill:#272828;" d="M265.03,384.94c0.166-0.739,0.823-2.436,1.758-1.416    c0.361,0.393,0.44,1.009,0.442,1.515c0.002,0.684-0.474,1.522-0.195,2.156c0.047,0.109,0.221,0.179,0.333,0.136    c0.867-0.341,0.912-1.873,0.823-2.659c-0.081-0.724-0.362-1.479-0.942-1.95c-0.487-0.396-1.103-0.48-1.657-0.164    c-0.74,0.425-1.018,1.449-1.147,2.222C264.383,385.156,264.943,385.326,265.03,384.94z" id="path150"/>
		<path style="fill-rule:evenodd;clip-rule:evenodd;fill:#272828;" d="M318.322,387.23c1.373-1.649,4.226-4.76,2.293-6.968    c-1.019-1.165-2.247-1.486-3.663-0.856c-1.224,0.543-2.352,2.238-2.005,3.573c0.103,0.4,0.661,0.464,0.867,0.113    c0.474-0.81,0.64-1.618,1.34-2.31c1.148-1.135,3.053-0.411,3.204,1.178c0.167,1.766-1.471,3.624-2.444,4.953    C317.738,387.152,318.134,387.456,318.322,387.23z" id="path151"/>
		<path style="fill-rule:evenodd;clip-rule:evenodd;fill:#272828;" d="M315.593,382.751c-0.591-2.248-1.455-5.451-4.14-5.915    c-1.295-0.223-2.454,0.445-2.999,1.61c-0.493,1.058-0.534,2.834,0.433,3.634c0.3,0.248,0.76,0.099,0.773-0.319    c0.027-0.891-0.341-1.671-0.129-2.577c0.296-1.268,1.683-1.436,2.664-0.863c1.497,0.874,2.138,3.104,2.656,4.635    C315.009,383.422,315.721,383.234,315.593,382.751z" id="path152"/>
		<path style="fill-rule:evenodd;clip-rule:evenodd;fill:#272828;" d="M309.319,381.648c-1.208-1.515-3.632-2.583-5.52-1.743    c-0.728,0.325-1.293,0.977-1.338,1.8c-0.047,0.859,0.41,2.42,1.462,2.41c0.161-0.001,0.288-0.107,0.337-0.257    c0.345-1.049-1.397-2.342,0.32-2.909c1.48-0.489,3.142,0.187,4.152,1.286C309.102,382.637,309.644,382.057,309.319,381.648z" id="path153"/>
		<path style="fill-rule:evenodd;clip-rule:evenodd;fill:#272828;" d="M303.98,384.353c-1.269-2.418-3.779-0.657-4.792,0.995    c-0.602,0.982-0.882,2.274-0.562,3.396c0.253,0.886,1.593,2.233,2.57,1.541c0.171-0.121,0.24-0.322,0.136-0.515    c-0.33-0.607-1.165-0.665-1.436-1.378c-0.275-0.723-0.01-1.584,0.302-2.249c0.604-1.286,2.009-2.803,3.346-1.453    C303.772,384.92,304.124,384.629,303.98,384.353z" id="path154"/>
		<path style="fill-rule:evenodd;clip-rule:evenodd;fill:#272828;" d="M285.951,360.547c-0.625-0.607-0.924-1.52-1.031-2.366    c-0.081-0.643,0.073-2.357,1.129-1.893c0.865,0.38,1.514,1.438,2.044,2.169c0.339,0.469,0.904,1.627,1.613,1.549    c0.141-0.016,0.242-0.082,0.289-0.219c0.152-0.447-0.25-0.972-0.493-1.315c-0.413-0.585-0.828-1.168-1.285-1.718    c-0.639-0.77-1.837-2.022-2.972-1.517c-2.282,1.015-1.311,4.529,0.198,5.816C285.791,361.35,286.288,360.873,285.951,360.547z" id="path155"/>
		<path style="fill-rule:evenodd;clip-rule:evenodd;fill:#272828;" d="M289.419,359.272c-0.324-0.868-0.194-1.846,0.07-2.712    c0.27-0.884,1.18-2.282,2.29-1.719c0.746,0.378,0.811,1.888,0.927,2.593c0.119,0.731,0.155,1.82,0.944,2.147    c0.091,0.039,0.24-0.021,0.279-0.113c0.2-0.472,0.062-0.941-0.025-1.43c-0.132-0.74-0.254-1.484-0.445-2.212    c-0.304-1.16-1.012-2.147-2.314-2.062c-2.455,0.161-3.164,3.924-2.219,5.713C289.068,359.745,289.526,359.56,289.419,359.272z" id="path156"/>
		<path style="fill-rule:evenodd;clip-rule:evenodd;fill:#272828;" d="M293.972,359.049c0.078-0.304,0.826-3,1.565-2.41    c0.344,0.274,0.473,0.81,0.577,1.212c0.152,0.584,0.001,1.449,0.523,1.853c0.119,0.092,0.238,0.095,0.357,0    c0.651-0.522,0.231-1.848,0.008-2.514c-0.206-0.613-0.594-1.178-1.209-1.423c-1.559-0.621-2.171,2.24-2.331,3.141    C293.402,359.239,293.886,359.384,293.972,359.049z" id="path157"/>
		<path style="fill-rule:evenodd;clip-rule:evenodd;fill:#272828;" d="M297.898,359.515c0.104-0.083,1.064-0.898,1.257-0.648    c0.21,0.271,0.011,0.837-0.051,1.124c-0.207,0.943-0.616,1.824-0.879,2.752c-0.059,0.206,0.169,0.369,0.351,0.271    c1.088-0.599,1.478-2.477,1.42-3.611c-0.023-0.464-0.17-0.969-0.651-1.13c-0.635-0.214-1.387,0.528-1.789,0.899    C297.319,359.386,297.659,359.709,297.898,359.515z" id="path158"/>
		<path style="fill-rule:evenodd;clip-rule:evenodd;fill:#272828;" d="M270.744,361.665c-0.523-2.241-2.69-4.213-5.104-3.473    c-1.017,0.311-1.605,1.202-1.676,2.232c-0.082,1.195,0.862,3.572,2.138,3.816c0.223,0.042,0.449-0.098,0.448-0.343    c-0.001-0.645-0.483-1.123-0.809-1.648c-0.29-0.469-0.546-1.014-0.612-1.567c-0.082-0.688,0.249-1.254,0.896-1.507    c1.889-0.737,3.844,0.856,4.372,2.584C270.464,361.981,270.795,361.89,270.744,361.665z" id="path159"/>
		<path style="fill-rule:evenodd;clip-rule:evenodd;fill:#272828;" d="M266.417,364.124c-1.336-0.541-3.162-0.333-4.333,0.498    c-0.556,0.392-0.957,0.971-0.926,1.672c0.033,0.718,0.629,1.572,1.393,1.579c0.228,0.002,0.356-0.21,0.316-0.417    c-0.086-0.474-0.588-0.787-0.621-1.279c-0.03-0.459,0.48-0.811,0.809-1.029c0.919-0.614,2.19-1.025,3.284-0.743    C266.525,364.451,266.585,364.191,266.417,364.124z" id="path160"/>
		<path style="fill-rule:evenodd;clip-rule:evenodd;fill:#272828;" d="M309.258,341.617c1.334-2.511,3.385-7.159,0.045-9.148    c-1.324-0.787-2.601-0.614-3.684,0.473c-0.996,1.001-1.626,2.896-0.951,4.188c0.133,0.253,0.566,0.27,0.693,0    c0.324-0.684,0.404-1.428,0.625-2.147c0.541-1.75,2.031-2.112,3.372-0.942c1.906,1.661,0.251,5.512-0.565,7.306    C308.652,341.656,309.093,341.928,309.258,341.617z" id="path161"/>
		<path style="fill-rule:evenodd;clip-rule:evenodd;fill:#272828;" d="M305.435,336.789c0.294-2.813-2.085-4.959-4.759-5.168    c-2.503-0.196-4.917,2.855-2.979,5.015c0.154,0.171,0.442,0.076,0.499-0.132c0.272-0.97-0.018-1.982,0.521-2.88    c0.435-0.725,1.404-0.854,2.163-0.816c2.127,0.105,3.665,1.935,3.717,3.982C304.612,337.339,305.379,337.316,305.435,336.789z" id="path162"/>
		<path style="fill-rule:evenodd;clip-rule:evenodd;fill:#272828;" d="M298.173,336.406c-0.662-1.439-2.114-3.108-3.865-3.004    c-0.745,0.046-1.348,0.57-1.601,1.254c-0.33,0.895-0.437,2.616,0.384,3.258c0.174,0.136,0.461,0.159,0.577-0.074    c0.396-0.791-0.556-3.185,0.869-3.311c1.264-0.111,2.495,1.244,3.106,2.186C297.861,337.054,298.338,336.763,298.173,336.406z" id="path163"/>
		<path style="fill-rule:evenodd;clip-rule:evenodd;fill:#272828;" d="M293.515,337.551c-0.965-1.553-3.337-1.344-4.622-0.348    c-0.616,0.479-1.006,1.216-0.873,2.007c0.145,0.845,0.878,1.643,1.781,1.521c0.196-0.028,0.287-0.269,0.248-0.437    c-0.121-0.508-0.596-0.83-0.735-1.323c-0.105-0.366,0.304-0.739,0.561-0.923c0.985-0.703,2.192-0.547,3.236-0.094    C293.362,338.063,293.686,337.827,293.515,337.551z" id="path164"/>
		<path style="fill-rule:evenodd;clip-rule:evenodd;fill:#272828;" d="M289.99,340.203c-0.993-0.271-2.089-0.055-2.41,1.046    c-0.325,1.12,0.729,2.141,1.762,2.244c0.355,0.036,0.445-0.414,0.263-0.634c-0.322-0.386-0.815-0.815-0.822-1.357    c-0.005-0.525,0.735-0.567,1.106-0.551C290.323,340.969,290.398,340.315,289.99,340.203z" id="path165"/>
		<path style="fill-rule:evenodd;clip-rule:evenodd;fill:#272828;" d="M278.87,320.835c-0.25-1.17-0.493-2.28-1.23-3.254    c-0.595-0.786-1.679-1.378-2.655-0.903c-0.888,0.432-1.159,1.407-1.262,2.315c-0.089,0.802-0.083,2.327,0.783,2.725    c0.182,0.083,0.433,0.027,0.482-0.196c0.274-1.244-0.803-2.71,0.206-3.86c0.696-0.794,1.717,0.283,2.092,0.845    c0.493,0.741,0.898,1.6,1.205,2.434C278.578,321.175,278.923,321.086,278.87,320.835z" id="path166"/>
		<path style="fill-rule:evenodd;clip-rule:evenodd;fill:#272828;" d="M274.521,321.401c-0.546-0.543-1.079-1.15-1.817-1.425    c-0.719-0.267-1.412,0.174-1.814,0.742c-0.708,1.002-0.436,3.381,0.904,3.757c0.148,0.042,0.365,0.008,0.464-0.122    c0.254-0.329,0.077-0.594-0.151-0.881c-0.355-0.448-0.523-0.956-0.533-1.526c-0.01-0.537,0.25-1.11,0.847-1.151    c0.671-0.045,1.374,0.518,1.888,0.881C274.475,321.793,274.659,321.538,274.521,321.401z" id="path167"/>
		<path style="fill-rule:evenodd;clip-rule:evenodd;fill:#272828;" d="M271.553,324.091c-1.751-0.692-3.481-0.162-4.083,1.73    c-0.223,0.7-0.107,1.518,0.269,2.14c0.402,0.667,1.325,1.183,2.043,0.701c0.133-0.091,0.16-0.263,0.048-0.383    c-0.326-0.354-0.827-0.503-1.116-0.889c-0.274-0.367-0.299-0.851-0.206-1.282c0.286-1.338,1.679-1.869,2.901-1.499    C271.748,324.713,271.868,324.216,271.553,324.091z" id="path168"/>
		<path style="fill-rule:evenodd;clip-rule:evenodd;fill:#272828;" d="M269.658,328.39c-1.069-0.067-1.737,0.875-1.813,1.855    c-0.039,0.484,0.178,0.993,0.548,1.302c0.418,0.351,1.149,0.421,1.395-0.05c0.04-0.077,0.053-0.184,0-0.259    c-0.176-0.244-0.45-0.314-0.701-0.456c-0.207-0.116-0.264-0.361-0.311-0.578c-0.137-0.64,0.325-1.25,0.947-1.335    C270.01,328.829,269.917,328.405,269.658,328.39z" id="path169"/>
		<path style="fill-rule:evenodd;clip-rule:evenodd;fill:#272828;" d="M278.88,321.069c-0.018-2.032,2.878-3.616,3.549-1.082    c0.197,0.745,0.123,1.577,0.057,2.335c-0.051,0.596-0.259,1.262,0.026,1.82c0.089,0.174,0.359,0.209,0.489,0.063    c0.662-0.741,0.539-2.353,0.513-3.275c-0.027-0.987-0.29-2.357-1.225-2.91c-2.003-1.182-4.367,1.02-3.981,3.126    C278.37,321.475,278.883,321.391,278.88,321.069z" id="path170"/>
		<path style="fill-rule:evenodd;clip-rule:evenodd;fill:#272828;" d="M282.838,324.345c0.442-0.82,1.344-1.106,2.212-0.84    c0.363,0.112,0.706,0.385,0.84,0.745c0.148,0.395,0.004,0.85,0.115,1.259c0.04,0.148,0.231,0.239,0.364,0.149    c1.226-0.836,0.132-2.443-0.893-2.817c-1.19-0.433-2.553,0.177-2.952,1.373C282.464,324.398,282.746,324.515,282.838,324.345z" id="path171"/>
		<path style="fill-rule:evenodd;clip-rule:evenodd;fill:#272828;" d="M305.483,323.633c1.835-1.895,2.909-4.93,0.822-7.043    c-2.033-2.06-5.684,0.779-4.476,3.232c0.13,0.264,0.6,0.284,0.723,0c0.327-0.758,0.328-1.546,0.874-2.218    c0.828-1.02,2.046-0.547,2.685,0.385c1.004,1.464,0.162,4.189-0.833,5.438C305.165,323.57,305.35,323.771,305.483,323.633z" id="path172"/>
		<path style="fill-rule:evenodd;clip-rule:evenodd;fill:#272828;" d="M302.259,319.973c-0.452-1.963-2.879-5.021-5.167-3.615    c-1.417,0.872-1.847,4.215-0.079,4.893c0.159,0.061,0.377-0.099,0.356-0.272c-0.133-1.117-0.594-2.472,0.194-3.465    c0.574-0.724,1.586-0.205,2.185,0.2c0.831,0.564,1.504,1.508,1.827,2.449C301.724,320.592,302.362,320.42,302.259,319.973z" id="path173"/>
		<path style="fill-rule:evenodd;clip-rule:evenodd;fill:#272828;" d="M296.61,320.731c-2.537-0.704-2.586,3.96-0.615,3.866    c0.198-0.009,0.296-0.2,0.214-0.372c-0.371-0.781-1.343-3.04,0.332-2.991C296.834,321.243,296.885,320.808,296.61,320.731z" id="path174"/>
		<path style="fill-rule:evenodd;clip-rule:evenodd;fill:#272828;" d="M295.23,306.858c2.588-1.798,5.113-4.628,2.433-7.586    c-1.884-2.079-5.451,1.078-4.823,3.298c0.065,0.233,0.398,0.351,0.571,0.151c0.938-1.09,1.831-4.257,3.802-2.53    c2.315,2.026-0.415,5.181-2.095,6.476C295.009,306.752,295.11,306.942,295.23,306.858z" id="path175"/>
		<path style="fill-rule:evenodd;clip-rule:evenodd;fill:#272828;" d="M293.014,302.935c0.054-1.752,0.289-3.612-0.514-5.25    c-0.611-1.248-1.7-2.696-3.247-2.608c-2.137,0.12-3.572,4.195-2.355,5.747c0.187,0.238,0.519,0.06,0.607-0.16    c0.48-1.212,0.013-4.262,1.962-4.472c1.306-0.142,2.331,1.979,2.645,2.927c0.401,1.21,0.449,2.553,0.484,3.816    C292.603,303.205,293.006,303.205,293.014,302.935z" id="path176"/>
		<path style="fill-rule:evenodd;clip-rule:evenodd;fill:#272828;" d="M286.986,300.452c-0.915-1.523-3.631-3.12-4.725-0.878    c-0.39,0.799-0.256,1.778-0.033,2.604c0.178,0.654,0.624,1.93,1.464,1.915c0.195-0.004,0.323-0.151,0.337-0.337    c0.037-0.449-0.336-0.884-0.527-1.267c-0.276-0.555-0.429-1.183-0.445-1.802c-0.054-2.197,2.786-1.14,3.538-0.008    C286.755,300.921,287.138,300.705,286.986,300.452z" id="path177"/>
		<path style="fill-rule:evenodd;clip-rule:evenodd;fill:#272828;" d="M283.36,303.549c-1.171-0.313-2.143,0.091-2.465,1.307    c-0.268,1.007,0.087,2.836,1.248,3.147c0.251,0.068,0.489-0.168,0.42-0.42c-0.209-0.765-0.718-1.325-0.751-2.159    c-0.039-0.95,0.57-1.606,1.515-1.641C283.46,303.778,283.493,303.584,283.36,303.549z" id="path178"/>
		<path style="fill-rule:evenodd;clip-rule:evenodd;fill:#272828;" d="M274.069,289.321c-0.625-0.921-0.694-2.134-0.423-3.188    c0.167-0.657,0.897-1.814,1.653-1.184c1.031,0.861,1.093,2.559,2.249,3.263c0.212,0.129,0.408-0.082,0.377-0.29    c-0.142-0.956-0.686-1.87-1.196-2.683c-0.436-0.696-1.102-1.497-2.013-1.41c-1.102,0.105-1.749,1.345-1.902,2.308    c-0.189,1.188,0.095,2.551,0.858,3.49C273.853,289.849,274.228,289.556,274.069,289.321z" id="path179"/>
		<path style="fill-rule:evenodd;clip-rule:evenodd;fill:#272828;" d="M277.549,287.534c0.093-1.477,1.087-2.64,2.111-3.61    c0.365-0.346,1.612-1.473,2.075-0.74c0.745,1.176-0.091,2.793,0.576,3.973c0.123,0.217,0.452,0.214,0.576,0    c0.498-0.866,0.306-2.174,0.188-3.132c-0.095-0.769-0.346-1.802-1.186-2.076c-1.101-0.361-2.196,0.571-2.945,1.258    c-1.223,1.12-1.811,2.7-1.684,4.328C277.274,287.721,277.539,287.723,277.549,287.534z" id="path180"/>
		<path style="fill-rule:evenodd;clip-rule:evenodd;fill:#272828;" d="M282.852,287.06c0.08-0.085,0.55-0.565,0.634-0.45    c0.158,0.213,0.159,0.564,0.174,0.815c0.027,0.487-0.202,1.541,0.295,1.837c0.117,0.069,0.267,0.068,0.384,0    c0.406-0.236,0.292-0.86,0.262-1.25c-0.035-0.468-0.099-0.946-0.273-1.385c-0.123-0.306-0.38-0.677-0.757-0.666    c-0.49,0.013-0.812,0.462-1.081,0.819C282.331,286.992,282.677,287.249,282.852,287.06z" id="path181"/>
		<path style="fill-rule:evenodd;clip-rule:evenodd;fill:#272828;" d="M291.573,262.241c0.642-1.339,0.509-3.083-0.995-3.761    c-1.489-0.671-2.96,1.104-2.084,2.477c0.092,0.143,0.338,0.174,0.421,0c0.323-0.676,0.328-2.004,1.414-1.702    c1.154,0.322,1.085,1.932,0.767,2.786C290.993,262.318,291.444,262.507,291.573,262.241z" id="path182"/>
		<path style="fill-rule:evenodd;clip-rule:evenodd;fill:#272828;" d="M297.041,287.415c0.332-1.241,2.651-2.907,2.867-0.768    c0.115,1.132-0.514,2.148-0.456,3.257c0.011,0.201,0.231,0.357,0.417,0.24c1.289-0.811,1.444-3.574,0.607-4.717    c-1.383-1.89-3.565,0.316-3.889,1.862C296.526,287.585,296.962,287.71,297.041,287.415z" id="path183"/>
		<path style="fill-rule:evenodd;clip-rule:evenodd;fill:#272828;" d="M299.635,290.008c0.404-0.826,1.157-1.009,1.843-0.377    c0.25,0.23,0.438,0.551,0.456,0.895c0.021,0.404-0.346,0.633-0.347,1.019c-0.002,0.229,0.191,0.426,0.422,0.424    c0.661-0.008,0.963-0.887,0.902-1.442c-0.066-0.62-0.442-1.171-0.939-1.533c-1.067-0.777-2.311-0.409-2.711,0.858    C299.189,290.069,299.532,290.217,299.635,290.008z" id="path184"/>
		<path style="fill-rule:evenodd;clip-rule:evenodd;fill:#272828;" d="M301.693,309.196c0.11-0.617,0.748-1.535,1.482-1.18    c0.456,0.22,0.376,1.192,0.37,1.595c-0.006,0.414-0.12,1.093,0.311,1.339c0.484,0.276,0.626-0.515,0.656-0.802    c0.092-0.872-0.016-2.393-0.936-2.817c-1.125-0.519-2.163,0.721-2.345,1.737C301.178,309.37,301.639,309.499,301.693,309.196z" id="path185"/>
		<path style="fill-rule:evenodd;clip-rule:evenodd;fill:#272828;" d="M270.527,308.496c-0.394-1.502-1.876-2.13-3.165-1.176    c-0.552,0.41-0.968,1.008-1.063,1.697c-0.098,0.706,0.14,1.748,0.99,1.831c0.204,0.02,0.332-0.175,0.35-0.35    c0.045-0.415-0.239-0.803-0.232-1.229c0.007-0.392,0.267-0.767,0.537-1.03c0.713-0.699,1.569-0.449,1.94,0.435    C270.045,309.058,270.639,308.926,270.527,308.496z" id="path186"/>
		<path style="fill-rule:evenodd;clip-rule:evenodd;fill:#272828;" d="M275.335,395.758c-2.141-0.813-3.385-5.363-1.209-6.677    c2-1.208,3.266,3.167,4.541,3.915c0.222,0.129,0.505-0.084,0.433-0.334c-0.587-2.044-3.665-6.48-6.08-3.941    c-1.979,2.081-0.621,6.837,2.169,7.564C275.538,396.375,275.66,395.88,275.335,395.758z" id="path187"/>
		<path style="fill-rule:evenodd;clip-rule:evenodd;fill:#272828;" d="M279.084,392.667c-0.239-0.921-0.305-1.857-0.136-2.794    c0.143-0.799,0.761-2.076,1.784-1.908c1.076,0.18,0.539,3.025,0.912,3.73c0.139,0.265,0.484,0.211,0.635,0    c0.553-0.769,0.259-2.193,0.068-3.054c-0.199-0.891-0.787-1.721-1.772-1.7c-1.114,0.025-1.95,1.056-2.284,2.011    c-0.417,1.195-0.104,2.691,0.259,3.862C278.655,393.155,279.175,393.015,279.084,392.667z" id="path188"/>
		<path style="fill-rule:evenodd;clip-rule:evenodd;fill:#272828;" d="M282.378,391.725c0.221-0.686,0.882-1.41,1.644-0.959    c0.808,0.477-0.116,1.69,0.003,2.32c0.027,0.145,0.198,0.224,0.332,0.189c0.708-0.192,0.939-1.164,0.913-1.809    c-0.023-0.584-0.354-1.079-0.86-1.361c-1.158-0.645-2.289,0.393-2.591,1.466C281.715,391.932,282.263,392.078,282.378,391.725z" id="path189"/>
		<path style="fill-rule:evenodd;clip-rule:evenodd;fill:#272828;" d="M313.13,365.484c0.184-0.423,0.46-0.978,0.982-1.028    c0.371-0.035,0.684,0.286,0.865,0.571c0.239,0.376,0.302,0.848,0.211,1.279c-0.113,0.545-0.518,0.964-0.689,1.483    c-0.072,0.217,0.147,0.377,0.34,0.341c0.832-0.155,1.217-1.052,1.297-1.803c0.075-0.691-0.209-1.398-0.654-1.915    c-0.361-0.42-0.905-0.632-1.449-0.526c-0.674,0.132-1.023,0.892-1.202,1.473C312.779,365.533,313.056,365.655,313.13,365.484z" id="path190"/>
		<path style="fill-rule:evenodd;clip-rule:evenodd;fill:#272828;" d="M303.52,402.72c-0.135-1.809,1.113-4.011,3.214-3.603    c0.732,0.141,1.203,0.771,1.375,1.454c0.189,0.754-0.326,1.408-0.569,2.078c-0.07,0.195,0.143,0.376,0.327,0.325    c1.043-0.281,1.414-1.512,1.229-2.485c-0.201-1.068-0.906-1.864-1.92-2.233c-1.145-0.416-2.505,0.137-3.3,0.973    c-0.904,0.951-1.012,2.32-0.817,3.554C303.099,403.043,303.539,402.981,303.52,402.72z" id="path191"/>
		<path style="fill-rule:evenodd;clip-rule:evenodd;fill:#272828;" d="M307.79,403.081c1.006-0.689,2.278-0.976,2.549,0.51    c0.082,0.453-0.038,0.996-0.235,1.403c-0.238,0.49-0.685,0.809-0.916,1.27c-0.075,0.151-0.022,0.388,0.171,0.422    c1.72,0.287,2.315-2.309,1.88-3.568c-0.224-0.651-0.75-1.18-1.429-1.333c-0.872-0.197-1.706,0.353-2.336,0.887    C307.248,402.862,307.546,403.248,307.79,403.081z" id="path192"/>
		<path style="fill-rule:evenodd;clip-rule:evenodd;fill:#272828;" d="M274.845,343.259c-0.164-2.335-1.986-6.463-4.912-5.827    c-1.391,0.302-1.743,1.905-1.716,3.111c0.022,1.063,0.388,3.188,1.6,3.546c0.336,0.099,0.6-0.222,0.536-0.536    c-0.173-0.834-0.765-1.558-0.952-2.428c-0.208-0.975-0.195-2.607,1.087-2.757c1.172-0.139,2.088,1.33,2.635,2.141    c0.564,0.839,1.045,1.814,1.202,2.82C274.37,343.624,274.866,343.555,274.845,343.259z" id="path193"/>
		<path style="fill-rule:evenodd;clip-rule:evenodd;fill:#272828;" d="M269.979,343.895c-1.495-1.367-3.943-2.826-5.424-0.632    c-0.53,0.783-0.407,1.877-0.076,2.705c0.281,0.704,1.075,2.012,1.995,1.738c0.202-0.061,0.281-0.246,0.249-0.442    c-0.086-0.534-0.717-0.923-1.007-1.367c-0.361-0.553-0.499-1.229-0.321-1.865c0.565-2.023,3.299-0.432,4.269,0.273    C269.905,344.479,270.195,344.092,269.979,343.895z" id="path194"/>
		<path style="fill-rule:evenodd;clip-rule:evenodd;fill:#272828;" d="M268.078,399.771c-0.849-0.141-1.805-0.105-2.499,0.464    c-0.614,0.503-0.773,1.333-0.622,2.074c0.167,0.82,0.822,1.385,1.562,1.688c0.847,0.346,2.627,0.338,3.106-0.59    c0.085-0.167,0.009-0.347-0.166-0.408c-0.732-0.259-1.58,0.245-2.362,0.081c-0.514-0.107-0.974-0.455-1.165-0.955    c-0.165-0.431-0.081-0.893,0.176-1.268c0.422-0.619,1.228-0.695,1.91-0.649C268.267,400.225,268.325,399.813,268.078,399.771z" id="path195"/>
		<path style="fill-rule:evenodd;clip-rule:evenodd;fill:#272828;" d="M268.853,403.389c-0.596,0.847-1.092,2.248-0.15,3.055    c0.396,0.34,0.891,0.382,1.387,0.308c0.668-0.102,1.157-0.581,1.419-1.176c0.074-0.17-0.051-0.444-0.275-0.357    c-0.349,0.136-0.687,0.27-1.02,0.435c-0.255,0.128-0.57,0.213-0.836,0.074c-0.69-0.364-0.245-1.56-0.008-2.037    C269.543,403.342,269.075,403.074,268.853,403.389z" id="path196"/>
		<path style="fill-rule:evenodd;clip-rule:evenodd;fill:#272828;" d="M295.805,413.395c-1.286,3.949-5.053,4.002-8.6,4.513    c-1.549,0.224-5.064,0.827-4.918,3.038c0.018,0.27,0.327,0.412,0.533,0.22c1.23-1.149,1.954-1.83,3.69-2.209    c1.609-0.353,3.261-0.478,4.873-0.815c2.469-0.517,4.863-1.906,4.993-4.668C296.392,413.132,295.903,413.094,295.805,413.395z" id="path197"/>
		<path style="fill-rule:evenodd;clip-rule:evenodd;fill:#272828;" d="M296.102,415.927c-1.795,3.557-5.425,3.323-8.861,3.501    c-1.324,0.069-4.407,0.379-4.343,2.246c0.007,0.2,0.202,0.292,0.372,0.214c1.278-0.582,1.949-1.358,3.48-1.552    c1.405-0.177,2.833-0.153,4.237-0.354c2.592-0.37,4.516-1.378,5.466-3.907C296.53,415.87,296.2,415.734,296.102,415.927z" id="path198"/>
		<path style="fill-rule:evenodd;clip-rule:evenodd;fill:#272828;" d="M296.666,417.806c-2.315,5.737-11.018,1.883-13.181,7.092    c-0.091,0.219,0.213,0.326,0.358,0.208c3.909-3.237,11.269-1.676,13.119-7.219C297.027,417.694,296.739,417.627,296.666,417.806z" id="path199"/>
		<path style="fill-rule:evenodd;clip-rule:evenodd;fill:#272828;" d="M292.821,424.06c-1.993,2.226-5.113,1.697-7.287,3.466    c-0.153,0.124-0.031,0.41,0.164,0.394c2.693-0.235,5.763-1.339,7.456-3.528C293.333,424.159,293.028,423.828,292.821,424.06z" id="path200"/>
		<path style="fill-rule:evenodd;clip-rule:evenodd;fill:#272828;" d="M296.502,449.976c-1.841,2.054-3.917,3.86-6.107,5.532    c-2.05,1.565-4.55,2.769-6.353,4.607c-0.184,0.188-0.001,0.564,0.271,0.464c4.903-1.791,9.235-6.408,12.449-10.345    C296.909,450.055,296.663,449.797,296.502,449.976z" id="path201"/>
		<path style="fill-rule:evenodd;clip-rule:evenodd;fill:#272828;" d="M293.915,456.318c-1.263,1.283-2.683,2.361-4.1,3.464    c-1.389,1.082-3.031,2.16-3.943,3.7c-0.107,0.183,0.112,0.42,0.299,0.298c1.347-0.884,2.503-2.101,3.738-3.138    c1.506-1.267,2.995-2.549,4.337-3.992C294.453,456.43,294.127,456.102,293.915,456.318z" id="path202"/>
		<path style="fill-rule:evenodd;clip-rule:evenodd;fill:#272828;" d="M292.399,461.182c-1.078,1.048-2.045,2.211-3.187,3.191    c-0.136,0.116,0.008,0.373,0.179,0.308c1.499-0.582,2.389-1.923,3.456-3.052C293.126,461.332,292.692,460.897,292.399,461.182z" id="path203"/>
	</g></svg>