<svg version="1.1" x="0px" y="0px" viewBox="556.6740959929748 240.69032199224182 114.14141450725162 217.61569172646887" style="enable-background:new 0 0 750 500;" xml:space="preserve" id="svg383" sodipodi:docname="simpletrees.svg" inkscape:version="1.4.2 (f4327f4, 2025-05-13)" xmlns:inkscape="http://www.inkscape.org/namespaces/inkscape" xmlns:sodipodi="http://sodipodi.sourceforge.net/DTD/sodipodi-0.dtd" xmlns="http://www.w3.org/2000/svg" xmlns:svg="http://www.w3.org/2000/svg"><defs id="defs383"/><g id="g354">
		<path style="fill-rule:evenodd;clip-rule:evenodd;fill:#FFFFFF;" d="M613.355,329.823c-14.774,45.986,7.025,68.125-5.621,136.656    c-1.974,9.34,13.862,10.496,14.695,0.065c1.713-20.334,0.158-40.663-2.066-59.529c6.315-28.22,32.396-42.956,33.542-72.533    c0.771-2.018-0.741-2.896-1.723-0.688c-1.837,24.487-24.188,36.464-33.87,57.115c-3.445-25.764-6.71-47.609-2.04-61.174    C616.014,325.94,613.302,326.423,613.355,329.823z" id="path266"/>
		<path style="fill-rule:evenodd;clip-rule:evenodd;fill:#272828;" d="M614.034,330.042c-7.326,22.801-5.599,39.741-3.59,59.457    c2.03,19.926,4.348,42.67-2.007,77.108l-0.004,0.017c-0.549,2.598,0.443,4.469,2.084,5.528c0.849,0.549,1.87,0.89,2.948,1.014    c1.091,0.125,2.233,0.026,3.31-0.306c2.506-0.775,4.659-2.846,4.939-6.37l0.002-0.004c0.852-10.145,0.894-20.279,0.442-30.226    c-0.45-9.949-1.394-19.736-2.507-29.165c-0.01-0.1,0-0.197,0.028-0.288c2.895-12.881,9.828-22.933,16.666-32.847    c8.183-11.859,16.227-23.52,16.847-39.504c0.002-0.08,0.018-0.157,0.045-0.229c0.168-0.444,0.201-0.772,0.148-0.967    c-0.144,0.097-0.317,0.323-0.501,0.71c-1.173,15.063-9.938,25.393-18.82,35.861c-5.654,6.663-11.357,13.385-15.105,21.379    c-0.168,0.356-0.592,0.511-0.949,0.345c-0.227-0.106-0.373-0.319-0.404-0.551l-0.498-3.699    c-3.246-24.157-5.991-44.587-1.561-57.66c-0.087-1.001-0.342-1.579-0.64-1.8c-0.051-0.038-0.099-0.056-0.134-0.055    c-0.046,0.003-0.102,0.031-0.164,0.085c-0.319,0.274-0.559,0.931-0.543,1.938C614.069,329.895,614.056,329.971,614.034,330.042    L614.034,330.042z M609.023,389.639c-2.023-19.842-3.76-36.896,3.617-59.926c0.002-1.407,0.452-2.414,1.042-2.922    c0.302-0.26,0.648-0.404,1.007-0.425c0.371-0.022,0.734,0.086,1.063,0.328c0.612,0.451,1.117,1.423,1.229,2.956    c0.014,0.105,0.004,0.213-0.033,0.319c-4.392,12.753-1.658,33.088,1.574,57.147l0.188,1.387    c3.792-7.252,9.047-13.447,14.264-19.592c8.756-10.32,17.395-20.501,18.496-35.169c0.008-0.079,0.027-0.159,0.061-0.235    c0.437-0.983,1.019-1.509,1.548-1.663c0.28-0.082,0.55-0.074,0.801,0.013l0.083,0.03c0.265,0.113,0.481,0.315,0.636,0.588    c0.271,0.483,0.335,1.25,0.016,2.155c-0.673,16.341-8.812,28.143-17.091,40.143c-6.75,9.783-13.592,19.705-16.435,32.277    c1.106,9.401,2.046,19.176,2.498,29.149c0.454,10.019,0.414,20.216-0.444,30.405c-0.335,4.209-2.929,6.688-5.946,7.621    c-1.268,0.392-2.612,0.507-3.892,0.361c-1.291-0.148-2.524-0.564-3.559-1.23c-2.115-1.367-3.402-3.75-2.709-7.022    C613.35,432.103,611.044,409.469,609.023,389.639z" id="path267"/>
		<path style="fill-rule:evenodd;clip-rule:evenodd;fill:#FFFFFF;" d="M597.407,326.122c-3.369-9.344-11.53-6.065-7.374,2.442    c-4.523-6.393-8.024-1.925-5.723,3.791c-3.325-5.738-10.261-3.09-5.492,5.111c-5.084-6.361-11.713-1.723-5.822,4.329    c-6.657-5.07-10.912,3.132-6.124,5.313c-6.47-1.118-8.771,4.414-1.475,8.305c-4.965-1.197-5.614,5.431-1.34,6.708    c-10.736,1.203-4.067,9.51,2.368,8.888c-12.034,7.455-3.515,14.338,3.618,7.586c-3.543,8.072,5.305,11.343,6.631-0.08    c2.388,11.388,11.61,11.714,9.376-1.596c1.61,9.487,10.638,6.972,7.972-3.435c2.571,6.292,9.522,8.029,8.307,0    c2.538,7.98,10.065,9.572,10.248-0.239c-0.629,8.607,8.159,8.464,9.444,2.637c2.715,7.067,7.934,4.1,7.971-1.798    c0.835,6.152,7.271,3.31,6.739-1.054c0.782,12.109,10.769,11.341,10.943,0.735c3.05,12.482,9.681,8.66,8.461-1.997    c7.752,8.412,18.032,0.209,4.738-6.639c12.85,3.446,10.383-8.472,4.015-10.031c7.336-3.476,6.607-8.642-2.679-6.17    c11.867-9.135,1.078-19.16-4.799-9.525c3.521-6.029-0.44-9.434-6.46-3.417c2.965-8.361-2.225-11.766-5.778-1.504    c0.515-8.692-3.069-12.333-7.879-3.082c0.769-8.423-2.749-10.706-6.966-1.837c1.868-9.24-6.104-5.185-7.804-1.438    c5.241-15.565-9.116-15.321-5.96-2.316c-1.757-9.671-7.684-11.191-6.833-1.038c-1.081-8.849-5.861-9.678-5.224-0.48    C603.607,314.11,597.764,318.066,597.407,326.122z" id="path268"/>
		<path style="fill-rule:evenodd;clip-rule:evenodd;fill:#272828;" d="M596.726,326.335c-1.118-3.083-2.743-4.658-4.191-5.047    c-0.529-0.142-1.026-0.116-1.45,0.057c-0.421,0.17-0.782,0.492-1.038,0.945c-0.688,1.202-0.684,3.27,0.631,5.961    c0.174,0.354,0.026,0.783-0.329,0.957c-0.34,0.165-0.746,0.037-0.934-0.284c-1.253-1.757-2.368-2.592-3.246-2.752    c-0.356-0.065-0.664-0.007-0.912,0.151c-0.274,0.175-0.499,0.476-0.665,0.874c-0.466,1.129-0.415,2.911,0.383,4.892    c0.146,0.366-0.031,0.783-0.396,0.93c-0.334,0.134-0.711-0.003-0.885-0.305c-1.044-1.802-2.443-2.668-3.623-2.713    c-0.419-0.015-0.804,0.076-1.127,0.268c-0.317,0.188-0.582,0.481-0.764,0.872c-0.547,1.188-0.35,3.203,1.257,5.968    c0.197,0.341,0.081,0.779-0.261,0.977c-0.323,0.188-0.733,0.092-0.943-0.21c-1.692-2.1-3.517-2.869-4.886-2.728    c-0.496,0.05-0.924,0.223-1.248,0.493c-0.313,0.262-0.536,0.624-0.639,1.064c-0.261,1.136,0.264,2.764,2.048,4.595    c0.274,0.283,0.269,0.736-0.014,1.011c-0.257,0.249-0.655,0.268-0.932,0.055c-2.144-1.634-3.961-1.75-5.206-1.138l-0.035,0.017    c-0.533,0.27-0.965,0.678-1.271,1.153c-0.31,0.483-0.487,1.033-0.509,1.574c-0.035,0.979,0.456,1.955,1.628,2.489    c0.359,0.163,0.517,0.587,0.353,0.945c-0.139,0.301-0.458,0.461-0.769,0.407c-1.875-0.322-3.334-0.052-4.226,0.579    c-0.414,0.294-0.702,0.669-0.839,1.094c-0.138,0.429-0.13,0.925,0.048,1.453c0.41,1.228,1.673,2.606,3.998,3.847    c0.348,0.185,0.479,0.616,0.294,0.965c-0.156,0.293-0.489,0.433-0.797,0.357c-1.307-0.314-2.221,0.008-2.737,0.623    c-0.232,0.273-0.394,0.615-0.479,0.986c-0.089,0.385-0.102,0.8-0.028,1.21c0.186,1.072,0.936,2.108,2.277,2.509    c0.379,0.113,0.595,0.512,0.481,0.89c-0.086,0.293-0.345,0.487-0.633,0.509c-2.826,0.322-4.293,1.117-4.802,2.069    c-0.215,0.399-0.253,0.843-0.15,1.293c0.114,0.5,0.399,1.018,0.808,1.508c1.33,1.591,3.88,2.838,6.393,2.595    c0.393-0.036,0.739,0.252,0.777,0.643c0.027,0.283-0.116,0.544-0.346,0.681c-3.866,2.397-5.482,4.658-5.664,6.353    c-0.071,0.662,0.093,1.225,0.429,1.649c0.347,0.441,0.892,0.756,1.564,0.908c1.693,0.382,4.119-0.265,6.432-2.455    c0.284-0.271,0.738-0.261,1.009,0.025c0.211,0.22,0.251,0.54,0.129,0.8c-1.051,2.405-0.918,4.29-0.22,5.373    c0.296,0.46,0.694,0.762,1.135,0.873c0.44,0.111,0.941,0.037,1.439-0.251c1.273-0.737,2.491-2.753,2.921-6.463    c0.046-0.393,0.399-0.675,0.792-0.63c0.325,0.037,0.574,0.288,0.625,0.597c0.845,4.009,2.538,6.538,4.22,7.482    c0.563,0.315,1.111,0.439,1.606,0.362c0.474-0.072,0.92-0.339,1.295-0.805c1.067-1.324,1.57-4.082,0.845-8.406l1.411-0.235    c0.489,2.895,1.678,4.543,2.954,5.103c0.499,0.22,1.015,0.264,1.496,0.144c0.493-0.123,0.963-0.422,1.361-0.882    c1.139-1.315,1.691-3.873,0.762-7.503c-0.097-0.382,0.135-0.77,0.516-0.867c0.354-0.09,0.714,0.103,0.841,0.435    c0.973,2.374,2.591,4.036,4.087,4.669c0.52,0.219,1.013,0.306,1.439,0.24c0.375-0.055,0.705-0.239,0.955-0.564    c0.531-0.69,0.756-1.978,0.452-3.982c-0.057-0.391,0.212-0.756,0.603-0.813c0.373-0.057,0.722,0.187,0.803,0.547    c0.885,2.742,2.37,4.658,3.9,5.52l0.047,0.029c0.618,0.339,1.235,0.494,1.806,0.45c0.555-0.043,1.08-0.285,1.525-0.743    c0.804-0.822,1.38-2.302,1.526-4.535c0.002-0.274,0.012-0.558,0.033-0.851c0.027-0.375,0.344-0.668,0.725-0.663    c0.394,0.007,0.708,0.332,0.702,0.725l-0.002,0.058c-0.004,0.243-0.014,0.477-0.027,0.708c-0.018,2.258,0.704,3.738,1.734,4.541    c0.493,0.386,1.065,0.616,1.66,0.701c0.598,0.085,1.222,0.023,1.812-0.182c1.32-0.454,2.473-1.61,2.857-3.355    c0.085-0.385,0.466-0.628,0.851-0.543c0.253,0.057,0.444,0.24,0.521,0.468c0.729,1.888,1.62,2.968,2.51,3.41    c0.456,0.227,0.912,0.275,1.34,0.176c0.45-0.105,0.883-0.376,1.264-0.778c0.864-0.914,1.456-2.468,1.47-4.379    c0-0.394,0.322-0.711,0.715-0.71c0.361,0.002,0.659,0.271,0.704,0.619c0.229,1.674,0.891,2.539,1.666,2.817    c0.319,0.116,0.673,0.135,1.028,0.072c0.373-0.066,0.746-0.222,1.092-0.45c0.907-0.603,1.594-1.697,1.563-2.982l-0.025-0.337    c-0.044-0.39,0.236-0.744,0.627-0.79c0.392-0.046,0.748,0.234,0.794,0.626c0.019,0.155,0.029,0.308,0.033,0.458    c0.326,3.827,1.606,6.186,3.146,7.217c0.598,0.401,1.233,0.592,1.856,0.581c0.622-0.011,1.241-0.225,1.815-0.633    c1.479-1.054,2.612-3.358,2.67-6.814c0.006-0.394,0.329-0.708,0.725-0.702c0.331,0.006,0.607,0.236,0.681,0.545    c0.957,3.917,2.233,6.115,3.47,6.938c0.441,0.293,0.862,0.384,1.239,0.295c0.4-0.094,0.789-0.391,1.139-0.867    c1.056-1.443,1.646-4.299,1.21-8.113c-0.044-0.392,0.236-0.747,0.629-0.792c0.243-0.027,0.47,0.069,0.62,0.239    c2.558,2.77,5.366,3.606,7.377,3.248c0.864-0.152,1.565-0.527,2.005-1.056c0.417-0.5,0.604-1.158,0.476-1.914    c-0.286-1.671-2.018-3.768-5.985-5.811c-0.352-0.181-0.489-0.611-0.308-0.962c0.155-0.304,0.501-0.448,0.818-0.363    c3.884,1.041,6.213,0.634,7.383-0.444c0.47-0.433,0.752-0.981,0.875-1.586c0.128-0.636,0.081-1.344-0.112-2.058    c-0.547-2.024-2.248-4.011-4.482-4.558c-0.383-0.093-0.62-0.478-0.527-0.861c0.054-0.219,0.202-0.39,0.39-0.479    c2.446-1.16,3.917-2.475,4.398-3.574c0.156-0.359,0.193-0.674,0.107-0.921c-0.083-0.237-0.296-0.448-0.643-0.612l-0.03-0.016    c-1.063-0.487-3.057-0.5-6.023,0.29c-0.381,0.1-0.773-0.128-0.872-0.509c-0.079-0.296,0.042-0.598,0.276-0.766    c3.986-3.076,5.266-6.195,5.005-8.527c-0.116-1.059-0.555-1.948-1.194-2.579c-0.629-0.622-1.456-0.998-2.366-1.041    c-1.651-0.077-3.592,0.936-5.19,3.53l-0.029,0.048c-0.205,0.336-0.645,0.442-0.98,0.236c-0.334-0.202-0.44-0.634-0.245-0.969    c1.062-1.822,1.39-3.338,1.156-4.347c-0.091-0.394-0.273-0.695-0.528-0.883c-0.263-0.194-0.626-0.288-1.072-0.264    c-1.212,0.068-2.909,0.955-4.896,2.941c-0.28,0.278-0.731,0.276-1.01-0.003c-0.199-0.2-0.255-0.49-0.168-0.741    c1.024-2.887,1.036-5.092,0.476-6.24c-0.16-0.325-0.356-0.539-0.572-0.619c-0.207-0.078-0.468-0.048-0.77,0.103    c-1.08,0.539-2.385,2.322-3.563,5.722c-0.128,0.373-0.535,0.57-0.906,0.442c-0.31-0.107-0.499-0.404-0.48-0.717    c0.178-3.055-0.151-5.429-0.864-6.759c-0.263-0.491-0.564-0.813-0.892-0.931c-0.304-0.109-0.675-0.051-1.113,0.199    c-1.034,0.59-2.275,2.112-3.663,4.781c-0.182,0.35-0.613,0.487-0.965,0.305c-0.284-0.147-0.427-0.459-0.375-0.757    c0.249-2.795,0.016-4.841-0.557-5.945c-0.197-0.38-0.42-0.614-0.657-0.686c-0.227-0.07-0.521-0.002-0.874,0.217    c-0.995,0.615-2.207,2.225-3.527,5.003c-0.169,0.357-0.596,0.51-0.951,0.342c-0.317-0.149-0.474-0.504-0.387-0.831    c0.433-2.163,0.302-3.475-0.157-4.166c-0.214-0.323-0.518-0.495-0.871-0.549c-0.426-0.065-0.936,0.022-1.468,0.219    c-1.602,0.59-3.308,2.092-3.965,3.538c-0.162,0.359-0.584,0.52-0.945,0.357c-0.348-0.157-0.51-0.56-0.371-0.911    c1.64-4.892,1.284-8.078,0.178-9.715c-0.516-0.761-1.188-1.153-1.869-1.193c-0.689-0.039-1.405,0.273-1.995,0.926    c-1.066,1.176-1.703,3.387-1.157,6.594c0.089,0.378,0.17,0.77,0.245,1.175c0.085,0.379-0.15,0.759-0.529,0.85    c-0.383,0.093-0.77-0.142-0.862-0.525c-0.102-0.427-0.188-0.839-0.256-1.241c-0.69-2.943-1.773-4.912-2.834-5.779    c-0.35-0.284-0.67-0.426-0.938-0.417c-0.228,0.008-0.45,0.142-0.653,0.409c-0.647,0.854-0.997,2.73-0.742,5.764    c0.031,0.394-0.261,0.739-0.655,0.772c-0.385,0.032-0.723-0.246-0.77-0.626c-0.389-3.185-1.243-5.236-2.118-6.073    c-0.223-0.214-0.42-0.32-0.574-0.315c-0.124,0.003-0.261,0.102-0.402,0.297c-0.568,0.778-0.902,2.554-0.711,5.427l0.004,0.051    c0.026,0.395-0.271,0.735-0.665,0.761c-0.389,0.027-0.726-0.264-0.76-0.651c-0.252-2.853-0.874-4.476-1.626-5.144    c-0.265-0.234-0.539-0.322-0.807-0.283c-0.322,0.045-0.667,0.256-1.015,0.602c-1.139,1.143-2.09,3.554-2.227,6.625    c-0.018,0.394-0.352,0.699-0.744,0.683C597.067,326.822,596.813,326.614,596.726,326.335L596.726,326.335z M592.903,319.906    c1.398,0.374,2.892,1.533,4.099,3.628c0.454-2.24,1.332-4.009,2.333-5.013c0.566-0.568,1.19-0.92,1.825-1.012    c0.688-0.1,1.358,0.096,1.96,0.631c0.352,0.314,0.681,0.757,0.972,1.342c0.175-0.664,0.41-1.183,0.681-1.556    c0.42-0.574,0.941-0.866,1.518-0.884c0.545-0.017,1.093,0.224,1.604,0.713c0.48,0.459,0.949,1.179,1.361,2.145    c0.193-0.775,0.468-1.378,0.798-1.813c0.478-0.632,1.075-0.952,1.742-0.975c0.624-0.022,1.269,0.228,1.889,0.737    c0.646,0.526,1.293,1.367,1.875,2.498c0.267-1.48,0.835-2.627,1.556-3.422c0.894-0.988,2.021-1.459,3.132-1.395    c1.117,0.065,2.194,0.665,2.976,1.819c1.034,1.53,1.552,4.099,0.853,7.733c0.8-0.672,1.699-1.224,2.574-1.545    c0.749-0.276,1.497-0.394,2.173-0.291c0.746,0.113,1.391,0.482,1.849,1.174c0.315,0.475,0.531,1.108,0.612,1.926    c0.872-1.342,1.709-2.227,2.469-2.697c0.725-0.448,1.415-0.563,2.043-0.369c0.619,0.189,1.128,0.665,1.507,1.397    c0.462,0.889,0.746,2.224,0.802,3.934c0.988-1.47,1.928-2.416,2.784-2.905c0.823-0.469,1.597-0.553,2.298-0.3    c0.677,0.243,1.239,0.793,1.672,1.603c0.515,0.965,0.864,2.35,1.006,4.056c0.967-1.809,1.987-2.888,2.909-3.35    c0.679-0.341,1.33-0.384,1.91-0.165c0.568,0.215,1.032,0.669,1.357,1.331c0.526,1.082,0.685,2.814,0.244,4.988    c1.521-1.142,2.886-1.685,3.988-1.746c0.792-0.044,1.467,0.147,1.996,0.538c0.536,0.395,0.905,0.98,1.077,1.717    c0.114,0.493,0.136,1.064,0.056,1.694c1.296-0.967,2.656-1.36,3.907-1.302c1.269,0.06,2.426,0.584,3.302,1.449    c0.866,0.856,1.459,2.045,1.612,3.441c0.255,2.289-0.669,5.162-3.521,8.032c1.93-0.254,3.371-0.095,4.314,0.339l0.045,0.021    c0.709,0.336,1.166,0.83,1.376,1.435c0.207,0.596,0.157,1.264-0.146,1.961c-0.497,1.136-1.73,2.404-3.681,3.549    c1.983,1.045,3.439,3.001,3.975,4.983c0.247,0.913,0.302,1.844,0.129,2.707c-0.18,0.895-0.603,1.711-1.305,2.357    c-1.036,0.954-2.679,1.525-5.051,1.4c2.242,1.691,3.332,3.403,3.584,4.888c0.205,1.192-0.106,2.249-0.787,3.067    c-0.659,0.79-1.658,1.341-2.856,1.554c-2.053,0.365-4.751-0.256-7.313-2.391c0.107,3.279-0.564,5.805-1.618,7.243    c-0.557,0.757-1.226,1.241-1.966,1.416c-0.764,0.18-1.564,0.027-2.352-0.498c-1.085-0.721-2.171-2.212-3.087-4.594    c-0.554,2.164-1.598,3.715-2.842,4.603c-0.809,0.576-1.707,0.878-2.62,0.895c-0.91,0.016-1.828-0.255-2.675-0.822    c-1.403-0.94-2.627-2.719-3.302-5.386c-0.351,0.48-0.781,0.888-1.253,1.2c-0.507,0.338-1.065,0.568-1.634,0.669    c-0.587,0.103-1.187,0.065-1.753-0.139c-0.605-0.218-1.162-0.62-1.61-1.238c-0.329,1.027-0.827,1.89-1.429,2.525    c-0.578,0.61-1.253,1.022-1.976,1.193c-0.746,0.176-1.529,0.096-2.302-0.288c-0.878-0.438-1.736-1.284-2.477-2.614    c-0.731,1.347-1.885,2.268-3.161,2.708c-0.802,0.275-1.652,0.361-2.478,0.242c-0.83-0.118-1.634-0.444-2.336-0.992    c-0.638-0.496-1.189-1.174-1.589-2.039c-0.319,0.806-0.728,1.445-1.2,1.928c-0.704,0.721-1.541,1.103-2.439,1.174    c-0.849,0.066-1.738-0.152-2.608-0.631l-0.056-0.028c-1.152-0.65-2.275-1.776-3.199-3.308c-0.149,0.685-0.4,1.237-0.729,1.663    c-0.489,0.636-1.135,0.996-1.87,1.107c-0.686,0.104-1.441-0.019-2.207-0.342c-1.017-0.431-2.07-1.234-3-2.345    c0.038,2.343-0.604,4.115-1.568,5.23c-0.599,0.692-1.322,1.143-2.096,1.337c-0.788,0.197-1.616,0.128-2.414-0.222    c-0.734-0.322-1.44-0.888-2.053-1.71c-0.108,2.225-0.665,3.83-1.474,4.834c-0.612,0.759-1.366,1.198-2.197,1.326    c-0.809,0.125-1.671-0.055-2.518-0.53c-1.529-0.859-3.05-2.742-4.1-5.575c-0.714,2.418-1.853,3.89-3.041,4.577    c-0.839,0.485-1.709,0.603-2.502,0.401c-0.792-0.201-1.492-0.714-1.992-1.487c-0.671-1.042-0.975-2.584-0.605-4.461    c-2.121,1.352-4.235,1.703-5.854,1.339c-0.993-0.225-1.815-0.717-2.37-1.417c-0.566-0.717-0.843-1.633-0.73-2.686    c0.189-1.764,1.521-3.951,4.543-6.201c-2.187-0.388-4.189-1.579-5.378-3.001c-0.553-0.665-0.94-1.385-1.106-2.111    c-0.175-0.776-0.102-1.555,0.285-2.277c0.564-1.053,1.804-1.951,3.929-2.475c-0.773-0.712-1.239-1.641-1.405-2.591    c-0.102-0.597-0.087-1.205,0.046-1.773c0.136-0.581,0.398-1.125,0.781-1.581c0.408-0.485,0.947-0.865,1.612-1.076    c-1.417-1.091-2.268-2.251-2.633-3.345c-0.278-0.83-0.284-1.628-0.053-2.343c0.232-0.72,0.702-1.344,1.377-1.82    c0.766-0.542,1.802-0.892,3.054-0.965c-0.472-0.706-0.675-1.522-0.644-2.343c0.029-0.802,0.286-1.602,0.732-2.297    c0.436-0.681,1.06-1.266,1.837-1.657l0.039-0.02c1.057-0.521,2.381-0.68,3.877-0.227c-0.616-1.248-0.752-2.392-0.535-3.335    c0.174-0.752,0.568-1.379,1.121-1.841c0.542-0.451,1.233-0.737,2.015-0.817c1.076-0.11,2.339,0.175,3.615,0.966    c-0.497-1.735-0.402-3.137,0.065-4.149c0.306-0.664,0.768-1.169,1.332-1.504c0.559-0.33,1.212-0.488,1.904-0.463    c0.9,0.033,1.875,0.384,2.789,1.075c-0.104-1.163,0.031-2.195,0.363-2.996c0.278-0.67,0.69-1.198,1.22-1.533    c0.551-0.352,1.205-0.487,1.934-0.353c0.58,0.106,1.212,0.393,1.875,0.891c-0.298-1.69-0.063-3.078,0.503-4.073    c0.425-0.743,1.028-1.275,1.745-1.565C591.255,319.729,592.066,319.682,592.903,319.906z" id="path269"/>
		<path style="fill-rule:evenodd;clip-rule:evenodd;fill:#FFFFFF;" d="M576.732,336.862c-1.339,6.948-7.119,4.398-5.254-0.672    c-4.322,5.905-8.981,2.639-6.06-3.298c0,0-5.24,3.468-5.246-0.735c-0.006-4.203,4.247-4.343,4.247-4.343s-4.185-3.343-3.252-6.667    c0.933-3.325,6.088,0.932,6.088,0.932s-4.474-2.731-2.879-8.324c1.595-5.593,5.253,0.27,5.253,0.27s-3.566-4.269-2.021-7.106    c1.543-2.837,3.507,2.784,3.507,2.784s-2.378-6.641,0.92-8.496c3.298-1.854,3.542,3.675,3.542,3.675s0.786-7.967,3.604-7.675    c2.819,0.292,1.203,6.146,1.203,6.146s0.257-6.301,3.162-6.236c2.902,0.064,2.631,4.32,2.631,4.32s0.53-5.647,3.822-6.051    c3.292-0.403,3.576,6.203,3.576,6.203s-0.312-5.711,2.303-5.855c2.615-0.144,2.311,6.569,2.311,6.569s1.413-7.071,4.835-6.515    c3.422,0.557,1.571,6.722,1.571,6.722s2.887-5.999,5.336-4.794c2.449,1.205-0.967,6.489-0.967,6.489s4.34-3.995,6.063-2.23    c1.722,1.767-0.814,5.626-0.814,5.626s2.299-3.513,4.298-2.654c1.998,0.858,0.237,3.744,0.237,3.744s1.682-6.527,5.299-5.796    c3.615,0.732,1.386,4.352,1.386,4.352s0.586-2.6,2.749-2.346c2.161,0.253,2.208,2.09,2.208,2.09s-0.339-5.354,2.737-5.672    c3.077-0.317,1.463,4.756,1.463,4.756s0.977-5.448,4.158-5.436c3.183,0.011,1.237,5.363,1.237,5.363s1.305-4.201,3.568-4.547    c2.264-0.349,1.45,3.602,1.45,3.602s2.181-3.282,3.994-2.414c1.811,0.869,0.002,4.948,0.002,4.948s2.843-4.806,5.552-3.28    c2.712,1.525-1.257,6.243-1.257,6.243s3.686-4.74,6.477-1.991c2.788,2.748-1.901,5.759-1.901,5.759s6.124-1.378,7.479,3.012    c1.355,4.391-3.979,5.203-3.979,5.203s5.771-0.837,5.908,2.727c0.137,3.563-5.179,3.261-5.179,3.261s4.729,2.94,4.332,5.566    c-0.397,2.625-5.921,0.175-5.921,0.175s6.852,1.337,4.902,5.759c-1.949,4.421-7.886-1.23-7.886-1.23s1.089,6.215-2.66,6.049    c-3.752-0.167-3.472-4.275-3.472-4.275s-4.989,4.961-7.817,2.809c-2.83-2.15,0.261-6.188,0.261-6.188s-5.161,5.342-8.419,3.363    c-3.259-1.979-1.283-5.734-1.283-5.734s-3.278,5.612-7.079,4.109c-3.801-1.503-2.173-6.205-2.173-6.205s-1.185,8.175-4.719,7.104    c-3.537-1.071-1.721-7.419-1.721-7.419s-0.201,7.748-4.836,7.333c-4.634-0.417-3.813-6.637-3.813-6.637s-0.876,6.373-4.742,6.436    c-3.866,0.063-3.685-4.932-3.685-4.932s0.939,7.337-3.315,7.049c-4.256-0.288-3.642-6.222-3.642-6.222s-0.332,7.762-3.446,7.933    c-3.112,0.171-3.234-4.476-3.234-4.476c-1.711,8.017-4.857,4.41-4.083-1.007C581.743,343.908,576.647,343.83,576.732,336.862z" id="path270"/>
		<path style="fill-rule:evenodd;clip-rule:evenodd;fill:#272828;" d="M576.381,339.907c-0.535,0.874-1.183,1.424-1.846,1.699    c-0.609,0.253-1.232,0.281-1.808,0.119c-0.568-0.161-1.081-0.505-1.482-0.998l-0.035-0.049c-0.442-0.566-0.74-1.329-0.802-2.229    c-1.095,0.972-2.177,1.462-3.132,1.555c-0.712,0.069-1.361-0.079-1.906-0.409c-0.547-0.332-0.975-0.84-1.247-1.49    c-0.395-0.943-0.458-2.212-0.056-3.687c-1.879,0.814-4.604,1.371-4.61-2.262c-0.004-3.126,2.004-4.321,3.458-4.776    c-1.272-1.335-3.161-3.843-2.438-6.427c0.555-1.977,2.07-2.061,3.57-1.556c-0.69-1.457-1.056-3.4-0.361-5.84    c0.814-2.849,2.016-3.414,3.17-3.064c-0.417-1.289-0.539-2.698,0.124-3.917c0.9-1.652,1.824-1.595,2.617-0.9    c-0.097-1.966,0.29-4.083,2.088-5.094c1.997-1.123,3.132-0.297,3.773,0.916c0.604-2.408,1.751-5.215,3.795-5.003    c0.961,0.099,1.542,0.629,1.879,1.357c0.566-0.866,1.346-1.475,2.428-1.451c1.415,0.032,2.234,0.797,2.706,1.724    c0.633-1.59,1.74-3.218,3.646-3.45c1.79-0.22,2.854,1.089,3.481,2.624c0.419-1.205,1.156-2.209,2.445-2.279    c1.709-0.094,2.475,1.745,2.815,3.602c0.888-1.94,2.335-3.89,4.485-3.54c2.153,0.35,2.671,2.311,2.661,4.157    c1.199-1.543,2.836-2.958,4.448-2.165c1.73,0.852,1.373,3.005,0.69,4.79c1.533-0.909,3.432-1.587,4.601-0.388    c0.827,0.848,0.901,2.02,0.685,3.136c0.789-0.47,1.684-0.704,2.569-0.324c0.354,0.151,0.624,0.342,0.831,0.559    c0.997-1.616,2.495-3.07,4.563-2.652c1.763,0.356,2.451,1.229,2.629,2.172c0.405-0.166,0.885-0.243,1.447-0.177    c0.653,0.076,1.156,0.27,1.543,0.52c0.274-1.745,1.06-3.876,3.248-4.102c1.401-0.146,2.11,0.449,2.435,1.301    c0.748-1.099,1.802-1.99,3.259-1.983c1.686,0.005,2.328,1.015,2.492,2.226c0.603-0.707,1.34-1.272,2.207-1.406    c1.754-0.27,2.279,1.016,2.388,2.272c0.941-0.856,2.224-1.614,3.472-1.018c1.008,0.483,1.243,1.569,1.17,2.678    c1.204-1.082,2.799-1.907,4.425-0.992c1.514,0.852,1.508,2.35,1.021,3.77c1.342-0.652,2.919-0.813,4.352,0.599    c2.019,1.99,0.959,4.019-0.253,5.35c2.112,0.008,5.055,0.613,6.012,3.721c0.74,2.396-0.172,3.883-1.368,4.79    c1.627,0.32,3.245,1.181,3.328,3.324c0.103,2.663-2.142,3.564-3.898,3.862c1.459,1.204,3.34,3.163,3.048,5.095    c-0.162,1.064-0.843,1.557-1.719,1.726c0.986,1.028,1.499,2.453,0.645,4.391c-1.699,3.853-5.612,1.659-7.685,0.116    c0.039,2.085-0.413,5.268-3.545,5.128c-2.828-0.125-3.741-2.084-4.029-3.517c-1.755,1.424-5.252,3.737-7.662,1.906    c-1.537-1.17-1.661-2.75-1.334-4.131c-1.941,1.357-4.638,2.637-6.761,1.348c-1.615-0.98-2.146-2.313-2.219-3.529    c-1.462,1.48-3.629,2.912-6.039,1.96c-1.293-0.512-2.053-1.327-2.478-2.227c-0.872,2.003-2.26,3.777-4.356,3.143    c-1.242-0.376-1.942-1.251-2.313-2.296c-0.831,1.38-2.113,2.414-4.097,2.235c-2.532-0.227-3.667-1.884-4.162-3.576    c-0.81,1.694-2.151,3.345-4.322,3.379c-1.51,0.024-2.505-0.569-3.158-1.382c-0.42,1.898-1.46,3.664-3.899,3.499    c-1.908-0.129-2.986-1.18-3.592-2.43c-0.57,2.045-1.593,4.041-3.408,4.141c-1.84,0.102-2.83-1.067-3.365-2.317    c-0.42,1.059-0.882,1.741-1.342,2.108c-0.497,0.4-1.015,0.498-1.516,0.346c-0.444-0.135-0.833-0.472-1.139-0.966    c-0.338-0.543-0.597-1.328-0.73-2.269c-0.526,0.712-1.113,1.235-1.713,1.562c-0.648,0.354-1.316,0.487-1.958,0.397    c-0.653-0.092-1.259-0.41-1.769-0.958C577.019,341.489,576.637,340.799,576.381,339.907L576.381,339.907z M573.986,340.286    c0.823-0.342,1.635-1.438,2.045-3.558c0.063-0.333,0.359-0.584,0.711-0.58c0.393,0.006,0.708,0.328,0.704,0.722    c-0.025,2.062,0.415,3.428,1.077,4.141c0.276,0.298,0.593,0.47,0.918,0.515c0.338,0.048,0.709-0.032,1.082-0.235    c0.928-0.505,1.843-1.719,2.445-3.621c0.104-0.328,0.432-0.542,0.783-0.492c0.391,0.056,0.663,0.418,0.607,0.809    c-0.284,1.99-0.02,3.677,0.502,4.516c0.122,0.197,0.238,0.32,0.339,0.35c0.042,0.014,0.112-0.017,0.212-0.096    c0.54-0.43,1.122-1.665,1.624-4.013c0.066-0.311,0.337-0.551,0.671-0.564c0.395-0.016,0.727,0.291,0.742,0.685    c0,0.012,0.108,3.922,2.481,3.791c2.128-0.116,2.646-5.443,2.749-6.893c0.01-0.246,0.025-0.392,0.025-0.395    c0.038-0.393,0.39-0.679,0.78-0.641c0.381,0.037,0.663,0.368,0.643,0.747c0,0.002-0.006,0.156-0.025,0.417    c-0.045,1.205,0.065,4.855,3.002,5.054c2.457,0.167,2.696-3.196,2.641-5.056c-0.106-0.746-0.087-1.289-0.087-1.293    c0.008-0.395,0.334-0.708,0.729-0.699c0.359,0.007,0.651,0.279,0.692,0.626c0.004,0.006,0.067,0.501,0.087,1.241    c0.193,1.258,0.825,3.097,2.88,3.065c3.252-0.053,4.043-5.805,4.047-5.821c0.054-0.386,0.409-0.658,0.798-0.609    c0.391,0.049,0.667,0.407,0.618,0.797l-0.007,0.046c-0.059,0.52-0.517,5.46,3.174,5.791c2.103,0.189,3.12-1.787,3.609-3.633    c0.054-1.71,0.472-3.174,0.474-3.183c0.107-0.38,0.502-0.603,0.883-0.495c0.335,0.094,0.549,0.414,0.519,0.749    c-0.01,0.237-0.075,1.623-0.482,3.178c-0.031,1.498,0.296,3.074,1.697,3.498c1.896,0.575,2.99-2.77,3.483-4.885    c0.093-1.018,0.35-1.759,0.352-1.765c0.126-0.374,0.53-0.574,0.905-0.447c0.332,0.112,0.527,0.445,0.478,0.78    c0,0.006-0.097,0.667-0.319,1.601c-0.108,1.292,0.132,3.077,2.049,3.835c3.23,1.276,6.192-3.79,6.202-3.804    c0.188-0.322,0.597-0.446,0.934-0.277c0.352,0.175,0.496,0.604,0.32,0.957c-0.006,0.008-1.67,3.175,1.012,4.805    c2.651,1.609,7.129-2.836,7.514-3.227c0.245-0.277,0.667-0.325,0.967-0.099c0.316,0.239,0.377,0.688,0.141,1.002    c-0.008,0.011-2.656,3.476-0.4,5.19c2.33,1.774,6.873-2.737,6.886-2.75c0.138-0.135,0.327-0.213,0.534-0.204    c0.393,0.019,0.699,0.353,0.679,0.747c0,0.01-0.229,3.394,2.791,3.526c2.861,0.127,1.926-5.196,1.924-5.212    c-0.035-0.212,0.024-0.44,0.182-0.61c0.268-0.288,0.721-0.305,1.011-0.035c0.014,0.014,5.208,4.947,6.743,1.463    c0.902-2.046-0.633-3.307-2.129-4.013c-1.311-0.316-2.396-0.8-2.404-0.803c-0.36-0.157-0.526-0.579-0.369-0.94    c0.143-0.321,0.492-0.488,0.823-0.408c0.184,0.039,1.374,0.297,2.631,0.898c1.152,0.275,2.291,0.328,2.416-0.484    c0.308-2.043-3.555-4.569-3.971-4.836c-0.233-0.128-0.383-0.381-0.367-0.664c0.021-0.394,0.359-0.695,0.752-0.674    c0.012,0.001,4.533,0.259,4.427-2.521c-0.104-2.647-4.674-2.101-5.074-2.048l-0.006,0.001c-0.389,0.064-0.758-0.198-0.823-0.588    c-0.063-0.39,0.199-0.758,0.588-0.821c0.014-0.002,4.525-0.693,3.417-4.289c-1.159-3.755-6.634-2.526-6.649-2.521    c-0.282,0.058-0.586-0.06-0.75-0.317c-0.211-0.331-0.112-0.773,0.219-0.984c0.011-0.007,3.936-2.525,1.782-4.648    c-1.989-1.96-4.764,1.143-5.315,1.805l-0.108,0.134c-0.253,0.304-0.705,0.348-1.009,0.096c-0.302-0.251-0.346-0.696-0.101-1.002    l0.095-0.115c0.527-0.655,3.134-4.062,1.37-5.054c-2.097-1.181-4.583,3.014-4.591,3.025c-0.184,0.302-0.565,0.43-0.898,0.286    c-0.36-0.158-0.526-0.579-0.369-0.94c0.005-0.009,1.528-3.453,0.346-4.02c-1.251-0.599-3.087,2.16-3.091,2.168    c-0.155,0.234-0.443,0.362-0.735,0.305c-0.387-0.076-0.64-0.454-0.563-0.843c0.002-0.008,0.602-2.946-0.642-2.755    c-1.544,0.237-2.617,2.968-2.911,3.807l-0.091,0.267c-0.128,0.372-0.537,0.569-0.908,0.44c-0.364-0.126-0.561-0.518-0.447-0.883    l0.077-0.232c0.281-0.868,1.247-4.202-0.632-4.209c-1.81-0.007-2.779,2.369-3.197,3.797c-0.128,0.666-0.276,1.134-0.278,1.139    c-0.116,0.376-0.518,0.587-0.894,0.47c-0.366-0.113-0.576-0.496-0.48-0.863c0.028-0.14,0.109-0.531,0.265-1.052    c0.235-1.182,0.371-2.951-0.963-2.813c-2.275,0.234-2.119,4.478-2.098,4.891v0.032l-1.425,0.078l-0.002-0.021    c-0.013-0.164-0.146-1.231-1.577-1.399c-0.699-0.082-1.17,0.288-1.478,0.713c-0.24,0.746-0.576,1.291-0.578,1.295    c-0.207,0.337-0.646,0.443-0.983,0.238c-0.268-0.165-0.391-0.478-0.324-0.77c0-0.004,0.143-0.633,0.541-1.306    c0.211-0.83,0.143-1.88-1.369-2.188c-1.774-0.358-3.03,1.616-3.748,3.252c-0.148,1.149-0.792,2.201-0.796,2.206    c-0.199,0.341-0.635,0.454-0.975,0.255c-0.282-0.165-0.408-0.493-0.329-0.793c0-0.008,0.225-0.877,0.694-1.97    c0.012-0.403-0.114-0.762-0.525-0.938c-1.324-0.568-3.078,1.889-3.376,2.322l-0.038,0.06c-0.213,0.333-0.655,0.429-0.986,0.215    c-0.332-0.212-0.429-0.655-0.216-0.987c0.006-0.009,2.219-3.391,0.902-4.74c-1.231-1.264-5.057,2.25-5.068,2.26    c-0.232,0.213-0.588,0.251-0.866,0.072c-0.333-0.213-0.431-0.655-0.217-0.987c0.01-0.013,2.978-4.613,1.253-5.462    c-1.8-0.886-4.371,4.448-4.377,4.464c-0.15,0.308-0.504,0.473-0.843,0.375c-0.379-0.109-0.597-0.505-0.487-0.884    c0.006-0.016,1.614-5.394-0.999-5.818c-2.733-0.445-4.017,5.937-4.021,5.955c-0.07,0.337-0.375,0.584-0.729,0.567    c-0.396-0.017-0.701-0.35-0.684-0.744c0-0.016,0.267-5.925-1.559-5.825c-1.9,0.104-1.63,5.093-1.628,5.106v0.005    c0.016,0.395-0.29,0.728-0.684,0.744c-0.393,0.018-0.724-0.285-0.744-0.677l-0.002-0.054c-0.031-0.55-0.381-5.769-2.774-5.475    c-2.716,0.332-3.197,5.397-3.199,5.411c-0.037,0.374-0.361,0.657-0.74,0.642c-0.395-0.018-0.7-0.351-0.683-0.744    c0-0.01,0.219-3.528-1.934-3.576c-1.049-0.023-1.65,1.238-1.994,2.566c-0.041,1.622-0.457,3.136-0.461,3.144    c-0.104,0.382-0.496,0.607-0.879,0.504c-0.347-0.095-0.565-0.43-0.522-0.777c0.016-0.28,0.104-1.654,0.491-3.101    c0.031-1.126-0.186-2.159-1.058-2.25c-2.041-0.211-2.775,6.59-2.818,7.015c-0.023,0.354-0.312,0.645-0.677,0.664    c-0.393,0.021-0.729-0.283-0.75-0.678c0-0.012-0.199-4.369-2.479-3.087c-2.63,1.48-0.793,7.054-0.607,7.597l0.012,0.035    c0.135,0.372-0.062,0.781-0.432,0.914c-0.373,0.133-0.784-0.061-0.916-0.434c-0.004-0.011-1.44-4.093-2.207-2.684    c-0.894,1.645,0.33,3.973,1.202,5.291c0.485,0.597,0.792,1.086,0.796,1.092c0.211,0.331,0.112,0.772-0.22,0.984    c-0.306,0.193-0.704,0.127-0.93-0.144c-0.006-0.003-0.298-0.354-0.685-0.929c-0.897-1.07-2.524-2.446-3.333,0.396    c-1.088,3.811,0.903,6.138,1.964,7.061c0.414,0.296,0.671,0.508,0.675,0.511c0.308,0.247,0.356,0.697,0.108,1.004    c-0.228,0.285-0.632,0.349-0.934,0.159c-0.004-0.001-0.302-0.183-0.725-0.547c-1.233-0.89-3.82-2.508-4.3-0.799    c-0.804,2.868,3.004,5.912,3.016,5.92c0.151,0.125,0.252,0.313,0.263,0.523c0.018,0.395-0.288,0.727-0.684,0.744    c-0.01,0.001-3.567,0.118-3.563,3.63c0.004,2.87,4.13,0.145,4.143,0.137c0.205-0.133,0.473-0.157,0.708-0.042    c0.354,0.175,0.497,0.603,0.323,0.956c-0.911,1.854-1.021,3.377-0.615,4.35c0.154,0.368,0.383,0.648,0.665,0.818    c0.282,0.172,0.636,0.247,1.036,0.208c1.054-0.103,2.388-0.953,3.742-2.794c0.18-0.266,0.523-0.386,0.838-0.271    c0.371,0.136,0.561,0.547,0.425,0.918c-0.543,1.477-0.353,2.666,0.18,3.355l0.029,0.034c0.213,0.263,0.476,0.443,0.756,0.523    C573.387,340.427,573.686,340.411,573.986,340.286z" id="path271"/>
		<path style="fill-rule:evenodd;clip-rule:evenodd;fill:#FFFFFF;" d="M602.329,268.129c-2.577-7.15-8.822-4.643-5.645,1.868    c-3.46-4.892-6.138-1.473-4.377,2.9c-2.544-4.39-7.853-2.365-4.202,3.911c-3.892-4.867-8.964-1.317-4.456,3.314    c-5.094-3.88-6.075,2.413-2.412,4.081c-4.949-0.855-6.712,3.379-1.129,6.355c-3.799-0.916-4.296,4.154-1.024,5.133    c-7.547-1.635-5.386,7.26-0.461,6.783c-6.286,7.495-1.198,13.06,2.767,5.806c-0.742,6.354,5.074,9.156,5.074-0.063    c1.827,8.715,8.885,8.965,7.176-1.222c1.233,7.26,8.139,5.336,6.1-2.626c1.968,4.814,7.285,6.144,6.355-0.001    c1.943,6.105,7.702,7.324,7.841-0.183c-0.479,6.585,6.244,6.476,7.227,2.017c2.078,5.408,6.071,3.137,6.101-1.374    c0.638,4.706,5.563,2.531,5.157-0.807c0.598,9.265,8.239,8.677,8.373,0.562c2.333,9.552,7.407,9.133,6.474,0.977    c5.177,11.924,13.456,1.688,6.698-7.026c5.613-2.66,5.057-14.849-2.049-12.955c4.904-6.991,0.823-11.918-3.673-4.545    c2.694-4.614-1.203-9.165-5.81-4.561c2.269-6.398-0.835-9.803-3.555-1.95c0.393-6.651-2.349-9.436-6.029-2.358    c0.586-6.444-2.103-8.191-5.33-1.405c1.431-7.07-4.672-3.968-5.971-1.1c4.009-11.909-6.976-11.724-4.563-1.772    c-1.344-7.399-5.879-8.565-5.227-0.794c-0.827-6.771-4.484-7.405-3.997-0.367C607.075,258.936,602.602,261.963,602.329,268.129z" id="path272"/>
		<path style="fill-rule:evenodd;clip-rule:evenodd;fill:#272828;" d="M601.648,268.341c-0.835-2.296-2.031-3.465-3.093-3.75    c-0.367-0.098-0.711-0.082-1.003,0.036c-0.286,0.117-0.535,0.338-0.712,0.65c-0.502,0.879-0.49,2.403,0.487,4.406    c0.174,0.355,0.025,0.783-0.33,0.957c-0.339,0.166-0.746,0.038-0.932-0.284c-0.927-1.297-1.738-1.91-2.37-2.025    c-0.227-0.042-0.422-0.005-0.576,0.093c-0.18,0.114-0.331,0.317-0.444,0.59c-0.341,0.828-0.3,2.146,0.295,3.618    c0.145,0.365-0.032,0.782-0.399,0.929c-0.333,0.134-0.708-0.003-0.882-0.305c-0.768-1.324-1.784-1.961-2.635-1.992    c-0.286-0.011-0.551,0.052-0.77,0.182c-0.215,0.127-0.395,0.326-0.518,0.593c-0.398,0.864-0.244,2.351,0.956,4.412    c0.197,0.341,0.08,0.778-0.261,0.976c-0.324,0.188-0.734,0.093-0.945-0.21c-1.251-1.55-2.588-2.118-3.582-2.017    c-0.346,0.036-0.643,0.154-0.866,0.341c-0.212,0.176-0.363,0.423-0.433,0.722c-0.189,0.819,0.205,2.007,1.523,3.361    c0.274,0.283,0.268,0.735-0.014,1.01c-0.257,0.251-0.655,0.268-0.932,0.057c-1.313-1-2.233-1.233-2.798-1.034    c-0.224,0.079-0.392,0.241-0.498,0.453c-0.132,0.261-0.185,0.591-0.161,0.946v0.01c0.063,0.928,0.648,1.974,1.775,2.486    c0.359,0.164,0.519,0.589,0.355,0.948c-0.142,0.313-0.482,0.474-0.805,0.402c-1.372-0.23-2.432-0.035-3.075,0.42    c-0.288,0.204-0.485,0.462-0.58,0.752c-0.095,0.295-0.087,0.638,0.035,1.007c0.302,0.903,1.243,1.923,2.98,2.85    c0.348,0.186,0.479,0.617,0.294,0.965c-0.156,0.293-0.487,0.432-0.797,0.358c-0.928-0.225-1.569-0.004-1.927,0.42    c-0.16,0.189-0.271,0.426-0.331,0.684c-0.065,0.273-0.071,0.568-0.021,0.86c0.133,0.764,0.667,1.502,1.627,1.788    c0.377,0.113,0.592,0.512,0.479,0.891c-0.106,0.36-0.474,0.572-0.835,0.494c-1.916-0.414-3.063-0.1-3.622,0.546    c-0.302,0.351-0.441,0.811-0.443,1.309c-0.002,0.542,0.155,1.126,0.447,1.661c0.604,1.117,1.776,2,3.239,1.857    c0.393-0.036,0.74,0.252,0.777,0.643c0.019,0.197-0.045,0.384-0.164,0.524c-2.338,2.792-3.01,5.236-2.735,6.748    c0.087,0.478,0.271,0.838,0.519,1.05c0.209,0.181,0.487,0.256,0.805,0.205c0.855-0.139,1.942-1.049,3.006-2.995    c0.188-0.347,0.622-0.475,0.967-0.287c0.263,0.144,0.401,0.429,0.369,0.708c-0.25,2.163,0.303,3.836,1.092,4.636    c0.243,0.246,0.495,0.392,0.73,0.418c0.203,0.023,0.416-0.049,0.617-0.23c0.684-0.609,1.208-2.16,1.208-4.966    c0-0.395,0.321-0.715,0.717-0.715c0.362,0,0.661,0.269,0.71,0.617c0.638,3.002,1.896,4.891,3.143,5.591    c0.396,0.223,0.779,0.311,1.118,0.258c0.324-0.05,0.63-0.233,0.889-0.555c0.789-0.979,1.158-3.044,0.611-6.3l1.409-0.235    c0.365,2.151,1.233,3.371,2.163,3.777c0.348,0.152,0.705,0.184,1.038,0.1c0.344-0.086,0.673-0.296,0.955-0.621    c0.839-0.97,1.241-2.87,0.547-5.59c-0.099-0.384,0.134-0.773,0.518-0.87c0.37-0.095,0.747,0.12,0.858,0.48    c0.729,1.749,1.92,2.971,3.018,3.435c0.368,0.155,0.716,0.217,1.01,0.173c0.245-0.037,0.46-0.157,0.624-0.368    c0.379-0.494,0.537-1.438,0.312-2.921c-0.057-0.391,0.211-0.756,0.603-0.814c0.373-0.056,0.722,0.187,0.803,0.549    c0.665,2.05,1.77,3.477,2.901,4.116c0.46,0.255,0.911,0.376,1.324,0.343l0.012-0.001c0.381-0.031,0.74-0.2,1.05-0.517    c0.586-0.602,1.009-1.693,1.119-3.351c0-0.215,0.01-0.437,0.025-0.665c0.028-0.376,0.344-0.669,0.725-0.663    c0.395,0.006,0.708,0.331,0.702,0.725l-0.002,0.058c-0.004,0.179-0.01,0.352-0.021,0.522c-0.014,1.672,0.514,2.762,1.263,3.346    c0.355,0.276,0.767,0.442,1.192,0.503c0.431,0.061,0.88,0.016,1.307-0.132c0.959-0.33,1.798-1.171,2.078-2.445    c0.085-0.385,0.466-0.627,0.851-0.542c0.253,0.056,0.444,0.239,0.523,0.468c0.54,1.396,1.191,2.191,1.835,2.513l0.029,0.015    c0.303,0.142,0.602,0.172,0.885,0.106c0.312-0.073,0.613-0.263,0.882-0.547c0.634-0.67,1.069-1.819,1.078-3.235    c0.002-0.395,0.321-0.712,0.716-0.711c0.361,0.001,0.657,0.271,0.705,0.617c0.163,1.21,0.625,1.829,1.166,2.023    c0.215,0.078,0.456,0.09,0.698,0.047c0.265-0.046,0.529-0.156,0.771-0.319c0.651-0.432,1.146-1.216,1.121-2.137l-0.018-0.243    c-0.043-0.391,0.235-0.744,0.626-0.791c0.392-0.046,0.748,0.234,0.795,0.627c0.014,0.123,0.024,0.245,0.028,0.365    c0.242,2.865,1.193,4.625,2.33,5.387c0.429,0.287,0.883,0.425,1.326,0.417c0.44-0.008,0.885-0.161,1.295-0.453    c1.092-0.778,1.928-2.496,1.972-5.081c0.006-0.394,0.329-0.708,0.725-0.702c0.331,0.005,0.607,0.237,0.681,0.545    c0.841,3.44,2.009,5.484,3.084,6.275c0.315,0.229,0.595,0.33,0.827,0.305c0.205-0.023,0.405-0.162,0.584-0.409    c0.579-0.802,0.859-2.466,0.575-4.943c-0.044-0.393,0.236-0.747,0.629-0.791c0.34-0.04,0.65,0.166,0.756,0.476    c1.384,3.165,2.935,4.619,4.295,4.89c0.657,0.13,1.276-0.033,1.8-0.42c0.572-0.419,1.044-1.099,1.356-1.956    c0.821-2.262,0.499-5.66-1.991-8.871c-0.24-0.311-0.184-0.761,0.128-1.001c0.044-0.033,0.087-0.06,0.133-0.081    c2.051-0.972,3.179-3.432,3.358-5.876c0.073-0.995-0.014-1.981-0.258-2.858c-0.237-0.848-0.622-1.588-1.15-2.127    c-0.794-0.807-1.96-1.171-3.514-0.757c-0.381,0.101-0.771-0.128-0.872-0.509c-0.056-0.212-0.012-0.427,0.106-0.593    c1.806-2.575,2.321-4.792,2.023-6.111c-0.085-0.381-0.235-0.659-0.435-0.815c-0.166-0.132-0.393-0.181-0.667-0.134    c-0.88,0.152-2.072,1.136-3.371,3.251l-0.029,0.048c-0.205,0.337-0.645,0.443-0.983,0.238c-0.331-0.203-0.439-0.636-0.244-0.97    c0.837-1.437,0.961-2.839,0.592-3.867c-0.158-0.443-0.41-0.815-0.738-1.082c-0.311-0.257-0.698-0.416-1.137-0.449    c-0.936-0.067-2.117,0.416-3.406,1.703c-0.278,0.278-0.732,0.277-1.009-0.003c-0.199-0.2-0.256-0.49-0.167-0.739    c0.831-2.348,0.907-4.212,0.542-5.163c-0.08-0.211-0.167-0.344-0.252-0.383c-0.04-0.018-0.114,0.004-0.228,0.069    c-0.637,0.375-1.444,1.612-2.27,3.996c-0.128,0.372-0.534,0.569-0.907,0.441c-0.311-0.106-0.498-0.405-0.479-0.716    c0.136-2.308-0.111-4.092-0.64-5.084c-0.182-0.34-0.383-0.558-0.594-0.634c-0.186-0.065-0.423-0.023-0.711,0.141    c-0.764,0.435-1.691,1.579-2.737,3.59c-0.182,0.351-0.614,0.487-0.965,0.305c-0.284-0.147-0.429-0.458-0.375-0.757    c0.186-2.098,0.014-3.626-0.411-4.443c-0.128-0.249-0.264-0.399-0.402-0.441c-0.126-0.039-0.304,0.008-0.53,0.148    c-0.736,0.456-1.641,1.663-2.635,3.758c-0.17,0.357-0.597,0.51-0.951,0.341c-0.318-0.148-0.474-0.503-0.388-0.83    c0.32-1.601,0.229-2.56-0.099-3.053c-0.134-0.203-0.327-0.311-0.55-0.346c-0.299-0.046-0.659,0.018-1.043,0.158    c-1.188,0.439-2.453,1.551-2.936,2.619c-0.161,0.359-0.586,0.52-0.945,0.358c-0.349-0.158-0.511-0.561-0.373-0.913    c1.233-3.68,0.976-6.063,0.154-7.278c-0.363-0.535-0.833-0.813-1.301-0.84c-0.478-0.026-0.977,0.193-1.394,0.653    c-0.785,0.867-1.253,2.51-0.844,4.903c0.066,0.288,0.13,0.585,0.186,0.893c0.084,0.379-0.15,0.759-0.529,0.851    c-0.383,0.093-0.768-0.142-0.86-0.525c-0.081-0.329-0.146-0.647-0.199-0.957c-0.518-2.21-1.322-3.68-2.11-4.323    c-0.234-0.192-0.441-0.288-0.607-0.283c-0.118,0.004-0.245,0.086-0.367,0.247l-0.029,0.037c-0.456,0.64-0.695,2.024-0.51,4.258    c0.034,0.394-0.26,0.74-0.653,0.771c-0.385,0.031-0.724-0.246-0.77-0.625c-0.292-2.396-0.924-3.93-1.568-4.548    c-0.137-0.13-0.247-0.196-0.32-0.194c-0.039,0.001-0.101,0.054-0.176,0.159c-0.412,0.565-0.655,1.882-0.511,4.03l0.004,0.051    c0.025,0.394-0.272,0.735-0.667,0.761c-0.389,0.026-0.727-0.266-0.76-0.651c-0.189-2.136-0.644-3.341-1.189-3.825    c-0.162-0.145-0.325-0.199-0.483-0.177c-0.207,0.03-0.442,0.175-0.679,0.413c-0.847,0.849-1.556,2.651-1.658,4.959    c-0.016,0.393-0.349,0.699-0.744,0.682C601.989,268.828,601.734,268.62,601.648,268.341L601.648,268.341z M598.927,263.209    c1.022,0.274,2.109,1.075,3.02,2.496c0.373-1.556,1.015-2.785,1.738-3.511c0.46-0.462,0.969-0.747,1.492-0.823    c0.576-0.082,1.135,0.08,1.636,0.523c0.207,0.185,0.405,0.426,0.589,0.726c0.12-0.352,0.266-0.639,0.428-0.861    c0.353-0.484,0.798-0.731,1.293-0.746c0.462-0.014,0.924,0.186,1.348,0.592c0.308,0.297,0.612,0.728,0.89,1.287    c0.131-0.385,0.289-0.703,0.471-0.957l0.037-0.056c0.398-0.525,0.901-0.793,1.466-0.811c0.518-0.018,1.051,0.185,1.558,0.601    c0.43,0.351,0.86,0.877,1.259,1.568c0.235-0.954,0.64-1.71,1.135-2.258c0.719-0.795,1.631-1.175,2.53-1.122    c0.906,0.052,1.778,0.537,2.408,1.466c0.77,1.139,1.176,3.003,0.754,5.606c0.534-0.4,1.108-0.73,1.669-0.936    c0.601-0.221,1.2-0.314,1.745-0.232c0.617,0.094,1.152,0.399,1.531,0.973c0.195,0.295,0.344,0.664,0.433,1.116    c0.596-0.851,1.168-1.43,1.697-1.757c0.598-0.37,1.172-0.462,1.701-0.3c0.517,0.159,0.941,0.552,1.253,1.152    c0.317,0.612,0.529,1.489,0.604,2.591c0.673-0.921,1.314-1.533,1.909-1.872c0.675-0.385,1.313-0.453,1.9-0.242    c0.557,0.202,1.016,0.65,1.365,1.306c0.348,0.649,0.599,1.535,0.732,2.611c0.547-0.929,1.089-1.516,1.587-1.809    c0.549-0.323,1.077-0.353,1.551-0.132c0.427,0.2,0.762,0.6,0.979,1.165c0.339,0.882,0.41,2.29,0.068,4.01    c0.982-0.569,1.915-0.783,2.743-0.723c0.746,0.055,1.405,0.328,1.942,0.767c0.522,0.429,0.926,1.016,1.174,1.709    c0.17,0.476,0.267,1.004,0.278,1.566c0.78-0.699,1.52-1.08,2.173-1.194c0.691-0.119,1.303,0.037,1.792,0.425    c0.458,0.362,0.786,0.918,0.943,1.621c0.316,1.4-0.037,3.519-1.405,5.92c1.356-0.003,2.451,0.513,3.284,1.361    c0.709,0.72,1.21,1.673,1.51,2.742c0.29,1.038,0.393,2.193,0.311,3.347c-0.191,2.607-1.343,5.254-3.433,6.645    c2.378,3.455,2.625,7.078,1.719,9.571c-0.408,1.124-1.054,2.034-1.851,2.62c-0.847,0.622-1.85,0.885-2.921,0.671    c-1.285-0.255-2.654-1.215-3.92-3.103c-0.118,1.29-0.443,2.267-0.901,2.902c-0.429,0.591-0.972,0.927-1.587,0.997    c-0.59,0.066-1.214-0.121-1.827-0.573c-0.928-0.681-1.891-2.042-2.702-4.118c-0.46,1.426-1.212,2.467-2.088,3.092    c-0.647,0.461-1.368,0.703-2.101,0.717c-0.729,0.013-1.464-0.204-2.143-0.657c-1.046-0.702-1.966-1.99-2.509-3.898    c-0.234,0.271-0.501,0.505-0.789,0.695c-0.406,0.271-0.856,0.457-1.314,0.536c-0.476,0.084-0.963,0.054-1.427-0.113    c-0.411-0.146-0.792-0.396-1.119-0.764c-0.255,0.684-0.609,1.263-1.028,1.706c-0.464,0.49-1.009,0.823-1.595,0.961    c-0.594,0.141-1.22,0.081-1.833-0.214l-0.042-0.019c-0.641-0.319-1.268-0.911-1.819-1.817c-0.582,0.932-1.433,1.575-2.364,1.896    c-0.638,0.22-1.316,0.288-1.974,0.194c-0.663-0.095-1.307-0.357-1.869-0.795c-0.426-0.331-0.801-0.763-1.099-1.298    c-0.229,0.484-0.504,0.883-0.811,1.197c-0.563,0.576-1.232,0.886-1.952,0.947l-0.019,0.002c-0.7,0.056-1.429-0.128-2.136-0.524    c-0.818-0.466-1.622-1.233-2.301-2.266c-0.122,0.381-0.286,0.7-0.489,0.963c-0.402,0.523-0.934,0.82-1.539,0.912    c-0.555,0.083-1.163-0.016-1.778-0.274c-0.693-0.294-1.411-0.81-2.064-1.511c-0.054,1.621-0.541,2.864-1.241,3.674    c-0.479,0.557-1.065,0.919-1.69,1.075c-0.638,0.16-1.309,0.103-1.954-0.179c-0.479-0.21-0.945-0.552-1.365-1.027    c-0.133,1.523-0.551,2.645-1.135,3.37c-0.496,0.616-1.109,0.972-1.784,1.075c-0.657,0.102-1.354-0.042-2.037-0.425    c-1.005-0.565-2.003-1.689-2.782-3.335c-0.307,1.271-0.788,2.126-1.343,2.622c-0.528,0.474-1.125,0.656-1.725,0.589    c-0.568-0.063-1.117-0.355-1.593-0.837c-0.708-0.72-1.28-1.914-1.481-3.421c-0.924,1.073-1.867,1.631-2.704,1.767    c-0.756,0.122-1.433-0.073-1.964-0.528c-0.493-0.424-0.845-1.069-0.992-1.885c-0.301-1.646,0.24-4.104,2.204-6.837    c-1.419-0.325-2.534-1.322-3.178-2.51c-0.4-0.737-0.617-1.558-0.615-2.339c0.004-0.83,0.252-1.62,0.791-2.243    c0.549-0.633,1.38-1.08,2.536-1.196c-0.265-0.418-0.436-0.879-0.517-1.347c-0.082-0.48-0.07-0.968,0.038-1.425    c0.11-0.469,0.321-0.909,0.634-1.279c0.271-0.323,0.615-0.589,1.025-0.769c-0.975-0.803-1.57-1.649-1.837-2.452    c-0.225-0.671-0.23-1.317-0.042-1.898c0.188-0.584,0.571-1.091,1.115-1.479c0.521-0.366,1.194-0.624,1.996-0.728    c-0.514-0.698-0.794-1.502-0.85-2.257l-0.002-0.023c-0.041-0.612,0.065-1.2,0.313-1.688c0.274-0.533,0.706-0.947,1.299-1.157    c0.438-0.154,0.961-0.189,1.563-0.061c-0.35-0.853-0.412-1.64-0.261-2.303c0.143-0.61,0.462-1.122,0.914-1.499    c0.44-0.367,1.001-0.6,1.632-0.665c0.758-0.076,1.631,0.09,2.522,0.564c-0.274-1.194-0.178-2.173,0.158-2.901    c0.248-0.541,0.627-0.952,1.087-1.226c0.456-0.27,0.987-0.398,1.55-0.377c0.625,0.023,1.294,0.236,1.938,0.652    c-0.029-0.775,0.083-1.466,0.312-2.018c0.226-0.546,0.564-0.976,0.997-1.251c0.458-0.292,1.001-0.403,1.603-0.294    c0.371,0.069,0.768,0.228,1.183,0.49c-0.139-1.163,0.053-2.131,0.462-2.845c0.343-0.602,0.834-1.033,1.416-1.271    C597.593,263.066,598.25,263.027,598.927,263.209z" id="path273"/>
		<path style="fill-rule:evenodd;clip-rule:evenodd;fill:#FFFFFF;" d="M605.818,248.022c-1.912-5.309-6.551-3.446-4.188,1.388    c-2.571-3.632-4.559-1.093-3.252,2.154c-1.889-3.26-5.83-1.756-3.12,2.904c-2.89-3.615-6.655-0.979-3.308,2.461    c-3.783-2.883-4.512,1.791-1.792,3.029c-3.675-0.635-4.983,2.51-0.837,4.719c-2.822-0.68-3.191,3.086-0.762,3.812    c-6.101,0.685-3.999,5.391-0.342,5.037c-4.667,5.564-0.89,9.697,2.055,4.311c-0.551,4.718,3.768,6.799,3.768-0.046    c1.356,6.471,6.598,6.655,5.328-0.907c0.914,5.39,6.044,3.961,4.527-1.95c1.463,3.574,5.412,4.562,4.719-0.001    c1.443,4.534,5.72,5.438,5.824-0.137c-0.357,4.892,4.636,4.81,5.364,1.499c1.543,4.016,4.51,2.329,4.531-1.021    c0.474,3.495,4.131,1.88,3.829-0.599c0.443,6.88,6.117,6.443,6.216,0.417c1.733,7.094,5.501,6.781,4.808,0.727    c3.843,8.852,9.99,1.252,4.974-5.218c4.166-1.975,3.754-11.024-1.523-9.619c3.644-5.191,0.613-8.849-2.726-3.375    c2.001-3.424-0.892-6.805-4.314-3.386c1.685-4.751-0.619-7.279-2.641-1.447c0.294-4.94-1.742-7.006-4.474-1.751    c0.435-4.787-1.563-6.083-3.957-1.044c1.06-5.25-3.47-2.945-4.435-0.816c2.977-8.844-5.181-8.705-3.389-1.316    c-0.996-5.494-4.363-6.358-3.88-0.59c-0.615-5.027-3.329-5.498-2.968-0.273C609.343,241.197,606.021,243.445,605.818,248.022z" id="path274"/>
		<path style="fill-rule:evenodd;clip-rule:evenodd;fill:#272828;" d="M605.138,248.235c-0.597-1.637-1.432-2.463-2.167-2.66    c-0.233-0.064-0.448-0.054-0.628,0.019c-0.176,0.07-0.327,0.208-0.438,0.402c-0.345,0.604-0.327,1.674,0.369,3.101    c0.174,0.355,0.025,0.783-0.329,0.956c-0.34,0.166-0.746,0.037-0.934-0.284c-0.653-0.909-1.21-1.338-1.632-1.416    c-0.123-0.021-0.224-0.005-0.299,0.044c-0.101,0.063-0.188,0.186-0.256,0.352c-0.239,0.574-0.203,1.501,0.217,2.548    c0.146,0.365-0.031,0.782-0.397,0.929c-0.334,0.133-0.709-0.003-0.885-0.305c-0.534-0.923-1.228-1.367-1.804-1.388    c-0.176-0.006-0.337,0.031-0.472,0.109c-0.126,0.076-0.234,0.196-0.31,0.36c-0.273,0.593-0.154,1.635,0.7,3.107    c0.197,0.342,0.081,0.778-0.258,0.976c-0.326,0.188-0.736,0.093-0.945-0.21c-0.885-1.087-1.809-1.489-2.491-1.419    c-0.221,0.022-0.406,0.097-0.544,0.211c-0.127,0.104-0.218,0.254-0.259,0.436c-0.129,0.554,0.153,1.371,1.083,2.327    c0.274,0.282,0.269,0.734-0.014,1.009c-0.257,0.251-0.655,0.267-0.932,0.057c-0.916-0.699-1.539-0.87-1.904-0.741    c-0.118,0.041-0.207,0.131-0.267,0.249l-0.014,0.025c-0.073,0.158-0.103,0.359-0.089,0.578l0.002,0.01    c0.044,0.632,0.442,1.342,1.212,1.692c0.357,0.163,0.515,0.587,0.352,0.945c-0.137,0.301-0.458,0.46-0.768,0.406    c-0.981-0.167-1.729-0.036-2.173,0.277c-0.18,0.129-0.305,0.287-0.361,0.465c-0.058,0.183-0.052,0.398,0.025,0.634    c0.211,0.629,0.88,1.347,2.125,2.01c0.348,0.185,0.48,0.618,0.295,0.966c-0.158,0.293-0.49,0.433-0.798,0.357    c-0.611-0.146-1.024-0.013-1.247,0.253c-0.099,0.117-0.168,0.267-0.207,0.433c-0.042,0.177-0.046,0.371-0.012,0.563l0.002,0.02    c0.093,0.497,0.447,0.976,1.075,1.163c0.379,0.112,0.594,0.512,0.482,0.891c-0.087,0.292-0.346,0.487-0.634,0.509    c-1.814,0.207-2.753,0.762-3.076,1.387c-0.104,0.204-0.139,0.416-0.112,0.622c0.027,0.22,0.124,0.444,0.278,0.653    c0.451,0.619,1.357,1.056,2.449,0.95c0.391-0.036,0.739,0.252,0.777,0.643c0.018,0.197-0.046,0.384-0.164,0.525    c-1.697,2.025-2.188,3.781-1.991,4.858c0.058,0.313,0.172,0.543,0.323,0.673c0.115,0.099,0.268,0.14,0.448,0.11l0.018-0.003    c0.58-0.103,1.33-0.749,2.084-2.127c0.188-0.347,0.622-0.474,0.968-0.286c0.262,0.143,0.4,0.428,0.369,0.707    c-0.18,1.547,0.205,2.732,0.758,3.292c0.149,0.152,0.3,0.242,0.432,0.257c0.099,0.011,0.207-0.027,0.315-0.125    c0.473-0.422,0.835-1.526,0.835-3.55c0-0.396,0.322-0.716,0.717-0.716c0.361,0,0.661,0.269,0.71,0.618    c0.462,2.164,1.358,3.518,2.24,4.014c0.259,0.146,0.504,0.204,0.715,0.171l0.037-0.005c0.18-0.038,0.354-0.151,0.506-0.34    c0.556-0.69,0.811-2.172,0.414-4.532l1.411-0.235c0.259,1.528,0.858,2.387,1.498,2.667c0.219,0.096,0.444,0.117,0.651,0.064    c0.219-0.055,0.432-0.191,0.615-0.403c0.588-0.68,0.866-2.033,0.367-3.983c-0.097-0.383,0.133-0.772,0.516-0.868    c0.352-0.09,0.714,0.102,0.84,0.436c0.521,1.266,1.374,2.147,2.155,2.479c0.243,0.102,0.466,0.143,0.651,0.114    c0.137-0.02,0.257-0.085,0.346-0.201c0.253-0.33,0.354-0.982,0.195-2.03c-0.06-0.391,0.211-0.756,0.6-0.814    c0.373-0.056,0.723,0.187,0.806,0.549c0.478,1.466,1.263,2.482,2.064,2.935l0.047,0.028c0.288,0.154,0.572,0.225,0.831,0.206    c0.241-0.02,0.472-0.127,0.671-0.33c0.406-0.415,0.698-1.184,0.777-2.359c0-0.164,0.008-0.332,0.02-0.507    c0.027-0.375,0.343-0.668,0.724-0.662c0.395,0.006,0.709,0.329,0.703,0.724l-0.017,0.425c-0.012,1.179,0.352,1.941,0.867,2.344    c0.236,0.185,0.511,0.295,0.797,0.335c0.292,0.042,0.596,0.01,0.887-0.09c0.654-0.226,1.228-0.804,1.421-1.681    c0.085-0.385,0.466-0.627,0.851-0.542c0.252,0.055,0.445,0.239,0.523,0.468c0.381,0.984,0.831,1.54,1.271,1.759    c0.191,0.095,0.381,0.117,0.554,0.075c0.198-0.045,0.392-0.169,0.564-0.354c0.442-0.466,0.744-1.272,0.75-2.276    c0.002-0.393,0.324-0.711,0.717-0.71c0.361,0.001,0.657,0.271,0.705,0.618c0.112,0.818,0.406,1.23,0.745,1.354    c0.127,0.045,0.274,0.052,0.425,0.025c0.172-0.029,0.344-0.102,0.503-0.208c0.437-0.289,0.766-0.813,0.75-1.429l-0.012-0.166    c-0.043-0.391,0.235-0.744,0.626-0.791c0.393-0.046,0.748,0.234,0.795,0.627c0.012,0.097,0.018,0.192,0.021,0.287    c0.176,2.059,0.847,3.316,1.649,3.853c0.286,0.191,0.588,0.283,0.88,0.278c0.288-0.005,0.582-0.107,0.856-0.302    c0.768-0.548,1.356-1.772,1.386-3.627c0.006-0.394,0.331-0.708,0.725-0.702c0.333,0.005,0.607,0.236,0.683,0.546    c0.613,2.506,1.454,3.989,2.222,4.554c0.193,0.143,0.359,0.206,0.483,0.192c0.102-0.012,0.206-0.089,0.307-0.229    c0.404-0.56,0.598-1.75,0.393-3.542c-0.044-0.392,0.236-0.747,0.63-0.791c0.339-0.039,0.648,0.166,0.758,0.476    c0.996,2.278,2.094,3.32,3.047,3.511c0.437,0.086,0.845-0.023,1.192-0.279c0.395-0.289,0.724-0.765,0.941-1.366    c0.592-1.63,0.354-4.084-1.451-6.413c-0.24-0.312-0.182-0.76,0.131-1c0.041-0.033,0.084-0.06,0.132-0.081    c1.456-0.69,2.26-2.454,2.388-4.21c0.052-0.718-0.01-1.429-0.185-2.06c-0.168-0.601-0.438-1.123-0.809-1.5    c-0.543-0.553-1.351-0.801-2.432-0.514c-0.381,0.101-0.771-0.127-0.872-0.508c-0.056-0.212-0.01-0.428,0.106-0.594    c1.309-1.864,1.686-3.454,1.474-4.391c-0.053-0.241-0.142-0.412-0.256-0.502c-0.081-0.064-0.201-0.088-0.352-0.063    c-0.604,0.104-1.437,0.804-2.368,2.314l-0.029,0.049c-0.206,0.337-0.646,0.443-0.983,0.237c-0.331-0.203-0.44-0.635-0.244-0.97    c0.592-1.013,0.681-1.997,0.424-2.715c-0.107-0.3-0.276-0.548-0.489-0.723c-0.203-0.167-0.456-0.271-0.74-0.292    c-0.646-0.049-1.473,0.297-2.388,1.211c-0.278,0.277-0.732,0.275-1.011-0.004c-0.199-0.2-0.255-0.49-0.166-0.74    c0.603-1.697,0.663-3.032,0.407-3.706c-0.046-0.112-0.077-0.176-0.095-0.186c-0.028-0.013,0.029,0.029,0.002,0.045    c-0.44,0.26-1.009,1.144-1.607,2.868c-0.129,0.373-0.535,0.57-0.906,0.442c-0.31-0.105-0.499-0.404-0.479-0.716    c0.097-1.679-0.077-2.97-0.454-3.677c-0.112-0.212-0.229-0.344-0.34-0.385c-0.086-0.03-0.211-0.002-0.374,0.092    c-0.539,0.307-1.202,1.13-1.96,2.591c-0.184,0.35-0.616,0.487-0.966,0.305c-0.283-0.147-0.428-0.459-0.375-0.757    c0.131-1.512,0.013-2.605-0.285-3.183c-0.075-0.141-0.141-0.222-0.192-0.237c-0.041-0.014-0.122,0.016-0.242,0.09    c-0.518,0.32-1.164,1.191-1.887,2.712c-0.168,0.357-0.594,0.511-0.951,0.342c-0.318-0.15-0.474-0.503-0.385-0.831    c0.223-1.127,0.167-1.789-0.05-2.117c-0.069-0.104-0.168-0.158-0.284-0.176c-0.19-0.029-0.426,0.014-0.683,0.108    c-0.843,0.31-1.734,1.095-2.076,1.848c-0.162,0.358-0.586,0.52-0.945,0.356c-0.35-0.156-0.512-0.559-0.373-0.911    c0.89-2.663,0.715-4.374,0.132-5.233c-0.234-0.348-0.53-0.526-0.822-0.543c-0.298-0.018-0.618,0.126-0.889,0.424    c-0.549,0.607-0.874,1.771-0.582,3.48c0.05,0.213,0.095,0.434,0.136,0.661c0.085,0.38-0.149,0.759-0.528,0.851    c-0.383,0.093-0.768-0.144-0.86-0.526c-0.062-0.248-0.11-0.49-0.15-0.725c-0.373-1.589-0.945-2.643-1.502-3.097    c-0.14-0.114-0.252-0.172-0.327-0.169c-0.032,0.001-0.077,0.037-0.133,0.111l-0.027,0.033c-0.31,0.447-0.47,1.43-0.335,3.029    c0.031,0.394-0.261,0.738-0.655,0.771c-0.383,0.031-0.723-0.246-0.769-0.627c-0.213-1.733-0.658-2.832-1.11-3.266l-0.101-0.094    h-0.006c-0.02,0.002,0.035,0.015,0.014,0.043c-0.282,0.388-0.446,1.317-0.344,2.859l0.002,0.051    c0.025,0.394-0.271,0.735-0.665,0.761c-0.389,0.026-0.727-0.265-0.76-0.651c-0.136-1.534-0.45-2.387-0.821-2.719    c-0.076-0.068-0.147-0.094-0.211-0.086c-0.114,0.016-0.253,0.105-0.4,0.254c-0.601,0.601-1.104,1.895-1.177,3.561    c-0.018,0.394-0.351,0.698-0.744,0.683C605.478,248.722,605.225,248.514,605.138,248.235L605.138,248.235z M603.34,244.193    c0.714,0.19,1.466,0.706,2.121,1.598c0.294-1.007,0.74-1.808,1.235-2.304c0.369-0.371,0.783-0.602,1.212-0.664    c0.481-0.068,0.947,0.064,1.361,0.434c0.095,0.084,0.186,0.181,0.274,0.293c0.065-0.139,0.137-0.26,0.212-0.365    c0.294-0.402,0.667-0.61,1.085-0.629h0.014c0.396-0.012,0.786,0.153,1.137,0.491c0.174,0.167,0.346,0.387,0.51,0.659    c0.064-0.141,0.138-0.267,0.215-0.376l0.039-0.059c0.332-0.436,0.754-0.659,1.229-0.676c0.431-0.015,0.869,0.151,1.279,0.487    c0.257,0.209,0.511,0.498,0.756,0.861c0.188-0.555,0.454-1.006,0.768-1.354c0.574-0.634,1.303-0.936,2.025-0.895    c0.729,0.043,1.429,0.429,1.93,1.17c0.551,0.814,0.862,2.104,0.649,3.875c0.306-0.198,0.623-0.362,0.935-0.477    c0.474-0.175,0.949-0.248,1.387-0.182c0.51,0.078,0.95,0.33,1.264,0.803c0.097,0.148,0.18,0.318,0.246,0.514    c0.377-0.486,0.74-0.832,1.084-1.044c0.491-0.304,0.969-0.378,1.413-0.242c0.434,0.134,0.785,0.454,1.04,0.944    c0.199,0.387,0.344,0.903,0.424,1.533c0.413-0.505,0.812-0.857,1.188-1.072c0.551-0.313,1.077-0.368,1.563-0.192    c0.457,0.167,0.832,0.528,1.114,1.056c0.212,0.398,0.377,0.911,0.488,1.518c0.335-0.486,0.667-0.811,0.979-0.993    c0.464-0.273,0.914-0.296,1.322-0.107c0.361,0.17,0.644,0.501,0.821,0.964c0.236,0.617,0.306,1.56,0.126,2.708    c0.64-0.309,1.249-0.423,1.802-0.382c0.596,0.044,1.119,0.261,1.545,0.61c0.417,0.342,0.736,0.806,0.932,1.35    c0.095,0.265,0.16,0.549,0.193,0.849c0.506-0.395,0.985-0.617,1.419-0.692c0.568-0.099,1.072,0.031,1.477,0.353    c0.375,0.295,0.64,0.743,0.766,1.308c0.232,1.024,0.002,2.544-0.918,4.262c0.92,0.068,1.676,0.456,2.266,1.057    c0.549,0.557,0.935,1.293,1.167,2.115c0.221,0.792,0.3,1.67,0.236,2.546c-0.142,1.925-0.973,3.878-2.479,4.969    c1.709,2.574,1.871,5.261,1.196,7.122c-0.316,0.868-0.819,1.574-1.44,2.031c-0.669,0.492-1.466,0.699-2.316,0.53    c-0.9-0.181-1.853-0.804-2.745-1.995c-0.12,0.764-0.348,1.358-0.646,1.771c-0.35,0.483-0.797,0.758-1.307,0.816    c-0.485,0.055-0.992-0.096-1.486-0.46c-0.644-0.473-1.31-1.366-1.889-2.701c-0.356,0.873-0.87,1.524-1.454,1.941    c-0.509,0.363-1.079,0.555-1.662,0.565c-0.58,0.01-1.16-0.161-1.695-0.52c-0.754-0.504-1.421-1.396-1.845-2.693    c-0.127,0.117-0.261,0.224-0.4,0.316c-0.324,0.216-0.682,0.363-1.047,0.428c-0.383,0.067-0.777,0.041-1.152-0.093    c-0.25-0.091-0.489-0.228-0.702-0.417c-0.188,0.421-0.425,0.781-0.696,1.069c-0.371,0.391-0.808,0.656-1.277,0.767    c-0.493,0.116-1.011,0.064-1.516-0.188c-0.446-0.223-0.883-0.608-1.273-1.181c-0.443,0.603-1.042,1.026-1.691,1.25    c-0.499,0.171-1.033,0.226-1.551,0.151c-0.523-0.075-1.03-0.281-1.475-0.627c-0.256-0.199-0.489-0.445-0.69-0.738    c-0.143,0.25-0.306,0.466-0.483,0.646c-0.456,0.467-0.999,0.714-1.581,0.761c-0.534,0.041-1.091-0.092-1.632-0.385l-0.058-0.029    c-0.555-0.311-1.097-0.804-1.574-1.453c-0.075,0.163-0.162,0.309-0.263,0.439c-0.332,0.428-0.766,0.672-1.262,0.746    c-0.443,0.067-0.931-0.01-1.419-0.216c-0.435-0.185-0.884-0.481-1.306-0.876c-0.102,1.053-0.454,1.875-0.937,2.434    c-0.383,0.441-0.847,0.73-1.349,0.856c-0.513,0.128-1.052,0.084-1.57-0.143c-0.276-0.122-0.547-0.298-0.802-0.528    c-0.134,0.977-0.434,1.714-0.837,2.214c-0.381,0.471-0.849,0.753-1.367,0.851l-0.075,0.016c-0.527,0.081-1.085-0.033-1.628-0.338    c-0.685-0.385-1.366-1.103-1.927-2.135c-0.234,0.737-0.559,1.256-0.923,1.583c-0.435,0.389-0.926,0.539-1.423,0.482    c-0.464-0.053-0.912-0.288-1.295-0.676c-0.489-0.497-0.895-1.283-1.09-2.268c-0.621,0.638-1.253,0.984-1.825,1.086l-0.031,0.007    c-0.618,0.1-1.171-0.06-1.608-0.434c-0.399-0.343-0.682-0.859-0.8-1.508c-0.219-1.208,0.145-2.978,1.479-4.943    c-0.989-0.221-1.802-0.764-2.298-1.441c-0.294-0.399-0.483-0.853-0.542-1.324c-0.062-0.485,0.018-0.982,0.258-1.45    c0.387-0.746,1.196-1.415,2.544-1.825c-0.273-0.367-0.445-0.786-0.526-1.213l-0.006-0.032c-0.067-0.38-0.056-0.769,0.029-1.133    c0.089-0.375,0.259-0.729,0.509-1.026c0.162-0.192,0.355-0.359,0.576-0.492c-0.629-0.566-1.023-1.157-1.211-1.723    c-0.18-0.536-0.184-1.056-0.032-1.523c0.152-0.473,0.458-0.881,0.898-1.191c0.343-0.245,0.773-0.426,1.274-0.526    c-0.298-0.485-0.464-1.018-0.501-1.523l-0.002-0.022c-0.031-0.467,0.046-0.919,0.229-1.302l0.022-0.047    c0.223-0.436,0.578-0.775,1.067-0.947c0.274-0.098,0.59-0.138,0.941-0.102c-0.176-0.558-0.195-1.074-0.093-1.52    c0.114-0.495,0.375-0.909,0.74-1.214c0.356-0.296,0.805-0.483,1.311-0.535c0.499-0.052,1.063,0.031,1.643,0.279    c-0.12-0.77-0.031-1.413,0.197-1.912c0.201-0.436,0.51-0.77,0.883-0.991c0.366-0.218,0.797-0.321,1.249-0.305    c0.404,0.015,0.831,0.129,1.249,0.349c0.014-0.472,0.101-0.896,0.247-1.249c0.18-0.439,0.455-0.789,0.811-1.016    c0.379-0.24,0.825-0.333,1.32-0.242c0.203,0.037,0.415,0.107,0.634,0.215c-0.035-0.75,0.116-1.385,0.395-1.873    c0.274-0.484,0.673-0.832,1.141-1.023C602.269,244.079,602.797,244.047,603.34,244.193z" id="path275"/>
		<path style="fill-rule:evenodd;clip-rule:evenodd;fill:#272828;" d="M595.181,260.907c-1.324,0.715-1.535,2.325-0.505,3.412    c0.479,0.508,1.189,0.676,1.856,0.519c0.709-0.169,1.808-1.045,1.565-1.86c-0.058-0.189-0.23-0.268-0.414-0.235    c-0.583,0.1-0.812,0.808-1.347,1.028c-0.335,0.141-0.669,0.061-0.935-0.176c-0.683-0.61-0.522-1.709,0.073-2.305    C595.674,261.091,595.422,260.777,595.181,260.907z" id="path276"/>
		<path style="fill-rule:evenodd;clip-rule:evenodd;fill:#272828;" d="M597.632,263.123c-0.444,1.274,0.261,2.68,1.642,2.905    c0.603,0.1,1.179-0.084,1.615-0.505c0.439-0.422,0.921-1.568,0.375-2.048c-0.152-0.133-0.332-0.123-0.484,0    c-0.362,0.295-0.276,0.911-0.53,1.306c-0.166,0.258-0.522,0.367-0.814,0.327c-0.905-0.129-1.261-1.109-1.253-1.912    C598.185,262.868,597.734,262.832,597.632,263.123z" id="path277"/>
		<path style="fill-rule:evenodd;clip-rule:evenodd;fill:#272828;" d="M600.862,263.457c0.05,1.299,0.976,2.259,2.313,1.964    c0.563-0.122,1.028-0.533,1.324-1.011c0.278-0.45,0.535-1.556-0.099-1.827c-0.12-0.052-0.214-0.04-0.316,0.04    c-0.312,0.244-0.252,0.741-0.358,1.093c-0.105,0.339-0.381,0.628-0.711,0.756c-0.821,0.316-1.417-0.352-1.587-1.092    C601.355,263.063,600.851,263.132,600.862,263.457z" id="path278"/>
		<path style="fill-rule:evenodd;clip-rule:evenodd;fill:#272828;" d="M615.254,264.444c-0.559,1.381-0.046,2.925,1.572,3.118    c0.699,0.082,1.313-0.328,1.71-0.862c0.406-0.544,0.903-2.168,0.179-2.593c-0.082-0.051-0.219-0.063-0.302,0    c-0.515,0.38-0.278,1.298-0.526,1.868c-0.182,0.415-0.521,0.708-0.985,0.716c-1.067,0.016-1.5-1.296-1.263-2.142    C615.71,264.296,615.349,264.213,615.254,264.444z" id="path279"/>
		<path style="fill-rule:evenodd;clip-rule:evenodd;fill:#272828;" d="M618.425,264.311c0.425,1.756,2.102,3.023,3.928,2.496    c0.7-0.204,1.261-0.758,1.358-1.491c0.095-0.722-0.298-1.828-1.116-1.917c-0.109-0.012-0.176,0.095-0.188,0.188    c-0.067,0.563,0.453,1.025,0.356,1.601c-0.074,0.438-0.493,0.647-0.882,0.743c-1.305,0.324-2.447-0.752-2.944-1.836    C618.8,263.797,618.352,264.014,618.425,264.311z" id="path280"/>
		<path style="fill-rule:evenodd;clip-rule:evenodd;fill:#272828;" d="M622.613,263.906c0.953,0.688,2.204,0.853,3.151,0.066    c0.8-0.668,0.835-2.553-0.251-2.949c-0.153-0.055-0.275,0.088-0.294,0.225c-0.045,0.392,0.156,0.757,0.241,1.133    c0.081,0.363-0.039,0.736-0.268,1.019c-0.58,0.717-1.659,0.51-2.358,0.129C622.581,263.389,622.388,263.743,622.613,263.906z" id="path281"/>
		<path style="fill-rule:evenodd;clip-rule:evenodd;fill:#272828;" d="M635.589,260.387c0.665,0.009,1.364,0.205,1.546,0.921    c0.118,0.472-0.028,0.959-0.357,1.31c-0.414,0.441-1.013,0.345-1.498,0.083c-0.238-0.129-0.997-0.554-1.073,0.012    c-0.073,0.531,0.418,0.789,0.849,0.97c1.276,0.54,2.682-0.101,2.936-1.507c0.274-1.512-1.036-2.32-2.402-2.146    C635.368,260.058,635.352,260.385,635.589,260.387z" id="path282"/>
		<path style="fill-rule:evenodd;clip-rule:evenodd;fill:#272828;" d="M634.172,263.005c0.237,0.666,0.036,1.432-0.46,1.935    c-0.596,0.611-1.108-0.074-1.762-0.026c-0.127,0.011-0.229,0.099-0.231,0.232c-0.018,1.226,1.798,1.123,2.453,0.563    c0.86-0.734,1.021-1.933,0.468-2.901C634.5,262.56,634.075,262.727,634.172,263.005z" id="path283"/>
		<path style="fill-rule:evenodd;clip-rule:evenodd;fill:#272828;" d="M631.338,265.215c-0.138,0.62-0.236,1.239-0.913,1.499    c-0.585,0.223-0.976-0.401-1.285-0.706c-0.132-0.131-0.375-0.075-0.421,0.111c-0.271,1.07,0.774,1.947,1.897,1.615    c0.973-0.287,1.754-1.643,1.145-2.574C631.658,265.001,631.384,265.008,631.338,265.215z" id="path284"/>
		<path style="fill-rule:evenodd;clip-rule:evenodd;fill:#272828;" d="M608.504,250.651c-1.255,0.189-1.435,1.523-0.994,2.517    c0.274,0.625,0.882,1.149,1.537,1.321c0.653,0.171,1.305-0.213,1.804-0.587c0.438-0.33,1.245-0.807,1.109-1.439    c-0.147-0.671-1.067,0.057-1.279,0.234c-0.764,0.634-1.35,1.156-2.173,0.284c-0.542-0.575-0.653-1.602,0.154-1.952    C608.896,250.928,608.713,250.619,608.504,250.651z" id="path285"/>
		<path style="fill-rule:evenodd;clip-rule:evenodd;fill:#272828;" d="M611.494,252.454c-0.223,1.258,0.509,2.47,1.895,2.292    c1.065-0.136,2.836-1.255,2.461-2.541c-0.047-0.168-0.263-0.273-0.416-0.17c-0.649,0.432-0.991,1.155-1.709,1.532    c-1.001,0.527-1.403-0.243-1.602-1.113C612.051,252.152,611.552,252.134,611.494,252.454z" id="path286"/>
		<path style="fill-rule:evenodd;clip-rule:evenodd;fill:#272828;" d="M590.071,271.608c-1.255-0.583-1.935,0.62-1.672,1.758    c0.148,0.645,0.632,1.21,1.204,1.521c0.681,0.368,1.786,0.435,2.281-0.257c0.077-0.104,0.027-0.294-0.093-0.349    c-0.474-0.222-1.024-0.11-1.527-0.264c-0.391-0.118-0.673-0.397-0.858-0.751c-0.257-0.487-0.259-1.432,0.517-1.31    C590.12,271.988,590.284,271.709,590.071,271.608z" id="path287"/>
		<path style="fill-rule:evenodd;clip-rule:evenodd;fill:#272828;" d="M585.24,292.12c-1.336,1.212-1.401,3.325,0.13,4.422    c0.661,0.475,1.439,0.538,2.175,0.198c0.744-0.346,1.904-1.829,1.401-2.642c-0.099-0.157-0.271-0.182-0.429-0.112    c-0.396,0.175-0.487,0.63-0.671,0.99c-0.149,0.3-0.357,0.589-0.633,0.786c-0.403,0.288-0.867,0.228-1.27-0.016    c-1.148-0.689-1.099-2.329-0.331-3.253C585.828,292.234,585.494,291.889,585.24,292.12z" id="path288"/>
		<path style="fill-rule:evenodd;clip-rule:evenodd;fill:#272828;" d="M588.54,294.183c-0.496,1.732,0.909,3.873,2.784,3.676    c1.832-0.192,2.246-2.78,1.802-4.229c-0.126-0.408-0.726-0.427-0.843,0c-0.264,0.961,0.278,2.498-0.756,3.135    c-0.7,0.431-1.452-0.181-1.837-0.721c-0.394-0.549-0.525-1.206-0.62-1.86C589.031,293.899,588.608,293.94,588.54,294.183z" id="path289"/>
		<path style="fill-rule:evenodd;clip-rule:evenodd;fill:#272828;" d="M592.83,293.891c0.699,1.409,2.317,2.27,3.876,2.008    c1.477-0.247,1.796-2.536,0.411-3.156c-0.174-0.076-0.361,0.015-0.373,0.215c-0.042,0.817,0.878,1.983-0.504,2.087    c-1.085,0.083-2.256-0.616-2.883-1.461C593.124,293.272,592.652,293.532,592.83,293.891z" id="path290"/>
		<path style="fill-rule:evenodd;clip-rule:evenodd;fill:#272828;" d="M611.115,293.376c-1.028,1.696-0.727,3.785,1.229,4.632    c1.622,0.702,3.766-0.408,3.349-2.38c-0.086-0.412-0.643-0.343-0.764,0c-0.213,0.604-0.234,1.203-0.849,1.552    c-0.445,0.255-1.052,0.14-1.491-0.065c-1.37-0.64-1.607-2.295-1.109-3.585C611.563,293.313,611.227,293.19,611.115,293.376z" id="path291"/>
		<path style="fill-rule:evenodd;clip-rule:evenodd;fill:#272828;" d="M614.997,295.407c0.926,1.418,2.964,2.074,4.525,1.328    c0.665-0.317,1.062-0.864,1.15-1.591c0.103-0.835-0.557-2.022-1.371-2.241c-0.255-0.068-0.444,0.162-0.401,0.399    c0.119,0.632,0.715,1.053,0.756,1.72c0.028,0.457-0.385,0.748-0.764,0.895c-1.207,0.469-2.62-0.086-3.596-0.81    C615.117,294.974,614.881,295.23,614.997,295.407z" id="path292"/>
		<path style="fill-rule:evenodd;clip-rule:evenodd;fill:#272828;" d="M619.128,293.213c0.965,1.302,2.678,1.583,4.073,0.777    c0.611-0.354,0.997-0.979,1.001-1.686c0.006-0.727-0.563-1.82-1.349-1.866c-0.161-0.009-0.319,0.148-0.31,0.309    c0.035,0.564,0.551,0.902,0.683,1.451c0.11,0.452-0.258,0.825-0.607,1.037c-0.9,0.547-2.321,0.342-3.097-0.327    C619.321,292.732,618.946,292.971,619.128,293.213z" id="path293"/>
		<path style="fill-rule:evenodd;clip-rule:evenodd;fill:#272828;" d="M623.102,290.859c0.986,0.685,2.811,0.389,3.694-0.352    c0.487-0.408,0.732-0.951,0.752-1.583c0.021-0.657-0.288-1.673-0.969-1.878c-0.156-0.046-0.385,0.056-0.408,0.233    c-0.075,0.55,0.296,0.968,0.408,1.497c0.091,0.429-0.123,0.809-0.427,1.087c-0.81,0.739-1.947,0.405-2.911,0.474    C622.958,290.358,622.869,290.698,623.102,290.859z" id="path294"/>
		<path style="fill-rule:evenodd;clip-rule:evenodd;fill:#272828;" d="M649.76,294.38c0.846,0.802,1.002,2.059-0.272,2.487    c-0.492,0.166-0.999,0.056-1.438-0.2c-0.635-0.374-0.726-1.285-1.342-1.589c-0.255-0.124-0.487-0.009-0.59,0.241    c-0.352,0.853,0.819,1.971,1.48,2.355c0.716,0.416,1.63,0.433,2.38,0.107c0.696-0.302,1.141-0.867,1.228-1.622    c0.093-0.848-0.588-1.554-1.198-2.027C649.836,293.999,649.594,294.22,649.76,294.38z" id="path295"/>
		<path style="fill-rule:evenodd;clip-rule:evenodd;fill:#272828;" d="M646.025,294.976c-0.288,0.992-1.239,1.959-2.217,2.307    c-1.302,0.463-1.04-1.102-1.574-1.742c-0.18-0.212-0.476-0.104-0.614,0.079c-0.462,0.607-0.099,1.728,0.377,2.253    c0.493,0.543,1.152,0.667,1.852,0.545c1.583-0.278,2.521-1.902,2.625-3.381C646.491,294.773,646.097,294.736,646.025,294.976z" id="path296"/>
		<path style="fill-rule:evenodd;clip-rule:evenodd;fill:#272828;" d="M641.62,295.479c-0.758,0.658-1.935,1.117-2.933,1.166    c-0.365,0.018-0.81-0.041-1.03-0.368c-0.292-0.441,0.042-1.04-0.292-1.498c-0.089-0.122-0.207-0.148-0.344-0.091    c-0.7,0.296-0.685,1.302-0.455,1.908c0.25,0.656,0.858,1.02,1.529,1.117c1.508,0.212,3.227-0.549,3.984-1.881    C642.25,295.534,641.865,295.265,641.62,295.479z" id="path297"/>
		<path style="fill-rule:evenodd;clip-rule:evenodd;fill:#272828;" d="M636.76,294.545c-0.81,0.1-1.666-0.092-2.155-0.797    c-0.516-0.74,0.168-1.424-0.006-2.176c-0.04-0.176-0.229-0.263-0.394-0.224c-1.202,0.282-1.028,2.155-0.555,2.958    c0.655,1.112,2.074,1.308,3.207,0.948C637.226,295.138,637.18,294.493,636.76,294.545z" id="path298"/>
		<path style="fill-rule:evenodd;clip-rule:evenodd;fill:#272828;" d="M601.9,284.998c-1.093,1.035-0.551,2.531,0.725,3.108    c0.646,0.291,1.357,0.314,1.991-0.02c0.649-0.343,1.354-1.459,0.793-2.117c-0.095-0.112-0.273-0.119-0.395-0.052    c-0.476,0.268-0.416,0.912-0.839,1.235c-0.321,0.248-0.722,0.211-1.087,0.095c-0.806-0.256-1.504-1.173-0.868-1.928    C602.408,285.099,602.116,284.794,601.9,284.998z" id="path299"/>
		<path style="fill-rule:evenodd;clip-rule:evenodd;fill:#272828;" d="M604.794,285.88c0.195,1.227,1.409,2.029,2.621,1.836    c0.586-0.093,1.069-0.432,1.357-0.949c0.284-0.512,0.466-1.607-0.158-1.926c-0.146-0.076-0.327-0.067-0.447,0.057    c-0.545,0.562,0.099,1.566-0.922,1.823c-0.764,0.192-1.597-0.439-1.968-1.044C605.111,285.406,604.75,285.595,604.794,285.88z" id="path300"/>
		<path style="fill-rule:evenodd;clip-rule:evenodd;fill:#272828;" d="M607.92,284.915c0.789,1.728,3.004,2.055,4.512,1.081    c0.607-0.392,1.071-1.055,1.017-1.801c-0.054-0.708-0.768-1.757-1.583-1.504c-0.102,0.033-0.209,0.14-0.195,0.259    c0.059,0.537,0.58,0.78,0.725,1.282c0.122,0.437-0.382,0.817-0.693,1.005c-1.16,0.694-2.484,0.286-3.329-0.672    C608.141,284.302,607.794,284.638,607.92,284.915z" id="path301"/>
		<path style="fill-rule:evenodd;clip-rule:evenodd;fill:#272828;" d="M656.244,323.342c1.026,0.792,0.357,2.142-0.568,2.682    c-0.515,0.301-1.091,0.252-1.591-0.041c-0.774-0.456-0.909-1.475-1.659-1.92c-0.214-0.126-0.531-0.015-0.586,0.238    c-0.247,1.135,0.955,2.381,1.928,2.811c0.845,0.374,1.78,0.244,2.546-0.249c1.417-0.914,1.978-3.139,0.205-3.992    C656.197,322.716,655.97,323.13,656.244,323.342z" id="path302"/>
		<path style="fill-rule:evenodd;clip-rule:evenodd;fill:#272828;" d="M651.846,324.276c-0.05,1.503-0.873,3.018-2.385,3.466    c-1.689,0.503-1.628-1.324-2.05-2.367c-0.089-0.215-0.344-0.26-0.484-0.061c-1.217,1.727,0.514,3.893,2.41,3.633    c2.238-0.307,3.48-2.568,3.265-4.67C652.552,323.8,651.861,323.78,651.846,324.276z" id="path303"/>
		<path style="fill-rule:evenodd;clip-rule:evenodd;fill:#272828;" d="M646.603,325.275c-0.541,0.918-1.214,1.185-1.974,0.37    c-0.3-0.319-0.507-0.754-0.657-1.158c-0.146-0.393-0.203-0.906-0.491-1.215c-0.122-0.128-0.325-0.116-0.45,0    c-0.458,0.436-0.272,1.32-0.083,1.847c0.247,0.689,0.69,1.334,1.285,1.77c0.513,0.379,1.139,0.575,1.761,0.353    c0.72-0.259,1.04-1.022,1.226-1.705C647.322,325.164,646.799,324.945,646.603,325.275z" id="path304"/>
		<path style="fill-rule:evenodd;clip-rule:evenodd;fill:#272828;" d="M632.011,322.443c0.545,1.063,0.143,2.193-1.148,2.255    c-0.528,0.025-1.044-0.181-1.437-0.526c-0.462-0.409-0.565-1.147-1.092-1.459c-0.138-0.082-0.337-0.035-0.416,0.11    c-0.422,0.775,0.392,1.798,0.99,2.251c0.682,0.519,1.486,0.69,2.321,0.546c1.768-0.305,2.031-2.087,1.181-3.409    C632.248,321.958,631.875,322.178,632.011,322.443z" id="path305"/>
		<path style="fill-rule:evenodd;clip-rule:evenodd;fill:#272828;" d="M627.644,322.9c-0.164,1.019-1.048,1.815-2.098,1.819    c-0.437,0.002-0.839-0.226-1.09-0.576c-0.306-0.428-0.229-1.016-0.596-1.395c-0.122-0.126-0.331-0.12-0.454,0    c-0.545,0.534-0.213,1.53,0.154,2.081c0.42,0.627,1.127,0.916,1.853,0.984c1.691,0.159,2.809-1.27,2.797-2.838    C628.208,322.66,627.697,322.571,627.644,322.9z" id="path306"/>
		<path style="fill-rule:evenodd;clip-rule:evenodd;fill:#272828;" d="M623.23,322.861c-0.832,0.58-1.893,1-2.917,0.772    c-1.381-0.307-0.592-1.533-0.704-2.476c-0.025-0.206-0.203-0.32-0.396-0.228c-1.599,0.759-0.982,3.121,0.447,3.652    c1.366,0.508,3.292,0.062,3.959-1.331C623.73,323.017,623.485,322.684,623.23,322.861z" id="path307"/>
		<path style="fill-rule:evenodd;clip-rule:evenodd;fill:#272828;" d="M575.81,319.086c-0.819,0.082-1.6,0.445-1.78,1.324    c-0.168,0.824,0.209,1.638,0.732,2.255c0.526,0.621,1.355,1.068,2.185,0.997c0.941-0.081,2.196-1.054,2.036-2.088    c-0.039-0.259-0.371-0.342-0.57-0.232c-0.629,0.341-0.733,1.146-1.523,1.305c-0.481,0.098-0.986-0.252-1.307-0.566    c-0.839-0.819-1.02-2.107,0.294-2.499C576.138,319.502,576.101,319.057,575.81,319.086z" id="path308"/>
		<path style="fill-rule:evenodd;clip-rule:evenodd;fill:#272828;" d="M578.528,321.213c-0.477,1.293-0.375,2.896,1.014,3.566    c1.237,0.598,2.733-0.064,3.47-1.137c0.172-0.248,0.787-1.357,0.075-1.409c-0.618-0.046-1.117,1.051-1.608,1.388    c-0.545,0.373-1.204,0.406-1.753,0.041c-0.724-0.481-0.728-1.619-0.648-2.375C579.116,320.952,578.631,320.936,578.528,321.213z" id="path309"/>
		<path style="fill-rule:evenodd;clip-rule:evenodd;fill:#272828;" d="M583.126,322.328c-0.41,0.895-0.095,1.872,0.677,2.458    c0.744,0.566,1.761,0.635,2.646,0.445c0.865-0.185,1.66-0.762,1.933-1.621c0.278-0.876-0.235-2.344-1.267-2.413    c-0.127-0.008-0.21,0.107-0.22,0.22c-0.055,0.677,0.584,1.21,0.403,1.895c-0.131,0.493-0.695,0.743-1.14,0.863    c-0.548,0.146-1.166,0.093-1.661-0.185c-0.596-0.335-0.732-0.992-0.904-1.601C583.539,322.192,583.223,322.118,583.126,322.328z" id="path310"/>
		<path style="fill-rule:evenodd;clip-rule:evenodd;fill:#272828;" d="M594.504,321.902c-0.632,1.211-0.377,2.822,0.975,3.406    c1.565,0.675,2.698-0.659,2.913-2.109c0.063-0.423,0.215-1.232-0.241-1.499c-0.426-0.25-0.739,0.192-0.77,0.587    c-0.055,0.714-0.063,1.669-0.777,2.072c-0.406,0.23-0.903-0.039-1.193-0.334c-0.508-0.524-0.545-1.206-0.313-1.872    C595.218,321.804,594.672,321.578,594.504,321.902z" id="path311"/>
		<path style="fill-rule:evenodd;clip-rule:evenodd;fill:#272828;" d="M597.516,322.217c0.609,1.246,2.063,2.694,3.582,1.994    c1.419-0.653,1.158-2.903,0.217-3.845c-0.338-0.337-0.843,0.011-0.758,0.441c0.116,0.585,1.036,2.123,0.067,2.509    c-0.976,0.388-2.11-0.818-2.643-1.459C597.754,321.584,597.377,321.932,597.516,322.217z" id="path312"/>
		<path style="fill-rule:evenodd;clip-rule:evenodd;fill:#272828;" d="M600.874,321.19c0.918,1.303,2.507,2.188,3.932,1.085    c1.121-0.866,1.117-3.415-0.355-3.9c-0.118-0.038-0.242,0.065-0.24,0.185c0.01,0.571,0.329,1.028,0.443,1.581    c0.103,0.5-0.063,1.037-0.41,1.4c-0.903,0.939-2.232,0.007-2.865-0.739C601.143,320.523,600.665,320.892,600.874,321.19z" id="path313"/>
		<path style="fill-rule:evenodd;clip-rule:evenodd;fill:#272828;" d="M608.765,311.746c-1.005,0.973-1.477,2.57-0.28,3.604    c0.518,0.447,1.198,0.54,1.852,0.398c0.748-0.16,1.81-0.891,1.752-1.739c-0.014-0.19-0.168-0.306-0.356-0.271    c-0.566,0.108-0.938,0.656-1.438,0.915c-0.359,0.185-0.764,0.144-1.099-0.057c-0.881-0.527-0.564-1.838-0.063-2.483    C609.331,311.856,609.012,311.506,608.765,311.746z" id="path314"/>
		<path style="fill-rule:evenodd;clip-rule:evenodd;fill:#272828;" d="M611.446,313.78c-0.377,1.376,0.575,3.316,2.215,2.956    c0.738-0.162,1.19-0.68,1.382-1.392c0.143-0.534,0.347-1.691-0.121-2.109c-0.124-0.111-0.29-0.14-0.438-0.057    c-0.831,0.462-0.062,1.837-0.782,2.364c-0.996,0.728-1.493-1.006-1.521-1.663C612.163,313.464,611.561,313.363,611.446,313.78z" id="path315"/>
		<path style="fill-rule:evenodd;clip-rule:evenodd;fill:#272828;" d="M614.458,313.713c0.387,1.446,1.842,2.553,3.365,2.355    c1.488-0.194,2.258-2.278,0.854-3.16c-0.114-0.072-0.302-0.007-0.327,0.134c-0.139,0.757,0.418,1.962-0.738,2.068    c-1.026,0.096-2.11-0.647-2.48-1.583C614.972,313.117,614.34,313.268,614.458,313.713z" id="path316"/>
		<path style="fill-rule:evenodd;clip-rule:evenodd;fill:#272828;" d="M582.19,331.097c-0.54,1.255-0.789,2.994,0.817,3.59    c0.622,0.23,1.263,0.118,1.831-0.199c0.638-0.357,1.526-1.32,1.252-2.1c-0.046-0.131-0.199-0.261-0.35-0.198    c-0.866,0.364-1.083,1.851-2.268,1.632c-1.088-0.201-1.289-1.787-1.038-2.622C582.48,331.057,582.252,330.955,582.19,331.097z" id="path317"/>
		<path style="fill-rule:evenodd;clip-rule:evenodd;fill:#272828;" d="M585.65,332.204c-0.101,1.407,1.086,2.403,2.426,2.217    c1.255-0.174,2.512-1.94,1.678-3.096c-0.081-0.112-0.261-0.139-0.338,0c-0.425,0.774-0.397,1.772-1.361,2.132    c-1.007,0.375-1.504-0.566-1.822-1.332C586.106,331.82,585.674,331.853,585.65,332.204z" id="path318"/>
		<path style="fill-rule:evenodd;clip-rule:evenodd;fill:#272828;" d="M589.406,331.529c0.886,1.203,2.349,1.836,3.828,1.532    c1.307-0.268,2.337-2.202,1.198-3.237c-0.134-0.121-0.348-0.071-0.4,0.107c-0.146,0.49,0.018,0.99-0.106,1.489    c-0.129,0.513-0.588,0.758-1.061,0.875c-1.065,0.261-2.396-0.263-3.134-1.018C589.57,331.113,589.264,331.335,589.406,331.529z" id="path319"/>
		<path style="fill-rule:evenodd;clip-rule:evenodd;fill:#272828;" d="M627.813,329.019c-0.18,0.943-1.003,1.555-1.974,1.409    c-0.396-0.06-0.738-0.262-1.022-0.536c-0.325-0.315-0.377-0.717-0.833-0.884c-0.138-0.052-0.327,0.03-0.393,0.16    c-0.634,1.246,1.48,2.215,2.424,2.232c1.357,0.027,2.149-1.074,2.283-2.315C628.33,328.808,627.864,328.746,627.813,329.019z" id="path320"/>
		<path style="fill-rule:evenodd;clip-rule:evenodd;fill:#272828;" d="M623.446,328.867c-0.299,0.944-1.131,1.649-2.136,1.3    c-0.431-0.149-0.742-0.586-0.9-0.991c-0.184-0.473-0.037-1.137-0.451-1.484c-0.113-0.095-0.251-0.123-0.385-0.051    c-0.756,0.419-0.359,1.648-0.089,2.26c0.302,0.675,0.969,1.153,1.651,1.373c1.656,0.529,2.813-0.804,2.954-2.319    C624.129,328.57,623.553,328.528,623.446,328.867z" id="path321"/>
		<path style="fill-rule:evenodd;clip-rule:evenodd;fill:#272828;" d="M606.775,324.534c-0.274,0.612-0.551,1.403-0.217,2.05    c0.284,0.549,0.856,0.753,1.448,0.721c0.721-0.039,1.382-0.453,1.896-0.933c0.47-0.441,1.181-1.415,0.673-2.034    c-0.061-0.074-0.184-0.098-0.273-0.071c-0.445,0.125-0.659,0.685-0.899,1.042c-0.265,0.393-0.69,0.72-1.133,0.884    c-1.119,0.414-1.254-0.581-1.022-1.458C607.322,324.459,606.897,324.259,606.775,324.534z" id="path322"/>
		<path style="fill-rule:evenodd;clip-rule:evenodd;fill:#272828;" d="M610.054,324.406c0.023,0.879,0.59,1.692,1.47,1.895    c0.391,0.092,0.839-0.02,1.135-0.292c0.413-0.376,0.433-0.824,0.332-1.327c-0.023-0.126-0.158-0.268-0.288-0.288    c-0.079-0.013-0.143-0.017-0.22,0c-0.136,0.027-0.256,0.156-0.288,0.288c-0.093,0.387-0.209,0.643-0.615,0.622    c-0.489-0.026-0.804-0.57-0.889-0.985C610.616,323.958,610.044,324.043,610.054,324.406z" id="path323"/>
		<path style="fill-rule:evenodd;clip-rule:evenodd;fill:#272828;" d="M567.361,324.861c-1.713,0.044-3.112,1.151-2.784,2.984    c0.124,0.684,0.621,1.235,1.265,1.461c0.683,0.24,1.999-0.01,2.072-0.872c0.008-0.092-0.06-0.214-0.144-0.252    c-0.506-0.231-0.954,0.172-1.459,0.103c-0.398-0.054-0.615-0.354-0.716-0.721c-0.313-1.161,0.785-2.15,1.819-2.32    C567.634,325.207,567.578,324.855,567.361,324.861z" id="path324"/>
		<path style="fill-rule:evenodd;clip-rule:evenodd;fill:#272828;" d="M567.792,328.15c-0.491,0.217-1.07,0.631-1.106,1.219    c-0.033,0.575,0.316,1.053,0.77,1.368c0.537,0.372,1.22,0.431,1.848,0.34c0.63-0.091,1.591-0.614,1.57-1.344    c-0.006-0.28-0.244-0.415-0.497-0.379c-0.424,0.059-0.742,0.482-1.15,0.623c-0.346,0.118-0.748,0.099-1.082-0.054    c-0.23-0.105-0.477-0.277-0.574-0.523c-0.159-0.415,0.141-0.722,0.439-0.97C568.177,328.29,567.962,328.075,567.792,328.15z" id="path325"/>
		<path style="fill-rule:evenodd;clip-rule:evenodd;fill:#272828;" d="M570.328,329.733c-0.125,1.181,0.31,2.652,1.494,3.139    c1.203,0.494,2.656-1.336,1.896-2.373c-0.117-0.162-0.297-0.182-0.452-0.059c-0.375,0.297-0.504,1.76-1.202,1.436    c-0.805-0.371-1.137-1.309-1.168-2.143C570.883,329.361,570.365,329.376,570.328,329.733z" id="path326"/>
		<path style="fill-rule:evenodd;clip-rule:evenodd;fill:#272828;" d="M655.695,356.048c1.587,1.024,1.964,3.222,0.29,4.348    c-0.617,0.417-1.391,0.466-2.058,0.142c-1.107-0.538-1.316-1.939-2.315-2.5c-0.188-0.105-0.433-0.012-0.489,0.199    c-0.359,1.334,1.216,2.905,2.335,3.396c1.056,0.462,2.254,0.305,3.177-0.377c0.854-0.632,1.386-1.672,1.314-2.739    c-0.089-1.314-1.102-2.04-2.181-2.594C655.685,355.88,655.617,355.997,655.695,356.048z" id="path327"/>
		<path style="fill-rule:evenodd;clip-rule:evenodd;fill:#272828;" d="M650.771,358.402c0.267,1.47-0.886,2.787-2.283,3.086    c-0.576,0.122-1.148-0.058-1.547-0.479c-0.64-0.673-0.338-1.736-0.725-2.507c-0.152-0.303-0.555-0.237-0.723,0    c-0.637,0.908-0.205,2.49,0.462,3.284c0.638,0.761,1.606,1.071,2.577,0.928c2.209-0.327,3.423-2.37,2.803-4.468    C651.227,357.881,650.705,358.036,650.771,358.402z" id="path328"/>
		<path style="fill-rule:evenodd;clip-rule:evenodd;fill:#272828;" d="M645.432,358.672c-0.63,1.469-1.94,2.898-3.491,3.393    c-2.213,0.707-2.331-1.711-2.986-3.104c-0.118-0.25-0.437-0.132-0.522,0.067c-0.864,2.082,0.798,4.471,3.028,4.351    c2.37-0.129,4.128-2.276,4.594-4.443C646.132,358.577,645.591,358.3,645.432,358.672z" id="path329"/>
		<path style="fill-rule:evenodd;clip-rule:evenodd;fill:#272828;" d="M638.435,358.685c-0.329,0.488-0.874,1.132-1.547,1.028    c-0.509-0.078-0.92-0.539-1.206-0.934c-0.367-0.511-0.57-1.106-0.696-1.717c-0.128-0.631,0.101-1.354-0.103-1.949    c-0.069-0.197-0.313-0.339-0.508-0.206c-0.741,0.51-0.623,1.686-0.507,2.463c0.134,0.915,0.634,1.809,1.239,2.491    c0.497,0.561,1.293,0.943,2.047,0.833c0.93-0.137,1.452-0.896,1.827-1.689C639.155,358.636,638.664,358.343,638.435,358.685z" id="path330"/>
		<path style="fill-rule:evenodd;clip-rule:evenodd;fill:#272828;" d="M618.759,356.484c1.475,0.527,1.751,2.907,0.16,3.483    c-0.802,0.29-1.672-0.138-2.266-0.655c-0.553-0.479-0.689-1.172-1.149-1.696c-0.219-0.251-0.683-0.122-0.752,0.198    c-0.238,1.082,0.798,2.101,1.585,2.692c1.017,0.764,2.343,0.823,3.444,0.236c2.066-1.104,1.16-4.292-0.891-4.737    C618.577,355.938,618.459,356.378,618.759,356.484z" id="path331"/>
		<path style="fill-rule:evenodd;clip-rule:evenodd;fill:#272828;" d="M614.881,357.675c-0.11,1.661,0.016,3.339-1.539,4.371    c-0.657,0.439-1.37,0.508-1.875-0.162c-0.383-0.508-0.476-1.18-0.97-1.601c-0.209-0.178-0.499-0.104-0.59,0.157    c-0.308,0.87,0.304,1.877,0.891,2.495c0.661,0.694,1.642,0.743,2.486,0.412c0.939-0.371,1.825-1.201,2.171-2.162    c0.406-1.142,0.136-2.338,0.035-3.511C615.457,357.284,614.908,357.279,614.881,357.675z" id="path332"/>
		<path style="fill-rule:evenodd;clip-rule:evenodd;fill:#272828;" d="M609.517,360.31c-0.346,1.081-1.233,1.824-2.283,1.086    c-1.1-0.774-0.695-2.123-0.125-3.065c0.334-0.55-0.412-1.081-0.864-0.667c-1.477,1.36-1.251,3.665,0.371,4.791    c0.634,0.441,1.525,0.58,2.234,0.252c0.858-0.399,1.21-1.328,1.35-2.209C610.269,360.056,609.658,359.867,609.517,360.31z" id="path333"/>
		<path style="fill-rule:evenodd;clip-rule:evenodd;fill:#272828;" d="M603.346,344.56c-0.987,0.441-1.609,1.211-1.697,2.297    c-0.077,0.949,0.418,1.979,1.129,2.59c0.777,0.673,1.789,0.816,2.709,0.345c0.551-0.282,0.961-0.811,1.285-1.32    c0.395-0.618,0.876-1.565,0.518-2.273c-0.085-0.167-0.31-0.205-0.462-0.12c-0.536,0.297-0.679,0.971-0.951,1.484    c-0.207,0.397-0.453,0.801-0.817,1.073c-0.494,0.368-1.063,0.3-1.519-0.086c-1.102-0.929-1.238-2.726,0.095-3.492    C603.965,344.869,603.677,344.412,603.346,344.56z" id="path334"/>
		<path style="fill-rule:evenodd;clip-rule:evenodd;fill:#272828;" d="M606.726,346.609c0.284,1.369,1.867,3.701,3.533,2.948    c0.831-0.376,0.979-1.255,0.996-2.083c0.017-0.658,0.089-2.07-0.651-2.364c-0.124-0.049-0.26,0.016-0.351,0.093    c-0.407,0.345-0.166,1.004-0.114,1.449c0.06,0.562,0.153,1.287-0.121,1.807c-0.31,0.584-1.182-0.16-1.429-0.401    c-0.458-0.449-0.845-1.064-1.058-1.67C607.353,345.88,606.615,346.08,606.726,346.609z" id="path335"/>
		<path style="fill-rule:evenodd;clip-rule:evenodd;fill:#272828;" d="M610.209,345.504c0.705,1.55,2.528,2.158,4.076,1.514    c0.646-0.27,1.156-0.756,1.352-1.44c0.182-0.633-0.067-1.632-0.766-1.823c-0.135-0.035-0.328,0.046-0.35,0.199    c-0.065,0.474,0.263,0.89,0.178,1.366c-0.081,0.453-0.539,0.728-0.938,0.871c-1.103,0.398-2.366-0.027-2.956-1.036    C610.576,344.764,610.029,345.105,610.209,345.504z" id="path336"/>
		<path style="fill-rule:evenodd;clip-rule:evenodd;fill:#272828;" d="M573.47,350.894c-2.138-0.141-2.923,2.378-2.488,4.092    c0.246,0.965,1.028,1.758,2.04,1.852c0.62,0.056,1.21-0.137,1.768-0.391c0.704-0.32,1.662-0.874,1.837-1.679    c0.038-0.179-0.086-0.414-0.298-0.392c-1.129,0.12-1.833,1.313-3.029,1.389c-0.692,0.044-1.129-0.439-1.352-1.047    c-0.452-1.229-0.108-3.456,1.521-3.518C573.671,351.193,573.669,350.905,573.47,350.894z" id="path337"/>
		<path style="fill-rule:evenodd;clip-rule:evenodd;fill:#272828;" d="M576.172,354.907c-0.918,1.384-1.169,3.429,0.641,4.219    c0.719,0.311,1.542,0.267,2.252-0.041c0.8-0.346,1.999-1.204,1.902-2.19c-0.022-0.216-0.209-0.409-0.441-0.336    c-0.597,0.186-0.932,0.771-1.421,1.136c-0.442,0.328-1.017,0.54-1.569,0.444c-1.367-0.235-1.2-1.957-0.789-2.895    C576.918,354.856,576.414,354.543,576.172,354.907z" id="path338"/>
		<path style="fill-rule:evenodd;clip-rule:evenodd;fill:#272828;" d="M580.553,356.895c0.008,1.581,0.797,3.129,2.43,3.519    c1.433,0.341,3.463-0.963,3.148-2.565c-0.039-0.193-0.313-0.313-0.478-0.193c-0.866,0.629-1.104,1.703-2.352,1.699    c-1.253-0.004-1.956-1.404-2.098-2.459C581.148,356.494,580.551,356.463,580.553,356.895z" id="path339"/>
		<path style="fill-rule:evenodd;clip-rule:evenodd;fill:#272828;" d="M567.883,367.94c-0.873-0.089-1.245,0.593-1.334,1.366    c-0.113,0.995,0.519,2.107,1.294,2.687c0.947,0.708,1.977,0.542,2.935-0.056c0.808-0.505,2.008-1.544,2.039-2.566    c0.006-0.174-0.166-0.28-0.323-0.247c-1.208,0.26-1.802,1.793-3.008,2.208c-1.293,0.445-2.909-2.468-1.534-2.88    C568.248,368.363,568.165,367.971,567.883,367.94z" id="path340"/>
		<path style="fill-rule:evenodd;clip-rule:evenodd;fill:#272828;" d="M572.652,369.289c-0.236,1.704,0.843,4.077,2.878,3.672    c0.88-0.175,1.375-1.093,1.682-1.841c0.286-0.702,0.741-2.169,0.227-2.852c-0.132-0.175-0.433-0.29-0.6-0.078    c-0.338,0.427-0.318,0.996-0.405,1.514c-0.112,0.678-0.315,1.412-0.779,1.938c-1.168,1.319-2.42-1.343-2.396-2.271    C573.269,369.029,572.7,368.94,572.652,369.289z" id="path341"/>
		<path style="fill-rule:evenodd;clip-rule:evenodd;fill:#272828;" d="M576.965,369.011c0.938,1.595,2.691,2.976,4.638,2.622    c0.781-0.144,1.332-0.756,1.571-1.482c0.256-0.778,0.136-2.394-0.701-2.753c-0.149-0.064-0.369-0.059-0.449,0.118    c-0.437,0.966,0.854,2.635-0.713,3.06c-1.411,0.383-3.016-0.854-3.799-1.885C577.272,368.376,576.754,368.648,576.965,369.011z" id="path342"/>
		<path style="fill-rule:evenodd;clip-rule:evenodd;fill:#272828;" d="M582.341,367.519c0.904,0.735,2.567,1.728,3.476,0.431    c0.345-0.494,0.43-1.127,0.394-1.718c-0.037-0.643-0.243-1.755-0.894-2.059c-0.173-0.081-0.383-0.02-0.439,0.18    c-0.129,0.446,0.1,1.046,0.199,1.491c0.095,0.416,0.114,0.867,0.008,1.28c-0.294,1.13-1.794,0.245-2.354-0.109    C582.426,366.822,582.055,367.286,582.341,367.519z" id="path343"/>
		<path style="fill-rule:evenodd;clip-rule:evenodd;fill:#272828;" d="M590.381,350.933c-1.232,1.047-1.313,2.858-0.093,3.962    c0.543,0.492,1.287,0.73,2.009,0.548c0.699-0.18,1.689-1.098,1.39-1.889c-0.062-0.166-0.236-0.307-0.424-0.241    c-0.52,0.184-0.677,0.804-1.185,0.999c-0.348,0.134-0.725,0.023-1.008-0.2c-0.877-0.691-0.985-1.89-0.202-2.69    C591.185,351.099,590.717,350.648,590.381,350.933z" id="path344"/>
		<path style="fill-rule:evenodd;clip-rule:evenodd;fill:#272828;" d="M628.438,343.699c-0.35,0.442-0.612,0.911-0.519,1.49    c0.089,0.55,0.383,0.977,0.823,1.307c0.432,0.326,1.065,0.44,1.589,0.333c0.566-0.116,1.404-0.507,1.396-1.176    c-0.002-0.145-0.134-0.315-0.296-0.296c-0.387,0.047-0.605,0.317-0.936,0.506c-0.339,0.192-0.779,0.181-1.127,0.023    c-0.754-0.339-0.979-1.246-0.631-1.956C628.826,343.748,628.579,343.521,628.438,343.699z" id="path345"/>
		<path style="fill-rule:evenodd;clip-rule:evenodd;fill:#272828;" d="M631.164,345.516c-0.264,1.001,0.348,2.046,1.403,2.202    c0.506,0.074,0.943-0.084,1.326-0.41c0.421-0.358,0.738-1.078,0.357-1.55c-0.091-0.112-0.263-0.107-0.379-0.049    c-0.537,0.27-0.442,1.065-1.174,1.05c-0.599-0.015-0.918-0.758-1.001-1.243C631.65,345.238,631.229,345.266,631.164,345.516z" id="path346"/>
		<path style="fill-rule:evenodd;clip-rule:evenodd;fill:#272828;" d="M633.779,345.918c0.237,0.785,0.87,1.442,1.721,1.478    c0.693,0.028,1.802-1.02,1.115-1.663c-0.089-0.082-0.203-0.093-0.31-0.039c-0.433,0.215-0.313,0.888-0.891,0.888    c-0.509,0-0.947-0.448-1.16-0.863C634.119,345.454,633.694,345.638,633.779,345.918z" id="path347"/>
		<path style="fill-rule:evenodd;clip-rule:evenodd;fill:#272828;" d="M618.467,401.989c0.153-2.316,0.172-4.55-0.004-6.866    c-0.19-2.476,1.06-4.268,1.47-6.558c0.052-0.28-0.225-0.55-0.501-0.385c-1.508,0.9-2.015,3.216-2.169,4.852    c-0.284,3.009,0.762,5.965,1.011,8.958C618.283,402.115,618.459,402.117,618.467,401.989z" id="path348"/>
		<path style="fill-rule:evenodd;clip-rule:evenodd;fill:#272828;" d="M616.428,395.038c0.077-1.655,0.693-3.189,1.479-4.621    c0.489-0.892,1.52-1.711,1.756-2.671c0.028-0.115-0.057-0.256-0.188-0.246c-1.093,0.083-1.748,1.712-2.186,2.555    c-0.888,1.712-1.054,3.085-1.006,4.983C616.284,395.132,616.424,395.131,616.428,395.038z" id="path349"/>
		<path style="fill-rule:evenodd;clip-rule:evenodd;fill:#272828;" d="M625.049,383.918c-1.109,2.112-2.967,3.931-3.47,6.347    c-0.025,0.118,0.136,0.196,0.199,0.084c1.187-2.099,2.262-4.243,3.298-6.415C625.086,383.915,625.059,383.898,625.049,383.918z" id="path350"/>
		<path style="fill-rule:evenodd;clip-rule:evenodd;fill:#272828;" d="M614.736,381.798c0.276,1.51,0.133,3.173,0.549,4.641    c0.044,0.15,0.29,0.169,0.322,0c0.273-1.503-0.295-3.254-0.752-4.673C614.831,381.69,614.723,381.721,614.736,381.798z" id="path351"/>
		<path style="fill-rule:evenodd;clip-rule:evenodd;fill:#272828;" d="M619.526,433.44c-0.317,8.193-0.474,16.368-0.884,24.561    c-0.018,0.352,0.536,0.425,0.613,0.083c1.812-7.893,0.775-16.634,0.427-24.645C619.679,433.34,619.532,433.34,619.526,433.44z" id="path352"/>
		<path style="fill-rule:evenodd;clip-rule:evenodd;fill:#272828;" d="M619.426,427.721c-0.008-0.432-0.014-0.867,0.081-1.291    c0.008-0.041-0.05-0.056-0.063-0.017c-0.147,0.429-0.17,0.857-0.18,1.308C619.262,427.825,619.428,427.825,619.426,427.721z" id="path353"/>
		<path style="fill-rule:evenodd;clip-rule:evenodd;fill:#272828;" d="M615.238,401.299c1.64,5.46,1.369,10.863,2.094,16.415    c0.025,0.193,0.276,0.194,0.3,0c0.663-5.368-0.446-11.394-2.064-16.505C615.5,401,615.175,401.087,615.238,401.299z" id="path354"/>
	</g></svg>