<svg version="1.1" x="0px" y="0px" viewBox="556.2867992586432 35.35864206954771 122.57612938918487 183.0333693825541" style="enable-background:new 0 0 750 500;" xml:space="preserve" id="svg383" sodipodi:docname="simpletrees.svg" inkscape:version="1.4.2 (f4327f4, 2025-05-13)" xmlns:inkscape="http://www.inkscape.org/namespaces/inkscape" xmlns:sodipodi="http://sodipodi.sourceforge.net/DTD/sodipodi-0.dtd" xmlns="http://www.w3.org/2000/svg" xmlns:svg="http://www.w3.org/2000/svg"><defs id="defs383"/><g id="g75">
		<path style="fill-rule:evenodd;clip-rule:evenodd;fill:#FFFFFF;" d="M613.138,227.158c0.077-6.989,3.651-61.729,0.858-62.753    c-23.335-9.817-13.124-43.973-26.248-50.35c11.854,3.063,7.997,36.351,27.219,44.679c0.075,0.044,0.143,0.104,0.206,0.179    c-0.949-44.443-1.268-91.174,5.291-109.725c-4.056,9.019,0.967,69.086,4.319,122.121c16.128-10.169,13.389-37.732,24.644-40.641    c-12.743,6.19-3.371,37.518-24.16,48.326c1.135,18.435,6.933,35.426,7.039,48.207    C631.993,229.404,612.726,229.602,613.138,227.158z" id="path53"/>
		<path style="fill-rule:evenodd;clip-rule:evenodd;fill:#272828;" d="M612.425,227.093c0.022-1.718,0.231-5.952,0.504-11.474    c0.89-18.037,2.465-49.94,0.82-50.543l-0.084-0.038c-13.683-5.789-16.073-19.59-18.146-31.553    c-1.489-8.605-2.809-16.225-8.083-18.788c-0.355-0.17-0.504-0.598-0.332-0.953c0.158-0.326,0.531-0.479,0.866-0.368    c5.656,1.498,7.865,9.067,10.403,17.769c2.95,10.111,6.364,21.813,16.059,26.556c-0.458-21.845-0.754-44.174-0.143-63.384    c0.597-18.764,2.059-34.573,5.074-44.096c0.128-0.487,0.268-0.906,0.42-1.257l0.006-0.015c0.131-0.373,0.539-0.567,0.912-0.438    c0.371,0.131,0.566,0.54,0.437,0.912c-0.162,0.457-0.32,0.933-0.472,1.423c-2.538,10.175,0.155,50.267,2.976,92.273    c0.602,8.948,1.21,17.985,1.776,26.9c7.543-5.387,10.607-14.985,13.282-23.375c2.601-8.146,4.851-15.197,10.547-16.67    c0.381-0.099,0.771,0.131,0.87,0.512c0.087,0.335-0.081,0.677-0.381,0.821c-5.273,2.563-6.57,9.982-8.032,18.357    c-1.913,10.939-4.1,23.45-15.696,29.741c0.599,9.078,2.321,17.831,3.908,25.887c1.595,8.094,3.049,15.488,3.104,21.9l-0.008,0.106    c-0.004,0.034-0.013,0.07-0.023,0.104c-0.019,0.06-0.041,0.104-0.07,0.159c-0.794,1.382-6.182,2.11-11.2,2.068    c-1.439-0.012-2.848-0.075-4.101-0.193c-1.277-0.12-2.4-0.299-3.235-0.534C613.066,228.534,612.314,227.943,612.425,227.093    L612.425,227.093z M614.355,215.686c-0.274,5.548-0.483,9.8-0.505,11.436c0.004,0.05,0,0.103-0.008,0.153    c-0.003,0.006,0.351,0.091,0.927,0.255c0.76,0.214,1.796,0.377,2.984,0.489c1.216,0.115,2.583,0.177,3.978,0.188    c4.666,0.039,9.643-0.337,9.862-1.08c-0.065-6.238-1.506-13.554-3.083-21.558c-1.616-8.213-3.377-17.148-3.955-26.485    c-0.035-0.288,0.107-0.582,0.381-0.725c11.33-5.889,13.479-18.194,15.356-28.938c0.452-2.587,0.89-5.087,1.433-7.399    c-0.563,1.598-1.105,3.3-1.666,5.056c-2.863,8.978-6.159,19.303-14.86,24.813c-0.104,0.075-0.233,0.124-0.371,0.132    c-0.395,0.024-0.734-0.274-0.758-0.668c-0.582-9.221-1.222-18.728-1.854-28.138c-2.194-32.669-4.312-64.185-3.917-81.6    c-1.392,8.868-2.183,20.128-2.586,32.746c-0.619,19.528-0.304,42.289,0.17,64.481c0.021,0.229-0.067,0.462-0.257,0.619    c-0.304,0.251-0.756,0.209-1.006-0.095l-0.012-0.015c-10.883-4.765-14.496-17.146-17.606-27.812    c-0.331-1.135-0.657-2.25-0.984-3.333c0.319,1.622,0.611,3.309,0.911,5.035c2.01,11.611,4.33,25.004,17.305,30.486l0.037,0.017    v0.003C616.857,164.953,615.261,197.342,614.355,215.686z" id="path54"/>
		<path style="fill-rule:evenodd;clip-rule:evenodd;fill:#FFFFFF;" d="M611.889,146.204c0.025,3.262-4.577,2.993-4.695,0.236    c-2.436,5.062-7.482,4.643-6.278,0.275c-2.852,5.393-7.422,3.615-5.048-2.765c-3.716,2.961-6.756,1.071-4.786-2.696    c-3.207,3.034-7.408,3.371-5.575-1.801c-4.968,2.679-6.242-2.272-3.907-4.303c-2.094-2.707-0.597-5.473,3.072-4.631    c-4.344-0.586-6.509-7.01-1.93-6.479c-2.978-1.222-4.348-3.459-0.616-5.483c-4.255,1.753-5.95-0.807-3.161-4.58    c-3.92,4.339-7.924,2.622-5.268-1.605c-4.216,1.223-6.866-1.096-3.385-4.223c-3.976,2.778-9.268,3.2-5.484-3.245    c-5.27,1.54-5.974-3.739-1.844-5.344c-3.816-2.607-2.81-7.021,3.338-4.345c-1.425-2.223-1.405-6.771,1.932-7.177    c-4.566,0.508-7.246-2.552-4.607-6.75c-5.351,1.09-6.854-2.945-2.503-5.555c-4.713,0.273-3.628-5.448-0.046-5.175    c-2.731-2.859-0.726-8.973,2.854-3.914c0.053-5.715,2.933-7.207,4.126-1.334c2.416-5.69,5.677-4.893,4.26,1.992    c2.668-1.671,5.603-1.744,3.643,2.216c1.664-1.85,2.652-1.951,3.229,0.338c0.717-1.647,0.682-5.361,3.47-3.479    c-2.944-1.362-3.41-4.355-0.659-4.184c-0.706-3.823,2.295-5.813,3.292-2.388c0.983-3.05,3.648-4.166,3.273-0.279    c0.588-2.22,2.809-4.731,3.292-1.708c0.623-2.093,1.346-2.894,3.14-1.433c-3.899-4.022-0.521-6.819,1.143-5.535    c-4.28-7.432,5.409-8.563,4.437-3.905c0.908-5.815,6.061-6.042,4.303-2.842c1.976-5.009,6.672-11.612,7.155-2.231    c0.482-7.206,5.256-5.367,4.216-0.551c1.757-5.979,3.245-2.994,2.81,0.745c1.488-4.947,6.899-4.922,4.038-0.143    c4.982-4.604,7.406-1.346,3.994,1.178c3.827-2.625,6.621-0.433,4.259,4.406c4.096-4.031,11.37-5.179,5.664,2.276    c0,0,2.897-3.301,5.227-3.134c2.324,0.169,1.272,3.764,1.272,3.764s1.931-3.752,4.301-3.5c2.372,0.254,1.143,2.414,1.143,2.414    s3.994-2.598,5.048-1.364c1.054,1.235-1.8,3.479-1.8,3.479s4.479-0.001,4.038,1.57c-0.438,1.57-4.521,1.76-4.521,1.76    s3.381,1.49,2.283,2.719c-1.097,1.229-3.643-0.327-3.643-0.327s1.578,1.807,0.613,3.243c-0.965,1.438-3.818,0.652-3.951,0.223    c-0.132-0.428,5.005,0.616,5.181,2.403c0.176,1.787-0.746,3.351-0.746,3.351s2.546-3.625,5.049-2.768    c2.502,0.857-0.044,3.911-0.044,3.911s4.479-4.172,6.454-2.791c1.976,1.383-0.527,3.642-0.527,3.642s4.521-0.576,4.392,0.839    c-0.133,1.417-3.47,3.347-3.47,3.347s2.196,1.014,1.186,3.242c-1.008,2.231-4.083-1.258-4.083-1.258s1.098,1.978-1.052,3.2    c-2.151,1.223-2.635-1.023-2.635-1.023s2.194,1.716,1.887,3.585c-0.306,1.867-2.194,2.499-2.194,2.499s4.456-2.678,5.818-1.665    c1.359,1.013-1.142,3.755-1.142,3.755s3.908-2.898,5.268-1.162c1.362,1.737-2.502,4.765-2.502,4.765s5.798-1.731,6.677,0.439    c0.878,2.17-2.151,3.813-2.151,3.813s4.697-1.071,5.531,1.276c0.833,2.35-3.074,3.008-3.074,3.008s3.294-0.786,3.513,1.612    c0.219,2.396-3.994,2.026-3.994,2.026s3.337,0.308,3.426,1.748c0.087,1.443-4.655,1.816-4.655,1.816s4.876-0.473,4.92,1.104    c0.043,1.576-1.143,2.109-1.143,2.109s4.521-1.804,5.137,0.343c0.614,2.146-3.072,2.48-3.072,2.48s3.378,0.35,2.765,2.24    c-0.614,1.892-3.424,0.665-3.424,0.665s1.8,1.307,0.878,2.916c-0.922,1.609-2.897,0.009-2.897,0.009s3.997,1.354,3.249,3.563    c-0.746,2.21-3.249,0.827-3.249,0.827s3.425,2.276,2.635,3.875c-0.791,1.599-3.557-0.027-3.557-0.027s2.022,2.344,0.265,3.974    c-1.756,1.631-2.896-0.78-2.896-0.78c1.659,4.55-3.083,7.496-3.381,2.152c-0.466,6.374-6.158,7.992-3.819,1.573    c-2.403,6.353-6.325,8.188-4.653,1.771c-1.815,3.032-3.132,2.857-6.014,1.988c2.558,1.522,0.885,5.359-2.654,3.238    c3.613,3.629-1.028,7.558-2.173,3.418c-0.325,3.681-3.561,5.052-4.523,1.673c-0.744,4.732-5.616,6.558-6.167,2.133    c-0.348,6.114-6.065,6.334-4.697,1.466c-2.797,6.48-6.888,4.24-5.621,1.365c-1.768,4.329-5.654,3.813-5.575-1.054    C617.069,151.306,612.237,149.956,611.889,146.204z" id="path55"/>
		<path style="fill-rule:evenodd;clip-rule:evenodd;fill:#272828;" d="M611.858,148.343c-0.266,0.293-0.59,0.517-0.945,0.677    c-0.391,0.175-0.82,0.265-1.251,0.271c-0.424,0.007-0.852-0.065-1.251-0.214c-0.531-0.198-1.009-0.529-1.357-0.982    c-1.015,1.456-2.258,2.307-3.389,2.605c-0.601,0.159-1.181,0.167-1.695,0.032c-0.553-0.143-1.026-0.445-1.372-0.896    c-0.178-0.232-0.319-0.503-0.418-0.809c-0.768,0.836-1.577,1.332-2.331,1.513c-0.605,0.146-1.185,0.098-1.689-0.131    c-0.509-0.232-0.932-0.639-1.226-1.206c-0.435-0.843-0.582-2.076-0.273-3.642c-0.833,0.4-1.614,0.575-2.289,0.555    c-0.632-0.018-1.185-0.201-1.62-0.528c-0.452-0.338-0.768-0.815-0.916-1.409c-0.075-0.308-0.102-0.648-0.079-1.014    c-0.833,0.506-1.663,0.836-2.397,0.953c-0.648,0.104-1.241,0.05-1.737-0.182c-0.542-0.253-0.945-0.699-1.145-1.356    c-0.151-0.498-0.178-1.126-0.045-1.889c-1.139,0.358-2.08,0.311-2.814,0.006c-0.568-0.238-1.011-0.628-1.322-1.107    c-0.298-0.46-0.474-1.003-0.525-1.57c-0.089-1.002,0.214-2.095,0.908-2.941c-0.45-0.715-0.69-1.434-0.74-2.1    c-0.051-0.692,0.103-1.334,0.442-1.871c0.306-0.487,0.76-0.878,1.342-1.133c-0.862-0.692-1.516-1.581-1.885-2.467    c-0.227-0.539-0.352-1.088-0.361-1.604c-0.01-0.562,0.121-1.082,0.407-1.517c0.188-0.285,0.434-0.525,0.743-0.708    c-0.207-0.158-0.397-0.323-0.564-0.495c-0.502-0.514-0.819-1.09-0.898-1.711c-0.067-0.543,0.047-1.096,0.385-1.643    c-0.24-0.008-0.466-0.036-0.673-0.082c-0.65-0.144-1.156-0.462-1.502-0.924c-0.342-0.455-0.511-1.031-0.487-1.697    c0.006-0.192,0.029-0.393,0.069-0.601c-0.811,0.446-1.579,0.665-2.24,0.688h-0.01c-0.593,0.02-1.113-0.11-1.536-0.373    c-0.451-0.283-0.777-0.706-0.94-1.251c-0.179-0.604-0.142-1.36,0.174-2.229c-1.067,0.126-2.003,0.021-2.721-0.265    c-0.585-0.23-1.039-0.581-1.333-1.026c-0.308-0.471-0.43-1.031-0.327-1.657c0.012-0.079,0.029-0.16,0.049-0.241    c-0.896,0.358-1.764,0.574-2.508,0.604c-0.707,0.029-1.33-0.101-1.811-0.419c-0.535-0.354-0.871-0.903-0.932-1.672    c-0.056-0.711,0.146-1.639,0.687-2.81c-1.259,0.098-2.225-0.22-2.879-0.771c-0.435-0.364-0.732-0.826-0.893-1.341    c-0.156-0.499-0.178-1.045-0.065-1.593c0.208-1.003,0.873-2.021,2.002-2.747c-0.954-0.893-1.498-1.903-1.623-2.81    c-0.078-0.576,0.009-1.122,0.259-1.59c0.257-0.478,0.673-0.86,1.253-1.098c0.808-0.329,1.958-0.368,3.44,0.052    c-0.11-0.382-0.191-0.779-0.239-1.183c-0.112-0.916-0.055-1.871,0.21-2.717c0.165-0.527,0.41-1.013,0.743-1.429    c-0.708-0.146-1.338-0.395-1.872-0.729c-0.541-0.34-0.985-0.771-1.314-1.276c-0.332-0.513-0.543-1.099-0.614-1.741    c-0.093-0.826,0.048-1.748,0.462-2.732c-1.31,0.066-2.36-0.191-3.108-0.658c-0.568-0.357-0.971-0.834-1.19-1.387    c-0.221-0.556-0.252-1.173-0.084-1.808c0.186-0.697,0.619-1.417,1.318-2.094c-0.79-0.274-1.337-0.768-1.666-1.367    c-0.265-0.48-0.381-1.025-0.361-1.571c0.018-0.533,0.162-1.069,0.416-1.552c0.423-0.8,1.148-1.468,2.103-1.754    c-0.687-1.264-0.831-2.752-0.561-3.889c0.136-0.569,0.379-1.069,0.714-1.436c0.385-0.421,0.881-0.67,1.471-0.666    c0.576,0.004,1.23,0.269,1.924,0.886c0.188-1.451,0.583-2.542,1.074-3.188c0.345-0.453,0.758-0.729,1.208-0.811    c0.485-0.088,0.967,0.049,1.413,0.427c0.443,0.378,0.868,1.044,1.225,2.023c0.672-1.129,1.376-1.871,2.027-2.228    c0.533-0.292,1.056-0.358,1.533-0.201c0.474,0.156,0.864,0.518,1.135,1.083c0.395,0.819,0.545,2.17,0.31,4.022    c0.692-0.297,1.365-0.474,1.938-0.496c0.529-0.02,0.997,0.086,1.368,0.339c0.41,0.281,0.675,0.71,0.735,1.306    c0.012,0.123,0.017,0.254,0.008,0.394c0.247-0.095,0.484-0.138,0.715-0.125c0.385,0.022,0.719,0.172,1.001,0.459    c0.178-0.667,0.385-1.328,0.727-1.837c0.156-0.232,0.33-0.43,0.525-0.583c-0.261-0.317-0.458-0.644-0.592-0.964    c-0.188-0.444-0.261-0.888-0.214-1.291c0.054-0.459,0.255-0.865,0.607-1.178c0.282-0.248,0.655-0.427,1.117-0.507    c-0.099-1.462,0.302-2.646,0.897-3.357c0.286-0.343,0.628-0.589,0.993-0.721l0.043-0.015c0.393-0.132,0.8-0.133,1.196,0.014    c0.335,0.123,0.655,0.354,0.936,0.702c0.412-0.693,0.905-1.216,1.383-1.508c0.367-0.225,0.746-0.333,1.109-0.309    c0.421,0.028,0.79,0.222,1.074,0.599c0.037,0.052,0.074,0.105,0.108,0.164c0.213-0.302,0.439-0.567,0.671-0.776    c0.315-0.287,0.657-0.489,1-0.566c0.433-0.098,0.839-0.018,1.196,0.292c0.231-0.398,0.499-0.699,0.827-0.888    c0.138-0.079,0.28-0.14,0.426-0.179c-0.544-1.034-0.669-1.968-0.53-2.742c0.093-0.526,0.308-0.983,0.598-1.354    c0.294-0.377,0.667-0.661,1.067-0.839c0.214-0.095,0.437-0.159,0.661-0.192c-0.805-1.998-0.605-3.541,0.073-4.614    c0.582-0.923,1.512-1.483,2.475-1.689c0.974-0.207,1.998-0.054,2.758,0.451l0.045,0.033c0.144,0.102,0.278,0.214,0.4,0.338    c0.651-1.392,1.571-2.271,2.418-2.699c0.527-0.266,1.048-0.369,1.492-0.324h0.002c0.272,0.027,0.517,0.106,0.726,0.235    c0.837-1.632,1.852-3.181,2.832-4.118c0.589-0.562,1.19-0.93,1.78-1.019c0.713-0.107,1.347,0.149,1.853,0.88    c0.164,0.237,0.314,0.534,0.444,0.896c0.321-0.661,0.708-1.129,1.115-1.423c0.497-0.357,1.029-0.484,1.545-0.412l0.029,0.005    c0.494,0.079,0.949,0.339,1.324,0.752c0.247,0.272,0.458,0.619,0.62,1.027c0.162-0.25,0.323-0.441,0.478-0.579    c0.434-0.384,0.876-0.466,1.305-0.304c0.357,0.136,0.641,0.444,0.845,0.88c0.136,0.298,0.246,0.684,0.321,1.131    c0.636-0.754,1.364-1.249,2.039-1.484c0.557-0.196,1.097-0.227,1.553-0.095c0.533,0.152,0.947,0.505,1.162,1.055    c0.119,0.3,0.168,0.661,0.133,1.082c1.214-0.747,2.236-1.011,2.99-0.949c0.548,0.046,0.988,0.251,1.298,0.571    c0.328,0.337,0.496,0.78,0.487,1.284c-0.002,0.187-0.031,0.383-0.086,0.586c0.321-0.062,0.627-0.085,0.915-0.072    c0.693,0.029,1.291,0.259,1.753,0.667c0.462,0.406,0.772,0.975,0.898,1.684c0.091,0.516,0.083,1.111-0.041,1.778    c1.477-0.978,3.047-1.616,4.263-1.755l0.023-0.003c0.693-0.075,1.305,0.003,1.774,0.262c0.565,0.308,0.904,0.826,0.936,1.578    c0.016,0.349-0.049,0.755-0.203,1.227c0.853-0.489,1.782-0.833,2.664-0.77c1.407,0.103,1.95,1.004,2.114,1.988    c0.888-0.97,2.104-1.868,3.486-1.721c1.615,0.172,2.091,0.938,2.14,1.707c1.453-0.718,3.594-1.492,4.518-0.412    c0.904,1.059,0.114,2.408-0.702,3.351c1.531,0.212,3.524,0.788,3.086,2.353c-0.315,1.13-1.823,1.706-3.13,1.997    c0.914,0.726,1.656,1.735,0.734,2.767c-0.704,0.79-1.745,0.798-2.65,0.583c0.185,0.697,0.189,1.502-0.315,2.255    c-0.063,0.095-0.133,0.182-0.206,0.263c0.835,0.496,1.477,1.134,1.552,1.896c0.031,0.311,0.031,0.615,0.012,0.907    c1.058-0.796,2.416-1.408,3.81-0.931c1.37,0.47,1.709,1.343,1.618,2.232c1.595-1.033,3.642-1.948,4.97-1.021    c1.523,1.066,1.196,2.431,0.616,3.424c1.57-0.004,3.685,0.257,3.55,1.707c-0.112,1.208-1.825,2.567-2.919,3.319    c0.679,0.661,1.343,1.81,0.576,3.498c-0.872,1.929-2.566,1.186-3.799,0.264c-0.151,0.685-0.6,1.416-1.636,2.005    c-0.219,0.125-0.427,0.224-0.62,0.299c0.216,0.54,0.328,1.138,0.226,1.757c-0.014,0.09-0.032,0.177-0.052,0.262    c1.283-0.446,2.635-0.682,3.395-0.115c0.815,0.605,0.798,1.512,0.489,2.374c1.334-0.536,2.886-0.782,3.775,0.354    c0.974,1.24,0.141,2.813-0.837,4.003c1.942-0.273,4.446-0.271,5.11,1.371c0.505,1.247,0.057,2.324-0.589,3.132    c1.556,0,3.406,0.367,3.981,1.987c0.451,1.275-0.052,2.165-0.812,2.772c0.659,0.33,1.188,0.938,1.287,2.021    c0.118,1.281-0.591,1.989-1.494,2.375c0.513,0.348,0.89,0.809,0.928,1.423c0.039,0.642-0.415,1.128-1.072,1.496    c0.76,0.273,1.316,0.721,1.336,1.446c0.01,0.33-0.023,0.625-0.087,0.888c1.577-0.303,3.57-0.312,4.058,1.389    c0.397,1.391-0.372,2.221-1.31,2.71c0.791,0.472,1.383,1.229,0.994,2.428c-0.414,1.272-1.444,1.575-2.401,1.547    c0.225,0.614,0.26,1.356-0.206,2.168c-0.144,0.255-0.306,0.457-0.478,0.614c0.762,0.719,1.279,1.667,0.887,2.83    c-0.348,1.03-0.955,1.5-1.604,1.673c0.816,0.912,1.474,2.066,0.955,3.117c-0.561,1.133-1.674,1.216-2.66,1.011    c0.298,0.955,0.3,2.135-0.786,3.143c-0.909,0.845-1.693,0.936-2.32,0.713c-0.026,1.09-0.373,2.013-0.86,2.651    c-0.365,0.477-0.817,0.813-1.293,0.967c-0.539,0.177-1.098,0.131-1.601-0.184l-0.05-0.032c-0.177-0.118-0.345-0.271-0.499-0.463    c-0.511,1.412-1.278,2.436-2.026,2.998c-0.523,0.391-1.065,0.587-1.554,0.57c-0.596-0.021-1.089-0.318-1.39-0.911l-0.055-0.117    c-0.659,1.031-1.328,1.786-1.916,2.214c-0.482,0.352-0.949,0.522-1.376,0.497c-0.543-0.034-0.961-0.332-1.206-0.913    c-0.136-0.319-0.207-0.753-0.203-1.306c-0.42,0.333-0.856,0.544-1.324,0.659c-0.553,0.138-1.117,0.133-1.742,0.034    c0.099,0.332,0.132,0.671,0.107,0.999c-0.032,0.406-0.156,0.8-0.363,1.145c-0.211,0.351-0.505,0.651-0.872,0.867    c-0.438,0.259-0.979,0.4-1.599,0.365c0.383,0.947,0.377,1.853,0.138,2.597c-0.209,0.653-0.604,1.188-1.081,1.533    c-0.525,0.379-1.151,0.535-1.765,0.39l-0.037-0.01c-0.324-0.084-0.634-0.249-0.916-0.508c-0.29,0.71-0.697,1.282-1.154,1.684    c-0.411,0.358-0.871,0.591-1.343,0.678c-0.503,0.093-1.01,0.02-1.476-0.237c-0.217-0.12-0.425-0.281-0.616-0.483    c-0.526,1.276-1.348,2.251-2.231,2.834c-0.549,0.361-1.131,0.58-1.697,0.636c-0.61,0.06-1.194-0.067-1.705-0.398    c-0.174-0.113-0.336-0.248-0.484-0.406c-0.476,1.351-1.255,2.261-2.072,2.741c-0.542,0.32-1.11,0.46-1.638,0.424    c-0.572-0.039-1.091-0.276-1.484-0.711c-0.181-0.198-0.333-0.438-0.447-0.717c-0.947,1.289-1.95,1.944-2.834,2.148    c-0.518,0.118-1.003,0.093-1.427-0.048c-0.44-0.146-0.815-0.415-1.096-0.773c-0.071-0.09-0.137-0.185-0.193-0.285    c-0.419,0.463-0.87,0.798-1.326,1.012c-0.574,0.266-1.165,0.344-1.721,0.236c-0.561-0.108-1.078-0.403-1.506-0.881    c-0.427-0.474-0.76-1.135-0.947-1.977c-0.516,0.478-1.074,0.821-1.646,1.045c-0.876,0.341-1.784,0.399-2.623,0.216    c-0.843-0.184-1.62-0.61-2.228-1.238C612.227,148.874,612.028,148.621,611.858,148.343L611.858,148.343z M610.331,147.716    c0.483-0.216,0.849-0.704,0.845-1.502c-0.006-0.37,0.274-0.688,0.649-0.721c0.391-0.036,0.738,0.254,0.773,0.646    c0.075,0.808,0.398,1.477,0.873,1.964c0.41,0.423,0.935,0.712,1.506,0.837c0.578,0.126,1.201,0.085,1.806-0.149    c0.762-0.297,1.502-0.908,2.09-1.893c0.126-0.212,0.359-0.351,0.623-0.347c0.396,0.006,0.709,0.33,0.703,0.725    c-0.021,1.357,0.282,2.3,0.754,2.827c0.211,0.233,0.456,0.377,0.714,0.427c0.261,0.051,0.553,0.007,0.851-0.131    c0.651-0.301,1.307-1.023,1.813-2.181l0.076-0.188c0.158-0.361,0.581-0.526,0.941-0.367c0.361,0.159,0.527,0.582,0.367,0.943    c-0.268,0.609-0.215,1.152,0.046,1.486c0.104,0.134,0.248,0.235,0.42,0.292c0.188,0.062,0.411,0.07,0.659,0.014    c0.941-0.217,2.128-1.279,3.184-3.728c0.14-0.324,0.501-0.504,0.851-0.405c0.379,0.106,0.602,0.501,0.495,0.881    c-0.319,1.138-0.205,1.884,0.131,2.252c0.134,0.15,0.317,0.233,0.522,0.247c0.247,0.017,0.533-0.059,0.821-0.229    c0.87-0.513,1.689-1.801,1.819-3.93c0-0.357,0.265-0.666,0.628-0.711c0.393-0.047,0.75,0.232,0.797,0.624    c0.112,0.901,0.417,1.455,0.813,1.714c0.227,0.149,0.499,0.204,0.789,0.176c0.332-0.033,0.693-0.173,1.048-0.406    c0.953-0.628,1.814-1.888,2.095-3.59c0.025-0.288,0.223-0.543,0.517-0.626c0.381-0.108,0.775,0.111,0.884,0.491    c0.201,0.709,0.498,1.132,0.825,1.312c0.168,0.094,0.352,0.119,0.531,0.087c0.215-0.04,0.441-0.159,0.657-0.349    c0.555-0.485,1.002-1.383,1.106-2.588c0.028-0.289,0.23-0.545,0.524-0.627c0.381-0.105,0.773,0.118,0.878,0.497    c0.214,0.77,0.533,1.143,0.851,1.229l0.022,0.005c0.191,0.046,0.406-0.016,0.598-0.154c0.238-0.173,0.442-0.456,0.557-0.813    c0.25-0.779,0.059-1.879-1.048-2.989c-0.226-0.228-0.278-0.585-0.107-0.871c0.203-0.338,0.641-0.448,0.979-0.246    c1.021,0.61,1.794,0.631,2.268,0.351c0.16-0.094,0.286-0.222,0.375-0.369c0.093-0.153,0.148-0.331,0.162-0.519    c0.039-0.499-0.216-1.062-0.833-1.448c-0.306-0.151-0.468-0.507-0.367-0.845c0.112-0.378,0.511-0.595,0.89-0.482    c1.328,0.4,2.286,0.645,3.031,0.46c0.717-0.177,1.366-0.796,2.163-2.129c0.16-0.266,0.478-0.405,0.792-0.325    c0.383,0.099,0.611,0.489,0.513,0.871c-0.422,1.617-0.472,2.606-0.28,3.063c0.008,0.029-0.055,0.04-0.027,0.042    c0.089,0.005,0.245-0.071,0.452-0.224c0.936-0.683,2.161-2.467,3.149-5.083c0.139-0.365,0.545-0.554,0.912-0.419    c0.371,0.134,0.563,0.544,0.428,0.915l-0.006,0.015c-0.57,1.571-0.625,2.533-0.398,2.984c0.043,0.084,0.099,0.126,0.16,0.128    c0.168,0.006,0.395-0.092,0.651-0.284c0.907-0.68,1.853-2.311,2.028-4.71c0.025-0.355,0.31-0.644,0.673-0.663    c0.394-0.021,0.732,0.28,0.754,0.674c0.067,1.212,0.352,1.868,0.705,2.107l0.025,0.016c0.122,0.075,0.263,0.085,0.404,0.039    c0.203-0.066,0.413-0.232,0.599-0.475c0.553-0.723,0.824-2.018,0.262-3.559c-0.12-0.335,0.026-0.718,0.354-0.881    c0.352-0.176,0.779-0.033,0.955,0.318c0.002,0.005,0.734,1.543,1.774,0.577c1.139-1.058-0.067-2.67-0.292-2.951    c-0.217-0.223-0.271-0.57-0.108-0.854c0.197-0.343,0.634-0.461,0.977-0.266c0.006,0.003,2.116,1.233,2.56,0.332    c0.498-1.003-2.246-2.867-2.386-2.962c-0.311-0.204-0.414-0.617-0.23-0.947c0.193-0.343,0.629-0.467,0.973-0.273    c0.006,0.003,1.75,0.969,2.222-0.429c0.267-0.786-0.478-1.466-1.267-1.942c-0.943-0.185-1.745-0.835-1.749-0.839    c-0.308-0.245-0.357-0.693-0.112-1.001c0.193-0.242,0.514-0.325,0.792-0.228c0.004,0,0.667,0.225,1.438,0.656    c0.234,0.001,0.454-0.089,0.602-0.347c0.557-0.972-0.479-1.833-0.649-1.965c-0.284-0.186-0.402-0.554-0.264-0.877    c0.153-0.362,0.574-0.531,0.938-0.377c0.006,0.002,2.094,0.911,2.465-0.228c0.337-1.041-2.161-1.31-2.167-1.311    c-0.326-0.037-0.595-0.296-0.63-0.635c-0.041-0.393,0.243-0.745,0.634-0.786c0.008-0.001,2.836-0.268,2.461-1.574    c-0.397-1.386-4.172,0.121-4.183,0.125c-0.341,0.136-0.735-0.01-0.903-0.345c-0.176-0.353-0.033-0.78,0.319-0.956    c0.002-0.001,0.778-0.348,0.746-1.451c-0.02-0.701-3.004-0.509-3.89-0.437l-0.257,0.024c-0.393,0.033-0.738-0.261-0.771-0.655    c-0.031-0.393,0.261-0.739,0.655-0.771c0.01,0,4.044-0.328,3.998-1.06c-0.045-0.752-2.279-1.028-2.705-1.074l-0.056-0.004    c-0.395-0.027-0.69-0.37-0.663-0.764c0.027-0.394,0.369-0.69,0.764-0.663c0.008,0.001,3.373,0.285,3.233-1.248    c-0.121-1.327-1.898-1.118-2.464-1.018l-0.213,0.044c-0.387,0.068-0.758-0.189-0.827-0.576c-0.066-0.374,0.17-0.732,0.533-0.819    c0.002-0.001,0.081-0.02,0.217-0.044c0.642-0.139,2.82-0.711,2.351-2.034c-0.617-1.739-4.697-0.817-4.709-0.815    c-0.298,0.063-0.611-0.068-0.77-0.346c-0.195-0.344-0.075-0.779,0.268-0.975c0.008-0.003,2.477-1.35,1.842-2.923    c-0.61-1.508-5.434-0.133-5.791-0.029c-0.276,0.091-0.59,0.007-0.781-0.233c-0.247-0.31-0.195-0.76,0.114-1.005    c0.01-0.007,3.302-2.596,2.384-3.765c-0.932-1.19-4.271,1.288-4.28,1.295c-0.267,0.197-0.644,0.188-0.9-0.042    c-0.294-0.263-0.317-0.714-0.055-1.007c0.004-0.007,1.966-2.171,1.247-2.706c-0.667-0.496-2.761,0.476-4.026,1.146    c-0.588,0.44-1.118,0.617-1.12,0.618c-0.371,0.136-0.782-0.055-0.918-0.426c-0.127-0.343,0.027-0.72,0.343-0.881    c0.107-0.063,0.431-0.251,0.885-0.484c0.398-0.308,0.817-0.788,0.934-1.495c0.079-0.482-0.073-0.965-0.311-1.394    c-1.231-0.352-1.566-1.912-1.568-1.919c-0.087-0.385,0.155-0.767,0.538-0.854c0.228-0.051,0.45,0.012,0.616,0.147    c0.108,0.089,0.632,0.525,1.137,1.18c0.189-0.009,0.417-0.074,0.686-0.229c1.536-0.872,0.782-2.231,0.78-2.234    c-0.156-0.287-0.101-0.653,0.153-0.879c0.294-0.262,0.746-0.233,1.007,0.062c0.008,0.008,2.345,2.658,2.897,1.438    c0.716-1.585-0.823-2.296-0.827-2.298c-0.133-0.062-0.247-0.161-0.326-0.296c-0.195-0.342-0.076-0.778,0.265-0.975    c0.008-0.004,3.014-1.741,3.112-2.791c0.048-0.515-3.215-0.114-3.558-0.071c-0.231,0.039-0.479-0.034-0.647-0.22    c-0.269-0.29-0.249-0.743,0.041-1.011c0.006-0.004,1.84-1.666,0.602-2.531c-1.501-1.049-5.547,2.719-5.56,2.729    c-0.254,0.239-0.652,0.26-0.933,0.033c-0.309-0.246-0.355-0.696-0.108-1.003c0.004-0.007,1.88-2.269,0.37-2.787    c-1.862-0.638-3.94,2.098-4.211,2.467c-0.199,0.324-0.622,0.437-0.957,0.248c-0.346-0.192-0.468-0.629-0.274-0.973    c0.002-0.004,0.813-1.381,0.659-2.932c-0.046-0.47-0.784-0.901-1.645-1.23c-0.534,0.104-1.097,0.092-1.593,0.016l-0.004-0.001    c-0.613-0.094-1.172-0.298-1.474-0.502c-0.22-0.147-0.371-0.333-0.438-0.548c-0.118-0.387,0.006-0.682,0.348-0.883    c0.064-0.038,0.134-0.064,0.205-0.081c0.193-0.052,0.44-0.063,0.723-0.035l0.021,0.002c0.284,0.029,0.634,0.089,1.004,0.176    c0.39,0.091,0.815,0.213,1.244,0.368c0.205-0.08,0.381-0.2,0.497-0.374c0.659-0.983-0.553-2.368-0.557-2.372    c-0.197-0.225-0.241-0.558-0.083-0.83c0.195-0.342,0.632-0.459,0.973-0.264c0.007,0.004,2.064,1.246,2.758,0.471    c0.439-0.493-2.033-1.586-2.041-1.588c-0.238-0.106-0.41-0.341-0.424-0.621c-0.018-0.394,0.286-0.729,0.679-0.746    c0.01,0,3.568-0.168,3.868-1.237c0.185-0.665-3.342-0.665-3.352-0.665c-0.205-0.002-0.41-0.091-0.551-0.263    c-0.25-0.304-0.207-0.754,0.097-1.005c0.009-0.004,2.268-1.81,1.712-2.462c-0.647-0.758-4.107,1.491-4.117,1.498    c-0.213,0.137-0.491,0.157-0.73,0.027c-0.345-0.188-0.474-0.621-0.284-0.968c0-0.003,0.695-1.224-0.592-1.361    c-1.879-0.2-3.59,3.113-3.594,3.122c-0.154,0.291-0.493,0.445-0.823,0.354c-0.379-0.104-0.602-0.498-0.497-0.878    c0.002-0.007,0.799-2.756-0.636-2.859c-1.885-0.137-4.389,2.613-4.62,2.871c-0.242,0.298-0.681,0.352-0.986,0.116    c-0.315-0.238-0.375-0.688-0.135-1c1.431-1.872,1.985-3.099,1.954-3.815c-0.008-0.192-0.079-0.317-0.195-0.381    c-0.201-0.11-0.525-0.138-0.93-0.094l-0.02,0.002c-1.508,0.173-3.702,1.291-5.372,2.92c-0.207,0.234-0.553,0.312-0.847,0.168    c-0.355-0.174-0.503-0.602-0.332-0.957c0.688-1.404,0.898-2.531,0.758-3.327c-0.066-0.382-0.219-0.673-0.434-0.862    c-0.211-0.188-0.508-0.295-0.862-0.31c-0.713-0.03-1.637,0.284-2.673,0.996c-0.315,0.214-0.748,0.144-0.977-0.165    c-0.234-0.316-0.168-0.764,0.148-0.998l0.025-0.021c0.872-0.651,1.269-1.301,1.276-1.769c0-0.118-0.029-0.213-0.087-0.271    c-0.07-0.075-0.201-0.126-0.387-0.141c-0.803-0.065-2.148,0.49-3.915,2.123c-0.227,0.208-0.572,0.252-0.849,0.087    c-0.34-0.202-0.45-0.642-0.247-0.979c0.673-1.126,0.827-1.87,0.671-2.271c-0.041-0.103-0.12-0.17-0.223-0.198    c-0.178-0.051-0.418-0.029-0.692,0.066c-0.904,0.317-1.966,1.347-2.497,3.115c-0.097,0.325-0.416,0.546-0.766,0.506    c-0.393-0.045-0.675-0.399-0.63-0.792c0.16-1.374,0.052-2.604-0.236-3.224l-0.004-0.007c-0.326,0.373-0.721,1.229-1.164,2.736    c-0.091,0.376-0.466,0.612-0.847,0.53c-0.385-0.084-0.632-0.464-0.549-0.85c0.312-1.442,0.049-2.532-0.442-3.076    c-0.149-0.166-0.315-0.269-0.479-0.297l-0.018-0.002c-0.158-0.022-0.332,0.026-0.51,0.153c-0.633,0.457-1.199,1.691-1.352,3.971    c-0.025,0.356-0.312,0.646-0.677,0.665c-0.395,0.021-0.73-0.283-0.75-0.677c-0.104-2.011-0.391-3.2-0.789-3.777    c-0.152-0.218-0.311-0.299-0.468-0.275c-0.28,0.041-0.626,0.274-1.007,0.638c-1.137,1.086-2.349,3.154-3.205,5.125    c-0.073,0.26-0.188,0.536-0.348,0.83c-0.189,0.346-0.625,0.473-0.971,0.282c-0.325-0.179-0.458-0.573-0.313-0.909    c0.095-0.237,0.195-0.479,0.3-0.722c0.025-0.129,0.018-0.225-0.016-0.288c-0.014-0.025-0.063-0.043-0.135-0.05    c-0.186-0.018-0.43,0.039-0.706,0.18c-0.906,0.456-1.933,1.676-2.337,3.832c-0.014,0.103-0.031,0.209-0.054,0.317    c-0.08,0.386-0.457,0.634-0.844,0.554c-0.388-0.08-0.634-0.459-0.555-0.845l0.033-0.195c0.087-0.667-0.139-1.133-0.513-1.398    l-0.034-0.021c-0.438-0.292-1.058-0.374-1.663-0.245c-0.616,0.133-1.206,0.481-1.565,1.052c-0.568,0.899-0.596,2.369,0.605,4.472    c0.16,0.246,0.154,0.577-0.035,0.822c-0.24,0.313-0.688,0.37-1.001,0.13c-0.26-0.201-0.615-0.21-0.935-0.069    c-0.196,0.087-0.375,0.226-0.519,0.408c-0.15,0.191-0.263,0.435-0.314,0.722c-0.148,0.835,0.215,2.01,1.572,3.411    c0.251,0.257,0.274,0.664,0.044,0.948c-0.249,0.306-0.699,0.352-1.005,0.103c-0.63-0.512-1-0.669-1.2-0.553    c-0.294,0.17-0.542,0.758-0.805,1.636c-0.077,0.254-0.292,0.457-0.572,0.501c-0.389,0.061-0.756-0.204-0.817-0.593    c-0.067-0.426-0.155-0.675-0.253-0.785c-0.088,0.029-0.201,0.108-0.329,0.226c-0.543,0.492-1.075,1.438-1.315,2.337    c-0.089,0.331-0.404,0.562-0.758,0.528c-0.393-0.037-0.681-0.386-0.643-0.777c0.089-0.911,0.008-1.443-0.168-1.677    c-0.014-0.02-0.025-0.028-0.027-0.028c-0.063-0.004-0.156,0.03-0.271,0.102c-0.511,0.312-1.069,1.092-1.415,2.168    c-0.07,0.218-0.244,0.398-0.481,0.467c-0.379,0.109-0.775-0.108-0.884-0.486c-0.213-0.735-0.495-1.117-0.773-1.221    c-0.079-0.028-0.162-0.029-0.243-0.005l-0.02,0.007c-0.126,0.045-0.259,0.146-0.383,0.296c-0.462,0.552-0.734,1.601-0.491,2.952    c0.014,0.066,0.02,0.133,0.016,0.201c-0.023,0.395-0.361,0.695-0.756,0.672c-0.466-0.029-0.771,0.047-0.934,0.19    c-0.075,0.066-0.118,0.159-0.131,0.27c-0.019,0.165,0.017,0.363,0.107,0.577c0.195,0.466,0.615,0.964,1.241,1.384    c0.252,0.108,0.524,0.26,0.816,0.458c0.328,0.22,0.415,0.665,0.193,0.993c-0.203,0.303-0.6,0.399-0.917,0.236    c-0.233-0.108-0.452-0.227-0.657-0.354c-0.371-0.128-0.597-0.03-0.738,0.182c-0.276,0.409-0.46,1.125-0.636,1.81    c-0.13,0.514-0.258,1.013-0.441,1.448c-0.079,0.216-0.259,0.39-0.498,0.449c-0.383,0.096-0.771-0.138-0.868-0.521    c-0.199-0.796-0.377-1.172-0.551-1.181c-0.284-0.017-0.768,0.388-1.45,1.147c-0.209,0.23-0.555,0.307-0.849,0.161    c-0.354-0.174-0.497-0.603-0.324-0.956c0.438-0.886,0.601-1.506,0.559-1.903c-0.014-0.139-0.057-0.228-0.12-0.271    c-0.106-0.072-0.284-0.101-0.513-0.092c-0.682,0.025-1.604,0.383-2.518,0.95c-0.154,0.109-0.354,0.157-0.553,0.117    c-0.387-0.079-0.636-0.456-0.557-0.843c0.47-2.28,0.411-3.798,0.044-4.563c-0.093-0.193-0.191-0.307-0.29-0.338    c-0.097-0.032-0.235,0-0.411,0.095c-0.673,0.369-1.481,1.438-2.246,3.236c-0.091,0.208-0.276,0.371-0.517,0.419    c-0.387,0.077-0.762-0.173-0.839-0.56c-0.342-1.682-0.797-2.665-1.255-3.055c-0.103-0.086-0.182-0.122-0.237-0.112    c-0.089,0.016-0.199,0.109-0.323,0.274c-0.51,0.667-0.881,2.078-0.898,4.093c-0.004,0.222-0.108,0.438-0.302,0.576    c-0.321,0.228-0.766,0.15-0.992-0.17c-0.831-1.173-1.484-1.636-1.948-1.638c-0.156-0.001-0.296,0.075-0.414,0.201    c-0.168,0.185-0.297,0.465-0.377,0.804c-0.257,1.079-0.002,2.592,0.963,3.62c0.148,0.144,0.232,0.348,0.217,0.567    c-0.029,0.394-0.373,0.688-0.768,0.659c-0.982-0.074-1.715,0.448-2.076,1.132c-0.156,0.295-0.245,0.617-0.255,0.93    c-0.012,0.298,0.05,0.589,0.188,0.84c0.296,0.539,0.995,0.919,2.203,0.849c0.256-0.014,0.511,0.111,0.65,0.348    c0.204,0.337,0.093,0.776-0.246,0.979c-1.239,0.743-1.929,1.583-2.13,2.341c-0.091,0.335-0.079,0.648,0.028,0.915    c0.106,0.272,0.315,0.514,0.619,0.703c0.709,0.444,1.881,0.607,3.466,0.286c0.178-0.039,0.369-0.012,0.533,0.093    c0.333,0.209,0.434,0.651,0.225,0.984c-0.736,1.169-1.009,2.216-0.912,3.08c0.046,0.418,0.182,0.795,0.391,1.12    c0.216,0.329,0.512,0.615,0.877,0.845c0.852,0.536,2.074,0.773,3.532,0.618l0.033-0.005c0.392-0.045,0.748,0.235,0.794,0.627    c0.047,0.393-0.233,0.749-0.626,0.794c-0.396,0.049-0.728,0.169-1,0.344c-0.49,0.313-0.814,0.82-0.999,1.413    c-0.203,0.647-0.243,1.396-0.156,2.126c0.101,0.822,0.363,1.61,0.74,2.198c0.123,0.194,0.152,0.444,0.052,0.671    c-0.156,0.361-0.578,0.527-0.939,0.37c-1.885-0.821-3.182-0.929-3.934-0.621c-0.257,0.104-0.435,0.261-0.535,0.448    c-0.105,0.197-0.138,0.448-0.099,0.729c0.109,0.793,0.75,1.746,1.919,2.544c0.114,0.079,0.209,0.192,0.263,0.333    c0.142,0.367-0.04,0.781-0.409,0.923c-1.276,0.496-1.995,1.381-2.169,2.233c-0.065,0.308-0.053,0.611,0.029,0.882    c0.079,0.257,0.229,0.486,0.446,0.669c0.564,0.473,1.585,0.646,3.083,0.208c0.182-0.052,0.383-0.033,0.559,0.07    c0.339,0.199,0.454,0.637,0.255,0.976c-0.908,1.546-1.25,2.619-1.194,3.312c0.021,0.29,0.128,0.483,0.292,0.592    c0.219,0.143,0.555,0.201,0.967,0.184c1.21-0.051,2.866-0.727,4.356-1.761c0.294-0.235,0.725-0.204,0.979,0.079    c0.265,0.293,0.24,0.746-0.054,1.01c-0.847,0.762-1.269,1.429-1.355,1.964c-0.042,0.252,0.002,0.47,0.116,0.645    c0.13,0.198,0.357,0.364,0.659,0.483c0.76,0.303,1.912,0.312,3.278-0.082c0.191-0.06,0.406-0.038,0.588,0.077    c0.334,0.211,0.435,0.651,0.225,0.985c-0.671,1.068-0.856,1.899-0.696,2.437c0.058,0.193,0.17,0.343,0.323,0.439    c0.184,0.113,0.433,0.17,0.734,0.161h0.004c0.985-0.034,2.349-0.726,3.75-2.268c0.239-0.29,0.669-0.345,0.975-0.118    c0.316,0.234,0.383,0.682,0.148,0.998c-0.812,1.097-1.2,2.049-1.224,2.771c-0.012,0.334,0.058,0.604,0.201,0.796    c0.139,0.186,0.365,0.318,0.669,0.386c0.62,0.138,1.504,0.015,2.621-0.438c0.344-0.172,0.766-0.041,0.949,0.3    c0.188,0.347,0.06,0.781-0.288,0.97c-0.766,0.415-1.279,0.825-1.579,1.218c-0.244,0.319-0.335,0.62-0.302,0.896    c0.037,0.295,0.215,0.598,0.501,0.89c0.433,0.442,1.09,0.846,1.885,1.176c0.313,0.106,0.518,0.419,0.477,0.758    c-0.043,0.392-0.398,0.673-0.791,0.629c-0.858-0.1-1.364,0.084-1.585,0.418c-0.12,0.185-0.174,0.431-0.17,0.712    c0.006,0.326,0.095,0.696,0.255,1.078c0.495,1.186,1.644,2.381,3.149,2.763c0.17,0.025,0.346,0.059,0.523,0.101    c0.385,0.087,0.626,0.471,0.537,0.855c-0.085,0.374-0.45,0.612-0.825,0.544c-0.168-0.024-0.334-0.056-0.495-0.094    c-0.661-0.096-1.212-0.047-1.645,0.113c-0.367,0.136-0.643,0.354-0.814,0.626c-0.174,0.275-0.253,0.621-0.224,1.01    c0.042,0.555,0.298,1.188,0.796,1.831c0.232,0.299,0.195,0.73-0.095,0.981c-0.651,0.566-0.945,1.427-0.875,2.205    c0.03,0.337,0.131,0.654,0.303,0.918c0.157,0.244,0.383,0.442,0.673,0.563c0.649,0.27,1.634,0.18,2.981-0.544    c0.176-0.1,0.392-0.126,0.595-0.054c0.373,0.131,0.568,0.539,0.435,0.911c-0.41,1.161-0.489,1.967-0.335,2.475    c0.073,0.239,0.207,0.398,0.383,0.48c0.227,0.105,0.538,0.123,0.907,0.064c1.007-0.16,2.278-0.863,3.436-1.951    c0.213-0.222,0.555-0.285,0.841-0.136c0.349,0.182,0.485,0.613,0.302,0.961c-0.489,0.939-0.624,1.707-0.487,2.254    c0.064,0.265,0.197,0.472,0.381,0.61c0.201,0.148,0.474,0.234,0.805,0.243c0.794,0.022,1.848-0.373,3.01-1.3    c0.191-0.148,0.452-0.199,0.695-0.108c0.369,0.137,0.557,0.548,0.42,0.917c-0.762,2.045-0.762,3.518-0.331,4.349    c0.14,0.273,0.327,0.46,0.542,0.558c0.218,0.1,0.481,0.116,0.771,0.048c0.861-0.207,1.879-1.097,2.766-2.772    c0.151-0.29,0.491-0.446,0.82-0.355c0.381,0.105,0.604,0.499,0.5,0.879c-0.269,0.97-0.18,1.661,0.128,2.064    c0.147,0.191,0.352,0.319,0.594,0.383c0.278,0.072,0.612,0.063,0.976-0.033c1.085-0.287,2.336-1.308,3.236-3.161    c0.104-0.245,0.344-0.42,0.628-0.432c0.393-0.015,0.726,0.292,0.742,0.686c0.027,0.673,0.462,1.127,1,1.329    c0.233,0.086,0.483,0.129,0.73,0.125C609.882,147.862,610.118,147.812,610.331,147.716z" id="path56"/>
		<path style="fill-rule:evenodd;clip-rule:evenodd;fill:#272828;" d="M638.97,55.54c-1.81-0.506-2.223,2.052-2.773,3.094    c-0.461,0.873-3.337-1.004-4.314-0.896c-1.362,0.15-1.383,1.601-1.12,2.733c-1.174-0.115-2.601-0.392-3.403,0.443    c-0.438,0.455-0.908,2.391-1.254,2.391c-2.117,0-2.589,2.222-0.945,3.25c0.494,0.31,0.943-0.364,0.593-0.768    c0.294-0.386,0.588-0.771,0.882-1.156c0.247,0.055,0.553-0.029,0.673-0.274c0.286-0.585,0.344-0.688,0.491-1.294    c0.425-1.742,2.223-1.623,3.671-1.3c0.52,0.117,0.854-0.304,0.788-0.786c-0.263-1.9,0.116-2.242,1.932-1.623    c0.675,0.23,1.573,0.725,2.3,0.647c0.613-0.066,1.143-0.646,1.363-1.189c0.444-1.101,0.273-2.082,2.011-1.824    c1.328,0.195,2.269,2.285,2.696,3.374c0.077,0.197,0.389,0.122,0.325-0.091C642.26,58.208,641.178,56.156,638.97,55.54z" id="path57"/>
		<path style="fill-rule:evenodd;clip-rule:evenodd;fill:#272828;" d="M574.436,90.347c0.144,0,0.144-0.226,0-0.226    C574.29,90.122,574.29,90.347,574.436,90.347z" id="path58"/>
		<path style="fill-rule:evenodd;clip-rule:evenodd;fill:#272828;" d="M595.935,86.187c-0.168-0.138-0.482-0.014-0.396,0.232    c0.076,0.23,0.799,1.968,0.063,1.951c-1.282-0.026-2.635-0.233-3.884-0.459c-0.162-0.029-0.375,0.012-0.45,0.183    c-0.672,1.547-1.847,2.565-3.046,2.539c-0.063-0.031-0.136-0.05-0.221-0.05c-0.036,0-0.063,0.013-0.095,0.019    c-0.72-0.129-1.434-0.646-2.038-1.682c-0.182-0.311-0.64-0.232-0.742,0.098c-0.408,1.295-1.222,2.769-2.739,2.901    c-1.46,0.128-2.471-2.063-3.039-3.073c-0.129-0.228-0.383-0.302-0.626-0.254c-0.089,0.012-0.176,0.034-0.259,0.067    c-0.211,0.07-0.347,0.242-0.354,0.466c-0.176,4.787-4.227,0.676-4.261-1.939c-0.002-0.264-0.435-0.342-0.476-0.064    c-0.313,2.056,0.234,3.806,1.953,5.047c1.167,0.842,2.948,0.397,3.352-1.057c0.06-0.216,0.21-0.535,0.256-0.826    c0.266,0.526,0.596,1.191,0.651,1.267c0.647,0.881,1.556,1.477,2.633,1.626c1.829,0.252,2.773-1.381,3.342-2.903    c0.722,1.321,2.013,2.273,3.65,1.58c1.044-0.44,1.674-1.146,2.246-2.104c0.592-0.992,0.711-0.986,2.043-0.745    c1.028,0.187,2.057,0.257,3.101,0.299c0.267,0.011,0.432-0.218,0.456-0.457C597.172,87.64,596.868,86.96,595.935,86.187z" id="path59"/>
		<path style="fill-rule:evenodd;clip-rule:evenodd;fill:#272828;" d="M648.877,79.985c-0.04-0.505-0.827-0.686-0.936-0.127    c-0.45,2.314-1.616,0.563-3.142,0.72c-0.151,0.015-0.27,0.083-0.356,0.175c-0.434,0.226-0.997,0.428-1.491,0.487    c-0.063-0.017-0.131-0.025-0.208-0.013c-1.981,0.291-3.228,1.729-4.734-0.93c-0.222-0.391-0.734-0.254-0.877,0.115    c-1.119,2.895-3.868,1.834-3.787-0.704c0.006-0.24-0.335-0.226-0.365,0c-0.442,3.482,2.861,4.12,4.572,1.822    c0.457,0.856,1.124,1.801,2.099,1.801c1.229-0.001,2.094-0.807,3.196-1.213c0.671-0.062,1.472-0.249,2.09-0.489    c1.011,0.119,1.941,1.034,2.991,0.746C648.944,82.095,648.939,80.79,648.877,79.985z" id="path60"/>
		<path style="fill-rule:evenodd;clip-rule:evenodd;fill:#272828;" d="M605.735,61.979c-0.034-0.352-0.512-0.352-0.545,0    c-0.041,0.417-0.101,0.858-0.161,1.296c-1.089-0.249-2.169-0.211-3.293-0.463c-0.23-0.052-0.541,0.023-0.647,0.262    c-0.789,1.783-2.488,1.249-3.548,0.176c-0.257-0.26-0.677-0.186-0.866,0.112c-1.086,1.715-2.596,1.268-3.689,0.012    c-0.268-0.306-0.696,0.027-0.629,0.366c0.607,3.061,3.253,2.458,4.817,0.744c0.886,0.912,1.866,1.493,3.238,1.249    c0.411-0.073,0.941-0.532,1.141-0.879c0.792-1.382,2.384-0.932,3.771-0.434c0.292,0.104,0.699-0.176,0.655-0.502    C605.898,63.285,605.796,62.602,605.735,61.979z" id="path61"/>
		<path style="fill-rule:evenodd;clip-rule:evenodd;fill:#272828;" d="M666.384,107.062c-0.112-0.315-0.598-0.192-0.509,0.142    c0.047,0.631,0.093,1.262,0.14,1.894c-0.337,1.771-1.606,2.031-3.805,0.783c-0.304-0.42-1.18-0.349-1.106,0.301    c0.47,4.136-3.302,3.56-4.971,0.797c-0.271-0.448-0.987-0.377-1.123,0.148c-1.009,3.862-3.268,0.129-5.38-0.129    c-2.234-0.273-4.032,3.942-5.732,0.562c-0.286-0.57-1.229-0.171-1.028,0.434c1.344,4.03,3.582,1.857,6.014,0.312    c1.303-0.829,3.462,2.178,4.941,2.013c1.123-0.124,1.662-0.827,2.012-1.723c2.3,2.475,6.092,2.514,6.46-1.017    C664.883,113.364,667.609,110.48,666.384,107.062z" id="path62"/>
		<path style="fill-rule:evenodd;clip-rule:evenodd;fill:#272828;" d="M626.761,106.789c-0.12-0.297-0.578-0.191-0.491,0.136    c1.013,3.827-2.72,2.981-4.415,1.269c-0.258-0.26-0.655-0.114-0.768,0.203c-1.054,2.91-3.895,2.751-4.314-0.432    c-0.059-0.438-0.507-0.671-0.864-0.359c-1.427,1.247-3.848,2.124-4.103-1.026c-0.033-0.427-0.412-0.616-0.791-0.454    c-0.861,0.368-1.793,0.411-2.685,0.65c-0.186-0.928-0.021-1.594,0.215-2.603c0.087-0.376-0.381-0.54-0.594-0.25    c-0.87,1.18-0.896,2.255-0.482,3.622c0.071,0.236,0.361,0.458,0.619,0.352c0.892-0.37,1.84-0.392,2.755-0.634    c0.526,2.665,2.975,3.014,5.092,1.59c0.417,1.508,1.342,2.353,2.364,2.551c0.075,0.055,0.164,0.097,0.283,0.097    c0.088,0,0.161-0.021,0.225-0.053c1.079-0.019,2.192-0.733,2.896-2.169C624.247,111.252,628.495,111.023,626.761,106.789z" id="path63"/>
		<path style="fill-rule:evenodd;clip-rule:evenodd;fill:#272828;" d="M607.551,131.146c-0.083-0.168-0.31-0.069-0.322,0.089    c-0.112,1.41-0.364,2.696-2.127,2.266c-1.232-0.303-2.088-1.404-2.602-2.48c-0.167-0.349-0.663-0.217-0.768,0.101    c-1.31,4.023-3.783,0.672-5.974-0.348c-0.389-0.18-0.748-0.018-1.107,0.137c-0.23,0.1-0.588,0.429-0.775,0.577    c-1.989,1.588-2.87-1.913-2.611-3.244c0.056-0.275-0.319-0.376-0.416-0.114c-0.713,1.921-0.979,3.769,0.845,5.117    c1.168,0.865,2.688-0.832,3.501-1.407c0.561-0.396,3.775,2.36,4.693,2.578c1.341,0.318,2.033-0.822,2.391-1.957    c0.842,1.347,2.241,2.293,3.92,2.204C608.109,134.562,608.188,132.46,607.551,131.146z" id="path64"/>
		<path style="fill-rule:evenodd;clip-rule:evenodd;fill:#272828;" d="M607.398,131.31c0.541,1.479,2.219,2.324,3.74,2.042    c1.593-0.293,2.171-2.774,0.797-3.679c-0.106-0.071-0.271-0.003-0.298,0.121c-0.217,1.001,0.608,2.4-0.862,2.691    c-1.119,0.222-2.223-0.683-2.892-1.458C607.696,130.813,607.3,131.04,607.398,131.31z" id="path65"/>
		<path style="fill-rule:evenodd;clip-rule:evenodd;fill:#272828;" d="M616.39,160.439c-0.268,1.003-0.497,2.263-1.294,2.992    c-0.489,0.447-1.056,0.197-1.633,0.355c-0.451,0.124-0.607,0.819-0.136,1.046c1.098,0.525,2.388,0.037,2.998-0.977    c0.588-0.979,0.543-2.248,0.566-3.349C616.897,160.217,616.463,160.162,616.39,160.439z" id="path66"/>
		<path style="fill-rule:evenodd;clip-rule:evenodd;fill:#272828;" d="M609.1,154.596c0.108,0.971,0.131,1.949,0.162,2.924    c0.037,1.123-0.323,2.264-0.213,3.356c0.021,0.196,0.256,0.271,0.373,0.101c1.118-1.661,0.102-4.598-0.212-6.396    C609.198,154.52,609.092,154.535,609.1,154.596z" id="path67"/>
		<path style="fill-rule:evenodd;clip-rule:evenodd;fill:#272828;" d="M610.278,157.183c0.053,0.502,0.063,1.001,0.043,1.506    c-0.023,0.572-0.168,1.155-0.095,1.726c0.014,0.113,0.178,0.194,0.241,0.066c0.474-0.956,0.195-2.324-0.036-3.318    C610.412,157.079,610.271,157.094,610.278,157.183z" id="path68"/>
		<path style="fill-rule:evenodd;clip-rule:evenodd;fill:#272828;" d="M623.704,173.674c-0.336,2.017-0.511,4.854,1.384,6.222    c0.493,0.358,1.188-0.346,0.841-0.841c-1.088-1.544-1.786-3.439-1.952-5.344C623.965,173.566,623.731,173.51,623.704,173.674z" id="path69"/>
		<path style="fill-rule:evenodd;clip-rule:evenodd;fill:#272828;" d="M624.738,174.728c0.035,0.691,0.29,1.354,0.598,1.967    c0.282,0.559,0.703,1.318,1.285,1.618c0.35,0.179,0.742-0.273,0.435-0.562c-0.835-0.782-1.66-1.942-1.909-3.079    C625.096,174.444,624.727,174.494,624.738,174.728z" id="path70"/>
		<path style="fill-rule:evenodd;clip-rule:evenodd;fill:#272828;" d="M622.896,186.547c-0.045,4.329,0.468,8.47,1.214,12.729    c0.458,2.623,1.299,5.161,1.627,7.807c0.25,2.031,0.033,4.01,0.83,5.936c0.093,0.228,0.468,0.224,0.458-0.062    c-0.259-8.926-3.789-17.445-4.093-26.409C622.931,186.525,622.896,186.525,622.896,186.547z" id="path71"/>
		<path style="fill-rule:evenodd;clip-rule:evenodd;fill:#272828;" d="M627.118,215.819c-0.097,0.819-0.11,1.775,0.354,2.49    c0.091,0.142,0.338,0.095,0.329-0.089c-0.033-0.817-0.282-1.569-0.225-2.401C627.596,215.519,627.151,215.532,627.118,215.819z" id="path72"/>
		<path style="fill-rule:evenodd;clip-rule:evenodd;fill:#272828;" d="M620.234,155.705c-0.238,3.965-0.174,8.022,0.359,11.966    c0.033,0.247,0.377,0.152,0.4-0.054c0.458-3.944-0.42-7.955-0.387-11.912C620.609,155.463,620.25,155.466,620.234,155.705z" id="path73"/>
		<path style="fill-rule:evenodd;clip-rule:evenodd;fill:#272828;" d="M600.526,115.181c-1.203,1.887-2.879,1.1-4.539,0.442    c-0.213-0.085-0.428,0.061-0.547,0.223c-0.888,1.21-1.56,1.9-3.021,1.354c-0.607-0.227-1.249-0.318-1.847-0.53    c-0.103-0.034-0.249,0.021-0.294,0.121c-0.462,0.993-1.68,2.047-2.669,1.104c-0.347-0.33-0.621-0.402-1.063-0.527    c-0.943-0.265-3.041,1.569-3.631,0.68c-0.292-0.44-0.922-0.255-0.961,0.26c-0.182,2.42,2.693,0.995,3.714,0.319    c1.284-0.852,1.908,0.875,3.116,1.093c0.801,0.145,1.727-0.741,1.871-1.472c0.317-1.619,1.468,0.24,2.527,0.426    c0.906,0.158,2.112,0.086,2.526-0.97c0.657-1.685,2.12,0.06,3.257-0.217c1.263-0.308,1.437-1.05,1.845-2.186    C600.874,115.128,600.617,115.038,600.526,115.181z" id="path74"/>
		<path style="fill-rule:evenodd;clip-rule:evenodd;fill:#272828;" d="M655.879,82.57c-0.421,0.47-0.837,0.942-1.269,1.401    c-0.825,0.88-2.014-0.117-2.851-0.411c-1.01-0.353-1.825,0.258-2.521,0.943c-1.228,1.209-1.807-0.204-2.777-0.137    c-1.196,0.085-2.005,1.011-3.199,0.207c-0.147-0.099-0.391,0.029-0.371,0.213c0.108,1.055,1.038,1.856,2.108,1.238    c1.158-0.671,0.965-0.405,1.721,0.351c0.4,0.401,1.176,0.863,1.786,0.666c0.837-0.271,1.284-0.755,1.825-1.443    c1.066-1.36,1.599-0.673,2.888-0.227c1.819,0.632,2.528-0.922,3.278-2.324C656.702,82.664,656.186,82.224,655.879,82.57z" id="path75"/>
	</g></svg>