<svg version="1.1" id="svg1" width="5078.9116" height="5263.5273" viewBox="-1492.02269444749 -124.95265589913292 783.1917180308095 816.5975715707182" sodipodi:docname="trees2.svg" inkscape:version="1.4.2 (f4327f4, 2025-05-13)" xmlns:inkscape="http://www.inkscape.org/namespaces/inkscape" xmlns:sodipodi="http://sodipodi.sourceforge.net/DTD/sodipodi-0.dtd" xmlns="http://www.w3.org/2000/svg" xmlns:svg="http://www.w3.org/2000/svg"><defs id="defs1">
    <inkscape:path-effect effect="fill_between_many" method="originald" linkedpaths="#path1,0,1|" id="path-effect50" xmlns:inkscape="http://www.inkscape.org/namespaces/inkscape"/>
    <inkscape:path-effect effect="fill_between_many" method="originald" linkedpaths="#path1,0,1|#path51,0,1|#path2,0,1|#path3,0,1|#path4,0,1|#path5,0,1|#path6,0,1|#path7,0,1|#path8,0,1|#path9,0,1|#path10,0,1|#path11,0,1|#path12,0,1|#path13,0,1|#path14,0,1|#path15,0,1|#path16,0,1|#path17,0,1|#path18,0,1|#path19,0,1|#path20,0,1|#path21,0,1|#path22,0,1|#path23,0,1|#path24,0,1|#path25,0,1|" id="path-effect51" xmlns:inkscape="http://www.inkscape.org/namespaces/inkscape"/>
    <inkscape:path-effect effect="fill_between_many" method="originald" linkedpaths="#path2,0,1|" id="path-effect52" xmlns:inkscape="http://www.inkscape.org/namespaces/inkscape"/>
    <inkscape:path-effect effect="fill_between_many" method="originald" linkedpaths="#path4,0,1|" id="path-effect53" xmlns:inkscape="http://www.inkscape.org/namespaces/inkscape"/>
    <inkscape:path-effect effect="fill_between_many" method="originald" linkedpaths="#path5,0,1|" id="path-effect54" xmlns:inkscape="http://www.inkscape.org/namespaces/inkscape"/>
    <inkscape:path-effect effect="fill_between_many" method="originald" linkedpaths="#path6,0,1|" id="path-effect55" xmlns:inkscape="http://www.inkscape.org/namespaces/inkscape"/>
    <inkscape:path-effect effect="fill_between_many" method="originald" linkedpaths="#path7,0,1|" id="path-effect56" xmlns:inkscape="http://www.inkscape.org/namespaces/inkscape"/>
    <inkscape:path-effect effect="fill_between_many" method="originald" linkedpaths="#path8,0,1|" id="path-effect57" xmlns:inkscape="http://www.inkscape.org/namespaces/inkscape"/>
    <inkscape:path-effect effect="fill_between_many" method="originald" linkedpaths="#path9,0,1|" id="path-effect58" xmlns:inkscape="http://www.inkscape.org/namespaces/inkscape"/>
    <inkscape:path-effect effect="fill_between_many" method="originald" linkedpaths="#path10,0,1|" id="path-effect59" xmlns:inkscape="http://www.inkscape.org/namespaces/inkscape"/>
    <inkscape:path-effect effect="fill_between_many" method="originald" linkedpaths="#path11,0,1|" id="path-effect60" xmlns:inkscape="http://www.inkscape.org/namespaces/inkscape"/>
    <inkscape:path-effect effect="fill_between_many" method="originald" linkedpaths="#path12,0,1|" id="path-effect61" xmlns:inkscape="http://www.inkscape.org/namespaces/inkscape"/>
    <inkscape:path-effect effect="fill_between_many" method="originald" linkedpaths="#path13,0,1|" id="path-effect62" xmlns:inkscape="http://www.inkscape.org/namespaces/inkscape"/>
    <inkscape:path-effect effect="fill_between_many" method="originald" linkedpaths="#path14,0,1|" id="path-effect63" xmlns:inkscape="http://www.inkscape.org/namespaces/inkscape"/>
    <inkscape:path-effect effect="fill_between_many" method="originald" linkedpaths="#path15,0,1|" id="path-effect64" xmlns:inkscape="http://www.inkscape.org/namespaces/inkscape"/>
    <inkscape:path-effect effect="fill_between_many" method="originald" linkedpaths="#path16,0,1|" id="path-effect65" xmlns:inkscape="http://www.inkscape.org/namespaces/inkscape"/>
    <inkscape:path-effect effect="fill_between_many" method="originald" linkedpaths="#path17,0,1|" id="path-effect66" xmlns:inkscape="http://www.inkscape.org/namespaces/inkscape"/>
    <inkscape:path-effect effect="fill_between_many" method="originald" linkedpaths="#path18,0,1|" id="path-effect67" xmlns:inkscape="http://www.inkscape.org/namespaces/inkscape"/>
    <inkscape:path-effect effect="fill_between_many" method="originald" linkedpaths="#path19,0,1|" id="path-effect68" xmlns:inkscape="http://www.inkscape.org/namespaces/inkscape"/>
    <inkscape:path-effect effect="fill_between_many" method="originald" linkedpaths="#path20,0,1|" id="path-effect69" xmlns:inkscape="http://www.inkscape.org/namespaces/inkscape"/>
    <inkscape:path-effect effect="fill_between_many" method="originald" linkedpaths="#path21,0,1|" id="path-effect70" xmlns:inkscape="http://www.inkscape.org/namespaces/inkscape"/>
    <inkscape:path-effect effect="fill_between_many" method="originald" linkedpaths="#path22,0,1|" id="path-effect71" xmlns:inkscape="http://www.inkscape.org/namespaces/inkscape"/>
    <inkscape:path-effect effect="fill_between_many" method="originald" linkedpaths="#path23,0,1|" id="path-effect72" xmlns:inkscape="http://www.inkscape.org/namespaces/inkscape"/>
    <inkscape:path-effect effect="fill_between_many" method="originald" linkedpaths="#path24,0,1|" id="path-effect73" xmlns:inkscape="http://www.inkscape.org/namespaces/inkscape"/>
    <inkscape:path-effect effect="fill_between_many" method="originald" linkedpaths="#path25,0,1|" id="path-effect74" xmlns:inkscape="http://www.inkscape.org/namespaces/inkscape"/>
  </defs><g><path xmlns:inkscape="http://www.inkscape.org/namespaces/inkscape" inkscape:original-d="M 0,0" inkscape:path-effect="#path-effect56" d="m -1182.0326,688.78697 c -2.0038,-2.4144 -0.8047,-5.3881 5.5065,-13.6563 10.7659,-14.104 13.978,-20.6474 22.6551,-46.1501 12.3062,-36.1694 13.6609,-52.9552 8.6618,-107.3199 -1.8928,-20.5849 -2.3684,-21.3549 -17.9726,-29.1013 -14.2499,-7.0742 -20.4022,-15.0876 -24.9957,-32.5577 -4.4441,-16.9025 -17.564,-42.1822 -25.8237,-49.7575 -3.7183,-3.4106 -8.9825,-4.9411 -19.4454,-5.6536 -12.4785,-0.8498 -15.1269,-1.8505 -20.339,-7.6836 l -5.9924,-6.7067 -9.93,4.254 c -12.5174,5.3623 -28.7925,3.7435 -40.6606,-4.0449 -4.5702,-2.999 -12.6419,-6.4262 -17.9372,-7.6159 -10.2796,-2.3096 -16.6419,-8.2815 -18.9702,-17.8062 -1.704,-6.9713 -4.4793,-9.1648 -11.6546,-9.2112 -7.5489,-0.049 -26.1661,-10.7118 -29.465,-16.8759 -2.3329,-4.359 -4.0377,-5.0045 -10.4648,-3.9615 -11.1116,1.8032 -30.727,-8.4374 -34.5519,-18.038 -1.5608,-3.9178 -4.6796,-9.8011 -6.9305,-13.0745 -2.2511,-3.2733 -4.0928,-9.4562 -4.0928,-13.7396 0,-11.9143 -5.8437,-24.0307 -11.5899,-24.0307 -2.6417,0 -8.1773,-2.5737 -12.3015,-5.7195 -6.1863,-4.7186 -7.4987,-7.2118 -7.4987,-14.2466 0,-5.9878 -1.6692,-10.3282 -5.6053,-14.5753 -3.083,-3.3266 -5.7812,-7.7621 -5.9957,-9.8567 -0.2153,-2.0944 -0.7422,-6.8349 -1.1725,-10.5345 -3.2822,-28.2288 -3.2547,-32.79 0.2301,-38.1084 1.9661,-3.0007 3.5749,-8.369 3.5749,-11.9296 0,-3.5605 2.4966,-9.902 5.5479,-14.0923 3.0516,-4.1901 6.6081,-10.0204 7.9034,-12.9563 1.2955,-2.9356 4.4809,-8.3226 7.0789,-11.971 4.202,-5.9013 4.4327,-7.604 2.089,-15.426 -3.3184,-11.076199 -1.1998,-22.804399 5.3139,-29.415599 7.7354,-7.8513 9.7002,-13.0677 9.6822,-25.7049 0,-7.7764 1.4038,-13.7121 4.2754,-17.9372 2.3605,-3.4733 5.5524,-9.2437 7.0932,-12.8232 1.5408,-3.5796 6.6897,-10.6424 11.4424,-15.6951003 4.7524,-5.05269999 13.1472,-13.9792996 18.6551,-19.8368997 8.8381,-9.3991 11.1116,-10.6502 19.3569,-10.6502 5.1383,0 11.8219,-1.6247 14.8526,-3.6103 9.7715,-6.4025 38.4172,2.0787 50.0544,14.8197 6.2132,6.8023997 6.8152,6.9913997 11.8466,3.7181 2.9155,-1.8968 10.4657,-4.1258 16.7782,-4.9536 11.467,-1.5035 11.4771,-1.5123 11.3249,-9.6632 -0.1973,-10.6037 6.2226,-23.6876 13.1802,-26.8575 3.0236,-1.3778 5.4973,-3.6352 5.4973,-5.0168 0,-1.3814 1.6523,-5.9937 3.6718,-10.2496 3.5791,-7.5425 16.7407,-16.4824 24.2656,-16.4824 1.8989,0 3.4527,-0.8942 3.4527,-1.9868 0,-1.0926 3.7049,-3.7448 8.2331,-5.8935 6.3368,-3.0071 11.4978,-3.6022 22.4054,-2.5836 12.7721,1.1928 14.6842,0.8114 19.3537,-3.858099 3.8124,-3.812302 9.6368,-5.844102 22.0415,-7.689202 17.3719,-2.5836 22.7519,-4.6376 34.8459,-13.3026 8.8849,-6.3659 21.386,-6.555 37.1541,-0.5617 6.4875,2.4657 14.6477,4.4836 18.1338,4.4843 4.052,7e-4 8.7646,2.4273 13.0648,6.7276 3.6995,3.6995 7.706,6.7264 8.9031,6.7264 1.1973,0 4.5819,2.594802 7.5213,5.766601 4.4043,4.7522 6.1343,5.3439 9.8352,3.3632 6.8338,-3.6574 16.2793,-2.8881 25.5506,2.0809 4.60157,2.4664 9.96137,4.4843 11.91047,4.4843 1.9491,0 6.5706,3.0269 10.2702,6.7265 3.6995,3.6995 8.6011,6.7264 10.8923,6.7264 2.2913,0 6.7487,0.9818 9.9054,2.1821 3.7917,1.4417 11.26,1.3569 22.0069,-0.2496 23.217,-3.4708 28.0748,-3.1634 35.3799,2.2372 4.6388,3.4296 9.757,4.7989 17.9394,4.7989 14.9406,0 19.6168,2.7704 24.9229,14.7657 3.7928,8.5742 5.2908,9.8979 11.1999,9.8979 5.1287,0 9.2345,2.4827 16.5455,10.0054 5.3484,5.5029 12.0688,10.4845 14.9345,11.0699 2.8659,0.5857 8.072,1.6735 11.5696,2.4177 8.0623,1.7153 17.1836,10.7234997 17.1836,16.9705997 0,2.6361 2.0179,7.3585 4.4843,10.4939003 5.1612,6.5614 6.0883,23.884 1.8984,35.4715 -2.5087,6.9376 -2.2135,7.5237 9.891,19.6279 6.8621,6.8624 13.2154,14.8146 14.1181,17.6717 0.9029,2.8572 3.5332,6.5263 5.8455,8.1536 2.3121,1.6271 6.8518,8.184099 10.0883,14.570799 7.5485,14.8966 7.9666,31.3468 1.0796,42.4901 -5.9908,9.6932 -6.0786,16.1284 -0.3201,23.449 2.7645,3.5148 4.4843,9.096 4.4843,14.5542 0,6.7002 2.7262,13.2834 11.2107,27.0702 9.6554,15.6894 11.2107,19.8239 11.2107,29.7999 0,6.3708 1.5135,15.8728 3.3633,21.1156 6.6993,18.9881 4.3627,27.461 -10.9996,39.8865 -1.9659,1.5901 -3.5744,5.9778 -3.5744,9.7506 0,4.7825 -2.1085,8.8292 -6.9637,13.3644 -3.8298,3.5777 -7.9141,6.5051 -9.076,6.5051 -1.1621,0 -4.336,2.5847 -7.0535,5.7439 -7.0803,8.2314 -21.1926,9.8047 -31.3941,3.4998 -9.6247,-5.9482 -15.4206,-6.0256 -20.6246,-0.2751 -2.2321,2.4663 -5.2551,4.4843 -6.7178,4.4843 -1.4626,0 -5.339,4.7926 -8.6144,10.6502 -8.793,15.7257 -10.4569,17.3528 -23.923,23.3916 -22.4809,10.0814 -26.1085,11.0643 -38.2638,10.3697 -9.6639,-0.5524 -13.0437,0.2198 -16.9814,3.8852 -2.7038,2.5162 -9.9468,5.8641 -16.0954,7.4401 -10.159,2.6036 -12.2729,2.4227 -23.1616,-1.9816 -6.5904,-2.6657 -14.0933,-5.6672 -16.6731,-6.6701 -2.58,-1.0029 -6.1114,-0.9086 -7.8475,0.2107 -7.1971,4.6359 -20.3867,6.8108 -27.1033,4.4695 -7.9904,-2.7854 -17.69497,1.422 -33.38397,14.4731 -13.1096,10.9056 -17.93,18.8609 -22.4504,37.0515 -4.0303,16.2181 -4.0179,55.498 0.025,77.2036 1.1482,6.1659 2.1674,20.2914 2.2647,31.3901 0.1929,22.0927 2.0012,29.5671 10.985,45.4382 3.283,5.7995 10.6711,21.1549 16.4183,34.1226 6.7821,15.3031 14.06097,27.6288 20.73987,35.12 13.3038,14.9218 13.2498,17.2662 -0.3599,15.6085 -52.80357,-6.4309 -141.04827,-6.5636 -180.29707,-0.271 -3.4038,0.5455 -7.0717,-0.3698 -8.532,-2.1294 z" id="path57"/><path style="fill:#1a1a1a;stroke-width:2.24215" d="m -1182.0326,688.78697 c -2.0038,-2.4144 -0.8047,-5.3881 5.5065,-13.6563 10.7659,-14.104 13.978,-20.6474 22.6551,-46.1501 12.3062,-36.1694 13.6609,-52.9552 8.6618,-107.3199 -1.8928,-20.5849 -2.3684,-21.3549 -17.9726,-29.1013 -14.2499,-7.0742 -20.4022,-15.0876 -24.9957,-32.5577 -4.4441,-16.9025 -17.564,-42.1822 -25.8237,-49.7575 -3.7183,-3.4106 -8.9825,-4.9411 -19.4454,-5.6536 -12.4785,-0.8498 -15.1269,-1.8505 -20.339,-7.6836 l -5.9924,-6.7067 -9.93,4.254 c -12.5174,5.3623 -28.7925,3.7435 -40.6606,-4.0449 -4.5702,-2.999 -12.6419,-6.4262 -17.9372,-7.6159 -10.2796,-2.3096 -16.6419,-8.2815 -18.9702,-17.8062 -1.704,-6.9713 -4.4793,-9.1648 -11.6546,-9.2112 -7.5489,-0.049 -26.1661,-10.7118 -29.465,-16.8759 -2.3329,-4.359 -4.0377,-5.0045 -10.4648,-3.9615 -11.1116,1.8032 -30.727,-8.4374 -34.5519,-18.038 -1.5608,-3.9178 -4.6796,-9.8011 -6.9305,-13.0745 -2.2511,-3.2733 -4.0928,-9.4562 -4.0928,-13.7396 0,-11.9143 -5.8437,-24.0307 -11.5899,-24.0307 -2.6417,0 -8.1773,-2.5737 -12.3015,-5.7195 -6.1863,-4.7186 -7.4987,-7.2118 -7.4987,-14.2466 0,-5.9878 -1.6692,-10.3282 -5.6053,-14.5753 -3.083,-3.3266 -5.7812,-7.7621 -5.9957,-9.8567 -0.2153,-2.0944 -0.7422,-6.8349 -1.1725,-10.5345 -3.2822,-28.2288 -3.2547,-32.79 0.2301,-38.1084 1.9661,-3.0007 3.5749,-8.369 3.5749,-11.9296 0,-3.5605 2.4966,-9.902 5.5479,-14.0923 3.0516,-4.1901 6.6081,-10.0204 7.9034,-12.9563 1.2955,-2.9356 4.4809,-8.3226 7.0789,-11.971 4.202,-5.9013 4.4327,-7.604 2.089,-15.426 -3.3184,-11.076199 -1.1998,-22.804399 5.3139,-29.415599 7.7354,-7.8513 9.7002,-13.0677 9.6822,-25.7049 0,-7.7764 1.4038,-13.7121 4.2754,-17.9372 2.3605,-3.4733 5.5524,-9.2437 7.0932,-12.8232 1.5408,-3.5796 6.6897,-10.6424 11.4424,-15.6951003 4.7524,-5.05269999 13.1472,-13.9792996 18.6551,-19.8368997 8.8381,-9.3991 11.1116,-10.6502 19.3569,-10.6502 5.1383,0 11.8219,-1.6247 14.8526,-3.6103 9.7715,-6.4025 38.4172,2.0787 50.0544,14.8197 6.2132,6.8023997 6.8152,6.9913997 11.8466,3.7181 2.9155,-1.8968 10.4657,-4.1258 16.7782,-4.9536 11.467,-1.5035 11.4771,-1.5123 11.3249,-9.6632 -0.1973,-10.6037 6.2226,-23.6876 13.1802,-26.8575 3.0236,-1.3778 5.4973,-3.6352 5.4973,-5.0168 0,-1.3814 1.6523,-5.9937 3.6718,-10.2496 3.5791,-7.5425 16.7407,-16.4824 24.2656,-16.4824 1.8989,0 3.4527,-0.8942 3.4527,-1.9868 0,-1.0926 3.7049,-3.7448 8.2331,-5.8935 6.3368,-3.0071 11.4978,-3.6022 22.4054,-2.5836 12.7721,1.1928 14.6842,0.8114 19.3537,-3.858099 3.8124,-3.812302 9.6368,-5.844102 22.0415,-7.689202 17.3719,-2.5836 22.7519,-4.6376 34.8459,-13.3026 8.8849,-6.3659 21.386,-6.555 37.1541,-0.5617 6.4875,2.4657 14.6477,4.4836 18.1338,4.4843 4.052,7e-4 8.7646,2.4273 13.0648,6.7276 3.6995,3.6995 7.706,6.7264 8.9031,6.7264 1.1973,0 4.5819,2.594802 7.5213,5.766601 4.4043,4.7522 6.1343,5.3439 9.8352,3.3632 6.8338,-3.6574 16.2793,-2.8881 25.5506,2.0809 4.60157,2.4664 9.96137,4.4843 11.91047,4.4843 1.9491,0 6.5706,3.0269 10.2702,6.7265 3.6995,3.6995 8.6011,6.7264 10.8923,6.7264 2.2913,0 6.7487,0.9818 9.9054,2.1821 3.7917,1.4417 11.26,1.3569 22.0069,-0.2496 23.217,-3.4708 28.0748,-3.1634 35.3799,2.2372 4.6388,3.4296 9.757,4.7989 17.9394,4.7989 14.9406,0 19.6168,2.7704 24.9229,14.7657 3.7928,8.5742 5.2908,9.8979 11.1999,9.8979 5.1287,0 9.2345,2.4827 16.5455,10.0054 5.3484,5.5029 12.0688,10.4845 14.9345,11.0699 2.8659,0.5857 8.072,1.6735 11.5696,2.4177 8.0623,1.7153 17.1836,10.7234997 17.1836,16.9705997 0,2.6361 2.0179,7.3585 4.4843,10.4939003 5.1612,6.5614 6.0883,23.884 1.8984,35.4715 -2.5087,6.9376 -2.2135,7.5237 9.891,19.6279 6.8621,6.8624 13.2154,14.8146 14.1181,17.6717 0.9029,2.8572 3.5332,6.5263 5.8455,8.1536 2.3121,1.6271 6.8518,8.184099 10.0883,14.570799 7.5485,14.8966 7.9666,31.3468 1.0796,42.4901 -5.9908,9.6932 -6.0786,16.1284 -0.3201,23.449 2.7645,3.5148 4.4843,9.096 4.4843,14.5542 0,6.7002 2.7262,13.2834 11.2107,27.0702 9.6554,15.6894 11.2107,19.8239 11.2107,29.7999 0,6.3708 1.5135,15.8728 3.3633,21.1156 6.6993,18.9881 4.3627,27.461 -10.9996,39.8865 -1.9659,1.5901 -3.5744,5.9778 -3.5744,9.7506 0,4.7825 -2.1085,8.8292 -6.9637,13.3644 -3.8298,3.5777 -7.9141,6.5051 -9.076,6.5051 -1.1621,0 -4.336,2.5847 -7.0535,5.7439 -7.0803,8.2314 -21.1926,9.8047 -31.3941,3.4998 -9.6247,-5.9482 -15.4206,-6.0256 -20.6246,-0.2751 -2.2321,2.4663 -5.2551,4.4843 -6.7178,4.4843 -1.4626,0 -5.339,4.7926 -8.6144,10.6502 -8.793,15.7257 -10.4569,17.3528 -23.923,23.3916 -22.4809,10.0814 -26.1085,11.0643 -38.2638,10.3697 -9.6639,-0.5524 -13.0437,0.2198 -16.9814,3.8852 -2.7038,2.5162 -9.9468,5.8641 -16.0954,7.4401 -10.159,2.6036 -12.2729,2.4227 -23.1616,-1.9816 -6.5904,-2.6657 -14.0933,-5.6672 -16.6731,-6.6701 -2.58,-1.0029 -6.1114,-0.9086 -7.8475,0.2107 -7.1971,4.6359 -20.3867,6.8108 -27.1033,4.4695 -7.9904,-2.7854 -17.69497,1.422 -33.38397,14.4731 -13.1096,10.9056 -17.93,18.8609 -22.4504,37.0515 -4.0303,16.2181 -4.0179,55.498 0.025,77.2036 1.1482,6.1659 2.1674,20.2914 2.2647,31.3901 0.1929,22.0927 2.0012,29.5671 10.985,45.4382 3.283,5.7995 10.6711,21.1549 16.4183,34.1226 6.7821,15.3031 14.06097,27.6288 20.73987,35.12 13.3038,14.9218 13.2498,17.2662 -0.3599,15.6085 -52.80357,-6.4309 -141.04827,-6.5636 -180.29707,-0.271 -3.4038,0.5455 -7.0717,-0.3698 -8.532,-2.1294 z m 33.3553,-6.9973 c 10.6275,-1.4099 12.0127,-2.2854 16.0094,-10.1193 2.4062,-4.7168 4.3751,-11.175 4.3751,-14.3517 0,-8.6294 9.2194,-43.73 11.486,-43.73 2.8982,0 2.4099,8.5881 -1.587,27.9154 -1.9547,9.4514 -3.0204,18.5749 -2.3681,20.2742 0.652,1.6996 0.2563,3.4074 -0.8798,3.7953 -1.1359,0.3881 -2.6644,3.7325 -3.3967,7.432 l -1.3311,6.7265 42.1996,-0.2303 c 52.8766,-0.2883 48.8692,0.3671 43.3562,-7.0899 -2.5208,-3.4094 -5.4858,-11.745 -6.589,-18.5237 -1.8441,-11.3311 -12.058,-40.6241 -16.006,-45.9048 -1.7141,-2.2928 -2.8233,-12.1518 -2.2704,-20.1794 0.3049,-4.4257 0.352,-4.4273 3.6009,-0.1322 1.8105,2.3937 3.2919,7.489 3.2919,11.3228 0,3.8336 1.1556,8.1262 2.5682,9.5388 4.1316,4.1316 11.2755,25.3165 13.1011,38.851 0.9271,6.8726 2.787,14.5538 4.1331,17.0692 4.4794,8.3698 18.1655,18.6413 24.8383,18.6413 3.5025,0 9.6155,0.6495 13.5843,1.4432 l 7.21607,1.4433 -8.88307,-11.7365 c -4.8857,-6.4552 -10.7381,-17.1942 -13.0056,-23.8648 -2.2673,-6.6704 -4.813,-12.128 -5.6572,-12.128 -0.8442,0 -2.1737,-2.5457 -2.9545,-5.6569 -0.7809,-3.1112 -5.5813,-12.4441 -10.6676,-20.7399 -10.6222,-17.3246 -11.0798,-19.9448 -16.1395,-92.437 -4.663,-66.8079 -1.9042,-80.2666 21.2112,-103.4847 11.6923,-11.7441 19.4217,-17.0975 36.31577,-25.1517 21.0477,-10.0343 35.4703,-20.3729 39.8578,-28.571 1.7587,-3.2861 1.513,-3.8594 -1.2067,-2.816 -1.8783,0.7209 -3.4151,2.1377 -3.4151,3.1487 0,2.1724 -12.8688,8.893 -17.0282,8.893 -7.0917,0 -4.6213,-4.6161 4.67,-8.726 5.5928,-2.474 10.7695,-6.0632 11.5035,-7.9757 1.592,-4.1487 7.5493,-4.6738 7.6556,-0.6749 0.1099,4.1103 8.5446,-6.7464 14.7388,-18.9702 6.8697,-13.5564 11.2082,-26.6055 14.0073,-42.1283 2.3579,-13.0749 1.0902,-16.6027 -5.5085,-15.3318 -2.9979,0.5773 -4.1466,2.991 -4.3609,9.1634 -0.1592,4.6087 -1.8137,10.1522 -3.6749,12.3188 -1.861,2.1666 -4.6348,8.4796 -6.1637,14.0289 -2.8285,10.265 -18.7677,34.9584 -24.8342,38.4734 -5.1579,2.9888 -20.8491,9.3229 -24.9643,10.0776 -8.75357,1.6052 -12.16457,-13.9479 -7.0511,-32.1508 2.0141,-7.1704 3.7654,-16.0639 3.8914,-19.7634 0.1256,-3.6996 1.0148,-7.9762 1.9747,-9.5036 1.1969,-1.9047 0.652,-2.3576 -1.7345,-1.4417 -1.9139,0.7343 -3.4796,3.122 -3.4796,5.3058 0,2.1839 -1.5455,7.6697 -3.43447,12.1906 -1.889,4.521 -2.8032,9.2421 -2.0312,10.491 2.2152,3.5843 -1.0213,13.2269 -4.4394,13.2269 -1.7014,0 -6.342,-6.3061 -10.3126,-14.0135 -9.1233,-17.7093 -12.8013,-21.8609 -19.3674,-21.8609 -5.0807,0 -7.3251,3.3325 -3.272,4.8578 1.0922,0.4113 5.5919,5.4955 9.9993,11.2987 5.6522,7.4421 8.4543,13.8746 9.5096,21.8302 1.5352,11.5731 -1.8775,24.7934 -6.4002,24.7934 -4.4993,0 -27.5972,16.8244 -38.0875,27.743 -6.8263,7.1047 -11.5034,14.3937 -13.0029,20.2639 -3.4615,13.5499 -4.0027,14.7732 -6.5345,14.7732 -1.272,0 -2.3126,-4.3159 -2.3126,-9.5907 0,-5.2751 -1.483,-11.7081 -3.2953,-14.2955 -7.658,-10.9334 -11.7197,-29.0491 -13.4311,-59.9039 -0.9314,-16.7923 -0.3758,-21.5796 3.5686,-30.7484 4.2013,-9.7665 4.3249,-11.2062 1.2273,-14.304 -5.017,-5.017 -6.6663,-4.2784 -11.2085,5.0191 -7.9937,16.362 -18.2324,31.9317 -20.5107,31.1898 -3.6948,-1.2033 -12.1248,-26.4286 -12.2708,-36.7181 -0.148,-10.4466 -2.682,-13.5741 -6.8899,-8.5042 -4.1975,5.0578 -0.7195,28.1369 9.9623,66.1072 1.9081,6.7825 4.0505,23.935 4.761,38.1165 0.7105,14.1816 2.2278,31.8385 3.372,39.2376 2.9616,19.1511 2.7396,21.3004 -2.198,21.3004 -7.3078,0 -17.115,-10.3598 -23.702,-25.0376 l -6.2892,-14.0143 1.4009,-40.4515 c 1.2648,-36.5212 -0.1502,-64.1617 -3.4527,-67.4646 -0.6778,-0.6776 -3.8933,-0.5641 -7.1455,0.2522 -5.7345,1.4393 -5.8614,1.8327 -4.1883,13.0013 3.2412,21.639 1.8941,31.1553 -6.3334,44.7428 -4.2,6.9363 -8.9612,12.6401 -10.58,12.675 -2.7354,0.058 -37.1365,-34.4185 -50.8383,-50.9512 -3.3242,-4.0112 -6.9414,-6.7383 -8.0383,-6.0605 -1.0971,0.678 -2.6511,-2.8731 -3.4533,-7.891 -1.6469,-10.298 -4.9444,-13.6841 -8.0031,-8.2182 -1.1321,2.0229 -4.5664,3.678 -7.6321,3.678 -4.4428,0 -6.4228,-1.9813 -9.7596,-9.7661 -4.28,-9.9845 -10.3818,-14.5201 -14.2843,-10.6177 -7.4154,7.4157 27.4829,47.2896 41.3887,47.2896 2.2807,0 4.1469,0.8186 4.1469,1.8193 0,1.0007 1.7699,3.7753 3.9334,6.1659 5.8338,6.4462 38.6674,55.7916 38.6674,58.1126 0,1.0994 1.9973,4.1247 4.4383,6.7231 6.3428,6.7516 19.4091,34.4542 23.3266,49.4564 3.967,15.191 8.7567,20.7876 24.6905,28.8493 13.7789,6.9715 16.2085,10.9318 18.0166,29.3663 0.7258,7.399 1.7529,16.4797 2.2827,20.1793 2.9112,20.325 1.1049,59.372 -3.215,69.5065 -1.0513,2.4664 -4.4569,12.6879 -7.5679,22.7146 -3.111,10.0266 -10.2578,26.549 -15.8816,36.716 l -10.2251,18.4859 6.4166,-1.2835 c 3.5291,-0.7058 11.6522,-1.9777 18.0511,-2.8266 z m 46.6696,-37.4362 c -0.6052,-1.5772 -0.5735,-7.8832 0.07,-14.0135 0.6437,-6.1302 0.9016,-13.6683 0.5726,-16.7513 -0.6751,-6.3277 -0.6461,-16.3614 0.1368,-47.0851 0.3065,-12.0492 -0.5596,-23.9779 -1.9944,-27.4654 -2.6623,-6.4719 -1.2439,-19.6196 2.1168,-19.6196 1.079,0 1.9619,3.4959 1.9619,7.769 0,4.2731 1.4619,12.0926 3.2487,17.3766 2.1195,6.2684 2.8695,14.6726 2.158,24.1816 -0.6,8.0157 -0.9708,22.0912 -0.8242,31.2788 0.4998,31.3177 -3.439,54.769 -7.4453,44.3289 z m -17.4881,-60.4732 c -0.094,-2.7747 -0.4531,-6.5583 -0.7971,-8.4081 -0.3439,-1.8497 -1.2995,-10.1318 -2.1235,-18.4044 -2.4969,-25.0697 -3.8043,-34.0246 -5.8242,-39.8914 -1.0614,-3.0829 -2.4899,-8.1982 -3.1744,-11.3668 -1.2644,-5.8529 -13.3552,-19.7365 -22.2811,-25.5849 -6.022,-3.9459 -13.4893,-16.1157 -10.8785,-17.7293 1.0484,-0.648 6.6262,3.8231 12.3953,9.9354 5.7688,6.1123 11.3143,11.1134 12.3233,11.1134 1.0089,0 4.8618,4.2879 8.5623,9.5291 5.1701,7.3229 7.5627,14.4603 10.3347,30.8296 5.5563,32.8118 7.6307,51.2548 6.5742,58.4523 -1.1332,7.7206 -4.8626,8.8334 -5.111,1.5251 z m 47.6441,-36.5851 c -0.3455,-16.5197 0.2107,-21.3246 2.3836,-20.6002 3.6143,1.2047 4.0386,40.1544 0.4504,41.3506 -1.5531,0.5177 -2.5405,-6.711 -2.834,-20.7504 z m 4.193,-55.6138 c -3.2336,-38.1035 -1.9995,-48.8799 7.9951,-69.8193 5.5309,-11.5881 15.1217,-23.5195 18.9051,-23.5195 4.2206,0 2.0558,7.2773 -3.4538,11.6112 -3.083,2.4251 -5.6054,5.7134 -5.6054,7.3074 0,1.5939 -1.8345,5.3042 -4.0764,8.2452 -4.2971,5.6366 -9.9354,26.3614 -10.0951,37.106 -0.052,3.4969 1.1175,18.2769 2.5989,32.8448 2.5648,25.2208 2.2755,30.6878 -1.6233,30.6878 -0.9464,0 -3.0366,-15.5087 -4.6451,-34.4636 z m -40.4548,-18.8995 c 0,-4.6861 -0.8787,-9.4787 -1.9527,-10.6502 -1.074,-1.1715 -2.6067,-4.9047 -3.4061,-8.2959 -1.0887,-4.6195 -0.6145,-6.1659 1.8902,-6.1659 4.1051,0 11.1495,22.6077 9.078,29.1346 -2.3549,7.4195 -5.6094,5.0857 -5.6094,-4.0226 z m -31.4064,-34.1697 c -0.911,-4.9816 -2.0366,-9.3937 -2.5016,-9.8044 -2.6419,-2.3348 -15.4193,-7.9339 -15.4193,-6.7567 0,0.7711 3.2792,6.8222 7.287,13.4468 8.8854,14.6867 12.9688,15.8825 10.6339,3.1143 z m -4.5852,-57.0857 c -1.5193,-8.6323 -2.9673,-17.2085 -3.218,-19.0582 -1.2262,-9.0482 -4.1569,-17.9372 -5.9136,-17.9372 -1.0792,0 -1.9825,1.2612 -2.0077,2.8027 -0.025,1.5414 -0.6744,16.6138 -1.443,33.4943 l -1.3973,30.6916 7.6089,3.1186 7.609,3.1184 0.7619,-10.2677 c 0.4193,-5.6471 -0.481,-17.3302 -2.0002,-25.9625 z m 74.8868,7.167 c 7.5874,-7.7733 19.1006,-17.1062 25.5851,-20.7398 6.4845,-3.6337 12.3119,-8.239 12.9495,-10.2343 4.1917,-13.115 -0.7136,-29.8179 -12.4454,-42.3768 -3.4007,-3.6406 -6.739,-8.0675 -7.4184,-9.8379 -1.2749,-3.3224 -5.1182,-3.5771 -9.8025,-0.6493 -1.4766,0.9229 -7.5304,2.1679 -13.4528,2.767 -16.2659,1.6451 -17.9924,2.6843 -21.4843,12.9323 -2.5155,7.3825 -2.861,15.3849 -1.5693,36.3405 0.9112,14.7804 2.4592,28.8914 3.4402,31.3578 2.2968,5.775 7.9246,14.5739 9.3212,14.5739 0.5949,0 7.2893,-6.3601 14.8767,-14.1334 z m 155.74327,9.8206 c 1.6144,-0.094 2.3115,-1.1805 1.5494,-2.4136 -0.7622,-1.2332 0.6917,-2.2422 3.2309,-2.2422 2.539,0 4.6166,-1.0089 4.6166,-2.2421 0,-1.2332 1.5134,-2.2422 3.3632,-2.2422 1.8498,0 3.3632,-0.8881 3.3632,-1.9735 0,-1.0852 7.0628,-1.6211 15.695,-1.1904 8.6323,0.4305 15.6951,-0.036 15.6951,-1.0349 0,-1.4099 12.0701,-6.2538 20.1793,-8.0985 6.5116,-1.4813 11.0316,-4.1159 9.98,-5.8172 -0.7125,-1.1531 0.2816,-2.7018 2.2097,-3.4417 1.928,-0.7399 3.5053,-2.7823 3.5053,-4.5388 0,-1.7565 1.5135,-3.7744 3.3632,-4.4843 1.8498,-0.7098 3.3633,-2.5807 3.3633,-4.1576 0,-4.1486 6.6865,-16.3582 6.7625,-12.3482 0.043,2.2572 1.5054,1.52 4.4482,-2.2421 2.4114,-3.083 4.4069,-4.3045 4.4343,-2.7144 0.04,2.3601 0.6245,2.3601 3.1779,0 1.7204,-1.5901 2.7352,-3.5421 2.2551,-4.3378 -0.4802,-0.7956 0.6348,-2.0251 2.4774,-2.7323 1.8428,-0.7072 3.3504,-0.1906 3.3504,1.1477 0,1.3384 2.018,1.9056 4.4843,1.2606 2.4664,-0.6451 4.4843,-0.1906 4.4843,1.0107 0,1.2059 2.1332,1.5063 4.765,0.6709 3.1404,-0.9967 4.2559,-0.6884 3.2715,0.9042 -1.8468,2.9884 6.7837,5.361 15.3348,4.2159 3.7764,-0.5056 7.5091,-3.0289 9.3215,-6.3004 1.6623,-3.0013 3.0585,-4.661 3.102,-3.6881 0.043,0.9729 2.2876,-0.2883 4.9865,-2.8027 2.6989,-2.5143 6.2303,-4.5715 7.8475,-4.5715 1.7888,0 2.9406,-2.7022 2.9406,-6.8991 0,-4.611 2.1401,-9.039 6.4534,-13.3522 3.5493,-3.5493 5.9035,-7.0031 5.2316,-7.6751 -0.672,-0.672 0.022,-1.2215 1.5264,-1.2215 1.5117,0 2.1778,-0.9229 1.4809,-2.0507 -0.697,-1.128 -0.4121,-2.3892 0.6332,-2.8027 1.0455,-0.4136 2.5758,-4.2098 3.4007,-8.436 0.8249,-4.2263 0.8318,-7.0162 0.022,-6.2 -3.0291,3.0291 -7.5316,-10.5794 -7.5459,-22.8074 -0.023,-8.8372 -1.3541,-14.658 -4.4695,-19.3622 -2.4502,-3.6996 -4.4615,-9.0563 -4.4695,-11.9038 0,-2.8473 -0.9094,-4.6242 -2.0029,-3.9485 -2.2368,1.3826 -7.3884,-3.9381 -6.6754,-6.8939 0.2545,-1.0547 -0.3266,-6.6935 -1.2912,-12.5304 -0.9648,-5.837 -1.5558,-11.2736 -1.3135,-12.0812 0.2422,-0.8076 -0.5139,-2.0854 -1.6804,-2.8399 -4.2525,-2.7507 -9.7756,-16.2405 -7.7422,-18.9096 1.107,-1.4529 3.2608,-8.4432 4.7861,-15.534 1.5253,-7.0908 3.7101,-12.8924 4.8547,-12.8924 3.8738,0 2.1112,-10.4887 -2.4574,-14.6233 -2.4964,-2.2591 -4.1941,-5.1417 -3.7728,-6.4055 0.4213,-1.2639 -0.8155,-4.1971 -2.7482,-6.518 -1.9328,-2.321 -5.6944,-6.809099 -8.3594,-9.973699 -2.6648,-3.1648 -4.3574,-7.0247 -3.7615,-8.5778 0.596,-1.5529 -0.9558,-3.4708 -3.4482,-4.2621 -2.4926,-0.791 -5.1571,-3.4087 -5.9215,-5.817 -0.7643,-2.4081 -4.095,-5.8475 -7.4018,-7.6431 -3.3065,-1.7952 -5.0307,-3.3047 -3.8313,-3.354 1.1993,-0.049 -0.063,-1.6605 -2.8027,-3.5802 -6.1608,-4.3151 -6.3332,-11.2428 -0.4989,-20.0522 5.3121,-8.0211 5.7361,-15.228 1.1211,-19.0583 -1.8498,-1.535 -3.3632,-4.7787 -3.3632,-7.2078 0,-2.4292 -2.018,-6.9821003 -4.4843,-10.1175003 -2.4664,-3.1354 -4.4843,-7.5827 -4.4843,-9.8827 0,-4.7225996 0.213,-4.6399 -13.3091,-5.1701996 -5.4701,-0.2152 -10.3468,-1.5932001 -10.8369,-3.0641001 -0.4904,-1.4706 -2.0686,-2.6789 -3.5072,-2.6847 -1.4388,0 -6.4556,-3.5375 -11.1489,-7.8475 -4.693,-4.3103 -10.3827,-7.837 -12.6439,-7.837 -5.178,0 -14.0952,-7.0897 -15.076,-11.9861 -0.4085,-2.0399 -1.0903,-5.4744 -1.5154,-7.6325 -0.6094,-3.095 -3.5691,-4.087 -14.0116,-4.6957 -7.2814,-0.4244 -13.7442,-1.507 -14.3617,-2.4056 -1.5293,-2.2253 -8.9073,-5.0881 -15.6968,-6.0908 -13.9179,-2.0554 -27.0775,-2.3574 -28.1354,-0.646 -0.6358,1.029 -2.5351,1.3417 -4.2208,0.6949 -1.6856,-0.6469 -3.7307,-0.099 -4.5448,1.219 -1.9182,3.1036 -11.7238,3.1036 -13.6419,0 -0.8141,-1.3172 -2.9554,-1.8289 -4.7588,-1.137 -1.8031,0.6922 -6.9802,-1.2571 -11.5044,-4.3313 -4.5242,-3.0742 -9.5049,-5.5895 -11.0686,-5.5895 -1.5634,0 -2.8426,-1.4455 -2.8426,-3.2123 0,-3.0657 -6.36967,-6.4076 -10.41807,-5.4659 -2.8236,0.6567 -14.9684,-2.8388 -17.9318,-5.1612 -1.6198,-1.2695 -3.9426,-0.633 -6.3031,1.7276 -3.0211,3.021 -4.7868,3.26 -9.2061,1.2464 -3.0076,-1.3702 -5.4681,-3.4126 -5.4681,-4.5386 0,-1.126 -2.4552,-2.6634 -5.4561,-3.4166 -3.0006,-0.7531 -6.0899,-3.367 -6.865,-5.8089 -2.1749,-6.852301 -16.5004,-12.416101 -34.3358,-13.335901 -1.6143,-0.083 -2.2446,-1.2684 -1.4009,-2.6336 1.0323,-1.6704 -0.025,-1.9877 -3.2309,-0.9699 -2.6208,0.8318 -4.765,0.6188 -4.765,-0.4734 0,-2.9699 -18.234,-0.9531 -22.2766,2.4642 -1.9296,1.6307 -6.7148,4.2327 -10.6341,5.7818 -3.919,1.5493 -7.6632,4.217 -8.3199,5.9284 -0.8855,2.307702 -4.4197,2.864401 -13.6738,2.154302 -7.5313,-0.578 -11.9591,-0.1144 -11.1665,1.167299 0.7222,1.1686 -0.574,2.1248 -2.8805,2.1248 -2.3067,0 -6.2834,1.9467 -8.8372,4.3258 -3.8955,3.6292 -7.8157,4.2951 -24.3412,4.135 -18.774,-0.1816 -19.9444,0.096 -24.9538,5.9197 -4.4625,5.1879 -8.6791,6.9184 -19.2165,7.8865 -0.9249,0.085 -1.6816,1.6677 -1.6816,3.5177 0,1.8498 -1.2014,3.111 -2.6695,2.8027 -1.4684,-0.3085 -3.0384,1.4574 -3.489,3.9238 -1.5496,8.4789 -5.5756,16.7573 -7.5547,15.534 -1.0901,-0.6737 -1.9818,-0.096 -1.9818,1.2821 0,1.3787 -0.9364,1.928 -2.0808,1.2206 -1.1444,-0.7072 -2.726,0.7466 -3.5143,3.2309 -0.7886,2.4843 -2.4435,4.5171 -3.6776,4.5171 -1.3242,0 -1.8083,4.1809 -1.1811,10.1988 1.2973,12.4507 -3.3386,17.8679001 -17.2706,20.1815997 -5.0991,0.8468 -12.037,2.9554 -15.4177,4.6854 -7.2529,3.7119 -16.6136,1.97560001 -19.6183,-3.639 -1.1574,-2.1623 -1.6352,-4.5687996 -1.0619,-5.3474997 0.5731,-0.7787 0.4096,-0.9516 -0.3632,-0.3841 -1.931,1.4175001 -14.2897,-5.1605 -14.2897,-7.6058 0,-1.0861 -1.8978,-1.4785 -4.217,-0.872 -2.3193,0.6065 -5.5657,-0.341 -7.2141,-2.1058 -3.3935,-3.6327 -17.1886,-1.6572 -19.9812,2.8614 -0.8847,1.4314 -5.0253,2.411 -9.2013,2.1771 -13.4042,-0.7509 -15.4401,-0.1547 -15.4401,4.5133 0,2.6905001 -1.4948,4.4842997 -3.737,4.4842997 -2.0553,0 -3.1547,0.5822 -2.4432,1.2937 0.7116,0.7116 -1.8949,4.341 -5.7922,8.0654 -3.8973,3.7245 -7.0858,7.4305 -7.0858,8.2354003 0,0.8052 -1.1902,1.3355 -2.6449,1.1787 -1.4547,-0.1569 -3.847,2.618 -5.3168,6.1659 -1.4697,3.548 -3.6181,6.4509 -4.7746,6.4509 -1.1563,0 -1.5016,0.9722 -0.7673,2.1605 0.7343,1.1882 -0.8181,4.3139 -3.4502,6.9458 -5.1702,5.1701 -9.3401,16.5428 -6.9444,18.9389 1.8668,1.8673 2.0251,16.7087 0.1659,15.5596 -0.7571,-0.4679 -2.7082,1.637 -4.3356,4.6781 -1.6273,3.0408 -3.7087,5.5286 -4.6251,5.5286 -0.9164,0 -2.3704,4.1682 -3.2312,9.2624 -1.1011,6.5181 -2.1457,8.345 -3.5257,6.1659 -1.392,-2.1976 -1.9711,-1.2682 -1.9955,3.202 -0.023,4.243199 0.8215,5.769199 2.5887,4.676899 1.7639,-1.090199 2.1543,-0.3989 1.1915,2.1098 -0.928,2.4184 -0.2926,3.731 1.8056,3.731 2.5267,0 2.7695,1.2304 1.1063,5.6053 -1.1722,3.083 -1.4271,5.6054 -0.5668,5.6054 0.8605,0 -0.598,1.5148 -3.241,3.3661 -2.6433,1.8514 -5.5119,6.5807 -6.3749,10.5099 -0.8628,3.9289 -3.7175,9.0495 -6.3433,11.3786 -2.626,2.3294 -3.5132,3.5942 -1.9717,2.8108 4.6471,-2.3614 3.1459,3.0724 -1.6816,6.0872 -2.6859,1.6774 -4.4843,5.2287 -4.4843,8.8554 0,3.33 -0.965,6.6511 -2.1444,7.38 -1.1792,0.7287 -1.5123,2.9717 -0.7399,4.9843 0.9385,2.4462 0.5345,3.1217 -1.2191,2.0381 -2.8489,-1.7608 -3.4253,1.5067 -2.5296,14.3385 0.3011,4.3162 0.7218,10.604 0.9343,13.9731 0.213,3.3693 1.0686,6.8078 1.902,7.6412 0.8337,0.8337 0.263,3.0632 -1.2677,4.9549 -1.9338,2.3897 -1.9771,2.9561 -0.1412,1.8554 1.5733,-0.9437 3.2208,0.242 4.0749,2.9328 0.7883,2.4843 2.3744,4.517 3.5246,4.517 1.15,0 1.9715,0.7567 1.8256,1.6816 -0.6642,4.2056 0.4349,7.4466 2.1632,6.3787 1.0437,-0.6451 1.4977,2.8267 1.009,7.7152 -0.8491,8.4903 0.4289,10.2029 6.789,9.098 1.0165,-0.1772 1.2798,0.5986 0.5852,1.7226 -1.8202,2.9448 3.7961,6.9522 10.5239,7.5092 3.1776,0.263 5.2863,1.2731 4.6859,2.2446 -0.6005,0.9715 -0.022,1.7666 1.2827,1.7666 1.3058,0 2.3745,1.9583 2.3745,4.3518 0,2.3937 1.0089,4.9755 2.2421,5.7378 1.2332,0.7622 2.2421,6.2473 2.2421,12.1895 0,6.532 1.2429,11.8354 3.1433,13.4125 1.7287,1.4348 3.8278,5.3363 4.6646,8.6702 3.202,12.7585 15.3233,19.3878 32.3629,17.6995 6.1946,-0.6137 11.0789,-0.4509 10.8542,0.3619 -0.8289,2.9999 5.3249,11.649 7.3832,10.3768 1.1713,-0.7237 2.1298,0.2895 2.1298,2.2518 0,3.5751 8.6121,8.2509 11.7713,6.3908 0.9249,-0.5446 1.6816,0.047 1.6816,1.3139 0,1.2673 1.5135,1.7236 3.3632,1.0137 1.8498,-0.7099 3.3632,-0.1547 3.3632,1.2341 0,1.506 2.0556,2.0087 5.0944,1.2462 4.3848,-1.1005 6.0345,0.508 11.8417,11.5479 6.6394,12.6215 7.1897,13.0141 20.6199,14.7036 1.5415,0.195 2.8027,0.976 2.8027,1.7376 0,0.7619 3.0141,3.1657 6.6982,5.3419 6.4262,3.796 6.637,3.7929 5.1856,-0.076 -1.3253,-3.5343 -1.0473,-3.6554 2.2455,-0.9771 2.0673,1.6811 3.2126,3.9397 2.5455,5.019 -0.667,1.0794 0.366,1.3567 2.2956,0.6162 1.9293,-0.7404 5.0087,-0.1009 6.8428,1.4213 2.6477,2.1975 3.3347,2.1926 3.3347,-0.025 0,-2.2016 0.7253,-2.1895 3.4332,0.058 2.811,2.3327 3.9287,2.2159 6.1659,-0.6453 1.5029,-1.922 8.0298,-4.1843 14.504,-5.0273 11.5681,-1.5065 13.1479,-0.6879 12.0192,6.2275 -0.1547,0.9536 2.7355,2.3377 6.4245,3.0756 3.6892,0.7379 6.2535,2.0762 5.6984,2.9744 -0.5549,0.898 1.9838,1.5318 5.6419,1.4085 3.6578,-0.1233 6.6688,-0.9854 6.691,-1.9159 0.1076,-4.502 -2.9944,-12.882 -4.7675,-12.882 -1.0995,0 -1.9991,-1.3662 -1.9991,-3.0359 0,-1.6697 -2.5224,-5.7576 -5.6053,-9.084 -3.083,-3.3267 -5.6054,-7.0043 -5.6054,-8.1724 0,-3.5027 -16.4343,-19.3029 -21.8603,-21.017 -6.147,-1.9417 -31.9512,-27.106 -31.9512,-31.1589 0,-1.5994 -1.3565,-4.763 -3.0144,-7.0303 -4.7661,-6.5179 -13.9912,-3.0746 -15.7845,5.8919 -1.7668,8.8343 -7.356,15.3108 -13.2134,15.3108 -3.8612,0 -4.0276,-0.4731 -1.3341,-3.7938 2.0911,-2.5778 2.179,-3.254 0.2747,-2.1098 -1.5415,0.926 -2.8027,1.0948 -2.8027,0.3749 0,-0.72 2.5413,-2.2751 5.6475,-3.4561 5.0821,-1.9323 5.5872,-3.2175 5.0449,-12.8369 -0.5599,-9.928 -0.2041,-10.7343 5.0026,-11.3173 12.1949,-1.3657 15.9493,-3.0827 18.3733,-8.4026 3.0545,-6.7041 7.509,-7.1218 11.2948,-1.0592 1.5404,2.4661 4.5758,4.4843 6.7455,4.4843 2.5861,0 3.9568,1.7376 3.9794,5.0448 0.022,2.7744 1.0462,6.558 2.2832,8.408 1.9614,2.9332 2.5444,2.8615 4.5614,-0.5605 3.2377,-5.4937 9.7901,-4.885 16.7392,1.5552 4.0195,3.7251 5.4773,6.8488 4.554,9.758 -1.0406,3.2785 3.9397,9.6852 21.2982,27.3993 12.4609,12.7161 24.1876,25.4578 26.0596,28.3147 7.3197,11.171 19.1679,-4.9944 19.1679,-26.1517 0,-17.3466 -1.8873,-22.3778 -8.394,-22.3778 -2.9271,0 -5.9143,-0.9585 -6.6381,-2.1298 -1.5832,-2.5617 7.011,-7.5776 9.9114,-5.785 1.1227,0.6938 2.7133,0.1727 3.5348,-1.1556 0.8215,-1.3293 4.0583,-3.3919 7.1923,-4.5836 3.1343,-1.1917 5.0944,-2.7708 4.3559,-3.5092 -0.7384,-0.7385 0.092,-4.1154 1.8439,-7.5044 2.3036,-4.455 4.8946,-6.1619 9.3522,-6.1619 3.8325,0 7.3839,-1.8345 9.3843,-4.8471 l 3.2184,-4.8471 4.9755,4.6742 c 4.8332,4.5408 5.2088,4.5633 13.1318,0.785 7.861,-3.7486 8.2706,-3.7332 11.3135,0.4283 1.7365,2.3746 2.802,4.8923 2.3681,5.5946 -0.4341,0.7022 3.5767,0.9484 8.9128,0.5473 7.1531,-0.5379 10.0506,0.1794 11.028,2.7253 1.9811,5.163 10.4466,7.4556 18.9055,5.12 5.276,-1.4568 8.4574,-1.2644 10.7653,0.6511 2.6419,2.1926 4.315,1.7428 8.643,-2.3233 5.2623,-4.9437 5.5,-4.9637 12.1733,-1.0216 6.0224,3.5577 7.5269,3.6597 13.065,0.8859 3.4421,-1.724 7.939,-4.5184 9.9928,-6.2098 3.1749,-2.6146 4.5181,-2.5754 8.9686,0.2627 6.7309,4.2926 23.03997,3.3267 28.58667,-1.6928 3.2329,-2.926 6.2506,-3.4504 12.8576,-2.2349 4.7482,0.8737 9.2484,2.5347 10.0004,3.6912 0.8309,1.2785 4.9654,1.0249 10.5432,-0.6462 6.8758,-2.0601 9.7359,-4.3547 11.4085,-9.1529 1.5807,-4.534 3.7393,-6.4078 7.394,-6.4181 2.8387,0 8.1526,-1.9868 11.8089,-4.3967 l 6.6475,-4.382 7.35,8.0244 c 7.4054,8.085 10.6224,8.6975 21.5791,4.1101 3.7435,-1.5675 3.9737,-0.826 2.5959,8.361 -1.2134,8.0925 -0.8076,10.3511 2.0583,11.4508 4.5128,1.7319 4.6413,7.3462 0.2063,9.048 -1.9733,0.7572 -3.3632,4.1195 -3.3632,8.1354 0,5.1253 1.4081,7.4865 5.6054,9.3989 6.4192,2.9248 7.3999,6.3186 1.826,6.3186 -9.6475,0 -17.6141,-15.744 -12.2475,-24.2038 1.013,-1.5969 0.7726,-6.3193 -0.5341,-10.4946 -1.8747,-5.9894 -3.8628,-7.8699 -9.4226,-8.913 -11.1565,-2.093 -13.9029,0.2242 -16.7085,14.0977 -3.8523,19.0502 -7.7975,28.9394 -20.1154,50.4221 -11.4491,19.9675 -20.1578,29.6316 -33.0444,36.6694 -7.9587,4.3467 -9.0948,6.8913 -3.9569,8.863 1.8397,0.7059 6.4962,-1.3863 10.4036,-4.6742 3.8905,-3.2735 8.5282,-5.3937 10.3062,-4.7114 1.778,0.6823 4.3274,1.2406 5.665,1.2406 1.3379,0 1.7328,0.6998 0.8774,1.5551 -1.9249,1.9247 23.0788,11.5247 27.7136,10.6404 1.8498,-0.353 4.6838,-0.7191 6.2982,-0.8133 z m -65.0433,-48.2364 c 7.8908,-4.1991 22.8708,-20.4271 22.8708,-24.7762 0,-1.8657 0.8995,-3.3919 1.9991,-3.3919 2.1376,0 4.4699,-7.5977 5.9995,-19.5455 1.0424,-8.141 -2.23,-9.5836 -10.3396,-4.5576 -3.2003,1.9832 -4.994,2.0906 -6.1355,0.3673 -0.8874,-1.3397 -5.0775,-3.6217 -9.3118,-5.0717 -8.5587,-2.931 -12.3033,-0.3391 -10.0363,6.9466 0.6715,2.158 0.1255,3.9237 -1.215,3.9237 -1.4763,0 -1.8839,2.1998 -1.0343,5.5843 0.9663,3.8502 0.3652,5.9823 -1.935,6.865 -2.9092,1.1164 -6.9065,14.6982 -6.7291,22.8646 0.2744,12.6329 0.7883,14.0134 5.217,14.0134 2.5276,0 7.3201,-1.45 10.6502,-3.222 z m -29.21987,-42.2346 c 2.6419,-2.9559 2.904,-4.6269 1.0209,-6.5101 -2.5048,-2.5047 -15.5709,-3.2162 -17.817,-0.97 -0.6388,0.6388 1.7349,5.7653 5.2751,11.3919 5.6517,8.9823 6.5302,9.6103 7.202,5.1475 0.4206,-2.7955 2.3643,-6.8721 4.319,-9.0593 z m -117.3551,8.3042 c 4.261,-4.261 6.7323,-13.1572 4.9471,-17.8089 -2.1377,-5.5711 -12.7969,-8.6139 -16.6558,-4.755 -2.7287,2.7287 -2.8101,5.0745 -0.5092,14.6662 2.8603,11.9228 6.0993,14.0165 12.2179,7.8977 z" id="path7"/><path xmlns:inkscape="http://www.inkscape.org/namespaces/inkscape" inkscape:original-d="M 0,0" inkscape:path-effect="#path-effect56" d="m -1182.0326,688.78697 c -2.0038,-2.4144 -0.8047,-5.3881 5.5065,-13.6563 10.7659,-14.104 13.978,-20.6474 22.6551,-46.1501 12.3062,-36.1694 13.6609,-52.9552 8.6618,-107.3199 -1.8928,-20.5849 -2.3684,-21.3549 -17.9726,-29.1013 -14.2499,-7.0742 -20.4022,-15.0876 -24.9957,-32.5577 -4.4441,-16.9025 -17.564,-42.1822 -25.8237,-49.7575 -3.7183,-3.4106 -8.9825,-4.9411 -19.4454,-5.6536 -12.4785,-0.8498 -15.1269,-1.8505 -20.339,-7.6836 l -5.9924,-6.7067 -9.93,4.254 c -12.5174,5.3623 -28.7925,3.7435 -40.6606,-4.0449 -4.5702,-2.999 -12.6419,-6.4262 -17.9372,-7.6159 -10.2796,-2.3096 -16.6419,-8.2815 -18.9702,-17.8062 -1.704,-6.9713 -4.4793,-9.1648 -11.6546,-9.2112 -7.5489,-0.049 -26.1661,-10.7118 -29.465,-16.8759 -2.3329,-4.359 -4.0377,-5.0045 -10.4648,-3.9615 -11.1116,1.8032 -30.727,-8.4374 -34.5519,-18.038 -1.5608,-3.9178 -4.6796,-9.8011 -6.9305,-13.0745 -2.2511,-3.2733 -4.0928,-9.4562 -4.0928,-13.7396 0,-11.9143 -5.8437,-24.0307 -11.5899,-24.0307 -2.6417,0 -8.1773,-2.5737 -12.3015,-5.7195 -6.1863,-4.7186 -7.4987,-7.2118 -7.4987,-14.2466 0,-5.9878 -1.6692,-10.3282 -5.6053,-14.5753 -3.083,-3.3266 -5.7812,-7.7621 -5.9957,-9.8567 -0.2153,-2.0944 -0.7422,-6.8349 -1.1725,-10.5345 -3.2822,-28.2288 -3.2547,-32.79 0.2301,-38.1084 1.9661,-3.0007 3.5749,-8.369 3.5749,-11.9296 0,-3.5605 2.4966,-9.902 5.5479,-14.0923 3.0516,-4.1901 6.6081,-10.0204 7.9034,-12.9563 1.2955,-2.9356 4.4809,-8.3226 7.0789,-11.971 4.202,-5.9013 4.4327,-7.604 2.089,-15.426 -3.3184,-11.076199 -1.1998,-22.804399 5.3139,-29.415599 7.7354,-7.8513 9.7002,-13.0677 9.6822,-25.7049 0,-7.7764 1.4038,-13.7121 4.2754,-17.9372 2.3605,-3.4733 5.5524,-9.2437 7.0932,-12.8232 1.5408,-3.5796 6.6897,-10.6424 11.4424,-15.6951003 4.7524,-5.05269999 13.1472,-13.9792996 18.6551,-19.8368997 8.8381,-9.3991 11.1116,-10.6502 19.3569,-10.6502 5.1383,0 11.8219,-1.6247 14.8526,-3.6103 9.7715,-6.4025 38.4172,2.0787 50.0544,14.8197 6.2132,6.8023997 6.8152,6.9913997 11.8466,3.7181 2.9155,-1.8968 10.4657,-4.1258 16.7782,-4.9536 11.467,-1.5035 11.4771,-1.5123 11.3249,-9.6632 -0.1973,-10.6037 6.2226,-23.6876 13.1802,-26.8575 3.0236,-1.3778 5.4973,-3.6352 5.4973,-5.0168 0,-1.3814 1.6523,-5.9937 3.6718,-10.2496 3.5791,-7.5425 16.7407,-16.4824 24.2656,-16.4824 1.8989,0 3.4527,-0.8942 3.4527,-1.9868 0,-1.0926 3.7049,-3.7448 8.2331,-5.8935 6.3368,-3.0071 11.4978,-3.6022 22.4054,-2.5836 12.7721,1.1928 14.6842,0.8114 19.3537,-3.858099 3.8124,-3.812302 9.6368,-5.844102 22.0415,-7.689202 17.3719,-2.5836 22.7519,-4.6376 34.8459,-13.3026 8.8849,-6.3659 21.386,-6.555 37.1541,-0.5617 6.4875,2.4657 14.6477,4.4836 18.1338,4.4843 4.052,7e-4 8.7646,2.4273 13.0648,6.7276 3.6995,3.6995 7.706,6.7264 8.9031,6.7264 1.1973,0 4.5819,2.594802 7.5213,5.766601 4.4043,4.7522 6.1343,5.3439 9.8352,3.3632 6.8338,-3.6574 16.2793,-2.8881 25.5506,2.0809 4.60157,2.4664 9.96137,4.4843 11.91047,4.4843 1.9491,0 6.5706,3.0269 10.2702,6.7265 3.6995,3.6995 8.6011,6.7264 10.8923,6.7264 2.2913,0 6.7487,0.9818 9.9054,2.1821 3.7917,1.4417 11.26,1.3569 22.0069,-0.2496 23.217,-3.4708 28.0748,-3.1634 35.3799,2.2372 4.6388,3.4296 9.757,4.7989 17.9394,4.7989 14.9406,0 19.6168,2.7704 24.9229,14.7657 3.7928,8.5742 5.2908,9.8979 11.1999,9.8979 5.1287,0 9.2345,2.4827 16.5455,10.0054 5.3484,5.5029 12.0688,10.4845 14.9345,11.0699 2.8659,0.5857 8.072,1.6735 11.5696,2.4177 8.0623,1.7153 17.1836,10.7234997 17.1836,16.9705997 0,2.6361 2.0179,7.3585 4.4843,10.4939003 5.1612,6.5614 6.0883,23.884 1.8984,35.4715 -2.5087,6.9376 -2.2135,7.5237 9.891,19.6279 6.8621,6.8624 13.2154,14.8146 14.1181,17.6717 0.9029,2.8572 3.5332,6.5263 5.8455,8.1536 2.3121,1.6271 6.8518,8.184099 10.0883,14.570799 7.5485,14.8966 7.9666,31.3468 1.0796,42.4901 -5.9908,9.6932 -6.0786,16.1284 -0.3201,23.449 2.7645,3.5148 4.4843,9.096 4.4843,14.5542 0,6.7002 2.7262,13.2834 11.2107,27.0702 9.6554,15.6894 11.2107,19.8239 11.2107,29.7999 0,6.3708 1.5135,15.8728 3.3633,21.1156 6.6993,18.9881 4.3627,27.461 -10.9996,39.8865 -1.9659,1.5901 -3.5744,5.9778 -3.5744,9.7506 0,4.7825 -2.1085,8.8292 -6.9637,13.3644 -3.8298,3.5777 -7.9141,6.5051 -9.076,6.5051 -1.1621,0 -4.336,2.5847 -7.0535,5.7439 -7.0803,8.2314 -21.1926,9.8047 -31.3941,3.4998 -9.6247,-5.9482 -15.4206,-6.0256 -20.6246,-0.2751 -2.2321,2.4663 -5.2551,4.4843 -6.7178,4.4843 -1.4626,0 -5.339,4.7926 -8.6144,10.6502 -8.793,15.7257 -10.4569,17.3528 -23.923,23.3916 -22.4809,10.0814 -26.1085,11.0643 -38.2638,10.3697 -9.6639,-0.5524 -13.0437,0.2198 -16.9814,3.8852 -2.7038,2.5162 -9.9468,5.8641 -16.0954,7.4401 -10.159,2.6036 -12.2729,2.4227 -23.1616,-1.9816 -6.5904,-2.6657 -14.0933,-5.6672 -16.6731,-6.6701 -2.58,-1.0029 -6.1114,-0.9086 -7.8475,0.2107 -7.1971,4.6359 -20.3867,6.8108 -27.1033,4.4695 -7.9904,-2.7854 -17.69497,1.422 -33.38397,14.4731 -13.1096,10.9056 -17.93,18.8609 -22.4504,37.0515 -4.0303,16.2181 -4.0179,55.498 0.025,77.2036 1.1482,6.1659 2.1674,20.2914 2.2647,31.3901 0.1929,22.0927 2.0012,29.5671 10.985,45.4382 3.283,5.7995 10.6711,21.1549 16.4183,34.1226 6.7821,15.3031 14.06097,27.6288 20.73987,35.12 13.3038,14.9218 13.2498,17.2662 -0.3599,15.6085 -52.80357,-6.4309 -141.04827,-6.5636 -180.29707,-0.271 -3.4038,0.5455 -7.0717,-0.3698 -8.532,-2.1294 z" id="path57"/><path style="fill:#1a1a1a;stroke-width:2.24215" d="m -1182.0326,688.78697 c -2.0038,-2.4144 -0.8047,-5.3881 5.5065,-13.6563 10.7659,-14.104 13.978,-20.6474 22.6551,-46.1501 12.3062,-36.1694 13.6609,-52.9552 8.6618,-107.3199 -1.8928,-20.5849 -2.3684,-21.3549 -17.9726,-29.1013 -14.2499,-7.0742 -20.4022,-15.0876 -24.9957,-32.5577 -4.4441,-16.9025 -17.564,-42.1822 -25.8237,-49.7575 -3.7183,-3.4106 -8.9825,-4.9411 -19.4454,-5.6536 -12.4785,-0.8498 -15.1269,-1.8505 -20.339,-7.6836 l -5.9924,-6.7067 -9.93,4.254 c -12.5174,5.3623 -28.7925,3.7435 -40.6606,-4.0449 -4.5702,-2.999 -12.6419,-6.4262 -17.9372,-7.6159 -10.2796,-2.3096 -16.6419,-8.2815 -18.9702,-17.8062 -1.704,-6.9713 -4.4793,-9.1648 -11.6546,-9.2112 -7.5489,-0.049 -26.1661,-10.7118 -29.465,-16.8759 -2.3329,-4.359 -4.0377,-5.0045 -10.4648,-3.9615 -11.1116,1.8032 -30.727,-8.4374 -34.5519,-18.038 -1.5608,-3.9178 -4.6796,-9.8011 -6.9305,-13.0745 -2.2511,-3.2733 -4.0928,-9.4562 -4.0928,-13.7396 0,-11.9143 -5.8437,-24.0307 -11.5899,-24.0307 -2.6417,0 -8.1773,-2.5737 -12.3015,-5.7195 -6.1863,-4.7186 -7.4987,-7.2118 -7.4987,-14.2466 0,-5.9878 -1.6692,-10.3282 -5.6053,-14.5753 -3.083,-3.3266 -5.7812,-7.7621 -5.9957,-9.8567 -0.2153,-2.0944 -0.7422,-6.8349 -1.1725,-10.5345 -3.2822,-28.2288 -3.2547,-32.79 0.2301,-38.1084 1.9661,-3.0007 3.5749,-8.369 3.5749,-11.9296 0,-3.5605 2.4966,-9.902 5.5479,-14.0923 3.0516,-4.1901 6.6081,-10.0204 7.9034,-12.9563 1.2955,-2.9356 4.4809,-8.3226 7.0789,-11.971 4.202,-5.9013 4.4327,-7.604 2.089,-15.426 -3.3184,-11.076199 -1.1998,-22.804399 5.3139,-29.415599 7.7354,-7.8513 9.7002,-13.0677 9.6822,-25.7049 0,-7.7764 1.4038,-13.7121 4.2754,-17.9372 2.3605,-3.4733 5.5524,-9.2437 7.0932,-12.8232 1.5408,-3.5796 6.6897,-10.6424 11.4424,-15.6951003 4.7524,-5.05269999 13.1472,-13.9792996 18.6551,-19.8368997 8.8381,-9.3991 11.1116,-10.6502 19.3569,-10.6502 5.1383,0 11.8219,-1.6247 14.8526,-3.6103 9.7715,-6.4025 38.4172,2.0787 50.0544,14.8197 6.2132,6.8023997 6.8152,6.9913997 11.8466,3.7181 2.9155,-1.8968 10.4657,-4.1258 16.7782,-4.9536 11.467,-1.5035 11.4771,-1.5123 11.3249,-9.6632 -0.1973,-10.6037 6.2226,-23.6876 13.1802,-26.8575 3.0236,-1.3778 5.4973,-3.6352 5.4973,-5.0168 0,-1.3814 1.6523,-5.9937 3.6718,-10.2496 3.5791,-7.5425 16.7407,-16.4824 24.2656,-16.4824 1.8989,0 3.4527,-0.8942 3.4527,-1.9868 0,-1.0926 3.7049,-3.7448 8.2331,-5.8935 6.3368,-3.0071 11.4978,-3.6022 22.4054,-2.5836 12.7721,1.1928 14.6842,0.8114 19.3537,-3.858099 3.8124,-3.812302 9.6368,-5.844102 22.0415,-7.689202 17.3719,-2.5836 22.7519,-4.6376 34.8459,-13.3026 8.8849,-6.3659 21.386,-6.555 37.1541,-0.5617 6.4875,2.4657 14.6477,4.4836 18.1338,4.4843 4.052,7e-4 8.7646,2.4273 13.0648,6.7276 3.6995,3.6995 7.706,6.7264 8.9031,6.7264 1.1973,0 4.5819,2.594802 7.5213,5.766601 4.4043,4.7522 6.1343,5.3439 9.8352,3.3632 6.8338,-3.6574 16.2793,-2.8881 25.5506,2.0809 4.60157,2.4664 9.96137,4.4843 11.91047,4.4843 1.9491,0 6.5706,3.0269 10.2702,6.7265 3.6995,3.6995 8.6011,6.7264 10.8923,6.7264 2.2913,0 6.7487,0.9818 9.9054,2.1821 3.7917,1.4417 11.26,1.3569 22.0069,-0.2496 23.217,-3.4708 28.0748,-3.1634 35.3799,2.2372 4.6388,3.4296 9.757,4.7989 17.9394,4.7989 14.9406,0 19.6168,2.7704 24.9229,14.7657 3.7928,8.5742 5.2908,9.8979 11.1999,9.8979 5.1287,0 9.2345,2.4827 16.5455,10.0054 5.3484,5.5029 12.0688,10.4845 14.9345,11.0699 2.8659,0.5857 8.072,1.6735 11.5696,2.4177 8.0623,1.7153 17.1836,10.7234997 17.1836,16.9705997 0,2.6361 2.0179,7.3585 4.4843,10.4939003 5.1612,6.5614 6.0883,23.884 1.8984,35.4715 -2.5087,6.9376 -2.2135,7.5237 9.891,19.6279 6.8621,6.8624 13.2154,14.8146 14.1181,17.6717 0.9029,2.8572 3.5332,6.5263 5.8455,8.1536 2.3121,1.6271 6.8518,8.184099 10.0883,14.570799 7.5485,14.8966 7.9666,31.3468 1.0796,42.4901 -5.9908,9.6932 -6.0786,16.1284 -0.3201,23.449 2.7645,3.5148 4.4843,9.096 4.4843,14.5542 0,6.7002 2.7262,13.2834 11.2107,27.0702 9.6554,15.6894 11.2107,19.8239 11.2107,29.7999 0,6.3708 1.5135,15.8728 3.3633,21.1156 6.6993,18.9881 4.3627,27.461 -10.9996,39.8865 -1.9659,1.5901 -3.5744,5.9778 -3.5744,9.7506 0,4.7825 -2.1085,8.8292 -6.9637,13.3644 -3.8298,3.5777 -7.9141,6.5051 -9.076,6.5051 -1.1621,0 -4.336,2.5847 -7.0535,5.7439 -7.0803,8.2314 -21.1926,9.8047 -31.3941,3.4998 -9.6247,-5.9482 -15.4206,-6.0256 -20.6246,-0.2751 -2.2321,2.4663 -5.2551,4.4843 -6.7178,4.4843 -1.4626,0 -5.339,4.7926 -8.6144,10.6502 -8.793,15.7257 -10.4569,17.3528 -23.923,23.3916 -22.4809,10.0814 -26.1085,11.0643 -38.2638,10.3697 -9.6639,-0.5524 -13.0437,0.2198 -16.9814,3.8852 -2.7038,2.5162 -9.9468,5.8641 -16.0954,7.4401 -10.159,2.6036 -12.2729,2.4227 -23.1616,-1.9816 -6.5904,-2.6657 -14.0933,-5.6672 -16.6731,-6.6701 -2.58,-1.0029 -6.1114,-0.9086 -7.8475,0.2107 -7.1971,4.6359 -20.3867,6.8108 -27.1033,4.4695 -7.9904,-2.7854 -17.69497,1.422 -33.38397,14.4731 -13.1096,10.9056 -17.93,18.8609 -22.4504,37.0515 -4.0303,16.2181 -4.0179,55.498 0.025,77.2036 1.1482,6.1659 2.1674,20.2914 2.2647,31.3901 0.1929,22.0927 2.0012,29.5671 10.985,45.4382 3.283,5.7995 10.6711,21.1549 16.4183,34.1226 6.7821,15.3031 14.06097,27.6288 20.73987,35.12 13.3038,14.9218 13.2498,17.2662 -0.3599,15.6085 -52.80357,-6.4309 -141.04827,-6.5636 -180.29707,-0.271 -3.4038,0.5455 -7.0717,-0.3698 -8.532,-2.1294 z m 33.3553,-6.9973 c 10.6275,-1.4099 12.0127,-2.2854 16.0094,-10.1193 2.4062,-4.7168 4.3751,-11.175 4.3751,-14.3517 0,-8.6294 9.2194,-43.73 11.486,-43.73 2.8982,0 2.4099,8.5881 -1.587,27.9154 -1.9547,9.4514 -3.0204,18.5749 -2.3681,20.2742 0.652,1.6996 0.2563,3.4074 -0.8798,3.7953 -1.1359,0.3881 -2.6644,3.7325 -3.3967,7.432 l -1.3311,6.7265 42.1996,-0.2303 c 52.8766,-0.2883 48.8692,0.3671 43.3562,-7.0899 -2.5208,-3.4094 -5.4858,-11.745 -6.589,-18.5237 -1.8441,-11.3311 -12.058,-40.6241 -16.006,-45.9048 -1.7141,-2.2928 -2.8233,-12.1518 -2.2704,-20.1794 0.3049,-4.4257 0.352,-4.4273 3.6009,-0.1322 1.8105,2.3937 3.2919,7.489 3.2919,11.3228 0,3.8336 1.1556,8.1262 2.5682,9.5388 4.1316,4.1316 11.2755,25.3165 13.1011,38.851 0.9271,6.8726 2.787,14.5538 4.1331,17.0692 4.4794,8.3698 18.1655,18.6413 24.8383,18.6413 3.5025,0 9.6155,0.6495 13.5843,1.4432 l 7.21607,1.4433 -8.88307,-11.7365 c -4.8857,-6.4552 -10.7381,-17.1942 -13.0056,-23.8648 -2.2673,-6.6704 -4.813,-12.128 -5.6572,-12.128 -0.8442,0 -2.1737,-2.5457 -2.9545,-5.6569 -0.7809,-3.1112 -5.5813,-12.4441 -10.6676,-20.7399 -10.6222,-17.3246 -11.0798,-19.9448 -16.1395,-92.437 -4.663,-66.8079 -1.9042,-80.2666 21.2112,-103.4847 11.6923,-11.7441 19.4217,-17.0975 36.31577,-25.1517 21.0477,-10.0343 35.4703,-20.3729 39.8578,-28.571 1.7587,-3.2861 1.513,-3.8594 -1.2067,-2.816 -1.8783,0.7209 -3.4151,2.1377 -3.4151,3.1487 0,2.1724 -12.8688,8.893 -17.0282,8.893 -7.0917,0 -4.6213,-4.6161 4.67,-8.726 5.5928,-2.474 10.7695,-6.0632 11.5035,-7.9757 1.592,-4.1487 7.5493,-4.6738 7.6556,-0.6749 0.1099,4.1103 8.5446,-6.7464 14.7388,-18.9702 6.8697,-13.5564 11.2082,-26.6055 14.0073,-42.1283 2.3579,-13.0749 1.0902,-16.6027 -5.5085,-15.3318 -2.9979,0.5773 -4.1466,2.991 -4.3609,9.1634 -0.1592,4.6087 -1.8137,10.1522 -3.6749,12.3188 -1.861,2.1666 -4.6348,8.4796 -6.1637,14.0289 -2.8285,10.265 -18.7677,34.9584 -24.8342,38.4734 -5.1579,2.9888 -20.8491,9.3229 -24.9643,10.0776 -8.75357,1.6052 -12.16457,-13.9479 -7.0511,-32.1508 2.0141,-7.1704 3.7654,-16.0639 3.8914,-19.7634 0.1256,-3.6996 1.0148,-7.9762 1.9747,-9.5036 1.1969,-1.9047 0.652,-2.3576 -1.7345,-1.4417 -1.9139,0.7343 -3.4796,3.122 -3.4796,5.3058 0,2.1839 -1.5455,7.6697 -3.43447,12.1906 -1.889,4.521 -2.8032,9.2421 -2.0312,10.491 2.2152,3.5843 -1.0213,13.2269 -4.4394,13.2269 -1.7014,0 -6.342,-6.3061 -10.3126,-14.0135 -9.1233,-17.7093 -12.8013,-21.8609 -19.3674,-21.8609 -5.0807,0 -7.3251,3.3325 -3.272,4.8578 1.0922,0.4113 5.5919,5.4955 9.9993,11.2987 5.6522,7.4421 8.4543,13.8746 9.5096,21.8302 1.5352,11.5731 -1.8775,24.7934 -6.4002,24.7934 -4.4993,0 -27.5972,16.8244 -38.0875,27.743 -6.8263,7.1047 -11.5034,14.3937 -13.0029,20.2639 -3.4615,13.5499 -4.0027,14.7732 -6.5345,14.7732 -1.272,0 -2.3126,-4.3159 -2.3126,-9.5907 0,-5.2751 -1.483,-11.7081 -3.2953,-14.2955 -7.658,-10.9334 -11.7197,-29.0491 -13.4311,-59.9039 -0.9314,-16.7923 -0.3758,-21.5796 3.5686,-30.7484 4.2013,-9.7665 4.3249,-11.2062 1.2273,-14.304 -5.017,-5.017 -6.6663,-4.2784 -11.2085,5.0191 -7.9937,16.362 -18.2324,31.9317 -20.5107,31.1898 -3.6948,-1.2033 -12.1248,-26.4286 -12.2708,-36.7181 -0.148,-10.4466 -2.682,-13.5741 -6.8899,-8.5042 -4.1975,5.0578 -0.7195,28.1369 9.9623,66.1072 1.9081,6.7825 4.0505,23.935 4.761,38.1165 0.7105,14.1816 2.2278,31.8385 3.372,39.2376 2.9616,19.1511 2.7396,21.3004 -2.198,21.3004 -7.3078,0 -17.115,-10.3598 -23.702,-25.0376 l -6.2892,-14.0143 1.4009,-40.4515 c 1.2648,-36.5212 -0.1502,-64.1617 -3.4527,-67.4646 -0.6778,-0.6776 -3.8933,-0.5641 -7.1455,0.2522 -5.7345,1.4393 -5.8614,1.8327 -4.1883,13.0013 3.2412,21.639 1.8941,31.1553 -6.3334,44.7428 -4.2,6.9363 -8.9612,12.6401 -10.58,12.675 -2.7354,0.058 -37.1365,-34.4185 -50.8383,-50.9512 -3.3242,-4.0112 -6.9414,-6.7383 -8.0383,-6.0605 -1.0971,0.678 -2.6511,-2.8731 -3.4533,-7.891 -1.6469,-10.298 -4.9444,-13.6841 -8.0031,-8.2182 -1.1321,2.0229 -4.5664,3.678 -7.6321,3.678 -4.4428,0 -6.4228,-1.9813 -9.7596,-9.7661 -4.28,-9.9845 -10.3818,-14.5201 -14.2843,-10.6177 -7.4154,7.4157 27.4829,47.2896 41.3887,47.2896 2.2807,0 4.1469,0.8186 4.1469,1.8193 0,1.0007 1.7699,3.7753 3.9334,6.1659 5.8338,6.4462 38.6674,55.7916 38.6674,58.1126 0,1.0994 1.9973,4.1247 4.4383,6.7231 6.3428,6.7516 19.4091,34.4542 23.3266,49.4564 3.967,15.191 8.7567,20.7876 24.6905,28.8493 13.7789,6.9715 16.2085,10.9318 18.0166,29.3663 0.7258,7.399 1.7529,16.4797 2.2827,20.1793 2.9112,20.325 1.1049,59.372 -3.215,69.5065 -1.0513,2.4664 -4.4569,12.6879 -7.5679,22.7146 -3.111,10.0266 -10.2578,26.549 -15.8816,36.716 l -10.2251,18.4859 6.4166,-1.2835 c 3.5291,-0.7058 11.6522,-1.9777 18.0511,-2.8266 z m 46.6696,-37.4362 c -0.6052,-1.5772 -0.5735,-7.8832 0.07,-14.0135 0.6437,-6.1302 0.9016,-13.6683 0.5726,-16.7513 -0.6751,-6.3277 -0.6461,-16.3614 0.1368,-47.0851 0.3065,-12.0492 -0.5596,-23.9779 -1.9944,-27.4654 -2.6623,-6.4719 -1.2439,-19.6196 2.1168,-19.6196 1.079,0 1.9619,3.4959 1.9619,7.769 0,4.2731 1.4619,12.0926 3.2487,17.3766 2.1195,6.2684 2.8695,14.6726 2.158,24.1816 -0.6,8.0157 -0.9708,22.0912 -0.8242,31.2788 0.4998,31.3177 -3.439,54.769 -7.4453,44.3289 z m -17.4881,-60.4732 c -0.094,-2.7747 -0.4531,-6.5583 -0.7971,-8.4081 -0.3439,-1.8497 -1.2995,-10.1318 -2.1235,-18.4044 -2.4969,-25.0697 -3.8043,-34.0246 -5.8242,-39.8914 -1.0614,-3.0829 -2.4899,-8.1982 -3.1744,-11.3668 -1.2644,-5.8529 -13.3552,-19.7365 -22.2811,-25.5849 -6.022,-3.9459 -13.4893,-16.1157 -10.8785,-17.7293 1.0484,-0.648 6.6262,3.8231 12.3953,9.9354 5.7688,6.1123 11.3143,11.1134 12.3233,11.1134 1.0089,0 4.8618,4.2879 8.5623,9.5291 5.1701,7.3229 7.5627,14.4603 10.3347,30.8296 5.5563,32.8118 7.6307,51.2548 6.5742,58.4523 -1.1332,7.7206 -4.8626,8.8334 -5.111,1.5251 z m 47.6441,-36.5851 c -0.3455,-16.5197 0.2107,-21.3246 2.3836,-20.6002 3.6143,1.2047 4.0386,40.1544 0.4504,41.3506 -1.5531,0.5177 -2.5405,-6.711 -2.834,-20.7504 z m 4.193,-55.6138 c -3.2336,-38.1035 -1.9995,-48.8799 7.9951,-69.8193 5.5309,-11.5881 15.1217,-23.5195 18.9051,-23.5195 4.2206,0 2.0558,7.2773 -3.4538,11.6112 -3.083,2.4251 -5.6054,5.7134 -5.6054,7.3074 0,1.5939 -1.8345,5.3042 -4.0764,8.2452 -4.2971,5.6366 -9.9354,26.3614 -10.0951,37.106 -0.052,3.4969 1.1175,18.2769 2.5989,32.8448 2.5648,25.2208 2.2755,30.6878 -1.6233,30.6878 -0.9464,0 -3.0366,-15.5087 -4.6451,-34.4636 z m -40.4548,-18.8995 c 0,-4.6861 -0.8787,-9.4787 -1.9527,-10.6502 -1.074,-1.1715 -2.6067,-4.9047 -3.4061,-8.2959 -1.0887,-4.6195 -0.6145,-6.1659 1.8902,-6.1659 4.1051,0 11.1495,22.6077 9.078,29.1346 -2.3549,7.4195 -5.6094,5.0857 -5.6094,-4.0226 z m -31.4064,-34.1697 c -0.911,-4.9816 -2.0366,-9.3937 -2.5016,-9.8044 -2.6419,-2.3348 -15.4193,-7.9339 -15.4193,-6.7567 0,0.7711 3.2792,6.8222 7.287,13.4468 8.8854,14.6867 12.9688,15.8825 10.6339,3.1143 z m -4.5852,-57.0857 c -1.5193,-8.6323 -2.9673,-17.2085 -3.218,-19.0582 -1.2262,-9.0482 -4.1569,-17.9372 -5.9136,-17.9372 -1.0792,0 -1.9825,1.2612 -2.0077,2.8027 -0.025,1.5414 -0.6744,16.6138 -1.443,33.4943 l -1.3973,30.6916 7.6089,3.1186 7.609,3.1184 0.7619,-10.2677 c 0.4193,-5.6471 -0.481,-17.3302 -2.0002,-25.9625 z m 74.8868,7.167 c 7.5874,-7.7733 19.1006,-17.1062 25.5851,-20.7398 6.4845,-3.6337 12.3119,-8.239 12.9495,-10.2343 4.1917,-13.115 -0.7136,-29.8179 -12.4454,-42.3768 -3.4007,-3.6406 -6.739,-8.0675 -7.4184,-9.8379 -1.2749,-3.3224 -5.1182,-3.5771 -9.8025,-0.6493 -1.4766,0.9229 -7.5304,2.1679 -13.4528,2.767 -16.2659,1.6451 -17.9924,2.6843 -21.4843,12.9323 -2.5155,7.3825 -2.861,15.3849 -1.5693,36.3405 0.9112,14.7804 2.4592,28.8914 3.4402,31.3578 2.2968,5.775 7.9246,14.5739 9.3212,14.5739 0.5949,0 7.2893,-6.3601 14.8767,-14.1334 z m 155.74327,9.8206 c 1.6144,-0.094 2.3115,-1.1805 1.5494,-2.4136 -0.7622,-1.2332 0.6917,-2.2422 3.2309,-2.2422 2.539,0 4.6166,-1.0089 4.6166,-2.2421 0,-1.2332 1.5134,-2.2422 3.3632,-2.2422 1.8498,0 3.3632,-0.8881 3.3632,-1.9735 0,-1.0852 7.0628,-1.6211 15.695,-1.1904 8.6323,0.4305 15.6951,-0.036 15.6951,-1.0349 0,-1.4099 12.0701,-6.2538 20.1793,-8.0985 6.5116,-1.4813 11.0316,-4.1159 9.98,-5.8172 -0.7125,-1.1531 0.2816,-2.7018 2.2097,-3.4417 1.928,-0.7399 3.5053,-2.7823 3.5053,-4.5388 0,-1.7565 1.5135,-3.7744 3.3632,-4.4843 1.8498,-0.7098 3.3633,-2.5807 3.3633,-4.1576 0,-4.1486 6.6865,-16.3582 6.7625,-12.3482 0.043,2.2572 1.5054,1.52 4.4482,-2.2421 2.4114,-3.083 4.4069,-4.3045 4.4343,-2.7144 0.04,2.3601 0.6245,2.3601 3.1779,0 1.7204,-1.5901 2.7352,-3.5421 2.2551,-4.3378 -0.4802,-0.7956 0.6348,-2.0251 2.4774,-2.7323 1.8428,-0.7072 3.3504,-0.1906 3.3504,1.1477 0,1.3384 2.018,1.9056 4.4843,1.2606 2.4664,-0.6451 4.4843,-0.1906 4.4843,1.0107 0,1.2059 2.1332,1.5063 4.765,0.6709 3.1404,-0.9967 4.2559,-0.6884 3.2715,0.9042 -1.8468,2.9884 6.7837,5.361 15.3348,4.2159 3.7764,-0.5056 7.5091,-3.0289 9.3215,-6.3004 1.6623,-3.0013 3.0585,-4.661 3.102,-3.6881 0.043,0.9729 2.2876,-0.2883 4.9865,-2.8027 2.6989,-2.5143 6.2303,-4.5715 7.8475,-4.5715 1.7888,0 2.9406,-2.7022 2.9406,-6.8991 0,-4.611 2.1401,-9.039 6.4534,-13.3522 3.5493,-3.5493 5.9035,-7.0031 5.2316,-7.6751 -0.672,-0.672 0.022,-1.2215 1.5264,-1.2215 1.5117,0 2.1778,-0.9229 1.4809,-2.0507 -0.697,-1.128 -0.4121,-2.3892 0.6332,-2.8027 1.0455,-0.4136 2.5758,-4.2098 3.4007,-8.436 0.8249,-4.2263 0.8318,-7.0162 0.022,-6.2 -3.0291,3.0291 -7.5316,-10.5794 -7.5459,-22.8074 -0.023,-8.8372 -1.3541,-14.658 -4.4695,-19.3622 -2.4502,-3.6996 -4.4615,-9.0563 -4.4695,-11.9038 0,-2.8473 -0.9094,-4.6242 -2.0029,-3.9485 -2.2368,1.3826 -7.3884,-3.9381 -6.6754,-6.8939 0.2545,-1.0547 -0.3266,-6.6935 -1.2912,-12.5304 -0.9648,-5.837 -1.5558,-11.2736 -1.3135,-12.0812 0.2422,-0.8076 -0.5139,-2.0854 -1.6804,-2.8399 -4.2525,-2.7507 -9.7756,-16.2405 -7.7422,-18.9096 1.107,-1.4529 3.2608,-8.4432 4.7861,-15.534 1.5253,-7.0908 3.7101,-12.8924 4.8547,-12.8924 3.8738,0 2.1112,-10.4887 -2.4574,-14.6233 -2.4964,-2.2591 -4.1941,-5.1417 -3.7728,-6.4055 0.4213,-1.2639 -0.8155,-4.1971 -2.7482,-6.518 -1.9328,-2.321 -5.6944,-6.809099 -8.3594,-9.973699 -2.6648,-3.1648 -4.3574,-7.0247 -3.7615,-8.5778 0.596,-1.5529 -0.9558,-3.4708 -3.4482,-4.2621 -2.4926,-0.791 -5.1571,-3.4087 -5.9215,-5.817 -0.7643,-2.4081 -4.095,-5.8475 -7.4018,-7.6431 -3.3065,-1.7952 -5.0307,-3.3047 -3.8313,-3.354 1.1993,-0.049 -0.063,-1.6605 -2.8027,-3.5802 -6.1608,-4.3151 -6.3332,-11.2428 -0.4989,-20.0522 5.3121,-8.0211 5.7361,-15.228 1.1211,-19.0583 -1.8498,-1.535 -3.3632,-4.7787 -3.3632,-7.2078 0,-2.4292 -2.018,-6.9821003 -4.4843,-10.1175003 -2.4664,-3.1354 -4.4843,-7.5827 -4.4843,-9.8827 0,-4.7225996 0.213,-4.6399 -13.3091,-5.1701996 -5.4701,-0.2152 -10.3468,-1.5932001 -10.8369,-3.0641001 -0.4904,-1.4706 -2.0686,-2.6789 -3.5072,-2.6847 -1.4388,0 -6.4556,-3.5375 -11.1489,-7.8475 -4.693,-4.3103 -10.3827,-7.837 -12.6439,-7.837 -5.178,0 -14.0952,-7.0897 -15.076,-11.9861 -0.4085,-2.0399 -1.0903,-5.4744 -1.5154,-7.6325 -0.6094,-3.095 -3.5691,-4.087 -14.0116,-4.6957 -7.2814,-0.4244 -13.7442,-1.507 -14.3617,-2.4056 -1.5293,-2.2253 -8.9073,-5.0881 -15.6968,-6.0908 -13.9179,-2.0554 -27.0775,-2.3574 -28.1354,-0.646 -0.6358,1.029 -2.5351,1.3417 -4.2208,0.6949 -1.6856,-0.6469 -3.7307,-0.099 -4.5448,1.219 -1.9182,3.1036 -11.7238,3.1036 -13.6419,0 -0.8141,-1.3172 -2.9554,-1.8289 -4.7588,-1.137 -1.8031,0.6922 -6.9802,-1.2571 -11.5044,-4.3313 -4.5242,-3.0742 -9.5049,-5.5895 -11.0686,-5.5895 -1.5634,0 -2.8426,-1.4455 -2.8426,-3.2123 0,-3.0657 -6.36967,-6.4076 -10.41807,-5.4659 -2.8236,0.6567 -14.9684,-2.8388 -17.9318,-5.1612 -1.6198,-1.2695 -3.9426,-0.633 -6.3031,1.7276 -3.0211,3.021 -4.7868,3.26 -9.2061,1.2464 -3.0076,-1.3702 -5.4681,-3.4126 -5.4681,-4.5386 0,-1.126 -2.4552,-2.6634 -5.4561,-3.4166 -3.0006,-0.7531 -6.0899,-3.367 -6.865,-5.8089 -2.1749,-6.852301 -16.5004,-12.416101 -34.3358,-13.335901 -1.6143,-0.083 -2.2446,-1.2684 -1.4009,-2.6336 1.0323,-1.6704 -0.025,-1.9877 -3.2309,-0.9699 -2.6208,0.8318 -4.765,0.6188 -4.765,-0.4734 0,-2.9699 -18.234,-0.9531 -22.2766,2.4642 -1.9296,1.6307 -6.7148,4.2327 -10.6341,5.7818 -3.919,1.5493 -7.6632,4.217 -8.3199,5.9284 -0.8855,2.307702 -4.4197,2.864401 -13.6738,2.154302 -7.5313,-0.578 -11.9591,-0.1144 -11.1665,1.167299 0.7222,1.1686 -0.574,2.1248 -2.8805,2.1248 -2.3067,0 -6.2834,1.9467 -8.8372,4.3258 -3.8955,3.6292 -7.8157,4.2951 -24.3412,4.135 -18.774,-0.1816 -19.9444,0.096 -24.9538,5.9197 -4.4625,5.1879 -8.6791,6.9184 -19.2165,7.8865 -0.9249,0.085 -1.6816,1.6677 -1.6816,3.5177 0,1.8498 -1.2014,3.111 -2.6695,2.8027 -1.4684,-0.3085 -3.0384,1.4574 -3.489,3.9238 -1.5496,8.4789 -5.5756,16.7573 -7.5547,15.534 -1.0901,-0.6737 -1.9818,-0.096 -1.9818,1.2821 0,1.3787 -0.9364,1.928 -2.0808,1.2206 -1.1444,-0.7072 -2.726,0.7466 -3.5143,3.2309 -0.7886,2.4843 -2.4435,4.5171 -3.6776,4.5171 -1.3242,0 -1.8083,4.1809 -1.1811,10.1988 1.2973,12.4507 -3.3386,17.8679001 -17.2706,20.1815997 -5.0991,0.8468 -12.037,2.9554 -15.4177,4.6854 -7.2529,3.7119 -16.6136,1.97560001 -19.6183,-3.639 -1.1574,-2.1623 -1.6352,-4.5687996 -1.0619,-5.3474997 0.5731,-0.7787 0.4096,-0.9516 -0.3632,-0.3841 -1.931,1.4175001 -14.2897,-5.1605 -14.2897,-7.6058 0,-1.0861 -1.8978,-1.4785 -4.217,-0.872 -2.3193,0.6065 -5.5657,-0.341 -7.2141,-2.1058 -3.3935,-3.6327 -17.1886,-1.6572 -19.9812,2.8614 -0.8847,1.4314 -5.0253,2.411 -9.2013,2.1771 -13.4042,-0.7509 -15.4401,-0.1547 -15.4401,4.5133 0,2.6905001 -1.4948,4.4842997 -3.737,4.4842997 -2.0553,0 -3.1547,0.5822 -2.4432,1.2937 0.7116,0.7116 -1.8949,4.341 -5.7922,8.0654 -3.8973,3.7245 -7.0858,7.4305 -7.0858,8.2354003 0,0.8052 -1.1902,1.3355 -2.6449,1.1787 -1.4547,-0.1569 -3.847,2.618 -5.3168,6.1659 -1.4697,3.548 -3.6181,6.4509 -4.7746,6.4509 -1.1563,0 -1.5016,0.9722 -0.7673,2.1605 0.7343,1.1882 -0.8181,4.3139 -3.4502,6.9458 -5.1702,5.1701 -9.3401,16.5428 -6.9444,18.9389 1.8668,1.8673 2.0251,16.7087 0.1659,15.5596 -0.7571,-0.4679 -2.7082,1.637 -4.3356,4.6781 -1.6273,3.0408 -3.7087,5.5286 -4.6251,5.5286 -0.9164,0 -2.3704,4.1682 -3.2312,9.2624 -1.1011,6.5181 -2.1457,8.345 -3.5257,6.1659 -1.392,-2.1976 -1.9711,-1.2682 -1.9955,3.202 -0.023,4.243199 0.8215,5.769199 2.5887,4.676899 1.7639,-1.090199 2.1543,-0.3989 1.1915,2.1098 -0.928,2.4184 -0.2926,3.731 1.8056,3.731 2.5267,0 2.7695,1.2304 1.1063,5.6053 -1.1722,3.083 -1.4271,5.6054 -0.5668,5.6054 0.8605,0 -0.598,1.5148 -3.241,3.3661 -2.6433,1.8514 -5.5119,6.5807 -6.3749,10.5099 -0.8628,3.9289 -3.7175,9.0495 -6.3433,11.3786 -2.626,2.3294 -3.5132,3.5942 -1.9717,2.8108 4.6471,-2.3614 3.1459,3.0724 -1.6816,6.0872 -2.6859,1.6774 -4.4843,5.2287 -4.4843,8.8554 0,3.33 -0.965,6.6511 -2.1444,7.38 -1.1792,0.7287 -1.5123,2.9717 -0.7399,4.9843 0.9385,2.4462 0.5345,3.1217 -1.2191,2.0381 -2.8489,-1.7608 -3.4253,1.5067 -2.5296,14.3385 0.3011,4.3162 0.7218,10.604 0.9343,13.9731 0.213,3.3693 1.0686,6.8078 1.902,7.6412 0.8337,0.8337 0.263,3.0632 -1.2677,4.9549 -1.9338,2.3897 -1.9771,2.9561 -0.1412,1.8554 1.5733,-0.9437 3.2208,0.242 4.0749,2.9328 0.7883,2.4843 2.3744,4.517 3.5246,4.517 1.15,0 1.9715,0.7567 1.8256,1.6816 -0.6642,4.2056 0.4349,7.4466 2.1632,6.3787 1.0437,-0.6451 1.4977,2.8267 1.009,7.7152 -0.8491,8.4903 0.4289,10.2029 6.789,9.098 1.0165,-0.1772 1.2798,0.5986 0.5852,1.7226 -1.8202,2.9448 3.7961,6.9522 10.5239,7.5092 3.1776,0.263 5.2863,1.2731 4.6859,2.2446 -0.6005,0.9715 -0.022,1.7666 1.2827,1.7666 1.3058,0 2.3745,1.9583 2.3745,4.3518 0,2.3937 1.0089,4.9755 2.2421,5.7378 1.2332,0.7622 2.2421,6.2473 2.2421,12.1895 0,6.532 1.2429,11.8354 3.1433,13.4125 1.7287,1.4348 3.8278,5.3363 4.6646,8.6702 3.202,12.7585 15.3233,19.3878 32.3629,17.6995 6.1946,-0.6137 11.0789,-0.4509 10.8542,0.3619 -0.8289,2.9999 5.3249,11.649 7.3832,10.3768 1.1713,-0.7237 2.1298,0.2895 2.1298,2.2518 0,3.5751 8.6121,8.2509 11.7713,6.3908 0.9249,-0.5446 1.6816,0.047 1.6816,1.3139 0,1.2673 1.5135,1.7236 3.3632,1.0137 1.8498,-0.7099 3.3632,-0.1547 3.3632,1.2341 0,1.506 2.0556,2.0087 5.0944,1.2462 4.3848,-1.1005 6.0345,0.508 11.8417,11.5479 6.6394,12.6215 7.1897,13.0141 20.6199,14.7036 1.5415,0.195 2.8027,0.976 2.8027,1.7376 0,0.7619 3.0141,3.1657 6.6982,5.3419 6.4262,3.796 6.637,3.7929 5.1856,-0.076 -1.3253,-3.5343 -1.0473,-3.6554 2.2455,-0.9771 2.0673,1.6811 3.2126,3.9397 2.5455,5.019 -0.667,1.0794 0.366,1.3567 2.2956,0.6162 1.9293,-0.7404 5.0087,-0.1009 6.8428,1.4213 2.6477,2.1975 3.3347,2.1926 3.3347,-0.025 0,-2.2016 0.7253,-2.1895 3.4332,0.058 2.811,2.3327 3.9287,2.2159 6.1659,-0.6453 1.5029,-1.922 8.0298,-4.1843 14.504,-5.0273 11.5681,-1.5065 13.1479,-0.6879 12.0192,6.2275 -0.1547,0.9536 2.7355,2.3377 6.4245,3.0756 3.6892,0.7379 6.2535,2.0762 5.6984,2.9744 -0.5549,0.898 1.9838,1.5318 5.6419,1.4085 3.6578,-0.1233 6.6688,-0.9854 6.691,-1.9159 0.1076,-4.502 -2.9944,-12.882 -4.7675,-12.882 -1.0995,0 -1.9991,-1.3662 -1.9991,-3.0359 0,-1.6697 -2.5224,-5.7576 -5.6053,-9.084 -3.083,-3.3267 -5.6054,-7.0043 -5.6054,-8.1724 0,-3.5027 -16.4343,-19.3029 -21.8603,-21.017 -6.147,-1.9417 -31.9512,-27.106 -31.9512,-31.1589 0,-1.5994 -1.3565,-4.763 -3.0144,-7.0303 -4.7661,-6.5179 -13.9912,-3.0746 -15.7845,5.8919 -1.7668,8.8343 -7.356,15.3108 -13.2134,15.3108 -3.8612,0 -4.0276,-0.4731 -1.3341,-3.7938 2.0911,-2.5778 2.179,-3.254 0.2747,-2.1098 -1.5415,0.926 -2.8027,1.0948 -2.8027,0.3749 0,-0.72 2.5413,-2.2751 5.6475,-3.4561 5.0821,-1.9323 5.5872,-3.2175 5.0449,-12.8369 -0.5599,-9.928 -0.2041,-10.7343 5.0026,-11.3173 12.1949,-1.3657 15.9493,-3.0827 18.3733,-8.4026 3.0545,-6.7041 7.509,-7.1218 11.2948,-1.0592 1.5404,2.4661 4.5758,4.4843 6.7455,4.4843 2.5861,0 3.9568,1.7376 3.9794,5.0448 0.022,2.7744 1.0462,6.558 2.2832,8.408 1.9614,2.9332 2.5444,2.8615 4.5614,-0.5605 3.2377,-5.4937 9.7901,-4.885 16.7392,1.5552 4.0195,3.7251 5.4773,6.8488 4.554,9.758 -1.0406,3.2785 3.9397,9.6852 21.2982,27.3993 12.4609,12.7161 24.1876,25.4578 26.0596,28.3147 7.3197,11.171 19.1679,-4.9944 19.1679,-26.1517 0,-17.3466 -1.8873,-22.3778 -8.394,-22.3778 -2.9271,0 -5.9143,-0.9585 -6.6381,-2.1298 -1.5832,-2.5617 7.011,-7.5776 9.9114,-5.785 1.1227,0.6938 2.7133,0.1727 3.5348,-1.1556 0.8215,-1.3293 4.0583,-3.3919 7.1923,-4.5836 3.1343,-1.1917 5.0944,-2.7708 4.3559,-3.5092 -0.7384,-0.7385 0.092,-4.1154 1.8439,-7.5044 2.3036,-4.455 4.8946,-6.1619 9.3522,-6.1619 3.8325,0 7.3839,-1.8345 9.3843,-4.8471 l 3.2184,-4.8471 4.9755,4.6742 c 4.8332,4.5408 5.2088,4.5633 13.1318,0.785 7.861,-3.7486 8.2706,-3.7332 11.3135,0.4283 1.7365,2.3746 2.802,4.8923 2.3681,5.5946 -0.4341,0.7022 3.5767,0.9484 8.9128,0.5473 7.1531,-0.5379 10.0506,0.1794 11.028,2.7253 1.9811,5.163 10.4466,7.4556 18.9055,5.12 5.276,-1.4568 8.4574,-1.2644 10.7653,0.6511 2.6419,2.1926 4.315,1.7428 8.643,-2.3233 5.2623,-4.9437 5.5,-4.9637 12.1733,-1.0216 6.0224,3.5577 7.5269,3.6597 13.065,0.8859 3.4421,-1.724 7.939,-4.5184 9.9928,-6.2098 3.1749,-2.6146 4.5181,-2.5754 8.9686,0.2627 6.7309,4.2926 23.03997,3.3267 28.58667,-1.6928 3.2329,-2.926 6.2506,-3.4504 12.8576,-2.2349 4.7482,0.8737 9.2484,2.5347 10.0004,3.6912 0.8309,1.2785 4.9654,1.0249 10.5432,-0.6462 6.8758,-2.0601 9.7359,-4.3547 11.4085,-9.1529 1.5807,-4.534 3.7393,-6.4078 7.394,-6.4181 2.8387,0 8.1526,-1.9868 11.8089,-4.3967 l 6.6475,-4.382 7.35,8.0244 c 7.4054,8.085 10.6224,8.6975 21.5791,4.1101 3.7435,-1.5675 3.9737,-0.826 2.5959,8.361 -1.2134,8.0925 -0.8076,10.3511 2.0583,11.4508 4.5128,1.7319 4.6413,7.3462 0.2063,9.048 -1.9733,0.7572 -3.3632,4.1195 -3.3632,8.1354 0,5.1253 1.4081,7.4865 5.6054,9.3989 6.4192,2.9248 7.3999,6.3186 1.826,6.3186 -9.6475,0 -17.6141,-15.744 -12.2475,-24.2038 1.013,-1.5969 0.7726,-6.3193 -0.5341,-10.4946 -1.8747,-5.9894 -3.8628,-7.8699 -9.4226,-8.913 -11.1565,-2.093 -13.9029,0.2242 -16.7085,14.0977 -3.8523,19.0502 -7.7975,28.9394 -20.1154,50.4221 -11.4491,19.9675 -20.1578,29.6316 -33.0444,36.6694 -7.9587,4.3467 -9.0948,6.8913 -3.9569,8.863 1.8397,0.7059 6.4962,-1.3863 10.4036,-4.6742 3.8905,-3.2735 8.5282,-5.3937 10.3062,-4.7114 1.778,0.6823 4.3274,1.2406 5.665,1.2406 1.3379,0 1.7328,0.6998 0.8774,1.5551 -1.9249,1.9247 23.0788,11.5247 27.7136,10.6404 1.8498,-0.353 4.6838,-0.7191 6.2982,-0.8133 z m -65.0433,-48.2364 c 7.8908,-4.1991 22.8708,-20.4271 22.8708,-24.7762 0,-1.8657 0.8995,-3.3919 1.9991,-3.3919 2.1376,0 4.4699,-7.5977 5.9995,-19.5455 1.0424,-8.141 -2.23,-9.5836 -10.3396,-4.5576 -3.2003,1.9832 -4.994,2.0906 -6.1355,0.3673 -0.8874,-1.3397 -5.0775,-3.6217 -9.3118,-5.0717 -8.5587,-2.931 -12.3033,-0.3391 -10.0363,6.9466 0.6715,2.158 0.1255,3.9237 -1.215,3.9237 -1.4763,0 -1.8839,2.1998 -1.0343,5.5843 0.9663,3.8502 0.3652,5.9823 -1.935,6.865 -2.9092,1.1164 -6.9065,14.6982 -6.7291,22.8646 0.2744,12.6329 0.7883,14.0134 5.217,14.0134 2.5276,0 7.3201,-1.45 10.6502,-3.222 z m -29.21987,-42.2346 c 2.6419,-2.9559 2.904,-4.6269 1.0209,-6.5101 -2.5048,-2.5047 -15.5709,-3.2162 -17.817,-0.97 -0.6388,0.6388 1.7349,5.7653 5.2751,11.3919 5.6517,8.9823 6.5302,9.6103 7.202,5.1475 0.4206,-2.7955 2.3643,-6.8721 4.319,-9.0593 z m -117.3551,8.3042 c 4.261,-4.261 6.7323,-13.1572 4.9471,-17.8089 -2.1377,-5.5711 -12.7969,-8.6139 -16.6558,-4.755 -2.7287,2.7287 -2.8101,5.0745 -0.5092,14.6662 2.8603,11.9228 6.0993,14.0165 12.2179,7.8977 z" id="path7"/></g></svg>