<svg version="1.1" id="svg1" width="5078.9116" height="5263.5273" viewBox="1438.2647221476504 2785.9204 522.1338196940583 834.2960000000007" sodipodi:docname="trees2.svg" inkscape:version="1.4.2 (f4327f4, 2025-05-13)" xmlns:inkscape="http://www.inkscape.org/namespaces/inkscape" xmlns:sodipodi="http://sodipodi.sourceforge.net/DTD/sodipodi-0.dtd" xmlns="http://www.w3.org/2000/svg" xmlns:svg="http://www.w3.org/2000/svg"><defs id="defs1">
    <inkscape:path-effect effect="fill_between_many" method="originald" linkedpaths="#path1,0,1|" id="path-effect50" xmlns:inkscape="http://www.inkscape.org/namespaces/inkscape"/>
    <inkscape:path-effect effect="fill_between_many" method="originald" linkedpaths="#path1,0,1|#path51,0,1|#path2,0,1|#path3,0,1|#path4,0,1|#path5,0,1|#path6,0,1|#path7,0,1|#path8,0,1|#path9,0,1|#path10,0,1|#path11,0,1|#path12,0,1|#path13,0,1|#path14,0,1|#path15,0,1|#path16,0,1|#path17,0,1|#path18,0,1|#path19,0,1|#path20,0,1|#path21,0,1|#path22,0,1|#path23,0,1|#path24,0,1|#path25,0,1|" id="path-effect51" xmlns:inkscape="http://www.inkscape.org/namespaces/inkscape"/>
    <inkscape:path-effect effect="fill_between_many" method="originald" linkedpaths="#path2,0,1|" id="path-effect52" xmlns:inkscape="http://www.inkscape.org/namespaces/inkscape"/>
    <inkscape:path-effect effect="fill_between_many" method="originald" linkedpaths="#path4,0,1|" id="path-effect53" xmlns:inkscape="http://www.inkscape.org/namespaces/inkscape"/>
    <inkscape:path-effect effect="fill_between_many" method="originald" linkedpaths="#path5,0,1|" id="path-effect54" xmlns:inkscape="http://www.inkscape.org/namespaces/inkscape"/>
    <inkscape:path-effect effect="fill_between_many" method="originald" linkedpaths="#path6,0,1|" id="path-effect55" xmlns:inkscape="http://www.inkscape.org/namespaces/inkscape"/>
    <inkscape:path-effect effect="fill_between_many" method="originald" linkedpaths="#path7,0,1|" id="path-effect56" xmlns:inkscape="http://www.inkscape.org/namespaces/inkscape"/>
    <inkscape:path-effect effect="fill_between_many" method="originald" linkedpaths="#path8,0,1|" id="path-effect57" xmlns:inkscape="http://www.inkscape.org/namespaces/inkscape"/>
    <inkscape:path-effect effect="fill_between_many" method="originald" linkedpaths="#path9,0,1|" id="path-effect58" xmlns:inkscape="http://www.inkscape.org/namespaces/inkscape"/>
    <inkscape:path-effect effect="fill_between_many" method="originald" linkedpaths="#path10,0,1|" id="path-effect59" xmlns:inkscape="http://www.inkscape.org/namespaces/inkscape"/>
    <inkscape:path-effect effect="fill_between_many" method="originald" linkedpaths="#path11,0,1|" id="path-effect60" xmlns:inkscape="http://www.inkscape.org/namespaces/inkscape"/>
    <inkscape:path-effect effect="fill_between_many" method="originald" linkedpaths="#path12,0,1|" id="path-effect61" xmlns:inkscape="http://www.inkscape.org/namespaces/inkscape"/>
    <inkscape:path-effect effect="fill_between_many" method="originald" linkedpaths="#path13,0,1|" id="path-effect62" xmlns:inkscape="http://www.inkscape.org/namespaces/inkscape"/>
    <inkscape:path-effect effect="fill_between_many" method="originald" linkedpaths="#path14,0,1|" id="path-effect63" xmlns:inkscape="http://www.inkscape.org/namespaces/inkscape"/>
    <inkscape:path-effect effect="fill_between_many" method="originald" linkedpaths="#path15,0,1|" id="path-effect64" xmlns:inkscape="http://www.inkscape.org/namespaces/inkscape"/>
    <inkscape:path-effect effect="fill_between_many" method="originald" linkedpaths="#path16,0,1|" id="path-effect65" xmlns:inkscape="http://www.inkscape.org/namespaces/inkscape"/>
    <inkscape:path-effect effect="fill_between_many" method="originald" linkedpaths="#path17,0,1|" id="path-effect66" xmlns:inkscape="http://www.inkscape.org/namespaces/inkscape"/>
    <inkscape:path-effect effect="fill_between_many" method="originald" linkedpaths="#path18,0,1|" id="path-effect67" xmlns:inkscape="http://www.inkscape.org/namespaces/inkscape"/>
    <inkscape:path-effect effect="fill_between_many" method="originald" linkedpaths="#path19,0,1|" id="path-effect68" xmlns:inkscape="http://www.inkscape.org/namespaces/inkscape"/>
    <inkscape:path-effect effect="fill_between_many" method="originald" linkedpaths="#path20,0,1|" id="path-effect69" xmlns:inkscape="http://www.inkscape.org/namespaces/inkscape"/>
    <inkscape:path-effect effect="fill_between_many" method="originald" linkedpaths="#path21,0,1|" id="path-effect70" xmlns:inkscape="http://www.inkscape.org/namespaces/inkscape"/>
    <inkscape:path-effect effect="fill_between_many" method="originald" linkedpaths="#path22,0,1|" id="path-effect71" xmlns:inkscape="http://www.inkscape.org/namespaces/inkscape"/>
    <inkscape:path-effect effect="fill_between_many" method="originald" linkedpaths="#path23,0,1|" id="path-effect72" xmlns:inkscape="http://www.inkscape.org/namespaces/inkscape"/>
    <inkscape:path-effect effect="fill_between_many" method="originald" linkedpaths="#path24,0,1|" id="path-effect73" xmlns:inkscape="http://www.inkscape.org/namespaces/inkscape"/>
    <inkscape:path-effect effect="fill_between_many" method="originald" linkedpaths="#path25,0,1|" id="path-effect74" xmlns:inkscape="http://www.inkscape.org/namespaces/inkscape"/>
  </defs><g><path xmlns:inkscape="http://www.inkscape.org/namespaces/inkscape" inkscape:original-d="M 0,0" inkscape:path-effect="#path-effect70" d="m 1705.8401,2786.9204 -16.1568,6.4688 c -37.5319,15.0251 -63.9405,34.5376 -76.1327,56.251 -6.0078,10.6992 -8.8448,13.2278 -16.3506,14.5872 -54.1523,9.8074 -112.8285,61.5209 -118.4007,104.3491 -3.385,26.0187 -3.2439,25.6714 -9.8703,24.4045 -4.9798,-0.9517 -7.5535,0.8131 -12.8275,8.8027 -3.6279,5.4956 -8.5178,15.2461 -10.8664,21.6678 -5.8235,15.9228 -7.9588,69.3301 -3.816,95.3796 3.2879,20.6742 15.1426,52.9835 23.2834,63.4495 3.2747,4.2101 5.0068,12.4309 5.9784,28.3723 1.0824,17.7563 2.8143,25.0716 8.2934,35.0276 17.1989,31.2536 46.4761,60.0988 76.3187,75.1976 12.5108,6.3301 18.2256,7.4899 41.0593,8.335 23.6275,0.8747 53.0775,-2.0911 64.5745,-6.503 3.7102,-1.4237 3.9681,8.1715 2.7176,100.6132 -0.7603,56.2029 -2.5825,110.5926 -4.0479,120.8632 -1.4651,10.2709 -2.0442,20.2835 -1.2884,22.2535 2.6833,6.9926 -3.9188,17.1672 -15.5678,23.994 -12.4122,7.2741 -14.8885,13.9938 -9.1255,24.7618 2.5242,4.7163 5.958,5.0206 56.992,5.0206 51.0341,0 54.4679,-0.3043 56.9921,-5.0206 5.7748,-10.7904 3.2702,-17.1925 -9.9276,-25.3965 l -12.6109,-7.8373 -1.334,-20.4403 c -0.7344,-11.2425 -0.7247,-67.3719 0.023,-124.7324 l 1.3607,-104.2923 8.0462,1.8016 c 4.4253,0.992 19.1369,1.7562 32.694,1.6951 30.0566,-0.1362 51.5394,-6.858 72.6509,-22.7321 27.8749,-20.9598 44.1742,-43.2381 50.7436,-69.356 3.9586,-15.7371 5.5889,-18.0877 26.2631,-37.9008 15.1643,-14.5326 24.0545,-25.4633 28.4903,-35.0276 7.7647,-16.741 16.4223,-51.4695 16.4003,-65.7946 -0.027,-18.2117 -9.4292,-56.3493 -19.7676,-80.1918 -10.9078,-25.1547 -16.0424,-30.6445 -24.0017,-25.6739 -4.5549,2.8447 -5.0486,1.9805 -6.6704,-11.6949 -7.0826,-59.728 -37.9288,-96.976 -98.2148,-118.5942 -13.5197,-4.8482 -16.9864,-7.4148 -21.9644,-16.2596 -11.1857,-19.8751 -33.8739,-40.1621 -59.7742,-53.4498 z" id="path71"/><path id="path21" style="display:inline;fill:#1a1a1a;stroke-width:1.94598" d="m 1705.8401,2786.9204 -16.1568,6.4688 c -37.5319,15.0251 -63.9405,34.5376 -76.1327,56.251 -6.0078,10.6992 -8.8448,13.2278 -16.3506,14.5872 -54.1523,9.8074 -112.8285,61.5209 -118.4007,104.3491 -3.385,26.0187 -3.2439,25.6714 -9.8703,24.4045 -4.9798,-0.9517 -7.5535,0.8131 -12.8275,8.8027 -3.6279,5.4956 -8.5178,15.2461 -10.8664,21.6678 -5.8235,15.9228 -7.9588,69.3301 -3.816,95.3796 3.2879,20.6742 15.1426,52.9835 23.2834,63.4495 3.2747,4.2101 5.0068,12.4309 5.9784,28.3723 1.0824,17.7563 2.8143,25.0716 8.2934,35.0276 17.1989,31.2536 46.4761,60.0988 76.3187,75.1976 12.5108,6.3301 18.2256,7.4899 41.0593,8.335 23.6275,0.8747 53.0775,-2.0911 64.5745,-6.503 3.7102,-1.4237 3.9681,8.1715 2.7176,100.6132 -0.7603,56.2029 -2.5825,110.5926 -4.0479,120.8632 -1.4651,10.2709 -2.0442,20.2835 -1.2884,22.2535 2.6833,6.9926 -3.9188,17.1672 -15.5678,23.994 -12.4122,7.2741 -14.8885,13.9938 -9.1255,24.7618 2.5242,4.7163 5.958,5.0206 56.992,5.0206 51.0341,0 54.4679,-0.3043 56.9921,-5.0206 5.7748,-10.7904 3.2702,-17.1925 -9.9276,-25.3965 l -12.6109,-7.8373 -1.334,-20.4403 c -0.7344,-11.2425 -0.7247,-67.3719 0.023,-124.7324 l 1.3607,-104.2923 8.0462,1.8016 c 4.4253,0.992 19.1369,1.7562 32.694,1.6951 30.0566,-0.1362 51.5394,-6.858 72.6509,-22.7321 27.8749,-20.9598 44.1742,-43.2381 50.7436,-69.356 3.9586,-15.7371 5.5889,-18.0877 26.2631,-37.9008 15.1643,-14.5326 24.0545,-25.4633 28.4903,-35.0276 7.7647,-16.741 16.4223,-51.4695 16.4003,-65.7946 -0.027,-18.2117 -9.4292,-56.3493 -19.7676,-80.1918 -10.9078,-25.1547 -16.0424,-30.6445 -24.0017,-25.6739 -4.5549,2.8447 -5.0486,1.9805 -6.6704,-11.6949 -7.0826,-59.728 -37.9288,-96.976 -98.2148,-118.5942 -13.5197,-4.8482 -16.9864,-7.4148 -21.9644,-16.2596 -11.1857,-19.8751 -33.8739,-40.1621 -59.7742,-53.4498 z m -2.8543,15.0661 c 6.6494,-0.3524 12.3708,2.8235 24.5413,9.1333 24.0013,12.4433 43.1355,30.3088 52.7809,49.2803 5.5982,11.0111 7.5975,12.5689 22.4395,17.5099 26.8321,8.9326 56.3852,27.3334 68.3942,42.5834 17.7547,22.5463 23.0153,37.0164 28.9425,79.6064 1.7002,12.2163 2.8466,14.3897 7.9665,15.1156 3.2895,0.4662 7.6669,-0.5531 9.7299,-2.2653 3.1209,-2.5901 4.8373,-0.6527 10.2239,11.5277 10.0239,22.666 16.1042,42.5856 19.4789,63.8372 2.7629,17.3998 2.5173,21.8637 -2.3072,42.1767 -8.5553,36.0222 -19.9437,54.4115 -46.7299,75.4561 -13.9059,10.9249 -14.8188,12.3812 -18.9999,30.1969 -5.3805,22.9261 -15.9559,39.91 -36.3312,58.3487 -17.2865,15.6433 -30.0043,22.4435 -53.2371,28.4638 -27.4929,7.124 -70.5434,1.6662 -78.9488,-10.0074 -0.952,-1.3221 -11.4955,-2.9158 -23.4315,-3.5422 -16.1289,-0.8465 -25.0128,0 -34.5943,3.3029 -19.2677,6.6383 -61.5422,8.2398 -79.1541,2.9987 -29.4232,-8.7563 -65.8211,-41.1794 -84.4371,-75.2167 -5.4233,-9.9155 -7.1737,-17.3439 -8.2515,-35.0275 -0.9717,-15.9415 -2.7038,-24.1623 -5.9785,-28.3724 -8.1557,-10.4853 -19.9997,-42.7904 -23.3023,-63.556 -4.4434,-27.9374 -2.0156,-68.9599 5.2145,-88.0897 6.1026,-16.1459 9.3442,-19.7314 13.8119,-15.2636 3.8579,3.8579 11.4241,3.668 13.9982,-0.3536 1.1417,-1.7837 2.7219,-12.5852 3.5117,-24.0017 1.8384,-26.5698 10.9456,-45.2439 32.3786,-66.3986 23.3743,-23.071 54.1073,-39.8245 82.495,-44.9704 8.2883,-1.5025 11.0068,-3.7534 16.8638,-13.9678 10.7823,-18.8038 28.8752,-34.7242 52.8189,-46.4754 15.8867,-7.797 23.4636,-11.6768 30.1132,-12.0293 z m -4.595,39.8392 c -11.6866,0 -25.9477,7.9396 -25.9477,14.4468 0,4.9922 1.6255,4.6836 7.7839,-1.4747 4.0247,-4.0246 8.6485,-5.1881 20.6038,-5.1881 8.4781,0 16.1376,1.1689 17.0197,2.5959 1.9007,3.0754 6.4877,3.4702 6.4877,0.5587 0,-4.3577 -15.6106,-10.9386 -25.9474,-10.9386 z m -50.6982,48.5926 c -5.3495,0.084 -11.8955,1.2766 -18.2663,3.641 -24.8869,9.2367 -45.1982,33.353 -45.1982,53.6665 0,4.544 1.165,8.2628 2.592,8.2628 1.427,0 2.6216,-2.6271 2.653,-5.8379 0.093,-9.631 9.0529,-25.9702 19.9879,-36.4567 11.2621,-10.8002 28.3136,-17.1725 41.5764,-15.5375 6.0957,0.7516 8.4338,0 8.4338,-2.7024 0,-3.4206 -4.9005,-5.1438 -11.7786,-5.0358 z m 108.9216,1.0908 c -1.6605,-0.02 -3.3683,0.027 -5.131,0.1167 -19.7507,1.0145 -19.0299,5.4513 0.9349,5.7543 11.5449,0.1751 17.4106,1.7617 24.8341,6.7159 12.0131,8.0173 22.3293,27.2021 22.3293,41.5307 v 10.5736 l 9.7299,-0.5625 c 16.0028,-0.9222 26.5937,7.6467 26.5937,21.516 0,3.8665 5.2991,10.9808 15.1802,20.3834 17.0283,16.2035 25.4729,34.9754 22.8917,50.8804 -2.4097,14.8498 -12.7563,32.4529 -23.1085,39.3072 -5.3279,3.5277 -9.056,7.4393 -8.2816,8.6923 4.3253,6.9985 19.4977,-6.7802 29.4936,-26.7838 14.1167,-28.25 9.3325,-54.9939 -13.9829,-78.1621 -7.4332,-7.3864 -15.0367,-17.2484 -16.8943,-21.915 -4.4038,-11.0641 -16.8158,-21.3527 -25.7613,-21.3527 -6.4587,0 -7.5266,-1.4493 -11.9078,-16.2138 -8.4259,-28.3955 -22.0142,-40.2985 -46.92,-40.4816 z m -212.1457,75.7144 c -7.0299,0.1362 -16.4718,3.5407 -22.9147,8.9622 -13.9044,11.6998 -25.8564,44.9686 -19.9538,55.5438 3.125,5.599 3.4521,5.0605 4.9941,-8.278 2.0694,-17.9006 11.0683,-37.2072 20.1136,-43.1536 3.8087,-2.5036 11.3571,-4.7711 16.7765,-5.0396 11.7391,-0.5819 13.6035,-1.9042 8.5705,-6.0812 -1.6905,-1.4031 -4.3907,-2.0159 -7.5862,-1.9536 z m 74.1715,20.9763 c -6.3883,0.093 -20.1349,13.5957 -27.1793,27.6731 -8.091,16.1692 -9.2541,32.4718 -3.1544,44.2671 3.7109,7.1764 3.7109,8.2975 0,12.398 -5.3737,5.9378 -5.2483,23.1591 0.2127,29.1936 2.3618,2.6097 5.4637,4.747 6.8907,4.747 1.4271,0 0.663,-2.1373 -1.6989,-4.747 -5.5088,-6.0872 -5.5271,-20.7255 -0.035,-26.7952 3.9492,-4.3638 3.9492,-5.516 0,-15.8568 -5.7908,-15.163 -5.3308,-24.1439 2.06,-40.0178 4.4291,-9.5125 9.4631,-15.4855 17.1376,-20.3302 7.9091,-4.9928 10.0911,-7.6354 8.0118,-9.7147 -0.5711,-0.5711 -1.3336,-0.8307 -2.246,-0.8171 z m -115.9075,116.7738 c -1.1917,0.084 -3.0536,2.1032 -5.3172,6.4803 -13.9641,27.0035 9.4555,87.5329 41.4054,107.0172 7.8716,4.8005 23.5402,6.672 20.9647,2.5047 -0.768,-1.2427 -4.8386,-2.9478 -9.0456,-3.7892 -17.2636,-3.4528 -43.6341,-40.9002 -49.7404,-70.6369 -2.7607,-13.4443 -2.6286,-17.4672 0.9084,-27.8479 2.9423,-8.635 2.811,-13.868 0.8247,-13.7282 z m 263.3456,7.2367 c -2.0184,-0.1888 -2.8204,3.6397 -2.8204,13.1238 0,11.42 -1.4223,16.0563 -7.4836,24.4236 -7.9832,11.0204 -21.5497,18.9921 -32.3252,18.9921 -7.2706,0 -11.3962,3.9903 -6.2635,6.0584 1.7926,0.7224 4.8153,0.8211 6.7157,0.2205 1.9007,-0.6005 5.5013,-1.0907 8.0044,-1.0907 7.7275,0 28.2599,-18.0927 34.0091,-29.9688 5.8724,-12.1308 6.1993,-29.8237 0.5853,-31.6679 -0.1459,-0.049 -0.2872,-0.08 -0.4218,-0.091 z m 104.6532,29.3834 c -2.6638,-0.053 -3.8289,3.886 -1.0757,9.0305 4.3413,8.1118 0.978,31.4462 -6.0279,41.827 -8.8236,13.0741 -26.6604,22.4021 -40.0447,20.9384 -10.4287,-1.1406 -15.4602,2.4363 -7.7839,5.5337 18.4346,7.4387 49.6892,-10.5693 58.9191,-33.9481 4.6544,-11.7895 4.8523,-35.1338 0.3458,-40.5765 -1.6021,-1.9351 -3.1219,-2.781 -4.3327,-2.805 z m -309.8549,104.9952 c -4.1753,0 -2.8742,11.1898 2.0028,17.2213 2.4657,3.0492 7.9839,7.407 12.2651,9.6881 v 0 c 8.5895,4.5765 27.5908,4.5913 29.0908,0.023 0.5832,-1.7765 -3.9916,-3.3784 -11.7899,-4.1276 -14.5489,-1.398 -28.9768,-10.2582 -28.9768,-17.7952 0,-2.7568 -1.1651,-5.013 -2.592,-5.013 z m 260.8786,3.3523 c -0.3917,0.023 -0.8621,0.1964 -1.4177,0.5397 -1.4271,0.8821 -2.5922,3.0269 -2.5922,4.7662 0,6.0764 -10.3507,12.0978 -20.7898,12.0978 -9.7126,0 -12.6238,2.0472 -8.6164,6.0545 4.3208,4.3209 21.0924,1.5186 27.7301,-4.6332 5.8658,-5.4361 9.4723,-19.0474 5.686,-18.825 z m -146.716,69.2988 h 10.6344 c 5.8492,0 14.6902,1.9242 19.646,4.2759 l 9.0116,4.272 -0.821,126.1084 c -0.4514,69.3576 0.099,128.6505 1.2277,131.7639 1.1279,3.1135 7.2801,8.725 13.6711,12.4702 6.3912,3.7454 10.9385,7.9119 10.1062,9.2585 -2.0722,3.2991 -93.8279,3.2201 -95.8697,-0.084 -0.8607,-1.3924 4.2827,-5.7708 11.4326,-9.7299 11.601,-6.4237 13.1469,-8.3126 14.3477,-17.5745 2.5576,-19.7264 6.9489,-114.2475 6.3891,-137.5183 -0.3091,-12.8434 -0.3832,-45.8264 -0.1674,-73.2972 z"/><path xmlns:inkscape="http://www.inkscape.org/namespaces/inkscape" inkscape:original-d="M 0,0" inkscape:path-effect="#path-effect70" d="m 1705.8401,2786.9204 -16.1568,6.4688 c -37.5319,15.0251 -63.9405,34.5376 -76.1327,56.251 -6.0078,10.6992 -8.8448,13.2278 -16.3506,14.5872 -54.1523,9.8074 -112.8285,61.5209 -118.4007,104.3491 -3.385,26.0187 -3.2439,25.6714 -9.8703,24.4045 -4.9798,-0.9517 -7.5535,0.8131 -12.8275,8.8027 -3.6279,5.4956 -8.5178,15.2461 -10.8664,21.6678 -5.8235,15.9228 -7.9588,69.3301 -3.816,95.3796 3.2879,20.6742 15.1426,52.9835 23.2834,63.4495 3.2747,4.2101 5.0068,12.4309 5.9784,28.3723 1.0824,17.7563 2.8143,25.0716 8.2934,35.0276 17.1989,31.2536 46.4761,60.0988 76.3187,75.1976 12.5108,6.3301 18.2256,7.4899 41.0593,8.335 23.6275,0.8747 53.0775,-2.0911 64.5745,-6.503 3.7102,-1.4237 3.9681,8.1715 2.7176,100.6132 -0.7603,56.2029 -2.5825,110.5926 -4.0479,120.8632 -1.4651,10.2709 -2.0442,20.2835 -1.2884,22.2535 2.6833,6.9926 -3.9188,17.1672 -15.5678,23.994 -12.4122,7.2741 -14.8885,13.9938 -9.1255,24.7618 2.5242,4.7163 5.958,5.0206 56.992,5.0206 51.0341,0 54.4679,-0.3043 56.9921,-5.0206 5.7748,-10.7904 3.2702,-17.1925 -9.9276,-25.3965 l -12.6109,-7.8373 -1.334,-20.4403 c -0.7344,-11.2425 -0.7247,-67.3719 0.023,-124.7324 l 1.3607,-104.2923 8.0462,1.8016 c 4.4253,0.992 19.1369,1.7562 32.694,1.6951 30.0566,-0.1362 51.5394,-6.858 72.6509,-22.7321 27.8749,-20.9598 44.1742,-43.2381 50.7436,-69.356 3.9586,-15.7371 5.5889,-18.0877 26.2631,-37.9008 15.1643,-14.5326 24.0545,-25.4633 28.4903,-35.0276 7.7647,-16.741 16.4223,-51.4695 16.4003,-65.7946 -0.027,-18.2117 -9.4292,-56.3493 -19.7676,-80.1918 -10.9078,-25.1547 -16.0424,-30.6445 -24.0017,-25.6739 -4.5549,2.8447 -5.0486,1.9805 -6.6704,-11.6949 -7.0826,-59.728 -37.9288,-96.976 -98.2148,-118.5942 -13.5197,-4.8482 -16.9864,-7.4148 -21.9644,-16.2596 -11.1857,-19.8751 -33.8739,-40.1621 -59.7742,-53.4498 z" id="path71"/><path id="path21" style="display:inline;fill:#1a1a1a;stroke-width:1.94598" d="m 1705.8401,2786.9204 -16.1568,6.4688 c -37.5319,15.0251 -63.9405,34.5376 -76.1327,56.251 -6.0078,10.6992 -8.8448,13.2278 -16.3506,14.5872 -54.1523,9.8074 -112.8285,61.5209 -118.4007,104.3491 -3.385,26.0187 -3.2439,25.6714 -9.8703,24.4045 -4.9798,-0.9517 -7.5535,0.8131 -12.8275,8.8027 -3.6279,5.4956 -8.5178,15.2461 -10.8664,21.6678 -5.8235,15.9228 -7.9588,69.3301 -3.816,95.3796 3.2879,20.6742 15.1426,52.9835 23.2834,63.4495 3.2747,4.2101 5.0068,12.4309 5.9784,28.3723 1.0824,17.7563 2.8143,25.0716 8.2934,35.0276 17.1989,31.2536 46.4761,60.0988 76.3187,75.1976 12.5108,6.3301 18.2256,7.4899 41.0593,8.335 23.6275,0.8747 53.0775,-2.0911 64.5745,-6.503 3.7102,-1.4237 3.9681,8.1715 2.7176,100.6132 -0.7603,56.2029 -2.5825,110.5926 -4.0479,120.8632 -1.4651,10.2709 -2.0442,20.2835 -1.2884,22.2535 2.6833,6.9926 -3.9188,17.1672 -15.5678,23.994 -12.4122,7.2741 -14.8885,13.9938 -9.1255,24.7618 2.5242,4.7163 5.958,5.0206 56.992,5.0206 51.0341,0 54.4679,-0.3043 56.9921,-5.0206 5.7748,-10.7904 3.2702,-17.1925 -9.9276,-25.3965 l -12.6109,-7.8373 -1.334,-20.4403 c -0.7344,-11.2425 -0.7247,-67.3719 0.023,-124.7324 l 1.3607,-104.2923 8.0462,1.8016 c 4.4253,0.992 19.1369,1.7562 32.694,1.6951 30.0566,-0.1362 51.5394,-6.858 72.6509,-22.7321 27.8749,-20.9598 44.1742,-43.2381 50.7436,-69.356 3.9586,-15.7371 5.5889,-18.0877 26.2631,-37.9008 15.1643,-14.5326 24.0545,-25.4633 28.4903,-35.0276 7.7647,-16.741 16.4223,-51.4695 16.4003,-65.7946 -0.027,-18.2117 -9.4292,-56.3493 -19.7676,-80.1918 -10.9078,-25.1547 -16.0424,-30.6445 -24.0017,-25.6739 -4.5549,2.8447 -5.0486,1.9805 -6.6704,-11.6949 -7.0826,-59.728 -37.9288,-96.976 -98.2148,-118.5942 -13.5197,-4.8482 -16.9864,-7.4148 -21.9644,-16.2596 -11.1857,-19.8751 -33.8739,-40.1621 -59.7742,-53.4498 z m -2.8543,15.0661 c 6.6494,-0.3524 12.3708,2.8235 24.5413,9.1333 24.0013,12.4433 43.1355,30.3088 52.7809,49.2803 5.5982,11.0111 7.5975,12.5689 22.4395,17.5099 26.8321,8.9326 56.3852,27.3334 68.3942,42.5834 17.7547,22.5463 23.0153,37.0164 28.9425,79.6064 1.7002,12.2163 2.8466,14.3897 7.9665,15.1156 3.2895,0.4662 7.6669,-0.5531 9.7299,-2.2653 3.1209,-2.5901 4.8373,-0.6527 10.2239,11.5277 10.0239,22.666 16.1042,42.5856 19.4789,63.8372 2.7629,17.3998 2.5173,21.8637 -2.3072,42.1767 -8.5553,36.0222 -19.9437,54.4115 -46.7299,75.4561 -13.9059,10.9249 -14.8188,12.3812 -18.9999,30.1969 -5.3805,22.9261 -15.9559,39.91 -36.3312,58.3487 -17.2865,15.6433 -30.0043,22.4435 -53.2371,28.4638 -27.4929,7.124 -70.5434,1.6662 -78.9488,-10.0074 -0.952,-1.3221 -11.4955,-2.9158 -23.4315,-3.5422 -16.1289,-0.8465 -25.0128,0 -34.5943,3.3029 -19.2677,6.6383 -61.5422,8.2398 -79.1541,2.9987 -29.4232,-8.7563 -65.8211,-41.1794 -84.4371,-75.2167 -5.4233,-9.9155 -7.1737,-17.3439 -8.2515,-35.0275 -0.9717,-15.9415 -2.7038,-24.1623 -5.9785,-28.3724 -8.1557,-10.4853 -19.9997,-42.7904 -23.3023,-63.556 -4.4434,-27.9374 -2.0156,-68.9599 5.2145,-88.0897 6.1026,-16.1459 9.3442,-19.7314 13.8119,-15.2636 3.8579,3.8579 11.4241,3.668 13.9982,-0.3536 1.1417,-1.7837 2.7219,-12.5852 3.5117,-24.0017 1.8384,-26.5698 10.9456,-45.2439 32.3786,-66.3986 23.3743,-23.071 54.1073,-39.8245 82.495,-44.9704 8.2883,-1.5025 11.0068,-3.7534 16.8638,-13.9678 10.7823,-18.8038 28.8752,-34.7242 52.8189,-46.4754 15.8867,-7.797 23.4636,-11.6768 30.1132,-12.0293 z m -4.595,39.8392 c -11.6866,0 -25.9477,7.9396 -25.9477,14.4468 0,4.9922 1.6255,4.6836 7.7839,-1.4747 4.0247,-4.0246 8.6485,-5.1881 20.6038,-5.1881 8.4781,0 16.1376,1.1689 17.0197,2.5959 1.9007,3.0754 6.4877,3.4702 6.4877,0.5587 0,-4.3577 -15.6106,-10.9386 -25.9474,-10.9386 z m -50.6982,48.5926 c -5.3495,0.084 -11.8955,1.2766 -18.2663,3.641 -24.8869,9.2367 -45.1982,33.353 -45.1982,53.6665 0,4.544 1.165,8.2628 2.592,8.2628 1.427,0 2.6216,-2.6271 2.653,-5.8379 0.093,-9.631 9.0529,-25.9702 19.9879,-36.4567 11.2621,-10.8002 28.3136,-17.1725 41.5764,-15.5375 6.0957,0.7516 8.4338,0 8.4338,-2.7024 0,-3.4206 -4.9005,-5.1438 -11.7786,-5.0358 z m 108.9216,1.0908 c -1.6605,-0.02 -3.3683,0.027 -5.131,0.1167 -19.7507,1.0145 -19.0299,5.4513 0.9349,5.7543 11.5449,0.1751 17.4106,1.7617 24.8341,6.7159 12.0131,8.0173 22.3293,27.2021 22.3293,41.5307 v 10.5736 l 9.7299,-0.5625 c 16.0028,-0.9222 26.5937,7.6467 26.5937,21.516 0,3.8665 5.2991,10.9808 15.1802,20.3834 17.0283,16.2035 25.4729,34.9754 22.8917,50.8804 -2.4097,14.8498 -12.7563,32.4529 -23.1085,39.3072 -5.3279,3.5277 -9.056,7.4393 -8.2816,8.6923 4.3253,6.9985 19.4977,-6.7802 29.4936,-26.7838 14.1167,-28.25 9.3325,-54.9939 -13.9829,-78.1621 -7.4332,-7.3864 -15.0367,-17.2484 -16.8943,-21.915 -4.4038,-11.0641 -16.8158,-21.3527 -25.7613,-21.3527 -6.4587,0 -7.5266,-1.4493 -11.9078,-16.2138 -8.4259,-28.3955 -22.0142,-40.2985 -46.92,-40.4816 z m -212.1457,75.7144 c -7.0299,0.1362 -16.4718,3.5407 -22.9147,8.9622 -13.9044,11.6998 -25.8564,44.9686 -19.9538,55.5438 3.125,5.599 3.4521,5.0605 4.9941,-8.278 2.0694,-17.9006 11.0683,-37.2072 20.1136,-43.1536 3.8087,-2.5036 11.3571,-4.7711 16.7765,-5.0396 11.7391,-0.5819 13.6035,-1.9042 8.5705,-6.0812 -1.6905,-1.4031 -4.3907,-2.0159 -7.5862,-1.9536 z m 74.1715,20.9763 c -6.3883,0.093 -20.1349,13.5957 -27.1793,27.6731 -8.091,16.1692 -9.2541,32.4718 -3.1544,44.2671 3.7109,7.1764 3.7109,8.2975 0,12.398 -5.3737,5.9378 -5.2483,23.1591 0.2127,29.1936 2.3618,2.6097 5.4637,4.747 6.8907,4.747 1.4271,0 0.663,-2.1373 -1.6989,-4.747 -5.5088,-6.0872 -5.5271,-20.7255 -0.035,-26.7952 3.9492,-4.3638 3.9492,-5.516 0,-15.8568 -5.7908,-15.163 -5.3308,-24.1439 2.06,-40.0178 4.4291,-9.5125 9.4631,-15.4855 17.1376,-20.3302 7.9091,-4.9928 10.0911,-7.6354 8.0118,-9.7147 -0.5711,-0.5711 -1.3336,-0.8307 -2.246,-0.8171 z m -115.9075,116.7738 c -1.1917,0.084 -3.0536,2.1032 -5.3172,6.4803 -13.9641,27.0035 9.4555,87.5329 41.4054,107.0172 7.8716,4.8005 23.5402,6.672 20.9647,2.5047 -0.768,-1.2427 -4.8386,-2.9478 -9.0456,-3.7892 -17.2636,-3.4528 -43.6341,-40.9002 -49.7404,-70.6369 -2.7607,-13.4443 -2.6286,-17.4672 0.9084,-27.8479 2.9423,-8.635 2.811,-13.868 0.8247,-13.7282 z m 263.3456,7.2367 c -2.0184,-0.1888 -2.8204,3.6397 -2.8204,13.1238 0,11.42 -1.4223,16.0563 -7.4836,24.4236 -7.9832,11.0204 -21.5497,18.9921 -32.3252,18.9921 -7.2706,0 -11.3962,3.9903 -6.2635,6.0584 1.7926,0.7224 4.8153,0.8211 6.7157,0.2205 1.9007,-0.6005 5.5013,-1.0907 8.0044,-1.0907 7.7275,0 28.2599,-18.0927 34.0091,-29.9688 5.8724,-12.1308 6.1993,-29.8237 0.5853,-31.6679 -0.1459,-0.049 -0.2872,-0.08 -0.4218,-0.091 z m 104.6532,29.3834 c -2.6638,-0.053 -3.8289,3.886 -1.0757,9.0305 4.3413,8.1118 0.978,31.4462 -6.0279,41.827 -8.8236,13.0741 -26.6604,22.4021 -40.0447,20.9384 -10.4287,-1.1406 -15.4602,2.4363 -7.7839,5.5337 18.4346,7.4387 49.6892,-10.5693 58.9191,-33.9481 4.6544,-11.7895 4.8523,-35.1338 0.3458,-40.5765 -1.6021,-1.9351 -3.1219,-2.781 -4.3327,-2.805 z m -309.8549,104.9952 c -4.1753,0 -2.8742,11.1898 2.0028,17.2213 2.4657,3.0492 7.9839,7.407 12.2651,9.6881 v 0 c 8.5895,4.5765 27.5908,4.5913 29.0908,0.023 0.5832,-1.7765 -3.9916,-3.3784 -11.7899,-4.1276 -14.5489,-1.398 -28.9768,-10.2582 -28.9768,-17.7952 0,-2.7568 -1.1651,-5.013 -2.592,-5.013 z m 260.8786,3.3523 c -0.3917,0.023 -0.8621,0.1964 -1.4177,0.5397 -1.4271,0.8821 -2.5922,3.0269 -2.5922,4.7662 0,6.0764 -10.3507,12.0978 -20.7898,12.0978 -9.7126,0 -12.6238,2.0472 -8.6164,6.0545 4.3208,4.3209 21.0924,1.5186 27.7301,-4.6332 5.8658,-5.4361 9.4723,-19.0474 5.686,-18.825 z m -146.716,69.2988 h 10.6344 c 5.8492,0 14.6902,1.9242 19.646,4.2759 l 9.0116,4.272 -0.821,126.1084 c -0.4514,69.3576 0.099,128.6505 1.2277,131.7639 1.1279,3.1135 7.2801,8.725 13.6711,12.4702 6.3912,3.7454 10.9385,7.9119 10.1062,9.2585 -2.0722,3.2991 -93.8279,3.2201 -95.8697,-0.084 -0.8607,-1.3924 4.2827,-5.7708 11.4326,-9.7299 11.601,-6.4237 13.1469,-8.3126 14.3477,-17.5745 2.5576,-19.7264 6.9489,-114.2475 6.3891,-137.5183 -0.3091,-12.8434 -0.3832,-45.8264 -0.1674,-73.2972 z"/></g></svg>