<svg version="1.1" id="svg1" width="5078.9116" height="5263.5273" viewBox="477.289126905541 2814.804772522595 717.3279082149211 805.4116274774069" sodipodi:docname="trees2.svg" inkscape:version="1.4.2 (f4327f4, 2025-05-13)" xmlns:inkscape="http://www.inkscape.org/namespaces/inkscape" xmlns:sodipodi="http://sodipodi.sourceforge.net/DTD/sodipodi-0.dtd" xmlns="http://www.w3.org/2000/svg" xmlns:svg="http://www.w3.org/2000/svg"><defs id="defs1">
    <inkscape:path-effect effect="fill_between_many" method="originald" linkedpaths="#path1,0,1|" id="path-effect50" xmlns:inkscape="http://www.inkscape.org/namespaces/inkscape"/>
    <inkscape:path-effect effect="fill_between_many" method="originald" linkedpaths="#path1,0,1|#path51,0,1|#path2,0,1|#path3,0,1|#path4,0,1|#path5,0,1|#path6,0,1|#path7,0,1|#path8,0,1|#path9,0,1|#path10,0,1|#path11,0,1|#path12,0,1|#path13,0,1|#path14,0,1|#path15,0,1|#path16,0,1|#path17,0,1|#path18,0,1|#path19,0,1|#path20,0,1|#path21,0,1|#path22,0,1|#path23,0,1|#path24,0,1|#path25,0,1|" id="path-effect51" xmlns:inkscape="http://www.inkscape.org/namespaces/inkscape"/>
    <inkscape:path-effect effect="fill_between_many" method="originald" linkedpaths="#path2,0,1|" id="path-effect52" xmlns:inkscape="http://www.inkscape.org/namespaces/inkscape"/>
    <inkscape:path-effect effect="fill_between_many" method="originald" linkedpaths="#path4,0,1|" id="path-effect53" xmlns:inkscape="http://www.inkscape.org/namespaces/inkscape"/>
    <inkscape:path-effect effect="fill_between_many" method="originald" linkedpaths="#path5,0,1|" id="path-effect54" xmlns:inkscape="http://www.inkscape.org/namespaces/inkscape"/>
    <inkscape:path-effect effect="fill_between_many" method="originald" linkedpaths="#path6,0,1|" id="path-effect55" xmlns:inkscape="http://www.inkscape.org/namespaces/inkscape"/>
    <inkscape:path-effect effect="fill_between_many" method="originald" linkedpaths="#path7,0,1|" id="path-effect56" xmlns:inkscape="http://www.inkscape.org/namespaces/inkscape"/>
    <inkscape:path-effect effect="fill_between_many" method="originald" linkedpaths="#path8,0,1|" id="path-effect57" xmlns:inkscape="http://www.inkscape.org/namespaces/inkscape"/>
    <inkscape:path-effect effect="fill_between_many" method="originald" linkedpaths="#path9,0,1|" id="path-effect58" xmlns:inkscape="http://www.inkscape.org/namespaces/inkscape"/>
    <inkscape:path-effect effect="fill_between_many" method="originald" linkedpaths="#path10,0,1|" id="path-effect59" xmlns:inkscape="http://www.inkscape.org/namespaces/inkscape"/>
    <inkscape:path-effect effect="fill_between_many" method="originald" linkedpaths="#path11,0,1|" id="path-effect60" xmlns:inkscape="http://www.inkscape.org/namespaces/inkscape"/>
    <inkscape:path-effect effect="fill_between_many" method="originald" linkedpaths="#path12,0,1|" id="path-effect61" xmlns:inkscape="http://www.inkscape.org/namespaces/inkscape"/>
    <inkscape:path-effect effect="fill_between_many" method="originald" linkedpaths="#path13,0,1|" id="path-effect62" xmlns:inkscape="http://www.inkscape.org/namespaces/inkscape"/>
    <inkscape:path-effect effect="fill_between_many" method="originald" linkedpaths="#path14,0,1|" id="path-effect63" xmlns:inkscape="http://www.inkscape.org/namespaces/inkscape"/>
    <inkscape:path-effect effect="fill_between_many" method="originald" linkedpaths="#path15,0,1|" id="path-effect64" xmlns:inkscape="http://www.inkscape.org/namespaces/inkscape"/>
    <inkscape:path-effect effect="fill_between_many" method="originald" linkedpaths="#path16,0,1|" id="path-effect65" xmlns:inkscape="http://www.inkscape.org/namespaces/inkscape"/>
    <inkscape:path-effect effect="fill_between_many" method="originald" linkedpaths="#path17,0,1|" id="path-effect66" xmlns:inkscape="http://www.inkscape.org/namespaces/inkscape"/>
    <inkscape:path-effect effect="fill_between_many" method="originald" linkedpaths="#path18,0,1|" id="path-effect67" xmlns:inkscape="http://www.inkscape.org/namespaces/inkscape"/>
    <inkscape:path-effect effect="fill_between_many" method="originald" linkedpaths="#path19,0,1|" id="path-effect68" xmlns:inkscape="http://www.inkscape.org/namespaces/inkscape"/>
    <inkscape:path-effect effect="fill_between_many" method="originald" linkedpaths="#path20,0,1|" id="path-effect69" xmlns:inkscape="http://www.inkscape.org/namespaces/inkscape"/>
    <inkscape:path-effect effect="fill_between_many" method="originald" linkedpaths="#path21,0,1|" id="path-effect70" xmlns:inkscape="http://www.inkscape.org/namespaces/inkscape"/>
    <inkscape:path-effect effect="fill_between_many" method="originald" linkedpaths="#path22,0,1|" id="path-effect71" xmlns:inkscape="http://www.inkscape.org/namespaces/inkscape"/>
    <inkscape:path-effect effect="fill_between_many" method="originald" linkedpaths="#path23,0,1|" id="path-effect72" xmlns:inkscape="http://www.inkscape.org/namespaces/inkscape"/>
    <inkscape:path-effect effect="fill_between_many" method="originald" linkedpaths="#path24,0,1|" id="path-effect73" xmlns:inkscape="http://www.inkscape.org/namespaces/inkscape"/>
    <inkscape:path-effect effect="fill_between_many" method="originald" linkedpaths="#path25,0,1|" id="path-effect74" xmlns:inkscape="http://www.inkscape.org/namespaces/inkscape"/>
  </defs><g><path xmlns:inkscape="http://www.inkscape.org/namespaces/inkscape" inkscape:original-d="M 0,0" inkscape:path-effect="#path-effect50" d="m 752.62414,3617.122 c -1.0519,-1.702 2.8484,-10.1009 8.6671,-18.6645 20.7869,-30.5928 19.891,-26.3824 21.2818,-100.0193 1.7165,-90.8763 -0.5664,-96.7616 -49.7367,-128.2153 -21.8288,-13.9637 -32.7209,-11.7496 -15.6531,3.1822 9.9555,8.7096 11.5611,12.0913 11.7644,24.7783 0.4918,30.6887 -19.9584,52.7201 -62.1854,66.9932 l -27.8102,9.4003 -10.8388,-14.6384 c -5.9612,-8.0513 -14.2304,-19.3887 -18.3759,-25.1943 l -7.5372,-10.5559 -9.8134,11.1768 c -12.9187,14.7137 -19.9396,18.2628 -40.8732,20.662 -12.8127,1.4685 -23.939,0.1971 -41.8698,-4.784 l -24.4199,-6.7839 -2.5647,-19.2114 c -1.4106,-10.5662 -2.1107,-29.6455 -1.556,-42.3983 1.1243,-25.8453 6.7922,-36.7142 23.9422,-45.9118 l 9.9518,-5.3373 -10.6378,-11.6079 c -9.7585,-10.6483 -12.5769,-17.638 -25.941,-64.3329 -1.1204,-3.9146 4.9582,-10.0189 21.6483,-21.7401 12.7633,-8.9633 25.1528,-16.2969 27.532,-16.2969 2.3793,0 4.3261,-1.4493 4.3261,-3.2208 0,-1.7714 -1.0871,-3.229 -2.4156,-3.2392 -1.3286,-0.014 -13.0082,-9.7932 -25.9546,-21.7401 l -23.539,-21.7216 5.3534,-12.883 c 14.0531,-33.8197 19.1681,-42.8566 31.4452,-55.5578 12.2724,-12.6966 14.46,-13.6883 30.1948,-13.6883 16.8788,0 16.9481,-0.042 13.8228,-8.2615 -4.5715,-12.024 -3.8621,-31.7157 2.1504,-59.6951 l 5.2914,-24.6237 19.3366,-2.0211 c 31.1591,-3.2568 56.4712,-2.3456 67.9381,2.4456 10.6979,4.4698 22.7385,18.1361 24.9602,28.3298 1.074,4.9284 1.7656,4.9679 7.6227,0.4356 4.6025,-3.5615 5.2581,-5.4267 2.2966,-6.5334 -8.8522,-3.3077 -23.799,-18.4055 -29.7289,-30.0291 -8.9245,-17.4933 -10.3954,-33.5785 -5.5864,-61.0846 l 4.2234,-24.1557 14.3976,-2.5518 c 33.4764,-5.9333 57.3961,-6.2697 72.7922,-1.0237 18.6455,6.3531 17.293,6.4309 17.293,-0.9946 0,-5.8409 7.4179,-22.0286 14.4935,-31.6286 6.8305,-9.2675 16.8055,-18.0799 35.03572,-30.9522 10.4126,-7.3523 20.8761,-14.7819 23.2523,-16.5103 3.1149,-2.2655 7.2688,-0.4095 14.886,6.6509 5.8111,5.3863 18.20471,15.455 27.54181,22.3749 16.762,12.4228 32.9454,37.1982 32.9454,50.4367 0,6.5204 6.4877,7.6954 12.0082,2.1748 6.5531,-6.5532 45.7419,-6.7512 69.9313,-0.3534 26.26203,6.946 27.61773,9.3504 28.57783,50.6886 0.5049,21.737 -0.5538,27.7158 -6.7706,38.2354 -4.2763,7.2362 -5.6281,11.8202 -3.2207,10.9226 26.6849,-9.9498 27.5586,-10.0352 60.1473,-5.8822 24.8734,3.1699 32.717,5.3469 33.9049,9.4108 10.3264,35.3262 12.0993,66.9855 4.5759,81.7149 -2.4692,4.8346 -1.5795,5.3184 6.7268,3.6572 15.6618,-3.1325 36.1589,8.957 49.6592,29.2902 6.3496,9.5633 12.5263,21.4762 13.7259,26.4731 1.1996,4.997 4.3397,13.3629 6.9782,18.5911 4.7935,9.4981 4.782,9.5199 -14.5666,27.5372 -10.6501,9.9173 -22.6048,20.1834 -26.5659,22.8135 -7.1092,4.7204 -6.9586,4.9343 11.699,16.6049 10.3956,6.5025 23.0794,15.2378 28.186,19.4116 8.6347,7.0575 9.0356,8.3641 5.7255,18.6626 -1.9576,6.0905 -5.9554,18.8799 -8.884,28.4211 -2.9287,9.541 -10.0511,22.585 -15.8275,28.9866 l -10.5027,11.6395 12.4719,7.8654 c 8.0301,5.0641 13.8958,11.9464 16.4699,19.3244 4.371,12.5279 5.0513,47.9518 1.372,71.4487 -2.5853,16.511 2.0207,14.1271 -48.759,25.2359 -22.3067,4.8799 -48.5539,-4.1584 -63.4357,-21.8444 l -7.8829,-9.3682 -18.672,23.7204 c -17.5295,22.2691 -24.8223,27.546 -28.9157,20.9228 -0.9509,-1.5388 -7.1962,-3.7244 -13.8783,-4.8569 -17.37303,-2.9446 -42.22573,-17.7253 -53.55203,-31.8491 -7.6983,-9.5997 -9.9818,-15.9769 -10.9565,-30.5971 -1.0928,-16.3924 -0.2857,-19.4662 7.175,-27.327 4.6235,-4.8714 9.7972,-8.857 11.4968,-8.857 1.6998,0 3.0905,-1.4494 3.0905,-3.2208 0,-7.5204 -16.7641,-2.213 -34.6886,10.9823 -39.5832,29.1394 -44.0999,42.6147 -41.1206,122.6788 2.317,62.2655 3.9865,70.5276 19.1504,94.7755 6.0113,9.6125 10.1938,19.3955 9.294,21.74 -1.2962,3.3781 -18.2342,4.2627 -81.61971,4.2627 -47.67182,0 -80.75682,-1.2501 -81.89672,-3.0944 z" id="path51" style="fill:#ffffff"/><path id="path1" style="fill:#1a1a1a;stroke-width:3.22074" d="m 752.62414,3617.122 c -1.0519,-1.702 2.8484,-10.1009 8.6671,-18.6645 20.7869,-30.5928 19.891,-26.3824 21.2818,-100.0193 1.7165,-90.8763 -0.5664,-96.7616 -49.7367,-128.2153 -21.8288,-13.9637 -32.7209,-11.7496 -15.6531,3.1822 9.9555,8.7096 11.5611,12.0913 11.7644,24.7783 0.4918,30.6887 -19.9584,52.7201 -62.1854,66.9932 l -27.8102,9.4003 -10.8388,-14.6384 c -5.9612,-8.0513 -14.2304,-19.3887 -18.3759,-25.1943 l -7.5372,-10.5559 -9.8134,11.1768 c -12.9187,14.7137 -19.9396,18.2628 -40.8732,20.662 -12.8127,1.4685 -23.939,0.1971 -41.8698,-4.784 l -24.4199,-6.7839 -2.5647,-19.2114 c -1.4106,-10.5662 -2.1107,-29.6455 -1.556,-42.3983 1.1243,-25.8453 6.7922,-36.7142 23.9422,-45.9118 l 9.9518,-5.3373 -10.6378,-11.6079 c -9.7585,-10.6483 -12.5769,-17.638 -25.941,-64.3329 -1.1204,-3.9146 4.9582,-10.0189 21.6483,-21.7401 12.7633,-8.9633 25.1528,-16.2969 27.532,-16.2969 2.3793,0 4.3261,-1.4493 4.3261,-3.2208 0,-1.7714 -1.0871,-3.229 -2.4156,-3.2392 -1.3286,-0.014 -13.0082,-9.7932 -25.9546,-21.7401 l -23.539,-21.7216 5.3534,-12.883 c 14.0531,-33.8197 19.1681,-42.8566 31.4452,-55.5578 12.2724,-12.6966 14.46,-13.6883 30.1948,-13.6883 16.8788,0 16.9481,-0.042 13.8228,-8.2615 -4.5715,-12.024 -3.8621,-31.7157 2.1504,-59.6951 l 5.2914,-24.6237 19.3366,-2.0211 c 31.1591,-3.2568 56.4712,-2.3456 67.9381,2.4456 10.6979,4.4698 22.7385,18.1361 24.9602,28.3298 1.074,4.9284 1.7656,4.9679 7.6227,0.4356 4.6025,-3.5615 5.2581,-5.4267 2.2966,-6.5334 -8.8522,-3.3077 -23.799,-18.4055 -29.7289,-30.0291 -8.9245,-17.4933 -10.3954,-33.5785 -5.5864,-61.0846 l 4.2234,-24.1557 14.3976,-2.5518 c 33.4764,-5.9333 57.3961,-6.2697 72.7922,-1.0237 18.6455,6.3531 17.293,6.4309 17.293,-0.9946 0,-5.8409 7.4179,-22.0286 14.4935,-31.6286 6.8305,-9.2675 16.8055,-18.0799 35.03572,-30.9522 10.4126,-7.3523 20.8761,-14.7819 23.2523,-16.5103 3.1149,-2.2655 7.2688,-0.4095 14.886,6.6509 5.8111,5.3863 18.20471,15.455 27.54181,22.3749 16.762,12.4228 32.9454,37.1982 32.9454,50.4367 0,6.5204 6.4877,7.6954 12.0082,2.1748 6.5531,-6.5532 45.7419,-6.7512 69.9313,-0.3534 26.26203,6.946 27.61773,9.3504 28.57783,50.6886 0.5049,21.737 -0.5538,27.7158 -6.7706,38.2354 -4.2763,7.2362 -5.6281,11.8202 -3.2207,10.9226 26.6849,-9.9498 27.5586,-10.0352 60.1473,-5.8822 24.8734,3.1699 32.717,5.3469 33.9049,9.4108 10.3264,35.3262 12.0993,66.9855 4.5759,81.7149 -2.4692,4.8346 -1.5795,5.3184 6.7268,3.6572 15.6618,-3.1325 36.1589,8.957 49.6592,29.2902 6.3496,9.5633 12.5263,21.4762 13.7259,26.4731 1.1996,4.997 4.3397,13.3629 6.9782,18.5911 4.7935,9.4981 4.782,9.5199 -14.5666,27.5372 -10.6501,9.9173 -22.6048,20.1834 -26.5659,22.8135 -7.1092,4.7204 -6.9586,4.9343 11.699,16.6049 10.3956,6.5025 23.0794,15.2378 28.186,19.4116 8.6347,7.0575 9.0356,8.3641 5.7255,18.6626 -1.9576,6.0905 -5.9554,18.8799 -8.884,28.4211 -2.9287,9.541 -10.0511,22.585 -15.8275,28.9866 l -10.5027,11.6395 12.4719,7.8654 c 8.0301,5.0641 13.8958,11.9464 16.4699,19.3244 4.371,12.5279 5.0513,47.9518 1.372,71.4487 -2.5853,16.511 2.0207,14.1271 -48.759,25.2359 -22.3067,4.8799 -48.5539,-4.1584 -63.4357,-21.8444 l -7.8829,-9.3682 -18.672,23.7204 c -17.5295,22.2691 -24.8223,27.546 -28.9157,20.9228 -0.9509,-1.5388 -7.1962,-3.7244 -13.8783,-4.8569 -17.37303,-2.9446 -42.22573,-17.7253 -53.55203,-31.8491 -7.6983,-9.5997 -9.9818,-15.9769 -10.9565,-30.5971 -1.0928,-16.3924 -0.2857,-19.4662 7.175,-27.327 4.6235,-4.8714 9.7972,-8.857 11.4968,-8.857 1.6998,0 3.0905,-1.4494 3.0905,-3.2208 0,-7.5204 -16.7641,-2.213 -34.6886,10.9823 -39.5832,29.1394 -44.0999,42.6147 -41.1206,122.6788 2.317,62.2655 3.9865,70.5276 19.1504,94.7755 6.0113,9.6125 10.1938,19.3955 9.294,21.74 -1.2962,3.3781 -18.2342,4.2627 -81.61971,4.2627 -47.67182,0 -80.75682,-1.2501 -81.89672,-3.0944 z m 146.46623,-10.8195 c 0,-1.6719 -2.7516,-7.559 -6.1146,-13.0822 -13.3624,-21.9459 -16.0079,-37.5378 -16.7882,-98.9486 -0.414,-32.5866 0.4102,-64.3211 1.8316,-70.521 3.9024,-17.0223 19.5772,-37.5626 40.315,-52.8288 28.7585,-21.1708 35.2769,-23.067 51.82,-15.0743 7.5865,3.6655 14.287,6.1709 14.8901,5.5679 0.6031,-0.6031 -1.7537,-4.72 -5.2374,-9.1486 -4.7814,-6.0788 -5.4239,-8.962 -2.6216,-11.7643 5.005,-5.0052 29.46293,-4.6888 50.03313,0.6471 9.2432,2.3976 16.8057,3.4111 16.8057,2.2521 0,-1.1589 -6.522,-5.2758 -14.4934,-9.1486 -16.3912,-7.9634 -17.5645,-10.9579 -7.2467,-18.4947 7.125,-5.2045 7.0574,-5.2556 -4.0259,-3.0316 -6.1999,1.2441 -12.7219,3.3552 -14.4934,4.6912 -1.7714,1.336 -9.01803,4.2548 -16.10383,6.4862 -7.0856,2.2314 -27.9523,11.1163 -46.3706,19.7443 -31.0814,14.5598 -42.1999,18.2414 -42.1999,13.9732 0,-0.9426 2.1,-6.7399 4.6667,-12.883 2.5667,-6.143 4.248,-11.1692 3.736,-11.1692 -0.5118,0 -9.9707,9.0401 -21.0197,20.0891 -17.5324,17.5325 -20.4888,19.3752 -23.2288,14.4788 -1.86681,-3.3359 -2.74521,-35.4236 -2.16631,-79.1531 l 0.9734,-73.5426 8.92331,-12.8666 c 11.1433,-16.0674 53.0169,-40.9937 68.8654,-40.9937 6.5458,0 10.782,-1.6005 10.782,-4.0737 0,-6.5492 9.8396,-10.0484 35.5273,-12.634 21.52103,-2.1663 22.95323,-2.7131 13.5891,-5.1879 -11.692,-3.0899 -13.4857,-8.8099 -4.5187,-14.41 7.30993,-4.565 27.83363,-30.0706 24.11393,-29.9671 -1.4774,0.041 -8.4837,5.3004 -15.5693,11.6874 -17.11363,15.4261 -47.22153,35.7327 -54.97673,37.0797 -5.1618,0.8964 -6.1369,-0.6976 -5.7426,-9.3876 0.2612,-5.7571 0.016,-10.4675 -0.5464,-10.4675 -0.5617,0 -3.3651,7.0567 -6.2299,15.6816 -4.9063,14.7717 -6.4715,16.2638 -26.9751,25.7146 -11.9717,5.5181 -26.2772,10.935 -31.79,12.0375 -15.70251,3.1406 -19.95601,-6.5798 -23.98281,-54.8054 -2.8515,-34.1517 -2.5872,-44.2791 1.6449,-63.0193 5.4923,-24.3205 16.04531,-43.6722 29.65231,-54.3755 4.7846,-3.7636 7.1653,-6.8428 5.2907,-6.8428 -1.8746,0 -10.2229,5.2017 -18.5518,11.5594 -13.22071,10.0915 -15.73601,10.967 -19.80821,6.8946 -5.7567,-5.7565 -10.4533,-25.1586 -10.5554,-43.6049 -0.046,-8.4153 -1.3447,-13.0947 -3.2976,-11.8877 -1.7714,1.0948 -3.2289,8.0647 -3.2388,15.4886 -0.023,17.0531 -5.154,35.8115 -11.1596,40.7957 -3.7335,3.0985 -8.8498,0.8433 -26.51612,-11.6873 l -21.8902,-15.5265 16.7996,17.1931 c 22.89992,23.4363 30.62042,44.288 30.57132,82.5664 -0.045,34.5462 -5.5879,71.2019 -12.3307,81.5334 -5.84452,8.9556 -14.15542,7.8598 -44.85352,-5.9135 -22.0929,-9.9125 -23.2462,-11.1054 -31.0016,-32.071 l -5.3868,-14.5621 -0.2496,12.0778 c -0.1371,6.6429 -1.5162,12.0778 -3.0647,12.0778 -7.3321,0 -34.3565,-18.4439 -54.9194,-37.4821 -12.5314,-11.6019 -22.7842,-20.2536 -22.7842,-19.226 0,1.0277 8.0365,11.3419 17.8587,22.9204 18.4759,21.779 19.6803,27.3462 5.9168,27.3462 -13.5481,0 -5.78,5.1065 9.0306,5.9363 19.8934,1.1148 38.0914,6.5267 40.1712,11.9466 0.9841,2.5643 5.2936,4.6624 9.5769,4.6624 11.3113,0 49.6046,20.1759 62.0887,32.7134 19.66222,19.7461 20.62852,25.2115 18.12872,102.5492 -1.231,38.0903 -3.55502,70.6128 -5.16432,72.2721 -3.5059,3.615 -14.8814,-6.3005 -32.4289,-28.2671 -14.0043,-17.5309 -15.3843,-17.2795 -6.0107,1.0944 11.9154,23.3559 7.3612,24.7344 -26.0795,7.894 -27.7883,-13.994 -91.1392,-40.1392 -96.9201,-39.9994 -2.3211,0.056 -0.2342,3.0757 4.6371,6.7101 11.5695,8.6318 11.175,11.2478 -2.3707,15.7183 -19.9149,6.5725 -15.0426,8.8059 15.7023,7.1977 33.1815,-1.7357 37.7806,0.4229 29.1068,13.661 -6.2,9.4623 -5.378,9.8471 7.1151,3.3316 16.6882,-8.7036 22.2137,-6.9384 56.0083,17.893 37.6391,27.6562 43.1143,46.892 38.981,136.9486 -2.5919,56.4722 -2.9807,58.8443 -12.8162,78.1995 -5.5788,10.9783 -10.1433,20.7483 -10.1433,21.711 0,0.9628 28.9868,1.3713 64.41502,0.9081 37.64571,-0.4922 64.41511,-2.1056 64.41511,-3.8821 z M 694.40344,3441.8717 c 12.9202,-8.4655 24.3248,-29.0341 24.3248,-43.8705 0,-11.2038 -1.4422,-13.8735 -10.4674,-19.3764 -19.7928,-12.0679 -27.1837,-6.8785 -39.6291,27.8256 -12.9905,36.2239 -23.9807,53.245 -23.9807,37.14 0,-9.8551 12.1577,-54.1856 17.9126,-65.3143 5.0949,-9.8522 5.071,-10.6544 -0.4358,-14.681 -7.6656,-5.6054 -28.4121,-5.4322 -39.555,0.3301 -16.0969,8.324 -20.971,30.1767 -11.6869,52.3969 2.6862,6.4289 11.3765,19.2883 19.3116,28.5766 l 14.4277,16.8876 20.7675,-7.2566 c 11.4223,-3.9914 24.477,-9.6874 29.0107,-12.658 z m 345.16426,3.619 c 24.4707,-31.4113 29.6562,-51.0595 18.4719,-69.9929 -6.1914,-10.4812 -25.8482,-17.612 -39.9884,-14.5064 -12.0381,2.6441 -13.5473,5.4063 -9.0658,16.5933 5.5364,13.8204 18.2554,66.7656 16.6999,69.5164 -4.2199,7.4631 -9.5232,-1.4649 -23.437,-39.4542 -3.56823,-9.7427 -9.96803,-22.0415 -14.22173,-27.3307 l -7.734,-9.6165 -11.6723,5.5661 c -33.8784,16.1555 -16.8244,59.8999 30.3133,77.7552 11.51423,4.3614 22.40333,8.0308 24.19813,8.1542 1.7947,0.1235 9.1909,-7.3846 16.436,-16.6845 z m 118.7931,-0.4933 c 18.7643,-4.9347 19.9431,-7.6894 20.5538,-48.0296 0.5626,-37.1641 -8.6956,-50.3152 -35.5118,-50.4435 -12.1229,-0.058 -16.8568,1.7021 -24.9763,9.2868 -5.51,5.1472 -9.2207,11.3069 -8.2458,13.6883 0.9748,2.3813 13.3012,13.7112 27.3918,25.1776 22.5509,18.351 31.0678,29.0737 23.0929,29.0737 -1.3895,0 -12.8842,-7.1578 -25.5438,-15.9062 -12.6595,-8.7483 -27.2894,-18.1153 -32.5107,-20.8154 -8.731,-4.5149 -9.9208,-4.437 -14.8131,0.9689 -2.9259,3.2331 -6.6731,10.5972 -8.3273,16.3647 -9.4388,32.9116 30.3422,53.4019 78.8903,40.6347 z m -580.38596,-9.2594 c 13.6131,-10.3831 17.2895,-23.1651 10.9945,-38.2249 -8.6541,-20.7036 -10.9672,-20.6534 -44.3879,0.9643 -35.1157,22.7142 -38.4227,24.2938 -38.4227,18.3539 0,-2.4133 12.3193,-14.4751 27.3763,-26.8041 15.057,-12.3289 27.3764,-24.1494 27.3764,-26.2676 0,-2.1183 -4.4592,-7.6035 -9.9093,-12.1896 -14.0716,-11.8404 -37.2773,-11.8051 -49.1571,0.075 -10.9695,10.9693 -13.3175,25.0127 -9.8194,58.7285 l 2.8604,27.5706 16.1038,3.9578 c 8.8571,2.1768 24.9881,3.6361 35.8468,3.2428 15.8085,-0.5726 22.014,-2.447 31.1382,-9.4064 z m 503.27886,-54.1662 c 2.4318,-3.9346 -6.9475,-14.9429 -10.0706,-11.8198 -2.664,2.6641 1.5305,15.3497 5.0754,15.3497 1.5476,0 3.7954,-1.5885 4.9952,-3.5299 z m -482.01616,-8.548 c 4.343,-8.3474 1.5047,-9.1518 -7.7133,-2.1859 -5.4305,4.1037 -5.6943,5.3079 -1.7036,7.7743 2.5971,1.6051 4.9301,2.6349 5.1843,2.2884 0.2541,-0.3466 2.1588,-3.8911 4.2326,-7.8768 z m 505.72256,-20.3909 7.7938,-6.4882 -11.7412,-9.6783 c -7.1454,-5.8896 -13.2323,-14.6543 -15.5502,-22.3911 -2.0949,-6.9923 -5.7949,-12.7132 -8.2221,-12.7132 -6.1176,0 -42.8786,18.8351 -42.8786,21.9694 0,1.4038 9.8641,7.3241 21.9202,13.1565 12.056,5.8323 25.4624,13.3267 29.792,16.6543 9.6617,7.4258 9.3445,7.4344 18.8861,-0.5094 z m -516.97626,-3.9152 c 5.4814,-4.0683 18.9658,-11.5997 29.9653,-16.7364 14.3903,-6.7202 19.1192,-10.3992 16.8621,-13.1189 -4.6567,-5.611 -41.2392,-21.3812 -44.6742,-19.2583 -1.6301,1.0075 -3.9342,6.2489 -5.1199,11.6475 -1.1858,5.3986 -7.2355,14.8953 -13.4439,21.1037 -10.8629,10.8629 -11.0754,11.5228 -5.6445,17.5238 7.2273,7.986 9.9217,7.8442 22.0551,-1.1614 z m 88.8746,2.5661 c 3.4537,-4.1616 2.1691,-4.8312 -9.2679,-4.8312 -7.3025,0 -13.2773,1.5349 -13.2773,3.4109 0,1.8759 1.4379,2.5221 3.1952,1.436 1.7574,-1.0861 5.7431,-0.4911 8.8571,1.3223 3.114,1.8135 5.8467,3.3413 6.0726,3.3951 0.2262,0.054 2.2152,-2.0761 4.4203,-4.7331 z m 333.34146,1.8668 c 5.3978,-2.1067 4.6188,-2.7875 -4.8311,-4.223 -12.55413,-1.9072 -14.50043,-1.2664 -11.39883,3.7523 2.4291,3.9301 7.02443,4.0634 16.22993,0.4707 z m -209.92806,-70.6461 c -0.3453,-0.6288 -5.2152,4.0815 -10.8222,10.4676 -5.607,6.3859 -12.1328,11.6108 -14.5019,11.6108 -11.4552,0 -8.0948,9.6432 12.8712,36.9359 l 9.8177,12.7804 1.6315,-35.3256 c 0.8971,-19.4291 1.3489,-35.8402 1.0037,-36.4691 z m 88.40613,52.6157 c 17.4947,-22.1681 18.9982,-26.2019 10.7426,-28.8221 -3.6174,-1.1482 -10.6019,-6.3519 -15.5211,-11.5637 -4.9191,-5.2118 -9.674,-9.476 -10.5663,-9.476 -0.8923,0 -1.6752,15.218 -1.7397,33.8178 -0.065,18.5999 0.661,33.737 1.6121,33.6382 0.9509,-0.099 7.9136,-8.0162 15.4724,-17.5942 z m -138.92533,-8.0641 c -4.3871,-10.434 -5.1825,-10.8261 -20.3246,-10.0224 -12.1106,0.6427 -17.7978,-0.7674 -24.5663,-6.0917 -10.706,-8.4213 -18.3409,-22.4589 -18.3409,-33.7215 0,-7.9661 -0.5662,-8.2377 -12.0779,-5.7963 -18.2365,3.8677 -69.2057,1.6831 -72.2408,-3.0962 -1.6358,-2.576 -2.555,-1.1321 -2.5766,4.0474 -0.028,7.3044 2.8796,9.0566 31.353,18.8771 35.4923,12.2412 105.3987,41.251 115.1093,47.7681 8.233,5.5254 9.4071,1.6925 3.6648,-11.9645 z m 180.09583,10.2371 c 1.6829,-1.4948 13.2051,-6.8368 25.605,-11.8711 12.3999,-5.0342 23.9946,-10.1825 25.766,-11.4406 1.7714,-1.2581 8.2934,-3.8081 14.4933,-5.6667 34.36823,-10.3027 75.80473,-26.6565 76.57613,-30.2224 0.6789,-3.1382 -7.6763,-4.1067 -35.4282,-4.1067 -19.9742,0 -39.57773,-1.1846 -43.56343,-2.6326 -6.4422,-2.3403 -7.2467,-1.6075 -7.2467,6.602 0,12.7968 -15.4064,35.4168 -26.8362,39.4012 -5.1703,1.8024 -14.8073,2.4125 -21.4154,1.3558 -9.91,-1.5846 -12.3142,-0.8746 -13.7238,4.0526 -0.9398,3.2855 -2.753,8.5101 -4.0292,11.6101 -2.4787,6.0211 4.1035,7.9808 9.8025,2.9184 z m 225.12393,-17.8337 c 10.57,-10.3424 15.1771,-18.5014 20.9038,-37.0197 l 7.3455,-23.7535 -9.2098,-7.405 c -22.4159,-18.0233 -42.5894,-27.7926 -57.8689,-28.0236 -13.1407,-0.1988 -16.4187,1.1491 -24.3284,10.0015 -7.4192,8.3035 -9.1415,13.2196 -9.1415,26.0939 0,8.7245 1.2347,16.626 2.7438,17.5586 1.5092,0.9328 16.3649,-2.0698 33.0127,-6.6723 42.1192,-11.6442 47.9831,-12.4685 47.9831,-6.7449 0,3.137 -11.6283,8.6975 -34.4817,16.4888 -18.9648,6.4656 -35.8548,13.129 -37.5333,14.8074 -1.9216,1.9217 -1.0284,8.3493 2.4126,17.3592 10.292,26.9495 34.926,30.0454 58.1621,7.3096 z m -599.10316,10.9697 c 9.9512,-3.7835 21.1173,-21.0391 21.1339,-32.6597 0.014,-7.8188 -2.3259,-9.1995 -32.5512,-19.2296 -33.3459,-11.0655 -44.7839,-16.8512 -40.9312,-20.704 2.3415,-2.3415 15.2841,0.4141 55.2314,11.7594 29.7469,8.4484 32.1919,6.9887 30.0918,-17.9653 -3.3501,-39.8097 -45.3303,-41.6315 -90.2566,-3.9168 l -9.1816,7.7076 8.2815,27.1512 c 8.4587,27.7315 14.8023,36.6622 32.627,45.9327 11.3338,5.8945 14.4881,6.1321 25.555,1.9245 z m 184.0352,-26.9242 c 0.9073,-2.3642 -2.0369,-17.0197 -6.5425,-32.5678 -4.5058,-15.5481 -8.1921,-30.281 -8.1921,-32.7401 0,-8.7822 6.8528,-4.2607 11.5296,7.607 14.2429,36.143 21.8998,49.1165 28.9883,49.1165 9.9581,0 27.1177,-20.3186 27.1177,-32.11 0,-18.0534 -5.1857,-24.9362 -26.3974,-35.0351 -33.4626,-15.9317 -36.7352,-16.0752 -49.8363,-2.1856 -19.8981,21.0958 -25.2701,43.5773 -15.3884,64.4014 2.7502,5.7956 8.1852,12.0763 12.0779,13.957 10.0646,4.8626 24.7005,4.6192 26.6432,-0.4433 z m 225.29883,-5.4551 c 7.8903,-8.2356 9.3446,-12.3886 9.3446,-26.6846 0,-17.5741 -5.4734,-29.408 -22.3631,-48.3505 l -8.1149,-9.1012 -20.9552,6.9735 c -37.5981,12.5118 -51.9585,34.3088 -38.0811,57.8015 4.6068,7.7989 19.5775,19.4528 24.989,19.4528 2.218,0 18.8178,-35.9373 24.3681,-52.7552 3.7462,-11.3509 7.6594,-14.4925 11.1058,-8.916 0.9327,1.5091 -1.9277,16.2835 -6.3564,32.832 -4.4286,16.5485 -7.3257,31.9811 -6.4379,34.2948 3.142,8.1879 22.509,4.8824 32.5011,-5.5471 z m -296.67853,-37.3493 c 10.571,-3.602 17.2726,-8.3713 21.4967,-15.2987 8.5011,-13.9413 7.7097,-22.7244 -3.1418,-34.8691 l -9.3032,-10.4122 -14.0472,12.6869 c -7.726,6.9777 -17.437,16.713 -21.5801,21.6339 -7.2457,8.6058 -16.6227,12.0361 -16.6227,6.0808 0,-3.5682 27.176,-40.7249 31.9385,-43.6682 6.9822,-4.3154 3.2196,-11.8805 -8.3035,-16.6952 -14.1115,-5.8962 -30.0318,-3.6903 -38.1558,5.2866 -8.4311,9.3163 -9.5332,33.6156 -2.5456,56.1296 5.5977,18.0362 6.5702,19.194 17.1367,20.3998 6.1613,0.7031 11.8062,1.8815 12.5443,2.6187 2.8041,2.8007 15.7903,1.1476 30.5837,-3.8929 z m 382.93746,2.2459 c 6.4026,-2.4342 8.8922,-7.2099 13.4461,-25.7926 6.7869,-27.6946 4.7116,-42.4218 -7.3158,-51.9133 -6.8751,-5.4256 -11.7255,-6.5614 -22.7574,-5.329 -7.711,0.8615 -16.1628,3.7089 -18.7816,6.3277 -4.2015,4.2015 -2.8365,7.3997 11.6045,27.1923 14.8765,20.3891 20.2802,33.2284 13.9506,33.1464 -1.3286,-0.016 -11.57,-10.1621 -22.7586,-22.5444 -17.469,-19.3326 -21.21823,-22.0447 -26.53793,-19.1978 -7.1937,3.8501 -15.9237,19.3632 -15.9237,28.2962 0,8.0318 10.8872,21.7204 21.8933,27.5267 10.05503,5.3046 41.66863,6.6646 53.18053,2.2878 z m -250.15586,-36.605 c -4.0448,-16.0602 -22.0309,-34.7298 -44.2269,-45.9074 l -22.0525,-11.1056 -16.3056,6.427 c -8.9681,3.5349 -19.7812,8.7044 -24.0291,11.4877 l -7.7235,5.0606 10.0357,14.2378 10.0356,14.2376 8.6849,-10.4031 8.6849,-10.403 17.2889,6.0942 c 24.9224,8.7853 45.3216,19.4656 52.6348,27.5581 6.8691,7.6011 9.9193,4.415 6.9728,-7.2839 z m 75.23873,7.8967 c 0,-4.09 27.9771,-18.4098 51.1498,-26.1806 l 20.5529,-6.8922 8.7696,10.5045 8.7696,10.5046 4.1605,-7.9122 c 2.2883,-4.3519 6.1229,-9.0714 8.5214,-10.4879 7.8863,-4.6578 4.5767,-11.5198 -9.5482,-19.7976 -21.6567,-12.6916 -32.8054,-13.7357 -50.0882,-4.6905 -18.1633,9.5059 -41.4671,30.4395 -44.0811,39.5978 -1.066,3.7347 -2.6455,9.3267 -3.51,12.4267 -0.8646,3.1 -0.026,5.6362 1.8659,5.6362 1.8908,0 3.4378,-1.2188 3.4378,-2.7088 z M 591.90774,3212.117 c -0.9525,-0.9524 -4.1829,-0.791 -7.1789,0.3586 -5.0084,1.9219 -4.9546,2.5628 0.6663,7.9556 5.9178,5.6775 6.1476,5.6661 7.1789,-0.3586 0.5859,-3.4231 0.2864,-7.0031 -0.6663,-7.9556 z m 497.20696,5.4558 c 0,-1.3649 -2.1741,-3.3161 -4.8312,-4.3357 -3.5283,-1.3539 -4.8311,0.3966 -4.8311,6.4914 0,7.0526 0.7482,7.7241 4.8311,4.3355 2.6571,-2.2051 4.8312,-5.1262 4.8312,-6.4912 z m 53.1423,-16.833 c 5.3143,-2.8301 16.0564,-11.7155 23.8713,-19.745 10.5461,-10.8357 13.3544,-15.6764 10.8937,-18.7776 -1.8235,-2.2982 -5.7402,-11.6142 -8.7038,-20.7023 -2.9634,-9.088 -10.0417,-21.9073 -15.7296,-28.487 -8.4103,-9.7294 -13.1132,-12.2756 -25.1863,-13.6365 -17.8647,-2.0135 -28.8655,3.9911 -36.3999,19.8685 -6.1465,12.9529 -6.5267,20.8426 -1.0826,22.4711 49.6471,14.8519 60.3891,18.5968 60.3891,21.0527 0,5.6685 -5.2186,5.9832 -25.8583,1.5592 -11.4634,-2.4572 -26.2776,-4.5184 -32.9205,-4.5807 l -12.0777,-0.1127 v 17.1528 c 0,18.2717 7.1435,29.1058 20.9348,31.7508 9.8518,1.8895 31.0951,-2.0744 41.8698,-7.8127 z m -556.87336,-2.7392 c 6.2886,-5.9077 7.7353,-10.4748 7.7353,-24.4195 0,-16.5709 -0.3005,-17.1519 -8.857,-17.1285 -9.7892,0.026 -47.3402,5.6343 -56.6592,8.4606 -4.4808,1.3591 -5.6527,0.347 -4.7893,-4.1363 0.8724,-4.5299 8.3796,-7.848 31.6983,-14.0108 34.8423,-9.208 38.1801,-13.6638 25.5472,-34.1043 -7.7539,-12.5461 -17.114,-17.4277 -33.4162,-17.4277 -15.8873,0 -26.2178,10.3686 -40.8269,40.9776 l -13.1618,27.5769 17.4297,17.4296 c 9.5863,9.5863 23.1325,19.5352 30.1027,22.1087 16.4558,6.0755 35.4422,3.8381 45.1972,-5.3263 z m 427.84816,-22.5594 c 11.4746,-6.7702 34.2798,-7.579 47.3039,-1.678 3.933,1.7821 5.7786,0.2239 7.4034,-6.2501 1.1905,-4.7434 1.7317,-9.0288 1.2026,-9.5234 -1.2963,-1.212 -50.7808,-2.4989 -76.11283,-1.9795 -11.219,0.2299 -19.915,1.7751 -19.3245,3.4336 0.8147,2.2881 23.9797,21.2938 27.46073,22.53 0.3416,0.1222 5.7716,-2.8183 12.0667,-6.5326 z m -329.86266,-4.9475 c 7.0476,-4.6639 12.8139,-9.547 12.8139,-10.8512 0,-6.4945 -87.9709,-9.3959 -91.9046,-3.031 -1.157,1.872 -1.2117,6.9578 -0.1208,11.3017 1.9152,7.6308 2.2547,7.7198 10.0286,2.626 9.4446,-6.1884 30.4949,-4.8841 45.164,2.7984 5.2014,2.724 9.8503,5.1065 10.3312,5.2943 0.4808,0.1878 6.6405,-3.4743 13.6882,-8.1382 z m 201.63963,-6.3203 c 28.6205,-11.7915 33.895,-15.4017 40.0081,-27.3845 8.7729,-17.1963 8.0855,-19.0096 -7.208,-19.0096 -17.1822,0 -32.4201,-10.1321 -41.8261,-27.8113 -6.5837,-12.3744 -6.7905,-14.5481 -2.9203,-30.6813 3.6177,-15.08 7.501,-20.7137 29.5283,-42.8385 13.9495,-14.0114 24.6922,-26.1458 23.8725,-26.9655 -2.3972,-2.3972 -25.7904,14.9691 -37.5185,27.8522 -13.0459,14.3309 -24.9522,39.071 -27.33621,56.8021 -2.7157,20.1977 5.20671,95.1744 10.05661,95.1744 0.4799,0 6.4844,-2.3122 13.3436,-5.138 z m -78.63663,-9.3555 c 1.49582,-5.3142 3.56522,-27.0543 4.59882,-48.3112 1.7046,-35.0599 1.1989,-40.4414 -5.44612,-57.9497 -7.3243,-19.2977 -33.6803,-50.1414 -50.5703,-59.1806 -12.9172,-6.9131 -7.6857,1.6867 12.2592,20.1522 32.6338,30.2131 43.01432,63.6353 27.241,87.7084 -6.4873,9.9011 -28.34,20.3744 -42.7138,20.4716 -11.7568,0.08 -12.4136,2.0612 -5.872,17.7175 3.432,8.2138 9.3435,13.4674 23.3504,20.7511 23.4334,12.1858 33.4434,11.8196 37.1528,-1.3593 z m 267.90456,-22.8087 c 3.3201,-8.6524 2.2993,-10.1351 -8.4598,-12.2869 -5.7281,-1.1457 -16.0064,-5.7834 -22.8408,-10.3061 -6.8343,-4.5227 -12.714,-7.7523 -13.066,-7.1767 -0.3519,0.5755 -4.7133,6.5766 -9.6919,13.3358 -4.9787,6.7591 -8.5434,12.7168 -7.9216,13.2392 1.0197,0.8569 41.7194,6.6734 54.7334,7.8222 2.9105,0.257 6.1714,-1.8254 7.2467,-4.6275 z m -424.11616,-3.3919 13.5612,-1.8691 -10.3072,-13.3415 c -5.669,-7.3378 -10.5498,-13.8106 -10.8462,-14.3839 -0.2963,-0.5733 -6.6886,3.4123 -14.2048,8.8571 -7.6473,5.5396 -17.7083,9.8994 -22.8448,9.8994 -7.7641,0 -9.179,1.3054 -9.179,8.4679 0,8.4657 0.014,8.4673 20.1296,6.3535 11.0714,-1.1629 26.2324,-2.9554 33.6912,-3.9834 z m 326.22783,-13.6745 11.2725,-9.7268 -12.883,3.3957 c -15.8142,4.1685 -20.9347,8.1106 -20.9347,16.1168 0,7.3921 5.3074,5.0884 22.5452,-9.7857 z m -259.91013,2.9801 c -1.0642,-4.0695 -7.1993,-8.1361 -17.3709,-11.5147 -16.4968,-5.4793 -28.6903,-17.3712 -28.6903,-27.9807 0,-6.2692 -6.682,-6.6279 -8.7349,-0.4691 -1.2375,3.7127 28.5789,33.8749 42.5395,43.0329 10.6263,6.9709 14.6205,5.971 12.2566,-3.0684 z m 66.8909,-26.2268 c 10.6919,-15.0155 10.8843,-25.2907 0.8151,-43.5263 -5.0011,-9.0569 -16.1437,-22.8013 -24.7615,-30.5432 l -15.6685,-14.0761 -24.5462,12.9322 c -18.9596,9.9889 -26.1937,15.8408 -31.7845,25.7121 -9.4977,16.769 -9.536,34.1899 -0.098,44.4667 8.8869,9.6767 27.9844,16.7249 29.4561,10.8714 0.5407,-2.15 4.27,-17.6779 8.2876,-34.5064 8.2792,-34.6807 12.1698,-43.9713 16.5707,-39.5705 1.8405,1.8406 1.7502,11.5732 -0.2346,25.3066 -5.187,35.8878 -4.4008,55.4476 2.2834,56.8114 12.0207,2.4526 33.3681,-5.0135 39.6801,-13.8779 z m 147.62593,13.4554 c 3.6245,-2.2945 4.1502,-9.5483 2.6331,-36.3368 -1.0424,-18.4084 -2.3555,-35.5751 -2.918,-38.1483 -0.5624,-2.5732 1.1513,-4.6784 3.8084,-4.6784 4.9884,0 18.7268,45.547 19.1293,63.4197 0.266,11.8074 4.0247,13.2609 18.901,7.3085 18.1819,-7.275 25.7263,-22.0988 20.3609,-40.0068 -5.5746,-18.6069 -17.9112,-30.6553 -42.5141,-41.5215 l -21.1616,-9.3464 -16.5122,15.5046 c -18.9824,17.8238 -29.7353,36.7053 -29.7353,52.2134 0,21.0626 31.6953,41.9197 48.0085,31.592 z m 149.50953,-0.5869 c 10.16,-4.6291 21.07,-24.3263 23.2652,-42.0034 0.9581,-7.7154 -0.2557,-23.4139 -2.6973,-34.8854 -4.2445,-19.9424 -4.922,-20.9566 -15.4452,-23.1186 -12.5921,-2.5871 -31.2178,-3.7849 -49.0975,-3.1575 -9.0873,0.3189 -14.901,3.0078 -22.1275,10.2343 -9.065,9.065 -9.6908,11.1385 -8.3269,27.5855 1.1185,13.4869 3.4406,19.7496 9.6107,25.9198 l 8.136,8.1359 15.7373,-18.6282 c 28.6601,-33.9252 39.3675,-44.7515 41.8271,-42.2919 2.6742,2.6741 -5.5049,18.3612 -26.7133,51.2354 -7.6284,11.8244 -13.8698,23.8028 -13.8698,26.6185 0,5.7239 17.942,17.8774 26.4196,17.896 3.0166,0.014 8.9933,-1.5865 13.2816,-3.5404 z m -462.03036,-4.2871 c 17.7675,-9.1878 17.7417,-11.4304 -0.4635,-40.2147 -9.262,-14.644 -19.5673,-30.9368 -22.9008,-36.2061 -3.9405,-6.2285 -4.9615,-10.6799 -2.9183,-12.7232 3.2767,-3.2766 12.1647,5.689 39.5764,39.9219 7.9714,9.955 16.0523,18.1703 17.9578,18.2562 7.5885,0.3426 18.2512,-15.8549 19.8655,-30.177 1.9552,-17.347 -3.7503,-28.0652 -19.1899,-36.0493 -8.2523,-4.2674 -15.5355,-4.9195 -36.7401,-3.2896 -14.5461,1.1181 -28.624,2.8681 -31.2841,3.8889 -6.0246,2.3118 -13.016,29.8879 -13.0038,51.29 0.014,17.4269 9.8915,40.72 19.6969,46.4303 8.0147,4.6674 19.0136,4.2457 29.4039,-1.1274 z M 1004.8,3090.9963 c 5.6928,-5.8735 9.359,-11.6708 8.1469,-12.8829 -3.7956,-3.7957 -7.5718,-2.4125 -7.5718,2.7737 0,2.7376 -3.5574,8.535 -7.90553,12.883 -4.348,4.348 -6.8063,7.9054 -5.4629,7.9054 1.3434,0 7.1004,-4.8055 12.79333,-10.6792 z m -5.98053,-80.3896 c 0.062,-1.3742 -4.5099,-0.1072 -10.1615,2.8153 -9.7781,5.0566 -9.9795,5.5303 -4.1607,9.7851 5.4336,3.9733 6.5658,3.6596 10.1614,-2.8154 2.2256,-4.0077 4.0981,-8.411 4.1608,-9.785 z m -175.32521,-32.1249 2.2755,-24.9608 h -9.2566 c -5.0912,0 -14.31912,-1.4518 -20.50632,-3.2263 -7.8187,-2.2424 -11.5995,-2.1764 -12.3969,0.2162 -0.6312,1.8934 -4.4119,7.2375 -8.4016,11.8758 l -7.2539,8.4332 19.6722,14.4771 c 10.8197,7.9625 21.68062,16.4827 24.13532,18.9341 6.8189,6.8094 9.2506,1.4724 11.7323,-25.7493 z m 83.09771,-5.6363 c 1.486,0 -1.8018,-5.6864 -7.3065,-12.6365 -9.33,-11.7803 -10.711,-12.435 -20.379,-9.6623 -5.7039,1.6359 -14.2818,2.9743 -19.06171,2.9743 h -8.6909 l 1.6911,23.3505 c 0.93,12.8427 2.2383,25.1328 2.9072,27.3114 0.7459,2.4289 10.29051,-2.8654 24.67701,-13.6882 12.9034,-9.7071 24.6767,-17.6492 26.1628,-17.6492 z m 84.369,26.6265 c 17.28513,-12.4863 24.48163,-41.3095 18.83673,-75.4451 -1.8847,-11.3975 -2.6109,-11.9465 -22.36663,-16.9089 -26.4897,-6.654 -41.7804,-6.3864 -58.0819,1.0167 -26.133,11.8679 -33.8225,29.4511 -20.3629,46.5624 8.013,10.1866 14.2876,10.6177 27.1426,1.8649 11.9656,-8.1472 54.4763,-28.807 59.2747,-28.807 10.34393,0 0.1865,10.7679 -26.9667,28.5874 -16.773,11.0076 -31.4248,21.5156 -32.5592,23.3513 -2.3851,3.8591 13.2955,21.4761 22.7966,25.6117 8.5508,3.722 22.5635,1.1904 32.2867,-5.8334 z m -260.35853,-6.0834 c 4.0801,-5.0987 7.4255,-11.0321 7.4344,-13.1851 0.014,-2.1531 -12.0796,-11.8802 -26.863,-21.6158 -29.8077,-19.63 -36.8609,-26.3547 -32.3614,-30.8542 1.8119,-1.8119 13.6223,2.668 30.2996,11.4932 53.5399,28.3321 47.4097,26.5876 56.4519,16.0646 4.3544,-5.0676 7.9171,-12.0782 7.9171,-15.5793 0,-9.9495 -12.0333,-26.9486 -21.7686,-30.7519 -23.8626,-9.3223 -34.183,-10.0943 -58.7066,-4.3911 l -24.112,5.6074 -2.2735,12.8153 c -6.0439,34.0665 -1.6018,56.0811 14.8497,73.5941 7.9006,8.4104 10.1805,9.1033 25.2004,7.6601 13.2897,-1.2769 17.9623,-3.3967 23.932,-10.8573 z m 98.92322,-97.0359 c 2.5463,-40.2688 3.5861,-45.8957 8.4817,-45.8957 5.9896,0 8.7925,17.0525 10.0589,61.1943 0.8202,28.5934 2.0818,32.2075 11.2437,32.2075 12.97361,0 29.96331,-8.8357 33.16071,-17.2455 1.6508,-4.3422 4.6791,-8.9316 6.7296,-10.1989 5.7105,-3.5293 0.6912,-30.2046 -8.2738,-43.9708 -8.0015,-12.2866 -45.70061,-41.3723 -53.43951,-41.2296 -8.1708,0.1507 -39.76022,24.516 -49.30582,38.0304 -12.947,18.3298 -15.3784,46.3156 -5.1499,59.2762 7.3588,9.3243 22.1519,15.2811 35.54032,14.3111 8.0365,-0.5822 8.0574,-0.6707 10.9541,-46.479 z"/><path xmlns:inkscape="http://www.inkscape.org/namespaces/inkscape" inkscape:original-d="M 0,0" inkscape:path-effect="#path-effect50" d="m 752.62414,3617.122 c -1.0519,-1.702 2.8484,-10.1009 8.6671,-18.6645 20.7869,-30.5928 19.891,-26.3824 21.2818,-100.0193 1.7165,-90.8763 -0.5664,-96.7616 -49.7367,-128.2153 -21.8288,-13.9637 -32.7209,-11.7496 -15.6531,3.1822 9.9555,8.7096 11.5611,12.0913 11.7644,24.7783 0.4918,30.6887 -19.9584,52.7201 -62.1854,66.9932 l -27.8102,9.4003 -10.8388,-14.6384 c -5.9612,-8.0513 -14.2304,-19.3887 -18.3759,-25.1943 l -7.5372,-10.5559 -9.8134,11.1768 c -12.9187,14.7137 -19.9396,18.2628 -40.8732,20.662 -12.8127,1.4685 -23.939,0.1971 -41.8698,-4.784 l -24.4199,-6.7839 -2.5647,-19.2114 c -1.4106,-10.5662 -2.1107,-29.6455 -1.556,-42.3983 1.1243,-25.8453 6.7922,-36.7142 23.9422,-45.9118 l 9.9518,-5.3373 -10.6378,-11.6079 c -9.7585,-10.6483 -12.5769,-17.638 -25.941,-64.3329 -1.1204,-3.9146 4.9582,-10.0189 21.6483,-21.7401 12.7633,-8.9633 25.1528,-16.2969 27.532,-16.2969 2.3793,0 4.3261,-1.4493 4.3261,-3.2208 0,-1.7714 -1.0871,-3.229 -2.4156,-3.2392 -1.3286,-0.014 -13.0082,-9.7932 -25.9546,-21.7401 l -23.539,-21.7216 5.3534,-12.883 c 14.0531,-33.8197 19.1681,-42.8566 31.4452,-55.5578 12.2724,-12.6966 14.46,-13.6883 30.1948,-13.6883 16.8788,0 16.9481,-0.042 13.8228,-8.2615 -4.5715,-12.024 -3.8621,-31.7157 2.1504,-59.6951 l 5.2914,-24.6237 19.3366,-2.0211 c 31.1591,-3.2568 56.4712,-2.3456 67.9381,2.4456 10.6979,4.4698 22.7385,18.1361 24.9602,28.3298 1.074,4.9284 1.7656,4.9679 7.6227,0.4356 4.6025,-3.5615 5.2581,-5.4267 2.2966,-6.5334 -8.8522,-3.3077 -23.799,-18.4055 -29.7289,-30.0291 -8.9245,-17.4933 -10.3954,-33.5785 -5.5864,-61.0846 l 4.2234,-24.1557 14.3976,-2.5518 c 33.4764,-5.9333 57.3961,-6.2697 72.7922,-1.0237 18.6455,6.3531 17.293,6.4309 17.293,-0.9946 0,-5.8409 7.4179,-22.0286 14.4935,-31.6286 6.8305,-9.2675 16.8055,-18.0799 35.03572,-30.9522 10.4126,-7.3523 20.8761,-14.7819 23.2523,-16.5103 3.1149,-2.2655 7.2688,-0.4095 14.886,6.6509 5.8111,5.3863 18.20471,15.455 27.54181,22.3749 16.762,12.4228 32.9454,37.1982 32.9454,50.4367 0,6.5204 6.4877,7.6954 12.0082,2.1748 6.5531,-6.5532 45.7419,-6.7512 69.9313,-0.3534 26.26203,6.946 27.61773,9.3504 28.57783,50.6886 0.5049,21.737 -0.5538,27.7158 -6.7706,38.2354 -4.2763,7.2362 -5.6281,11.8202 -3.2207,10.9226 26.6849,-9.9498 27.5586,-10.0352 60.1473,-5.8822 24.8734,3.1699 32.717,5.3469 33.9049,9.4108 10.3264,35.3262 12.0993,66.9855 4.5759,81.7149 -2.4692,4.8346 -1.5795,5.3184 6.7268,3.6572 15.6618,-3.1325 36.1589,8.957 49.6592,29.2902 6.3496,9.5633 12.5263,21.4762 13.7259,26.4731 1.1996,4.997 4.3397,13.3629 6.9782,18.5911 4.7935,9.4981 4.782,9.5199 -14.5666,27.5372 -10.6501,9.9173 -22.6048,20.1834 -26.5659,22.8135 -7.1092,4.7204 -6.9586,4.9343 11.699,16.6049 10.3956,6.5025 23.0794,15.2378 28.186,19.4116 8.6347,7.0575 9.0356,8.3641 5.7255,18.6626 -1.9576,6.0905 -5.9554,18.8799 -8.884,28.4211 -2.9287,9.541 -10.0511,22.585 -15.8275,28.9866 l -10.5027,11.6395 12.4719,7.8654 c 8.0301,5.0641 13.8958,11.9464 16.4699,19.3244 4.371,12.5279 5.0513,47.9518 1.372,71.4487 -2.5853,16.511 2.0207,14.1271 -48.759,25.2359 -22.3067,4.8799 -48.5539,-4.1584 -63.4357,-21.8444 l -7.8829,-9.3682 -18.672,23.7204 c -17.5295,22.2691 -24.8223,27.546 -28.9157,20.9228 -0.9509,-1.5388 -7.1962,-3.7244 -13.8783,-4.8569 -17.37303,-2.9446 -42.22573,-17.7253 -53.55203,-31.8491 -7.6983,-9.5997 -9.9818,-15.9769 -10.9565,-30.5971 -1.0928,-16.3924 -0.2857,-19.4662 7.175,-27.327 4.6235,-4.8714 9.7972,-8.857 11.4968,-8.857 1.6998,0 3.0905,-1.4494 3.0905,-3.2208 0,-7.5204 -16.7641,-2.213 -34.6886,10.9823 -39.5832,29.1394 -44.0999,42.6147 -41.1206,122.6788 2.317,62.2655 3.9865,70.5276 19.1504,94.7755 6.0113,9.6125 10.1938,19.3955 9.294,21.74 -1.2962,3.3781 -18.2342,4.2627 -81.61971,4.2627 -47.67182,0 -80.75682,-1.2501 -81.89672,-3.0944 z" id="path51" style="fill:#ffffff"/><path id="path1" style="fill:#1a1a1a;stroke-width:3.22074" d="m 752.62414,3617.122 c -1.0519,-1.702 2.8484,-10.1009 8.6671,-18.6645 20.7869,-30.5928 19.891,-26.3824 21.2818,-100.0193 1.7165,-90.8763 -0.5664,-96.7616 -49.7367,-128.2153 -21.8288,-13.9637 -32.7209,-11.7496 -15.6531,3.1822 9.9555,8.7096 11.5611,12.0913 11.7644,24.7783 0.4918,30.6887 -19.9584,52.7201 -62.1854,66.9932 l -27.8102,9.4003 -10.8388,-14.6384 c -5.9612,-8.0513 -14.2304,-19.3887 -18.3759,-25.1943 l -7.5372,-10.5559 -9.8134,11.1768 c -12.9187,14.7137 -19.9396,18.2628 -40.8732,20.662 -12.8127,1.4685 -23.939,0.1971 -41.8698,-4.784 l -24.4199,-6.7839 -2.5647,-19.2114 c -1.4106,-10.5662 -2.1107,-29.6455 -1.556,-42.3983 1.1243,-25.8453 6.7922,-36.7142 23.9422,-45.9118 l 9.9518,-5.3373 -10.6378,-11.6079 c -9.7585,-10.6483 -12.5769,-17.638 -25.941,-64.3329 -1.1204,-3.9146 4.9582,-10.0189 21.6483,-21.7401 12.7633,-8.9633 25.1528,-16.2969 27.532,-16.2969 2.3793,0 4.3261,-1.4493 4.3261,-3.2208 0,-1.7714 -1.0871,-3.229 -2.4156,-3.2392 -1.3286,-0.014 -13.0082,-9.7932 -25.9546,-21.7401 l -23.539,-21.7216 5.3534,-12.883 c 14.0531,-33.8197 19.1681,-42.8566 31.4452,-55.5578 12.2724,-12.6966 14.46,-13.6883 30.1948,-13.6883 16.8788,0 16.9481,-0.042 13.8228,-8.2615 -4.5715,-12.024 -3.8621,-31.7157 2.1504,-59.6951 l 5.2914,-24.6237 19.3366,-2.0211 c 31.1591,-3.2568 56.4712,-2.3456 67.9381,2.4456 10.6979,4.4698 22.7385,18.1361 24.9602,28.3298 1.074,4.9284 1.7656,4.9679 7.6227,0.4356 4.6025,-3.5615 5.2581,-5.4267 2.2966,-6.5334 -8.8522,-3.3077 -23.799,-18.4055 -29.7289,-30.0291 -8.9245,-17.4933 -10.3954,-33.5785 -5.5864,-61.0846 l 4.2234,-24.1557 14.3976,-2.5518 c 33.4764,-5.9333 57.3961,-6.2697 72.7922,-1.0237 18.6455,6.3531 17.293,6.4309 17.293,-0.9946 0,-5.8409 7.4179,-22.0286 14.4935,-31.6286 6.8305,-9.2675 16.8055,-18.0799 35.03572,-30.9522 10.4126,-7.3523 20.8761,-14.7819 23.2523,-16.5103 3.1149,-2.2655 7.2688,-0.4095 14.886,6.6509 5.8111,5.3863 18.20471,15.455 27.54181,22.3749 16.762,12.4228 32.9454,37.1982 32.9454,50.4367 0,6.5204 6.4877,7.6954 12.0082,2.1748 6.5531,-6.5532 45.7419,-6.7512 69.9313,-0.3534 26.26203,6.946 27.61773,9.3504 28.57783,50.6886 0.5049,21.737 -0.5538,27.7158 -6.7706,38.2354 -4.2763,7.2362 -5.6281,11.8202 -3.2207,10.9226 26.6849,-9.9498 27.5586,-10.0352 60.1473,-5.8822 24.8734,3.1699 32.717,5.3469 33.9049,9.4108 10.3264,35.3262 12.0993,66.9855 4.5759,81.7149 -2.4692,4.8346 -1.5795,5.3184 6.7268,3.6572 15.6618,-3.1325 36.1589,8.957 49.6592,29.2902 6.3496,9.5633 12.5263,21.4762 13.7259,26.4731 1.1996,4.997 4.3397,13.3629 6.9782,18.5911 4.7935,9.4981 4.782,9.5199 -14.5666,27.5372 -10.6501,9.9173 -22.6048,20.1834 -26.5659,22.8135 -7.1092,4.7204 -6.9586,4.9343 11.699,16.6049 10.3956,6.5025 23.0794,15.2378 28.186,19.4116 8.6347,7.0575 9.0356,8.3641 5.7255,18.6626 -1.9576,6.0905 -5.9554,18.8799 -8.884,28.4211 -2.9287,9.541 -10.0511,22.585 -15.8275,28.9866 l -10.5027,11.6395 12.4719,7.8654 c 8.0301,5.0641 13.8958,11.9464 16.4699,19.3244 4.371,12.5279 5.0513,47.9518 1.372,71.4487 -2.5853,16.511 2.0207,14.1271 -48.759,25.2359 -22.3067,4.8799 -48.5539,-4.1584 -63.4357,-21.8444 l -7.8829,-9.3682 -18.672,23.7204 c -17.5295,22.2691 -24.8223,27.546 -28.9157,20.9228 -0.9509,-1.5388 -7.1962,-3.7244 -13.8783,-4.8569 -17.37303,-2.9446 -42.22573,-17.7253 -53.55203,-31.8491 -7.6983,-9.5997 -9.9818,-15.9769 -10.9565,-30.5971 -1.0928,-16.3924 -0.2857,-19.4662 7.175,-27.327 4.6235,-4.8714 9.7972,-8.857 11.4968,-8.857 1.6998,0 3.0905,-1.4494 3.0905,-3.2208 0,-7.5204 -16.7641,-2.213 -34.6886,10.9823 -39.5832,29.1394 -44.0999,42.6147 -41.1206,122.6788 2.317,62.2655 3.9865,70.5276 19.1504,94.7755 6.0113,9.6125 10.1938,19.3955 9.294,21.74 -1.2962,3.3781 -18.2342,4.2627 -81.61971,4.2627 -47.67182,0 -80.75682,-1.2501 -81.89672,-3.0944 z m 146.46623,-10.8195 c 0,-1.6719 -2.7516,-7.559 -6.1146,-13.0822 -13.3624,-21.9459 -16.0079,-37.5378 -16.7882,-98.9486 -0.414,-32.5866 0.4102,-64.3211 1.8316,-70.521 3.9024,-17.0223 19.5772,-37.5626 40.315,-52.8288 28.7585,-21.1708 35.2769,-23.067 51.82,-15.0743 7.5865,3.6655 14.287,6.1709 14.8901,5.5679 0.6031,-0.6031 -1.7537,-4.72 -5.2374,-9.1486 -4.7814,-6.0788 -5.4239,-8.962 -2.6216,-11.7643 5.005,-5.0052 29.46293,-4.6888 50.03313,0.6471 9.2432,2.3976 16.8057,3.4111 16.8057,2.2521 0,-1.1589 -6.522,-5.2758 -14.4934,-9.1486 -16.3912,-7.9634 -17.5645,-10.9579 -7.2467,-18.4947 7.125,-5.2045 7.0574,-5.2556 -4.0259,-3.0316 -6.1999,1.2441 -12.7219,3.3552 -14.4934,4.6912 -1.7714,1.336 -9.01803,4.2548 -16.10383,6.4862 -7.0856,2.2314 -27.9523,11.1163 -46.3706,19.7443 -31.0814,14.5598 -42.1999,18.2414 -42.1999,13.9732 0,-0.9426 2.1,-6.7399 4.6667,-12.883 2.5667,-6.143 4.248,-11.1692 3.736,-11.1692 -0.5118,0 -9.9707,9.0401 -21.0197,20.0891 -17.5324,17.5325 -20.4888,19.3752 -23.2288,14.4788 -1.86681,-3.3359 -2.74521,-35.4236 -2.16631,-79.1531 l 0.9734,-73.5426 8.92331,-12.8666 c 11.1433,-16.0674 53.0169,-40.9937 68.8654,-40.9937 6.5458,0 10.782,-1.6005 10.782,-4.0737 0,-6.5492 9.8396,-10.0484 35.5273,-12.634 21.52103,-2.1663 22.95323,-2.7131 13.5891,-5.1879 -11.692,-3.0899 -13.4857,-8.8099 -4.5187,-14.41 7.30993,-4.565 27.83363,-30.0706 24.11393,-29.9671 -1.4774,0.041 -8.4837,5.3004 -15.5693,11.6874 -17.11363,15.4261 -47.22153,35.7327 -54.97673,37.0797 -5.1618,0.8964 -6.1369,-0.6976 -5.7426,-9.3876 0.2612,-5.7571 0.016,-10.4675 -0.5464,-10.4675 -0.5617,0 -3.3651,7.0567 -6.2299,15.6816 -4.9063,14.7717 -6.4715,16.2638 -26.9751,25.7146 -11.9717,5.5181 -26.2772,10.935 -31.79,12.0375 -15.70251,3.1406 -19.95601,-6.5798 -23.98281,-54.8054 -2.8515,-34.1517 -2.5872,-44.2791 1.6449,-63.0193 5.4923,-24.3205 16.04531,-43.6722 29.65231,-54.3755 4.7846,-3.7636 7.1653,-6.8428 5.2907,-6.8428 -1.8746,0 -10.2229,5.2017 -18.5518,11.5594 -13.22071,10.0915 -15.73601,10.967 -19.80821,6.8946 -5.7567,-5.7565 -10.4533,-25.1586 -10.5554,-43.6049 -0.046,-8.4153 -1.3447,-13.0947 -3.2976,-11.8877 -1.7714,1.0948 -3.2289,8.0647 -3.2388,15.4886 -0.023,17.0531 -5.154,35.8115 -11.1596,40.7957 -3.7335,3.0985 -8.8498,0.8433 -26.51612,-11.6873 l -21.8902,-15.5265 16.7996,17.1931 c 22.89992,23.4363 30.62042,44.288 30.57132,82.5664 -0.045,34.5462 -5.5879,71.2019 -12.3307,81.5334 -5.84452,8.9556 -14.15542,7.8598 -44.85352,-5.9135 -22.0929,-9.9125 -23.2462,-11.1054 -31.0016,-32.071 l -5.3868,-14.5621 -0.2496,12.0778 c -0.1371,6.6429 -1.5162,12.0778 -3.0647,12.0778 -7.3321,0 -34.3565,-18.4439 -54.9194,-37.4821 -12.5314,-11.6019 -22.7842,-20.2536 -22.7842,-19.226 0,1.0277 8.0365,11.3419 17.8587,22.9204 18.4759,21.779 19.6803,27.3462 5.9168,27.3462 -13.5481,0 -5.78,5.1065 9.0306,5.9363 19.8934,1.1148 38.0914,6.5267 40.1712,11.9466 0.9841,2.5643 5.2936,4.6624 9.5769,4.6624 11.3113,0 49.6046,20.1759 62.0887,32.7134 19.66222,19.7461 20.62852,25.2115 18.12872,102.5492 -1.231,38.0903 -3.55502,70.6128 -5.16432,72.2721 -3.5059,3.615 -14.8814,-6.3005 -32.4289,-28.2671 -14.0043,-17.5309 -15.3843,-17.2795 -6.0107,1.0944 11.9154,23.3559 7.3612,24.7344 -26.0795,7.894 -27.7883,-13.994 -91.1392,-40.1392 -96.9201,-39.9994 -2.3211,0.056 -0.2342,3.0757 4.6371,6.7101 11.5695,8.6318 11.175,11.2478 -2.3707,15.7183 -19.9149,6.5725 -15.0426,8.8059 15.7023,7.1977 33.1815,-1.7357 37.7806,0.4229 29.1068,13.661 -6.2,9.4623 -5.378,9.8471 7.1151,3.3316 16.6882,-8.7036 22.2137,-6.9384 56.0083,17.893 37.6391,27.6562 43.1143,46.892 38.981,136.9486 -2.5919,56.4722 -2.9807,58.8443 -12.8162,78.1995 -5.5788,10.9783 -10.1433,20.7483 -10.1433,21.711 0,0.9628 28.9868,1.3713 64.41502,0.9081 37.64571,-0.4922 64.41511,-2.1056 64.41511,-3.8821 z M 694.40344,3441.8717 c 12.9202,-8.4655 24.3248,-29.0341 24.3248,-43.8705 0,-11.2038 -1.4422,-13.8735 -10.4674,-19.3764 -19.7928,-12.0679 -27.1837,-6.8785 -39.6291,27.8256 -12.9905,36.2239 -23.9807,53.245 -23.9807,37.14 0,-9.8551 12.1577,-54.1856 17.9126,-65.3143 5.0949,-9.8522 5.071,-10.6544 -0.4358,-14.681 -7.6656,-5.6054 -28.4121,-5.4322 -39.555,0.3301 -16.0969,8.324 -20.971,30.1767 -11.6869,52.3969 2.6862,6.4289 11.3765,19.2883 19.3116,28.5766 l 14.4277,16.8876 20.7675,-7.2566 c 11.4223,-3.9914 24.477,-9.6874 29.0107,-12.658 z m 345.16426,3.619 c 24.4707,-31.4113 29.6562,-51.0595 18.4719,-69.9929 -6.1914,-10.4812 -25.8482,-17.612 -39.9884,-14.5064 -12.0381,2.6441 -13.5473,5.4063 -9.0658,16.5933 5.5364,13.8204 18.2554,66.7656 16.6999,69.5164 -4.2199,7.4631 -9.5232,-1.4649 -23.437,-39.4542 -3.56823,-9.7427 -9.96803,-22.0415 -14.22173,-27.3307 l -7.734,-9.6165 -11.6723,5.5661 c -33.8784,16.1555 -16.8244,59.8999 30.3133,77.7552 11.51423,4.3614 22.40333,8.0308 24.19813,8.1542 1.7947,0.1235 9.1909,-7.3846 16.436,-16.6845 z m 118.7931,-0.4933 c 18.7643,-4.9347 19.9431,-7.6894 20.5538,-48.0296 0.5626,-37.1641 -8.6956,-50.3152 -35.5118,-50.4435 -12.1229,-0.058 -16.8568,1.7021 -24.9763,9.2868 -5.51,5.1472 -9.2207,11.3069 -8.2458,13.6883 0.9748,2.3813 13.3012,13.7112 27.3918,25.1776 22.5509,18.351 31.0678,29.0737 23.0929,29.0737 -1.3895,0 -12.8842,-7.1578 -25.5438,-15.9062 -12.6595,-8.7483 -27.2894,-18.1153 -32.5107,-20.8154 -8.731,-4.5149 -9.9208,-4.437 -14.8131,0.9689 -2.9259,3.2331 -6.6731,10.5972 -8.3273,16.3647 -9.4388,32.9116 30.3422,53.4019 78.8903,40.6347 z m -580.38596,-9.2594 c 13.6131,-10.3831 17.2895,-23.1651 10.9945,-38.2249 -8.6541,-20.7036 -10.9672,-20.6534 -44.3879,0.9643 -35.1157,22.7142 -38.4227,24.2938 -38.4227,18.3539 0,-2.4133 12.3193,-14.4751 27.3763,-26.8041 15.057,-12.3289 27.3764,-24.1494 27.3764,-26.2676 0,-2.1183 -4.4592,-7.6035 -9.9093,-12.1896 -14.0716,-11.8404 -37.2773,-11.8051 -49.1571,0.075 -10.9695,10.9693 -13.3175,25.0127 -9.8194,58.7285 l 2.8604,27.5706 16.1038,3.9578 c 8.8571,2.1768 24.9881,3.6361 35.8468,3.2428 15.8085,-0.5726 22.014,-2.447 31.1382,-9.4064 z m 503.27886,-54.1662 c 2.4318,-3.9346 -6.9475,-14.9429 -10.0706,-11.8198 -2.664,2.6641 1.5305,15.3497 5.0754,15.3497 1.5476,0 3.7954,-1.5885 4.9952,-3.5299 z m -482.01616,-8.548 c 4.343,-8.3474 1.5047,-9.1518 -7.7133,-2.1859 -5.4305,4.1037 -5.6943,5.3079 -1.7036,7.7743 2.5971,1.6051 4.9301,2.6349 5.1843,2.2884 0.2541,-0.3466 2.1588,-3.8911 4.2326,-7.8768 z m 505.72256,-20.3909 7.7938,-6.4882 -11.7412,-9.6783 c -7.1454,-5.8896 -13.2323,-14.6543 -15.5502,-22.3911 -2.0949,-6.9923 -5.7949,-12.7132 -8.2221,-12.7132 -6.1176,0 -42.8786,18.8351 -42.8786,21.9694 0,1.4038 9.8641,7.3241 21.9202,13.1565 12.056,5.8323 25.4624,13.3267 29.792,16.6543 9.6617,7.4258 9.3445,7.4344 18.8861,-0.5094 z m -516.97626,-3.9152 c 5.4814,-4.0683 18.9658,-11.5997 29.9653,-16.7364 14.3903,-6.7202 19.1192,-10.3992 16.8621,-13.1189 -4.6567,-5.611 -41.2392,-21.3812 -44.6742,-19.2583 -1.6301,1.0075 -3.9342,6.2489 -5.1199,11.6475 -1.1858,5.3986 -7.2355,14.8953 -13.4439,21.1037 -10.8629,10.8629 -11.0754,11.5228 -5.6445,17.5238 7.2273,7.986 9.9217,7.8442 22.0551,-1.1614 z m 88.8746,2.5661 c 3.4537,-4.1616 2.1691,-4.8312 -9.2679,-4.8312 -7.3025,0 -13.2773,1.5349 -13.2773,3.4109 0,1.8759 1.4379,2.5221 3.1952,1.436 1.7574,-1.0861 5.7431,-0.4911 8.8571,1.3223 3.114,1.8135 5.8467,3.3413 6.0726,3.3951 0.2262,0.054 2.2152,-2.0761 4.4203,-4.7331 z m 333.34146,1.8668 c 5.3978,-2.1067 4.6188,-2.7875 -4.8311,-4.223 -12.55413,-1.9072 -14.50043,-1.2664 -11.39883,3.7523 2.4291,3.9301 7.02443,4.0634 16.22993,0.4707 z m -209.92806,-70.6461 c -0.3453,-0.6288 -5.2152,4.0815 -10.8222,10.4676 -5.607,6.3859 -12.1328,11.6108 -14.5019,11.6108 -11.4552,0 -8.0948,9.6432 12.8712,36.9359 l 9.8177,12.7804 1.6315,-35.3256 c 0.8971,-19.4291 1.3489,-35.8402 1.0037,-36.4691 z m 88.40613,52.6157 c 17.4947,-22.1681 18.9982,-26.2019 10.7426,-28.8221 -3.6174,-1.1482 -10.6019,-6.3519 -15.5211,-11.5637 -4.9191,-5.2118 -9.674,-9.476 -10.5663,-9.476 -0.8923,0 -1.6752,15.218 -1.7397,33.8178 -0.065,18.5999 0.661,33.737 1.6121,33.6382 0.9509,-0.099 7.9136,-8.0162 15.4724,-17.5942 z m -138.92533,-8.0641 c -4.3871,-10.434 -5.1825,-10.8261 -20.3246,-10.0224 -12.1106,0.6427 -17.7978,-0.7674 -24.5663,-6.0917 -10.706,-8.4213 -18.3409,-22.4589 -18.3409,-33.7215 0,-7.9661 -0.5662,-8.2377 -12.0779,-5.7963 -18.2365,3.8677 -69.2057,1.6831 -72.2408,-3.0962 -1.6358,-2.576 -2.555,-1.1321 -2.5766,4.0474 -0.028,7.3044 2.8796,9.0566 31.353,18.8771 35.4923,12.2412 105.3987,41.251 115.1093,47.7681 8.233,5.5254 9.4071,1.6925 3.6648,-11.9645 z m 180.09583,10.2371 c 1.6829,-1.4948 13.2051,-6.8368 25.605,-11.8711 12.3999,-5.0342 23.9946,-10.1825 25.766,-11.4406 1.7714,-1.2581 8.2934,-3.8081 14.4933,-5.6667 34.36823,-10.3027 75.80473,-26.6565 76.57613,-30.2224 0.6789,-3.1382 -7.6763,-4.1067 -35.4282,-4.1067 -19.9742,0 -39.57773,-1.1846 -43.56343,-2.6326 -6.4422,-2.3403 -7.2467,-1.6075 -7.2467,6.602 0,12.7968 -15.4064,35.4168 -26.8362,39.4012 -5.1703,1.8024 -14.8073,2.4125 -21.4154,1.3558 -9.91,-1.5846 -12.3142,-0.8746 -13.7238,4.0526 -0.9398,3.2855 -2.753,8.5101 -4.0292,11.6101 -2.4787,6.0211 4.1035,7.9808 9.8025,2.9184 z m 225.12393,-17.8337 c 10.57,-10.3424 15.1771,-18.5014 20.9038,-37.0197 l 7.3455,-23.7535 -9.2098,-7.405 c -22.4159,-18.0233 -42.5894,-27.7926 -57.8689,-28.0236 -13.1407,-0.1988 -16.4187,1.1491 -24.3284,10.0015 -7.4192,8.3035 -9.1415,13.2196 -9.1415,26.0939 0,8.7245 1.2347,16.626 2.7438,17.5586 1.5092,0.9328 16.3649,-2.0698 33.0127,-6.6723 42.1192,-11.6442 47.9831,-12.4685 47.9831,-6.7449 0,3.137 -11.6283,8.6975 -34.4817,16.4888 -18.9648,6.4656 -35.8548,13.129 -37.5333,14.8074 -1.9216,1.9217 -1.0284,8.3493 2.4126,17.3592 10.292,26.9495 34.926,30.0454 58.1621,7.3096 z m -599.10316,10.9697 c 9.9512,-3.7835 21.1173,-21.0391 21.1339,-32.6597 0.014,-7.8188 -2.3259,-9.1995 -32.5512,-19.2296 -33.3459,-11.0655 -44.7839,-16.8512 -40.9312,-20.704 2.3415,-2.3415 15.2841,0.4141 55.2314,11.7594 29.7469,8.4484 32.1919,6.9887 30.0918,-17.9653 -3.3501,-39.8097 -45.3303,-41.6315 -90.2566,-3.9168 l -9.1816,7.7076 8.2815,27.1512 c 8.4587,27.7315 14.8023,36.6622 32.627,45.9327 11.3338,5.8945 14.4881,6.1321 25.555,1.9245 z m 184.0352,-26.9242 c 0.9073,-2.3642 -2.0369,-17.0197 -6.5425,-32.5678 -4.5058,-15.5481 -8.1921,-30.281 -8.1921,-32.7401 0,-8.7822 6.8528,-4.2607 11.5296,7.607 14.2429,36.143 21.8998,49.1165 28.9883,49.1165 9.9581,0 27.1177,-20.3186 27.1177,-32.11 0,-18.0534 -5.1857,-24.9362 -26.3974,-35.0351 -33.4626,-15.9317 -36.7352,-16.0752 -49.8363,-2.1856 -19.8981,21.0958 -25.2701,43.5773 -15.3884,64.4014 2.7502,5.7956 8.1852,12.0763 12.0779,13.957 10.0646,4.8626 24.7005,4.6192 26.6432,-0.4433 z m 225.29883,-5.4551 c 7.8903,-8.2356 9.3446,-12.3886 9.3446,-26.6846 0,-17.5741 -5.4734,-29.408 -22.3631,-48.3505 l -8.1149,-9.1012 -20.9552,6.9735 c -37.5981,12.5118 -51.9585,34.3088 -38.0811,57.8015 4.6068,7.7989 19.5775,19.4528 24.989,19.4528 2.218,0 18.8178,-35.9373 24.3681,-52.7552 3.7462,-11.3509 7.6594,-14.4925 11.1058,-8.916 0.9327,1.5091 -1.9277,16.2835 -6.3564,32.832 -4.4286,16.5485 -7.3257,31.9811 -6.4379,34.2948 3.142,8.1879 22.509,4.8824 32.5011,-5.5471 z m -296.67853,-37.3493 c 10.571,-3.602 17.2726,-8.3713 21.4967,-15.2987 8.5011,-13.9413 7.7097,-22.7244 -3.1418,-34.8691 l -9.3032,-10.4122 -14.0472,12.6869 c -7.726,6.9777 -17.437,16.713 -21.5801,21.6339 -7.2457,8.6058 -16.6227,12.0361 -16.6227,6.0808 0,-3.5682 27.176,-40.7249 31.9385,-43.6682 6.9822,-4.3154 3.2196,-11.8805 -8.3035,-16.6952 -14.1115,-5.8962 -30.0318,-3.6903 -38.1558,5.2866 -8.4311,9.3163 -9.5332,33.6156 -2.5456,56.1296 5.5977,18.0362 6.5702,19.194 17.1367,20.3998 6.1613,0.7031 11.8062,1.8815 12.5443,2.6187 2.8041,2.8007 15.7903,1.1476 30.5837,-3.8929 z m 382.93746,2.2459 c 6.4026,-2.4342 8.8922,-7.2099 13.4461,-25.7926 6.7869,-27.6946 4.7116,-42.4218 -7.3158,-51.9133 -6.8751,-5.4256 -11.7255,-6.5614 -22.7574,-5.329 -7.711,0.8615 -16.1628,3.7089 -18.7816,6.3277 -4.2015,4.2015 -2.8365,7.3997 11.6045,27.1923 14.8765,20.3891 20.2802,33.2284 13.9506,33.1464 -1.3286,-0.016 -11.57,-10.1621 -22.7586,-22.5444 -17.469,-19.3326 -21.21823,-22.0447 -26.53793,-19.1978 -7.1937,3.8501 -15.9237,19.3632 -15.9237,28.2962 0,8.0318 10.8872,21.7204 21.8933,27.5267 10.05503,5.3046 41.66863,6.6646 53.18053,2.2878 z m -250.15586,-36.605 c -4.0448,-16.0602 -22.0309,-34.7298 -44.2269,-45.9074 l -22.0525,-11.1056 -16.3056,6.427 c -8.9681,3.5349 -19.7812,8.7044 -24.0291,11.4877 l -7.7235,5.0606 10.0357,14.2378 10.0356,14.2376 8.6849,-10.4031 8.6849,-10.403 17.2889,6.0942 c 24.9224,8.7853 45.3216,19.4656 52.6348,27.5581 6.8691,7.6011 9.9193,4.415 6.9728,-7.2839 z m 75.23873,7.8967 c 0,-4.09 27.9771,-18.4098 51.1498,-26.1806 l 20.5529,-6.8922 8.7696,10.5045 8.7696,10.5046 4.1605,-7.9122 c 2.2883,-4.3519 6.1229,-9.0714 8.5214,-10.4879 7.8863,-4.6578 4.5767,-11.5198 -9.5482,-19.7976 -21.6567,-12.6916 -32.8054,-13.7357 -50.0882,-4.6905 -18.1633,9.5059 -41.4671,30.4395 -44.0811,39.5978 -1.066,3.7347 -2.6455,9.3267 -3.51,12.4267 -0.8646,3.1 -0.026,5.6362 1.8659,5.6362 1.8908,0 3.4378,-1.2188 3.4378,-2.7088 z M 591.90774,3212.117 c -0.9525,-0.9524 -4.1829,-0.791 -7.1789,0.3586 -5.0084,1.9219 -4.9546,2.5628 0.6663,7.9556 5.9178,5.6775 6.1476,5.6661 7.1789,-0.3586 0.5859,-3.4231 0.2864,-7.0031 -0.6663,-7.9556 z m 497.20696,5.4558 c 0,-1.3649 -2.1741,-3.3161 -4.8312,-4.3357 -3.5283,-1.3539 -4.8311,0.3966 -4.8311,6.4914 0,7.0526 0.7482,7.7241 4.8311,4.3355 2.6571,-2.2051 4.8312,-5.1262 4.8312,-6.4912 z m 53.1423,-16.833 c 5.3143,-2.8301 16.0564,-11.7155 23.8713,-19.745 10.5461,-10.8357 13.3544,-15.6764 10.8937,-18.7776 -1.8235,-2.2982 -5.7402,-11.6142 -8.7038,-20.7023 -2.9634,-9.088 -10.0417,-21.9073 -15.7296,-28.487 -8.4103,-9.7294 -13.1132,-12.2756 -25.1863,-13.6365 -17.8647,-2.0135 -28.8655,3.9911 -36.3999,19.8685 -6.1465,12.9529 -6.5267,20.8426 -1.0826,22.4711 49.6471,14.8519 60.3891,18.5968 60.3891,21.0527 0,5.6685 -5.2186,5.9832 -25.8583,1.5592 -11.4634,-2.4572 -26.2776,-4.5184 -32.9205,-4.5807 l -12.0777,-0.1127 v 17.1528 c 0,18.2717 7.1435,29.1058 20.9348,31.7508 9.8518,1.8895 31.0951,-2.0744 41.8698,-7.8127 z m -556.87336,-2.7392 c 6.2886,-5.9077 7.7353,-10.4748 7.7353,-24.4195 0,-16.5709 -0.3005,-17.1519 -8.857,-17.1285 -9.7892,0.026 -47.3402,5.6343 -56.6592,8.4606 -4.4808,1.3591 -5.6527,0.347 -4.7893,-4.1363 0.8724,-4.5299 8.3796,-7.848 31.6983,-14.0108 34.8423,-9.208 38.1801,-13.6638 25.5472,-34.1043 -7.7539,-12.5461 -17.114,-17.4277 -33.4162,-17.4277 -15.8873,0 -26.2178,10.3686 -40.8269,40.9776 l -13.1618,27.5769 17.4297,17.4296 c 9.5863,9.5863 23.1325,19.5352 30.1027,22.1087 16.4558,6.0755 35.4422,3.8381 45.1972,-5.3263 z m 427.84816,-22.5594 c 11.4746,-6.7702 34.2798,-7.579 47.3039,-1.678 3.933,1.7821 5.7786,0.2239 7.4034,-6.2501 1.1905,-4.7434 1.7317,-9.0288 1.2026,-9.5234 -1.2963,-1.212 -50.7808,-2.4989 -76.11283,-1.9795 -11.219,0.2299 -19.915,1.7751 -19.3245,3.4336 0.8147,2.2881 23.9797,21.2938 27.46073,22.53 0.3416,0.1222 5.7716,-2.8183 12.0667,-6.5326 z m -329.86266,-4.9475 c 7.0476,-4.6639 12.8139,-9.547 12.8139,-10.8512 0,-6.4945 -87.9709,-9.3959 -91.9046,-3.031 -1.157,1.872 -1.2117,6.9578 -0.1208,11.3017 1.9152,7.6308 2.2547,7.7198 10.0286,2.626 9.4446,-6.1884 30.4949,-4.8841 45.164,2.7984 5.2014,2.724 9.8503,5.1065 10.3312,5.2943 0.4808,0.1878 6.6405,-3.4743 13.6882,-8.1382 z m 201.63963,-6.3203 c 28.6205,-11.7915 33.895,-15.4017 40.0081,-27.3845 8.7729,-17.1963 8.0855,-19.0096 -7.208,-19.0096 -17.1822,0 -32.4201,-10.1321 -41.8261,-27.8113 -6.5837,-12.3744 -6.7905,-14.5481 -2.9203,-30.6813 3.6177,-15.08 7.501,-20.7137 29.5283,-42.8385 13.9495,-14.0114 24.6922,-26.1458 23.8725,-26.9655 -2.3972,-2.3972 -25.7904,14.9691 -37.5185,27.8522 -13.0459,14.3309 -24.9522,39.071 -27.33621,56.8021 -2.7157,20.1977 5.20671,95.1744 10.05661,95.1744 0.4799,0 6.4844,-2.3122 13.3436,-5.138 z m -78.63663,-9.3555 c 1.49582,-5.3142 3.56522,-27.0543 4.59882,-48.3112 1.7046,-35.0599 1.1989,-40.4414 -5.44612,-57.9497 -7.3243,-19.2977 -33.6803,-50.1414 -50.5703,-59.1806 -12.9172,-6.9131 -7.6857,1.6867 12.2592,20.1522 32.6338,30.2131 43.01432,63.6353 27.241,87.7084 -6.4873,9.9011 -28.34,20.3744 -42.7138,20.4716 -11.7568,0.08 -12.4136,2.0612 -5.872,17.7175 3.432,8.2138 9.3435,13.4674 23.3504,20.7511 23.4334,12.1858 33.4434,11.8196 37.1528,-1.3593 z m 267.90456,-22.8087 c 3.3201,-8.6524 2.2993,-10.1351 -8.4598,-12.2869 -5.7281,-1.1457 -16.0064,-5.7834 -22.8408,-10.3061 -6.8343,-4.5227 -12.714,-7.7523 -13.066,-7.1767 -0.3519,0.5755 -4.7133,6.5766 -9.6919,13.3358 -4.9787,6.7591 -8.5434,12.7168 -7.9216,13.2392 1.0197,0.8569 41.7194,6.6734 54.7334,7.8222 2.9105,0.257 6.1714,-1.8254 7.2467,-4.6275 z m -424.11616,-3.3919 13.5612,-1.8691 -10.3072,-13.3415 c -5.669,-7.3378 -10.5498,-13.8106 -10.8462,-14.3839 -0.2963,-0.5733 -6.6886,3.4123 -14.2048,8.8571 -7.6473,5.5396 -17.7083,9.8994 -22.8448,9.8994 -7.7641,0 -9.179,1.3054 -9.179,8.4679 0,8.4657 0.014,8.4673 20.1296,6.3535 11.0714,-1.1629 26.2324,-2.9554 33.6912,-3.9834 z m 326.22783,-13.6745 11.2725,-9.7268 -12.883,3.3957 c -15.8142,4.1685 -20.9347,8.1106 -20.9347,16.1168 0,7.3921 5.3074,5.0884 22.5452,-9.7857 z m -259.91013,2.9801 c -1.0642,-4.0695 -7.1993,-8.1361 -17.3709,-11.5147 -16.4968,-5.4793 -28.6903,-17.3712 -28.6903,-27.9807 0,-6.2692 -6.682,-6.6279 -8.7349,-0.4691 -1.2375,3.7127 28.5789,33.8749 42.5395,43.0329 10.6263,6.9709 14.6205,5.971 12.2566,-3.0684 z m 66.8909,-26.2268 c 10.6919,-15.0155 10.8843,-25.2907 0.8151,-43.5263 -5.0011,-9.0569 -16.1437,-22.8013 -24.7615,-30.5432 l -15.6685,-14.0761 -24.5462,12.9322 c -18.9596,9.9889 -26.1937,15.8408 -31.7845,25.7121 -9.4977,16.769 -9.536,34.1899 -0.098,44.4667 8.8869,9.6767 27.9844,16.7249 29.4561,10.8714 0.5407,-2.15 4.27,-17.6779 8.2876,-34.5064 8.2792,-34.6807 12.1698,-43.9713 16.5707,-39.5705 1.8405,1.8406 1.7502,11.5732 -0.2346,25.3066 -5.187,35.8878 -4.4008,55.4476 2.2834,56.8114 12.0207,2.4526 33.3681,-5.0135 39.6801,-13.8779 z m 147.62593,13.4554 c 3.6245,-2.2945 4.1502,-9.5483 2.6331,-36.3368 -1.0424,-18.4084 -2.3555,-35.5751 -2.918,-38.1483 -0.5624,-2.5732 1.1513,-4.6784 3.8084,-4.6784 4.9884,0 18.7268,45.547 19.1293,63.4197 0.266,11.8074 4.0247,13.2609 18.901,7.3085 18.1819,-7.275 25.7263,-22.0988 20.3609,-40.0068 -5.5746,-18.6069 -17.9112,-30.6553 -42.5141,-41.5215 l -21.1616,-9.3464 -16.5122,15.5046 c -18.9824,17.8238 -29.7353,36.7053 -29.7353,52.2134 0,21.0626 31.6953,41.9197 48.0085,31.592 z m 149.50953,-0.5869 c 10.16,-4.6291 21.07,-24.3263 23.2652,-42.0034 0.9581,-7.7154 -0.2557,-23.4139 -2.6973,-34.8854 -4.2445,-19.9424 -4.922,-20.9566 -15.4452,-23.1186 -12.5921,-2.5871 -31.2178,-3.7849 -49.0975,-3.1575 -9.0873,0.3189 -14.901,3.0078 -22.1275,10.2343 -9.065,9.065 -9.6908,11.1385 -8.3269,27.5855 1.1185,13.4869 3.4406,19.7496 9.6107,25.9198 l 8.136,8.1359 15.7373,-18.6282 c 28.6601,-33.9252 39.3675,-44.7515 41.8271,-42.2919 2.6742,2.6741 -5.5049,18.3612 -26.7133,51.2354 -7.6284,11.8244 -13.8698,23.8028 -13.8698,26.6185 0,5.7239 17.942,17.8774 26.4196,17.896 3.0166,0.014 8.9933,-1.5865 13.2816,-3.5404 z m -462.03036,-4.2871 c 17.7675,-9.1878 17.7417,-11.4304 -0.4635,-40.2147 -9.262,-14.644 -19.5673,-30.9368 -22.9008,-36.2061 -3.9405,-6.2285 -4.9615,-10.6799 -2.9183,-12.7232 3.2767,-3.2766 12.1647,5.689 39.5764,39.9219 7.9714,9.955 16.0523,18.1703 17.9578,18.2562 7.5885,0.3426 18.2512,-15.8549 19.8655,-30.177 1.9552,-17.347 -3.7503,-28.0652 -19.1899,-36.0493 -8.2523,-4.2674 -15.5355,-4.9195 -36.7401,-3.2896 -14.5461,1.1181 -28.624,2.8681 -31.2841,3.8889 -6.0246,2.3118 -13.016,29.8879 -13.0038,51.29 0.014,17.4269 9.8915,40.72 19.6969,46.4303 8.0147,4.6674 19.0136,4.2457 29.4039,-1.1274 z M 1004.8,3090.9963 c 5.6928,-5.8735 9.359,-11.6708 8.1469,-12.8829 -3.7956,-3.7957 -7.5718,-2.4125 -7.5718,2.7737 0,2.7376 -3.5574,8.535 -7.90553,12.883 -4.348,4.348 -6.8063,7.9054 -5.4629,7.9054 1.3434,0 7.1004,-4.8055 12.79333,-10.6792 z m -5.98053,-80.3896 c 0.062,-1.3742 -4.5099,-0.1072 -10.1615,2.8153 -9.7781,5.0566 -9.9795,5.5303 -4.1607,9.7851 5.4336,3.9733 6.5658,3.6596 10.1614,-2.8154 2.2256,-4.0077 4.0981,-8.411 4.1608,-9.785 z m -175.32521,-32.1249 2.2755,-24.9608 h -9.2566 c -5.0912,0 -14.31912,-1.4518 -20.50632,-3.2263 -7.8187,-2.2424 -11.5995,-2.1764 -12.3969,0.2162 -0.6312,1.8934 -4.4119,7.2375 -8.4016,11.8758 l -7.2539,8.4332 19.6722,14.4771 c 10.8197,7.9625 21.68062,16.4827 24.13532,18.9341 6.8189,6.8094 9.2506,1.4724 11.7323,-25.7493 z m 83.09771,-5.6363 c 1.486,0 -1.8018,-5.6864 -7.3065,-12.6365 -9.33,-11.7803 -10.711,-12.435 -20.379,-9.6623 -5.7039,1.6359 -14.2818,2.9743 -19.06171,2.9743 h -8.6909 l 1.6911,23.3505 c 0.93,12.8427 2.2383,25.1328 2.9072,27.3114 0.7459,2.4289 10.29051,-2.8654 24.67701,-13.6882 12.9034,-9.7071 24.6767,-17.6492 26.1628,-17.6492 z m 84.369,26.6265 c 17.28513,-12.4863 24.48163,-41.3095 18.83673,-75.4451 -1.8847,-11.3975 -2.6109,-11.9465 -22.36663,-16.9089 -26.4897,-6.654 -41.7804,-6.3864 -58.0819,1.0167 -26.133,11.8679 -33.8225,29.4511 -20.3629,46.5624 8.013,10.1866 14.2876,10.6177 27.1426,1.8649 11.9656,-8.1472 54.4763,-28.807 59.2747,-28.807 10.34393,0 0.1865,10.7679 -26.9667,28.5874 -16.773,11.0076 -31.4248,21.5156 -32.5592,23.3513 -2.3851,3.8591 13.2955,21.4761 22.7966,25.6117 8.5508,3.722 22.5635,1.1904 32.2867,-5.8334 z m -260.35853,-6.0834 c 4.0801,-5.0987 7.4255,-11.0321 7.4344,-13.1851 0.014,-2.1531 -12.0796,-11.8802 -26.863,-21.6158 -29.8077,-19.63 -36.8609,-26.3547 -32.3614,-30.8542 1.8119,-1.8119 13.6223,2.668 30.2996,11.4932 53.5399,28.3321 47.4097,26.5876 56.4519,16.0646 4.3544,-5.0676 7.9171,-12.0782 7.9171,-15.5793 0,-9.9495 -12.0333,-26.9486 -21.7686,-30.7519 -23.8626,-9.3223 -34.183,-10.0943 -58.7066,-4.3911 l -24.112,5.6074 -2.2735,12.8153 c -6.0439,34.0665 -1.6018,56.0811 14.8497,73.5941 7.9006,8.4104 10.1805,9.1033 25.2004,7.6601 13.2897,-1.2769 17.9623,-3.3967 23.932,-10.8573 z m 98.92322,-97.0359 c 2.5463,-40.2688 3.5861,-45.8957 8.4817,-45.8957 5.9896,0 8.7925,17.0525 10.0589,61.1943 0.8202,28.5934 2.0818,32.2075 11.2437,32.2075 12.97361,0 29.96331,-8.8357 33.16071,-17.2455 1.6508,-4.3422 4.6791,-8.9316 6.7296,-10.1989 5.7105,-3.5293 0.6912,-30.2046 -8.2738,-43.9708 -8.0015,-12.2866 -45.70061,-41.3723 -53.43951,-41.2296 -8.1708,0.1507 -39.76022,24.516 -49.30582,38.0304 -12.947,18.3298 -15.3784,46.3156 -5.1499,59.2762 7.3588,9.3243 22.1519,15.2811 35.54032,14.3111 8.0365,-0.5822 8.0574,-0.6707 10.9541,-46.479 z"/></g></svg>