<svg version="1.1" id="svg1" width="5078.9116" height="5263.5273" viewBox="2220.4188578418416 2798.4707450010296 949.9615319930022 821.7456549989715" sodipodi:docname="trees2.svg" inkscape:version="1.4.2 (f4327f4, 2025-05-13)" xmlns:inkscape="http://www.inkscape.org/namespaces/inkscape" xmlns:sodipodi="http://sodipodi.sourceforge.net/DTD/sodipodi-0.dtd" xmlns="http://www.w3.org/2000/svg" xmlns:svg="http://www.w3.org/2000/svg"><defs id="defs1">
    <inkscape:path-effect effect="fill_between_many" method="originald" linkedpaths="#path1,0,1|" id="path-effect50" xmlns:inkscape="http://www.inkscape.org/namespaces/inkscape"/>
    <inkscape:path-effect effect="fill_between_many" method="originald" linkedpaths="#path1,0,1|#path51,0,1|#path2,0,1|#path3,0,1|#path4,0,1|#path5,0,1|#path6,0,1|#path7,0,1|#path8,0,1|#path9,0,1|#path10,0,1|#path11,0,1|#path12,0,1|#path13,0,1|#path14,0,1|#path15,0,1|#path16,0,1|#path17,0,1|#path18,0,1|#path19,0,1|#path20,0,1|#path21,0,1|#path22,0,1|#path23,0,1|#path24,0,1|#path25,0,1|" id="path-effect51" xmlns:inkscape="http://www.inkscape.org/namespaces/inkscape"/>
    <inkscape:path-effect effect="fill_between_many" method="originald" linkedpaths="#path2,0,1|" id="path-effect52" xmlns:inkscape="http://www.inkscape.org/namespaces/inkscape"/>
    <inkscape:path-effect effect="fill_between_many" method="originald" linkedpaths="#path4,0,1|" id="path-effect53" xmlns:inkscape="http://www.inkscape.org/namespaces/inkscape"/>
    <inkscape:path-effect effect="fill_between_many" method="originald" linkedpaths="#path5,0,1|" id="path-effect54" xmlns:inkscape="http://www.inkscape.org/namespaces/inkscape"/>
    <inkscape:path-effect effect="fill_between_many" method="originald" linkedpaths="#path6,0,1|" id="path-effect55" xmlns:inkscape="http://www.inkscape.org/namespaces/inkscape"/>
    <inkscape:path-effect effect="fill_between_many" method="originald" linkedpaths="#path7,0,1|" id="path-effect56" xmlns:inkscape="http://www.inkscape.org/namespaces/inkscape"/>
    <inkscape:path-effect effect="fill_between_many" method="originald" linkedpaths="#path8,0,1|" id="path-effect57" xmlns:inkscape="http://www.inkscape.org/namespaces/inkscape"/>
    <inkscape:path-effect effect="fill_between_many" method="originald" linkedpaths="#path9,0,1|" id="path-effect58" xmlns:inkscape="http://www.inkscape.org/namespaces/inkscape"/>
    <inkscape:path-effect effect="fill_between_many" method="originald" linkedpaths="#path10,0,1|" id="path-effect59" xmlns:inkscape="http://www.inkscape.org/namespaces/inkscape"/>
    <inkscape:path-effect effect="fill_between_many" method="originald" linkedpaths="#path11,0,1|" id="path-effect60" xmlns:inkscape="http://www.inkscape.org/namespaces/inkscape"/>
    <inkscape:path-effect effect="fill_between_many" method="originald" linkedpaths="#path12,0,1|" id="path-effect61" xmlns:inkscape="http://www.inkscape.org/namespaces/inkscape"/>
    <inkscape:path-effect effect="fill_between_many" method="originald" linkedpaths="#path13,0,1|" id="path-effect62" xmlns:inkscape="http://www.inkscape.org/namespaces/inkscape"/>
    <inkscape:path-effect effect="fill_between_many" method="originald" linkedpaths="#path14,0,1|" id="path-effect63" xmlns:inkscape="http://www.inkscape.org/namespaces/inkscape"/>
    <inkscape:path-effect effect="fill_between_many" method="originald" linkedpaths="#path15,0,1|" id="path-effect64" xmlns:inkscape="http://www.inkscape.org/namespaces/inkscape"/>
    <inkscape:path-effect effect="fill_between_many" method="originald" linkedpaths="#path16,0,1|" id="path-effect65" xmlns:inkscape="http://www.inkscape.org/namespaces/inkscape"/>
    <inkscape:path-effect effect="fill_between_many" method="originald" linkedpaths="#path17,0,1|" id="path-effect66" xmlns:inkscape="http://www.inkscape.org/namespaces/inkscape"/>
    <inkscape:path-effect effect="fill_between_many" method="originald" linkedpaths="#path18,0,1|" id="path-effect67" xmlns:inkscape="http://www.inkscape.org/namespaces/inkscape"/>
    <inkscape:path-effect effect="fill_between_many" method="originald" linkedpaths="#path19,0,1|" id="path-effect68" xmlns:inkscape="http://www.inkscape.org/namespaces/inkscape"/>
    <inkscape:path-effect effect="fill_between_many" method="originald" linkedpaths="#path20,0,1|" id="path-effect69" xmlns:inkscape="http://www.inkscape.org/namespaces/inkscape"/>
    <inkscape:path-effect effect="fill_between_many" method="originald" linkedpaths="#path21,0,1|" id="path-effect70" xmlns:inkscape="http://www.inkscape.org/namespaces/inkscape"/>
    <inkscape:path-effect effect="fill_between_many" method="originald" linkedpaths="#path22,0,1|" id="path-effect71" xmlns:inkscape="http://www.inkscape.org/namespaces/inkscape"/>
    <inkscape:path-effect effect="fill_between_many" method="originald" linkedpaths="#path23,0,1|" id="path-effect72" xmlns:inkscape="http://www.inkscape.org/namespaces/inkscape"/>
    <inkscape:path-effect effect="fill_between_many" method="originald" linkedpaths="#path24,0,1|" id="path-effect73" xmlns:inkscape="http://www.inkscape.org/namespaces/inkscape"/>
    <inkscape:path-effect effect="fill_between_many" method="originald" linkedpaths="#path25,0,1|" id="path-effect74" xmlns:inkscape="http://www.inkscape.org/namespaces/inkscape"/>
  </defs><g><path xmlns:inkscape="http://www.inkscape.org/namespaces/inkscape" inkscape:original-d="M 0,0" inkscape:path-effect="#path-effect60" d="m 2631.3034,3618.824 c -99.6344,-0.589 -94.7408,0.8846 -70.9253,-21.3566 22.3673,-20.8886 36.4233,-43.2239 44.1683,-70.1845 3.8501,-13.4028 6.7382,-56.8496 6.723,-101.1403 l -0.012,-35.2861 -3.5324,7.7805 c -4.9967,11.0058 -15.1716,16.9036 -34.583,20.0459 -15.5393,2.5154 -31.448,8.5447 -41.5768,15.757 -10.4634,7.4507 -12.9341,5.8095 -24.6918,-16.4017 -5.8732,-11.0952 -10.6786,-21.849 -10.6786,-23.8974 0,-3.2983 -1.5406,-3.8327 -13.4644,-4.6707 -7.4055,-0.5205 -18.061,-2.5106 -23.6789,-4.4227 l -10.2143,-3.4767 -7.1476,7.1477 c -11.309,11.309 -24.1966,16.0672 -43.5131,16.0653 -8.9085,-8e-4 -22.4652,-1.3285 -30.126,-2.9505 -10.3892,-2.1996 -18.5836,-2.6295 -32.2467,-1.6918 l -18.3181,1.257 1.1292,-8.0566 c 3.4459,-24.5861 3.4139,-26.5875 -0.6189,-38.7131 -2.2058,-6.6321 -4.4988,-19.2685 -5.0956,-28.0808 l -1.085,-16.0223 -9.216,-1.0915 c -15.9227,-1.8858 -31.5397,-13.4438 -41.8001,-30.9361 -8.7736,-14.9573 -13.6311,-20.2028 -26.6504,-28.78 -14.9017,-9.8173 -15.9189,-13.2318 -7.2075,-24.1937 3.0838,-3.8804 9.9363,-15.0687 15.2278,-24.8628 10.8967,-20.1687 21.9063,-32.9778 33.7417,-39.2564 7.9761,-4.2313 8.0621,-4.3803 5.7814,-9.9948 -1.2732,-3.1347 -3.3284,-11.5495 -4.5668,-18.6996 -1.2384,-7.1501 -3.8516,-17.1949 -5.8068,-22.3219 -4.9836,-13.0674 -4.6592,-16.929 1.5522,-18.4788 6.9441,-1.7326 21.8722,-9.2464 32.1921,-16.2035 l 8.5133,-5.739 -2.6582,-7.6289 c -1.4619,-4.1959 -3.1052,-13.9753 -3.6515,-21.732 l -0.9935,-14.103 12.8102,-1.074 c 7.0455,-0.5907 17.2024,-2.8052 22.5707,-4.9212 5.3684,-2.116 14.2134,-4.3707 19.6558,-5.0103 l 9.8951,-1.163 2.0498,-11.3845 c 1.1274,-6.2614 1.5665,-16.4829 0.9759,-22.7142 -1.0209,-10.7686 -0.8556,-11.3883 3.3373,-12.5105 2.4262,-0.6494 6.9786,-1.1922 10.1163,-1.2061 3.1378,-0.014 9.4347,-1.2962 13.9934,-2.8495 l 8.2885,-2.8242 -1.6231,-15.2832 c -2.9434,-27.715 -3.3593,-25.8477 6.3116,-28.3388 4.6927,-1.2088 13.8572,-4.9038 20.3656,-8.2111 6.6856,-3.3974 15.9837,-6.4417 21.3737,-6.998 l 9.5404,-0.9846 -0.1913,-6.6738 c -0.1879,-6.556 -0.039,-6.6962 8.4211,-7.9418 4.7367,-0.6973 16.019,-4.3591 25.0717,-8.1372 9.0526,-3.7782 20.2201,-7.6728 24.8166,-8.6546 7.6225,-1.6282 28.7213,-0.8167 38.2198,1.4701 3.2576,0.7842 4.986,-1.284 11.0396,-13.2107 6.3849,-12.5791 7.2651,-15.9761 7.9722,-30.7651 l 0.7948,-16.6247 h 5.1175 c 2.8146,0 8.3536,1.3772 12.3087,3.0603 5.3682,2.2846 13.7821,3.1444 33.1915,3.392 28.4133,0.3623 38.9325,3.2037 49.5689,13.3892 l 4.9968,4.7851 11.7176,-8.4005 c 6.4447,-4.6202 15.3439,-12.6684 19.7761,-17.8848 10.0716,-11.8537 14.7201,-12.349 19.4563,-2.0734 4.7856,10.3829 16.8723,24.3607 37.722,43.624 12.6278,11.6669 18.3133,15.8515 18.9244,13.9287 0.4805,-1.5117 4.0979,-5.8507 8.039,-9.6421 8.1435,-7.8343 18.3811,-11.4433 41.1236,-14.497 21.605,-2.9009 36.117,-6.9288 43.8182,-12.1619 3.6581,-2.4857 8.7553,-4.5104 11.327,-4.4993 4.0947,0.018 5.3054,1.6917 9.7368,13.4644 2.7835,7.3944 10.5059,21.6825 17.161,31.7513 6.6552,10.0689 13.0367,21.769 14.1811,26.0003 3.4334,12.6942 1.2242,32.1156 -4.9946,43.9081 -2.9625,5.6179 -5.6699,10.8412 -6.0162,11.6072 -0.3465,0.7661 6.4107,1.3929 15.0158,1.3929 15.427,0 18.3953,0.6554 45.9504,10.1462 7.6607,2.6386 20.0641,5.3249 27.5629,5.9697 l 13.634,1.1723 -1.1435,6.6775 c -0.629,3.6727 -1.6384,11.9008 -2.2432,18.2848 l -1.0997,11.6073 h 16.8349 c 16.164,0 17.3748,0.2972 30.3952,7.4608 7.4583,4.1034 16.6944,8.8267 20.5249,10.4961 4.4355,1.9332 6.9644,4.2799 6.9644,6.4629 0,1.8851 -4.0865,11.3563 -9.081,21.0471 l -9.0809,17.6197 9.604,5.1357 c 5.2821,2.8247 14.8007,7.5876 21.1524,10.5843 12.7263,6.0044 13.8879,8.6314 8.8538,20.0244 -1.4821,3.3544 -5.1218,13.6203 -8.0883,22.8132 -2.9662,9.193 -5.9669,18.0344 -6.6681,19.6477 -0.9483,2.1821 0.664,3.8075 6.2964,6.3473 8.8536,3.9925 18.6112,14.1998 24.3359,25.4576 5.4717,10.7603 17.6184,28.7107 25.1945,37.2323 7.9144,8.9022 8.3027,16.3498 1.0892,20.8878 -2.8091,1.767 -14.3002,12.691 -25.5361,24.2754 -16.8878,17.4118 -22.5212,21.9977 -32.5004,26.4565 -6.6393,2.9667 -14.4458,5.9632 -17.3475,6.6591 -4.1465,0.9944 -4.9586,1.9445 -3.7928,4.4375 0.8159,1.7448 1.789,9.5793 2.1626,17.4101 0.5835,12.2329 -0.023,15.8939 -4.3207,26.0003 -3.9725,9.3455 -5.1887,15.6741 -5.9186,30.7985 l -0.9188,19.0358 h -11.4884 c -7.6953,0 -17.283,1.8594 -29.0397,5.6317 -31.5514,10.1239 -53.8751,9.1172 -70.0865,-3.1604 -6.638,-5.0275 -15.2514,-17.4151 -15.2514,-21.9345 0,-3.7342 -0.2617,-3.6813 -12.5888,2.5399 -12.2671,6.1913 -28.5574,11.3519 -35.8331,11.3519 -3.9515,0 -5.3002,1.0976 -6.2756,5.1071 -0.6834,2.8091 -5.1615,13.2574 -9.9514,23.2186 -10.2398,21.2946 -7.1555,20.5823 -42.138,9.7316 -28.808,-8.9356 -35.1569,-12.3048 -42.3098,-22.4528 -6.3701,-9.0372 -5.9818,-8.9602 -25.9411,-5.1431 l -5.1071,0.9768 -0.4643,44.8886 c -0.9551,92.3387 0.5762,102.4703 19.1477,126.6912 8.1696,10.6549 25.0934,24.7745 42.1387,35.1569 8.9574,5.456 11.6073,8.0697 11.6073,11.449 v 4.3789 l -63.6079,-0.4451 c -34.9843,-0.2449 -101.8423,-0.6711 -148.5731,-0.9473 z" id="path61"/><path style="fill:#1a1a1a;stroke-width:5.80364" d="m 2631.3034,3618.824 c -99.6344,-0.589 -94.7408,0.8846 -70.9253,-21.3566 22.3673,-20.8886 36.4233,-43.2239 44.1683,-70.1845 3.8501,-13.4028 6.7382,-56.8496 6.723,-101.1403 l -0.012,-35.2861 -3.5324,7.7805 c -4.9967,11.0058 -15.1716,16.9036 -34.583,20.0459 -15.5393,2.5154 -31.448,8.5447 -41.5768,15.757 -10.4634,7.4507 -12.9341,5.8095 -24.6918,-16.4017 -5.8732,-11.0952 -10.6786,-21.849 -10.6786,-23.8974 0,-3.2983 -1.5406,-3.8327 -13.4644,-4.6707 -7.4055,-0.5205 -18.061,-2.5106 -23.6789,-4.4227 l -10.2143,-3.4767 -7.1476,7.1477 c -11.309,11.309 -24.1966,16.0672 -43.5131,16.0653 -8.9085,-8e-4 -22.4652,-1.3285 -30.126,-2.9505 -10.3892,-2.1996 -18.5836,-2.6295 -32.2467,-1.6918 l -18.3181,1.257 1.1292,-8.0566 c 3.4459,-24.5861 3.4139,-26.5875 -0.6189,-38.7131 -2.2058,-6.6321 -4.4988,-19.2685 -5.0956,-28.0808 l -1.085,-16.0223 -9.216,-1.0915 c -15.9227,-1.8858 -31.5397,-13.4438 -41.8001,-30.9361 -8.7736,-14.9573 -13.6311,-20.2028 -26.6504,-28.78 -14.9017,-9.8173 -15.9189,-13.2318 -7.2075,-24.1937 3.0838,-3.8804 9.9363,-15.0687 15.2278,-24.8628 10.8967,-20.1687 21.9063,-32.9778 33.7417,-39.2564 7.9761,-4.2313 8.0621,-4.3803 5.7814,-9.9948 -1.2732,-3.1347 -3.3284,-11.5495 -4.5668,-18.6996 -1.2384,-7.1501 -3.8516,-17.1949 -5.8068,-22.3219 -4.9836,-13.0674 -4.6592,-16.929 1.5522,-18.4788 6.9441,-1.7326 21.8722,-9.2464 32.1921,-16.2035 l 8.5133,-5.739 -2.6582,-7.6289 c -1.4619,-4.1959 -3.1052,-13.9753 -3.6515,-21.732 l -0.9935,-14.103 12.8102,-1.074 c 7.0455,-0.5907 17.2024,-2.8052 22.5707,-4.9212 5.3684,-2.116 14.2134,-4.3707 19.6558,-5.0103 l 9.8951,-1.163 2.0498,-11.3845 c 1.1274,-6.2614 1.5665,-16.4829 0.9759,-22.7142 -1.0209,-10.7686 -0.8556,-11.3883 3.3373,-12.5105 2.4262,-0.6494 6.9786,-1.1922 10.1163,-1.2061 3.1378,-0.014 9.4347,-1.2962 13.9934,-2.8495 l 8.2885,-2.8242 -1.6231,-15.2832 c -2.9434,-27.715 -3.3593,-25.8477 6.3116,-28.3388 4.6927,-1.2088 13.8572,-4.9038 20.3656,-8.2111 6.6856,-3.3974 15.9837,-6.4417 21.3737,-6.998 l 9.5404,-0.9846 -0.1913,-6.6738 c -0.1879,-6.556 -0.039,-6.6962 8.4211,-7.9418 4.7367,-0.6973 16.019,-4.3591 25.0717,-8.1372 9.0526,-3.7782 20.2201,-7.6728 24.8166,-8.6546 7.6225,-1.6282 28.7213,-0.8167 38.2198,1.4701 3.2576,0.7842 4.986,-1.284 11.0396,-13.2107 6.3849,-12.5791 7.2651,-15.9761 7.9722,-30.7651 l 0.7948,-16.6247 h 5.1175 c 2.8146,0 8.3536,1.3772 12.3087,3.0603 5.3682,2.2846 13.7821,3.1444 33.1915,3.392 28.4133,0.3623 38.9325,3.2037 49.5689,13.3892 l 4.9968,4.7851 11.7176,-8.4005 c 6.4447,-4.6202 15.3439,-12.6684 19.7761,-17.8848 10.0716,-11.8537 14.7201,-12.349 19.4563,-2.0734 4.7856,10.3829 16.8723,24.3607 37.722,43.624 12.6278,11.6669 18.3133,15.8515 18.9244,13.9287 0.4805,-1.5117 4.0979,-5.8507 8.039,-9.6421 8.1435,-7.8343 18.3811,-11.4433 41.1236,-14.497 21.605,-2.9009 36.117,-6.9288 43.8182,-12.1619 3.6581,-2.4857 8.7553,-4.5104 11.327,-4.4993 4.0947,0.018 5.3054,1.6917 9.7368,13.4644 2.7835,7.3944 10.5059,21.6825 17.161,31.7513 6.6552,10.0689 13.0367,21.769 14.1811,26.0003 3.4334,12.6942 1.2242,32.1156 -4.9946,43.9081 -2.9625,5.6179 -5.6699,10.8412 -6.0162,11.6072 -0.3465,0.7661 6.4107,1.3929 15.0158,1.3929 15.427,0 18.3953,0.6554 45.9504,10.1462 7.6607,2.6386 20.0641,5.3249 27.5629,5.9697 l 13.634,1.1723 -1.1435,6.6775 c -0.629,3.6727 -1.6384,11.9008 -2.2432,18.2848 l -1.0997,11.6073 h 16.8349 c 16.164,0 17.3748,0.2972 30.3952,7.4608 7.4583,4.1034 16.6944,8.8267 20.5249,10.4961 4.4355,1.9332 6.9644,4.2799 6.9644,6.4629 0,1.8851 -4.0865,11.3563 -9.081,21.0471 l -9.0809,17.6197 9.604,5.1357 c 5.2821,2.8247 14.8007,7.5876 21.1524,10.5843 12.7263,6.0044 13.8879,8.6314 8.8538,20.0244 -1.4821,3.3544 -5.1218,13.6203 -8.0883,22.8132 -2.9662,9.193 -5.9669,18.0344 -6.6681,19.6477 -0.9483,2.1821 0.664,3.8075 6.2964,6.3473 8.8536,3.9925 18.6112,14.1998 24.3359,25.4576 5.4717,10.7603 17.6184,28.7107 25.1945,37.2323 7.9144,8.9022 8.3027,16.3498 1.0892,20.8878 -2.8091,1.767 -14.3002,12.691 -25.5361,24.2754 -16.8878,17.4118 -22.5212,21.9977 -32.5004,26.4565 -6.6393,2.9667 -14.4458,5.9632 -17.3475,6.6591 -4.1465,0.9944 -4.9586,1.9445 -3.7928,4.4375 0.8159,1.7448 1.789,9.5793 2.1626,17.4101 0.5835,12.2329 -0.023,15.8939 -4.3207,26.0003 -3.9725,9.3455 -5.1887,15.6741 -5.9186,30.7985 l -0.9188,19.0358 h -11.4884 c -7.6953,0 -17.283,1.8594 -29.0397,5.6317 -31.5514,10.1239 -53.8751,9.1172 -70.0865,-3.1604 -6.638,-5.0275 -15.2514,-17.4151 -15.2514,-21.9345 0,-3.7342 -0.2617,-3.6813 -12.5888,2.5399 -12.2671,6.1913 -28.5574,11.3519 -35.8331,11.3519 -3.9515,0 -5.3002,1.0976 -6.2756,5.1071 -0.6834,2.8091 -5.1615,13.2574 -9.9514,23.2186 -10.2398,21.2946 -7.1555,20.5823 -42.138,9.7316 -28.808,-8.9356 -35.1569,-12.3048 -42.3098,-22.4528 -6.3701,-9.0372 -5.9818,-8.9602 -25.9411,-5.1431 l -5.1071,0.9768 -0.4643,44.8886 c -0.9551,92.3387 0.5762,102.4703 19.1477,126.6912 8.1696,10.6549 25.0934,24.7745 42.1387,35.1569 8.9574,5.456 11.6073,8.0697 11.6073,11.449 v 4.3789 l -63.6079,-0.4451 c -34.9843,-0.2449 -101.8423,-0.6711 -148.5731,-0.9473 z m 187.8781,-13.4216 c -25.237,-16.5221 -45.0589,-39.162 -49.7335,-56.8038 -4.0569,-15.3102 -5.4046,-44.4145 -4.4337,-95.7403 l 1.0055,-53.1424 -8.5938,-1.2887 c -10.9691,-1.645 -31.9386,-12.1022 -39.9247,-19.9102 -10.6725,-10.4343 -14.1722,-19.2101 -14.1504,-35.4824 0.011,-7.9162 -0.1681,-14.3931 -0.3974,-14.3931 -0.2293,0 -4.3464,2.0894 -9.149,4.6429 -4.8027,2.5536 -10.2791,4.6429 -12.1699,4.6429 -2.7148,0 -3.4377,1.4192 -3.4377,6.7489 0,11.23 -3.9959,21.0201 -12.3905,30.357 -10.226,11.3736 -17.6284,14.7786 -33.3856,15.3565 -6.9985,0.2566 -13.3386,1.3025 -14.089,2.324 -0.7505,1.0214 -1.3902,18.1538 -1.4216,38.0719 -0.072,45.4776 -2.947,88.6827 -6.7924,102.0688 -7.4486,25.9291 -21.3279,48.486 -42.0296,68.307 l -12.1031,11.5883 82.9275,0.5027 c 45.6102,0.2768 107.9994,0.6987 138.6426,0.9381 l 55.715,0.4352 z m -251.8849,-192.273 c 20.7755,-3.3296 30.275,-9.1956 35.566,-21.9623 4.1958,-10.1241 3.7274,-10.8717 -9.0222,-14.3974 -7.0009,-1.9361 -17.5324,-1.5317 -30.3234,1.1646 l -6.0359,1.2722 v -10.187 c 0,-6.8376 -1.4913,-13.4711 -4.5359,-20.1753 -2.4947,-5.4935 -4.5841,-8.4742 -4.6429,-6.6237 -0.059,1.8505 -3.1241,9.552 -6.8116,17.1144 -7.4325,15.2422 -13.5342,20.9479 -28.8628,26.9892 -5.4632,2.1532 -10.2003,4.1818 -10.5269,4.508 -0.6825,0.6817 4.7385,11.6873 13.8543,28.1275 l 6.3149,11.3886 14.3554,-7.302 c 10.3,-5.2392 18.9647,-8.0407 30.671,-9.9168 z m 313.9699,-5.4557 c 4.9478,-9.6449 8.5088,-18.3244 7.9135,-19.2876 -0.5953,-0.9633 -4.0666,-2.3112 -7.7139,-2.9955 -13.2832,-2.4919 -28.4171,-21.5681 -31.4273,-39.614 l -1.3239,-7.9366 -6.05,7.9366 c -10.7715,14.131 -13.0055,19.9047 -12.951,33.4727 l 0.052,12.5357 h -12.8781 -12.878 l 4.6374,6.0359 c 6.586,8.5721 13.7124,12.2249 39.2674,20.1278 12.3753,3.8271 22.9184,7.0264 23.429,7.1098 0.5108,0.083 4.9768,-7.7398 9.9245,-17.3848 z m -462.6613,-12.8982 c 5.3916,-2.4411 12.71,-6.9308 16.263,-9.9774 5.4551,-4.6773 6.0908,-5.9838 4.0866,-8.3986 -2.9675,-3.5756 -17.7102,-7.2193 -26.3324,-6.508 -6.3865,0.5269 -6.49,0.4225 -5.9195,-5.9639 0.3193,-3.575 1.1827,-18.2001 1.9187,-32.5003 0.7359,-14.3002 2.0265,-27.4628 2.8681,-29.2504 1.3769,-2.9248 0.2553,-3.2574 -11.2046,-3.3237 -10.4863,-0.061 -14.5378,-1.0442 -22.9489,-5.5711 -14.0553,-7.5645 -19.833,-7.1951 -30.9053,1.9763 -4.963,4.111 -12.9829,9.2696 -17.8219,11.4634 -4.8388,2.194 -9.3115,5.6067 -9.9389,7.5837 -1.5921,5.0164 0.76,21.9516 4.7864,34.4626 5.117,15.8992 6.1366,27.8412 3.2002,37.481 l -2.5566,8.3926 18.7251,-0.538 c 11.3546,-0.3262 23.1112,0.4782 29.8682,2.0445 18.3591,4.2549 34.5512,3.7707 45.9118,-1.3727 z m 612.3614,-3.0035 c 11.6279,-3.6825 21.4284,-5.5584 29.0396,-5.5584 h 11.4883 l 0.9142,-19.0359 c 0.7208,-15.0127 1.9336,-21.3911 5.7379,-30.179 5.6317,-13.0086 6.1971,-24.1081 1.7079,-33.5222 -4.4438,-9.3186 -21.6532,-19.2601 -37.6533,-21.7515 -10.8786,-1.6938 -13.0404,-1.4625 -21.8743,2.3409 -13.4142,5.7755 -19.2002,14.7934 -21.7486,33.897 -0.9959,7.4657 -1.8014,8.8258 -5.2415,8.8499 -8.3374,0.059 -9.3436,2.2237 -7.0786,15.2314 3.3541,19.26 3.6523,18.6322 -8.1502,17.1575 -12.1096,-1.5129 -21.3364,1.4472 -21.3364,6.8453 0,5.1407 8.2005,17.3011 15.2514,22.6161 15.6517,11.7982 29.2424,12.515 58.9436,3.1089 z m -237.2816,-5.7424 c 1.967,-1.0528 8.8867,-2.0616 15.3767,-2.2421 l 11.8002,-0.3278 1.2272,-11.459 c 0.9076,-8.4762 2.874,-14.0399 7.5538,-21.3733 12.6382,-19.805 16.2569,-29.0265 14.9972,-38.2173 -3.7095,-27.0633 -28.979,-42.518 -56.77,-34.7202 -14.4588,4.0569 -21.4337,11.7722 -24.4353,27.0296 l -2.0756,10.5503 h -15.314 c -17.0975,0 -24.4415,2.6715 -30.3014,11.0222 -20.5409,29.2725 20.7227,69.7591 64.3736,63.1618 5.495,-0.8306 11.6004,-2.3715 13.5676,-3.4242 z m -289.1362,-5.3863 c 13.5996,-4.679 21.5093,-10.6822 27.4346,-20.8218 5.0758,-8.6861 12.4976,-30.9774 12.4976,-37.5364 0,-4.0215 -0.2694,-3.9742 -12.8117,2.2515 -9.2016,4.5675 -16.2563,6.636 -25.0359,7.3407 -23.2617,1.8673 -36.1924,-5.4319 -45.2125,-25.5217 -2.5224,-5.6179 -5.8324,-13.0027 -7.3553,-16.4106 -2.4153,-5.4043 -3.4011,-6.0389 -7.7132,-4.9656 -9.552,2.3776 -21.5912,11.3105 -26.0551,19.3325 -3.9608,7.1179 -4.4246,10.3726 -4.6781,32.8299 -0.2707,23.9886 -0.1377,24.9287 3.5277,24.9287 7.8223,0 23.3472,5.1752 30.5974,10.1996 8.3043,5.7548 27.0289,11.7496 37.3382,11.9541 3.6704,0.073 11.5303,-1.5387 17.4663,-3.5809 z m 147.3356,-5.0779 c 9.4034,-7.5643 17.2147,-19.6903 18.4061,-28.5731 2.3654,-17.6354 -11.4186,-39.0342 -26.8046,-41.6125 -15.0732,-2.5259 -15.9753,-3.2012 -18.3478,-13.7355 -3.3468,-14.8599 -8.8348,-19.3493 -24.7529,-20.2488 -7.0676,-0.3993 -15.8242,0.2554 -19.4593,1.4551 -13.0494,4.3067 -29.0563,28.298 -29.002,43.4684 0.016,4.5385 5.5633,22.9464 9.9913,33.156 1.6471,3.7976 2.9946,9.7068 2.9946,13.1315 v 6.2268 l 9.7502,-1.3504 c 11.374,-1.5752 29.9496,2.3134 35.7504,7.484 7.362,6.5622 11.0562,7.6706 22.9024,6.8716 9.5522,-0.6442 13.0379,-1.8216 18.5716,-6.2731 z m 260.4424,2.0822 c 12.5579,-3.728 30.3107,-12.5859 35.3758,-17.6511 5.4215,-5.4215 15.1052,-9.069 24.0774,-9.069 h 7.6991 l -0.7091,-25.536 c -0.6284,-22.6307 -1.2334,-26.5912 -5.3179,-34.8095 -4.7988,-9.6554 -15.7657,-18.8148 -23.7932,-19.8716 -3.6453,-0.4799 -4.9755,0.9597 -8.4451,9.1389 -12.4276,29.2972 -40.001,46.935 -73.3738,46.935 h -11.8712 l 0.9984,11.0104 c 1.711,18.8683 14.1094,36.5954 28.6471,40.959 8.1766,2.4542 15.7799,2.1395 26.7125,-1.1061 z m -228.5388,-49.0061 c 0.8652,0 4.7454,-2.9919 8.6228,-6.6487 5.4817,-5.1699 8.1312,-6.4324 11.9119,-5.6763 3.0817,0.6162 8.1447,-0.6895 13.826,-3.5658 7.0681,-3.5782 11.8283,-4.538 22.5064,-4.538 h 13.5423 l 2.0924,-7.7703 c 1.1508,-4.2736 4.5956,-12.4219 7.6551,-18.1074 4.6772,-8.6912 5.4389,-11.9017 4.7845,-20.1642 -1.1552,-14.5835 -4.9073,-18.3008 -32.2587,-31.9591 -23.6115,-11.7905 -38.4599,-20.9564 -43.1988,-26.6666 -2.037,-2.4543 -4.1722,-1.0351 -15.8309,10.522 -7.4119,7.3474 -19.9112,19.209 -27.7763,26.3591 -11.8651,10.7864 -14.9013,14.7501 -17.8307,23.2769 -3.3672,9.8011 -3.3864,10.765 -0.4142,20.8173 3.0919,10.4569 3.19,10.5576 12.411,12.7189 17.1972,4.0307 25.2973,10.6485 29.8644,24.3989 2.1985,6.619 3.7776,8.823 5.7731,8.0573 1.5107,-0.5797 3.4546,-1.054 4.3197,-1.054 z m -167.9658,-6.4416 c 5.0373,-1.5001 13.64,-5.4697 19.1173,-8.8216 8.6614,-5.3002 10.4119,-7.4054 13.4372,-16.1599 1.9132,-5.5361 5.1487,-11.8435 7.1901,-14.0165 l 3.7116,-3.9509 -6.6861,-10.1266 c -6.4478,-9.7656 -6.582,-10.3089 -3.7655,-15.2428 2.8844,-5.0529 2.8432,-5.1485 -3.3277,-7.7268 -3.4364,-1.4358 -11.8234,-3.2077 -18.6378,-3.9375 -7.7579,-0.8308 -12.7538,-2.276 -13.3639,-3.8659 -0.536,-1.3965 2.9087,-7.7646 7.6546,-14.1512 8.6558,-11.648 11.9103,-19.0305 9.4638,-21.4681 -0.7211,-0.7185 -7.7162,-1.2481 -15.5446,-1.177 -24.3309,0.2213 -38.3606,9.7033 -51.5806,34.8609 -3.7218,7.0828 -9.505,15.9084 -12.8515,19.6125 l -6.0843,6.7347 5.5523,5.546 c 5.2716,5.2655 6.9201,8.2707 16.0758,29.3065 5.8629,13.4706 11.2162,19.9591 19.6137,23.7727 9.2367,4.1948 17.8795,4.4285 30.0256,0.8115 z m 369.4486,-5.3725 c 27.3451,-7.3154 42.1524,-21.9412 53.8467,-53.1867 1.7203,-4.5965 3.873,-9.2592 4.7837,-10.3616 1.0632,-1.2869 -1.4886,-5.3088 -7.1299,-11.2371 -4.8322,-5.078 -11.7108,-14.8835 -15.2858,-21.7899 -8.9412,-17.2727 -18.2368,-29.0041 -26.2563,-33.1362 -7.5302,-3.88 -28.7548,-8.3706 -30.6423,-6.4831 -1.8025,1.8027 -0.8297,24.7833 1.2846,30.3442 1.0064,2.6473 4.3245,7.1436 7.3735,9.9917 5.8025,5.4204 5.9138,11.0649 0.22,11.1411 -6.7238,0.09 -19.4042,7.7822 -31.3993,19.0479 -6.9577,6.5347 -14.9047,13.3582 -17.6597,15.1633 l -5.0092,3.2822 9.0483,4.509 c 12.6432,6.3003 24.3254,24.9446 24.3254,38.8221 0,2.3401 1.0447,4.6762 2.3215,5.1914 4.5809,1.8484 21.0677,1.1392 30.1789,-1.2983 z m 106.9719,-5.8533 c 0.6125,-4.0724 1.7477,-9.7025 2.5228,-12.5115 1.3185,-4.7784 1.0375,-5.1072 -4.3637,-5.1072 h -5.7728 v 13.1363 c 0,11.5107 0.4022,13.059 3.25,12.5115 2.1994,-0.4229 3.6101,-3.0184 4.3637,-8.0291 z m -667.0377,-12.2752 c 14.2543,-7.1228 21.787,-14.457 28.9711,-28.2074 5.1995,-9.9518 5.3539,-10.8538 2.6822,-15.6695 -1.5592,-2.8105 -6.9914,-7.8929 -12.0716,-11.2943 -5.0802,-3.4013 -9.5276,-6.9901 -9.8832,-7.9753 -0.3557,-0.9852 1.6149,-3.8869 4.3788,-6.4485 4.6604,-4.3191 4.8085,-4.897 2.0394,-7.9568 -5.581,-6.1669 -3.8154,-10.6623 4.907,-12.4933 l 7.893,-1.6571 0.4796,-9.2855 c 0.8687,-16.8148 -12.8225,-32.5753 -31.1228,-35.827 -11.9642,-2.1259 -36.5545,1.5016 -44.811,6.6103 -10.8186,6.6938 -20.6287,18.7054 -31.1111,38.0925 -5.3821,9.9544 -11.8124,20.5075 -14.2895,23.4514 -2.4771,2.9439 -4.5038,5.7423 -4.5038,6.2186 0,0.4765 5.3174,4.3051 11.8165,8.5082 11.9866,7.7518 16.9222,13.128 25.8543,28.1614 8.7264,14.6874 19.5907,24.3292 32.6879,29.0095 9.954,3.5572 13.3234,3.139 26.0832,-3.2372 z m 99.8713,-12.825 c 4.6065,-2.9214 10.7829,-5.8403 13.7253,-6.4866 7.6508,-1.6803 8.0167,-3.628 1.6832,-8.9573 -7.4512,-6.2698 -7.0332,-10.1986 2.0167,-18.9482 4.1763,-4.0377 10.39,-12.8538 13.8082,-19.5914 3.4182,-6.7375 8.3108,-14.7409 10.8725,-17.7852 l 4.6573,-5.535 -4.2973,-9.2754 c -6.9616,-15.0259 -21.9481,-24.798 -38.0305,-24.798 -8.0327,0 -18.8372,5.8353 -32.911,17.7745 -12.9919,11.0213 -29.6773,20.2239 -40.2723,22.2115 -3.7673,0.7067 -6.8496,1.7069 -6.8496,2.2224 0,0.5156 2.8282,4.8101 6.2852,9.5434 5.8285,7.9808 12.4898,25.2676 18.3152,47.5307 2.2123,8.4552 3.2437,9.6467 12.5836,14.5383 8.9058,4.6642 11.4114,5.175 20.1059,4.0981 6.0447,-0.7488 13.2104,-3.3092 18.3076,-6.5418 z m 676.3961,-3.9428 c 9.8957,-4.4314 15.7515,-9.2631 34.5734,-28.5271 12.4629,-12.7558 23.6074,-23.1923 24.7654,-23.1923 3.4264,0 2.4069,-4.7257 -1.8409,-8.5336 -4.8319,-4.3315 -20.0487,-26.6461 -25.5823,-37.5148 -10.4227,-20.4719 -27.0782,-30.8235 -49.4007,-30.7026 -20.4686,0.1107 -34.3154,8.1751 -42.806,24.9306 -6.8189,13.4565 -6.2316,15.7606 4.7342,18.571 5.1071,1.3089 9.2752,2.8487 9.2623,3.4217 -0.012,0.573 -2.4517,5.8293 -5.4194,11.6807 -3.6349,7.1667 -5.7653,14.7431 -6.5274,23.2144 -0.6223,6.9167 -1.5011,15.4594 -1.9529,18.9839 -0.7191,5.6093 0.1632,7.3455 7.0755,13.9287 4.3433,4.1363 12.751,10.0278 18.6836,13.0922 5.9327,3.0642 11.18,6.2013 11.6608,6.971 1.2453,1.9943 9.0205,-0.1646 22.7744,-6.3238 z m -97.6039,0.2194 c 12.3756,-4.6304 26.2974,-16.5309 28.7659,-24.5893 1.0096,-3.2956 2.3869,-13.0957 3.0609,-21.7779 0.6777,-8.7319 2.7733,-19.3129 4.6897,-23.6789 2.3874,-5.4391 2.7752,-7.9066 1.2474,-7.937 -6.0238,-0.1198 -24.9697,-9.917 -37.0093,-19.138 -16.9973,-13.0182 -24.415,-16.104 -38.7104,-16.104 -9.1843,0 -13.4478,1.1027 -21.8813,5.6597 -10.4961,5.6715 -19.9247,15.7211 -21.8148,23.2517 -1.4996,5.9752 13.2942,31.2418 23.8763,40.7784 9.0733,8.1768 10.9153,13.5472 6.0358,17.5969 -4.4762,3.7148 -3.236,6.8743 3.2039,8.1623 8.0057,1.6012 19.6322,9.862 22.9733,16.3229 3.3726,6.5219 10.8753,6.9484 25.5626,1.4532 z m -636.8903,-9.8418 c 0.8972,-5.9831 0.2538,-10.2692 -2.5089,-16.7145 -2.0436,-4.7673 -4.1925,-8.6679 -4.7755,-8.6679 -0.583,0 -0.2667,1.4819 0.7026,3.2931 2.7,5.045 3.002,21.2704 0.4832,25.9572 -1.9685,3.6628 -1.8051,4.1787 1.3231,4.1787 2.7855,0 3.8336,-1.7662 4.7755,-8.0466 z m 225.4787,-7.6186 c 8.853,0.066 19.2303,0.5769 23.0607,1.1343 3.8304,0.5573 6.9644,0.7802 6.9644,0.4953 0,-0.2848 0.4283,-1.6343 0.9519,-2.9988 0.7635,-1.9897 -3.5574,-2.462 -21.8217,-2.3858 -20.0909,0.084 -23.8055,-0.4075 -31.5334,-4.1711 -4.8179,-2.3464 -9.5339,-4.2663 -10.48,-4.2663 -4.0082,0 -3.5827,6.2437 0.8858,12.996 l 4.8061,7.2625 5.5349,-4.0935 c 4.7438,-3.5082 7.8359,-4.0761 21.6313,-3.9726 z m 221.9716,-2.8039 c 2.5381,-0.965 11.1588,-7.7624 19.1569,-15.1053 7.9981,-7.3429 18.0939,-14.9498 22.4351,-16.9041 4.341,-1.9542 7.8928,-3.9614 7.8928,-4.4602 0,-0.4988 -1.3566,-2.9776 -3.0149,-5.5084 -2.1855,-3.3355 -3.4089,-11.6199 -4.4471,-30.1136 -1.5707,-27.9799 -2.811,-32.6774 -11.5359,-43.6937 -18.2613,-23.0565 -64.6839,-25.7436 -77.6406,-4.4939 -4.3065,7.0631 -4.7323,20.549 -0.8626,27.3184 4.3408,7.5933 3.3634,12.3705 -3.6208,17.6976 -8.2664,6.3051 -14.0222,18.2849 -14.0222,29.1852 0,8.131 3.2904,14.4035 7.5559,14.4035 3.6927,0 16.4913,13.5827 18.482,19.6141 1.5725,4.7653 4.0537,7.2669 9.8536,9.9354 8.4602,3.8925 22.4856,4.8937 29.7678,2.125 z m -194.3768,-10.4272 c 21.2767,-12.4689 26.3977,-43.2035 10.0321,-60.2088 -3.6703,-3.8137 -7.9268,-7.3355 -9.459,-7.8263 -2.371,-0.7596 -2.4401,-1.8557 -0.4642,-7.363 2.8053,-7.8196 3.0241,-20.9241 0.43,-25.771 -2.7259,-5.0935 -16.9836,-12.9364 -23.5171,-12.9364 -6.6962,0 -24.2923,5.8361 -31.1564,10.3337 -8.0839,5.2968 -14.9877,17.4706 -19.4164,34.2383 -8.0016,30.2945 -9.4438,34.4129 -14.9338,42.6455 -5.9593,8.9363 -5.2134,11.1305 3.8018,11.1839 6.5086,0.038 22.3312,5.631 36.9781,13.0701 6.6348,3.3697 14.5704,6.7849 17.6347,7.5891 8.7164,2.2875 21.2303,0.2255 30.0702,-4.9551 z m 34.9157,-33.7984 c -2.7261,-1.4283 -5.2258,-2.3225 -5.5551,-1.9872 -0.3293,0.3353 -1.209,3.8761 -1.9549,7.8683 l -1.3561,7.2586 6.9111,-5.2713 6.9112,-5.2715 z m 86.3731,-4.223 c 0,-11.6838 3.2861,-19.6859 12.0824,-29.4224 6.3792,-7.061 6.725,-8.0274 4.8233,-13.4823 -1.1266,-3.2319 -2.0625,-8.4676 -2.0797,-11.6348 l -0.032,-5.7587 -3.723,5.8109 c -2.0476,3.1961 -6.8976,8.011 -10.7777,10.6999 l -7.0546,4.8888 0.8042,15.3226 c 0.5788,11.026 0.014,17.2123 -2.0113,22.0614 -2.6935,6.4463 -2.6421,6.8226 1.1831,8.6737 6.3934,3.0937 6.7846,2.6809 6.7846,-7.1591 z m -16.0372,-4.1189 c 4.391,-7.0029 5.242,-17.0526 2.1868,-25.825 -4.0352,-11.586 -3.6498,-13.2149 4.1054,-17.3552 3.8473,-2.054 9.7386,-7.8672 13.1749,-13.0002 5.7138,-8.5351 6.1566,-10.2202 5.4847,-20.872 -0.9496,-15.0561 -5.1172,-20.7694 -18.3738,-25.1894 -5.5226,-1.8413 -19.234,-4.0596 -30.4699,-4.9294 l -20.4288,-1.5816 -11.1514,11.6555 c -8.0288,8.3915 -13.751,12.5787 -20.4343,14.9524 l -9.2828,3.297 -0.19,14.1201 c -0.1042,7.766 -0.4636,20.3879 -0.7979,28.0488 -0.8,18.3287 4.0944,29.7595 15.1594,35.4044 11.3995,5.8156 16.1307,4.3523 24.4017,-7.547 3.9049,-5.6179 8.4158,-10.5036 10.0242,-10.857 1.6084,-0.3536 6.7953,3.061 11.5265,7.5879 8.9517,8.5651 18.7689,16.1091 21.0952,16.2105 0.7425,0.032 2.5291,-1.8216 3.9702,-4.1198 z m -350.7528,-11.3608 c 3.0643,-2.0855 11.1235,-8.2396 17.9094,-13.6758 11.5855,-9.2811 12.2084,-10.163 10.2144,-14.4629 -2.8141,-6.0683 -3.9167,-5.808 -7.5145,1.7738 -4.2898,9.0402 -16.7318,19.1073 -25.4312,20.5771 -6.4669,1.0927 -7.2497,1.8025 -7.2497,6.5749 0,6.0378 2.2604,5.8905 12.0716,-0.7871 z m 113.287,0.6821 c 4.0858,-1.9736 9.1698,-3.6166 11.2978,-3.6514 6.2147,-0.1009 6.0986,-1.4882 -0.7572,-9.0366 l -6.4731,-7.127 -8.243,7.8982 c -6.3792,6.1124 -7.9655,8.7724 -7.0157,11.7646 1.4833,4.6739 1.8207,4.6784 11.1912,0.1522 z m 39.9291,-3.5193 c 0,-0.9141 -3.3429,-1.9809 -7.4286,-2.3706 -5.1569,-0.4917 -7.4287,0.016 -7.4287,1.6622 0,1.5275 2.6418,2.3705 7.4287,2.3705 4.0857,0 7.4286,-0.7479 7.4286,-1.6621 z m 386.6183,-12.2666 c -7.9722,-2.9784 -10.7421,-5.161 -15.4853,-12.2021 l -4.4669,-6.6307 -5.0223,5.0961 -5.0225,5.0962 8.939,2.9689 c 4.9683,1.6503 11.7296,5.8482 15.2211,9.4506 l 6.2821,6.4815 2.2628,-4.2017 c 2.0382,-3.7844 1.7692,-4.3861 -2.708,-6.0588 z m 114.8034,5.1072 c -0.011,-1.7875 -2.8985,-5.2151 -6.4256,-7.617 -10.0958,-6.8749 -14.6616,-18.3009 -13.5456,-33.8977 0.5072,-7.09 0.3354,-13.2536 -0.3819,-13.6969 -0.7173,-0.4432 -3.2323,3.9631 -5.589,9.7919 -2.3567,5.8289 -5.8784,13.2685 -7.8258,16.5325 l -3.541,5.9347 5.1963,3.2251 c 2.8578,1.7738 7.2854,5.074 9.8391,7.3336 4.1243,3.6496 20.6239,15.4337 21.8216,15.5851 0.2554,0.033 0.4585,-1.4038 0.4515,-3.1913 z m -488.1735,-16.3797 c 7.7071,-24.838 19.2068,-35.0971 44.6345,-39.8196 10.0058,-1.8583 16.4038,-6.7631 16.4038,-12.5753 0,-1.594 -1.4625,-4.4913 -3.25,-6.4385 -1.7875,-1.9472 -5.3394,-7.8432 -7.893,-13.1022 -6.3327,-13.0421 -13.6711,-17.1484 -30.1305,-16.8598 -20.2579,0.3552 -36.4714,7.9325 -55.3521,25.8684 -7.9412,7.5439 -16.9058,14.2472 -20.7502,15.5159 l -6.7684,2.2338 5.5748,12.4389 c 3.0662,6.8415 7.3894,16.5642 9.6073,21.6061 9.2885,21.1162 19.1441,29.2309 34.5077,28.4125 l 8.1893,-0.4362 z m -167.8102,10.6583 c 6.9397,-3.7011 18.2177,-18.5754 19.9033,-26.2499 1.223,-5.5687 -7.7501,-24.2928 -17.9594,-37.4753 -7.2684,-9.3853 -6.7209,-11.5024 3.6094,-13.9562 4.8676,-1.1563 11.9499,-3.9312 15.7384,-6.1665 l 6.8881,-4.0641 -4.5041,-8.8884 c -5.821,-11.4873 -13.6183,-17.9116 -26.1675,-21.5597 -16.8706,-4.9044 -33.8573,0.5072 -66.7346,21.2605 -6.1287,3.8686 -15.1409,8.5484 -20.0272,10.3995 -4.8863,1.8512 -8.4924,4.2862 -8.0136,5.411 1.8215,4.2792 4.6879,15.5709 7.5128,29.5952 1.6119,8.0024 4.046,16.6785 5.4092,19.2802 2.4223,4.6233 2.895,4.7226 20.8745,4.3886 13.4538,-0.2499 20.3904,0.4781 25.8203,2.7102 9.2124,3.7868 18.6917,12.5938 23.4108,21.7504 4.024,7.8076 5.562,8.1926 14.2396,3.5645 z m 106.9882,-4.0341 c 3.6939,-4.0887 6.7133,-8.0584 6.7098,-8.8216 -0.013,-2.8193 -11.4958,-29.5045 -16.0342,-37.262 -5.1441,-8.7926 -4.7353,-13.3404 1.1989,-13.3404 10.3945,0 28.7328,-14.5179 26.7538,-21.1802 -3.2024,-10.7805 -12.642,-18.5328 -25.1372,-20.6438 -15.0173,-2.5373 -40.177,6.6013 -68.2481,24.7889 -6.5062,4.2155 -14.6335,8.1905 -18.0604,8.8334 l -6.231,1.1689 5.5032,7.9987 c 3.0268,4.3992 9.7185,17.055 14.8704,28.1238 l 9.3672,20.1252 h 18.0473 c 19.804,0 25.5575,1.9608 35.084,11.9564 2.8871,3.0293 6.1968,5.5481 7.3547,5.5973 1.158,0.049 5.1277,-3.2558 8.8216,-7.3446 z m 462.6501,-13.2412 c 5.3385,-2.4336 11.9742,-3.3978 23.5842,-3.4271 16.0383,-0.04 16.1888,-0.085 20.6981,-6.0766 2.4982,-3.3197 7.1384,-12.1848 10.3113,-19.7003 3.1729,-7.5154 8.2467,-16.7929 11.2751,-20.6165 l 5.5062,-6.9522 -7.83,-2.566 c -4.3065,-1.4113 -14.9337,-7.9198 -23.6159,-14.4632 -19.4453,-14.6553 -26.2481,-18.2789 -39.5576,-21.0706 -14.8784,-3.1207 -28.3692,1.3181 -41.1195,13.5296 -11.2492,10.7738 -10.8963,12.136 5.9818,23.0887 6.2961,4.0857 11.471,8.4661 11.4997,9.734 0.029,1.2679 -2.7836,6.0202 -6.2494,10.5606 -3.4657,4.5404 -7.7318,12.0008 -9.48,16.5785 -2.6979,7.0642 -2.8317,9.3996 -0.8853,15.4396 3.0365,9.4222 5.0682,11.7276 13.7755,15.6311 7.3162,3.2799 7.3289,3.2785 13.0003,-1.51 3.1222,-2.6363 9.0198,-6.3171 13.1055,-8.1796 z m 103.7647,-7.6679 c 9.5276,-7.8892 20.1607,-11.0582 36.9476,-11.0116 16.2009,0.046 16.2968,0.017 19.1396,-5.4798 1.5713,-3.0387 5.2421,-13.2069 8.1574,-22.5958 2.9151,-9.3888 5.8622,-18.4793 6.5492,-20.2009 1.007,-2.5238 -2.469,-4.993 -17.9397,-12.7433 -29.1422,-14.5995 -44.2447,-19.3163 -61.9035,-19.3336 -11.6335,-0.012 -16.4692,0.8459 -22.286,3.9511 -9.0939,4.8547 -15.1292,11.1466 -16.6761,17.3849 -1.0732,4.3285 -0.1294,5.2017 11.934,11.0374 7.2047,3.4854 13.0994,7.518 13.0994,8.9611 0,1.4432 -2.6936,6.025 -5.9859,10.1817 -3.2923,4.1568 -5.1726,7.8425 -4.1786,8.1904 6.6987,2.3449 7.0922,3.6528 4.6134,15.3332 -3.0104,14.1857 -0.6499,23.6743 7.6212,30.6337 l 5.7173,4.8109 5.62,-7.924 c 3.0909,-4.3582 7.3977,-9.3962 9.5707,-11.1954 z m -171.4524,11.5782 c 7.8691,-4.0145 17.8398,-16.1405 19.7178,-23.9801 1.4848,-6.1978 7.6993,-18.7323 11.3411,-22.8742 1.5771,-1.7938 2.5244,-3.517 2.1051,-3.8294 -0.419,-0.3123 -4.9411,-3.5911 -10.0483,-7.2862 -5.1071,-3.6951 -13.8572,-11.4529 -19.4445,-17.2395 -18.882,-19.5558 -41.3063,-26.0405 -60.9003,-17.6114 -8.5257,3.6677 -9.7789,4.9258 -10.8596,10.9012 -1.6444,9.0922 -5.2123,15.7582 -13.118,24.5089 l -6.6111,7.3176 h 10.6267 c 13.3568,0 30.8723,4.4643 39.6839,10.1144 14.4495,9.2653 24.4082,23.9314 24.4082,35.9456 0,8.9396 2.1712,9.6081 13.099,4.0331 z m -242.7511,-28.8162 c -0.9488,-9.1769 -1.1248,-9.4077 -8.6953,-11.4077 -4.2499,-1.1227 -9.4923,-2.6164 -11.6497,-3.3192 -2.9485,-0.9604 -4.1556,-0.3884 -4.8593,2.3028 -0.7131,2.7268 0.4698,4.0892 4.9603,5.7129 10.4996,3.7967 16.3805,11.832 17.5137,23.9294 l 1.004,10.7198 1.3473,-9.2857 c 0.7411,-5.1073 0.9116,-13.5008 0.379,-18.6523 z m 138.6511,-14.8125 c 0,-0.08 -2.9251,0.1945 -6.5002,0.6119 -5.8003,0.6771 -6.5,1.353 -6.5,6.278 v 5.5192 l 6.5,-6.1311 c 3.5751,-3.372 6.5002,-6.1971 6.5002,-6.278 z m -122.8052,-6.3458 c 9.1517,-4.6687 19.2547,-15.2113 26.7459,-27.9094 4.8492,-8.2196 7.1784,-10.3897 12.258,-11.4209 8.6637,-1.7586 20.5197,-10.5776 24.6442,-18.3313 7.4853,-14.072 2.4111,-34.7725 -10.4758,-42.7371 -16.1989,-10.0115 -29.5705,-10.4119 -63.3622,-1.8977 -8.3462,2.103 -20.928,3.7035 -29.2413,3.7197 -12.8591,0.025 -14.4504,0.3966 -13.402,3.1289 3.5915,9.359 4.9644,31.7263 2.8584,46.5633 -1.2159,8.565 -1.6807,18.2223 -1.0332,21.4604 1.9153,9.5765 9.7227,19.4234 20.1351,25.3948 11.4941,6.5918 20.7386,7.1994 30.8729,2.0293 z m 132.0419,-7.1955 c 4.7922,-2.9376 10.5931,-8.7886 13.7077,-13.8263 4.7073,-7.6139 5.5841,-11.2982 6.8393,-28.7369 0.8758,-12.1679 2.963,-24.3002 5.3282,-30.9729 2.1387,-6.0331 3.8885,-11.2861 3.8885,-11.6733 0,-0.3871 -3.5518,-2.2265 -7.893,-4.0875 -4.3411,-1.861 -13.4558,-6.7887 -20.2548,-10.9505 -32.5605,-19.9304 -44.4036,-20.6011 -62.3889,-3.5332 -7.1736,6.8076 -7.2441,7.3748 -1.8573,14.9269 3.5956,5.0408 4.1787,8.2084 4.1787,22.7011 0,15.1862 -0.4931,17.5887 -5.0125,24.4245 -3.5794,5.414 -8.0927,9.0071 -15.7859,12.5673 -15.3684,7.1122 -16.0536,7.5063 -16.7661,9.6439 -0.4054,1.2162 7.0878,2.3082 20.3183,2.9609 28.4997,1.4062 42.6412,6.2289 48.4066,16.5081 3.9652,7.0694 4.4148,7.3125 11.5543,6.248 4.0858,-0.6091 11.1674,-3.3992 15.7369,-6.2001 z m -357.7685,-29.9088 c 7.9606,-3.9992 18.6176,-8.2653 23.6825,-9.4804 5.2456,-1.2584 9.9787,-3.6477 10.9978,-5.5518 0.9838,-1.8385 2.3302,-9.1661 2.9916,-16.2834 0.9831,-10.5782 0.5987,-13.9634 -2.1059,-18.5417 -4.0709,-6.8918 -2.8213,-10.7078 4.0622,-12.4044 2.8914,-0.7126 11.3475,-5.0777 18.7911,-9.7001 l 13.5341,-8.4044 -8.3532,-7.7788 c -8.2634,-7.6953 -14.0719,-18.058 -14.0719,-25.1051 0,-2.0015 -2.2021,-5.3713 -4.8934,-7.4883 -7.6508,-6.018 -20.2206,-5.03 -45.8887,3.6069 -12.0978,4.0707 -24.6335,7.4127 -27.8574,7.4267 -12.9006,0.056 -13.9328,1.0694 -12.9109,12.6771 0.5287,6.005 -0.3495,17.1692 -2.0484,26.0389 -3.0122,15.7273 -3.8352,34.9286 -1.8194,42.4481 0.6071,2.2643 2.8939,4.6596 5.0818,5.3228 7.8452,2.3776 16.3471,10.5843 21.1858,20.4503 2.708,5.5213 4.9741,10.0388 5.036,10.0388 0.062,0 6.6257,-3.272 14.5863,-7.2712 z m 470.0814,-1.6654 c 7.7839,-8.6157 21.7358,-16.4712 32.2363,-18.1503 6.3197,-1.0106 7.7826,-1.988 7.762,-5.1865 -0.061,-9.4232 -1.9133,-11.8224 -9.8829,-12.7983 -4.2542,-0.5209 -9.0232,-1.4799 -10.598,-2.1311 -2.2577,-0.9336 -3.7412,1.8007 -7.0154,12.9291 -3.3028,11.2262 -5.9031,15.9849 -12.7125,23.2647 -4.7082,5.0336 -8.0259,9.1518 -7.3729,9.1518 0.6532,0 4.0658,-3.1857 7.5834,-7.0794 z m -358.3381,-0.342 c 7.2711,-2.6236 16.1384,-4.1299 25.5197,-4.3353 l 14.3768,-0.3149 0.016,-8.9078 c 0.014,-7.9262 0.6251,-9.2566 5.5413,-12.0716 3.0387,-1.74 6.92,-5.7508 8.6252,-8.9128 2.9409,-5.454 2.8957,-6.4223 -0.8822,-18.86 -2.1903,-7.2109 -3.9822,-13.5523 -3.9822,-14.092 0,-0.5397 2.2097,-1.2457 4.9104,-1.5688 l 4.9105,-0.5877 -7.7629,-7.7411 c -13.0245,-12.9881 -29.4281,-16.4232 -51.3471,-10.7528 -13.4896,3.4898 -20.7203,7.1572 -42.1969,21.402 -9.1386,6.0614 -17.5735,11.0334 -18.7441,11.0491 -6.6719,0.089 -6.964,3.1957 -1.2169,12.9429 3.1848,5.4012 8.1603,14.5151 11.0568,20.2531 6.341,12.5615 13.3556,19.9766 23.3178,24.6493 8.313,3.8991 11.8437,3.6264 27.8575,-2.1516 z m 57.4719,-17.3227 1.2483,-7.1013 -5.6813,4.2005 c -4.5859,3.3905 -5.6813,5.5474 -5.6813,11.1875 0,4.7196 1.0548,7.5806 3.2501,8.8159 3.4428,1.9373 3.5749,1.6081 6.8642,-17.1026 z m 294.1788,9.9555 c 6.6645,-6.8673 15.1108,-24.3271 15.1616,-31.3415 0.012,-1.6966 2.0741,-6.6734 4.5818,-11.0595 4.1421,-7.2449 4.2674,-8.0751 1.3704,-9.0719 -15.9231,-5.4784 -27.1788,-12.6354 -42.1893,-26.8265 -13.8727,-13.1152 -24.4667,-14.9948 -40.0557,-7.1067 -6.7127,3.3967 -18.275,14.936 -22.069,22.0251 -1.8979,3.5463 -1.2034,4.2589 8.204,8.4194 5.6526,2.4998 10.2774,5.3496 10.2774,6.3331 0,0.9833 -2.0569,5.8348 -4.5707,10.7808 -2.5137,4.9462 -5.0847,11.1846 -5.7133,13.8633 -0.9692,4.1306 -0.4074,5.0548 3.6984,6.0852 3.3305,0.8359 5.1562,2.7933 5.8507,6.2727 0.9626,4.8215 1.4494,5.0268 10.4246,4.3962 13.2249,-0.9291 28.9516,2.8374 37.6752,9.0234 4.0818,2.8944 8.0492,5.331 8.8164,5.4147 0.7672,0.084 4.6091,-3.1598 8.5375,-7.2078 z m 110.2403,0.7914 c 2.0383,-2.5913 8.6001,-7.182 14.5819,-10.2015 14.2791,-7.2081 16.4582,-13.2209 12.9543,-35.7453 -1.3134,-8.442 -2.0485,-23.7946 -1.6339,-34.1172 l 0.7538,-18.7682 -12.128,-1.1314 c -6.6704,-0.6223 -18.3959,-3.2825 -26.0568,-5.9117 -26.9936,-9.2641 -30.3916,-10.1289 -39.7599,-10.1186 -13.6266,0.015 -21.6105,2.7585 -30.7216,10.5573 -9.9215,8.4924 -14.8539,18.95 -14.9072,31.6064 l -0.04,9.6738 9.5044,3.3264 c 5.2274,1.8296 9.9552,4.4801 10.5062,5.8903 0.5507,1.4102 -0.5178,5.3848 -2.3743,8.8327 -1.8567,3.4478 -2.8228,6.8218 -2.1468,7.4979 0.676,0.676 5.8928,1.6159 11.5928,2.0885 11.3044,0.9374 11.547,1.1992 13.4508,14.5084 l 1.278,8.9343 12.7705,4.3811 c 7.0237,2.4096 15.7932,6.363 19.4877,8.7854 9.1805,6.0194 18.1115,5.9847 22.8888,-0.089 z m -516.6774,-3.7116 c 0,-0.5469 -2.4542,-5.2913 -5.4536,-10.5432 -5.8747,-10.2862 -5.8279,-10.3122 -8.0863,4.4761 -0.6746,4.4167 -0.082,5.0964 4.9944,5.7386 3.1679,0.4006 6.3865,0.8622 7.1526,1.0257 0.7661,0.1635 1.3929,-0.1503 1.3929,-0.6972 z m 333.1919,-6.7079 c -2.0473,-3.3128 -4.4714,-1.3782 -4.4147,3.5237 0.058,4.8391 0.1991,4.9221 2.7263,1.5835 1.4669,-1.938 2.2267,-4.2363 1.6884,-5.1072 z m -477.3162,-3.7733 c 5.0004,-1.9646 14.4023,-4.0679 20.893,-4.674 l 11.8014,-1.1021 v -16.3995 -16.3995 l -6.0358,1.1528 c -3.3196,0.634 -10.2015,2.7675 -15.2928,4.7411 -5.0914,1.9736 -14.9111,4.0622 -21.8218,4.6416 -14.1838,1.1892 -14.0132,0.9029 -10.4854,17.602 2.8089,13.2964 4.8901,16.9435 8.742,15.3196 1.7091,-0.7205 7.1989,-2.9175 12.1994,-4.882 z m 750.1202,-10.6781 8.4756,-16.5824 -6.8394,-3.561 c -3.7617,-1.9586 -12.5413,-6.6146 -19.5102,-10.3467 -11.1439,-5.9678 -14.2472,-6.7855 -25.7525,-6.7855 h -13.0818 l 1.1097,5.1072 c 2.5917,11.9285 3.4636,33.3418 1.5064,36.9988 -1.9354,3.6162 -1.4035,3.8439 11.5281,4.9371 7.4564,0.6303 16.8237,2.324 20.8161,3.7638 12.3432,4.4515 12.6561,4.2567 21.748,-13.5313 z m -484.7293,-36.1751 c -1.8352,-2.4591 -3.6244,-3.6851 -3.9761,-2.7245 -1.1327,3.0935 1.3655,7.1955 4.3821,7.1955 2.5572,0 2.5055,-0.57 -0.406,-4.471 z m 32.296,-3.2892 c 2.8402,-1.3612 7.1207,-6.0222 9.5122,-10.3576 2.7782,-5.0363 5.6392,-7.8825 7.9235,-7.8825 1.9663,0 3.5751,0.8056 3.5751,1.7902 0,0.9846 3.1191,3.9096 6.9313,6.5001 5.7021,3.8747 9.1211,4.7099 19.2817,4.7099 11.9958,0 12.5706,-0.2202 20.0141,-7.6636 10.0999,-10.0999 14.6938,-24.5488 11.3794,-35.7903 -3.7593,-12.75 -18.3943,-25.2675 -38.8917,-33.2648 -9.4904,-3.7028 -20.9725,-9.7782 -25.5155,-13.5009 -4.5431,-3.7227 -8.454,-6.4661 -8.691,-6.0965 -7.4656,11.6427 -12.8927,18.0902 -20.5749,24.4427 -21.9697,18.1673 -27.1687,26.3827 -26.9356,42.5633 0.1727,11.9921 2.635,18.997 10.6725,30.362 l 6.1707,8.7256 9.9921,-1.0313 c 5.4956,-0.5671 12.3157,-2.145 15.1561,-3.5063 z m 91.9837,-16.4518 c 3.3548,-1.3362 6.3295,-2.5847 6.6104,-2.7746 0.2811,-0.1898 -1.1814,-4.2935 -3.25,-9.1192 -6.6328,-15.4737 -3.5601,-33.4149 7.0519,-41.1745 2.5507,-1.8651 2.2319,-2.7303 -2.5566,-6.9385 -6.4739,-5.6895 -7.0695,-5.8071 -10.215,-2.0169 -1.3276,1.5995 -4.6616,4.0707 -7.4093,5.4915 l -4.9955,2.5833 5.4898,10.7587 c 4.693,9.1972 5.3549,12.2411 4.5606,20.9731 -1.1482,12.6205 -6.6443,25.2055 -14.1472,32.3937 -3.9332,3.7681 -5.0082,5.8759 -3.4789,6.821 1.3578,0.8392 4.9231,-1.7111 9.2266,-6.6002 3.8575,-4.3824 9.7585,-9.0612 13.1132,-10.3974 z m -70.1368,13.2187 c 0.5804,-0.939 -0.3194,-3.0821 -1.9996,-4.7623 -3.5377,-3.5377 -7.4239,-1.0859 -5.6414,3.5591 1.2204,3.1801 5.9582,3.9262 7.641,1.2032 z m 141.2584,-2.0737 c 0.66,-2.0798 5.5217,-8.1816 10.8037,-13.5597 7.1807,-7.3115 12.1809,-10.5819 19.8182,-12.9626 l 10.2144,-3.184 0.099,-17.1495 c 0.062,-10.833 1.1794,-20.0567 3.0328,-25.0425 l 2.9341,-7.893 h -22.4548 -22.4547 l -6.8011,6.6412 c -7.7104,7.529 -15.7243,9.9641 -33.006,10.029 -10.8674,0.041 -12.2799,0.5313 -17.9978,6.2492 -7.6831,7.6831 -9.4958,14.4193 -6.6967,24.885 3.6658,13.706 6.9484,17.1964 16.1724,17.1964 5.7623,0 12.1417,2.1206 22.4917,7.4765 7.9463,4.112 15.2621,8.2907 16.2573,9.2858 2.9472,2.9473 6.3033,2.0751 7.5878,-1.9718 z m 96.263,-11.1227 c 0.6432,-6.1543 2.4043,-13.5772 3.9134,-16.4954 l 2.7437,-5.3058 -11.8149,0.9484 c -8.8747,0.7124 -15.0742,-0.042 -24.9118,-3.0297 -7.2034,-2.188 -13.6066,-4.8026 -14.2294,-5.8104 -2.4199,-3.9155 -4.8352,-1.544 -4.281,4.2034 0.5066,5.2556 1.6073,6.3902 8.514,8.7778 4.4745,1.5467 14.1783,8.2254 22.2616,15.3216 7.8812,6.9188 14.8482,12.5797 15.4822,12.5797 0.634,0 1.679,-5.0354 2.3222,-11.1896 z m -371.6688,-5.1897 c 5.8404,-2.174 17.5405,-4.5174 26.0002,-5.2075 8.4599,-0.6902 15.9955,-2.1745 16.746,-3.2985 0.7504,-1.124 1.3771,-6.3298 1.3929,-11.5685 0.027,-9.0425 0.334,-9.6372 6.0642,-11.7453 9.0817,-3.3411 21.8216,-10.0548 21.8216,-11.4997 0,-0.7016 -3.5518,-3.9795 -7.8929,-7.2842 -17.7758,-13.532 -23.5784,-24.3126 -23.6381,-43.9173 -0.05,-16.3817 -1.5105,-17.5496 -22.0488,-17.6296 -11.6086,-0.045 -16.2445,0.8746 -25.3497,5.0301 -16.013,7.3081 -30.4151,12.0698 -36.5054,12.0698 -6.4512,0 -6.8782,3.5613 -1.327,11.0697 3.6803,4.9779 3.9349,7.4208 3.6802,35.3226 -0.3159,34.6119 0.7505,38.373 14.2472,50.2534 7.6381,6.7233 8.7691,7.1721 12.3011,4.8809 2.1393,-1.3877 8.6681,-4.3019 14.5085,-6.4759 z m 62.2239,-12.4068 c 0.076,-11.7035 -0.3954,-13.9242 -2.9475,-13.9003 -5.4327,0.051 -7.0936,2.5925 -8.2518,12.6279 -1.1244,9.7427 -1.062,9.9041 4.8234,12.4631 3.2794,1.4259 6.0353,2.6253 6.1243,2.6653 0.089,0.04 0.2023,-6.1952 0.2516,-13.856 z m 324.1251,-17.1459 c 10.5103,-5.7204 16.4278,-12.1614 22.8913,-24.9166 9.973,-19.6809 8.0663,-32.0229 -8.899,-57.6011 -6.3133,-9.5184 -13.9211,-23.1634 -16.9062,-30.3222 -2.9852,-7.1587 -5.6961,-13.316 -6.0245,-13.6828 -0.3285,-0.3668 -2.9759,1.0272 -5.8838,3.0977 -6.3218,4.5016 -21.8392,8.6669 -42.7472,11.4745 -28.3369,3.8052 -42.11,10.4722 -48.255,23.3581 -2.4729,5.186 -2.611,7.4855 -0.8105,13.4954 1.1937,3.9843 2.1704,11.0304 2.1704,15.6579 0,7.3062 0.8642,9.1724 6.5647,14.1776 7.2434,6.3598 9.8928,6.7019 28.9741,3.7413 7.1697,-1.1124 13.5379,-1.5204 14.1517,-0.9066 0.6138,0.6137 -0.7168,6.7472 -2.9568,13.6298 -2.24,6.8827 -4.0606,13.9121 -4.0459,15.6211 0.04,4.8421 10.6341,14.2577 18.2319,16.2068 3.7768,0.9688 8.5382,2.1909 10.5812,2.7158 7.7213,1.9838 23.9622,-0.8476 32.9636,-5.7467 z m -474.0403,-5.5479 c 6.6528,-1.8041 15.2332,-2.4848 24.6075,-1.9524 l 14.3931,0.8174 0.28,-12.2288 c 0.3308,-14.4443 -0.026,-21.7566 -1.357,-27.7975 -0.903,-4.099 -1.6268,-4.3486 -9.8016,-3.3804 -4.8545,0.575 -14.6304,3.9548 -21.7242,7.5108 -7.0938,3.556 -15.9923,7.0432 -19.7746,7.7493 l -6.8766,1.2838 0.9597,12.3456 c 1.457,18.7437 2.2096,21.2574 5.9071,19.7313 1.7447,-0.7201 7.7687,-2.5557 13.3866,-4.0791 z m 179.7607,-27.6776 c 6.7923,-6.0591 13.656,-14.3108 16.3879,-19.7018 2.5853,-5.1018 6.2002,-9.6682 8.0331,-10.1476 2.4953,-0.6525 3.5875,-3.3401 4.3467,-10.6961 1.7932,-17.3742 10.8747,-29.9433 28.9923,-40.1259 4.1938,-2.3571 7.6251,-4.8379 7.6251,-5.513 0,-2.4212 -6.7935,-7.3024 -15.5605,-11.1805 -7.5335,-3.3324 -13.0242,-4.0116 -35.2184,-4.3569 -19.2523,-0.2995 -28.0999,-1.2008 -33.0395,-3.3658 l -6.7461,-2.9567 -0.7825,16.3654 c -0.7223,15.1097 -1.4688,17.7301 -9.7287,34.1524 -8.2963,16.495 -8.8883,18.5869 -8.1497,28.799 0.6014,8.3147 2.1349,12.9454 6.2604,18.9053 5.2476,7.5808 20.1742,20.1318 24.0355,20.2101 1.0214,0.021 7.1164,-4.6538 13.5444,-10.3879 z m 104.3106,-1.7825 c 3.864,-3.4908 7.6493,-6.3468 8.4121,-6.3468 0.7629,0 4.3615,2.6117 7.9971,5.8038 8.7901,7.7178 16.9527,10.9193 27.7138,10.8699 19.1563,-0.088 31.4179,-11.1532 33.3595,-30.1046 1.9508,-19.0415 -0.7147,-23.8493 -28.1109,-50.7044 -13.5818,-13.3134 -27.4247,-28.6441 -30.7622,-34.0682 l -6.0683,-9.862 -8.5545,9.3215 c -9.0822,9.8965 -28.1518,23.9894 -44.3763,32.795 -12.3469,6.7011 -23.6116,18.789 -26.5029,28.4396 -2.6602,8.8786 -1.0537,21.8769 3.4299,27.7507 1.7506,2.2936 11.7513,7.8894 22.224,12.4352 10.4725,4.5458 20.8386,9.5243 23.0357,11.0632 4.7162,3.3033 7.7092,2.0877 18.203,-7.3929 z" id="path11"/><path xmlns:inkscape="http://www.inkscape.org/namespaces/inkscape" inkscape:original-d="M 0,0" inkscape:path-effect="#path-effect60" d="m 2631.3034,3618.824 c -99.6344,-0.589 -94.7408,0.8846 -70.9253,-21.3566 22.3673,-20.8886 36.4233,-43.2239 44.1683,-70.1845 3.8501,-13.4028 6.7382,-56.8496 6.723,-101.1403 l -0.012,-35.2861 -3.5324,7.7805 c -4.9967,11.0058 -15.1716,16.9036 -34.583,20.0459 -15.5393,2.5154 -31.448,8.5447 -41.5768,15.757 -10.4634,7.4507 -12.9341,5.8095 -24.6918,-16.4017 -5.8732,-11.0952 -10.6786,-21.849 -10.6786,-23.8974 0,-3.2983 -1.5406,-3.8327 -13.4644,-4.6707 -7.4055,-0.5205 -18.061,-2.5106 -23.6789,-4.4227 l -10.2143,-3.4767 -7.1476,7.1477 c -11.309,11.309 -24.1966,16.0672 -43.5131,16.0653 -8.9085,-8e-4 -22.4652,-1.3285 -30.126,-2.9505 -10.3892,-2.1996 -18.5836,-2.6295 -32.2467,-1.6918 l -18.3181,1.257 1.1292,-8.0566 c 3.4459,-24.5861 3.4139,-26.5875 -0.6189,-38.7131 -2.2058,-6.6321 -4.4988,-19.2685 -5.0956,-28.0808 l -1.085,-16.0223 -9.216,-1.0915 c -15.9227,-1.8858 -31.5397,-13.4438 -41.8001,-30.9361 -8.7736,-14.9573 -13.6311,-20.2028 -26.6504,-28.78 -14.9017,-9.8173 -15.9189,-13.2318 -7.2075,-24.1937 3.0838,-3.8804 9.9363,-15.0687 15.2278,-24.8628 10.8967,-20.1687 21.9063,-32.9778 33.7417,-39.2564 7.9761,-4.2313 8.0621,-4.3803 5.7814,-9.9948 -1.2732,-3.1347 -3.3284,-11.5495 -4.5668,-18.6996 -1.2384,-7.1501 -3.8516,-17.1949 -5.8068,-22.3219 -4.9836,-13.0674 -4.6592,-16.929 1.5522,-18.4788 6.9441,-1.7326 21.8722,-9.2464 32.1921,-16.2035 l 8.5133,-5.739 -2.6582,-7.6289 c -1.4619,-4.1959 -3.1052,-13.9753 -3.6515,-21.732 l -0.9935,-14.103 12.8102,-1.074 c 7.0455,-0.5907 17.2024,-2.8052 22.5707,-4.9212 5.3684,-2.116 14.2134,-4.3707 19.6558,-5.0103 l 9.8951,-1.163 2.0498,-11.3845 c 1.1274,-6.2614 1.5665,-16.4829 0.9759,-22.7142 -1.0209,-10.7686 -0.8556,-11.3883 3.3373,-12.5105 2.4262,-0.6494 6.9786,-1.1922 10.1163,-1.2061 3.1378,-0.014 9.4347,-1.2962 13.9934,-2.8495 l 8.2885,-2.8242 -1.6231,-15.2832 c -2.9434,-27.715 -3.3593,-25.8477 6.3116,-28.3388 4.6927,-1.2088 13.8572,-4.9038 20.3656,-8.2111 6.6856,-3.3974 15.9837,-6.4417 21.3737,-6.998 l 9.5404,-0.9846 -0.1913,-6.6738 c -0.1879,-6.556 -0.039,-6.6962 8.4211,-7.9418 4.7367,-0.6973 16.019,-4.3591 25.0717,-8.1372 9.0526,-3.7782 20.2201,-7.6728 24.8166,-8.6546 7.6225,-1.6282 28.7213,-0.8167 38.2198,1.4701 3.2576,0.7842 4.986,-1.284 11.0396,-13.2107 6.3849,-12.5791 7.2651,-15.9761 7.9722,-30.7651 l 0.7948,-16.6247 h 5.1175 c 2.8146,0 8.3536,1.3772 12.3087,3.0603 5.3682,2.2846 13.7821,3.1444 33.1915,3.392 28.4133,0.3623 38.9325,3.2037 49.5689,13.3892 l 4.9968,4.7851 11.7176,-8.4005 c 6.4447,-4.6202 15.3439,-12.6684 19.7761,-17.8848 10.0716,-11.8537 14.7201,-12.349 19.4563,-2.0734 4.7856,10.3829 16.8723,24.3607 37.722,43.624 12.6278,11.6669 18.3133,15.8515 18.9244,13.9287 0.4805,-1.5117 4.0979,-5.8507 8.039,-9.6421 8.1435,-7.8343 18.3811,-11.4433 41.1236,-14.497 21.605,-2.9009 36.117,-6.9288 43.8182,-12.1619 3.6581,-2.4857 8.7553,-4.5104 11.327,-4.4993 4.0947,0.018 5.3054,1.6917 9.7368,13.4644 2.7835,7.3944 10.5059,21.6825 17.161,31.7513 6.6552,10.0689 13.0367,21.769 14.1811,26.0003 3.4334,12.6942 1.2242,32.1156 -4.9946,43.9081 -2.9625,5.6179 -5.6699,10.8412 -6.0162,11.6072 -0.3465,0.7661 6.4107,1.3929 15.0158,1.3929 15.427,0 18.3953,0.6554 45.9504,10.1462 7.6607,2.6386 20.0641,5.3249 27.5629,5.9697 l 13.634,1.1723 -1.1435,6.6775 c -0.629,3.6727 -1.6384,11.9008 -2.2432,18.2848 l -1.0997,11.6073 h 16.8349 c 16.164,0 17.3748,0.2972 30.3952,7.4608 7.4583,4.1034 16.6944,8.8267 20.5249,10.4961 4.4355,1.9332 6.9644,4.2799 6.9644,6.4629 0,1.8851 -4.0865,11.3563 -9.081,21.0471 l -9.0809,17.6197 9.604,5.1357 c 5.2821,2.8247 14.8007,7.5876 21.1524,10.5843 12.7263,6.0044 13.8879,8.6314 8.8538,20.0244 -1.4821,3.3544 -5.1218,13.6203 -8.0883,22.8132 -2.9662,9.193 -5.9669,18.0344 -6.6681,19.6477 -0.9483,2.1821 0.664,3.8075 6.2964,6.3473 8.8536,3.9925 18.6112,14.1998 24.3359,25.4576 5.4717,10.7603 17.6184,28.7107 25.1945,37.2323 7.9144,8.9022 8.3027,16.3498 1.0892,20.8878 -2.8091,1.767 -14.3002,12.691 -25.5361,24.2754 -16.8878,17.4118 -22.5212,21.9977 -32.5004,26.4565 -6.6393,2.9667 -14.4458,5.9632 -17.3475,6.6591 -4.1465,0.9944 -4.9586,1.9445 -3.7928,4.4375 0.8159,1.7448 1.789,9.5793 2.1626,17.4101 0.5835,12.2329 -0.023,15.8939 -4.3207,26.0003 -3.9725,9.3455 -5.1887,15.6741 -5.9186,30.7985 l -0.9188,19.0358 h -11.4884 c -7.6953,0 -17.283,1.8594 -29.0397,5.6317 -31.5514,10.1239 -53.8751,9.1172 -70.0865,-3.1604 -6.638,-5.0275 -15.2514,-17.4151 -15.2514,-21.9345 0,-3.7342 -0.2617,-3.6813 -12.5888,2.5399 -12.2671,6.1913 -28.5574,11.3519 -35.8331,11.3519 -3.9515,0 -5.3002,1.0976 -6.2756,5.1071 -0.6834,2.8091 -5.1615,13.2574 -9.9514,23.2186 -10.2398,21.2946 -7.1555,20.5823 -42.138,9.7316 -28.808,-8.9356 -35.1569,-12.3048 -42.3098,-22.4528 -6.3701,-9.0372 -5.9818,-8.9602 -25.9411,-5.1431 l -5.1071,0.9768 -0.4643,44.8886 c -0.9551,92.3387 0.5762,102.4703 19.1477,126.6912 8.1696,10.6549 25.0934,24.7745 42.1387,35.1569 8.9574,5.456 11.6073,8.0697 11.6073,11.449 v 4.3789 l -63.6079,-0.4451 c -34.9843,-0.2449 -101.8423,-0.6711 -148.5731,-0.9473 z" id="path61"/><path style="fill:#1a1a1a;stroke-width:5.80364" d="m 2631.3034,3618.824 c -99.6344,-0.589 -94.7408,0.8846 -70.9253,-21.3566 22.3673,-20.8886 36.4233,-43.2239 44.1683,-70.1845 3.8501,-13.4028 6.7382,-56.8496 6.723,-101.1403 l -0.012,-35.2861 -3.5324,7.7805 c -4.9967,11.0058 -15.1716,16.9036 -34.583,20.0459 -15.5393,2.5154 -31.448,8.5447 -41.5768,15.757 -10.4634,7.4507 -12.9341,5.8095 -24.6918,-16.4017 -5.8732,-11.0952 -10.6786,-21.849 -10.6786,-23.8974 0,-3.2983 -1.5406,-3.8327 -13.4644,-4.6707 -7.4055,-0.5205 -18.061,-2.5106 -23.6789,-4.4227 l -10.2143,-3.4767 -7.1476,7.1477 c -11.309,11.309 -24.1966,16.0672 -43.5131,16.0653 -8.9085,-8e-4 -22.4652,-1.3285 -30.126,-2.9505 -10.3892,-2.1996 -18.5836,-2.6295 -32.2467,-1.6918 l -18.3181,1.257 1.1292,-8.0566 c 3.4459,-24.5861 3.4139,-26.5875 -0.6189,-38.7131 -2.2058,-6.6321 -4.4988,-19.2685 -5.0956,-28.0808 l -1.085,-16.0223 -9.216,-1.0915 c -15.9227,-1.8858 -31.5397,-13.4438 -41.8001,-30.9361 -8.7736,-14.9573 -13.6311,-20.2028 -26.6504,-28.78 -14.9017,-9.8173 -15.9189,-13.2318 -7.2075,-24.1937 3.0838,-3.8804 9.9363,-15.0687 15.2278,-24.8628 10.8967,-20.1687 21.9063,-32.9778 33.7417,-39.2564 7.9761,-4.2313 8.0621,-4.3803 5.7814,-9.9948 -1.2732,-3.1347 -3.3284,-11.5495 -4.5668,-18.6996 -1.2384,-7.1501 -3.8516,-17.1949 -5.8068,-22.3219 -4.9836,-13.0674 -4.6592,-16.929 1.5522,-18.4788 6.9441,-1.7326 21.8722,-9.2464 32.1921,-16.2035 l 8.5133,-5.739 -2.6582,-7.6289 c -1.4619,-4.1959 -3.1052,-13.9753 -3.6515,-21.732 l -0.9935,-14.103 12.8102,-1.074 c 7.0455,-0.5907 17.2024,-2.8052 22.5707,-4.9212 5.3684,-2.116 14.2134,-4.3707 19.6558,-5.0103 l 9.8951,-1.163 2.0498,-11.3845 c 1.1274,-6.2614 1.5665,-16.4829 0.9759,-22.7142 -1.0209,-10.7686 -0.8556,-11.3883 3.3373,-12.5105 2.4262,-0.6494 6.9786,-1.1922 10.1163,-1.2061 3.1378,-0.014 9.4347,-1.2962 13.9934,-2.8495 l 8.2885,-2.8242 -1.6231,-15.2832 c -2.9434,-27.715 -3.3593,-25.8477 6.3116,-28.3388 4.6927,-1.2088 13.8572,-4.9038 20.3656,-8.2111 6.6856,-3.3974 15.9837,-6.4417 21.3737,-6.998 l 9.5404,-0.9846 -0.1913,-6.6738 c -0.1879,-6.556 -0.039,-6.6962 8.4211,-7.9418 4.7367,-0.6973 16.019,-4.3591 25.0717,-8.1372 9.0526,-3.7782 20.2201,-7.6728 24.8166,-8.6546 7.6225,-1.6282 28.7213,-0.8167 38.2198,1.4701 3.2576,0.7842 4.986,-1.284 11.0396,-13.2107 6.3849,-12.5791 7.2651,-15.9761 7.9722,-30.7651 l 0.7948,-16.6247 h 5.1175 c 2.8146,0 8.3536,1.3772 12.3087,3.0603 5.3682,2.2846 13.7821,3.1444 33.1915,3.392 28.4133,0.3623 38.9325,3.2037 49.5689,13.3892 l 4.9968,4.7851 11.7176,-8.4005 c 6.4447,-4.6202 15.3439,-12.6684 19.7761,-17.8848 10.0716,-11.8537 14.7201,-12.349 19.4563,-2.0734 4.7856,10.3829 16.8723,24.3607 37.722,43.624 12.6278,11.6669 18.3133,15.8515 18.9244,13.9287 0.4805,-1.5117 4.0979,-5.8507 8.039,-9.6421 8.1435,-7.8343 18.3811,-11.4433 41.1236,-14.497 21.605,-2.9009 36.117,-6.9288 43.8182,-12.1619 3.6581,-2.4857 8.7553,-4.5104 11.327,-4.4993 4.0947,0.018 5.3054,1.6917 9.7368,13.4644 2.7835,7.3944 10.5059,21.6825 17.161,31.7513 6.6552,10.0689 13.0367,21.769 14.1811,26.0003 3.4334,12.6942 1.2242,32.1156 -4.9946,43.9081 -2.9625,5.6179 -5.6699,10.8412 -6.0162,11.6072 -0.3465,0.7661 6.4107,1.3929 15.0158,1.3929 15.427,0 18.3953,0.6554 45.9504,10.1462 7.6607,2.6386 20.0641,5.3249 27.5629,5.9697 l 13.634,1.1723 -1.1435,6.6775 c -0.629,3.6727 -1.6384,11.9008 -2.2432,18.2848 l -1.0997,11.6073 h 16.8349 c 16.164,0 17.3748,0.2972 30.3952,7.4608 7.4583,4.1034 16.6944,8.8267 20.5249,10.4961 4.4355,1.9332 6.9644,4.2799 6.9644,6.4629 0,1.8851 -4.0865,11.3563 -9.081,21.0471 l -9.0809,17.6197 9.604,5.1357 c 5.2821,2.8247 14.8007,7.5876 21.1524,10.5843 12.7263,6.0044 13.8879,8.6314 8.8538,20.0244 -1.4821,3.3544 -5.1218,13.6203 -8.0883,22.8132 -2.9662,9.193 -5.9669,18.0344 -6.6681,19.6477 -0.9483,2.1821 0.664,3.8075 6.2964,6.3473 8.8536,3.9925 18.6112,14.1998 24.3359,25.4576 5.4717,10.7603 17.6184,28.7107 25.1945,37.2323 7.9144,8.9022 8.3027,16.3498 1.0892,20.8878 -2.8091,1.767 -14.3002,12.691 -25.5361,24.2754 -16.8878,17.4118 -22.5212,21.9977 -32.5004,26.4565 -6.6393,2.9667 -14.4458,5.9632 -17.3475,6.6591 -4.1465,0.9944 -4.9586,1.9445 -3.7928,4.4375 0.8159,1.7448 1.789,9.5793 2.1626,17.4101 0.5835,12.2329 -0.023,15.8939 -4.3207,26.0003 -3.9725,9.3455 -5.1887,15.6741 -5.9186,30.7985 l -0.9188,19.0358 h -11.4884 c -7.6953,0 -17.283,1.8594 -29.0397,5.6317 -31.5514,10.1239 -53.8751,9.1172 -70.0865,-3.1604 -6.638,-5.0275 -15.2514,-17.4151 -15.2514,-21.9345 0,-3.7342 -0.2617,-3.6813 -12.5888,2.5399 -12.2671,6.1913 -28.5574,11.3519 -35.8331,11.3519 -3.9515,0 -5.3002,1.0976 -6.2756,5.1071 -0.6834,2.8091 -5.1615,13.2574 -9.9514,23.2186 -10.2398,21.2946 -7.1555,20.5823 -42.138,9.7316 -28.808,-8.9356 -35.1569,-12.3048 -42.3098,-22.4528 -6.3701,-9.0372 -5.9818,-8.9602 -25.9411,-5.1431 l -5.1071,0.9768 -0.4643,44.8886 c -0.9551,92.3387 0.5762,102.4703 19.1477,126.6912 8.1696,10.6549 25.0934,24.7745 42.1387,35.1569 8.9574,5.456 11.6073,8.0697 11.6073,11.449 v 4.3789 l -63.6079,-0.4451 c -34.9843,-0.2449 -101.8423,-0.6711 -148.5731,-0.9473 z m 187.8781,-13.4216 c -25.237,-16.5221 -45.0589,-39.162 -49.7335,-56.8038 -4.0569,-15.3102 -5.4046,-44.4145 -4.4337,-95.7403 l 1.0055,-53.1424 -8.5938,-1.2887 c -10.9691,-1.645 -31.9386,-12.1022 -39.9247,-19.9102 -10.6725,-10.4343 -14.1722,-19.2101 -14.1504,-35.4824 0.011,-7.9162 -0.1681,-14.3931 -0.3974,-14.3931 -0.2293,0 -4.3464,2.0894 -9.149,4.6429 -4.8027,2.5536 -10.2791,4.6429 -12.1699,4.6429 -2.7148,0 -3.4377,1.4192 -3.4377,6.7489 0,11.23 -3.9959,21.0201 -12.3905,30.357 -10.226,11.3736 -17.6284,14.7786 -33.3856,15.3565 -6.9985,0.2566 -13.3386,1.3025 -14.089,2.324 -0.7505,1.0214 -1.3902,18.1538 -1.4216,38.0719 -0.072,45.4776 -2.947,88.6827 -6.7924,102.0688 -7.4486,25.9291 -21.3279,48.486 -42.0296,68.307 l -12.1031,11.5883 82.9275,0.5027 c 45.6102,0.2768 107.9994,0.6987 138.6426,0.9381 l 55.715,0.4352 z m -251.8849,-192.273 c 20.7755,-3.3296 30.275,-9.1956 35.566,-21.9623 4.1958,-10.1241 3.7274,-10.8717 -9.0222,-14.3974 -7.0009,-1.9361 -17.5324,-1.5317 -30.3234,1.1646 l -6.0359,1.2722 v -10.187 c 0,-6.8376 -1.4913,-13.4711 -4.5359,-20.1753 -2.4947,-5.4935 -4.5841,-8.4742 -4.6429,-6.6237 -0.059,1.8505 -3.1241,9.552 -6.8116,17.1144 -7.4325,15.2422 -13.5342,20.9479 -28.8628,26.9892 -5.4632,2.1532 -10.2003,4.1818 -10.5269,4.508 -0.6825,0.6817 4.7385,11.6873 13.8543,28.1275 l 6.3149,11.3886 14.3554,-7.302 c 10.3,-5.2392 18.9647,-8.0407 30.671,-9.9168 z m 313.9699,-5.4557 c 4.9478,-9.6449 8.5088,-18.3244 7.9135,-19.2876 -0.5953,-0.9633 -4.0666,-2.3112 -7.7139,-2.9955 -13.2832,-2.4919 -28.4171,-21.5681 -31.4273,-39.614 l -1.3239,-7.9366 -6.05,7.9366 c -10.7715,14.131 -13.0055,19.9047 -12.951,33.4727 l 0.052,12.5357 h -12.8781 -12.878 l 4.6374,6.0359 c 6.586,8.5721 13.7124,12.2249 39.2674,20.1278 12.3753,3.8271 22.9184,7.0264 23.429,7.1098 0.5108,0.083 4.9768,-7.7398 9.9245,-17.3848 z m -462.6613,-12.8982 c 5.3916,-2.4411 12.71,-6.9308 16.263,-9.9774 5.4551,-4.6773 6.0908,-5.9838 4.0866,-8.3986 -2.9675,-3.5756 -17.7102,-7.2193 -26.3324,-6.508 -6.3865,0.5269 -6.49,0.4225 -5.9195,-5.9639 0.3193,-3.575 1.1827,-18.2001 1.9187,-32.5003 0.7359,-14.3002 2.0265,-27.4628 2.8681,-29.2504 1.3769,-2.9248 0.2553,-3.2574 -11.2046,-3.3237 -10.4863,-0.061 -14.5378,-1.0442 -22.9489,-5.5711 -14.0553,-7.5645 -19.833,-7.1951 -30.9053,1.9763 -4.963,4.111 -12.9829,9.2696 -17.8219,11.4634 -4.8388,2.194 -9.3115,5.6067 -9.9389,7.5837 -1.5921,5.0164 0.76,21.9516 4.7864,34.4626 5.117,15.8992 6.1366,27.8412 3.2002,37.481 l -2.5566,8.3926 18.7251,-0.538 c 11.3546,-0.3262 23.1112,0.4782 29.8682,2.0445 18.3591,4.2549 34.5512,3.7707 45.9118,-1.3727 z m 612.3614,-3.0035 c 11.6279,-3.6825 21.4284,-5.5584 29.0396,-5.5584 h 11.4883 l 0.9142,-19.0359 c 0.7208,-15.0127 1.9336,-21.3911 5.7379,-30.179 5.6317,-13.0086 6.1971,-24.1081 1.7079,-33.5222 -4.4438,-9.3186 -21.6532,-19.2601 -37.6533,-21.7515 -10.8786,-1.6938 -13.0404,-1.4625 -21.8743,2.3409 -13.4142,5.7755 -19.2002,14.7934 -21.7486,33.897 -0.9959,7.4657 -1.8014,8.8258 -5.2415,8.8499 -8.3374,0.059 -9.3436,2.2237 -7.0786,15.2314 3.3541,19.26 3.6523,18.6322 -8.1502,17.1575 -12.1096,-1.5129 -21.3364,1.4472 -21.3364,6.8453 0,5.1407 8.2005,17.3011 15.2514,22.6161 15.6517,11.7982 29.2424,12.515 58.9436,3.1089 z m -237.2816,-5.7424 c 1.967,-1.0528 8.8867,-2.0616 15.3767,-2.2421 l 11.8002,-0.3278 1.2272,-11.459 c 0.9076,-8.4762 2.874,-14.0399 7.5538,-21.3733 12.6382,-19.805 16.2569,-29.0265 14.9972,-38.2173 -3.7095,-27.0633 -28.979,-42.518 -56.77,-34.7202 -14.4588,4.0569 -21.4337,11.7722 -24.4353,27.0296 l -2.0756,10.5503 h -15.314 c -17.0975,0 -24.4415,2.6715 -30.3014,11.0222 -20.5409,29.2725 20.7227,69.7591 64.3736,63.1618 5.495,-0.8306 11.6004,-2.3715 13.5676,-3.4242 z m -289.1362,-5.3863 c 13.5996,-4.679 21.5093,-10.6822 27.4346,-20.8218 5.0758,-8.6861 12.4976,-30.9774 12.4976,-37.5364 0,-4.0215 -0.2694,-3.9742 -12.8117,2.2515 -9.2016,4.5675 -16.2563,6.636 -25.0359,7.3407 -23.2617,1.8673 -36.1924,-5.4319 -45.2125,-25.5217 -2.5224,-5.6179 -5.8324,-13.0027 -7.3553,-16.4106 -2.4153,-5.4043 -3.4011,-6.0389 -7.7132,-4.9656 -9.552,2.3776 -21.5912,11.3105 -26.0551,19.3325 -3.9608,7.1179 -4.4246,10.3726 -4.6781,32.8299 -0.2707,23.9886 -0.1377,24.9287 3.5277,24.9287 7.8223,0 23.3472,5.1752 30.5974,10.1996 8.3043,5.7548 27.0289,11.7496 37.3382,11.9541 3.6704,0.073 11.5303,-1.5387 17.4663,-3.5809 z m 147.3356,-5.0779 c 9.4034,-7.5643 17.2147,-19.6903 18.4061,-28.5731 2.3654,-17.6354 -11.4186,-39.0342 -26.8046,-41.6125 -15.0732,-2.5259 -15.9753,-3.2012 -18.3478,-13.7355 -3.3468,-14.8599 -8.8348,-19.3493 -24.7529,-20.2488 -7.0676,-0.3993 -15.8242,0.2554 -19.4593,1.4551 -13.0494,4.3067 -29.0563,28.298 -29.002,43.4684 0.016,4.5385 5.5633,22.9464 9.9913,33.156 1.6471,3.7976 2.9946,9.7068 2.9946,13.1315 v 6.2268 l 9.7502,-1.3504 c 11.374,-1.5752 29.9496,2.3134 35.7504,7.484 7.362,6.5622 11.0562,7.6706 22.9024,6.8716 9.5522,-0.6442 13.0379,-1.8216 18.5716,-6.2731 z m 260.4424,2.0822 c 12.5579,-3.728 30.3107,-12.5859 35.3758,-17.6511 5.4215,-5.4215 15.1052,-9.069 24.0774,-9.069 h 7.6991 l -0.7091,-25.536 c -0.6284,-22.6307 -1.2334,-26.5912 -5.3179,-34.8095 -4.7988,-9.6554 -15.7657,-18.8148 -23.7932,-19.8716 -3.6453,-0.4799 -4.9755,0.9597 -8.4451,9.1389 -12.4276,29.2972 -40.001,46.935 -73.3738,46.935 h -11.8712 l 0.9984,11.0104 c 1.711,18.8683 14.1094,36.5954 28.6471,40.959 8.1766,2.4542 15.7799,2.1395 26.7125,-1.1061 z m -228.5388,-49.0061 c 0.8652,0 4.7454,-2.9919 8.6228,-6.6487 5.4817,-5.1699 8.1312,-6.4324 11.9119,-5.6763 3.0817,0.6162 8.1447,-0.6895 13.826,-3.5658 7.0681,-3.5782 11.8283,-4.538 22.5064,-4.538 h 13.5423 l 2.0924,-7.7703 c 1.1508,-4.2736 4.5956,-12.4219 7.6551,-18.1074 4.6772,-8.6912 5.4389,-11.9017 4.7845,-20.1642 -1.1552,-14.5835 -4.9073,-18.3008 -32.2587,-31.9591 -23.6115,-11.7905 -38.4599,-20.9564 -43.1988,-26.6666 -2.037,-2.4543 -4.1722,-1.0351 -15.8309,10.522 -7.4119,7.3474 -19.9112,19.209 -27.7763,26.3591 -11.8651,10.7864 -14.9013,14.7501 -17.8307,23.2769 -3.3672,9.8011 -3.3864,10.765 -0.4142,20.8173 3.0919,10.4569 3.19,10.5576 12.411,12.7189 17.1972,4.0307 25.2973,10.6485 29.8644,24.3989 2.1985,6.619 3.7776,8.823 5.7731,8.0573 1.5107,-0.5797 3.4546,-1.054 4.3197,-1.054 z m -167.9658,-6.4416 c 5.0373,-1.5001 13.64,-5.4697 19.1173,-8.8216 8.6614,-5.3002 10.4119,-7.4054 13.4372,-16.1599 1.9132,-5.5361 5.1487,-11.8435 7.1901,-14.0165 l 3.7116,-3.9509 -6.6861,-10.1266 c -6.4478,-9.7656 -6.582,-10.3089 -3.7655,-15.2428 2.8844,-5.0529 2.8432,-5.1485 -3.3277,-7.7268 -3.4364,-1.4358 -11.8234,-3.2077 -18.6378,-3.9375 -7.7579,-0.8308 -12.7538,-2.276 -13.3639,-3.8659 -0.536,-1.3965 2.9087,-7.7646 7.6546,-14.1512 8.6558,-11.648 11.9103,-19.0305 9.4638,-21.4681 -0.7211,-0.7185 -7.7162,-1.2481 -15.5446,-1.177 -24.3309,0.2213 -38.3606,9.7033 -51.5806,34.8609 -3.7218,7.0828 -9.505,15.9084 -12.8515,19.6125 l -6.0843,6.7347 5.5523,5.546 c 5.2716,5.2655 6.9201,8.2707 16.0758,29.3065 5.8629,13.4706 11.2162,19.9591 19.6137,23.7727 9.2367,4.1948 17.8795,4.4285 30.0256,0.8115 z m 369.4486,-5.3725 c 27.3451,-7.3154 42.1524,-21.9412 53.8467,-53.1867 1.7203,-4.5965 3.873,-9.2592 4.7837,-10.3616 1.0632,-1.2869 -1.4886,-5.3088 -7.1299,-11.2371 -4.8322,-5.078 -11.7108,-14.8835 -15.2858,-21.7899 -8.9412,-17.2727 -18.2368,-29.0041 -26.2563,-33.1362 -7.5302,-3.88 -28.7548,-8.3706 -30.6423,-6.4831 -1.8025,1.8027 -0.8297,24.7833 1.2846,30.3442 1.0064,2.6473 4.3245,7.1436 7.3735,9.9917 5.8025,5.4204 5.9138,11.0649 0.22,11.1411 -6.7238,0.09 -19.4042,7.7822 -31.3993,19.0479 -6.9577,6.5347 -14.9047,13.3582 -17.6597,15.1633 l -5.0092,3.2822 9.0483,4.509 c 12.6432,6.3003 24.3254,24.9446 24.3254,38.8221 0,2.3401 1.0447,4.6762 2.3215,5.1914 4.5809,1.8484 21.0677,1.1392 30.1789,-1.2983 z m 106.9719,-5.8533 c 0.6125,-4.0724 1.7477,-9.7025 2.5228,-12.5115 1.3185,-4.7784 1.0375,-5.1072 -4.3637,-5.1072 h -5.7728 v 13.1363 c 0,11.5107 0.4022,13.059 3.25,12.5115 2.1994,-0.4229 3.6101,-3.0184 4.3637,-8.0291 z m -667.0377,-12.2752 c 14.2543,-7.1228 21.787,-14.457 28.9711,-28.2074 5.1995,-9.9518 5.3539,-10.8538 2.6822,-15.6695 -1.5592,-2.8105 -6.9914,-7.8929 -12.0716,-11.2943 -5.0802,-3.4013 -9.5276,-6.9901 -9.8832,-7.9753 -0.3557,-0.9852 1.6149,-3.8869 4.3788,-6.4485 4.6604,-4.3191 4.8085,-4.897 2.0394,-7.9568 -5.581,-6.1669 -3.8154,-10.6623 4.907,-12.4933 l 7.893,-1.6571 0.4796,-9.2855 c 0.8687,-16.8148 -12.8225,-32.5753 -31.1228,-35.827 -11.9642,-2.1259 -36.5545,1.5016 -44.811,6.6103 -10.8186,6.6938 -20.6287,18.7054 -31.1111,38.0925 -5.3821,9.9544 -11.8124,20.5075 -14.2895,23.4514 -2.4771,2.9439 -4.5038,5.7423 -4.5038,6.2186 0,0.4765 5.3174,4.3051 11.8165,8.5082 11.9866,7.7518 16.9222,13.128 25.8543,28.1614 8.7264,14.6874 19.5907,24.3292 32.6879,29.0095 9.954,3.5572 13.3234,3.139 26.0832,-3.2372 z m 99.8713,-12.825 c 4.6065,-2.9214 10.7829,-5.8403 13.7253,-6.4866 7.6508,-1.6803 8.0167,-3.628 1.6832,-8.9573 -7.4512,-6.2698 -7.0332,-10.1986 2.0167,-18.9482 4.1763,-4.0377 10.39,-12.8538 13.8082,-19.5914 3.4182,-6.7375 8.3108,-14.7409 10.8725,-17.7852 l 4.6573,-5.535 -4.2973,-9.2754 c -6.9616,-15.0259 -21.9481,-24.798 -38.0305,-24.798 -8.0327,0 -18.8372,5.8353 -32.911,17.7745 -12.9919,11.0213 -29.6773,20.2239 -40.2723,22.2115 -3.7673,0.7067 -6.8496,1.7069 -6.8496,2.2224 0,0.5156 2.8282,4.8101 6.2852,9.5434 5.8285,7.9808 12.4898,25.2676 18.3152,47.5307 2.2123,8.4552 3.2437,9.6467 12.5836,14.5383 8.9058,4.6642 11.4114,5.175 20.1059,4.0981 6.0447,-0.7488 13.2104,-3.3092 18.3076,-6.5418 z m 676.3961,-3.9428 c 9.8957,-4.4314 15.7515,-9.2631 34.5734,-28.5271 12.4629,-12.7558 23.6074,-23.1923 24.7654,-23.1923 3.4264,0 2.4069,-4.7257 -1.8409,-8.5336 -4.8319,-4.3315 -20.0487,-26.6461 -25.5823,-37.5148 -10.4227,-20.4719 -27.0782,-30.8235 -49.4007,-30.7026 -20.4686,0.1107 -34.3154,8.1751 -42.806,24.9306 -6.8189,13.4565 -6.2316,15.7606 4.7342,18.571 5.1071,1.3089 9.2752,2.8487 9.2623,3.4217 -0.012,0.573 -2.4517,5.8293 -5.4194,11.6807 -3.6349,7.1667 -5.7653,14.7431 -6.5274,23.2144 -0.6223,6.9167 -1.5011,15.4594 -1.9529,18.9839 -0.7191,5.6093 0.1632,7.3455 7.0755,13.9287 4.3433,4.1363 12.751,10.0278 18.6836,13.0922 5.9327,3.0642 11.18,6.2013 11.6608,6.971 1.2453,1.9943 9.0205,-0.1646 22.7744,-6.3238 z m -97.6039,0.2194 c 12.3756,-4.6304 26.2974,-16.5309 28.7659,-24.5893 1.0096,-3.2956 2.3869,-13.0957 3.0609,-21.7779 0.6777,-8.7319 2.7733,-19.3129 4.6897,-23.6789 2.3874,-5.4391 2.7752,-7.9066 1.2474,-7.937 -6.0238,-0.1198 -24.9697,-9.917 -37.0093,-19.138 -16.9973,-13.0182 -24.415,-16.104 -38.7104,-16.104 -9.1843,0 -13.4478,1.1027 -21.8813,5.6597 -10.4961,5.6715 -19.9247,15.7211 -21.8148,23.2517 -1.4996,5.9752 13.2942,31.2418 23.8763,40.7784 9.0733,8.1768 10.9153,13.5472 6.0358,17.5969 -4.4762,3.7148 -3.236,6.8743 3.2039,8.1623 8.0057,1.6012 19.6322,9.862 22.9733,16.3229 3.3726,6.5219 10.8753,6.9484 25.5626,1.4532 z m -636.8903,-9.8418 c 0.8972,-5.9831 0.2538,-10.2692 -2.5089,-16.7145 -2.0436,-4.7673 -4.1925,-8.6679 -4.7755,-8.6679 -0.583,0 -0.2667,1.4819 0.7026,3.2931 2.7,5.045 3.002,21.2704 0.4832,25.9572 -1.9685,3.6628 -1.8051,4.1787 1.3231,4.1787 2.7855,0 3.8336,-1.7662 4.7755,-8.0466 z m 225.4787,-7.6186 c 8.853,0.066 19.2303,0.5769 23.0607,1.1343 3.8304,0.5573 6.9644,0.7802 6.9644,0.4953 0,-0.2848 0.4283,-1.6343 0.9519,-2.9988 0.7635,-1.9897 -3.5574,-2.462 -21.8217,-2.3858 -20.0909,0.084 -23.8055,-0.4075 -31.5334,-4.1711 -4.8179,-2.3464 -9.5339,-4.2663 -10.48,-4.2663 -4.0082,0 -3.5827,6.2437 0.8858,12.996 l 4.8061,7.2625 5.5349,-4.0935 c 4.7438,-3.5082 7.8359,-4.0761 21.6313,-3.9726 z m 221.9716,-2.8039 c 2.5381,-0.965 11.1588,-7.7624 19.1569,-15.1053 7.9981,-7.3429 18.0939,-14.9498 22.4351,-16.9041 4.341,-1.9542 7.8928,-3.9614 7.8928,-4.4602 0,-0.4988 -1.3566,-2.9776 -3.0149,-5.5084 -2.1855,-3.3355 -3.4089,-11.6199 -4.4471,-30.1136 -1.5707,-27.9799 -2.811,-32.6774 -11.5359,-43.6937 -18.2613,-23.0565 -64.6839,-25.7436 -77.6406,-4.4939 -4.3065,7.0631 -4.7323,20.549 -0.8626,27.3184 4.3408,7.5933 3.3634,12.3705 -3.6208,17.6976 -8.2664,6.3051 -14.0222,18.2849 -14.0222,29.1852 0,8.131 3.2904,14.4035 7.5559,14.4035 3.6927,0 16.4913,13.5827 18.482,19.6141 1.5725,4.7653 4.0537,7.2669 9.8536,9.9354 8.4602,3.8925 22.4856,4.8937 29.7678,2.125 z m -194.3768,-10.4272 c 21.2767,-12.4689 26.3977,-43.2035 10.0321,-60.2088 -3.6703,-3.8137 -7.9268,-7.3355 -9.459,-7.8263 -2.371,-0.7596 -2.4401,-1.8557 -0.4642,-7.363 2.8053,-7.8196 3.0241,-20.9241 0.43,-25.771 -2.7259,-5.0935 -16.9836,-12.9364 -23.5171,-12.9364 -6.6962,0 -24.2923,5.8361 -31.1564,10.3337 -8.0839,5.2968 -14.9877,17.4706 -19.4164,34.2383 -8.0016,30.2945 -9.4438,34.4129 -14.9338,42.6455 -5.9593,8.9363 -5.2134,11.1305 3.8018,11.1839 6.5086,0.038 22.3312,5.631 36.9781,13.0701 6.6348,3.3697 14.5704,6.7849 17.6347,7.5891 8.7164,2.2875 21.2303,0.2255 30.0702,-4.9551 z m 34.9157,-33.7984 c -2.7261,-1.4283 -5.2258,-2.3225 -5.5551,-1.9872 -0.3293,0.3353 -1.209,3.8761 -1.9549,7.8683 l -1.3561,7.2586 6.9111,-5.2713 6.9112,-5.2715 z m 86.3731,-4.223 c 0,-11.6838 3.2861,-19.6859 12.0824,-29.4224 6.3792,-7.061 6.725,-8.0274 4.8233,-13.4823 -1.1266,-3.2319 -2.0625,-8.4676 -2.0797,-11.6348 l -0.032,-5.7587 -3.723,5.8109 c -2.0476,3.1961 -6.8976,8.011 -10.7777,10.6999 l -7.0546,4.8888 0.8042,15.3226 c 0.5788,11.026 0.014,17.2123 -2.0113,22.0614 -2.6935,6.4463 -2.6421,6.8226 1.1831,8.6737 6.3934,3.0937 6.7846,2.6809 6.7846,-7.1591 z m -16.0372,-4.1189 c 4.391,-7.0029 5.242,-17.0526 2.1868,-25.825 -4.0352,-11.586 -3.6498,-13.2149 4.1054,-17.3552 3.8473,-2.054 9.7386,-7.8672 13.1749,-13.0002 5.7138,-8.5351 6.1566,-10.2202 5.4847,-20.872 -0.9496,-15.0561 -5.1172,-20.7694 -18.3738,-25.1894 -5.5226,-1.8413 -19.234,-4.0596 -30.4699,-4.9294 l -20.4288,-1.5816 -11.1514,11.6555 c -8.0288,8.3915 -13.751,12.5787 -20.4343,14.9524 l -9.2828,3.297 -0.19,14.1201 c -0.1042,7.766 -0.4636,20.3879 -0.7979,28.0488 -0.8,18.3287 4.0944,29.7595 15.1594,35.4044 11.3995,5.8156 16.1307,4.3523 24.4017,-7.547 3.9049,-5.6179 8.4158,-10.5036 10.0242,-10.857 1.6084,-0.3536 6.7953,3.061 11.5265,7.5879 8.9517,8.5651 18.7689,16.1091 21.0952,16.2105 0.7425,0.032 2.5291,-1.8216 3.9702,-4.1198 z m -350.7528,-11.3608 c 3.0643,-2.0855 11.1235,-8.2396 17.9094,-13.6758 11.5855,-9.2811 12.2084,-10.163 10.2144,-14.4629 -2.8141,-6.0683 -3.9167,-5.808 -7.5145,1.7738 -4.2898,9.0402 -16.7318,19.1073 -25.4312,20.5771 -6.4669,1.0927 -7.2497,1.8025 -7.2497,6.5749 0,6.0378 2.2604,5.8905 12.0716,-0.7871 z m 113.287,0.6821 c 4.0858,-1.9736 9.1698,-3.6166 11.2978,-3.6514 6.2147,-0.1009 6.0986,-1.4882 -0.7572,-9.0366 l -6.4731,-7.127 -8.243,7.8982 c -6.3792,6.1124 -7.9655,8.7724 -7.0157,11.7646 1.4833,4.6739 1.8207,4.6784 11.1912,0.1522 z m 39.9291,-3.5193 c 0,-0.9141 -3.3429,-1.9809 -7.4286,-2.3706 -5.1569,-0.4917 -7.4287,0.016 -7.4287,1.6622 0,1.5275 2.6418,2.3705 7.4287,2.3705 4.0857,0 7.4286,-0.7479 7.4286,-1.6621 z m 386.6183,-12.2666 c -7.9722,-2.9784 -10.7421,-5.161 -15.4853,-12.2021 l -4.4669,-6.6307 -5.0223,5.0961 -5.0225,5.0962 8.939,2.9689 c 4.9683,1.6503 11.7296,5.8482 15.2211,9.4506 l 6.2821,6.4815 2.2628,-4.2017 c 2.0382,-3.7844 1.7692,-4.3861 -2.708,-6.0588 z m 114.8034,5.1072 c -0.011,-1.7875 -2.8985,-5.2151 -6.4256,-7.617 -10.0958,-6.8749 -14.6616,-18.3009 -13.5456,-33.8977 0.5072,-7.09 0.3354,-13.2536 -0.3819,-13.6969 -0.7173,-0.4432 -3.2323,3.9631 -5.589,9.7919 -2.3567,5.8289 -5.8784,13.2685 -7.8258,16.5325 l -3.541,5.9347 5.1963,3.2251 c 2.8578,1.7738 7.2854,5.074 9.8391,7.3336 4.1243,3.6496 20.6239,15.4337 21.8216,15.5851 0.2554,0.033 0.4585,-1.4038 0.4515,-3.1913 z m -488.1735,-16.3797 c 7.7071,-24.838 19.2068,-35.0971 44.6345,-39.8196 10.0058,-1.8583 16.4038,-6.7631 16.4038,-12.5753 0,-1.594 -1.4625,-4.4913 -3.25,-6.4385 -1.7875,-1.9472 -5.3394,-7.8432 -7.893,-13.1022 -6.3327,-13.0421 -13.6711,-17.1484 -30.1305,-16.8598 -20.2579,0.3552 -36.4714,7.9325 -55.3521,25.8684 -7.9412,7.5439 -16.9058,14.2472 -20.7502,15.5159 l -6.7684,2.2338 5.5748,12.4389 c 3.0662,6.8415 7.3894,16.5642 9.6073,21.6061 9.2885,21.1162 19.1441,29.2309 34.5077,28.4125 l 8.1893,-0.4362 z m -167.8102,10.6583 c 6.9397,-3.7011 18.2177,-18.5754 19.9033,-26.2499 1.223,-5.5687 -7.7501,-24.2928 -17.9594,-37.4753 -7.2684,-9.3853 -6.7209,-11.5024 3.6094,-13.9562 4.8676,-1.1563 11.9499,-3.9312 15.7384,-6.1665 l 6.8881,-4.0641 -4.5041,-8.8884 c -5.821,-11.4873 -13.6183,-17.9116 -26.1675,-21.5597 -16.8706,-4.9044 -33.8573,0.5072 -66.7346,21.2605 -6.1287,3.8686 -15.1409,8.5484 -20.0272,10.3995 -4.8863,1.8512 -8.4924,4.2862 -8.0136,5.411 1.8215,4.2792 4.6879,15.5709 7.5128,29.5952 1.6119,8.0024 4.046,16.6785 5.4092,19.2802 2.4223,4.6233 2.895,4.7226 20.8745,4.3886 13.4538,-0.2499 20.3904,0.4781 25.8203,2.7102 9.2124,3.7868 18.6917,12.5938 23.4108,21.7504 4.024,7.8076 5.562,8.1926 14.2396,3.5645 z m 106.9882,-4.0341 c 3.6939,-4.0887 6.7133,-8.0584 6.7098,-8.8216 -0.013,-2.8193 -11.4958,-29.5045 -16.0342,-37.262 -5.1441,-8.7926 -4.7353,-13.3404 1.1989,-13.3404 10.3945,0 28.7328,-14.5179 26.7538,-21.1802 -3.2024,-10.7805 -12.642,-18.5328 -25.1372,-20.6438 -15.0173,-2.5373 -40.177,6.6013 -68.2481,24.7889 -6.5062,4.2155 -14.6335,8.1905 -18.0604,8.8334 l -6.231,1.1689 5.5032,7.9987 c 3.0268,4.3992 9.7185,17.055 14.8704,28.1238 l 9.3672,20.1252 h 18.0473 c 19.804,0 25.5575,1.9608 35.084,11.9564 2.8871,3.0293 6.1968,5.5481 7.3547,5.5973 1.158,0.049 5.1277,-3.2558 8.8216,-7.3446 z m 462.6501,-13.2412 c 5.3385,-2.4336 11.9742,-3.3978 23.5842,-3.4271 16.0383,-0.04 16.1888,-0.085 20.6981,-6.0766 2.4982,-3.3197 7.1384,-12.1848 10.3113,-19.7003 3.1729,-7.5154 8.2467,-16.7929 11.2751,-20.6165 l 5.5062,-6.9522 -7.83,-2.566 c -4.3065,-1.4113 -14.9337,-7.9198 -23.6159,-14.4632 -19.4453,-14.6553 -26.2481,-18.2789 -39.5576,-21.0706 -14.8784,-3.1207 -28.3692,1.3181 -41.1195,13.5296 -11.2492,10.7738 -10.8963,12.136 5.9818,23.0887 6.2961,4.0857 11.471,8.4661 11.4997,9.734 0.029,1.2679 -2.7836,6.0202 -6.2494,10.5606 -3.4657,4.5404 -7.7318,12.0008 -9.48,16.5785 -2.6979,7.0642 -2.8317,9.3996 -0.8853,15.4396 3.0365,9.4222 5.0682,11.7276 13.7755,15.6311 7.3162,3.2799 7.3289,3.2785 13.0003,-1.51 3.1222,-2.6363 9.0198,-6.3171 13.1055,-8.1796 z m 103.7647,-7.6679 c 9.5276,-7.8892 20.1607,-11.0582 36.9476,-11.0116 16.2009,0.046 16.2968,0.017 19.1396,-5.4798 1.5713,-3.0387 5.2421,-13.2069 8.1574,-22.5958 2.9151,-9.3888 5.8622,-18.4793 6.5492,-20.2009 1.007,-2.5238 -2.469,-4.993 -17.9397,-12.7433 -29.1422,-14.5995 -44.2447,-19.3163 -61.9035,-19.3336 -11.6335,-0.012 -16.4692,0.8459 -22.286,3.9511 -9.0939,4.8547 -15.1292,11.1466 -16.6761,17.3849 -1.0732,4.3285 -0.1294,5.2017 11.934,11.0374 7.2047,3.4854 13.0994,7.518 13.0994,8.9611 0,1.4432 -2.6936,6.025 -5.9859,10.1817 -3.2923,4.1568 -5.1726,7.8425 -4.1786,8.1904 6.6987,2.3449 7.0922,3.6528 4.6134,15.3332 -3.0104,14.1857 -0.6499,23.6743 7.6212,30.6337 l 5.7173,4.8109 5.62,-7.924 c 3.0909,-4.3582 7.3977,-9.3962 9.5707,-11.1954 z m -171.4524,11.5782 c 7.8691,-4.0145 17.8398,-16.1405 19.7178,-23.9801 1.4848,-6.1978 7.6993,-18.7323 11.3411,-22.8742 1.5771,-1.7938 2.5244,-3.517 2.1051,-3.8294 -0.419,-0.3123 -4.9411,-3.5911 -10.0483,-7.2862 -5.1071,-3.6951 -13.8572,-11.4529 -19.4445,-17.2395 -18.882,-19.5558 -41.3063,-26.0405 -60.9003,-17.6114 -8.5257,3.6677 -9.7789,4.9258 -10.8596,10.9012 -1.6444,9.0922 -5.2123,15.7582 -13.118,24.5089 l -6.6111,7.3176 h 10.6267 c 13.3568,0 30.8723,4.4643 39.6839,10.1144 14.4495,9.2653 24.4082,23.9314 24.4082,35.9456 0,8.9396 2.1712,9.6081 13.099,4.0331 z m -242.7511,-28.8162 c -0.9488,-9.1769 -1.1248,-9.4077 -8.6953,-11.4077 -4.2499,-1.1227 -9.4923,-2.6164 -11.6497,-3.3192 -2.9485,-0.9604 -4.1556,-0.3884 -4.8593,2.3028 -0.7131,2.7268 0.4698,4.0892 4.9603,5.7129 10.4996,3.7967 16.3805,11.832 17.5137,23.9294 l 1.004,10.7198 1.3473,-9.2857 c 0.7411,-5.1073 0.9116,-13.5008 0.379,-18.6523 z m 138.6511,-14.8125 c 0,-0.08 -2.9251,0.1945 -6.5002,0.6119 -5.8003,0.6771 -6.5,1.353 -6.5,6.278 v 5.5192 l 6.5,-6.1311 c 3.5751,-3.372 6.5002,-6.1971 6.5002,-6.278 z m -122.8052,-6.3458 c 9.1517,-4.6687 19.2547,-15.2113 26.7459,-27.9094 4.8492,-8.2196 7.1784,-10.3897 12.258,-11.4209 8.6637,-1.7586 20.5197,-10.5776 24.6442,-18.3313 7.4853,-14.072 2.4111,-34.7725 -10.4758,-42.7371 -16.1989,-10.0115 -29.5705,-10.4119 -63.3622,-1.8977 -8.3462,2.103 -20.928,3.7035 -29.2413,3.7197 -12.8591,0.025 -14.4504,0.3966 -13.402,3.1289 3.5915,9.359 4.9644,31.7263 2.8584,46.5633 -1.2159,8.565 -1.6807,18.2223 -1.0332,21.4604 1.9153,9.5765 9.7227,19.4234 20.1351,25.3948 11.4941,6.5918 20.7386,7.1994 30.8729,2.0293 z m 132.0419,-7.1955 c 4.7922,-2.9376 10.5931,-8.7886 13.7077,-13.8263 4.7073,-7.6139 5.5841,-11.2982 6.8393,-28.7369 0.8758,-12.1679 2.963,-24.3002 5.3282,-30.9729 2.1387,-6.0331 3.8885,-11.2861 3.8885,-11.6733 0,-0.3871 -3.5518,-2.2265 -7.893,-4.0875 -4.3411,-1.861 -13.4558,-6.7887 -20.2548,-10.9505 -32.5605,-19.9304 -44.4036,-20.6011 -62.3889,-3.5332 -7.1736,6.8076 -7.2441,7.3748 -1.8573,14.9269 3.5956,5.0408 4.1787,8.2084 4.1787,22.7011 0,15.1862 -0.4931,17.5887 -5.0125,24.4245 -3.5794,5.414 -8.0927,9.0071 -15.7859,12.5673 -15.3684,7.1122 -16.0536,7.5063 -16.7661,9.6439 -0.4054,1.2162 7.0878,2.3082 20.3183,2.9609 28.4997,1.4062 42.6412,6.2289 48.4066,16.5081 3.9652,7.0694 4.4148,7.3125 11.5543,6.248 4.0858,-0.6091 11.1674,-3.3992 15.7369,-6.2001 z m -357.7685,-29.9088 c 7.9606,-3.9992 18.6176,-8.2653 23.6825,-9.4804 5.2456,-1.2584 9.9787,-3.6477 10.9978,-5.5518 0.9838,-1.8385 2.3302,-9.1661 2.9916,-16.2834 0.9831,-10.5782 0.5987,-13.9634 -2.1059,-18.5417 -4.0709,-6.8918 -2.8213,-10.7078 4.0622,-12.4044 2.8914,-0.7126 11.3475,-5.0777 18.7911,-9.7001 l 13.5341,-8.4044 -8.3532,-7.7788 c -8.2634,-7.6953 -14.0719,-18.058 -14.0719,-25.1051 0,-2.0015 -2.2021,-5.3713 -4.8934,-7.4883 -7.6508,-6.018 -20.2206,-5.03 -45.8887,3.6069 -12.0978,4.0707 -24.6335,7.4127 -27.8574,7.4267 -12.9006,0.056 -13.9328,1.0694 -12.9109,12.6771 0.5287,6.005 -0.3495,17.1692 -2.0484,26.0389 -3.0122,15.7273 -3.8352,34.9286 -1.8194,42.4481 0.6071,2.2643 2.8939,4.6596 5.0818,5.3228 7.8452,2.3776 16.3471,10.5843 21.1858,20.4503 2.708,5.5213 4.9741,10.0388 5.036,10.0388 0.062,0 6.6257,-3.272 14.5863,-7.2712 z m 470.0814,-1.6654 c 7.7839,-8.6157 21.7358,-16.4712 32.2363,-18.1503 6.3197,-1.0106 7.7826,-1.988 7.762,-5.1865 -0.061,-9.4232 -1.9133,-11.8224 -9.8829,-12.7983 -4.2542,-0.5209 -9.0232,-1.4799 -10.598,-2.1311 -2.2577,-0.9336 -3.7412,1.8007 -7.0154,12.9291 -3.3028,11.2262 -5.9031,15.9849 -12.7125,23.2647 -4.7082,5.0336 -8.0259,9.1518 -7.3729,9.1518 0.6532,0 4.0658,-3.1857 7.5834,-7.0794 z m -358.3381,-0.342 c 7.2711,-2.6236 16.1384,-4.1299 25.5197,-4.3353 l 14.3768,-0.3149 0.016,-8.9078 c 0.014,-7.9262 0.6251,-9.2566 5.5413,-12.0716 3.0387,-1.74 6.92,-5.7508 8.6252,-8.9128 2.9409,-5.454 2.8957,-6.4223 -0.8822,-18.86 -2.1903,-7.2109 -3.9822,-13.5523 -3.9822,-14.092 0,-0.5397 2.2097,-1.2457 4.9104,-1.5688 l 4.9105,-0.5877 -7.7629,-7.7411 c -13.0245,-12.9881 -29.4281,-16.4232 -51.3471,-10.7528 -13.4896,3.4898 -20.7203,7.1572 -42.1969,21.402 -9.1386,6.0614 -17.5735,11.0334 -18.7441,11.0491 -6.6719,0.089 -6.964,3.1957 -1.2169,12.9429 3.1848,5.4012 8.1603,14.5151 11.0568,20.2531 6.341,12.5615 13.3556,19.9766 23.3178,24.6493 8.313,3.8991 11.8437,3.6264 27.8575,-2.1516 z m 57.4719,-17.3227 1.2483,-7.1013 -5.6813,4.2005 c -4.5859,3.3905 -5.6813,5.5474 -5.6813,11.1875 0,4.7196 1.0548,7.5806 3.2501,8.8159 3.4428,1.9373 3.5749,1.6081 6.8642,-17.1026 z m 294.1788,9.9555 c 6.6645,-6.8673 15.1108,-24.3271 15.1616,-31.3415 0.012,-1.6966 2.0741,-6.6734 4.5818,-11.0595 4.1421,-7.2449 4.2674,-8.0751 1.3704,-9.0719 -15.9231,-5.4784 -27.1788,-12.6354 -42.1893,-26.8265 -13.8727,-13.1152 -24.4667,-14.9948 -40.0557,-7.1067 -6.7127,3.3967 -18.275,14.936 -22.069,22.0251 -1.8979,3.5463 -1.2034,4.2589 8.204,8.4194 5.6526,2.4998 10.2774,5.3496 10.2774,6.3331 0,0.9833 -2.0569,5.8348 -4.5707,10.7808 -2.5137,4.9462 -5.0847,11.1846 -5.7133,13.8633 -0.9692,4.1306 -0.4074,5.0548 3.6984,6.0852 3.3305,0.8359 5.1562,2.7933 5.8507,6.2727 0.9626,4.8215 1.4494,5.0268 10.4246,4.3962 13.2249,-0.9291 28.9516,2.8374 37.6752,9.0234 4.0818,2.8944 8.0492,5.331 8.8164,5.4147 0.7672,0.084 4.6091,-3.1598 8.5375,-7.2078 z m 110.2403,0.7914 c 2.0383,-2.5913 8.6001,-7.182 14.5819,-10.2015 14.2791,-7.2081 16.4582,-13.2209 12.9543,-35.7453 -1.3134,-8.442 -2.0485,-23.7946 -1.6339,-34.1172 l 0.7538,-18.7682 -12.128,-1.1314 c -6.6704,-0.6223 -18.3959,-3.2825 -26.0568,-5.9117 -26.9936,-9.2641 -30.3916,-10.1289 -39.7599,-10.1186 -13.6266,0.015 -21.6105,2.7585 -30.7216,10.5573 -9.9215,8.4924 -14.8539,18.95 -14.9072,31.6064 l -0.04,9.6738 9.5044,3.3264 c 5.2274,1.8296 9.9552,4.4801 10.5062,5.8903 0.5507,1.4102 -0.5178,5.3848 -2.3743,8.8327 -1.8567,3.4478 -2.8228,6.8218 -2.1468,7.4979 0.676,0.676 5.8928,1.6159 11.5928,2.0885 11.3044,0.9374 11.547,1.1992 13.4508,14.5084 l 1.278,8.9343 12.7705,4.3811 c 7.0237,2.4096 15.7932,6.363 19.4877,8.7854 9.1805,6.0194 18.1115,5.9847 22.8888,-0.089 z m -516.6774,-3.7116 c 0,-0.5469 -2.4542,-5.2913 -5.4536,-10.5432 -5.8747,-10.2862 -5.8279,-10.3122 -8.0863,4.4761 -0.6746,4.4167 -0.082,5.0964 4.9944,5.7386 3.1679,0.4006 6.3865,0.8622 7.1526,1.0257 0.7661,0.1635 1.3929,-0.1503 1.3929,-0.6972 z m 333.1919,-6.7079 c -2.0473,-3.3128 -4.4714,-1.3782 -4.4147,3.5237 0.058,4.8391 0.1991,4.9221 2.7263,1.5835 1.4669,-1.938 2.2267,-4.2363 1.6884,-5.1072 z m -477.3162,-3.7733 c 5.0004,-1.9646 14.4023,-4.0679 20.893,-4.674 l 11.8014,-1.1021 v -16.3995 -16.3995 l -6.0358,1.1528 c -3.3196,0.634 -10.2015,2.7675 -15.2928,4.7411 -5.0914,1.9736 -14.9111,4.0622 -21.8218,4.6416 -14.1838,1.1892 -14.0132,0.9029 -10.4854,17.602 2.8089,13.2964 4.8901,16.9435 8.742,15.3196 1.7091,-0.7205 7.1989,-2.9175 12.1994,-4.882 z m 750.1202,-10.6781 8.4756,-16.5824 -6.8394,-3.561 c -3.7617,-1.9586 -12.5413,-6.6146 -19.5102,-10.3467 -11.1439,-5.9678 -14.2472,-6.7855 -25.7525,-6.7855 h -13.0818 l 1.1097,5.1072 c 2.5917,11.9285 3.4636,33.3418 1.5064,36.9988 -1.9354,3.6162 -1.4035,3.8439 11.5281,4.9371 7.4564,0.6303 16.8237,2.324 20.8161,3.7638 12.3432,4.4515 12.6561,4.2567 21.748,-13.5313 z m -484.7293,-36.1751 c -1.8352,-2.4591 -3.6244,-3.6851 -3.9761,-2.7245 -1.1327,3.0935 1.3655,7.1955 4.3821,7.1955 2.5572,0 2.5055,-0.57 -0.406,-4.471 z m 32.296,-3.2892 c 2.8402,-1.3612 7.1207,-6.0222 9.5122,-10.3576 2.7782,-5.0363 5.6392,-7.8825 7.9235,-7.8825 1.9663,0 3.5751,0.8056 3.5751,1.7902 0,0.9846 3.1191,3.9096 6.9313,6.5001 5.7021,3.8747 9.1211,4.7099 19.2817,4.7099 11.9958,0 12.5706,-0.2202 20.0141,-7.6636 10.0999,-10.0999 14.6938,-24.5488 11.3794,-35.7903 -3.7593,-12.75 -18.3943,-25.2675 -38.8917,-33.2648 -9.4904,-3.7028 -20.9725,-9.7782 -25.5155,-13.5009 -4.5431,-3.7227 -8.454,-6.4661 -8.691,-6.0965 -7.4656,11.6427 -12.8927,18.0902 -20.5749,24.4427 -21.9697,18.1673 -27.1687,26.3827 -26.9356,42.5633 0.1727,11.9921 2.635,18.997 10.6725,30.362 l 6.1707,8.7256 9.9921,-1.0313 c 5.4956,-0.5671 12.3157,-2.145 15.1561,-3.5063 z m 91.9837,-16.4518 c 3.3548,-1.3362 6.3295,-2.5847 6.6104,-2.7746 0.2811,-0.1898 -1.1814,-4.2935 -3.25,-9.1192 -6.6328,-15.4737 -3.5601,-33.4149 7.0519,-41.1745 2.5507,-1.8651 2.2319,-2.7303 -2.5566,-6.9385 -6.4739,-5.6895 -7.0695,-5.8071 -10.215,-2.0169 -1.3276,1.5995 -4.6616,4.0707 -7.4093,5.4915 l -4.9955,2.5833 5.4898,10.7587 c 4.693,9.1972 5.3549,12.2411 4.5606,20.9731 -1.1482,12.6205 -6.6443,25.2055 -14.1472,32.3937 -3.9332,3.7681 -5.0082,5.8759 -3.4789,6.821 1.3578,0.8392 4.9231,-1.7111 9.2266,-6.6002 3.8575,-4.3824 9.7585,-9.0612 13.1132,-10.3974 z m -70.1368,13.2187 c 0.5804,-0.939 -0.3194,-3.0821 -1.9996,-4.7623 -3.5377,-3.5377 -7.4239,-1.0859 -5.6414,3.5591 1.2204,3.1801 5.9582,3.9262 7.641,1.2032 z m 141.2584,-2.0737 c 0.66,-2.0798 5.5217,-8.1816 10.8037,-13.5597 7.1807,-7.3115 12.1809,-10.5819 19.8182,-12.9626 l 10.2144,-3.184 0.099,-17.1495 c 0.062,-10.833 1.1794,-20.0567 3.0328,-25.0425 l 2.9341,-7.893 h -22.4548 -22.4547 l -6.8011,6.6412 c -7.7104,7.529 -15.7243,9.9641 -33.006,10.029 -10.8674,0.041 -12.2799,0.5313 -17.9978,6.2492 -7.6831,7.6831 -9.4958,14.4193 -6.6967,24.885 3.6658,13.706 6.9484,17.1964 16.1724,17.1964 5.7623,0 12.1417,2.1206 22.4917,7.4765 7.9463,4.112 15.2621,8.2907 16.2573,9.2858 2.9472,2.9473 6.3033,2.0751 7.5878,-1.9718 z m 96.263,-11.1227 c 0.6432,-6.1543 2.4043,-13.5772 3.9134,-16.4954 l 2.7437,-5.3058 -11.8149,0.9484 c -8.8747,0.7124 -15.0742,-0.042 -24.9118,-3.0297 -7.2034,-2.188 -13.6066,-4.8026 -14.2294,-5.8104 -2.4199,-3.9155 -4.8352,-1.544 -4.281,4.2034 0.5066,5.2556 1.6073,6.3902 8.514,8.7778 4.4745,1.5467 14.1783,8.2254 22.2616,15.3216 7.8812,6.9188 14.8482,12.5797 15.4822,12.5797 0.634,0 1.679,-5.0354 2.3222,-11.1896 z m -371.6688,-5.1897 c 5.8404,-2.174 17.5405,-4.5174 26.0002,-5.2075 8.4599,-0.6902 15.9955,-2.1745 16.746,-3.2985 0.7504,-1.124 1.3771,-6.3298 1.3929,-11.5685 0.027,-9.0425 0.334,-9.6372 6.0642,-11.7453 9.0817,-3.3411 21.8216,-10.0548 21.8216,-11.4997 0,-0.7016 -3.5518,-3.9795 -7.8929,-7.2842 -17.7758,-13.532 -23.5784,-24.3126 -23.6381,-43.9173 -0.05,-16.3817 -1.5105,-17.5496 -22.0488,-17.6296 -11.6086,-0.045 -16.2445,0.8746 -25.3497,5.0301 -16.013,7.3081 -30.4151,12.0698 -36.5054,12.0698 -6.4512,0 -6.8782,3.5613 -1.327,11.0697 3.6803,4.9779 3.9349,7.4208 3.6802,35.3226 -0.3159,34.6119 0.7505,38.373 14.2472,50.2534 7.6381,6.7233 8.7691,7.1721 12.3011,4.8809 2.1393,-1.3877 8.6681,-4.3019 14.5085,-6.4759 z m 62.2239,-12.4068 c 0.076,-11.7035 -0.3954,-13.9242 -2.9475,-13.9003 -5.4327,0.051 -7.0936,2.5925 -8.2518,12.6279 -1.1244,9.7427 -1.062,9.9041 4.8234,12.4631 3.2794,1.4259 6.0353,2.6253 6.1243,2.6653 0.089,0.04 0.2023,-6.1952 0.2516,-13.856 z m 324.1251,-17.1459 c 10.5103,-5.7204 16.4278,-12.1614 22.8913,-24.9166 9.973,-19.6809 8.0663,-32.0229 -8.899,-57.6011 -6.3133,-9.5184 -13.9211,-23.1634 -16.9062,-30.3222 -2.9852,-7.1587 -5.6961,-13.316 -6.0245,-13.6828 -0.3285,-0.3668 -2.9759,1.0272 -5.8838,3.0977 -6.3218,4.5016 -21.8392,8.6669 -42.7472,11.4745 -28.3369,3.8052 -42.11,10.4722 -48.255,23.3581 -2.4729,5.186 -2.611,7.4855 -0.8105,13.4954 1.1937,3.9843 2.1704,11.0304 2.1704,15.6579 0,7.3062 0.8642,9.1724 6.5647,14.1776 7.2434,6.3598 9.8928,6.7019 28.9741,3.7413 7.1697,-1.1124 13.5379,-1.5204 14.1517,-0.9066 0.6138,0.6137 -0.7168,6.7472 -2.9568,13.6298 -2.24,6.8827 -4.0606,13.9121 -4.0459,15.6211 0.04,4.8421 10.6341,14.2577 18.2319,16.2068 3.7768,0.9688 8.5382,2.1909 10.5812,2.7158 7.7213,1.9838 23.9622,-0.8476 32.9636,-5.7467 z m -474.0403,-5.5479 c 6.6528,-1.8041 15.2332,-2.4848 24.6075,-1.9524 l 14.3931,0.8174 0.28,-12.2288 c 0.3308,-14.4443 -0.026,-21.7566 -1.357,-27.7975 -0.903,-4.099 -1.6268,-4.3486 -9.8016,-3.3804 -4.8545,0.575 -14.6304,3.9548 -21.7242,7.5108 -7.0938,3.556 -15.9923,7.0432 -19.7746,7.7493 l -6.8766,1.2838 0.9597,12.3456 c 1.457,18.7437 2.2096,21.2574 5.9071,19.7313 1.7447,-0.7201 7.7687,-2.5557 13.3866,-4.0791 z m 179.7607,-27.6776 c 6.7923,-6.0591 13.656,-14.3108 16.3879,-19.7018 2.5853,-5.1018 6.2002,-9.6682 8.0331,-10.1476 2.4953,-0.6525 3.5875,-3.3401 4.3467,-10.6961 1.7932,-17.3742 10.8747,-29.9433 28.9923,-40.1259 4.1938,-2.3571 7.6251,-4.8379 7.6251,-5.513 0,-2.4212 -6.7935,-7.3024 -15.5605,-11.1805 -7.5335,-3.3324 -13.0242,-4.0116 -35.2184,-4.3569 -19.2523,-0.2995 -28.0999,-1.2008 -33.0395,-3.3658 l -6.7461,-2.9567 -0.7825,16.3654 c -0.7223,15.1097 -1.4688,17.7301 -9.7287,34.1524 -8.2963,16.495 -8.8883,18.5869 -8.1497,28.799 0.6014,8.3147 2.1349,12.9454 6.2604,18.9053 5.2476,7.5808 20.1742,20.1318 24.0355,20.2101 1.0214,0.021 7.1164,-4.6538 13.5444,-10.3879 z m 104.3106,-1.7825 c 3.864,-3.4908 7.6493,-6.3468 8.4121,-6.3468 0.7629,0 4.3615,2.6117 7.9971,5.8038 8.7901,7.7178 16.9527,10.9193 27.7138,10.8699 19.1563,-0.088 31.4179,-11.1532 33.3595,-30.1046 1.9508,-19.0415 -0.7147,-23.8493 -28.1109,-50.7044 -13.5818,-13.3134 -27.4247,-28.6441 -30.7622,-34.0682 l -6.0683,-9.862 -8.5545,9.3215 c -9.0822,9.8965 -28.1518,23.9894 -44.3763,32.795 -12.3469,6.7011 -23.6116,18.789 -26.5029,28.4396 -2.6602,8.8786 -1.0537,21.8769 3.4299,27.7507 1.7506,2.2936 11.7513,7.8894 22.224,12.4352 10.4725,4.5458 20.8386,9.5243 23.0357,11.0632 4.7162,3.3033 7.7092,2.0877 18.203,-7.3929 z" id="path11"/></g></svg>