<svg version="1.1" id="svg1" width="5078.9116" height="5263.5273" viewBox="-441.89114135854084 2807.2141999999994 620.6531920720654 813.0022000000004" sodipodi:docname="trees2.svg" inkscape:version="1.4.2 (f4327f4, 2025-05-13)" xmlns:inkscape="http://www.inkscape.org/namespaces/inkscape" xmlns:sodipodi="http://sodipodi.sourceforge.net/DTD/sodipodi-0.dtd" xmlns="http://www.w3.org/2000/svg" xmlns:svg="http://www.w3.org/2000/svg"><defs id="defs1">
    <inkscape:path-effect effect="fill_between_many" method="originald" linkedpaths="#path1,0,1|" id="path-effect50" xmlns:inkscape="http://www.inkscape.org/namespaces/inkscape"/>
    <inkscape:path-effect effect="fill_between_many" method="originald" linkedpaths="#path1,0,1|#path51,0,1|#path2,0,1|#path3,0,1|#path4,0,1|#path5,0,1|#path6,0,1|#path7,0,1|#path8,0,1|#path9,0,1|#path10,0,1|#path11,0,1|#path12,0,1|#path13,0,1|#path14,0,1|#path15,0,1|#path16,0,1|#path17,0,1|#path18,0,1|#path19,0,1|#path20,0,1|#path21,0,1|#path22,0,1|#path23,0,1|#path24,0,1|#path25,0,1|" id="path-effect51" xmlns:inkscape="http://www.inkscape.org/namespaces/inkscape"/>
    <inkscape:path-effect effect="fill_between_many" method="originald" linkedpaths="#path2,0,1|" id="path-effect52" xmlns:inkscape="http://www.inkscape.org/namespaces/inkscape"/>
    <inkscape:path-effect effect="fill_between_many" method="originald" linkedpaths="#path4,0,1|" id="path-effect53" xmlns:inkscape="http://www.inkscape.org/namespaces/inkscape"/>
    <inkscape:path-effect effect="fill_between_many" method="originald" linkedpaths="#path5,0,1|" id="path-effect54" xmlns:inkscape="http://www.inkscape.org/namespaces/inkscape"/>
    <inkscape:path-effect effect="fill_between_many" method="originald" linkedpaths="#path6,0,1|" id="path-effect55" xmlns:inkscape="http://www.inkscape.org/namespaces/inkscape"/>
    <inkscape:path-effect effect="fill_between_many" method="originald" linkedpaths="#path7,0,1|" id="path-effect56" xmlns:inkscape="http://www.inkscape.org/namespaces/inkscape"/>
    <inkscape:path-effect effect="fill_between_many" method="originald" linkedpaths="#path8,0,1|" id="path-effect57" xmlns:inkscape="http://www.inkscape.org/namespaces/inkscape"/>
    <inkscape:path-effect effect="fill_between_many" method="originald" linkedpaths="#path9,0,1|" id="path-effect58" xmlns:inkscape="http://www.inkscape.org/namespaces/inkscape"/>
    <inkscape:path-effect effect="fill_between_many" method="originald" linkedpaths="#path10,0,1|" id="path-effect59" xmlns:inkscape="http://www.inkscape.org/namespaces/inkscape"/>
    <inkscape:path-effect effect="fill_between_many" method="originald" linkedpaths="#path11,0,1|" id="path-effect60" xmlns:inkscape="http://www.inkscape.org/namespaces/inkscape"/>
    <inkscape:path-effect effect="fill_between_many" method="originald" linkedpaths="#path12,0,1|" id="path-effect61" xmlns:inkscape="http://www.inkscape.org/namespaces/inkscape"/>
    <inkscape:path-effect effect="fill_between_many" method="originald" linkedpaths="#path13,0,1|" id="path-effect62" xmlns:inkscape="http://www.inkscape.org/namespaces/inkscape"/>
    <inkscape:path-effect effect="fill_between_many" method="originald" linkedpaths="#path14,0,1|" id="path-effect63" xmlns:inkscape="http://www.inkscape.org/namespaces/inkscape"/>
    <inkscape:path-effect effect="fill_between_many" method="originald" linkedpaths="#path15,0,1|" id="path-effect64" xmlns:inkscape="http://www.inkscape.org/namespaces/inkscape"/>
    <inkscape:path-effect effect="fill_between_many" method="originald" linkedpaths="#path16,0,1|" id="path-effect65" xmlns:inkscape="http://www.inkscape.org/namespaces/inkscape"/>
    <inkscape:path-effect effect="fill_between_many" method="originald" linkedpaths="#path17,0,1|" id="path-effect66" xmlns:inkscape="http://www.inkscape.org/namespaces/inkscape"/>
    <inkscape:path-effect effect="fill_between_many" method="originald" linkedpaths="#path18,0,1|" id="path-effect67" xmlns:inkscape="http://www.inkscape.org/namespaces/inkscape"/>
    <inkscape:path-effect effect="fill_between_many" method="originald" linkedpaths="#path19,0,1|" id="path-effect68" xmlns:inkscape="http://www.inkscape.org/namespaces/inkscape"/>
    <inkscape:path-effect effect="fill_between_many" method="originald" linkedpaths="#path20,0,1|" id="path-effect69" xmlns:inkscape="http://www.inkscape.org/namespaces/inkscape"/>
    <inkscape:path-effect effect="fill_between_many" method="originald" linkedpaths="#path21,0,1|" id="path-effect70" xmlns:inkscape="http://www.inkscape.org/namespaces/inkscape"/>
    <inkscape:path-effect effect="fill_between_many" method="originald" linkedpaths="#path22,0,1|" id="path-effect71" xmlns:inkscape="http://www.inkscape.org/namespaces/inkscape"/>
    <inkscape:path-effect effect="fill_between_many" method="originald" linkedpaths="#path23,0,1|" id="path-effect72" xmlns:inkscape="http://www.inkscape.org/namespaces/inkscape"/>
    <inkscape:path-effect effect="fill_between_many" method="originald" linkedpaths="#path24,0,1|" id="path-effect73" xmlns:inkscape="http://www.inkscape.org/namespaces/inkscape"/>
    <inkscape:path-effect effect="fill_between_many" method="originald" linkedpaths="#path25,0,1|" id="path-effect74" xmlns:inkscape="http://www.inkscape.org/namespaces/inkscape"/>
  </defs><g><path xmlns:inkscape="http://www.inkscape.org/namespaces/inkscape" inkscape:original-d="M 0,0" inkscape:path-effect="#path-effect52" d="m -134.42114,3605.0815 c -2.46194,-8.324 -5.89406,-24.6101 -7.6269,-36.1914 l -3.15064,-21.0567 -8.06464,15.7925 c -11.80977,23.1265 -16.42023,26.4476 -35.69672,25.7132 -17.57574,-0.6697 -19.97923,0.57 -31.28848,16.1373 -6.32674,8.7088 -7.45745,9.3874 -7.45745,4.4754 0,-8.2856 7.03569,-21.1324 17.63717,-32.2046 10.80032,-11.2798 9.17836,-13.1857 -11.37871,-13.3704 -17.219,-0.1548 -26.15898,5.1443 -33.46211,19.8342 -6.2142,12.4997 -9.64571,10.1776 -9.64571,-6.5271 0,-11.5096 1.15495,-14.4233 8.7133,-21.9816 9.83737,-9.8374 20.68611,-13.351 49.19282,-15.9322 21.02977,-1.9042 31.58516,-7.7691 31.58516,-17.5497 0,-4.5943 -0.42543,-4.6567 -5.84985,-0.8573 -7.91925,5.5469 -18.61347,5.1521 -30.95209,-1.1426 -11.61837,-5.9272 -15.9727,-5.0568 -28.43403,5.6841 -11.63817,10.0314 -19.58604,9.4842 -44.68082,-3.0762 -22.8234,-11.4234 -28.21062,-12.3954 -36.00961,-6.4965 -7.78602,5.8891 -8.83188,4.8019 -6.6834,-6.9472 3.085,-16.8705 10.09499,-22.0925 29.63241,-22.0742 12.36876,0.012 18.70842,1.4612 25.9005,5.9223 12.41849,7.7027 14.92515,7.479 24.93771,-2.2255 7.48941,-7.259 10.67833,-8.3289 29.69778,-9.9634 11.71909,-1.0071 22.4988,-3.0224 23.95496,-4.4786 1.45613,-1.4561 3.90742,-8.5209 5.44731,-15.6996 3.3409,-15.5745 6.6184,-139.7355 3.96744,-150.2978 -1.81617,-7.2361 -2.00995,-7.0866 -9.91913,7.6532 -12.01442,22.3904 -29.87896,33.4649 -54.04986,33.5064 -9.65211,0.016 -10.21956,-2.5744 -6.04955,-27.6224 1.20503,-7.2382 1.80839,-13.5722 1.34077,-14.0755 -0.46762,-0.5033 -7.49079,1.5694 -15.60709,4.6061 -9.39485,3.5151 -20.93757,5.5213 -31.76678,5.5213 h -17.00989 v -8.8814 c 0,-4.8848 1.69198,-13.677 3.75994,-19.5382 l 3.75993,-10.6568 -7.80568,2.7211 c -13.36711,4.6598 -41.9864,1.6256 -52.01362,-5.5144 -7.55376,-5.3787 -8.53372,-7.3235 -7.15752,-14.2045 0.87698,-4.3849 4.54579,-11.8419 8.15291,-16.5711 3.60712,-4.7291 6.5584,-9.1656 6.5584,-9.8588 0,-0.6932 -5.03388,-2.0986 -11.18641,-3.1231 -11.54861,-1.9232 -27.03569,-8.7803 -39.2342,-17.3715 -8.67331,-6.1084 -7.56851,-11.7814 4.58927,-23.5652 4.9401,-4.7881 8.98199,-9.5141 8.98199,-10.5021 0,-0.9881 -3.52357,-3.256 -7.83016,-5.0398 -17.10764,-7.0863 -34.21927,-32.8854 -34.2687,-51.6669 -0.0164,-6.2598 9.41039,-8.8178 32.68731,-8.8698 l 12.96127,-0.029 -5.59738,-5.9581 c -8.38202,-8.9223 -13.74491,-23.894 -13.74491,-38.372 0,-11.0328 1.92105,-19.2281 9.23619,-39.402 0.9344,-2.5769 4.51353,-1.6199 14.10432,3.7713 l 12.85215,7.2246 10.1987,-8.0169 c 12.95538,-10.1838 25.53552,-16.6344 32.44083,-16.6344 7.08886,0 6.9477,-0.5523 -3.70946,-14.5139 -5.00739,-6.5601 -9.89677,-16.1513 -10.86528,-21.314 -2.3289,-12.4141 0.13015,-45.4051 3.64643,-48.9214 5.94334,-5.9434 32.86067,17.1874 41.78904,35.9104 l 4.37068,9.1654 5.93244,-14.5964 c 5.74416,-14.1332 5.7929,-14.9731 1.53551,-26.4601 -4.36844,-11.7866 -4.35581,-11.8969 1.94539,-16.9993 3.48829,-2.8247 13.33997,-7.0813 21.89262,-9.4591 13.72928,-3.8171 15.35061,-4.9605 13.84514,-9.7638 -0.93781,-2.9922 -2.3451,-14.4334 -3.12729,-25.425 -1.53693,-21.5977 1.35802,-31.3412 9.31196,-31.3412 8.30519,0 28.28334,14.697 31.9232,23.4844 l 3.47875,8.3985 8.98854,-15.9499 c 8.09319,-14.3612 9.52192,-15.6645 14.34312,-13.0843 5.66547,3.0321 14.33615,20.1881 17.04278,33.7212 0.88993,4.4497 2.67988,7.434 3.97768,6.632 1.29782,-0.8021 6.62102,1.1753 11.82939,4.3943 l 9.46975,5.8526 -1.85299,-5.8383 c -2.94776,-9.2875 -2.27904,-45.2281 1.07139,-57.584 1.68372,-6.2092 6.55647,-15.0925 10.82836,-19.7407 l 7.76709,-8.4512 7.80518,8.4939 c 10.90348,11.8655 16.93549,34.1838 15.09609,55.855 -0.80508,9.4854 -2.32172,19.4579 -3.37033,22.1611 -1.7161,4.4241 -0.8104,4.2927 9.06739,-1.316 8.884068,-5.0445 11.403738,-5.5512 13.230938,-2.6611 1.5487,2.4497 3.29735,-0.8544 5.57198,-10.5284 4.56038,-19.395 9.83123,-29.0863 15.26327,-28.0641 2.4497,0.4609 8.0073,6.3925 12.3502,13.1812 8.0115,12.5231 11.8445,15.4743 11.8445,9.1193 0,-1.9302 3.8494,-7.9276 8.5543,-13.3274 6.0727,-6.9697 11.9003,-10.5595 20.0881,-12.3743 6.3435997,-1.406 12.2306997,-1.8595 13.0823997,-1.0078 0.85179999,0.8518 2.00839999,9.6851 2.57029999,19.6297 0.85720001,15.1693 -0.061,20.4449 -5.69849999,32.7599 l -6.7201997,14.6789 8.4086997,0.015 c 13.9674033,0.024 27.6011033,5.0382 33.2591033,12.2312 4.9639,6.3106 5.0545,7.2992 1.2584,13.7278 -3.7886,6.416 -3.6263,8.3574 2.1983,26.2934 l 6.289,19.3658 5.3279,-12.7856 c 7.1396,-17.133 17.496,-28.8912 28.7052,-32.5906 12.8917,-4.2546 16.2728,-2.06 18.3697,11.9233 3.734,24.8997 -6.9945,53.3943 -24.4329,64.893 -6.4767,4.2707 -6.6833,4.8102 -1.8475,4.8256 12.2101,0.039 33.551599,8.6778 43.385499,17.5622 l 10.3509,9.3514 12.75349,-8.1839 c 7.0145,-4.5011 14.0452,-8.1839 15.6239,-8.1839 3.8297,0 6.9358,26.2393 5.0204,42.4117 -0.8427,7.1158 -4.5472,18.9405 -8.2321,26.2769 -3.6848,7.3364 -6.6997,13.6682 -6.6997,14.0705 0,0.4024 6.6061,1.4134 14.6804,2.2467 8.0742,0.8333 17.5179,3.3744 20.9861,5.6468 5.5065,3.6081 5.9579,5.0473 3.5611,11.3556 -5.0597,13.3172 -23.3766,34.7241 -34.6196,40.4598 l -11.0386,5.6315 8.0847,6.8872 c 10.6388,9.0632 18.2036,20.9955 15.1877,23.9563 -7.9077,7.7633 -35.27249,21.265 -45.97719,22.6851 l -12.438299,1.65 10.247099,13.5152 c 10.4439,13.7748 12.7042,20.0955 7.1862,20.0955 -1.696,0 -10.809,3.0906 -20.251099,6.868 -13.1219,5.2496 -19.8302,6.5031 -28.4672,5.3193 l -11.2997,-1.5489 0.6236,16.3956 0.6237,16.3955 -18.0127,0.7839 c -10.4752,0.4559 -23.5373,-0.8356 -31.2154033,-3.0863 l -13.2027,-3.8703 1.7693,8.3506 c 4.2528,20.0729 5.79839999,33.6041 3.9676,34.7356 -4.0342,2.4933 -30.1397997,-4.2684 -40.9589997,-10.6088 -6.1553,-3.6073 -14.6677,-10.7758 -18.9163,-15.9301 l -7.7247,-9.3714 -1.8566,32.59 c -2.72402,47.8141 3.6211,127.9702 10.5877,133.752 2.2435,1.862 7.4035,2.332 13.5328,1.2328 19.2525,-3.4528 27.2708,-2.1155 37.7345997,6.2934 11.6635,9.3731 17.357103,9.8729 35.3423033,3.1026 20.6402,-7.7697 27.5773,-3.2575 33.0468,21.4953 2.5626,11.5976 2.6324,15.9536 0.293,18.293 -2.3394,2.3395 -3.0706,1.7273 -3.0706,-2.5707 0,-6.5594 -9.1646,-13.8362 -17.4257,-13.8362 -3.1492,0 -10.8807,2.9469 -17.181,6.5486 -14.1939003,8.1142 -26.0722033,8.349 -39.536903,0.7815 -10.2199,-5.744 -10.5672,-5.7618 -23.4095,-1.2006 -13.5255,4.8038 -29.0308,4.0101 -36.46247,-1.8665 -3.11106,-2.4601 -3.4064,-1.6424 -1.7878,4.9494 1.06639,4.3429 3.09499,9.0807 4.508,10.5284 1.41302,1.4476 15.45147,3.2283 31.19647,3.9571 25.6888,1.1891 29.3239,1.9795 35.4139997,7.7009 6.4984,6.1048 13.4119,23.3837 10.5152,26.2804 -0.7618,0.7618 -6.3558,-1.2477 -12.4310997,-4.4655 -12.3216,-6.5261 -20.6744,-7.2522 -33.1997,-2.8858 l -8.4625,2.95 8.0698,4.9076 c 4.4384,2.6991 8.0859,6.4054 8.1057,8.2363 0.02,1.8308 0.7985,6.1788 1.7306,9.6621 1.6849,6.2974 1.6076,6.3231 -13.6342,4.5318 -8.4307,-0.9909 -22.7648,-5.3506 -31.85339,-9.6881 -13.24396,-6.3208 -18.25209,-10.5565 -25.225268,-21.3347 l -8.70053,-13.4481 -1.93352,11.5387 c -1.06344,6.3463 -2.70494,18.6454 -3.64777,27.3313 -1.50042,13.8227 -6.98388,30.2691 -10.09211,30.2691 -0.58393,0 -3.07602,-6.8105 -5.53796,-15.1345 z" id="path53"/><path style="fill:#1a1a1a;stroke-width:1.97407" d="m -134.42114,3605.0815 c -2.46194,-8.324 -5.89406,-24.6101 -7.6269,-36.1914 l -3.15064,-21.0567 -8.06464,15.7925 c -11.80977,23.1265 -16.42023,26.4476 -35.69672,25.7132 -17.57574,-0.6697 -19.97923,0.57 -31.28848,16.1373 -6.32674,8.7088 -7.45745,9.3874 -7.45745,4.4754 0,-8.2856 7.03569,-21.1324 17.63717,-32.2046 10.80032,-11.2798 9.17836,-13.1857 -11.37871,-13.3704 -17.219,-0.1548 -26.15898,5.1443 -33.46211,19.8342 -6.2142,12.4997 -9.64571,10.1776 -9.64571,-6.5271 0,-11.5096 1.15495,-14.4233 8.7133,-21.9816 9.83737,-9.8374 20.68611,-13.351 49.19282,-15.9322 21.02977,-1.9042 31.58516,-7.7691 31.58516,-17.5497 0,-4.5943 -0.42543,-4.6567 -5.84985,-0.8573 -7.91925,5.5469 -18.61347,5.1521 -30.95209,-1.1426 -11.61837,-5.9272 -15.9727,-5.0568 -28.43403,5.6841 -11.63817,10.0314 -19.58604,9.4842 -44.68082,-3.0762 -22.8234,-11.4234 -28.21062,-12.3954 -36.00961,-6.4965 -7.78602,5.8891 -8.83188,4.8019 -6.6834,-6.9472 3.085,-16.8705 10.09499,-22.0925 29.63241,-22.0742 12.36876,0.012 18.70842,1.4612 25.9005,5.9223 12.41849,7.7027 14.92515,7.479 24.93771,-2.2255 7.48941,-7.259 10.67833,-8.3289 29.69778,-9.9634 11.71909,-1.0071 22.4988,-3.0224 23.95496,-4.4786 1.45613,-1.4561 3.90742,-8.5209 5.44731,-15.6996 3.3409,-15.5745 6.6184,-139.7355 3.96744,-150.2978 -1.81617,-7.2361 -2.00995,-7.0866 -9.91913,7.6532 -12.01442,22.3904 -29.87896,33.4649 -54.04986,33.5064 -9.65211,0.016 -10.21956,-2.5744 -6.04955,-27.6224 1.20503,-7.2382 1.80839,-13.5722 1.34077,-14.0755 -0.46762,-0.5033 -7.49079,1.5694 -15.60709,4.6061 -9.39485,3.5151 -20.93757,5.5213 -31.76678,5.5213 h -17.00989 v -8.8814 c 0,-4.8848 1.69198,-13.677 3.75994,-19.5382 l 3.75993,-10.6568 -7.80568,2.7211 c -13.36711,4.6598 -41.9864,1.6256 -52.01362,-5.5144 -7.55376,-5.3787 -8.53372,-7.3235 -7.15752,-14.2045 0.87698,-4.3849 4.54579,-11.8419 8.15291,-16.5711 3.60712,-4.7291 6.5584,-9.1656 6.5584,-9.8588 0,-0.6932 -5.03388,-2.0986 -11.18641,-3.1231 -11.54861,-1.9232 -27.03569,-8.7803 -39.2342,-17.3715 -8.67331,-6.1084 -7.56851,-11.7814 4.58927,-23.5652 4.9401,-4.7881 8.98199,-9.5141 8.98199,-10.5021 0,-0.9881 -3.52357,-3.256 -7.83016,-5.0398 -17.10764,-7.0863 -34.21927,-32.8854 -34.2687,-51.6669 -0.0164,-6.2598 9.41039,-8.8178 32.68731,-8.8698 l 12.96127,-0.029 -5.59738,-5.9581 c -8.38202,-8.9223 -13.74491,-23.894 -13.74491,-38.372 0,-11.0328 1.92105,-19.2281 9.23619,-39.402 0.9344,-2.5769 4.51353,-1.6199 14.10432,3.7713 l 12.85215,7.2246 10.1987,-8.0169 c 12.95538,-10.1838 25.53552,-16.6344 32.44083,-16.6344 7.08886,0 6.9477,-0.5523 -3.70946,-14.5139 -5.00739,-6.5601 -9.89677,-16.1513 -10.86528,-21.314 -2.3289,-12.4141 0.13015,-45.4051 3.64643,-48.9214 5.94334,-5.9434 32.86067,17.1874 41.78904,35.9104 l 4.37068,9.1654 5.93244,-14.5964 c 5.74416,-14.1332 5.7929,-14.9731 1.53551,-26.4601 -4.36844,-11.7866 -4.35581,-11.8969 1.94539,-16.9993 3.48829,-2.8247 13.33997,-7.0813 21.89262,-9.4591 13.72928,-3.8171 15.35061,-4.9605 13.84514,-9.7638 -0.93781,-2.9922 -2.3451,-14.4334 -3.12729,-25.425 -1.53693,-21.5977 1.35802,-31.3412 9.31196,-31.3412 8.30519,0 28.28334,14.697 31.9232,23.4844 l 3.47875,8.3985 8.98854,-15.9499 c 8.09319,-14.3612 9.52192,-15.6645 14.34312,-13.0843 5.66547,3.0321 14.33615,20.1881 17.04278,33.7212 0.88993,4.4497 2.67988,7.434 3.97768,6.632 1.29782,-0.8021 6.62102,1.1753 11.82939,4.3943 l 9.46975,5.8526 -1.85299,-5.8383 c -2.94776,-9.2875 -2.27904,-45.2281 1.07139,-57.584 1.68372,-6.2092 6.55647,-15.0925 10.82836,-19.7407 l 7.76709,-8.4512 7.80518,8.4939 c 10.90348,11.8655 16.93549,34.1838 15.09609,55.855 -0.80508,9.4854 -2.32172,19.4579 -3.37033,22.1611 -1.7161,4.4241 -0.8104,4.2927 9.06739,-1.316 8.884068,-5.0445 11.403738,-5.5512 13.230938,-2.6611 1.5487,2.4497 3.29735,-0.8544 5.57198,-10.5284 4.56038,-19.395 9.83123,-29.0863 15.26327,-28.0641 2.4497,0.4609 8.0073,6.3925 12.3502,13.1812 8.0115,12.5231 11.8445,15.4743 11.8445,9.1193 0,-1.9302 3.8494,-7.9276 8.5543,-13.3274 6.0727,-6.9697 11.9003,-10.5595 20.0881,-12.3743 6.3435997,-1.406 12.2306997,-1.8595 13.0823997,-1.0078 0.85179999,0.8518 2.00839999,9.6851 2.57029999,19.6297 0.85720001,15.1693 -0.061,20.4449 -5.69849999,32.7599 l -6.7201997,14.6789 8.4086997,0.015 c 13.9674033,0.024 27.6011033,5.0382 33.2591033,12.2312 4.9639,6.3106 5.0545,7.2992 1.2584,13.7278 -3.7886,6.416 -3.6263,8.3574 2.1983,26.2934 l 6.289,19.3658 5.3279,-12.7856 c 7.1396,-17.133 17.496,-28.8912 28.7052,-32.5906 12.8917,-4.2546 16.2728,-2.06 18.3697,11.9233 3.734,24.8997 -6.9945,53.3943 -24.4329,64.893 -6.4767,4.2707 -6.6833,4.8102 -1.8475,4.8256 12.2101,0.039 33.551599,8.6778 43.385499,17.5622 l 10.3509,9.3514 12.75349,-8.1839 c 7.0145,-4.5011 14.0452,-8.1839 15.6239,-8.1839 3.8297,0 6.9358,26.2393 5.0204,42.4117 -0.8427,7.1158 -4.5472,18.9405 -8.2321,26.2769 -3.6848,7.3364 -6.6997,13.6682 -6.6997,14.0705 0,0.4024 6.6061,1.4134 14.6804,2.2467 8.0742,0.8333 17.5179,3.3744 20.9861,5.6468 5.5065,3.6081 5.9579,5.0473 3.5611,11.3556 -5.0597,13.3172 -23.3766,34.7241 -34.6196,40.4598 l -11.0386,5.6315 8.0847,6.8872 c 10.6388,9.0632 18.2036,20.9955 15.1877,23.9563 -7.9077,7.7633 -35.27249,21.265 -45.97719,22.6851 l -12.438299,1.65 10.247099,13.5152 c 10.4439,13.7748 12.7042,20.0955 7.1862,20.0955 -1.696,0 -10.809,3.0906 -20.251099,6.868 -13.1219,5.2496 -19.8302,6.5031 -28.4672,5.3193 l -11.2997,-1.5489 0.6236,16.3956 0.6237,16.3955 -18.0127,0.7839 c -10.4752,0.4559 -23.5373,-0.8356 -31.2154033,-3.0863 l -13.2027,-3.8703 1.7693,8.3506 c 4.2528,20.0729 5.79839999,33.6041 3.9676,34.7356 -4.0342,2.4933 -30.1397997,-4.2684 -40.9589997,-10.6088 -6.1553,-3.6073 -14.6677,-10.7758 -18.9163,-15.9301 l -7.7247,-9.3714 -1.8566,32.59 c -2.72402,47.8141 3.6211,127.9702 10.5877,133.752 2.2435,1.862 7.4035,2.332 13.5328,1.2328 19.2525,-3.4528 27.2708,-2.1155 37.7345997,6.2934 11.6635,9.3731 17.357103,9.8729 35.3423033,3.1026 20.6402,-7.7697 27.5773,-3.2575 33.0468,21.4953 2.5626,11.5976 2.6324,15.9536 0.293,18.293 -2.3394,2.3395 -3.0706,1.7273 -3.0706,-2.5707 0,-6.5594 -9.1646,-13.8362 -17.4257,-13.8362 -3.1492,0 -10.8807,2.9469 -17.181,6.5486 -14.1939003,8.1142 -26.0722033,8.349 -39.536903,0.7815 -10.2199,-5.744 -10.5672,-5.7618 -23.4095,-1.2006 -13.5255,4.8038 -29.0308,4.0101 -36.46247,-1.8665 -3.11106,-2.4601 -3.4064,-1.6424 -1.7878,4.9494 1.06639,4.3429 3.09499,9.0807 4.508,10.5284 1.41302,1.4476 15.45147,3.2283 31.19647,3.9571 25.6888,1.1891 29.3239,1.9795 35.4139997,7.7009 6.4984,6.1048 13.4119,23.3837 10.5152,26.2804 -0.7618,0.7618 -6.3558,-1.2477 -12.4310997,-4.4655 -12.3216,-6.5261 -20.6744,-7.2522 -33.1997,-2.8858 l -8.4625,2.95 8.0698,4.9076 c 4.4384,2.6991 8.0859,6.4054 8.1057,8.2363 0.02,1.8308 0.7985,6.1788 1.7306,9.6621 1.6849,6.2974 1.6076,6.3231 -13.6342,4.5318 -8.4307,-0.9909 -22.7648,-5.3506 -31.85339,-9.6881 -13.24396,-6.3208 -18.25209,-10.5565 -25.225268,-21.3347 l -8.70053,-13.4481 -1.93352,11.5387 c -1.06344,6.3463 -2.70494,18.6454 -3.64777,27.3313 -1.50042,13.8227 -6.98388,30.2691 -10.09211,30.2691 -0.58393,0 -3.07602,-6.8105 -5.53796,-15.1345 z m 13.44821,-63.8284 c 2.32412,-34.1567 4.78132,-39.9506 8.86584,-20.9051 1.67241,7.7982 7.10451,22.6274 12.07133,32.9539 8.567478,17.8125 9.812678,19.1145 24.281748,25.3896 8.38813,3.6378 18.99443,7.4364 23.56963,8.4412 7.185,1.5782 8.1471,1.1771 7.0616,-2.9436 -0.6913,-2.6238 -5.9297,-6.7554 -11.6411,-9.1813 -5.7113,-2.4259 -10.3842,-5.5292 -10.3842,-6.8962 0,-6.8689 43.6265,-12.5248 57.6427997,-7.4731 l 6.317,2.2767 -5.7678,-8.1001 c -6.9102997,-9.7046 -19.9323997,-12.9743 -34.4043997,-8.6384 -13.831,4.1439 -26.8328,3.7065 -33.74535,-1.1352 -12.63113,-8.8472 -21.1832,-34.7522 -22.974128,-69.5908 l -1.28544,-25.0049 5.239998,19.4264 c 6.23572,23.1179 17.3269,41.9701 25.99852,44.1906 3.4284,0.878 14.4684,0.042 24.5333,-1.8567 16.672,-3.1457 19.0169,-3.0293 26.3613,1.3091 16.0027997,9.4531 25.0165997,9.6921 38.540403,1.0218 9.2887,-5.9551 14.314,-7.5317 20.8018,-6.526 7.1386,1.1066 8.5543,0.4905 8.5543,-3.7226 0,-8.122 -11.156,-9.1151 -27.2874,-2.429 -17.2255033,7.1396 -23.6881033,5.9348 -36.878003,-6.8751 -8.4367,-8.1936 -11.0399,-9.3235 -18.2415,-7.9177 -4.6203,0.9019 -13.9234,2.3514 -20.6736,3.2211 -19.38046,2.497 -19.25436,3.0424 -28.88946,-124.9303 -3.41791,-45.3963 -1.03315,-68.0035 9.05078,-85.8011 6.19648,-10.9363 7.35418,-11.8261 25.53158,-19.6235 70.352203,-30.1783 104.292403,-49.2322 118.614603,-66.5898 5.1605,-6.2541 10.0555,-13.1477 10.8778,-15.3192 0.8224,-2.1715 8.0031,-12.9969 15.9572,-24.0564 7.954099,-11.0596 13.691499,-21.355 12.749799,-22.8786 -0.9417,-1.5237 -5.138,3.7729 -9.3251,11.7703 -11.259099,21.5045 -48.437999,58.2803 -73.859599,73.0585 -29.2546033,17.0065 -65.568803,28.3813 -90.402603,28.3172 -18.9747,-0.049 -19.55279,0.1499 -30.92718,10.6343 -6.375088,5.8764 -11.591058,12.2797 -11.591058,14.2296 0,1.95 3.70057,5.459 8.223508,7.7979 7.34073,3.7961 7.79607,4.68 4.24163,8.2344 -6.280868,6.2809 -14.980148,1.7426 -20.476188,-10.6821 -7.41139,-16.7547 -10.53753,-42.547 -10.56833,-87.1943 -0.0158,-22.34 -1.02715,-41.2357 -2.24829,-41.9904 -3.79044,-2.3427 -5.49329,13.5541 -5.49329,51.2817 0,56.1228 -8.26207,89.2999 -22.78212,91.4838 -2.82995,0.4256 -7.33635,-1.6472 -10.01423,-4.6062 -4.75509,-5.2543 -4.74135,-5.38 0.58797,-5.38 15.80794,0 17.91809,-8.2686 5.67011,-22.2182 -7.94712,-9.0513 -8.42619,-9.2082 -23.3502,-7.6483 -25.60464,2.6762 -89.17217,-15.3777 -113.9845,-32.3728 -17.34744,-11.8821 -45.21058,-39.1884 -56.05642,-54.936 -5.46592,-7.9363 -10.4017,-14.4296 -10.96841,-14.4296 -0.56671,0 2.29516,6.0697 6.35972,13.4882 10.57658,19.304 28.3957,38.0398 56.55398,59.4633 20.92318,15.9189 29.08222,20.2652 55.42637,29.526 47.74449,16.7835 53.64161,19.7846 60.81474,30.9485 11.53482,17.9522 13.20283,32.8766 11.4042,102.0374 -1.66888,64.1712 -5.38754,93.1994 -13.53154,105.6287 -3.472,5.299 -5.74887,5.9625 -17.8266,5.1948 -7.61542,-0.4841 -17.01475,-1.714 -20.88741,-2.7331 -5.89892,-1.5524 -8.97832,-0.067 -18.98242,9.1541 -13.31875,12.2768 -9.45287,12.5383 -37.14672,-2.5131 -16.44882,-8.9398 -38.16539,-4.3223 -38.16539,8.1149 0,4.313 0.69383,4.531 5.2885,1.6615 5.47152,-3.417 7.65642,-2.8337 47.7461,12.7466 l 12.2371,4.7557 10.67345,-7.3966 c 8.77026,-6.0778 12.68956,-7.1803 21.98016,-6.1829 6.21868,0.6676 15.13087,2.8179 19.80484,4.7786 7.66163,3.2139 9.20018,3.0406 15.62995,-1.7599 11.48455,-8.5744 17.2839,-18.1545 24.95427,-41.2222 5.90507,-17.7587 7.21723,-20.0159 7.24969,-12.471 0.0537,12.4692 -13.5242,63.6583 -19.17139,72.277 -8.11898,12.3911 -19.36263,17.1936 -40.27942,17.2045 -10.40125,0.01 -22.24569,1.2731 -26.32098,2.8172 -10.06606,3.814 -19.25404,12.8309 -19.25404,18.8956 0,3.9898 1.85667,3.0241 9.24184,-4.8064 l 9.24183,-9.7992 29.8891,1.7071 c 29.78265,1.701 29.91379,1.6824 36.81987,-5.2237 6.28584,-6.2858 6.93073,-6.4502 6.93073,-1.7664 0,6.0381 -8.20569,14.1539 -20.70117,20.4745 -11.25109,5.6912 -7.5092,10.7304 6.07552,8.1819 6.97783,-1.3091 11.13979,-4.3275 15.87895,-11.5163 7.58594,-11.5069 18.86437,-40.6374 22.75211,-58.7653 3.38826,-15.799 8.81862,-14.4744 6.41345,1.5643 -2.16949,14.4672 2.74623,74.8719 6.88834,84.6445 3.08157,7.2705 3.27704,6.9049 5.10571,-9.5486 1.04578,-9.4098 2.74765,-29.5453 3.78191,-44.7457 z m -92.43002,-208.896 c 7.90174,-5.1774 16.76497,-23.7085 17.79482,-37.205 0.77972,-10.2185 0.5424,-10.5534 -8.06306,-11.3765 -23.1312,-2.2125 -42.45947,19.1207 -42.45947,46.8639 0,5.3333 0.70042,10.3973 1.55648,11.2534 2.07216,2.0721 23.4244,-4.4598 31.17123,-9.5358 z m 201.471068,-2.3297 c -0.1494,-22.1165 -19.6512,-43.4615 -40.9012,-44.7669 -9.879,-0.6068 -10.405,-0.2434 -11.1772,7.7238 -1.8911,19.5114 22.9602,45.5974 43.4392,45.5974 8.0692,0 8.6929,-0.6176 8.6392,-8.5543 z m -265.518678,-20.7623 c 14.34286,-4.8022 25.63649,-14.7768 32.85129,-29.0145 3.69537,-7.2924 6.21475,-13.7631 5.59865,-14.3792 -0.6161,-0.6161 -8.35025,-2.3937 -17.18701,-3.9503 -13.98966,-2.4642 -17.35115,-2.2005 -26.00104,2.04 -5.4638,2.6785 -12.61735,8.8983 -15.89676,13.8219 -6.72369,10.0946 -12.26414,28.0195 -9.86197,31.9063 2.15687,3.4899 19.52814,3.2483 30.49684,-0.4242 z m 321.951381,-3.8663 c 12.4822,-4.7898 -4.1183,-35.8235 -22.987,-42.9726 -8.5391,-3.2354 -38.420003,-3.7104 -43.179403,-0.6864 -7.3568,4.6743 16.1586997,37.7038 30.8483027,43.3292 5.3943003,2.0657 30.1909003,2.2973 35.3181003,0.3298 z m -269.275931,-25.9142 c 11.25344,-6.3921 11.30108,-6.4803 4.87484,-9.0235 -5.41648,-2.1436 -7.469,-1.4871 -12.41188,3.9698 -5.30282,5.8544 -7.6979,11.5088 -4.87484,11.5088 0.57606,0 6.16142,-2.9048 12.41188,-6.4551 z m 196.960128,-1.6494 c -7.1791,-10.0822 -10.9606,-11.6033 -18.6351,-7.496 -5.8485,3.13 -5.6319,3.4133 7.0326,9.1959 17.3788,7.9353 18.361,7.7914 11.6025,-1.6999 z m -292.770508,-2.8172 c 8.83869,-2.699 27.07709,-24.3064 27.07709,-32.0787 0,-5.2858 -15.23439,-9.6075 -33.93523,-9.6268 -13.47595,-0.014 -14.84171,0.6325 -26.979,12.7698 -15.70842,15.7084 -16.34367,22.0618 -2.91411,29.1453 10.10485,5.3299 18.77233,5.2804 36.75125,-0.2096 z m 405.945111,-4.4194 c 9.3251,-2.6356 17.378699,-6.0642 17.896999,-7.6189 1.1973,-3.5921 -21.004199,-24.7083 -30.390699,-28.9052 -11.0076,-4.9216 -33.1377,-4.226 -39.9056,1.2543 l -5.7587,4.6631 11.2859,12.8215 c 9.7206,11.0432 24.3344,22.5793 28.6013,22.5778 0.7239,-2e-4 8.9457,-2.1569 18.2708,-4.7926 z m -60.0179,-18.9637 c -6.3169,-5.2625 -18.7911033,-7.1252 -18.7911033,-2.806 0,1.3039 4.4417033,3.5503 9.8704033,4.9922 14.5152,3.8552 15.7958,3.5413 8.9207,-2.1862 z m -305.689631,0.088 c 3.40247,-2.1988 3.333,-2.5571 -0.50268,-2.5918 -2.44797,-0.022 -5.18287,1.1442 -6.07756,2.5918 -2.05878,3.3312 1.42562,3.3312 6.58024,0 z m 137.69917,-6.728 c 2.19359,-13.5175 -0.81296,-35.1813 -6.44222,-46.4195 -4.83887,-9.6603 -19.75028,-23.1833 -25.56351,-23.1833 -4.04476,0 -3.69505,32.6274 0.47289,44.12 3.19138,8.7999 24.0242,34.8429 27.87224,34.8429 1.17791,0 2.8252,-4.212 3.6606,-9.3601 z m 49.581438,-5.4904 c 9.6851,-10.8882 17.09754,-55.856 9.93675,-60.2816 -4.44954,-2.75 -24.620548,20.2296 -28.177158,32.1005 -3.41603,11.4017 -4.27635,31.9471 -1.62687,38.8515 1.41008,3.6746 2.38397,3.5816 8.55431,-0.8167 3.8297,-2.7299 8.920528,-7.164 11.312968,-9.8537 z m -120.135838,-8.8109 c -4.14634,-4.3279 -8.02943,-7.3782 -8.62905,-6.7786 -2.38113,2.3811 2.53809,11.7476 6.75236,12.8569 9.03852,2.3791 9.26785,1.6364 1.87669,-6.0783 z m 35.507,3.466 c 0,-0.6641 -1.39782,-3.7946 -3.10626,-6.9566 -1.70847,-3.1621 -4.41107,-12.2636 -6.0058,-20.2257 -2.73676,-13.6638 -3.63368,-14.8716 -15.97645,-21.5132 -7.19229,-3.8702 -16.49772,-7.8891 -20.67874,-8.9309 l -7.60184,-1.8943 1.8776,10.247 c 4.13262,22.5536 15.79027,38.0399 36.90982,49.0319 6.86077,3.5708 14.58167,3.6989 14.58167,0.2418 z m 120.111958,-5.1527 c 4.9738,-2.3603 12.5463,-8.5411 16.8277,-13.7351 7.4301,-9.0141 17.6276,-33.5872 15.0202,-36.1946 -2.4112,-2.4113 -30.0986,9.6168 -35.5884,15.4604 -6.9291,7.3757 -13.71969,23.2616 -13.71969,32.0959 0,7.9152 4.49429,8.5261 17.46019,2.3734 z m 24.7185,-2.4602 c 3.8174,-10.0406 3.0466,-11.1199 -2.6972,-3.7768 -5.7801,7.3894 -6.5454,10.5283 -2.567,10.5283 1.4835,0 3.8524,-3.0382 5.2642,-6.7515 z m -201.622288,-19.8243 c -2.41796,-10.7172 -6.56703,-23.7786 -9.22012,-29.0252 -4.64371,-9.1831 -18.88571,-23.3619 -23.46601,-23.3619 -1.21817,0 -4.08842,-0.719 -6.37829,-1.5977 -3.40511,-1.3066 -4.16075,0.4912 -4.14874,9.8704 0.0207,16.186 4.59581,30.854 13.35154,42.8057 8.56475,11.691 28.85277,26.1998 32.09798,22.9546 1.18796,-1.188 0.18162,-10.9286 -2.23636,-21.6459 z m -112.44829,12.8592 c 7.67053,-4.6488 13.94642,-9.7572 13.94642,-11.352 0,-3.5157 -12.29334,-15.2801 -20.22571,-19.3554 -15.33247,-7.8772 -49.21465,1.4948 -52.48305,14.5171 -0.89219,3.5548 -1.1838,6.8585 -0.64803,7.3416 0.53578,0.4832 6.30413,4.5361 12.81857,9.0066 16.04842,11.013 28.22797,10.9717 46.5918,-0.158 z m 475.26677,-1.5351 c 19.0208,-10.1428 19.573,-11.8842 6.7571,-21.3091 -12.73139,-9.3627 -22.87309,-10.3589 -43.400489,-4.2629 -14.0041,4.1588 -23.696,12.2065 -20.6452,17.1428 1.0102,1.6345 6.6176,6.4351 12.461,10.668 9.0629,6.5651 12.2156,7.4578 21.451999,6.0742 5.9553,-0.8921 16.4743,-4.633 23.37559,-8.313 z m -445.52778,3.1085 c 0,-0.5595 -3.55333,-1.0173 -7.89629,-1.0173 -4.34296,0 -7.89629,0.9793 -7.89629,2.1763 0,1.1969 3.55333,1.6547 7.89629,1.0173 4.34296,-0.6375 7.89629,-1.6168 7.89629,-2.1763 z m 305.395588,-0.213 c 16.9850997,-11.6401 28.633603,-31.5741 30.818003,-52.7386 l 1.4875,-14.4132 -7.6346,3.9557 c -19.1540033,9.9243 -31.444403,28.9253 -34.272103,52.9847 -1.8609,15.8334 -0.584,17.1915 9.6012,10.2114 z m 82.993603,0.4281 c -5.7472,-4.347 -16.1657,-5.1381 -18.4742,-1.4029 -1.3191,2.1344 4.7446,3.6568 19.6353,4.9298 2.8643,0.2448 2.5455,-0.7234 -1.1611,-3.5269 z M -275.61083,3206.185 c -3.29433,-10.734 -7.36917,-12.9577 -7.36917,-4.0216 0,5.1125 7.52491,16.5906 9.54938,14.5661 0.44442,-0.4444 -0.53669,-5.1894 -2.18021,-10.5445 z m 294.713251,-0.01 c 1.5199,-3.1805 3.466,-8.1516 4.3246,-11.0468 l 1.5612,-5.2642 -4.1552,5.2642 c -2.2853,2.8952 -5.8555,8.4896 -7.9338,12.4317 -3.1256003,5.929 -3.1549003,6.9283 -0.1693,5.7826 1.985,-0.7617 4.8526,-3.9871 6.3726,-7.1675 z m -307.079941,-21.2086 c 0.84889,-26.302 -7.23861,-56.7991 -16.84725,-63.5292 -8.4197,-5.8974 -12.6707,0.092 -14.27152,20.1075 -1.60154,20.0245 3.80376,40.786 14.15055,54.3513 l 7.05362,9.2478 4.82396,-5.9574 c 2.65317,-3.2765 4.94396,-9.6755 5.09064,-14.22 z m 340.671041,-7.5626 c 9.0739,-16.6719 12.145,-47.3293 5.607,-55.9742 -3.9323,-5.1997 -4.0738,-5.1756 -11.5498,1.9654 -10.5705,10.0968 -16.5398,28.5633 -16.5242,51.1193 0.01,10.3771 0.7566,20.8052 1.6654,23.1736 1.4661,3.8204 2.318,3.681 7.5513,-1.2354 3.2444,-3.048 9.207,-11.6199 13.2503,-19.0487 z m -154.202091,-7.8253 c 8.733408,-17.4771 12.097098,-34.4609 9.532518,-48.1313 -2.00272,-10.6754 -6.21353,-11.6744 -13.942378,-3.3077 -7.4507,8.0656 -11.02036,22.3521 -12.98885,51.9839 l -1.6611,25.0049 5.65049,-5.0115 c 3.10776,-2.7563 9.14195,-11.9985 13.40932,-20.5383 z m -40.67658,-31.1074 c -3.81575,-11.4881 -14.91634,-26.2538 -19.73724,-26.2538 -1.06319,0 -2.74234,8.2129 -3.73146,18.2508 -2.00131,20.3102 1.69378,30.8361 17.9309,51.0781 l 8.1922,10.2128 0.77394,-20.318 c 0.51254,-13.4557 -0.64539,-24.5912 -3.42834,-32.9699 z m 77.073368,41.7568 c -6.29387,-3.9944 -9.2268,-2.3349 -7.92346,4.4832 1.22233,6.3941 1.50108,6.4904 6.27746,2.1678 3.8437,-3.4785 4.2239,-5.0149 1.646,-6.651 z m -259.368668,-7.3428 c -4.09569,-12.8075 -8.5094,-15.4401 -8.5094,-5.0755 0,5.257 7.65695,17.8668 10.94445,18.0238 0.95264,0.045 -0.14314,-5.7813 -2.43505,-12.9483 z m 426.59057,3.2236 c -3.9936,-1.3494 -13.964499,3.8882 -13.964499,7.3355 0,1.4339 3.8495,0.609 8.5543,-1.833 4.704899,-2.442 7.139499,-4.9181 5.410199,-5.5025 z m -287.70255,4.5432 c 0,-1.4477 -1.25435,-2.6321 -2.78743,-2.6321 -1.53311,0 -2.0554,1.1844 -1.16072,2.6321 0.89469,1.4476 2.14906,2.6321 2.78743,2.6321 0.6384,0 1.16072,-1.1845 1.16072,-2.6321 z m 252.601251,-12.8248 c -0.088,-7.6375 -2.8897,-4.4185 -6.5615,7.5399 -1.8031,5.8724 -1.5607,6.1834 2.3137,2.9679 2.3803,-1.9755 4.2918,-6.704 4.2478,-10.5078 z m -153.827983,2.8047 c -0.81038,-0.8104 -2.93424,0 -4.71969,1.7972 -2.58016,2.5995 -2.27783,2.9018 1.47344,1.4734 2.59583,-0.9884 4.05664,-2.4602 3.24625,-3.2706 z m 59.15258,-5.2519 c 0,-5.9773 -10.3698,-18.7281 -18.759,-23.0663 -4.8766,-2.5218 -12.8975,-3.7441 -21.3299,-3.2504 -12.17044,0.7125 -13.7019,1.497 -15.40061,7.889 -2.59214,9.7539 1.43963,14.2345 19.35311,21.5076 13.0239,5.2879 16.6828,5.7686 25.663,3.3717 5.8414,-1.5592 10.4734,-4.4125 10.4734,-6.4516 z m -349.505988,4.6314 c 5.37639,-1.4931 10.39373,-3.7155 11.14964,-4.9386 2.54103,-4.1115 -17.83954,-31.6082 -26.46003,-35.6989 -8.5482,-4.0564 -26.149,-5.3078 -33.73103,-2.3983 -15.41302,5.9145 14.0614,45.534 34.00198,45.7055 2.8953,0.025 9.66305,-1.1765 15.03944,-2.6697 z m 527.54128,-13.4103 c 13.6891,-13.4348 19.3496,-25.2501 13.8697,-28.9507 -6.9702,-4.707 -27.3631,-0.9394 -37.7349,6.9715 -8.83549,6.7392 -27.02619,29.6703 -24.79309,31.254 0.5015,0.3557 5.6495,1.8104 11.4401,3.2328 14.51239,3.5648 24.13749,0.3301 37.21819,-12.5076 z m -335.6615,7.7736 c 8.93775,-5.0233 10.22874,-6.9501 10.22874,-15.2661 0,-12.3872 -3.82907,-15.8344 -17.58882,-15.8344 -9.70697,0 -12.92253,1.5817 -23.16244,11.3933 -13.69515,13.1222 -14.84819,18.673 -4.6524,22.3968 11.91627,4.3522 24.33532,3.4026 35.17492,-2.6896 z m 18.12503,3.1168 c 0,-1.4477 -1.25435,-2.6321 -2.78743,-2.6321 -1.53309,0 -2.05541,1.1844 -1.16072,2.6321 0.89471,1.4476 2.14906,2.6321 2.78745,2.6321 0.63838,0 1.1607,-1.1845 1.1607,-2.6321 z m -68.4345,-10.8507 c 0,-3.1732 -7.20785,-2.921 -9.21235,0.3223 -2.84491,4.6032 1.37382,8.4929 5.49853,5.0697 2.04259,-1.6952 3.71382,-4.1216 3.71382,-5.392 z m 224.396478,4.2046 c 0.1504,-1.4114 -1.711,-2.9484 -4.1363,-3.4155 -3.1249,-0.6018 -3.9345,0.3893 -2.7787,3.4014 1.7043,4.4413 6.4423,4.451 6.915,0.014 z m -321.588908,-13.686 c 1.73977,-5.2715 2.52863,-16.4576 1.80039,-25.5298 -1.38862,-17.2992 -10.72895,-39.3722 -15.95541,-37.7056 -1.73182,0.5522 -5.02116,6.5676 -7.30964,13.3676 -4.97473,14.7818 -3.11523,33.4483 5.25261,52.7282 4.59265,10.5817 6.20889,12.2542 9.33493,9.6598 2.07933,-1.7257 5.17402,-7.3598 6.87712,-12.5202 z m 425.008611,-12.2322 c 5.497099,-15.2126 6.963999,-52.1747 2.2584,-56.9033 -2.0972,-2.1074 -5.6125,1.0597 -12.8666,11.5924 l -9.9811,14.492 1.294,24.7376 c 0.7116,13.6057 2.2294,26.2514 3.3729,28.1015 2.8781,4.6569 9.6836,-4.755 15.9224,-22.0202 z m -77.1401,9.3014 c 1.1076,-1.1076 -1.3451,-7.3104 -5.4505003,-13.784 -9.56660301,-15.0848 -24.1857027,-22.244 -40.4122027,-19.7904 -20.9163,3.1627 -21.124,5.1564 -2.395,22.9913 l 16.8556,16.0509 14.6940997,-1.727 c 8.0818,-0.9499 15.6004033,-2.6332 16.7080033,-3.7408 z m -236.697981,-13.6614 c 15.84564,-16.182 14.57404,-18.5163 -11.08686,-20.3524 -24.75974,-1.7715 -33.60432,1.9941 -40.31468,17.164 -2.82148,6.3784 -4.73489,11.9287 -4.25202,12.3341 4.41385,3.7049 19.06235,6.3859 29.61127,5.4195 11.4038,-1.0448 14.49674,-2.7746 26.04229,-14.5652 z m 100.65328,-8.2071 c 5.42338,-20.3759 4.77215,-41.385 -1.81651,-58.6022 -3.09622,-8.0909 -6.61915,-14.7108 -7.8287,-14.7108 -4.75278,0 -11.08835,17.9558 -12.29727,34.8521 -1.0126,14.1524 -0.0535,21.1461 4.69549,34.2382 5.33169,14.6986 9.99609,21.8139 12.59583,19.2141 0.49537,-0.4953 2.58838,-7.2415 4.65116,-14.9914 z m -155.70312,0.1903 4.98994,-8.4964 -11.47138,1.8343 c -6.30925,1.0089 -11.84893,2.2119 -12.31039,2.6734 -0.46146,0.4614 1.24623,4.4724 3.7949,8.9132 5.12317,8.9266 7.27769,8.2191 14.99693,-4.9245 z m 310.331621,4.1436 4.393,-9.2124 h -10.4858 c -11.8894,0 -11.9394,0.082 -6.47,10.6591 5.1793,10.0157 7.2081,9.7821 12.5628,-1.4467 z m -404.739441,-53.2477 c -1.69678,-6.8008 -15.60035,-23.3634 -22.88536,-27.2623 -10.48735,-5.6126 -16.8226,27.4378 -8.89589,46.4091 2.10401,5.0356 10.09901,15.7942 17.76665,23.9079 l 13.94117,14.7521 0.7695,-25.9664 c 0.42321,-14.2816 0.10999,-28.6097 -0.69607,-31.8404 z m 177.37376,50.2493 c 0.60318,-0.5202 0.41179,-1.6307 -0.42533,-2.4678 -0.83711,-0.8371 -4.88396,0.3511 -8.99299,2.6405 l -7.47098,4.1625 7.89629,-1.6947 c 4.34296,-0.9321 8.38982,-2.1203 8.99301,-2.6405 z m 138.404378,1.6863 c -0.8946,-1.4476 -3.4034,-2.6321 -5.5748,-2.6321 -2.1715,0 -3.2161,1.1845 -2.3215,2.6321 0.8947,1.4477 3.4035,2.6321 5.5749,2.6321 2.1715,0 3.2161,-1.1844 2.3214,-2.6321 z m 195.565592,-27.637 c 5.3976,-10.2939 6.923,-17.0017 7.0033,-30.7955 0.056,-9.6993 -1.1613,-18.899 -2.706,-20.4437 -4.3199,-4.3198 -21.08389,9.7333 -27.82619,23.3264 -6.5394,13.184 -10.409,50.2856 -5.2447,50.2856 1.6381,0 2.9783,2.0091 2.9783,4.4645 0,7.0363 17.67729,-11.355 25.79529,-26.8373 z m -196.881592,9.2786 c 9.4098,-4.8546 24.0834,-13.5255 32.608,-19.2687 16.3401997,-11.0087 75.436503,-67.3327 65.667003,-62.5865 -3.131,1.5212 -6.0921,3.6676 -6.5802,4.77 -1.38,3.1167 -33.5997033,30.3657 -48.458503,40.9825 -17.1228,12.2346 -47.1034,27.0498 -62.6719,30.97 -13.14226,3.3093 -13.48739,3.8371 -9.45055,14.4548 2.42341,6.3741 3.16252,6.7112 7.23827,3.3016 2.49657,-2.0885 12.23808,-7.7692 21.64788,-12.6237 z m -262.936908,1.7858 c -2.1184,-2.1184 -2.8832,-0.8027 -2.82482,4.8598 0.0703,6.8069 0.42849,7.1652 2.90485,2.9049 2.02449,-3.483 2.0018,-5.6829 -0.0799,-7.7647 z m 145.75736,2.9117 c -0.84694,-2.2071 -6.51188,-5.4858 -12.58876,-7.286 -6.07687,-1.8002 -22.87467,-9.3282 -37.32841,-16.7288 -21.24777,-10.8794 -30.63928,-17.7581 -49.04913,-35.9258 -12.52328,-12.3585 -24.0014,-24.829 -25.50695,-27.7123 -1.50555,-2.8832 -3.41319,-4.5664 -4.2392,-3.7404 -3.17615,3.1762 29.74029,43.6983 44.70579,55.0356 17.72281,13.4262 80.3519,45.126 83.48617,42.2567 1.1332,-1.0374 1.3674,-3.692 0.52049,-5.899 z m 68.48576,-2.1316 c 0.89469,-1.4477 0.37237,-2.6321 -1.16071,-2.6321 -1.53309,0 -2.78743,1.1844 -2.78743,2.6321 0,1.4476 0.52232,2.632 1.16069,2.632 0.6384,0 1.89274,-1.1844 2.78745,-2.632 z m -159.31589,-10.0754 c 5.1075,-3.7512 9.77263,-7.1571 10.36694,-7.5687 1.96049,-1.3578 -8.8308,-11.7788 -16.07821,-15.5266 -8.57132,-4.4324 -26.6025,-4.8025 -34.52722,-0.7088 -5.90115,3.0485 -17.32984,15.258 -17.49894,18.6945 -0.0521,1.0579 5.21398,4.6215 11.70234,7.919 15.44944,7.8516 32.97559,6.782 46.03509,-2.8094 z m 323.100581,3.3475 c 7.2304,-4.7375 4.8003,-10.1161 -8.7719,-19.416 -10.845,-7.431 -28.9445,-8.0035 -45.2508033,-1.4313 -14.7673997,5.9521 -13.65,10.7671 4.744803,20.4463 12.6708003,6.6672 16.2559003,7.4068 28.8902003,5.9601 7.9333,-0.9084 17.1078,-3.41 20.3877,-5.5591 z m -66.3971033,-1.1684 c -0.8947,-1.4477 -5.0402997,-2.6321 -9.2123997,-2.6321 -4.172,0 -8.3176,1.1844 -9.2123,2.6321 -0.9839,1.5919 2.6565,2.6321 9.2123,2.6321 6.5558,0 10.1962997,-1.0402 9.2123997,-2.6321 z M -160.18055,3084.5759 c -1.99267,-14.5381 -10.47098,-31.7547 -17.48655,-35.5093 -2.86989,-1.5359 -10.5649,-3.7915 -17.10005,-5.0124 -11.40742,-2.1312 -11.88206,-1.9672 -11.88206,4.1051 0,20.4547 24.06675,48.2318 41.8133,48.2596 5.93031,0.01 6.18951,-0.6501 4.65536,-11.843 z m 88.063618,-0.3492 c 9.57195,-9.277 15.49725,-23.1625 15.49725,-36.3164 0,-6.1482 -0.8014,-6.8686 -5.9222,-5.3241 -12.73593,3.8412 -22.9024,9.8249 -26.80011,15.7735 -5.68639,8.6785 -10.62015,28.438 -8.48804,33.9942 2.60055,6.777 14.07828,3.1491 25.7131,-8.1272 z m -127.093818,2.0985 c -4.58182,-5.5913 -6.36001,-6.463 -7.06664,-3.464 -0.51934,2.204 1.1876,5.5661 3.7932,7.4714 8.03802,5.8775 9.70315,3.8391 3.27344,-4.0074 z m -125.88281,-4.373 6.18183,-6.5802 h -9.61472 c -9.30049,0 -9.51673,0.2151 -6.61656,6.5802 1.64898,3.6192 3.19379,6.5803 3.43289,6.5803 0.23912,0 3.21657,-2.9611 6.61656,-6.5803 z m 271.065678,-1.974 c -0.033,-4.789 -0.5286,-5.1667 -2.5918,-1.9741 -3.2978,5.103 -3.2978,7.8963 0,7.8963 1.4477,0 2.614,-2.665 2.5918,-5.9222 z m 129.013003,1.974 c 2.7773,-3.3463 2.1755,-3.9481 -3.9481,-3.9481 -6.1236,0 -6.7254,0.6018 -3.9482,3.9481 1.8022,2.1715 3.5789,3.9482 3.9482,3.9482 0.3693,0 2.146,-1.7767 3.9481,-3.9482 z m -429.031741,-10.3983 c 0,-1.5465 -2.53713,-4.3964 -5.63807,-6.3329 -5.25249,-3.2803 -5.52495,-3.0986 -3.98408,2.6569 0.90969,3.3979 1.70782,8.5469 1.77363,11.4423 0.11807,5.1943 0.17094,5.1963 3.98409,0.1549 2.12544,-2.8101 3.86443,-6.3746 3.86443,-7.9211 z m 136.86903,-6.292 c 0,-25.8563 -12.36344,-55.9492 -24.61185,-59.9059 -7.74634,-2.5023 -10.06591,2.3769 -10.31227,21.6921 -0.26433,20.722 3.56227,30.0144 18.22343,44.2531 13.83252,13.434 16.70069,12.3968 16.70069,-6.0393 z m 326.11761,0.3223 c 0.1481,-1.8088 -1.4592,-2.5468 -3.6858,-1.6924 -4.0936,1.5709 -5.4251,11.7579 -1.9863,15.1968 1.8073,1.8073 5.0514,-5.9164 5.6721,-13.5044 z m -136.972402,0.3663 c 12.9555,-14.7182 19.3532997,-32.7711 18.2769997,-51.5731 l -0.8025997,-14.0201 -13.2102,13.1786 c -8.2543,8.2346 -14.4258,17.2361 -16.4506,23.9942 -3.7756,12.6019 -4.3486,40.474 -0.832,40.474 1.3246,0 7.1829,-5.4241 13.0184,-12.0536 z m -72.036098,1.6126 c 0.943318,-4.2948 4.590748,-12.0463 8.105428,-17.2255 7.21476,-10.6316 7.56599,-11.815 3.5065,-11.815 -1.58609,0 -6.24071,-2.3903 -10.3436,-5.3118 -4.102898,-2.9215 -7.869838,-4.4021 -8.371018,-3.2901 -0.50116,1.1119 -0.49413,11.7934 0.0158,23.7365 0.94217,22.0738 3.98272,28.0399 7.08704,13.9059 z m 129.733601,-0.088 c 3.0962,0 3.4691,-0.7902 1.3658,-2.8935 -3.3143,-3.3143 -13.9519,-0.7582 -13.9519,3.3525 0,1.505 1.8735,2.0174 4.1634,1.1387 2.2899,-0.8787 6.0801,-1.5977 8.4227,-1.5977 z m 60.0061,-4.227 c 18.366699,-7.625 18.158699,-16.8721 -0.566,-25.1549 -14.5346,-6.4293 -26.5998,-5.5416 -44.209,3.2529 -17.2294,8.6048 -15.9218,13.5402 5.742,21.672 18.0124,6.7611 23.2272,6.7919 39.033,0.23 z m -241.046391,-16.8297 c 0,-11.5812 -0.36947,-21.0567 -0.82106,-21.0567 -0.45159,0 -3.45709,3.5654 -6.67892,7.9232 -5.80241,7.8481 -5.81372,8.0475 -1.19324,21.0567 2.56556,7.2235 5.57105,13.1336 6.67892,13.1336 1.10785,0 2.0143,-9.4755 2.0143,-21.0568 z m -153.03702,12.0386 c 10.62451,-5.4941 10.01289,-10.3131 -2.60398,-20.5172 -13.77144,-11.1379 -26.92993,-12.2177 -43.92676,-3.6048 -16.5374,8.3802 -17.39227,13.7663 -3.76171,23.7008 8.78559,6.4032 11.61907,7.066 25.78187,6.0309 8.75134,-0.6396 19.78111,-3.164 24.51058,-5.6097 z m 47.04526,-8.1553 c -1.89347,-6.1695 -3.7268,-8.3977 -5.47284,-6.6516 -1.74605,1.746 -1.61035,4.8537 0.4051,9.2772 4.58851,10.0707 8.364,8.1146 5.06774,-2.6256 z m 255.3763477,-4.086 0.671,-9.0096 -3.9611,8.8565 c -4.8066997,10.7468 -4.8638997,11.6192 -0.6711,10.2428 1.8095,-0.594 3.5921,-5.1344 3.9612,-10.0897 z m -107.2710277,-48.524 c 3.61912,-3.8562 13.610018,-11.3485 22.201978,-16.6496 11.22976,-6.9286 19.92705,-15.4405 30.93505,-30.2757 8.4223,-11.3506 14.6164,-21.7649 13.7647,-23.143 -0.8517,-1.3781 -5.0309,2.7516 -9.287,9.1772 -15.2485,23.0211 -51.189858,48.6077 -64.591198,45.9825 -7.64959,-1.4985 -11.95182,-19.6736 -10.01439,-42.3066 1.60379,-18.7354 1.34825,-20.3992 -3.13394,-20.4048 -4.43073,-0.01 -4.80264,2.022 -4.03877,22.0185 1.12793,29.5261 -3.38945,41.1579 -15.98432,41.1579 -15.35345,0 -37.68044,-17.4006 -56.69461,-44.185 -4.40568,-6.2061 -8.69376,-10.178 -9.52907,-8.8264 -1.87051,3.0265 19.33867,32.3249 33.20888,45.8747 5.61424,5.4846 16.67372,14.1082 24.57657,19.1636 13.44662,8.6017 14.39973,9.9044 14.85022,20.2972 0.26476,6.108 0.26936,14.2957 0.01,18.1947 -0.59925,9.016 3.63772,11.7939 7.36526,4.829 4.13596,-7.7282 7.41748,-6.6105 12.5845,4.2862 l 4.56358,9.6241 1.31605,-23.9016 c 1.14939,-20.8748 2.14935,-24.7896 7.89629,-30.9129 z m -153.74499,4.57 c -1.72439,-20.8912 -10.09229,-40.8386 -16.60552,-39.5842 -7.77753,1.4978 -12.42049,14.9661 -11.91485,34.5626 0.38423,14.8916 1.90705,20.4643 8.96138,32.794 l 8.49848,14.8538 6.21205,-13.0532 c 5.1669,-10.8571 5.98262,-15.8327 4.84846,-29.573 z m 284.578121,23.758 c 7.1133,-15.7511 9.4396,-41.0944 5.2115,-56.7771 -2.6177,-9.7096 -6.7335,-7.9837 -15.7829,6.6187 -5.9083033,9.5336 -7.4696033,15.3122 -7.7661033,28.7424 -0.3802,17.2297 4.3401,36.5505 8.9298033,36.5505 1.415,0 5.6485,-6.8105 9.4077,-15.1345 z m -192.629681,6.0677 c 11.3371,-4.7369 19.79956,-19.9831 14.58153,-26.2704 -4.80053,-5.7843 -19.6942,-7.8995 -28.34302,-4.0254 -4.04418,1.8115 -11.30962,8.1135 -16.14547,14.0044 l -8.79246,10.7108 5.79395,4.6916 c 7.00765,5.6745 20.57495,6.041 32.90547,0.889 z m 117.070578,-3.0378 c 0,-7.3083 -8.4372,-22.3457 -14.9215,-26.5944 -7.59878,-4.9789 -28.36683,-3.3678 -34.403508,2.6689 -5.76231,5.7623 -2.63688,11.2193 11.595128,20.2449 14.50363,9.198 37.72988,11.4637 37.72988,3.6806 z m -155.386998,-20.138 c 0.13779,-2.9156 -9.86088,-2.4005 -11.71754,0.6036 -0.87621,1.4177 -0.20583,5.1698 1.48972,8.338 l 3.08283,5.7603 3.52587,-6.3639 c 1.93923,-3.5002 3.56784,-7.2523 3.61912,-8.338 z m 173.020898,2.2338 c -0.5054,-1.5161 -4.5795,-3.5052 -9.0535,-4.4203 l -8.1347,-1.6637 4.2017,8.8111 c 3.9791,8.3442 4.4589,8.5784 9.0536,4.4203 2.6684,-2.415 4.4383,-5.6313 3.9329,-7.1474 z m 97.225703,0.3982 c 13.6871,-10.2641 21.8441,-25.6395 23.8346,-44.9265 1.7196,-16.6611 -0.8703,-19.5758 -12.192,-13.7211 -17.9593,9.2871 -29.1146,30.6805 -29.1146,55.8353 0,13.7434 2.384,14.1272 17.472,2.8123 z m -366.793281,-9.9663 c -0.91149,-23.0596 -5.60718,-36.0366 -16.1988,-44.7671 -12.16359,-10.0263 -17.51266,-9.8972 -21.14068,0.5102 -7.05117,20.227 0.31917,38.3143 22.11533,54.2727 12.42245,9.0952 15.88941,6.8143 15.22415,-10.0158 z m 88.02904,-5.2608 c 6.98775,-1.4986 16.21911,-5.5268 20.51421,-8.9516 l 7.80923,-6.2269 -5.24388,-5.7944 c -16.70206,-18.4556 -50.11288,-17.5995 -58.81842,1.5071 -2.85263,6.2608 -1.33856,8.3483 12.76463,17.5984 8.02662,5.2646 7.37881,5.212 22.97423,1.8674 z m 200.289438,-5.1377 c 11.7660997,-8.5233 12.1225997,-12.7562 1.6522,-19.6167 -13.8087,-9.0478 -49.8814,-1.6087 -49.8814,10.2867 0,6.548 17.9588,17.0894 29.2161,17.1491 4.9344,0.026 12.4495,-3.0644 19.0131,-7.8191 z m -164.041508,-0.034 c 0.8947,-1.4476 -0.21983,-2.6321 -2.47674,-2.6321 -2.25691,0 -4.10348,1.1845 -4.10348,2.6321 0,1.4477 1.11453,2.6321 2.47675,2.6321 1.36221,0 3.20879,-1.1844 4.10347,-2.6321 z m 111.151308,-1.5902 c -0.87467,-0.8746 -3.14486,-0.9681 -5.04491,-0.2078 -2.0997,0.8402 -1.47601,1.4639 1.59024,1.5902 2.77467,0.1143 4.32927,-0.5078 3.45467,-1.3824 z m -73.078518,-19.2935 c 3.54346,-6.621 3.46765,-30.2929 -0.13857,-43.2808 -3.03416,-10.9276 -12.92571,-22.6947 -19.07737,-22.6947 -4.03347,0 -9.68547,18.145 -9.58665,30.7767 0.10777,13.768 15.60251,40.2899 23.53843,40.2899 1.39675,0 3.76563,-2.291 5.26421,-5.0911 z m 148.5244177,0.9277 c 2.0724,-5.4003 2.0144,-6.3734 -0.3764,-6.3246 -4.45430001,0.091 -9.1069,4.8323 -7.4201,7.5617 2.56869999,4.1562 5.9317,3.6225 7.7965,-1.2371 z M -259.29113,2968.772 c 0,-2.1715 -1.77667,-3.9481 -3.94815,-3.9481 -4.11021,0 -5.22199,3.1129 -2.19341,6.1415 3.02856,3.0286 6.14156,1.9168 6.14156,-2.1934 z m 162.531958,-10.1933 c 7.73428,-11.5499 8.55431,-14.6463 8.55431,-32.3003 0,-15.4571 -0.8761,-19.8621 -4.20434,-21.1392 -9.881638,-3.792 -24.748708,26.546 -24.748708,50.5025 0,21.8887 7.03004,22.9009 20.398738,2.937 z m 17.10863,-0.051 c 4.8785,-3.7033 6.03475,-13.6952 2.27191,-19.6331 -1.59308,-2.5139 -3.51002,0.1309 -6.53995,9.0232 -2.35746,6.9188 -4.28627,12.9608 -4.28627,13.4267 0,1.8698 4.20424,0.4854 8.55431,-2.8168 z m -150.534848,-12.2371 c 4.25899,-3.0327 7.7436,-5.9794 7.7436,-6.5482 0,-2.8662 -13.07961,-12.9747 -22.37282,-17.2908 -15.03807,-6.9842 -23.49653,-6.2909 -33.51769,2.7474 -8.26191,7.4515 -8.44248,8.0315 -4.6477,14.9299 2.17148,3.9475 9.10288,9.8997 15.40311,13.2272 10.62383,5.6109 12.11504,5.7741 20.55144,2.2492 5.00305,-2.0904 12.58106,-6.282 16.84006,-9.3147 z m 53.39391,5.916 c -1.63608,-6.2564 -6.16886,-8.0093 -6.16886,-2.3856 0,3.3298 5.49939,10.381 6.95841,8.922 0.40099,-0.401 0.0458,-3.3424 -0.78955,-6.5364 z m 137.280398,4.7211 c -0.8947,-1.4477 -3.2636,-2.6321 -5.2642,-2.6321 -2.0006,0 -4.3695,1.1844 -5.2642,2.6321 -0.9262,1.4987 1.3405,2.6321 5.2642,2.6321 3.9237,0 6.1905,-1.1334 5.2642,-2.6321 z m 45.1943997,-6.3879 c 15.7551033,-7.3356 22.0637033,-15.683 14.7193033,-19.4761 -11.0868003,-5.7259 -25.3706033,-8.7533 -33.820503,-7.1681 -8.9096,1.6714 -27.4092,15.3545 -27.4092,20.273 0,3.1592 20.656,12.633 27.637,12.6756 2.8953,0.018 11.3882997,-2.8193 18.8733997,-6.3044 z m -220.9416777,2.1656 c -0.87461,-0.8746 -3.14479,-0.9682 -5.04484,-0.2078 -2.09972,0.8402 -1.47603,1.4639 1.59021,1.5902 2.77468,0.1143 4.32926,-0.5078 3.45463,-1.3824 z m 32.9589,-28.8666 c 5.36985,-21.2475 3.21353,-40.2998 -6.30399,-55.6994 l -5.71488,-9.2469 -3.30852,6.3145 c -1.81968,3.473 -5.26327,13.8582 -7.65245,23.0783 -3.59066,13.8569 -3.8136,18.9745 -1.28566,29.5121 3.32229,13.8489 11.86183,26.7944 16.6544,25.2474 1.65114,-0.533 5.07613,-9.1757 7.6111,-19.206 z m 125.981278,8.8366 c 1.4554,-2.7194 3.6995,-11.4158 4.9868,-19.3252 2.6797,-16.465 -1.1591,-33.2537 -10.2445,-44.804 l -5.5539,-7.0606 -4.54002,10.2136 c -6.43417,14.475 -6.37431,51.7757 0.10225,63.7 3.96227,7.295 5.39697,8.2014 8.67527,5.4806 2.1604,-1.7929 5.1188,-5.4849 6.5742,-8.2044 z m -162.168008,-40.9938 c -1.40319,-11.3056 -3.63158,-15.9215 -11.86469,-24.5763 -12.79843,-13.4539 -18.77732,-12.8462 -21.75511,2.2115 -4.11669,20.8167 6.41262,42.5614 24.98604,51.6001 l 8.62631,4.198 0.86754,-9.7566 c 0.47715,-5.3661 0.09,-16.0206 -0.86009,-23.6767 z m 189.541408,24.9329 c 12.8467,-8.7296 19.4817997,-18.1908 21.9237997,-31.2619 2.6824,-14.3584 0.8527,-31.0767 -3.4010997,-31.0767 -5.1614,0 -21.8196,13.8555 -25.316,21.0568 -3.4967,7.2018 -6.8645,47.3777 -3.9715,47.3777 0.9866,0 5.8308,-2.7432 10.7648,-6.0959 z m -95.980798,-7.8063 c 11.40214,-8.9679 13.83655,-63.573 3.45419,-77.479 -7.45887,-9.9904 -11.86777,-9.2044 -17.98331,3.206 -6.18745,12.5562 -6.96054,42.3843 -1.65429,63.8283 3.55629,14.3719 7.74937,17.0781 16.18341,10.4447 z" id="path2"/><path xmlns:inkscape="http://www.inkscape.org/namespaces/inkscape" inkscape:original-d="M 0,0" inkscape:path-effect="#path-effect52" d="m -134.42114,3605.0815 c -2.46194,-8.324 -5.89406,-24.6101 -7.6269,-36.1914 l -3.15064,-21.0567 -8.06464,15.7925 c -11.80977,23.1265 -16.42023,26.4476 -35.69672,25.7132 -17.57574,-0.6697 -19.97923,0.57 -31.28848,16.1373 -6.32674,8.7088 -7.45745,9.3874 -7.45745,4.4754 0,-8.2856 7.03569,-21.1324 17.63717,-32.2046 10.80032,-11.2798 9.17836,-13.1857 -11.37871,-13.3704 -17.219,-0.1548 -26.15898,5.1443 -33.46211,19.8342 -6.2142,12.4997 -9.64571,10.1776 -9.64571,-6.5271 0,-11.5096 1.15495,-14.4233 8.7133,-21.9816 9.83737,-9.8374 20.68611,-13.351 49.19282,-15.9322 21.02977,-1.9042 31.58516,-7.7691 31.58516,-17.5497 0,-4.5943 -0.42543,-4.6567 -5.84985,-0.8573 -7.91925,5.5469 -18.61347,5.1521 -30.95209,-1.1426 -11.61837,-5.9272 -15.9727,-5.0568 -28.43403,5.6841 -11.63817,10.0314 -19.58604,9.4842 -44.68082,-3.0762 -22.8234,-11.4234 -28.21062,-12.3954 -36.00961,-6.4965 -7.78602,5.8891 -8.83188,4.8019 -6.6834,-6.9472 3.085,-16.8705 10.09499,-22.0925 29.63241,-22.0742 12.36876,0.012 18.70842,1.4612 25.9005,5.9223 12.41849,7.7027 14.92515,7.479 24.93771,-2.2255 7.48941,-7.259 10.67833,-8.3289 29.69778,-9.9634 11.71909,-1.0071 22.4988,-3.0224 23.95496,-4.4786 1.45613,-1.4561 3.90742,-8.5209 5.44731,-15.6996 3.3409,-15.5745 6.6184,-139.7355 3.96744,-150.2978 -1.81617,-7.2361 -2.00995,-7.0866 -9.91913,7.6532 -12.01442,22.3904 -29.87896,33.4649 -54.04986,33.5064 -9.65211,0.016 -10.21956,-2.5744 -6.04955,-27.6224 1.20503,-7.2382 1.80839,-13.5722 1.34077,-14.0755 -0.46762,-0.5033 -7.49079,1.5694 -15.60709,4.6061 -9.39485,3.5151 -20.93757,5.5213 -31.76678,5.5213 h -17.00989 v -8.8814 c 0,-4.8848 1.69198,-13.677 3.75994,-19.5382 l 3.75993,-10.6568 -7.80568,2.7211 c -13.36711,4.6598 -41.9864,1.6256 -52.01362,-5.5144 -7.55376,-5.3787 -8.53372,-7.3235 -7.15752,-14.2045 0.87698,-4.3849 4.54579,-11.8419 8.15291,-16.5711 3.60712,-4.7291 6.5584,-9.1656 6.5584,-9.8588 0,-0.6932 -5.03388,-2.0986 -11.18641,-3.1231 -11.54861,-1.9232 -27.03569,-8.7803 -39.2342,-17.3715 -8.67331,-6.1084 -7.56851,-11.7814 4.58927,-23.5652 4.9401,-4.7881 8.98199,-9.5141 8.98199,-10.5021 0,-0.9881 -3.52357,-3.256 -7.83016,-5.0398 -17.10764,-7.0863 -34.21927,-32.8854 -34.2687,-51.6669 -0.0164,-6.2598 9.41039,-8.8178 32.68731,-8.8698 l 12.96127,-0.029 -5.59738,-5.9581 c -8.38202,-8.9223 -13.74491,-23.894 -13.74491,-38.372 0,-11.0328 1.92105,-19.2281 9.23619,-39.402 0.9344,-2.5769 4.51353,-1.6199 14.10432,3.7713 l 12.85215,7.2246 10.1987,-8.0169 c 12.95538,-10.1838 25.53552,-16.6344 32.44083,-16.6344 7.08886,0 6.9477,-0.5523 -3.70946,-14.5139 -5.00739,-6.5601 -9.89677,-16.1513 -10.86528,-21.314 -2.3289,-12.4141 0.13015,-45.4051 3.64643,-48.9214 5.94334,-5.9434 32.86067,17.1874 41.78904,35.9104 l 4.37068,9.1654 5.93244,-14.5964 c 5.74416,-14.1332 5.7929,-14.9731 1.53551,-26.4601 -4.36844,-11.7866 -4.35581,-11.8969 1.94539,-16.9993 3.48829,-2.8247 13.33997,-7.0813 21.89262,-9.4591 13.72928,-3.8171 15.35061,-4.9605 13.84514,-9.7638 -0.93781,-2.9922 -2.3451,-14.4334 -3.12729,-25.425 -1.53693,-21.5977 1.35802,-31.3412 9.31196,-31.3412 8.30519,0 28.28334,14.697 31.9232,23.4844 l 3.47875,8.3985 8.98854,-15.9499 c 8.09319,-14.3612 9.52192,-15.6645 14.34312,-13.0843 5.66547,3.0321 14.33615,20.1881 17.04278,33.7212 0.88993,4.4497 2.67988,7.434 3.97768,6.632 1.29782,-0.8021 6.62102,1.1753 11.82939,4.3943 l 9.46975,5.8526 -1.85299,-5.8383 c -2.94776,-9.2875 -2.27904,-45.2281 1.07139,-57.584 1.68372,-6.2092 6.55647,-15.0925 10.82836,-19.7407 l 7.76709,-8.4512 7.80518,8.4939 c 10.90348,11.8655 16.93549,34.1838 15.09609,55.855 -0.80508,9.4854 -2.32172,19.4579 -3.37033,22.1611 -1.7161,4.4241 -0.8104,4.2927 9.06739,-1.316 8.884068,-5.0445 11.403738,-5.5512 13.230938,-2.6611 1.5487,2.4497 3.29735,-0.8544 5.57198,-10.5284 4.56038,-19.395 9.83123,-29.0863 15.26327,-28.0641 2.4497,0.4609 8.0073,6.3925 12.3502,13.1812 8.0115,12.5231 11.8445,15.4743 11.8445,9.1193 0,-1.9302 3.8494,-7.9276 8.5543,-13.3274 6.0727,-6.9697 11.9003,-10.5595 20.0881,-12.3743 6.3435997,-1.406 12.2306997,-1.8595 13.0823997,-1.0078 0.85179999,0.8518 2.00839999,9.6851 2.57029999,19.6297 0.85720001,15.1693 -0.061,20.4449 -5.69849999,32.7599 l -6.7201997,14.6789 8.4086997,0.015 c 13.9674033,0.024 27.6011033,5.0382 33.2591033,12.2312 4.9639,6.3106 5.0545,7.2992 1.2584,13.7278 -3.7886,6.416 -3.6263,8.3574 2.1983,26.2934 l 6.289,19.3658 5.3279,-12.7856 c 7.1396,-17.133 17.496,-28.8912 28.7052,-32.5906 12.8917,-4.2546 16.2728,-2.06 18.3697,11.9233 3.734,24.8997 -6.9945,53.3943 -24.4329,64.893 -6.4767,4.2707 -6.6833,4.8102 -1.8475,4.8256 12.2101,0.039 33.551599,8.6778 43.385499,17.5622 l 10.3509,9.3514 12.75349,-8.1839 c 7.0145,-4.5011 14.0452,-8.1839 15.6239,-8.1839 3.8297,0 6.9358,26.2393 5.0204,42.4117 -0.8427,7.1158 -4.5472,18.9405 -8.2321,26.2769 -3.6848,7.3364 -6.6997,13.6682 -6.6997,14.0705 0,0.4024 6.6061,1.4134 14.6804,2.2467 8.0742,0.8333 17.5179,3.3744 20.9861,5.6468 5.5065,3.6081 5.9579,5.0473 3.5611,11.3556 -5.0597,13.3172 -23.3766,34.7241 -34.6196,40.4598 l -11.0386,5.6315 8.0847,6.8872 c 10.6388,9.0632 18.2036,20.9955 15.1877,23.9563 -7.9077,7.7633 -35.27249,21.265 -45.97719,22.6851 l -12.438299,1.65 10.247099,13.5152 c 10.4439,13.7748 12.7042,20.0955 7.1862,20.0955 -1.696,0 -10.809,3.0906 -20.251099,6.868 -13.1219,5.2496 -19.8302,6.5031 -28.4672,5.3193 l -11.2997,-1.5489 0.6236,16.3956 0.6237,16.3955 -18.0127,0.7839 c -10.4752,0.4559 -23.5373,-0.8356 -31.2154033,-3.0863 l -13.2027,-3.8703 1.7693,8.3506 c 4.2528,20.0729 5.79839999,33.6041 3.9676,34.7356 -4.0342,2.4933 -30.1397997,-4.2684 -40.9589997,-10.6088 -6.1553,-3.6073 -14.6677,-10.7758 -18.9163,-15.9301 l -7.7247,-9.3714 -1.8566,32.59 c -2.72402,47.8141 3.6211,127.9702 10.5877,133.752 2.2435,1.862 7.4035,2.332 13.5328,1.2328 19.2525,-3.4528 27.2708,-2.1155 37.7345997,6.2934 11.6635,9.3731 17.357103,9.8729 35.3423033,3.1026 20.6402,-7.7697 27.5773,-3.2575 33.0468,21.4953 2.5626,11.5976 2.6324,15.9536 0.293,18.293 -2.3394,2.3395 -3.0706,1.7273 -3.0706,-2.5707 0,-6.5594 -9.1646,-13.8362 -17.4257,-13.8362 -3.1492,0 -10.8807,2.9469 -17.181,6.5486 -14.1939003,8.1142 -26.0722033,8.349 -39.536903,0.7815 -10.2199,-5.744 -10.5672,-5.7618 -23.4095,-1.2006 -13.5255,4.8038 -29.0308,4.0101 -36.46247,-1.8665 -3.11106,-2.4601 -3.4064,-1.6424 -1.7878,4.9494 1.06639,4.3429 3.09499,9.0807 4.508,10.5284 1.41302,1.4476 15.45147,3.2283 31.19647,3.9571 25.6888,1.1891 29.3239,1.9795 35.4139997,7.7009 6.4984,6.1048 13.4119,23.3837 10.5152,26.2804 -0.7618,0.7618 -6.3558,-1.2477 -12.4310997,-4.4655 -12.3216,-6.5261 -20.6744,-7.2522 -33.1997,-2.8858 l -8.4625,2.95 8.0698,4.9076 c 4.4384,2.6991 8.0859,6.4054 8.1057,8.2363 0.02,1.8308 0.7985,6.1788 1.7306,9.6621 1.6849,6.2974 1.6076,6.3231 -13.6342,4.5318 -8.4307,-0.9909 -22.7648,-5.3506 -31.85339,-9.6881 -13.24396,-6.3208 -18.25209,-10.5565 -25.225268,-21.3347 l -8.70053,-13.4481 -1.93352,11.5387 c -1.06344,6.3463 -2.70494,18.6454 -3.64777,27.3313 -1.50042,13.8227 -6.98388,30.2691 -10.09211,30.2691 -0.58393,0 -3.07602,-6.8105 -5.53796,-15.1345 z" id="path53"/><path style="fill:#1a1a1a;stroke-width:1.97407" d="m -134.42114,3605.0815 c -2.46194,-8.324 -5.89406,-24.6101 -7.6269,-36.1914 l -3.15064,-21.0567 -8.06464,15.7925 c -11.80977,23.1265 -16.42023,26.4476 -35.69672,25.7132 -17.57574,-0.6697 -19.97923,0.57 -31.28848,16.1373 -6.32674,8.7088 -7.45745,9.3874 -7.45745,4.4754 0,-8.2856 7.03569,-21.1324 17.63717,-32.2046 10.80032,-11.2798 9.17836,-13.1857 -11.37871,-13.3704 -17.219,-0.1548 -26.15898,5.1443 -33.46211,19.8342 -6.2142,12.4997 -9.64571,10.1776 -9.64571,-6.5271 0,-11.5096 1.15495,-14.4233 8.7133,-21.9816 9.83737,-9.8374 20.68611,-13.351 49.19282,-15.9322 21.02977,-1.9042 31.58516,-7.7691 31.58516,-17.5497 0,-4.5943 -0.42543,-4.6567 -5.84985,-0.8573 -7.91925,5.5469 -18.61347,5.1521 -30.95209,-1.1426 -11.61837,-5.9272 -15.9727,-5.0568 -28.43403,5.6841 -11.63817,10.0314 -19.58604,9.4842 -44.68082,-3.0762 -22.8234,-11.4234 -28.21062,-12.3954 -36.00961,-6.4965 -7.78602,5.8891 -8.83188,4.8019 -6.6834,-6.9472 3.085,-16.8705 10.09499,-22.0925 29.63241,-22.0742 12.36876,0.012 18.70842,1.4612 25.9005,5.9223 12.41849,7.7027 14.92515,7.479 24.93771,-2.2255 7.48941,-7.259 10.67833,-8.3289 29.69778,-9.9634 11.71909,-1.0071 22.4988,-3.0224 23.95496,-4.4786 1.45613,-1.4561 3.90742,-8.5209 5.44731,-15.6996 3.3409,-15.5745 6.6184,-139.7355 3.96744,-150.2978 -1.81617,-7.2361 -2.00995,-7.0866 -9.91913,7.6532 -12.01442,22.3904 -29.87896,33.4649 -54.04986,33.5064 -9.65211,0.016 -10.21956,-2.5744 -6.04955,-27.6224 1.20503,-7.2382 1.80839,-13.5722 1.34077,-14.0755 -0.46762,-0.5033 -7.49079,1.5694 -15.60709,4.6061 -9.39485,3.5151 -20.93757,5.5213 -31.76678,5.5213 h -17.00989 v -8.8814 c 0,-4.8848 1.69198,-13.677 3.75994,-19.5382 l 3.75993,-10.6568 -7.80568,2.7211 c -13.36711,4.6598 -41.9864,1.6256 -52.01362,-5.5144 -7.55376,-5.3787 -8.53372,-7.3235 -7.15752,-14.2045 0.87698,-4.3849 4.54579,-11.8419 8.15291,-16.5711 3.60712,-4.7291 6.5584,-9.1656 6.5584,-9.8588 0,-0.6932 -5.03388,-2.0986 -11.18641,-3.1231 -11.54861,-1.9232 -27.03569,-8.7803 -39.2342,-17.3715 -8.67331,-6.1084 -7.56851,-11.7814 4.58927,-23.5652 4.9401,-4.7881 8.98199,-9.5141 8.98199,-10.5021 0,-0.9881 -3.52357,-3.256 -7.83016,-5.0398 -17.10764,-7.0863 -34.21927,-32.8854 -34.2687,-51.6669 -0.0164,-6.2598 9.41039,-8.8178 32.68731,-8.8698 l 12.96127,-0.029 -5.59738,-5.9581 c -8.38202,-8.9223 -13.74491,-23.894 -13.74491,-38.372 0,-11.0328 1.92105,-19.2281 9.23619,-39.402 0.9344,-2.5769 4.51353,-1.6199 14.10432,3.7713 l 12.85215,7.2246 10.1987,-8.0169 c 12.95538,-10.1838 25.53552,-16.6344 32.44083,-16.6344 7.08886,0 6.9477,-0.5523 -3.70946,-14.5139 -5.00739,-6.5601 -9.89677,-16.1513 -10.86528,-21.314 -2.3289,-12.4141 0.13015,-45.4051 3.64643,-48.9214 5.94334,-5.9434 32.86067,17.1874 41.78904,35.9104 l 4.37068,9.1654 5.93244,-14.5964 c 5.74416,-14.1332 5.7929,-14.9731 1.53551,-26.4601 -4.36844,-11.7866 -4.35581,-11.8969 1.94539,-16.9993 3.48829,-2.8247 13.33997,-7.0813 21.89262,-9.4591 13.72928,-3.8171 15.35061,-4.9605 13.84514,-9.7638 -0.93781,-2.9922 -2.3451,-14.4334 -3.12729,-25.425 -1.53693,-21.5977 1.35802,-31.3412 9.31196,-31.3412 8.30519,0 28.28334,14.697 31.9232,23.4844 l 3.47875,8.3985 8.98854,-15.9499 c 8.09319,-14.3612 9.52192,-15.6645 14.34312,-13.0843 5.66547,3.0321 14.33615,20.1881 17.04278,33.7212 0.88993,4.4497 2.67988,7.434 3.97768,6.632 1.29782,-0.8021 6.62102,1.1753 11.82939,4.3943 l 9.46975,5.8526 -1.85299,-5.8383 c -2.94776,-9.2875 -2.27904,-45.2281 1.07139,-57.584 1.68372,-6.2092 6.55647,-15.0925 10.82836,-19.7407 l 7.76709,-8.4512 7.80518,8.4939 c 10.90348,11.8655 16.93549,34.1838 15.09609,55.855 -0.80508,9.4854 -2.32172,19.4579 -3.37033,22.1611 -1.7161,4.4241 -0.8104,4.2927 9.06739,-1.316 8.884068,-5.0445 11.403738,-5.5512 13.230938,-2.6611 1.5487,2.4497 3.29735,-0.8544 5.57198,-10.5284 4.56038,-19.395 9.83123,-29.0863 15.26327,-28.0641 2.4497,0.4609 8.0073,6.3925 12.3502,13.1812 8.0115,12.5231 11.8445,15.4743 11.8445,9.1193 0,-1.9302 3.8494,-7.9276 8.5543,-13.3274 6.0727,-6.9697 11.9003,-10.5595 20.0881,-12.3743 6.3435997,-1.406 12.2306997,-1.8595 13.0823997,-1.0078 0.85179999,0.8518 2.00839999,9.6851 2.57029999,19.6297 0.85720001,15.1693 -0.061,20.4449 -5.69849999,32.7599 l -6.7201997,14.6789 8.4086997,0.015 c 13.9674033,0.024 27.6011033,5.0382 33.2591033,12.2312 4.9639,6.3106 5.0545,7.2992 1.2584,13.7278 -3.7886,6.416 -3.6263,8.3574 2.1983,26.2934 l 6.289,19.3658 5.3279,-12.7856 c 7.1396,-17.133 17.496,-28.8912 28.7052,-32.5906 12.8917,-4.2546 16.2728,-2.06 18.3697,11.9233 3.734,24.8997 -6.9945,53.3943 -24.4329,64.893 -6.4767,4.2707 -6.6833,4.8102 -1.8475,4.8256 12.2101,0.039 33.551599,8.6778 43.385499,17.5622 l 10.3509,9.3514 12.75349,-8.1839 c 7.0145,-4.5011 14.0452,-8.1839 15.6239,-8.1839 3.8297,0 6.9358,26.2393 5.0204,42.4117 -0.8427,7.1158 -4.5472,18.9405 -8.2321,26.2769 -3.6848,7.3364 -6.6997,13.6682 -6.6997,14.0705 0,0.4024 6.6061,1.4134 14.6804,2.2467 8.0742,0.8333 17.5179,3.3744 20.9861,5.6468 5.5065,3.6081 5.9579,5.0473 3.5611,11.3556 -5.0597,13.3172 -23.3766,34.7241 -34.6196,40.4598 l -11.0386,5.6315 8.0847,6.8872 c 10.6388,9.0632 18.2036,20.9955 15.1877,23.9563 -7.9077,7.7633 -35.27249,21.265 -45.97719,22.6851 l -12.438299,1.65 10.247099,13.5152 c 10.4439,13.7748 12.7042,20.0955 7.1862,20.0955 -1.696,0 -10.809,3.0906 -20.251099,6.868 -13.1219,5.2496 -19.8302,6.5031 -28.4672,5.3193 l -11.2997,-1.5489 0.6236,16.3956 0.6237,16.3955 -18.0127,0.7839 c -10.4752,0.4559 -23.5373,-0.8356 -31.2154033,-3.0863 l -13.2027,-3.8703 1.7693,8.3506 c 4.2528,20.0729 5.79839999,33.6041 3.9676,34.7356 -4.0342,2.4933 -30.1397997,-4.2684 -40.9589997,-10.6088 -6.1553,-3.6073 -14.6677,-10.7758 -18.9163,-15.9301 l -7.7247,-9.3714 -1.8566,32.59 c -2.72402,47.8141 3.6211,127.9702 10.5877,133.752 2.2435,1.862 7.4035,2.332 13.5328,1.2328 19.2525,-3.4528 27.2708,-2.1155 37.7345997,6.2934 11.6635,9.3731 17.357103,9.8729 35.3423033,3.1026 20.6402,-7.7697 27.5773,-3.2575 33.0468,21.4953 2.5626,11.5976 2.6324,15.9536 0.293,18.293 -2.3394,2.3395 -3.0706,1.7273 -3.0706,-2.5707 0,-6.5594 -9.1646,-13.8362 -17.4257,-13.8362 -3.1492,0 -10.8807,2.9469 -17.181,6.5486 -14.1939003,8.1142 -26.0722033,8.349 -39.536903,0.7815 -10.2199,-5.744 -10.5672,-5.7618 -23.4095,-1.2006 -13.5255,4.8038 -29.0308,4.0101 -36.46247,-1.8665 -3.11106,-2.4601 -3.4064,-1.6424 -1.7878,4.9494 1.06639,4.3429 3.09499,9.0807 4.508,10.5284 1.41302,1.4476 15.45147,3.2283 31.19647,3.9571 25.6888,1.1891 29.3239,1.9795 35.4139997,7.7009 6.4984,6.1048 13.4119,23.3837 10.5152,26.2804 -0.7618,0.7618 -6.3558,-1.2477 -12.4310997,-4.4655 -12.3216,-6.5261 -20.6744,-7.2522 -33.1997,-2.8858 l -8.4625,2.95 8.0698,4.9076 c 4.4384,2.6991 8.0859,6.4054 8.1057,8.2363 0.02,1.8308 0.7985,6.1788 1.7306,9.6621 1.6849,6.2974 1.6076,6.3231 -13.6342,4.5318 -8.4307,-0.9909 -22.7648,-5.3506 -31.85339,-9.6881 -13.24396,-6.3208 -18.25209,-10.5565 -25.225268,-21.3347 l -8.70053,-13.4481 -1.93352,11.5387 c -1.06344,6.3463 -2.70494,18.6454 -3.64777,27.3313 -1.50042,13.8227 -6.98388,30.2691 -10.09211,30.2691 -0.58393,0 -3.07602,-6.8105 -5.53796,-15.1345 z m 13.44821,-63.8284 c 2.32412,-34.1567 4.78132,-39.9506 8.86584,-20.9051 1.67241,7.7982 7.10451,22.6274 12.07133,32.9539 8.567478,17.8125 9.812678,19.1145 24.281748,25.3896 8.38813,3.6378 18.99443,7.4364 23.56963,8.4412 7.185,1.5782 8.1471,1.1771 7.0616,-2.9436 -0.6913,-2.6238 -5.9297,-6.7554 -11.6411,-9.1813 -5.7113,-2.4259 -10.3842,-5.5292 -10.3842,-6.8962 0,-6.8689 43.6265,-12.5248 57.6427997,-7.4731 l 6.317,2.2767 -5.7678,-8.1001 c -6.9102997,-9.7046 -19.9323997,-12.9743 -34.4043997,-8.6384 -13.831,4.1439 -26.8328,3.7065 -33.74535,-1.1352 -12.63113,-8.8472 -21.1832,-34.7522 -22.974128,-69.5908 l -1.28544,-25.0049 5.239998,19.4264 c 6.23572,23.1179 17.3269,41.9701 25.99852,44.1906 3.4284,0.878 14.4684,0.042 24.5333,-1.8567 16.672,-3.1457 19.0169,-3.0293 26.3613,1.3091 16.0027997,9.4531 25.0165997,9.6921 38.540403,1.0218 9.2887,-5.9551 14.314,-7.5317 20.8018,-6.526 7.1386,1.1066 8.5543,0.4905 8.5543,-3.7226 0,-8.122 -11.156,-9.1151 -27.2874,-2.429 -17.2255033,7.1396 -23.6881033,5.9348 -36.878003,-6.8751 -8.4367,-8.1936 -11.0399,-9.3235 -18.2415,-7.9177 -4.6203,0.9019 -13.9234,2.3514 -20.6736,3.2211 -19.38046,2.497 -19.25436,3.0424 -28.88946,-124.9303 -3.41791,-45.3963 -1.03315,-68.0035 9.05078,-85.8011 6.19648,-10.9363 7.35418,-11.8261 25.53158,-19.6235 70.352203,-30.1783 104.292403,-49.2322 118.614603,-66.5898 5.1605,-6.2541 10.0555,-13.1477 10.8778,-15.3192 0.8224,-2.1715 8.0031,-12.9969 15.9572,-24.0564 7.954099,-11.0596 13.691499,-21.355 12.749799,-22.8786 -0.9417,-1.5237 -5.138,3.7729 -9.3251,11.7703 -11.259099,21.5045 -48.437999,58.2803 -73.859599,73.0585 -29.2546033,17.0065 -65.568803,28.3813 -90.402603,28.3172 -18.9747,-0.049 -19.55279,0.1499 -30.92718,10.6343 -6.375088,5.8764 -11.591058,12.2797 -11.591058,14.2296 0,1.95 3.70057,5.459 8.223508,7.7979 7.34073,3.7961 7.79607,4.68 4.24163,8.2344 -6.280868,6.2809 -14.980148,1.7426 -20.476188,-10.6821 -7.41139,-16.7547 -10.53753,-42.547 -10.56833,-87.1943 -0.0158,-22.34 -1.02715,-41.2357 -2.24829,-41.9904 -3.79044,-2.3427 -5.49329,13.5541 -5.49329,51.2817 0,56.1228 -8.26207,89.2999 -22.78212,91.4838 -2.82995,0.4256 -7.33635,-1.6472 -10.01423,-4.6062 -4.75509,-5.2543 -4.74135,-5.38 0.58797,-5.38 15.80794,0 17.91809,-8.2686 5.67011,-22.2182 -7.94712,-9.0513 -8.42619,-9.2082 -23.3502,-7.6483 -25.60464,2.6762 -89.17217,-15.3777 -113.9845,-32.3728 -17.34744,-11.8821 -45.21058,-39.1884 -56.05642,-54.936 -5.46592,-7.9363 -10.4017,-14.4296 -10.96841,-14.4296 -0.56671,0 2.29516,6.0697 6.35972,13.4882 10.57658,19.304 28.3957,38.0398 56.55398,59.4633 20.92318,15.9189 29.08222,20.2652 55.42637,29.526 47.74449,16.7835 53.64161,19.7846 60.81474,30.9485 11.53482,17.9522 13.20283,32.8766 11.4042,102.0374 -1.66888,64.1712 -5.38754,93.1994 -13.53154,105.6287 -3.472,5.299 -5.74887,5.9625 -17.8266,5.1948 -7.61542,-0.4841 -17.01475,-1.714 -20.88741,-2.7331 -5.89892,-1.5524 -8.97832,-0.067 -18.98242,9.1541 -13.31875,12.2768 -9.45287,12.5383 -37.14672,-2.5131 -16.44882,-8.9398 -38.16539,-4.3223 -38.16539,8.1149 0,4.313 0.69383,4.531 5.2885,1.6615 5.47152,-3.417 7.65642,-2.8337 47.7461,12.7466 l 12.2371,4.7557 10.67345,-7.3966 c 8.77026,-6.0778 12.68956,-7.1803 21.98016,-6.1829 6.21868,0.6676 15.13087,2.8179 19.80484,4.7786 7.66163,3.2139 9.20018,3.0406 15.62995,-1.7599 11.48455,-8.5744 17.2839,-18.1545 24.95427,-41.2222 5.90507,-17.7587 7.21723,-20.0159 7.24969,-12.471 0.0537,12.4692 -13.5242,63.6583 -19.17139,72.277 -8.11898,12.3911 -19.36263,17.1936 -40.27942,17.2045 -10.40125,0.01 -22.24569,1.2731 -26.32098,2.8172 -10.06606,3.814 -19.25404,12.8309 -19.25404,18.8956 0,3.9898 1.85667,3.0241 9.24184,-4.8064 l 9.24183,-9.7992 29.8891,1.7071 c 29.78265,1.701 29.91379,1.6824 36.81987,-5.2237 6.28584,-6.2858 6.93073,-6.4502 6.93073,-1.7664 0,6.0381 -8.20569,14.1539 -20.70117,20.4745 -11.25109,5.6912 -7.5092,10.7304 6.07552,8.1819 6.97783,-1.3091 11.13979,-4.3275 15.87895,-11.5163 7.58594,-11.5069 18.86437,-40.6374 22.75211,-58.7653 3.38826,-15.799 8.81862,-14.4744 6.41345,1.5643 -2.16949,14.4672 2.74623,74.8719 6.88834,84.6445 3.08157,7.2705 3.27704,6.9049 5.10571,-9.5486 1.04578,-9.4098 2.74765,-29.5453 3.78191,-44.7457 z m -92.43002,-208.896 c 7.90174,-5.1774 16.76497,-23.7085 17.79482,-37.205 0.77972,-10.2185 0.5424,-10.5534 -8.06306,-11.3765 -23.1312,-2.2125 -42.45947,19.1207 -42.45947,46.8639 0,5.3333 0.70042,10.3973 1.55648,11.2534 2.07216,2.0721 23.4244,-4.4598 31.17123,-9.5358 z m 201.471068,-2.3297 c -0.1494,-22.1165 -19.6512,-43.4615 -40.9012,-44.7669 -9.879,-0.6068 -10.405,-0.2434 -11.1772,7.7238 -1.8911,19.5114 22.9602,45.5974 43.4392,45.5974 8.0692,0 8.6929,-0.6176 8.6392,-8.5543 z m -265.518678,-20.7623 c 14.34286,-4.8022 25.63649,-14.7768 32.85129,-29.0145 3.69537,-7.2924 6.21475,-13.7631 5.59865,-14.3792 -0.6161,-0.6161 -8.35025,-2.3937 -17.18701,-3.9503 -13.98966,-2.4642 -17.35115,-2.2005 -26.00104,2.04 -5.4638,2.6785 -12.61735,8.8983 -15.89676,13.8219 -6.72369,10.0946 -12.26414,28.0195 -9.86197,31.9063 2.15687,3.4899 19.52814,3.2483 30.49684,-0.4242 z m 321.951381,-3.8663 c 12.4822,-4.7898 -4.1183,-35.8235 -22.987,-42.9726 -8.5391,-3.2354 -38.420003,-3.7104 -43.179403,-0.6864 -7.3568,4.6743 16.1586997,37.7038 30.8483027,43.3292 5.3943003,2.0657 30.1909003,2.2973 35.3181003,0.3298 z m -269.275931,-25.9142 c 11.25344,-6.3921 11.30108,-6.4803 4.87484,-9.0235 -5.41648,-2.1436 -7.469,-1.4871 -12.41188,3.9698 -5.30282,5.8544 -7.6979,11.5088 -4.87484,11.5088 0.57606,0 6.16142,-2.9048 12.41188,-6.4551 z m 196.960128,-1.6494 c -7.1791,-10.0822 -10.9606,-11.6033 -18.6351,-7.496 -5.8485,3.13 -5.6319,3.4133 7.0326,9.1959 17.3788,7.9353 18.361,7.7914 11.6025,-1.6999 z m -292.770508,-2.8172 c 8.83869,-2.699 27.07709,-24.3064 27.07709,-32.0787 0,-5.2858 -15.23439,-9.6075 -33.93523,-9.6268 -13.47595,-0.014 -14.84171,0.6325 -26.979,12.7698 -15.70842,15.7084 -16.34367,22.0618 -2.91411,29.1453 10.10485,5.3299 18.77233,5.2804 36.75125,-0.2096 z m 405.945111,-4.4194 c 9.3251,-2.6356 17.378699,-6.0642 17.896999,-7.6189 1.1973,-3.5921 -21.004199,-24.7083 -30.390699,-28.9052 -11.0076,-4.9216 -33.1377,-4.226 -39.9056,1.2543 l -5.7587,4.6631 11.2859,12.8215 c 9.7206,11.0432 24.3344,22.5793 28.6013,22.5778 0.7239,-2e-4 8.9457,-2.1569 18.2708,-4.7926 z m -60.0179,-18.9637 c -6.3169,-5.2625 -18.7911033,-7.1252 -18.7911033,-2.806 0,1.3039 4.4417033,3.5503 9.8704033,4.9922 14.5152,3.8552 15.7958,3.5413 8.9207,-2.1862 z m -305.689631,0.088 c 3.40247,-2.1988 3.333,-2.5571 -0.50268,-2.5918 -2.44797,-0.022 -5.18287,1.1442 -6.07756,2.5918 -2.05878,3.3312 1.42562,3.3312 6.58024,0 z m 137.69917,-6.728 c 2.19359,-13.5175 -0.81296,-35.1813 -6.44222,-46.4195 -4.83887,-9.6603 -19.75028,-23.1833 -25.56351,-23.1833 -4.04476,0 -3.69505,32.6274 0.47289,44.12 3.19138,8.7999 24.0242,34.8429 27.87224,34.8429 1.17791,0 2.8252,-4.212 3.6606,-9.3601 z m 49.581438,-5.4904 c 9.6851,-10.8882 17.09754,-55.856 9.93675,-60.2816 -4.44954,-2.75 -24.620548,20.2296 -28.177158,32.1005 -3.41603,11.4017 -4.27635,31.9471 -1.62687,38.8515 1.41008,3.6746 2.38397,3.5816 8.55431,-0.8167 3.8297,-2.7299 8.920528,-7.164 11.312968,-9.8537 z m -120.135838,-8.8109 c -4.14634,-4.3279 -8.02943,-7.3782 -8.62905,-6.7786 -2.38113,2.3811 2.53809,11.7476 6.75236,12.8569 9.03852,2.3791 9.26785,1.6364 1.87669,-6.0783 z m 35.507,3.466 c 0,-0.6641 -1.39782,-3.7946 -3.10626,-6.9566 -1.70847,-3.1621 -4.41107,-12.2636 -6.0058,-20.2257 -2.73676,-13.6638 -3.63368,-14.8716 -15.97645,-21.5132 -7.19229,-3.8702 -16.49772,-7.8891 -20.67874,-8.9309 l -7.60184,-1.8943 1.8776,10.247 c 4.13262,22.5536 15.79027,38.0399 36.90982,49.0319 6.86077,3.5708 14.58167,3.6989 14.58167,0.2418 z m 120.111958,-5.1527 c 4.9738,-2.3603 12.5463,-8.5411 16.8277,-13.7351 7.4301,-9.0141 17.6276,-33.5872 15.0202,-36.1946 -2.4112,-2.4113 -30.0986,9.6168 -35.5884,15.4604 -6.9291,7.3757 -13.71969,23.2616 -13.71969,32.0959 0,7.9152 4.49429,8.5261 17.46019,2.3734 z m 24.7185,-2.4602 c 3.8174,-10.0406 3.0466,-11.1199 -2.6972,-3.7768 -5.7801,7.3894 -6.5454,10.5283 -2.567,10.5283 1.4835,0 3.8524,-3.0382 5.2642,-6.7515 z m -201.622288,-19.8243 c -2.41796,-10.7172 -6.56703,-23.7786 -9.22012,-29.0252 -4.64371,-9.1831 -18.88571,-23.3619 -23.46601,-23.3619 -1.21817,0 -4.08842,-0.719 -6.37829,-1.5977 -3.40511,-1.3066 -4.16075,0.4912 -4.14874,9.8704 0.0207,16.186 4.59581,30.854 13.35154,42.8057 8.56475,11.691 28.85277,26.1998 32.09798,22.9546 1.18796,-1.188 0.18162,-10.9286 -2.23636,-21.6459 z m -112.44829,12.8592 c 7.67053,-4.6488 13.94642,-9.7572 13.94642,-11.352 0,-3.5157 -12.29334,-15.2801 -20.22571,-19.3554 -15.33247,-7.8772 -49.21465,1.4948 -52.48305,14.5171 -0.89219,3.5548 -1.1838,6.8585 -0.64803,7.3416 0.53578,0.4832 6.30413,4.5361 12.81857,9.0066 16.04842,11.013 28.22797,10.9717 46.5918,-0.158 z m 475.26677,-1.5351 c 19.0208,-10.1428 19.573,-11.8842 6.7571,-21.3091 -12.73139,-9.3627 -22.87309,-10.3589 -43.400489,-4.2629 -14.0041,4.1588 -23.696,12.2065 -20.6452,17.1428 1.0102,1.6345 6.6176,6.4351 12.461,10.668 9.0629,6.5651 12.2156,7.4578 21.451999,6.0742 5.9553,-0.8921 16.4743,-4.633 23.37559,-8.313 z m -445.52778,3.1085 c 0,-0.5595 -3.55333,-1.0173 -7.89629,-1.0173 -4.34296,0 -7.89629,0.9793 -7.89629,2.1763 0,1.1969 3.55333,1.6547 7.89629,1.0173 4.34296,-0.6375 7.89629,-1.6168 7.89629,-2.1763 z m 305.395588,-0.213 c 16.9850997,-11.6401 28.633603,-31.5741 30.818003,-52.7386 l 1.4875,-14.4132 -7.6346,3.9557 c -19.1540033,9.9243 -31.444403,28.9253 -34.272103,52.9847 -1.8609,15.8334 -0.584,17.1915 9.6012,10.2114 z m 82.993603,0.4281 c -5.7472,-4.347 -16.1657,-5.1381 -18.4742,-1.4029 -1.3191,2.1344 4.7446,3.6568 19.6353,4.9298 2.8643,0.2448 2.5455,-0.7234 -1.1611,-3.5269 z M -275.61083,3206.185 c -3.29433,-10.734 -7.36917,-12.9577 -7.36917,-4.0216 0,5.1125 7.52491,16.5906 9.54938,14.5661 0.44442,-0.4444 -0.53669,-5.1894 -2.18021,-10.5445 z m 294.713251,-0.01 c 1.5199,-3.1805 3.466,-8.1516 4.3246,-11.0468 l 1.5612,-5.2642 -4.1552,5.2642 c -2.2853,2.8952 -5.8555,8.4896 -7.9338,12.4317 -3.1256003,5.929 -3.1549003,6.9283 -0.1693,5.7826 1.985,-0.7617 4.8526,-3.9871 6.3726,-7.1675 z m -307.079941,-21.2086 c 0.84889,-26.302 -7.23861,-56.7991 -16.84725,-63.5292 -8.4197,-5.8974 -12.6707,0.092 -14.27152,20.1075 -1.60154,20.0245 3.80376,40.786 14.15055,54.3513 l 7.05362,9.2478 4.82396,-5.9574 c 2.65317,-3.2765 4.94396,-9.6755 5.09064,-14.22 z m 340.671041,-7.5626 c 9.0739,-16.6719 12.145,-47.3293 5.607,-55.9742 -3.9323,-5.1997 -4.0738,-5.1756 -11.5498,1.9654 -10.5705,10.0968 -16.5398,28.5633 -16.5242,51.1193 0.01,10.3771 0.7566,20.8052 1.6654,23.1736 1.4661,3.8204 2.318,3.681 7.5513,-1.2354 3.2444,-3.048 9.207,-11.6199 13.2503,-19.0487 z m -154.202091,-7.8253 c 8.733408,-17.4771 12.097098,-34.4609 9.532518,-48.1313 -2.00272,-10.6754 -6.21353,-11.6744 -13.942378,-3.3077 -7.4507,8.0656 -11.02036,22.3521 -12.98885,51.9839 l -1.6611,25.0049 5.65049,-5.0115 c 3.10776,-2.7563 9.14195,-11.9985 13.40932,-20.5383 z m -40.67658,-31.1074 c -3.81575,-11.4881 -14.91634,-26.2538 -19.73724,-26.2538 -1.06319,0 -2.74234,8.2129 -3.73146,18.2508 -2.00131,20.3102 1.69378,30.8361 17.9309,51.0781 l 8.1922,10.2128 0.77394,-20.318 c 0.51254,-13.4557 -0.64539,-24.5912 -3.42834,-32.9699 z m 77.073368,41.7568 c -6.29387,-3.9944 -9.2268,-2.3349 -7.92346,4.4832 1.22233,6.3941 1.50108,6.4904 6.27746,2.1678 3.8437,-3.4785 4.2239,-5.0149 1.646,-6.651 z m -259.368668,-7.3428 c -4.09569,-12.8075 -8.5094,-15.4401 -8.5094,-5.0755 0,5.257 7.65695,17.8668 10.94445,18.0238 0.95264,0.045 -0.14314,-5.7813 -2.43505,-12.9483 z m 426.59057,3.2236 c -3.9936,-1.3494 -13.964499,3.8882 -13.964499,7.3355 0,1.4339 3.8495,0.609 8.5543,-1.833 4.704899,-2.442 7.139499,-4.9181 5.410199,-5.5025 z m -287.70255,4.5432 c 0,-1.4477 -1.25435,-2.6321 -2.78743,-2.6321 -1.53311,0 -2.0554,1.1844 -1.16072,2.6321 0.89469,1.4476 2.14906,2.6321 2.78743,2.6321 0.6384,0 1.16072,-1.1845 1.16072,-2.6321 z m 252.601251,-12.8248 c -0.088,-7.6375 -2.8897,-4.4185 -6.5615,7.5399 -1.8031,5.8724 -1.5607,6.1834 2.3137,2.9679 2.3803,-1.9755 4.2918,-6.704 4.2478,-10.5078 z m -153.827983,2.8047 c -0.81038,-0.8104 -2.93424,0 -4.71969,1.7972 -2.58016,2.5995 -2.27783,2.9018 1.47344,1.4734 2.59583,-0.9884 4.05664,-2.4602 3.24625,-3.2706 z m 59.15258,-5.2519 c 0,-5.9773 -10.3698,-18.7281 -18.759,-23.0663 -4.8766,-2.5218 -12.8975,-3.7441 -21.3299,-3.2504 -12.17044,0.7125 -13.7019,1.497 -15.40061,7.889 -2.59214,9.7539 1.43963,14.2345 19.35311,21.5076 13.0239,5.2879 16.6828,5.7686 25.663,3.3717 5.8414,-1.5592 10.4734,-4.4125 10.4734,-6.4516 z m -349.505988,4.6314 c 5.37639,-1.4931 10.39373,-3.7155 11.14964,-4.9386 2.54103,-4.1115 -17.83954,-31.6082 -26.46003,-35.6989 -8.5482,-4.0564 -26.149,-5.3078 -33.73103,-2.3983 -15.41302,5.9145 14.0614,45.534 34.00198,45.7055 2.8953,0.025 9.66305,-1.1765 15.03944,-2.6697 z m 527.54128,-13.4103 c 13.6891,-13.4348 19.3496,-25.2501 13.8697,-28.9507 -6.9702,-4.707 -27.3631,-0.9394 -37.7349,6.9715 -8.83549,6.7392 -27.02619,29.6703 -24.79309,31.254 0.5015,0.3557 5.6495,1.8104 11.4401,3.2328 14.51239,3.5648 24.13749,0.3301 37.21819,-12.5076 z m -335.6615,7.7736 c 8.93775,-5.0233 10.22874,-6.9501 10.22874,-15.2661 0,-12.3872 -3.82907,-15.8344 -17.58882,-15.8344 -9.70697,0 -12.92253,1.5817 -23.16244,11.3933 -13.69515,13.1222 -14.84819,18.673 -4.6524,22.3968 11.91627,4.3522 24.33532,3.4026 35.17492,-2.6896 z m 18.12503,3.1168 c 0,-1.4477 -1.25435,-2.6321 -2.78743,-2.6321 -1.53309,0 -2.05541,1.1844 -1.16072,2.6321 0.89471,1.4476 2.14906,2.6321 2.78745,2.6321 0.63838,0 1.1607,-1.1845 1.1607,-2.6321 z m -68.4345,-10.8507 c 0,-3.1732 -7.20785,-2.921 -9.21235,0.3223 -2.84491,4.6032 1.37382,8.4929 5.49853,5.0697 2.04259,-1.6952 3.71382,-4.1216 3.71382,-5.392 z m 224.396478,4.2046 c 0.1504,-1.4114 -1.711,-2.9484 -4.1363,-3.4155 -3.1249,-0.6018 -3.9345,0.3893 -2.7787,3.4014 1.7043,4.4413 6.4423,4.451 6.915,0.014 z m -321.588908,-13.686 c 1.73977,-5.2715 2.52863,-16.4576 1.80039,-25.5298 -1.38862,-17.2992 -10.72895,-39.3722 -15.95541,-37.7056 -1.73182,0.5522 -5.02116,6.5676 -7.30964,13.3676 -4.97473,14.7818 -3.11523,33.4483 5.25261,52.7282 4.59265,10.5817 6.20889,12.2542 9.33493,9.6598 2.07933,-1.7257 5.17402,-7.3598 6.87712,-12.5202 z m 425.008611,-12.2322 c 5.497099,-15.2126 6.963999,-52.1747 2.2584,-56.9033 -2.0972,-2.1074 -5.6125,1.0597 -12.8666,11.5924 l -9.9811,14.492 1.294,24.7376 c 0.7116,13.6057 2.2294,26.2514 3.3729,28.1015 2.8781,4.6569 9.6836,-4.755 15.9224,-22.0202 z m -77.1401,9.3014 c 1.1076,-1.1076 -1.3451,-7.3104 -5.4505003,-13.784 -9.56660301,-15.0848 -24.1857027,-22.244 -40.4122027,-19.7904 -20.9163,3.1627 -21.124,5.1564 -2.395,22.9913 l 16.8556,16.0509 14.6940997,-1.727 c 8.0818,-0.9499 15.6004033,-2.6332 16.7080033,-3.7408 z m -236.697981,-13.6614 c 15.84564,-16.182 14.57404,-18.5163 -11.08686,-20.3524 -24.75974,-1.7715 -33.60432,1.9941 -40.31468,17.164 -2.82148,6.3784 -4.73489,11.9287 -4.25202,12.3341 4.41385,3.7049 19.06235,6.3859 29.61127,5.4195 11.4038,-1.0448 14.49674,-2.7746 26.04229,-14.5652 z m 100.65328,-8.2071 c 5.42338,-20.3759 4.77215,-41.385 -1.81651,-58.6022 -3.09622,-8.0909 -6.61915,-14.7108 -7.8287,-14.7108 -4.75278,0 -11.08835,17.9558 -12.29727,34.8521 -1.0126,14.1524 -0.0535,21.1461 4.69549,34.2382 5.33169,14.6986 9.99609,21.8139 12.59583,19.2141 0.49537,-0.4953 2.58838,-7.2415 4.65116,-14.9914 z m -155.70312,0.1903 4.98994,-8.4964 -11.47138,1.8343 c -6.30925,1.0089 -11.84893,2.2119 -12.31039,2.6734 -0.46146,0.4614 1.24623,4.4724 3.7949,8.9132 5.12317,8.9266 7.27769,8.2191 14.99693,-4.9245 z m 310.331621,4.1436 4.393,-9.2124 h -10.4858 c -11.8894,0 -11.9394,0.082 -6.47,10.6591 5.1793,10.0157 7.2081,9.7821 12.5628,-1.4467 z m -404.739441,-53.2477 c -1.69678,-6.8008 -15.60035,-23.3634 -22.88536,-27.2623 -10.48735,-5.6126 -16.8226,27.4378 -8.89589,46.4091 2.10401,5.0356 10.09901,15.7942 17.76665,23.9079 l 13.94117,14.7521 0.7695,-25.9664 c 0.42321,-14.2816 0.10999,-28.6097 -0.69607,-31.8404 z m 177.37376,50.2493 c 0.60318,-0.5202 0.41179,-1.6307 -0.42533,-2.4678 -0.83711,-0.8371 -4.88396,0.3511 -8.99299,2.6405 l -7.47098,4.1625 7.89629,-1.6947 c 4.34296,-0.9321 8.38982,-2.1203 8.99301,-2.6405 z m 138.404378,1.6863 c -0.8946,-1.4476 -3.4034,-2.6321 -5.5748,-2.6321 -2.1715,0 -3.2161,1.1845 -2.3215,2.6321 0.8947,1.4477 3.4035,2.6321 5.5749,2.6321 2.1715,0 3.2161,-1.1844 2.3214,-2.6321 z m 195.565592,-27.637 c 5.3976,-10.2939 6.923,-17.0017 7.0033,-30.7955 0.056,-9.6993 -1.1613,-18.899 -2.706,-20.4437 -4.3199,-4.3198 -21.08389,9.7333 -27.82619,23.3264 -6.5394,13.184 -10.409,50.2856 -5.2447,50.2856 1.6381,0 2.9783,2.0091 2.9783,4.4645 0,7.0363 17.67729,-11.355 25.79529,-26.8373 z m -196.881592,9.2786 c 9.4098,-4.8546 24.0834,-13.5255 32.608,-19.2687 16.3401997,-11.0087 75.436503,-67.3327 65.667003,-62.5865 -3.131,1.5212 -6.0921,3.6676 -6.5802,4.77 -1.38,3.1167 -33.5997033,30.3657 -48.458503,40.9825 -17.1228,12.2346 -47.1034,27.0498 -62.6719,30.97 -13.14226,3.3093 -13.48739,3.8371 -9.45055,14.4548 2.42341,6.3741 3.16252,6.7112 7.23827,3.3016 2.49657,-2.0885 12.23808,-7.7692 21.64788,-12.6237 z m -262.936908,1.7858 c -2.1184,-2.1184 -2.8832,-0.8027 -2.82482,4.8598 0.0703,6.8069 0.42849,7.1652 2.90485,2.9049 2.02449,-3.483 2.0018,-5.6829 -0.0799,-7.7647 z m 145.75736,2.9117 c -0.84694,-2.2071 -6.51188,-5.4858 -12.58876,-7.286 -6.07687,-1.8002 -22.87467,-9.3282 -37.32841,-16.7288 -21.24777,-10.8794 -30.63928,-17.7581 -49.04913,-35.9258 -12.52328,-12.3585 -24.0014,-24.829 -25.50695,-27.7123 -1.50555,-2.8832 -3.41319,-4.5664 -4.2392,-3.7404 -3.17615,3.1762 29.74029,43.6983 44.70579,55.0356 17.72281,13.4262 80.3519,45.126 83.48617,42.2567 1.1332,-1.0374 1.3674,-3.692 0.52049,-5.899 z m 68.48576,-2.1316 c 0.89469,-1.4477 0.37237,-2.6321 -1.16071,-2.6321 -1.53309,0 -2.78743,1.1844 -2.78743,2.6321 0,1.4476 0.52232,2.632 1.16069,2.632 0.6384,0 1.89274,-1.1844 2.78745,-2.632 z m -159.31589,-10.0754 c 5.1075,-3.7512 9.77263,-7.1571 10.36694,-7.5687 1.96049,-1.3578 -8.8308,-11.7788 -16.07821,-15.5266 -8.57132,-4.4324 -26.6025,-4.8025 -34.52722,-0.7088 -5.90115,3.0485 -17.32984,15.258 -17.49894,18.6945 -0.0521,1.0579 5.21398,4.6215 11.70234,7.919 15.44944,7.8516 32.97559,6.782 46.03509,-2.8094 z m 323.100581,3.3475 c 7.2304,-4.7375 4.8003,-10.1161 -8.7719,-19.416 -10.845,-7.431 -28.9445,-8.0035 -45.2508033,-1.4313 -14.7673997,5.9521 -13.65,10.7671 4.744803,20.4463 12.6708003,6.6672 16.2559003,7.4068 28.8902003,5.9601 7.9333,-0.9084 17.1078,-3.41 20.3877,-5.5591 z m -66.3971033,-1.1684 c -0.8947,-1.4477 -5.0402997,-2.6321 -9.2123997,-2.6321 -4.172,0 -8.3176,1.1844 -9.2123,2.6321 -0.9839,1.5919 2.6565,2.6321 9.2123,2.6321 6.5558,0 10.1962997,-1.0402 9.2123997,-2.6321 z M -160.18055,3084.5759 c -1.99267,-14.5381 -10.47098,-31.7547 -17.48655,-35.5093 -2.86989,-1.5359 -10.5649,-3.7915 -17.10005,-5.0124 -11.40742,-2.1312 -11.88206,-1.9672 -11.88206,4.1051 0,20.4547 24.06675,48.2318 41.8133,48.2596 5.93031,0.01 6.18951,-0.6501 4.65536,-11.843 z m 88.063618,-0.3492 c 9.57195,-9.277 15.49725,-23.1625 15.49725,-36.3164 0,-6.1482 -0.8014,-6.8686 -5.9222,-5.3241 -12.73593,3.8412 -22.9024,9.8249 -26.80011,15.7735 -5.68639,8.6785 -10.62015,28.438 -8.48804,33.9942 2.60055,6.777 14.07828,3.1491 25.7131,-8.1272 z m -127.093818,2.0985 c -4.58182,-5.5913 -6.36001,-6.463 -7.06664,-3.464 -0.51934,2.204 1.1876,5.5661 3.7932,7.4714 8.03802,5.8775 9.70315,3.8391 3.27344,-4.0074 z m -125.88281,-4.373 6.18183,-6.5802 h -9.61472 c -9.30049,0 -9.51673,0.2151 -6.61656,6.5802 1.64898,3.6192 3.19379,6.5803 3.43289,6.5803 0.23912,0 3.21657,-2.9611 6.61656,-6.5803 z m 271.065678,-1.974 c -0.033,-4.789 -0.5286,-5.1667 -2.5918,-1.9741 -3.2978,5.103 -3.2978,7.8963 0,7.8963 1.4477,0 2.614,-2.665 2.5918,-5.9222 z m 129.013003,1.974 c 2.7773,-3.3463 2.1755,-3.9481 -3.9481,-3.9481 -6.1236,0 -6.7254,0.6018 -3.9482,3.9481 1.8022,2.1715 3.5789,3.9482 3.9482,3.9482 0.3693,0 2.146,-1.7767 3.9481,-3.9482 z m -429.031741,-10.3983 c 0,-1.5465 -2.53713,-4.3964 -5.63807,-6.3329 -5.25249,-3.2803 -5.52495,-3.0986 -3.98408,2.6569 0.90969,3.3979 1.70782,8.5469 1.77363,11.4423 0.11807,5.1943 0.17094,5.1963 3.98409,0.1549 2.12544,-2.8101 3.86443,-6.3746 3.86443,-7.9211 z m 136.86903,-6.292 c 0,-25.8563 -12.36344,-55.9492 -24.61185,-59.9059 -7.74634,-2.5023 -10.06591,2.3769 -10.31227,21.6921 -0.26433,20.722 3.56227,30.0144 18.22343,44.2531 13.83252,13.434 16.70069,12.3968 16.70069,-6.0393 z m 326.11761,0.3223 c 0.1481,-1.8088 -1.4592,-2.5468 -3.6858,-1.6924 -4.0936,1.5709 -5.4251,11.7579 -1.9863,15.1968 1.8073,1.8073 5.0514,-5.9164 5.6721,-13.5044 z m -136.972402,0.3663 c 12.9555,-14.7182 19.3532997,-32.7711 18.2769997,-51.5731 l -0.8025997,-14.0201 -13.2102,13.1786 c -8.2543,8.2346 -14.4258,17.2361 -16.4506,23.9942 -3.7756,12.6019 -4.3486,40.474 -0.832,40.474 1.3246,0 7.1829,-5.4241 13.0184,-12.0536 z m -72.036098,1.6126 c 0.943318,-4.2948 4.590748,-12.0463 8.105428,-17.2255 7.21476,-10.6316 7.56599,-11.815 3.5065,-11.815 -1.58609,0 -6.24071,-2.3903 -10.3436,-5.3118 -4.102898,-2.9215 -7.869838,-4.4021 -8.371018,-3.2901 -0.50116,1.1119 -0.49413,11.7934 0.0158,23.7365 0.94217,22.0738 3.98272,28.0399 7.08704,13.9059 z m 129.733601,-0.088 c 3.0962,0 3.4691,-0.7902 1.3658,-2.8935 -3.3143,-3.3143 -13.9519,-0.7582 -13.9519,3.3525 0,1.505 1.8735,2.0174 4.1634,1.1387 2.2899,-0.8787 6.0801,-1.5977 8.4227,-1.5977 z m 60.0061,-4.227 c 18.366699,-7.625 18.158699,-16.8721 -0.566,-25.1549 -14.5346,-6.4293 -26.5998,-5.5416 -44.209,3.2529 -17.2294,8.6048 -15.9218,13.5402 5.742,21.672 18.0124,6.7611 23.2272,6.7919 39.033,0.23 z m -241.046391,-16.8297 c 0,-11.5812 -0.36947,-21.0567 -0.82106,-21.0567 -0.45159,0 -3.45709,3.5654 -6.67892,7.9232 -5.80241,7.8481 -5.81372,8.0475 -1.19324,21.0567 2.56556,7.2235 5.57105,13.1336 6.67892,13.1336 1.10785,0 2.0143,-9.4755 2.0143,-21.0568 z m -153.03702,12.0386 c 10.62451,-5.4941 10.01289,-10.3131 -2.60398,-20.5172 -13.77144,-11.1379 -26.92993,-12.2177 -43.92676,-3.6048 -16.5374,8.3802 -17.39227,13.7663 -3.76171,23.7008 8.78559,6.4032 11.61907,7.066 25.78187,6.0309 8.75134,-0.6396 19.78111,-3.164 24.51058,-5.6097 z m 47.04526,-8.1553 c -1.89347,-6.1695 -3.7268,-8.3977 -5.47284,-6.6516 -1.74605,1.746 -1.61035,4.8537 0.4051,9.2772 4.58851,10.0707 8.364,8.1146 5.06774,-2.6256 z m 255.3763477,-4.086 0.671,-9.0096 -3.9611,8.8565 c -4.8066997,10.7468 -4.8638997,11.6192 -0.6711,10.2428 1.8095,-0.594 3.5921,-5.1344 3.9612,-10.0897 z m -107.2710277,-48.524 c 3.61912,-3.8562 13.610018,-11.3485 22.201978,-16.6496 11.22976,-6.9286 19.92705,-15.4405 30.93505,-30.2757 8.4223,-11.3506 14.6164,-21.7649 13.7647,-23.143 -0.8517,-1.3781 -5.0309,2.7516 -9.287,9.1772 -15.2485,23.0211 -51.189858,48.6077 -64.591198,45.9825 -7.64959,-1.4985 -11.95182,-19.6736 -10.01439,-42.3066 1.60379,-18.7354 1.34825,-20.3992 -3.13394,-20.4048 -4.43073,-0.01 -4.80264,2.022 -4.03877,22.0185 1.12793,29.5261 -3.38945,41.1579 -15.98432,41.1579 -15.35345,0 -37.68044,-17.4006 -56.69461,-44.185 -4.40568,-6.2061 -8.69376,-10.178 -9.52907,-8.8264 -1.87051,3.0265 19.33867,32.3249 33.20888,45.8747 5.61424,5.4846 16.67372,14.1082 24.57657,19.1636 13.44662,8.6017 14.39973,9.9044 14.85022,20.2972 0.26476,6.108 0.26936,14.2957 0.01,18.1947 -0.59925,9.016 3.63772,11.7939 7.36526,4.829 4.13596,-7.7282 7.41748,-6.6105 12.5845,4.2862 l 4.56358,9.6241 1.31605,-23.9016 c 1.14939,-20.8748 2.14935,-24.7896 7.89629,-30.9129 z m -153.74499,4.57 c -1.72439,-20.8912 -10.09229,-40.8386 -16.60552,-39.5842 -7.77753,1.4978 -12.42049,14.9661 -11.91485,34.5626 0.38423,14.8916 1.90705,20.4643 8.96138,32.794 l 8.49848,14.8538 6.21205,-13.0532 c 5.1669,-10.8571 5.98262,-15.8327 4.84846,-29.573 z m 284.578121,23.758 c 7.1133,-15.7511 9.4396,-41.0944 5.2115,-56.7771 -2.6177,-9.7096 -6.7335,-7.9837 -15.7829,6.6187 -5.9083033,9.5336 -7.4696033,15.3122 -7.7661033,28.7424 -0.3802,17.2297 4.3401,36.5505 8.9298033,36.5505 1.415,0 5.6485,-6.8105 9.4077,-15.1345 z m -192.629681,6.0677 c 11.3371,-4.7369 19.79956,-19.9831 14.58153,-26.2704 -4.80053,-5.7843 -19.6942,-7.8995 -28.34302,-4.0254 -4.04418,1.8115 -11.30962,8.1135 -16.14547,14.0044 l -8.79246,10.7108 5.79395,4.6916 c 7.00765,5.6745 20.57495,6.041 32.90547,0.889 z m 117.070578,-3.0378 c 0,-7.3083 -8.4372,-22.3457 -14.9215,-26.5944 -7.59878,-4.9789 -28.36683,-3.3678 -34.403508,2.6689 -5.76231,5.7623 -2.63688,11.2193 11.595128,20.2449 14.50363,9.198 37.72988,11.4637 37.72988,3.6806 z m -155.386998,-20.138 c 0.13779,-2.9156 -9.86088,-2.4005 -11.71754,0.6036 -0.87621,1.4177 -0.20583,5.1698 1.48972,8.338 l 3.08283,5.7603 3.52587,-6.3639 c 1.93923,-3.5002 3.56784,-7.2523 3.61912,-8.338 z m 173.020898,2.2338 c -0.5054,-1.5161 -4.5795,-3.5052 -9.0535,-4.4203 l -8.1347,-1.6637 4.2017,8.8111 c 3.9791,8.3442 4.4589,8.5784 9.0536,4.4203 2.6684,-2.415 4.4383,-5.6313 3.9329,-7.1474 z m 97.225703,0.3982 c 13.6871,-10.2641 21.8441,-25.6395 23.8346,-44.9265 1.7196,-16.6611 -0.8703,-19.5758 -12.192,-13.7211 -17.9593,9.2871 -29.1146,30.6805 -29.1146,55.8353 0,13.7434 2.384,14.1272 17.472,2.8123 z m -366.793281,-9.9663 c -0.91149,-23.0596 -5.60718,-36.0366 -16.1988,-44.7671 -12.16359,-10.0263 -17.51266,-9.8972 -21.14068,0.5102 -7.05117,20.227 0.31917,38.3143 22.11533,54.2727 12.42245,9.0952 15.88941,6.8143 15.22415,-10.0158 z m 88.02904,-5.2608 c 6.98775,-1.4986 16.21911,-5.5268 20.51421,-8.9516 l 7.80923,-6.2269 -5.24388,-5.7944 c -16.70206,-18.4556 -50.11288,-17.5995 -58.81842,1.5071 -2.85263,6.2608 -1.33856,8.3483 12.76463,17.5984 8.02662,5.2646 7.37881,5.212 22.97423,1.8674 z m 200.289438,-5.1377 c 11.7660997,-8.5233 12.1225997,-12.7562 1.6522,-19.6167 -13.8087,-9.0478 -49.8814,-1.6087 -49.8814,10.2867 0,6.548 17.9588,17.0894 29.2161,17.1491 4.9344,0.026 12.4495,-3.0644 19.0131,-7.8191 z m -164.041508,-0.034 c 0.8947,-1.4476 -0.21983,-2.6321 -2.47674,-2.6321 -2.25691,0 -4.10348,1.1845 -4.10348,2.6321 0,1.4477 1.11453,2.6321 2.47675,2.6321 1.36221,0 3.20879,-1.1844 4.10347,-2.6321 z m 111.151308,-1.5902 c -0.87467,-0.8746 -3.14486,-0.9681 -5.04491,-0.2078 -2.0997,0.8402 -1.47601,1.4639 1.59024,1.5902 2.77467,0.1143 4.32927,-0.5078 3.45467,-1.3824 z m -73.078518,-19.2935 c 3.54346,-6.621 3.46765,-30.2929 -0.13857,-43.2808 -3.03416,-10.9276 -12.92571,-22.6947 -19.07737,-22.6947 -4.03347,0 -9.68547,18.145 -9.58665,30.7767 0.10777,13.768 15.60251,40.2899 23.53843,40.2899 1.39675,0 3.76563,-2.291 5.26421,-5.0911 z m 148.5244177,0.9277 c 2.0724,-5.4003 2.0144,-6.3734 -0.3764,-6.3246 -4.45430001,0.091 -9.1069,4.8323 -7.4201,7.5617 2.56869999,4.1562 5.9317,3.6225 7.7965,-1.2371 z M -259.29113,2968.772 c 0,-2.1715 -1.77667,-3.9481 -3.94815,-3.9481 -4.11021,0 -5.22199,3.1129 -2.19341,6.1415 3.02856,3.0286 6.14156,1.9168 6.14156,-2.1934 z m 162.531958,-10.1933 c 7.73428,-11.5499 8.55431,-14.6463 8.55431,-32.3003 0,-15.4571 -0.8761,-19.8621 -4.20434,-21.1392 -9.881638,-3.792 -24.748708,26.546 -24.748708,50.5025 0,21.8887 7.03004,22.9009 20.398738,2.937 z m 17.10863,-0.051 c 4.8785,-3.7033 6.03475,-13.6952 2.27191,-19.6331 -1.59308,-2.5139 -3.51002,0.1309 -6.53995,9.0232 -2.35746,6.9188 -4.28627,12.9608 -4.28627,13.4267 0,1.8698 4.20424,0.4854 8.55431,-2.8168 z m -150.534848,-12.2371 c 4.25899,-3.0327 7.7436,-5.9794 7.7436,-6.5482 0,-2.8662 -13.07961,-12.9747 -22.37282,-17.2908 -15.03807,-6.9842 -23.49653,-6.2909 -33.51769,2.7474 -8.26191,7.4515 -8.44248,8.0315 -4.6477,14.9299 2.17148,3.9475 9.10288,9.8997 15.40311,13.2272 10.62383,5.6109 12.11504,5.7741 20.55144,2.2492 5.00305,-2.0904 12.58106,-6.282 16.84006,-9.3147 z m 53.39391,5.916 c -1.63608,-6.2564 -6.16886,-8.0093 -6.16886,-2.3856 0,3.3298 5.49939,10.381 6.95841,8.922 0.40099,-0.401 0.0458,-3.3424 -0.78955,-6.5364 z m 137.280398,4.7211 c -0.8947,-1.4477 -3.2636,-2.6321 -5.2642,-2.6321 -2.0006,0 -4.3695,1.1844 -5.2642,2.6321 -0.9262,1.4987 1.3405,2.6321 5.2642,2.6321 3.9237,0 6.1905,-1.1334 5.2642,-2.6321 z m 45.1943997,-6.3879 c 15.7551033,-7.3356 22.0637033,-15.683 14.7193033,-19.4761 -11.0868003,-5.7259 -25.3706033,-8.7533 -33.820503,-7.1681 -8.9096,1.6714 -27.4092,15.3545 -27.4092,20.273 0,3.1592 20.656,12.633 27.637,12.6756 2.8953,0.018 11.3882997,-2.8193 18.8733997,-6.3044 z m -220.9416777,2.1656 c -0.87461,-0.8746 -3.14479,-0.9682 -5.04484,-0.2078 -2.09972,0.8402 -1.47603,1.4639 1.59021,1.5902 2.77468,0.1143 4.32926,-0.5078 3.45463,-1.3824 z m 32.9589,-28.8666 c 5.36985,-21.2475 3.21353,-40.2998 -6.30399,-55.6994 l -5.71488,-9.2469 -3.30852,6.3145 c -1.81968,3.473 -5.26327,13.8582 -7.65245,23.0783 -3.59066,13.8569 -3.8136,18.9745 -1.28566,29.5121 3.32229,13.8489 11.86183,26.7944 16.6544,25.2474 1.65114,-0.533 5.07613,-9.1757 7.6111,-19.206 z m 125.981278,8.8366 c 1.4554,-2.7194 3.6995,-11.4158 4.9868,-19.3252 2.6797,-16.465 -1.1591,-33.2537 -10.2445,-44.804 l -5.5539,-7.0606 -4.54002,10.2136 c -6.43417,14.475 -6.37431,51.7757 0.10225,63.7 3.96227,7.295 5.39697,8.2014 8.67527,5.4806 2.1604,-1.7929 5.1188,-5.4849 6.5742,-8.2044 z m -162.168008,-40.9938 c -1.40319,-11.3056 -3.63158,-15.9215 -11.86469,-24.5763 -12.79843,-13.4539 -18.77732,-12.8462 -21.75511,2.2115 -4.11669,20.8167 6.41262,42.5614 24.98604,51.6001 l 8.62631,4.198 0.86754,-9.7566 c 0.47715,-5.3661 0.09,-16.0206 -0.86009,-23.6767 z m 189.541408,24.9329 c 12.8467,-8.7296 19.4817997,-18.1908 21.9237997,-31.2619 2.6824,-14.3584 0.8527,-31.0767 -3.4010997,-31.0767 -5.1614,0 -21.8196,13.8555 -25.316,21.0568 -3.4967,7.2018 -6.8645,47.3777 -3.9715,47.3777 0.9866,0 5.8308,-2.7432 10.7648,-6.0959 z m -95.980798,-7.8063 c 11.40214,-8.9679 13.83655,-63.573 3.45419,-77.479 -7.45887,-9.9904 -11.86777,-9.2044 -17.98331,3.206 -6.18745,12.5562 -6.96054,42.3843 -1.65429,63.8283 3.55629,14.3719 7.74937,17.0781 16.18341,10.4447 z" id="path2"/></g></svg>