<svg version="1.1" id="svg1" width="5078.9116" height="5263.5273" viewBox="2204.228757430576 -133.77378999999962 982.341642569424 825.4187000000001" sodipodi:docname="trees2.svg" inkscape:version="1.4.2 (f4327f4, 2025-05-13)" xmlns:inkscape="http://www.inkscape.org/namespaces/inkscape" xmlns:sodipodi="http://sodipodi.sourceforge.net/DTD/sodipodi-0.dtd" xmlns="http://www.w3.org/2000/svg" xmlns:svg="http://www.w3.org/2000/svg"><defs id="defs1">
    <inkscape:path-effect effect="fill_between_many" method="originald" linkedpaths="#path1,0,1|" id="path-effect50" xmlns:inkscape="http://www.inkscape.org/namespaces/inkscape"/>
    <inkscape:path-effect effect="fill_between_many" method="originald" linkedpaths="#path1,0,1|#path51,0,1|#path2,0,1|#path3,0,1|#path4,0,1|#path5,0,1|#path6,0,1|#path7,0,1|#path8,0,1|#path9,0,1|#path10,0,1|#path11,0,1|#path12,0,1|#path13,0,1|#path14,0,1|#path15,0,1|#path16,0,1|#path17,0,1|#path18,0,1|#path19,0,1|#path20,0,1|#path21,0,1|#path22,0,1|#path23,0,1|#path24,0,1|#path25,0,1|" id="path-effect51" xmlns:inkscape="http://www.inkscape.org/namespaces/inkscape"/>
    <inkscape:path-effect effect="fill_between_many" method="originald" linkedpaths="#path2,0,1|" id="path-effect52" xmlns:inkscape="http://www.inkscape.org/namespaces/inkscape"/>
    <inkscape:path-effect effect="fill_between_many" method="originald" linkedpaths="#path4,0,1|" id="path-effect53" xmlns:inkscape="http://www.inkscape.org/namespaces/inkscape"/>
    <inkscape:path-effect effect="fill_between_many" method="originald" linkedpaths="#path5,0,1|" id="path-effect54" xmlns:inkscape="http://www.inkscape.org/namespaces/inkscape"/>
    <inkscape:path-effect effect="fill_between_many" method="originald" linkedpaths="#path6,0,1|" id="path-effect55" xmlns:inkscape="http://www.inkscape.org/namespaces/inkscape"/>
    <inkscape:path-effect effect="fill_between_many" method="originald" linkedpaths="#path7,0,1|" id="path-effect56" xmlns:inkscape="http://www.inkscape.org/namespaces/inkscape"/>
    <inkscape:path-effect effect="fill_between_many" method="originald" linkedpaths="#path8,0,1|" id="path-effect57" xmlns:inkscape="http://www.inkscape.org/namespaces/inkscape"/>
    <inkscape:path-effect effect="fill_between_many" method="originald" linkedpaths="#path9,0,1|" id="path-effect58" xmlns:inkscape="http://www.inkscape.org/namespaces/inkscape"/>
    <inkscape:path-effect effect="fill_between_many" method="originald" linkedpaths="#path10,0,1|" id="path-effect59" xmlns:inkscape="http://www.inkscape.org/namespaces/inkscape"/>
    <inkscape:path-effect effect="fill_between_many" method="originald" linkedpaths="#path11,0,1|" id="path-effect60" xmlns:inkscape="http://www.inkscape.org/namespaces/inkscape"/>
    <inkscape:path-effect effect="fill_between_many" method="originald" linkedpaths="#path12,0,1|" id="path-effect61" xmlns:inkscape="http://www.inkscape.org/namespaces/inkscape"/>
    <inkscape:path-effect effect="fill_between_many" method="originald" linkedpaths="#path13,0,1|" id="path-effect62" xmlns:inkscape="http://www.inkscape.org/namespaces/inkscape"/>
    <inkscape:path-effect effect="fill_between_many" method="originald" linkedpaths="#path14,0,1|" id="path-effect63" xmlns:inkscape="http://www.inkscape.org/namespaces/inkscape"/>
    <inkscape:path-effect effect="fill_between_many" method="originald" linkedpaths="#path15,0,1|" id="path-effect64" xmlns:inkscape="http://www.inkscape.org/namespaces/inkscape"/>
    <inkscape:path-effect effect="fill_between_many" method="originald" linkedpaths="#path16,0,1|" id="path-effect65" xmlns:inkscape="http://www.inkscape.org/namespaces/inkscape"/>
    <inkscape:path-effect effect="fill_between_many" method="originald" linkedpaths="#path17,0,1|" id="path-effect66" xmlns:inkscape="http://www.inkscape.org/namespaces/inkscape"/>
    <inkscape:path-effect effect="fill_between_many" method="originald" linkedpaths="#path18,0,1|" id="path-effect67" xmlns:inkscape="http://www.inkscape.org/namespaces/inkscape"/>
    <inkscape:path-effect effect="fill_between_many" method="originald" linkedpaths="#path19,0,1|" id="path-effect68" xmlns:inkscape="http://www.inkscape.org/namespaces/inkscape"/>
    <inkscape:path-effect effect="fill_between_many" method="originald" linkedpaths="#path20,0,1|" id="path-effect69" xmlns:inkscape="http://www.inkscape.org/namespaces/inkscape"/>
    <inkscape:path-effect effect="fill_between_many" method="originald" linkedpaths="#path21,0,1|" id="path-effect70" xmlns:inkscape="http://www.inkscape.org/namespaces/inkscape"/>
    <inkscape:path-effect effect="fill_between_many" method="originald" linkedpaths="#path22,0,1|" id="path-effect71" xmlns:inkscape="http://www.inkscape.org/namespaces/inkscape"/>
    <inkscape:path-effect effect="fill_between_many" method="originald" linkedpaths="#path23,0,1|" id="path-effect72" xmlns:inkscape="http://www.inkscape.org/namespaces/inkscape"/>
    <inkscape:path-effect effect="fill_between_many" method="originald" linkedpaths="#path24,0,1|" id="path-effect73" xmlns:inkscape="http://www.inkscape.org/namespaces/inkscape"/>
    <inkscape:path-effect effect="fill_between_many" method="originald" linkedpaths="#path25,0,1|" id="path-effect74" xmlns:inkscape="http://www.inkscape.org/namespaces/inkscape"/>
  </defs><g><path xmlns:inkscape="http://www.inkscape.org/namespaces/inkscape" inkscape:original-d="M 0,0" inkscape:path-effect="#path-effect73" d="m 2696.7688,-132.77299 c -12.4959,0 -25.773,4.9424 -29.0621,10.8198 -1.7579,3.141 -5.9196,4.2344 -17.5189,4.6031 -21.9255,0.6969 -33.6865,6.2943 -40.5817,19.310107 -3.6897,6.9647 -6.7627,10.1436 -8.9848,9.2932 -1.8575,-0.7105 -9.4359,-1.9267 -16.8426,-2.7008 -24.9649,-2.6095 -46.6976,7.9949 -63.2139,30.8455 -4.736,6.5525 -4.9847,6.6078 -17.6136,3.8993 -18.2711,-3.9185 -35.7383,-1.8055 -41.2383,4.9867 -3.8063,4.7006 -5.189,5.0582 -10.3888,2.6891 -9.0655,-4.1305 -16.6676,-3.3305 -29.3348,3.0885 -12.7699,6.4709 -18.1964,15.5678 -16.4353,27.5675 0.9658,6.5804 0.1559,7.6515 -8.8307,11.6262008 -6.7288,2.9766 -10.8874,6.77039994 -12.9907,11.848 -2.7772,6.7048992 -4.1256,7.4702992 -13.1726,7.4702992 -19.922,0 -37.6308,10.4388 -40.5938,23.929 -0.9504,4.3275 -3.8758,7.5899 -8.5418,9.5226 -10.9632,4.5413 -23.1345,18.1949 -27.7177,31.0988 -2.2847,6.4328 -5.5415,11.6937 -7.2407,11.6937 -1.6993,0 -3.6729,1.5139 -4.3817,3.3615 -0.7089,1.8473 -3.7964,3.9871 -6.8651,4.7573 -8.0925,2.031 -19.6716,17.917893 -22.9049,31.426993 -1.538,6.4251 -3.1556,13.0254 -3.5909,14.6634 -0.4811,1.8111 -4.8964,2.978 -11.2665,2.978 -12.8725,0 -21.8451,6.4212 -28.0418,20.0654 -11.6615,25.6761 2.3535,56.1787 25.8114,56.1787 7.1174,0 7.1259,0.02 4.6664,9.2338 -3.1944,11.9684 0.4422,21.0334 11.4683,28.5719 5.7805,3.9521 10.4637,5.3144 15.6602,4.5517 8.1245,-1.1924 8.3318,-0.8984 10.4242,14.8336 1.2618,9.488 0.8178,11.0035 -3.8478,13.1056 -7.8042,3.5159 -16.2852,21.3938 -16.281,34.3216 0,16.2912 6.0937,25.9873 21.4416,34.1478 12.7519,6.7799 22.1969,7.6957 33.3568,3.2388 2.3382,-0.9338 5.4911,1.3926 9.1154,6.7266 5.6636,8.3357 19.69,15.676 29.9559,15.676 3.0893,0 6.954,1.6092 8.5853,3.5749 1.6315,1.9658 3.9079,3.575 5.058,3.575 1.15,0 4.3283,2.2364 7.0629,4.9708 3.417,3.4171 6.7171,4.5342 10.5548,3.571 4.4819,-1.1249 5.7355,-0.3551 6.3469,3.8993 1.2428,8.6448 17.2879,16.3198 33.0286,15.7984 19.833,-0.6568 22.6306,1.7828 21.778,18.986 -1.2609,25.4415 6.581,35.1637 33.768,41.8591 10.5604,2.6008 27.3672,-0.9144 34.9703,-7.3119 5.8098,-4.8886 7.6924,-5.363 12.0456,-3.0333 3.0578,1.6366 12.18,2.4101 22.3908,1.8944 14.2649,-0.7204 19.2948,-2.1544 29.2205,-8.3244 l 11.9901,-7.4545 1.4791,9.2537 c 0.8137,5.0882 0.3701,19.1766 -0.9847,31.3084 -3.0152,26.9999 -10.2642,43.1011 -27.1799,60.3705 -11.0462,11.2774 -13.4775,12.5909 -27.7888,15.0195 -8.6254,1.4639 -22.0723,2.6616 -29.8845,2.6616 -15.0759,0 -50.294,9.0581 -65.6302,16.8819 -9.555,4.8747 -13.8924,10.7161 -13.8924,18.7013 0,6.3872 4.1556,6.2101 18.2701,-0.7791 6.3326,-3.1358 19.0188,-6.9735 28.1921,-8.5301 14.9869,-2.5431 20.3031,-2.2063 52.4179,3.3139 39.0504,6.7126 51.4523,7.4768 58.6543,3.6225 2.5996,-1.3914 7.6208,-2.1527 11.1598,-1.6925 5.5263,0.7184 4.7114,1.3819 -5.7697,4.694 -18.8927,5.9703 -26.6041,10.7819 -34.306,21.414 -5.5711,7.6908 -7.1024,12.309 -7.1024,21.4337 0,14.122 4.8161,17.4738 11.9942,8.3483 8.4253,-10.7111 20.3832,-16.2725 39.9056,-18.5667 10.1156,-1.1889 20.9486,-2.747 24.0716,-3.4603 l 5.6747,-1.2973 -6.2718,7.4545 c -7.085,8.4199 -9.3853,15.4049 -8.2454,25.0285 0.8868,7.4871 8.9643,13.9604 10.8672,8.708 2.9227,-8.0682 13.015,-15.4611 31.5218,-23.0948 11.0899,-4.5741 20.8668,-8.3164 21.7265,-8.3164 0.8597,0 2.1213,4.1614 2.8038,9.2498 0.6826,5.0882 4.1416,14.2044 7.6878,20.2553 3.5459,6.0509 7.9973,11.0016 9.8943,11.0016 4.3625,0 17.5403,-27.5122 17.5423,-36.6273 0,-5.4974 0.6382,-6.3185 3.2388,-4.1603 1.7808,1.4781 9.1136,4.7116 16.2929,7.1816 19.9881,6.8768 27.7031,11.5825 31.7196,19.3498 4.449,8.6032 9.8759,9.1411 13.4338,1.3327 4.4923,-9.8597 0.4242,-22.1685 -11.156,-33.7484 -5.7816,-5.7816 -9.1732,-10.5153 -7.5334,-10.5153 1.64,0 4.6747,1.9784 6.7426,4.3937 2.6579,3.1041 8.5762,4.8456 20.1881,5.9477 24.4726,2.3222 33.6113,5.6523 43.9828,16.0238 10.2908,10.2909 12.9082,11.2642 15.0787,5.6077 6.9422,-18.0913 -7.8188,-41.2731 -31.7393,-49.8475 -17.0357,-6.1064 -21.8921,-8.6967 -13.2794,-7.0866 20.873,3.9025 30.8419,3.6759 60.8449,-1.3643 17.6448,-2.964 37.9773,-5.2078 45.1849,-4.9867 16.5914,0.509 37.6946,5.8422 48.0125,12.1327 10.3329,6.2997 13.94,6.159 13.94,-0.5419 0,-18.2287 -33.323,-32.1776 -89.8874,-37.6237 -33.1766,-3.1945 -43.5802,-8.1769 -57.1081,-27.3658 -13.359,-18.9492 -17.2352,-32.5538 -18.974,-66.5909 l -1.4593,-28.5916 6.873,6.4261 c 3.7798,3.5344 10.8591,8.0925 15.7315,10.1278 10.2124,4.2659 37.9637,4.9482 45.1335,1.1111 3.8824,-2.0779 5.8438,-1.6378 9.9694,2.2264 11.6581,10.9195 29.7779,12.793 48.3012,4.9947 17.0542,-7.18 21.1689,-13.9971 21.1689,-35.0969 0,-20.2152 1.8832,-22.4236 17.3565,-20.3027 12.4945,1.7125 31.6834,-6.2155 36.4097,-15.0473 1.9063,-3.5617 5.1649,-5.6668 8.7793,-5.6668 3.1618,0 10.3276,-3.7535 15.925,-8.3401 5.5976,-4.5869 12.5157,-8.3403 15.3714,-8.3403 8.5558,0 20.3604,-6.0402 26.8278,-13.7264 5.8475,-6.9493 6.6679,-7.1805 21.335,-6.0821 13.963,1.0458 16.2139,0.5206 26.6223,-6.185 12.8733,-8.2935 16.0317,-14.4842 16.0317,-31.4229 0,-14.7124 -4.1872,-24.9704 -14.1534,-34.6737 -6.5156,-6.3438 -7.3123,-8.2598 -5.1212,-12.3542 1.4263,-2.6648 2.5941,-7.4592 2.5941,-10.6536 0,-5.2506 0.9379,-5.7833 9.7482,-5.5522 8.4158,0.2207 10.8919,-0.9964 18.1475,-8.9136 7.7341,-8.4393 8.3104,-10.0931 7.2804,-20.8129 -1.0049,-10.4572 -0.6263,-11.6463 3.6856,-11.6463 2.6411,0 9.3412,-2.6607 14.889,-5.912 11.6035,-6.8001 15.3477,-14.9019 15.3477,-33.1987 0,-22.1203 -12.4299,-37.068 -32.7717,-39.4112 l -11.2585,-1.2971 -1.57,-11.0056 c -2.0748,-14.5537 -12.0272,-29.0958 -26.1951,-38.276393 -6.333,-4.1037 -12.1402,-9.7062 -12.9037,-12.4489 -2.7745,-9.966 -11.4309,-25.2382 -14.3038,-25.2382 -1.6194,0 -3.5593,-1.6111 -4.3143,-3.5787 -0.755,-1.9679 -5.1145,-5.3622 -9.6849,-7.5416 -5.5432,-2.6433 -8.7822,-6.1131 -9.7281,-10.4201 -2.7998,-12.7476 -21.1946,-23.7199 -39.8107,-23.7474 -8.7839,-0.02 -10.7562,-0.9863 -14.1772,-6.9994992 -2.1855,-3.8416 -8.1454,-9.1124 -13.2439,-11.7134 -8.5788,-4.3766008 -9.1957,-5.3671008 -8.2731,-13.2715008 1.3341,-11.4275 -3.9776,-18.9705 -18.5547,-26.3573 -12.2661,-6.2156 -22.5261,-7.6888 -25.0562,-3.5947 -1.9571,3.1662 -10.7208,3.066 -10.7208,-0.1236 0,-7.55 -30.5454,-12.0046 -47.6685,-6.9521 -7.6565,2.2592 -8.7062,1.935 -13.0897,-4.0454 -6.7685,-9.2351 -20.3631,-21.9248 -27.6898,-25.8473 -8.559,-4.582 -34.5085,-6.83 -46.6008,-4.0375 -9.6192,2.2213 -10.0577,2.0632 -12.8207,-4.6071 -6.1955,-14.957207 -29.4681,-25.573507 -50.0136,-22.817807 -7.3402,0.9844 -9.51,0.395 -10.5428,-2.8592 -1.8984,-5.9813 -16.4721,-12.1049 -28.809,-12.1049 z" id="path74"/><path id="path24" style="fill:#1a1a1a;stroke-width:7.44597" d="m 2696.7688,-132.77299 c -12.4959,0 -25.773,4.9424 -29.0621,10.8198 -1.7579,3.141 -5.9196,4.2344 -17.5189,4.6031 -21.9255,0.6969 -33.6865,6.2943 -40.5817,19.310107 -3.6897,6.9647 -6.7627,10.1436 -8.9848,9.2932 -1.8575,-0.7105 -9.4359,-1.9267 -16.8426,-2.7008 -24.9649,-2.6095 -46.6976,7.9949 -63.2139,30.8455 -4.736,6.5525 -4.9847,6.6078 -17.6136,3.8993 -18.2711,-3.9185 -35.7383,-1.8055 -41.2383,4.9867 -3.8063,4.7006 -5.189,5.0582 -10.3888,2.6891 -9.0655,-4.1305 -16.6676,-3.3305 -29.3348,3.0885 -12.7699,6.4709 -18.1964,15.5678 -16.4353,27.5675 0.9658,6.5804 0.1559,7.6515 -8.8307,11.6262008 -6.7288,2.9766 -10.8874,6.77039994 -12.9907,11.848 -2.7772,6.7048992 -4.1256,7.4702992 -13.1726,7.4702992 -19.922,0 -37.6308,10.4388 -40.5938,23.929 -0.9504,4.3275 -3.8758,7.5899 -8.5418,9.5226 -10.9632,4.5413 -23.1345,18.1949 -27.7177,31.0988 -2.2847,6.4328 -5.5415,11.6937 -7.2407,11.6937 -1.6993,0 -3.6729,1.5139 -4.3817,3.3615 -0.7089,1.8473 -3.7964,3.9871 -6.8651,4.7573 -8.0925,2.031 -19.6716,17.917893 -22.9049,31.426993 -1.538,6.4251 -3.1556,13.0254 -3.5909,14.6634 -0.4811,1.8111 -4.8964,2.978 -11.2665,2.978 -12.8725,0 -21.8451,6.4212 -28.0418,20.0654 -11.6615,25.6761 2.3535,56.1787 25.8114,56.1787 7.1174,0 7.1259,0.02 4.6664,9.2338 -3.1944,11.9684 0.4422,21.0334 11.4683,28.5719 5.7805,3.9521 10.4637,5.3144 15.6602,4.5517 8.1245,-1.1924 8.3318,-0.8984 10.4242,14.8336 1.2618,9.488 0.8178,11.0035 -3.8478,13.1056 -7.8042,3.5159 -16.2852,21.3938 -16.281,34.3216 0,16.2912 6.0937,25.9873 21.4416,34.1478 12.7519,6.7799 22.1969,7.6957 33.3568,3.2388 2.3382,-0.9338 5.4911,1.3926 9.1154,6.7266 5.6636,8.3357 19.69,15.676 29.9559,15.676 3.0893,0 6.954,1.6092 8.5853,3.5749 1.6315,1.9658 3.9079,3.575 5.058,3.575 1.15,0 4.3283,2.2364 7.0629,4.9708 3.417,3.4171 6.7171,4.5342 10.5548,3.571 4.4819,-1.1249 5.7355,-0.3551 6.3469,3.8993 1.2428,8.6448 17.2879,16.3198 33.0286,15.7984 19.833,-0.6568 22.6306,1.7828 21.778,18.986 -1.2609,25.4415 6.581,35.1637 33.768,41.8591 10.5604,2.6008 27.3672,-0.9144 34.9703,-7.3119 5.8098,-4.8886 7.6924,-5.363 12.0456,-3.0333 3.0578,1.6366 12.18,2.4101 22.3908,1.8944 14.2649,-0.7204 19.2948,-2.1544 29.2205,-8.3244 l 11.9901,-7.4545 1.4791,9.2537 c 0.8137,5.0882 0.3701,19.1766 -0.9847,31.3084 -3.0152,26.9999 -10.2642,43.1011 -27.1799,60.3705 -11.0462,11.2774 -13.4775,12.5909 -27.7888,15.0195 -8.6254,1.4639 -22.0723,2.6616 -29.8845,2.6616 -15.0759,0 -50.294,9.0581 -65.6302,16.8819 -9.555,4.8747 -13.8924,10.7161 -13.8924,18.7013 0,6.3872 4.1556,6.2101 18.2701,-0.7791 6.3326,-3.1358 19.0188,-6.9735 28.1921,-8.5301 14.9869,-2.5431 20.3031,-2.2063 52.4179,3.3139 39.0504,6.7126 51.4523,7.4768 58.6543,3.6225 2.5996,-1.3914 7.6208,-2.1527 11.1598,-1.6925 5.5263,0.7184 4.7114,1.3819 -5.7697,4.694 -18.8927,5.9703 -26.6041,10.7819 -34.306,21.414 -5.5711,7.6908 -7.1024,12.309 -7.1024,21.4337 0,14.122 4.8161,17.4738 11.9942,8.3483 8.4253,-10.7111 20.3832,-16.2725 39.9056,-18.5667 10.1156,-1.1889 20.9486,-2.747 24.0716,-3.4603 l 5.6747,-1.2973 -6.2718,7.4545 c -7.085,8.4199 -9.3853,15.4049 -8.2454,25.0285 0.8868,7.4871 8.9643,13.9604 10.8672,8.708 2.9227,-8.0682 13.015,-15.4611 31.5218,-23.0948 11.0899,-4.5741 20.8668,-8.3164 21.7265,-8.3164 0.8597,0 2.1213,4.1614 2.8038,9.2498 0.6826,5.0882 4.1416,14.2044 7.6878,20.2553 3.5459,6.0509 7.9973,11.0016 9.8943,11.0016 4.3625,0 17.5403,-27.5122 17.5423,-36.6273 0,-5.4974 0.6382,-6.3185 3.2388,-4.1603 1.7808,1.4781 9.1136,4.7116 16.2929,7.1816 19.9881,6.8768 27.7031,11.5825 31.7196,19.3498 4.449,8.6032 9.8759,9.1411 13.4338,1.3327 4.4923,-9.8597 0.4242,-22.1685 -11.156,-33.7484 -5.7816,-5.7816 -9.1732,-10.5153 -7.5334,-10.5153 1.64,0 4.6747,1.9784 6.7426,4.3937 2.6579,3.1041 8.5762,4.8456 20.1881,5.9477 24.4726,2.3222 33.6113,5.6523 43.9828,16.0238 10.2908,10.2909 12.9082,11.2642 15.0787,5.6077 6.9422,-18.0913 -7.8188,-41.2731 -31.7393,-49.8475 -17.0357,-6.1064 -21.8921,-8.6967 -13.2794,-7.0866 20.873,3.9025 30.8419,3.6759 60.8449,-1.3643 17.6448,-2.964 37.9773,-5.2078 45.1849,-4.9867 16.5914,0.509 37.6946,5.8422 48.0125,12.1327 10.3329,6.2997 13.94,6.159 13.94,-0.5419 0,-18.2287 -33.323,-32.1776 -89.8874,-37.6237 -33.1766,-3.1945 -43.5802,-8.1769 -57.1081,-27.3658 -13.359,-18.9492 -17.2352,-32.5538 -18.974,-66.5909 l -1.4593,-28.5916 6.873,6.4261 c 3.7798,3.5344 10.8591,8.0925 15.7315,10.1278 10.2124,4.2659 37.9637,4.9482 45.1335,1.1111 3.8824,-2.0779 5.8438,-1.6378 9.9694,2.2264 11.6581,10.9195 29.7779,12.793 48.3012,4.9947 17.0542,-7.18 21.1689,-13.9971 21.1689,-35.0969 0,-20.2152 1.8832,-22.4236 17.3565,-20.3027 12.4945,1.7125 31.6834,-6.2155 36.4097,-15.0473 1.9063,-3.5617 5.1649,-5.6668 8.7793,-5.6668 3.1618,0 10.3276,-3.7535 15.925,-8.3401 5.5976,-4.5869 12.5157,-8.3403 15.3714,-8.3403 8.5558,0 20.3604,-6.0402 26.8278,-13.7264 5.8475,-6.9493 6.6679,-7.1805 21.335,-6.0821 13.963,1.0458 16.2139,0.5206 26.6223,-6.185 12.8733,-8.2935 16.0317,-14.4842 16.0317,-31.4229 0,-14.7124 -4.1872,-24.9704 -14.1534,-34.6737 -6.5156,-6.3438 -7.3123,-8.2598 -5.1212,-12.3542 1.4263,-2.6648 2.5941,-7.4592 2.5941,-10.6536 0,-5.2506 0.9379,-5.7833 9.7482,-5.5522 8.4158,0.2207 10.8919,-0.9964 18.1475,-8.9136 7.7341,-8.4393 8.3104,-10.0931 7.2804,-20.8129 -1.0049,-10.4572 -0.6263,-11.6463 3.6856,-11.6463 2.6411,0 9.3412,-2.6607 14.889,-5.912 11.6035,-6.8001 15.3477,-14.9019 15.3477,-33.1987 0,-22.1203 -12.4299,-37.068 -32.7717,-39.4112 l -11.2585,-1.2971 -1.57,-11.0056 c -2.0748,-14.5537 -12.0272,-29.0958 -26.1951,-38.276393 -6.333,-4.1037 -12.1402,-9.7062 -12.9037,-12.4489 -2.7745,-9.966 -11.4309,-25.2382 -14.3038,-25.2382 -1.6194,0 -3.5593,-1.6111 -4.3143,-3.5787 -0.755,-1.9679 -5.1145,-5.3622 -9.6849,-7.5416 -5.5432,-2.6433 -8.7822,-6.1131 -9.7281,-10.4201 -2.7998,-12.7476 -21.1946,-23.7199 -39.8107,-23.7474 -8.7839,-0.02 -10.7562,-0.9863 -14.1772,-6.9994992 -2.1855,-3.8416 -8.1454,-9.1124 -13.2439,-11.7134 -8.5788,-4.3766008 -9.1957,-5.3671008 -8.2731,-13.2715008 1.3341,-11.4275 -3.9776,-18.9705 -18.5547,-26.3573 -12.2661,-6.2156 -22.5261,-7.6888 -25.0562,-3.5947 -1.9571,3.1662 -10.7208,3.066 -10.7208,-0.1236 0,-7.55 -30.5454,-12.0046 -47.6685,-6.9521 -7.6565,2.2592 -8.7062,1.935 -13.0897,-4.0454 -6.7685,-9.2351 -20.3631,-21.9248 -27.6898,-25.8473 -8.559,-4.582 -34.5085,-6.83 -46.6008,-4.0375 -9.6192,2.2213 -10.0577,2.0632 -12.8207,-4.6071 -6.1955,-14.957207 -29.4681,-25.573507 -50.0136,-22.817807 -7.3402,0.9844 -9.51,0.395 -10.5428,-2.8592 -1.8984,-5.9813 -16.4721,-12.1049 -28.809,-12.1049 z m 1.0004,7.051 c 5.1767,0.2375 10.4371,1.5673 14.9404,4.2274 5.8499,3.4557 6.749,5.2004 5.5364,10.7208 -1.738,7.9139 1.7893,8.5633 14.2483,2.6221 7.1818,-3.4249 10.11,-3.5784 21.2045,-1.0956 16.8084,3.7616 27.8125,15.603307 27.8125,29.928307 0,7.2763 3.0892,7.79 9.3329,1.5463 6.8331,-6.8333 27.9876,-8.807 42.31,-3.9468 19.8821,6.747 37.5117,26.7747 34.9306,39.6802 -1.7834,8.9168 1.6394,8.9194 10.5469,0.02 12.1345,-12.1345 37.5087,-12.7996 48.3407,-1.2693 6.4557,6.8716 8.9398,7.1182 19.7374,1.9692 7.8586,-3.7475 8.4284,-3.6682 19.1953,2.6417 13.5132,7.9194 15.7967,11.8128 14.1455,24.123 -1.2481,9.3049008 -1.049,9.6262008 8.2611,13.2833008 5.247,2.06099994 11.4087,6.5974 13.6907,10.0802 3.9886,6.0867992 3.9596,6.5348992 -0.6722,11.6027992 -5.925,6.4828 -12.524,19.2445 -12.524,24.2177 0,6.2474 6.4077,4.0865 9.4158,-3.1754 1.5646,-3.7776 6.0571,-9.9449 9.9812,-13.7026 5.8975,-5.6474 9.1065,-6.8048 18.5114,-6.6675 14.0744,0.2055 24.9454,7.3194 29.2085,19.1085 2.0017,5.5356 5.6734,9.657 10.7486,12.0654 14.0677,6.6756 28.9331,25.6426 26.029,33.2104 -0.709,1.8476 -3.8589,3.3577 -6.9997,3.3577 -3.1406,0 -8.5985,2.273 -12.1286,5.0499 -6.4174,5.0479 -6.4186,5.0467 -11.6382,0.2966 -2.8715,-2.6131 -7.562,-5.9564 -10.4244,-7.4306 -6.7815,-3.4927 -25.8442,-3.442 -32.4789,0.087 -7.5954,4.0397 -18.3097,14.614993 -18.3097,18.072193 0,4.8869 5.9254,3.4042 11.3576,-2.8433 5.8059,-6.677393 22.2764,-11.891693 30.8022,-9.751993 3.1796,0.7982 9.0465,5.1667 13.0342,9.708593 8.621,9.8186 11.2855,10.157 18.6024,2.3688 7.6375,-8.129993 19.7319,-11.908893 26.5034,-8.284893 8.2664,4.424093 26.0186,21.631393 29.7384,28.824893 1.8652,3.6066 3.4105,9.5592 3.4247,13.228 0.02,3.6689 0.6793,9.0741 1.4673,12.014 1.2561,4.6873 2.5271,5.1706 10.3292,3.923 12.0324,-1.9241 22.6222,3.8788 28.655,15.7037 5.6921,11.1575 6.1021,21.5661 1.2257,30.9959 -5.2898,10.2296 -12.6732,14.3234 -25.8391,14.3234 -12.8826,0 -13.1946,0.9274 -6.1494,18.2266 2.6371,6.4753 2.4901,8.3676 -1.0755,13.8093 -8.7671,13.3803 -24.8085,14.0758 -30.0984,1.3052 -8.4731,-20.4562 -45.159,-34.8379 -67.3504,-26.4008 -4.9592,1.8856 -6.3024,1.1707 -10.0881,-5.3624 -8.7938,-15.1762 -16.3939,-20.3776 -29.6118,-20.2751 -8.7349,0.067 -12.0772,1.0168 -12.0772,3.4366 0,2.2195 2.7413,3.3454 8.1464,3.3454 4.4805,0 11.3658,1.847 15.3003,4.105 6.9799,4.0058 14.6794,16.3079 14.6794,23.4544 0,5.8926 6.0686,6.3854 14.5962,1.1865 19.103,-11.6463 48.7452,0.5246 60.2322,24.7318 5.2661,11.0976 4.7648,16.7151 -2.1592,24.1862 -7.0773,7.6365 -7.6744,12.8802 -1.4712,12.8802 6.1263,0 18.642,13.295 21.948,23.312 4.1588,12.6018 1.3139,26.8898 -6.628,33.2937 -13.4538,10.8485 -33.6449,12.2051 -39.6049,2.6613 -4.4484,-7.1226 -11.1756,-5.7021 -11.1756,2.361 0,8.5669 -7.1212,17.8082 -16.8189,21.8253 -8.118,3.3625 -11.6613,0.9776 -11.7372,-7.8973 -0.087,-10.1551 -16.4845,-35.0495 -23.0868,-35.0495 -4.6176,0 -3.8547,5.7787 1.388,10.5232 2.4998,2.2623 6.823,9.4046 9.6058,15.8736 5.4838,12.7476 4.7073,16.7833 -5.3348,27.8086 -3.6259,3.9809 -7.5363,5.3623 -15.1894,5.3623 -9.4217,0 -10.3057,0.5141 -10.3057,5.9912 0,8.0071 -12.4467,15.7987 -23.8264,14.9129 -8.1186,-0.6321 -8.3798,-0.9658 -9.74,-12.5637 -1.9462,-16.594 -9.637,-32.1665 -15.8855,-32.1665 -1.3534,0 -3.0776,-1.6093 -3.8321,-3.5751 -1.7574,-4.5796 -8.6683,-4.6743 -8.6683,-0.1195 0,1.9007 1.4019,4.3146 3.1122,5.3626 5.1668,3.1657 15.2217,18.1524 16.8781,25.155 2.8057,11.8615 -7.235,24.784 -18.2028,23.4268 -5.5974,-0.6924 -5.2883,5.1807 0.5497,10.4639 2.5951,2.3487 5.3722,7.7467 6.169,11.9942 4.2928,22.8828 -29.1515,42.7566 -50.132,29.7898 -4.658,-2.8788 -9.5667,-7.2838 -10.9069,-9.7876 -3.1274,-5.8436 -8.3053,-5.774 -15.9171,0.2136 -10.4461,8.2168 -31.7915,5.404 -47.5142,-6.2601 -7.0372,-5.2208 -10.1335,-11.4659 -13.7264,-27.6938 -0.8483,-3.8316 -3.0417,-6.5529 -5.2831,-6.5529 -3.143,0 -3.5538,1.7295 -2.2938,9.6096 1.8611,11.6387 -0.7073,16.9874 -11.306,23.5377 -10.4876,6.4816 -17.2773,6.2655 -28.9396,-0.9175 -5.2421,-3.2286 -10.7052,-5.9027 -12.1446,-5.9438 -1.4392,-0.041 -4.236,4.04 -6.2126,9.0719 -1.9765,5.0319 -7.6861,12.2693 -12.6862,16.0833 v 0 c -7.9169,6.0386 -11.4209,7.018 -27.1443,7.5849 -15.7842,0.5691 -19.2474,-0.099 -27.5277,-5.2992 -11.5374,-7.2447 -17.8081,-15.0126 -17.8787,-22.1575 -0.069,-6.9977 -4.8432,-6.8198 -15.7669,0.5932 -12.9527,8.79 -23.0707,7.589 -36.1092,-4.2868 -3.9809,-3.6259 -5.3624,-7.5362 -5.3624,-15.1894 0,-13.2017 -5.8792,-14.2357 -8.2769,-1.4554 -2.7824,14.8315 -7.594,21.2963 -20.718,27.8362 -15.3331,7.641 -31.4349,8.2162 -40.1034,1.4355 -8.0382,-6.2876 -9.1883,-6.0659 -19.2073,3.7175 -9.6597,9.4324 -20.4809,11.1952 -36.4296,5.9319 -18.3921,-6.07 -26.6359,-27.5517 -15.842,-41.274 6.3089,-8.0204 6.0095,-11.2626 -1.0322,-11.2626 -7.0406,0 -15.6482,-11.0823 -15.6482,-20.1446 0,-7.97 4.9335,-17.5255 12.8802,-24.9495 6.6339,-6.1975 8.134,-12.0929 3.0766,-12.0929 -4.3933,0 -17.564,14.2086 -20.5756,22.1968 -1.391,3.6893 -2.531,10.7103 -2.531,15.6049 0,15.4577 -9.6325,18.8846 -26.4797,9.4158 -6.594,-3.706 -9.2578,-6.7954 -9.2578,-10.7248 0,-4.8126 -1.1721,-5.5166 -9.1668,-5.5166 -13.0144,0 -24.194,-11.0812 -24.194,-23.9845 0,-5.4439 7.4707,-19.1034 14.8178,-27.0967 5.0981,-5.5466 5.5233,-10.8672 0.8701,-10.8672 -6.3221,0 -22.8338,24.122 -22.8338,33.3568 0,2.7933 -1.0938,7.1164 -2.4281,9.6096 -2.0387,3.8094 -3.4637,4.1422 -8.9334,2.0762 -10.3756,-3.9195 -19.6147,-14.123 -19.6147,-21.6631 0,-8.2369 -2.1172,-8.3573 -13.3309,-0.7476 -10.7046,7.2644 -11.1543,7.2705 -25.9855,0.356 -14.9436,-6.9669 -18.1609,-10.866 -19.6147,-23.763 -1.8741,-16.6284 11.605,-37.351 24.2969,-37.351 5.3026,0 4.4868,-8.0425 -1.3523,-13.3268 -7.869,-7.1215 -5.2953,-24.8823 5.1686,-35.6782 9.6146,-9.9198 24.9158,-17.7086 34.7883,-17.7086 8.8432,0 22.2405,4.4441 22.2405,7.3792 0,3.9259 7.2759,2.2205 8.621,-2.0207 7.8349,-24.7059 24.016,-35.6286 38.9566,-26.298 5.7124,3.5676 9.1409,0.685 5.6946,-4.7891 -3.2048,-5.0902 -13.8343,-7.2067 -24.6093,-4.8997 -8.2561,1.7678 -22.4975,15.3275 -25.2777,24.0716 -1.0334,3.2501 -2.3046,3.6441 -5.7738,1.7874 -2.4467,-1.3094 -10.9656,-2.3807 -18.9343,-2.3807 -18.2395,0 -37.7752,10.0893 -47.2454,24.3998 -10.3239,15.6006 -20.4197,16.5547 -31.1304,2.9383 -3.9739,-5.0522 -4.3631,-7.3217 -2.3412,-13.7185 5.7479,-18.1832 5.7054,-18.3848 -3.8715,-18.3848 -23.9012,0 -37.3273,-19.4713 -28.809,-41.7761 5.4982,-14.3967 13.3762,-20.1723 27.5079,-20.1723 h 11.2825 l 2.784,-14.1495 c 2.9537,-15.0137 13.9657,-31.8502 22.8456,-34.9306 2.6159,-0.9075 5.8343,-3.0295 7.15,-4.713793 5.4607,-6.9923 21.2186,-4.9487 28.975,3.756693 7.6191,8.551 10.9555,8.9074 16.7436,1.7874 7.2008,-8.857593 11.9043,-11.607793 21.3785,-12.488393 9.9821,-0.9277 21.6993,3.079 26.7251,9.138893 3.9205,4.7275 9.835,5.1979 9.835,0.7831 0,-3.751393 -8.1957,-11.283193 -17.1036,-15.723493 -9.38,-4.6755 -32.6068,-2.2948 -37.5843,3.8519 -5.8608,7.2378 -9.9103,7.5595 -18.8355,1.5027 -4.485,-3.0436 -10.1494,-5.5326 -12.5874,-5.5326 -2.762,2e-4 -4.4332,-1.6999 -4.4332,-4.5121 0,-5.8855 20.7552,-27.9904 29.1887,-31.0869 4.0825,-1.4989 6.5528,-4.1552 6.5528,-7.0471 0,-6.9276 10.946,-18.6147 20.3384,-21.7145 15.7444,-5.1961 31.5222,2.4052 38.3751,18.4915 3.5123,8.2446 10.3847,10.5775 10.3847,3.5237 0,-2.3232 -3.7535,-9.9255 -8.3401,-16.89 -4.5869,-6.9647 -8.3403,-13.4546 -8.3403,-14.4224 0,-2.8210992 10.0546,-11.2235992 18.5944,-15.5413992 7.526,-3.8053 7.8035,-4.4285 6.3392,-14.1930008 -1.7645,-11.7672 0.7067,-15.3081 16.2178,-23.2213 9.1324,-4.659 10.1363,-4.7203 17.7046,-1.1112 11.0196,5.255 13.2726,4.8883 20.5914,-3.3259 4.9602,-5.567 8.3401,-7.1343 15.2844,-7.0904 14.1156,0.089 27.6355,4.0515 31.9332,9.3565 5.3753,6.6347 9.151,6.1417 9.151,-1.1982 0,-12.7482 20.9812,-34.467 37.8135,-39.1425 16.2548,-4.515 36.2961,-1.0203 41.4478,7.2291 4.6452,7.4377 9.1199,5.7175 8.5143,-3.2744 -0.8875,-13.1772 8.0348,-24.704307 22.4303,-28.979107 14.9152,-4.4293 20.3021,-4.4348 27.9906,-0.039 9.1944,5.2558 12.6453,4.5045 11.3141,-2.4598 -1.5953,-8.3446 7.7898,-14.3615 18.9621,-15.3911 1.6759,-0.1539 3.3916,-0.1984 5.1171,-0.1195 z m -97.939,591.0941 c 0.983,0.047 4.467,1.615 7.7432,3.4879 7.3288,4.1896 16.787,4.4457 28.9988,0.787 8.5655,-2.5662 9.5953,-2.3611 13.0383,2.5546 2.0561,2.9357 8.0749,8.4758 13.3743,12.3147 8.9973,6.5174 11.0937,6.9797 31.6248,6.9797 25.4548,0 33.4807,-2.664 48.8785,-16.2176 10.4638,-9.2108 10.967,-9.3764 17.594,-5.9043 6.484,3.3973 13.5556,3.212 26.9819,-0.7 5.193,-1.5129 5.3585,-1.0431 5.3585,14.897 0,27.8963 10.7665,58.2926 28.5322,80.5586 11.7988,14.7877 36.2808,21.5607 104.2663,28.8407 8.1682,0.8746 16.7452,3.0476 19.0611,4.8286 3.6077,2.7745 1.6524,2.9861 -13.6591,1.4829 -22.7263,-2.2311 -45.1388,-1.8079 -86.783,1.641 -29.3161,2.4281 -34.6347,2.2874 -45.7665,-1.214 -16.3787,-5.1518 -20.4551,-3.5684 -19.496,7.5731 0.7299,8.4782 1.0508,8.7228 22.1853,16.8661 16.2686,6.2686 23.6004,10.5979 30.379,17.9342 11.8358,12.8093 11.3248,15.8049 -1.1903,6.9679 -7.6791,-5.4222 -15.595,-8.12 -32.7598,-11.1559 -15.8176,-2.7976 -24.9859,-5.7567 -30.4304,-9.8311 -4.2852,-3.2068 -11.3643,-6.4126 -15.7353,-7.122 -6.8673,-1.1145 -8.1482,-0.5275 -9.4197,4.3262 -1.2126,4.6282 1.2434,8.3543 13.9517,21.1648 8.4826,8.5511 15.4228,17.3456 15.4228,19.5435 0,3.3902 -0.8641,3.2019 -5.6866,-1.2495 -8.0249,-7.4075 -45.7952,-26.0333 -50.8281,-25.0641 -2.3052,0.4438 -4.5926,2.9422 -5.0858,5.5482 -0.493,2.6059 -2.9954,10.3659 -5.5599,17.246 -2.5648,6.88 -5.6877,12.5082 -6.9364,12.5082 -2.2446,0 -6.9165,-9.9218 -6.9165,-14.6873 0,-1.3547 -1.7289,-6.1094 -3.844,-10.5667 -4.4957,-9.474 -9.018,-10.1478 -22.3671,-3.3376 -5.1374,2.621 -11.372,4.7653 -13.8567,4.7653 -2.4848,0 -9.4317,3.7534 -15.4387,8.3403 -6.007,4.5866 -11.5252,8.3401 -12.2592,8.3401 -4.3568,0 0.2503,-7.6857 10.7684,-17.9617 27.4508,-26.8187 26.871,-34.1774 -1.6609,-20.9948 -13.6836,6.3223 -21.9729,8.458 -37.2522,9.6018 -17.0554,1.2766 -20.6833,2.3687 -27.4764,8.265 -10.4788,9.0957 -13.1932,8.5608 -8.3283,-1.6413 4.405,-9.2375 18.1398,-18.8011 40.5147,-28.2079 11.4152,-4.7992 13.8972,-6.8869 14.5449,-12.2513 l 0.7789,-6.4696 -16.269,1.4197 c -8.9477,0.7793 -23.5338,2.1025 -32.4157,2.9422 -11.1292,1.052 -24.0898,0.1619 -41.6969,-2.8632 -33.1509,-5.695 -57.2913,-5.3899 -74.9906,0.9451 -7.5353,2.697 -13.7026,4.0772 -13.7026,3.0649 0,-2.8893 16.8863,-9.5742 27.4012,-10.8474 5.2421,-0.6347 23.4704,-2.8385 40.5068,-4.8958 40.9198,-4.9414 50.1457,-8.1312 63.6566,-22.0033 21.9616,-22.5483 30.4621,-46.2682 30.4621,-85.0114 0,-8.5934 0.8046,-15.5836 1.7874,-15.5375 z"/><path xmlns:inkscape="http://www.inkscape.org/namespaces/inkscape" inkscape:original-d="M 0,0" inkscape:path-effect="#path-effect73" d="m 2696.7688,-132.77299 c -12.4959,0 -25.773,4.9424 -29.0621,10.8198 -1.7579,3.141 -5.9196,4.2344 -17.5189,4.6031 -21.9255,0.6969 -33.6865,6.2943 -40.5817,19.310107 -3.6897,6.9647 -6.7627,10.1436 -8.9848,9.2932 -1.8575,-0.7105 -9.4359,-1.9267 -16.8426,-2.7008 -24.9649,-2.6095 -46.6976,7.9949 -63.2139,30.8455 -4.736,6.5525 -4.9847,6.6078 -17.6136,3.8993 -18.2711,-3.9185 -35.7383,-1.8055 -41.2383,4.9867 -3.8063,4.7006 -5.189,5.0582 -10.3888,2.6891 -9.0655,-4.1305 -16.6676,-3.3305 -29.3348,3.0885 -12.7699,6.4709 -18.1964,15.5678 -16.4353,27.5675 0.9658,6.5804 0.1559,7.6515 -8.8307,11.6262008 -6.7288,2.9766 -10.8874,6.77039994 -12.9907,11.848 -2.7772,6.7048992 -4.1256,7.4702992 -13.1726,7.4702992 -19.922,0 -37.6308,10.4388 -40.5938,23.929 -0.9504,4.3275 -3.8758,7.5899 -8.5418,9.5226 -10.9632,4.5413 -23.1345,18.1949 -27.7177,31.0988 -2.2847,6.4328 -5.5415,11.6937 -7.2407,11.6937 -1.6993,0 -3.6729,1.5139 -4.3817,3.3615 -0.7089,1.8473 -3.7964,3.9871 -6.8651,4.7573 -8.0925,2.031 -19.6716,17.917893 -22.9049,31.426993 -1.538,6.4251 -3.1556,13.0254 -3.5909,14.6634 -0.4811,1.8111 -4.8964,2.978 -11.2665,2.978 -12.8725,0 -21.8451,6.4212 -28.0418,20.0654 -11.6615,25.6761 2.3535,56.1787 25.8114,56.1787 7.1174,0 7.1259,0.02 4.6664,9.2338 -3.1944,11.9684 0.4422,21.0334 11.4683,28.5719 5.7805,3.9521 10.4637,5.3144 15.6602,4.5517 8.1245,-1.1924 8.3318,-0.8984 10.4242,14.8336 1.2618,9.488 0.8178,11.0035 -3.8478,13.1056 -7.8042,3.5159 -16.2852,21.3938 -16.281,34.3216 0,16.2912 6.0937,25.9873 21.4416,34.1478 12.7519,6.7799 22.1969,7.6957 33.3568,3.2388 2.3382,-0.9338 5.4911,1.3926 9.1154,6.7266 5.6636,8.3357 19.69,15.676 29.9559,15.676 3.0893,0 6.954,1.6092 8.5853,3.5749 1.6315,1.9658 3.9079,3.575 5.058,3.575 1.15,0 4.3283,2.2364 7.0629,4.9708 3.417,3.4171 6.7171,4.5342 10.5548,3.571 4.4819,-1.1249 5.7355,-0.3551 6.3469,3.8993 1.2428,8.6448 17.2879,16.3198 33.0286,15.7984 19.833,-0.6568 22.6306,1.7828 21.778,18.986 -1.2609,25.4415 6.581,35.1637 33.768,41.8591 10.5604,2.6008 27.3672,-0.9144 34.9703,-7.3119 5.8098,-4.8886 7.6924,-5.363 12.0456,-3.0333 3.0578,1.6366 12.18,2.4101 22.3908,1.8944 14.2649,-0.7204 19.2948,-2.1544 29.2205,-8.3244 l 11.9901,-7.4545 1.4791,9.2537 c 0.8137,5.0882 0.3701,19.1766 -0.9847,31.3084 -3.0152,26.9999 -10.2642,43.1011 -27.1799,60.3705 -11.0462,11.2774 -13.4775,12.5909 -27.7888,15.0195 -8.6254,1.4639 -22.0723,2.6616 -29.8845,2.6616 -15.0759,0 -50.294,9.0581 -65.6302,16.8819 -9.555,4.8747 -13.8924,10.7161 -13.8924,18.7013 0,6.3872 4.1556,6.2101 18.2701,-0.7791 6.3326,-3.1358 19.0188,-6.9735 28.1921,-8.5301 14.9869,-2.5431 20.3031,-2.2063 52.4179,3.3139 39.0504,6.7126 51.4523,7.4768 58.6543,3.6225 2.5996,-1.3914 7.6208,-2.1527 11.1598,-1.6925 5.5263,0.7184 4.7114,1.3819 -5.7697,4.694 -18.8927,5.9703 -26.6041,10.7819 -34.306,21.414 -5.5711,7.6908 -7.1024,12.309 -7.1024,21.4337 0,14.122 4.8161,17.4738 11.9942,8.3483 8.4253,-10.7111 20.3832,-16.2725 39.9056,-18.5667 10.1156,-1.1889 20.9486,-2.747 24.0716,-3.4603 l 5.6747,-1.2973 -6.2718,7.4545 c -7.085,8.4199 -9.3853,15.4049 -8.2454,25.0285 0.8868,7.4871 8.9643,13.9604 10.8672,8.708 2.9227,-8.0682 13.015,-15.4611 31.5218,-23.0948 11.0899,-4.5741 20.8668,-8.3164 21.7265,-8.3164 0.8597,0 2.1213,4.1614 2.8038,9.2498 0.6826,5.0882 4.1416,14.2044 7.6878,20.2553 3.5459,6.0509 7.9973,11.0016 9.8943,11.0016 4.3625,0 17.5403,-27.5122 17.5423,-36.6273 0,-5.4974 0.6382,-6.3185 3.2388,-4.1603 1.7808,1.4781 9.1136,4.7116 16.2929,7.1816 19.9881,6.8768 27.7031,11.5825 31.7196,19.3498 4.449,8.6032 9.8759,9.1411 13.4338,1.3327 4.4923,-9.8597 0.4242,-22.1685 -11.156,-33.7484 -5.7816,-5.7816 -9.1732,-10.5153 -7.5334,-10.5153 1.64,0 4.6747,1.9784 6.7426,4.3937 2.6579,3.1041 8.5762,4.8456 20.1881,5.9477 24.4726,2.3222 33.6113,5.6523 43.9828,16.0238 10.2908,10.2909 12.9082,11.2642 15.0787,5.6077 6.9422,-18.0913 -7.8188,-41.2731 -31.7393,-49.8475 -17.0357,-6.1064 -21.8921,-8.6967 -13.2794,-7.0866 20.873,3.9025 30.8419,3.6759 60.8449,-1.3643 17.6448,-2.964 37.9773,-5.2078 45.1849,-4.9867 16.5914,0.509 37.6946,5.8422 48.0125,12.1327 10.3329,6.2997 13.94,6.159 13.94,-0.5419 0,-18.2287 -33.323,-32.1776 -89.8874,-37.6237 -33.1766,-3.1945 -43.5802,-8.1769 -57.1081,-27.3658 -13.359,-18.9492 -17.2352,-32.5538 -18.974,-66.5909 l -1.4593,-28.5916 6.873,6.4261 c 3.7798,3.5344 10.8591,8.0925 15.7315,10.1278 10.2124,4.2659 37.9637,4.9482 45.1335,1.1111 3.8824,-2.0779 5.8438,-1.6378 9.9694,2.2264 11.6581,10.9195 29.7779,12.793 48.3012,4.9947 17.0542,-7.18 21.1689,-13.9971 21.1689,-35.0969 0,-20.2152 1.8832,-22.4236 17.3565,-20.3027 12.4945,1.7125 31.6834,-6.2155 36.4097,-15.0473 1.9063,-3.5617 5.1649,-5.6668 8.7793,-5.6668 3.1618,0 10.3276,-3.7535 15.925,-8.3401 5.5976,-4.5869 12.5157,-8.3403 15.3714,-8.3403 8.5558,0 20.3604,-6.0402 26.8278,-13.7264 5.8475,-6.9493 6.6679,-7.1805 21.335,-6.0821 13.963,1.0458 16.2139,0.5206 26.6223,-6.185 12.8733,-8.2935 16.0317,-14.4842 16.0317,-31.4229 0,-14.7124 -4.1872,-24.9704 -14.1534,-34.6737 -6.5156,-6.3438 -7.3123,-8.2598 -5.1212,-12.3542 1.4263,-2.6648 2.5941,-7.4592 2.5941,-10.6536 0,-5.2506 0.9379,-5.7833 9.7482,-5.5522 8.4158,0.2207 10.8919,-0.9964 18.1475,-8.9136 7.7341,-8.4393 8.3104,-10.0931 7.2804,-20.8129 -1.0049,-10.4572 -0.6263,-11.6463 3.6856,-11.6463 2.6411,0 9.3412,-2.6607 14.889,-5.912 11.6035,-6.8001 15.3477,-14.9019 15.3477,-33.1987 0,-22.1203 -12.4299,-37.068 -32.7717,-39.4112 l -11.2585,-1.2971 -1.57,-11.0056 c -2.0748,-14.5537 -12.0272,-29.0958 -26.1951,-38.276393 -6.333,-4.1037 -12.1402,-9.7062 -12.9037,-12.4489 -2.7745,-9.966 -11.4309,-25.2382 -14.3038,-25.2382 -1.6194,0 -3.5593,-1.6111 -4.3143,-3.5787 -0.755,-1.9679 -5.1145,-5.3622 -9.6849,-7.5416 -5.5432,-2.6433 -8.7822,-6.1131 -9.7281,-10.4201 -2.7998,-12.7476 -21.1946,-23.7199 -39.8107,-23.7474 -8.7839,-0.02 -10.7562,-0.9863 -14.1772,-6.9994992 -2.1855,-3.8416 -8.1454,-9.1124 -13.2439,-11.7134 -8.5788,-4.3766008 -9.1957,-5.3671008 -8.2731,-13.2715008 1.3341,-11.4275 -3.9776,-18.9705 -18.5547,-26.3573 -12.2661,-6.2156 -22.5261,-7.6888 -25.0562,-3.5947 -1.9571,3.1662 -10.7208,3.066 -10.7208,-0.1236 0,-7.55 -30.5454,-12.0046 -47.6685,-6.9521 -7.6565,2.2592 -8.7062,1.935 -13.0897,-4.0454 -6.7685,-9.2351 -20.3631,-21.9248 -27.6898,-25.8473 -8.559,-4.582 -34.5085,-6.83 -46.6008,-4.0375 -9.6192,2.2213 -10.0577,2.0632 -12.8207,-4.6071 -6.1955,-14.957207 -29.4681,-25.573507 -50.0136,-22.817807 -7.3402,0.9844 -9.51,0.395 -10.5428,-2.8592 -1.8984,-5.9813 -16.4721,-12.1049 -28.809,-12.1049 z" id="path74"/><path id="path24" style="fill:#1a1a1a;stroke-width:7.44597" d="m 2696.7688,-132.77299 c -12.4959,0 -25.773,4.9424 -29.0621,10.8198 -1.7579,3.141 -5.9196,4.2344 -17.5189,4.6031 -21.9255,0.6969 -33.6865,6.2943 -40.5817,19.310107 -3.6897,6.9647 -6.7627,10.1436 -8.9848,9.2932 -1.8575,-0.7105 -9.4359,-1.9267 -16.8426,-2.7008 -24.9649,-2.6095 -46.6976,7.9949 -63.2139,30.8455 -4.736,6.5525 -4.9847,6.6078 -17.6136,3.8993 -18.2711,-3.9185 -35.7383,-1.8055 -41.2383,4.9867 -3.8063,4.7006 -5.189,5.0582 -10.3888,2.6891 -9.0655,-4.1305 -16.6676,-3.3305 -29.3348,3.0885 -12.7699,6.4709 -18.1964,15.5678 -16.4353,27.5675 0.9658,6.5804 0.1559,7.6515 -8.8307,11.6262008 -6.7288,2.9766 -10.8874,6.77039994 -12.9907,11.848 -2.7772,6.7048992 -4.1256,7.4702992 -13.1726,7.4702992 -19.922,0 -37.6308,10.4388 -40.5938,23.929 -0.9504,4.3275 -3.8758,7.5899 -8.5418,9.5226 -10.9632,4.5413 -23.1345,18.1949 -27.7177,31.0988 -2.2847,6.4328 -5.5415,11.6937 -7.2407,11.6937 -1.6993,0 -3.6729,1.5139 -4.3817,3.3615 -0.7089,1.8473 -3.7964,3.9871 -6.8651,4.7573 -8.0925,2.031 -19.6716,17.917893 -22.9049,31.426993 -1.538,6.4251 -3.1556,13.0254 -3.5909,14.6634 -0.4811,1.8111 -4.8964,2.978 -11.2665,2.978 -12.8725,0 -21.8451,6.4212 -28.0418,20.0654 -11.6615,25.6761 2.3535,56.1787 25.8114,56.1787 7.1174,0 7.1259,0.02 4.6664,9.2338 -3.1944,11.9684 0.4422,21.0334 11.4683,28.5719 5.7805,3.9521 10.4637,5.3144 15.6602,4.5517 8.1245,-1.1924 8.3318,-0.8984 10.4242,14.8336 1.2618,9.488 0.8178,11.0035 -3.8478,13.1056 -7.8042,3.5159 -16.2852,21.3938 -16.281,34.3216 0,16.2912 6.0937,25.9873 21.4416,34.1478 12.7519,6.7799 22.1969,7.6957 33.3568,3.2388 2.3382,-0.9338 5.4911,1.3926 9.1154,6.7266 5.6636,8.3357 19.69,15.676 29.9559,15.676 3.0893,0 6.954,1.6092 8.5853,3.5749 1.6315,1.9658 3.9079,3.575 5.058,3.575 1.15,0 4.3283,2.2364 7.0629,4.9708 3.417,3.4171 6.7171,4.5342 10.5548,3.571 4.4819,-1.1249 5.7355,-0.3551 6.3469,3.8993 1.2428,8.6448 17.2879,16.3198 33.0286,15.7984 19.833,-0.6568 22.6306,1.7828 21.778,18.986 -1.2609,25.4415 6.581,35.1637 33.768,41.8591 10.5604,2.6008 27.3672,-0.9144 34.9703,-7.3119 5.8098,-4.8886 7.6924,-5.363 12.0456,-3.0333 3.0578,1.6366 12.18,2.4101 22.3908,1.8944 14.2649,-0.7204 19.2948,-2.1544 29.2205,-8.3244 l 11.9901,-7.4545 1.4791,9.2537 c 0.8137,5.0882 0.3701,19.1766 -0.9847,31.3084 -3.0152,26.9999 -10.2642,43.1011 -27.1799,60.3705 -11.0462,11.2774 -13.4775,12.5909 -27.7888,15.0195 -8.6254,1.4639 -22.0723,2.6616 -29.8845,2.6616 -15.0759,0 -50.294,9.0581 -65.6302,16.8819 -9.555,4.8747 -13.8924,10.7161 -13.8924,18.7013 0,6.3872 4.1556,6.2101 18.2701,-0.7791 6.3326,-3.1358 19.0188,-6.9735 28.1921,-8.5301 14.9869,-2.5431 20.3031,-2.2063 52.4179,3.3139 39.0504,6.7126 51.4523,7.4768 58.6543,3.6225 2.5996,-1.3914 7.6208,-2.1527 11.1598,-1.6925 5.5263,0.7184 4.7114,1.3819 -5.7697,4.694 -18.8927,5.9703 -26.6041,10.7819 -34.306,21.414 -5.5711,7.6908 -7.1024,12.309 -7.1024,21.4337 0,14.122 4.8161,17.4738 11.9942,8.3483 8.4253,-10.7111 20.3832,-16.2725 39.9056,-18.5667 10.1156,-1.1889 20.9486,-2.747 24.0716,-3.4603 l 5.6747,-1.2973 -6.2718,7.4545 c -7.085,8.4199 -9.3853,15.4049 -8.2454,25.0285 0.8868,7.4871 8.9643,13.9604 10.8672,8.708 2.9227,-8.0682 13.015,-15.4611 31.5218,-23.0948 11.0899,-4.5741 20.8668,-8.3164 21.7265,-8.3164 0.8597,0 2.1213,4.1614 2.8038,9.2498 0.6826,5.0882 4.1416,14.2044 7.6878,20.2553 3.5459,6.0509 7.9973,11.0016 9.8943,11.0016 4.3625,0 17.5403,-27.5122 17.5423,-36.6273 0,-5.4974 0.6382,-6.3185 3.2388,-4.1603 1.7808,1.4781 9.1136,4.7116 16.2929,7.1816 19.9881,6.8768 27.7031,11.5825 31.7196,19.3498 4.449,8.6032 9.8759,9.1411 13.4338,1.3327 4.4923,-9.8597 0.4242,-22.1685 -11.156,-33.7484 -5.7816,-5.7816 -9.1732,-10.5153 -7.5334,-10.5153 1.64,0 4.6747,1.9784 6.7426,4.3937 2.6579,3.1041 8.5762,4.8456 20.1881,5.9477 24.4726,2.3222 33.6113,5.6523 43.9828,16.0238 10.2908,10.2909 12.9082,11.2642 15.0787,5.6077 6.9422,-18.0913 -7.8188,-41.2731 -31.7393,-49.8475 -17.0357,-6.1064 -21.8921,-8.6967 -13.2794,-7.0866 20.873,3.9025 30.8419,3.6759 60.8449,-1.3643 17.6448,-2.964 37.9773,-5.2078 45.1849,-4.9867 16.5914,0.509 37.6946,5.8422 48.0125,12.1327 10.3329,6.2997 13.94,6.159 13.94,-0.5419 0,-18.2287 -33.323,-32.1776 -89.8874,-37.6237 -33.1766,-3.1945 -43.5802,-8.1769 -57.1081,-27.3658 -13.359,-18.9492 -17.2352,-32.5538 -18.974,-66.5909 l -1.4593,-28.5916 6.873,6.4261 c 3.7798,3.5344 10.8591,8.0925 15.7315,10.1278 10.2124,4.2659 37.9637,4.9482 45.1335,1.1111 3.8824,-2.0779 5.8438,-1.6378 9.9694,2.2264 11.6581,10.9195 29.7779,12.793 48.3012,4.9947 17.0542,-7.18 21.1689,-13.9971 21.1689,-35.0969 0,-20.2152 1.8832,-22.4236 17.3565,-20.3027 12.4945,1.7125 31.6834,-6.2155 36.4097,-15.0473 1.9063,-3.5617 5.1649,-5.6668 8.7793,-5.6668 3.1618,0 10.3276,-3.7535 15.925,-8.3401 5.5976,-4.5869 12.5157,-8.3403 15.3714,-8.3403 8.5558,0 20.3604,-6.0402 26.8278,-13.7264 5.8475,-6.9493 6.6679,-7.1805 21.335,-6.0821 13.963,1.0458 16.2139,0.5206 26.6223,-6.185 12.8733,-8.2935 16.0317,-14.4842 16.0317,-31.4229 0,-14.7124 -4.1872,-24.9704 -14.1534,-34.6737 -6.5156,-6.3438 -7.3123,-8.2598 -5.1212,-12.3542 1.4263,-2.6648 2.5941,-7.4592 2.5941,-10.6536 0,-5.2506 0.9379,-5.7833 9.7482,-5.5522 8.4158,0.2207 10.8919,-0.9964 18.1475,-8.9136 7.7341,-8.4393 8.3104,-10.0931 7.2804,-20.8129 -1.0049,-10.4572 -0.6263,-11.6463 3.6856,-11.6463 2.6411,0 9.3412,-2.6607 14.889,-5.912 11.6035,-6.8001 15.3477,-14.9019 15.3477,-33.1987 0,-22.1203 -12.4299,-37.068 -32.7717,-39.4112 l -11.2585,-1.2971 -1.57,-11.0056 c -2.0748,-14.5537 -12.0272,-29.0958 -26.1951,-38.276393 -6.333,-4.1037 -12.1402,-9.7062 -12.9037,-12.4489 -2.7745,-9.966 -11.4309,-25.2382 -14.3038,-25.2382 -1.6194,0 -3.5593,-1.6111 -4.3143,-3.5787 -0.755,-1.9679 -5.1145,-5.3622 -9.6849,-7.5416 -5.5432,-2.6433 -8.7822,-6.1131 -9.7281,-10.4201 -2.7998,-12.7476 -21.1946,-23.7199 -39.8107,-23.7474 -8.7839,-0.02 -10.7562,-0.9863 -14.1772,-6.9994992 -2.1855,-3.8416 -8.1454,-9.1124 -13.2439,-11.7134 -8.5788,-4.3766008 -9.1957,-5.3671008 -8.2731,-13.2715008 1.3341,-11.4275 -3.9776,-18.9705 -18.5547,-26.3573 -12.2661,-6.2156 -22.5261,-7.6888 -25.0562,-3.5947 -1.9571,3.1662 -10.7208,3.066 -10.7208,-0.1236 0,-7.55 -30.5454,-12.0046 -47.6685,-6.9521 -7.6565,2.2592 -8.7062,1.935 -13.0897,-4.0454 -6.7685,-9.2351 -20.3631,-21.9248 -27.6898,-25.8473 -8.559,-4.582 -34.5085,-6.83 -46.6008,-4.0375 -9.6192,2.2213 -10.0577,2.0632 -12.8207,-4.6071 -6.1955,-14.957207 -29.4681,-25.573507 -50.0136,-22.817807 -7.3402,0.9844 -9.51,0.395 -10.5428,-2.8592 -1.8984,-5.9813 -16.4721,-12.1049 -28.809,-12.1049 z m 1.0004,7.051 c 5.1767,0.2375 10.4371,1.5673 14.9404,4.2274 5.8499,3.4557 6.749,5.2004 5.5364,10.7208 -1.738,7.9139 1.7893,8.5633 14.2483,2.6221 7.1818,-3.4249 10.11,-3.5784 21.2045,-1.0956 16.8084,3.7616 27.8125,15.603307 27.8125,29.928307 0,7.2763 3.0892,7.79 9.3329,1.5463 6.8331,-6.8333 27.9876,-8.807 42.31,-3.9468 19.8821,6.747 37.5117,26.7747 34.9306,39.6802 -1.7834,8.9168 1.6394,8.9194 10.5469,0.02 12.1345,-12.1345 37.5087,-12.7996 48.3407,-1.2693 6.4557,6.8716 8.9398,7.1182 19.7374,1.9692 7.8586,-3.7475 8.4284,-3.6682 19.1953,2.6417 13.5132,7.9194 15.7967,11.8128 14.1455,24.123 -1.2481,9.3049008 -1.049,9.6262008 8.2611,13.2833008 5.247,2.06099994 11.4087,6.5974 13.6907,10.0802 3.9886,6.0867992 3.9596,6.5348992 -0.6722,11.6027992 -5.925,6.4828 -12.524,19.2445 -12.524,24.2177 0,6.2474 6.4077,4.0865 9.4158,-3.1754 1.5646,-3.7776 6.0571,-9.9449 9.9812,-13.7026 5.8975,-5.6474 9.1065,-6.8048 18.5114,-6.6675 14.0744,0.2055 24.9454,7.3194 29.2085,19.1085 2.0017,5.5356 5.6734,9.657 10.7486,12.0654 14.0677,6.6756 28.9331,25.6426 26.029,33.2104 -0.709,1.8476 -3.8589,3.3577 -6.9997,3.3577 -3.1406,0 -8.5985,2.273 -12.1286,5.0499 -6.4174,5.0479 -6.4186,5.0467 -11.6382,0.2966 -2.8715,-2.6131 -7.562,-5.9564 -10.4244,-7.4306 -6.7815,-3.4927 -25.8442,-3.442 -32.4789,0.087 -7.5954,4.0397 -18.3097,14.614993 -18.3097,18.072193 0,4.8869 5.9254,3.4042 11.3576,-2.8433 5.8059,-6.677393 22.2764,-11.891693 30.8022,-9.751993 3.1796,0.7982 9.0465,5.1667 13.0342,9.708593 8.621,9.8186 11.2855,10.157 18.6024,2.3688 7.6375,-8.129993 19.7319,-11.908893 26.5034,-8.284893 8.2664,4.424093 26.0186,21.631393 29.7384,28.824893 1.8652,3.6066 3.4105,9.5592 3.4247,13.228 0.02,3.6689 0.6793,9.0741 1.4673,12.014 1.2561,4.6873 2.5271,5.1706 10.3292,3.923 12.0324,-1.9241 22.6222,3.8788 28.655,15.7037 5.6921,11.1575 6.1021,21.5661 1.2257,30.9959 -5.2898,10.2296 -12.6732,14.3234 -25.8391,14.3234 -12.8826,0 -13.1946,0.9274 -6.1494,18.2266 2.6371,6.4753 2.4901,8.3676 -1.0755,13.8093 -8.7671,13.3803 -24.8085,14.0758 -30.0984,1.3052 -8.4731,-20.4562 -45.159,-34.8379 -67.3504,-26.4008 -4.9592,1.8856 -6.3024,1.1707 -10.0881,-5.3624 -8.7938,-15.1762 -16.3939,-20.3776 -29.6118,-20.2751 -8.7349,0.067 -12.0772,1.0168 -12.0772,3.4366 0,2.2195 2.7413,3.3454 8.1464,3.3454 4.4805,0 11.3658,1.847 15.3003,4.105 6.9799,4.0058 14.6794,16.3079 14.6794,23.4544 0,5.8926 6.0686,6.3854 14.5962,1.1865 19.103,-11.6463 48.7452,0.5246 60.2322,24.7318 5.2661,11.0976 4.7648,16.7151 -2.1592,24.1862 -7.0773,7.6365 -7.6744,12.8802 -1.4712,12.8802 6.1263,0 18.642,13.295 21.948,23.312 4.1588,12.6018 1.3139,26.8898 -6.628,33.2937 -13.4538,10.8485 -33.6449,12.2051 -39.6049,2.6613 -4.4484,-7.1226 -11.1756,-5.7021 -11.1756,2.361 0,8.5669 -7.1212,17.8082 -16.8189,21.8253 -8.118,3.3625 -11.6613,0.9776 -11.7372,-7.8973 -0.087,-10.1551 -16.4845,-35.0495 -23.0868,-35.0495 -4.6176,0 -3.8547,5.7787 1.388,10.5232 2.4998,2.2623 6.823,9.4046 9.6058,15.8736 5.4838,12.7476 4.7073,16.7833 -5.3348,27.8086 -3.6259,3.9809 -7.5363,5.3623 -15.1894,5.3623 -9.4217,0 -10.3057,0.5141 -10.3057,5.9912 0,8.0071 -12.4467,15.7987 -23.8264,14.9129 -8.1186,-0.6321 -8.3798,-0.9658 -9.74,-12.5637 -1.9462,-16.594 -9.637,-32.1665 -15.8855,-32.1665 -1.3534,0 -3.0776,-1.6093 -3.8321,-3.5751 -1.7574,-4.5796 -8.6683,-4.6743 -8.6683,-0.1195 0,1.9007 1.4019,4.3146 3.1122,5.3626 5.1668,3.1657 15.2217,18.1524 16.8781,25.155 2.8057,11.8615 -7.235,24.784 -18.2028,23.4268 -5.5974,-0.6924 -5.2883,5.1807 0.5497,10.4639 2.5951,2.3487 5.3722,7.7467 6.169,11.9942 4.2928,22.8828 -29.1515,42.7566 -50.132,29.7898 -4.658,-2.8788 -9.5667,-7.2838 -10.9069,-9.7876 -3.1274,-5.8436 -8.3053,-5.774 -15.9171,0.2136 -10.4461,8.2168 -31.7915,5.404 -47.5142,-6.2601 -7.0372,-5.2208 -10.1335,-11.4659 -13.7264,-27.6938 -0.8483,-3.8316 -3.0417,-6.5529 -5.2831,-6.5529 -3.143,0 -3.5538,1.7295 -2.2938,9.6096 1.8611,11.6387 -0.7073,16.9874 -11.306,23.5377 -10.4876,6.4816 -17.2773,6.2655 -28.9396,-0.9175 -5.2421,-3.2286 -10.7052,-5.9027 -12.1446,-5.9438 -1.4392,-0.041 -4.236,4.04 -6.2126,9.0719 -1.9765,5.0319 -7.6861,12.2693 -12.6862,16.0833 v 0 c -7.9169,6.0386 -11.4209,7.018 -27.1443,7.5849 -15.7842,0.5691 -19.2474,-0.099 -27.5277,-5.2992 -11.5374,-7.2447 -17.8081,-15.0126 -17.8787,-22.1575 -0.069,-6.9977 -4.8432,-6.8198 -15.7669,0.5932 -12.9527,8.79 -23.0707,7.589 -36.1092,-4.2868 -3.9809,-3.6259 -5.3624,-7.5362 -5.3624,-15.1894 0,-13.2017 -5.8792,-14.2357 -8.2769,-1.4554 -2.7824,14.8315 -7.594,21.2963 -20.718,27.8362 -15.3331,7.641 -31.4349,8.2162 -40.1034,1.4355 -8.0382,-6.2876 -9.1883,-6.0659 -19.2073,3.7175 -9.6597,9.4324 -20.4809,11.1952 -36.4296,5.9319 -18.3921,-6.07 -26.6359,-27.5517 -15.842,-41.274 6.3089,-8.0204 6.0095,-11.2626 -1.0322,-11.2626 -7.0406,0 -15.6482,-11.0823 -15.6482,-20.1446 0,-7.97 4.9335,-17.5255 12.8802,-24.9495 6.6339,-6.1975 8.134,-12.0929 3.0766,-12.0929 -4.3933,0 -17.564,14.2086 -20.5756,22.1968 -1.391,3.6893 -2.531,10.7103 -2.531,15.6049 0,15.4577 -9.6325,18.8846 -26.4797,9.4158 -6.594,-3.706 -9.2578,-6.7954 -9.2578,-10.7248 0,-4.8126 -1.1721,-5.5166 -9.1668,-5.5166 -13.0144,0 -24.194,-11.0812 -24.194,-23.9845 0,-5.4439 7.4707,-19.1034 14.8178,-27.0967 5.0981,-5.5466 5.5233,-10.8672 0.8701,-10.8672 -6.3221,0 -22.8338,24.122 -22.8338,33.3568 0,2.7933 -1.0938,7.1164 -2.4281,9.6096 -2.0387,3.8094 -3.4637,4.1422 -8.9334,2.0762 -10.3756,-3.9195 -19.6147,-14.123 -19.6147,-21.6631 0,-8.2369 -2.1172,-8.3573 -13.3309,-0.7476 -10.7046,7.2644 -11.1543,7.2705 -25.9855,0.356 -14.9436,-6.9669 -18.1609,-10.866 -19.6147,-23.763 -1.8741,-16.6284 11.605,-37.351 24.2969,-37.351 5.3026,0 4.4868,-8.0425 -1.3523,-13.3268 -7.869,-7.1215 -5.2953,-24.8823 5.1686,-35.6782 9.6146,-9.9198 24.9158,-17.7086 34.7883,-17.7086 8.8432,0 22.2405,4.4441 22.2405,7.3792 0,3.9259 7.2759,2.2205 8.621,-2.0207 7.8349,-24.7059 24.016,-35.6286 38.9566,-26.298 5.7124,3.5676 9.1409,0.685 5.6946,-4.7891 -3.2048,-5.0902 -13.8343,-7.2067 -24.6093,-4.8997 -8.2561,1.7678 -22.4975,15.3275 -25.2777,24.0716 -1.0334,3.2501 -2.3046,3.6441 -5.7738,1.7874 -2.4467,-1.3094 -10.9656,-2.3807 -18.9343,-2.3807 -18.2395,0 -37.7752,10.0893 -47.2454,24.3998 -10.3239,15.6006 -20.4197,16.5547 -31.1304,2.9383 -3.9739,-5.0522 -4.3631,-7.3217 -2.3412,-13.7185 5.7479,-18.1832 5.7054,-18.3848 -3.8715,-18.3848 -23.9012,0 -37.3273,-19.4713 -28.809,-41.7761 5.4982,-14.3967 13.3762,-20.1723 27.5079,-20.1723 h 11.2825 l 2.784,-14.1495 c 2.9537,-15.0137 13.9657,-31.8502 22.8456,-34.9306 2.6159,-0.9075 5.8343,-3.0295 7.15,-4.713793 5.4607,-6.9923 21.2186,-4.9487 28.975,3.756693 7.6191,8.551 10.9555,8.9074 16.7436,1.7874 7.2008,-8.857593 11.9043,-11.607793 21.3785,-12.488393 9.9821,-0.9277 21.6993,3.079 26.7251,9.138893 3.9205,4.7275 9.835,5.1979 9.835,0.7831 0,-3.751393 -8.1957,-11.283193 -17.1036,-15.723493 -9.38,-4.6755 -32.6068,-2.2948 -37.5843,3.8519 -5.8608,7.2378 -9.9103,7.5595 -18.8355,1.5027 -4.485,-3.0436 -10.1494,-5.5326 -12.5874,-5.5326 -2.762,2e-4 -4.4332,-1.6999 -4.4332,-4.5121 0,-5.8855 20.7552,-27.9904 29.1887,-31.0869 4.0825,-1.4989 6.5528,-4.1552 6.5528,-7.0471 0,-6.9276 10.946,-18.6147 20.3384,-21.7145 15.7444,-5.1961 31.5222,2.4052 38.3751,18.4915 3.5123,8.2446 10.3847,10.5775 10.3847,3.5237 0,-2.3232 -3.7535,-9.9255 -8.3401,-16.89 -4.5869,-6.9647 -8.3403,-13.4546 -8.3403,-14.4224 0,-2.8210992 10.0546,-11.2235992 18.5944,-15.5413992 7.526,-3.8053 7.8035,-4.4285 6.3392,-14.1930008 -1.7645,-11.7672 0.7067,-15.3081 16.2178,-23.2213 9.1324,-4.659 10.1363,-4.7203 17.7046,-1.1112 11.0196,5.255 13.2726,4.8883 20.5914,-3.3259 4.9602,-5.567 8.3401,-7.1343 15.2844,-7.0904 14.1156,0.089 27.6355,4.0515 31.9332,9.3565 5.3753,6.6347 9.151,6.1417 9.151,-1.1982 0,-12.7482 20.9812,-34.467 37.8135,-39.1425 16.2548,-4.515 36.2961,-1.0203 41.4478,7.2291 4.6452,7.4377 9.1199,5.7175 8.5143,-3.2744 -0.8875,-13.1772 8.0348,-24.704307 22.4303,-28.979107 14.9152,-4.4293 20.3021,-4.4348 27.9906,-0.039 9.1944,5.2558 12.6453,4.5045 11.3141,-2.4598 -1.5953,-8.3446 7.7898,-14.3615 18.9621,-15.3911 1.6759,-0.1539 3.3916,-0.1984 5.1171,-0.1195 z m -97.939,591.0941 c 0.983,0.047 4.467,1.615 7.7432,3.4879 7.3288,4.1896 16.787,4.4457 28.9988,0.787 8.5655,-2.5662 9.5953,-2.3611 13.0383,2.5546 2.0561,2.9357 8.0749,8.4758 13.3743,12.3147 8.9973,6.5174 11.0937,6.9797 31.6248,6.9797 25.4548,0 33.4807,-2.664 48.8785,-16.2176 10.4638,-9.2108 10.967,-9.3764 17.594,-5.9043 6.484,3.3973 13.5556,3.212 26.9819,-0.7 5.193,-1.5129 5.3585,-1.0431 5.3585,14.897 0,27.8963 10.7665,58.2926 28.5322,80.5586 11.7988,14.7877 36.2808,21.5607 104.2663,28.8407 8.1682,0.8746 16.7452,3.0476 19.0611,4.8286 3.6077,2.7745 1.6524,2.9861 -13.6591,1.4829 -22.7263,-2.2311 -45.1388,-1.8079 -86.783,1.641 -29.3161,2.4281 -34.6347,2.2874 -45.7665,-1.214 -16.3787,-5.1518 -20.4551,-3.5684 -19.496,7.5731 0.7299,8.4782 1.0508,8.7228 22.1853,16.8661 16.2686,6.2686 23.6004,10.5979 30.379,17.9342 11.8358,12.8093 11.3248,15.8049 -1.1903,6.9679 -7.6791,-5.4222 -15.595,-8.12 -32.7598,-11.1559 -15.8176,-2.7976 -24.9859,-5.7567 -30.4304,-9.8311 -4.2852,-3.2068 -11.3643,-6.4126 -15.7353,-7.122 -6.8673,-1.1145 -8.1482,-0.5275 -9.4197,4.3262 -1.2126,4.6282 1.2434,8.3543 13.9517,21.1648 8.4826,8.5511 15.4228,17.3456 15.4228,19.5435 0,3.3902 -0.8641,3.2019 -5.6866,-1.2495 -8.0249,-7.4075 -45.7952,-26.0333 -50.8281,-25.0641 -2.3052,0.4438 -4.5926,2.9422 -5.0858,5.5482 -0.493,2.6059 -2.9954,10.3659 -5.5599,17.246 -2.5648,6.88 -5.6877,12.5082 -6.9364,12.5082 -2.2446,0 -6.9165,-9.9218 -6.9165,-14.6873 0,-1.3547 -1.7289,-6.1094 -3.844,-10.5667 -4.4957,-9.474 -9.018,-10.1478 -22.3671,-3.3376 -5.1374,2.621 -11.372,4.7653 -13.8567,4.7653 -2.4848,0 -9.4317,3.7534 -15.4387,8.3403 -6.007,4.5866 -11.5252,8.3401 -12.2592,8.3401 -4.3568,0 0.2503,-7.6857 10.7684,-17.9617 27.4508,-26.8187 26.871,-34.1774 -1.6609,-20.9948 -13.6836,6.3223 -21.9729,8.458 -37.2522,9.6018 -17.0554,1.2766 -20.6833,2.3687 -27.4764,8.265 -10.4788,9.0957 -13.1932,8.5608 -8.3283,-1.6413 4.405,-9.2375 18.1398,-18.8011 40.5147,-28.2079 11.4152,-4.7992 13.8972,-6.8869 14.5449,-12.2513 l 0.7789,-6.4696 -16.269,1.4197 c -8.9477,0.7793 -23.5338,2.1025 -32.4157,2.9422 -11.1292,1.052 -24.0898,0.1619 -41.6969,-2.8632 -33.1509,-5.695 -57.2913,-5.3899 -74.9906,0.9451 -7.5353,2.697 -13.7026,4.0772 -13.7026,3.0649 0,-2.8893 16.8863,-9.5742 27.4012,-10.8474 5.2421,-0.6347 23.4704,-2.8385 40.5068,-4.8958 40.9198,-4.9414 50.1457,-8.1312 63.6566,-22.0033 21.9616,-22.5483 30.4621,-46.2682 30.4621,-85.0114 0,-8.5934 0.8046,-15.5836 1.7874,-15.5375 z"/></g></svg>