<svg version="1.1" id="svg1" width="5078.9116" height="5263.5273" viewBox="478.38813313554783 838.9120722972269 715.1298668644529 805.0181120293734" sodipodi:docname="trees2.svg" inkscape:version="1.4.2 (f4327f4, 2025-05-13)" xmlns:inkscape="http://www.inkscape.org/namespaces/inkscape" xmlns:sodipodi="http://sodipodi.sourceforge.net/DTD/sodipodi-0.dtd" xmlns="http://www.w3.org/2000/svg" xmlns:svg="http://www.w3.org/2000/svg"><defs id="defs1">
    <inkscape:path-effect effect="fill_between_many" method="originald" linkedpaths="#path1,0,1|" id="path-effect50" xmlns:inkscape="http://www.inkscape.org/namespaces/inkscape"/>
    <inkscape:path-effect effect="fill_between_many" method="originald" linkedpaths="#path1,0,1|#path51,0,1|#path2,0,1|#path3,0,1|#path4,0,1|#path5,0,1|#path6,0,1|#path7,0,1|#path8,0,1|#path9,0,1|#path10,0,1|#path11,0,1|#path12,0,1|#path13,0,1|#path14,0,1|#path15,0,1|#path16,0,1|#path17,0,1|#path18,0,1|#path19,0,1|#path20,0,1|#path21,0,1|#path22,0,1|#path23,0,1|#path24,0,1|#path25,0,1|" id="path-effect51" xmlns:inkscape="http://www.inkscape.org/namespaces/inkscape"/>
    <inkscape:path-effect effect="fill_between_many" method="originald" linkedpaths="#path2,0,1|" id="path-effect52" xmlns:inkscape="http://www.inkscape.org/namespaces/inkscape"/>
    <inkscape:path-effect effect="fill_between_many" method="originald" linkedpaths="#path4,0,1|" id="path-effect53" xmlns:inkscape="http://www.inkscape.org/namespaces/inkscape"/>
    <inkscape:path-effect effect="fill_between_many" method="originald" linkedpaths="#path5,0,1|" id="path-effect54" xmlns:inkscape="http://www.inkscape.org/namespaces/inkscape"/>
    <inkscape:path-effect effect="fill_between_many" method="originald" linkedpaths="#path6,0,1|" id="path-effect55" xmlns:inkscape="http://www.inkscape.org/namespaces/inkscape"/>
    <inkscape:path-effect effect="fill_between_many" method="originald" linkedpaths="#path7,0,1|" id="path-effect56" xmlns:inkscape="http://www.inkscape.org/namespaces/inkscape"/>
    <inkscape:path-effect effect="fill_between_many" method="originald" linkedpaths="#path8,0,1|" id="path-effect57" xmlns:inkscape="http://www.inkscape.org/namespaces/inkscape"/>
    <inkscape:path-effect effect="fill_between_many" method="originald" linkedpaths="#path9,0,1|" id="path-effect58" xmlns:inkscape="http://www.inkscape.org/namespaces/inkscape"/>
    <inkscape:path-effect effect="fill_between_many" method="originald" linkedpaths="#path10,0,1|" id="path-effect59" xmlns:inkscape="http://www.inkscape.org/namespaces/inkscape"/>
    <inkscape:path-effect effect="fill_between_many" method="originald" linkedpaths="#path11,0,1|" id="path-effect60" xmlns:inkscape="http://www.inkscape.org/namespaces/inkscape"/>
    <inkscape:path-effect effect="fill_between_many" method="originald" linkedpaths="#path12,0,1|" id="path-effect61" xmlns:inkscape="http://www.inkscape.org/namespaces/inkscape"/>
    <inkscape:path-effect effect="fill_between_many" method="originald" linkedpaths="#path13,0,1|" id="path-effect62" xmlns:inkscape="http://www.inkscape.org/namespaces/inkscape"/>
    <inkscape:path-effect effect="fill_between_many" method="originald" linkedpaths="#path14,0,1|" id="path-effect63" xmlns:inkscape="http://www.inkscape.org/namespaces/inkscape"/>
    <inkscape:path-effect effect="fill_between_many" method="originald" linkedpaths="#path15,0,1|" id="path-effect64" xmlns:inkscape="http://www.inkscape.org/namespaces/inkscape"/>
    <inkscape:path-effect effect="fill_between_many" method="originald" linkedpaths="#path16,0,1|" id="path-effect65" xmlns:inkscape="http://www.inkscape.org/namespaces/inkscape"/>
    <inkscape:path-effect effect="fill_between_many" method="originald" linkedpaths="#path17,0,1|" id="path-effect66" xmlns:inkscape="http://www.inkscape.org/namespaces/inkscape"/>
    <inkscape:path-effect effect="fill_between_many" method="originald" linkedpaths="#path18,0,1|" id="path-effect67" xmlns:inkscape="http://www.inkscape.org/namespaces/inkscape"/>
    <inkscape:path-effect effect="fill_between_many" method="originald" linkedpaths="#path19,0,1|" id="path-effect68" xmlns:inkscape="http://www.inkscape.org/namespaces/inkscape"/>
    <inkscape:path-effect effect="fill_between_many" method="originald" linkedpaths="#path20,0,1|" id="path-effect69" xmlns:inkscape="http://www.inkscape.org/namespaces/inkscape"/>
    <inkscape:path-effect effect="fill_between_many" method="originald" linkedpaths="#path21,0,1|" id="path-effect70" xmlns:inkscape="http://www.inkscape.org/namespaces/inkscape"/>
    <inkscape:path-effect effect="fill_between_many" method="originald" linkedpaths="#path22,0,1|" id="path-effect71" xmlns:inkscape="http://www.inkscape.org/namespaces/inkscape"/>
    <inkscape:path-effect effect="fill_between_many" method="originald" linkedpaths="#path23,0,1|" id="path-effect72" xmlns:inkscape="http://www.inkscape.org/namespaces/inkscape"/>
    <inkscape:path-effect effect="fill_between_many" method="originald" linkedpaths="#path24,0,1|" id="path-effect73" xmlns:inkscape="http://www.inkscape.org/namespaces/inkscape"/>
    <inkscape:path-effect effect="fill_between_many" method="originald" linkedpaths="#path25,0,1|" id="path-effect74" xmlns:inkscape="http://www.inkscape.org/namespaces/inkscape"/>
  </defs><g><path xmlns:inkscape="http://www.inkscape.org/namespaces/inkscape" inkscape:original-d="M 0,0" inkscape:path-effect="#path-effect53" d="m 781.85129,1642.4277 c -10.23386,-1.3561 -11.68545,-2.7879 -7.06532,-6.969 3.26064,-2.9509 7.59878,-17.3293 8.66689,-28.7258 0.44674,-4.7667 1.38002,-11.6667 2.07396,-15.3334 0.69394,-3.6666 1.5789,-10.2666 1.96657,-14.6666 0.78551,-8.9155 0.98767,-10.1935 4.00738,-25.3334 2.52789,-12.674 5.14037,-49.8353 5.01482,-71.3333 -0.0493,-8.4333 -0.11084,-19.5333 -0.13687,-24.6667 -0.026,-5.1333 0.0697,-11.8836 0.21263,-15.0005 l 0.25994,-5.6673 -21.33334,0.059 c -15.08881,0.042 -22.89446,0.6215 -26.66666,1.9805 -6.53447,2.3541 -21.61954,2.5165 -25.5688,0.2752 -1.59618,-0.9058 -5.72175,-3.297 -9.16794,-5.3136 l -6.2658,-3.6667 H 678.9817 c -15.87687,0 -33.88021,-0.6286 -40.00743,-1.3969 -11.00464,-1.3799 -11.25888,-1.4976 -20.86448,-9.6667 -7.67192,-6.5245 -9.74532,-9.062 -9.82464,-12.0241 -0.21664,-8.0903 -1.6384,-8.9123 -15.41515,-8.9123 -6.90477,0 -15.64755,-0.6634 -19.4284,-1.4743 -6.17212,-1.3236 -17.34532,-7.4326 -19.25976,-10.5302 -0.92151,-1.491 -16.1573,-9.2983 -18.37043,-9.4135 -0.89474,-0.047 -5.22679,-3.031 -9.62679,-6.6321 -4.4,-3.601 -11.41603,-9.1129 -15.59118,-12.2486 -4.17515,-3.1357 -7.62515,-6.4701 -7.66667,-7.4098 -0.0415,-0.9397 -0.90826,-2.0281 -1.92609,-2.4187 -2.40969,-0.9247 -4.49373,-9.4039 -5.34758,-21.7575 -0.37577,-5.4365 -1.29005,-10.2597 -2.03175,-10.7181 -0.7417,-0.4584 -2.0743,-5.3103 -2.96134,-10.782 -0.88704,-5.4717 -2.40688,-10.6147 -3.37743,-11.4289 -1.24898,-1.0477 -1.76463,-5.4012 -1.76463,-14.8982 0,-14.1973 -1.97562,-26.2553 -4.86498,-29.693 -1.37419,-1.6349 -1.56092,-8.0776 -0.88607,-30.5702 0.96104,-32.0308 1.16842,-32.7742 12.08439,-43.3233 3.11666,-3.0119 5.66666,-6.1238 5.66666,-6.9153 0,-2.5167 18.42613,-16.9115 29.05178,-22.6957 l 10.24327,-5.5761 1.56879,-10.1463 c 0.86283,-5.5805 2.15642,-10.8712 2.87464,-11.7573 0.71821,-0.886 2.03328,-5.2109 2.92237,-9.6109 0.88909,-4.4 2.40335,-8.9 3.36502,-10 0.96167,-1.1 2.16203,-4.2286 2.66746,-6.9525 0.50543,-2.7238 1.79086,-5.6761 2.85652,-6.5605 1.06565,-0.8844 2.77475,-3.6117 3.79798,-6.0606 1.02324,-2.449 4.43857,-7.7003 7.58963,-11.6696 9.40536,-11.8478 22.935,-30.2026 24.87192,-33.7422 1.53929,-2.813 1.48954,-5.0547 -0.33334,-15.0184 -1.17849,-6.4415 -2.1427,-13.2758 -2.1427,-15.1873 0,-1.91162 -0.6,-3.47562 -1.33334,-3.47562 -0.78363,1e-5 -1.33333,-4.64224 -1.33333,-11.26007 v -11.26008 l 7.46491,-6.08087 c 4.10571,-3.34449 9.05571,-6.46018 11,-6.92378 1.9443,-0.46359 4.23604,-1.39292 5.09275,-2.06517 0.85672,-0.67225 6.51565,-2.40646 12.57541,-3.85379 6.05976,-1.44734 11.898,-3.36458 12.97386,-4.26054 1.21724,-1.01371 8.55434,-1.88084 19.42459,-2.29569 15.88164,-0.60611 17.86212,-0.96196 21.80181,-3.91741 4.15358,-3.11589 4.33334,-3.63107 4.33334,-12.41877 0,-6.81996 0.81089,-10.93895 3.16612,-16.08259 3.22299,-7.03876 15.13499,-19.58123 18.59694,-19.58123 1.03252,0 3.33532,-1.14687 5.11734,-2.5486 1.78201,-1.40173 6.76377,-3.2 11.07058,-3.99616 4.3068,-0.79616 8.7871,-2.31322 9.9562,-3.37124 2.18345,-1.976 15.99196,-4.72267 23.83264,-4.74059 7.73935,-0.0177 15.59291,-4.62309 19.86778,-11.65066 2.12765,-3.49768 4.69341,-8.45942 5.70169,-11.02608 2.12415,-5.40718 8.98489,-14.66667 10.86715,-14.66667 0.70714,0 3.76942,-1.2 6.80507,-2.66667 6.73872,-3.25579 27.68779,-3.87661 30.16329,-0.89387 0.85,1.02427 3.1073,1.53266 5.3462,1.20407 2.2574,-0.33131 5.2984,0.36395 7.2848,1.66553 1.8755,1.22885 6.5931,2.76742 10.4837,3.41905 12.5399,2.10031 15.7405,2.88844 15.7405,3.87602 0,1.6647 17.8842,4.43076 23.4068,3.6202 2.8929,-0.4246 10.6599,-1.72812 17.2599,-2.89671 6.6,-1.16859 14.1,-2.46406 16.6666,-2.87883 2.5667,-0.41476 5.5667,-1.50534 6.6667,-2.42351 2.9719,-2.48062 18.1918,-3.99176 40.383,-4.00951 13.1618,-0.0105 20.0323,0.48261 20.6667,1.48339 0.5227,0.82453 2.9547,1.93417 5.4046,2.46585 2.7102,0.58816 7.56091,3.88331 12.38781,8.41513 4.3634,4.09664 9.5589,8.46098 11.5456,9.69853 1.9868,1.23756 5.3745,4.12613 7.5284,6.41905 2.1539,2.29292 5.0039,4.16895 6.3333,4.16895 1.3295,0 2.4173,0.54753 2.4173,1.21674 0,0.6692 2.9188,4.7192 6.4862,9 4.4188,5.30248 7.2103,10.28631 8.7581,15.63643 1.2496,4.31924 3.1831,9.24378 4.2967,10.94342 2.0342,3.10453 1.9462,11.2303 -0.277,25.56876 l -0.8836,5.69869 11.356,10.96798 c 6.2458,6.03239 12.2707,12.81168 13.3885,15.06509 1.1179,2.25341 2.9252,4.83795 4.0162,5.74342 1.0911,0.90547 2.3984,4.10066 2.9052,7.10042 0.5068,2.99976 1.8235,7.61293 2.9259,10.25149 2.5845,6.18543 4.0911,36.6597 1.8801,38.0262 -0.8355,0.5163 -1.519,2.0534 -1.519,3.4156 0,1.3623 -0.7425,2.7244 -1.6499,3.0269 -1.1445,0.3815 -1.7935,5.2155 -2.1185,15.7778 l -0.4686,15.2278 4.1185,3.9161 c 2.2652,2.1539 4.1185,4.7039 4.1185,5.6667 0,0.9628 0.9,1.7505 2,1.7505 1.1,0 2,0.6257 2,1.3905 0,2.5042 12.3038,14.6095 14.8491,14.6095 1.3663,0 2.4842,0.8789 2.4842,1.9531 0,1.0742 1.35,2.6711 3,3.5488 5.7228,3.0439 16.9167,16.0313 17.7789,20.6274 0.9665,5.1517 0.1826,13.3634 -2.0877,21.8707 -0.9643,3.6134 -1.3781,11.3599 -1.0402,19.4749 0.4629,11.1178 1.0673,14.1859 3.455,17.5392 1.5917,2.2353 2.894,4.5956 2.894,5.2451 0,0.6495 2.445,3.8569 5.4334,7.1275 2.9883,3.2707 7.8631,10.0075 10.8329,14.9707 2.9697,4.9632 5.9247,9.3486 6.5666,9.7454 1.6262,1.005 1.4709,15.2305 -0.1662,15.2305 -0.7333,0 -1.3333,0.8359 -1.3333,1.8574 0,1.0215 -0.8055,2.1664 -1.79,2.5442 -3.0217,1.1595 -6.2116,9.6573 -6.1813,16.4666 0.026,5.9373 0.5785,7.0367 6.7612,13.4652 3.7029,3.85 7.14,7.0227 7.638,7.0506 0.8144,0.046 5.4932,6.0585 10.9054,14.0154 1.1,1.6172 4.25,6.226 7,10.2418 2.75,4.0159 5,7.6628 5,8.1043 0,0.4415 1.5,3.0132 3.3333,5.7147 3.0973,4.5641 3.3334,6.0445 3.3334,20.9045 0,8.796 -0.6475,18.4622 -1.4389,21.4807 -3.2155,12.264 -4.5014,16.1912 -5.5405,16.9218 -0.6001,0.4219 -1.406,4.0219 -1.7908,8 -0.9217,9.5283 -3.1762,16.927 -5.4203,17.7881 -0.9952,0.3819 -1.8095,1.5311 -1.8095,2.5538 0,3.3527 -23.4318,23.3584 -30.6667,26.1828 -2.5667,1.0019 -5.441,2.4148 -6.3873,3.1397 -0.9464,0.7249 -13.1437,1.7946 -27.1052,2.3773 -27.242,1.1368 -37.3941,2.2058 -38.5994,4.0643 -0.4172,0.6433 -5.1732,2.0901 -10.5689,3.2151 -11.2074,2.3369 -12.0059,2.6909 -12.0059,5.3238 0,1.0567 -0.9,1.9213 -2,1.9213 -1.1,0 -2,0.505 -2,1.1223 0,2.0275 -9.9209,4.1488 -23.5945,5.0448 -11.8945,0.7795 -14.1119,0.5665 -19.2572,-1.8502 -8.31331,-3.9045 -32.27021,-4.9641 -37.12331,-1.6418 -1.8471,1.2644 -6.8083,4.5119 -11.025,7.2165 -4.2166,2.7047 -7.6666,5.7155 -7.6666,6.6908 0,2.4651 -4.3257,3.3781 -16.1048,3.3994 -9.1004,0.016 -10.7294,-0.3956 -16.3899,-4.1449 -3.4568,-2.2897 -7.77,-6.1099 -9.5848,-8.4893 -6.3769,-8.3606 -19.6701,-13.2335 -44.9136,-16.4642 l -7.6597,-0.9803 -1.0069,4.7151 c -1.74,8.1475 -0.8107,58.0237 1.1474,61.5797 1.2538,2.2769 1.7818,11.532 1.9286,33.8021 0.1412,21.4212 0.8345,34.0834 2.2995,42 1.1536,6.2333 2.4569,13.7138 2.8963,16.6233 0.4394,2.9094 2.8814,12.9762 5.4267,22.3706 2.5453,9.3944 4.6278,18.1719 4.6278,19.5057 0,2.0344 -2.1377,2.78 -13.2731,4.6294 -14.9101,2.4762 -60.13735,2.8083 -77.0602,0.5658 z" id="path54"/><path style="fill:#1a1a1a" d="m 781.85129,1642.4277 c -10.23386,-1.3561 -11.68545,-2.7879 -7.06532,-6.969 3.26064,-2.9509 7.59878,-17.3293 8.66689,-28.7258 0.44674,-4.7667 1.38002,-11.6667 2.07396,-15.3334 0.69394,-3.6666 1.5789,-10.2666 1.96657,-14.6666 0.78551,-8.9155 0.98767,-10.1935 4.00738,-25.3334 2.52789,-12.674 5.14037,-49.8353 5.01482,-71.3333 -0.0493,-8.4333 -0.11084,-19.5333 -0.13687,-24.6667 -0.026,-5.1333 0.0697,-11.8836 0.21263,-15.0005 l 0.25994,-5.6673 -21.33334,0.059 c -15.08881,0.042 -22.89446,0.6215 -26.66666,1.9805 -6.53447,2.3541 -21.61954,2.5165 -25.5688,0.2752 -1.59618,-0.9058 -5.72175,-3.297 -9.16794,-5.3136 l -6.2658,-3.6667 H 678.9817 c -15.87687,0 -33.88021,-0.6286 -40.00743,-1.3969 -11.00464,-1.3799 -11.25888,-1.4976 -20.86448,-9.6667 -7.67192,-6.5245 -9.74532,-9.062 -9.82464,-12.0241 -0.21664,-8.0903 -1.6384,-8.9123 -15.41515,-8.9123 -6.90477,0 -15.64755,-0.6634 -19.4284,-1.4743 -6.17212,-1.3236 -17.34532,-7.4326 -19.25976,-10.5302 -0.92151,-1.491 -16.1573,-9.2983 -18.37043,-9.4135 -0.89474,-0.047 -5.22679,-3.031 -9.62679,-6.6321 -4.4,-3.601 -11.41603,-9.1129 -15.59118,-12.2486 -4.17515,-3.1357 -7.62515,-6.4701 -7.66667,-7.4098 -0.0415,-0.9397 -0.90826,-2.0281 -1.92609,-2.4187 -2.40969,-0.9247 -4.49373,-9.4039 -5.34758,-21.7575 -0.37577,-5.4365 -1.29005,-10.2597 -2.03175,-10.7181 -0.7417,-0.4584 -2.0743,-5.3103 -2.96134,-10.782 -0.88704,-5.4717 -2.40688,-10.6147 -3.37743,-11.4289 -1.24898,-1.0477 -1.76463,-5.4012 -1.76463,-14.8982 0,-14.1973 -1.97562,-26.2553 -4.86498,-29.693 -1.37419,-1.6349 -1.56092,-8.0776 -0.88607,-30.5702 0.96104,-32.0308 1.16842,-32.7742 12.08439,-43.3233 3.11666,-3.0119 5.66666,-6.1238 5.66666,-6.9153 0,-2.5167 18.42613,-16.9115 29.05178,-22.6957 l 10.24327,-5.5761 1.56879,-10.1463 c 0.86283,-5.5805 2.15642,-10.8712 2.87464,-11.7573 0.71821,-0.886 2.03328,-5.2109 2.92237,-9.6109 0.88909,-4.4 2.40335,-8.9 3.36502,-10 0.96167,-1.1 2.16203,-4.2286 2.66746,-6.9525 0.50543,-2.7238 1.79086,-5.6761 2.85652,-6.5605 1.06565,-0.8844 2.77475,-3.6117 3.79798,-6.0606 1.02324,-2.449 4.43857,-7.7003 7.58963,-11.6696 9.40536,-11.8478 22.935,-30.2026 24.87192,-33.7422 1.53929,-2.813 1.48954,-5.0547 -0.33334,-15.0184 -1.17849,-6.4415 -2.1427,-13.2758 -2.1427,-15.1873 0,-1.91162 -0.6,-3.47562 -1.33334,-3.47562 -0.78363,1e-5 -1.33333,-4.64224 -1.33333,-11.26007 v -11.26008 l 7.46491,-6.08087 c 4.10571,-3.34449 9.05571,-6.46018 11,-6.92378 1.9443,-0.46359 4.23604,-1.39292 5.09275,-2.06517 0.85672,-0.67225 6.51565,-2.40646 12.57541,-3.85379 6.05976,-1.44734 11.898,-3.36458 12.97386,-4.26054 1.21724,-1.01371 8.55434,-1.88084 19.42459,-2.29569 15.88164,-0.60611 17.86212,-0.96196 21.80181,-3.91741 4.15358,-3.11589 4.33334,-3.63107 4.33334,-12.41877 0,-6.81996 0.81089,-10.93895 3.16612,-16.08259 3.22299,-7.03876 15.13499,-19.58123 18.59694,-19.58123 1.03252,0 3.33532,-1.14687 5.11734,-2.5486 1.78201,-1.40173 6.76377,-3.2 11.07058,-3.99616 4.3068,-0.79616 8.7871,-2.31322 9.9562,-3.37124 2.18345,-1.976 15.99196,-4.72267 23.83264,-4.74059 7.73935,-0.0177 15.59291,-4.62309 19.86778,-11.65066 2.12765,-3.49768 4.69341,-8.45942 5.70169,-11.02608 2.12415,-5.40718 8.98489,-14.66667 10.86715,-14.66667 0.70714,0 3.76942,-1.2 6.80507,-2.66667 6.73872,-3.25579 27.68779,-3.87661 30.16329,-0.89387 0.85,1.02427 3.1073,1.53266 5.3462,1.20407 2.2574,-0.33131 5.2984,0.36395 7.2848,1.66553 1.8755,1.22885 6.5931,2.76742 10.4837,3.41905 12.5399,2.10031 15.7405,2.88844 15.7405,3.87602 0,1.6647 17.8842,4.43076 23.4068,3.6202 2.8929,-0.4246 10.6599,-1.72812 17.2599,-2.89671 6.6,-1.16859 14.1,-2.46406 16.6666,-2.87883 2.5667,-0.41476 5.5667,-1.50534 6.6667,-2.42351 2.9719,-2.48062 18.1918,-3.99176 40.383,-4.00951 13.1618,-0.0105 20.0323,0.48261 20.6667,1.48339 0.5227,0.82453 2.9547,1.93417 5.4046,2.46585 2.7102,0.58816 7.56091,3.88331 12.38781,8.41513 4.3634,4.09664 9.5589,8.46098 11.5456,9.69853 1.9868,1.23756 5.3745,4.12613 7.5284,6.41905 2.1539,2.29292 5.0039,4.16895 6.3333,4.16895 1.3295,0 2.4173,0.54753 2.4173,1.21674 0,0.6692 2.9188,4.7192 6.4862,9 4.4188,5.30248 7.2103,10.28631 8.7581,15.63643 1.2496,4.31924 3.1831,9.24378 4.2967,10.94342 2.0342,3.10453 1.9462,11.2303 -0.277,25.56876 l -0.8836,5.69869 11.356,10.96798 c 6.2458,6.03239 12.2707,12.81168 13.3885,15.06509 1.1179,2.25341 2.9252,4.83795 4.0162,5.74342 1.0911,0.90547 2.3984,4.10066 2.9052,7.10042 0.5068,2.99976 1.8235,7.61293 2.9259,10.25149 2.5845,6.18543 4.0911,36.6597 1.8801,38.0262 -0.8355,0.5163 -1.519,2.0534 -1.519,3.4156 0,1.3623 -0.7425,2.7244 -1.6499,3.0269 -1.1445,0.3815 -1.7935,5.2155 -2.1185,15.7778 l -0.4686,15.2278 4.1185,3.9161 c 2.2652,2.1539 4.1185,4.7039 4.1185,5.6667 0,0.9628 0.9,1.7505 2,1.7505 1.1,0 2,0.6257 2,1.3905 0,2.5042 12.3038,14.6095 14.8491,14.6095 1.3663,0 2.4842,0.8789 2.4842,1.9531 0,1.0742 1.35,2.6711 3,3.5488 5.7228,3.0439 16.9167,16.0313 17.7789,20.6274 0.9665,5.1517 0.1826,13.3634 -2.0877,21.8707 -0.9643,3.6134 -1.3781,11.3599 -1.0402,19.4749 0.4629,11.1178 1.0673,14.1859 3.455,17.5392 1.5917,2.2353 2.894,4.5956 2.894,5.2451 0,0.6495 2.445,3.8569 5.4334,7.1275 2.9883,3.2707 7.8631,10.0075 10.8329,14.9707 2.9697,4.9632 5.9247,9.3486 6.5666,9.7454 1.6262,1.005 1.4709,15.2305 -0.1662,15.2305 -0.7333,0 -1.3333,0.8359 -1.3333,1.8574 0,1.0215 -0.8055,2.1664 -1.79,2.5442 -3.0217,1.1595 -6.2116,9.6573 -6.1813,16.4666 0.026,5.9373 0.5785,7.0367 6.7612,13.4652 3.7029,3.85 7.14,7.0227 7.638,7.0506 0.8144,0.046 5.4932,6.0585 10.9054,14.0154 1.1,1.6172 4.25,6.226 7,10.2418 2.75,4.0159 5,7.6628 5,8.1043 0,0.4415 1.5,3.0132 3.3333,5.7147 3.0973,4.5641 3.3334,6.0445 3.3334,20.9045 0,8.796 -0.6475,18.4622 -1.4389,21.4807 -3.2155,12.264 -4.5014,16.1912 -5.5405,16.9218 -0.6001,0.4219 -1.406,4.0219 -1.7908,8 -0.9217,9.5283 -3.1762,16.927 -5.4203,17.7881 -0.9952,0.3819 -1.8095,1.5311 -1.8095,2.5538 0,3.3527 -23.4318,23.3584 -30.6667,26.1828 -2.5667,1.0019 -5.441,2.4148 -6.3873,3.1397 -0.9464,0.7249 -13.1437,1.7946 -27.1052,2.3773 -27.242,1.1368 -37.3941,2.2058 -38.5994,4.0643 -0.4172,0.6433 -5.1732,2.0901 -10.5689,3.2151 -11.2074,2.3369 -12.0059,2.6909 -12.0059,5.3238 0,1.0567 -0.9,1.9213 -2,1.9213 -1.1,0 -2,0.505 -2,1.1223 0,2.0275 -9.9209,4.1488 -23.5945,5.0448 -11.8945,0.7795 -14.1119,0.5665 -19.2572,-1.8502 -8.31331,-3.9045 -32.27021,-4.9641 -37.12331,-1.6418 -1.8471,1.2644 -6.8083,4.5119 -11.025,7.2165 -4.2166,2.7047 -7.6666,5.7155 -7.6666,6.6908 0,2.4651 -4.3257,3.3781 -16.1048,3.3994 -9.1004,0.016 -10.7294,-0.3956 -16.3899,-4.1449 -3.4568,-2.2897 -7.77,-6.1099 -9.5848,-8.4893 -6.3769,-8.3606 -19.6701,-13.2335 -44.9136,-16.4642 l -7.6597,-0.9803 -1.0069,4.7151 c -1.74,8.1475 -0.8107,58.0237 1.1474,61.5797 1.2538,2.2769 1.7818,11.532 1.9286,33.8021 0.1412,21.4212 0.8345,34.0834 2.2995,42 1.1536,6.2333 2.4569,13.7138 2.8963,16.6233 0.4394,2.9094 2.8814,12.9762 5.4267,22.3706 2.5453,9.3944 4.6278,18.1719 4.6278,19.5057 0,2.0344 -2.1377,2.78 -13.2731,4.6294 -14.9101,2.4762 -60.13735,2.8083 -77.0602,0.5658 z m 163.7116,-183.0823 c 0.9376,-1.1298 6.9471,-5.5607 13.3544,-9.8464 l 11.6496,-7.7923 15.1422,0.6041 c 11.94569,0.4766 16.23491,1.1867 20.31851,3.3641 4.585,2.4448 6.5858,2.661 17.5142,1.8929 14.8392,-1.0431 19.9827,-2.6108 25.4527,-7.7577 2.9707,-2.7952 6.6923,-4.4318 13.1508,-5.7831 4.9542,-1.0365 9.6898,-2.4339 10.5235,-3.1053 2.5328,-2.0396 11.1203,-2.9493 38.2418,-4.0511 23.1372,-0.94 26.445,-1.3641 30.6074,-3.9242 2.5666,-1.5786 5.5666,-2.9096 6.6666,-2.9577 2.851,-0.1248 21.372,-15.911 24.206,-20.6318 4.5346,-7.5534 6.4607,-12.9774 6.4607,-18.1933 0,-2.884 1.302,-8.0608 2.8934,-11.5039 4.0451,-8.7518 5.3593,-15.979 6.022,-33.1156 0.4524,-11.6977 0.125,-15.8073 -1.5403,-19.3334 -4.0123,-8.4957 -10.7172,-19.6541 -13.7084,-22.814 -1.65,-1.743 -3,-3.8368 -3,-4.653 0,-0.8162 -1.5,-2.6638 -3.3334,-4.1059 -1.8333,-1.4421 -3.3333,-2.9895 -3.3333,-3.4387 0,-0.4491 -4.2,-5.1348 -9.3333,-10.4126 l -9.3334,-9.5961 v -8.6708 c 0,-7.9599 0.4373,-9.2943 5.3334,-16.2741 5.7396,-8.1824 7.2803,-16.5159 3.3333,-18.0305 -1.1,-0.4221 -2,-1.9221 -2,-3.3333 0,-1.4112 -0.871,-2.9001 -1.9355,-3.3086 -1.0645,-0.4085 -2.608,-2.7803 -3.4299,-5.2706 -0.8219,-2.4904 -2.9509,-5.6737 -4.7311,-7.074 -1.7803,-1.4003 -3.2368,-3.1693 -3.2368,-3.931 0,-0.7617 -1.1583,-1.7526 -2.574,-2.2019 -1.4442,-0.4583 -2.9538,-2.5461 -3.4393,-4.7565 -0.4759,-2.1668 -1.4176,-3.9396 -2.0927,-3.9396 -0.675,0 -1.2274,-0.85 -1.2274,-1.8888 0,-1.0389 -0.719,-2.1286 -1.5979,-2.4216 -1.0879,-0.3626 -1.7766,-5.8974 -2.1574,-17.3385 -0.4479,-13.4514 -0.094,-18.2863 1.7737,-24.2237 2.6995,-8.5824 2.1053,-19.0977 -1.2164,-21.5266 -1.1744,-0.8588 -2.1353,-2.2453 -2.1353,-3.0811 0,-0.8358 -0.4561,-1.5197 -1.0136,-1.5197 -0.5575,0 -2.7797,-1.65 -4.9383,-3.6666 -2.1585,-2.0167 -6.0524,-5.366 -8.653,-7.4428 -8.9868,-7.1769 -22.7284,-20.9656 -22.7284,-22.8063 0,-1.0159 -1.8,-3.3618 -4,-5.213 -3.9792,-3.3482 -4,-3.439 -4,-17.4378 0,-12.1068 0.4925,-15.3024 3.5268,-22.8821 3.2624,-8.1492 3.4661,-9.8073 2.7167,-22.1096 -0.4548,-7.4644 -1.6778,-15.03857 -2.7874,-17.26284 -1.0874,-2.17972 -2.3842,-6.67802 -2.8818,-9.99623 -0.5594,-3.73089 -1.8592,-6.62924 -3.4062,-7.59532 -1.3758,-0.85922 -2.5015,-2.61788 -2.5015,-3.90815 0,-1.29026 -0.6,-2.34594 -1.3333,-2.34594 -0.7333,0 -1.3333,-0.85984 -1.3333,-1.91075 0,-1.05091 -4.3961,-5.70091 -9.7692,-10.33333 -11.6442,-10.03925 -13.6083,-13.61484 -12.1949,-22.20025 1.5485,-9.40611 1.4773,-21.53499 -0.1326,-22.60513 -0.7866,-0.52279 -2.5026,-4.85054 -3.8135,-9.6172 -2.2543,-8.19712 -11.4755,-22.43911 -14.635,-22.60359 -0.6665,-0.0347 -4.2665,-2.79643 -8,-6.1372 -17.9386,-16.05163 -25.23891,-21.92656 -27.25601,-21.93409 -1.2093,-0.005 -3.9988,-1.01755 -6.1988,-2.25118 -7.2593,-4.07055 -55.8436,-2.61217 -59.4937,1.78586 -0.8247,0.99377 -3.7906,1.80686 -6.5909,1.80686 -2.8003,0 -5.4079,0.51208 -5.7947,1.13796 -0.3868,0.62588 -5.0591,1.54279 -10.3829,2.03759 -5.3238,0.49479 -10.2628,1.48271 -10.9754,2.19537 -2.7325,2.7325 -23.9286,1.06437 -33.4291,-2.63087 -6.3855,-2.48366 -12.4267,-4.07338 -15.4794,-4.07338 -1.8096,0 -5.6438,-1.2 -8.5206,-2.66667 -2.8768,-1.46666 -6.2682,-2.66666 -7.5366,-2.66666 -1.2683,0 -2.6095,-0.49111 -2.9805,-1.09135 -0.9717,-1.57226 -27.4829,-2.03373 -27.4829,-0.47839 0,0.70147 -2.7,2.07261 -6,3.04699 -3.3,0.97437 -6,2.4764 -6,3.33785 0,0.86144 -0.75,1.85507 -1.66667,2.20807 -0.91667,0.35299 -2.46998,3.37345 -3.45181,6.71213 -0.98182,3.33867 -2.63182,6.39522 -3.66666,6.79233 -1.03484,0.3971 -1.88153,1.94084 -1.88153,3.43052 0,1.48968 -0.52721,2.70851 -1.17157,2.70851 -0.64437,0 -1.89554,1.7478 -2.78038,3.884 -0.99338,2.39823 -2.96283,4.22383 -5.1484,4.77238 -1.94678,0.48861 -3.90886,1.48585 -4.36017,2.21608 -0.45131,0.73024 -7.87106,2.14736 -16.48833,3.14916 -10.1773,1.18316 -16.47408,2.55116 -17.96869,3.90376 -1.26551,1.14527 -5.80697,2.73043 -10.09214,3.52259 -4.28517,0.79216 -9.9253,2.89043 -12.53362,4.66283 -2.60831,1.77239 -5.38541,3.22254 -6.17132,3.22254 -2.20241,0 -9.53799,8.2644 -10.65134,12 -0.5464,1.83333 -1.60861,3.72809 -2.36047,4.21057 -0.75186,0.48248 -1.65652,5.88248 -2.01035,12 -0.61314,10.60082 -2.90946,16.97004 -6.15823,17.08086 -0.67559,0.0231 -2.3859,1.0919 -3.80067,2.37523 -2.0901,1.89591 -5.93104,2.45831 -20.48855,3 -12.29042,0.45733 -18.2397,1.1909 -18.94642,2.33615 -0.56662,0.91822 -6.09402,2.81012 -12.28311,4.20422 -6.1891,1.3941 -13.77392,3.79284 -16.85517,5.33052 -3.08124,1.53768 -6.19721,2.79578 -6.92439,2.79578 -0.72717,0 -2.10616,1.08951 -3.06441,2.42114 -0.95825,1.33162 -2.79227,2.81279 -4.0756,3.29149 -1.8959,0.70718 -2.33334,2.50635 -2.33334,9.59695 0,4.79963 0.55108,9.76846 1.22461,11.04185 2.06787,3.9095 5.84528,30.63248 4.9575,35.07138 -0.46024,2.3012 -2.33949,5.3661 -4.17612,6.8107 -1.83663,1.4447 -3.33932,3.4832 -3.33932,4.53 0,1.0468 -0.61883,1.9032 -1.37518,1.9032 -0.75635,0 -1.74566,0.9655 -2.19847,2.1455 -0.45281,1.18 -2.2923,3.73 -4.08777,5.6666 -3.19983,3.4515 -11.00525,14.4643 -11.00525,15.5275 0,0.2966 -1.4756,2.0148 -3.27911,3.8183 -1.80351,1.8036 -3.70049,4.9808 -4.21551,7.0606 -0.51502,2.0799 -1.98612,4.5282 -3.26911,5.4409 -1.283,0.9126 -2.73292,4.028 -3.22206,6.9232 -0.48913,2.8952 -1.69028,5.9287 -2.66921,6.7411 -0.97893,0.8124 -2.17755,4.3685 -2.66358,7.9024 -0.48604,3.5339 -1.73469,8.0656 -2.77479,10.0704 -1.0401,2.0047 -2.54766,7.6332 -3.35014,12.5076 -0.80247,4.8744 -1.712,10.1911 -2.02118,11.8148 -0.40395,2.1215 -2.04321,3.351 -5.82575,4.3696 -2.895,0.7795 -5.60256,1.9657 -6.0168,2.6359 -0.41424,0.6703 -3.51335,2.5972 -6.88692,4.282 -3.37357,1.6849 -6.42417,3.8202 -6.77912,4.7452 -0.35494,0.9249 -1.25195,1.6817 -1.99335,1.6817 -1.63408,0 -10.76683,7.8111 -11.70003,10.0068 -1.22243,2.8763 -7.80813,9.9932 -9.24726,9.9932 -0.78067,0 -1.41941,0.9 -1.41941,2 0,1.1 -0.6,2 -1.33333,2 -0.73334,0 -1.33334,1.1359 -1.33334,2.5241 0,1.3882 -0.80591,2.8332 -1.79091,3.2112 -2.47047,0.948 -4.15579,55.2524 -1.80273,58.0877 2.9732,3.5825 4.80954,14.2364 4.86813,28.2437 0.0349,8.3456 0.65343,14.6613 1.52077,15.5286 0.80406,0.8041 2.28699,5.792 3.29539,11.0843 1.00841,5.2924 2.51995,10.4496 3.35899,11.4606 0.83903,1.011 1.95306,7.4911 2.47562,14.4002 0.65188,8.619 1.71228,13.7253 3.37829,16.268 2.77692,4.2381 10.0751,11.1916 11.74635,11.1916 0.61724,0 2.63686,1.8 4.48804,4 1.85118,2.2 3.87541,4 4.4983,4 0.62288,0 3.10326,1.8 5.51195,4 2.4087,2.2 5.41032,4 6.67027,4 1.25996,0 2.66165,0.6 3.11488,1.3334 0.45322,0.7333 1.98863,1.3333 3.41202,1.3333 1.42339,0 2.58798,0.6 2.58798,1.3333 0,0.7334 1.19537,1.3334 2.65638,1.3334 1.46101,0 4.26019,1.8 6.22039,4 1.96021,2.2 4.34147,4 5.29168,4 0.95022,0 2.80104,1.1452 4.11294,2.5449 3.00218,3.203 14.88977,5.4495 28.96349,5.4733 5.91531,0.01 12.06738,0.3701 13.67125,0.8002 2.94091,0.7887 5.75053,6.4699 5.75053,11.6279 0,2.7578 4.81754,8.887 6.98517,8.887 0.65285,0 2.63401,1.7197 4.40257,3.8215 2.84101,3.3764 4.58882,3.9976 15.00422,5.3333 6.48376,0.8316 24.85337,1.5119 40.82137,1.5119 27.0138,0 29.26848,0.1854 32.42285,2.6666 1.86456,1.4667 4.29305,2.6667 5.39664,2.6667 1.1036,0 2.68602,0.9293 3.5165,2.065 2.43117,3.3248 15.45682,4.0508 24.0702,1.3416 5.9684,-1.8773 11.27765,-2.2163 29.00961,-1.8522 l 21.70421,0.4456 0.39408,-9.7825 0.39408,-9.7824 -13.06075,-12.9561 c -7.18341,-7.1259 -15.76075,-15.0082 -19.06075,-17.5164 -3.3,-2.5082 -6.3,-4.9358 -6.66666,-5.3948 -0.87433,-1.0943 -23.40171,-16.0821 -29.0921,-19.3555 -2.43398,-1.4001 -5.60102,-4.444 -7.03785,-6.7643 -1.43684,-2.3202 -5.5045,-6.0744 -9.03925,-8.3427 -5.64794,-3.6242 -14.76083,-12.9412 -17.90963,-18.3106 -1.21443,-2.0709 -16.46485,-9.2846 -23.58784,-11.1575 -2.56667,-0.6748 -10.66667,-2.7673 -18,-4.6499 -13.74533,-3.5286 -37.65811,-10.6193 -43.06274,-12.769 -1.6845,-0.6701 -4.52187,-1.2183 -6.30526,-1.2183 -4.51879,0 -22.87686,-6.2555 -29.29867,-9.9834 -6.04068,-3.5068 -12.20185,-9.5925 -10.96428,-10.8301 0.45321,-0.4532 2.8764,0.4444 5.38486,1.9948 2.50847,1.5503 5.72003,2.8187 7.1368,2.8187 1.41678,0 3.14596,0.4867 3.84262,1.0816 1.40076,1.1961 17.19034,4.981 28.6,6.8556 4.03334,0.6627 9.96252,1.8687 13.17597,2.6801 3.21345,0.8114 6.11823,1.1996 6.45508,0.8628 3.2577,-3.2577 -20.65985,-28.117 -30.39003,-31.5867 -4.50128,-1.6051 -6.45519,-3.2493 -8.20753,-6.9066 -2.89468,-6.0415 -9.30725,-10.9481 -16.97635,-12.9896 -5.10259,-1.3584 -5.59533,-1.7765 -3.48493,-2.9576 1.3928,-0.7794 6.26058,-1.0703 11.233,-0.6711 7.20231,0.5781 9.28775,1.3004 11.63561,4.0299 5.68006,6.6035 16.23534,12.9349 21.56407,12.9349 4.7644,0 5.20716,0.3726 8.31881,7 8.23366,17.5367 39.88626,41.6742 60.79326,46.3596 12.02426,2.6947 21.19941,7.0642 26.6847,12.7081 3.00773,3.0948 6.75843,6.0362 8.33489,6.5366 1.57646,0.5003 3.49683,2.0879 4.26751,3.5279 0.77067,1.44 3.74986,4.3195 6.62042,6.399 2.87056,2.0794 4.89996,4.1 4.50979,4.4901 -0.39018,0.3902 1.54868,2.42 4.30858,4.5108 2.75989,2.0907 6.48691,5.1513 8.28227,6.8013 1.79535,1.65 3.68334,3 4.19553,3 0.51219,0 2.67457,1.5113 4.8053,3.3585 10.51657,9.117 38.04919,22.333 40.79846,19.5837 1.67056,-1.6705 -8.8996,-16.9628 -14.72357,-21.3012 -2.67713,-1.9942 -5.1675,-4.0006 -5.53417,-4.4586 -0.36667,-0.458 -3.79452,-2.4103 -7.61745,-4.3384 -7.67208,-3.8695 -16.37335,-10.9347 -16.39905,-13.3155 -0.0268,-2.4799 -8.94442,-7.5285 -13.29813,-7.5285 -2.21029,0 -4.0187,-0.488 -4.0187,-1.0845 0,-0.5965 -2.1,-1.9084 -4.66667,-2.9155 -2.56667,-1.0071 -4.66667,-2.3191 -4.66667,-2.9156 0,-0.5964 -0.9,-1.0844 -2,-1.0844 -1.1,0 -2,-0.6 -2,-1.3334 0,-0.7333 -1.08433,-1.3333 -2.40963,-1.3333 -3.15665,0 -10.9237,-6.4756 -10.9237,-9.1074 0,-1.1297 -1.28346,-3.4202 -2.85213,-5.09 -1.56867,-1.6698 -3.51867,-4.1865 -4.33333,-5.5927 -2.60532,-4.497 -26.53443,-35.4429 -29.54608,-38.2099 -3.27157,-3.0058 -6.35807,-10.9146 -4.66734,-11.9595 0.60969,-0.3768 3.22015,1.6522 5.80102,4.509 2.58088,2.8567 5.49621,5.1572 6.47852,5.1122 4.48753,-0.2055 6.45267,0.4865 6.45267,2.2721 0,1.0635 0.79897,2.4135 1.77549,3 0.97652,0.5864 3.47496,4.2219 5.55208,8.0788 3.36654,6.2511 7.18879,10.4803 23.05174,25.5059 2.40862,2.2815 4.90862,4.1482 5.55555,4.1482 0.64694,0 1.37625,0.4544 1.6207,1.0099 1.48757,3.3802 25.77271,18.9901 29.54397,18.9901 1.40107,0 1.75374,-0.8816 1.2001,-3 -1.818,-6.9561 -6.02006,-11.7656 -13.1151,-15.0109 -6.50606,-2.976 -9.40463,-5.9891 -5.76134,-5.9891 2.01122,0 0.39439,-4.3959 -4.77013,-12.9693 -2.7087,-4.4966 -4.23966,-8.6427 -3.99739,-10.8259 0.21595,-1.946 -0.25464,-3.9424 -1.04578,-4.4365 -0.99799,-0.6233 -0.9078,-1.5378 0.29457,-2.9865 1.54948,-1.867 1.9793,-1.7719 4.05907,0.8983 1.27935,1.6426 3.39221,5.0865 4.69525,7.6532 1.30304,2.5667 3.18788,5.1465 4.18853,5.7329 1.00065,0.5865 1.81936,1.6618 1.81936,2.3896 0,1.73 1.37355,3.2856 13.59249,15.3934 9.77107,9.6821 10.30375,10.5222 11.19666,17.6583 2.61585,20.9055 1.86545,19.6779 13.62818,22.2949 5.5586,1.2367 10.73867,2.7731 11.51127,3.4144 0.7726,0.6413 2.84654,2.3548 4.60875,3.8079 4.70687,3.8812 6.70943,3.3652 6.56403,-1.6914 -0.46452,-16.155 -7.06246,-45.683 -11.36145,-50.8463 -10.75954,-12.9227 -26.47726,-23.6441 -39.42291,-26.8912 -7.65897,-1.9211 -9.14358,-2.7686 -9.86172,-5.6299 -0.46497,-1.8526 -0.1845,-4.4267 0.62327,-5.7201 1.70394,-2.7285 0.531,-4.0099 -8.46336,-9.2458 -3.14931,-1.8334 -9.19773,-5.6962 -13.44095,-8.5841 -7.15328,-4.8684 -8.44755,-5.2686 -17.77794,-5.4967 -5.53464,-0.1353 -12.27272,-1.175 -14.9735,-2.3105 -13.06629,-5.4935 -25.50946,-7.8739 -36.62321,-7.0063 -10.99225,0.8582 -17.79961,0.072 -17.79961,-2.0549 0,-0.6399 1.65,-1.5139 3.66667,-1.9422 2.01666,-0.4284 7.80818,-2.0445 12.87003,-3.5914 8.26168,-2.5247 9.967,-2.6418 16.66666,-1.1445 8.63268,1.9293 28.43667,4.2683 29.2503,3.4547 0.3038,-0.3038 -2.67399,-3.744 -6.61731,-7.645 -6.92819,-6.8537 -7.81678,-7.2864 -26.38124,-12.8464 -21.18477,-6.3448 -28.10995,-6.6037 -38.25693,-1.4305 -2.77758,1.4161 -8.08346,2.9353 -11.79083,3.376 -15.48294,1.8404 -24.26909,5.1437 -34.40735,12.9361 -2.75,2.1137 -5,3.1629 -5,2.3315 0,-2.287 3.55358,-8.6821 5.91208,-10.6395 1.14836,-0.9531 2.08792,-3.1189 2.08792,-4.8131 0,-2.028 1.0248,-3.4 3,-4.0164 1.65,-0.5149 3.3,-1.3196 3.66667,-1.788 0.87079,-1.1127 28.44524,-8.1572 35.33333,-9.0267 2.93333,-0.3703 6.66222,-1.5183 8.28642,-2.5511 3.74159,-2.3791 6.4037,-2.3586 15.92866,0.1223 13.44117,3.501 13.92475,2.6803 5.06548,-8.5961 -6.894,-8.775 -16.51329,-14.7372 -23.77644,-14.7372 -4.25817,0 -5.03007,-0.5467 -6.81956,-4.8295 -2.96331,-7.0922 -2.64759,-8.1177 2.31544,-7.5211 4.30569,0.5177 4.27805,0.4672 -4.33333,-7.9197 -9.02377,-8.7884 -13.51521,-15.7297 -10.17807,-15.7297 0.97062,0 2.90776,1.2792 4.30475,2.8428 1.39699,1.5636 7.50377,5.2217 13.57063,8.1291 7.74555,3.712 12.09333,6.737 14.59892,10.1572 1.96255,2.679 6.9737,8.4709 11.13587,12.8709 4.16218,4.4 12.28449,13.0078 18.04958,19.1285 16.07921,17.0709 26.25964,21.7862 25.68557,11.8966 -0.35291,-6.0794 1.59049,-24.079 2.77391,-25.6918 0.53811,-0.7333 1.74641,-4.1724 2.68511,-7.6425 0.9387,-3.47 2.1876,-6.0119 2.77533,-5.6486 0.58773,0.3632 0.48574,2.6023 -0.22665,4.9757 -1.34195,4.471 -1.69205,18.3136 -0.58125,22.9821 0.34898,1.4666 1.53182,5.0666 2.62854,8 1.09673,2.9333 2.02624,6.5333 2.06559,8 0.2677,9.9773 15.78077,28.6945 28.66792,34.5893 3.71856,1.7009 9.54368,5.7141 12.94472,8.9183 15.0599,14.1881 26.23595,22.0687 34.10877,24.0511 3.88896,0.9792 7.12136,3.0452 10.03103,6.4111 5.28739,6.1166 10.0803,8.9464 10.87562,6.421 2.56462,-8.1433 3.91976,-35.0713 2.22605,-44.2334 -2.44194,-13.2097 -13.31288,-26.6364 -37.06657,-45.7811 -9.31213,-7.5053 -12.64339,-11.0607 -13.86179,-14.7946 -2.48356,-7.6111 -10.66984,-22.4263 -16.20967,-29.3357 -15.41716,-19.2284 -19.1962,-22.0332 -34.41129,-25.5397 -3.99261,-0.9201 -9.65929,-2.7555 -12.59262,-4.0786 -2.93334,-1.3232 -9.45694,-2.8334 -14.49689,-3.3562 -7.42516,-0.7702 -11.21933,-2.1172 -20,-7.1006 -15.98787,-9.0737 -13.44194,-9.0232 30.49689,0.6051 8.8,1.9283 19.8597,3.9765 24.57711,4.5514 5.80614,0.7077 9.14003,1.8152 10.31955,3.4283 3.0433,4.162 3.52119,0.9594 1.24962,-8.3743 -5.57944,-22.9254 -17.90456,-44.8147 -32.60109,-57.8991 -5.22409,-4.6511 -5.68182,-5.4131 -2.87853,-4.7922 12.05887,2.6708 12.42942,2.6854 11.57397,0.4561 -0.45452,-1.1844 -3.19171,-5.3019 -6.08265,-9.1499 -5.40685,-7.1968 -7.32958,-12.3297 -4.61858,-12.3297 1.62349,0 18.49908,21.1776 22.3121,28 1.22957,2.2 4.03298,7 6.22979,10.6667 2.19681,3.6667 4.56799,8.0315 5.26928,9.6995 0.7013,1.6682 3.37234,4.2704 5.93564,5.7827 4.29283,2.5329 4.65399,3.2404 4.57726,8.9672 -0.13194,9.8478 7.58784,32.1759 20.12815,58.2173 2.11884,4.4 5.38629,11.5198 7.261,15.8218 3.36566,7.7233 14.07405,19.6603 24.68002,27.5115 2.47659,1.8333 7.74327,6.3067 11.70373,9.9407 5.80607,5.3276 7.43862,6.2315 8.42848,4.6667 0.6752,-1.0674 1.2519,-3.1407 1.28154,-4.6074 0.0296,-1.4667 0.41578,-8.7415 0.85808,-16.1663 1.26621,-21.2556 -2.49593,-35.1677 -14.19723,-52.5004 -5.61622,-8.319 -9.80235,-17.2196 -13.27589,-28.2274 -2.70322,-8.5666 -11.30177,-22.1192 -21.21785,-33.4425 -14.61608,-16.6903 -24.18017,-33.3992 -24.18017,-42.2439 0,-2.2474 0.35382,-4.0862 0.78628,-4.0862 1.36257,0 5.83134,5.7916 8.74474,11.3333 5.16626,9.8271 12.00651,18.0073 17.98943,21.5136 3.26334,1.9124 6.27545,3.135 6.69357,2.7169 0.88348,-0.8835 -2.7104,-20.7934 -6.53985,-36.2304 -4.53407,-18.27758 -4.59772,-20.44744 -0.47898,-16.3287 1.76538,1.76539 7.47148,17.5596 7.47148,20.6807 0,1.0088 1.7956,4.444 3.99022,7.6337 3.48984,5.0723 6.49097,16.5781 6.65003,25.4949 0.0145,0.8143 1.42406,3.5401 3.1323,6.0574 1.96795,2.8999 3.71456,8.4638 4.76719,15.1861 2.94355,18.7978 8.6935,33.9033 15.76848,41.4249 l 3.62227,3.851 1.12128,-8 c 0.6167,-4.4 0.8559,-15.5588 0.53155,-24.7974 -0.46858,-13.3472 -1.09624,-17.5922 -3.05572,-20.6667 -1.35631,-2.1281 -2.99548,-4.2452 -3.64261,-4.7047 -1.95104,-1.3854 2.04631,-10.4979 4.60508,-10.4979 1.25824,0 2.55556,0.75 2.88294,1.6667 1.53849,4.3076 2.50599,-1.8908 3.81359,-24.4319 1.4511,-25.01464 2.5739,-31.20068 5.4883,-30.2359 1.0993,0.36392 1.7895,4.25288 2.0472,11.53435 0.4519,12.77075 1.8931,13.48445 6.8647,3.39965 4.2703,-8.66214 5.2297,-4.83152 1.6082,6.4213 -4.2314,13.148 -4.3322,14.0591 -4.2348,38.2619 0.022,5.4722 -0.2463,10.8722 -0.5963,12 -0.8342,2.6881 1.8681,6.8032 2.8588,4.3536 1.4857,-3.6731 9.3542,-14.162 11.0474,-14.7264 2.5036,-0.8345 0.851,8.9855 -2.6753,15.8977 -1.4674,2.8762 -4.2335,11.0712 -6.1471,18.2109 -2.9498,11.0067 -3.502,15.9699 -3.6301,32.6262 -0.091,11.8718 0.3524,19.5216 1.121,19.3334 0.6996,-0.1713 1.4119,-1.2115 1.583,-2.3115 0.1711,-1.1 0.7032,-4.7 1.1825,-8 0.4792,-3.3 2.3013,-9.1335 4.049,-12.9634 1.7478,-3.8299 3.552,-8.4545 4.0094,-10.2769 0.4827,-1.9234 5.817,-7.5774 12.7148,-13.4767 6.5357,-5.5897 13.5236,-12.3651 15.5287,-15.0564 2.005,-2.6913 3.9495,-5.1932 4.321,-5.5599 1.4762,-1.4569 6.5503,-13.0745 8.7352,-20 1.2725,-4.0334 2.8291,-8.3752 3.459,-9.6486 0.63,-1.2734 1.1455,-3.2634 1.1455,-4.4223 0,-2.1871 5.0162,-9.4839 10.492,-15.2625 l 3.1588,-3.3333 -0.9161,3.3333 c -5.0675,18.4394 -5.9066,22.315 -5.2731,24.3543 1.0167,3.2727 -1.6114,10.5869 -7.1367,19.8623 -2.5774,4.3267 -4.2917,8.2611 -3.8096,8.7432 1.1993,1.1993 12.818,-4.5707 12.818,-6.3656 0,-1.7604 5.5706,-0.2266 6.9696,1.9189 0.5332,0.8178 0.6588,2.4865 0.2791,3.7081 -0.3798,1.2216 -0.066,2.607 0.6971,3.0787 3.098,1.9147 1.0619,4.4656 -4.7282,5.9236 -5.2972,1.3338 -17.2728,6.8205 -33.8317,15.5001 -6.3983,3.3538 -15.579,13.1147 -16.526,17.5705 -0.4332,2.0383 -1.4427,7.6059 -2.2433,12.3726 -1.5205,9.0529 -3.8708,21.7437 -7.161,38.6667 -3.2387,16.6585 -6.2389,68.014 -3.9716,67.9847 1.6405,-0.021 5.3093,-8.2303 8.6337,-19.3181 1.5392,-5.1333 3.3423,-9.9033 4.007,-10.6 0.6648,-0.6966 1.2086,-2.3966 1.2086,-3.7778 0,-1.3811 1.95,-4.4318 4.3334,-6.7792 9.4646,-9.3221 26.9198,-34.8553 29.5992,-43.2971 0.5026,-1.5836 1.4188,-2.8792 2.0361,-2.8792 1.3602,0 15.1423,-12.466 25.4892,-23.0552 7.9349,-8.1207 12.9966,-19.3118 11.2392,-24.849 -0.4677,-1.4736 0.3635,-7.348 1.847,-13.0542 1.4836,-5.7062 3.9537,-18.7749 5.4892,-29.0416 2.633,-17.6053 6.0583,-29.9838 8.3001,-29.995 0.55,0 1,-0.9624 1,-2.1326 0,-2.7062 4.1899,-9.8724 5.7722,-9.8724 1.3585,0 0.248,8.7757 -2.4144,19.079 -2.8239,10.928 -3.9142,20.0019 -2.3341,19.4244 1.8211,-0.6655 29.245,-37.8158 30.248,-40.9761 0.6647,-2.0941 2.3697,-3.3351 9.0616,-6.5956 2.011,-0.9798 0.9157,2.5882 -2.4134,7.8617 -2.2735,3.6016 -2.9927,5.9302 -2.1535,6.9735 1.9861,2.4694 -0.1567,6.2569 -9.1615,16.1934 -6.4485,7.1156 -10.2986,13.2439 -16.7369,26.6406 -8.065,16.7814 -15.2014,37.5604 -15.2014,44.2618 0,2.9029 0.2941,3.0737 2.8951,1.6817 5.497,-2.9419 9.7359,-9.4433 11.1433,-17.0907 1.2496,-6.7908 1.684,-7.459 4.8842,-7.514 2.5044,-0.043 5.305,-2.054 9.7584,-7.0072 3.4352,-3.8208 7.8373,-7.3361 9.7824,-7.8117 1.9452,-0.4756 3.9261,-1.4597 4.4021,-2.187 0.4759,-0.7273 1.8686,-0.9374 3.0947,-0.4669 2.019,0.7748 1.963,1.2294 -0.5938,4.8201 -1.5527,2.1805 -4.4453,5.6811 -6.4281,7.779 -5.8971,6.2396 -9.8127,11.9503 -16.8965,24.6426 -6.6687,11.9486 -6.7598,12.0404 -15.3751,15.4925 -11.234,4.5014 -18.9055,9.5485 -23.579,15.513 -2.0649,2.6352 -7.533,7.7852 -12.1514,11.4445 -8.0147,6.3503 -13.5872,13.252 -13.5979,16.8414 -0.01,2.582 3.3077,1.9694 6.1121,-1.1294 3.107,-3.4333 21.5056,-12.6923 22.7494,-11.4485 2.1705,2.1705 -2.1957,7.4563 -6.8862,8.3362 -3.1181,0.585 -5.8313,2.2849 -7.7164,4.8346 -1.599,2.1628 -9.3257,8.754 -17.1705,14.6472 -7.8447,5.8931 -15.7683,12.9893 -17.608,15.7692 -1.8396,2.7799 -5.269,10.665 -7.6207,17.5225 -2.3518,6.8575 -4.7834,13.0382 -5.4037,13.7349 -0.6202,0.6966 -1.1314,2.1966 -1.1359,3.3333 0,1.1367 -0.9668,3.8667 -2.1385,6.0667 -3.0748,5.7735 -10.6719,27.138 -11.7343,32.9988 -0.9007,4.9692 -0.8859,4.9897 2.4875,3.4527 1.8664,-0.8504 3.3935,-1.9492 3.3935,-2.4418 0,-0.4925 3.4896,-4.4462 7.7547,-8.7859 6.8377,-6.9575 7.9624,-8.8738 9.5119,-16.2068 0.9665,-4.574 3.1769,-10.2406 4.912,-12.5924 1.7351,-2.3518 3.1547,-5.0241 3.1547,-5.9383 0,-0.9143 0.6066,-2.0371 1.3479,-2.4953 0.8883,-0.549 1.1149,3.1743 0.6646,10.9213 l -0.6833,11.7543 3.0021,-6.4634 c 9.0346,-19.4512 15.2973,-30.8453 17.65,-32.1115 1.4563,-0.7838 3.5563,-2.3838 4.6666,-3.5556 1.1103,-1.1719 4.4188,-2.9132 7.3521,-3.8696 2.9334,-0.9564 6.6128,-3.2178 8.1765,-5.0253 2.2053,-2.5492 4.7476,-3.5189 11.3333,-4.3228 4.6696,-0.57 15.6902,-2.6141 24.4902,-4.5424 43.9389,-9.6283 46.4848,-9.6788 30.4969,-0.6051 -8.7807,4.9833 -12.5748,6.3304 -20,7.1006 -5.0399,0.5228 -11.5635,2.033 -14.4969,3.3562 -2.9333,1.3231 -8.6,3.1585 -12.5926,4.0786 -15.2658,3.5182 -18.9315,6.2503 -34.6431,25.8202 -4.5608,5.6809 -13.3051,21.7871 -16.9581,31.2353 -0.6582,1.7023 -6.8838,7.7114 -13.8348,13.3537 -12.1761,9.8836 -12.7543,10.5989 -15.8203,19.5715 -2.5026,7.3238 -3.323,13.0865 -3.8406,26.9796 -0.4893,13.1293 -0.2512,17.6667 0.9268,17.6667 0.8719,0 3.9858,-2.6377 6.9198,-5.8616 3.7078,-4.0741 7.048,-6.2931 10.9531,-7.2764 7.757,-1.9533 18.9981,-9.8976 33.9894,-24.0211 3.401,-3.2041 9.2261,-7.2174 12.9447,-8.9183 12.8871,-5.8947 28.4002,-24.612 28.6679,-34.5893 0.039,-1.4666 0.9689,-5.0666 2.0656,-8 1.0967,-2.9333 2.2795,-6.5333 2.6285,-8 1.1108,-4.6684 0.7607,-18.511 -0.5812,-22.982 -0.7124,-2.3734 -0.8144,-4.6125 -0.2267,-4.9758 0.5878,-0.3632 1.8367,2.1787 2.7754,5.6487 0.9387,3.47 2.147,6.9091 2.6851,7.6425 1.1834,1.6127 3.1268,19.6124 2.7739,25.6918 -0.5741,9.8895 9.6063,5.1743 25.6855,-11.8967 5.7651,-6.1206 13.8874,-14.7285 18.04959,-19.1285 4.16222,-4.4 9.17332,-10.1918 11.13592,-12.8708 2.5056,-3.4203 6.8534,-6.4452 14.5989,-10.1572 6.0669,-2.9075 12.1737,-6.5656 13.5706,-8.1291 1.397,-1.5636 3.3342,-2.8429 4.3048,-2.8429 3.3371,0 -1.1543,6.9414 -10.1781,15.7298 -8.6114,8.3868 -8.639,8.4373 -4.3333,7.9197 4.963,-0.5966 5.2787,0.4289 2.3154,7.521 -1.7895,4.2829 -2.5614,4.8295 -6.8195,4.8295 -7.2632,0 -16.8825,5.9623 -23.77652,14.7373 -8.85919,11.2764 -8.37569,12.0971 5.06552,8.5961 9.525,-2.481 12.1871,-2.5014 15.9287,-0.1223 1.6242,1.0328 5.3531,2.1807 8.2864,2.551 6.8881,0.8696 34.4625,7.9141 35.3333,9.0267 0.3667,0.4685 2.0167,1.2731 3.6667,1.7881 1.9752,0.6164 3,1.9884 3,4.0164 0,1.6941 0.9396,3.86 2.0879,4.813 2.3585,1.9574 5.9121,8.3525 5.9121,10.6396 0,0.8313 -2.25,-0.2178 -5,-2.3315 -10.1383,-7.7924 -18.9244,-11.0957 -34.4074,-12.9362 -3.7073,-0.4406 -9.0132,-1.9598 -11.7908,-3.3759 -10.147,-5.1732 -17.0721,-4.9143 -38.25691,1.4305 -18.5645,5.56 -19.4531,5.9927 -26.3813,12.8464 -3.9433,3.9009 -6.9211,7.3412 -6.6173,7.645 0.8137,0.8136 20.6177,-1.5254 29.2503,-3.4547 6.6997,-1.4973 8.405,-1.3802 16.66671,1.1445 5.0618,1.5469 10.8534,3.163 12.87,3.5913 2.0167,0.4284 3.6667,1.3024 3.6667,1.9423 0,2.1272 -6.8074,2.9131 -17.7996,2.0549 -11.11381,-0.8677 -23.55691,1.5128 -36.62321,7.0063 -2.7008,1.1355 -9.4389,2.1752 -14.9735,2.3105 -9.3308,0.2281 -10.6242,0.628 -17.776,5.4967 -8.1058,5.5181 -8.958,6.0627 -17.2003,10.9908 -4.5845,2.741 -5.0478,3.4948 -4.2845,6.97 1.5404,7.0134 0,8.7967 -9.718,11.2336 -10.0697,2.5258 -23.2553,10.2442 -30.314,17.7451 -5.2496,5.5783 -14.5863,23.4041 -12.6147,24.0841 0.701,0.2418 4.4722,-1.3899 8.3804,-3.626 6.4816,-3.7084 7.5663,-3.9385 12.3453,-2.619 7.9463,2.1941 24.1921,0.357 29.9114,-3.3824 9.5733,-6.2592 44.1249,-6.9131 62,-1.1733 4.6309,1.487 22.4395,0.832 27.33339,-1.0054 5.44742,-2.0451 28.82022,-2.3441 32.29832,-0.413 1.6692,0.9268 5.6987,1.7063 8.9544,1.7323 5.3991,0.043 6.4829,0.6569 12.3288,6.9824 6.3563,6.8779 8.763,11.1648 7.1651,12.7627 -0.4566,0.4566 -6.3614,-0.5739 -13.1217,-2.2899 -14.6692,-3.7235 -45.29652,-5.4146 -50.23131,-2.7736 -2.9462,1.5768 -2.951,1.6243 -0.3533,3.4438 1.4487,1.0148 5.55731,2.5799 9.13021,3.4781 15.3998,3.8715 7.0126,4.7098 -12.17051,1.2165 -4.4,-0.8013 -11.3,-2.0329 -15.3334,-2.7369 -4.0333,-0.704 -11.8333,-2.267 -17.3333,-3.4733 -14.4567,-3.1706 -41.3333,-1.4144 -41.3333,2.701 0,3.6994 23.6303,12.25 37.0099,13.3918 12.682,1.0823 20.1098,3.1383 17.4829,4.8392 -1.0044,0.6503 -4.2262,1.0835 -7.1595,0.9627 -2.9333,-0.1209 -6.612,0.1946 -8.1748,0.701 -1.5629,0.5065 -13.2629,-0.8746 -26,-3.069 -38.9207,-6.7053 -45.875,-7.1891 -52.6893,-3.6652 -6.1956,3.2038 -12.516,10.2722 -15.8921,17.7726 -3.6259,8.0555 -7.4074,21.7933 -6.4328,23.3702 0.3738,0.6049 3.9089,1.0998 7.8557,1.0998 3.9467,0 7.503,0.5292 7.9027,1.176 0.3998,0.6468 4.6358,1.5947 9.4133,2.1063 8.6426,0.9255 16.2713,4.1092 26.3506,10.997 2.75,1.8792 5,4.1279 5,4.9971 0,0.8692 2.55,3.4638 5.6667,5.7658 5.1632,3.8136 6.5703,4.1902 15.8367,4.2383 7.5813,0.039 10.6041,-0.47 11.8749,-2.0013 z" id="path4"/><path xmlns:inkscape="http://www.inkscape.org/namespaces/inkscape" inkscape:original-d="M 0,0" inkscape:path-effect="#path-effect53" d="m 781.85129,1642.4277 c -10.23386,-1.3561 -11.68545,-2.7879 -7.06532,-6.969 3.26064,-2.9509 7.59878,-17.3293 8.66689,-28.7258 0.44674,-4.7667 1.38002,-11.6667 2.07396,-15.3334 0.69394,-3.6666 1.5789,-10.2666 1.96657,-14.6666 0.78551,-8.9155 0.98767,-10.1935 4.00738,-25.3334 2.52789,-12.674 5.14037,-49.8353 5.01482,-71.3333 -0.0493,-8.4333 -0.11084,-19.5333 -0.13687,-24.6667 -0.026,-5.1333 0.0697,-11.8836 0.21263,-15.0005 l 0.25994,-5.6673 -21.33334,0.059 c -15.08881,0.042 -22.89446,0.6215 -26.66666,1.9805 -6.53447,2.3541 -21.61954,2.5165 -25.5688,0.2752 -1.59618,-0.9058 -5.72175,-3.297 -9.16794,-5.3136 l -6.2658,-3.6667 H 678.9817 c -15.87687,0 -33.88021,-0.6286 -40.00743,-1.3969 -11.00464,-1.3799 -11.25888,-1.4976 -20.86448,-9.6667 -7.67192,-6.5245 -9.74532,-9.062 -9.82464,-12.0241 -0.21664,-8.0903 -1.6384,-8.9123 -15.41515,-8.9123 -6.90477,0 -15.64755,-0.6634 -19.4284,-1.4743 -6.17212,-1.3236 -17.34532,-7.4326 -19.25976,-10.5302 -0.92151,-1.491 -16.1573,-9.2983 -18.37043,-9.4135 -0.89474,-0.047 -5.22679,-3.031 -9.62679,-6.6321 -4.4,-3.601 -11.41603,-9.1129 -15.59118,-12.2486 -4.17515,-3.1357 -7.62515,-6.4701 -7.66667,-7.4098 -0.0415,-0.9397 -0.90826,-2.0281 -1.92609,-2.4187 -2.40969,-0.9247 -4.49373,-9.4039 -5.34758,-21.7575 -0.37577,-5.4365 -1.29005,-10.2597 -2.03175,-10.7181 -0.7417,-0.4584 -2.0743,-5.3103 -2.96134,-10.782 -0.88704,-5.4717 -2.40688,-10.6147 -3.37743,-11.4289 -1.24898,-1.0477 -1.76463,-5.4012 -1.76463,-14.8982 0,-14.1973 -1.97562,-26.2553 -4.86498,-29.693 -1.37419,-1.6349 -1.56092,-8.0776 -0.88607,-30.5702 0.96104,-32.0308 1.16842,-32.7742 12.08439,-43.3233 3.11666,-3.0119 5.66666,-6.1238 5.66666,-6.9153 0,-2.5167 18.42613,-16.9115 29.05178,-22.6957 l 10.24327,-5.5761 1.56879,-10.1463 c 0.86283,-5.5805 2.15642,-10.8712 2.87464,-11.7573 0.71821,-0.886 2.03328,-5.2109 2.92237,-9.6109 0.88909,-4.4 2.40335,-8.9 3.36502,-10 0.96167,-1.1 2.16203,-4.2286 2.66746,-6.9525 0.50543,-2.7238 1.79086,-5.6761 2.85652,-6.5605 1.06565,-0.8844 2.77475,-3.6117 3.79798,-6.0606 1.02324,-2.449 4.43857,-7.7003 7.58963,-11.6696 9.40536,-11.8478 22.935,-30.2026 24.87192,-33.7422 1.53929,-2.813 1.48954,-5.0547 -0.33334,-15.0184 -1.17849,-6.4415 -2.1427,-13.2758 -2.1427,-15.1873 0,-1.91162 -0.6,-3.47562 -1.33334,-3.47562 -0.78363,1e-5 -1.33333,-4.64224 -1.33333,-11.26007 v -11.26008 l 7.46491,-6.08087 c 4.10571,-3.34449 9.05571,-6.46018 11,-6.92378 1.9443,-0.46359 4.23604,-1.39292 5.09275,-2.06517 0.85672,-0.67225 6.51565,-2.40646 12.57541,-3.85379 6.05976,-1.44734 11.898,-3.36458 12.97386,-4.26054 1.21724,-1.01371 8.55434,-1.88084 19.42459,-2.29569 15.88164,-0.60611 17.86212,-0.96196 21.80181,-3.91741 4.15358,-3.11589 4.33334,-3.63107 4.33334,-12.41877 0,-6.81996 0.81089,-10.93895 3.16612,-16.08259 3.22299,-7.03876 15.13499,-19.58123 18.59694,-19.58123 1.03252,0 3.33532,-1.14687 5.11734,-2.5486 1.78201,-1.40173 6.76377,-3.2 11.07058,-3.99616 4.3068,-0.79616 8.7871,-2.31322 9.9562,-3.37124 2.18345,-1.976 15.99196,-4.72267 23.83264,-4.74059 7.73935,-0.0177 15.59291,-4.62309 19.86778,-11.65066 2.12765,-3.49768 4.69341,-8.45942 5.70169,-11.02608 2.12415,-5.40718 8.98489,-14.66667 10.86715,-14.66667 0.70714,0 3.76942,-1.2 6.80507,-2.66667 6.73872,-3.25579 27.68779,-3.87661 30.16329,-0.89387 0.85,1.02427 3.1073,1.53266 5.3462,1.20407 2.2574,-0.33131 5.2984,0.36395 7.2848,1.66553 1.8755,1.22885 6.5931,2.76742 10.4837,3.41905 12.5399,2.10031 15.7405,2.88844 15.7405,3.87602 0,1.6647 17.8842,4.43076 23.4068,3.6202 2.8929,-0.4246 10.6599,-1.72812 17.2599,-2.89671 6.6,-1.16859 14.1,-2.46406 16.6666,-2.87883 2.5667,-0.41476 5.5667,-1.50534 6.6667,-2.42351 2.9719,-2.48062 18.1918,-3.99176 40.383,-4.00951 13.1618,-0.0105 20.0323,0.48261 20.6667,1.48339 0.5227,0.82453 2.9547,1.93417 5.4046,2.46585 2.7102,0.58816 7.56091,3.88331 12.38781,8.41513 4.3634,4.09664 9.5589,8.46098 11.5456,9.69853 1.9868,1.23756 5.3745,4.12613 7.5284,6.41905 2.1539,2.29292 5.0039,4.16895 6.3333,4.16895 1.3295,0 2.4173,0.54753 2.4173,1.21674 0,0.6692 2.9188,4.7192 6.4862,9 4.4188,5.30248 7.2103,10.28631 8.7581,15.63643 1.2496,4.31924 3.1831,9.24378 4.2967,10.94342 2.0342,3.10453 1.9462,11.2303 -0.277,25.56876 l -0.8836,5.69869 11.356,10.96798 c 6.2458,6.03239 12.2707,12.81168 13.3885,15.06509 1.1179,2.25341 2.9252,4.83795 4.0162,5.74342 1.0911,0.90547 2.3984,4.10066 2.9052,7.10042 0.5068,2.99976 1.8235,7.61293 2.9259,10.25149 2.5845,6.18543 4.0911,36.6597 1.8801,38.0262 -0.8355,0.5163 -1.519,2.0534 -1.519,3.4156 0,1.3623 -0.7425,2.7244 -1.6499,3.0269 -1.1445,0.3815 -1.7935,5.2155 -2.1185,15.7778 l -0.4686,15.2278 4.1185,3.9161 c 2.2652,2.1539 4.1185,4.7039 4.1185,5.6667 0,0.9628 0.9,1.7505 2,1.7505 1.1,0 2,0.6257 2,1.3905 0,2.5042 12.3038,14.6095 14.8491,14.6095 1.3663,0 2.4842,0.8789 2.4842,1.9531 0,1.0742 1.35,2.6711 3,3.5488 5.7228,3.0439 16.9167,16.0313 17.7789,20.6274 0.9665,5.1517 0.1826,13.3634 -2.0877,21.8707 -0.9643,3.6134 -1.3781,11.3599 -1.0402,19.4749 0.4629,11.1178 1.0673,14.1859 3.455,17.5392 1.5917,2.2353 2.894,4.5956 2.894,5.2451 0,0.6495 2.445,3.8569 5.4334,7.1275 2.9883,3.2707 7.8631,10.0075 10.8329,14.9707 2.9697,4.9632 5.9247,9.3486 6.5666,9.7454 1.6262,1.005 1.4709,15.2305 -0.1662,15.2305 -0.7333,0 -1.3333,0.8359 -1.3333,1.8574 0,1.0215 -0.8055,2.1664 -1.79,2.5442 -3.0217,1.1595 -6.2116,9.6573 -6.1813,16.4666 0.026,5.9373 0.5785,7.0367 6.7612,13.4652 3.7029,3.85 7.14,7.0227 7.638,7.0506 0.8144,0.046 5.4932,6.0585 10.9054,14.0154 1.1,1.6172 4.25,6.226 7,10.2418 2.75,4.0159 5,7.6628 5,8.1043 0,0.4415 1.5,3.0132 3.3333,5.7147 3.0973,4.5641 3.3334,6.0445 3.3334,20.9045 0,8.796 -0.6475,18.4622 -1.4389,21.4807 -3.2155,12.264 -4.5014,16.1912 -5.5405,16.9218 -0.6001,0.4219 -1.406,4.0219 -1.7908,8 -0.9217,9.5283 -3.1762,16.927 -5.4203,17.7881 -0.9952,0.3819 -1.8095,1.5311 -1.8095,2.5538 0,3.3527 -23.4318,23.3584 -30.6667,26.1828 -2.5667,1.0019 -5.441,2.4148 -6.3873,3.1397 -0.9464,0.7249 -13.1437,1.7946 -27.1052,2.3773 -27.242,1.1368 -37.3941,2.2058 -38.5994,4.0643 -0.4172,0.6433 -5.1732,2.0901 -10.5689,3.2151 -11.2074,2.3369 -12.0059,2.6909 -12.0059,5.3238 0,1.0567 -0.9,1.9213 -2,1.9213 -1.1,0 -2,0.505 -2,1.1223 0,2.0275 -9.9209,4.1488 -23.5945,5.0448 -11.8945,0.7795 -14.1119,0.5665 -19.2572,-1.8502 -8.31331,-3.9045 -32.27021,-4.9641 -37.12331,-1.6418 -1.8471,1.2644 -6.8083,4.5119 -11.025,7.2165 -4.2166,2.7047 -7.6666,5.7155 -7.6666,6.6908 0,2.4651 -4.3257,3.3781 -16.1048,3.3994 -9.1004,0.016 -10.7294,-0.3956 -16.3899,-4.1449 -3.4568,-2.2897 -7.77,-6.1099 -9.5848,-8.4893 -6.3769,-8.3606 -19.6701,-13.2335 -44.9136,-16.4642 l -7.6597,-0.9803 -1.0069,4.7151 c -1.74,8.1475 -0.8107,58.0237 1.1474,61.5797 1.2538,2.2769 1.7818,11.532 1.9286,33.8021 0.1412,21.4212 0.8345,34.0834 2.2995,42 1.1536,6.2333 2.4569,13.7138 2.8963,16.6233 0.4394,2.9094 2.8814,12.9762 5.4267,22.3706 2.5453,9.3944 4.6278,18.1719 4.6278,19.5057 0,2.0344 -2.1377,2.78 -13.2731,4.6294 -14.9101,2.4762 -60.13735,2.8083 -77.0602,0.5658 z" id="path54"/><path style="fill:#1a1a1a" d="m 781.85129,1642.4277 c -10.23386,-1.3561 -11.68545,-2.7879 -7.06532,-6.969 3.26064,-2.9509 7.59878,-17.3293 8.66689,-28.7258 0.44674,-4.7667 1.38002,-11.6667 2.07396,-15.3334 0.69394,-3.6666 1.5789,-10.2666 1.96657,-14.6666 0.78551,-8.9155 0.98767,-10.1935 4.00738,-25.3334 2.52789,-12.674 5.14037,-49.8353 5.01482,-71.3333 -0.0493,-8.4333 -0.11084,-19.5333 -0.13687,-24.6667 -0.026,-5.1333 0.0697,-11.8836 0.21263,-15.0005 l 0.25994,-5.6673 -21.33334,0.059 c -15.08881,0.042 -22.89446,0.6215 -26.66666,1.9805 -6.53447,2.3541 -21.61954,2.5165 -25.5688,0.2752 -1.59618,-0.9058 -5.72175,-3.297 -9.16794,-5.3136 l -6.2658,-3.6667 H 678.9817 c -15.87687,0 -33.88021,-0.6286 -40.00743,-1.3969 -11.00464,-1.3799 -11.25888,-1.4976 -20.86448,-9.6667 -7.67192,-6.5245 -9.74532,-9.062 -9.82464,-12.0241 -0.21664,-8.0903 -1.6384,-8.9123 -15.41515,-8.9123 -6.90477,0 -15.64755,-0.6634 -19.4284,-1.4743 -6.17212,-1.3236 -17.34532,-7.4326 -19.25976,-10.5302 -0.92151,-1.491 -16.1573,-9.2983 -18.37043,-9.4135 -0.89474,-0.047 -5.22679,-3.031 -9.62679,-6.6321 -4.4,-3.601 -11.41603,-9.1129 -15.59118,-12.2486 -4.17515,-3.1357 -7.62515,-6.4701 -7.66667,-7.4098 -0.0415,-0.9397 -0.90826,-2.0281 -1.92609,-2.4187 -2.40969,-0.9247 -4.49373,-9.4039 -5.34758,-21.7575 -0.37577,-5.4365 -1.29005,-10.2597 -2.03175,-10.7181 -0.7417,-0.4584 -2.0743,-5.3103 -2.96134,-10.782 -0.88704,-5.4717 -2.40688,-10.6147 -3.37743,-11.4289 -1.24898,-1.0477 -1.76463,-5.4012 -1.76463,-14.8982 0,-14.1973 -1.97562,-26.2553 -4.86498,-29.693 -1.37419,-1.6349 -1.56092,-8.0776 -0.88607,-30.5702 0.96104,-32.0308 1.16842,-32.7742 12.08439,-43.3233 3.11666,-3.0119 5.66666,-6.1238 5.66666,-6.9153 0,-2.5167 18.42613,-16.9115 29.05178,-22.6957 l 10.24327,-5.5761 1.56879,-10.1463 c 0.86283,-5.5805 2.15642,-10.8712 2.87464,-11.7573 0.71821,-0.886 2.03328,-5.2109 2.92237,-9.6109 0.88909,-4.4 2.40335,-8.9 3.36502,-10 0.96167,-1.1 2.16203,-4.2286 2.66746,-6.9525 0.50543,-2.7238 1.79086,-5.6761 2.85652,-6.5605 1.06565,-0.8844 2.77475,-3.6117 3.79798,-6.0606 1.02324,-2.449 4.43857,-7.7003 7.58963,-11.6696 9.40536,-11.8478 22.935,-30.2026 24.87192,-33.7422 1.53929,-2.813 1.48954,-5.0547 -0.33334,-15.0184 -1.17849,-6.4415 -2.1427,-13.2758 -2.1427,-15.1873 0,-1.91162 -0.6,-3.47562 -1.33334,-3.47562 -0.78363,1e-5 -1.33333,-4.64224 -1.33333,-11.26007 v -11.26008 l 7.46491,-6.08087 c 4.10571,-3.34449 9.05571,-6.46018 11,-6.92378 1.9443,-0.46359 4.23604,-1.39292 5.09275,-2.06517 0.85672,-0.67225 6.51565,-2.40646 12.57541,-3.85379 6.05976,-1.44734 11.898,-3.36458 12.97386,-4.26054 1.21724,-1.01371 8.55434,-1.88084 19.42459,-2.29569 15.88164,-0.60611 17.86212,-0.96196 21.80181,-3.91741 4.15358,-3.11589 4.33334,-3.63107 4.33334,-12.41877 0,-6.81996 0.81089,-10.93895 3.16612,-16.08259 3.22299,-7.03876 15.13499,-19.58123 18.59694,-19.58123 1.03252,0 3.33532,-1.14687 5.11734,-2.5486 1.78201,-1.40173 6.76377,-3.2 11.07058,-3.99616 4.3068,-0.79616 8.7871,-2.31322 9.9562,-3.37124 2.18345,-1.976 15.99196,-4.72267 23.83264,-4.74059 7.73935,-0.0177 15.59291,-4.62309 19.86778,-11.65066 2.12765,-3.49768 4.69341,-8.45942 5.70169,-11.02608 2.12415,-5.40718 8.98489,-14.66667 10.86715,-14.66667 0.70714,0 3.76942,-1.2 6.80507,-2.66667 6.73872,-3.25579 27.68779,-3.87661 30.16329,-0.89387 0.85,1.02427 3.1073,1.53266 5.3462,1.20407 2.2574,-0.33131 5.2984,0.36395 7.2848,1.66553 1.8755,1.22885 6.5931,2.76742 10.4837,3.41905 12.5399,2.10031 15.7405,2.88844 15.7405,3.87602 0,1.6647 17.8842,4.43076 23.4068,3.6202 2.8929,-0.4246 10.6599,-1.72812 17.2599,-2.89671 6.6,-1.16859 14.1,-2.46406 16.6666,-2.87883 2.5667,-0.41476 5.5667,-1.50534 6.6667,-2.42351 2.9719,-2.48062 18.1918,-3.99176 40.383,-4.00951 13.1618,-0.0105 20.0323,0.48261 20.6667,1.48339 0.5227,0.82453 2.9547,1.93417 5.4046,2.46585 2.7102,0.58816 7.56091,3.88331 12.38781,8.41513 4.3634,4.09664 9.5589,8.46098 11.5456,9.69853 1.9868,1.23756 5.3745,4.12613 7.5284,6.41905 2.1539,2.29292 5.0039,4.16895 6.3333,4.16895 1.3295,0 2.4173,0.54753 2.4173,1.21674 0,0.6692 2.9188,4.7192 6.4862,9 4.4188,5.30248 7.2103,10.28631 8.7581,15.63643 1.2496,4.31924 3.1831,9.24378 4.2967,10.94342 2.0342,3.10453 1.9462,11.2303 -0.277,25.56876 l -0.8836,5.69869 11.356,10.96798 c 6.2458,6.03239 12.2707,12.81168 13.3885,15.06509 1.1179,2.25341 2.9252,4.83795 4.0162,5.74342 1.0911,0.90547 2.3984,4.10066 2.9052,7.10042 0.5068,2.99976 1.8235,7.61293 2.9259,10.25149 2.5845,6.18543 4.0911,36.6597 1.8801,38.0262 -0.8355,0.5163 -1.519,2.0534 -1.519,3.4156 0,1.3623 -0.7425,2.7244 -1.6499,3.0269 -1.1445,0.3815 -1.7935,5.2155 -2.1185,15.7778 l -0.4686,15.2278 4.1185,3.9161 c 2.2652,2.1539 4.1185,4.7039 4.1185,5.6667 0,0.9628 0.9,1.7505 2,1.7505 1.1,0 2,0.6257 2,1.3905 0,2.5042 12.3038,14.6095 14.8491,14.6095 1.3663,0 2.4842,0.8789 2.4842,1.9531 0,1.0742 1.35,2.6711 3,3.5488 5.7228,3.0439 16.9167,16.0313 17.7789,20.6274 0.9665,5.1517 0.1826,13.3634 -2.0877,21.8707 -0.9643,3.6134 -1.3781,11.3599 -1.0402,19.4749 0.4629,11.1178 1.0673,14.1859 3.455,17.5392 1.5917,2.2353 2.894,4.5956 2.894,5.2451 0,0.6495 2.445,3.8569 5.4334,7.1275 2.9883,3.2707 7.8631,10.0075 10.8329,14.9707 2.9697,4.9632 5.9247,9.3486 6.5666,9.7454 1.6262,1.005 1.4709,15.2305 -0.1662,15.2305 -0.7333,0 -1.3333,0.8359 -1.3333,1.8574 0,1.0215 -0.8055,2.1664 -1.79,2.5442 -3.0217,1.1595 -6.2116,9.6573 -6.1813,16.4666 0.026,5.9373 0.5785,7.0367 6.7612,13.4652 3.7029,3.85 7.14,7.0227 7.638,7.0506 0.8144,0.046 5.4932,6.0585 10.9054,14.0154 1.1,1.6172 4.25,6.226 7,10.2418 2.75,4.0159 5,7.6628 5,8.1043 0,0.4415 1.5,3.0132 3.3333,5.7147 3.0973,4.5641 3.3334,6.0445 3.3334,20.9045 0,8.796 -0.6475,18.4622 -1.4389,21.4807 -3.2155,12.264 -4.5014,16.1912 -5.5405,16.9218 -0.6001,0.4219 -1.406,4.0219 -1.7908,8 -0.9217,9.5283 -3.1762,16.927 -5.4203,17.7881 -0.9952,0.3819 -1.8095,1.5311 -1.8095,2.5538 0,3.3527 -23.4318,23.3584 -30.6667,26.1828 -2.5667,1.0019 -5.441,2.4148 -6.3873,3.1397 -0.9464,0.7249 -13.1437,1.7946 -27.1052,2.3773 -27.242,1.1368 -37.3941,2.2058 -38.5994,4.0643 -0.4172,0.6433 -5.1732,2.0901 -10.5689,3.2151 -11.2074,2.3369 -12.0059,2.6909 -12.0059,5.3238 0,1.0567 -0.9,1.9213 -2,1.9213 -1.1,0 -2,0.505 -2,1.1223 0,2.0275 -9.9209,4.1488 -23.5945,5.0448 -11.8945,0.7795 -14.1119,0.5665 -19.2572,-1.8502 -8.31331,-3.9045 -32.27021,-4.9641 -37.12331,-1.6418 -1.8471,1.2644 -6.8083,4.5119 -11.025,7.2165 -4.2166,2.7047 -7.6666,5.7155 -7.6666,6.6908 0,2.4651 -4.3257,3.3781 -16.1048,3.3994 -9.1004,0.016 -10.7294,-0.3956 -16.3899,-4.1449 -3.4568,-2.2897 -7.77,-6.1099 -9.5848,-8.4893 -6.3769,-8.3606 -19.6701,-13.2335 -44.9136,-16.4642 l -7.6597,-0.9803 -1.0069,4.7151 c -1.74,8.1475 -0.8107,58.0237 1.1474,61.5797 1.2538,2.2769 1.7818,11.532 1.9286,33.8021 0.1412,21.4212 0.8345,34.0834 2.2995,42 1.1536,6.2333 2.4569,13.7138 2.8963,16.6233 0.4394,2.9094 2.8814,12.9762 5.4267,22.3706 2.5453,9.3944 4.6278,18.1719 4.6278,19.5057 0,2.0344 -2.1377,2.78 -13.2731,4.6294 -14.9101,2.4762 -60.13735,2.8083 -77.0602,0.5658 z m 163.7116,-183.0823 c 0.9376,-1.1298 6.9471,-5.5607 13.3544,-9.8464 l 11.6496,-7.7923 15.1422,0.6041 c 11.94569,0.4766 16.23491,1.1867 20.31851,3.3641 4.585,2.4448 6.5858,2.661 17.5142,1.8929 14.8392,-1.0431 19.9827,-2.6108 25.4527,-7.7577 2.9707,-2.7952 6.6923,-4.4318 13.1508,-5.7831 4.9542,-1.0365 9.6898,-2.4339 10.5235,-3.1053 2.5328,-2.0396 11.1203,-2.9493 38.2418,-4.0511 23.1372,-0.94 26.445,-1.3641 30.6074,-3.9242 2.5666,-1.5786 5.5666,-2.9096 6.6666,-2.9577 2.851,-0.1248 21.372,-15.911 24.206,-20.6318 4.5346,-7.5534 6.4607,-12.9774 6.4607,-18.1933 0,-2.884 1.302,-8.0608 2.8934,-11.5039 4.0451,-8.7518 5.3593,-15.979 6.022,-33.1156 0.4524,-11.6977 0.125,-15.8073 -1.5403,-19.3334 -4.0123,-8.4957 -10.7172,-19.6541 -13.7084,-22.814 -1.65,-1.743 -3,-3.8368 -3,-4.653 0,-0.8162 -1.5,-2.6638 -3.3334,-4.1059 -1.8333,-1.4421 -3.3333,-2.9895 -3.3333,-3.4387 0,-0.4491 -4.2,-5.1348 -9.3333,-10.4126 l -9.3334,-9.5961 v -8.6708 c 0,-7.9599 0.4373,-9.2943 5.3334,-16.2741 5.7396,-8.1824 7.2803,-16.5159 3.3333,-18.0305 -1.1,-0.4221 -2,-1.9221 -2,-3.3333 0,-1.4112 -0.871,-2.9001 -1.9355,-3.3086 -1.0645,-0.4085 -2.608,-2.7803 -3.4299,-5.2706 -0.8219,-2.4904 -2.9509,-5.6737 -4.7311,-7.074 -1.7803,-1.4003 -3.2368,-3.1693 -3.2368,-3.931 0,-0.7617 -1.1583,-1.7526 -2.574,-2.2019 -1.4442,-0.4583 -2.9538,-2.5461 -3.4393,-4.7565 -0.4759,-2.1668 -1.4176,-3.9396 -2.0927,-3.9396 -0.675,0 -1.2274,-0.85 -1.2274,-1.8888 0,-1.0389 -0.719,-2.1286 -1.5979,-2.4216 -1.0879,-0.3626 -1.7766,-5.8974 -2.1574,-17.3385 -0.4479,-13.4514 -0.094,-18.2863 1.7737,-24.2237 2.6995,-8.5824 2.1053,-19.0977 -1.2164,-21.5266 -1.1744,-0.8588 -2.1353,-2.2453 -2.1353,-3.0811 0,-0.8358 -0.4561,-1.5197 -1.0136,-1.5197 -0.5575,0 -2.7797,-1.65 -4.9383,-3.6666 -2.1585,-2.0167 -6.0524,-5.366 -8.653,-7.4428 -8.9868,-7.1769 -22.7284,-20.9656 -22.7284,-22.8063 0,-1.0159 -1.8,-3.3618 -4,-5.213 -3.9792,-3.3482 -4,-3.439 -4,-17.4378 0,-12.1068 0.4925,-15.3024 3.5268,-22.8821 3.2624,-8.1492 3.4661,-9.8073 2.7167,-22.1096 -0.4548,-7.4644 -1.6778,-15.03857 -2.7874,-17.26284 -1.0874,-2.17972 -2.3842,-6.67802 -2.8818,-9.99623 -0.5594,-3.73089 -1.8592,-6.62924 -3.4062,-7.59532 -1.3758,-0.85922 -2.5015,-2.61788 -2.5015,-3.90815 0,-1.29026 -0.6,-2.34594 -1.3333,-2.34594 -0.7333,0 -1.3333,-0.85984 -1.3333,-1.91075 0,-1.05091 -4.3961,-5.70091 -9.7692,-10.33333 -11.6442,-10.03925 -13.6083,-13.61484 -12.1949,-22.20025 1.5485,-9.40611 1.4773,-21.53499 -0.1326,-22.60513 -0.7866,-0.52279 -2.5026,-4.85054 -3.8135,-9.6172 -2.2543,-8.19712 -11.4755,-22.43911 -14.635,-22.60359 -0.6665,-0.0347 -4.2665,-2.79643 -8,-6.1372 -17.9386,-16.05163 -25.23891,-21.92656 -27.25601,-21.93409 -1.2093,-0.005 -3.9988,-1.01755 -6.1988,-2.25118 -7.2593,-4.07055 -55.8436,-2.61217 -59.4937,1.78586 -0.8247,0.99377 -3.7906,1.80686 -6.5909,1.80686 -2.8003,0 -5.4079,0.51208 -5.7947,1.13796 -0.3868,0.62588 -5.0591,1.54279 -10.3829,2.03759 -5.3238,0.49479 -10.2628,1.48271 -10.9754,2.19537 -2.7325,2.7325 -23.9286,1.06437 -33.4291,-2.63087 -6.3855,-2.48366 -12.4267,-4.07338 -15.4794,-4.07338 -1.8096,0 -5.6438,-1.2 -8.5206,-2.66667 -2.8768,-1.46666 -6.2682,-2.66666 -7.5366,-2.66666 -1.2683,0 -2.6095,-0.49111 -2.9805,-1.09135 -0.9717,-1.57226 -27.4829,-2.03373 -27.4829,-0.47839 0,0.70147 -2.7,2.07261 -6,3.04699 -3.3,0.97437 -6,2.4764 -6,3.33785 0,0.86144 -0.75,1.85507 -1.66667,2.20807 -0.91667,0.35299 -2.46998,3.37345 -3.45181,6.71213 -0.98182,3.33867 -2.63182,6.39522 -3.66666,6.79233 -1.03484,0.3971 -1.88153,1.94084 -1.88153,3.43052 0,1.48968 -0.52721,2.70851 -1.17157,2.70851 -0.64437,0 -1.89554,1.7478 -2.78038,3.884 -0.99338,2.39823 -2.96283,4.22383 -5.1484,4.77238 -1.94678,0.48861 -3.90886,1.48585 -4.36017,2.21608 -0.45131,0.73024 -7.87106,2.14736 -16.48833,3.14916 -10.1773,1.18316 -16.47408,2.55116 -17.96869,3.90376 -1.26551,1.14527 -5.80697,2.73043 -10.09214,3.52259 -4.28517,0.79216 -9.9253,2.89043 -12.53362,4.66283 -2.60831,1.77239 -5.38541,3.22254 -6.17132,3.22254 -2.20241,0 -9.53799,8.2644 -10.65134,12 -0.5464,1.83333 -1.60861,3.72809 -2.36047,4.21057 -0.75186,0.48248 -1.65652,5.88248 -2.01035,12 -0.61314,10.60082 -2.90946,16.97004 -6.15823,17.08086 -0.67559,0.0231 -2.3859,1.0919 -3.80067,2.37523 -2.0901,1.89591 -5.93104,2.45831 -20.48855,3 -12.29042,0.45733 -18.2397,1.1909 -18.94642,2.33615 -0.56662,0.91822 -6.09402,2.81012 -12.28311,4.20422 -6.1891,1.3941 -13.77392,3.79284 -16.85517,5.33052 -3.08124,1.53768 -6.19721,2.79578 -6.92439,2.79578 -0.72717,0 -2.10616,1.08951 -3.06441,2.42114 -0.95825,1.33162 -2.79227,2.81279 -4.0756,3.29149 -1.8959,0.70718 -2.33334,2.50635 -2.33334,9.59695 0,4.79963 0.55108,9.76846 1.22461,11.04185 2.06787,3.9095 5.84528,30.63248 4.9575,35.07138 -0.46024,2.3012 -2.33949,5.3661 -4.17612,6.8107 -1.83663,1.4447 -3.33932,3.4832 -3.33932,4.53 0,1.0468 -0.61883,1.9032 -1.37518,1.9032 -0.75635,0 -1.74566,0.9655 -2.19847,2.1455 -0.45281,1.18 -2.2923,3.73 -4.08777,5.6666 -3.19983,3.4515 -11.00525,14.4643 -11.00525,15.5275 0,0.2966 -1.4756,2.0148 -3.27911,3.8183 -1.80351,1.8036 -3.70049,4.9808 -4.21551,7.0606 -0.51502,2.0799 -1.98612,4.5282 -3.26911,5.4409 -1.283,0.9126 -2.73292,4.028 -3.22206,6.9232 -0.48913,2.8952 -1.69028,5.9287 -2.66921,6.7411 -0.97893,0.8124 -2.17755,4.3685 -2.66358,7.9024 -0.48604,3.5339 -1.73469,8.0656 -2.77479,10.0704 -1.0401,2.0047 -2.54766,7.6332 -3.35014,12.5076 -0.80247,4.8744 -1.712,10.1911 -2.02118,11.8148 -0.40395,2.1215 -2.04321,3.351 -5.82575,4.3696 -2.895,0.7795 -5.60256,1.9657 -6.0168,2.6359 -0.41424,0.6703 -3.51335,2.5972 -6.88692,4.282 -3.37357,1.6849 -6.42417,3.8202 -6.77912,4.7452 -0.35494,0.9249 -1.25195,1.6817 -1.99335,1.6817 -1.63408,0 -10.76683,7.8111 -11.70003,10.0068 -1.22243,2.8763 -7.80813,9.9932 -9.24726,9.9932 -0.78067,0 -1.41941,0.9 -1.41941,2 0,1.1 -0.6,2 -1.33333,2 -0.73334,0 -1.33334,1.1359 -1.33334,2.5241 0,1.3882 -0.80591,2.8332 -1.79091,3.2112 -2.47047,0.948 -4.15579,55.2524 -1.80273,58.0877 2.9732,3.5825 4.80954,14.2364 4.86813,28.2437 0.0349,8.3456 0.65343,14.6613 1.52077,15.5286 0.80406,0.8041 2.28699,5.792 3.29539,11.0843 1.00841,5.2924 2.51995,10.4496 3.35899,11.4606 0.83903,1.011 1.95306,7.4911 2.47562,14.4002 0.65188,8.619 1.71228,13.7253 3.37829,16.268 2.77692,4.2381 10.0751,11.1916 11.74635,11.1916 0.61724,0 2.63686,1.8 4.48804,4 1.85118,2.2 3.87541,4 4.4983,4 0.62288,0 3.10326,1.8 5.51195,4 2.4087,2.2 5.41032,4 6.67027,4 1.25996,0 2.66165,0.6 3.11488,1.3334 0.45322,0.7333 1.98863,1.3333 3.41202,1.3333 1.42339,0 2.58798,0.6 2.58798,1.3333 0,0.7334 1.19537,1.3334 2.65638,1.3334 1.46101,0 4.26019,1.8 6.22039,4 1.96021,2.2 4.34147,4 5.29168,4 0.95022,0 2.80104,1.1452 4.11294,2.5449 3.00218,3.203 14.88977,5.4495 28.96349,5.4733 5.91531,0.01 12.06738,0.3701 13.67125,0.8002 2.94091,0.7887 5.75053,6.4699 5.75053,11.6279 0,2.7578 4.81754,8.887 6.98517,8.887 0.65285,0 2.63401,1.7197 4.40257,3.8215 2.84101,3.3764 4.58882,3.9976 15.00422,5.3333 6.48376,0.8316 24.85337,1.5119 40.82137,1.5119 27.0138,0 29.26848,0.1854 32.42285,2.6666 1.86456,1.4667 4.29305,2.6667 5.39664,2.6667 1.1036,0 2.68602,0.9293 3.5165,2.065 2.43117,3.3248 15.45682,4.0508 24.0702,1.3416 5.9684,-1.8773 11.27765,-2.2163 29.00961,-1.8522 l 21.70421,0.4456 0.39408,-9.7825 0.39408,-9.7824 -13.06075,-12.9561 c -7.18341,-7.1259 -15.76075,-15.0082 -19.06075,-17.5164 -3.3,-2.5082 -6.3,-4.9358 -6.66666,-5.3948 -0.87433,-1.0943 -23.40171,-16.0821 -29.0921,-19.3555 -2.43398,-1.4001 -5.60102,-4.444 -7.03785,-6.7643 -1.43684,-2.3202 -5.5045,-6.0744 -9.03925,-8.3427 -5.64794,-3.6242 -14.76083,-12.9412 -17.90963,-18.3106 -1.21443,-2.0709 -16.46485,-9.2846 -23.58784,-11.1575 -2.56667,-0.6748 -10.66667,-2.7673 -18,-4.6499 -13.74533,-3.5286 -37.65811,-10.6193 -43.06274,-12.769 -1.6845,-0.6701 -4.52187,-1.2183 -6.30526,-1.2183 -4.51879,0 -22.87686,-6.2555 -29.29867,-9.9834 -6.04068,-3.5068 -12.20185,-9.5925 -10.96428,-10.8301 0.45321,-0.4532 2.8764,0.4444 5.38486,1.9948 2.50847,1.5503 5.72003,2.8187 7.1368,2.8187 1.41678,0 3.14596,0.4867 3.84262,1.0816 1.40076,1.1961 17.19034,4.981 28.6,6.8556 4.03334,0.6627 9.96252,1.8687 13.17597,2.6801 3.21345,0.8114 6.11823,1.1996 6.45508,0.8628 3.2577,-3.2577 -20.65985,-28.117 -30.39003,-31.5867 -4.50128,-1.6051 -6.45519,-3.2493 -8.20753,-6.9066 -2.89468,-6.0415 -9.30725,-10.9481 -16.97635,-12.9896 -5.10259,-1.3584 -5.59533,-1.7765 -3.48493,-2.9576 1.3928,-0.7794 6.26058,-1.0703 11.233,-0.6711 7.20231,0.5781 9.28775,1.3004 11.63561,4.0299 5.68006,6.6035 16.23534,12.9349 21.56407,12.9349 4.7644,0 5.20716,0.3726 8.31881,7 8.23366,17.5367 39.88626,41.6742 60.79326,46.3596 12.02426,2.6947 21.19941,7.0642 26.6847,12.7081 3.00773,3.0948 6.75843,6.0362 8.33489,6.5366 1.57646,0.5003 3.49683,2.0879 4.26751,3.5279 0.77067,1.44 3.74986,4.3195 6.62042,6.399 2.87056,2.0794 4.89996,4.1 4.50979,4.4901 -0.39018,0.3902 1.54868,2.42 4.30858,4.5108 2.75989,2.0907 6.48691,5.1513 8.28227,6.8013 1.79535,1.65 3.68334,3 4.19553,3 0.51219,0 2.67457,1.5113 4.8053,3.3585 10.51657,9.117 38.04919,22.333 40.79846,19.5837 1.67056,-1.6705 -8.8996,-16.9628 -14.72357,-21.3012 -2.67713,-1.9942 -5.1675,-4.0006 -5.53417,-4.4586 -0.36667,-0.458 -3.79452,-2.4103 -7.61745,-4.3384 -7.67208,-3.8695 -16.37335,-10.9347 -16.39905,-13.3155 -0.0268,-2.4799 -8.94442,-7.5285 -13.29813,-7.5285 -2.21029,0 -4.0187,-0.488 -4.0187,-1.0845 0,-0.5965 -2.1,-1.9084 -4.66667,-2.9155 -2.56667,-1.0071 -4.66667,-2.3191 -4.66667,-2.9156 0,-0.5964 -0.9,-1.0844 -2,-1.0844 -1.1,0 -2,-0.6 -2,-1.3334 0,-0.7333 -1.08433,-1.3333 -2.40963,-1.3333 -3.15665,0 -10.9237,-6.4756 -10.9237,-9.1074 0,-1.1297 -1.28346,-3.4202 -2.85213,-5.09 -1.56867,-1.6698 -3.51867,-4.1865 -4.33333,-5.5927 -2.60532,-4.497 -26.53443,-35.4429 -29.54608,-38.2099 -3.27157,-3.0058 -6.35807,-10.9146 -4.66734,-11.9595 0.60969,-0.3768 3.22015,1.6522 5.80102,4.509 2.58088,2.8567 5.49621,5.1572 6.47852,5.1122 4.48753,-0.2055 6.45267,0.4865 6.45267,2.2721 0,1.0635 0.79897,2.4135 1.77549,3 0.97652,0.5864 3.47496,4.2219 5.55208,8.0788 3.36654,6.2511 7.18879,10.4803 23.05174,25.5059 2.40862,2.2815 4.90862,4.1482 5.55555,4.1482 0.64694,0 1.37625,0.4544 1.6207,1.0099 1.48757,3.3802 25.77271,18.9901 29.54397,18.9901 1.40107,0 1.75374,-0.8816 1.2001,-3 -1.818,-6.9561 -6.02006,-11.7656 -13.1151,-15.0109 -6.50606,-2.976 -9.40463,-5.9891 -5.76134,-5.9891 2.01122,0 0.39439,-4.3959 -4.77013,-12.9693 -2.7087,-4.4966 -4.23966,-8.6427 -3.99739,-10.8259 0.21595,-1.946 -0.25464,-3.9424 -1.04578,-4.4365 -0.99799,-0.6233 -0.9078,-1.5378 0.29457,-2.9865 1.54948,-1.867 1.9793,-1.7719 4.05907,0.8983 1.27935,1.6426 3.39221,5.0865 4.69525,7.6532 1.30304,2.5667 3.18788,5.1465 4.18853,5.7329 1.00065,0.5865 1.81936,1.6618 1.81936,2.3896 0,1.73 1.37355,3.2856 13.59249,15.3934 9.77107,9.6821 10.30375,10.5222 11.19666,17.6583 2.61585,20.9055 1.86545,19.6779 13.62818,22.2949 5.5586,1.2367 10.73867,2.7731 11.51127,3.4144 0.7726,0.6413 2.84654,2.3548 4.60875,3.8079 4.70687,3.8812 6.70943,3.3652 6.56403,-1.6914 -0.46452,-16.155 -7.06246,-45.683 -11.36145,-50.8463 -10.75954,-12.9227 -26.47726,-23.6441 -39.42291,-26.8912 -7.65897,-1.9211 -9.14358,-2.7686 -9.86172,-5.6299 -0.46497,-1.8526 -0.1845,-4.4267 0.62327,-5.7201 1.70394,-2.7285 0.531,-4.0099 -8.46336,-9.2458 -3.14931,-1.8334 -9.19773,-5.6962 -13.44095,-8.5841 -7.15328,-4.8684 -8.44755,-5.2686 -17.77794,-5.4967 -5.53464,-0.1353 -12.27272,-1.175 -14.9735,-2.3105 -13.06629,-5.4935 -25.50946,-7.8739 -36.62321,-7.0063 -10.99225,0.8582 -17.79961,0.072 -17.79961,-2.0549 0,-0.6399 1.65,-1.5139 3.66667,-1.9422 2.01666,-0.4284 7.80818,-2.0445 12.87003,-3.5914 8.26168,-2.5247 9.967,-2.6418 16.66666,-1.1445 8.63268,1.9293 28.43667,4.2683 29.2503,3.4547 0.3038,-0.3038 -2.67399,-3.744 -6.61731,-7.645 -6.92819,-6.8537 -7.81678,-7.2864 -26.38124,-12.8464 -21.18477,-6.3448 -28.10995,-6.6037 -38.25693,-1.4305 -2.77758,1.4161 -8.08346,2.9353 -11.79083,3.376 -15.48294,1.8404 -24.26909,5.1437 -34.40735,12.9361 -2.75,2.1137 -5,3.1629 -5,2.3315 0,-2.287 3.55358,-8.6821 5.91208,-10.6395 1.14836,-0.9531 2.08792,-3.1189 2.08792,-4.8131 0,-2.028 1.0248,-3.4 3,-4.0164 1.65,-0.5149 3.3,-1.3196 3.66667,-1.788 0.87079,-1.1127 28.44524,-8.1572 35.33333,-9.0267 2.93333,-0.3703 6.66222,-1.5183 8.28642,-2.5511 3.74159,-2.3791 6.4037,-2.3586 15.92866,0.1223 13.44117,3.501 13.92475,2.6803 5.06548,-8.5961 -6.894,-8.775 -16.51329,-14.7372 -23.77644,-14.7372 -4.25817,0 -5.03007,-0.5467 -6.81956,-4.8295 -2.96331,-7.0922 -2.64759,-8.1177 2.31544,-7.5211 4.30569,0.5177 4.27805,0.4672 -4.33333,-7.9197 -9.02377,-8.7884 -13.51521,-15.7297 -10.17807,-15.7297 0.97062,0 2.90776,1.2792 4.30475,2.8428 1.39699,1.5636 7.50377,5.2217 13.57063,8.1291 7.74555,3.712 12.09333,6.737 14.59892,10.1572 1.96255,2.679 6.9737,8.4709 11.13587,12.8709 4.16218,4.4 12.28449,13.0078 18.04958,19.1285 16.07921,17.0709 26.25964,21.7862 25.68557,11.8966 -0.35291,-6.0794 1.59049,-24.079 2.77391,-25.6918 0.53811,-0.7333 1.74641,-4.1724 2.68511,-7.6425 0.9387,-3.47 2.1876,-6.0119 2.77533,-5.6486 0.58773,0.3632 0.48574,2.6023 -0.22665,4.9757 -1.34195,4.471 -1.69205,18.3136 -0.58125,22.9821 0.34898,1.4666 1.53182,5.0666 2.62854,8 1.09673,2.9333 2.02624,6.5333 2.06559,8 0.2677,9.9773 15.78077,28.6945 28.66792,34.5893 3.71856,1.7009 9.54368,5.7141 12.94472,8.9183 15.0599,14.1881 26.23595,22.0687 34.10877,24.0511 3.88896,0.9792 7.12136,3.0452 10.03103,6.4111 5.28739,6.1166 10.0803,8.9464 10.87562,6.421 2.56462,-8.1433 3.91976,-35.0713 2.22605,-44.2334 -2.44194,-13.2097 -13.31288,-26.6364 -37.06657,-45.7811 -9.31213,-7.5053 -12.64339,-11.0607 -13.86179,-14.7946 -2.48356,-7.6111 -10.66984,-22.4263 -16.20967,-29.3357 -15.41716,-19.2284 -19.1962,-22.0332 -34.41129,-25.5397 -3.99261,-0.9201 -9.65929,-2.7555 -12.59262,-4.0786 -2.93334,-1.3232 -9.45694,-2.8334 -14.49689,-3.3562 -7.42516,-0.7702 -11.21933,-2.1172 -20,-7.1006 -15.98787,-9.0737 -13.44194,-9.0232 30.49689,0.6051 8.8,1.9283 19.8597,3.9765 24.57711,4.5514 5.80614,0.7077 9.14003,1.8152 10.31955,3.4283 3.0433,4.162 3.52119,0.9594 1.24962,-8.3743 -5.57944,-22.9254 -17.90456,-44.8147 -32.60109,-57.8991 -5.22409,-4.6511 -5.68182,-5.4131 -2.87853,-4.7922 12.05887,2.6708 12.42942,2.6854 11.57397,0.4561 -0.45452,-1.1844 -3.19171,-5.3019 -6.08265,-9.1499 -5.40685,-7.1968 -7.32958,-12.3297 -4.61858,-12.3297 1.62349,0 18.49908,21.1776 22.3121,28 1.22957,2.2 4.03298,7 6.22979,10.6667 2.19681,3.6667 4.56799,8.0315 5.26928,9.6995 0.7013,1.6682 3.37234,4.2704 5.93564,5.7827 4.29283,2.5329 4.65399,3.2404 4.57726,8.9672 -0.13194,9.8478 7.58784,32.1759 20.12815,58.2173 2.11884,4.4 5.38629,11.5198 7.261,15.8218 3.36566,7.7233 14.07405,19.6603 24.68002,27.5115 2.47659,1.8333 7.74327,6.3067 11.70373,9.9407 5.80607,5.3276 7.43862,6.2315 8.42848,4.6667 0.6752,-1.0674 1.2519,-3.1407 1.28154,-4.6074 0.0296,-1.4667 0.41578,-8.7415 0.85808,-16.1663 1.26621,-21.2556 -2.49593,-35.1677 -14.19723,-52.5004 -5.61622,-8.319 -9.80235,-17.2196 -13.27589,-28.2274 -2.70322,-8.5666 -11.30177,-22.1192 -21.21785,-33.4425 -14.61608,-16.6903 -24.18017,-33.3992 -24.18017,-42.2439 0,-2.2474 0.35382,-4.0862 0.78628,-4.0862 1.36257,0 5.83134,5.7916 8.74474,11.3333 5.16626,9.8271 12.00651,18.0073 17.98943,21.5136 3.26334,1.9124 6.27545,3.135 6.69357,2.7169 0.88348,-0.8835 -2.7104,-20.7934 -6.53985,-36.2304 -4.53407,-18.27758 -4.59772,-20.44744 -0.47898,-16.3287 1.76538,1.76539 7.47148,17.5596 7.47148,20.6807 0,1.0088 1.7956,4.444 3.99022,7.6337 3.48984,5.0723 6.49097,16.5781 6.65003,25.4949 0.0145,0.8143 1.42406,3.5401 3.1323,6.0574 1.96795,2.8999 3.71456,8.4638 4.76719,15.1861 2.94355,18.7978 8.6935,33.9033 15.76848,41.4249 l 3.62227,3.851 1.12128,-8 c 0.6167,-4.4 0.8559,-15.5588 0.53155,-24.7974 -0.46858,-13.3472 -1.09624,-17.5922 -3.05572,-20.6667 -1.35631,-2.1281 -2.99548,-4.2452 -3.64261,-4.7047 -1.95104,-1.3854 2.04631,-10.4979 4.60508,-10.4979 1.25824,0 2.55556,0.75 2.88294,1.6667 1.53849,4.3076 2.50599,-1.8908 3.81359,-24.4319 1.4511,-25.01464 2.5739,-31.20068 5.4883,-30.2359 1.0993,0.36392 1.7895,4.25288 2.0472,11.53435 0.4519,12.77075 1.8931,13.48445 6.8647,3.39965 4.2703,-8.66214 5.2297,-4.83152 1.6082,6.4213 -4.2314,13.148 -4.3322,14.0591 -4.2348,38.2619 0.022,5.4722 -0.2463,10.8722 -0.5963,12 -0.8342,2.6881 1.8681,6.8032 2.8588,4.3536 1.4857,-3.6731 9.3542,-14.162 11.0474,-14.7264 2.5036,-0.8345 0.851,8.9855 -2.6753,15.8977 -1.4674,2.8762 -4.2335,11.0712 -6.1471,18.2109 -2.9498,11.0067 -3.502,15.9699 -3.6301,32.6262 -0.091,11.8718 0.3524,19.5216 1.121,19.3334 0.6996,-0.1713 1.4119,-1.2115 1.583,-2.3115 0.1711,-1.1 0.7032,-4.7 1.1825,-8 0.4792,-3.3 2.3013,-9.1335 4.049,-12.9634 1.7478,-3.8299 3.552,-8.4545 4.0094,-10.2769 0.4827,-1.9234 5.817,-7.5774 12.7148,-13.4767 6.5357,-5.5897 13.5236,-12.3651 15.5287,-15.0564 2.005,-2.6913 3.9495,-5.1932 4.321,-5.5599 1.4762,-1.4569 6.5503,-13.0745 8.7352,-20 1.2725,-4.0334 2.8291,-8.3752 3.459,-9.6486 0.63,-1.2734 1.1455,-3.2634 1.1455,-4.4223 0,-2.1871 5.0162,-9.4839 10.492,-15.2625 l 3.1588,-3.3333 -0.9161,3.3333 c -5.0675,18.4394 -5.9066,22.315 -5.2731,24.3543 1.0167,3.2727 -1.6114,10.5869 -7.1367,19.8623 -2.5774,4.3267 -4.2917,8.2611 -3.8096,8.7432 1.1993,1.1993 12.818,-4.5707 12.818,-6.3656 0,-1.7604 5.5706,-0.2266 6.9696,1.9189 0.5332,0.8178 0.6588,2.4865 0.2791,3.7081 -0.3798,1.2216 -0.066,2.607 0.6971,3.0787 3.098,1.9147 1.0619,4.4656 -4.7282,5.9236 -5.2972,1.3338 -17.2728,6.8205 -33.8317,15.5001 -6.3983,3.3538 -15.579,13.1147 -16.526,17.5705 -0.4332,2.0383 -1.4427,7.6059 -2.2433,12.3726 -1.5205,9.0529 -3.8708,21.7437 -7.161,38.6667 -3.2387,16.6585 -6.2389,68.014 -3.9716,67.9847 1.6405,-0.021 5.3093,-8.2303 8.6337,-19.3181 1.5392,-5.1333 3.3423,-9.9033 4.007,-10.6 0.6648,-0.6966 1.2086,-2.3966 1.2086,-3.7778 0,-1.3811 1.95,-4.4318 4.3334,-6.7792 9.4646,-9.3221 26.9198,-34.8553 29.5992,-43.2971 0.5026,-1.5836 1.4188,-2.8792 2.0361,-2.8792 1.3602,0 15.1423,-12.466 25.4892,-23.0552 7.9349,-8.1207 12.9966,-19.3118 11.2392,-24.849 -0.4677,-1.4736 0.3635,-7.348 1.847,-13.0542 1.4836,-5.7062 3.9537,-18.7749 5.4892,-29.0416 2.633,-17.6053 6.0583,-29.9838 8.3001,-29.995 0.55,0 1,-0.9624 1,-2.1326 0,-2.7062 4.1899,-9.8724 5.7722,-9.8724 1.3585,0 0.248,8.7757 -2.4144,19.079 -2.8239,10.928 -3.9142,20.0019 -2.3341,19.4244 1.8211,-0.6655 29.245,-37.8158 30.248,-40.9761 0.6647,-2.0941 2.3697,-3.3351 9.0616,-6.5956 2.011,-0.9798 0.9157,2.5882 -2.4134,7.8617 -2.2735,3.6016 -2.9927,5.9302 -2.1535,6.9735 1.9861,2.4694 -0.1567,6.2569 -9.1615,16.1934 -6.4485,7.1156 -10.2986,13.2439 -16.7369,26.6406 -8.065,16.7814 -15.2014,37.5604 -15.2014,44.2618 0,2.9029 0.2941,3.0737 2.8951,1.6817 5.497,-2.9419 9.7359,-9.4433 11.1433,-17.0907 1.2496,-6.7908 1.684,-7.459 4.8842,-7.514 2.5044,-0.043 5.305,-2.054 9.7584,-7.0072 3.4352,-3.8208 7.8373,-7.3361 9.7824,-7.8117 1.9452,-0.4756 3.9261,-1.4597 4.4021,-2.187 0.4759,-0.7273 1.8686,-0.9374 3.0947,-0.4669 2.019,0.7748 1.963,1.2294 -0.5938,4.8201 -1.5527,2.1805 -4.4453,5.6811 -6.4281,7.779 -5.8971,6.2396 -9.8127,11.9503 -16.8965,24.6426 -6.6687,11.9486 -6.7598,12.0404 -15.3751,15.4925 -11.234,4.5014 -18.9055,9.5485 -23.579,15.513 -2.0649,2.6352 -7.533,7.7852 -12.1514,11.4445 -8.0147,6.3503 -13.5872,13.252 -13.5979,16.8414 -0.01,2.582 3.3077,1.9694 6.1121,-1.1294 3.107,-3.4333 21.5056,-12.6923 22.7494,-11.4485 2.1705,2.1705 -2.1957,7.4563 -6.8862,8.3362 -3.1181,0.585 -5.8313,2.2849 -7.7164,4.8346 -1.599,2.1628 -9.3257,8.754 -17.1705,14.6472 -7.8447,5.8931 -15.7683,12.9893 -17.608,15.7692 -1.8396,2.7799 -5.269,10.665 -7.6207,17.5225 -2.3518,6.8575 -4.7834,13.0382 -5.4037,13.7349 -0.6202,0.6966 -1.1314,2.1966 -1.1359,3.3333 0,1.1367 -0.9668,3.8667 -2.1385,6.0667 -3.0748,5.7735 -10.6719,27.138 -11.7343,32.9988 -0.9007,4.9692 -0.8859,4.9897 2.4875,3.4527 1.8664,-0.8504 3.3935,-1.9492 3.3935,-2.4418 0,-0.4925 3.4896,-4.4462 7.7547,-8.7859 6.8377,-6.9575 7.9624,-8.8738 9.5119,-16.2068 0.9665,-4.574 3.1769,-10.2406 4.912,-12.5924 1.7351,-2.3518 3.1547,-5.0241 3.1547,-5.9383 0,-0.9143 0.6066,-2.0371 1.3479,-2.4953 0.8883,-0.549 1.1149,3.1743 0.6646,10.9213 l -0.6833,11.7543 3.0021,-6.4634 c 9.0346,-19.4512 15.2973,-30.8453 17.65,-32.1115 1.4563,-0.7838 3.5563,-2.3838 4.6666,-3.5556 1.1103,-1.1719 4.4188,-2.9132 7.3521,-3.8696 2.9334,-0.9564 6.6128,-3.2178 8.1765,-5.0253 2.2053,-2.5492 4.7476,-3.5189 11.3333,-4.3228 4.6696,-0.57 15.6902,-2.6141 24.4902,-4.5424 43.9389,-9.6283 46.4848,-9.6788 30.4969,-0.6051 -8.7807,4.9833 -12.5748,6.3304 -20,7.1006 -5.0399,0.5228 -11.5635,2.033 -14.4969,3.3562 -2.9333,1.3231 -8.6,3.1585 -12.5926,4.0786 -15.2658,3.5182 -18.9315,6.2503 -34.6431,25.8202 -4.5608,5.6809 -13.3051,21.7871 -16.9581,31.2353 -0.6582,1.7023 -6.8838,7.7114 -13.8348,13.3537 -12.1761,9.8836 -12.7543,10.5989 -15.8203,19.5715 -2.5026,7.3238 -3.323,13.0865 -3.8406,26.9796 -0.4893,13.1293 -0.2512,17.6667 0.9268,17.6667 0.8719,0 3.9858,-2.6377 6.9198,-5.8616 3.7078,-4.0741 7.048,-6.2931 10.9531,-7.2764 7.757,-1.9533 18.9981,-9.8976 33.9894,-24.0211 3.401,-3.2041 9.2261,-7.2174 12.9447,-8.9183 12.8871,-5.8947 28.4002,-24.612 28.6679,-34.5893 0.039,-1.4666 0.9689,-5.0666 2.0656,-8 1.0967,-2.9333 2.2795,-6.5333 2.6285,-8 1.1108,-4.6684 0.7607,-18.511 -0.5812,-22.982 -0.7124,-2.3734 -0.8144,-4.6125 -0.2267,-4.9758 0.5878,-0.3632 1.8367,2.1787 2.7754,5.6487 0.9387,3.47 2.147,6.9091 2.6851,7.6425 1.1834,1.6127 3.1268,19.6124 2.7739,25.6918 -0.5741,9.8895 9.6063,5.1743 25.6855,-11.8967 5.7651,-6.1206 13.8874,-14.7285 18.04959,-19.1285 4.16222,-4.4 9.17332,-10.1918 11.13592,-12.8708 2.5056,-3.4203 6.8534,-6.4452 14.5989,-10.1572 6.0669,-2.9075 12.1737,-6.5656 13.5706,-8.1291 1.397,-1.5636 3.3342,-2.8429 4.3048,-2.8429 3.3371,0 -1.1543,6.9414 -10.1781,15.7298 -8.6114,8.3868 -8.639,8.4373 -4.3333,7.9197 4.963,-0.5966 5.2787,0.4289 2.3154,7.521 -1.7895,4.2829 -2.5614,4.8295 -6.8195,4.8295 -7.2632,0 -16.8825,5.9623 -23.77652,14.7373 -8.85919,11.2764 -8.37569,12.0971 5.06552,8.5961 9.525,-2.481 12.1871,-2.5014 15.9287,-0.1223 1.6242,1.0328 5.3531,2.1807 8.2864,2.551 6.8881,0.8696 34.4625,7.9141 35.3333,9.0267 0.3667,0.4685 2.0167,1.2731 3.6667,1.7881 1.9752,0.6164 3,1.9884 3,4.0164 0,1.6941 0.9396,3.86 2.0879,4.813 2.3585,1.9574 5.9121,8.3525 5.9121,10.6396 0,0.8313 -2.25,-0.2178 -5,-2.3315 -10.1383,-7.7924 -18.9244,-11.0957 -34.4074,-12.9362 -3.7073,-0.4406 -9.0132,-1.9598 -11.7908,-3.3759 -10.147,-5.1732 -17.0721,-4.9143 -38.25691,1.4305 -18.5645,5.56 -19.4531,5.9927 -26.3813,12.8464 -3.9433,3.9009 -6.9211,7.3412 -6.6173,7.645 0.8137,0.8136 20.6177,-1.5254 29.2503,-3.4547 6.6997,-1.4973 8.405,-1.3802 16.66671,1.1445 5.0618,1.5469 10.8534,3.163 12.87,3.5913 2.0167,0.4284 3.6667,1.3024 3.6667,1.9423 0,2.1272 -6.8074,2.9131 -17.7996,2.0549 -11.11381,-0.8677 -23.55691,1.5128 -36.62321,7.0063 -2.7008,1.1355 -9.4389,2.1752 -14.9735,2.3105 -9.3308,0.2281 -10.6242,0.628 -17.776,5.4967 -8.1058,5.5181 -8.958,6.0627 -17.2003,10.9908 -4.5845,2.741 -5.0478,3.4948 -4.2845,6.97 1.5404,7.0134 0,8.7967 -9.718,11.2336 -10.0697,2.5258 -23.2553,10.2442 -30.314,17.7451 -5.2496,5.5783 -14.5863,23.4041 -12.6147,24.0841 0.701,0.2418 4.4722,-1.3899 8.3804,-3.626 6.4816,-3.7084 7.5663,-3.9385 12.3453,-2.619 7.9463,2.1941 24.1921,0.357 29.9114,-3.3824 9.5733,-6.2592 44.1249,-6.9131 62,-1.1733 4.6309,1.487 22.4395,0.832 27.33339,-1.0054 5.44742,-2.0451 28.82022,-2.3441 32.29832,-0.413 1.6692,0.9268 5.6987,1.7063 8.9544,1.7323 5.3991,0.043 6.4829,0.6569 12.3288,6.9824 6.3563,6.8779 8.763,11.1648 7.1651,12.7627 -0.4566,0.4566 -6.3614,-0.5739 -13.1217,-2.2899 -14.6692,-3.7235 -45.29652,-5.4146 -50.23131,-2.7736 -2.9462,1.5768 -2.951,1.6243 -0.3533,3.4438 1.4487,1.0148 5.55731,2.5799 9.13021,3.4781 15.3998,3.8715 7.0126,4.7098 -12.17051,1.2165 -4.4,-0.8013 -11.3,-2.0329 -15.3334,-2.7369 -4.0333,-0.704 -11.8333,-2.267 -17.3333,-3.4733 -14.4567,-3.1706 -41.3333,-1.4144 -41.3333,2.701 0,3.6994 23.6303,12.25 37.0099,13.3918 12.682,1.0823 20.1098,3.1383 17.4829,4.8392 -1.0044,0.6503 -4.2262,1.0835 -7.1595,0.9627 -2.9333,-0.1209 -6.612,0.1946 -8.1748,0.701 -1.5629,0.5065 -13.2629,-0.8746 -26,-3.069 -38.9207,-6.7053 -45.875,-7.1891 -52.6893,-3.6652 -6.1956,3.2038 -12.516,10.2722 -15.8921,17.7726 -3.6259,8.0555 -7.4074,21.7933 -6.4328,23.3702 0.3738,0.6049 3.9089,1.0998 7.8557,1.0998 3.9467,0 7.503,0.5292 7.9027,1.176 0.3998,0.6468 4.6358,1.5947 9.4133,2.1063 8.6426,0.9255 16.2713,4.1092 26.3506,10.997 2.75,1.8792 5,4.1279 5,4.9971 0,0.8692 2.55,3.4638 5.6667,5.7658 5.1632,3.8136 6.5703,4.1902 15.8367,4.2383 7.5813,0.039 10.6041,-0.47 11.8749,-2.0013 z" id="path4"/></g></svg>