<svg version="1.1" id="svg1" width="5078.9116" height="5263.5273" viewBox="1600.4718999999996 -135.83564283997077 197.7195772036589 827.4805557407487" sodipodi:docname="trees2.svg" inkscape:version="1.4.2 (f4327f4, 2025-05-13)" xmlns:inkscape="http://www.inkscape.org/namespaces/inkscape" xmlns:sodipodi="http://sodipodi.sourceforge.net/DTD/sodipodi-0.dtd" xmlns="http://www.w3.org/2000/svg" xmlns:svg="http://www.w3.org/2000/svg"><defs id="defs1">
    <inkscape:path-effect effect="fill_between_many" method="originald" linkedpaths="#path1,0,1|" id="path-effect50" xmlns:inkscape="http://www.inkscape.org/namespaces/inkscape"/>
    <inkscape:path-effect effect="fill_between_many" method="originald" linkedpaths="#path1,0,1|#path51,0,1|#path2,0,1|#path3,0,1|#path4,0,1|#path5,0,1|#path6,0,1|#path7,0,1|#path8,0,1|#path9,0,1|#path10,0,1|#path11,0,1|#path12,0,1|#path13,0,1|#path14,0,1|#path15,0,1|#path16,0,1|#path17,0,1|#path18,0,1|#path19,0,1|#path20,0,1|#path21,0,1|#path22,0,1|#path23,0,1|#path24,0,1|#path25,0,1|" id="path-effect51" xmlns:inkscape="http://www.inkscape.org/namespaces/inkscape"/>
    <inkscape:path-effect effect="fill_between_many" method="originald" linkedpaths="#path2,0,1|" id="path-effect52" xmlns:inkscape="http://www.inkscape.org/namespaces/inkscape"/>
    <inkscape:path-effect effect="fill_between_many" method="originald" linkedpaths="#path4,0,1|" id="path-effect53" xmlns:inkscape="http://www.inkscape.org/namespaces/inkscape"/>
    <inkscape:path-effect effect="fill_between_many" method="originald" linkedpaths="#path5,0,1|" id="path-effect54" xmlns:inkscape="http://www.inkscape.org/namespaces/inkscape"/>
    <inkscape:path-effect effect="fill_between_many" method="originald" linkedpaths="#path6,0,1|" id="path-effect55" xmlns:inkscape="http://www.inkscape.org/namespaces/inkscape"/>
    <inkscape:path-effect effect="fill_between_many" method="originald" linkedpaths="#path7,0,1|" id="path-effect56" xmlns:inkscape="http://www.inkscape.org/namespaces/inkscape"/>
    <inkscape:path-effect effect="fill_between_many" method="originald" linkedpaths="#path8,0,1|" id="path-effect57" xmlns:inkscape="http://www.inkscape.org/namespaces/inkscape"/>
    <inkscape:path-effect effect="fill_between_many" method="originald" linkedpaths="#path9,0,1|" id="path-effect58" xmlns:inkscape="http://www.inkscape.org/namespaces/inkscape"/>
    <inkscape:path-effect effect="fill_between_many" method="originald" linkedpaths="#path10,0,1|" id="path-effect59" xmlns:inkscape="http://www.inkscape.org/namespaces/inkscape"/>
    <inkscape:path-effect effect="fill_between_many" method="originald" linkedpaths="#path11,0,1|" id="path-effect60" xmlns:inkscape="http://www.inkscape.org/namespaces/inkscape"/>
    <inkscape:path-effect effect="fill_between_many" method="originald" linkedpaths="#path12,0,1|" id="path-effect61" xmlns:inkscape="http://www.inkscape.org/namespaces/inkscape"/>
    <inkscape:path-effect effect="fill_between_many" method="originald" linkedpaths="#path13,0,1|" id="path-effect62" xmlns:inkscape="http://www.inkscape.org/namespaces/inkscape"/>
    <inkscape:path-effect effect="fill_between_many" method="originald" linkedpaths="#path14,0,1|" id="path-effect63" xmlns:inkscape="http://www.inkscape.org/namespaces/inkscape"/>
    <inkscape:path-effect effect="fill_between_many" method="originald" linkedpaths="#path15,0,1|" id="path-effect64" xmlns:inkscape="http://www.inkscape.org/namespaces/inkscape"/>
    <inkscape:path-effect effect="fill_between_many" method="originald" linkedpaths="#path16,0,1|" id="path-effect65" xmlns:inkscape="http://www.inkscape.org/namespaces/inkscape"/>
    <inkscape:path-effect effect="fill_between_many" method="originald" linkedpaths="#path17,0,1|" id="path-effect66" xmlns:inkscape="http://www.inkscape.org/namespaces/inkscape"/>
    <inkscape:path-effect effect="fill_between_many" method="originald" linkedpaths="#path18,0,1|" id="path-effect67" xmlns:inkscape="http://www.inkscape.org/namespaces/inkscape"/>
    <inkscape:path-effect effect="fill_between_many" method="originald" linkedpaths="#path19,0,1|" id="path-effect68" xmlns:inkscape="http://www.inkscape.org/namespaces/inkscape"/>
    <inkscape:path-effect effect="fill_between_many" method="originald" linkedpaths="#path20,0,1|" id="path-effect69" xmlns:inkscape="http://www.inkscape.org/namespaces/inkscape"/>
    <inkscape:path-effect effect="fill_between_many" method="originald" linkedpaths="#path21,0,1|" id="path-effect70" xmlns:inkscape="http://www.inkscape.org/namespaces/inkscape"/>
    <inkscape:path-effect effect="fill_between_many" method="originald" linkedpaths="#path22,0,1|" id="path-effect71" xmlns:inkscape="http://www.inkscape.org/namespaces/inkscape"/>
    <inkscape:path-effect effect="fill_between_many" method="originald" linkedpaths="#path23,0,1|" id="path-effect72" xmlns:inkscape="http://www.inkscape.org/namespaces/inkscape"/>
    <inkscape:path-effect effect="fill_between_many" method="originald" linkedpaths="#path24,0,1|" id="path-effect73" xmlns:inkscape="http://www.inkscape.org/namespaces/inkscape"/>
    <inkscape:path-effect effect="fill_between_many" method="originald" linkedpaths="#path25,0,1|" id="path-effect74" xmlns:inkscape="http://www.inkscape.org/namespaces/inkscape"/>
  </defs><g><path xmlns:inkscape="http://www.inkscape.org/namespaces/inkscape" inkscape:original-d="M 0,0" inkscape:path-effect="#path-effect67" d="m 1707.7528,-134.71551 c -2.4083,-1.4881 -10.8671,11.1746 -13.3193,19.9332 l -2.1611,7.7148 -1.7971,-5.574 c -2.1301,-6.5901 -4.9261,-6.7119 -5.5641,-0.2425 -0.2481,2.5307 -0.8711,6.4699 -1.3835,8.7447 l -0.9291,4.1301 -3.8171,-4.7561 c -4.8496,-6.0616 -6.9284,-4.734 -7.068,4.5239 -0.1345,8.908198 -3.5054,25.880797 -5.1402,25.880797 -0.6493,0 -2.5079,-2.2526 -4.1298,-4.9985 -1.6219,-2.7458 -3.5715,-4.6102 -4.332,-4.14 -0.7606,0.4699 -1.9239,12.8011 -2.5851,27.395404 -1.1736,25.900703 -1.2734,26.467803 -4.3321,23.699703 -2.2231,-2.0121 -3.6428,-2.3249 -4.8976,-1.0703 -1.2542,1.2545 -0.6788,5.1739 1.9999,13.4906 3.9959,12.4077997 3.2468,16.8533997 -1.7269,10.2594997 l -2.9893,-3.9684997 -2.0195,3.7665997 c -1.2594,2.353 -1.6306,6.6515 -0.9895,11.4407996 l 1.0298,7.6744 -4.0993,-4.8974 c -3.5938,-4.28999965 -4.2308,-4.53239965 -5.2104,-1.9793 -1.0026,2.6116 0.5392,12.8812007 3.6448,24.2450007 l 1.1313,4.1301 -3.4433,-4.1301 c -3.1357,-3.7674 -3.5394,-3.8727 -4.5947,-1.1612 -0.9942,2.5542 1.8933,13.2051 6.7857,25.0225 1.0754,2.5972 0.7761,2.9738 -1.6058,2.06 -5.516,-2.1168 -5.73,0.6487 -0.8681,10.9258 6.1727,13.0483 6.2481,16.7872 0.1913,9.5324 -3.1863,-3.8164 -5.076,-4.98 -5.9073,-3.6352 -1.0284,1.6636 1.202,19.0762 5.0186,39.149396 l 0.9493,4.95811 -7.5634,-7.31091 c -6.7331,-6.520096 -7.6895,-6.976696 -8.7545,-4.2008 -0.682,1.7768 0.4343,9.18071 2.585,17.23721 5.4028,20.2363 9.9804,40.4278 9.3202,41.0882 -0.3103,0.3112 -4.2762,-1.3098 -8.8052,-3.605 -4.5296,-2.2952 -8.6057,-3.7945 -9.0679,-3.3323 -0.4601,0.4622 1.8096,7.4965 5.0486,15.6316 3.2391,8.135 5.456,15.2243 4.9277,15.7526 -0.5279,0.5283 -3.2252,-0.2172 -5.9881,-1.646 -2.7623,-1.4286 -5.4002,-1.9907 -5.8567,-1.2521 -0.4549,0.7386 1.7227,7.205 4.8372,14.3693 5.7372,13.1976 6.1493,16.18 1.7164,12.5011 -4.2156,-3.4988 -6.1653,-0.426 -3.2716,5.1702 l 2.6358,5.0792 -5.8165,-1.0906 c -3.1976,-0.5999 -6.1539,-0.5083 -6.5738,0.2022 -0.4187,0.7103 2.0759,7.6243 5.5538,15.3588 7.493,16.6634 8.0607,21.0576 2.8074,21.8114 -5.9565,0.8545 -3.9071,7.4141 5.4022,17.2572 4.5327,4.7925 8.25,9.9356 8.25,11.4308 0,1.4952 -0.5594,2.4476 -1.2419,2.1206 -0.6825,-0.3273 -3.8492,-1.9236 -7.0385,-3.5545 -4.664,-2.385 -6.7218,-2.6224 -10.5119,-1.1814 l -4.7157,1.7974 5.7662,6.3718 c 5.2503,5.8118 12.7738,21.929 12.7738,27.3551 0,1.2196 1.1566,4.997 2.5747,8.3913 1.4182,3.3942 2.3297,6.4252 2.0194,6.7353 -0.3101,0.3102 -3.6857,-0.2327 -7.5023,-1.2017 -13.117,-3.3294 -13.2634,-1.3393 -1.1917,15.9749 6.033,8.6534 10.5031,15.7325 9.9364,15.7325 -0.5671,0 -3.9696,-1.4144 -7.5633,-3.1506 -3.5938,-1.7365 -6.8975,-2.5764 -7.3415,-1.858 -0.4447,0.7184 2.7633,7.542 7.1295,15.1569 8.2324,14.3592 10.7161,19.6403 9.2493,19.6403 -0.4704,0 -3.0747,-1.1527 -5.7859,-2.5548 -7.1672,-3.7063 -8.7648,-1.5001 -3.999,5.5135 5.1385,7.5617 5.1479,8.6135 0.093,8.6135 -2.2212,0 -4.5011,0.7574 -5.0693,1.6762 -0.5678,0.9187 2.3695,7.119 6.5236,13.7836 4.1536,6.6646 7.5432,12.612 7.5432,13.2181 0,2.9009 -6.8586,0.621 -9.2901,-3.0899 -3.3307,-5.083 -5.8335,-4.5773 -7.4626,1.5146 -1.05,3.9275 -0.093,5.7862 6.9476,13.5615 9.9989,11.0413 11.094,16.1409 2.1203,9.8555 -1.9027,-1.3322 -3.9288,-1.9478 -4.5037,-1.3733 -2.2046,2.2049 -0.8242,6.196 5.3417,15.4295 l 6.3923,9.5728 -5.0594,5.059 -5.0688,5.0692 6.5329,2.5749 c 3.5932,1.4153 9.5182,3.9399 13.1579,5.6144 l 6.6142,3.0395 -4.9985,1.1006 c -2.7479,0.6053 -7.2144,2.9028 -9.9266,5.0994 l -4.9276,3.9888 5.8468,4.8974 c 3.2185,2.6883 12.7858,12.7565 21.2559,22.3768 12.2486,13.9112 17.4579,18.5112 25.4364,22.4981 5.5181,2.7572 10.9266,5.0187 12.0267,5.0187 2.3964,0 1.6079,61.3897 -1.0298,80.2375 -1.6953,12.1121 -8.6791,29.1851 -15.7327,38.4326 -2.2774,2.9859 -3.6894,6.1739 -3.1305,7.0786 1.216,1.967 66.4075,2.288 67.6157,0.3329 0.4446,-0.7183 -1.4662,-4.6254 -4.241,-8.6842 -13.5597,-19.8308 -16.1261,-31.5542 -17.399,-79.5307 l -0.9896,-37.4025 7.9574,-3.0395 c 13.6341,-5.2069 22.6781,-13.8214 33.2117,-31.6467 5.2766,-8.9293 11.7521,-18.7525 14.3796,-21.8214 5.3438,-6.2422 4.6226,-7.999 -3.5849,-8.7751 l -5.6246,-0.5352 7.8156,-7.9066 c 8.584,-8.6857 9.0922,-12.2669 1.6261,-11.3602 -4.6847,0.5689 -4.5539,0.3164 4.4229,-9.0981 15.1438,-15.8825 16.3707,-20.7862 4.8165,-19.2364 l -6.6342,0.8885 5.9373,-6.4221 c 7.0407,-7.6184 11.1928,-14.9804 9.1589,-16.2374 -0.8019,-0.4959 -3.8141,-0.075 -6.6948,0.929 -2.8808,1.0043 -5.5858,1.4827 -6.0082,1.0602 -0.4239,-0.4224 2.9811,-6.512 7.5634,-13.5311 4.5817,-7.0191 7.9004,-13.4622 7.3715,-14.3188 -0.5294,-0.8566 -2.8865,-1.0757 -5.241,-0.4844 -4.7854,1.2011 -4.5889,0.4224 2.3329,-8.9366 4.6267,-6.2568 3.7472,-9.1398 -2.3329,-7.6138 -4.8438,1.2158 -4.5848,0.3748 2.8679,-9.3304 11.5598,-15.055 10.8283,-19.3795 -2.4439,-14.4905 -5.0817,1.8721 -9.6277,3.0043 -10.108,2.5245 -0.4809,-0.4798 1.3468,-5.2407 4.0595,-10.5826 7.0256,-13.8361 15.364,-37.1639 14.2886,-39.9673 -0.7331,-1.9099 -1.3949,-1.9748 -3.3729,-0.333 -4.9318,4.0932 -2.5913,-2.6123 4.2513,-12.1679 5.4767,-7.648 6.245,-9.5729 4.1403,-10.3806 -1.4203,-0.5452 -3.6946,-0.554 -5.0595,-0.031 -3.3053,1.2684 -3.3197,-5.3403 0,-13.2383 2.7427,-6.5635 2.0835,-9.2428 -1.8979,-7.7148 -1.5987,0.6134 -0.2482,-2.4538 3.4329,-7.8056 7.0582,-10.2606 7.1931,-14.2853 0.455,-13.4908 -4.2432,0.5005 -4.5052,0.1903 -3.5746,-4.1401 0.5526,-2.5719 2.1362,-7.8578 3.5239,-11.7539 3.1005,-8.7019 2.0541,-12.8593 -2.615,-10.3604 -1.774,0.9492 -3.5989,1.7267 -4.0597,1.7267 -0.4601,0 0.9079,-5.1541 3.05,-11.4509 4.0626,-11.9456 3.9478,-13.3696 -1.0605,-13.3696 -3.6589,0 -3.7767,-2.8113 -0.6463,-14.5712 2.0396,-7.6626 2.0196,-8.9043 -0.093,-9.7142 -1.3308,-0.5108 -3.9851,0.4581 -5.9073,2.161 l -3.4935,3.1 1.0398,-7.8864 c 0.5759,-4.338 2.2081,-10.1339 3.6252,-12.8748 4.3212,-8.3565 -1.3748,-11.3947 -8.6134,-4.5945 -3.2861,3.0871 -3.827,3.2031 -3.827,0.7977 0,-1.5416 1.7134,-5.5828 3.8166,-8.977 2.1033,-3.3942 4.7162,-8.4081 5.8066,-11.138 2.5091,-6.2817 5.2322,-32.62221 3.5643,-34.47411 -0.6882,-0.7645 -2.6104,0.9041 -4.271,3.7161 -1.6612,2.8119 -3.6377,5.11961 -4.3926,5.11961 -1.4874,0 -0.274,-9.17981 2.3426,-17.752106 2.3312,-7.631 0.5946,-9.1136 -6.0893,-5.1701 -3.159,1.8641 -5.7456,2.9178 -5.7456,2.3428 0,-0.5752 1.8835,-4.7668 4.1909,-9.3204 4.8387,-9.549 4.2307,-12.2056 -2.0701,-8.9366 -2.4455,1.2687 -4.7342,2.0314 -5.0796,1.6863 -0.9534,-0.9535 5.6865,-15.2929 9.6737,-20.8925 4.5187,-6.3454 3.2841,-10.0574 -2.9283,-8.8153 l -4.6143,0.9289 -0.2223,-11.0269 c -0.2585,-12.4797 -2.2562,-16.1412 -5.9374,-10.8855 -6.094,8.7002 -4.9018,-7.385 1.4941,-20.1755007 4.3068,-8.6116996 3.7774,-11.7938996 -1.767,-10.7339996 -3.4511,0.6597 -3.54,0.2249 -3.1807,-14.1874997 0.3981,-15.8658 -0.2379,-18.7701 -3.4738,-16.0859 -1.5924,1.3217 -1.8752,-1.3459 -1.3024,-12.2588 0.4033,-7.671103 0.2482,-15.212807 -0.3412,-16.752407 -0.9555,-2.4911 -1.5392,-2.3618 -5.3009,1.1714 l -4.2214,3.9684 1.1111,-4.4531 c 1.6296,-6.4964 -0.4291,-8.8226 -4.5642,-5.1601 -3.3802,2.9937 -3.389,2.9756 -2.3834,-5.7961 0.5552,-4.8397 2.1704,-11.12 3.585,-13.955299 2.8399,-5.6924 0.9135,-10.223498 -2.7769,-6.5333 -3.5581,3.5579 -4.635,2.1214 -4.635,-6.189998 0,-4.496 -0.7093,-8.6174 -1.5852,-9.1588 -0.8763,-0.5412 -3.449,2.5824 -5.7155,6.9373 l -4.1201,7.916698 -0.083,-7.866298 c -0.052,-5.0328 1.3432,-10.8129 3.8673,-16.0454 5.7657,-11.951 3.1392,-13.4054 -7.2501,-4.019 l -6.6245,5.9779 v -6.7149 c 0,-3.6919 -0.716,-7.1512 -1.5949,-7.6946 z" id="path68"/><path id="path18" style="display:inline;fill:#1a1a1a;stroke-width:5.17011" d="m 1707.7528,-134.71551 c -2.4083,-1.4881 -10.8671,11.1746 -13.3193,19.9332 l -2.1611,7.7148 -1.7971,-5.574 c -2.1301,-6.5901 -4.9261,-6.7119 -5.5641,-0.2425 -0.2481,2.5307 -0.8711,6.4699 -1.3835,8.7447 l -0.9291,4.1301 -3.8171,-4.7561 c -4.8496,-6.0616 -6.9284,-4.734 -7.068,4.5239 -0.1345,8.908198 -3.5054,25.880797 -5.1402,25.880797 -0.6493,0 -2.5079,-2.2526 -4.1298,-4.9985 -1.6219,-2.7458 -3.5715,-4.6102 -4.332,-4.14 -0.7606,0.4699 -1.9239,12.8011 -2.5851,27.395404 -1.1736,25.900703 -1.2734,26.467803 -4.3321,23.699703 -2.2231,-2.0121 -3.6428,-2.3249 -4.8976,-1.0703 -1.2542,1.2545 -0.6788,5.1739 1.9999,13.4906 3.9959,12.4077997 3.2468,16.8533997 -1.7269,10.2594997 l -2.9893,-3.9684997 -2.0195,3.7665997 c -1.2594,2.353 -1.6306,6.6515 -0.9895,11.4407996 l 1.0298,7.6744 -4.0993,-4.8974 c -3.5938,-4.28999965 -4.2308,-4.53239965 -5.2104,-1.9793 -1.0026,2.6116 0.5392,12.8812007 3.6448,24.2450007 l 1.1313,4.1301 -3.4433,-4.1301 c -3.1357,-3.7674 -3.5394,-3.8727 -4.5947,-1.1612 -0.9942,2.5542 1.8933,13.2051 6.7857,25.0225 1.0754,2.5972 0.7761,2.9738 -1.6058,2.06 -5.516,-2.1168 -5.73,0.6487 -0.8681,10.9258 6.1727,13.0483 6.2481,16.7872 0.1913,9.5324 -3.1863,-3.8164 -5.076,-4.98 -5.9073,-3.6352 -1.0284,1.6636 1.202,19.0762 5.0186,39.149396 l 0.9493,4.95811 -7.5634,-7.31091 c -6.7331,-6.520096 -7.6895,-6.976696 -8.7545,-4.2008 -0.682,1.7768 0.4343,9.18071 2.585,17.23721 5.4028,20.2363 9.9804,40.4278 9.3202,41.0882 -0.3103,0.3112 -4.2762,-1.3098 -8.8052,-3.605 -4.5296,-2.2952 -8.6057,-3.7945 -9.0679,-3.3323 -0.4601,0.4622 1.8096,7.4965 5.0486,15.6316 3.2391,8.135 5.456,15.2243 4.9277,15.7526 -0.5279,0.5283 -3.2252,-0.2172 -5.9881,-1.646 -2.7623,-1.4286 -5.4002,-1.9907 -5.8567,-1.2521 -0.4549,0.7386 1.7227,7.205 4.8372,14.3693 5.7372,13.1976 6.1493,16.18 1.7164,12.5011 -4.2156,-3.4988 -6.1653,-0.426 -3.2716,5.1702 l 2.6358,5.0792 -5.8165,-1.0906 c -3.1976,-0.5999 -6.1539,-0.5083 -6.5738,0.2022 -0.4187,0.7103 2.0759,7.6243 5.5538,15.3588 7.493,16.6634 8.0607,21.0576 2.8074,21.8114 -5.9565,0.8545 -3.9071,7.4141 5.4022,17.2572 4.5327,4.7925 8.25,9.9356 8.25,11.4308 0,1.4952 -0.5594,2.4476 -1.2419,2.1206 -0.6825,-0.3273 -3.8492,-1.9236 -7.0385,-3.5545 -4.664,-2.385 -6.7218,-2.6224 -10.5119,-1.1814 l -4.7157,1.7974 5.7662,6.3718 c 5.2503,5.8118 12.7738,21.929 12.7738,27.3551 0,1.2196 1.1566,4.997 2.5747,8.3913 1.4182,3.3942 2.3297,6.4252 2.0194,6.7353 -0.3101,0.3102 -3.6857,-0.2327 -7.5023,-1.2017 -13.117,-3.3294 -13.2634,-1.3393 -1.1917,15.9749 6.033,8.6534 10.5031,15.7325 9.9364,15.7325 -0.5671,0 -3.9696,-1.4144 -7.5633,-3.1506 -3.5938,-1.7365 -6.8975,-2.5764 -7.3415,-1.858 -0.4447,0.7184 2.7633,7.542 7.1295,15.1569 8.2324,14.3592 10.7161,19.6403 9.2493,19.6403 -0.4704,0 -3.0747,-1.1527 -5.7859,-2.5548 -7.1672,-3.7063 -8.7648,-1.5001 -3.999,5.5135 5.1385,7.5617 5.1479,8.6135 0.093,8.6135 -2.2212,0 -4.5011,0.7574 -5.0693,1.6762 -0.5678,0.9187 2.3695,7.119 6.5236,13.7836 4.1536,6.6646 7.5432,12.612 7.5432,13.2181 0,2.9009 -6.8586,0.621 -9.2901,-3.0899 -3.3307,-5.083 -5.8335,-4.5773 -7.4626,1.5146 -1.05,3.9275 -0.093,5.7862 6.9476,13.5615 9.9989,11.0413 11.094,16.1409 2.1203,9.8555 -1.9027,-1.3322 -3.9288,-1.9478 -4.5037,-1.3733 -2.2046,2.2049 -0.8242,6.196 5.3417,15.4295 l 6.3923,9.5728 -5.0594,5.059 -5.0688,5.0692 6.5329,2.5749 c 3.5932,1.4153 9.5182,3.9399 13.1579,5.6144 l 6.6142,3.0395 -4.9985,1.1006 c -2.7479,0.6053 -7.2144,2.9028 -9.9266,5.0994 l -4.9276,3.9888 5.8468,4.8974 c 3.2185,2.6883 12.7858,12.7565 21.2559,22.3768 12.2486,13.9112 17.4579,18.5112 25.4364,22.4981 5.5181,2.7572 10.9266,5.0187 12.0267,5.0187 2.3964,0 1.6079,61.3897 -1.0298,80.2375 -1.6953,12.1121 -8.6791,29.1851 -15.7327,38.4326 -2.2774,2.9859 -3.6894,6.1739 -3.1305,7.0786 1.216,1.967 66.4075,2.288 67.6157,0.3329 0.4446,-0.7183 -1.4662,-4.6254 -4.241,-8.6842 -13.5597,-19.8308 -16.1261,-31.5542 -17.399,-79.5307 l -0.9896,-37.4025 7.9574,-3.0395 c 13.6341,-5.2069 22.6781,-13.8214 33.2117,-31.6467 5.2766,-8.9293 11.7521,-18.7525 14.3796,-21.8214 5.3438,-6.2422 4.6226,-7.999 -3.5849,-8.7751 l -5.6246,-0.5352 7.8156,-7.9066 c 8.584,-8.6857 9.0922,-12.2669 1.6261,-11.3602 -4.6847,0.5689 -4.5539,0.3164 4.4229,-9.0981 15.1438,-15.8825 16.3707,-20.7862 4.8165,-19.2364 l -6.6342,0.8885 5.9373,-6.4221 c 7.0407,-7.6184 11.1928,-14.9804 9.1589,-16.2374 -0.8019,-0.4959 -3.8141,-0.075 -6.6948,0.929 -2.8808,1.0043 -5.5858,1.4827 -6.0082,1.0602 -0.4239,-0.4224 2.9811,-6.512 7.5634,-13.5311 4.5817,-7.0191 7.9004,-13.4622 7.3715,-14.3188 -0.5294,-0.8566 -2.8865,-1.0757 -5.241,-0.4844 -4.7854,1.2011 -4.5889,0.4224 2.3329,-8.9366 4.6267,-6.2568 3.7472,-9.1398 -2.3329,-7.6138 -4.8438,1.2158 -4.5848,0.3748 2.8679,-9.3304 11.5598,-15.055 10.8283,-19.3795 -2.4439,-14.4905 -5.0817,1.8721 -9.6277,3.0043 -10.108,2.5245 -0.4809,-0.4798 1.3468,-5.2407 4.0595,-10.5826 7.0256,-13.8361 15.364,-37.1639 14.2886,-39.9673 -0.7331,-1.9099 -1.3949,-1.9748 -3.3729,-0.333 -4.9318,4.0932 -2.5913,-2.6123 4.2513,-12.1679 5.4767,-7.648 6.245,-9.5729 4.1403,-10.3806 -1.4203,-0.5452 -3.6946,-0.554 -5.0595,-0.031 -3.3053,1.2684 -3.3197,-5.3403 0,-13.2383 2.7427,-6.5635 2.0835,-9.2428 -1.8979,-7.7148 -1.5987,0.6134 -0.2482,-2.4538 3.4329,-7.8056 7.0582,-10.2606 7.1931,-14.2853 0.455,-13.4908 -4.2432,0.5005 -4.5052,0.1903 -3.5746,-4.1401 0.5526,-2.5719 2.1362,-7.8578 3.5239,-11.7539 3.1005,-8.7019 2.0541,-12.8593 -2.615,-10.3604 -1.774,0.9492 -3.5989,1.7267 -4.0597,1.7267 -0.4601,0 0.9079,-5.1541 3.05,-11.4509 4.0626,-11.9456 3.9478,-13.3696 -1.0605,-13.3696 -3.6589,0 -3.7767,-2.8113 -0.6463,-14.5712 2.0396,-7.6626 2.0196,-8.9043 -0.093,-9.7142 -1.3308,-0.5108 -3.9851,0.4581 -5.9073,2.161 l -3.4935,3.1 1.0398,-7.8864 c 0.5759,-4.338 2.2081,-10.1339 3.6252,-12.8748 4.3212,-8.3565 -1.3748,-11.3947 -8.6134,-4.5945 -3.2861,3.0871 -3.827,3.2031 -3.827,0.7977 0,-1.5416 1.7134,-5.5828 3.8166,-8.977 2.1033,-3.3942 4.7162,-8.4081 5.8066,-11.138 2.5091,-6.2817 5.2322,-32.62221 3.5643,-34.47411 -0.6882,-0.7645 -2.6104,0.9041 -4.271,3.7161 -1.6612,2.8119 -3.6377,5.11961 -4.3926,5.11961 -1.4874,0 -0.274,-9.17981 2.3426,-17.752106 2.3312,-7.631 0.5946,-9.1136 -6.0893,-5.1701 -3.159,1.8641 -5.7456,2.9178 -5.7456,2.3428 0,-0.5752 1.8835,-4.7668 4.1909,-9.3204 4.8387,-9.549 4.2307,-12.2056 -2.0701,-8.9366 -2.4455,1.2687 -4.7342,2.0314 -5.0796,1.6863 -0.9534,-0.9535 5.6865,-15.2929 9.6737,-20.8925 4.5187,-6.3454 3.2841,-10.0574 -2.9283,-8.8153 l -4.6143,0.9289 -0.2223,-11.0269 c -0.2585,-12.4797 -2.2562,-16.1412 -5.9374,-10.8855 -6.094,8.7002 -4.9018,-7.385 1.4941,-20.1755007 4.3068,-8.6116996 3.7774,-11.7938996 -1.767,-10.7339996 -3.4511,0.6597 -3.54,0.2249 -3.1807,-14.1874997 0.3981,-15.8658 -0.2379,-18.7701 -3.4738,-16.0859 -1.5924,1.3217 -1.8752,-1.3459 -1.3024,-12.2588 0.4033,-7.671103 0.2482,-15.212807 -0.3412,-16.752407 -0.9555,-2.4911 -1.5392,-2.3618 -5.3009,1.1714 l -4.2214,3.9684 1.1111,-4.4531 c 1.6296,-6.4964 -0.4291,-8.8226 -4.5642,-5.1601 -3.3802,2.9937 -3.389,2.9756 -2.3834,-5.7961 0.5552,-4.8397 2.1704,-11.12 3.585,-13.955299 2.8399,-5.6924 0.9135,-10.223498 -2.7769,-6.5333 -3.5581,3.5579 -4.635,2.1214 -4.635,-6.189998 0,-4.496 -0.7093,-8.6174 -1.5852,-9.1588 -0.8763,-0.5412 -3.449,2.5824 -5.7155,6.9373 l -4.1201,7.916698 -0.083,-7.866298 c -0.052,-5.0328 1.3432,-10.8129 3.8673,-16.0454 5.7657,-11.951 3.1392,-13.4054 -7.2501,-4.019 l -6.6245,5.9779 v -6.7149 c 0,-3.6919 -0.716,-7.1512 -1.5949,-7.6946 z m -2.5349,3.2718 0.8282,8.149 c 0.9053,8.9111 4.0896,11.7092 6.412,5.6346 1.7619,-4.6081 8.4723,-11.0788 8.4723,-8.1693 0,1.0962 -1.136,4.2127 -2.5345,6.9171 -3.4086,6.5913 -3.5813,19.280498 -0.305,22.558598 2.294,2.2944 2.8818,1.9167 5.927,-3.857398 l 3.3828,-6.4121 0.073,8.583198 c 0.078,9.267599 2.0669,12.263699 5.0388,7.5835 1.5292,-2.4082 1.6771,-2.0497 0.7879,2.029699 -4.3677,20.0323 -3.4092,26.8774 2.9583,21.1146 3.0012,-2.716 3.0731,-2.6511 2.0097,1.5854 -1.7346,6.911004 0.5604,8.760804 5.352,4.3118 l 4.1501,-3.8473 -0.5956,15.712207 c -0.5258,13.8896 -0.2741,15.6946 2.1709,15.5104 2.4191,-0.182 2.734,1.6961 2.4837,14.8944 l -0.2947,15.0962997 4.6148,-0.4845 4.6149,-0.4948 -3.9587,7.9368996 c -5.2053,10.4096007 -6.7512,20.4661007 -3.7665,24.5480007 1.8737,2.5622 2.72,2.7451 4.7865,1.0299 2.1291,-1.7668 2.6756,-1.3468 3.5746,2.7466 0.5837,2.6565 0.6007,6.6545 0.051,8.8861 -1.2294,4.8997 2.6089,8.7417 7.4626,7.4725 4.24,-1.1089 4.2312,-1.0949 -1.6059,8.1086 -5.9564,9.3928 -8.9773,18.0272 -7.5835,21.6599 0.787,2.0503 1.487,2.2292 2.9589,0.7574 1.0619,-1.0622 2.9118,-1.9288 4.1097,-1.9288 1.5268,0 0.8981,2.535 -2.1104,8.4722 -4.9742,9.8159 -3.6542,13.3701 3.282,8.8255 2.4004,-1.5729 4.7187,-2.501 5.1499,-2.0701 0.4291,0.4307 0.051,4.6881 -0.8582,9.461796 -1.1379,5.9997 -1.1023,9.70021 0.1189,11.98611 1.7201,3.2139 1.8685,3.2201 5.1902,0.2724 l 3.4134,-3.02931 -1.1111,11.19851 c -1.168,11.7083 -2.7215,16.4031 -8.5627,26.0222 -4.8625,8.007 -6.1602,14.097 -3.4842,16.3182 1.6664,1.3829 3.0411,0.6472 5.8267,-3.1203 2.004,-2.7108 4.7581,-4.9277 6.1194,-4.9277 2.1663,0 2.1456,0.636 -0.1396,5.059 -3.5219,6.8114 -5.0972,20.6011 -2.5344,22.185 1.0795,0.6672 3.5213,-0.1664 5.4224,-1.8479 3.4459,-3.047 3.4547,-3.0344 2.2723,2.7365 -2.8348,13.8347 -2.9806,16.6074 -0.9999,18.9941 1.1312,1.3626 2.7075,2.0638 3.5141,1.5651 2.1937,-1.3557 1.8106,1.0888 -1.838,11.6934 -2.4997,7.2664 -2.8482,10.1503 -1.4337,11.8549 1.4306,1.7238 2.4196,1.8047 4.1806,0.3433 3.1403,-2.6061 4.5182,-0.7814 2.4031,3.1708 -0.9524,1.7799 -2.4538,6.4659 -3.342,10.421 -1.7914,7.9718 -0.2585,11.4408 5.0688,11.4408 2.751,0 2.9113,0.4901 1.232,3.7261 -1.0625,2.0474 -4.485,6.8831 -7.6134,10.7542 -4.5668,5.6502 -5.1934,7.2317 -3.1709,8.0077 1.3856,0.5316 3.4257,0.4022 4.5336,-0.2828 1.4488,-0.8951 1.6633,-0.3475 0.7678,1.9286 -2.3012,5.8486 -3.8254,18.968 -2.3126,19.9029 0.8184,0.5056 2.5913,0.01 3.9381,-1.1108 4.634,-3.8456 3.8569,-0.603 -1.8173,7.5936 -6.5671,9.4853 -8.1807,16.6152 -3.676,16.2576 1.5925,-0.1267 2.8984,0.3397 2.8984,1.0401 0,2.5114 -8.6444,24.2032 -13.693,34.3529 -7.263,14.6023 -4.2353,16.4741 14.8542,9.1487 2.1488,-0.8246 2.1364,-0.3195 -0.1189,3.8372 -1.4305,2.635 -5.1634,8.1244 -8.3001,12.1982 -6.2382,8.1021 -6.2449,9.9666 0,9.9666 h 4.1196 l -5.2508,7.6239 c -5.546,8.0605 -4.7678,11.1117 2.3529,9.2497 l 3.5038,-0.9189 -3.1807,4.8469 c -14.2953,21.7604 -14.9581,25.0134 -4.7259,23.0938 5.4177,-1.0164 5.6131,-0.8951 3.8372,2.4236 -1.0293,1.9237 -2.9459,3.9117 -4.2514,4.4126 -1.3049,0.5011 -2.3726,1.8592 -2.3726,3.0294 0,2.7246 -4.5341,4.5217 -5.8871,2.3327 -0.666,-1.0773 -1.8634,-0.965 -3.403,0.3128 -3.9225,3.2553 1.8013,8.1085 9.5523,8.1085 3.587,0 6.3618,0.8148 6.3618,1.858 0,1.0176 -4.8609,6.6027 -10.7946,12.4204 l -10.7844,10.5825 4.5843,1.9692 c 2.5216,1.0832 4.8144,2.1153 5.0994,2.2922 0.2843,0.1768 -2.9108,3.8499 -7.0986,8.159 -4.1883,4.3092 -7.3338,8.656 -6.9978,9.6637 0.3464,1.0319 3.2655,1.5973 6.6845,1.3026 7.0882,-0.6107 7.4687,0.4953 2.2014,6.2607 -2.1234,2.3246 -8.1005,11.4394 -13.2887,20.2564 -10.3299,17.5547 -18.0617,24.7038 -30.8087,28.4759 -4.102,1.2139 -13.4211,2.3149 -20.7006,2.4437 -17.6942,0.3128 -26.4813,-3.7895 -40.7146,-18.9941 -5.8122,-6.209 -15.2523,-16.2408 -20.973,-22.2961 l -10.4007,-11.0168 5.6948,-2.6961 c 3.1285,-1.4846 6.8287,-2.6962 8.2298,-2.6962 4.3827,0 5.1055,-3.7027 1.323,-6.7656 -1.9795,-1.6028 -7.1234,-4.2204 -11.431,-5.8163 -10.2834,-3.8102 -10.2007,-3.6864 -4.8569,-7.9571 l 4.6149,-3.6857 -6.685,-10.0171 c -3.679,-5.509 -6.6947,-10.5064 -6.6947,-11.0975 0,-0.5911 2.3255,0.1297 5.1597,1.5954 10.9048,5.639 9.2918,-4.3651 -2.5344,-15.7324 -3.6764,-3.5338 -5.9275,-7.2539 -5.9275,-9.795 v -4.0995 l 3.7163,3.4737 c 4.0404,3.7771 12.9392,5.5916 13.9148,2.8375 0.3309,-0.9387 -3.0601,-7.6339 -7.5334,-14.8842 -5.4984,-8.9121 -7.5229,-13.5664 -6.2403,-14.3592 1.0438,-0.6453 2.6119,-0.4581 3.4836,0.4141 4.7622,4.7619 7.1881,-3.6128 2.6357,-9.0981 -2.5948,-3.1264 0.9343,-5.1614 4.2209,-2.4337 1.6638,1.3811 3.0328,1.5115 4.1501,0.394 1.579,-1.5786 -2.5913,-10.7445 -12.1374,-26.6584 -4.0745,-6.7918 -3.0824,-7.9743 3.7463,-4.4431 9.7865,5.0609 9.0921,0.4855 -2.3932,-15.8031 -5.9705,-8.4673 -10.5108,-15.7337 -10.0978,-16.1466 0.4136,-0.4131 4.5265,0.4876 9.1485,1.9994 4.6221,1.512 9.0209,2.3644 9.7746,1.8985 0.7543,-0.4659 -0.3671,-4.4029 -2.494,-8.7448 -2.1275,-4.3419 -3.8895,-9.1657 -3.918,-10.7239 -0.1034,-5.6669 -7.131,-21.566 -11.9662,-27.0723 -3.9763,-4.5289 -4.4654,-5.8361 -2.4635,-6.6041 2.8337,-1.0875 11.0542,2.7353 14.2985,6.6444 1.5769,1.8997 2.7479,2.1295 4.2917,0.8482 3.4427,-2.8572 -0.052,-11.3248 -8.0985,-19.7111 -8.5074,-8.8488 -10.6266,-13.3192 -6.3209,-13.3192 7.7949,0 7.5896,-4.3896 -1.1514,-24.3056 -2.8509,-6.4958 -5.1904,-12.0687 -5.1904,-12.3799 0,-0.3113 2.4249,-0.5642 5.3822,-0.5554 4.6422,0.015 5.3153,-0.5067 4.9581,-3.8171 -0.336,-3.1001 0.1913,-3.6408 2.7567,-2.8273 5.4275,1.7226 5.2658,-1.614 -0.7067,-14.541 -3.174,-6.8694 -5.7657,-12.9325 -5.7657,-13.4705 0,-0.538 2.3151,0.2207 5.1499,1.6863 8.2401,4.2613 8.9174,1.1444 3.0592,-14.046 -2.8782,-7.4644 -4.8594,-13.953 -4.4024,-14.4097 0.4549,-0.4565 3.8983,0.7346 7.644,2.6455 5.5299,2.8214 6.977,3.0416 7.6946,1.1715 0.9958,-2.5955 -2.1967,-17.6627 -8.573,-40.5026 -2.3664,-8.475 -3.9112,-15.78991 -3.4433,-16.25761 0.4653,-0.4674 3.8667,1.8701 7.553,5.20041 6.5593,5.9262 11.4399,6.4918 9.27,1.0704 -0.6007,-1.5003 -2.1362,-9.05831 -3.403,-16.792706 -1.2667,-7.7345 -2.7546,-16.2945 -3.3124,-19.0244 l -1.0196,-4.9681 4.3724,5.7961 c 8.8476,11.7396 11.034,3.8075 3.4939,-12.6626 -4.0223,-8.7854 -4.0632,-9.1833 -0.9192,-8.3611 5.1106,1.3364 5.2766,-1.0031 0.8081,-11.1077 -2.2681,-5.1285 -4.1201,-10.5365 -4.1201,-12.0164 0,-2.4307 0.2999,-2.4191 3.1404,0.1514 4.622,4.1827 5.8173,0.6436 2.8879,-8.573 -1.367,-4.3018 -2.9996,-10.4272 -3.6252,-13.6119 l -1.1411,-5.7861007 4.2111,3.8977 c 5.9296,5.4915007 7.6151,3.5825007 5.6447,-6.3818 -0.9094,-4.5998996 -1.2388,-8.7781996 -0.7373,-9.2799996 0.5016,-0.5015 2.733,0.2787 4.9582,1.7369 7.0504,4.61949955 8.1316,0.3613 3.5544,-13.9653997 -2.1802,-6.8245 -3.966,-12.7209 -3.9784,-13.107 0,-0.3863 1.7594,0.9723 3.9381,3.0193 4.5513,4.2755 7.0712,2.3095 6.1493,-4.7966 -0.2947,-2.2748 0,-13.251 0.6261,-24.386203 1.1499,-19.953504 1.2181,-20.188504 4.2111,-16.540304 2.7805,3.3892 3.2607,3.4712 5.7156,1.0602 2.0039,-1.9685 6.6653,-20.540699 7.4014,-29.495797 0.052,-0.3863 1.8401,0.9723 4.0188,3.019198 4.2327,3.9764 4.8821,3.6137 6.6343,-3.705898 0.914,-3.817 1.5608,-4.336 3.4639,-2.7568 3.2117,2.6655 5.1717,1.0614 6.4425,-5.2912 0.5904,-2.9544 2.737,-8.7482 4.7658,-12.8647 z m -11.9156,695.53081 7.614,0.4948 7.6135,0.4948 1.1111,36.3927 c 1.4745,47.9726 3.938,59.7631 16.2977,78.0766 2.7065,4.0099 4.9178,7.6285 4.9178,8.0379 0,0.4095 -13.8073,0.7473 -30.6872,0.7473 h -30.6877 l 4.13,-5.4226 c 6.7077,-8.7938 13.9623,-26.0513 15.8034,-37.5943 0.943,-5.9146 1.7232,-21.5527 1.7367,-34.7468 0,-13.1941 0.5066,-29.045 1.0908,-35.2314 z"/><path xmlns:inkscape="http://www.inkscape.org/namespaces/inkscape" inkscape:original-d="M 0,0" inkscape:path-effect="#path-effect67" d="m 1707.7528,-134.71551 c -2.4083,-1.4881 -10.8671,11.1746 -13.3193,19.9332 l -2.1611,7.7148 -1.7971,-5.574 c -2.1301,-6.5901 -4.9261,-6.7119 -5.5641,-0.2425 -0.2481,2.5307 -0.8711,6.4699 -1.3835,8.7447 l -0.9291,4.1301 -3.8171,-4.7561 c -4.8496,-6.0616 -6.9284,-4.734 -7.068,4.5239 -0.1345,8.908198 -3.5054,25.880797 -5.1402,25.880797 -0.6493,0 -2.5079,-2.2526 -4.1298,-4.9985 -1.6219,-2.7458 -3.5715,-4.6102 -4.332,-4.14 -0.7606,0.4699 -1.9239,12.8011 -2.5851,27.395404 -1.1736,25.900703 -1.2734,26.467803 -4.3321,23.699703 -2.2231,-2.0121 -3.6428,-2.3249 -4.8976,-1.0703 -1.2542,1.2545 -0.6788,5.1739 1.9999,13.4906 3.9959,12.4077997 3.2468,16.8533997 -1.7269,10.2594997 l -2.9893,-3.9684997 -2.0195,3.7665997 c -1.2594,2.353 -1.6306,6.6515 -0.9895,11.4407996 l 1.0298,7.6744 -4.0993,-4.8974 c -3.5938,-4.28999965 -4.2308,-4.53239965 -5.2104,-1.9793 -1.0026,2.6116 0.5392,12.8812007 3.6448,24.2450007 l 1.1313,4.1301 -3.4433,-4.1301 c -3.1357,-3.7674 -3.5394,-3.8727 -4.5947,-1.1612 -0.9942,2.5542 1.8933,13.2051 6.7857,25.0225 1.0754,2.5972 0.7761,2.9738 -1.6058,2.06 -5.516,-2.1168 -5.73,0.6487 -0.8681,10.9258 6.1727,13.0483 6.2481,16.7872 0.1913,9.5324 -3.1863,-3.8164 -5.076,-4.98 -5.9073,-3.6352 -1.0284,1.6636 1.202,19.0762 5.0186,39.149396 l 0.9493,4.95811 -7.5634,-7.31091 c -6.7331,-6.520096 -7.6895,-6.976696 -8.7545,-4.2008 -0.682,1.7768 0.4343,9.18071 2.585,17.23721 5.4028,20.2363 9.9804,40.4278 9.3202,41.0882 -0.3103,0.3112 -4.2762,-1.3098 -8.8052,-3.605 -4.5296,-2.2952 -8.6057,-3.7945 -9.0679,-3.3323 -0.4601,0.4622 1.8096,7.4965 5.0486,15.6316 3.2391,8.135 5.456,15.2243 4.9277,15.7526 -0.5279,0.5283 -3.2252,-0.2172 -5.9881,-1.646 -2.7623,-1.4286 -5.4002,-1.9907 -5.8567,-1.2521 -0.4549,0.7386 1.7227,7.205 4.8372,14.3693 5.7372,13.1976 6.1493,16.18 1.7164,12.5011 -4.2156,-3.4988 -6.1653,-0.426 -3.2716,5.1702 l 2.6358,5.0792 -5.8165,-1.0906 c -3.1976,-0.5999 -6.1539,-0.5083 -6.5738,0.2022 -0.4187,0.7103 2.0759,7.6243 5.5538,15.3588 7.493,16.6634 8.0607,21.0576 2.8074,21.8114 -5.9565,0.8545 -3.9071,7.4141 5.4022,17.2572 4.5327,4.7925 8.25,9.9356 8.25,11.4308 0,1.4952 -0.5594,2.4476 -1.2419,2.1206 -0.6825,-0.3273 -3.8492,-1.9236 -7.0385,-3.5545 -4.664,-2.385 -6.7218,-2.6224 -10.5119,-1.1814 l -4.7157,1.7974 5.7662,6.3718 c 5.2503,5.8118 12.7738,21.929 12.7738,27.3551 0,1.2196 1.1566,4.997 2.5747,8.3913 1.4182,3.3942 2.3297,6.4252 2.0194,6.7353 -0.3101,0.3102 -3.6857,-0.2327 -7.5023,-1.2017 -13.117,-3.3294 -13.2634,-1.3393 -1.1917,15.9749 6.033,8.6534 10.5031,15.7325 9.9364,15.7325 -0.5671,0 -3.9696,-1.4144 -7.5633,-3.1506 -3.5938,-1.7365 -6.8975,-2.5764 -7.3415,-1.858 -0.4447,0.7184 2.7633,7.542 7.1295,15.1569 8.2324,14.3592 10.7161,19.6403 9.2493,19.6403 -0.4704,0 -3.0747,-1.1527 -5.7859,-2.5548 -7.1672,-3.7063 -8.7648,-1.5001 -3.999,5.5135 5.1385,7.5617 5.1479,8.6135 0.093,8.6135 -2.2212,0 -4.5011,0.7574 -5.0693,1.6762 -0.5678,0.9187 2.3695,7.119 6.5236,13.7836 4.1536,6.6646 7.5432,12.612 7.5432,13.2181 0,2.9009 -6.8586,0.621 -9.2901,-3.0899 -3.3307,-5.083 -5.8335,-4.5773 -7.4626,1.5146 -1.05,3.9275 -0.093,5.7862 6.9476,13.5615 9.9989,11.0413 11.094,16.1409 2.1203,9.8555 -1.9027,-1.3322 -3.9288,-1.9478 -4.5037,-1.3733 -2.2046,2.2049 -0.8242,6.196 5.3417,15.4295 l 6.3923,9.5728 -5.0594,5.059 -5.0688,5.0692 6.5329,2.5749 c 3.5932,1.4153 9.5182,3.9399 13.1579,5.6144 l 6.6142,3.0395 -4.9985,1.1006 c -2.7479,0.6053 -7.2144,2.9028 -9.9266,5.0994 l -4.9276,3.9888 5.8468,4.8974 c 3.2185,2.6883 12.7858,12.7565 21.2559,22.3768 12.2486,13.9112 17.4579,18.5112 25.4364,22.4981 5.5181,2.7572 10.9266,5.0187 12.0267,5.0187 2.3964,0 1.6079,61.3897 -1.0298,80.2375 -1.6953,12.1121 -8.6791,29.1851 -15.7327,38.4326 -2.2774,2.9859 -3.6894,6.1739 -3.1305,7.0786 1.216,1.967 66.4075,2.288 67.6157,0.3329 0.4446,-0.7183 -1.4662,-4.6254 -4.241,-8.6842 -13.5597,-19.8308 -16.1261,-31.5542 -17.399,-79.5307 l -0.9896,-37.4025 7.9574,-3.0395 c 13.6341,-5.2069 22.6781,-13.8214 33.2117,-31.6467 5.2766,-8.9293 11.7521,-18.7525 14.3796,-21.8214 5.3438,-6.2422 4.6226,-7.999 -3.5849,-8.7751 l -5.6246,-0.5352 7.8156,-7.9066 c 8.584,-8.6857 9.0922,-12.2669 1.6261,-11.3602 -4.6847,0.5689 -4.5539,0.3164 4.4229,-9.0981 15.1438,-15.8825 16.3707,-20.7862 4.8165,-19.2364 l -6.6342,0.8885 5.9373,-6.4221 c 7.0407,-7.6184 11.1928,-14.9804 9.1589,-16.2374 -0.8019,-0.4959 -3.8141,-0.075 -6.6948,0.929 -2.8808,1.0043 -5.5858,1.4827 -6.0082,1.0602 -0.4239,-0.4224 2.9811,-6.512 7.5634,-13.5311 4.5817,-7.0191 7.9004,-13.4622 7.3715,-14.3188 -0.5294,-0.8566 -2.8865,-1.0757 -5.241,-0.4844 -4.7854,1.2011 -4.5889,0.4224 2.3329,-8.9366 4.6267,-6.2568 3.7472,-9.1398 -2.3329,-7.6138 -4.8438,1.2158 -4.5848,0.3748 2.8679,-9.3304 11.5598,-15.055 10.8283,-19.3795 -2.4439,-14.4905 -5.0817,1.8721 -9.6277,3.0043 -10.108,2.5245 -0.4809,-0.4798 1.3468,-5.2407 4.0595,-10.5826 7.0256,-13.8361 15.364,-37.1639 14.2886,-39.9673 -0.7331,-1.9099 -1.3949,-1.9748 -3.3729,-0.333 -4.9318,4.0932 -2.5913,-2.6123 4.2513,-12.1679 5.4767,-7.648 6.245,-9.5729 4.1403,-10.3806 -1.4203,-0.5452 -3.6946,-0.554 -5.0595,-0.031 -3.3053,1.2684 -3.3197,-5.3403 0,-13.2383 2.7427,-6.5635 2.0835,-9.2428 -1.8979,-7.7148 -1.5987,0.6134 -0.2482,-2.4538 3.4329,-7.8056 7.0582,-10.2606 7.1931,-14.2853 0.455,-13.4908 -4.2432,0.5005 -4.5052,0.1903 -3.5746,-4.1401 0.5526,-2.5719 2.1362,-7.8578 3.5239,-11.7539 3.1005,-8.7019 2.0541,-12.8593 -2.615,-10.3604 -1.774,0.9492 -3.5989,1.7267 -4.0597,1.7267 -0.4601,0 0.9079,-5.1541 3.05,-11.4509 4.0626,-11.9456 3.9478,-13.3696 -1.0605,-13.3696 -3.6589,0 -3.7767,-2.8113 -0.6463,-14.5712 2.0396,-7.6626 2.0196,-8.9043 -0.093,-9.7142 -1.3308,-0.5108 -3.9851,0.4581 -5.9073,2.161 l -3.4935,3.1 1.0398,-7.8864 c 0.5759,-4.338 2.2081,-10.1339 3.6252,-12.8748 4.3212,-8.3565 -1.3748,-11.3947 -8.6134,-4.5945 -3.2861,3.0871 -3.827,3.2031 -3.827,0.7977 0,-1.5416 1.7134,-5.5828 3.8166,-8.977 2.1033,-3.3942 4.7162,-8.4081 5.8066,-11.138 2.5091,-6.2817 5.2322,-32.62221 3.5643,-34.47411 -0.6882,-0.7645 -2.6104,0.9041 -4.271,3.7161 -1.6612,2.8119 -3.6377,5.11961 -4.3926,5.11961 -1.4874,0 -0.274,-9.17981 2.3426,-17.752106 2.3312,-7.631 0.5946,-9.1136 -6.0893,-5.1701 -3.159,1.8641 -5.7456,2.9178 -5.7456,2.3428 0,-0.5752 1.8835,-4.7668 4.1909,-9.3204 4.8387,-9.549 4.2307,-12.2056 -2.0701,-8.9366 -2.4455,1.2687 -4.7342,2.0314 -5.0796,1.6863 -0.9534,-0.9535 5.6865,-15.2929 9.6737,-20.8925 4.5187,-6.3454 3.2841,-10.0574 -2.9283,-8.8153 l -4.6143,0.9289 -0.2223,-11.0269 c -0.2585,-12.4797 -2.2562,-16.1412 -5.9374,-10.8855 -6.094,8.7002 -4.9018,-7.385 1.4941,-20.1755007 4.3068,-8.6116996 3.7774,-11.7938996 -1.767,-10.7339996 -3.4511,0.6597 -3.54,0.2249 -3.1807,-14.1874997 0.3981,-15.8658 -0.2379,-18.7701 -3.4738,-16.0859 -1.5924,1.3217 -1.8752,-1.3459 -1.3024,-12.2588 0.4033,-7.671103 0.2482,-15.212807 -0.3412,-16.752407 -0.9555,-2.4911 -1.5392,-2.3618 -5.3009,1.1714 l -4.2214,3.9684 1.1111,-4.4531 c 1.6296,-6.4964 -0.4291,-8.8226 -4.5642,-5.1601 -3.3802,2.9937 -3.389,2.9756 -2.3834,-5.7961 0.5552,-4.8397 2.1704,-11.12 3.585,-13.955299 2.8399,-5.6924 0.9135,-10.223498 -2.7769,-6.5333 -3.5581,3.5579 -4.635,2.1214 -4.635,-6.189998 0,-4.496 -0.7093,-8.6174 -1.5852,-9.1588 -0.8763,-0.5412 -3.449,2.5824 -5.7155,6.9373 l -4.1201,7.916698 -0.083,-7.866298 c -0.052,-5.0328 1.3432,-10.8129 3.8673,-16.0454 5.7657,-11.951 3.1392,-13.4054 -7.2501,-4.019 l -6.6245,5.9779 v -6.7149 c 0,-3.6919 -0.716,-7.1512 -1.5949,-7.6946 z" id="path68"/><path id="path18" style="display:inline;fill:#1a1a1a;stroke-width:5.17011" d="m 1707.7528,-134.71551 c -2.4083,-1.4881 -10.8671,11.1746 -13.3193,19.9332 l -2.1611,7.7148 -1.7971,-5.574 c -2.1301,-6.5901 -4.9261,-6.7119 -5.5641,-0.2425 -0.2481,2.5307 -0.8711,6.4699 -1.3835,8.7447 l -0.9291,4.1301 -3.8171,-4.7561 c -4.8496,-6.0616 -6.9284,-4.734 -7.068,4.5239 -0.1345,8.908198 -3.5054,25.880797 -5.1402,25.880797 -0.6493,0 -2.5079,-2.2526 -4.1298,-4.9985 -1.6219,-2.7458 -3.5715,-4.6102 -4.332,-4.14 -0.7606,0.4699 -1.9239,12.8011 -2.5851,27.395404 -1.1736,25.900703 -1.2734,26.467803 -4.3321,23.699703 -2.2231,-2.0121 -3.6428,-2.3249 -4.8976,-1.0703 -1.2542,1.2545 -0.6788,5.1739 1.9999,13.4906 3.9959,12.4077997 3.2468,16.8533997 -1.7269,10.2594997 l -2.9893,-3.9684997 -2.0195,3.7665997 c -1.2594,2.353 -1.6306,6.6515 -0.9895,11.4407996 l 1.0298,7.6744 -4.0993,-4.8974 c -3.5938,-4.28999965 -4.2308,-4.53239965 -5.2104,-1.9793 -1.0026,2.6116 0.5392,12.8812007 3.6448,24.2450007 l 1.1313,4.1301 -3.4433,-4.1301 c -3.1357,-3.7674 -3.5394,-3.8727 -4.5947,-1.1612 -0.9942,2.5542 1.8933,13.2051 6.7857,25.0225 1.0754,2.5972 0.7761,2.9738 -1.6058,2.06 -5.516,-2.1168 -5.73,0.6487 -0.8681,10.9258 6.1727,13.0483 6.2481,16.7872 0.1913,9.5324 -3.1863,-3.8164 -5.076,-4.98 -5.9073,-3.6352 -1.0284,1.6636 1.202,19.0762 5.0186,39.149396 l 0.9493,4.95811 -7.5634,-7.31091 c -6.7331,-6.520096 -7.6895,-6.976696 -8.7545,-4.2008 -0.682,1.7768 0.4343,9.18071 2.585,17.23721 5.4028,20.2363 9.9804,40.4278 9.3202,41.0882 -0.3103,0.3112 -4.2762,-1.3098 -8.8052,-3.605 -4.5296,-2.2952 -8.6057,-3.7945 -9.0679,-3.3323 -0.4601,0.4622 1.8096,7.4965 5.0486,15.6316 3.2391,8.135 5.456,15.2243 4.9277,15.7526 -0.5279,0.5283 -3.2252,-0.2172 -5.9881,-1.646 -2.7623,-1.4286 -5.4002,-1.9907 -5.8567,-1.2521 -0.4549,0.7386 1.7227,7.205 4.8372,14.3693 5.7372,13.1976 6.1493,16.18 1.7164,12.5011 -4.2156,-3.4988 -6.1653,-0.426 -3.2716,5.1702 l 2.6358,5.0792 -5.8165,-1.0906 c -3.1976,-0.5999 -6.1539,-0.5083 -6.5738,0.2022 -0.4187,0.7103 2.0759,7.6243 5.5538,15.3588 7.493,16.6634 8.0607,21.0576 2.8074,21.8114 -5.9565,0.8545 -3.9071,7.4141 5.4022,17.2572 4.5327,4.7925 8.25,9.9356 8.25,11.4308 0,1.4952 -0.5594,2.4476 -1.2419,2.1206 -0.6825,-0.3273 -3.8492,-1.9236 -7.0385,-3.5545 -4.664,-2.385 -6.7218,-2.6224 -10.5119,-1.1814 l -4.7157,1.7974 5.7662,6.3718 c 5.2503,5.8118 12.7738,21.929 12.7738,27.3551 0,1.2196 1.1566,4.997 2.5747,8.3913 1.4182,3.3942 2.3297,6.4252 2.0194,6.7353 -0.3101,0.3102 -3.6857,-0.2327 -7.5023,-1.2017 -13.117,-3.3294 -13.2634,-1.3393 -1.1917,15.9749 6.033,8.6534 10.5031,15.7325 9.9364,15.7325 -0.5671,0 -3.9696,-1.4144 -7.5633,-3.1506 -3.5938,-1.7365 -6.8975,-2.5764 -7.3415,-1.858 -0.4447,0.7184 2.7633,7.542 7.1295,15.1569 8.2324,14.3592 10.7161,19.6403 9.2493,19.6403 -0.4704,0 -3.0747,-1.1527 -5.7859,-2.5548 -7.1672,-3.7063 -8.7648,-1.5001 -3.999,5.5135 5.1385,7.5617 5.1479,8.6135 0.093,8.6135 -2.2212,0 -4.5011,0.7574 -5.0693,1.6762 -0.5678,0.9187 2.3695,7.119 6.5236,13.7836 4.1536,6.6646 7.5432,12.612 7.5432,13.2181 0,2.9009 -6.8586,0.621 -9.2901,-3.0899 -3.3307,-5.083 -5.8335,-4.5773 -7.4626,1.5146 -1.05,3.9275 -0.093,5.7862 6.9476,13.5615 9.9989,11.0413 11.094,16.1409 2.1203,9.8555 -1.9027,-1.3322 -3.9288,-1.9478 -4.5037,-1.3733 -2.2046,2.2049 -0.8242,6.196 5.3417,15.4295 l 6.3923,9.5728 -5.0594,5.059 -5.0688,5.0692 6.5329,2.5749 c 3.5932,1.4153 9.5182,3.9399 13.1579,5.6144 l 6.6142,3.0395 -4.9985,1.1006 c -2.7479,0.6053 -7.2144,2.9028 -9.9266,5.0994 l -4.9276,3.9888 5.8468,4.8974 c 3.2185,2.6883 12.7858,12.7565 21.2559,22.3768 12.2486,13.9112 17.4579,18.5112 25.4364,22.4981 5.5181,2.7572 10.9266,5.0187 12.0267,5.0187 2.3964,0 1.6079,61.3897 -1.0298,80.2375 -1.6953,12.1121 -8.6791,29.1851 -15.7327,38.4326 -2.2774,2.9859 -3.6894,6.1739 -3.1305,7.0786 1.216,1.967 66.4075,2.288 67.6157,0.3329 0.4446,-0.7183 -1.4662,-4.6254 -4.241,-8.6842 -13.5597,-19.8308 -16.1261,-31.5542 -17.399,-79.5307 l -0.9896,-37.4025 7.9574,-3.0395 c 13.6341,-5.2069 22.6781,-13.8214 33.2117,-31.6467 5.2766,-8.9293 11.7521,-18.7525 14.3796,-21.8214 5.3438,-6.2422 4.6226,-7.999 -3.5849,-8.7751 l -5.6246,-0.5352 7.8156,-7.9066 c 8.584,-8.6857 9.0922,-12.2669 1.6261,-11.3602 -4.6847,0.5689 -4.5539,0.3164 4.4229,-9.0981 15.1438,-15.8825 16.3707,-20.7862 4.8165,-19.2364 l -6.6342,0.8885 5.9373,-6.4221 c 7.0407,-7.6184 11.1928,-14.9804 9.1589,-16.2374 -0.8019,-0.4959 -3.8141,-0.075 -6.6948,0.929 -2.8808,1.0043 -5.5858,1.4827 -6.0082,1.0602 -0.4239,-0.4224 2.9811,-6.512 7.5634,-13.5311 4.5817,-7.0191 7.9004,-13.4622 7.3715,-14.3188 -0.5294,-0.8566 -2.8865,-1.0757 -5.241,-0.4844 -4.7854,1.2011 -4.5889,0.4224 2.3329,-8.9366 4.6267,-6.2568 3.7472,-9.1398 -2.3329,-7.6138 -4.8438,1.2158 -4.5848,0.3748 2.8679,-9.3304 11.5598,-15.055 10.8283,-19.3795 -2.4439,-14.4905 -5.0817,1.8721 -9.6277,3.0043 -10.108,2.5245 -0.4809,-0.4798 1.3468,-5.2407 4.0595,-10.5826 7.0256,-13.8361 15.364,-37.1639 14.2886,-39.9673 -0.7331,-1.9099 -1.3949,-1.9748 -3.3729,-0.333 -4.9318,4.0932 -2.5913,-2.6123 4.2513,-12.1679 5.4767,-7.648 6.245,-9.5729 4.1403,-10.3806 -1.4203,-0.5452 -3.6946,-0.554 -5.0595,-0.031 -3.3053,1.2684 -3.3197,-5.3403 0,-13.2383 2.7427,-6.5635 2.0835,-9.2428 -1.8979,-7.7148 -1.5987,0.6134 -0.2482,-2.4538 3.4329,-7.8056 7.0582,-10.2606 7.1931,-14.2853 0.455,-13.4908 -4.2432,0.5005 -4.5052,0.1903 -3.5746,-4.1401 0.5526,-2.5719 2.1362,-7.8578 3.5239,-11.7539 3.1005,-8.7019 2.0541,-12.8593 -2.615,-10.3604 -1.774,0.9492 -3.5989,1.7267 -4.0597,1.7267 -0.4601,0 0.9079,-5.1541 3.05,-11.4509 4.0626,-11.9456 3.9478,-13.3696 -1.0605,-13.3696 -3.6589,0 -3.7767,-2.8113 -0.6463,-14.5712 2.0396,-7.6626 2.0196,-8.9043 -0.093,-9.7142 -1.3308,-0.5108 -3.9851,0.4581 -5.9073,2.161 l -3.4935,3.1 1.0398,-7.8864 c 0.5759,-4.338 2.2081,-10.1339 3.6252,-12.8748 4.3212,-8.3565 -1.3748,-11.3947 -8.6134,-4.5945 -3.2861,3.0871 -3.827,3.2031 -3.827,0.7977 0,-1.5416 1.7134,-5.5828 3.8166,-8.977 2.1033,-3.3942 4.7162,-8.4081 5.8066,-11.138 2.5091,-6.2817 5.2322,-32.62221 3.5643,-34.47411 -0.6882,-0.7645 -2.6104,0.9041 -4.271,3.7161 -1.6612,2.8119 -3.6377,5.11961 -4.3926,5.11961 -1.4874,0 -0.274,-9.17981 2.3426,-17.752106 2.3312,-7.631 0.5946,-9.1136 -6.0893,-5.1701 -3.159,1.8641 -5.7456,2.9178 -5.7456,2.3428 0,-0.5752 1.8835,-4.7668 4.1909,-9.3204 4.8387,-9.549 4.2307,-12.2056 -2.0701,-8.9366 -2.4455,1.2687 -4.7342,2.0314 -5.0796,1.6863 -0.9534,-0.9535 5.6865,-15.2929 9.6737,-20.8925 4.5187,-6.3454 3.2841,-10.0574 -2.9283,-8.8153 l -4.6143,0.9289 -0.2223,-11.0269 c -0.2585,-12.4797 -2.2562,-16.1412 -5.9374,-10.8855 -6.094,8.7002 -4.9018,-7.385 1.4941,-20.1755007 4.3068,-8.6116996 3.7774,-11.7938996 -1.767,-10.7339996 -3.4511,0.6597 -3.54,0.2249 -3.1807,-14.1874997 0.3981,-15.8658 -0.2379,-18.7701 -3.4738,-16.0859 -1.5924,1.3217 -1.8752,-1.3459 -1.3024,-12.2588 0.4033,-7.671103 0.2482,-15.212807 -0.3412,-16.752407 -0.9555,-2.4911 -1.5392,-2.3618 -5.3009,1.1714 l -4.2214,3.9684 1.1111,-4.4531 c 1.6296,-6.4964 -0.4291,-8.8226 -4.5642,-5.1601 -3.3802,2.9937 -3.389,2.9756 -2.3834,-5.7961 0.5552,-4.8397 2.1704,-11.12 3.585,-13.955299 2.8399,-5.6924 0.9135,-10.223498 -2.7769,-6.5333 -3.5581,3.5579 -4.635,2.1214 -4.635,-6.189998 0,-4.496 -0.7093,-8.6174 -1.5852,-9.1588 -0.8763,-0.5412 -3.449,2.5824 -5.7155,6.9373 l -4.1201,7.916698 -0.083,-7.866298 c -0.052,-5.0328 1.3432,-10.8129 3.8673,-16.0454 5.7657,-11.951 3.1392,-13.4054 -7.2501,-4.019 l -6.6245,5.9779 v -6.7149 c 0,-3.6919 -0.716,-7.1512 -1.5949,-7.6946 z m -2.5349,3.2718 0.8282,8.149 c 0.9053,8.9111 4.0896,11.7092 6.412,5.6346 1.7619,-4.6081 8.4723,-11.0788 8.4723,-8.1693 0,1.0962 -1.136,4.2127 -2.5345,6.9171 -3.4086,6.5913 -3.5813,19.280498 -0.305,22.558598 2.294,2.2944 2.8818,1.9167 5.927,-3.857398 l 3.3828,-6.4121 0.073,8.583198 c 0.078,9.267599 2.0669,12.263699 5.0388,7.5835 1.5292,-2.4082 1.6771,-2.0497 0.7879,2.029699 -4.3677,20.0323 -3.4092,26.8774 2.9583,21.1146 3.0012,-2.716 3.0731,-2.6511 2.0097,1.5854 -1.7346,6.911004 0.5604,8.760804 5.352,4.3118 l 4.1501,-3.8473 -0.5956,15.712207 c -0.5258,13.8896 -0.2741,15.6946 2.1709,15.5104 2.4191,-0.182 2.734,1.6961 2.4837,14.8944 l -0.2947,15.0962997 4.6148,-0.4845 4.6149,-0.4948 -3.9587,7.9368996 c -5.2053,10.4096007 -6.7512,20.4661007 -3.7665,24.5480007 1.8737,2.5622 2.72,2.7451 4.7865,1.0299 2.1291,-1.7668 2.6756,-1.3468 3.5746,2.7466 0.5837,2.6565 0.6007,6.6545 0.051,8.8861 -1.2294,4.8997 2.6089,8.7417 7.4626,7.4725 4.24,-1.1089 4.2312,-1.0949 -1.6059,8.1086 -5.9564,9.3928 -8.9773,18.0272 -7.5835,21.6599 0.787,2.0503 1.487,2.2292 2.9589,0.7574 1.0619,-1.0622 2.9118,-1.9288 4.1097,-1.9288 1.5268,0 0.8981,2.535 -2.1104,8.4722 -4.9742,9.8159 -3.6542,13.3701 3.282,8.8255 2.4004,-1.5729 4.7187,-2.501 5.1499,-2.0701 0.4291,0.4307 0.051,4.6881 -0.8582,9.461796 -1.1379,5.9997 -1.1023,9.70021 0.1189,11.98611 1.7201,3.2139 1.8685,3.2201 5.1902,0.2724 l 3.4134,-3.02931 -1.1111,11.19851 c -1.168,11.7083 -2.7215,16.4031 -8.5627,26.0222 -4.8625,8.007 -6.1602,14.097 -3.4842,16.3182 1.6664,1.3829 3.0411,0.6472 5.8267,-3.1203 2.004,-2.7108 4.7581,-4.9277 6.1194,-4.9277 2.1663,0 2.1456,0.636 -0.1396,5.059 -3.5219,6.8114 -5.0972,20.6011 -2.5344,22.185 1.0795,0.6672 3.5213,-0.1664 5.4224,-1.8479 3.4459,-3.047 3.4547,-3.0344 2.2723,2.7365 -2.8348,13.8347 -2.9806,16.6074 -0.9999,18.9941 1.1312,1.3626 2.7075,2.0638 3.5141,1.5651 2.1937,-1.3557 1.8106,1.0888 -1.838,11.6934 -2.4997,7.2664 -2.8482,10.1503 -1.4337,11.8549 1.4306,1.7238 2.4196,1.8047 4.1806,0.3433 3.1403,-2.6061 4.5182,-0.7814 2.4031,3.1708 -0.9524,1.7799 -2.4538,6.4659 -3.342,10.421 -1.7914,7.9718 -0.2585,11.4408 5.0688,11.4408 2.751,0 2.9113,0.4901 1.232,3.7261 -1.0625,2.0474 -4.485,6.8831 -7.6134,10.7542 -4.5668,5.6502 -5.1934,7.2317 -3.1709,8.0077 1.3856,0.5316 3.4257,0.4022 4.5336,-0.2828 1.4488,-0.8951 1.6633,-0.3475 0.7678,1.9286 -2.3012,5.8486 -3.8254,18.968 -2.3126,19.9029 0.8184,0.5056 2.5913,0.01 3.9381,-1.1108 4.634,-3.8456 3.8569,-0.603 -1.8173,7.5936 -6.5671,9.4853 -8.1807,16.6152 -3.676,16.2576 1.5925,-0.1267 2.8984,0.3397 2.8984,1.0401 0,2.5114 -8.6444,24.2032 -13.693,34.3529 -7.263,14.6023 -4.2353,16.4741 14.8542,9.1487 2.1488,-0.8246 2.1364,-0.3195 -0.1189,3.8372 -1.4305,2.635 -5.1634,8.1244 -8.3001,12.1982 -6.2382,8.1021 -6.2449,9.9666 0,9.9666 h 4.1196 l -5.2508,7.6239 c -5.546,8.0605 -4.7678,11.1117 2.3529,9.2497 l 3.5038,-0.9189 -3.1807,4.8469 c -14.2953,21.7604 -14.9581,25.0134 -4.7259,23.0938 5.4177,-1.0164 5.6131,-0.8951 3.8372,2.4236 -1.0293,1.9237 -2.9459,3.9117 -4.2514,4.4126 -1.3049,0.5011 -2.3726,1.8592 -2.3726,3.0294 0,2.7246 -4.5341,4.5217 -5.8871,2.3327 -0.666,-1.0773 -1.8634,-0.965 -3.403,0.3128 -3.9225,3.2553 1.8013,8.1085 9.5523,8.1085 3.587,0 6.3618,0.8148 6.3618,1.858 0,1.0176 -4.8609,6.6027 -10.7946,12.4204 l -10.7844,10.5825 4.5843,1.9692 c 2.5216,1.0832 4.8144,2.1153 5.0994,2.2922 0.2843,0.1768 -2.9108,3.8499 -7.0986,8.159 -4.1883,4.3092 -7.3338,8.656 -6.9978,9.6637 0.3464,1.0319 3.2655,1.5973 6.6845,1.3026 7.0882,-0.6107 7.4687,0.4953 2.2014,6.2607 -2.1234,2.3246 -8.1005,11.4394 -13.2887,20.2564 -10.3299,17.5547 -18.0617,24.7038 -30.8087,28.4759 -4.102,1.2139 -13.4211,2.3149 -20.7006,2.4437 -17.6942,0.3128 -26.4813,-3.7895 -40.7146,-18.9941 -5.8122,-6.209 -15.2523,-16.2408 -20.973,-22.2961 l -10.4007,-11.0168 5.6948,-2.6961 c 3.1285,-1.4846 6.8287,-2.6962 8.2298,-2.6962 4.3827,0 5.1055,-3.7027 1.323,-6.7656 -1.9795,-1.6028 -7.1234,-4.2204 -11.431,-5.8163 -10.2834,-3.8102 -10.2007,-3.6864 -4.8569,-7.9571 l 4.6149,-3.6857 -6.685,-10.0171 c -3.679,-5.509 -6.6947,-10.5064 -6.6947,-11.0975 0,-0.5911 2.3255,0.1297 5.1597,1.5954 10.9048,5.639 9.2918,-4.3651 -2.5344,-15.7324 -3.6764,-3.5338 -5.9275,-7.2539 -5.9275,-9.795 v -4.0995 l 3.7163,3.4737 c 4.0404,3.7771 12.9392,5.5916 13.9148,2.8375 0.3309,-0.9387 -3.0601,-7.6339 -7.5334,-14.8842 -5.4984,-8.9121 -7.5229,-13.5664 -6.2403,-14.3592 1.0438,-0.6453 2.6119,-0.4581 3.4836,0.4141 4.7622,4.7619 7.1881,-3.6128 2.6357,-9.0981 -2.5948,-3.1264 0.9343,-5.1614 4.2209,-2.4337 1.6638,1.3811 3.0328,1.5115 4.1501,0.394 1.579,-1.5786 -2.5913,-10.7445 -12.1374,-26.6584 -4.0745,-6.7918 -3.0824,-7.9743 3.7463,-4.4431 9.7865,5.0609 9.0921,0.4855 -2.3932,-15.8031 -5.9705,-8.4673 -10.5108,-15.7337 -10.0978,-16.1466 0.4136,-0.4131 4.5265,0.4876 9.1485,1.9994 4.6221,1.512 9.0209,2.3644 9.7746,1.8985 0.7543,-0.4659 -0.3671,-4.4029 -2.494,-8.7448 -2.1275,-4.3419 -3.8895,-9.1657 -3.918,-10.7239 -0.1034,-5.6669 -7.131,-21.566 -11.9662,-27.0723 -3.9763,-4.5289 -4.4654,-5.8361 -2.4635,-6.6041 2.8337,-1.0875 11.0542,2.7353 14.2985,6.6444 1.5769,1.8997 2.7479,2.1295 4.2917,0.8482 3.4427,-2.8572 -0.052,-11.3248 -8.0985,-19.7111 -8.5074,-8.8488 -10.6266,-13.3192 -6.3209,-13.3192 7.7949,0 7.5896,-4.3896 -1.1514,-24.3056 -2.8509,-6.4958 -5.1904,-12.0687 -5.1904,-12.3799 0,-0.3113 2.4249,-0.5642 5.3822,-0.5554 4.6422,0.015 5.3153,-0.5067 4.9581,-3.8171 -0.336,-3.1001 0.1913,-3.6408 2.7567,-2.8273 5.4275,1.7226 5.2658,-1.614 -0.7067,-14.541 -3.174,-6.8694 -5.7657,-12.9325 -5.7657,-13.4705 0,-0.538 2.3151,0.2207 5.1499,1.6863 8.2401,4.2613 8.9174,1.1444 3.0592,-14.046 -2.8782,-7.4644 -4.8594,-13.953 -4.4024,-14.4097 0.4549,-0.4565 3.8983,0.7346 7.644,2.6455 5.5299,2.8214 6.977,3.0416 7.6946,1.1715 0.9958,-2.5955 -2.1967,-17.6627 -8.573,-40.5026 -2.3664,-8.475 -3.9112,-15.78991 -3.4433,-16.25761 0.4653,-0.4674 3.8667,1.8701 7.553,5.20041 6.5593,5.9262 11.4399,6.4918 9.27,1.0704 -0.6007,-1.5003 -2.1362,-9.05831 -3.403,-16.792706 -1.2667,-7.7345 -2.7546,-16.2945 -3.3124,-19.0244 l -1.0196,-4.9681 4.3724,5.7961 c 8.8476,11.7396 11.034,3.8075 3.4939,-12.6626 -4.0223,-8.7854 -4.0632,-9.1833 -0.9192,-8.3611 5.1106,1.3364 5.2766,-1.0031 0.8081,-11.1077 -2.2681,-5.1285 -4.1201,-10.5365 -4.1201,-12.0164 0,-2.4307 0.2999,-2.4191 3.1404,0.1514 4.622,4.1827 5.8173,0.6436 2.8879,-8.573 -1.367,-4.3018 -2.9996,-10.4272 -3.6252,-13.6119 l -1.1411,-5.7861007 4.2111,3.8977 c 5.9296,5.4915007 7.6151,3.5825007 5.6447,-6.3818 -0.9094,-4.5998996 -1.2388,-8.7781996 -0.7373,-9.2799996 0.5016,-0.5015 2.733,0.2787 4.9582,1.7369 7.0504,4.61949955 8.1316,0.3613 3.5544,-13.9653997 -2.1802,-6.8245 -3.966,-12.7209 -3.9784,-13.107 0,-0.3863 1.7594,0.9723 3.9381,3.0193 4.5513,4.2755 7.0712,2.3095 6.1493,-4.7966 -0.2947,-2.2748 0,-13.251 0.6261,-24.386203 1.1499,-19.953504 1.2181,-20.188504 4.2111,-16.540304 2.7805,3.3892 3.2607,3.4712 5.7156,1.0602 2.0039,-1.9685 6.6653,-20.540699 7.4014,-29.495797 0.052,-0.3863 1.8401,0.9723 4.0188,3.019198 4.2327,3.9764 4.8821,3.6137 6.6343,-3.705898 0.914,-3.817 1.5608,-4.336 3.4639,-2.7568 3.2117,2.6655 5.1717,1.0614 6.4425,-5.2912 0.5904,-2.9544 2.737,-8.7482 4.7658,-12.8647 z m -11.9156,695.53081 7.614,0.4948 7.6135,0.4948 1.1111,36.3927 c 1.4745,47.9726 3.938,59.7631 16.2977,78.0766 2.7065,4.0099 4.9178,7.6285 4.9178,8.0379 0,0.4095 -13.8073,0.7473 -30.6872,0.7473 h -30.6877 l 4.13,-5.4226 c 6.7077,-8.7938 13.9623,-26.0513 15.8034,-37.5943 0.943,-5.9146 1.7232,-21.5527 1.7367,-34.7468 0,-13.1941 0.5066,-29.045 1.0908,-35.2314 z"/></g></svg>