<svg version="1.1" id="svg1" width="5078.9116" height="5263.5273" viewBox="680.6560999999998 3915.4807666761308 310.59391767788304 831.2906488345216" sodipodi:docname="trees2.svg" inkscape:version="1.4.2 (f4327f4, 2025-05-13)" xmlns:inkscape="http://www.inkscape.org/namespaces/inkscape" xmlns:sodipodi="http://sodipodi.sourceforge.net/DTD/sodipodi-0.dtd" xmlns="http://www.w3.org/2000/svg" xmlns:svg="http://www.w3.org/2000/svg"><defs id="defs1">
    <inkscape:path-effect effect="fill_between_many" method="originald" linkedpaths="#path1,0,1|" id="path-effect50" xmlns:inkscape="http://www.inkscape.org/namespaces/inkscape"/>
    <inkscape:path-effect effect="fill_between_many" method="originald" linkedpaths="#path1,0,1|#path51,0,1|#path2,0,1|#path3,0,1|#path4,0,1|#path5,0,1|#path6,0,1|#path7,0,1|#path8,0,1|#path9,0,1|#path10,0,1|#path11,0,1|#path12,0,1|#path13,0,1|#path14,0,1|#path15,0,1|#path16,0,1|#path17,0,1|#path18,0,1|#path19,0,1|#path20,0,1|#path21,0,1|#path22,0,1|#path23,0,1|#path24,0,1|#path25,0,1|" id="path-effect51" xmlns:inkscape="http://www.inkscape.org/namespaces/inkscape"/>
    <inkscape:path-effect effect="fill_between_many" method="originald" linkedpaths="#path2,0,1|" id="path-effect52" xmlns:inkscape="http://www.inkscape.org/namespaces/inkscape"/>
    <inkscape:path-effect effect="fill_between_many" method="originald" linkedpaths="#path4,0,1|" id="path-effect53" xmlns:inkscape="http://www.inkscape.org/namespaces/inkscape"/>
    <inkscape:path-effect effect="fill_between_many" method="originald" linkedpaths="#path5,0,1|" id="path-effect54" xmlns:inkscape="http://www.inkscape.org/namespaces/inkscape"/>
    <inkscape:path-effect effect="fill_between_many" method="originald" linkedpaths="#path6,0,1|" id="path-effect55" xmlns:inkscape="http://www.inkscape.org/namespaces/inkscape"/>
    <inkscape:path-effect effect="fill_between_many" method="originald" linkedpaths="#path7,0,1|" id="path-effect56" xmlns:inkscape="http://www.inkscape.org/namespaces/inkscape"/>
    <inkscape:path-effect effect="fill_between_many" method="originald" linkedpaths="#path8,0,1|" id="path-effect57" xmlns:inkscape="http://www.inkscape.org/namespaces/inkscape"/>
    <inkscape:path-effect effect="fill_between_many" method="originald" linkedpaths="#path9,0,1|" id="path-effect58" xmlns:inkscape="http://www.inkscape.org/namespaces/inkscape"/>
    <inkscape:path-effect effect="fill_between_many" method="originald" linkedpaths="#path10,0,1|" id="path-effect59" xmlns:inkscape="http://www.inkscape.org/namespaces/inkscape"/>
    <inkscape:path-effect effect="fill_between_many" method="originald" linkedpaths="#path11,0,1|" id="path-effect60" xmlns:inkscape="http://www.inkscape.org/namespaces/inkscape"/>
    <inkscape:path-effect effect="fill_between_many" method="originald" linkedpaths="#path12,0,1|" id="path-effect61" xmlns:inkscape="http://www.inkscape.org/namespaces/inkscape"/>
    <inkscape:path-effect effect="fill_between_many" method="originald" linkedpaths="#path13,0,1|" id="path-effect62" xmlns:inkscape="http://www.inkscape.org/namespaces/inkscape"/>
    <inkscape:path-effect effect="fill_between_many" method="originald" linkedpaths="#path14,0,1|" id="path-effect63" xmlns:inkscape="http://www.inkscape.org/namespaces/inkscape"/>
    <inkscape:path-effect effect="fill_between_many" method="originald" linkedpaths="#path15,0,1|" id="path-effect64" xmlns:inkscape="http://www.inkscape.org/namespaces/inkscape"/>
    <inkscape:path-effect effect="fill_between_many" method="originald" linkedpaths="#path16,0,1|" id="path-effect65" xmlns:inkscape="http://www.inkscape.org/namespaces/inkscape"/>
    <inkscape:path-effect effect="fill_between_many" method="originald" linkedpaths="#path17,0,1|" id="path-effect66" xmlns:inkscape="http://www.inkscape.org/namespaces/inkscape"/>
    <inkscape:path-effect effect="fill_between_many" method="originald" linkedpaths="#path18,0,1|" id="path-effect67" xmlns:inkscape="http://www.inkscape.org/namespaces/inkscape"/>
    <inkscape:path-effect effect="fill_between_many" method="originald" linkedpaths="#path19,0,1|" id="path-effect68" xmlns:inkscape="http://www.inkscape.org/namespaces/inkscape"/>
    <inkscape:path-effect effect="fill_between_many" method="originald" linkedpaths="#path20,0,1|" id="path-effect69" xmlns:inkscape="http://www.inkscape.org/namespaces/inkscape"/>
    <inkscape:path-effect effect="fill_between_many" method="originald" linkedpaths="#path21,0,1|" id="path-effect70" xmlns:inkscape="http://www.inkscape.org/namespaces/inkscape"/>
    <inkscape:path-effect effect="fill_between_many" method="originald" linkedpaths="#path22,0,1|" id="path-effect71" xmlns:inkscape="http://www.inkscape.org/namespaces/inkscape"/>
    <inkscape:path-effect effect="fill_between_many" method="originald" linkedpaths="#path23,0,1|" id="path-effect72" xmlns:inkscape="http://www.inkscape.org/namespaces/inkscape"/>
    <inkscape:path-effect effect="fill_between_many" method="originald" linkedpaths="#path24,0,1|" id="path-effect73" xmlns:inkscape="http://www.inkscape.org/namespaces/inkscape"/>
    <inkscape:path-effect effect="fill_between_many" method="originald" linkedpaths="#path25,0,1|" id="path-effect74" xmlns:inkscape="http://www.inkscape.org/namespaces/inkscape"/>
  </defs><g><path xmlns:inkscape="http://www.inkscape.org/namespaces/inkscape" inkscape:original-d="M 0,0" inkscape:path-effect="#path-effect69" d="m 852.3321,3916.5157 c -0.9074,0.1394 -1.7941,0.6954 -2.786,1.6872 -4.1584,4.1585 -6.9078,67.0241 -7.1837,164.2579 l -0.2364,82.6946 -7.0817,-3.1702 c -3.8959,-1.7437 -8.5901,-4.7057 -10.4293,-6.5821 -3.5548,-3.6265 -12.7503,-26.497 -12.7503,-31.7119 0,-1.7079 -1.5627,-6.3549 -3.4737,-10.3271 -3.348,-6.959 -8.9412,-28.5871 -15.8586,-61.3257 -1.8117,-8.574 -4.0805,-16.6207 -5.0427,-17.8816 -1.9144,-2.509 -7.9538,-3.1121 -9.2068,-0.9189 -0.4322,0.7565 1.1596,10.8675 3.5355,22.4676 2.376,11.6002 4.3328,23.3771 4.3469,26.1724 0.022,4.3708 4.5588,19.4454 17.6398,58.6042 1.5923,4.7665 2.6119,9.5023 2.2675,10.5232 -1.2693,3.761 -26.5962,-18.5378 -74.3958,-65.498 -7.4439,-7.313 -14.1599,-13.2957 -14.9237,-13.2957 -0.7639,0 -2.9907,1.2243 -4.9487,2.7215 -3.3846,2.588 -2.4752,3.7693 18.4486,23.9748 l 22.008,21.2532 -7.3368,-1.2143 c -4.2821,-0.7082 -10.518,-3.8174 -14.9803,-7.4687 -13.1251,-10.7398 -19.4634,-7.2248 -8.6184,4.7794 7.412,8.2041 13.4258,11.3052 27.9562,14.4214 12.746,2.7335 21.7919,7.633 29.7562,16.1139 6.6741,7.1072 34.596,25.3405 52.8228,34.4952 l 9.9079,4.9781 -1.1901,28.7138 c -0.655,15.7921 -1.1955,48.6866 -1.1982,73.1009 v 44.3896 l -5.0426,-2.6488 c -2.774,-1.4572 -9.9638,-4.513 -15.977,-6.7916 l -10.9314,-4.1427 -4.2743,-13.7551 c -4.7994,-15.451 -4.424,-24.0841 1.3083,-30.186 2.0573,-2.19 3.7397,-4.802 3.7397,-5.8056 0,-1.0035 4.1256,-6.1047 9.1691,-11.3372 10.0839,-10.4618 11.0465,-13.0469 5.4,-14.5234 -2.6239,-0.6862 -3.3924,-1.8895 -2.5254,-3.9546 5.0272,-11.9736 5.2235,-13.0281 2.8826,-15.3241 -1.9122,-1.8756 -3.2104,-1.2684 -6.8023,3.1836 -2.4414,3.0261 -4.4407,6.5678 -4.4462,7.8689 0,1.3011 -1.8676,5.743 -4.1372,9.873 -2.2696,4.1301 -5.8832,10.9066 -8.0329,15.0581 l -3.9088,7.5492 -1.2466,-13.7551 c -0.6857,-7.5653 -1.1062,-17.4689 -0.9322,-22.0081 0.174,-4.5392 -0.5345,-11.967 -1.577,-16.5061 -1.0426,-4.5392 -2.488,-19.1426 -3.2104,-32.4535 -1.0242,-18.8718 -1.9143,-24.4339 -4.0433,-25.2508 -1.5015,-0.5762 -3.9845,-0.014 -5.5154,1.2627 -2.3497,1.9499 -2.6019,6.2543 -1.6308,27.6041 0.6329,13.9114 2.0406,26.9577 3.1298,28.9932 1.0894,2.0354 1.6596,5.517 1.2653,7.7346 -0.6335,3.5642 -1.0572,3.2862 -3.651,-2.3883 -1.6136,-3.5305 -4.59,-7.4253 -6.6141,-8.6535 -2.0242,-1.228 -5.5261,-7.2909 -7.7803,-13.473 -4.1414,-11.3581 -7.6002,-14.8322 -11.1895,-11.2431 -1.3945,1.3945 -1.3197,4.2513 0.2579,9.8704 1.2215,4.35 2.7067,9.9686 3.3018,12.4844 0.595,2.5157 5.9009,10.1704 11.7885,17.0111 5.8876,6.8406 10.8082,13.2424 10.9344,14.2252 0.1265,0.9828 0.4115,4.0553 0.6367,6.8293 1.6821,20.7365 5.1013,48.1348 6.5605,52.5675 0.9675,2.9376 1.4038,5.6967 0.9698,6.1307 -0.9196,0.9195 -17.8102,-16.1435 -25.8203,-26.0837 -22.251,-27.6117 -27.1573,-34.2786 -32.0586,-43.565 -3.0461,-5.7712 -5.5396,-11.8347 -5.5396,-13.4729 0,-1.6383 -1.5356,-5.1699 -3.412,-7.8475 -6.2171,-8.8716 -16.7612,-33.1042 -16.7612,-38.5196 0,-6.9612 -4.3458,-10.8563 -8.3794,-7.5088 -2.2522,1.8691 -2.6154,4.4117 -1.6683,11.6891 1.1312,8.693 2.7777,13.0061 14.6336,38.3612 5.5821,11.938 5.5915,12.2023 0.5266,12.2023 -2.5652,0 -7.5717,-3.779 -13.6209,-10.2788 -10.0486,-10.7973 -13.4998,-11.4176 -13.4998,-2.426 0,4.1587 2.2402,7.5397 9.6286,14.5288 5.2957,5.0096 10.8665,9.1447 12.3796,9.188 5.9584,0.1705 21.2468,10.467 26.5322,17.8709 3.0598,4.2863 10.9274,14.4595 17.4841,22.6046 6.5565,8.1451 14.3996,18.0419 17.4275,21.9947 6.1,7.9632 23.2184,19.8813 48.5646,33.8075 9.1796,5.0435 18.927,10.9547 21.6589,13.1345 l 4.9675,3.9627 -0.5427,86.8209 c -0.2984,47.7513 -1.228,103.999 -2.0659,124.9967 -1.5154,37.9681 -1.5516,38.2055 -6.429,43.2964 -6.9932,7.2994 -39.7359,21.521 -55.1842,23.9694 -20.142,3.1922 -62.3251,18.2831 -62.3251,22.2956 0,4.2591 9.193,3.7857 21.1942,-1.0908 13.6127,-5.5313 12.8992,-5.4178 11.5306,-1.851 -0.5986,1.5598 -5.1113,4.8745 -10.0288,7.3665 -9.1896,4.6567 -11.0345,7.4509 -6.1577,9.3223 4.8608,1.8652 14.3639,-3.2678 23.064,-12.4575 5.0007,-5.2822 10.0319,-8.9005 12.3769,-8.9005 3.6753,0 3.4745,0.6621 -2.8746,9.4996 -3.7539,5.2251 -10.7985,11.9706 -15.6571,14.991 -9.2689,5.7617 -10.9099,10.8182 -3.8391,11.8314 4.578,0.6561 23.1617,-15.7563 33.4662,-29.5546 5.5533,-7.4361 8.531,-9.5264 18.5372,-13.0163 6.5566,-2.2868 13.5726,-4.8477 15.59,-5.6901 2.0173,-0.8423 -2.9345,5.4711 -11.0041,14.0291 -10.719,11.3676 -16.8948,19.9582 -22.9242,31.8893 -4.5392,8.9819 -11.3122,20.208 -15.05,24.9472 -5.5173,6.9953 -6.3324,9.0016 -4.3308,10.6629 1.9316,1.6031 4.6935,-0.4161 12.7558,-9.325 5.6599,-6.2545 10.2921,-10.3795 10.2921,-9.1665 0,4.086 -4.9114,13.9672 -9.8569,19.8321 -6.3737,7.5584 -3.0688,9.8333 5.1635,3.5543 7.5117,-5.7294 12.6448,-15.9529 17.2396,-34.3394 1.9162,-7.6685 4.4563,-15.5042 5.6444,-17.4141 2.4497,-3.9387 2.5246,-4.4521 -1.7705,12.1162 -1.1767,4.5391 -2.7821,14.8546 -3.565,22.9243 -0.7829,8.0696 -1.997,16.054 -2.6974,17.7419 -0.8608,2.0747 -0.063,3.7161 2.461,5.0668 5.2566,2.8134 7.8855,-2.8038 8.9273,-19.0717 0.4685,-7.3144 3.1324,-19.7566 6.1469,-28.7137 2.9257,-8.6938 5.3193,-18.7056 5.3193,-22.2474 0,-5.6704 1.2219,-7.3613 10.2276,-14.1607 5.6252,-4.2469 10.5883,-7.3605 11.0283,-6.9205 0.44,0.44 -3.2885,6.3386 -8.2852,13.1076 -6.7811,9.1862 -9.5879,14.9529 -11.0686,22.747 -1.0911,5.743 -3.311,15.6573 -4.9325,22.0322 -2.1916,8.6163 -2.4164,12.1232 -0.8759,13.6638 1.2996,1.2996 2.6729,1.4231 3.6806,0.3305 2.0077,-2.1767 8.8225,-23.3263 10.3862,-32.2331 0.6421,-3.6574 3.13,-9.8472 5.5316,-13.7551 l 4.3684,-7.1059 0.056,11.7965 c 0.092,18.9078 -3.5365,44.3569 -7.6459,53.6315 -6.0566,13.6687 -0.9888,20.2448 5.7599,7.474 7.0308,-13.3052 7.785,-13.3219 6.8883,-0.1451 -0.5172,7.5991 -0.061,13.0064 1.2008,14.2681 1.1179,1.1165 3.2864,1.7919 4.8196,1.4992 2.0824,-0.3976 3.1176,-4.2458 4.0916,-15.1844 2.0706,-23.2523 2.2549,-32.5322 0.7791,-39.4115 l -1.3781,-6.4181 3.7505,4.5858 c 2.0623,2.5219 6.3412,11.3778 9.5076,19.6816 3.1665,8.3038 6.8799,16.0302 8.2531,17.1698 3.6322,3.0144 8.7459,0.5664 7.0924,-3.3958 -2.3872,-5.7207 -4.4506,-12.1741 -7.3262,-22.9054 -1.9922,-7.4351 -5.2031,-13.2194 -10.9019,-19.636 -6.0785,-6.8441 -8.3943,-11.1814 -9.3439,-17.5135 -0.6942,-4.629 -0.9078,-8.7719 -0.4755,-9.2041 1.5702,-1.5703 19.7484,31.852 21.4547,39.4464 2.2969,10.2225 4.7433,12.5974 7.5599,7.3342 3.1574,-5.8994 1.2286,-12.8132 -10.37,-37.1816 -5.6596,-11.8909 -9.6962,-22.209 -8.9731,-22.927 0.7232,-0.718 6.1162,4.0606 11.9874,10.6171 10.0822,11.2593 10.7462,12.5814 11.9202,23.8405 1.904,18.2584 9.2716,32.7351 14.1689,27.838 1.3389,-1.3391 1.0121,-4.1916 -1.0773,-9.4137 -1.649,-4.1211 -2.9982,-10.1202 -2.9982,-13.3307 v -5.8378 l 6.8775,6.488 c 3.7827,3.5683 10.9078,9.7012 15.8318,13.6289 4.924,3.9276 10.9517,10.309 13.395,14.1796 4.8966,7.7563 9.0138,8.1117 8.4977,0.7334 -0.4846,-6.9278 -6.4876,-14.0758 -22.0405,-26.2449 -13.276,-10.3878 -25.7901,-23.7632 -23.9531,-25.6 1.6402,-1.6403 11.1005,2.9803 17.3658,8.4814 3.4228,3.0052 12.9888,8.8378 21.2586,12.9598 8.2697,4.1221 17.6653,9.9965 20.8771,13.054 5.9295,5.6445 11.5816,5.9588 11.5816,0.6447 0,-1.4901 -8.4584,-8.2425 -18.7977,-15.007 -10.3393,-6.7646 -23.3378,-15.3538 -28.8857,-19.0852 -5.5478,-3.7313 -16.8299,-10.2656 -25.0709,-14.5208 -14.0813,-7.2711 -20.3956,-12.984 -14.3541,-12.984 1.4524,0 9.2089,2.3993 17.2396,5.3301 14.8652,5.4251 27.506,12.9709 34.1056,20.3586 2.0174,2.2583 8.4468,7.288 14.287,11.1787 5.8403,3.8906 13.4675,9.2449 16.9467,11.8987 5.4463,4.154 6.4822,4.4152 7.4579,1.8724 1.7558,-4.5754 -0.2666,-7.8339 -8.6184,-13.8839 -8.4882,-6.1488 -7.1697,-7.277 2.8961,-2.4771 4.8069,2.2923 7.0364,2.5654 8.5592,1.0424 3.6006,-3.6005 0.2819,-7.3332 -9.3706,-10.5393 -5.1532,-1.7115 -13.6713,-6.01 -18.9294,-9.5533 -12.115,-8.1644 -24.5316,-14.4711 -39.7554,-20.1893 -17.4035,-6.5371 -33.0343,-15.2747 -36.3356,-20.313 -2.5261,-3.8554 -3.0491,-23.8509 -4.301,-164.978 -1.1897,-134.1034 -1.0112,-161.3748 1.0773,-165.3593 2.8982,-5.5294 10.5912,-12.9646 24.8209,-23.9881 21.3299,-16.524 68.5147,-64.7626 81.6628,-83.487 18.5618,-26.434 24.826,-36.7975 24.332,-40.2499 -0.9134,-6.3847 -5.7116,-4.1986 -11.861,5.4028 -7.2038,11.2475 -10.5499,16.0306 -24.7109,35.3064 -10.4867,14.2746 -14.4025,17.8233 -14.4025,13.062 0,-2.3461 13.1292,-26.7648 19.5768,-36.4133 2.3473,-3.5125 4.2663,-7.4777 4.2663,-8.812 0,-1.3342 1.7682,-6.3002 3.9277,-11.0362 9.508,-20.8525 10.8573,-24.8226 9.0536,-26.6263 -2.6628,-2.6629 -7.4585,1.9487 -11.4984,11.0605 -1.8822,4.2452 -4.2238,8.2142 -5.2038,8.8199 -0.9799,0.6056 -1.7812,2.298 -1.7812,3.7612 0,2.15 -10.3749,22.3414 -18.3115,35.6369 -0.9031,1.5131 -6.7093,13.4809 -12.9035,26.5941 -9.5657,20.2507 -12.9157,25.4296 -22.2391,34.3797 -11.3609,10.906 -12.3327,10.0332 -4.9997,-4.5026 1.888,-3.7425 3.4334,-7.8302 3.4334,-9.0832 0,-1.2531 3.1876,-12.2225 7.0845,-24.3751 6.6632,-20.7801 13.4783,-48.9929 16.0709,-66.5403 0.9284,-6.2842 0.5537,-7.9902 -1.9586,-8.9542 -4.6393,-1.7803 -7.1038,1.8652 -8.511,12.5865 -1.6875,12.8587 -9.9994,45.3654 -14.3353,56.0654 -1.9147,4.725 -6.1053,16.0167 -9.3142,25.095 -3.209,9.0784 -7.7978,20.22 -10.1982,24.7592 -2.4003,4.5392 -5.2898,10.4766 -6.4181,13.1936 -1.1284,2.7171 -5.7001,7.9322 -10.1605,11.587 l -8.1107,6.6439 0.014,-69.3558 0.014,-69.3585 6.3859,-12.4467 c 3.5134,-6.8462 9.5591,-17.1615 13.4327,-22.9243 3.8737,-5.7629 7.5388,-11.7155 8.1457,-13.2286 0.6068,-1.5131 6.4357,-9.2229 12.9518,-17.1321 13.4447,-16.3192 20.5983,-28.9409 18.9051,-33.3534 -1.6055,-4.184 -4.9782,-2.5903 -10.1095,4.7766 -3.7668,5.4083 -4.2091,5.6425 -3.1969,1.6926 11.3623,-44.3378 13.9386,-62.2631 9.4808,-65.9627 -4.9374,-4.0977 -7.8031,0.7565 -9.1907,15.5632 -0.7057,7.5313 -1.9442,14.1027 -2.751,14.6013 -0.8069,0.4988 -2.0132,4.8356 -2.6812,9.6393 -0.6679,4.8038 -2.3832,12.4478 -3.8122,16.987 -1.4289,4.5392 -3.7543,11.9891 -5.1661,16.5545 -1.4119,4.5655 -6.5985,14.3676 -11.5281,21.7825 -4.9295,7.4148 -11.9325,17.9563 -15.5604,23.4239 l -6.5954,9.9403 -1.1982,-18.2793 c -0.6588,-10.0531 -0.8292,-19.376 -0.3789,-20.7186 0.8815,-2.6274 3.3288,-85.3493 3.326,-112.421 0,-13.1266 -0.5996,-16.8212 -2.9579,-18.3088 -1.0705,-0.6754 -1.9968,-0.9533 -2.9041,-0.8141 z" id="path70"/><path id="path20" style="fill:#1a1a1a;stroke-width:1.37551" d="m 852.3321,3916.5157 c -0.9074,0.1394 -1.7941,0.6954 -2.786,1.6872 -4.1584,4.1585 -6.9078,67.0241 -7.1837,164.2579 l -0.2364,82.6946 -7.0817,-3.1702 c -3.8959,-1.7437 -8.5901,-4.7057 -10.4293,-6.5821 -3.5548,-3.6265 -12.7503,-26.497 -12.7503,-31.7119 0,-1.7079 -1.5627,-6.3549 -3.4737,-10.3271 -3.348,-6.959 -8.9412,-28.5871 -15.8586,-61.3257 -1.8117,-8.574 -4.0805,-16.6207 -5.0427,-17.8816 -1.9144,-2.509 -7.9538,-3.1121 -9.2068,-0.9189 -0.4322,0.7565 1.1596,10.8675 3.5355,22.4676 2.376,11.6002 4.3328,23.3771 4.3469,26.1724 0.022,4.3708 4.5588,19.4454 17.6398,58.6042 1.5923,4.7665 2.6119,9.5023 2.2675,10.5232 -1.2693,3.761 -26.5962,-18.5378 -74.3958,-65.498 -7.4439,-7.313 -14.1599,-13.2957 -14.9237,-13.2957 -0.7639,0 -2.9907,1.2243 -4.9487,2.7215 -3.3846,2.588 -2.4752,3.7693 18.4486,23.9748 l 22.008,21.2532 -7.3368,-1.2143 c -4.2821,-0.7082 -10.518,-3.8174 -14.9803,-7.4687 -13.1251,-10.7398 -19.4634,-7.2248 -8.6184,4.7794 7.412,8.2041 13.4258,11.3052 27.9562,14.4214 12.746,2.7335 21.7919,7.633 29.7562,16.1139 6.6741,7.1072 34.596,25.3405 52.8228,34.4952 l 9.9079,4.9781 -1.1901,28.7138 c -0.655,15.7921 -1.1955,48.6866 -1.1982,73.1009 v 44.3896 l -5.0426,-2.6488 c -2.774,-1.4572 -9.9638,-4.513 -15.977,-6.7916 l -10.9314,-4.1427 -4.2743,-13.7551 c -4.7994,-15.451 -4.424,-24.0841 1.3083,-30.186 2.0573,-2.19 3.7397,-4.802 3.7397,-5.8056 0,-1.0035 4.1256,-6.1047 9.1691,-11.3372 10.0839,-10.4618 11.0465,-13.0469 5.4,-14.5234 -2.6239,-0.6862 -3.3924,-1.8895 -2.5254,-3.9546 5.0272,-11.9736 5.2235,-13.0281 2.8826,-15.3241 -1.9122,-1.8756 -3.2104,-1.2684 -6.8023,3.1836 -2.4414,3.0261 -4.4407,6.5678 -4.4462,7.8689 0,1.3011 -1.8676,5.743 -4.1372,9.873 -2.2696,4.1301 -5.8832,10.9066 -8.0329,15.0581 l -3.9088,7.5492 -1.2466,-13.7551 c -0.6857,-7.5653 -1.1062,-17.4689 -0.9322,-22.0081 0.174,-4.5392 -0.5345,-11.967 -1.577,-16.5061 -1.0426,-4.5392 -2.488,-19.1426 -3.2104,-32.4535 -1.0242,-18.8718 -1.9143,-24.4339 -4.0433,-25.2508 -1.5015,-0.5762 -3.9845,-0.014 -5.5154,1.2627 -2.3497,1.9499 -2.6019,6.2543 -1.6308,27.6041 0.6329,13.9114 2.0406,26.9577 3.1298,28.9932 1.0894,2.0354 1.6596,5.517 1.2653,7.7346 -0.6335,3.5642 -1.0572,3.2862 -3.651,-2.3883 -1.6136,-3.5305 -4.59,-7.4253 -6.6141,-8.6535 -2.0242,-1.228 -5.5261,-7.2909 -7.7803,-13.473 -4.1414,-11.3581 -7.6002,-14.8322 -11.1895,-11.2431 -1.3945,1.3945 -1.3197,4.2513 0.2579,9.8704 1.2215,4.35 2.7067,9.9686 3.3018,12.4844 0.595,2.5157 5.9009,10.1704 11.7885,17.0111 5.8876,6.8406 10.8082,13.2424 10.9344,14.2252 0.1265,0.9828 0.4115,4.0553 0.6367,6.8293 1.6821,20.7365 5.1013,48.1348 6.5605,52.5675 0.9675,2.9376 1.4038,5.6967 0.9698,6.1307 -0.9196,0.9195 -17.8102,-16.1435 -25.8203,-26.0837 -22.251,-27.6117 -27.1573,-34.2786 -32.0586,-43.565 -3.0461,-5.7712 -5.5396,-11.8347 -5.5396,-13.4729 0,-1.6383 -1.5356,-5.1699 -3.412,-7.8475 -6.2171,-8.8716 -16.7612,-33.1042 -16.7612,-38.5196 0,-6.9612 -4.3458,-10.8563 -8.3794,-7.5088 -2.2522,1.8691 -2.6154,4.4117 -1.6683,11.6891 1.1312,8.693 2.7777,13.0061 14.6336,38.3612 5.5821,11.938 5.5915,12.2023 0.5266,12.2023 -2.5652,0 -7.5717,-3.779 -13.6209,-10.2788 -10.0486,-10.7973 -13.4998,-11.4176 -13.4998,-2.426 0,4.1587 2.2402,7.5397 9.6286,14.5288 5.2957,5.0096 10.8665,9.1447 12.3796,9.188 5.9584,0.1705 21.2468,10.467 26.5322,17.8709 3.0598,4.2863 10.9274,14.4595 17.4841,22.6046 6.5565,8.1451 14.3996,18.0419 17.4275,21.9947 6.1,7.9632 23.2184,19.8813 48.5646,33.8075 9.1796,5.0435 18.927,10.9547 21.6589,13.1345 l 4.9675,3.9627 -0.5427,86.8209 c -0.2984,47.7513 -1.228,103.999 -2.0659,124.9967 -1.5154,37.9681 -1.5516,38.2055 -6.429,43.2964 -6.9932,7.2994 -39.7359,21.521 -55.1842,23.9694 -20.142,3.1922 -62.3251,18.2831 -62.3251,22.2956 0,4.2591 9.193,3.7857 21.1942,-1.0908 13.6127,-5.5313 12.8992,-5.4178 11.5306,-1.851 -0.5986,1.5598 -5.1113,4.8745 -10.0288,7.3665 -9.1896,4.6567 -11.0345,7.4509 -6.1577,9.3223 4.8608,1.8652 14.3639,-3.2678 23.064,-12.4575 5.0007,-5.2822 10.0319,-8.9005 12.3769,-8.9005 3.6753,0 3.4745,0.6621 -2.8746,9.4996 -3.7539,5.2251 -10.7985,11.9706 -15.6571,14.991 -9.2689,5.7617 -10.9099,10.8182 -3.8391,11.8314 4.578,0.6561 23.1617,-15.7563 33.4662,-29.5546 5.5533,-7.4361 8.531,-9.5264 18.5372,-13.0163 6.5566,-2.2868 13.5726,-4.8477 15.59,-5.6901 2.0173,-0.8423 -2.9345,5.4711 -11.0041,14.0291 -10.719,11.3676 -16.8948,19.9582 -22.9242,31.8893 -4.5392,8.9819 -11.3122,20.208 -15.05,24.9472 -5.5173,6.9953 -6.3324,9.0016 -4.3308,10.6629 1.9316,1.6031 4.6935,-0.4161 12.7558,-9.325 5.6599,-6.2545 10.2921,-10.3795 10.2921,-9.1665 0,4.086 -4.9114,13.9672 -9.8569,19.8321 -6.3737,7.5584 -3.0688,9.8333 5.1635,3.5543 7.5117,-5.7294 12.6448,-15.9529 17.2396,-34.3394 1.9162,-7.6685 4.4563,-15.5042 5.6444,-17.4141 2.4497,-3.9387 2.5246,-4.4521 -1.7705,12.1162 -1.1767,4.5391 -2.7821,14.8546 -3.565,22.9243 -0.7829,8.0696 -1.997,16.054 -2.6974,17.7419 -0.8608,2.0747 -0.063,3.7161 2.461,5.0668 5.2566,2.8134 7.8855,-2.8038 8.9273,-19.0717 0.4685,-7.3144 3.1324,-19.7566 6.1469,-28.7137 2.9257,-8.6938 5.3193,-18.7056 5.3193,-22.2474 0,-5.6704 1.2219,-7.3613 10.2276,-14.1607 5.6252,-4.2469 10.5883,-7.3605 11.0283,-6.9205 0.44,0.44 -3.2885,6.3386 -8.2852,13.1076 -6.7811,9.1862 -9.5879,14.9529 -11.0686,22.747 -1.0911,5.743 -3.311,15.6573 -4.9325,22.0322 -2.1916,8.6163 -2.4164,12.1232 -0.8759,13.6638 1.2996,1.2996 2.6729,1.4231 3.6806,0.3305 2.0077,-2.1767 8.8225,-23.3263 10.3862,-32.2331 0.6421,-3.6574 3.13,-9.8472 5.5316,-13.7551 l 4.3684,-7.1059 0.056,11.7965 c 0.092,18.9078 -3.5365,44.3569 -7.6459,53.6315 -6.0566,13.6687 -0.9888,20.2448 5.7599,7.474 7.0308,-13.3052 7.785,-13.3219 6.8883,-0.1451 -0.5172,7.5991 -0.061,13.0064 1.2008,14.2681 1.1179,1.1165 3.2864,1.7919 4.8196,1.4992 2.0824,-0.3976 3.1176,-4.2458 4.0916,-15.1844 2.0706,-23.2523 2.2549,-32.5322 0.7791,-39.4115 l -1.3781,-6.4181 3.7505,4.5858 c 2.0623,2.5219 6.3412,11.3778 9.5076,19.6816 3.1665,8.3038 6.8799,16.0302 8.2531,17.1698 3.6322,3.0144 8.7459,0.5664 7.0924,-3.3958 -2.3872,-5.7207 -4.4506,-12.1741 -7.3262,-22.9054 -1.9922,-7.4351 -5.2031,-13.2194 -10.9019,-19.636 -6.0785,-6.8441 -8.3943,-11.1814 -9.3439,-17.5135 -0.6942,-4.629 -0.9078,-8.7719 -0.4755,-9.2041 1.5702,-1.5703 19.7484,31.852 21.4547,39.4464 2.2969,10.2225 4.7433,12.5974 7.5599,7.3342 3.1574,-5.8994 1.2286,-12.8132 -10.37,-37.1816 -5.6596,-11.8909 -9.6962,-22.209 -8.9731,-22.927 0.7232,-0.718 6.1162,4.0606 11.9874,10.6171 10.0822,11.2593 10.7462,12.5814 11.9202,23.8405 1.904,18.2584 9.2716,32.7351 14.1689,27.838 1.3389,-1.3391 1.0121,-4.1916 -1.0773,-9.4137 -1.649,-4.1211 -2.9982,-10.1202 -2.9982,-13.3307 v -5.8378 l 6.8775,6.488 c 3.7827,3.5683 10.9078,9.7012 15.8318,13.6289 4.924,3.9276 10.9517,10.309 13.395,14.1796 4.8966,7.7563 9.0138,8.1117 8.4977,0.7334 -0.4846,-6.9278 -6.4876,-14.0758 -22.0405,-26.2449 -13.276,-10.3878 -25.7901,-23.7632 -23.9531,-25.6 1.6402,-1.6403 11.1005,2.9803 17.3658,8.4814 3.4228,3.0052 12.9888,8.8378 21.2586,12.9598 8.2697,4.1221 17.6653,9.9965 20.8771,13.054 5.9295,5.6445 11.5816,5.9588 11.5816,0.6447 0,-1.4901 -8.4584,-8.2425 -18.7977,-15.007 -10.3393,-6.7646 -23.3378,-15.3538 -28.8857,-19.0852 -5.5478,-3.7313 -16.8299,-10.2656 -25.0709,-14.5208 -14.0813,-7.2711 -20.3956,-12.984 -14.3541,-12.984 1.4524,0 9.2089,2.3993 17.2396,5.3301 14.8652,5.4251 27.506,12.9709 34.1056,20.3586 2.0174,2.2583 8.4468,7.288 14.287,11.1787 5.8403,3.8906 13.4675,9.2449 16.9467,11.8987 5.4463,4.154 6.4822,4.4152 7.4579,1.8724 1.7558,-4.5754 -0.2666,-7.8339 -8.6184,-13.8839 -8.4882,-6.1488 -7.1697,-7.277 2.8961,-2.4771 4.8069,2.2923 7.0364,2.5654 8.5592,1.0424 3.6006,-3.6005 0.2819,-7.3332 -9.3706,-10.5393 -5.1532,-1.7115 -13.6713,-6.01 -18.9294,-9.5533 -12.115,-8.1644 -24.5316,-14.4711 -39.7554,-20.1893 -17.4035,-6.5371 -33.0343,-15.2747 -36.3356,-20.313 -2.5261,-3.8554 -3.0491,-23.8509 -4.301,-164.978 -1.1897,-134.1034 -1.0112,-161.3748 1.0773,-165.3593 2.8982,-5.5294 10.5912,-12.9646 24.8209,-23.9881 21.3299,-16.524 68.5147,-64.7626 81.6628,-83.487 18.5618,-26.434 24.826,-36.7975 24.332,-40.2499 -0.9134,-6.3847 -5.7116,-4.1986 -11.861,5.4028 -7.2038,11.2475 -10.5499,16.0306 -24.7109,35.3064 -10.4867,14.2746 -14.4025,17.8233 -14.4025,13.062 0,-2.3461 13.1292,-26.7648 19.5768,-36.4133 2.3473,-3.5125 4.2663,-7.4777 4.2663,-8.812 0,-1.3342 1.7682,-6.3002 3.9277,-11.0362 9.508,-20.8525 10.8573,-24.8226 9.0536,-26.6263 -2.6628,-2.6629 -7.4585,1.9487 -11.4984,11.0605 -1.8822,4.2452 -4.2238,8.2142 -5.2038,8.8199 -0.9799,0.6056 -1.7812,2.298 -1.7812,3.7612 0,2.15 -10.3749,22.3414 -18.3115,35.6369 -0.9031,1.5131 -6.7093,13.4809 -12.9035,26.5941 -9.5657,20.2507 -12.9157,25.4296 -22.2391,34.3797 -11.3609,10.906 -12.3327,10.0332 -4.9997,-4.5026 1.888,-3.7425 3.4334,-7.8302 3.4334,-9.0832 0,-1.2531 3.1876,-12.2225 7.0845,-24.3751 6.6632,-20.7801 13.4783,-48.9929 16.0709,-66.5403 0.9284,-6.2842 0.5537,-7.9902 -1.9586,-8.9542 -4.6393,-1.7803 -7.1038,1.8652 -8.511,12.5865 -1.6875,12.8587 -9.9994,45.3654 -14.3353,56.0654 -1.9147,4.725 -6.1053,16.0167 -9.3142,25.095 -3.209,9.0784 -7.7978,20.22 -10.1982,24.7592 -2.4003,4.5392 -5.2898,10.4766 -6.4181,13.1936 -1.1284,2.7171 -5.7001,7.9322 -10.1605,11.587 l -8.1107,6.6439 0.014,-69.3558 0.014,-69.3585 6.3859,-12.4467 c 3.5134,-6.8462 9.5591,-17.1615 13.4327,-22.9243 3.8737,-5.7629 7.5388,-11.7155 8.1457,-13.2286 0.6068,-1.5131 6.4357,-9.2229 12.9518,-17.1321 13.4447,-16.3192 20.5983,-28.9409 18.9051,-33.3534 -1.6055,-4.184 -4.9782,-2.5903 -10.1095,4.7766 -3.7668,5.4083 -4.2091,5.6425 -3.1969,1.6926 11.3623,-44.3378 13.9386,-62.2631 9.4808,-65.9627 -4.9374,-4.0977 -7.8031,0.7565 -9.1907,15.5632 -0.7057,7.5313 -1.9442,14.1027 -2.751,14.6013 -0.8069,0.4988 -2.0132,4.8356 -2.6812,9.6393 -0.6679,4.8038 -2.3832,12.4478 -3.8122,16.987 -1.4289,4.5392 -3.7543,11.9891 -5.1661,16.5545 -1.4119,4.5655 -6.5985,14.3676 -11.5281,21.7825 -4.9295,7.4148 -11.9325,17.9563 -15.5604,23.4239 l -6.5954,9.9403 -1.1982,-18.2793 c -0.6588,-10.0531 -0.8292,-19.376 -0.3789,-20.7186 0.8815,-2.6274 3.3288,-85.3493 3.326,-112.421 0,-13.1266 -0.5996,-16.8212 -2.9579,-18.3088 -1.0705,-0.6754 -1.9968,-0.9533 -2.9041,-0.8141 z m 0.5158,3.4738 c 1.4535,0 2.0503,5.0277 1.9048,16.0494 -0.4052,30.673 -2.5569,102.299 -3.3474,111.4135 -1.0784,12.4338 1.3286,44.8936 3.3689,45.4242 0.9042,0.2351 5.4442,-5.4634 10.088,-12.6617 4.6435,-7.1983 12.4765,-19.1441 17.4061,-26.5457 4.9295,-7.4018 10.1188,-17.1929 11.5306,-21.7584 1.4118,-4.5654 3.7346,-12.0153 5.1635,-16.5545 1.4289,-4.5392 3.1443,-12.1832 3.8123,-16.987 0.6679,-4.8037 1.8742,-9.1405 2.6811,-9.6393 0.8069,-0.4986 2.0481,-7.0912 2.7564,-14.6497 0.7082,-7.5586 2.0594,-13.7444 3.0035,-13.7444 3.6567,0 -1.6639,31.6129 -10.7569,63.9155 -4.038,14.3452 -0.6192,16.4033 6.9689,4.1964 3.2352,-5.2043 6.2963,-9.0465 6.8051,-8.5377 1.8103,1.8103 -7.7144,17.6047 -17.8226,29.552 -5.6469,6.6742 -11.5059,14.2691 -13.019,16.8768 -1.513,2.6077 -6.6351,10.8228 -11.3828,18.2577 -4.7478,7.4349 -10.7129,17.9151 -13.2554,23.2897 l -4.6209,9.7737 -0.1293,69.2563 c -0.08,43.3659 0.552,69.9373 1.6872,71.0725 2.4302,2.4304 20.0197,-12.3363 23.4964,-19.7246 1.4435,-3.0676 4.5655,-9.2911 6.9367,-13.8303 2.3711,-4.5392 6.9381,-15.6808 10.147,-24.7592 3.209,-9.0783 7.3996,-20.37 9.3143,-25.095 4.4524,-10.9873 12.8884,-43.9506 13.9942,-54.6845 0.4676,-4.5392 1.6936,-9.0766 2.7268,-10.0854 7.0518,-6.8843 -16.1265,81.3762 -29.7319,113.2163 -3.1903,7.4658 -4.5556,12.79 -3.4549,13.4703 1.0011,0.6187 7.9837,-4.9387 15.5174,-12.3474 12.7602,-12.5481 14.9343,-15.9182 31.7657,-49.2334 9.9375,-19.6698 19.7854,-39.0627 21.8819,-43.0977 2.0966,-4.0347 4.3003,-8.5747 4.8975,-10.0878 0.5974,-1.5131 3.1217,-6.4649 5.6096,-11.0041 6.0917,-11.1145 3.5918,-2.339 -4.0433,14.1903 -3.3879,7.3347 -6.1602,14.2366 -6.1602,15.3375 0,1.1008 -1.6172,4.2707 -3.5919,7.044 -6.6888,9.3936 -25.7831,48.095 -24.641,49.9428 2.7545,4.457 34.0087,-33.163 50.4614,-60.7373 3.2772,-5.4925 6.3073,-8.9427 6.7324,-7.6673 1.5436,4.6306 -19.1743,34.413 -42.3453,60.8716 -17.4915,19.9734 -46.3763,48.2254 -59.977,58.6661 -13.8697,10.6471 -25.482,21.9004 -28.4801,27.5988 -2.1008,3.9932 -2.2792,30.9985 -1.0853,165.5797 1.3912,156.827 1.5198,160.9311 5.1018,165.7918 5.062,6.8697 19.7777,15.4202 40.0671,23.2816 9.4019,3.6431 23.8999,10.7148 32.2169,15.7136 8.3171,4.9987 15.4465,9.0887 15.8453,9.0887 2.1979,0 17.2442,7.7325 16.498,8.4786 -1.2916,1.2916 -23.3665,-7.9089 -29.1732,-12.1592 -2.7202,-1.9913 -5.3902,-2.901 -5.9345,-2.0204 -1.1751,1.9014 5.7685,11.203 8.3633,11.203 3.0001,0 23.6092,14.6642 23.6092,16.7988 0,1.1524 -1.7363,0.7572 -4.1265,-0.9375 -2.2696,-1.6092 -9.4901,-6.5568 -16.0467,-10.9934 -6.5567,-4.4365 -13.5726,-9.919 -15.59,-12.1834 -6.5825,-7.388 -19.2243,-14.9383 -34.1057,-20.3694 -15.5732,-5.6834 -20.9021,-6.4795 -22.7979,-3.4119 -2.408,3.8961 4.7699,10.584 19.6252,18.2846 8.3982,4.3536 21.0483,11.8001 28.1092,16.5464 7.0609,4.7464 16.9646,10.8751 22.0082,13.6209 9.3206,5.074 19.8717,13.8201 18.4216,15.2702 -0.4385,0.4385 -4.3514,-2.0879 -8.6936,-5.6148 -4.3424,-3.5271 -13.8382,-9.3866 -21.1028,-13.0217 -7.2648,-3.6351 -15.9305,-8.9978 -19.2572,-11.9176 -9.9881,-8.7661 -23.4723,-13.1495 -23.4723,-7.6298 0,3.729 15.2158,20.2903 27.752,30.2076 14.8409,11.7405 18.7047,16.0347 20.7267,23.0344 1.1506,3.9834 0.8459,3.833 -2.3186,-1.1445 -2.0033,-3.1511 -10.526,-11.4803 -18.94,-18.5103 -8.414,-7.0299 -16.4232,-14.1394 -17.7984,-15.7995 -1.3751,-1.6602 -3.2321,-2.5677 -4.1266,-2.015 -2.5803,1.5948 -1.8916,14.9476 1.1472,22.2204 1.5263,3.653 2.4546,6.9618 2.0633,7.3531 -1.649,1.6489 -6.3812,-14.1217 -7.5707,-25.2293 -1.2611,-11.7761 -1.5568,-12.308 -15.0232,-27.0401 -7.5552,-8.2653 -14.5179,-15.0284 -15.4717,-15.0284 -4.6872,0 -2.8209,7.3012 7.353,28.7863 6.1161,12.9159 11.5675,26.3707 12.1164,29.9012 0.9921,6.3837 0.9851,6.3796 -1.5018,-0.9161 -2.6216,-7.6906 -17.8706,-34.4092 -22.7416,-39.8468 -3.7829,-4.2231 -6.0152,-2.4945 -6.0152,4.6611 0,10.0223 3.2268,17.7895 10.8025,26.0085 6.57,7.1274 13.0405,21.9018 13.0405,29.7749 0,1.3801 1.2604,4.9439 2.7995,7.9199 1.5389,2.9761 2.0586,5.4107 1.1579,5.4107 -0.9007,0 -4.2406,-6.8976 -7.423,-15.3295 -5.8626,-15.5333 -16.2709,-30.3075 -19.8106,-28.1199 -1.3458,0.8317 -1.2567,4.1421 0.2902,10.8617 1.6713,7.2597 1.7502,14.7968 0.3197,30.2961 -1.0474,11.348 -2.6553,20.6327 -3.5732,20.6327 -0.9177,0 -1.1381,-2.1069 -0.4916,-4.6827 1.5236,-6.0704 1.6172,-38.7754 0.1183,-41.2009 -2.2645,-3.6641 -4.329,0.2601 -5.5799,10.6066 -0.6993,5.7841 -3.2243,13.8199 -5.6122,17.8546 -5.18,8.753 -5.7863,7.2348 -0.9456,-2.3668 6.4306,-12.7551 9.8917,-65.9741 4.4086,-67.7788 -3.3018,-1.0866 -12.8902,15.1178 -14.1903,23.9801 -1.7194,11.7202 -4.9965,23.9512 -6.9635,25.9897 -1.1486,1.1901 -1.3795,0.5367 -0.6582,-1.8645 0.6113,-2.0351 2.8069,-11.527 4.8814,-21.0921 2.4516,-11.3036 5.5049,-19.8685 8.7232,-24.4717 13.0532,-18.6703 14.983,-22.1369 13.2742,-23.8457 -1.9074,-1.9074 -11.6959,4.1588 -22.8382,14.1527 -5.3781,4.8237 -6.5891,7.3338 -7.388,15.2945 -0.5258,5.238 -2.6193,13.9018 -4.6533,19.2544 -2.0338,5.3528 -4.1493,13.8583 -4.6987,18.9025 -2.2897,21.0239 -2.98,24.762 -4.5751,24.762 -0.9832,0 -0.9361,-1.9451 0.1128,-4.7043 0.9836,-2.5873 1.7893,-8.9942 1.7893,-14.2359 0,-5.2417 1.9811,-17.3616 4.4031,-26.9327 4.3058,-17.0149 4.4647,-20.1516 1.0209,-20.1516 -2.3088,0 -10.1734,15.9369 -11.767,23.843 -2.5658,12.7282 -7.3162,26.6773 -10.542,30.9652 -3.9285,5.2219 -4.4644,2.7057 -0.5991,-2.813 3.7247,-5.3178 7.0606,-20.9707 4.9244,-23.1069 -1.047,-1.047 -4.3202,2.2457 -8.5056,8.5513 -6.2222,9.3742 -10.1122,13.7438 -10.1122,11.3614 0,-0.5133 2.331,-4.4823 5.1824,-8.8199 2.8514,-4.3376 8.0106,-13.6258 11.4635,-20.6407 4.3765,-8.8912 11.1712,-17.8654 22.4299,-29.6299 8.8829,-9.2819 15.3156,-17.3933 14.2951,-18.024 -1.0205,-0.6307 -6.6393,0.862 -12.4844,3.3151 -5.8449,2.4531 -14.0543,5.377 -18.2442,6.4988 -6.1665,1.6511 -8.7295,3.7728 -13.4543,11.1357 -6.8596,10.6899 -26.4181,29.3721 -30.75,29.3721 -3.3256,0 -2.8391,-0.5313 7.3717,-8.0087 8.1391,-5.9602 22.1804,-24.2911 20.5844,-26.8734 -2.8246,-4.5703 -10.9687,-1.6127 -19.139,6.95 -7.5804,7.9447 -17.7856,14.52 -19.6467,12.659 -0.4063,-0.4064 1.8127,-1.7972 4.9325,-3.0896 6.6456,-2.7527 15.9739,-14.0647 13.5267,-16.4039 -0.943,-0.9015 -7.1933,0.6747 -14.4965,3.6564 -12.8779,5.2576 -23.6297,7.5892 -12.3017,2.6676 13.89,-6.0346 38.8423,-13.6915 50.7864,-15.5845 16.3386,-2.5897 49.0793,-17.0901 57.0031,-25.2455 3.9665,-4.0825 6.1727,-8.4761 6.9097,-13.7551 1.8156,-13.0027 5.4248,-222.2788 4.0541,-235.0778 l -1.2815,-11.9712 -15.907,-9.8408 c -8.7488,-5.4118 -19.6199,-11.7009 -24.1574,-13.9755 -12.8377,-6.435 -30.359,-18.8297 -34.1541,-24.16 -1.8917,-2.657 -8.2678,-10.4966 -14.1688,-17.4223 -5.901,-6.9256 -12.808,-15.8939 -15.3482,-19.9287 -2.5402,-4.0349 -7.203,-10.0913 -10.362,-13.4596 -5.7063,-6.0847 -20.8262,-14.9668 -25.4765,-14.9668 -4.1213,0 -17.8654,-15.3753 -17.8654,-19.9851 0,-3.7085 1.085,-3.0496 8.4329,5.1233 4.6377,5.158 10.6202,9.9013 13.2957,10.5393 2.6757,0.6379 5.9314,2.0017 7.2349,3.0304 5.5564,4.3841 5.155,-2.2395 -0.9242,-15.214 -3.5447,-7.5653 -8.3415,-17.8834 -10.6574,-22.9269 -4.8746,-10.6153 -7.8285,-28.4263 -4.715,-28.4263 1.1034,0 2.0069,2.4982 2.0069,5.5531 0,5.5964 10.4336,29.7158 16.7614,38.7452 1.8763,2.6776 3.4118,6.2092 3.4118,7.8475 0,7.5503 19.772,37.3639 36.5719,55.144 2.8594,3.0261 6.4605,8.0066 8.0005,11.0685 1.54,3.062 7.8246,9.5174 13.9674,14.3435 12.1889,9.576 15.1116,8.8415 11.4178,-2.8693 -1.6769,-5.3165 -5.651,-37.7711 -6.6223,-54.0855 -0.3902,-6.553 -6.8988,-16.8571 -16.568,-26.2286 -3.5302,-3.4217 -6.4324,-7.5052 -6.4477,-9.0725 -0.015,-1.5673 -1.2168,-6.1499 -2.6704,-10.1846 -2.9906,-8.3015 -3.6025,-13.5667 -1.2707,-10.9128 0.842,0.9582 2.9054,5.486 4.586,10.061 1.6806,4.5753 5.0815,10.7651 7.5599,13.7551 2.4784,2.9903 6.6795,8.1208 9.3357,11.4018 5.8501,7.2259 8.8678,6.029 7.4901,-2.9714 -3.5569,-23.2372 -4.6503,-33.9513 -4.7337,-46.4423 -0.1542,-23.0914 2.9794,-17.9159 4.4005,7.2698 0.7244,12.837 2.0685,27.0547 2.9901,31.5939 0.9218,4.5391 2.0022,18.2971 2.3992,30.5727 0.7871,24.3377 1.6598,27.805 6.0742,24.1413 3.1103,-2.5813 11.9487,-19.0064 21.299,-39.5808 3.8166,-8.3982 3.4482,-2.0715 -0.4003,6.8749 -4.1774,9.7104 -3.739,14.7222 0.9483,10.8322 1.4476,-1.2016 3.1033,-1.7138 3.6806,-1.1365 0.5773,0.5773 -2.948,5.0297 -7.8367,9.8918 -8.666,8.619 -10.6533,11.4254 -17.1213,24.1924 -3.0231,5.9671 -2.9751,6.7043 1.3835,21.092 5.3371,17.6174 7.3159,20.2079 18.5345,24.2595 4.6679,1.6858 12.0375,4.6985 16.3772,6.6949 4.3396,1.9964 8.1826,3.3282 8.5378,2.9605 0.3551,-0.3677 1.0448,-34.2542 1.5341,-75.3038 0.9982,-83.7688 2.1888,-76.2928 -13.3764,-83.9947 -16.1967,-8.0144 -41.4139,-24.5729 -50.4345,-33.117 -10.7651,-10.1965 -17.4224,-13.8289 -30.4572,-16.6243 -13.1981,-2.8305 -20.1335,-5.991 -25.3341,-11.5415 -6.9122,-7.377 -2.9227,-7.8628 5.0936,-0.6205 7.9221,7.1571 20.9688,10.7946 24.7377,6.899 1.6182,-1.6726 -2.9605,-7.0425 -19.4425,-22.8007 -18.6713,-17.8515 -22.7775,-23.1053 -18.024,-23.0666 0.5884,0 11.3847,9.9445 23.9936,22.0887 12.6087,12.1441 27.0525,26.0339 32.096,30.8657 14.1828,13.5877 35.4353,29.9862 37.3376,28.8106 1.7549,-1.0846 0.66,-7.9586 -3.0949,-19.4184 -1.1568,-3.5305 -5.4154,-16.5128 -9.462,-28.8481 -4.0467,-12.3353 -7.3686,-24.7151 -7.3826,-27.5102 -0.014,-2.7953 -1.9059,-14.365 -4.2045,-25.713 -2.6808,-13.2345 -3.4773,-20.6326 -2.2217,-20.6326 1.0766,0 3.475,7.2206 5.3301,16.0467 6.7838,32.2767 12.5943,54.7319 15.9876,61.7851 1.9109,3.9722 3.4738,8.6192 3.4738,10.3271 0,6.1486 9.541,28.4097 14.3406,33.4583 4.9014,5.1554 20.2625,13.1204 21.984,11.399 0.5013,-0.5014 1.12,-39.0946 1.3755,-85.7627 0.2555,-46.6678 0.9605,-93.9291 1.5663,-105.0249 2.9389,-53.8258 3.306,-57.7732 5.3838,-57.7714 z"/><path xmlns:inkscape="http://www.inkscape.org/namespaces/inkscape" inkscape:original-d="M 0,0" inkscape:path-effect="#path-effect69" d="m 852.3321,3916.5157 c -0.9074,0.1394 -1.7941,0.6954 -2.786,1.6872 -4.1584,4.1585 -6.9078,67.0241 -7.1837,164.2579 l -0.2364,82.6946 -7.0817,-3.1702 c -3.8959,-1.7437 -8.5901,-4.7057 -10.4293,-6.5821 -3.5548,-3.6265 -12.7503,-26.497 -12.7503,-31.7119 0,-1.7079 -1.5627,-6.3549 -3.4737,-10.3271 -3.348,-6.959 -8.9412,-28.5871 -15.8586,-61.3257 -1.8117,-8.574 -4.0805,-16.6207 -5.0427,-17.8816 -1.9144,-2.509 -7.9538,-3.1121 -9.2068,-0.9189 -0.4322,0.7565 1.1596,10.8675 3.5355,22.4676 2.376,11.6002 4.3328,23.3771 4.3469,26.1724 0.022,4.3708 4.5588,19.4454 17.6398,58.6042 1.5923,4.7665 2.6119,9.5023 2.2675,10.5232 -1.2693,3.761 -26.5962,-18.5378 -74.3958,-65.498 -7.4439,-7.313 -14.1599,-13.2957 -14.9237,-13.2957 -0.7639,0 -2.9907,1.2243 -4.9487,2.7215 -3.3846,2.588 -2.4752,3.7693 18.4486,23.9748 l 22.008,21.2532 -7.3368,-1.2143 c -4.2821,-0.7082 -10.518,-3.8174 -14.9803,-7.4687 -13.1251,-10.7398 -19.4634,-7.2248 -8.6184,4.7794 7.412,8.2041 13.4258,11.3052 27.9562,14.4214 12.746,2.7335 21.7919,7.633 29.7562,16.1139 6.6741,7.1072 34.596,25.3405 52.8228,34.4952 l 9.9079,4.9781 -1.1901,28.7138 c -0.655,15.7921 -1.1955,48.6866 -1.1982,73.1009 v 44.3896 l -5.0426,-2.6488 c -2.774,-1.4572 -9.9638,-4.513 -15.977,-6.7916 l -10.9314,-4.1427 -4.2743,-13.7551 c -4.7994,-15.451 -4.424,-24.0841 1.3083,-30.186 2.0573,-2.19 3.7397,-4.802 3.7397,-5.8056 0,-1.0035 4.1256,-6.1047 9.1691,-11.3372 10.0839,-10.4618 11.0465,-13.0469 5.4,-14.5234 -2.6239,-0.6862 -3.3924,-1.8895 -2.5254,-3.9546 5.0272,-11.9736 5.2235,-13.0281 2.8826,-15.3241 -1.9122,-1.8756 -3.2104,-1.2684 -6.8023,3.1836 -2.4414,3.0261 -4.4407,6.5678 -4.4462,7.8689 0,1.3011 -1.8676,5.743 -4.1372,9.873 -2.2696,4.1301 -5.8832,10.9066 -8.0329,15.0581 l -3.9088,7.5492 -1.2466,-13.7551 c -0.6857,-7.5653 -1.1062,-17.4689 -0.9322,-22.0081 0.174,-4.5392 -0.5345,-11.967 -1.577,-16.5061 -1.0426,-4.5392 -2.488,-19.1426 -3.2104,-32.4535 -1.0242,-18.8718 -1.9143,-24.4339 -4.0433,-25.2508 -1.5015,-0.5762 -3.9845,-0.014 -5.5154,1.2627 -2.3497,1.9499 -2.6019,6.2543 -1.6308,27.6041 0.6329,13.9114 2.0406,26.9577 3.1298,28.9932 1.0894,2.0354 1.6596,5.517 1.2653,7.7346 -0.6335,3.5642 -1.0572,3.2862 -3.651,-2.3883 -1.6136,-3.5305 -4.59,-7.4253 -6.6141,-8.6535 -2.0242,-1.228 -5.5261,-7.2909 -7.7803,-13.473 -4.1414,-11.3581 -7.6002,-14.8322 -11.1895,-11.2431 -1.3945,1.3945 -1.3197,4.2513 0.2579,9.8704 1.2215,4.35 2.7067,9.9686 3.3018,12.4844 0.595,2.5157 5.9009,10.1704 11.7885,17.0111 5.8876,6.8406 10.8082,13.2424 10.9344,14.2252 0.1265,0.9828 0.4115,4.0553 0.6367,6.8293 1.6821,20.7365 5.1013,48.1348 6.5605,52.5675 0.9675,2.9376 1.4038,5.6967 0.9698,6.1307 -0.9196,0.9195 -17.8102,-16.1435 -25.8203,-26.0837 -22.251,-27.6117 -27.1573,-34.2786 -32.0586,-43.565 -3.0461,-5.7712 -5.5396,-11.8347 -5.5396,-13.4729 0,-1.6383 -1.5356,-5.1699 -3.412,-7.8475 -6.2171,-8.8716 -16.7612,-33.1042 -16.7612,-38.5196 0,-6.9612 -4.3458,-10.8563 -8.3794,-7.5088 -2.2522,1.8691 -2.6154,4.4117 -1.6683,11.6891 1.1312,8.693 2.7777,13.0061 14.6336,38.3612 5.5821,11.938 5.5915,12.2023 0.5266,12.2023 -2.5652,0 -7.5717,-3.779 -13.6209,-10.2788 -10.0486,-10.7973 -13.4998,-11.4176 -13.4998,-2.426 0,4.1587 2.2402,7.5397 9.6286,14.5288 5.2957,5.0096 10.8665,9.1447 12.3796,9.188 5.9584,0.1705 21.2468,10.467 26.5322,17.8709 3.0598,4.2863 10.9274,14.4595 17.4841,22.6046 6.5565,8.1451 14.3996,18.0419 17.4275,21.9947 6.1,7.9632 23.2184,19.8813 48.5646,33.8075 9.1796,5.0435 18.927,10.9547 21.6589,13.1345 l 4.9675,3.9627 -0.5427,86.8209 c -0.2984,47.7513 -1.228,103.999 -2.0659,124.9967 -1.5154,37.9681 -1.5516,38.2055 -6.429,43.2964 -6.9932,7.2994 -39.7359,21.521 -55.1842,23.9694 -20.142,3.1922 -62.3251,18.2831 -62.3251,22.2956 0,4.2591 9.193,3.7857 21.1942,-1.0908 13.6127,-5.5313 12.8992,-5.4178 11.5306,-1.851 -0.5986,1.5598 -5.1113,4.8745 -10.0288,7.3665 -9.1896,4.6567 -11.0345,7.4509 -6.1577,9.3223 4.8608,1.8652 14.3639,-3.2678 23.064,-12.4575 5.0007,-5.2822 10.0319,-8.9005 12.3769,-8.9005 3.6753,0 3.4745,0.6621 -2.8746,9.4996 -3.7539,5.2251 -10.7985,11.9706 -15.6571,14.991 -9.2689,5.7617 -10.9099,10.8182 -3.8391,11.8314 4.578,0.6561 23.1617,-15.7563 33.4662,-29.5546 5.5533,-7.4361 8.531,-9.5264 18.5372,-13.0163 6.5566,-2.2868 13.5726,-4.8477 15.59,-5.6901 2.0173,-0.8423 -2.9345,5.4711 -11.0041,14.0291 -10.719,11.3676 -16.8948,19.9582 -22.9242,31.8893 -4.5392,8.9819 -11.3122,20.208 -15.05,24.9472 -5.5173,6.9953 -6.3324,9.0016 -4.3308,10.6629 1.9316,1.6031 4.6935,-0.4161 12.7558,-9.325 5.6599,-6.2545 10.2921,-10.3795 10.2921,-9.1665 0,4.086 -4.9114,13.9672 -9.8569,19.8321 -6.3737,7.5584 -3.0688,9.8333 5.1635,3.5543 7.5117,-5.7294 12.6448,-15.9529 17.2396,-34.3394 1.9162,-7.6685 4.4563,-15.5042 5.6444,-17.4141 2.4497,-3.9387 2.5246,-4.4521 -1.7705,12.1162 -1.1767,4.5391 -2.7821,14.8546 -3.565,22.9243 -0.7829,8.0696 -1.997,16.054 -2.6974,17.7419 -0.8608,2.0747 -0.063,3.7161 2.461,5.0668 5.2566,2.8134 7.8855,-2.8038 8.9273,-19.0717 0.4685,-7.3144 3.1324,-19.7566 6.1469,-28.7137 2.9257,-8.6938 5.3193,-18.7056 5.3193,-22.2474 0,-5.6704 1.2219,-7.3613 10.2276,-14.1607 5.6252,-4.2469 10.5883,-7.3605 11.0283,-6.9205 0.44,0.44 -3.2885,6.3386 -8.2852,13.1076 -6.7811,9.1862 -9.5879,14.9529 -11.0686,22.747 -1.0911,5.743 -3.311,15.6573 -4.9325,22.0322 -2.1916,8.6163 -2.4164,12.1232 -0.8759,13.6638 1.2996,1.2996 2.6729,1.4231 3.6806,0.3305 2.0077,-2.1767 8.8225,-23.3263 10.3862,-32.2331 0.6421,-3.6574 3.13,-9.8472 5.5316,-13.7551 l 4.3684,-7.1059 0.056,11.7965 c 0.092,18.9078 -3.5365,44.3569 -7.6459,53.6315 -6.0566,13.6687 -0.9888,20.2448 5.7599,7.474 7.0308,-13.3052 7.785,-13.3219 6.8883,-0.1451 -0.5172,7.5991 -0.061,13.0064 1.2008,14.2681 1.1179,1.1165 3.2864,1.7919 4.8196,1.4992 2.0824,-0.3976 3.1176,-4.2458 4.0916,-15.1844 2.0706,-23.2523 2.2549,-32.5322 0.7791,-39.4115 l -1.3781,-6.4181 3.7505,4.5858 c 2.0623,2.5219 6.3412,11.3778 9.5076,19.6816 3.1665,8.3038 6.8799,16.0302 8.2531,17.1698 3.6322,3.0144 8.7459,0.5664 7.0924,-3.3958 -2.3872,-5.7207 -4.4506,-12.1741 -7.3262,-22.9054 -1.9922,-7.4351 -5.2031,-13.2194 -10.9019,-19.636 -6.0785,-6.8441 -8.3943,-11.1814 -9.3439,-17.5135 -0.6942,-4.629 -0.9078,-8.7719 -0.4755,-9.2041 1.5702,-1.5703 19.7484,31.852 21.4547,39.4464 2.2969,10.2225 4.7433,12.5974 7.5599,7.3342 3.1574,-5.8994 1.2286,-12.8132 -10.37,-37.1816 -5.6596,-11.8909 -9.6962,-22.209 -8.9731,-22.927 0.7232,-0.718 6.1162,4.0606 11.9874,10.6171 10.0822,11.2593 10.7462,12.5814 11.9202,23.8405 1.904,18.2584 9.2716,32.7351 14.1689,27.838 1.3389,-1.3391 1.0121,-4.1916 -1.0773,-9.4137 -1.649,-4.1211 -2.9982,-10.1202 -2.9982,-13.3307 v -5.8378 l 6.8775,6.488 c 3.7827,3.5683 10.9078,9.7012 15.8318,13.6289 4.924,3.9276 10.9517,10.309 13.395,14.1796 4.8966,7.7563 9.0138,8.1117 8.4977,0.7334 -0.4846,-6.9278 -6.4876,-14.0758 -22.0405,-26.2449 -13.276,-10.3878 -25.7901,-23.7632 -23.9531,-25.6 1.6402,-1.6403 11.1005,2.9803 17.3658,8.4814 3.4228,3.0052 12.9888,8.8378 21.2586,12.9598 8.2697,4.1221 17.6653,9.9965 20.8771,13.054 5.9295,5.6445 11.5816,5.9588 11.5816,0.6447 0,-1.4901 -8.4584,-8.2425 -18.7977,-15.007 -10.3393,-6.7646 -23.3378,-15.3538 -28.8857,-19.0852 -5.5478,-3.7313 -16.8299,-10.2656 -25.0709,-14.5208 -14.0813,-7.2711 -20.3956,-12.984 -14.3541,-12.984 1.4524,0 9.2089,2.3993 17.2396,5.3301 14.8652,5.4251 27.506,12.9709 34.1056,20.3586 2.0174,2.2583 8.4468,7.288 14.287,11.1787 5.8403,3.8906 13.4675,9.2449 16.9467,11.8987 5.4463,4.154 6.4822,4.4152 7.4579,1.8724 1.7558,-4.5754 -0.2666,-7.8339 -8.6184,-13.8839 -8.4882,-6.1488 -7.1697,-7.277 2.8961,-2.4771 4.8069,2.2923 7.0364,2.5654 8.5592,1.0424 3.6006,-3.6005 0.2819,-7.3332 -9.3706,-10.5393 -5.1532,-1.7115 -13.6713,-6.01 -18.9294,-9.5533 -12.115,-8.1644 -24.5316,-14.4711 -39.7554,-20.1893 -17.4035,-6.5371 -33.0343,-15.2747 -36.3356,-20.313 -2.5261,-3.8554 -3.0491,-23.8509 -4.301,-164.978 -1.1897,-134.1034 -1.0112,-161.3748 1.0773,-165.3593 2.8982,-5.5294 10.5912,-12.9646 24.8209,-23.9881 21.3299,-16.524 68.5147,-64.7626 81.6628,-83.487 18.5618,-26.434 24.826,-36.7975 24.332,-40.2499 -0.9134,-6.3847 -5.7116,-4.1986 -11.861,5.4028 -7.2038,11.2475 -10.5499,16.0306 -24.7109,35.3064 -10.4867,14.2746 -14.4025,17.8233 -14.4025,13.062 0,-2.3461 13.1292,-26.7648 19.5768,-36.4133 2.3473,-3.5125 4.2663,-7.4777 4.2663,-8.812 0,-1.3342 1.7682,-6.3002 3.9277,-11.0362 9.508,-20.8525 10.8573,-24.8226 9.0536,-26.6263 -2.6628,-2.6629 -7.4585,1.9487 -11.4984,11.0605 -1.8822,4.2452 -4.2238,8.2142 -5.2038,8.8199 -0.9799,0.6056 -1.7812,2.298 -1.7812,3.7612 0,2.15 -10.3749,22.3414 -18.3115,35.6369 -0.9031,1.5131 -6.7093,13.4809 -12.9035,26.5941 -9.5657,20.2507 -12.9157,25.4296 -22.2391,34.3797 -11.3609,10.906 -12.3327,10.0332 -4.9997,-4.5026 1.888,-3.7425 3.4334,-7.8302 3.4334,-9.0832 0,-1.2531 3.1876,-12.2225 7.0845,-24.3751 6.6632,-20.7801 13.4783,-48.9929 16.0709,-66.5403 0.9284,-6.2842 0.5537,-7.9902 -1.9586,-8.9542 -4.6393,-1.7803 -7.1038,1.8652 -8.511,12.5865 -1.6875,12.8587 -9.9994,45.3654 -14.3353,56.0654 -1.9147,4.725 -6.1053,16.0167 -9.3142,25.095 -3.209,9.0784 -7.7978,20.22 -10.1982,24.7592 -2.4003,4.5392 -5.2898,10.4766 -6.4181,13.1936 -1.1284,2.7171 -5.7001,7.9322 -10.1605,11.587 l -8.1107,6.6439 0.014,-69.3558 0.014,-69.3585 6.3859,-12.4467 c 3.5134,-6.8462 9.5591,-17.1615 13.4327,-22.9243 3.8737,-5.7629 7.5388,-11.7155 8.1457,-13.2286 0.6068,-1.5131 6.4357,-9.2229 12.9518,-17.1321 13.4447,-16.3192 20.5983,-28.9409 18.9051,-33.3534 -1.6055,-4.184 -4.9782,-2.5903 -10.1095,4.7766 -3.7668,5.4083 -4.2091,5.6425 -3.1969,1.6926 11.3623,-44.3378 13.9386,-62.2631 9.4808,-65.9627 -4.9374,-4.0977 -7.8031,0.7565 -9.1907,15.5632 -0.7057,7.5313 -1.9442,14.1027 -2.751,14.6013 -0.8069,0.4988 -2.0132,4.8356 -2.6812,9.6393 -0.6679,4.8038 -2.3832,12.4478 -3.8122,16.987 -1.4289,4.5392 -3.7543,11.9891 -5.1661,16.5545 -1.4119,4.5655 -6.5985,14.3676 -11.5281,21.7825 -4.9295,7.4148 -11.9325,17.9563 -15.5604,23.4239 l -6.5954,9.9403 -1.1982,-18.2793 c -0.6588,-10.0531 -0.8292,-19.376 -0.3789,-20.7186 0.8815,-2.6274 3.3288,-85.3493 3.326,-112.421 0,-13.1266 -0.5996,-16.8212 -2.9579,-18.3088 -1.0705,-0.6754 -1.9968,-0.9533 -2.9041,-0.8141 z" id="path70"/><path id="path20" style="fill:#1a1a1a;stroke-width:1.37551" d="m 852.3321,3916.5157 c -0.9074,0.1394 -1.7941,0.6954 -2.786,1.6872 -4.1584,4.1585 -6.9078,67.0241 -7.1837,164.2579 l -0.2364,82.6946 -7.0817,-3.1702 c -3.8959,-1.7437 -8.5901,-4.7057 -10.4293,-6.5821 -3.5548,-3.6265 -12.7503,-26.497 -12.7503,-31.7119 0,-1.7079 -1.5627,-6.3549 -3.4737,-10.3271 -3.348,-6.959 -8.9412,-28.5871 -15.8586,-61.3257 -1.8117,-8.574 -4.0805,-16.6207 -5.0427,-17.8816 -1.9144,-2.509 -7.9538,-3.1121 -9.2068,-0.9189 -0.4322,0.7565 1.1596,10.8675 3.5355,22.4676 2.376,11.6002 4.3328,23.3771 4.3469,26.1724 0.022,4.3708 4.5588,19.4454 17.6398,58.6042 1.5923,4.7665 2.6119,9.5023 2.2675,10.5232 -1.2693,3.761 -26.5962,-18.5378 -74.3958,-65.498 -7.4439,-7.313 -14.1599,-13.2957 -14.9237,-13.2957 -0.7639,0 -2.9907,1.2243 -4.9487,2.7215 -3.3846,2.588 -2.4752,3.7693 18.4486,23.9748 l 22.008,21.2532 -7.3368,-1.2143 c -4.2821,-0.7082 -10.518,-3.8174 -14.9803,-7.4687 -13.1251,-10.7398 -19.4634,-7.2248 -8.6184,4.7794 7.412,8.2041 13.4258,11.3052 27.9562,14.4214 12.746,2.7335 21.7919,7.633 29.7562,16.1139 6.6741,7.1072 34.596,25.3405 52.8228,34.4952 l 9.9079,4.9781 -1.1901,28.7138 c -0.655,15.7921 -1.1955,48.6866 -1.1982,73.1009 v 44.3896 l -5.0426,-2.6488 c -2.774,-1.4572 -9.9638,-4.513 -15.977,-6.7916 l -10.9314,-4.1427 -4.2743,-13.7551 c -4.7994,-15.451 -4.424,-24.0841 1.3083,-30.186 2.0573,-2.19 3.7397,-4.802 3.7397,-5.8056 0,-1.0035 4.1256,-6.1047 9.1691,-11.3372 10.0839,-10.4618 11.0465,-13.0469 5.4,-14.5234 -2.6239,-0.6862 -3.3924,-1.8895 -2.5254,-3.9546 5.0272,-11.9736 5.2235,-13.0281 2.8826,-15.3241 -1.9122,-1.8756 -3.2104,-1.2684 -6.8023,3.1836 -2.4414,3.0261 -4.4407,6.5678 -4.4462,7.8689 0,1.3011 -1.8676,5.743 -4.1372,9.873 -2.2696,4.1301 -5.8832,10.9066 -8.0329,15.0581 l -3.9088,7.5492 -1.2466,-13.7551 c -0.6857,-7.5653 -1.1062,-17.4689 -0.9322,-22.0081 0.174,-4.5392 -0.5345,-11.967 -1.577,-16.5061 -1.0426,-4.5392 -2.488,-19.1426 -3.2104,-32.4535 -1.0242,-18.8718 -1.9143,-24.4339 -4.0433,-25.2508 -1.5015,-0.5762 -3.9845,-0.014 -5.5154,1.2627 -2.3497,1.9499 -2.6019,6.2543 -1.6308,27.6041 0.6329,13.9114 2.0406,26.9577 3.1298,28.9932 1.0894,2.0354 1.6596,5.517 1.2653,7.7346 -0.6335,3.5642 -1.0572,3.2862 -3.651,-2.3883 -1.6136,-3.5305 -4.59,-7.4253 -6.6141,-8.6535 -2.0242,-1.228 -5.5261,-7.2909 -7.7803,-13.473 -4.1414,-11.3581 -7.6002,-14.8322 -11.1895,-11.2431 -1.3945,1.3945 -1.3197,4.2513 0.2579,9.8704 1.2215,4.35 2.7067,9.9686 3.3018,12.4844 0.595,2.5157 5.9009,10.1704 11.7885,17.0111 5.8876,6.8406 10.8082,13.2424 10.9344,14.2252 0.1265,0.9828 0.4115,4.0553 0.6367,6.8293 1.6821,20.7365 5.1013,48.1348 6.5605,52.5675 0.9675,2.9376 1.4038,5.6967 0.9698,6.1307 -0.9196,0.9195 -17.8102,-16.1435 -25.8203,-26.0837 -22.251,-27.6117 -27.1573,-34.2786 -32.0586,-43.565 -3.0461,-5.7712 -5.5396,-11.8347 -5.5396,-13.4729 0,-1.6383 -1.5356,-5.1699 -3.412,-7.8475 -6.2171,-8.8716 -16.7612,-33.1042 -16.7612,-38.5196 0,-6.9612 -4.3458,-10.8563 -8.3794,-7.5088 -2.2522,1.8691 -2.6154,4.4117 -1.6683,11.6891 1.1312,8.693 2.7777,13.0061 14.6336,38.3612 5.5821,11.938 5.5915,12.2023 0.5266,12.2023 -2.5652,0 -7.5717,-3.779 -13.6209,-10.2788 -10.0486,-10.7973 -13.4998,-11.4176 -13.4998,-2.426 0,4.1587 2.2402,7.5397 9.6286,14.5288 5.2957,5.0096 10.8665,9.1447 12.3796,9.188 5.9584,0.1705 21.2468,10.467 26.5322,17.8709 3.0598,4.2863 10.9274,14.4595 17.4841,22.6046 6.5565,8.1451 14.3996,18.0419 17.4275,21.9947 6.1,7.9632 23.2184,19.8813 48.5646,33.8075 9.1796,5.0435 18.927,10.9547 21.6589,13.1345 l 4.9675,3.9627 -0.5427,86.8209 c -0.2984,47.7513 -1.228,103.999 -2.0659,124.9967 -1.5154,37.9681 -1.5516,38.2055 -6.429,43.2964 -6.9932,7.2994 -39.7359,21.521 -55.1842,23.9694 -20.142,3.1922 -62.3251,18.2831 -62.3251,22.2956 0,4.2591 9.193,3.7857 21.1942,-1.0908 13.6127,-5.5313 12.8992,-5.4178 11.5306,-1.851 -0.5986,1.5598 -5.1113,4.8745 -10.0288,7.3665 -9.1896,4.6567 -11.0345,7.4509 -6.1577,9.3223 4.8608,1.8652 14.3639,-3.2678 23.064,-12.4575 5.0007,-5.2822 10.0319,-8.9005 12.3769,-8.9005 3.6753,0 3.4745,0.6621 -2.8746,9.4996 -3.7539,5.2251 -10.7985,11.9706 -15.6571,14.991 -9.2689,5.7617 -10.9099,10.8182 -3.8391,11.8314 4.578,0.6561 23.1617,-15.7563 33.4662,-29.5546 5.5533,-7.4361 8.531,-9.5264 18.5372,-13.0163 6.5566,-2.2868 13.5726,-4.8477 15.59,-5.6901 2.0173,-0.8423 -2.9345,5.4711 -11.0041,14.0291 -10.719,11.3676 -16.8948,19.9582 -22.9242,31.8893 -4.5392,8.9819 -11.3122,20.208 -15.05,24.9472 -5.5173,6.9953 -6.3324,9.0016 -4.3308,10.6629 1.9316,1.6031 4.6935,-0.4161 12.7558,-9.325 5.6599,-6.2545 10.2921,-10.3795 10.2921,-9.1665 0,4.086 -4.9114,13.9672 -9.8569,19.8321 -6.3737,7.5584 -3.0688,9.8333 5.1635,3.5543 7.5117,-5.7294 12.6448,-15.9529 17.2396,-34.3394 1.9162,-7.6685 4.4563,-15.5042 5.6444,-17.4141 2.4497,-3.9387 2.5246,-4.4521 -1.7705,12.1162 -1.1767,4.5391 -2.7821,14.8546 -3.565,22.9243 -0.7829,8.0696 -1.997,16.054 -2.6974,17.7419 -0.8608,2.0747 -0.063,3.7161 2.461,5.0668 5.2566,2.8134 7.8855,-2.8038 8.9273,-19.0717 0.4685,-7.3144 3.1324,-19.7566 6.1469,-28.7137 2.9257,-8.6938 5.3193,-18.7056 5.3193,-22.2474 0,-5.6704 1.2219,-7.3613 10.2276,-14.1607 5.6252,-4.2469 10.5883,-7.3605 11.0283,-6.9205 0.44,0.44 -3.2885,6.3386 -8.2852,13.1076 -6.7811,9.1862 -9.5879,14.9529 -11.0686,22.747 -1.0911,5.743 -3.311,15.6573 -4.9325,22.0322 -2.1916,8.6163 -2.4164,12.1232 -0.8759,13.6638 1.2996,1.2996 2.6729,1.4231 3.6806,0.3305 2.0077,-2.1767 8.8225,-23.3263 10.3862,-32.2331 0.6421,-3.6574 3.13,-9.8472 5.5316,-13.7551 l 4.3684,-7.1059 0.056,11.7965 c 0.092,18.9078 -3.5365,44.3569 -7.6459,53.6315 -6.0566,13.6687 -0.9888,20.2448 5.7599,7.474 7.0308,-13.3052 7.785,-13.3219 6.8883,-0.1451 -0.5172,7.5991 -0.061,13.0064 1.2008,14.2681 1.1179,1.1165 3.2864,1.7919 4.8196,1.4992 2.0824,-0.3976 3.1176,-4.2458 4.0916,-15.1844 2.0706,-23.2523 2.2549,-32.5322 0.7791,-39.4115 l -1.3781,-6.4181 3.7505,4.5858 c 2.0623,2.5219 6.3412,11.3778 9.5076,19.6816 3.1665,8.3038 6.8799,16.0302 8.2531,17.1698 3.6322,3.0144 8.7459,0.5664 7.0924,-3.3958 -2.3872,-5.7207 -4.4506,-12.1741 -7.3262,-22.9054 -1.9922,-7.4351 -5.2031,-13.2194 -10.9019,-19.636 -6.0785,-6.8441 -8.3943,-11.1814 -9.3439,-17.5135 -0.6942,-4.629 -0.9078,-8.7719 -0.4755,-9.2041 1.5702,-1.5703 19.7484,31.852 21.4547,39.4464 2.2969,10.2225 4.7433,12.5974 7.5599,7.3342 3.1574,-5.8994 1.2286,-12.8132 -10.37,-37.1816 -5.6596,-11.8909 -9.6962,-22.209 -8.9731,-22.927 0.7232,-0.718 6.1162,4.0606 11.9874,10.6171 10.0822,11.2593 10.7462,12.5814 11.9202,23.8405 1.904,18.2584 9.2716,32.7351 14.1689,27.838 1.3389,-1.3391 1.0121,-4.1916 -1.0773,-9.4137 -1.649,-4.1211 -2.9982,-10.1202 -2.9982,-13.3307 v -5.8378 l 6.8775,6.488 c 3.7827,3.5683 10.9078,9.7012 15.8318,13.6289 4.924,3.9276 10.9517,10.309 13.395,14.1796 4.8966,7.7563 9.0138,8.1117 8.4977,0.7334 -0.4846,-6.9278 -6.4876,-14.0758 -22.0405,-26.2449 -13.276,-10.3878 -25.7901,-23.7632 -23.9531,-25.6 1.6402,-1.6403 11.1005,2.9803 17.3658,8.4814 3.4228,3.0052 12.9888,8.8378 21.2586,12.9598 8.2697,4.1221 17.6653,9.9965 20.8771,13.054 5.9295,5.6445 11.5816,5.9588 11.5816,0.6447 0,-1.4901 -8.4584,-8.2425 -18.7977,-15.007 -10.3393,-6.7646 -23.3378,-15.3538 -28.8857,-19.0852 -5.5478,-3.7313 -16.8299,-10.2656 -25.0709,-14.5208 -14.0813,-7.2711 -20.3956,-12.984 -14.3541,-12.984 1.4524,0 9.2089,2.3993 17.2396,5.3301 14.8652,5.4251 27.506,12.9709 34.1056,20.3586 2.0174,2.2583 8.4468,7.288 14.287,11.1787 5.8403,3.8906 13.4675,9.2449 16.9467,11.8987 5.4463,4.154 6.4822,4.4152 7.4579,1.8724 1.7558,-4.5754 -0.2666,-7.8339 -8.6184,-13.8839 -8.4882,-6.1488 -7.1697,-7.277 2.8961,-2.4771 4.8069,2.2923 7.0364,2.5654 8.5592,1.0424 3.6006,-3.6005 0.2819,-7.3332 -9.3706,-10.5393 -5.1532,-1.7115 -13.6713,-6.01 -18.9294,-9.5533 -12.115,-8.1644 -24.5316,-14.4711 -39.7554,-20.1893 -17.4035,-6.5371 -33.0343,-15.2747 -36.3356,-20.313 -2.5261,-3.8554 -3.0491,-23.8509 -4.301,-164.978 -1.1897,-134.1034 -1.0112,-161.3748 1.0773,-165.3593 2.8982,-5.5294 10.5912,-12.9646 24.8209,-23.9881 21.3299,-16.524 68.5147,-64.7626 81.6628,-83.487 18.5618,-26.434 24.826,-36.7975 24.332,-40.2499 -0.9134,-6.3847 -5.7116,-4.1986 -11.861,5.4028 -7.2038,11.2475 -10.5499,16.0306 -24.7109,35.3064 -10.4867,14.2746 -14.4025,17.8233 -14.4025,13.062 0,-2.3461 13.1292,-26.7648 19.5768,-36.4133 2.3473,-3.5125 4.2663,-7.4777 4.2663,-8.812 0,-1.3342 1.7682,-6.3002 3.9277,-11.0362 9.508,-20.8525 10.8573,-24.8226 9.0536,-26.6263 -2.6628,-2.6629 -7.4585,1.9487 -11.4984,11.0605 -1.8822,4.2452 -4.2238,8.2142 -5.2038,8.8199 -0.9799,0.6056 -1.7812,2.298 -1.7812,3.7612 0,2.15 -10.3749,22.3414 -18.3115,35.6369 -0.9031,1.5131 -6.7093,13.4809 -12.9035,26.5941 -9.5657,20.2507 -12.9157,25.4296 -22.2391,34.3797 -11.3609,10.906 -12.3327,10.0332 -4.9997,-4.5026 1.888,-3.7425 3.4334,-7.8302 3.4334,-9.0832 0,-1.2531 3.1876,-12.2225 7.0845,-24.3751 6.6632,-20.7801 13.4783,-48.9929 16.0709,-66.5403 0.9284,-6.2842 0.5537,-7.9902 -1.9586,-8.9542 -4.6393,-1.7803 -7.1038,1.8652 -8.511,12.5865 -1.6875,12.8587 -9.9994,45.3654 -14.3353,56.0654 -1.9147,4.725 -6.1053,16.0167 -9.3142,25.095 -3.209,9.0784 -7.7978,20.22 -10.1982,24.7592 -2.4003,4.5392 -5.2898,10.4766 -6.4181,13.1936 -1.1284,2.7171 -5.7001,7.9322 -10.1605,11.587 l -8.1107,6.6439 0.014,-69.3558 0.014,-69.3585 6.3859,-12.4467 c 3.5134,-6.8462 9.5591,-17.1615 13.4327,-22.9243 3.8737,-5.7629 7.5388,-11.7155 8.1457,-13.2286 0.6068,-1.5131 6.4357,-9.2229 12.9518,-17.1321 13.4447,-16.3192 20.5983,-28.9409 18.9051,-33.3534 -1.6055,-4.184 -4.9782,-2.5903 -10.1095,4.7766 -3.7668,5.4083 -4.2091,5.6425 -3.1969,1.6926 11.3623,-44.3378 13.9386,-62.2631 9.4808,-65.9627 -4.9374,-4.0977 -7.8031,0.7565 -9.1907,15.5632 -0.7057,7.5313 -1.9442,14.1027 -2.751,14.6013 -0.8069,0.4988 -2.0132,4.8356 -2.6812,9.6393 -0.6679,4.8038 -2.3832,12.4478 -3.8122,16.987 -1.4289,4.5392 -3.7543,11.9891 -5.1661,16.5545 -1.4119,4.5655 -6.5985,14.3676 -11.5281,21.7825 -4.9295,7.4148 -11.9325,17.9563 -15.5604,23.4239 l -6.5954,9.9403 -1.1982,-18.2793 c -0.6588,-10.0531 -0.8292,-19.376 -0.3789,-20.7186 0.8815,-2.6274 3.3288,-85.3493 3.326,-112.421 0,-13.1266 -0.5996,-16.8212 -2.9579,-18.3088 -1.0705,-0.6754 -1.9968,-0.9533 -2.9041,-0.8141 z m 0.5158,3.4738 c 1.4535,0 2.0503,5.0277 1.9048,16.0494 -0.4052,30.673 -2.5569,102.299 -3.3474,111.4135 -1.0784,12.4338 1.3286,44.8936 3.3689,45.4242 0.9042,0.2351 5.4442,-5.4634 10.088,-12.6617 4.6435,-7.1983 12.4765,-19.1441 17.4061,-26.5457 4.9295,-7.4018 10.1188,-17.1929 11.5306,-21.7584 1.4118,-4.5654 3.7346,-12.0153 5.1635,-16.5545 1.4289,-4.5392 3.1443,-12.1832 3.8123,-16.987 0.6679,-4.8037 1.8742,-9.1405 2.6811,-9.6393 0.8069,-0.4986 2.0481,-7.0912 2.7564,-14.6497 0.7082,-7.5586 2.0594,-13.7444 3.0035,-13.7444 3.6567,0 -1.6639,31.6129 -10.7569,63.9155 -4.038,14.3452 -0.6192,16.4033 6.9689,4.1964 3.2352,-5.2043 6.2963,-9.0465 6.8051,-8.5377 1.8103,1.8103 -7.7144,17.6047 -17.8226,29.552 -5.6469,6.6742 -11.5059,14.2691 -13.019,16.8768 -1.513,2.6077 -6.6351,10.8228 -11.3828,18.2577 -4.7478,7.4349 -10.7129,17.9151 -13.2554,23.2897 l -4.6209,9.7737 -0.1293,69.2563 c -0.08,43.3659 0.552,69.9373 1.6872,71.0725 2.4302,2.4304 20.0197,-12.3363 23.4964,-19.7246 1.4435,-3.0676 4.5655,-9.2911 6.9367,-13.8303 2.3711,-4.5392 6.9381,-15.6808 10.147,-24.7592 3.209,-9.0783 7.3996,-20.37 9.3143,-25.095 4.4524,-10.9873 12.8884,-43.9506 13.9942,-54.6845 0.4676,-4.5392 1.6936,-9.0766 2.7268,-10.0854 7.0518,-6.8843 -16.1265,81.3762 -29.7319,113.2163 -3.1903,7.4658 -4.5556,12.79 -3.4549,13.4703 1.0011,0.6187 7.9837,-4.9387 15.5174,-12.3474 12.7602,-12.5481 14.9343,-15.9182 31.7657,-49.2334 9.9375,-19.6698 19.7854,-39.0627 21.8819,-43.0977 2.0966,-4.0347 4.3003,-8.5747 4.8975,-10.0878 0.5974,-1.5131 3.1217,-6.4649 5.6096,-11.0041 6.0917,-11.1145 3.5918,-2.339 -4.0433,14.1903 -3.3879,7.3347 -6.1602,14.2366 -6.1602,15.3375 0,1.1008 -1.6172,4.2707 -3.5919,7.044 -6.6888,9.3936 -25.7831,48.095 -24.641,49.9428 2.7545,4.457 34.0087,-33.163 50.4614,-60.7373 3.2772,-5.4925 6.3073,-8.9427 6.7324,-7.6673 1.5436,4.6306 -19.1743,34.413 -42.3453,60.8716 -17.4915,19.9734 -46.3763,48.2254 -59.977,58.6661 -13.8697,10.6471 -25.482,21.9004 -28.4801,27.5988 -2.1008,3.9932 -2.2792,30.9985 -1.0853,165.5797 1.3912,156.827 1.5198,160.9311 5.1018,165.7918 5.062,6.8697 19.7777,15.4202 40.0671,23.2816 9.4019,3.6431 23.8999,10.7148 32.2169,15.7136 8.3171,4.9987 15.4465,9.0887 15.8453,9.0887 2.1979,0 17.2442,7.7325 16.498,8.4786 -1.2916,1.2916 -23.3665,-7.9089 -29.1732,-12.1592 -2.7202,-1.9913 -5.3902,-2.901 -5.9345,-2.0204 -1.1751,1.9014 5.7685,11.203 8.3633,11.203 3.0001,0 23.6092,14.6642 23.6092,16.7988 0,1.1524 -1.7363,0.7572 -4.1265,-0.9375 -2.2696,-1.6092 -9.4901,-6.5568 -16.0467,-10.9934 -6.5567,-4.4365 -13.5726,-9.919 -15.59,-12.1834 -6.5825,-7.388 -19.2243,-14.9383 -34.1057,-20.3694 -15.5732,-5.6834 -20.9021,-6.4795 -22.7979,-3.4119 -2.408,3.8961 4.7699,10.584 19.6252,18.2846 8.3982,4.3536 21.0483,11.8001 28.1092,16.5464 7.0609,4.7464 16.9646,10.8751 22.0082,13.6209 9.3206,5.074 19.8717,13.8201 18.4216,15.2702 -0.4385,0.4385 -4.3514,-2.0879 -8.6936,-5.6148 -4.3424,-3.5271 -13.8382,-9.3866 -21.1028,-13.0217 -7.2648,-3.6351 -15.9305,-8.9978 -19.2572,-11.9176 -9.9881,-8.7661 -23.4723,-13.1495 -23.4723,-7.6298 0,3.729 15.2158,20.2903 27.752,30.2076 14.8409,11.7405 18.7047,16.0347 20.7267,23.0344 1.1506,3.9834 0.8459,3.833 -2.3186,-1.1445 -2.0033,-3.1511 -10.526,-11.4803 -18.94,-18.5103 -8.414,-7.0299 -16.4232,-14.1394 -17.7984,-15.7995 -1.3751,-1.6602 -3.2321,-2.5677 -4.1266,-2.015 -2.5803,1.5948 -1.8916,14.9476 1.1472,22.2204 1.5263,3.653 2.4546,6.9618 2.0633,7.3531 -1.649,1.6489 -6.3812,-14.1217 -7.5707,-25.2293 -1.2611,-11.7761 -1.5568,-12.308 -15.0232,-27.0401 -7.5552,-8.2653 -14.5179,-15.0284 -15.4717,-15.0284 -4.6872,0 -2.8209,7.3012 7.353,28.7863 6.1161,12.9159 11.5675,26.3707 12.1164,29.9012 0.9921,6.3837 0.9851,6.3796 -1.5018,-0.9161 -2.6216,-7.6906 -17.8706,-34.4092 -22.7416,-39.8468 -3.7829,-4.2231 -6.0152,-2.4945 -6.0152,4.6611 0,10.0223 3.2268,17.7895 10.8025,26.0085 6.57,7.1274 13.0405,21.9018 13.0405,29.7749 0,1.3801 1.2604,4.9439 2.7995,7.9199 1.5389,2.9761 2.0586,5.4107 1.1579,5.4107 -0.9007,0 -4.2406,-6.8976 -7.423,-15.3295 -5.8626,-15.5333 -16.2709,-30.3075 -19.8106,-28.1199 -1.3458,0.8317 -1.2567,4.1421 0.2902,10.8617 1.6713,7.2597 1.7502,14.7968 0.3197,30.2961 -1.0474,11.348 -2.6553,20.6327 -3.5732,20.6327 -0.9177,0 -1.1381,-2.1069 -0.4916,-4.6827 1.5236,-6.0704 1.6172,-38.7754 0.1183,-41.2009 -2.2645,-3.6641 -4.329,0.2601 -5.5799,10.6066 -0.6993,5.7841 -3.2243,13.8199 -5.6122,17.8546 -5.18,8.753 -5.7863,7.2348 -0.9456,-2.3668 6.4306,-12.7551 9.8917,-65.9741 4.4086,-67.7788 -3.3018,-1.0866 -12.8902,15.1178 -14.1903,23.9801 -1.7194,11.7202 -4.9965,23.9512 -6.9635,25.9897 -1.1486,1.1901 -1.3795,0.5367 -0.6582,-1.8645 0.6113,-2.0351 2.8069,-11.527 4.8814,-21.0921 2.4516,-11.3036 5.5049,-19.8685 8.7232,-24.4717 13.0532,-18.6703 14.983,-22.1369 13.2742,-23.8457 -1.9074,-1.9074 -11.6959,4.1588 -22.8382,14.1527 -5.3781,4.8237 -6.5891,7.3338 -7.388,15.2945 -0.5258,5.238 -2.6193,13.9018 -4.6533,19.2544 -2.0338,5.3528 -4.1493,13.8583 -4.6987,18.9025 -2.2897,21.0239 -2.98,24.762 -4.5751,24.762 -0.9832,0 -0.9361,-1.9451 0.1128,-4.7043 0.9836,-2.5873 1.7893,-8.9942 1.7893,-14.2359 0,-5.2417 1.9811,-17.3616 4.4031,-26.9327 4.3058,-17.0149 4.4647,-20.1516 1.0209,-20.1516 -2.3088,0 -10.1734,15.9369 -11.767,23.843 -2.5658,12.7282 -7.3162,26.6773 -10.542,30.9652 -3.9285,5.2219 -4.4644,2.7057 -0.5991,-2.813 3.7247,-5.3178 7.0606,-20.9707 4.9244,-23.1069 -1.047,-1.047 -4.3202,2.2457 -8.5056,8.5513 -6.2222,9.3742 -10.1122,13.7438 -10.1122,11.3614 0,-0.5133 2.331,-4.4823 5.1824,-8.8199 2.8514,-4.3376 8.0106,-13.6258 11.4635,-20.6407 4.3765,-8.8912 11.1712,-17.8654 22.4299,-29.6299 8.8829,-9.2819 15.3156,-17.3933 14.2951,-18.024 -1.0205,-0.6307 -6.6393,0.862 -12.4844,3.3151 -5.8449,2.4531 -14.0543,5.377 -18.2442,6.4988 -6.1665,1.6511 -8.7295,3.7728 -13.4543,11.1357 -6.8596,10.6899 -26.4181,29.3721 -30.75,29.3721 -3.3256,0 -2.8391,-0.5313 7.3717,-8.0087 8.1391,-5.9602 22.1804,-24.2911 20.5844,-26.8734 -2.8246,-4.5703 -10.9687,-1.6127 -19.139,6.95 -7.5804,7.9447 -17.7856,14.52 -19.6467,12.659 -0.4063,-0.4064 1.8127,-1.7972 4.9325,-3.0896 6.6456,-2.7527 15.9739,-14.0647 13.5267,-16.4039 -0.943,-0.9015 -7.1933,0.6747 -14.4965,3.6564 -12.8779,5.2576 -23.6297,7.5892 -12.3017,2.6676 13.89,-6.0346 38.8423,-13.6915 50.7864,-15.5845 16.3386,-2.5897 49.0793,-17.0901 57.0031,-25.2455 3.9665,-4.0825 6.1727,-8.4761 6.9097,-13.7551 1.8156,-13.0027 5.4248,-222.2788 4.0541,-235.0778 l -1.2815,-11.9712 -15.907,-9.8408 c -8.7488,-5.4118 -19.6199,-11.7009 -24.1574,-13.9755 -12.8377,-6.435 -30.359,-18.8297 -34.1541,-24.16 -1.8917,-2.657 -8.2678,-10.4966 -14.1688,-17.4223 -5.901,-6.9256 -12.808,-15.8939 -15.3482,-19.9287 -2.5402,-4.0349 -7.203,-10.0913 -10.362,-13.4596 -5.7063,-6.0847 -20.8262,-14.9668 -25.4765,-14.9668 -4.1213,0 -17.8654,-15.3753 -17.8654,-19.9851 0,-3.7085 1.085,-3.0496 8.4329,5.1233 4.6377,5.158 10.6202,9.9013 13.2957,10.5393 2.6757,0.6379 5.9314,2.0017 7.2349,3.0304 5.5564,4.3841 5.155,-2.2395 -0.9242,-15.214 -3.5447,-7.5653 -8.3415,-17.8834 -10.6574,-22.9269 -4.8746,-10.6153 -7.8285,-28.4263 -4.715,-28.4263 1.1034,0 2.0069,2.4982 2.0069,5.5531 0,5.5964 10.4336,29.7158 16.7614,38.7452 1.8763,2.6776 3.4118,6.2092 3.4118,7.8475 0,7.5503 19.772,37.3639 36.5719,55.144 2.8594,3.0261 6.4605,8.0066 8.0005,11.0685 1.54,3.062 7.8246,9.5174 13.9674,14.3435 12.1889,9.576 15.1116,8.8415 11.4178,-2.8693 -1.6769,-5.3165 -5.651,-37.7711 -6.6223,-54.0855 -0.3902,-6.553 -6.8988,-16.8571 -16.568,-26.2286 -3.5302,-3.4217 -6.4324,-7.5052 -6.4477,-9.0725 -0.015,-1.5673 -1.2168,-6.1499 -2.6704,-10.1846 -2.9906,-8.3015 -3.6025,-13.5667 -1.2707,-10.9128 0.842,0.9582 2.9054,5.486 4.586,10.061 1.6806,4.5753 5.0815,10.7651 7.5599,13.7551 2.4784,2.9903 6.6795,8.1208 9.3357,11.4018 5.8501,7.2259 8.8678,6.029 7.4901,-2.9714 -3.5569,-23.2372 -4.6503,-33.9513 -4.7337,-46.4423 -0.1542,-23.0914 2.9794,-17.9159 4.4005,7.2698 0.7244,12.837 2.0685,27.0547 2.9901,31.5939 0.9218,4.5391 2.0022,18.2971 2.3992,30.5727 0.7871,24.3377 1.6598,27.805 6.0742,24.1413 3.1103,-2.5813 11.9487,-19.0064 21.299,-39.5808 3.8166,-8.3982 3.4482,-2.0715 -0.4003,6.8749 -4.1774,9.7104 -3.739,14.7222 0.9483,10.8322 1.4476,-1.2016 3.1033,-1.7138 3.6806,-1.1365 0.5773,0.5773 -2.948,5.0297 -7.8367,9.8918 -8.666,8.619 -10.6533,11.4254 -17.1213,24.1924 -3.0231,5.9671 -2.9751,6.7043 1.3835,21.092 5.3371,17.6174 7.3159,20.2079 18.5345,24.2595 4.6679,1.6858 12.0375,4.6985 16.3772,6.6949 4.3396,1.9964 8.1826,3.3282 8.5378,2.9605 0.3551,-0.3677 1.0448,-34.2542 1.5341,-75.3038 0.9982,-83.7688 2.1888,-76.2928 -13.3764,-83.9947 -16.1967,-8.0144 -41.4139,-24.5729 -50.4345,-33.117 -10.7651,-10.1965 -17.4224,-13.8289 -30.4572,-16.6243 -13.1981,-2.8305 -20.1335,-5.991 -25.3341,-11.5415 -6.9122,-7.377 -2.9227,-7.8628 5.0936,-0.6205 7.9221,7.1571 20.9688,10.7946 24.7377,6.899 1.6182,-1.6726 -2.9605,-7.0425 -19.4425,-22.8007 -18.6713,-17.8515 -22.7775,-23.1053 -18.024,-23.0666 0.5884,0 11.3847,9.9445 23.9936,22.0887 12.6087,12.1441 27.0525,26.0339 32.096,30.8657 14.1828,13.5877 35.4353,29.9862 37.3376,28.8106 1.7549,-1.0846 0.66,-7.9586 -3.0949,-19.4184 -1.1568,-3.5305 -5.4154,-16.5128 -9.462,-28.8481 -4.0467,-12.3353 -7.3686,-24.7151 -7.3826,-27.5102 -0.014,-2.7953 -1.9059,-14.365 -4.2045,-25.713 -2.6808,-13.2345 -3.4773,-20.6326 -2.2217,-20.6326 1.0766,0 3.475,7.2206 5.3301,16.0467 6.7838,32.2767 12.5943,54.7319 15.9876,61.7851 1.9109,3.9722 3.4738,8.6192 3.4738,10.3271 0,6.1486 9.541,28.4097 14.3406,33.4583 4.9014,5.1554 20.2625,13.1204 21.984,11.399 0.5013,-0.5014 1.12,-39.0946 1.3755,-85.7627 0.2555,-46.6678 0.9605,-93.9291 1.5663,-105.0249 2.9389,-53.8258 3.306,-57.7732 5.3838,-57.7714 z"/></g></svg>