<svg version="1.1" id="svg1" width="2000" height="2579.9468" viewBox="1186.819436954066 870.6640627846767 14.570648356750553 148.6545549671829" sodipodi:docname="styletrees.svg" inkscape:version="1.4.2 (f4327f4, 2025-05-13)" xmlns:inkscape="http://www.inkscape.org/namespaces/inkscape" xmlns:sodipodi="http://sodipodi.sourceforge.net/DTD/sodipodi-0.dtd" xmlns="http://www.w3.org/2000/svg" xmlns:svg="http://www.w3.org/2000/svg"><defs id="defs1"/><g><path id="path1477" d="m 1201.232,1011.9601 c -0.232,-2.7334 -0.188,-5.4667 -0.2827,-8.2134 -0.5,-14.39996 -1.4653,-28.77329 -2.0373,-43.17329 -0.572,-14.34667 -0.2854,-28.72 -0.816,-43.08 -0.2667,-7.18667 -0.7214,-14.36 -1.0587,-21.54667 -0.336,-7.18666 -1.284,-14.45333 -1.2413,-21.64 0.01,-1 -0.5747,-1.62666 -1.304,-1.88 -0.9214,-1.18666 -3.16,-0.98666 -3.6427,0.58667 -0.8187,0.37333 -1.3667,1.2 -0.9613,2.30667 0.116,0.30666 0.1853,0.65333 0.2453,1 -0.1093,1.21333 -0.104,2.44 -0.057,3.68 -0.292,2.12 -0.8467,4.29333 -0.9814,6.04 -0.432,5.57333 -0.636,11.16 -0.7133,16.74666 -0.1627,11.61333 0.1227,23.22667 0.044,34.84 -0.075,11.28 -0.5587,22.56 -0.1707,33.85333 0.364,10.54667 -0.708,21.09334 0.1974,31.61333 -0.2334,4.3067 -0.3934,8.6133 -0.4467,12.9333 -0.312,0.7067 -0.232,1.6134 0.2413,2.24 0.5294,0.9334 1.7667,1.1867 2.708,0.7867 2.94,0.1067 8.0187,1.1733 9.816,-1.8933 0.8867,-1.52 0.6027,-3.5467 0.4614,-5.2" style="fill:#534741;fill-opacity:1;fill-rule:nonzero;stroke:none;stroke-width:0.133333"/><path id="path1477" d="m 1201.232,1011.9601 c -0.232,-2.7334 -0.188,-5.4667 -0.2827,-8.2134 -0.5,-14.39996 -1.4653,-28.77329 -2.0373,-43.17329 -0.572,-14.34667 -0.2854,-28.72 -0.816,-43.08 -0.2667,-7.18667 -0.7214,-14.36 -1.0587,-21.54667 -0.336,-7.18666 -1.284,-14.45333 -1.2413,-21.64 0.01,-1 -0.5747,-1.62666 -1.304,-1.88 -0.9214,-1.18666 -3.16,-0.98666 -3.6427,0.58667 -0.8187,0.37333 -1.3667,1.2 -0.9613,2.30667 0.116,0.30666 0.1853,0.65333 0.2453,1 -0.1093,1.21333 -0.104,2.44 -0.057,3.68 -0.292,2.12 -0.8467,4.29333 -0.9814,6.04 -0.432,5.57333 -0.636,11.16 -0.7133,16.74666 -0.1627,11.61333 0.1227,23.22667 0.044,34.84 -0.075,11.28 -0.5587,22.56 -0.1707,33.85333 0.364,10.54667 -0.708,21.09334 0.1974,31.61333 -0.2334,4.3067 -0.3934,8.6133 -0.4467,12.9333 -0.312,0.7067 -0.232,1.6134 0.2413,2.24 0.5294,0.9334 1.7667,1.1867 2.708,0.7867 2.94,0.1067 8.0187,1.1733 9.816,-1.8933 0.8867,-1.52 0.6027,-3.5467 0.4614,-5.2" style="fill:#534741;fill-opacity:1;fill-rule:nonzero;stroke:none;stroke-width:0.133333"/></g></svg>