<svg version="1.1" id="svg1" width="2000" height="2579.9468" viewBox="1100.0978147971446 957.9067399999999 6.752789986043354 10.803067919626983" sodipodi:docname="styletrees.svg" inkscape:version="1.4.2 (f4327f4, 2025-05-13)" xmlns:inkscape="http://www.inkscape.org/namespaces/inkscape" xmlns:sodipodi="http://sodipodi.sourceforge.net/DTD/sodipodi-0.dtd" xmlns="http://www.w3.org/2000/svg" xmlns:svg="http://www.w3.org/2000/svg"><defs id="defs1"/><g><path id="path1292" d="m 1101.7706,960.24007 c 0.86,0 0.86,-1.33333 0,-1.33333 -0.86,0 -0.86,1.33333 0,1.33333 v 0" style="fill:#577c69;fill-opacity:1;fill-rule:nonzero;stroke:none;stroke-width:0.133333"/><path id="path1293" d="m 1101.1946,959.92007 c 1.612,2.74667 3.1934,5.50667 4.444,8.44 0.336,0.78667 1.4854,0.10667 1.152,-0.66666 -1.2506,-2.94667 -2.8333,-5.70667 -4.4453,-8.45334 -0.4333,-0.73333 -1.5867,-0.0667 -1.1507,0.68 v 0" style="fill:#577c69;fill-opacity:1;fill-rule:nonzero;stroke:none;stroke-width:0.133333"/><path id="path1292" d="m 1101.7706,960.24007 c 0.86,0 0.86,-1.33333 0,-1.33333 -0.86,0 -0.86,1.33333 0,1.33333 v 0" style="fill:#577c69;fill-opacity:1;fill-rule:nonzero;stroke:none;stroke-width:0.133333"/><path id="path1293" d="m 1101.1946,959.92007 c 1.612,2.74667 3.1934,5.50667 4.444,8.44 0.336,0.78667 1.4854,0.10667 1.152,-0.66666 -1.2506,-2.94667 -2.8333,-5.70667 -4.4453,-8.45334 -0.4333,-0.73333 -1.5867,-0.0667 -1.1507,0.68 v 0" style="fill:#577c69;fill-opacity:1;fill-rule:nonzero;stroke:none;stroke-width:0.133333"/></g></svg>