<svg version="1.1" id="svg1" width="2000" height="2579.9468" viewBox="1338.1260378726122 983.9684168958238 13.263839957281334 15.36511518939642" sodipodi:docname="styletrees.svg" inkscape:version="1.4.2 (f4327f4, 2025-05-13)" xmlns:inkscape="http://www.inkscape.org/namespaces/inkscape" xmlns:sodipodi="http://sodipodi.sourceforge.net/DTD/sodipodi-0.dtd" xmlns="http://www.w3.org/2000/svg" xmlns:svg="http://www.w3.org/2000/svg"><defs id="defs1"/><g><path id="path378" d="m 1339.8666,990.90674 c -0.52,4.61333 2.9334,8.96 7.84,7.22667 4.8134,-1.70667 4.4267,-8.4 1.6,-11.70667 -2.8,-3.25333 -7.2533,-0.44 -9.0266,2.37333 -2.84,4.46667 -0.08,8.77334 4.3866,10.48 0.8934,0.34667 1.28,-1.09333 0.3867,-1.42666 -3.44,-1.32 -5.5467,-4.24 -3.7733,-7.81334 1.0666,-2.16 4.1866,-4.84 6.5866,-2.93333 2.7734,2.18667 3.0134,8.10667 -0.56,9.6 -1.4133,0.58667 -3,0.34667 -4.2666,-0.49333 -1.72,-1.14667 -1.9067,-3.45334 -1.6934,-5.30667 0.1067,-0.94667 -1.3733,-0.93333 -1.48,0 v 0" style="fill:#577c69;fill-opacity:1;fill-rule:nonzero;stroke:none;stroke-width:0.133333"/><path id="path378" d="m 1339.8666,990.90674 c -0.52,4.61333 2.9334,8.96 7.84,7.22667 4.8134,-1.70667 4.4267,-8.4 1.6,-11.70667 -2.8,-3.25333 -7.2533,-0.44 -9.0266,2.37333 -2.84,4.46667 -0.08,8.77334 4.3866,10.48 0.8934,0.34667 1.28,-1.09333 0.3867,-1.42666 -3.44,-1.32 -5.5467,-4.24 -3.7733,-7.81334 1.0666,-2.16 4.1866,-4.84 6.5866,-2.93333 2.7734,2.18667 3.0134,8.10667 -0.56,9.6 -1.4133,0.58667 -3,0.34667 -4.2666,-0.49333 -1.72,-1.14667 -1.9067,-3.45334 -1.6934,-5.30667 0.1067,-0.94667 -1.3733,-0.93333 -1.48,0 v 0" style="fill:#577c69;fill-opacity:1;fill-rule:nonzero;stroke:none;stroke-width:0.133333"/></g></svg>