<svg version="1.1" id="svg1" width="2000" height="2579.9468" viewBox="327.5261252880525 1416.3408784459484 283.439465530489 389.6280165342873" sodipodi:docname="styletrees.svg" inkscape:version="1.4.2 (f4327f4, 2025-05-13)" xmlns:inkscape="http://www.inkscape.org/namespaces/inkscape" xmlns:sodipodi="http://sodipodi.sourceforge.net/DTD/sodipodi-0.dtd" xmlns="http://www.w3.org/2000/svg" xmlns:svg="http://www.w3.org/2000/svg"><defs id="defs1"/><g><path id="path1306" d="m 608.45732,1578.8934 c -1.04267,14.6267 -3.392,29.3733 -8.72133,43.08 -4.61734,11.88 -12.73467,24.0933 -24.944,29.1467 -11.656,4.8266 -25.29467,6.3466 -37.64,8.3866 -10.29067,1.7067 -20.72267,3.3334 -31.17334,4.2534 6.30267,-1.48 12.52534,-3.3067 18.656,-5.3867 0.864,-0.013 1.73067,-0.027 2.6,-0.053 0.052,0.4933 0.45734,0.96 1.07867,0.7866 0.45067,-0.1333 0.83867,-0.4533 1.17867,-0.9066 20.91066,-1.1467 43.01333,-7.9867 57.648,-23.2667 9.60133,-10.0133 12.41333,-23.1333 14.47199,-36.44 2.02934,-13.12 5.884,-26.12 7.56667,-39.32 -0.0333,6.5733 -0.25333,13.16 -0.72133,19.72 z m -201.16266,83.2133 c -19.444,-5.0666 -36.93867,-13.7333 -50.32667,-29.04 -24.10133,-27.5466 -29.77466,-68.1066 -24.95733,-103.6133 -0.42933,5.84 -0.40667,11.72 0.18133,17.5867 1.69867,16.96 5.86,34.2266 12.00133,50.12 5.51734,14.28 12.91334,27.2133 25.332,36.44 6.176,4.6 13.09334,7.9333 19.384,12.3066 2.76667,1.9334 4.67467,4.08 7.86134,5.2934 4.00933,1.5333 8.744,1.16 12.93466,1.1466 0.0373,0 0.0627,-0.013 0.0987,-0.027 8.69867,5.8666 18.79333,9.8933 29.42667,12.3866 0.04,0.067 0.0747,0.1334 0.11466,0.1867 0.36,0.5333 1.00267,0.48 1.38134,0.1467 2.024,0.4533 4.06133,0.8533 6.11333,1.2 0.29467,0.3733 0.79333,0.3866 1.16,0.1733 2.76133,0.44 5.54,0.7867 8.324,1.04 0.28267,0.32 0.70133,0.3067 1.02533,0.093 1.99334,0.1734 3.98534,0.3067 5.97467,0.3867 -18.548,2.3067 -38.34133,-1.2267 -56.02933,-5.8267 z m -30.22,-210.1466 c 2.86266,3.7733 4.84133,8.24 7.55333,12.1466 7.124,10.2267 16.092,19.0667 22.488,29.8267 -0.916,1.48 -1.816,2.96 -2.70133,4.4533 -6.53067,-7.1866 -10.49867,-15.92 -15.10934,-24.4 -2.432,-4.4666 -4.92666,-8.96 -7.73333,-13.2 -2.52267,-3.8266 -5.44667,-7.4 -7.20667,-11.64 1.04534,0.8 1.96667,1.84 2.70934,2.8134 z m 130.33733,152.2133 c -0.02,-23.9067 -0.604,-47.84 -1.06667,-71.7333 -0.42933,-22.2 -2.608,-43.76 -8.59867,-65.2 -5.11733,-18.3067 -14.83866,-33.9867 -29.124,-46.48 0.0853,-0.44 0.192,-0.88 0.304,-1.32 0.0973,-0.067 0.20267,-0.1067 0.30534,-0.16 0.12,0.013 0.24,0.013 0.36133,0.04 3.54267,0.88 5.87467,5.1733 8.04533,7.7733 3.54934,4.2533 6.596,8.9333 9.60267,13.5733 5.596,8.6267 10.35733,17.3467 14.148,26.9334 7.972,20.16 12.92933,40.64 14.37467,62.3066 1.47866,22.1334 1.76133,44.5334 1.856,66.7067 0.0467,10.9067 -0.21067,21.8 -0.86667,32.68 -0.632,10.4667 -1.57867,21.0667 -4.79467,31.0933 -3.06,0.8267 -6.13733,1.5734 -9.232,2.2534 6.04,-18.7334 4.70267,-39.0534 4.68534,-58.4667 z m -16.16667,52.0267 c 0.544,-5.64 1.73867,-11.2134 2.456,-16.8267 1.38533,-10.8667 1.408,-21.7733 0.80133,-32.6933 -0.608,-10.9334 -1.976,-21.8 -2.92,-32.7067 -1.00533,-11.6133 -1.34133,-23.28 -1.67866,-34.9333 -0.31467,-10.8267 -0.51067,-21.6534 -1.752,-32.44 -1.14534,-9.9467 -3.03734,-19.7867 -4.94134,-29.6134 -2.02133,-10.4266 -4.492,-20.72 -7.424,-30.92 -1.18933,-4.1466 -2.39333,-8.2666 -4.07066,-12.24 -1.288,-3.0533 -2.96134,-6.4933 -3.428,-9.9466 4.908,7.0266 9.748,14.1866 13.44266,21.92 4.32934,9.08 6.79067,18.9466 8.79334,28.76 4.60266,22.52 4.09866,45.1466 4.60266,68 0.48134,21.8933 2.548,43.7333 3.67334,65.5866 0.588,11.4267 -0.608,22.2934 -2.20667,33.6 -0.932,6.5867 1.292,17.5867 -3.68,22.6667 -0.0293,0.027 -0.0387,0.067 -0.0627,0.093 -0.944,0.16 -1.888,0.2934 -2.83333,0.4267 0.948,-2.84 0.93467,-5.7067 1.228,-8.7333 z m -5.68533,-14.8934 c -0.036,-10.96 -0.24667,-21.9066 -0.67067,-32.8533 -0.81867,-21.12 -3.10133,-42.16 -3.64533,-63.3067 -0.52534,-20.48 -0.68,-40.6933 -3.652,-61.0133 -1.58534,-10.84 -3.832,-21.5733 -5.54534,-32.4 -0.78933,-4.9867 -1.396,-10.0133 -2.09066,-15.0133 -0.172,-1.24 -0.42267,-2.5867 -0.67734,-4 0.85334,1.9733 1.72934,3.92 2.376,5.8133 3.412,10 5.92,20.4133 8.18,30.7333 4.68534,21.3867 7.508,42.6534 8.14667,64.5334 0.324,11.0666 0.61867,22.1466 1.31333,33.2 0.68934,10.9466 2.06667,21.84 2.95734,32.7733 0.88666,10.9067 1.22133,21.84 0.41066,32.7467 -0.416,5.6133 -1.38133,11.16 -2.21733,16.72 -0.752,5 -0.392,11.3333 -2.39333,15.9466 -0.004,0 -10e-4,0.013 -0.005,0.013 -1.236,0.16 -2.47333,0.3066 -3.71333,0.44 0.62,-3.1867 1.23467,-6.0134 1.22933,-9.4267 -0.007,-4.9733 0.0133,-9.9467 -0.003,-14.9067 z m -7.132,11.0267 c -2.20534,-9.6667 -2.19334,-19.8 -2.668,-29.6667 -1.11334,-23.1466 -3.66267,-46.16 -4.032,-69.3333 -0.372,-23.2933 1.03466,-46.6533 -1.20534,-69.88 -1.112,-11.5333 -1.58933,-23.0933 -1.73333,-34.6667 -0.0347,-2.76 -0.0413,-5.5066 -0.0907,-8.2533 0.21334,1.5333 0.42934,3.0533 0.62934,4.5867 1.36133,10.3866 3.37866,20.68 5.176,30.9866 3.692,21.2 4.752,42.44 4.88533,63.92 0.132,21.1334 2.47867,42.16 3.50267,63.2534 0.53066,10.9333 0.764,21.88 0.864,32.8266 0.048,5.08 0.0453,10.1734 0.0387,15.2534 -0.004,2.6933 -0.004,5.3866 0.004,8.08 0.007,2.1866 -0.788,4.2666 -1.27066,6.3866 -1.012,0.093 -2.02667,0.1734 -3.04134,0.2534 1.93867,-3.88 -0.21066,-10.04 -1.05866,-13.7467 z m -5.64934,-9.3467 c -2.03733,-10.7733 -3.324,-21.6666 -4.39866,-32.5733 -2.10667,-21.4 -3.952,-42.8667 -5.228,-64.3333 -1.27733,-21.48 -1.82667,-43 -1.784,-64.52 0.0187,-10.08 0.46,-20.1467 1.52533,-30.1867 0.58267,-5.4933 1.46534,-10.9333 2.54934,-16.3467 0.33866,-1.6933 0.59333,-3.44 0.83866,-5.2133 0.14267,4.6133 0.68533,9.28 0.69733,13.7467 0.0333,11.5733 0.37334,23.1466 1.296,34.68 1.82134,22.7733 1.516,45.3333 1.61334,68.1466 0.0973,22.6534 2.53733,45.04 3.68533,67.6267 0.556,10.9467 0.97867,21.8933 1.968,32.8133 0.24533,2.7067 1.052,5.3867 1.64267,8.0134 0.63333,2.84 2.49866,8.48 0.38,11.0533 -0.0867,0.093 -0.14134,0.2133 -0.17467,0.32 -0.512,0.027 -1.024,0.053 -1.536,0.08 0.056,-7.8667 -1.61867,-15.6133 -3.07467,-23.3067 z m -1.428,23.4667 c -0.236,-4 -1.45466,-7.88 -2.176,-11.8 -0.93733,-5.1067 -1.61066,-10.24 -2.47733,-15.3467 -1.72133,-10.16 -3.864,-20.24 -5.56666,-30.4 -3.50134,-20.8933 -6.00534,-41.9733 -6.69867,-63.1466 -0.68533,-20.92 -0.0427,-41.92 2.98267,-62.64 1.30133,-8.9067 2.22,-17.9334 3.28133,-26.9467 -0.63733,7.32 -0.97067,14.6533 -1.07333,22.0133 -0.3,21.4667 0.39866,42.9734 1.56,64.4134 1.164,21.48 3.13466,42.92 5.09733,64.3466 0.96266,10.4934 2.16933,20.9467 3.876,31.3467 1.50266,9.1467 3.90666,18.2533 3.91733,27.5733 -0.16667,0.12 -0.28667,0.3067 -0.31067,0.5334 -0.804,0.027 -1.608,0.04 -2.412,0.053 z m -23.15599,-1.52 c -0.0493,-0.1467 -0.0973,-0.28 -0.14534,-0.4267 -0.0773,-0.2266 -0.22,-0.36 -0.38266,-0.4666 -1.776,-3.4 -3.03334,-7.1334 -4.68134,-10.6 -2.288,-4.8134 -4.648,-9.5067 -6.376,-14.5734 -3.12933,-9.16 -5.504,-18.56 -7.37866,-28.0533 -4.008,-20.3067 -4.72534,-40.8533 -3.69734,-61.4667 1.07334,-21.5333 3.736,-42.8133 9.40267,-63.6533 2.60533,-9.5733 5.34667,-19.16 8.78533,-28.48 1.60267,-4.3467 3.62,-8.4933 5.49334,-12.72 1.348,-3.04 2.756,-6.32 4.944,-8.8933 -1.04,2.0133 -2.04667,4.0533 -2.99067,6.1066 -4.496,9.8134 -7.108,20.3867 -10.01067,30.7334 -6.00266,21.4133 -5.83866,44.28 -6.94133,66.3466 -1.124,22.5067 -0.824,45.0667 2.24667,67.4267 1.48266,10.8 5.01866,20.56 8.79333,30.7067 3.604,9.7066 5.932,19.56 10.28533,28.96 -2.43466,-0.24 -4.88666,-0.5467 -7.34666,-0.9467 z m 7.51066,-232.2533 c -0.0293,-0.027 -0.06,-0.04 -0.092,-0.067 0.19734,-0.28 0.39734,-0.5733 0.59467,-0.8533 -0.16933,0.3066 -0.33467,0.6133 -0.50267,0.92 z m -3.13066,109.6533 c 0.36266,20.76 2.79066,41.4533 6.01733,61.9333 1.60267,10.1867 3.472,20.32 5.44133,30.44 0.99067,5.08 1.788,10.1867 2.584,15.3067 0.84133,5.4 2.684,11.0133 2.96133,16.48 -1.25333,0 -2.50666,0 -3.76133,-0.027 -4.35733,-6.2666 -5.15333,-15.1733 -8.508,-22.0133 -2.42666,-4.9467 -4.644,-9.64 -5.92,-15.04 -1.36133,-5.76 -2.14666,-11.6533 -2.86,-17.52 -2.69066,-22.1467 -5.94133,-44.1467 -5.39333,-66.5067 0.568,-23.1466 2.464,-46.0133 7.55333,-68.64 2.48267,-11.0266 5.532,-21.9333 8.85867,-32.7466 0.58133,-1.8934 1.20133,-3.7734 1.81867,-5.6534 -2.332,14.12 -3.50267,28.52 -5.41867,42.6 -2.78533,20.4534 -3.73467,40.7334 -3.37333,61.3867 z m 42.83466,121.7467 c 2.89467,-4.4934 2.232,-11.0267 2.32533,-16.0667 0.10134,-5.36 1.30667,-10.72 2.04267,-16.0133 0.792,-5.6934 1.1,-11.36 1.032,-17.0934 -0.27867,-23.56 -3.15733,-47.0533 -3.86667,-70.6 -0.69733,-23.0933 -0.0133,-45.8933 -4.41066,-68.7066 -1.828,-9.4934 -4.16267,-19.0267 -8.03467,-27.9067 -3.24133,-7.44 -7.56,-14.3067 -12.12267,-21 5.22534,5.2133 10.05734,11.0933 13.80667,17.1067 5.08267,8.1466 8.1,17.4133 10.60533,26.6266 5.83467,21.4534 7.46134,43.16 7.84934,65.3067 0.39866,22.8133 0.948,45.6267 1.00533,68.44 0.0493,19.56 1.41867,40.08 -4.90667,58.9067 -1.76933,0.36 -3.54533,0.6933 -5.32533,1 z m -74.43866,-9.9334 c -1.8,-4.04 -3.25867,-8.2266 -4.93867,-12.3333 -3.252,-7.9333 -6.64667,-15.72 -9.36267,-23.8667 -5.828,-17.4666 -7.99333,-35.08 -7.41466,-53.44 0.56266,-17.8666 2.936,-35.6666 7.68133,-52.9066 2.436,-8.8534 5.54933,-17.3334 10.116,-25.3067 4.04,-7.0533 7.94667,-15.2533 13.45067,-21.3467 -3.00667,5.7467 -5.61734,11.72 -8.09334,17.6667 -4.11333,9.88 -6.42,20.2533 -8.272,30.76 -1.81866,10.32 -3.532,20.68 -4.60533,31.1067 -1.14667,11.1466 -1.468,22.36 -1.31867,33.56 0.144,10.8 2.22134,21.0266 4.30934,31.5866 1.98666,10.0267 3.95333,18.8534 9.50533,27.5867 2.70133,4.2533 5.77333,8.24 8.39467,12.5467 2.60266,4.28 4.904,8.7066 7.54666,12.9466 -5.50133,-1.4533 -10.912,-3.3866 -16.072,-5.7866 0.0107,-0.9467 -0.548,-1.92 -0.92666,-2.7734 z m -16.81734,-8.6 c -0.009,-0.013 -0.0107,-0.013 -0.02,-0.027 -2.004,-1.84 -2.63333,-4.6134 -3.61066,-7.0534 -1.29867,-3.24 -2.70267,-6.3733 -3.72,-9.72 -2.12534,-7 -2.93334,-14.64 -4.128,-21.8266 -2.42,-14.5867 -3.248,-28.72 -1.97734,-43.4534 1.276,-14.8133 5.90534,-28.5866 10.92,-42.48 1.08667,-3 2.25067,-6 3.364,-9.0133 -4.14,14.9867 -6.268,30.5067 -7.2,46 -1.05066,17.4533 -0.0707,34.3333 4.42534,51.2667 2.32266,8.76 5.46933,17.28 8.92933,25.64 1.66533,4.0266 3.46267,7.9866 5.032,12.0533 0.79867,2.0667 1.59333,4.1333 2.43067,6.2 0.23466,0.5733 1.14533,1.96 1.48,2.9333 -5.76,-2.8533 -11.14,-6.36 -15.92534,-10.52 z m -64.66133,-145.0666 c -0.34,2.6 -0.6,5.2133 -0.91867,7.7733 -0.896,7.2133 -1.31866,14.48 -1.388,21.7333 -0.12933,13.56 1.65467,26.92 5.63334,39.88 3.704,12.0667 9.48133,23.4267 16.51733,33.88 3.408,5.0534 7.768,9.4134 12.304,13.4534 5.048,4.4933 10.03333,7.5866 16.06933,10.52 0.22,0.1066 0.428,0.1066 0.61867,0.067 4.544,9.4534 11.11467,16.96 19,22.7867 -3.40267,0 -6.73333,-0.1467 -10.08667,-1.08 -3.28533,-0.9067 -5.864,-4.0133 -8.62266,-5.9333 -5.88667,-4.1067 -12.35467,-7.2667 -18.2,-11.48 -12.944,-9.3334 -20.13334,-23.6267 -25.61067,-38.2667 -5.57333,-14.8933 -9.05067,-30.9867 -10.84533,-46.7733 -1.77867,-15.64 0.87466,-31.56 5.52933,-46.56 z m 11.58667,-27.5067 c -2.53734,7.6267 -4.14934,15.3733 -4.14667,23.6933 0.005,12.2134 2.96267,24.32 6.56,35.92 3.39733,10.9334 7.28533,21.9467 12.088,32.36 2.16533,4.6934 4.8,9.1334 7.87867,13.28 1.54933,2.0934 2.956,4.8267 4.92133,6.56 0.42533,0.3734 0.94933,0.24 1.264,-0.067 0,4.8266 0.25067,9.6533 0.80933,14.44 -1.332,-1.6534 -3.40133,-3.08 -4.696,-4.3067 -4.47466,-4.2 -7.98666,-9.52 -11.228,-14.6933 -7.136,-11.4134 -12.59066,-23.96 -16.41333,-36.84 -3.93867,-13.28 -5.64267,-27.1334 -5.42933,-40.9734 0.0827,-5.3466 0.65333,-11.36 2.216,-16.9733 1.908,-4.2 3.97466,-8.3333 6.176,-12.4 z m 15.78933,-23.6933 c -2.87867,4.1333 -3.464,9.48 -3.71467,14.4666 -0.44533,8.9067 0.25334,17.84 1.64134,26.64 1.49333,9.4534 3.83733,18.9334 7.09066,27.9334 1.43334,3.9733 3.216,7.8 5.19867,11.52 2.34,4.3866 5.55333,8.2 7.94667,12.5466 0.04,0.08 0.0933,0.12 0.14266,0.1734 -0.82666,3.1733 -1.57733,6.3733 -2.20933,9.5866 -2.36,-2.9866 -3.97067,-6.6666 -6.00933,-9.8666 -2.32267,-3.64 -4.33067,-7.4667 -6.12134,-11.4 -4.13466,-9.0667 -6.82133,-19.0134 -9.06133,-28.7067 -2.324,-10.04 -3.45467,-20.36 -2.86,-30.6667 0.30133,-5.1866 1.28,-10.3466 3.428,-15.1066 0.696,-1.5467 1.55467,-3.9334 2.80267,-5.6 0.536,-0.5467 1.112,-1.0534 1.72533,-1.52 z m 31.85867,59.2266 c -1.05867,-3.9333 -3.144,-7.4933 -5.02,-11.1066 -2.836,-5.4667 -4.67734,-11.56 -6.84534,-17.32 -2.54666,-6.7467 -5.15733,-13.48 -8.00933,-20.1067 2.992,4.3467 5.59333,8.92 8.16,13.52 5.104,9.1467 9.268,18.7467 16.456,26.4933 -1.63733,2.8 -3.22133,5.6534 -4.74133,8.52 z m -23.81467,-40.68 c 1.428,6.9734 3.136,13.8534 5.09333,20.6934 1.91067,6.68 3.70267,13.4533 6.12267,19.9733 1.55867,4.2 3.072,9.3867 6.42,12.5333 0.024,0.013 0.0493,0.027 0.0733,0.04 -0.0987,0.2134 -0.20266,0.44 -0.29866,0.6534 -1.1,2.4933 -2.09067,5.04 -3.03067,7.6133 -6.484,-11.64 -10.88933,-23.52 -14.22933,-36.4533 -3.56934,-13.8267 -3.97467,-27.88 -4.01867,-42.04 1.068,5.7066 2.7,11.2933 3.868,16.9866 z m 18.49867,51.5067 c -3.648,-3.8133 -5.57867,-11.0267 -7.14267,-15.8133 -2.00667,-6.1334 -3.704,-12.4134 -5.44933,-18.6267 -1.77067,-6.3067 -3.20267,-12.68 -4.51867,-19.0933 -1.004,-4.8934 -2.38,-9.6934 -3.36667,-14.5867 4.60934,9.5467 8.472,19.4133 12.22,29.3467 1.93067,5.1066 3.59734,10.44 5.89867,15.4 2.19733,4.7333 5.24133,9.16 6.28667,14.3333 0.04,0.2 0.13466,0.3333 0.24533,0.44 -1.45467,2.8267 -2.84667,5.6933 -4.17333,8.6 z m -20.46134,-27.6267 c 3.316,14.04 8.21734,26.9467 15.328,39.4667 0.072,0.1333 0.16134,0.2267 0.25867,0.2933 -0.99733,2.8667 -1.92933,5.76 -2.744,8.68 -3.99867,-6.9866 -8.60267,-13.2 -11.64667,-20.84 -3.14666,-7.8933 -5.112,-16.3066 -6.78266,-24.6266 -1.76134,-8.7467 -2.588,-17.6267 -2.52667,-26.56 0.0453,-6.3467 -0.0587,-14.0667 4.43333,-19.0534 0.0227,14.3734 0.35467,28.56 3.68,42.64 z m -14.2,4.4267 c 1.9,11.1333 5.15734,22.28 9.32934,32.7733 1.80133,4.52 4.068,8.84 6.56933,13.0134 2.4,4 4.516,8.6266 7.56933,12.16 0.10934,0.1333 0.22934,0.2 0.352,0.24 -0.93333,5.1066 -1.63733,10.24 -2.13866,15.3733 -2.34534,-3.4 -5.05067,-6.5067 -7.25734,-10.0133 -2.56666,-4.08 -4.56,-8.5067 -6.38666,-12.96 -3.60534,-8.7734 -6.44934,-17.8267 -8.59334,-27.0534 -2.27866,-9.8266 -3.53733,-19.8666 -3.96266,-29.9333 -0.39067,-9.2533 0.87066,-17.8933 4.02666,-26.3067 -0.152,0.68 -0.312,1.3467 -0.43466,2.04 -1.79734,10.08 -0.78534,20.6534 0.92666,30.6667 z m 20.904,87.4267 c -0.009,-0.013 -0.0107,-0.027 -0.0213,-0.027 -1.836,-1.6133 -3.2,-4.2267 -4.644,-6.2 -3.07333,-4.1867 -5.636,-8.6 -7.87867,-13.28 -4.87733,-10.1733 -8.49066,-21.2 -11.90933,-31.9467 -3.65867,-11.4933 -6.252,-23.3466 -6.496,-35.44 -0.216,-10.68 2.75067,-20.5733 6.69333,-30.3333 -1.83066,5.8933 -2.78266,11.8933 -2.996,18.44 -0.33466,10.2 1.16134,20.64 3.08267,30.6267 2.00133,10.4266 5.184,20.5333 9.04133,30.4133 1.63067,4.1733 3.476,8.2533 5.61734,12.1867 2.62266,4.8266 6.26133,8.7733 9.27866,13.32 0.20667,0.3066 0.50934,0.4133 0.80134,0.3866 -0.34267,3.92 -0.53467,7.88 -0.56934,11.8534 z m -38.81466,-80.12 c -0.33067,10.92 1.19733,22.0533 3.55733,32.6 3.00533,13.44 8.26533,26.2666 14.76533,38.36 2.92534,5.4533 6.21067,10.8 10.05334,15.6533 1.836,2.32 3.73333,4.5867 5.89066,6.6267 1.36934,1.28 4.35867,3.2 4.81734,5.1333 0.12266,0.5067 0.55466,0.6667 0.95733,0.6 1.15067,7.8267 3.156,15.5067 6.252,22.7867 0.0573,0.1333 0.12533,0.2666 0.184,0.4 -2.196,-1 -4.40933,-1.9067 -6.44667,-3.24 -2.82266,-1.8534 -5.42533,-4.2 -7.97733,-6.4134 -4.892,-4.24 -9.26,-8.9866 -12.87733,-14.36 -6.96267,-10.3333 -12.272,-21.72 -15.92667,-33.6133 -3.78533,-12.3333 -5.132,-25.12 -5.13067,-37.9867 0,-6.7066 0.476,-13.4 1.19467,-20.0666 0.228,-2.12 0.43733,-4.3067 0.68667,-6.48 z m 67.428,-8.3734 c -0.52134,1.84 -0.97334,3.6934 -1.448,5.5067 -1.78134,6.8 -4.51067,13.3467 -6.90934,19.9467 -5.30533,14.6133 -9.78,28.9866 -11.12,44.5333 -1.28933,14.96 0.016,29.3067 2.464,44.0533 1.26534,7.6267 2.252,15.5867 4.74667,22.92 1.01733,2.9867 2.436,5.8267 3.53867,8.7867 0.072,0.1867 0.14933,0.3867 0.22133,0.5733 -0.92667,-0.9733 -1.824,-1.9733 -2.68533,-3 -12.264,-14.76 -15.556,-35.36 -15.62667,-53.96 -0.0707,-18.64 3.39733,-37.52 9.71333,-55.04 3.56134,-9.8933 8.23467,-19.36 13.57467,-28.48 0.55333,-0.053 1.008,-0.6933 0.73467,-1.2666 0.912,-1.5334 1.848,-3.0534 2.796,-4.5734 z m 5.588,-8.5466 c 1.99866,-2.9334 4.04933,-5.84 6.13333,-8.7067 -0.65733,1.16 -1.31867,2.3067 -2.00133,3.44 -3.772,6.24 -6.81334,12.5067 -9.308,19.2133 1.212,-4.6933 2.29066,-9.5733 5.03866,-13.6133 0.076,-0.1067 0.116,-0.2267 0.13734,-0.3333 z m 17.61333,-23.3867 c -0.0347,-0.08 -0.084,-0.16 -0.14133,-0.2267 0.27866,-0.36 0.56266,-0.7066 0.84133,-1.0533 -0.23733,0.4267 -0.46667,0.8533 -0.7,1.28 z m 8.988,200.2267 c -5.056,-7.6534 -9.19867,-15.8134 -14.44,-23.3734 -5.67733,-8.1866 -9.06267,-16.32 -10.908,-26.1066 -1.928,-10.24 -4.41067,-20.3334 -4.992,-30.76 -0.592,-10.6 -0.14667,-21.3734 0.60667,-31.96 0.74133,-10.4134 2.38266,-20.7067 4.06533,-31 1.63067,-10 3.43333,-19.96 6.528,-29.6134 2.992,-9.3466 7.41467,-18.5066 12.06,-27.1333 2.016,-3.7467 4.36667,-7.2533 6.68133,-10.8133 0.288,-0.44 0.58,-0.92 0.88,-1.4 2.01467,-2.4 4.02667,-4.8 6.008,-7.2267 0.12267,-0.08 0.23734,-0.1733 0.364,-0.2533 -1.232,2.84 -2.30533,5.72 -3.39466,8.2533 -4.15734,9.6533 -6.92,19.9067 -9.78134,30 -5.94533,20.96 -8.852,42.2267 -10.18133,63.9467 -1.27733,20.8666 -0.63867,41.56 2.976,62.1733 1.86,10.6 4.57467,21.04 7.97333,31.2533 1.56134,4.6934 3.68134,9.1067 5.85067,13.5467 1.856,3.7867 3.24,7.8533 5.164,11.6133 -1.82133,-0.3333 -3.644,-0.72 -5.46,-1.1466 z m 17.10133,2.6933 c -4.616,-9.5733 -6.984,-19.6533 -10.59333,-29.6 -3.52533,-9.72 -6.93867,-18.92 -8.568,-29.1867 -3.39867,-21.4266 -3.488,-43.4133 -2.56933,-65.0133 0.45733,-10.7467 1.19333,-21.48 1.75066,-32.2267 0.56267,-10.88 1.448,-21.7066 3.988,-32.3333 2.36267,-9.8667 5.26934,-19.8267 8.78134,-29.3467 1.83866,-4.9866 4.19066,-9.7333 6.69333,-14.4133 1.964,-3.68 4.33067,-9.6933 7.87467,-12.5467 -0.0507,0.2 -0.0933,0.3867 -0.14267,0.5734 -1.62133,3.32 -2.396,7.5466 -3.31467,10.2933 -3.93466,11.8 -7.46133,23.7333 -10.50666,35.7867 -6.008,23.7866 -8.63867,47.7733 -9.44134,72.2666 -0.40666,12.4 -0.25466,24.6 1.09067,36.9467 1.31733,12.0933 2.888,24.1867 4.356,36.2667 1.30533,10.7466 3.24,20.8266 8.16667,30.52 3.512,6.92 4.49333,15.68 8.53066,22.36 -2.032,-0.08 -4.064,-0.1867 -6.096,-0.3467 z m 48.96667,-198.44 c 1.35866,2.24 2.68133,4.5067 3.99733,6.7733 -0.416,0.027 -0.79067,0.3067 -0.74533,0.84 0.57066,6.7734 3.244,13.2667 4.98266,19.7867 2.05867,7.7333 3.73467,15.5733 5.43867,23.4 3.444,15.8133 6.852,31.4933 8.084,47.6667 1.20667,15.8533 1.00133,31.8 0.98133,47.6933 -0.0107,8.2133 -0.26266,16.4267 -1.456,24.5733 -0.48666,3.3334 -1.34133,6.5867 -1.91333,9.8934 -0.51733,3 -1.03067,5.9866 -2.73467,8.5466 -0.112,0.08 -0.19733,0.1867 -0.256,0.3067 -2.95733,0.9733 -5.936,1.8933 -8.93466,2.7467 2.84133,-9.3467 3.772,-19.12 4.44533,-28.8267 0.83333,-12.0133 1.02133,-24.08 0.97067,-36.12 -0.10134,-23.7467 -0.28,-47.8667 -2.352,-71.5333 -1.892,-21.5867 -7.908,-42.2934 -16.38534,-62.2 -1.736,-4.08 -3.76,-8 -5.952,-11.84 4.032,6.04 8.05867,12.08 11.82934,18.2933 z m 45.36533,13.6533 c 8.58533,-9.7066 16.20667,-20.96 23.16267,-31.88 1.76266,-2.76 3.81733,-7.8266 7.028,-9.8 -4.28134,5.9334 -7.484,12.64 -11.82267,18.6 -5.34533,7.32 -9.944,15 -14.75333,22.68 -5.03334,8.04 -10.76134,15.56 -16.96667,22.7334 -1.58,1.8266 -5.07067,4.08 -6.79867,6.6133 -0.39333,-0.2133 -0.91333,-0.16 -1.15866,0.2667 -0.6,-1.4267 -1.18534,-2.8534 -1.808,-4.2667 6.17066,-9.5067 15.65466,-16.5067 23.11733,-24.9467 z m 48.52666,-24.8 c -1.21199,-2.52 -2.53866,-4.9733 -3.88533,-7.3333 -0.412,-0.72 -0.88,-1.5467 -1.39466,-2.4 0.84533,1.1733 1.56666,2.2933 2.108,3.1867 1.25866,2.08 2.29466,4.2666 3.17199,6.5466 z m -61.35733,82.6667 c 2.17334,7.44 2.84267,15.52 3.70134,23.1867 1.41333,12.6533 2.21066,25.3866 2.28266,38.1066 0.0693,12.4 -0.45333,25.0934 -3.49866,37.1734 -0.29734,1.1733 -0.65067,2.4266 -1.05867,3.7066 -0.356,0.2534 -0.484,0.72 -0.36533,1.0934 -1.75067,5.04 -4.51467,10.1733 -9.06934,12.3866 0.18134,-0.5466 0.34,-1.04 0.484,-1.3866 1.58267,-3.9334 2.79067,-7.6134 3.06934,-11.88 0.964,-14.6934 3.87466,-29.2134 4.84,-43.9334 0.97866,-14.92 0.66,-29.9466 -1.048,-44.8 -0.74134,-6.4533 -2.07067,-12.7066 -3.55467,-19.0266 -1.10133,-4.68 -2.69067,-10.4 -3.052,-15.76 2.72,6.9466 5.18267,13.9733 7.26933,21.1333 z m 23.24267,-62.56 c -4.32267,7.9467 -8.15867,16.1333 -12.44267,24.0933 -2.112,3.9334 -4.544,7.6267 -6.95066,11.3734 -2.244,3.48 -4.38,7.1733 -7.93067,9.48 -0.928,-2.5067 -1.87333,-5 -2.876,-7.4667 0.252,-0.12 0.43467,-0.36 0.404,-0.7467 -0.17333,-2.12 3.28667,-4.5066 4.68533,-5.7866 2.48,-2.2534 4.55867,-4.9334 6.68267,-7.5067 5.11867,-6.2267 9.73733,-12.7867 14.01467,-19.6133 4.23866,-6.7734 8.27066,-13.5467 12.95866,-20.0267 0.90534,-1.2533 1.82267,-2.5067 2.72934,-3.7467 -3.63867,6.7067 -7.64,13.2667 -11.27467,19.9467 z m 17.29067,21.1333 c 4.47066,-10.8266 7.95333,-22.1866 9.55733,-33.8 0.24533,-1.7866 0.43733,-3.6 0.552,-5.44 2.27067,16.8134 -0.66133,34.08 -6.80133,50.1734 -4.64,12.1733 -11.22,23.76 -17.428,35.1733 -2.99334,5.5067 -6.108,10.9467 -9.316,16.3333 -3.06,5.1467 -6.05067,10.6134 -10.45734,14.7334 -0.36933,-4.6534 -0.816,-9.28 -1.34933,-13.9067 13.88933,-19.6933 26.03733,-40.9867 35.24267,-63.2667 z m -37.37734,42.2534 c 1.1,-3.72 4.86134,-6.16 7.66534,-8.5867 3.23466,-2.8 5.69733,-6.56 8.06933,-10.08 5.81733,-8.6267 10.15867,-18.3333 14.864,-27.5867 4.45867,-8.7733 8.572,-17.7733 12.08933,-26.96 1.672,-4.3733 2.34134,-8.7466 2.74534,-13.3733 0.0853,-0.96 0.148,-1.92 0.18133,-2.8667 0.56933,5.5067 -0.0547,11.24 -0.94,16.5467 -1.892,11.3467 -5.68933,22.36 -10.152,32.9333 -8.64267,20.4667 -19.97867,40.08 -32.68267,58.2934 -0.0147,-0.12 -0.0253,-0.2534 -0.0413,-0.3734 -0.74133,-6.0666 -1.772,-11.8 -3.14,-17.4666 0.45333,0.2666 1.14667,0.1866 1.34133,-0.48 z m 23.97734,-52.16 c 7.55733,-13.56 16.96133,-25.9067 19.32933,-41.24 0.34,1.7333 0.58667,3.4933 0.468,5.4133 -0.30533,4.96 -1.124,9.6133 -2.79467,14.3067 -3.616,10.1333 -8.52933,19.9333 -13.42666,29.5066 -4.74667,9.2667 -9.19867,18.7334 -15.18534,27.2934 -2.544,3.6266 -5.28133,6.48 -8.62266,9.32 -2.272,1.9333 -4.456,4.0133 -5.38,6.8933 -0.62134,-2.48 -1.29734,-4.96 -2.05467,-7.44 11.85067,-12.9467 19.2,-28.88 27.66667,-44.0533 z m 13.208,-38.84 c 1.29466,-2.9067 2.57466,-6.44 4.90666,-8.7734 -0.34533,18 -11.18133,31.7334 -19.644,46.7067 -8.32933,14.76 -15.372,30.2667 -26.76266,43 -0.68267,-2.1467 -1.4,-4.2933 -2.192,-6.48 -0.0253,-0.067 -0.0533,-0.1333 -0.0787,-0.2 5.36133,-3.3067 8.472,-9.68 11.78133,-14.8267 4.84,-7.5333 8.51734,-15.76 12.57467,-23.72 4.348,-8.52 9.08,-16.88 13.79467,-25.2 1.96933,-3.48 3.99066,-6.8533 5.62,-10.5066 z m -32.58667,151.4666 c 0,-0.16 -0.009,-0.32 -0.009,-0.48 0.17066,-0.027 0.34266,-0.093 0.496,-0.2533 20.24933,-21.8667 32.47866,-49.36 42.572,-77.0533 5.236,-14.3734 9.28533,-29.36 9.47466,-44.7467 0.032,-2.6533 -0.084,-5.2933 -0.38533,-7.8933 1.10666,4.0133 1.704,8.1333 1.82,12.68 0.45466,17.96 -2.44933,35.9066 -7.82933,53.0133 -4.81334,15.3067 -10.896,30.76 -17.728,45.2667 -3.272,6.96 -7.08934,13.64 -11.572,19.88 -5.12267,7.1333 -11.92667,12.6933 -17.44934,19.4666 0.54667,-6.6533 0.62667,-13.36 0.61067,-19.88 z m -0.996,-24.0933 c 0.308,0.1733 0.70533,0.2 1.04,-0.1067 3.77733,-3.5066 6.39733,-7.9066 9.06667,-12.2666 3.86933,-6.3067 7.52133,-12.76 11.07733,-19.2534 6.33467,-11.56 12.75467,-23.3066 17.60667,-35.6 7.44,-18.8266 10.08266,-39.8 5.24266,-59.4266 1.39867,3.0533 2.97734,6.04 4.544,9.04 2.38267,6.12 3.13334,12.52 3.18,19.1733 0.10667,15.16 -4.34666,30.1333 -9.41066,44.2667 -9.696,27.0666 -21.85467,54.04 -41.40534,75.48 -0.0827,-7.1067 -0.40533,-14.2134 -0.94133,-21.3067 z m 58.22266,-68.9867 c -0.984,12.1734 -3.17733,24.2134 -6.15866,36.04 -4.91733,19.52 -10.83733,39.4534 -20.23067,57.32 -4.63733,8.8134 -10.47866,16.9334 -17.432,24.0667 -4.996,5.12 -10.28133,14.1867 -17.74933,16.0667 0.0107,-0.027 0.0227,-0.067 0.032,-0.093 1.832,-5.88 2.87333,-12.0266 3.48667,-18.24 0.28133,0.1334 0.61066,0.093 0.86933,-0.24 5.12,-6.4666 11.58533,-11.6933 16.61067,-18.2533 4.97066,-6.4933 9.05466,-13.52 12.656,-20.8533 7.13333,-14.52 12.884,-30.1067 18.02933,-45.44 5.76533,-17.16 8.50666,-35.3067 8.424,-53.4 -0.036,-7.6134 -1.028,-14.32 -4.10533,-21.32 -0.82134,-1.8667 -1.72267,-3.6934 -2.64534,-5.4934 -0.0293,-0.067 -0.0507,-0.1466 -0.08,-0.2133 -1.296,-3.1333 -2.90933,-6.1067 -4.56266,-9.08 -1.04934,-2.3067 -1.97734,-4.6667 -2.68667,-7.1467 3.85333,2.8534 6.79333,9.36 8.47867,12.5734 3.66266,7 6.24133,14.1066 7.29199,21.96 1.39334,10.4266 0.61734,21.3066 -0.228,31.7466 z m 2.48534,0.6667 c 0.3,6.0267 0.91866,12.0267 1.392,18.0533 -0.49867,-0.093 -1.05334,0.1734 -1.024,0.8267 0.28266,6.0933 -2.01467,11.8533 -3.89334,17.5467 -2.208,6.6933 -3.77466,13.6133 -5.33466,20.4933 -2.91733,12.8533 -5.768,25.6533 -10.13067,38.12 -4.22666,12.0667 -10.17066,23.6133 -19.31333,32.6933 -8.396,8.3467 -20.04533,11.5734 -30.83067,15.76 1.93467,-2.5866 3.36134,-5.6933 4.44267,-8.76 7.24667,-1.3466 12.53467,-8.6933 17.05067,-13.8933 6.96533,-8.0133 13.63066,-15.4667 18.93466,-24.7733 11.04534,-19.3734 17.31867,-41.96 22.58267,-63.4934 2.93733,-12.0133 4.768,-24.28 5.66933,-36.6133 0.064,-0.88 0.12,-1.76 0.17867,-2.6533 0.0813,2.2266 0.16666,4.4666 0.276,6.6933 z m -76.244,61.4933 c -0.91867,-15.8266 -3.90267,-31.2133 -7.30267,-46.6666 -1.71066,-7.7867 -3.368,-15.5734 -5.24666,-23.3067 -1.848,-7.6133 -5.13067,-15.3333 -6.03867,-23.1333 5.54133,9.6933 10.64,19.6666 15.18533,29.88 0.0227,0.1066 0.0653,0.2 0.128,0.2933 1.04934,2.36 2.07334,4.7333 3.05734,7.1333 -0.228,3.84 0.668,7.64 1.36533,11.48 1.208,6.64 2.852,13.1734 4.09733,19.8 2.61467,13.9334 2.92134,28.4934 2.592,42.6267 -0.32266,13.8267 -2.08666,27.4933 -3.85733,41.1867 -0.42,3.2533 -0.90267,6.4933 -1.25067,9.7466 -0.32533,3.0534 -0.18533,6.0534 -1.18133,9 -0.508,1.5067 -1.07867,2.9867 -1.648,4.48 -0.184,0.4667 -0.65333,2.1334 -1.18533,3.4934 -0.71467,0.1733 -1.456,0.3066 -2.248,0.3466 -0.116,-0.013 -0.244,0 -0.38267,0.053 -0.264,0.093 -0.532,0.1733 -0.79733,0.2666 2.144,-4.2266 2.45866,-9.6266 3.38266,-14.1333 1.568,-7.6533 1.89734,-15.5333 2.04134,-23.3067 0.30266,-16.3866 0.24,-32.88 -0.71067,-49.24 z m 78.77466,-21.76 c -0.42,0.027 -0.824,0.2934 -0.83466,0.84 -0.29067,16.2267 -5.65867,31.8934 -8.07734,47.8534 -2.06933,13.6666 -4.64533,26.7733 -14.25599,37.24 -13.30134,14.5066 -34.36934,21.12 -53.98,22.6133 1.004,-0.5067 1.932,-1.1333 2.78266,-1.8667 0.0853,0 0.16934,-0.013 0.264,-0.04 11.09867,-4.6266 22.78267,-7.68 32.29334,-15.3733 9.79333,-7.9333 15.95333,-19.9467 20.48933,-31.4267 5.16667,-13.0933 8.212,-26.88 11.27067,-40.56 1.65999,-7.44 3.40133,-14.8533 5.69999,-22.12 1.344,-4.24 2.94,-8.4533 3.628,-12.8266 0.32667,5.2133 0.58,10.44 0.72,15.6666 z m -0.23466,-32.4933 c -1.62667,-18.3467 -0.3,-37.1067 -5.36267,-55.0133 -2.244,-7.9334 -6.42133,-16.1867 -13.40933,-20.96 -1.77467,-1.2267 -3.344,-1.8134 -4.76267,-1.9467 -0.072,-0.1067 -0.136,-0.2267 -0.21066,-0.3333 -0.536,-0.8 -1.696,-0.28 -1.668,0.4666 -3.184,0.72 -5.568,4 -7.90267,7.8 -7.19067,11.7334 -15.352,23.1334 -24.05467,33.7867 -6.90666,8.4667 -16.03866,14.96 -22.51333,23.7867 -0.356,0.48 -0.67867,0.9866 -1.016,1.48 -7.76267,-17.2534 -17.15733,-33.76 -27.408,-49.64 -5.32,-8.24 -10.76,-16.5067 -16.43333,-24.5067 -3.25467,-4.6 -7.692,-10.88 -13.54534,-12.4267 -0.20266,-0.067 -0.40933,-0.12 -0.62133,-0.1733 -0.18667,-0.2 -0.46267,-0.3067 -0.81467,-0.1733 -0.024,0.013 -0.044,0.027 -0.068,0.04 -0.19466,-0.027 -0.38,-0.067 -0.58266,-0.067 -0.12267,0 -0.22534,0.027 -0.32267,0.053 -5.78933,0.12 -10.84666,9.6267 -13.57333,13.5467 -2.832,4.0667 -5.896,7.96 -9.036,11.8 -2.67333,1.88 -4.80133,4.9867 -6.65067,8.0133 -1.81466,2.1734 -3.62133,4.3467 -5.39466,6.5467 -7.40134,9.2 -14.52934,18.64 -21.08667,28.44 -0.0693,0.053 -0.13867,0.1067 -0.196,0.1867 -0.28533,0.4133 -0.54,0.8533 -0.79333,1.2933 -1.096,1.6533 -2.18,3.32 -3.24,5 -6.34134,-10.3867 -14.91467,-19.1733 -21.996,-29.04 -3.712,-5.1733 -6.844,-15.04 -13.70934,-16.9467 -0.02,-0.04 -0.0387,-0.08 -0.0587,-0.12 -0.312,-0.6 -0.97734,-0.52 -1.356,-0.1466 -0.13334,-0.013 -0.25734,-0.053 -0.39467,-0.053 -1.87467,-0.12 -3.64667,0.8 -5.17067,2.04 -0.38266,0.2667 -0.72666,0.5867 -1.044,0.9334 -0.724,0.7066 -1.37733,1.4533 -1.91733,2.16 -3.57333,4.6266 -6.61067,9.76 -9.596,14.7733 -1.28,2.16 -2.50267,4.3333 -3.692,6.5467 -2.528,3.2266 -4.25067,7 -5.45867,10.96 -2.392,5.24 -4.548,10.5866 -6.444,16.0266 -12.52399,35.9467 -12.17333,78.6934 4.33067,113.3334 10.49333,22.0266 28.54267,38.44 51.40667,46.84 12.832,4.7066 26.39733,7.56 39.928,9.32 12.81866,1.6533 26.276,2.2533 38.96133,-0.6534 0.148,-0.04 0.264,-0.1066 0.35733,-0.1733 0.636,-0.013 1.27467,-0.027 1.908,-0.04 0.352,0.6133 1.26,0.5467 1.54933,-0.067 2.36267,-0.093 4.70134,-0.2266 7.01067,-0.4266 0.36133,0.2266 0.856,0.2266 1.124,-0.1067 2.92933,-0.2667 5.812,-0.6 8.61467,-1.0267 0.168,-0.027 0.336,-0.053 0.50533,-0.08 16.79867,-0.3866 33.69467,-3.1733 50.21467,-6.04 12.99333,-2.2533 28.228,-3.76 39.304,-11.56 12.02133,-8.48 18.44666,-22.7866 22.31999,-36.5066 4.688,-16.6134 5.90667,-34.1867 6.09467,-51.3734 0.16667,-15.2133 -0.78267,-30.4266 -2.12533,-45.5733" style="fill:#577c69;fill-opacity:1;fill-rule:nonzero;stroke:none;stroke-width:0.133333"/><path id="path1455" d="m 484.64132,1782.0001 c -0.63467,-5.3334 -0.264,-10.7467 -0.42133,-16.0934 -0.39467,-13.4133 -1.35067,-26.8133 -2.34667,-40.2133 -0.96933,-13.04 -0.93733,-26.1733 -1.01467,-39.24 -0.0253,-4.4267 -0.59333,-8.5867 0.12667,-12.9467 0.316,-1.92 1.884,-7.8133 -0.75467,-7.6933 -2.784,0.12 -3.89466,0 -7.832,0 -2.01866,0 -3.22266,-0.5867 -3.6,1.56 -0.29733,1.6933 0.007,2.9733 -0.56533,6.16 -1.82133,10.1467 -1.816,16.6533 -2.45733,23.6933 -0.576,6.3467 -1.73467,12.64 -2.47867,18.9867 -1.98533,16.96 -2.16933,33.92 -2.86533,50.92 -0.35333,8.6267 -0.908,17.2667 -0.92933,25.9067 -0.009,3.7333 -2.008,10.1333 4.588,11.8933 5.09199,1.3467 12.67733,1.72 16.97733,-0.9867 4.27333,-2.68 4.472,-7.7866 4.516,-11.44 0.0427,-3.5066 -0.52667,-7.0133 -0.94267,-10.5066" style="fill:#534741;fill-opacity:1;fill-rule:nonzero;stroke:none;stroke-width:0.133333"/><path id="path1306" d="m 608.45732,1578.8934 c -1.04267,14.6267 -3.392,29.3733 -8.72133,43.08 -4.61734,11.88 -12.73467,24.0933 -24.944,29.1467 -11.656,4.8266 -25.29467,6.3466 -37.64,8.3866 -10.29067,1.7067 -20.72267,3.3334 -31.17334,4.2534 6.30267,-1.48 12.52534,-3.3067 18.656,-5.3867 0.864,-0.013 1.73067,-0.027 2.6,-0.053 0.052,0.4933 0.45734,0.96 1.07867,0.7866 0.45067,-0.1333 0.83867,-0.4533 1.17867,-0.9066 20.91066,-1.1467 43.01333,-7.9867 57.648,-23.2667 9.60133,-10.0133 12.41333,-23.1333 14.47199,-36.44 2.02934,-13.12 5.884,-26.12 7.56667,-39.32 -0.0333,6.5733 -0.25333,13.16 -0.72133,19.72 z m -201.16266,83.2133 c -19.444,-5.0666 -36.93867,-13.7333 -50.32667,-29.04 -24.10133,-27.5466 -29.77466,-68.1066 -24.95733,-103.6133 -0.42933,5.84 -0.40667,11.72 0.18133,17.5867 1.69867,16.96 5.86,34.2266 12.00133,50.12 5.51734,14.28 12.91334,27.2133 25.332,36.44 6.176,4.6 13.09334,7.9333 19.384,12.3066 2.76667,1.9334 4.67467,4.08 7.86134,5.2934 4.00933,1.5333 8.744,1.16 12.93466,1.1466 0.0373,0 0.0627,-0.013 0.0987,-0.027 8.69867,5.8666 18.79333,9.8933 29.42667,12.3866 0.04,0.067 0.0747,0.1334 0.11466,0.1867 0.36,0.5333 1.00267,0.48 1.38134,0.1467 2.024,0.4533 4.06133,0.8533 6.11333,1.2 0.29467,0.3733 0.79333,0.3866 1.16,0.1733 2.76133,0.44 5.54,0.7867 8.324,1.04 0.28267,0.32 0.70133,0.3067 1.02533,0.093 1.99334,0.1734 3.98534,0.3067 5.97467,0.3867 -18.548,2.3067 -38.34133,-1.2267 -56.02933,-5.8267 z m -30.22,-210.1466 c 2.86266,3.7733 4.84133,8.24 7.55333,12.1466 7.124,10.2267 16.092,19.0667 22.488,29.8267 -0.916,1.48 -1.816,2.96 -2.70133,4.4533 -6.53067,-7.1866 -10.49867,-15.92 -15.10934,-24.4 -2.432,-4.4666 -4.92666,-8.96 -7.73333,-13.2 -2.52267,-3.8266 -5.44667,-7.4 -7.20667,-11.64 1.04534,0.8 1.96667,1.84 2.70934,2.8134 z m 130.33733,152.2133 c -0.02,-23.9067 -0.604,-47.84 -1.06667,-71.7333 -0.42933,-22.2 -2.608,-43.76 -8.59867,-65.2 -5.11733,-18.3067 -14.83866,-33.9867 -29.124,-46.48 0.0853,-0.44 0.192,-0.88 0.304,-1.32 0.0973,-0.067 0.20267,-0.1067 0.30534,-0.16 0.12,0.013 0.24,0.013 0.36133,0.04 3.54267,0.88 5.87467,5.1733 8.04533,7.7733 3.54934,4.2533 6.596,8.9333 9.60267,13.5733 5.596,8.6267 10.35733,17.3467 14.148,26.9334 7.972,20.16 12.92933,40.64 14.37467,62.3066 1.47866,22.1334 1.76133,44.5334 1.856,66.7067 0.0467,10.9067 -0.21067,21.8 -0.86667,32.68 -0.632,10.4667 -1.57867,21.0667 -4.79467,31.0933 -3.06,0.8267 -6.13733,1.5734 -9.232,2.2534 6.04,-18.7334 4.70267,-39.0534 4.68534,-58.4667 z m -16.16667,52.0267 c 0.544,-5.64 1.73867,-11.2134 2.456,-16.8267 1.38533,-10.8667 1.408,-21.7733 0.80133,-32.6933 -0.608,-10.9334 -1.976,-21.8 -2.92,-32.7067 -1.00533,-11.6133 -1.34133,-23.28 -1.67866,-34.9333 -0.31467,-10.8267 -0.51067,-21.6534 -1.752,-32.44 -1.14534,-9.9467 -3.03734,-19.7867 -4.94134,-29.6134 -2.02133,-10.4266 -4.492,-20.72 -7.424,-30.92 -1.18933,-4.1466 -2.39333,-8.2666 -4.07066,-12.24 -1.288,-3.0533 -2.96134,-6.4933 -3.428,-9.9466 4.908,7.0266 9.748,14.1866 13.44266,21.92 4.32934,9.08 6.79067,18.9466 8.79334,28.76 4.60266,22.52 4.09866,45.1466 4.60266,68 0.48134,21.8933 2.548,43.7333 3.67334,65.5866 0.588,11.4267 -0.608,22.2934 -2.20667,33.6 -0.932,6.5867 1.292,17.5867 -3.68,22.6667 -0.0293,0.027 -0.0387,0.067 -0.0627,0.093 -0.944,0.16 -1.888,0.2934 -2.83333,0.4267 0.948,-2.84 0.93467,-5.7067 1.228,-8.7333 z m -5.68533,-14.8934 c -0.036,-10.96 -0.24667,-21.9066 -0.67067,-32.8533 -0.81867,-21.12 -3.10133,-42.16 -3.64533,-63.3067 -0.52534,-20.48 -0.68,-40.6933 -3.652,-61.0133 -1.58534,-10.84 -3.832,-21.5733 -5.54534,-32.4 -0.78933,-4.9867 -1.396,-10.0133 -2.09066,-15.0133 -0.172,-1.24 -0.42267,-2.5867 -0.67734,-4 0.85334,1.9733 1.72934,3.92 2.376,5.8133 3.412,10 5.92,20.4133 8.18,30.7333 4.68534,21.3867 7.508,42.6534 8.14667,64.5334 0.324,11.0666 0.61867,22.1466 1.31333,33.2 0.68934,10.9466 2.06667,21.84 2.95734,32.7733 0.88666,10.9067 1.22133,21.84 0.41066,32.7467 -0.416,5.6133 -1.38133,11.16 -2.21733,16.72 -0.752,5 -0.392,11.3333 -2.39333,15.9466 -0.004,0 -10e-4,0.013 -0.005,0.013 -1.236,0.16 -2.47333,0.3066 -3.71333,0.44 0.62,-3.1867 1.23467,-6.0134 1.22933,-9.4267 -0.007,-4.9733 0.0133,-9.9467 -0.003,-14.9067 z m -7.132,11.0267 c -2.20534,-9.6667 -2.19334,-19.8 -2.668,-29.6667 -1.11334,-23.1466 -3.66267,-46.16 -4.032,-69.3333 -0.372,-23.2933 1.03466,-46.6533 -1.20534,-69.88 -1.112,-11.5333 -1.58933,-23.0933 -1.73333,-34.6667 -0.0347,-2.76 -0.0413,-5.5066 -0.0907,-8.2533 0.21334,1.5333 0.42934,3.0533 0.62934,4.5867 1.36133,10.3866 3.37866,20.68 5.176,30.9866 3.692,21.2 4.752,42.44 4.88533,63.92 0.132,21.1334 2.47867,42.16 3.50267,63.2534 0.53066,10.9333 0.764,21.88 0.864,32.8266 0.048,5.08 0.0453,10.1734 0.0387,15.2534 -0.004,2.6933 -0.004,5.3866 0.004,8.08 0.007,2.1866 -0.788,4.2666 -1.27066,6.3866 -1.012,0.093 -2.02667,0.1734 -3.04134,0.2534 1.93867,-3.88 -0.21066,-10.04 -1.05866,-13.7467 z m -5.64934,-9.3467 c -2.03733,-10.7733 -3.324,-21.6666 -4.39866,-32.5733 -2.10667,-21.4 -3.952,-42.8667 -5.228,-64.3333 -1.27733,-21.48 -1.82667,-43 -1.784,-64.52 0.0187,-10.08 0.46,-20.1467 1.52533,-30.1867 0.58267,-5.4933 1.46534,-10.9333 2.54934,-16.3467 0.33866,-1.6933 0.59333,-3.44 0.83866,-5.2133 0.14267,4.6133 0.68533,9.28 0.69733,13.7467 0.0333,11.5733 0.37334,23.1466 1.296,34.68 1.82134,22.7733 1.516,45.3333 1.61334,68.1466 0.0973,22.6534 2.53733,45.04 3.68533,67.6267 0.556,10.9467 0.97867,21.8933 1.968,32.8133 0.24533,2.7067 1.052,5.3867 1.64267,8.0134 0.63333,2.84 2.49866,8.48 0.38,11.0533 -0.0867,0.093 -0.14134,0.2133 -0.17467,0.32 -0.512,0.027 -1.024,0.053 -1.536,0.08 0.056,-7.8667 -1.61867,-15.6133 -3.07467,-23.3067 z m -1.428,23.4667 c -0.236,-4 -1.45466,-7.88 -2.176,-11.8 -0.93733,-5.1067 -1.61066,-10.24 -2.47733,-15.3467 -1.72133,-10.16 -3.864,-20.24 -5.56666,-30.4 -3.50134,-20.8933 -6.00534,-41.9733 -6.69867,-63.1466 -0.68533,-20.92 -0.0427,-41.92 2.98267,-62.64 1.30133,-8.9067 2.22,-17.9334 3.28133,-26.9467 -0.63733,7.32 -0.97067,14.6533 -1.07333,22.0133 -0.3,21.4667 0.39866,42.9734 1.56,64.4134 1.164,21.48 3.13466,42.92 5.09733,64.3466 0.96266,10.4934 2.16933,20.9467 3.876,31.3467 1.50266,9.1467 3.90666,18.2533 3.91733,27.5733 -0.16667,0.12 -0.28667,0.3067 -0.31067,0.5334 -0.804,0.027 -1.608,0.04 -2.412,0.053 z m -23.15599,-1.52 c -0.0493,-0.1467 -0.0973,-0.28 -0.14534,-0.4267 -0.0773,-0.2266 -0.22,-0.36 -0.38266,-0.4666 -1.776,-3.4 -3.03334,-7.1334 -4.68134,-10.6 -2.288,-4.8134 -4.648,-9.5067 -6.376,-14.5734 -3.12933,-9.16 -5.504,-18.56 -7.37866,-28.0533 -4.008,-20.3067 -4.72534,-40.8533 -3.69734,-61.4667 1.07334,-21.5333 3.736,-42.8133 9.40267,-63.6533 2.60533,-9.5733 5.34667,-19.16 8.78533,-28.48 1.60267,-4.3467 3.62,-8.4933 5.49334,-12.72 1.348,-3.04 2.756,-6.32 4.944,-8.8933 -1.04,2.0133 -2.04667,4.0533 -2.99067,6.1066 -4.496,9.8134 -7.108,20.3867 -10.01067,30.7334 -6.00266,21.4133 -5.83866,44.28 -6.94133,66.3466 -1.124,22.5067 -0.824,45.0667 2.24667,67.4267 1.48266,10.8 5.01866,20.56 8.79333,30.7067 3.604,9.7066 5.932,19.56 10.28533,28.96 -2.43466,-0.24 -4.88666,-0.5467 -7.34666,-0.9467 z m 7.51066,-232.2533 c -0.0293,-0.027 -0.06,-0.04 -0.092,-0.067 0.19734,-0.28 0.39734,-0.5733 0.59467,-0.8533 -0.16933,0.3066 -0.33467,0.6133 -0.50267,0.92 z m -3.13066,109.6533 c 0.36266,20.76 2.79066,41.4533 6.01733,61.9333 1.60267,10.1867 3.472,20.32 5.44133,30.44 0.99067,5.08 1.788,10.1867 2.584,15.3067 0.84133,5.4 2.684,11.0133 2.96133,16.48 -1.25333,0 -2.50666,0 -3.76133,-0.027 -4.35733,-6.2666 -5.15333,-15.1733 -8.508,-22.0133 -2.42666,-4.9467 -4.644,-9.64 -5.92,-15.04 -1.36133,-5.76 -2.14666,-11.6533 -2.86,-17.52 -2.69066,-22.1467 -5.94133,-44.1467 -5.39333,-66.5067 0.568,-23.1466 2.464,-46.0133 7.55333,-68.64 2.48267,-11.0266 5.532,-21.9333 8.85867,-32.7466 0.58133,-1.8934 1.20133,-3.7734 1.81867,-5.6534 -2.332,14.12 -3.50267,28.52 -5.41867,42.6 -2.78533,20.4534 -3.73467,40.7334 -3.37333,61.3867 z m 42.83466,121.7467 c 2.89467,-4.4934 2.232,-11.0267 2.32533,-16.0667 0.10134,-5.36 1.30667,-10.72 2.04267,-16.0133 0.792,-5.6934 1.1,-11.36 1.032,-17.0934 -0.27867,-23.56 -3.15733,-47.0533 -3.86667,-70.6 -0.69733,-23.0933 -0.0133,-45.8933 -4.41066,-68.7066 -1.828,-9.4934 -4.16267,-19.0267 -8.03467,-27.9067 -3.24133,-7.44 -7.56,-14.3067 -12.12267,-21 5.22534,5.2133 10.05734,11.0933 13.80667,17.1067 5.08267,8.1466 8.1,17.4133 10.60533,26.6266 5.83467,21.4534 7.46134,43.16 7.84934,65.3067 0.39866,22.8133 0.948,45.6267 1.00533,68.44 0.0493,19.56 1.41867,40.08 -4.90667,58.9067 -1.76933,0.36 -3.54533,0.6933 -5.32533,1 z m -74.43866,-9.9334 c -1.8,-4.04 -3.25867,-8.2266 -4.93867,-12.3333 -3.252,-7.9333 -6.64667,-15.72 -9.36267,-23.8667 -5.828,-17.4666 -7.99333,-35.08 -7.41466,-53.44 0.56266,-17.8666 2.936,-35.6666 7.68133,-52.9066 2.436,-8.8534 5.54933,-17.3334 10.116,-25.3067 4.04,-7.0533 7.94667,-15.2533 13.45067,-21.3467 -3.00667,5.7467 -5.61734,11.72 -8.09334,17.6667 -4.11333,9.88 -6.42,20.2533 -8.272,30.76 -1.81866,10.32 -3.532,20.68 -4.60533,31.1067 -1.14667,11.1466 -1.468,22.36 -1.31867,33.56 0.144,10.8 2.22134,21.0266 4.30934,31.5866 1.98666,10.0267 3.95333,18.8534 9.50533,27.5867 2.70133,4.2533 5.77333,8.24 8.39467,12.5467 2.60266,4.28 4.904,8.7066 7.54666,12.9466 -5.50133,-1.4533 -10.912,-3.3866 -16.072,-5.7866 0.0107,-0.9467 -0.548,-1.92 -0.92666,-2.7734 z m -16.81734,-8.6 c -0.009,-0.013 -0.0107,-0.013 -0.02,-0.027 -2.004,-1.84 -2.63333,-4.6134 -3.61066,-7.0534 -1.29867,-3.24 -2.70267,-6.3733 -3.72,-9.72 -2.12534,-7 -2.93334,-14.64 -4.128,-21.8266 -2.42,-14.5867 -3.248,-28.72 -1.97734,-43.4534 1.276,-14.8133 5.90534,-28.5866 10.92,-42.48 1.08667,-3 2.25067,-6 3.364,-9.0133 -4.14,14.9867 -6.268,30.5067 -7.2,46 -1.05066,17.4533 -0.0707,34.3333 4.42534,51.2667 2.32266,8.76 5.46933,17.28 8.92933,25.64 1.66533,4.0266 3.46267,7.9866 5.032,12.0533 0.79867,2.0667 1.59333,4.1333 2.43067,6.2 0.23466,0.5733 1.14533,1.96 1.48,2.9333 -5.76,-2.8533 -11.14,-6.36 -15.92534,-10.52 z m -64.66133,-145.0666 c -0.34,2.6 -0.6,5.2133 -0.91867,7.7733 -0.896,7.2133 -1.31866,14.48 -1.388,21.7333 -0.12933,13.56 1.65467,26.92 5.63334,39.88 3.704,12.0667 9.48133,23.4267 16.51733,33.88 3.408,5.0534 7.768,9.4134 12.304,13.4534 5.048,4.4933 10.03333,7.5866 16.06933,10.52 0.22,0.1066 0.428,0.1066 0.61867,0.067 4.544,9.4534 11.11467,16.96 19,22.7867 -3.40267,0 -6.73333,-0.1467 -10.08667,-1.08 -3.28533,-0.9067 -5.864,-4.0133 -8.62266,-5.9333 -5.88667,-4.1067 -12.35467,-7.2667 -18.2,-11.48 -12.944,-9.3334 -20.13334,-23.6267 -25.61067,-38.2667 -5.57333,-14.8933 -9.05067,-30.9867 -10.84533,-46.7733 -1.77867,-15.64 0.87466,-31.56 5.52933,-46.56 z m 11.58667,-27.5067 c -2.53734,7.6267 -4.14934,15.3733 -4.14667,23.6933 0.005,12.2134 2.96267,24.32 6.56,35.92 3.39733,10.9334 7.28533,21.9467 12.088,32.36 2.16533,4.6934 4.8,9.1334 7.87867,13.28 1.54933,2.0934 2.956,4.8267 4.92133,6.56 0.42533,0.3734 0.94933,0.24 1.264,-0.067 0,4.8266 0.25067,9.6533 0.80933,14.44 -1.332,-1.6534 -3.40133,-3.08 -4.696,-4.3067 -4.47466,-4.2 -7.98666,-9.52 -11.228,-14.6933 -7.136,-11.4134 -12.59066,-23.96 -16.41333,-36.84 -3.93867,-13.28 -5.64267,-27.1334 -5.42933,-40.9734 0.0827,-5.3466 0.65333,-11.36 2.216,-16.9733 1.908,-4.2 3.97466,-8.3333 6.176,-12.4 z m 15.78933,-23.6933 c -2.87867,4.1333 -3.464,9.48 -3.71467,14.4666 -0.44533,8.9067 0.25334,17.84 1.64134,26.64 1.49333,9.4534 3.83733,18.9334 7.09066,27.9334 1.43334,3.9733 3.216,7.8 5.19867,11.52 2.34,4.3866 5.55333,8.2 7.94667,12.5466 0.04,0.08 0.0933,0.12 0.14266,0.1734 -0.82666,3.1733 -1.57733,6.3733 -2.20933,9.5866 -2.36,-2.9866 -3.97067,-6.6666 -6.00933,-9.8666 -2.32267,-3.64 -4.33067,-7.4667 -6.12134,-11.4 -4.13466,-9.0667 -6.82133,-19.0134 -9.06133,-28.7067 -2.324,-10.04 -3.45467,-20.36 -2.86,-30.6667 0.30133,-5.1866 1.28,-10.3466 3.428,-15.1066 0.696,-1.5467 1.55467,-3.9334 2.80267,-5.6 0.536,-0.5467 1.112,-1.0534 1.72533,-1.52 z m 31.85867,59.2266 c -1.05867,-3.9333 -3.144,-7.4933 -5.02,-11.1066 -2.836,-5.4667 -4.67734,-11.56 -6.84534,-17.32 -2.54666,-6.7467 -5.15733,-13.48 -8.00933,-20.1067 2.992,4.3467 5.59333,8.92 8.16,13.52 5.104,9.1467 9.268,18.7467 16.456,26.4933 -1.63733,2.8 -3.22133,5.6534 -4.74133,8.52 z m -23.81467,-40.68 c 1.428,6.9734 3.136,13.8534 5.09333,20.6934 1.91067,6.68 3.70267,13.4533 6.12267,19.9733 1.55867,4.2 3.072,9.3867 6.42,12.5333 0.024,0.013 0.0493,0.027 0.0733,0.04 -0.0987,0.2134 -0.20266,0.44 -0.29866,0.6534 -1.1,2.4933 -2.09067,5.04 -3.03067,7.6133 -6.484,-11.64 -10.88933,-23.52 -14.22933,-36.4533 -3.56934,-13.8267 -3.97467,-27.88 -4.01867,-42.04 1.068,5.7066 2.7,11.2933 3.868,16.9866 z m 18.49867,51.5067 c -3.648,-3.8133 -5.57867,-11.0267 -7.14267,-15.8133 -2.00667,-6.1334 -3.704,-12.4134 -5.44933,-18.6267 -1.77067,-6.3067 -3.20267,-12.68 -4.51867,-19.0933 -1.004,-4.8934 -2.38,-9.6934 -3.36667,-14.5867 4.60934,9.5467 8.472,19.4133 12.22,29.3467 1.93067,5.1066 3.59734,10.44 5.89867,15.4 2.19733,4.7333 5.24133,9.16 6.28667,14.3333 0.04,0.2 0.13466,0.3333 0.24533,0.44 -1.45467,2.8267 -2.84667,5.6933 -4.17333,8.6 z m -20.46134,-27.6267 c 3.316,14.04 8.21734,26.9467 15.328,39.4667 0.072,0.1333 0.16134,0.2267 0.25867,0.2933 -0.99733,2.8667 -1.92933,5.76 -2.744,8.68 -3.99867,-6.9866 -8.60267,-13.2 -11.64667,-20.84 -3.14666,-7.8933 -5.112,-16.3066 -6.78266,-24.6266 -1.76134,-8.7467 -2.588,-17.6267 -2.52667,-26.56 0.0453,-6.3467 -0.0587,-14.0667 4.43333,-19.0534 0.0227,14.3734 0.35467,28.56 3.68,42.64 z m -14.2,4.4267 c 1.9,11.1333 5.15734,22.28 9.32934,32.7733 1.80133,4.52 4.068,8.84 6.56933,13.0134 2.4,4 4.516,8.6266 7.56933,12.16 0.10934,0.1333 0.22934,0.2 0.352,0.24 -0.93333,5.1066 -1.63733,10.24 -2.13866,15.3733 -2.34534,-3.4 -5.05067,-6.5067 -7.25734,-10.0133 -2.56666,-4.08 -4.56,-8.5067 -6.38666,-12.96 -3.60534,-8.7734 -6.44934,-17.8267 -8.59334,-27.0534 -2.27866,-9.8266 -3.53733,-19.8666 -3.96266,-29.9333 -0.39067,-9.2533 0.87066,-17.8933 4.02666,-26.3067 -0.152,0.68 -0.312,1.3467 -0.43466,2.04 -1.79734,10.08 -0.78534,20.6534 0.92666,30.6667 z m 20.904,87.4267 c -0.009,-0.013 -0.0107,-0.027 -0.0213,-0.027 -1.836,-1.6133 -3.2,-4.2267 -4.644,-6.2 -3.07333,-4.1867 -5.636,-8.6 -7.87867,-13.28 -4.87733,-10.1733 -8.49066,-21.2 -11.90933,-31.9467 -3.65867,-11.4933 -6.252,-23.3466 -6.496,-35.44 -0.216,-10.68 2.75067,-20.5733 6.69333,-30.3333 -1.83066,5.8933 -2.78266,11.8933 -2.996,18.44 -0.33466,10.2 1.16134,20.64 3.08267,30.6267 2.00133,10.4266 5.184,20.5333 9.04133,30.4133 1.63067,4.1733 3.476,8.2533 5.61734,12.1867 2.62266,4.8266 6.26133,8.7733 9.27866,13.32 0.20667,0.3066 0.50934,0.4133 0.80134,0.3866 -0.34267,3.92 -0.53467,7.88 -0.56934,11.8534 z m -38.81466,-80.12 c -0.33067,10.92 1.19733,22.0533 3.55733,32.6 3.00533,13.44 8.26533,26.2666 14.76533,38.36 2.92534,5.4533 6.21067,10.8 10.05334,15.6533 1.836,2.32 3.73333,4.5867 5.89066,6.6267 1.36934,1.28 4.35867,3.2 4.81734,5.1333 0.12266,0.5067 0.55466,0.6667 0.95733,0.6 1.15067,7.8267 3.156,15.5067 6.252,22.7867 0.0573,0.1333 0.12533,0.2666 0.184,0.4 -2.196,-1 -4.40933,-1.9067 -6.44667,-3.24 -2.82266,-1.8534 -5.42533,-4.2 -7.97733,-6.4134 -4.892,-4.24 -9.26,-8.9866 -12.87733,-14.36 -6.96267,-10.3333 -12.272,-21.72 -15.92667,-33.6133 -3.78533,-12.3333 -5.132,-25.12 -5.13067,-37.9867 0,-6.7066 0.476,-13.4 1.19467,-20.0666 0.228,-2.12 0.43733,-4.3067 0.68667,-6.48 z m 67.428,-8.3734 c -0.52134,1.84 -0.97334,3.6934 -1.448,5.5067 -1.78134,6.8 -4.51067,13.3467 -6.90934,19.9467 -5.30533,14.6133 -9.78,28.9866 -11.12,44.5333 -1.28933,14.96 0.016,29.3067 2.464,44.0533 1.26534,7.6267 2.252,15.5867 4.74667,22.92 1.01733,2.9867 2.436,5.8267 3.53867,8.7867 0.072,0.1867 0.14933,0.3867 0.22133,0.5733 -0.92667,-0.9733 -1.824,-1.9733 -2.68533,-3 -12.264,-14.76 -15.556,-35.36 -15.62667,-53.96 -0.0707,-18.64 3.39733,-37.52 9.71333,-55.04 3.56134,-9.8933 8.23467,-19.36 13.57467,-28.48 0.55333,-0.053 1.008,-0.6933 0.73467,-1.2666 0.912,-1.5334 1.848,-3.0534 2.796,-4.5734 z m 5.588,-8.5466 c 1.99866,-2.9334 4.04933,-5.84 6.13333,-8.7067 -0.65733,1.16 -1.31867,2.3067 -2.00133,3.44 -3.772,6.24 -6.81334,12.5067 -9.308,19.2133 1.212,-4.6933 2.29066,-9.5733 5.03866,-13.6133 0.076,-0.1067 0.116,-0.2267 0.13734,-0.3333 z m 17.61333,-23.3867 c -0.0347,-0.08 -0.084,-0.16 -0.14133,-0.2267 0.27866,-0.36 0.56266,-0.7066 0.84133,-1.0533 -0.23733,0.4267 -0.46667,0.8533 -0.7,1.28 z m 8.988,200.2267 c -5.056,-7.6534 -9.19867,-15.8134 -14.44,-23.3734 -5.67733,-8.1866 -9.06267,-16.32 -10.908,-26.1066 -1.928,-10.24 -4.41067,-20.3334 -4.992,-30.76 -0.592,-10.6 -0.14667,-21.3734 0.60667,-31.96 0.74133,-10.4134 2.38266,-20.7067 4.06533,-31 1.63067,-10 3.43333,-19.96 6.528,-29.6134 2.992,-9.3466 7.41467,-18.5066 12.06,-27.1333 2.016,-3.7467 4.36667,-7.2533 6.68133,-10.8133 0.288,-0.44 0.58,-0.92 0.88,-1.4 2.01467,-2.4 4.02667,-4.8 6.008,-7.2267 0.12267,-0.08 0.23734,-0.1733 0.364,-0.2533 -1.232,2.84 -2.30533,5.72 -3.39466,8.2533 -4.15734,9.6533 -6.92,19.9067 -9.78134,30 -5.94533,20.96 -8.852,42.2267 -10.18133,63.9467 -1.27733,20.8666 -0.63867,41.56 2.976,62.1733 1.86,10.6 4.57467,21.04 7.97333,31.2533 1.56134,4.6934 3.68134,9.1067 5.85067,13.5467 1.856,3.7867 3.24,7.8533 5.164,11.6133 -1.82133,-0.3333 -3.644,-0.72 -5.46,-1.1466 z m 17.10133,2.6933 c -4.616,-9.5733 -6.984,-19.6533 -10.59333,-29.6 -3.52533,-9.72 -6.93867,-18.92 -8.568,-29.1867 -3.39867,-21.4266 -3.488,-43.4133 -2.56933,-65.0133 0.45733,-10.7467 1.19333,-21.48 1.75066,-32.2267 0.56267,-10.88 1.448,-21.7066 3.988,-32.3333 2.36267,-9.8667 5.26934,-19.8267 8.78134,-29.3467 1.83866,-4.9866 4.19066,-9.7333 6.69333,-14.4133 1.964,-3.68 4.33067,-9.6933 7.87467,-12.5467 -0.0507,0.2 -0.0933,0.3867 -0.14267,0.5734 -1.62133,3.32 -2.396,7.5466 -3.31467,10.2933 -3.93466,11.8 -7.46133,23.7333 -10.50666,35.7867 -6.008,23.7866 -8.63867,47.7733 -9.44134,72.2666 -0.40666,12.4 -0.25466,24.6 1.09067,36.9467 1.31733,12.0933 2.888,24.1867 4.356,36.2667 1.30533,10.7466 3.24,20.8266 8.16667,30.52 3.512,6.92 4.49333,15.68 8.53066,22.36 -2.032,-0.08 -4.064,-0.1867 -6.096,-0.3467 z m 48.96667,-198.44 c 1.35866,2.24 2.68133,4.5067 3.99733,6.7733 -0.416,0.027 -0.79067,0.3067 -0.74533,0.84 0.57066,6.7734 3.244,13.2667 4.98266,19.7867 2.05867,7.7333 3.73467,15.5733 5.43867,23.4 3.444,15.8133 6.852,31.4933 8.084,47.6667 1.20667,15.8533 1.00133,31.8 0.98133,47.6933 -0.0107,8.2133 -0.26266,16.4267 -1.456,24.5733 -0.48666,3.3334 -1.34133,6.5867 -1.91333,9.8934 -0.51733,3 -1.03067,5.9866 -2.73467,8.5466 -0.112,0.08 -0.19733,0.1867 -0.256,0.3067 -2.95733,0.9733 -5.936,1.8933 -8.93466,2.7467 2.84133,-9.3467 3.772,-19.12 4.44533,-28.8267 0.83333,-12.0133 1.02133,-24.08 0.97067,-36.12 -0.10134,-23.7467 -0.28,-47.8667 -2.352,-71.5333 -1.892,-21.5867 -7.908,-42.2934 -16.38534,-62.2 -1.736,-4.08 -3.76,-8 -5.952,-11.84 4.032,6.04 8.05867,12.08 11.82934,18.2933 z m 45.36533,13.6533 c 8.58533,-9.7066 16.20667,-20.96 23.16267,-31.88 1.76266,-2.76 3.81733,-7.8266 7.028,-9.8 -4.28134,5.9334 -7.484,12.64 -11.82267,18.6 -5.34533,7.32 -9.944,15 -14.75333,22.68 -5.03334,8.04 -10.76134,15.56 -16.96667,22.7334 -1.58,1.8266 -5.07067,4.08 -6.79867,6.6133 -0.39333,-0.2133 -0.91333,-0.16 -1.15866,0.2667 -0.6,-1.4267 -1.18534,-2.8534 -1.808,-4.2667 6.17066,-9.5067 15.65466,-16.5067 23.11733,-24.9467 z m 48.52666,-24.8 c -1.21199,-2.52 -2.53866,-4.9733 -3.88533,-7.3333 -0.412,-0.72 -0.88,-1.5467 -1.39466,-2.4 0.84533,1.1733 1.56666,2.2933 2.108,3.1867 1.25866,2.08 2.29466,4.2666 3.17199,6.5466 z m -61.35733,82.6667 c 2.17334,7.44 2.84267,15.52 3.70134,23.1867 1.41333,12.6533 2.21066,25.3866 2.28266,38.1066 0.0693,12.4 -0.45333,25.0934 -3.49866,37.1734 -0.29734,1.1733 -0.65067,2.4266 -1.05867,3.7066 -0.356,0.2534 -0.484,0.72 -0.36533,1.0934 -1.75067,5.04 -4.51467,10.1733 -9.06934,12.3866 0.18134,-0.5466 0.34,-1.04 0.484,-1.3866 1.58267,-3.9334 2.79067,-7.6134 3.06934,-11.88 0.964,-14.6934 3.87466,-29.2134 4.84,-43.9334 0.97866,-14.92 0.66,-29.9466 -1.048,-44.8 -0.74134,-6.4533 -2.07067,-12.7066 -3.55467,-19.0266 -1.10133,-4.68 -2.69067,-10.4 -3.052,-15.76 2.72,6.9466 5.18267,13.9733 7.26933,21.1333 z m 23.24267,-62.56 c -4.32267,7.9467 -8.15867,16.1333 -12.44267,24.0933 -2.112,3.9334 -4.544,7.6267 -6.95066,11.3734 -2.244,3.48 -4.38,7.1733 -7.93067,9.48 -0.928,-2.5067 -1.87333,-5 -2.876,-7.4667 0.252,-0.12 0.43467,-0.36 0.404,-0.7467 -0.17333,-2.12 3.28667,-4.5066 4.68533,-5.7866 2.48,-2.2534 4.55867,-4.9334 6.68267,-7.5067 5.11867,-6.2267 9.73733,-12.7867 14.01467,-19.6133 4.23866,-6.7734 8.27066,-13.5467 12.95866,-20.0267 0.90534,-1.2533 1.82267,-2.5067 2.72934,-3.7467 -3.63867,6.7067 -7.64,13.2667 -11.27467,19.9467 z m 17.29067,21.1333 c 4.47066,-10.8266 7.95333,-22.1866 9.55733,-33.8 0.24533,-1.7866 0.43733,-3.6 0.552,-5.44 2.27067,16.8134 -0.66133,34.08 -6.80133,50.1734 -4.64,12.1733 -11.22,23.76 -17.428,35.1733 -2.99334,5.5067 -6.108,10.9467 -9.316,16.3333 -3.06,5.1467 -6.05067,10.6134 -10.45734,14.7334 -0.36933,-4.6534 -0.816,-9.28 -1.34933,-13.9067 13.88933,-19.6933 26.03733,-40.9867 35.24267,-63.2667 z m -37.37734,42.2534 c 1.1,-3.72 4.86134,-6.16 7.66534,-8.5867 3.23466,-2.8 5.69733,-6.56 8.06933,-10.08 5.81733,-8.6267 10.15867,-18.3333 14.864,-27.5867 4.45867,-8.7733 8.572,-17.7733 12.08933,-26.96 1.672,-4.3733 2.34134,-8.7466 2.74534,-13.3733 0.0853,-0.96 0.148,-1.92 0.18133,-2.8667 0.56933,5.5067 -0.0547,11.24 -0.94,16.5467 -1.892,11.3467 -5.68933,22.36 -10.152,32.9333 -8.64267,20.4667 -19.97867,40.08 -32.68267,58.2934 -0.0147,-0.12 -0.0253,-0.2534 -0.0413,-0.3734 -0.74133,-6.0666 -1.772,-11.8 -3.14,-17.4666 0.45333,0.2666 1.14667,0.1866 1.34133,-0.48 z m 23.97734,-52.16 c 7.55733,-13.56 16.96133,-25.9067 19.32933,-41.24 0.34,1.7333 0.58667,3.4933 0.468,5.4133 -0.30533,4.96 -1.124,9.6133 -2.79467,14.3067 -3.616,10.1333 -8.52933,19.9333 -13.42666,29.5066 -4.74667,9.2667 -9.19867,18.7334 -15.18534,27.2934 -2.544,3.6266 -5.28133,6.48 -8.62266,9.32 -2.272,1.9333 -4.456,4.0133 -5.38,6.8933 -0.62134,-2.48 -1.29734,-4.96 -2.05467,-7.44 11.85067,-12.9467 19.2,-28.88 27.66667,-44.0533 z m 13.208,-38.84 c 1.29466,-2.9067 2.57466,-6.44 4.90666,-8.7734 -0.34533,18 -11.18133,31.7334 -19.644,46.7067 -8.32933,14.76 -15.372,30.2667 -26.76266,43 -0.68267,-2.1467 -1.4,-4.2933 -2.192,-6.48 -0.0253,-0.067 -0.0533,-0.1333 -0.0787,-0.2 5.36133,-3.3067 8.472,-9.68 11.78133,-14.8267 4.84,-7.5333 8.51734,-15.76 12.57467,-23.72 4.348,-8.52 9.08,-16.88 13.79467,-25.2 1.96933,-3.48 3.99066,-6.8533 5.62,-10.5066 z m -32.58667,151.4666 c 0,-0.16 -0.009,-0.32 -0.009,-0.48 0.17066,-0.027 0.34266,-0.093 0.496,-0.2533 20.24933,-21.8667 32.47866,-49.36 42.572,-77.0533 5.236,-14.3734 9.28533,-29.36 9.47466,-44.7467 0.032,-2.6533 -0.084,-5.2933 -0.38533,-7.8933 1.10666,4.0133 1.704,8.1333 1.82,12.68 0.45466,17.96 -2.44933,35.9066 -7.82933,53.0133 -4.81334,15.3067 -10.896,30.76 -17.728,45.2667 -3.272,6.96 -7.08934,13.64 -11.572,19.88 -5.12267,7.1333 -11.92667,12.6933 -17.44934,19.4666 0.54667,-6.6533 0.62667,-13.36 0.61067,-19.88 z m -0.996,-24.0933 c 0.308,0.1733 0.70533,0.2 1.04,-0.1067 3.77733,-3.5066 6.39733,-7.9066 9.06667,-12.2666 3.86933,-6.3067 7.52133,-12.76 11.07733,-19.2534 6.33467,-11.56 12.75467,-23.3066 17.60667,-35.6 7.44,-18.8266 10.08266,-39.8 5.24266,-59.4266 1.39867,3.0533 2.97734,6.04 4.544,9.04 2.38267,6.12 3.13334,12.52 3.18,19.1733 0.10667,15.16 -4.34666,30.1333 -9.41066,44.2667 -9.696,27.0666 -21.85467,54.04 -41.40534,75.48 -0.0827,-7.1067 -0.40533,-14.2134 -0.94133,-21.3067 z m 58.22266,-68.9867 c -0.984,12.1734 -3.17733,24.2134 -6.15866,36.04 -4.91733,19.52 -10.83733,39.4534 -20.23067,57.32 -4.63733,8.8134 -10.47866,16.9334 -17.432,24.0667 -4.996,5.12 -10.28133,14.1867 -17.74933,16.0667 0.0107,-0.027 0.0227,-0.067 0.032,-0.093 1.832,-5.88 2.87333,-12.0266 3.48667,-18.24 0.28133,0.1334 0.61066,0.093 0.86933,-0.24 5.12,-6.4666 11.58533,-11.6933 16.61067,-18.2533 4.97066,-6.4933 9.05466,-13.52 12.656,-20.8533 7.13333,-14.52 12.884,-30.1067 18.02933,-45.44 5.76533,-17.16 8.50666,-35.3067 8.424,-53.4 -0.036,-7.6134 -1.028,-14.32 -4.10533,-21.32 -0.82134,-1.8667 -1.72267,-3.6934 -2.64534,-5.4934 -0.0293,-0.067 -0.0507,-0.1466 -0.08,-0.2133 -1.296,-3.1333 -2.90933,-6.1067 -4.56266,-9.08 -1.04934,-2.3067 -1.97734,-4.6667 -2.68667,-7.1467 3.85333,2.8534 6.79333,9.36 8.47867,12.5734 3.66266,7 6.24133,14.1066 7.29199,21.96 1.39334,10.4266 0.61734,21.3066 -0.228,31.7466 z m 2.48534,0.6667 c 0.3,6.0267 0.91866,12.0267 1.392,18.0533 -0.49867,-0.093 -1.05334,0.1734 -1.024,0.8267 0.28266,6.0933 -2.01467,11.8533 -3.89334,17.5467 -2.208,6.6933 -3.77466,13.6133 -5.33466,20.4933 -2.91733,12.8533 -5.768,25.6533 -10.13067,38.12 -4.22666,12.0667 -10.17066,23.6133 -19.31333,32.6933 -8.396,8.3467 -20.04533,11.5734 -30.83067,15.76 1.93467,-2.5866 3.36134,-5.6933 4.44267,-8.76 7.24667,-1.3466 12.53467,-8.6933 17.05067,-13.8933 6.96533,-8.0133 13.63066,-15.4667 18.93466,-24.7733 11.04534,-19.3734 17.31867,-41.96 22.58267,-63.4934 2.93733,-12.0133 4.768,-24.28 5.66933,-36.6133 0.064,-0.88 0.12,-1.76 0.17867,-2.6533 0.0813,2.2266 0.16666,4.4666 0.276,6.6933 z m -76.244,61.4933 c -0.91867,-15.8266 -3.90267,-31.2133 -7.30267,-46.6666 -1.71066,-7.7867 -3.368,-15.5734 -5.24666,-23.3067 -1.848,-7.6133 -5.13067,-15.3333 -6.03867,-23.1333 5.54133,9.6933 10.64,19.6666 15.18533,29.88 0.0227,0.1066 0.0653,0.2 0.128,0.2933 1.04934,2.36 2.07334,4.7333 3.05734,7.1333 -0.228,3.84 0.668,7.64 1.36533,11.48 1.208,6.64 2.852,13.1734 4.09733,19.8 2.61467,13.9334 2.92134,28.4934 2.592,42.6267 -0.32266,13.8267 -2.08666,27.4933 -3.85733,41.1867 -0.42,3.2533 -0.90267,6.4933 -1.25067,9.7466 -0.32533,3.0534 -0.18533,6.0534 -1.18133,9 -0.508,1.5067 -1.07867,2.9867 -1.648,4.48 -0.184,0.4667 -0.65333,2.1334 -1.18533,3.4934 -0.71467,0.1733 -1.456,0.3066 -2.248,0.3466 -0.116,-0.013 -0.244,0 -0.38267,0.053 -0.264,0.093 -0.532,0.1733 -0.79733,0.2666 2.144,-4.2266 2.45866,-9.6266 3.38266,-14.1333 1.568,-7.6533 1.89734,-15.5333 2.04134,-23.3067 0.30266,-16.3866 0.24,-32.88 -0.71067,-49.24 z m 78.77466,-21.76 c -0.42,0.027 -0.824,0.2934 -0.83466,0.84 -0.29067,16.2267 -5.65867,31.8934 -8.07734,47.8534 -2.06933,13.6666 -4.64533,26.7733 -14.25599,37.24 -13.30134,14.5066 -34.36934,21.12 -53.98,22.6133 1.004,-0.5067 1.932,-1.1333 2.78266,-1.8667 0.0853,0 0.16934,-0.013 0.264,-0.04 11.09867,-4.6266 22.78267,-7.68 32.29334,-15.3733 9.79333,-7.9333 15.95333,-19.9467 20.48933,-31.4267 5.16667,-13.0933 8.212,-26.88 11.27067,-40.56 1.65999,-7.44 3.40133,-14.8533 5.69999,-22.12 1.344,-4.24 2.94,-8.4533 3.628,-12.8266 0.32667,5.2133 0.58,10.44 0.72,15.6666 z m -0.23466,-32.4933 c -1.62667,-18.3467 -0.3,-37.1067 -5.36267,-55.0133 -2.244,-7.9334 -6.42133,-16.1867 -13.40933,-20.96 -1.77467,-1.2267 -3.344,-1.8134 -4.76267,-1.9467 -0.072,-0.1067 -0.136,-0.2267 -0.21066,-0.3333 -0.536,-0.8 -1.696,-0.28 -1.668,0.4666 -3.184,0.72 -5.568,4 -7.90267,7.8 -7.19067,11.7334 -15.352,23.1334 -24.05467,33.7867 -6.90666,8.4667 -16.03866,14.96 -22.51333,23.7867 -0.356,0.48 -0.67867,0.9866 -1.016,1.48 -7.76267,-17.2534 -17.15733,-33.76 -27.408,-49.64 -5.32,-8.24 -10.76,-16.5067 -16.43333,-24.5067 -3.25467,-4.6 -7.692,-10.88 -13.54534,-12.4267 -0.20266,-0.067 -0.40933,-0.12 -0.62133,-0.1733 -0.18667,-0.2 -0.46267,-0.3067 -0.81467,-0.1733 -0.024,0.013 -0.044,0.027 -0.068,0.04 -0.19466,-0.027 -0.38,-0.067 -0.58266,-0.067 -0.12267,0 -0.22534,0.027 -0.32267,0.053 -5.78933,0.12 -10.84666,9.6267 -13.57333,13.5467 -2.832,4.0667 -5.896,7.96 -9.036,11.8 -2.67333,1.88 -4.80133,4.9867 -6.65067,8.0133 -1.81466,2.1734 -3.62133,4.3467 -5.39466,6.5467 -7.40134,9.2 -14.52934,18.64 -21.08667,28.44 -0.0693,0.053 -0.13867,0.1067 -0.196,0.1867 -0.28533,0.4133 -0.54,0.8533 -0.79333,1.2933 -1.096,1.6533 -2.18,3.32 -3.24,5 -6.34134,-10.3867 -14.91467,-19.1733 -21.996,-29.04 -3.712,-5.1733 -6.844,-15.04 -13.70934,-16.9467 -0.02,-0.04 -0.0387,-0.08 -0.0587,-0.12 -0.312,-0.6 -0.97734,-0.52 -1.356,-0.1466 -0.13334,-0.013 -0.25734,-0.053 -0.39467,-0.053 -1.87467,-0.12 -3.64667,0.8 -5.17067,2.04 -0.38266,0.2667 -0.72666,0.5867 -1.044,0.9334 -0.724,0.7066 -1.37733,1.4533 -1.91733,2.16 -3.57333,4.6266 -6.61067,9.76 -9.596,14.7733 -1.28,2.16 -2.50267,4.3333 -3.692,6.5467 -2.528,3.2266 -4.25067,7 -5.45867,10.96 -2.392,5.24 -4.548,10.5866 -6.444,16.0266 -12.52399,35.9467 -12.17333,78.6934 4.33067,113.3334 10.49333,22.0266 28.54267,38.44 51.40667,46.84 12.832,4.7066 26.39733,7.56 39.928,9.32 12.81866,1.6533 26.276,2.2533 38.96133,-0.6534 0.148,-0.04 0.264,-0.1066 0.35733,-0.1733 0.636,-0.013 1.27467,-0.027 1.908,-0.04 0.352,0.6133 1.26,0.5467 1.54933,-0.067 2.36267,-0.093 4.70134,-0.2266 7.01067,-0.4266 0.36133,0.2266 0.856,0.2266 1.124,-0.1067 2.92933,-0.2667 5.812,-0.6 8.61467,-1.0267 0.168,-0.027 0.336,-0.053 0.50533,-0.08 16.79867,-0.3866 33.69467,-3.1733 50.21467,-6.04 12.99333,-2.2533 28.228,-3.76 39.304,-11.56 12.02133,-8.48 18.44666,-22.7866 22.31999,-36.5066 4.688,-16.6134 5.90667,-34.1867 6.09467,-51.3734 0.16667,-15.2133 -0.78267,-30.4266 -2.12533,-45.5733" style="fill:#577c69;fill-opacity:1;fill-rule:nonzero;stroke:none;stroke-width:0.133333"/><path id="path1455" d="m 484.64132,1782.0001 c -0.63467,-5.3334 -0.264,-10.7467 -0.42133,-16.0934 -0.39467,-13.4133 -1.35067,-26.8133 -2.34667,-40.2133 -0.96933,-13.04 -0.93733,-26.1733 -1.01467,-39.24 -0.0253,-4.4267 -0.59333,-8.5867 0.12667,-12.9467 0.316,-1.92 1.884,-7.8133 -0.75467,-7.6933 -2.784,0.12 -3.89466,0 -7.832,0 -2.01866,0 -3.22266,-0.5867 -3.6,1.56 -0.29733,1.6933 0.007,2.9733 -0.56533,6.16 -1.82133,10.1467 -1.816,16.6533 -2.45733,23.6933 -0.576,6.3467 -1.73467,12.64 -2.47867,18.9867 -1.98533,16.96 -2.16933,33.92 -2.86533,50.92 -0.35333,8.6267 -0.908,17.2667 -0.92933,25.9067 -0.009,3.7333 -2.008,10.1333 4.588,11.8933 5.09199,1.3467 12.67733,1.72 16.97733,-0.9867 4.27333,-2.68 4.472,-7.7866 4.516,-11.44 0.0427,-3.5066 -0.52667,-7.0133 -0.94267,-10.5066" style="fill:#534741;fill-opacity:1;fill-rule:nonzero;stroke:none;stroke-width:0.133333"/></g></svg>