<svg version="1.1" id="svg1" width="2000" height="2579.9468" viewBox="270.63146182081186 34.05676400000002 127.38499381242366 219.84698070525505" sodipodi:docname="styletrees.svg" inkscape:version="1.4.2 (f4327f4, 2025-05-13)" xmlns:inkscape="http://www.inkscape.org/namespaces/inkscape" xmlns:sodipodi="http://sodipodi.sourceforge.net/DTD/sodipodi-0.dtd" xmlns="http://www.w3.org/2000/svg" xmlns:svg="http://www.w3.org/2000/svg"><defs id="defs1"/><g><path id="path62" d="m 327.25999,176.25343 c -0.004,-0.62667 -0.98,-0.64 -0.976,0 0.0827,14.16 2.85734,27.90666 7.04134,41.38666 4.01333,12.93334 7.71866,26.33334 14.49466,38.14667 0.31333,0.54666 1.156,0.0533 0.84267,-0.49334 -0.64534,-1.12 -1.25334,-2.26666 -1.84534,-3.42666 0.296,-0.04 0.56534,-0.37334 0.38134,-0.72 -2.74534,-5.25333 -4.14534,-11.05333 -5.44,-16.8 -0.0733,-0.33333 -0.152,-0.65333 -0.22534,-0.98667 0.26934,0.66667 0.56267,1.30667 0.92,1.93334 0.31334,0.54666 1.156,0.0533 0.84134,-0.49334 -2.204,-3.84 -2.52134,-8.53333 -2.90534,-12.84 -0.408,-4.6 -1.08666,-9.12 -1.83066,-13.68 -1.884,-11.54666 -3.692,-23.22666 -3.736,-34.96 -10e-4,-0.62666 -0.97734,-0.62666 -0.976,0 0.0427,11.57334 1.796,23.09334 3.652,34.49334 0.828,5.08 1.54666,10.13333 2.01733,15.26666 0.092,1.01334 0.19067,2.04 0.316,3.08 -0.83867,-3.45333 -1.70133,-6.89333 -2.56667,-10.33333 -3.30666,-13.14667 -5.51066,-26.97333 -5.61333,-40.56 -0.005,-0.62667 -0.98133,-0.62667 -0.976,0 0.10267,13.68 2.34267,27.58667 5.648,40.82667 1.54,6.16 3.10667,12.30666 4.49333,18.50666 0.75067,3.36 1.55867,6.72 2.63334,10 -3.688,-8.82666 -6.34267,-18.14666 -9.184,-27.22666 -4.188,-13.37334 -6.92533,-27.06667 -7.00667,-41.12" style="fill:#577c69;fill-opacity:1;fill-rule:nonzero;stroke:none;stroke-width:0.133333"/><path id="path63" d="m 336.53066,171.12009 c -0.10934,6.88 1.22666,13.73334 1.67066,20.58667 0.40534,6.24 0.70534,12.54667 2.49467,18.58667 0.17867,0.6 1.12,0.34666 0.94133,-0.26667 -1.828,-6.16 -2.08933,-12.61333 -2.50266,-18.98667 -0.43067,-6.64 -1.73334,-13.25333 -1.628,-19.92 0.0107,-0.62666 -0.96534,-0.62666 -0.976,0" style="fill:#577c69;fill-opacity:1;fill-rule:nonzero;stroke:none;stroke-width:0.133333"/><path id="path64" d="m 340.43466,187.96009 c -0.02,-5.77333 -0.45067,-11.54666 -0.488,-17.32 -0.004,-0.62666 -0.98,-0.62666 -0.976,0 0.0387,5.77334 0.468,11.54667 0.488,17.32 10e-4,0.62667 0.97733,0.62667 0.976,0" style="fill:#577c69;fill-opacity:1;fill-rule:nonzero;stroke:none;stroke-width:0.133333"/><path id="path75" d="m 347.69466,236.44009 c -0.009,-0.94666 -0.0187,-1.89333 -0.0267,-2.84 0.18267,0.16 0.48133,0.16 0.664,-0.0133 0.028,-0.0267 0.0453,-0.0533 0.068,-0.08 -0.24933,0.96 -0.49067,1.94667 -0.70533,2.93333 z m 18.364,-1.33333 c -0.57334,0.46667 -1.144,0.93333 -1.72,1.4 -0.324,0.25333 -0.65867,0.49333 -0.98934,0.74667 0.444,-0.45334 0.88267,-0.92 1.316,-1.38667 0.46667,-0.24 0.93067,-0.50667 1.39334,-0.76 z m 15.968,-12.85333 c -0.072,0.22666 0.0787,0.46666 0.30266,0.56 -1.59866,1.32 -3.23866,2.61333 -4.91333,3.84 1.58933,-1.42667 3.12933,-2.89334 4.61067,-4.4 z m 0.69866,-0.70667 c 3.06267,-3.18667 5.864,-6.54667 8.352,-10.14667 -2.31733,3.70667 -5.01333,7.16 -8.352,10.14667 z m -25.79066,-48.88 c -1.624,10.05333 -3.54134,20.04 -5.23067,30.08 -0.904,5.37333 -1.70133,10.76 -2.45467,16.14667 -0.348,2.50666 -0.68133,5 -1.00933,7.49333 -0.19333,1.48 -0.38267,2.94667 -0.57067,4.42667 -0.005,0.04 -0.0147,0.08 -0.0213,0.12 -0.0253,-3.50667 -0.0333,-7.04 0.0253,-10.56 0.132,-7.88 0.81334,-15.72 1.72534,-23.54667 0.92533,-7.96 2.10666,-15.89333 3.58533,-23.76 1.33467,-7.10667 2.016,-14.53333 4.836,-21.25333 0.244,-0.57334 -0.70133,-0.82667 -0.94133,-0.25334 -2.736,6.52 -3.37067,13.65334 -4.7,20.53334 -1.488,7.70666 -2.63334,15.48 -3.58267,23.28 -0.74133,6.08 -1.332,12.16 -1.656,18.26666 -0.10133,-4.56 -0.17467,-9.12 -0.15733,-13.68 0.0253,-6.41333 0.244,-12.81333 0.62533,-19.21333 0.19867,-3.34667 0.40533,-6.69333 0.95467,-10.01333 0.51333,-3.09334 1.16266,-6.14667 1.34266,-9.28 0.036,-0.64 -0.94,-0.62667 -0.976,0 -0.188,3.28 -0.888,6.49333 -1.42533,9.73333 -0.484,2.92 -0.63733,5.88 -0.82667,8.82667 -0.40933,6.38666 -0.61333,12.8 -0.66533,19.2 -0.108,13.22666 0.61867,26.44 0.64,39.65333 0,0.22667 0.128,0.36 0.28933,0.42667 0.0147,1.6 0.0307,3.18666 0.036,4.77333 0.001,0.26667 0.17067,0.41333 0.368,0.45333 0.10134,0.25334 0.368,0.36 0.59734,0.32 -0.10534,0.24 -0.208,0.48 -0.29734,0.73334 -0.14,0.38666 0.212,0.61333 0.53334,0.57333 -0.005,0.0133 -0.0107,0.0267 -0.016,0.04 -0.016,0 -0.0307,0 -0.0467,0 -0.47867,-0.04 -0.58667,0.52 -0.33733,0.81333 -0.23334,0.45333 -0.472,0.92 -0.73467,1.37333 -0.31467,0.54667 0.528,1.04 0.84267,0.49334 0.32133,-0.54667 0.62,-1.12 0.9,-1.69334 1.06933,-0.0133 2.096,-0.24 3.084,-0.62666 -0.04,0.30666 0.20666,0.66666 0.604,0.6 10.61733,-1.86667 21.35733,-3.49333 31.34666,-7.73333 10.04534,-4.25334 18.19467,-11.69334 25.46134,-19.65334 7.42266,-8.14666 13.252,-17.05333 17.81066,-27.08 3.86667,-8.50666 6.88934,-17.44 9.97334,-26.25333 3.26,-9.32 7.064,-19.66667 6.50666,-29.70667 -0.0347,-0.62666 -1.01066,-0.62666 -0.976,0 0.492,8.86667 -2.60133,17.94667 -5.372,26.24 -3.00533,9 -6.17866,18.06667 -9.90266,26.78667 -4.46,10.45333 -10.272,19.86667 -17.84534,28.33333 -7.45866,8.34667 -15.78133,15.96 -26.148,20.49334 -9.49333,4.14666 -19.908,5.69333 -30.05333,7.45333 2.084,-0.81333 4.29467,-1.28 6.43333,-1.92 2.84267,-0.84 5.6,-2.08 8.38667,-3.10667 5.38133,-1.96 10.75467,-3.92 15.92267,-6.4 4.776,-2.30666 9.58,-4.57333 13.856,-7.74666 4.15733,-3.08 7.508,-7.25334 10.59333,-11.36 6.84533,-9.13334 12.24267,-19.44 16.704,-29.90667 4.46133,-10.48 7.948,-21.49333 9.976,-32.70667 0.644,-3.56 1.036,-7.08 1.90267,-10.61333 0.65333,-2.66667 1.132,-6.22667 2.70266,-8.54667 0.35334,-0.52 -0.492,-1.01333 -0.84266,-0.49333 -1.48267,2.18667 -1.948,5.42667 -2.58934,7.93333 -0.85733,3.34667 -1.35466,6.62667 -1.87733,10.04 -1.752,11.44 -5.46133,22.70667 -9.89467,33.36 -4.452,10.70667 -10.032,21.10667 -16.924,30.44 -3.488,4.72 -7.40933,9.18667 -12.31066,12.46667 -4.44134,2.98667 -9.43334,5.25333 -14.288,7.45333 -5.16134,2.36 -10.55867,4.16 -15.87067,6.12 -2.296,0.85334 -4.544,1.81334 -6.90133,2.48 -0.58667,0.16 -1.17334,0.32 -1.75867,0.48 3.54,-2.85333 8.18667,-4.26666 12.348,-5.89333 5.13067,-2.02667 10.28267,-3.98667 15.13467,-6.64 8.764,-4.77333 16.6,-11.97333 22.78266,-19.74667 6.67867,-8.4 10.536,-18.21333 14.87067,-27.92 4.09867,-9.17333 8.476,-18.54666 10.64133,-28.41333 1.916,-8.70667 2.94934,-17.6 4.71067,-26.33333 0.12267,-0.61334 -0.81733,-0.88 -0.94133,-0.26667 -1.49334,7.41333 -2.492,14.93333 -3.90267,22.36 -1.83067,9.64 -5.41867,18.64 -9.332,27.61333 -4.372,10.01334 -8.30933,20.50667 -14.64933,29.48 -6.00134,8.49334 -14.03067,15.93334 -22.89467,21.36 -5.412,3.32 -11.43733,5.49334 -17.31867,7.81334 -2.304,0.90666 -4.732,1.76 -7.036,2.82666 0.21734,-0.14666 0.43334,-0.29333 0.65067,-0.44 8.78,-4.42666 17.92133,-8.21333 26.01467,-13.86666 7.864,-5.49334 14.48933,-12.76 19.43466,-20.96 2.56267,-4.24 4.46134,-8.76 6.34,-13.34667 2.26934,-5.52 4.95467,-10.86667 7.50134,-16.26667 4.36266,-9.24 7.688,-18.72 10.19866,-28.62666 1.62134,-6.4 2.916,-13 2.96134,-19.62667 0.004,-0.62667 -0.972,-0.62667 -0.976,0 -0.0693,10.04 -2.88134,19.98667 -5.784,29.52 -3.34134,10.97333 -8.79067,21.01333 -13.43334,31.46667 -2.14,4.8 -3.94,9.72 -6.47866,14.36 -2.40934,4.38666 -5.33734,8.49333 -8.65867,12.24 -7.17867,8.10666 -16.14,13.73333 -25.768,18.49333 -2.24267,1.10667 -4.5,2.18667 -6.75333,3.28 1.88133,-1.48 3.72933,-3.01333 5.54533,-4.58667 6.556,-4.14666 12.70533,-8.97333 18.196,-14.41333 7.49333,-7.42667 12.65733,-16.48 16.80667,-26.10667 3.62666,-8.4 6.63333,-17.06666 10.28266,-25.46666 3.448,-7.93334 6.77334,-15.93334 9.17467,-24.25334 2.09467,-7.26666 3.564,-15.02666 2.64533,-22.6 -0.0747,-0.61333 -1.05066,-0.61333 -0.976,0 1.11734,9.21334 -1.26266,18.54667 -4.12933,27.24 -2.608,7.90667 -6.032,15.48 -9.28533,23.13334 -3.92934,9.22666 -7.04267,18.78666 -11.46667,27.81333 -4.064,8.28 -9.43067,15.41333 -16.01333,21.66667 4.47466,-5.02667 7.67866,-10.98667 10.56133,-17.14667 4.04667,-8.62667 7.95733,-17.22667 11.168,-26.21333 1.68267,-4.70667 3.71467,-9.16 5.71067,-13.73334 1.97733,-4.53333 3.00266,-9.41333 4.27866,-14.17333 2.68934,-10.01333 4.72,-20.05333 5.92667,-30.36 0.0733,-0.62667 -0.90267,-0.61333 -0.976,0 -1.19467,10.21333 -3.17067,20.18667 -5.89067,30.10667 -1.34666,4.90666 -2.408,9.86666 -4.44933,14.54666 -1.84667,4.24 -3.75867,8.30667 -5.30267,12.68 -2.27066,6.42667 -4.916,12.62667 -7.70266,18.8 2.42,-6.65333 4.25333,-13.53333 5.95733,-20.38666 1.55333,-6.24 3.29467,-12.42667 4.98533,-18.64 2.324,-8.53334 4.44667,-17.14667 5.88534,-25.89334 1.26133,-7.65333 2.27333,-15.85333 0.62,-23.53333 -0.132,-0.61333 -1.07334,-0.34666 -0.94134,0.26667 1.616,7.49333 0.58667,15.53333 -0.62,23.01333 -1.336,8.29333 -3.35333,16.46667 -5.528,24.57333 -1.628,6.06667 -3.412,12.08 -4.90666,18.18667 -2.51867,10.28 -5.264,20.58667 -9.71334,30.24 -4.484,9.72 -11.19733,17.61333 -19.08533,24.74667 -1.95467,1.77333 -3.94267,3.52 -5.95733,5.22666 -1.33867,0.85334 -2.69867,1.65334 -4.072,2.44 1.416,-1.61333 2.79333,-3.25333 4.15866,-4.89333 6.70934,-8.06667 13.52667,-15.8 18.61334,-25.05333 7.668,-13.93334 12.15066,-29.62667 15.08666,-45.2 2.19067,-11.61334 3.9,-23.33334 5.03734,-35.09334 0.59066,-6.10666 1,-12.23999 1.02133,-18.37333 0.0173,-4.76 -0.15333,-9.653331 -1.30267,-14.293331 -0.15066,-0.613333 -1.092,-0.36 -0.94133,0.253333 1.508,6.093333 1.38667,12.599998 1.176,18.826668 -0.26667,7.93333 -1.07333,15.85333 -2.06133,23.72 -1.58267,12.61333 -3.48667,25.33333 -6.748,37.62666 -3.888,14.65334 -9.192,28.96 -17.968,41.44 -2.31467,3.29334 -4.936,6.32 -7.54134,9.37334 -2.71333,3.18666 -5.324,6.45333 -8.05066,9.62666 -1.03067,1.2 -2.09067,2.37334 -3.17067,3.53334 -0.23867,0.12 -0.47333,0.25333 -0.712,0.38666 -0.25467,0.13334 -0.284,0.37334 -0.19467,0.57334 -1.21466,1.26666 -2.47066,2.49333 -3.76666,3.66666 -0.41467,0.21334 -0.832,0.41334 -1.244,0.64 -0.224,0.12 -0.272,0.32 -0.22,0.50667 -0.796,0.48 -1.596,0.96 -2.39867,1.42667 1.42533,-1.30667 2.76133,-2.70667 4.052,-3.94667 4.10667,-3.92 7.50933,-8.53333 11.19333,-12.84 6.58267,-7.70667 12.30934,-16 16.252,-25.37333 2.232,-5.30667 3.784,-10.90667 5.452,-16.41334 1.76134,-5.81333 3.368,-11.66666 4.612,-17.61333 1.06134,-5.08 1.88,-10.22667 2.784,-15.33333 1.81867,-10.28 3.504,-20.58667 4.84,-30.94667 1.17867,-9.13333 2.60934,-18.77333 1.62134,-27.986664 -0.0667,-0.626667 -1.04267,-0.626667 -0.976,0 0.65066,6.066666 0.0613,12.293334 -0.52,18.333334 -0.76134,7.92 -1.88534,15.78666 -3.11067,23.64 -2.03333,13.04 -3.98267,26.33333 -7.22667,39.13333 -3.66266,14.44 -7.936,29 -16.356,41.45333 -4.11333,6.08 -9.02666,11.61334 -13.736,17.22667 -2.29866,2.74667 -4.71866,5.34667 -7.37466,7.74667 -1.91867,1.73333 -3.77867,3.8 -6.03467,5.14666 -0.10267,-0.0267 -0.21733,-0.0133 -0.33467,0.0667 -0.172,0.12 -0.32266,0.24 -0.46,0.36 -0.22933,0.10667 -0.468,0.21333 -0.70666,0.30667 0.36,-0.86667 0.68533,-1.76 0.99333,-2.64 0.412,-0.53334 0.812,-1.06667 1.20267,-1.6 1.924,-1.94667 4.22933,-3.62667 6.076,-5.48 3.87733,-3.92 7.392,-8.22667 10.56533,-12.73334 6.29067,-8.93333 11.20267,-18.98666 14.48533,-29.38666 1.76934,-5.61334 2.872,-11.42667 4.33334,-17.12 1.53066,-5.97334 3.11866,-11.93334 4.292,-17.98667 1.21466,-6.26667 2.74933,-12.49333 3.69466,-18.81333 1.616,-10.8 3.056,-21.61334 4.38667,-32.45333 1.628,-13.240005 3.264,-26.573338 3.71733,-39.920004 0.088,-2.586666 0.132,-5.2 -0.0973,-7.786666 -0.0547,-0.626667 -1.032,-0.626667 -0.976,0 0.41467,4.68 0.0773,9.453333 -0.22667,14.133333 -0.43733,6.733333 -1.108,13.466666 -1.836,20.173332 -1.41733,13.066665 -3.11866,26.106665 -4.96666,39.106665 -0.41734,2.94667 -0.82267,5.88 -1.3,8.81333 -0.744,4.56 -2.04934,9.02667 -2.82134,13.58667 -1.02933,6.08 -2.52666,12.05333 -4.068,18.01333 -1.496,5.78667 -2.716,11.66667 -4.31466,17.42667 -1.52934,5.52 -3.61467,10.86667 -6.06534,16.04 -4.94,10.42667 -11.50133,19.90667 -19.49333,28.21333 -0.976,1.01334 -2.06533,1.96 -3.15733,2.89334 1.50666,-2.29334 2.98133,-4.61334 4.668,-6.76 3.44133,-4.38667 6.91866,-8.74667 9.86666,-13.49334 5.49334,-8.84 8.77067,-18.73333 11.408,-28.74666 3.00134,-11.38667 5.156,-22.94667 7.19334,-34.54667 2.84,-16.14667 5.32933,-32.37333 7.396,-48.65333 1.968,-15.480001 3.71733,-31.120001 3.86533,-46.746667 0.007,-0.746667 0.007,-1.493333 0.003,-2.24 -0.003,-0.64 -0.97867,-0.64 -0.976,0 0.0747,15.333333 -1.62134,30.693333 -3.48267,45.893337 -2.03733,16.65333 -4.57733,33.23999 -7.444,49.75999 -1.964,11.32 -4.02533,22.62667 -6.848,33.77334 -2.63333,10.38666 -5.828,20.6 -11.27733,29.89333 -3.004,5.12 -6.732,9.76 -10.39334,14.41333 -1.524,1.93334 -3.01066,3.88 -4.34666,5.96 -0.676,1.04 -1.336,2.10667 -2.016,3.14667 0.48933,-1.58667 0.964,-3.18667 1.484,-4.76 1.32266,-4.01333 2.85333,-7.96 4.32133,-11.92 2.05867,-4.02667 4.01333,-8.12 5.976,-12.2 2.464,-5.12 4.79733,-10.30667 6.78,-15.64 2.12267,-5.70667 3.84933,-11.58667 5.672,-17.4 1.84667,-5.88 3.60933,-11.8 5.21867,-17.74667 1.57333,-5.82666 2.436,-11.74666 3.51866,-17.66666 0.516,-2.81334 1.01334,-5.64 1.488,-8.46667 2.17467,-12.96 4.04934,-25.98666 5.484,-39.039998 1.5,-13.653333 3.07734,-27.879999 1.47467,-41.599999 -0.072,-0.613333 -1.04933,-0.626666 -0.976,0 1.65733,14.186666 -0.056,28.919999 -1.63333,43.026666 -1.47334,13.186671 -3.408,26.320001 -5.636,39.400001 -0.60667,3.56 -1.284,7.10666 -1.87867,10.66666 -1.94267,11.6 -5.344,22.78667 -8.89067,34 -1.75466,5.53334 -3.44,11.12 -5.53066,16.54667 -2.09867,5.44 -4.612,10.72 -7.16267,15.97333 -0.43067,0.88 -0.86267,1.76 -1.29333,2.64 1.53066,-4.86666 2.74133,-9.81333 4.04933,-14.76 1.54933,-5.86666 3.22933,-11.69333 4.80533,-17.54666 3.22267,-11.97334 5.60667,-24.17334 7.86267,-36.36 2.82133,-15.24 5.224,-30.57334 6.972,-45.97333 1.83467,-16.160004 3.104,-32.586671 1.992,-48.840003 -0.0427,-0.626667 -1.01867,-0.626667 -0.976,0 1.2,17.533332 -0.34933,35.253332 -2.43867,52.666663 -1.936,16.12 -4.596,32.16 -7.66533,48.12 -2.27067,11.78667 -4.83333,23.46667 -8.028,35.04 -2.88933,10.48 -5.29067,21.14667 -8.85467,31.42667 -0.34666,1 -0.708,1.98666 -1.06933,2.98666 -0.86533,1.70667 -1.73867,3.41334 -2.63733,5.10667 -2.35467,4.44 -4.692,8.97333 -5.80267,13.90667 -0.13733,0.61333 0.80267,0.88 0.94133,0.25333 0.948,-4.21333 2.796,-8.10667 4.78667,-11.93333 -0.62,1.68 -1.232,3.37333 -1.81067,5.06666 -0.83466,2.45334 -1.52266,4.96 -2.34133,7.4 -0.616,0.74667 -1.16267,1.53334 -1.61333,2.4 -0.55067,-4.73333 1.03466,-9.64 2.28133,-14.16 1.56267,-5.65333 2.83733,-11.34666 4.05333,-17.09333 1.21867,-5.74667 2.692,-11.42667 3.96534,-17.16 1.20666,-5.44 2.16933,-10.92 3.288,-16.38667 1.06133,-5.17333 2.28533,-10.30666 3.98666,-15.30666 0.404,-1.18667 0.67734,-2.42667 0.956,-3.65334 1.06267,-4.64 1.89067,-9.33333 2.69867,-14.02666 2.48533,-14.42667 4.468,-28.94667 6.024,-43.50667 1.556,-14.546664 2.87867,-29.319997 2.28533,-43.959997 -0.0973,-2.4 -0.27333,-4.8 -0.568,-7.186666 -0.076,-0.613334 -1.052,-0.626667 -0.976,0 1.65334,13.386666 0.47067,27.226666 -0.692,40.613332 -1.344,15.466671 -3.34,30.893331 -5.768,46.226661 -1.47466,9.32 -2.89733,18.72 -5.72,27.73334 -3.304,10.56 -4.60933,21.61333 -7.18133,32.34666 -2.69867,11.25334 -5.07333,22.57334 -8.01867,33.77334 -0.0747,-0.12 -0.212,-0.2 -0.36,-0.22667 0.048,-0.94667 0.44534,-2.30667 0.52,-2.89333 0.15867,-1.22667 0.31867,-2.45334 0.48,-3.68 0.38134,-2.90667 0.77734,-5.8 1.188,-8.70667 0.728,-5.14667 1.52,-10.28 2.39067,-15.41333 1.66,-9.76 3.51067,-19.48 5.09067,-29.26667 1.19066,-7.37333 3.24266,-14.53333 4.64,-21.86667 0.67733,-3.56 1.352,-7.10666 2.18,-10.64 0.72,-3.06666 1.504,-6.28 3.052,-9.04 0.308,-0.54666 -0.53467,-1.04 -0.84267,-0.49333 -3.21867,5.74667 -4.02133,13.04 -5.236,19.41333 -1.47067,7.72 -3.588,15.26667 -4.84133,23.02667" style="fill:#577c69;fill-opacity:1;fill-rule:nonzero;stroke:none;stroke-width:0.133333"/><path id="path76" d="m 443.29466,178.36009 c 4.24666,-10.94666 11.03466,-22.8 9.004,-34.93333 -0.104,-0.61333 -1.04534,-0.36 -0.94134,0.26667 1.12667,6.72 -0.94933,13.73333 -3.188,20.02666 -1.812,5.10667 -4.12133,10.01334 -6.08,15.05334 -3.33066,8.57333 -6.53333,17.32 -11.00133,25.38666 -2.15333,3.88 -4.63333,7.64 -7.62133,10.93334 -2.68267,2.96 -5.64667,5.62666 -7.98667,8.89333 -0.36667,0.50667 0.48,1 0.84267,0.49333 2.54133,-3.54666 5.83866,-6.41333 8.70933,-9.68 2.852,-3.22666 5.14933,-6.98666 7.23333,-10.74666 4.50534,-8.13334 7.672,-17.05334 11.02934,-25.69334" style="fill:#577c69;fill-opacity:1;fill-rule:nonzero;stroke:none;stroke-width:0.133333"/><path id="path164" d="m 353.60799,249.44009 c -0.009,6.90667 -0.22933,13.86667 2.45733,20.37333 0.23734,0.57334 1.18134,0.32 0.94134,-0.25333 -2.65467,-6.42667 -2.432,-13.29333 -2.42267,-20.12 0.001,-0.62667 -0.97467,-0.62667 -0.976,0" style="fill:#577c69;fill-opacity:1;fill-rule:nonzero;stroke:none;stroke-width:0.133333"/><path id="path165" d="m 352.16266,248.09342 c -0.69467,4.26667 -0.16934,8.49334 0.732,12.69334 0.132,0.61333 1.072,0.36 0.94,-0.25334 -0.86134,-4.02666 -1.396,-8.09333 -0.732,-12.18666 0.1,-0.61334 -0.84,-0.88 -0.94,-0.25334" style="fill:#577c69;fill-opacity:1;fill-rule:nonzero;stroke:none;stroke-width:0.133333"/><path id="path207" d="m 328.20266,83.746762 c -9.62667,12.88 -24.31867,22.839998 -40.024,26.466668 -0.003,0 -0.004,0 -0.007,0 -0.0627,0.0133 -0.12,0.04 -0.17066,0.08 -0.003,0 -0.005,0 -0.007,0 -0.104,0.08 -0.17867,0.2 -0.17867,0.37333 -0.0267,14.78667 -1.60933,29.76 -3.59066,44.4 -0.932,6.89333 -2.26667,13.73333 -3.456,20.58667 -0.91867,5.28 -2.00134,10.94666 -4.21867,15.98666 -1.64133,1.86667 -3.76267,3.97334 -4.61467,6.36 -0.12666,0.30667 -0.216,0.64 -0.268,0.98667 -0.004,0.0133 -0.0107,0.04 -0.0147,0.0667 -0.003,0 0.001,0.0133 0,0.0267 -0.005,0.0267 -0.0147,0.0667 -0.0187,0.10667 -0.008,0.08 0.004,0.14667 0.028,0.21333 -0.088,0.41334 0.43867,0.82667 0.79733,0.45334 0.172,0.17333 0.448,0.22666 0.65867,0 0.068,-0.08 0.14,-0.14667 0.20667,-0.21334 0.144,0.0267 0.304,0.0133 0.444,-0.12 3.88266,-3.56 8.73866,-5.70666 13.228,-8.36 4.33733,-2.57333 7.97866,-6.02666 11.27866,-9.81333 3.39334,-3.89333 6.34534,-8.16 9.21334,-12.45333 3.00933,-4.49334 5.78133,-9.02667 7.91866,-14.01334 2.87867,-6.72 4.80134,-13.84 6.61334,-20.90666 1.92666,-7.50667 3.652,-15.10667 4.732,-22.8 0.448,-3.18667 0.788,-6.42667 0.66933,-9.65333 -0.0227,-0.62667 -0.99867,-0.62667 -0.976,0 0.28267,7.66666 -1.504,15.47999 -3.14533,22.91999 -1.27734,5.78667 -2.74134,11.53334 -4.384,17.24 -1.53734,5.33334 -3.29334,10.6 -5.66667,15.62667 -2.292,4.86667 -5.356,9.30667 -8.37867,13.72 -3.10933,4.54667 -6.43733,8.96 -10.30533,12.89333 -3.78667,3.85334 -8.17733,6.52 -12.872,9.10667 -0.68267,0.37333 -1.36133,0.74667 -2.03467,1.14667 1.29467,-0.96 2.612,-1.88 3.916,-2.82667 3.65867,-2.64 6.83867,-5.58667 9.668,-9.10667 5.72667,-7.13333 9.89334,-15.46666 13.296,-23.92 6.26,-15.53333 10.98934,-32.8 9.74134,-49.67999 -0.0453,-0.62667 -1.02267,-0.64 -0.976,0 1.23333,16.69333 -3.44534,33.65333 -9.55467,49.03999 -3.432,8.65334 -7.75467,17.09334 -13.6,24.37334 -2.908,3.61333 -6.32133,6.48 -10.084,9.18666 -2.46267,1.76 -4.944,3.50667 -7.19867,5.52 0.284,-0.42666 0.556,-0.86666 0.81467,-1.30666 0.83067,-0.62667 1.736,-1.17334 2.55867,-1.77334 1.91466,-1.41333 3.66666,-3.10666 5.36933,-4.76 3.76,-3.64 6.75067,-7.8 9.50267,-12.22666 5.72933,-9.22667 10.61066,-19.36 12.96,-30.01334 0.85066,-3.84 1.864,-8 2.00533,-11.94666 0.0947,-2.62667 -0.11867,-5.28 -0.23333,-7.90667 -0.14534,-3.34667 -0.28534,-6.69333 -0.25467,-10.05333 0.016,-1.82667 -0.33333,-5.25333 0.936,-6.77333 0.4,-0.48 -0.28667,-1.17334 -0.68933,-0.69334 -1.116,1.33334 -1.07067,3.62667 -1.15867,5.25333 -0.17467,3.24 -0.0387,6.50667 0.0853,9.74667 0.116,2.98667 0.29334,5.96 0.344,8.94667 0.064,3.74666 -0.85866,7.52 -1.564,11.17333 -2.14666,11.13333 -7.064,21.52 -12.90666,31.17333 -2.90267,4.8 -6.15734,9.18667 -10.18934,13.09334 -1.388,1.34666 -2.82933,2.66666 -4.36266,3.86666 0.768,-0.93333 1.51733,-1.86666 2.24266,-2.84 2.87734,-3.81333 5.38534,-7.94666 7.86267,-12.02666 4.23733,-6.98667 7.62933,-14.10667 8.97867,-22.2 2.43733,-14.61334 0.684,-29.56 2.77733,-44.18667 0.088,-0.61333 -0.852,-0.88 -0.94133,-0.26666 -2.11867,14.81333 -0.396,29.91999 -2.86134,44.70666 -1.41866,8.50667 -5.4,15.96 -9.89466,23.24 -1.56667,2.53333 -3.16534,5.06667 -4.85467,7.52 1.156,-2.18667 2.05733,-4.54667 2.90667,-6.84 2.924,-7.92 4.564,-16.44 5.75733,-24.78667 2.03333,-14.22666 3.27867,-28.82666 3.304,-43.19999 0,-0.62667 -0.97467,-0.62667 -0.976,0 -0.024,14.29333 -1.28267,28.79999 -3.26933,42.94666 -1.17467,8.36 -2.90534,16.81333 -5.75734,24.77333 -1.24266,3.46667 -2.71333,6.68 -4.76933,9.62667 1.29333,-3.73333 2.11867,-7.68 2.82667,-11.48 1.34266,-7.22667 2.67733,-14.49333 3.68666,-21.76 2.04667,-14.74667 3.63067,-29.85333 3.68267,-44.76 15.49333,-3.66666 29.616,-13.359998 39.43333,-25.773331 5.10934,-6.466666 8.6,-13.72 10.62133,-21.693333 2.304,-9.106666 3.05734,-18.586666 6.74667,-27.306666 0.23333,-0.56 -0.57733,-1.04 -0.812,-0.48 -3.37067,7.973333 -4.40667,16.56 -6.23733,24.946666 -1.84534,8.453333 -5.15334,16.08 -10.336,23.026666" style="fill:#577c69;fill-opacity:1;fill-rule:nonzero;stroke:none;stroke-width:0.133333"/><path id="path208" d="m 330.46266,84.040096 c -8.18933,12.239999 -21.232,19.213334 -34.27067,25.200004 -0.55066,0.25333 -0.072,1.06666 0.47467,0.81333 13.12267,-6.01333 25.86933,-13.000001 34.312,-25.106668 4.74666,-6.799999 7.72266,-14.799999 10.632,-22.519999 3.19466,-8.466667 5.96933,-17.333333 6.58,-26.413333 0.0413,-0.6 -0.9,-0.6 -0.94,0 -0.59067,8.786667 -3.28267,17.333333 -6.316,25.546666 -2.85067,7.733333 -5.872,15.6 -10.472,22.48" style="fill:#577c69;fill-opacity:1;fill-rule:nonzero;stroke:none;stroke-width:0.133333"/><path id="path209" d="m 342.17732,77.666763 c -4.56133,6.813333 -10.10533,12.973333 -16.20533,18.453332 -5.03866,4.520005 -11.00266,10.666665 -18.37066,10.013335 -0.604,-0.0533 -0.59867,0.89333 0,0.93333 7.104,0.62667 12.98666,-4.84 17.88133,-9.253331 6.24267,-5.613333 11.92,-11.68 16.74933,-18.573333 8.73467,-12.453333 14.176,-28.399999 13.068,-43.733332 -0.0427,-0.6 -0.98267,-0.6 -0.94,0 1.06667,14.773333 -4.03867,29.986666 -12.18267,42.159999" style="fill:#577c69;fill-opacity:1;fill-rule:nonzero;stroke:none;stroke-width:0.133333"/><path id="path229" d="m 371.06132,89.333429 c -0.024,-15.253333 -1.45733,-30.453333 -1.524,-45.706666 -0.003,-0.626666 -0.97866,-0.626666 -0.97466,0 0.0653,15.253333 1.49866,30.453333 1.52266,45.706666 10e-4,0.626667 0.97734,0.626667 0.976,0" style="fill:#577c69;fill-opacity:1;fill-rule:nonzero;stroke:none;stroke-width:0.133333"/></g></svg>