<svg version="1.1" id="svg1" width="2000" height="2579.9468" viewBox="1222.8828044160114 523.81413523176 10.553779731262466 20.523156587340736" sodipodi:docname="styletrees.svg" inkscape:version="1.4.2 (f4327f4, 2025-05-13)" xmlns:inkscape="http://www.inkscape.org/namespaces/inkscape" xmlns:sodipodi="http://sodipodi.sourceforge.net/DTD/sodipodi-0.dtd" xmlns="http://www.w3.org/2000/svg" xmlns:svg="http://www.w3.org/2000/svg"><defs id="defs1"/><g><path id="path1079" d="m 1223.892,531.42675 c 0.6413,4.22667 1.7453,8.34667 2.9906,12.42667 0.26,0.85333 1.592,0.48 1.332,-0.36 -1.2466,-4.09334 -2.3506,-8.2 -2.9906,-12.42667 -0.1334,-0.88 -1.464,-0.50667 -1.332,0.36 v 0" style="fill:#577c69;fill-opacity:1;fill-rule:nonzero;stroke:none;stroke-width:0.133333"/><path id="path1080" d="m 1228.2386,530.78675 c 0.4454,3.93333 1.5867,7.69333 2.7867,11.45333 0.2693,0.85334 1.6013,0.49334 1.3307,-0.36 -1.1587,-3.64 -2.3067,-7.28 -2.736,-11.09333 -0.099,-0.88 -1.48,-0.88 -1.3814,0 v 0" style="fill:#577c69;fill-opacity:1;fill-rule:nonzero;stroke:none;stroke-width:0.133333"/><path id="path1119" d="m 1231.7146,525.68008 c 0.4494,1.76 0.3947,3.54667 0.2054,5.33334 -0.092,0.88 1.2893,0.88 1.3813,0 0.2013,-1.92 0.224,-3.82667 -0.2547,-5.70667 -0.22,-0.86667 -1.552,-0.49333 -1.332,0.37333 v 0" style="fill:#577c69;fill-opacity:1;fill-rule:nonzero;stroke:none;stroke-width:0.133333"/><path id="path1079" d="m 1223.892,531.42675 c 0.6413,4.22667 1.7453,8.34667 2.9906,12.42667 0.26,0.85333 1.592,0.48 1.332,-0.36 -1.2466,-4.09334 -2.3506,-8.2 -2.9906,-12.42667 -0.1334,-0.88 -1.464,-0.50667 -1.332,0.36 v 0" style="fill:#577c69;fill-opacity:1;fill-rule:nonzero;stroke:none;stroke-width:0.133333"/><path id="path1080" d="m 1228.2386,530.78675 c 0.4454,3.93333 1.5867,7.69333 2.7867,11.45333 0.2693,0.85334 1.6013,0.49334 1.3307,-0.36 -1.1587,-3.64 -2.3067,-7.28 -2.736,-11.09333 -0.099,-0.88 -1.48,-0.88 -1.3814,0 v 0" style="fill:#577c69;fill-opacity:1;fill-rule:nonzero;stroke:none;stroke-width:0.133333"/><path id="path1119" d="m 1231.7146,525.68008 c 0.4494,1.76 0.3947,3.54667 0.2054,5.33334 -0.092,0.88 1.2893,0.88 1.3813,0 0.2013,-1.92 0.224,-3.82667 -0.2547,-5.70667 -0.22,-0.86667 -1.552,-0.49333 -1.332,0.37333 v 0" style="fill:#577c69;fill-opacity:1;fill-rule:nonzero;stroke:none;stroke-width:0.133333"/></g></svg>