<svg version="1.1" id="svg1" width="2000" height="2579.9468" viewBox="1129.2293050832698 543.5742363071001 5.576976493552138 17.11555554984443" sodipodi:docname="styletrees.svg" inkscape:version="1.4.2 (f4327f4, 2025-05-13)" xmlns:inkscape="http://www.inkscape.org/namespaces/inkscape" xmlns:sodipodi="http://sodipodi.sourceforge.net/DTD/sodipodi-0.dtd" xmlns="http://www.w3.org/2000/svg" xmlns:svg="http://www.w3.org/2000/svg"><defs id="defs1"/><g><path id="path1072" d="m 1133.784,544.68008 c -4.3387,2.70667 -2.6814,10.92 -3.5387,15.14667 -0.176,0.86667 1.1547,1.24 1.332,0.36 0.4053,-2 0.4267,-4.06667 0.5493,-6.10667 0.1427,-2.36 0.04,-6.76 2.3547,-8.2 0.7533,-0.46666 0.061,-1.66666 -0.6973,-1.2 v 0" style="fill:#577c69;fill-opacity:1;fill-rule:nonzero;stroke:none;stroke-width:0.133333"/><path id="path1072" d="m 1133.784,544.68008 c -4.3387,2.70667 -2.6814,10.92 -3.5387,15.14667 -0.176,0.86667 1.1547,1.24 1.332,0.36 0.4053,-2 0.4267,-4.06667 0.5493,-6.10667 0.1427,-2.36 0.04,-6.76 2.3547,-8.2 0.7533,-0.46666 0.061,-1.66666 -0.6973,-1.2 v 0" style="fill:#577c69;fill-opacity:1;fill-rule:nonzero;stroke:none;stroke-width:0.133333"/></g></svg>