<svg version="1.1" id="svg1" width="2000" height="2579.9468" viewBox="1643.6246164790512 1641.8076862998066 330.0877543178285 863.2283424795862" sodipodi:docname="styletrees.svg" inkscape:version="1.4.2 (f4327f4, 2025-05-13)" xmlns:inkscape="http://www.inkscape.org/namespaces/inkscape" xmlns:sodipodi="http://sodipodi.sourceforge.net/DTD/sodipodi-0.dtd" xmlns="http://www.w3.org/2000/svg" xmlns:svg="http://www.w3.org/2000/svg"><defs id="defs1"/><g><path id="path1448" d="m 1767.0133,1852.3067 c -6.2533,-1.8933 -13.6933,-2.0933 -20.12,-2.7466 -11,-1.1334 -22.0933,-1.2534 -33.1467,-1.0934 -21.92,0.3467 -43.76,2.3867 -65.6666,2.96 -0.3734,-4.52 -0.36,-9.12 -0.2934,-13.6133 21.7867,0.3867 43.56,-0.2667 65.3334,-0.3467 10.48,-0.04 20.9466,0.1334 31.4133,0.5867 7.8133,0.3467 16.56,-1.7067 23.7733,2.2133 0.3467,0.2 0.6934,0.2267 1,0.1734 -0.1066,0.5866 -0.2,1.1866 -0.3066,1.7866 -0.56,3.1467 -1.2,6.56 -1.9867,10.08 z m -18.4667,36.16 c -27.8,-0.093 -55.3733,-3.8666 -83.1466,-3.9866 -0.067,0 -0.1067,0.027 -0.16,0.027 -2.6934,-2.08 -5.16,-4.4533 -7.3334,-7.1333 6.6134,-0.32 13.2,-1.3733 19.8667,-1.4267 8.4267,-0.067 16.8533,0.6934 25.28,1.0534 17.32,0.7466 35.8533,-0.5067 52.76,3.88 -2.08,2.92 -4.48,5.5066 -7.2667,7.5866 z m -52.72,7.2267 c -9.3866,-0.7867 -18.4533,-3.4933 -26.1466,-8.16 24.6933,0.4267 49.2266,3.44 73.9333,3.88 -7.12,3.2267 -16.0267,3.4 -23.5733,4.0933 -8.0534,0.72 -16.1467,0.8667 -24.2134,0.1867 z m -12.3333,-249.68 c 11.7467,-0.7733 23.6533,0.3867 35.2933,1.9867 13.4134,1.8266 26.8134,4.5333 38.7467,10.88 -14.8667,-3.52 -31.1867,-3.1734 -46.2133,-3.2 -19.0134,-0.027 -37.7867,3.04 -56.7467,3.4266 0.04,-0.24 0.013,-0.4533 -0.053,-0.64 4.8666,-10.1066 19.0133,-11.8133 28.9733,-12.4533 z m 90.48,29.48 c -21.0667,-5.4133 -42.8,-4.4667 -64.3733,-3.3867 -11.28,0.56 -22.56,1.0534 -33.8534,1.2934 -6.0533,0.1333 -12.0933,0.3466 -18.1333,0.7466 -2.4,0.16 -4.52,0.08 -6.5867,0.8134 0.5467,-4.32 1.3734,-8.6134 2.6134,-12.84 17.5733,-0.28 34.9866,-3 52.5733,-3.3867 17.8933,-0.3867 38.2133,-0.9067 55.4533,4.36 0.8,0.24 1.3867,-0.16 1.6667,-0.7333 0.2667,0.1733 0.5333,0.3333 0.8,0.52 4.7467,3.28 7.84,7.6533 9.84,12.6133 z m 1.4267,111.6533 c -22.1867,0.12 -44.2934,2.08 -66.48,2.3867 -11.1067,0.16 -22.2267,0.04 -33.32,0.52 -5.0267,0.2267 -10.04,0.5733 -15.0534,0.84 -4.16,0.2133 -8.5333,-0.2533 -12.6533,0.4133 0,-3.6133 0.013,-7.2266 0.027,-10.8266 21.7866,-0.12 43.5333,-1.48 65.2933,-2.36 11.2267,-0.4667 22.44,-0.64 33.6667,-0.64 9.8,0.013 19.6666,-1.04 29.4,-1 -0.2,3.5733 -0.4134,7.1466 -0.6534,10.7066 -0.08,-0.013 -0.1466,-0.04 -0.2266,-0.04 z m -1.9334,23.9334 c -0.2,-0.1467 -0.44,-0.2534 -0.7333,-0.2667 -4.8933,-0.3333 -9.28,-2.32 -13.9067,-3.7733 -4.56,-1.4134 -9.6666,-1.3734 -14.3866,-1.6267 -11.5067,-0.6533 -23.0534,-0.28 -34.5734,0.013 -12.0533,0.32 -24.1066,0.7734 -36.16,1.2267 -5.4533,0.2 -10.9466,0.6 -16.4,0.32 -3.2133,-0.1467 -6.2933,-0.3867 -9.4,0.1867 0,-2.5467 -0.013,-5.1067 -0.013,-7.6534 0,-1.72 0,-3.44 0,-5.16 4.76,-0.96 10.3333,-0.3333 15.16,-0.5866 5.0133,-0.2667 10.04,-0.5867 15.0533,-0.8134 11.12,-0.48 22.2667,-0.2933 33.4,-0.4533 21.32,-0.2933 42.56,-2.2267 63.8934,-2.3467 v 0 c -0.52,6.9867 -1.1467,13.9734 -1.9334,20.9334 z m -55.24,-113.7067 c -22.8133,0.6 -45.52,3.2267 -68.36,3.4267 0.04,-2.12 0.067,-4.24 0.093,-6.3467 0.013,-1.12 0.027,-2.24 0.04,-3.36 9.0133,-0.3333 18.0266,-2.12 27.08,-2.5333 11.0266,-0.4934 22.08,-0.5734 33.12,-0.7067 11.3066,-0.1467 22.6266,-0.067 33.9466,0.4 4.9867,0.2 9.9467,0.64 14.9067,1.1733 5.1467,0.5467 13.4133,0.053 17.92,2.84 0.12,0.08 0.24,0.1334 0.3733,0.1734 0.2,3.48 0.2267,7 0.1867,10.44 -18.7067,-6.2 -39.8667,-6.0267 -59.3067,-5.5067 z m -69.3066,32.56 c 0.04,-1 0.08,-2 0.1333,-3 3.1467,0.48 6.1467,0.04 9.36,-0.3867 5.6533,-0.7466 11.5867,-0.5066 17.2667,-0.52 11.1866,-0.04 22.2933,1.2934 33.4533,1.72 22.7867,0.88 45.4933,2.16 68.3067,2.0667 0,2.44 -0.013,4.88 -0.027,7.3333 -0.013,0 -0.013,0 -0.013,0 -21.64,0.053 -43.16,-1.9066 -64.8,-1.8266 -21.32,0.093 -42.6267,1.08 -63.9467,1.1466 0.093,-2.1733 0.1733,-4.3466 0.2667,-6.5333 z m 98.5866,-19.4933 c -11.12,-0.4267 -22.2533,-0.013 -33.3733,0.4133 -11.1067,0.4267 -22.2267,0.7467 -33.32,1.52 -5.9733,0.4133 -11.9467,0.9067 -17.92,1.2933 -4.4133,0.2934 -9.0133,-0.027 -13.36,0.72 0.1067,-3.5333 0.2133,-7.0666 0.28,-10.5866 22,-0.1867 43.8933,-2.4934 65.8533,-3.3467 20.1734,-0.7867 42.4667,-1.0533 61.8134,5.5733 -0.04,2.6534 -0.1067,5.24 -0.12,7.7067 -10,-0.6267 -19.8134,-2.8933 -29.8534,-3.2933 z m -98.08,6.9866 c 0.013,0 0.013,0 0.027,0 5.0667,-1.0533 10.8267,-0.5866 16,-0.92 5.12,-0.3466 10.24,-0.76 15.36,-1.1333 11.0933,-0.8 22.2133,-1.08 33.32,-1.52 11.12,-0.44 22.2533,-0.7333 33.3733,-0.4133 10.0534,0.2933 19.8534,2.6533 29.8667,3.2933 0.027,3.36 0.053,6.7067 0.053,10.08 -21.0933,0.08 -42.0266,-1.3333 -63.1066,-1.9067 -11.2,-0.3066 -22.32,-1.4933 -33.5067,-1.8266 -5.1333,-0.1467 -10.2533,-0.027 -15.3867,0.1066 -5.2133,0.16 -11.0933,1.7067 -16.2533,0.7334 0.093,-2.16 0.1733,-4.3334 0.2533,-6.4934 z m 62.5334,27.9734 c -21.4534,0.5466 -42.7867,1.1466 -63.7334,6.1733 0.08,-4.04 0.1867,-8.0667 0.32,-12.1067 21.36,-0.053 42.6934,-0.9866 64.0534,-1.1466 21.64,-0.1467 43.16,1.88 64.7866,1.8266 -0.027,3.0667 -0.08,6.1467 -0.1333,9.2134 -21.8533,-3.6934 -43.1067,-4.5334 -65.2933,-3.96 z m 64.8933,18.3866 c -42.7333,-6.2666 -85.84,-1.8666 -128.8,-1.6533 0.027,-2.4933 0.067,-4.9733 0.1067,-7.4667 20.9866,-5.16 42.3066,-5.68 63.8,-6.2666 21.28,-0.6 41.72,0.1866 62.6533,3.56 0.2533,0.3066 0.6133,0.5066 1.12,0.52 0.48,0 0.96,0 1.4533,0 -0.093,3.7733 -0.1866,7.5333 -0.3333,11.3066 z m -0.4267,9.6934 c -8.9866,-0.053 -18.0666,0.9733 -27.1066,1 -11.1734,0.027 -22.32,0.1333 -33.48,0.5333 -22.64,0.8267 -45.2534,2.3467 -67.92,2.4667 0.027,-4.12 0.04,-8.24 0.093,-12.3467 42.88,-0.2133 85.9867,-4.7333 128.6533,1.6267 0.027,0 0.04,-0.013 0.067,-0.013 -0.093,2.2534 -0.1867,4.4934 -0.3067,6.7334 z m -1.28,-94.68 c 0.96,3.2266 1.56,6.6533 1.92,10.1466 -1.8,-0.7866 -3.56,-0.9466 -5.72,-1.12 -5.7466,-0.4533 -11.48,-1.3333 -17.2133,-1.9066 -11.96,-1.1734 -24.08,-1.1467 -36.0933,-1.1334 -12.0134,0.027 -24.04,0.2667 -36.0667,0.6 -10.6667,0.2934 -21.2933,2.3334 -31.8933,2.6934 0.093,-3.2 0.2666,-6.4 0.56,-9.5734 3.6933,-2.3733 10.6,-1.6133 14.7333,-1.8 5.1867,-0.24 10.3733,-0.3066 15.5467,-0.4133 10.44,-0.2267 20.8666,-0.8 31.2933,-1.32 20.9333,-1.04 42.04,-1.7467 62.4533,3.7867 0.16,0.04 0.32,0.053 0.48,0.04 z m -17.6,199.4266 c -0.027,0 -0.053,-0.027 -0.093,-0.027 -15.8,-4.2934 -33.04,-3.48 -49.28,-4.0134 -9.3067,-0.2933 -18.5867,-1.04 -27.8933,-1.2266 -8.2667,-0.16 -16.36,1.32 -24.5467,1.4933 -1.6667,-2.4533 -3.08,-5.12 -4.2533,-8 8.6533,-0.093 17.2933,-0.5067 25.9466,-0.5333 9.44,-0.027 18.7734,1.3066 28.1867,1.8 9.6,0.5066 19.24,0.48 28.8533,0.88 9,0.3733 17.8934,1.9333 26.88,2.1866 -1.1066,2.6 -2.36,5.1067 -3.8,7.44 z m 4.96,-10.32 c -0.1466,-0.04 -0.28,-0.093 -0.44,-0.093 -9.24,-0.1867 -18.3733,-1.7467 -27.6,-2.2133 -9.6133,-0.48 -19.24,-0.4667 -28.8533,-0.88 -9.4267,-0.4134 -18.7467,-1.7067 -28.1867,-1.8 -9.0266,-0.08 -18.0533,0.48 -27.0666,0.5466 -0.96,-2.9333 -1.5734,-5.96 -1.9734,-9.04 20.9467,-0.56 41.8267,-2.3333 62.7734,-2.8933 10.2933,-0.28 20.5866,-0.1067 30.8533,0.6 7.7733,0.5467 16.7867,0.76 24.3333,3.1067 -1.0266,4.2133 -2.2666,8.5333 -3.84,12.6666 z m 7.2667,-30.2533 c -5.8533,-3.16 -12.6667,-2.8533 -19.1333,-2.6533 -10.7334,0.32 -21.5334,-0.4934 -32.28,-0.5334 -23.52,-0.1066 -47.0267,0.7734 -70.5334,0.3467 0,-0.12 0,-0.24 0,-0.3467 0.04,-3.2266 0.067,-6.44 0.08,-9.6533 20.9067,0 41.6267,-3.8133 62.5467,-2.3867 20.28,1.3734 40.3467,5.7334 60.6667,6.7067 -0.4267,2.84 -0.8667,5.68 -1.3467,8.52 z m 1.7867,-11.4667 c -0.053,-0.013 -0.1067,-0.04 -0.16,-0.04 -20.4134,-0.9466 -40.6,-5.0533 -60.9467,-6.72 -20.88,-1.72 -41.6667,2.36 -62.5467,2.3734 0.013,-3.8534 0.013,-7.7067 0,-11.56 3.6667,-0.84 7.4267,-0.36 11.1467,-0.1734 5.7067,0.28 11.56,-0.3066 17.2667,-0.52 11.1866,-0.4133 22.36,-0.8266 33.5466,-1.12 10.7067,-0.28 21.4134,-0.4933 32.12,-0.1333 6.1067,0.2133 12.2667,0.4667 18.12,2.2933 4.2534,1.3334 8.1334,2.92 12.6267,3.2267 0.16,0.013 0.28,-0.027 0.4267,-0.067 -0.4934,4.16 -1.0134,8.3067 -1.6,12.44 z m 8.64,-122.1066 c -0.12,-11.08 0.2266,-22.6134 -4.7334,-32.7734 -5.28,-10.8133 -17.7866,-16.48 -28.4666,-20.3066 -17.2534,-6.1867 -37.8667,-8.0534 -56.12,-8.1867 -13.64,-0.1067 -34.52,1.1333 -39.9334,16.4267 -0.1466,0.4266 -0.067,0.8 0.12,1.1066 -5.6666,18.1867 -3.8933,37.9067 -4.5866,56.7067 -0.5734,15.3333 -1.12,30.64 -1.4,45.96 -0.16,0.3867 -0.1734,0.8267 -0.027,1.2133 -0.093,5.7467 -0.16,11.5067 -0.16,17.2667 0,13.7067 -0.1067,27.4267 -0.1333,41.1467 -0.1734,0.4 -0.1867,0.8933 0,1.3066 -0.013,6.4534 -0.013,12.8934 0.04,19.3334 0.013,3.16 0.2,6.2666 0.5466,9.3066 -0.1066,0.4134 -0.053,0.8534 0.16,1.2267 1.08,8.0267 3.4667,15.52 7.7734,22.2 0.013,0.5867 0.32,1.1467 0.92,1.36 2.0666,2.96 4.5066,5.76 7.44,8.3467 10.36,9.1733 24.44,12.3733 37.88,13.2533 14.28,0.9333 31.7333,0.32 45.2133,-4.8667 1.8267,-0.6933 3.5067,-1.6266 5.08,-2.72 0.36,-0.093 0.6133,-0.3066 0.7867,-0.5866 9.5466,-7.1734 14.3733,-20.8534 17.5733,-31.5867 5.0133,-16.84 6.7467,-34.8267 8.56,-52.24 3.48,-33.56 4.0533,-67.36 3.4933,-101.0667 0.3334,-0.52 0.36,-1.28 -0.027,-1.8266" style="fill:#577c69;fill-opacity:1;fill-rule:nonzero;stroke:none;stroke-width:0.133333"/><path id="path1449" d="m 1933.44,1946.7467 c -16.8934,-9.48 -32.1067,-21.3733 -48,-32.4 -8.5334,-5.92 -17.48,-11.4133 -25.6934,-17.7733 -6.2266,-4.8133 -11.9866,-10 -19.12,-13.4533 1.68,-1.8667 3.4534,-3.6534 5.3334,-5.36 9.5866,3.5866 18.5866,8.7466 27.7866,13.2133 8.52,4.12 16.7867,8.76 24.8934,13.6267 8.16,4.9066 16.8133,9.9333 24.12,16.0666 5.16,4.3467 9.32,9.84 15.6666,12.52 -0.027,0.04 -0.04,0.093 -0.053,0.1333 -1.52,4.5067 -3.2,8.9734 -4.9333,13.4267 z m -6.2934,15.6533 c -0.9066,2.2 -1.8133,4.4 -2.7333,6.6134 -8.6,-5.7467 -15.16,-14.08 -23.3067,-20.4267 -8.2533,-6.4267 -17.5866,-11.3067 -26.92,-15.9467 -9.2666,-4.6266 -18.64,-8.96 -27.6266,-14.12 -7.3334,-4.2133 -13.2267,-10.7733 -21.4134,-13.2933 1.7734,-3.1066 3.6267,-6.1733 5.5734,-9.1466 15.76,11.3866 32.84,20.6399 49.6266,30.3866 8.1067,4.7067 16.08,9.6133 23.8,14.9067 8.2534,5.6533 15.7067,12.4933 24.5334,17.2533 -0.52,1.2667 -1.0267,2.52 -1.5334,3.7733 z m -54.1066,94.2534 c -0.44,0.48 -0.8934,0.96 -1.3334,1.4266 -1.9466,-1.96 -4.24,-3.5333 -6.2933,-5.48 -3.32,-3.1333 -6.7333,-6.08 -10.3867,-8.8266 -9.3333,-7 -19.08,-13.4667 -28.7466,-19.9867 -9.68,-6.5467 -19.1467,-13.3067 -28.4934,-20.3067 -4.1866,-3.12 -8.5466,-6 -12.7733,-9.08 -3.08,-2.24 -6.2,-4.6 -9.88,-5.6 1.5067,-2.7733 3.0667,-5.5066 4.68,-8.24 17.7733,11.3734 35.4267,22.8667 53.32,34.0534 8.24,5.16 15.76,11.2 23.5067,17.0533 7.6666,5.7867 16.3333,10.16 24.28,15.5867 -2.5467,3.2266 -5.16,6.36 -7.88,9.4 z m -12.3067,11.9466 c -25.88,-28.44 -61.2533,-44.68 -92.08,-66.8266 1.56,-3.4534 3.24,-6.8667 5.0133,-10.2267 7.24,1.5867 14.8667,8.8667 20.6,13.04 8.76,6.3867 17.3867,12.88 26.36,18.9867 8.96,6.0933 17.9867,12.0933 26.8267,18.3733 4.3733,3.1067 8.7067,6.2667 12.7067,9.8533 2.8933,2.5734 6.84,5.3867 9.56,8.4134 -2.8534,2.9466 -5.84,5.76 -8.9867,8.3866 z m -28.4,13.9334 c -1.84,-1.92 -4,-3.0534 -6.32,-4.5067 -3.76,-2.3333 -7.0667,-5.4 -10.3467,-8.3467 -6.6,-5.92 -13.3066,-11.6533 -20.2933,-17.12 -5.8667,-4.5866 -11.8,-9.2266 -18.1467,-13.12 -6.44,-3.9466 -13.88,-7.36 -18.0666,-13.9466 -0.1467,-0.24 -0.3467,-0.4134 -0.5467,-0.52 0.92,-2.6134 2.28,-5.12 3.4267,-7.68 0.3733,-0.1467 0.6933,-0.44 0.8533,-0.92 0.053,-0.1734 0.12,-0.3467 0.1733,-0.52 3.5334,4.08 9.24,7.32 13.2,10.28 7.7467,5.7866 15.7734,11.1733 23.7467,16.64 8.08,5.5466 16.12,11.16 23.9467,17.08 4.2,3.1866 8.24,6.5333 12.1733,10.04 2.4,2.1466 7.36,5.7066 9.2,8.9066 -0.013,0.013 -0.027,0.013 -0.04,0.013 -4.3467,2.1733 -8.6667,3.3333 -12.96,3.72 z m -62.8533,-30.5067 c -5.6934,-5.4267 -10.7867,-12.0133 -11.8,-20.0267 -0.1467,-1.16 -0.12,-2.28 0.027,-3.3866 3.0667,4.04 7.2134,6.8666 11.52,9.56 6.36,3.96 12.52,7.8533 18.5467,12.3333 7.68,5.72 15.1067,11.7733 22.2667,18.12 3.4666,3.0667 6.84,6.2133 10.4533,9.1067 2.2667,1.8133 5.0133,3.1866 7.4,4.9333 -7.48,-0.2267 -14.92,-2.6 -22.3467,-5.9467 -13.24,-5.96 -25.5733,-14.6933 -36.0666,-24.6933 z m 78.4533,25.3733 c -2.4933,-4.3066 -8,-8.12 -11.4,-11.16 -7.1733,-6.4 -15.04,-12.0533 -22.8533,-17.6133 -8.7067,-6.2 -17.6,-12.1333 -26.3734,-18.2533 -3.8266,-2.68 -7.6266,-5.4134 -11.3733,-8.2134 -3.4133,-2.5466 -9,-5.84 -11.6667,-9.7066 0.9734,-2.6667 2.0267,-5.2934 3.1467,-7.8934 30.4667,21.8267 65.36,37.9067 90.96,65.9067 -3.3067,2.5733 -6.7867,4.9067 -10.44,6.9333 z m 34.8267,-32.5066 c -7.3867,-5.12 -15.32,-9.3334 -22.7067,-14.44 -8.6267,-5.9734 -16.52,-12.76 -25.4133,-18.4267 -17.7734,-11.3333 -35.5334,-22.68 -53.2934,-34.04 1.7334,-2.88 3.5067,-5.7333 5.3067,-8.5867 11.24,14.5734 29.8933,21.3067 45.88,29.2134 20.5067,10.16 37.0533,25.88 56.5333,37.6266 -2.04,2.9334 -4.1466,5.8267 -6.3066,8.6534 z m 8,-11.1334 c -17.32,-10.4266 -32.16,-24.4933 -49.9334,-34.2266 -17.5333,-9.6 -40.24,-15.9067 -52.4666,-32.8 1.88,-2.9467 3.7866,-5.88 5.7066,-8.8134 3.3734,2.0667 6,4.9467 9.2134,7.2267 4.36,3.0933 8.8933,5.8133 13.5866,8.36 9.0134,4.9067 18.2934,9.2133 27.1734,14.3733 18.6266,10.8 35.04,24.4534 52.7466,36.52 -1.9466,3.1734 -3.96,6.28 -6.0266,9.36 z m 7.5733,-11.9333 c -17.0267,-11.5867 -32.92,-24.5733 -50.6267,-35.2667 -8.8533,-5.3466 -18.1333,-9.8266 -27.3066,-14.5733 -4.7334,-2.4533 -9.32,-5.1333 -13.7334,-8.1067 -3.8666,-2.6 -7,-6.04 -10.96,-8.4666 2.0134,-3.1067 4.04,-6.2 6.0267,-9.3067 0.4267,0.4933 1.1467,0.7733 1.8933,0.44 -1.12,0.5067 0.093,0.56 1.0667,1.1733 1.1733,0.76 2.3067,1.6 3.44,2.4267 3.1067,2.2667 6.12,4.6533 9.1333,7.04 5.5734,4.4267 11.2134,8.6667 17.0134,12.8133 22.1333,15.8667 45.7866,29.0667 69.8666,41.72 -1.88,3.4134 -3.8133,6.7734 -5.8133,10.1067 z m 7.2267,-12.7467 c -25.56,-13.44 -50.36,-27.6533 -73.8,-44.56 -6.1467,-4.44 -11.9734,-9.2266 -17.9734,-13.8266 -1.9733,-1.5334 -7.1333,-6.8934 -10.5466,-6.9334 1.9066,-3 3.7866,-6.0133 5.6266,-9.0533 4.4134,0.8267 8.5467,4.6533 12.32,6.9333 4.1067,2.4934 8.32,4.84 12.4934,7.2134 8.5866,4.9066 16.9866,10.1333 25.3066,15.4933 17.4534,11.2133 34.4667,23.1067 51.7867,34.5333 0.027,0.013 0.04,0.013 0.053,0.027 -1.6933,3.4133 -3.4533,6.8 -5.2666,10.1733 z m -88.7334,-88.3733 c 4.88,1.3867 9.4,6.2667 13.2934,9.2933 3.28,2.5334 6.8266,4.6934 10.3066,6.9334 9.16,5.88 18.3867,11.64 27.48,17.6266 16.36,10.7867 30.8134,24.5734 47.6,34.6134 -1.0933,2.3466 -2.2133,4.6933 -3.3466,7.0266 -17.28,-11.4 -34.2934,-23.2 -51.6667,-34.4533 -8.9733,-5.8133 -18.1067,-11.3733 -27.3867,-16.6667 -4.1866,-2.3866 -8.3466,-4.7733 -12.4666,-7.28 -3.32,-2.0133 -6.3734,-4.7866 -10.16,-5.7733 2.2133,-3.7333 4.3333,-7.5067 6.3466,-11.32 z m 99.96,65.72 c -8.8933,-5.3733 -16.7733,-12.1333 -24.92,-18.5467 -7.8666,-6.1866 -16.2,-11.7866 -24.5466,-17.28 -9.0934,-5.9866 -18.3334,-11.7333 -27.48,-17.6133 -4.52,-2.8933 -8.7734,-6.0267 -12.9867,-9.3467 -2.6133,-2.0533 -5.44,-4.5066 -8.6133,-5.6133 1.76,-3.3733 3.5466,-6.76 5.4,-10.1066 8.8133,2.4266 15.5333,9.8133 23.32,14.2933 8.9733,5.1466 18.4533,9.3866 27.6933,14 9.8133,4.88 19.3067,10.32 27.8133,17.28 7.1867,5.8666 12.96,13.2 20.7467,18.3333 -2.0667,4.8667 -4.2,9.7467 -6.4267,14.6 z m -78.0133,-100.88 c 7.8267,3.6934 13.96,9.5867 20.8267,14.68 7.8933,5.8534 16.24,11.12 24.32,16.7067 16.0533,11.1066 31.3466,23.12 48.4133,32.64 -0.84,2.0933 -1.6667,4.1733 -2.52,6.2533 -7.9733,-4.3733 -14.8533,-10.4133 -22.24,-15.7067 -8.24,-5.9066 -16.96,-11.1333 -25.7067,-16.24 -16.7066,-9.7733 -33.76,-18.9466 -49.4666,-30.2933 1.9333,-2.8133 4,-5.5466 6.2,-8.1466 0.053,0.027 0.1066,0.067 0.1733,0.1066 z m 100.5333,44.8 c -6.8533,-2.8667 -11.4533,-9.6933 -17.2933,-14.08 -7.5467,-5.6666 -15.8,-10.6133 -23.88,-15.4666 -8.12,-4.88 -16.4933,-9.3334 -25.0267,-13.4667 -8.1466,-3.9467 -16.1066,-8.4 -24.5466,-11.76 4.2266,-3.2133 8.56,-4.9333 13.2266,-5.1333 0.067,0.1866 0.1867,0.36 0.36,0.5333 10.32,10.3467 24.4134,14.6667 37.0134,21.4533 15.08,8.0934 26.9866,20.76 41.9733,28.92 -0.28,3.0133 -0.96,6.04 -1.8267,9 z m -67.0666,-58.0933 c 7.9066,2.9067 15.3066,6.6267 23.3733,9.1867 14.1467,4.5066 29.8133,10.08 40.0667,21.3333 4.0933,4.4933 5.5866,9.7733 5.6133,15.2266 -12.96,-7.3466 -23.8133,-17.9199 -36.4933,-25.7733 -12.5467,-7.7733 -27.4534,-11.6266 -38.5734,-21.5333 1.9334,0.2933 3.9334,0.8 6.0134,1.56 z m 72.08,47.84 c 0.093,-1.4667 0.12,-2.9467 0.04,-4.4667 -0.8,-13.8133 -13.76,-22.3866 -24.8534,-28.0133 -7.3733,-3.7333 -15.2533,-6.52 -23.0933,-9.0667 -9.6667,-3.1333 -18.72,-8.2133 -28.52,-10.8133 -18.4933,-4.92 -33,16.1333 -41.3867,29.4 -5.64,8.9067 -10.32,18.4 -15.2133,27.72 -5.44,10.3466 -11.7467,20.1866 -18.1467,29.96 -11.68,17.84 -23.7466,35.6533 -31.3333,55.68 -0.6133,0.24 -1.1333,0.8666 -1.0667,1.6133 -1.76,7.04 -6.32,12.28 -6.0666,19.8933 0.2133,6.7867 4.48,12.9067 8.6533,17.9067 10.52,12.6133 26.04,22.44 40.7067,29.4 8.96,4.2667 17.92,6.8667 27.12,6.3067 0.4933,0.32 1.0666,0.2133 1.4933,-0.1334 3.5467,-0.3466 7.12,-1.16 10.7467,-2.56 10.9333,-4.2266 20.3066,-12.16 28.4533,-20.6266 1.0933,0.2133 2.3333,-0.7734 1.7867,-1.8934 0.9333,-1 1.8533,-2 2.7466,-3 2.4934,-2.7733 4.88,-5.6533 7.2,-8.5866 0.8,-0.013 1.4,-0.8534 1.36,-1.6934 5.24,-6.7866 10.0667,-13.9466 14.56,-21.36 0.7467,-0.1866 1.2534,-1.0533 1.1067,-1.8533 10.6533,-17.8933 19.4267,-37.12 27.3867,-55.84 2.5466,-5.96 4.8533,-12.0267 7.1733,-18.08 0.36,-0.3467 0.5733,-0.8533 0.5067,-1.3333 0.72,-1.88 1.44,-3.7467 2.1733,-5.6267 2.8133,-7.2267 5.7067,-14.36 6.4,-21.9867 0.1333,-0.3066 0.16,-0.6266 0.067,-0.9466" style="fill:#577c69;fill-opacity:1;fill-rule:nonzero;stroke:none;stroke-width:0.133333"/><path id="path1450" d="m 1933.7866,2234.52 c -0.027,-0.04 -0.04,-0.08 -0.08,-0.1066 -7.1866,-7.32 -13.3066,-15.7334 -20.2133,-23.32 -7.2,-7.9067 -14.5867,-15.6267 -21.6,-23.68 3.28,-2.8534 6.3467,-5.8934 9.3067,-9.0267 13.04,16.0933 29.0266,29.52 41.8933,45.8 -0.5867,0.6533 -1.1467,1.3067 -1.7067,1.9467 -2.4266,2.8266 -4.96,5.64 -7.6,8.3866 z m -22.48,18.56 c -6.9866,-8.4133 -13.6666,-17.0666 -20.5333,-25.5866 -3.5867,-4.44 -7.48,-8.56 -11.4533,-12.6534 -3.56,-3.68 -8.24,-7.2266 -11.16,-11.4533 -0.1067,-0.1733 -0.24,-0.2933 -0.3734,-0.3867 0.4267,-0.5466 0.8534,-1.0666 1.28,-1.5866 0.2667,-0.013 0.5067,-0.093 0.7334,-0.2267 2.72,-0.64 5.2933,-1.7333 7.7466,-3.08 8.8534,7.2533 16.2534,17.08 23.3734,25.9333 3.7066,4.6 7.76,8.8667 11.5733,13.36 2.72,3.2 5.2267,6.3734 8.5333,8.88 -3.1066,2.48 -6.3466,4.76 -9.72,6.8 z m -19.96,7.6534 c -0.027,-0.04 -0.053,-0.067 -0.08,-0.1067 -11.4,-11.48 -21.88,-24.9467 -30.88,-38.36 -0.2933,-0.44 -0.72,-0.64 -1.1333,-0.6667 0.36,-2.28 0.9733,-4.52 1.7867,-6.72 6.6,6.5734 12.0266,14.6 18.0266,21.7067 6.3867,7.5467 12.4667,15.3333 18.9067,22.84 -0.2133,0.067 -0.4133,0.16 -0.6267,0.2267 -2.0666,0.6933 -4.0666,1.0266 -6,1.08 z M 1872.44,2251.32 c -4.64,-5.04 -11.9334,-11.2666 -12.52,-18.52 -0.027,-0.3866 -0.1867,-0.6666 -0.4,-0.8933 -0.4934,-2.16 -0.68,-4.3333 -0.6267,-6.52 8.28,12.1733 17.7067,24.2933 27.92,34.9467 -5.44,-1.1467 -10.28,-4.5467 -14.3733,-9.0134 z m -32.8667,-71.2133 c -6.32,-6.9733 -11.9467,-14.72 -16.04,-23.2133 0.3333,-0.7334 0.7067,-1.4534 1.0933,-2.1734 7.3867,8.04 14.4934,15.36 22.96,22.36 7.44,6.1334 11.88,14.2934 18.04,21.32 -1.3866,0 -2.7866,-0.1733 -4.2,-0.5466 -8.64,-2.24 -16.0933,-11.4 -21.8533,-17.7467 z m -2,-42.4667 c 9.2667,9.1734 17.2133,19.5067 25.5467,29.5067 6.4133,7.68 13.4266,16.4667 21.4133,22.72 -2.0667,1.6667 -4.24,3.2667 -6.52,4.6133 -5.32,-8.88 -12.9467,-15.84 -20.44,-22.9066 -4.7067,-4.4534 -9.36,-8.9734 -13.7867,-13.72 -3.5733,-3.84 -6.7066,-9.48 -10.6533,-12.9067 -0.1333,-0.4933 -0.5067,-0.88 -1.12,-0.9467 1.7867,-2.1733 3.6667,-4.2933 5.56,-6.36 z m 7.7067,-8.28 c 6.1466,8.68 14.1333,16.52 20.6933,24.92 7.9067,10.12 16.1067,20.1867 23.6,30.6134 0.093,0.1333 0.2,0.2266 0.3067,0.32 -0.2667,0.24 -0.5334,0.48 -0.8,0.72 -0.1334,0.093 -0.2534,0.2133 -0.3734,0.3333 -0.6,0.5467 -1.2266,1.1067 -1.8533,1.6533 -8.7067,-6.56 -16.1733,-16.3866 -23.0933,-24.68 -7.88,-9.44 -15.3867,-19.16 -24.1467,-27.8133 1.52,-1.64 3.0267,-3.24 4.4533,-4.8133 0.4,-0.4267 0.8134,-0.8267 1.2134,-1.2534 z m 46.7466,53.84 c -6.6266,-9.2 -13.8533,-18.0266 -20.8,-27 -3.6533,-4.7333 -7.3333,-9.4266 -11.0933,-14.0666 -4.0533,-5 -9.04,-9.6934 -12.7467,-14.96 1.48,-1.4534 3.0134,-2.8534 4.56,-4.24 6.16,10.2933 14.0267,19.08 21.6534,28.28 4.8,5.7866 9.44,11.6933 14.4,17.36 3,3.4266 5.48,7.1333 9.5466,9.2133 -1.8,1.84 -3.64,3.6533 -5.52,5.4133 z m -20.7333,14.32 c -0.4267,-0.8266 -1.5467,-1.3066 -2.3733,-0.44 -0.08,0.08 -0.1467,0.1734 -0.2267,0.2534 -6.72,-7.2667 -11.24,-15.7734 -18.9867,-22.3734 -4.0133,-3.44 -8.2666,-6.5333 -12.0933,-10.1866 -4.12,-3.9467 -7.5733,-8.5734 -11.4267,-12.7734 1.2134,-1.9466 2.56,-3.8533 4,-5.7066 0.067,0.08 0.1334,0.1733 0.24,0.2533 3.6534,2.8933 6.5467,8.0933 9.6267,11.6267 3.7067,4.28 7.8,8.24 11.88,12.16 8.3333,8.04 17.44,15.56 23.4667,25.5733 -1.3467,0.6533 -2.72,1.2 -4.1067,1.6133 z m 29.6667,60.7867 c -6.76,-7.8 -13.12,-15.9467 -19.7734,-23.8533 -6.2533,-7.4267 -11.8533,-15.8267 -18.88,-22.5467 1.0534,-2.2533 2.3067,-4.4 3.6934,-6.44 2.1333,2.8533 5.0933,5.2533 7.5733,7.7733 4.6533,4.7334 9.28,9.48 13.5733,14.5467 7.4,8.7467 14.2534,17.9733 21.5467,26.8133 -2.5067,1.3867 -5.08,2.64 -7.7333,3.7067 z m 22.4533,-14 c -4.0267,-2.7867 -6.8667,-6.76 -10.0133,-10.4667 -3.92,-4.6133 -8.0267,-9.0266 -11.8267,-13.7466 -6.4667,-8.04 -13.32,-16.9067 -21.3067,-23.6267 3.2934,-2.1333 6.3867,-4.6667 9.3467,-7.12 6.5333,7.5333 13.3733,14.7733 20.12,22.0933 7.52,8.1334 14.1067,17.2 21.8533,25.0934 0.04,0.04 0.08,0.067 0.1334,0.1066 -2.6534,2.6667 -5.4267,5.24 -8.3067,7.6667 z m -63.1867,-128.4 c 3.56,4.5333 6.0134,9.88 9.3734,14.56 3.1333,4.3733 6.7733,8.3733 10.4133,12.3067 8.3067,8.9733 17.1333,17.8933 24.2267,27.88 -1.5067,1.6666 -3.0267,3.32 -4.5734,4.9466 -0.12,-0.093 -0.24,-0.1733 -0.4,-0.24 -5.0533,-2.1333 -8.96,-8.6533 -12.4266,-12.7066 -4.3467,-5.08 -8.4534,-10.3467 -12.72,-15.4934 -7.0134,-8.4533 -14.2,-16.6266 -19.8267,-26.12 -0.013,-0.053 -0.027,-0.093 -0.04,-0.1466 1.9733,-1.6934 3.9733,-3.3467 5.9733,-4.9867 z m 17.8667,-15.56 c 7.5467,9.1333 15.64,17.5867 22.8,27.1067 6.2667,8.3466 13.2933,16.2 20.2667,23.9466 -1.8934,2.04 -3.76,4.1334 -5.6,6.24 -3.4,-3.3866 -5.7734,-7.7466 -8.7334,-11.52 -3.9466,-5.0133 -8.3333,-9.6666 -12.7066,-14.2933 -4.2667,-4.52 -8.4934,-9.0667 -12.6667,-13.6667 -3.3867,-3.7333 -6.5733,-8 -10.4667,-11.2266 0.4934,-0.44 1.0134,-0.8667 1.5067,-1.32 1.92,-1.7067 3.76,-3.4934 5.6,-5.2667 z m 32.5733,-25.8667 c 14.32,13.0134 25.2534,29.16 39.1867,42.5467 -0.9067,2.3333 -2.04,4.5867 -3.3067,6.72 -3.3866,-4.1867 -5.96,-9.1867 -9.2133,-13.4933 -3.28,-4.3467 -7.3333,-8.0134 -11.4267,-11.5734 -3.9466,-3.44 -8,-6.7333 -11.68,-10.4533 -3.36,-3.3867 -6.2533,-6.9867 -10.08,-9.8 0.9334,-0.6667 1.8934,-1.3333 2.8534,-1.96 1.2133,-0.8 2.44,-1.44 3.6666,-1.9867 z m 13.56,-1.3066 c 0.027,0.2 0.1067,0.4 0.24,0.6133 4.08,6.3867 9.0267,12.2267 13.4267,18.4 4.2133,5.92 8.9067,11.5733 14.0533,16.7067 -0.2,1.68 -0.5466,3.3466 -1.0133,4.9866 -13.0933,-12.84 -23.6267,-28.0133 -37.0667,-40.5066 3.4667,-0.92 6.96,-0.9334 10.36,-0.2 z m 27.2134,27.1066 c 0.3733,1.4667 0.56,2.9334 0.64,4.4 -4.1734,-4.4 -7.96,-9.1333 -11.6,-14.0133 -3.96,-5.32 -8.24,-10.6667 -11.9734,-16.1867 3.2134,1.28 6.2934,3.1867 9.1734,5.5467 6.48,5.3467 11.68,12.0267 13.76,20.2533 z m -12.6134,33.6667 c -6.0133,-8.1733 -11.88,-16.5333 -18.6133,-24.1333 -7.7333,-8.7067 -16.2933,-16.5734 -23.2133,-25.9867 1.52,-1.2133 3.0533,-2.4 4.6,-3.56 0.027,0.013 0.04,0.04 0.067,0.053 4.64,3.0934 7.96,7.5467 11.8534,11.4667 3.7333,3.7467 7.9866,7.0267 11.9733,10.4933 4.64,4.0534 8.6267,8.5067 12.2133,13.52 2.48,3.4667 4.4267,7.3467 7.16,10.6134 -0.2933,0.44 -0.5866,0.88 -0.8933,1.3066 -1.56,2.1867 -3.3067,4.24 -5.1467,6.2267 z m 15.7067,20.0267 c 7.7333,5.5866 15.8267,11.36 16.3067,21.7066 0.013,0.1867 0,0.3734 0.013,0.56 -5.76,-5.7066 -11.6267,-11.3066 -17.4267,-16.9733 -3.2666,-3.2 -6.4133,-6.5467 -9.6933,-9.7467 -1.6933,-1.6533 -4.9067,-3.8933 -6.1733,-6.4 4.76,4.48 11.7466,7.08 16.9733,10.8534 z m -59.8533,-68.28 c 6.12,8.2666 13.36,15.5066 20.4,22.9733 8,8.4933 14.7333,18.0933 21.6533,27.4667 -1.3867,1.3866 -2.8,2.76 -4.2267,4.1066 -6.7066,-8.76 -14.32,-17.08 -21.6933,-25.2666 -3.76,-4.1734 -7.8133,-8.08 -11.72,-12.12 -3.76,-3.8934 -6.6533,-8.4 -10.2533,-12.3867 1.9466,-1.5733 3.88,-3.1733 5.84,-4.7733 z m -8.1067,6.7333 c 3.1333,3.44 5.6933,7.4 8.8267,10.8667 3.7333,4.1333 7.8,7.92 11.6133,11.9733 8.0533,8.56 16.2,17.6533 23.32,27.0133 -1.0933,1.0267 -2.2,2.0534 -3.2667,3.08 -1.32,1.2534 -2.5733,2.5467 -3.84,3.8534 -7.84,-8.7334 -15.52,-17.6267 -22.5733,-27.0267 -6.3333,-8.4533 -13.68,-15.8533 -20.4,-23.9333 2.0533,-1.9867 4.16,-3.9334 6.32,-5.8267 z m -17.8533,16.4667 c 3.9733,3.0933 7.2266,7.6666 10.6,11.3866 4.1866,4.6 8.4,9.16 12.68,13.6667 4.4,4.6267 8.6666,9.3467 12.7066,14.2933 3.0934,3.8134 5.3734,8.2267 8.8934,11.6667 -1.4934,1.7333 -2.9734,3.4667 -4.48,5.2 -0.9334,1.0933 -1.8934,2.1733 -2.84,3.2533 -6.24,-8.6533 -13.7067,-16.72 -21.0534,-24.44 -4.5733,-4.8 -9.0266,-9.6666 -13.0266,-14.96 -3.6,-4.76 -6.04,-10.2266 -9.68,-14.9466 2.08,-1.68 4.1466,-3.3867 6.2,-5.12 z m 76.3866,113.04 c -12.8666,-16.2534 -28.8266,-29.6667 -41.84,-45.7467 -0.013,0 -0.013,-0.013 -0.013,-0.013 1.24,-1.3734 2.48,-2.7467 3.6933,-4.1467 0.3734,-0.1867 0.6667,-0.5067 0.7734,-0.88 0.76,-0.8667 1.5066,-1.7333 2.2666,-2.6133 6.0134,8.1733 14.7467,14.5866 21.5867,22.0933 7.1067,7.8267 12.4933,16.68 20.8267,23.2133 -2.4534,2.7867 -4.9334,5.48 -7.2934,8.0934 z m 9.28,-10.3734 c -7.6666,-5.8533 -13.04,-13.8 -19.12,-21.2266 -6.96,-8.5067 -16.7333,-14.92 -23.1066,-23.84 -0.067,-0.093 -0.1334,-0.1734 -0.2134,-0.2534 1.8534,-2.1466 3.6934,-4.3066 5.5734,-6.44 13.96,14.92 29.8933,28.8134 42.1866,45.2 -1.6933,2.24 -3.4933,4.4267 -5.32,6.56 z m 7.1334,-9.08 c -12.3734,-16.2133 -28.12,-30.0666 -42.0134,-44.9333 1.92,-2.16 3.8934,-4.28 5.9067,-6.3467 12.44,14.84 25.88,29.5067 41.0667,41.56 0.1866,0.1467 0.3866,0.24 0.5866,0.2934 -1.52,3.2533 -3.4133,6.4 -5.5466,9.4266 z m 6.72,-12.1333 c -15.04,-12 -28.3734,-26.5467 -40.7067,-41.28 2.2133,-2.1867 4.4667,-4.3467 6.6933,-6.5067 1.08,4.7467 6.6934,8.32 9.84,11.5734 8.52,8.8 17.5334,17.08 26.1867,25.7333 0.1467,0.1467 0.3067,0.2533 0.4667,0.32 -0.32,3.5067 -1.1867,6.8933 -2.48,10.16 z m -4.3067,-32.8933 c -3.6133,-3.12 -7.5867,-5.92 -11.5067,-8.64 -4.76,-3.28 -10.92,-5.2534 -14.6,-9.8267 6.7067,-6.8133 12.72,-14.08 15.7734,-23.6133 4.48,-14.0267 -2.1467,-26.7734 -12.32,-36.1734 -11.16,-10.3066 -24.6,-12.6666 -37.44,-4.2533 -18,11.8133 -32.4934,28.4133 -49.36,41.68 -7.0934,5.5733 -13.1067,12.32 -18.9867,19.1333 -5.2933,6.1467 -11.6133,12.8934 -14.92,20.4 -0.093,0.2267 -0.1467,0.4534 -0.1333,0.6667 -0.04,0.2667 0,0.5467 0.1333,0.84 6.68,14.2533 18.1867,28.6 30.8667,37.9867 3.9333,2.92 8.64,5.6533 13.6266,5.9866 -7.04,9.32 -11.5066,21.5467 -7.9733,32.8934 0.053,0.1333 0.1067,0.24 0.16,0.3466 1.3467,5.92 6.0933,10.8934 10.0133,15.2667 5.2934,5.8933 11.1734,12.32 19.5067,13.3333 10.0933,1.24 18.92,-3.7333 27.2667,-8.8133 9.44,-5.76 17.8,-13.1733 25.1866,-21.36 4.96,-5.5067 10.7067,-11.36 16.0534,-17.6133 0.8533,0.04 1.52,-0.8534 1.4533,-1.72 8.3867,-10.0667 15.5333,-21.2 16.8,-33.6534 1,-9.88 -2.1867,-16.4666 -9.6,-22.8666" style="fill:#577c69;fill-opacity:1;fill-rule:nonzero;stroke:none;stroke-width:0.133333"/><path id="path1485" d="m 1761.1333,2275.9467 c 0,-0.013 0,-0.027 0,-0.04 0.027,-0.04 0.04,-0.093 0.067,-0.1333 -0.027,0.053 -0.04,0.1066 -0.067,0.1733 z m -35.6667,225.5333 c -0.04,-0.054 -0.04,-0.1068 -0.093,-0.1469 -0.027,-0.026 -0.067,-0.04 -0.093,-0.067 0.1333,-0.026 0.2533,-0.026 0.3866,-0.053 0.093,0.014 0.2,0 0.3067,0 0.04,0.053 0.093,0.093 0.1333,0.1333 -0.2,0.067 -0.4266,0.1068 -0.64,0.1333 z m -5.8,-1.7598 c -0.013,-0.094 -0.027,-0.1871 -0.04,-0.2938 0,-0.027 0,-0.053 0,-0.08 0.04,0.053 0.08,0.1068 0.12,0.1464 -0.027,0.08 -0.053,0.1468 -0.08,0.2271 z m 55.9467,-243.4802 c 0.12,-0.12 0.24,-0.2266 0.3467,-0.3466 -0.2134,0.24 -0.4267,0.48 -0.64,0.72 0.1066,-0.1334 0.2,-0.2534 0.2933,-0.3734 z m 141.5067,-63.28 c -11.9334,14.4 -23.6134,29.0667 -37.7067,41.4534 -14.4933,12.76 -31.92,21.2133 -49.5467,28.7333 -18.2266,7.76 -37.0933,13.7467 -55.5333,20.9467 -4.08,1.6 -8.1467,3.28 -12.1733,5.0533 -1.0267,-5.8 2.76,-14 4.8933,-18.24 3.6933,-7.3333 9.68,-13.2667 15.1733,-19.24 6.2134,-6.7867 12.1734,-13.8 18.4267,-20.5467 5.6267,-6.0666 11.5867,-11.7466 16.92,-18.0666 31.32,-27.2134 64.88,-52.1067 88.3067,-86.9867 1.28,-1.8933 -1.7734,-3.6533 -3.0267,-1.7733 -24.04,35.7733 -59.0933,61.28 -91.1467,89.2666 -15.64,13.64 -30.52,28.1734 -43.0933,44.7334 -13.84,18.2133 -23.5467,38.9333 -30.5867,60.6266 -6.4666,19.8934 -10.5333,40.3334 -13.12,61.0267 -0.2933,0.2133 -0.52,0.52 -0.5866,1.0133 -3.32,23.48 -4.76,47.16 -6.0134,70.8268 -0.6266,11.9599 -0.013,23.9463 0.08,35.9198 0.013,1.7865 -0.2666,4.0532 -0.24,6.187 -0.027,0.08 -0.053,0.1599 -0.053,0.2531 -0.053,2.4 -0.7867,5.2401 0.2533,7.5333 1.24,2.7198 4.4534,2.3599 6.9734,2.3068 1.7333,-0.027 3.64,-0.5333 4.36,-2.2537 0.3466,-0.8135 0.4133,-1.7333 0.36,-2.6531 0.053,-0.1604 0.093,-0.3202 0.1066,-0.4937 0.36,-4.7464 -1.1466,-9.9199 -1.5866,-14.6396 -0.7734,-8.3604 -1.6134,-16.7068 -1.6667,-25.1068 0,-0.2135 -0.08,-0.3599 -0.1733,-0.4932 0.04,-4.1869 0.1333,-8.3599 0.16,-12.52 0.067,-18.56 1.4533,-37.3733 3.3866,-55.8533 1.04,-9.9067 2.3867,-19.88 4.0667,-29.7867 0.64,-2.64 1.1067,-5.36 1.4667,-8.08 1.0666,-5.6133 2.2266,-11.1867 3.5333,-16.72 1.16,-4.88 2.5333,-9.7067 3.6933,-14.5733 4.9334,-9.96 11.5334,-19.12 19.84,-26.08 0.1467,-0.093 0.2934,-0.16 0.44,-0.2534 0.1334,-0.067 0.2134,-0.1733 0.28,-0.28 9.8934,-6.36 22.2534,-9.1733 32.6534,-14.3466 0.1333,-0.067 0.2266,-0.1467 0.2933,-0.24 14.16,-5.1334 28.2533,-10.3334 42.0533,-16.4534 16.0934,-7.12 31.2534,-15.64 44.4934,-27.2933 13.6666,-12.0133 24.96,-26.4667 36.5333,-40.4267 1.44,-1.7333 -1.04,-4.24 -2.4933,-2.48" style="fill:#534741;fill-opacity:1;fill-rule:nonzero;stroke:none;stroke-width:0.133333"/><path id="path1486" d="m 1707.5866,2181 c 0,-0.013 -0.013,-0.027 -0.013,-0.027 0.3067,-1.24 0.6133,-2.48 0.8533,-3.7467 0.027,-0.08 0.013,-0.1467 0,-0.2133 0.08,-0.1734 0.1467,-0.3467 0.2134,-0.5067 -0.3467,1.4933 -0.6934,2.9867 -1.0534,4.4933 z m -1.8133,296.7331 c -0.067,-0.1864 -0.2,-0.3197 -0.3467,-0.4265 v -0.04 c 0.1334,0.04 0.28,0.067 0.4134,0.054 0.053,0.3462 0.093,0.6932 0.12,1.053 -0.067,-0.2134 -0.1067,-0.4265 -0.1867,-0.6401 z M 1705.4,2398.92 c 0.067,2.2667 0.1333,4.5334 0.1866,6.8134 -0.04,-0.9467 -0.093,-1.88 -0.1333,-2.8267 -0.027,-1.1067 -0.04,-2.2133 -0.053,-3.32 0,-0.2267 0,-0.44 0,-0.6667 z m 45.9733,-294.88 c 18.56,-20.2133 100.8267,-116.5066 113.8267,-140.7866 -0.2134,-0.16 -0.4534,-0.2534 -0.68,-0.3067 -1.3867,-0.3467 -2.8267,0.3467 -3.5867,1.5467 -11.9467,18.8933 -78.0133,99.4266 -87.7067,110.52 -21.36,24.4133 -46.4133,46.6266 -61.2266,75.9866 -1.8534,3.6667 -3.4534,7.44 -4.8667,11.28 -0.1733,-0.9866 -0.3067,-1.7733 -0.32,-1.8933 -0.3867,-3.4667 -1.0933,-6.8667 -1.6667,-10.3067 -0.8,-4.7733 -0.4933,-9.6133 -0.6266,-14.4266 -0.027,-0.9334 -0.1067,-1.88 -0.2134,-2.8134 1.8934,-37.4666 4.16,-74.9466 1.2667,-112.3333 -0.027,-0.28 -0.093,-0.52 -0.2,-0.7333 -1.0267,-25.7067 -1.64,-51.2267 -0.76,-76.9734 0.96,-27.9466 2.92,-55.8533 4.1867,-83.7866 2.56,-56.5867 0.6,-113.2133 -2.5867,-169.7333 -0.1467,-2.4 -3.88,-2.4267 -3.76,0 2.8,55.6933 4.9733,111.36 2.6267,167.12 -1.16,27.9333 -3.0934,55.84 -4.1334,83.7866 -0.9866,26.3067 -1.7066,53.2133 1.2534,79.4667 -0.1067,0.24 -0.1734,0.52 -0.1467,0.8533 3.3867,43.72 -0.4267,87.92 -2.2533,131.64 -0.92,21.8267 -1.0934,43.6133 -0.4534,65.4533 0.5734,19.3467 1.7334,38.6667 2.3734,58.0134 -0.08,1.7733 -0.2,4.6666 -0.2667,6.44 -0.3333,3.2266 -0.5467,6.44 -0.64,9.6666 -0.093,2.72 0.4533,5.5734 -0.28,8.2534 -0.093,0.3466 0.013,0.6133 0.2133,0.8 -0.4533,19.5066 -0.8,39.04 -0.9866,58.56 -0.1734,0.2 -0.32,0.4533 -0.3734,0.8 -0.7066,4.9333 -0.6266,9.8133 -0.4666,14.7733 0.1866,6.1467 -0.093,12.3067 -0.2667,18.4533 -0.3467,12.6534 -1.1733,25.2934 -1.6,37.96 -0.4267,12.5467 -0.9333,25.1064 -1,37.6798 -0.04,6.2401 0.053,12.4802 0.2133,18.7204 0.053,2 0.093,4 0.2534,5.9729 -0.4534,3.2536 -1.5867,7.4 0.2,9.9468 0.8266,1.1865 2.8133,1.2136 4.08,1.3068 2.3333,0.2 4.6933,0.013 7.0266,-0.067 0.3734,-0.026 0.6134,-0.2265 0.7467,-0.4932 0.72,0.013 1.32,-0.4537 1.5067,-1.627 0.2,-1.2798 0.013,-2.5328 -0.2,-3.773 0.067,-0.5734 0.067,-1.1604 0,-1.7338 0,-0.066 -0.04,-0.1199 -0.053,-0.173 0.3867,-2.9734 -0.4666,-6.7068 -0.5333,-9.2 -0.027,-1.3197 -0.08,-2.653 -0.12,-3.9734 0.08,-0.1198 0.12,-0.2667 0.12,-0.4402 -0.027,-12.64 -0.7467,-25.2666 -1.3067,-37.893 -0.1733,-3.6 -0.32,-7.2 -0.4533,-10.8 0.04,-1.0134 0.093,-2.0267 0.1333,-3.04 0.4534,-11.5334 0.1734,-23.12 0.1867,-34.6667 0.013,-20.6267 -0.6533,-41.24 -0.84,-61.8667 0.3067,-6.6533 0.5867,-13.32 0.8267,-19.9866 0.3866,-11.12 0.6,-22.32 0.3466,-33.4534 -0.08,-3.9866 -0.3466,-7.96 -0.6533,-11.9333 0.1733,-4.44 0.3467,-8.8933 0.4533,-13.3467 0.3334,-14.0533 0.093,-28.1333 0.093,-42.2 0,-0.1333 0,-0.28 0,-0.4133 0,-0.027 0,-0.04 -0.013,-0.053 0,-0.2667 0,-0.5467 0,-0.8134 0,-3.52 -0.027,-7.04 0.013,-10.56 0.16,-3.0666 0.24,-6.1333 0.36,-9.2133 0.053,-0.84 0.093,-1.6933 0.16,-2.5333 0.5733,-6.0934 1.72,-12.1334 2.7866,-18.16 1.28,-5.3734 2.56,-10.76 3.8534,-16.1334 2.1066,-5.2266 4.32,-10.4 6.76,-15.4666 8.3333,-13.2134 18.7466,-25.3334 29.3733,-36.8934" style="fill:#534741;fill-opacity:1;fill-rule:nonzero;stroke:none;stroke-width:0.133333"/></g></svg>