<svg version="1.1" id="svg1" width="2000" height="2579.9468" viewBox="1177.3092578654641 763.8001103450033 3.2944623235246127 15.229967154971632" sodipodi:docname="styletrees.svg" inkscape:version="1.4.2 (f4327f4, 2025-05-13)" xmlns:inkscape="http://www.inkscape.org/namespaces/inkscape" xmlns:sodipodi="http://sodipodi.sourceforge.net/DTD/sodipodi-0.dtd" xmlns="http://www.w3.org/2000/svg" xmlns:svg="http://www.w3.org/2000/svg"><defs id="defs1"/><g><path id="path583" d="m 1179.7373,764.81341 c -1.416,0.24 -1.1813,4.04 -1.2347,4.94667 -0.1666,2.86667 -0.1946,5.73333 -0.1933,8.6 0,0.89333 1.3813,0.89333 1.3813,0 0,-1.96 0.027,-3.93333 0.081,-5.89333 0.035,-1.24 0.092,-2.46667 0.1733,-3.70667 0.043,-0.64 0.1,-1.26667 0.1867,-1.89333 0.052,-0.37334 0.34,-0.78667 -0.028,-0.72 0.876,-0.16 0.504,-1.49334 -0.3667,-1.33334 v 0" style="fill:#577c69;fill-opacity:1;fill-rule:nonzero;stroke:none;stroke-width:0.133333"/><path id="path583" d="m 1179.7373,764.81341 c -1.416,0.24 -1.1813,4.04 -1.2347,4.94667 -0.1666,2.86667 -0.1946,5.73333 -0.1933,8.6 0,0.89333 1.3813,0.89333 1.3813,0 0,-1.96 0.027,-3.93333 0.081,-5.89333 0.035,-1.24 0.092,-2.46667 0.1733,-3.70667 0.043,-0.64 0.1,-1.26667 0.1867,-1.89333 0.052,-0.37334 0.34,-0.78667 -0.028,-0.72 0.876,-0.16 0.504,-1.49334 -0.3667,-1.33334 v 0" style="fill:#577c69;fill-opacity:1;fill-rule:nonzero;stroke:none;stroke-width:0.133333"/></g></svg>