<svg version="1.1" id="svg1" width="2000" height="2579.9468" viewBox="196.21500501401408 1043.1083853592932 266.54184301495513 130.73359703740584" sodipodi:docname="styletrees.svg" inkscape:version="1.4.2 (f4327f4, 2025-05-13)" xmlns:inkscape="http://www.inkscape.org/namespaces/inkscape" xmlns:sodipodi="http://sodipodi.sourceforge.net/DTD/sodipodi-0.dtd" xmlns="http://www.w3.org/2000/svg" xmlns:svg="http://www.w3.org/2000/svg"><defs id="defs1"/><g><path id="path300" d="m 328.14666,1104.4934 c 4.87467,2.2933 5.59066,10.1733 6.16533,14.8267 0.68533,5.5466 0.85467,11.2266 0.83333,16.8133 -0.0173,4.5733 -0.388,9.1467 -0.92933,13.6933 -0.38,3.1867 -1.68533,6.8667 -0.972,10.0934 0.21333,0.9733 0.69867,1.8666 1.268,2.6666 0.42933,0.6 0.88667,1.16 1.284,1.7867 1.94133,3.0533 -2.23867,2.5467 -2.936,1.9867 -1.79333,-1.44 -2.34266,-5.6534 0.868,-5.24 0.96,0.12 0.948,-1.3867 0,-1.5067 -5.26133,-0.6667 -4.34,6.4667 -1.06933,8.4267 1.97733,1.1866 4.55066,-0.56 4.90266,-2.5867 0.20267,-1.1733 -0.76933,-2.36 -1.42266,-3.2 -2.392,-3.0933 -1.30534,-6.2133 -0.77467,-9.7733 1.52133,-10.2 1.58667,-20.56 0.69467,-30.8134 -0.49467,-5.6933 -1.11734,-15.6266 -7.15333,-18.48 -0.87067,-0.4 -1.63467,0.8934 -0.75867,1.3067 v 0" style="fill:#577c69;fill-opacity:1;fill-rule:nonzero;stroke:none;stroke-width:0.133333"/><path id="path301" d="m 329.85333,1102.8534 c -7.304,2.7067 -8.42,13.9467 -9.73867,20.4533 -2.37067,11.72 -4.092,24.16 -4.34133,36.0934 -0.007,0.3333 0.23333,0.6533 0.552,0.7333 1.97866,0.4667 1.96133,2.9867 1.15866,4.4533 -1.23466,2.24 -4.07333,-0.44 -4.19466,-2.08 -0.16267,-2.2133 2.00266,-2.9733 3.72533,-2.2666 0.896,0.3733 1.28267,-1.08 0.39867,-1.4534 -5.03334,-2.0533 -7.58267,4.84 -3.304,7.5067 4.16266,2.6 6.536,-3.2667 4.59066,-6.3467 -0.58666,-0.9333 -1.42,-0.7066 -1.39733,-1.7866 0.06,-2.9067 0.33067,-5.8134 0.62933,-8.7067 0.63067,-6.1333 1.50267,-12.2667 2.38534,-18.36 0.76133,-5.28 1.88666,-10.44 3.17466,-15.6 1.03467,-4.1467 2.28534,-9.5333 6.76134,-11.1867 0.9,-0.3333 0.51066,-1.7866 -0.4,-1.4533 v 0" style="fill:#577c69;fill-opacity:1;fill-rule:nonzero;stroke:none;stroke-width:0.133333"/><path id="path302" d="m 329.87866,1102.8267 c -5.376,-1.0266 -9.56533,3.2 -13.51333,6.2134 -4.50534,3.44 -8.26934,7.6933 -11.32267,12.4533 -7.26267,11.32 -7.93333,24.8667 -8.51067,37.9067 -0.0187,0.4 0.356,0.7466 0.752,0.7466 3.80134,0.027 4.57734,6.6667 0.62534,6.0267 -3.05734,-0.4933 -2.46667,-6.84 -0.324,-5.56 0.83333,0.4933 1.58933,-0.8 0.75866,-1.3067 -4.62533,-2.76 -5.50266,6.72 -0.83466,8.32 5.576,1.9067 6.21066,-8.9333 -0.22534,-8.9866 0.25067,0.2533 0.5,0.5066 0.75067,0.76 0.508,-11.4667 1.04133,-23.08 6.25333,-33.5334 2.436,-4.88 5.83867,-9.2 9.79467,-12.9333 3.632,-3.44 10.016,-9.68 15.396,-8.6533 0.94667,0.1733 1.35067,-1.28 0.4,-1.4534 v 0" style="fill:#577c69;fill-opacity:1;fill-rule:nonzero;stroke:none;stroke-width:0.133333"/><path id="path303" d="m 328.00533,1102.6934 c -8.024,-2.6267 -16.34,1.5867 -22.94267,5.8933 -7.34267,4.7867 -14.852,11.12 -20.08,18.2 -6.22,8.4267 -8.73333,18.3067 -9.65733,28.6 -0.13467,1.4934 -0.684,3.7467 0.0307,5.1867 0.65467,1.3067 1.70534,2.52 2.51067,3.7467 0.41067,0.6266 0.75067,1.2933 1.01733,2 -0.13466,2.3866 -1.044,3.32 -2.72666,2.7866 -0.88534,-0.4 -1.216,-1.6133 -1.43467,-2.4533 -0.63733,-2.44 0.304,-5.28 2.55467,-6.48 0.85333,-0.4667 0.0947,-1.76 -0.75867,-1.3067 -2.70133,1.4534 -3.876,4.64 -3.348,7.6134 0.45733,2.56 2.14267,5.0933 5.04,4.0133 4.08,-1.52 1.72667,-5.7733 0.124,-8.1867 -1.428,-2.1466 -1.78,-3.1733 -1.59067,-5.8666 0.26,-3.6934 0.76667,-7.3734 1.53467,-11 2.588,-12.2134 9.88667,-21.12 19.08533,-29.0934 7.64,-6.64 19.436,-15.7333 30.24134,-12.2133 0.924,0.3067 1.316,-1.1467 0.4,-1.44 v 0" style="fill:#577c69;fill-opacity:1;fill-rule:nonzero;stroke:none;stroke-width:0.133333"/><path id="path304" d="m 326.80933,1103.1467 c -5.136,-5.9066 -16.21334,-2 -22.33734,-0.1333 -10.43466,3.1867 -18.524,9.2 -25.34533,17.6133 -6.94267,8.5867 -12.03467,18.68 -15.128,29.2534 -1.12133,3.8266 -3.25867,8.4666 -2.54,12.52 0.136,0.76 0.748,1.5733 1.13733,2.2 1.432,2.3333 0.18534,6.0666 -2.684,3.8 -3.93866,-3.1067 0.72267,-6.0934 3.528,-6.9067 0.92934,-0.28 0.53334,-1.7333 -0.39866,-1.4533 -2.58134,0.7466 -6.47867,2.2266 -5.98,5.64 0.416,2.84 2.57866,5.6133 5.72933,4.8666 3.452,-0.8266 1.84933,-5.48 0.69333,-7.36 -1.75066,-2.8533 0.30934,-7.0666 1.172,-9.9733 0.924,-3.12 1.76,-6.2133 2.89334,-9.2667 4.69333,-12.64 12.96533,-25.7066 24.22533,-33.4266 5.17067,-3.5467 11.188,-5.64 17.204,-7.2267 4.91733,-1.2933 12.86533,-3.5733 16.768,0.9067 0.63733,0.7333 1.696,-0.3334 1.06267,-1.0534 v 0" style="fill:#577c69;fill-opacity:1;fill-rule:nonzero;stroke:none;stroke-width:0.133333"/><path id="path305" d="m 330.77466,1104.7601 c 10.596,0.5466 18.06666,13.12 22.304,21.4933 5.36266,10.6 8.228,24.2 6.91466,36.0133 -0.0507,0.4534 0.524,0.8934 0.95067,0.72 2.65067,-1.08 7.78933,0.6134 6.04133,4.3867 -2.204,4.76 -10.42266,-0.9067 -5.14933,-4.28 0.81333,-0.5333 0.06,-1.8267 -0.75867,-1.3067 -5.70266,3.6534 -0.0973,10.92 5.47467,8.04 2.44667,-1.2666 2.70667,-4.0933 1.40533,-6.2533 -1.53866,-2.5467 -4.856,-3.08 -7.412,-2.04 0.316,0.2533 0.63334,0.4933 0.95067,0.7333 1.41467,-12.72 -1.98133,-26.92 -7.86667,-38.2266 -4.42666,-8.4934 -12.192,-20.24 -22.85466,-20.7867 -0.96933,-0.04 -0.964,1.4533 0,1.5067 v 0" style="fill:#577c69;fill-opacity:1;fill-rule:nonzero;stroke:none;stroke-width:0.133333"/><path id="path306" d="m 332.27733,1104.7467 c 5.76399,-2.48 12.89066,1.6934 17.88666,4.3467 6.18,3.28 11.42133,7.9467 15.924,13.2533 9.42,11.12 16.31733,26.3467 14.83067,41.1334 -0.0653,0.6533 0.86666,0.9866 1.28266,0.5333 2.51067,-2.8 6.76534,1.9867 4.536,4.7467 -1.32133,1.6266 -4.212,1.2 -5.608,0.04 -1.96533,-1.6267 0.168,-4.4667 0.94667,-6 0.43867,-0.8667 -0.85733,-1.6267 -1.29733,-0.76 -1.23334,2.4266 -3.45734,6.4933 -0.02,8.3866 2.48933,1.3867 5.62133,1.1467 7.47466,-1.1466 3.152,-3.88 -3.532,-10.3067 -7.09466,-6.3334 0.428,0.1734 0.85466,0.3467 1.28266,0.5334 1.61067,-16.0134 -6.332,-32.0134 -16.65066,-43.7867 -4.944,-5.6533 -10.92134,-9.9467 -17.584,-13.32 -4.94267,-2.4933 -11.196,-5.28 -16.66667,-2.9333 -0.88933,0.3866 -0.12266,1.68 0.75734,1.3066 v 0" style="fill:#577c69;fill-opacity:1;fill-rule:nonzero;stroke:none;stroke-width:0.133333"/><path id="path307" d="m 334.40266,1104.2401 c 6.78266,-2.4134 14.50933,1.5333 20.97466,3.4533 8.168,2.4133 15.49867,6.56 22.108,11.9067 13.95467,11.2666 22.30267,26.3866 23.85867,44.32 0.0413,0.4666 0.452,0.8666 0.952,0.72 1.99067,-0.6134 3.93333,-0.16 4.71467,1.9333 1.01733,2.7333 -2.916,3.9733 -4.79467,2.9333 -2.55067,-1.4133 -2.83333,-6.5333 0.708,-6.6133 0.968,-0.027 0.97067,-1.5333 0,-1.5067 -6.028,0.1467 -4.932,9.7334 0.36933,10.0667 2.57334,0.1733 5.88267,-1.7333 5.276,-4.7333 -0.65066,-3.2267 -3.72533,-4.4267 -6.67333,-3.5334 0.31733,0.24 0.63467,0.48 0.95067,0.7334 -0.74534,-8.6 -2.932,-16.9067 -6.77867,-24.64 -4.08267,-8.2134 -10.52667,-14.9467 -17.52,-20.7467 -6.70933,-5.5733 -14.40933,-9.8 -22.77067,-12.2933 -6.74,-2.0134 -14.67866,-5.9734 -21.77466,-3.4534 -0.90533,0.32 -0.516,1.7734 0.4,1.4534 v 0" style="fill:#577c69;fill-opacity:1;fill-rule:nonzero;stroke:none;stroke-width:0.133333"/><path id="path308" d="m 337.60799,1104.0134 c 5.54933,-2.76 12.432,-1.68 18.384,-1.12 7.11867,0.6533 14.13867,2.24 20.93333,4.4267 12.14134,3.9333 21.71067,10.8133 29.484,20.9066 3.36667,4.3867 6.16,9.1867 8.432,14.2134 2.20534,4.88 3.176,9.6533 3.948,14.88 0.52667,3.5733 2.25867,4.1866 5.40934,5.3466 3.532,1.3067 2.724,5.72 -0.69067,6.7334 -1.896,0.5733 -3.49867,-0.8934 -4.108,-2.5067 -0.976,-2.6 1.128,-4.5067 2.668,-6.2267 0.64667,-0.72 -0.41333,-1.7866 -1.06267,-1.0533 -1.928,2.1333 -3.44666,3.6667 -3.248,6.6933 0.12667,1.9334 1.42934,3.5067 3.124,4.2934 3.88534,1.8133 7.32267,-2.1467 7.19867,-5.8 -0.0547,-1.6267 -1.44533,-2.6534 -2.768,-3.28 -0.75867,-0.3734 -1.58133,-0.6134 -2.372,-0.8934 -2.184,-0.7733 -2.51733,-2.1066 -2.76267,-4.28 -0.73866,-6.52 -2.824,-12.48 -5.79866,-18.3333 -6.444,-12.68 -17.008,-24.16 -30.31067,-29.6267 -7.848,-3.2133 -16.08133,-5.4933 -24.50267,-6.5866 -7.19466,-0.9334 -15.94933,-2.4534 -22.716,0.9066 -0.868,0.44 -0.10666,1.7334 0.75867,1.3067 v 0" style="fill:#577c69;fill-opacity:1;fill-rule:nonzero;stroke:none;stroke-width:0.133333"/><path id="path309" d="m 340.20932,1102.7867 c 2.756,-3.6266 8.57867,-3.3866 12.66267,-3.1866 5.23733,0.2533 10.47067,1.16 15.59467,2.24 10.592,2.2266 20.76,6.12 30.472,10.84 18.50133,9.0133 36.55733,23.9733 39.376,45.7066 0.0493,0.3734 0.30533,0.7734 0.752,0.7467 2.01066,-0.1467 3.53466,-0.1467 4.78533,1.7467 1.72,2.6133 0.22267,6.48 -2.976,6.8 -2.79067,0.28 -4.896,-2.9734 -5.07867,-5.3334 -0.25066,-3.2533 3.54134,-3.8533 5.75867,-4.52 0.924,-0.2933 0.52933,-1.7333 -0.4,-1.4533 -3.63467,1.1067 -7.14533,2.2933 -6.79733,6.8 0.27066,3.4933 3.95866,6.2667 7.304,5.9333 3.04133,-0.3066 4.82266,-3.9066 4.28266,-6.6666 -0.76133,-3.8934 -3.20933,-5.0667 -6.87866,-4.8134 0.25066,0.2534 0.50133,0.5067 0.752,0.76 -1.404,-10.8133 -6.84667,-20.3733 -13.98267,-28.4533 -7.77867,-8.8133 -17.70667,-14.52 -28.188,-19.5333 -10.92267,-5.2267 -22.45867,-9.0534 -34.404,-11.08 -6.84533,-1.16 -19.31467,-3.8934 -24.332,2.7066 -0.58667,0.7734 0.71867,1.52 1.29733,0.76 v 0" style="fill:#577c69;fill-opacity:1;fill-rule:nonzero;stroke:none;stroke-width:0.133333"/><path id="path310" d="m 326.94799,1104.1734 c -4.12933,-2.28 -8.25333,-4.4933 -12.81466,-5.7867 -4.42134,-1.2533 -9.00267,-0.96 -13.49734,-0.3333 -9.396,1.28 -18.01466,5.6133 -25.43066,11.4 -15.972,12.48 -28.12,30.2133 -32.85867,50.0133 -0.088,0.36 0.11067,0.8534 0.524,0.92 2.14267,0.3467 3.72533,2.6134 1.524,4.1867 -2.324,1.6533 -5.00933,-5.16 -0.208,-5.24 0.96933,-0.013 0.97067,-1.5067 0,-1.4933 -4.968,0.067 -6.00933,8.4666 -0.808,8.4266 4.85733,-0.04 4.34533,-6.6133 -0.108,-7.3333 0.17467,0.3067 0.35067,0.6267 0.52533,0.9333 4.356,-18.2 15.036,-34.48 29.136,-46.64 6.99734,-6.04 14.96134,-10.7466 23.984,-12.9466 5.14667,-1.2534 10.592,-1.7467 15.80534,-0.6934 4.82,0.9734 9.21333,3.5334 13.468,5.8934 0.84933,0.4666 1.60666,-0.84 0.75866,-1.3067 v 0" style="fill:#577c69;fill-opacity:1;fill-rule:nonzero;stroke:none;stroke-width:0.133333"/><path id="path311" d="m 322.67599,1100.8401 c -4.484,-2.4534 -10.092,-2.6267 -15.07733,-3.0534 -7.43067,-0.6533 -14.76933,-1.3866 -22.22267,-0.5866 -12.80266,1.3866 -25.13333,8.7333 -35.08533,16.56 -10.07333,7.92 -19.17733,17.8666 -24.20267,29.8 -1.01466,2.4133 -1.81733,4.8933 -2.79466,7.32 -0.732,1.8133 -1.964,4.3066 -1.48934,6.3333 0.50134,2.1467 1.948,3.72 3.12267,5.5333 -1.17467,3.6934 -2.79067,4.5734 -4.848,2.6534 -1.876,-1.5734 -1.15067,-4.2134 0.60667,-5.4534 1.16666,-0.8133 2.79333,-1.0666 4.16133,-1.3333 0.95067,-0.1867 0.54667,-1.64 -0.4,-1.4533 -3.43467,0.68 -9.19467,3.2933 -6.45333,7.8933 1.13066,1.8933 2.75866,2.9733 5.00666,2.8533 1.56934,-0.067 3.85334,-1.7866 3.85067,-3.4933 -0.004,-2.3733 -1.87867,-4.0133 -2.98533,-5.9867 -1.596,-2.84 0.65466,-6.5066 1.708,-9.2266 2.908,-7.5334 6.336,-14.2 11.43066,-20.5067 9.66534,-11.9733 23.036,-21.36 37.22,-27.2 8.29867,-3.4133 17.436,-3.52 26.24534,-2.8667 6.728,0.5067 15.41733,0.2 21.448,3.52 0.84933,0.4667 1.608,-0.84 0.75866,-1.3066 v 0" style="fill:#577c69;fill-opacity:1;fill-rule:nonzero;stroke:none;stroke-width:0.133333"/><path id="path312" d="m 300.76133,1096.8801 c -8.36934,-0.76 -16.30667,-2.6667 -24.76667,-2.3467 -8.08267,0.2933 -16.124,1.44 -23.788,4.0933 -12.81467,4.4267 -25.676,12.2667 -34.44,22.68 -4.544,5.4 -7.992,11.7734 -10.69867,18.2667 -2.3,5.5067 -5.27733,11.9867 -5.832,18.0267 -0.11733,1.2933 0.38267,2.3066 1.52934,2.8666 0.59866,0.2934 1.28533,0.4267 1.92266,0.6134 2.444,0.7066 1.588,3.4266 0.32534,4.88 -2.692,3.1333 -10.868,-4.5734 -2.788,-7.16 0.92,-0.2934 0.52666,-1.7334 -0.4,-1.44 -3.43867,1.0933 -5.704,3.6133 -4.06667,7.24 1.27334,2.8266 5.064,4.72 7.804,2.8666 2.74933,-1.8533 3.232,-6.32 -0.0267,-7.68 -1.28933,-0.5466 -2.776,-0.2533 -2.79733,-2.1866 -0.0173,-1.6934 0.73067,-3.5334 1.256,-5.1334 1.26133,-3.8266 2.548,-7.64 4.056,-11.3733 3.47733,-8.6267 8.30933,-16.6667 14.93467,-23.2267 5.908,-5.8533 13.17866,-10.1066 20.57466,-13.7866 8.84534,-4.4134 17.772,-6.9067 27.61867,-7.76 4.88,-0.4267 9.788,-0.56 14.66267,-0.04 4.99733,0.5333 9.90933,1.6533 14.92,2.0933 0.96666,0.093 0.95733,-1.4133 0,-1.4933 v 0" style="fill:#577c69;fill-opacity:1;fill-rule:nonzero;stroke:none;stroke-width:0.133333"/><path id="path313" d="m 341.34266,1102.1201 c 5.73066,-1.5734 11.39066,-3.2267 17.34933,-3.6267 6.036,-0.4 12.34533,0.6 18.30267,1.4667 11.83333,1.7333 23.548,4.84 34.50666,9.6666 17.732,7.8 36.99867,21.8667 41.69067,41.7067 0.11333,0.48 0.69333,0.68 1.104,0.4533 4.98933,-2.8266 10.15067,4.3734 4.19733,6.5067 -5.032,1.8133 -5.67733,-5.92 -1.52933,-7.7067 0.888,-0.3733 0.12133,-1.6666 -0.75867,-1.2933 -6.31466,2.72 -3.636,12.72 3.404,10.2 7.23733,-2.6 0.62267,-12.8 -6.072,-9 0.368,0.1467 0.736,0.2933 1.104,0.44 -4.72933,-20 -23.67466,-33.92 -41.35333,-42.1467 -11.32,-5.2666 -23.58933,-8.3866 -35.89467,-10.28 -6.14266,-0.9333 -12.48,-1.7466 -18.70133,-1.5066 -6.06133,0.2266 -11.94267,2.08 -17.74933,3.6666 -0.93334,0.2534 -0.536,1.7067 0.4,1.4534 v 0" style="fill:#577c69;fill-opacity:1;fill-rule:nonzero;stroke:none;stroke-width:0.133333"/><path id="path314" d="m 330.82533,1103.9334 c 8.11733,3.5333 11.38799,14.68 13.27066,22.5467 2.96,12.36 3.60267,25.28 3.33067,37.9466 -0.0107,0.48 0.488,0.8534 0.95066,0.72 3.668,-1.0533 4.816,4.7067 2.11067,6.4534 -1.75733,1.1333 -4.53867,0.9733 -5.12933,-1.24 -0.38667,-1.4667 1.76266,-8.6134 3.29066,-6.1867 0.51467,0.8133 1.816,0.067 1.29734,-0.76 -3.09334,-4.92 -8.06934,5.6 -5.072,9.24 2.004,2.4267 7.27333,0.8 8.26133,-1.8533 1.27733,-3.4267 -1.01067,-8.2934 -5.15867,-7.1067 0.31734,0.2533 0.63467,0.4933 0.952,0.7333 0.28667,-13.32 -0.48666,-26.8933 -3.75333,-39.8533 -1.96133,-7.7733 -5.59333,-18.4533 -13.592,-21.9333 -0.87866,-0.3867 -1.64533,0.9066 -0.75866,1.2933 v 0" style="fill:#577c69;fill-opacity:1;fill-rule:nonzero;stroke:none;stroke-width:0.133333"/><path id="path1461" d="m 392.63866,1047.0134 c -0.0933,-3.8667 -6.10534,-3.88 -6.012,0 0.38533,16.0133 -3.73067,31.52 -8.91067,46.5467 -1.26667,3.68 4.54133,5.24 5.79733,1.6 5.348,-15.5067 9.52267,-31.6267 9.12534,-48.1467" style="fill:#534741;fill-opacity:1;fill-rule:nonzero;stroke:none;stroke-width:0.133333"/><path id="path300" d="m 328.14666,1104.4934 c 4.87467,2.2933 5.59066,10.1733 6.16533,14.8267 0.68533,5.5466 0.85467,11.2266 0.83333,16.8133 -0.0173,4.5733 -0.388,9.1467 -0.92933,13.6933 -0.38,3.1867 -1.68533,6.8667 -0.972,10.0934 0.21333,0.9733 0.69867,1.8666 1.268,2.6666 0.42933,0.6 0.88667,1.16 1.284,1.7867 1.94133,3.0533 -2.23867,2.5467 -2.936,1.9867 -1.79333,-1.44 -2.34266,-5.6534 0.868,-5.24 0.96,0.12 0.948,-1.3867 0,-1.5067 -5.26133,-0.6667 -4.34,6.4667 -1.06933,8.4267 1.97733,1.1866 4.55066,-0.56 4.90266,-2.5867 0.20267,-1.1733 -0.76933,-2.36 -1.42266,-3.2 -2.392,-3.0933 -1.30534,-6.2133 -0.77467,-9.7733 1.52133,-10.2 1.58667,-20.56 0.69467,-30.8134 -0.49467,-5.6933 -1.11734,-15.6266 -7.15333,-18.48 -0.87067,-0.4 -1.63467,0.8934 -0.75867,1.3067 v 0" style="fill:#577c69;fill-opacity:1;fill-rule:nonzero;stroke:none;stroke-width:0.133333"/><path id="path301" d="m 329.85333,1102.8534 c -7.304,2.7067 -8.42,13.9467 -9.73867,20.4533 -2.37067,11.72 -4.092,24.16 -4.34133,36.0934 -0.007,0.3333 0.23333,0.6533 0.552,0.7333 1.97866,0.4667 1.96133,2.9867 1.15866,4.4533 -1.23466,2.24 -4.07333,-0.44 -4.19466,-2.08 -0.16267,-2.2133 2.00266,-2.9733 3.72533,-2.2666 0.896,0.3733 1.28267,-1.08 0.39867,-1.4534 -5.03334,-2.0533 -7.58267,4.84 -3.304,7.5067 4.16266,2.6 6.536,-3.2667 4.59066,-6.3467 -0.58666,-0.9333 -1.42,-0.7066 -1.39733,-1.7866 0.06,-2.9067 0.33067,-5.8134 0.62933,-8.7067 0.63067,-6.1333 1.50267,-12.2667 2.38534,-18.36 0.76133,-5.28 1.88666,-10.44 3.17466,-15.6 1.03467,-4.1467 2.28534,-9.5333 6.76134,-11.1867 0.9,-0.3333 0.51066,-1.7866 -0.4,-1.4533 v 0" style="fill:#577c69;fill-opacity:1;fill-rule:nonzero;stroke:none;stroke-width:0.133333"/><path id="path302" d="m 329.87866,1102.8267 c -5.376,-1.0266 -9.56533,3.2 -13.51333,6.2134 -4.50534,3.44 -8.26934,7.6933 -11.32267,12.4533 -7.26267,11.32 -7.93333,24.8667 -8.51067,37.9067 -0.0187,0.4 0.356,0.7466 0.752,0.7466 3.80134,0.027 4.57734,6.6667 0.62534,6.0267 -3.05734,-0.4933 -2.46667,-6.84 -0.324,-5.56 0.83333,0.4933 1.58933,-0.8 0.75866,-1.3067 -4.62533,-2.76 -5.50266,6.72 -0.83466,8.32 5.576,1.9067 6.21066,-8.9333 -0.22534,-8.9866 0.25067,0.2533 0.5,0.5066 0.75067,0.76 0.508,-11.4667 1.04133,-23.08 6.25333,-33.5334 2.436,-4.88 5.83867,-9.2 9.79467,-12.9333 3.632,-3.44 10.016,-9.68 15.396,-8.6533 0.94667,0.1733 1.35067,-1.28 0.4,-1.4534 v 0" style="fill:#577c69;fill-opacity:1;fill-rule:nonzero;stroke:none;stroke-width:0.133333"/><path id="path303" d="m 328.00533,1102.6934 c -8.024,-2.6267 -16.34,1.5867 -22.94267,5.8933 -7.34267,4.7867 -14.852,11.12 -20.08,18.2 -6.22,8.4267 -8.73333,18.3067 -9.65733,28.6 -0.13467,1.4934 -0.684,3.7467 0.0307,5.1867 0.65467,1.3067 1.70534,2.52 2.51067,3.7467 0.41067,0.6266 0.75067,1.2933 1.01733,2 -0.13466,2.3866 -1.044,3.32 -2.72666,2.7866 -0.88534,-0.4 -1.216,-1.6133 -1.43467,-2.4533 -0.63733,-2.44 0.304,-5.28 2.55467,-6.48 0.85333,-0.4667 0.0947,-1.76 -0.75867,-1.3067 -2.70133,1.4534 -3.876,4.64 -3.348,7.6134 0.45733,2.56 2.14267,5.0933 5.04,4.0133 4.08,-1.52 1.72667,-5.7733 0.124,-8.1867 -1.428,-2.1466 -1.78,-3.1733 -1.59067,-5.8666 0.26,-3.6934 0.76667,-7.3734 1.53467,-11 2.588,-12.2134 9.88667,-21.12 19.08533,-29.0934 7.64,-6.64 19.436,-15.7333 30.24134,-12.2133 0.924,0.3067 1.316,-1.1467 0.4,-1.44 v 0" style="fill:#577c69;fill-opacity:1;fill-rule:nonzero;stroke:none;stroke-width:0.133333"/><path id="path304" d="m 326.80933,1103.1467 c -5.136,-5.9066 -16.21334,-2 -22.33734,-0.1333 -10.43466,3.1867 -18.524,9.2 -25.34533,17.6133 -6.94267,8.5867 -12.03467,18.68 -15.128,29.2534 -1.12133,3.8266 -3.25867,8.4666 -2.54,12.52 0.136,0.76 0.748,1.5733 1.13733,2.2 1.432,2.3333 0.18534,6.0666 -2.684,3.8 -3.93866,-3.1067 0.72267,-6.0934 3.528,-6.9067 0.92934,-0.28 0.53334,-1.7333 -0.39866,-1.4533 -2.58134,0.7466 -6.47867,2.2266 -5.98,5.64 0.416,2.84 2.57866,5.6133 5.72933,4.8666 3.452,-0.8266 1.84933,-5.48 0.69333,-7.36 -1.75066,-2.8533 0.30934,-7.0666 1.172,-9.9733 0.924,-3.12 1.76,-6.2133 2.89334,-9.2667 4.69333,-12.64 12.96533,-25.7066 24.22533,-33.4266 5.17067,-3.5467 11.188,-5.64 17.204,-7.2267 4.91733,-1.2933 12.86533,-3.5733 16.768,0.9067 0.63733,0.7333 1.696,-0.3334 1.06267,-1.0534 v 0" style="fill:#577c69;fill-opacity:1;fill-rule:nonzero;stroke:none;stroke-width:0.133333"/><path id="path305" d="m 330.77466,1104.7601 c 10.596,0.5466 18.06666,13.12 22.304,21.4933 5.36266,10.6 8.228,24.2 6.91466,36.0133 -0.0507,0.4534 0.524,0.8934 0.95067,0.72 2.65067,-1.08 7.78933,0.6134 6.04133,4.3867 -2.204,4.76 -10.42266,-0.9067 -5.14933,-4.28 0.81333,-0.5333 0.06,-1.8267 -0.75867,-1.3067 -5.70266,3.6534 -0.0973,10.92 5.47467,8.04 2.44667,-1.2666 2.70667,-4.0933 1.40533,-6.2533 -1.53866,-2.5467 -4.856,-3.08 -7.412,-2.04 0.316,0.2533 0.63334,0.4933 0.95067,0.7333 1.41467,-12.72 -1.98133,-26.92 -7.86667,-38.2266 -4.42666,-8.4934 -12.192,-20.24 -22.85466,-20.7867 -0.96933,-0.04 -0.964,1.4533 0,1.5067 v 0" style="fill:#577c69;fill-opacity:1;fill-rule:nonzero;stroke:none;stroke-width:0.133333"/><path id="path306" d="m 332.27733,1104.7467 c 5.76399,-2.48 12.89066,1.6934 17.88666,4.3467 6.18,3.28 11.42133,7.9467 15.924,13.2533 9.42,11.12 16.31733,26.3467 14.83067,41.1334 -0.0653,0.6533 0.86666,0.9866 1.28266,0.5333 2.51067,-2.8 6.76534,1.9867 4.536,4.7467 -1.32133,1.6266 -4.212,1.2 -5.608,0.04 -1.96533,-1.6267 0.168,-4.4667 0.94667,-6 0.43867,-0.8667 -0.85733,-1.6267 -1.29733,-0.76 -1.23334,2.4266 -3.45734,6.4933 -0.02,8.3866 2.48933,1.3867 5.62133,1.1467 7.47466,-1.1466 3.152,-3.88 -3.532,-10.3067 -7.09466,-6.3334 0.428,0.1734 0.85466,0.3467 1.28266,0.5334 1.61067,-16.0134 -6.332,-32.0134 -16.65066,-43.7867 -4.944,-5.6533 -10.92134,-9.9467 -17.584,-13.32 -4.94267,-2.4933 -11.196,-5.28 -16.66667,-2.9333 -0.88933,0.3866 -0.12266,1.68 0.75734,1.3066 v 0" style="fill:#577c69;fill-opacity:1;fill-rule:nonzero;stroke:none;stroke-width:0.133333"/><path id="path307" d="m 334.40266,1104.2401 c 6.78266,-2.4134 14.50933,1.5333 20.97466,3.4533 8.168,2.4133 15.49867,6.56 22.108,11.9067 13.95467,11.2666 22.30267,26.3866 23.85867,44.32 0.0413,0.4666 0.452,0.8666 0.952,0.72 1.99067,-0.6134 3.93333,-0.16 4.71467,1.9333 1.01733,2.7333 -2.916,3.9733 -4.79467,2.9333 -2.55067,-1.4133 -2.83333,-6.5333 0.708,-6.6133 0.968,-0.027 0.97067,-1.5333 0,-1.5067 -6.028,0.1467 -4.932,9.7334 0.36933,10.0667 2.57334,0.1733 5.88267,-1.7333 5.276,-4.7333 -0.65066,-3.2267 -3.72533,-4.4267 -6.67333,-3.5334 0.31733,0.24 0.63467,0.48 0.95067,0.7334 -0.74534,-8.6 -2.932,-16.9067 -6.77867,-24.64 -4.08267,-8.2134 -10.52667,-14.9467 -17.52,-20.7467 -6.70933,-5.5733 -14.40933,-9.8 -22.77067,-12.2933 -6.74,-2.0134 -14.67866,-5.9734 -21.77466,-3.4534 -0.90533,0.32 -0.516,1.7734 0.4,1.4534 v 0" style="fill:#577c69;fill-opacity:1;fill-rule:nonzero;stroke:none;stroke-width:0.133333"/><path id="path308" d="m 337.60799,1104.0134 c 5.54933,-2.76 12.432,-1.68 18.384,-1.12 7.11867,0.6533 14.13867,2.24 20.93333,4.4267 12.14134,3.9333 21.71067,10.8133 29.484,20.9066 3.36667,4.3867 6.16,9.1867 8.432,14.2134 2.20534,4.88 3.176,9.6533 3.948,14.88 0.52667,3.5733 2.25867,4.1866 5.40934,5.3466 3.532,1.3067 2.724,5.72 -0.69067,6.7334 -1.896,0.5733 -3.49867,-0.8934 -4.108,-2.5067 -0.976,-2.6 1.128,-4.5067 2.668,-6.2267 0.64667,-0.72 -0.41333,-1.7866 -1.06267,-1.0533 -1.928,2.1333 -3.44666,3.6667 -3.248,6.6933 0.12667,1.9334 1.42934,3.5067 3.124,4.2934 3.88534,1.8133 7.32267,-2.1467 7.19867,-5.8 -0.0547,-1.6267 -1.44533,-2.6534 -2.768,-3.28 -0.75867,-0.3734 -1.58133,-0.6134 -2.372,-0.8934 -2.184,-0.7733 -2.51733,-2.1066 -2.76267,-4.28 -0.73866,-6.52 -2.824,-12.48 -5.79866,-18.3333 -6.444,-12.68 -17.008,-24.16 -30.31067,-29.6267 -7.848,-3.2133 -16.08133,-5.4933 -24.50267,-6.5866 -7.19466,-0.9334 -15.94933,-2.4534 -22.716,0.9066 -0.868,0.44 -0.10666,1.7334 0.75867,1.3067 v 0" style="fill:#577c69;fill-opacity:1;fill-rule:nonzero;stroke:none;stroke-width:0.133333"/><path id="path309" d="m 340.20932,1102.7867 c 2.756,-3.6266 8.57867,-3.3866 12.66267,-3.1866 5.23733,0.2533 10.47067,1.16 15.59467,2.24 10.592,2.2266 20.76,6.12 30.472,10.84 18.50133,9.0133 36.55733,23.9733 39.376,45.7066 0.0493,0.3734 0.30533,0.7734 0.752,0.7467 2.01066,-0.1467 3.53466,-0.1467 4.78533,1.7467 1.72,2.6133 0.22267,6.48 -2.976,6.8 -2.79067,0.28 -4.896,-2.9734 -5.07867,-5.3334 -0.25066,-3.2533 3.54134,-3.8533 5.75867,-4.52 0.924,-0.2933 0.52933,-1.7333 -0.4,-1.4533 -3.63467,1.1067 -7.14533,2.2933 -6.79733,6.8 0.27066,3.4933 3.95866,6.2667 7.304,5.9333 3.04133,-0.3066 4.82266,-3.9066 4.28266,-6.6666 -0.76133,-3.8934 -3.20933,-5.0667 -6.87866,-4.8134 0.25066,0.2534 0.50133,0.5067 0.752,0.76 -1.404,-10.8133 -6.84667,-20.3733 -13.98267,-28.4533 -7.77867,-8.8133 -17.70667,-14.52 -28.188,-19.5333 -10.92267,-5.2267 -22.45867,-9.0534 -34.404,-11.08 -6.84533,-1.16 -19.31467,-3.8934 -24.332,2.7066 -0.58667,0.7734 0.71867,1.52 1.29733,0.76 v 0" style="fill:#577c69;fill-opacity:1;fill-rule:nonzero;stroke:none;stroke-width:0.133333"/><path id="path310" d="m 326.94799,1104.1734 c -4.12933,-2.28 -8.25333,-4.4933 -12.81466,-5.7867 -4.42134,-1.2533 -9.00267,-0.96 -13.49734,-0.3333 -9.396,1.28 -18.01466,5.6133 -25.43066,11.4 -15.972,12.48 -28.12,30.2133 -32.85867,50.0133 -0.088,0.36 0.11067,0.8534 0.524,0.92 2.14267,0.3467 3.72533,2.6134 1.524,4.1867 -2.324,1.6533 -5.00933,-5.16 -0.208,-5.24 0.96933,-0.013 0.97067,-1.5067 0,-1.4933 -4.968,0.067 -6.00933,8.4666 -0.808,8.4266 4.85733,-0.04 4.34533,-6.6133 -0.108,-7.3333 0.17467,0.3067 0.35067,0.6267 0.52533,0.9333 4.356,-18.2 15.036,-34.48 29.136,-46.64 6.99734,-6.04 14.96134,-10.7466 23.984,-12.9466 5.14667,-1.2534 10.592,-1.7467 15.80534,-0.6934 4.82,0.9734 9.21333,3.5334 13.468,5.8934 0.84933,0.4666 1.60666,-0.84 0.75866,-1.3067 v 0" style="fill:#577c69;fill-opacity:1;fill-rule:nonzero;stroke:none;stroke-width:0.133333"/><path id="path311" d="m 322.67599,1100.8401 c -4.484,-2.4534 -10.092,-2.6267 -15.07733,-3.0534 -7.43067,-0.6533 -14.76933,-1.3866 -22.22267,-0.5866 -12.80266,1.3866 -25.13333,8.7333 -35.08533,16.56 -10.07333,7.92 -19.17733,17.8666 -24.20267,29.8 -1.01466,2.4133 -1.81733,4.8933 -2.79466,7.32 -0.732,1.8133 -1.964,4.3066 -1.48934,6.3333 0.50134,2.1467 1.948,3.72 3.12267,5.5333 -1.17467,3.6934 -2.79067,4.5734 -4.848,2.6534 -1.876,-1.5734 -1.15067,-4.2134 0.60667,-5.4534 1.16666,-0.8133 2.79333,-1.0666 4.16133,-1.3333 0.95067,-0.1867 0.54667,-1.64 -0.4,-1.4533 -3.43467,0.68 -9.19467,3.2933 -6.45333,7.8933 1.13066,1.8933 2.75866,2.9733 5.00666,2.8533 1.56934,-0.067 3.85334,-1.7866 3.85067,-3.4933 -0.004,-2.3733 -1.87867,-4.0133 -2.98533,-5.9867 -1.596,-2.84 0.65466,-6.5066 1.708,-9.2266 2.908,-7.5334 6.336,-14.2 11.43066,-20.5067 9.66534,-11.9733 23.036,-21.36 37.22,-27.2 8.29867,-3.4133 17.436,-3.52 26.24534,-2.8667 6.728,0.5067 15.41733,0.2 21.448,3.52 0.84933,0.4667 1.608,-0.84 0.75866,-1.3066 v 0" style="fill:#577c69;fill-opacity:1;fill-rule:nonzero;stroke:none;stroke-width:0.133333"/><path id="path312" d="m 300.76133,1096.8801 c -8.36934,-0.76 -16.30667,-2.6667 -24.76667,-2.3467 -8.08267,0.2933 -16.124,1.44 -23.788,4.0933 -12.81467,4.4267 -25.676,12.2667 -34.44,22.68 -4.544,5.4 -7.992,11.7734 -10.69867,18.2667 -2.3,5.5067 -5.27733,11.9867 -5.832,18.0267 -0.11733,1.2933 0.38267,2.3066 1.52934,2.8666 0.59866,0.2934 1.28533,0.4267 1.92266,0.6134 2.444,0.7066 1.588,3.4266 0.32534,4.88 -2.692,3.1333 -10.868,-4.5734 -2.788,-7.16 0.92,-0.2934 0.52666,-1.7334 -0.4,-1.44 -3.43867,1.0933 -5.704,3.6133 -4.06667,7.24 1.27334,2.8266 5.064,4.72 7.804,2.8666 2.74933,-1.8533 3.232,-6.32 -0.0267,-7.68 -1.28933,-0.5466 -2.776,-0.2533 -2.79733,-2.1866 -0.0173,-1.6934 0.73067,-3.5334 1.256,-5.1334 1.26133,-3.8266 2.548,-7.64 4.056,-11.3733 3.47733,-8.6267 8.30933,-16.6667 14.93467,-23.2267 5.908,-5.8533 13.17866,-10.1066 20.57466,-13.7866 8.84534,-4.4134 17.772,-6.9067 27.61867,-7.76 4.88,-0.4267 9.788,-0.56 14.66267,-0.04 4.99733,0.5333 9.90933,1.6533 14.92,2.0933 0.96666,0.093 0.95733,-1.4133 0,-1.4933 v 0" style="fill:#577c69;fill-opacity:1;fill-rule:nonzero;stroke:none;stroke-width:0.133333"/><path id="path313" d="m 341.34266,1102.1201 c 5.73066,-1.5734 11.39066,-3.2267 17.34933,-3.6267 6.036,-0.4 12.34533,0.6 18.30267,1.4667 11.83333,1.7333 23.548,4.84 34.50666,9.6666 17.732,7.8 36.99867,21.8667 41.69067,41.7067 0.11333,0.48 0.69333,0.68 1.104,0.4533 4.98933,-2.8266 10.15067,4.3734 4.19733,6.5067 -5.032,1.8133 -5.67733,-5.92 -1.52933,-7.7067 0.888,-0.3733 0.12133,-1.6666 -0.75867,-1.2933 -6.31466,2.72 -3.636,12.72 3.404,10.2 7.23733,-2.6 0.62267,-12.8 -6.072,-9 0.368,0.1467 0.736,0.2933 1.104,0.44 -4.72933,-20 -23.67466,-33.92 -41.35333,-42.1467 -11.32,-5.2666 -23.58933,-8.3866 -35.89467,-10.28 -6.14266,-0.9333 -12.48,-1.7466 -18.70133,-1.5066 -6.06133,0.2266 -11.94267,2.08 -17.74933,3.6666 -0.93334,0.2534 -0.536,1.7067 0.4,1.4534 v 0" style="fill:#577c69;fill-opacity:1;fill-rule:nonzero;stroke:none;stroke-width:0.133333"/><path id="path314" d="m 330.82533,1103.9334 c 8.11733,3.5333 11.38799,14.68 13.27066,22.5467 2.96,12.36 3.60267,25.28 3.33067,37.9466 -0.0107,0.48 0.488,0.8534 0.95066,0.72 3.668,-1.0533 4.816,4.7067 2.11067,6.4534 -1.75733,1.1333 -4.53867,0.9733 -5.12933,-1.24 -0.38667,-1.4667 1.76266,-8.6134 3.29066,-6.1867 0.51467,0.8133 1.816,0.067 1.29734,-0.76 -3.09334,-4.92 -8.06934,5.6 -5.072,9.24 2.004,2.4267 7.27333,0.8 8.26133,-1.8533 1.27733,-3.4267 -1.01067,-8.2934 -5.15867,-7.1067 0.31734,0.2533 0.63467,0.4933 0.952,0.7333 0.28667,-13.32 -0.48666,-26.8933 -3.75333,-39.8533 -1.96133,-7.7733 -5.59333,-18.4533 -13.592,-21.9333 -0.87866,-0.3867 -1.64533,0.9066 -0.75866,1.2933 v 0" style="fill:#577c69;fill-opacity:1;fill-rule:nonzero;stroke:none;stroke-width:0.133333"/><path id="path1461" d="m 392.63866,1047.0134 c -0.0933,-3.8667 -6.10534,-3.88 -6.012,0 0.38533,16.0133 -3.73067,31.52 -8.91067,46.5467 -1.26667,3.68 4.54133,5.24 5.79733,1.6 5.348,-15.5067 9.52267,-31.6267 9.12534,-48.1467" style="fill:#534741;fill-opacity:1;fill-rule:nonzero;stroke:none;stroke-width:0.133333"/></g></svg>