<svg version="1.1" id="svg1" width="2000" height="2579.9468" viewBox="1308.6758744819024 2214.6362579052325 12.706915368748241 20.396507569053483" sodipodi:docname="styletrees.svg" inkscape:version="1.4.2 (f4327f4, 2025-05-13)" xmlns:inkscape="http://www.inkscape.org/namespaces/inkscape" xmlns:sodipodi="http://sodipodi.sourceforge.net/DTD/sodipodi-0.dtd" xmlns="http://www.w3.org/2000/svg" xmlns:svg="http://www.w3.org/2000/svg"><defs id="defs1"/><g><path id="path1311" d="m 1313.7306,2225.5334 c 2.34,-0.1867 4.6494,-0.68 6.892,-1.36 1.3347,-0.4 0.7654,-2.4934 -0.576,-2.08 -1.296,0.3866 -2.5986,0.7066 -3.9293,0.96 -0.2693,0.04 -3.312,0.3466 -3.8453,0.64 0.3893,-2.28 1.0146,-4.5334 1.8933,-6.76 0.516,-1.2934 -1.58,-1.8534 -2.0893,-0.5734 -0.9667,2.44 -1.6187,4.9067 -2.0027,7.4134 -0.047,0.12 -0.063,0.24 -0.053,0.36 -0.4707,3.32 -0.4614,6.6933 0.043,10.1066 0.2027,1.3867 2.2907,0.8 2.0894,-0.5733 -0.3987,-2.7067 -0.436,-5.3867 -0.152,-8.0267 0.5453,0.013 1.1386,-0.053 1.7306,-0.1066" style="fill:#577c69;fill-opacity:1;fill-rule:nonzero;stroke:none;stroke-width:0.133333"/></g></svg>