<svg version="1.1" id="svg1" width="2000" height="2579.9468" viewBox="695.6687175134668 2317.3210399703485 22.32919941744467 21.648583433507156" sodipodi:docname="styletrees.svg" inkscape:version="1.4.2 (f4327f4, 2025-05-13)" xmlns:inkscape="http://www.inkscape.org/namespaces/inkscape" xmlns:sodipodi="http://sodipodi.sourceforge.net/DTD/sodipodi-0.dtd" xmlns="http://www.w3.org/2000/svg" xmlns:svg="http://www.w3.org/2000/svg"><defs id="defs1"/><g><path id="path1362" d="m 713.04665,2320.3467 c -0.444,-0.2267 -0.888,-0.4533 -1.33333,-0.6667 -2.464,-1.24 -4.98267,-1.76 -7.70534,-1.0133 -2.5,0.6933 -4.66666,2.36 -5.976,4.6 -1.35333,2.3067 -1.71866,5.12 -1.008,7.7067 0.64934,2.36 2.352,4.8533 4.596,5.9733 0.444,0.2267 0.888,0.44 1.33334,0.6667 2.464,1.2266 4.98266,1.76 7.70533,1.0133 2.49867,-0.6933 4.66667,-2.36 5.976,-4.6 1.35333,-2.3067 1.71867,-5.12 1.008,-7.7067 -0.64933,-2.36 -2.352,-4.8533 -4.596,-5.9733 v 0" style="fill:#577c69;fill-opacity:1;fill-rule:nonzero;stroke:none;stroke-width:0.133333"/></g></svg>