<svg version="1.1" id="svg1" width="2000" height="2579.9468" viewBox="1119.9971687342868 796.2442504685572 3.335186753905873 16.130195146917345" sodipodi:docname="styletrees.svg" inkscape:version="1.4.2 (f4327f4, 2025-05-13)" xmlns:inkscape="http://www.inkscape.org/namespaces/inkscape" xmlns:sodipodi="http://sodipodi.sourceforge.net/DTD/sodipodi-0.dtd" xmlns="http://www.w3.org/2000/svg" xmlns:svg="http://www.w3.org/2000/svg"><defs id="defs1"/><g><path id="path773" d="m 1122.032,797.57341 c -0.9974,1.6 -0.74,3.50667 -0.5294,5.30667 0.336,2.84 0.5387,5.92 -0.46,8.65333 -0.3066,0.84 1.028,1.2 1.3307,0.37333 0.784,-2.14666 0.752,-4.38666 0.7453,-6.64 -0.01,-2.21333 -1.1546,-4.97333 0.1054,-7 0.472,-0.76 -0.7227,-1.45333 -1.192,-0.69333 v 0" style="fill:#577c69;fill-opacity:1;fill-rule:nonzero;stroke:none;stroke-width:0.133333"/><path id="path773" d="m 1122.032,797.57341 c -0.9974,1.6 -0.74,3.50667 -0.5294,5.30667 0.336,2.84 0.5387,5.92 -0.46,8.65333 -0.3066,0.84 1.028,1.2 1.3307,0.37333 0.784,-2.14666 0.752,-4.38666 0.7453,-6.64 -0.01,-2.21333 -1.1546,-4.97333 0.1054,-7 0.472,-0.76 -0.7227,-1.45333 -1.192,-0.69333 v 0" style="fill:#577c69;fill-opacity:1;fill-rule:nonzero;stroke:none;stroke-width:0.133333"/></g></svg>