<svg version="1.1" id="svg1" width="2000" height="2579.9468" viewBox="1152.9393320246625 669.4666283491841 3.0517831236293205 17.070119150817277" sodipodi:docname="styletrees.svg" inkscape:version="1.4.2 (f4327f4, 2025-05-13)" xmlns:inkscape="http://www.inkscape.org/namespaces/inkscape" xmlns:sodipodi="http://sodipodi.sourceforge.net/DTD/sodipodi-0.dtd" xmlns="http://www.w3.org/2000/svg" xmlns:svg="http://www.w3.org/2000/svg"><defs id="defs1"/><g><path id="path657" d="m 1154.1746,670.96008 c -0.4746,1.74667 -0.108,3.49333 0.035,5.26667 0.256,3.2 0.332,6.42666 0.4013,9.64 0.019,0.89333 1.4,0.89333 1.38,0 -0.053,-2.50667 -0.1693,-5 -0.2946,-7.50667 -0.112,-2.21333 -0.7787,-4.86667 -0.1894,-7.04 0.2334,-0.85333 -1.0986,-1.22667 -1.332,-0.36 v 0" style="fill:#577c69;fill-opacity:1;fill-rule:nonzero;stroke:none;stroke-width:0.133333"/><path id="path657" d="m 1154.1746,670.96008 c -0.4746,1.74667 -0.108,3.49333 0.035,5.26667 0.256,3.2 0.332,6.42666 0.4013,9.64 0.019,0.89333 1.4,0.89333 1.38,0 -0.053,-2.50667 -0.1693,-5 -0.2946,-7.50667 -0.112,-2.21333 -0.7787,-4.86667 -0.1894,-7.04 0.2334,-0.85333 -1.0986,-1.22667 -1.332,-0.36 v 0" style="fill:#577c69;fill-opacity:1;fill-rule:nonzero;stroke:none;stroke-width:0.133333"/></g></svg>