<svg version="1.1" id="svg1" width="2000" height="2579.9468" viewBox="1154.4535272654005 560.8188032894192 4.29000132168926 17.353894328888714" sodipodi:docname="styletrees.svg" inkscape:version="1.4.2 (f4327f4, 2025-05-13)" xmlns:inkscape="http://www.inkscape.org/namespaces/inkscape" xmlns:sodipodi="http://sodipodi.sourceforge.net/DTD/sodipodi-0.dtd" xmlns="http://www.w3.org/2000/svg" xmlns:svg="http://www.w3.org/2000/svg"><defs id="defs1"/><g><path id="path1041" d="m 1157.484,561.94675 c -4.092,2.92 -0.8627,11.85333 -0.088,15.73333 0.1746,0.86667 1.5053,0.49334 1.332,-0.37333 -0.416,-2.08 -0.892,-4.14667 -1.2414,-6.24 -0.3253,-1.94667 -1.2853,-6.52 0.6934,-7.93333 0.7173,-0.50667 0.029,-1.70667 -0.696,-1.18667 v 0" style="fill:#577c69;fill-opacity:1;fill-rule:nonzero;stroke:none;stroke-width:0.133333"/><path id="path1041" d="m 1157.484,561.94675 c -4.092,2.92 -0.8627,11.85333 -0.088,15.73333 0.1746,0.86667 1.5053,0.49334 1.332,-0.37333 -0.416,-2.08 -0.892,-4.14667 -1.2414,-6.24 -0.3253,-1.94667 -1.2853,-6.52 0.6934,-7.93333 0.7173,-0.50667 0.029,-1.70667 -0.696,-1.18667 v 0" style="fill:#577c69;fill-opacity:1;fill-rule:nonzero;stroke:none;stroke-width:0.133333"/></g></svg>