<svg version="1.1" id="svg1" width="2000" height="2579.9468" viewBox="1203.9952218308322 836.753409999981 8.823003988981782 15.22394542617485" sodipodi:docname="styletrees.svg" inkscape:version="1.4.2 (f4327f4, 2025-05-13)" xmlns:inkscape="http://www.inkscape.org/namespaces/inkscape" xmlns:sodipodi="http://sodipodi.sourceforge.net/DTD/sodipodi-0.dtd" xmlns="http://www.w3.org/2000/svg" xmlns:svg="http://www.w3.org/2000/svg"><defs id="defs1"/><g><path id="path828" d="m 1205,838.41341 c 0.4173,3.81333 1.616,7.46667 2.3253,11.22667 0.1653,0.88 1.496,0.50666 1.332,-0.36 -0.6867,-3.64 -1.8733,-7.17334 -2.276,-10.86667 -0.096,-0.88 -1.4773,-0.88 -1.3813,0 v 0" style="fill:#577c69;fill-opacity:1;fill-rule:nonzero;stroke:none;stroke-width:0.133333"/><path id="path829" d="m 1208.6813,839.56008 c -0.22,4.17333 1.8893,7.94666 2.7867,11.92 0.1946,0.86666 1.5266,0.50666 1.3306,-0.36 -0.8666,-3.85334 -2.9493,-7.53334 -2.736,-11.56 0.047,-0.88 -1.3346,-0.88 -1.3813,0 v 0" style="fill:#577c69;fill-opacity:1;fill-rule:nonzero;stroke:none;stroke-width:0.133333"/><path id="path828" d="m 1205,838.41341 c 0.4173,3.81333 1.616,7.46667 2.3253,11.22667 0.1653,0.88 1.496,0.50666 1.332,-0.36 -0.6867,-3.64 -1.8733,-7.17334 -2.276,-10.86667 -0.096,-0.88 -1.4773,-0.88 -1.3813,0 v 0" style="fill:#577c69;fill-opacity:1;fill-rule:nonzero;stroke:none;stroke-width:0.133333"/><path id="path829" d="m 1208.6813,839.56008 c -0.22,4.17333 1.8893,7.94666 2.7867,11.92 0.1946,0.86666 1.5266,0.50666 1.3306,-0.36 -0.8666,-3.85334 -2.9493,-7.53334 -2.736,-11.56 0.047,-0.88 -1.3346,-0.88 -1.3813,0 v 0" style="fill:#577c69;fill-opacity:1;fill-rule:nonzero;stroke:none;stroke-width:0.133333"/></g></svg>