<svg version="1.1" id="svg1" width="2000" height="2579.9468" viewBox="937.65195 2311.64 15.467999999999961 14.333400000000438" sodipodi:docname="styletrees.svg" inkscape:version="1.4.2 (f4327f4, 2025-05-13)" xmlns:inkscape="http://www.inkscape.org/namespaces/inkscape" xmlns:sodipodi="http://sodipodi.sourceforge.net/DTD/sodipodi-0.dtd" xmlns="http://www.w3.org/2000/svg" xmlns:svg="http://www.w3.org/2000/svg"><defs id="defs1"/><g><path id="path1428" d="m 945.33331,2312.64 c -0.005,0 -0.009,0 -0.0147,0 -3.63466,0 -6.66666,3.0267 -6.66666,6.6667 0,3.6267 3.032,6.6667 6.66666,6.6667 0.37867,0 0.756,0 1.13467,0 3.63333,0 6.66667,-3.04 6.66667,-6.6667 0,-3.64 -3.03334,-6.6667 -6.66667,-6.6667 -0.15067,0 -0.30267,0 -0.45333,0 -3.63467,0 -6.66667,3.0267 -6.66667,6.6667 0,3.6267 3.032,6.6667 6.66667,6.6667 0.15066,0 0.30266,0 0.45333,0 3.63333,0 6.66667,-3.04 6.66667,-6.6667 0,-3.64 -3.03334,-6.6667 -6.66667,-6.6667 -0.37867,0 -0.756,0 -1.13467,0 -3.63466,0 -6.66666,3.0267 -6.66666,6.6667 0,3.6267 3.032,6.6667 6.66666,6.6667 0.005,0 0.009,0 0.0147,0 3.63467,0 6.66667,-3.04 6.66667,-6.6667 0,-3.64 -3.032,-6.6667 -6.66667,-6.6667 v 0" style="fill:#577c69;fill-opacity:1;fill-rule:nonzero;stroke:none;stroke-width:0.133333"/></g></svg>