<svg version="1.1" id="svg1" width="2000" height="2579.9468" viewBox="1244.803248385676 668.9503858968468 3.4456804241694954 12.533639529308857" sodipodi:docname="styletrees.svg" inkscape:version="1.4.2 (f4327f4, 2025-05-13)" xmlns:inkscape="http://www.inkscape.org/namespaces/inkscape" xmlns:sodipodi="http://sodipodi.sourceforge.net/DTD/sodipodi-0.dtd" xmlns="http://www.w3.org/2000/svg" xmlns:svg="http://www.w3.org/2000/svg"><defs id="defs1"/><g><path id="path617" d="m 1246.388,670.18675 c -0.9214,1.17333 -0.508,3.25333 -0.3894,4.61333 0.18,2.06667 0.4787,4.14667 0.9027,6.18667 0.1813,0.86666 1.512,0.50666 1.3307,-0.36 -0.336,-1.62667 -0.5667,-3.26667 -0.7574,-4.90667 -0.108,-0.92 -0.7533,-3.73333 -0.1106,-4.56 0.544,-0.68 -0.4254,-1.66667 -0.976,-0.97333 v 0" style="fill:#577c69;fill-opacity:1;fill-rule:nonzero;stroke:none;stroke-width:0.133333"/><path id="path617" d="m 1246.388,670.18675 c -0.9214,1.17333 -0.508,3.25333 -0.3894,4.61333 0.18,2.06667 0.4787,4.14667 0.9027,6.18667 0.1813,0.86666 1.512,0.50666 1.3307,-0.36 -0.336,-1.62667 -0.5667,-3.26667 -0.7574,-4.90667 -0.108,-0.92 -0.7533,-3.73333 -0.1106,-4.56 0.544,-0.68 -0.4254,-1.66667 -0.976,-0.97333 v 0" style="fill:#577c69;fill-opacity:1;fill-rule:nonzero;stroke:none;stroke-width:0.133333"/></g></svg>