<svg version="1.1" id="svg1" width="2000" height="2579.9468" viewBox="368.97739805340245 62.98339974999989 162.33162690499444 203.72714747395426" sodipodi:docname="styletrees.svg" inkscape:version="1.4.2 (f4327f4, 2025-05-13)" xmlns:inkscape="http://www.inkscape.org/namespaces/inkscape" xmlns:sodipodi="http://sodipodi.sourceforge.net/DTD/sodipodi-0.dtd" xmlns="http://www.w3.org/2000/svg" xmlns:svg="http://www.w3.org/2000/svg"><defs id="defs1"/><g><path id="path12" d="m 478.46132,186.53343 c 4.64267,9.64 14.22667,17 23.94533,21.2 -0.17333,0.58666 -0.372,1.16 -0.58533,1.73333 -0.19733,0.04 -0.36667,0.18667 -0.368,0.45333 -0.001,0.16 -0.004,0.33334 -0.005,0.49334 -0.032,0.08 -0.0573,0.16 -0.0907,0.22666 -0.088,0.21334 -0.0333,0.4 0.0827,0.54667 -0.064,5.41333 -0.4,10.8 -1.18934,16.16 -0.0907,0.62667 0.84934,0.88 0.94134,0.26667 0.832,-5.65334 1.18266,-11.33334 1.22933,-17.04 0.328,-0.81334 0.62133,-1.62667 0.86933,-2.46667 0.404,0.16 0.63734,-0.25333 0.54,-0.6 0.0133,-0.0267 0.02,-0.0533 0.0293,-0.0667 0.428,0.18667 0.93466,-0.4 0.54133,-0.8 -0.196,-0.2 -0.38267,-0.4 -0.576,-0.6 1.424,-6.30666 1.01067,-12.94666 1.07333,-19.41333 0.0627,-6.37333 0.0493,-12.74667 -0.13333,-19.12 -0.24133,-8.38667 -0.76667,-16.76 -1.82267,-25.08 -0.964,-7.58667 -2.332,-15.25333 -5.11733,-22.4 -0.14533,-0.37333 -0.3,-0.74667 -0.456,-1.10667 -0.24,-0.57333 -1.184,-0.32 -0.94,0.25334 2.91733,6.93333 4.32133,14.45333 5.35333,21.86666 1.15467,8.29334 1.67734,16.68 1.96134,25.04 0.22,6.48 0.24666,12.96 0.18933,19.42667 -0.0493,5.69333 0.33467,11.61333 -0.46933,17.29333 -0.0733,-0.13333 -0.148,-0.26666 -0.21867,-0.41333 0.27867,-13.2 -1.12533,-26.57333 -2.33333,-39.70667 -1.40667,-15.30666 -2.91334,-30.77333 -6.09334,-45.82666 -0.0693,-0.33334 -0.14133,-0.65334 -0.21333,-0.98667 -0.136,-0.61333 -1.07733,-0.34667 -0.94133,0.26667 3.32933,15.09333 4.792,30.66666 6.22533,46.04 1.17467,12.6 2.47333,25.4 2.39333,38.09333 -1.31866,-3.37333 -1.968,-7.05333 -2.64,-10.57333 -0.52,-2.72 -1.13466,-5.42667 -1.55333,-8.17334 -0.92,-6.04 -1.47867,-12.14666 -2.072,-18.21333 -1.488,-15.22667 -2.72933,-30.46667 -3.892,-45.70667 -0.0907,-1.18666 -0.18,-2.37333 -0.268,-3.56 -0.0467,-0.62666 -1.02267,-0.62666 -0.976,0 1.09733,14.73334 2.30267,29.46667 3.67467,44.17334 1.208,12.96 2.36933,25.98666 5.64,38.62666 0.51333,1.98667 1.172,3.94667 2.07333,5.78667 0,0.04 -10e-4,0.08 -0.003,0.13333 -0.005,0.24 0.13334,0.38667 0.30934,0.44 0.136,0.26667 0.25866,0.53334 0.408,0.78667 0.0667,0.10667 0.15866,0.17333 0.256,0.2 -0.0133,0.0667 -0.0227,0.13333 -0.036,0.21333 -1.98534,-2.57333 -3.628,-5.41333 -5.07734,-8.36 -1.384,-4.30666 -2.22666,-8.86666 -3.12533,-13.08 -1.136,-5.33333 -2.09867,-10.70666 -3.024,-16.08 -2.59067,-15.05333 -4.99067,-30.34666 -5.39867,-45.65333 -0.088,-3.29333 -0.0733,-6.64 0.38134,-9.92 0.0853,-0.61333 -0.85467,-0.88 -0.94,-0.26666 -0.832,5.98666 -0.44534,12.14666 0.001,18.14666 0.57733,7.74667 1.55733,15.45333 2.664,23.13333 1.73333,12.01334 3.76667,24.01334 6.49467,35.84 0.22533,0.98667 0.456,1.97334 0.69733,2.97334 -0.356,-0.84 -0.70533,-1.66667 -1.048,-2.48 -3.25733,-7.84 -5.856,-15.94667 -8.08533,-24.12 -4.972,-18.25334 -8.25867,-37.46667 -7.40267,-56.42667 0.0387,-0.86666 0.0947,-1.74666 0.156,-2.61333 0.044,-0.62667 -0.932,-0.61333 -0.976,0 -1.30533,18.6 1.74267,37.50666 6.28667,55.50666 2.13466,8.45334 4.728,16.8 7.884,24.93334 1.432,3.68 2.97066,7.37333 4.776,10.92 0.27866,0.85333 0.58,1.70666 0.90666,2.53333 -4.55866,-6.41333 -8.032,-13.62667 -11.14666,-20.82667 -2.65867,-6.13333 -4.90134,-12.41333 -6.42267,-18.92 -3.12667,-13.38666 -5.716,-27.22666 -6.00533,-41 -0.0933,-4.45333 -0.0107,-9.21333 1.588,-13.42666 0.224,-0.58667 -0.72,-0.84 -0.94,-0.26667 -2.06667,5.44 -1.78934,11.78667 -1.47734,17.49333 0.40534,7.37334 1.47467,14.70667 2.74534,21.97334 1.00933,5.77333 2.184,11.52 3.56133,17.21333 1.72,7.12 4.50667,13.98667 7.53333,20.64 3.41467,7.50667 7.288,14.90667 12.52,21.29333 0.484,0.85334 1.02134,1.68 1.604,2.48 -5.99866,-3.30666 -10.55066,-9.73333 -14.04133,-15.33333 -4.612,-7.4 -7.20933,-15.88 -9.72533,-24.17333 -1.556,-5.12 -2.904,-10.32 -4.196,-15.52 -1.23867,-4.97334 -2.92134,-10.33334 -3.02,-15.50667 -0.012,-0.62667 -0.98667,-0.62667 -0.976,0 0.0973,5.12 1.73066,10.38667 2.94266,15.32 1.34934,5.49333 2.78,10.98667 4.43734,16.4 2.57866,8.41333 5.276,16.89333 9.96133,24.4 2.736,4.4 6.18267,9.25333 10.432,12.74667 -7.68133,-4.29334 -14.55867,-10.56 -18.44533,-18.33334 -2.59734,-5.18666 -3.628,-10.89333 -5.024,-16.46666 -1.58134,-6.32 -3.25734,-12.65334 -3.56667,-19.18667 -0.0293,-0.62667 -1.00533,-0.62667 -0.976,0 0.31333,6.62667 1.99333,13.04 3.60133,19.44 1.43067,5.69333 2.55734,11.38667 5.12267,16.70667" style="fill:#577c69;fill-opacity:1;fill-rule:nonzero;stroke:none;stroke-width:0.133333"/><path id="path115" d="m 568.49999,280.20009 c -8.60534,3.09333 -17.3,5.93333 -25.98934,8.78667 -9.156,3 -18.3,6.33333 -27.644,8.70666 -11.70533,2.97334 -23.7,3.92 -35.74133,3.96 -11.63467,0.04 -23.35333,0.64 -34.87466,-1.36 -4.65067,-0.81333 -9.336,-1.32 -13.95467,-2.32 -3.912,-0.85333 -10.16533,-2.02666 -12.52,-5.78666 3.856,-3.38667 6.21333,-7.96 8.23467,-12.69334 2.82,-6.61333 4.83066,-13.41333 6.16933,-20.48 1.36533,-7.2 2.084,-14.46666 2.00533,-21.78666 -0.0867,-7.90667 -0.92133,-15.77333 -1.28666,-23.65333 -0.0293,-0.62667 -1.00534,-0.62667 -0.976,0 0.33066,7.14666 1.00933,14.28 1.23733,21.42666 0.24,7.53334 -0.392,14.94667 -1.67067,22.37333 -1.15333,6.68 -2.89733,13.26667 -5.45866,19.56 -2.15067,5.28 -4.52934,10.68 -8.848,14.46667 -0.288,-0.0667 -0.636,0.2 -0.616,0.53333 -0.32134,0.26667 -0.65067,0.50667 -0.992,0.76 -0.50934,0.36 -0.0227,1.2 0.492,0.84 0.328,-0.24 0.64533,-0.48 0.95333,-0.72 1.25067,1.88 3.45867,3.04 5.49333,3.86667 3.41867,1.38667 7.04267,2.18667 10.66134,2.85333 7.98266,1.49334 16.14933,2.72 24.25733,3.06667 5.84933,0.25333 11.71066,0.13333 17.564,0.0667 5.9,-0.08 11.78666,-0.0533 17.67733,-0.48 11.26667,-0.8 22.19333,-3.16 32.91867,-6.65334 14.41733,-4.70666 28.89466,-9.26666 43.168,-14.4 0.588,-0.2 0.33466,-1.14666 -0.26,-0.93333" style="fill:#577c69;fill-opacity:1;fill-rule:nonzero;stroke:none;stroke-width:0.133333"/><path id="path116" d="m 566.00399,282.52009 c -2.79334,2.68 -6.50134,4.37333 -10.012,5.90667 -4.07867,1.77333 -8.29867,3.22666 -12.508,4.66666 -10.03067,3.42667 -19.98667,6.42667 -30.44667,8.29334 -11.66,2.06666 -23.51733,3.25333 -35.312,4.25333 -11.70133,1 -23.62933,1.38667 -35.20666,-0.92 -9.33867,-1.85333 -21.04934,-3.53333 -27.57334,-11.22667 -0.408,-0.48 -1.09466,0.21334 -0.68933,0.69334 5.49867,6.48 14.736,8.66666 22.67333,10.38666 10.524,2.28 20.908,3.12 31.67467,2.65334 11.59466,-0.50667 23.23733,-1.82667 34.736,-3.37334 11.528,-1.54666 22.98533,-3.81333 34.00133,-7.58666 5.20933,-1.8 10.44933,-3.54667 15.584,-5.53334 4.772,-1.86666 10.01867,-3.92 13.768,-7.52 0.45467,-0.44 -0.236,-1.13333 -0.68933,-0.69333" style="fill:#577c69;fill-opacity:1;fill-rule:nonzero;stroke:none;stroke-width:0.133333"/><path id="path117" d="m 568.38399,274.88009 c -2.668,1.6 -5.75734,2.54667 -8.784,3.38667 -0.14,-0.0267 -0.29067,0 -0.42667,0.10666 -0.0133,0.0133 -0.028,0.0133 -0.04,0.0267 -0.54133,0.14667 -1.08,0.29333 -1.61333,0.44 -3.69734,1.02667 -7.436,1.89333 -11.15067,2.85333 -11.896,3.05334 -24.06667,4.38667 -36.27333,5.50667 -12.136,1.10667 -24.26,2.49333 -36.42134,3.28 -6.06533,0.4 -12.16933,0.62667 -18.24666,0.42667 -5.56933,-0.18667 -11.00267,-2 -16.45867,-2.97334 -2.892,-0.50666 -5.828,-0.77333 -8.75466,-0.44 -0.61734,0.08 -0.62534,1.05334 0,0.98667 5.484,-0.62667 10.90533,0.85333 16.21866,2.01333 5.448,1.2 10.69734,1.49334 16.26934,1.42667 12.19066,-0.17333 24.32533,-1.57333 36.44799,-2.74667 11.93467,-1.14666 23.91334,-1.97333 35.74267,-4 7.36133,-1.26666 14.80133,-3.02666 22.04133,-5.12 -7.03733,5.02667 -15.324,8.02667 -23.65333,10.17334 -9.364,2.41333 -18.988,3.68 -28.56933,4.86666 -11.364,1.4 -22.71067,2.56 -34.164,2.92 -11.916,0.37334 -24.16133,0.66667 -35.68667,-2.74666 -4.62266,-1.36 -9.144,-3.04 -13.788,-4.33334 -0.60666,-0.17333 -0.864,0.77334 -0.25866,0.93334 5.276,1.48 10.408,3.41333 15.68266,4.89333 5.42934,1.52 10.836,2.01333 16.45067,2.21333 12.228,0.42667 24.48533,-0.04 36.66533,-1.17333 9.71467,-0.90667 19.456,-2.13333 29.096,-3.65333 9.48533,-1.48 18.97333,-3.54667 27.856,-7.26667 4.65333,-1.96 9.06133,-4.45333 13.00933,-7.6 0.728,-0.21333 1.45734,-0.42667 2.18,-0.65333 2.42934,-0.76 4.92934,-1.58667 7.12134,-2.90667 0.53866,-0.32 0.0493,-1.16 -0.492,-0.84" style="fill:#577c69;fill-opacity:1;fill-rule:nonzero;stroke:none;stroke-width:0.133333"/><path id="path118" d="m 570.13732,270.49342 c -6.90933,4.04 -14.924,6.28 -22.61067,8.33334 -8.29866,2.21333 -16.73466,3.96 -25.212,5.34666 -10.88266,1.77334 -21.92933,2.70667 -32.93333,3.29334 -12.13067,0.65333 -24.52666,1.09333 -36.62133,-0.28 -2.208,-0.24 -4.24533,-0.77334 -6.38267,-1.34667 -1.66666,-0.44 -3.38,-0.73333 -5.06933,-0.28 -0.60667,0.17333 -0.34933,1.10667 0.25867,0.94667 2.43866,-0.66667 5.02666,0.42666 7.37333,1.04 2.612,0.69333 5.42533,0.82666 8.10667,1.02666 6.02133,0.46667 12.08266,0.42667 18.11733,0.34667 12.488,-0.16 24.96533,-0.98667 37.37066,-2.42667 16.71734,-1.94666 33.804,-5.26666 49.58,-11.22666 2.92534,-1.10667 5.81467,-2.36 8.516,-3.93334 0.54267,-0.32 0.0507,-1.16 -0.49333,-0.84" style="fill:#577c69;fill-opacity:1;fill-rule:nonzero;stroke:none;stroke-width:0.133333"/><path id="path119" d="m 447.04666,281.57342 c 8.376,4.02667 18.29333,3.58667 27.32933,3 10.876,-0.70666 21.76666,-1.46666 32.57333,-2.90666 10.29067,-1.37334 20.58667,-3.04 30.61867,-5.74667 9.04933,-2.42667 17.992,-5.34667 27.17466,-7.25333 1.332,-0.28 2.672,-0.50667 4.01734,-0.70667 0.62133,-0.0933 0.356,-1.02667 -0.26,-0.93333 -8.924,1.28 -17.62534,4.14666 -26.28,6.6 -9.78534,2.76 -19.61467,4.72 -29.668,6.26666 -11.33334,1.73334 -22.70267,2.52 -34.12,3.41334 -9.56667,0.74666 -19.93733,1.68 -29.10667,-1.78667 -0.50933,-0.18667 -1.00133,-0.41333 -1.492,-0.65333 1.46667,-3.86667 4.096,-7.17334 5.62667,-11.04 1.724,-4.34667 2.73467,-8.96 3.784,-13.50667 2.14667,-9.29333 4.11467,-18.49333 4.764,-28.04 0.61067,-9 0.072,-18.08 -1.25067,-27 -0.668,-4.49333 -1.58666,-9 -2.94,-13.34666 -1.26,-4.05334 -3.88,-7.53334 -5.17466,-11.57334 -0.192,-0.6 -1.13334,-0.33333 -0.94134,0.26667 1.23067,3.84 3.53334,7.2 4.96534,10.94667 1.51466,3.98666 2.236,8.41333 2.93333,12.6 1.54267,9.25333 2.01067,18.73333 1.432,28.10666 -0.58533,9.45334 -2.60133,18.58667 -4.72933,27.78667 -1.00134,4.33333 -2.01334,8.65333 -3.53467,12.84 -1.52933,4.21333 -4.40667,7.69333 -5.94667,11.88 -0.0413,0.10666 -0.0307,0.2 -0.001,0.29333 -0.0533,0.18667 -0.004,0.38667 0.22667,0.49333" style="fill:#577c69;fill-opacity:1;fill-rule:nonzero;stroke:none;stroke-width:0.133333"/><path id="path120" d="m 570.13732,262.18676 c -2.616,1.56 -5.93733,2.16 -8.85067,2.90666 -3.34133,0.84 -6.712,1.56 -10.04933,2.42667 -4.69467,1.22667 -9.272,2.97333 -13.90667,4.4 -5.528,1.70667 -11.11466,3.18667 -16.79866,4.26667 -11.73067,2.26666 -23.664,3.33333 -35.60267,3.49333 -4.57333,0.0533 -9.12,0.34667 -13.69067,0.48 -4.364,0.12 -9.07866,-0.0133 -13.00933,-2.12 -0.0227,-0.0533 -0.052,-0.10667 -0.10133,-0.16 -0.684,-0.73333 1.112,-3.81333 1.416,-4.44 0.572,-1.21333 1.24667,-2.38667 1.74533,-3.61333 2.116,-5.25334 4.00134,-10.64 5.54667,-16.08 2.996,-10.53333 2.616,-21.28 3.01733,-32.10667 0.21067,-5.65333 0.50533,-11.26666 -0.27467,-16.90666 -0.74533,-5.38667 -1.41733,-10.77334 -2.40933,-16.13334 -0.99066,-5.34666 -2.38133,-10.62666 -4.47066,-15.65333 -2.07467,-5 -5.01867,-9.57333 -7.66534,-14.26667 -0.30933,-0.54666 -1.152,-0.0533 -0.84266,0.49334 2.83333,5.02666 5.92266,9.90666 8.07733,15.28 2.02667,5.05333 3.244,10.41333 4.20667,15.76 0.99866,5.53333 1.78799,11.16 2.41199,16.76 0.676,6.08 -0.008,12.22666 -0.112,18.32 -0.092,5.42666 -0.112,10.84 -0.628,16.25333 -0.552,5.77333 -1.95333,11.33333 -3.75066,16.84 -1.48,4.53333 -3.01867,9.14666 -5.144,13.42666 -0.61467,1.24 -2.69333,4.45334 -2.12933,6.2 -0.11067,0.2 -0.0933,0.48 0.17066,0.64 7.63067,4.44 17.80133,2.04 26.16133,2.01334 12.03067,-0.04 24.048,-1.13334 35.88667,-3.26667 5.948,-1.06667 11.78267,-2.57333 17.564,-4.32 4.87467,-1.48 9.66933,-3.30667 14.592,-4.61333 3.484,-0.92 7.01467,-1.66667 10.50933,-2.56 2.85467,-0.72 6.06,-1.34667 8.624,-2.86667 0.54,-0.32 0.0493,-1.17333 -0.49333,-0.85333" style="fill:#577c69;fill-opacity:1;fill-rule:nonzero;stroke:none;stroke-width:0.133333"/><path id="path121" d="m 571.17732,257.30676 c -5.24933,3.54666 -12.02,5.16 -18.04533,6.8 -6.80134,1.86666 -13.69734,3.41333 -20.62134,4.74666 -20.95866,4.04 -42.43466,5.45334 -63.74933,5.46667 -0.62933,0 -0.62933,0.97333 0,0.97333 21.29867,-0.0133 42.716,-1.46666 63.66667,-5.42666 7.04266,-1.33334 14.04533,-2.93334 20.964,-4.81334 6.09733,-1.65333 12.96666,-3.32 18.27733,-6.89333 0.51867,-0.36 0.0307,-1.2 -0.492,-0.85333" style="fill:#577c69;fill-opacity:1;fill-rule:nonzero;stroke:none;stroke-width:0.133333"/><path id="path122" d="m 478.03199,271.88009 c 27.71466,-1.14667 57.49333,0.93333 82.708,-12.74667 0.55333,-0.30666 0.06,-1.14666 -0.492,-0.84 -25.048,13.58667 -54.68534,11.48 -82.216,12.61334 -0.62667,0.0267 -0.62934,1 0,0.97333" style="fill:#577c69;fill-opacity:1;fill-rule:nonzero;stroke:none;stroke-width:0.133333"/><path id="path123" d="m 509.51465,234.05343 c -0.45333,0.69333 -0.90533,1.38666 -1.36266,2.06666 0.75733,-1.57333 1.496,-3.16 2.21333,-4.77333 -0.27333,0.90667 -0.55733,1.81333 -0.85067,2.70667 z m 1.90934,-1.16 c -0.0427,0.0667 -0.0827,0.14666 -0.12534,0.22666 -0.396,0.72 -0.80533,1.44 -1.22133,2.13334 0.0733,-0.21334 0.14533,-0.42667 0.21733,-0.64 0.37734,-0.57334 0.75467,-1.14667 1.12934,-1.72 z m -10.95734,20.69333 c -0.268,0.16 -0.53866,0.32 -0.81066,0.46666 0.56533,-0.82666 1.136,-1.65333 1.69333,-2.49333 0.29733,-0.28 0.59067,-0.54667 0.888,-0.82667 -0.568,0.97334 -1.156,1.92 -1.77067,2.85334 z m -3.42,4.70666 c -0.47733,0.24 -0.956,0.48 -1.43466,0.72 0.16533,-0.18666 0.31866,-0.4 0.47733,-0.6 0.67333,-0.45333 1.332,-0.92 1.97867,-1.41333 -0.33334,0.44 -0.676,0.86667 -1.02134,1.29333 z m 5.86534,-12.11999 c 0.55466,-0.97334 1.09466,-1.96 1.62533,-2.94667 1.248,-1.84 2.488,-3.68 3.72,-5.53333 -0.16,0.44 -0.31867,0.88 -0.48267,1.30666 -1.55866,2.42667 -3.19733,4.81334 -4.86266,7.17334 z m 68.26533,5.77333 c -4.848,2.54666 -10.532,3.66666 -15.832,4.85333 -2.65467,0.6 -5.32133,1.13333 -7.98933,1.68 5.564,-1.49333 11.01866,-3.36 16.312,-5.69333 0.57466,-0.25334 0.0773,-1.09334 -0.49334,-0.84 -21.22666,9.34666 -45.14133,11.14666 -68.064,11.16 -0.62933,0 -0.62933,0.97333 0,0.97333 12.25334,-0.0133 24.772,-0.53333 37.02134,-2.42667 -13.884,2.78667 -27.812,4.64 -42.03067,4.84 0.69867,-1.2 1.37867,-2.4 2.04267,-3.61333 0.33066,-0.48 0.65733,-0.96 0.992,-1.44 0.0693,-0.0133 0.14,-0.0533 0.20533,-0.10667 0.088,-0.08 0.168,-0.16 0.25467,-0.24 0.63333,-0.30666 1.26666,-0.62666 1.89733,-0.93333 -1.01333,1.17333 -2.06,2.32 -3.168,3.41333 -0.448,0.44 0.24133,1.13334 0.69067,0.68 1.67733,-1.65333 3.22,-3.38666 4.652,-5.18666 5.40133,-2.72 10.74933,-5.54667 16.07866,-8.41334 7.388,-3.96 14.83867,-7.83999 22.04134,-12.14666 6.86933,-4.09333 12.94666,-8.85333 18.82,-14.28 3.012,-2.77333 6.00133,-5.53333 9.252,-8.04 3.12133,-2.41333 6.31866,-4.69333 9.26266,-7.32 0.47067,-0.42667 -0.22266,-1.10667 -0.69066,-0.69333 -3.05067,2.72 -6.37467,5.09333 -9.60934,7.58666 -2.95066,2.26667 -5.67066,4.78667 -8.40133,7.32 -6.156,5.69334 -12.52533,10.65334 -19.73333,14.94667 -6.99867,4.18667 -14.256,7.93333 -21.43334,11.78666 -4.71066,2.53334 -9.43866,5.02667 -14.20133,7.45334 0.596,-0.8 1.16533,-1.62667 1.71867,-2.45334 0.30933,-0.26666 0.61733,-0.52 0.92533,-0.78666 0.312,-0.26667 0.628,-0.52 0.94133,-0.78667 1.19734,-0.78667 2.38267,-1.6 3.584,-2.45333 7.384,-5.24 15.264,-9.46667 23.03467,-14.06667 7.52267,-4.46666 14.80267,-9.36 21.588,-14.89333 3.38667,-2.76 6.608,-5.70667 9.63867,-8.85333 3.28533,-3.41334 6.84533,-6.52 10.24533,-9.81334 0.452,-0.44 -0.23867,-1.13333 -0.69067,-0.69333 -3.39866,3.29333 -6.984,6.38667 -10.24533,9.81333 -3.16,3.32 -6.59733,6.38667 -10.15333,9.28 -7.40134,6.02667 -15.48,11.2 -23.72934,15.98667 -3.80133,2.2 -7.69333,4.24 -11.43466,6.54667 5.59866,-4.17334 11.10533,-8.45334 16.50133,-12.89334 6.40533,-5.28 12.74933,-10.66666 18.84133,-16.30666 6.15734,-5.69334 11.808,-11.92 17.35334,-18.21334 0.41333,-0.46666 -0.27334,-1.16 -0.69067,-0.69333 -5.39067,6.12 -10.89467,12.13333 -16.828,17.72 -6.032,5.69333 -12.416,11.04 -18.79733,16.33333 -6.54934,5.42667 -13.26667,10.6 -20.12934,15.62667 -2.80666,2.05333 -5.56,4.14666 -8.21333,6.38666 0.64533,-1.08 1.26133,-2.17333 1.84933,-3.29333 9.88134,-9.24 19.26,-19.04 28.76934,-28.66666 3.09333,-3.13334 6.19466,-6.24 9.52266,-9.13334 2.696,-2.33333 5.48,-4.57333 8.104,-7 5.47467,-5.05333 9.22934,-11.08 11.18134,-18.29333 0.16533,-0.6 -0.776,-0.86667 -0.94134,-0.25333 -2.01866,7.45333 -5.98133,13.36 -11.648,18.52 -2.53333,2.30666 -5.212,4.45333 -7.79866,6.69333 -3.368,2.92 -6.48134,6.10667 -9.612,9.28 -8.13734,8.25333 -16.188,16.58667 -24.54,24.61333 7.53733,-8.92 13.764,-18.97333 21.068,-28.09333 5.24666,-6.54667 11.46133,-11.97333 17.49066,-17.76 2.936,-2.82667 5.69734,-5.81333 8.07067,-9.12 2.09067,-2.92 4.65867,-6 4.512,-9.77333 -0.024,-0.62667 -1,-0.62667 -0.97467,0 0.148,3.84 -2.95333,7.36 -5.12266,10.29333 -2.62267,3.56 -5.824,6.66667 -9.03334,9.66667 -5.94,5.57333 -11.72133,11.02666 -16.77466,17.44 -6.82,8.66666 -12.73867,18.10666 -19.82534,26.53333 0.26667,-0.61333 0.528,-1.21333 0.78267,-1.82667 5.588,-8.85333 11.01733,-17.81333 16.96533,-26.44 4.60267,-6.68 10.01467,-12.74666 14.45334,-19.52 4.42266,-6.76 8.11066,-13.97333 13.02666,-20.4 0.38267,-0.50666 -0.46533,-0.98666 -0.84266,-0.49333 -4.78,6.25333 -8.44267,13.22667 -12.67067,19.84 -4.35467,6.81333 -9.78933,12.88 -14.41733,19.52 -3.23334,4.62667 -6.296,9.37333 -9.31067,14.14667 0.59333,-1.21334 1.16533,-2.44 1.724,-3.66667 0.56933,-0.92 1.13067,-1.84 1.69067,-2.77333 0.0987,-0.0267 0.19066,-0.0933 0.252,-0.22667 0.19733,-0.4 0.41466,-0.8 0.61733,-1.2 1.73467,-2.90667 3.41333,-5.84 5.03733,-8.81333 3.09467,-4.89334 6.452,-9.65334 9.56934,-14.50667 6.28533,-9.81333 11.57333,-20.18667 14.67866,-31.45333 0.16667,-0.61334 -0.77466,-0.86667 -0.94133,-0.26667 -3.08667,11.2 -8.35733,21.46667 -14.58,31.22667 -1.41733,2.21333 -2.888,4.41333 -4.36133,6.61333 0.34,-0.69333 0.688,-1.38667 1.02133,-2.08 2.91867,-6.10667 4.892,-12.70667 6.728,-19.2 2.00267,-7.09333 3.94267,-14.50667 4.22933,-21.90667 0.0453,-1.14666 0,-2.29333 -0.15466,-3.44 -0.084,-0.61333 -1.024,-0.34666 -0.94134,0.26667 0.41467,3.06667 -0.0507,6.26667 -0.524,9.29333 -0.61466,3.92 -1.51866,7.81334 -2.508,11.65334 -1.82133,7.09333 -3.936,14.22666 -6.81333,20.96 -1.564,3.66666 -3.33733,7.25333 -5.23733,10.78666 -1.548,2.4 -3.03867,4.82667 -4.424,7.30667 1.768,-4.28 3.46533,-8.6 5.26133,-12.85333 3.44133,-8.13334 6.58267,-16.89334 7.77733,-25.69334 0.856,-6.29333 1.472,-12.64 1.912,-18.98666 0.19867,-2.85334 0.87067,-6.50667 0.0387,-9.32 -0.17867,-0.6 -1.12,-0.34667 -0.94133,0.26666 0.548,1.85334 0.19466,4.17334 0.10533,6.06667 -0.15867,3.36 -0.448,6.70667 -0.76133,10.06667 -0.53867,5.74666 -1.01334,11.56 -2.384,17.18666 -2.788,11.45334 -7.59467,22.09334 -12.03067,32.96 -1.11467,2.73334 -2.256,5.45334 -3.472,8.13334 -0.60267,0.97333 -1.20667,1.93333 -1.81067,2.88 -0.71066,1.12 -1.44533,2.22666 -2.16666,3.34666 0.58666,-1.93333 1.13333,-3.89333 1.648,-5.85333 4.044,-9.26667 7.96,-18.65333 10.70533,-28.36 2.10933,-7.45333 2.972,-15.17333 3.74267,-22.85333 0.644,-6.42667 1.24133,-12.86667 1.67066,-19.32 0.148,-2.21334 0.27467,-4.42667 0.31334,-6.65334 0.02,-1.13333 0.12266,-2.42666 -0.21467,-3.53333 -0.18267,-0.6 -1.12533,-0.34667 -0.94,0.26667 0.49333,1.61333 0.18267,3.66666 0.11867,5.32 -0.12134,3.14666 -0.35734,6.28 -0.60534,9.41333 -0.46266,5.85333 -1.02,11.68 -1.62666,17.52 -1.04667,10.08 -3.09867,19.69333 -6.55334,29.22667 -1.65066,4.56 -3.416,9.10666 -5.28533,13.62666 0.70933,-3 1.368,-6 2.01067,-9 2.11733,-9.86666 4.19333,-19.6 5.31466,-29.62666 0.75867,-6.8 1.66667,-13.57334 2.312,-20.37334 0.64667,-6.81333 1.34534,-13.82666 0.67867,-20.65333 -0.06,-0.62667 -1.03733,-0.62667 -0.976,0 0.73067,7.49333 -0.132,15.2 -0.87333,22.65333 -0.636,6.41334 -1.53867,12.8 -2.20934,19.21334 -1.13466,10.85333 -3.63466,21.42666 -5.95333,32.06666 -0.81467,3.74667 -1.668,7.48 -2.632,11.18667 -2.08533,4.77333 -4.28667,9.49333 -6.62,14.10667 -0.32,0.64 -0.65067,1.26666 -0.98,1.89333 0.50267,-1.36 0.992,-2.73333 1.456,-4.10667 1.888,-5.56 3.23733,-11.29333 4.552,-17.01333 1.044,-4.54667 2.216,-9.08 3.16267,-13.64 1.45733,-7.02667 2.25866,-14.21333 2.98666,-21.33333 0.91734,-9 1.544,-18.02667 1.91467,-27.05334 0.32267,-7.85333 0.47467,-15.73333 0.0253,-23.58666 -0.0347,-0.62667 -1.012,-0.62667 -0.976,0 0.972,16.98666 -0.268,34.24 -1.992,51.14666 -0.73466,7.2 -1.572,14.44 -3.1,21.50667 -2.28933,10.61333 -4.56,21.46667 -8.20533,31.70667 -0.696,1.96 -1.41067,4.01333 -2.19467,6.09333 -1.39866,2.04 -2.79866,4.09333 -4.20266,6.13333 6.64266,-14.96 11.18933,-31 14.484,-46.86666 1.856,-8.94667 2.12933,-17.88 2.34133,-26.97334 0.156,-6.68 0.30133,-13.38666 0.23333,-20.08 -0.0947,-9.29333 -0.0507,-19.29333 -2.748,-28.28 -0.18,-0.6 -1.12266,-0.34666 -0.94133,0.26667 2.08,6.92 2.32533,14.45333 2.57467,21.62667 0.26,7.48 0.172,14.97333 0.003,22.45333 -0.17066,7.45333 -0.11333,14.90667 -1.016,22.32 -1.42133,11.68 -4.804,23.29333 -8.25866,34.52 -2.72667,8.86667 -5.99867,17.56 -10.032,25.90666 -0.0893,0.13334 -0.17867,0.25334 -0.268,0.38667 -1.596,1.37333 -3.20134,2.74667 -4.83467,4.08 -0.48667,0.4 0.208,1.08 0.69067,0.69333 0.20933,-0.17333 0.41466,-0.34666 0.624,-0.52 -0.0693,0.21334 -0.112,0.44 -0.13734,0.68 -0.0347,0.0133 -0.068,0.0267 -0.10266,0.0533 -0.56667,0.26666 -0.072,1.10666 0.49333,0.84 0.156,-0.08 0.31067,-0.16 0.468,-0.22667 -0.0413,0.0667 -0.0813,0.14667 -0.12267,0.21333 -0.44533,0.65334 -0.9,1.29334 -1.33866,1.94667 -0.11867,0.17333 -0.0947,0.34667 -0.005,0.48 -0.32666,0.57333 -0.65866,1.13333 -0.99466,1.70667 -0.23067,0 -0.46134,0.0133 -0.69334,0.0133 -0.62933,0 -0.62933,0.97333 0,0.97333 0.0387,0 0.076,0 0.11467,0 -0.016,0.0267 -0.032,0.0533 -0.048,0.08 -0.32533,0.53334 0.51867,1.02667 0.84267,0.49334 0.11733,-0.2 0.22533,-0.4 0.34133,-0.58667 16.72533,-0.18667 33.09067,-2.62667 49.396,-6.26667 5.71333,-1.28 11.48133,-2.30666 17.19467,-3.58666 5.22133,-1.17334 10.77466,-2.33334 15.54933,-4.84 0.55733,-0.29334 0.064,-1.13334 -0.492,-0.84" style="fill:#577c69;fill-opacity:1;fill-rule:nonzero;stroke:none;stroke-width:0.133333"/><path id="path124" d="m 574.99199,245.90676 c -4.392,0.12 -8.816,1.41333 -13.044,2.49333 -4.94534,1.26667 -9.83734,2.72 -14.82267,3.82667 -7.58933,1.69333 -15.316,2.82666 -22.99333,4.04 -6.26,0.97333 -12.82534,-0.17334 -18.90534,1.97333 -0.58933,0.21333 -0.33466,1.14667 0.26,0.93333 5.87867,-2.06666 12.272,-1.06666 18.35067,-1.89333 7.38933,-1 14.80933,-2.29333 22.11067,-3.8 4.98133,-1.02667 9.86,-2.45333 14.776,-3.74667 4.604,-1.21333 9.476,-2.72 14.268,-2.85333 0.628,-0.0133 0.63066,-0.98666 0,-0.97333" style="fill:#577c69;fill-opacity:1;fill-rule:nonzero;stroke:none;stroke-width:0.133333"/><path id="path125" d="m 540.34532,239.05343 c 10.49067,-8.85334 23.452,-13.94667 34.492,-22 0.50267,-0.36 0.0173,-1.21334 -0.492,-0.84 -11.10933,8.10666 -24.132,13.24 -34.69067,22.14666 -0.48133,0.4 0.21334,1.09334 0.69067,0.69334" style="fill:#577c69;fill-opacity:1;fill-rule:nonzero;stroke:none;stroke-width:0.133333"/><path id="path126" d="m 573.99199,220.45343 c -12.196,8.54666 -24.99067,16.2 -38.14134,23.2 -0.124,0.0667 -0.188,0.16 -0.21866,0.25333 -4.4,2.02667 -8.79334,4.12 -13.68534,4.56 -0.62133,0.0533 -0.62666,1.02666 0,0.97333 4.44534,-0.4 8.50534,-2.06667 12.52134,-3.92 4.588,-2.10666 9.18933,-4.18666 13.83333,-6.17333 9.088,-3.89333 17.99467,-8.16 26.32933,-13.49333 0.52667,-0.34667 0.0387,-1.18667 -0.49333,-0.85334 -7.924,5.09334 -16.37333,9.22667 -25.01333,12.94667 -1.32267,0.56 -2.64,1.14667 -3.95867,1.72 10.056,-5.66667 19.868,-11.74667 29.31867,-18.37333 0.512,-0.36 0.0253,-1.2 -0.492,-0.84" style="fill:#577c69;fill-opacity:1;fill-rule:nonzero;stroke:none;stroke-width:0.133333"/><path id="path127" d="m 574.51865,233.65343 c -5.71333,3.08 -11.57333,5.88 -17.832,7.66666 -0.82533,0.24 -1.656,0.45334 -2.48666,0.66667 7.14666,-3.02667 14.01333,-6.72 20.57333,-10.86667 0.53067,-0.33333 0.0413,-1.17333 -0.492,-0.84 -8.57867,5.42667 -17.64533,10.01334 -27.19733,13.45334 -4.892,1.76 -9.90934,3.15999 -14.99334,4.25333 -2.65466,0.56 -5.32666,1 -8.024,1.30666 -1.688,0.2 -3.11333,0.65334 -4.41733,1.74667 -0.48133,0.41333 0.212,1.09333 0.69067,0.69333 1.764,-1.48 3.968,-1.45333 6.13866,-1.74666 2.69334,-0.37334 5.368,-0.93334 8.01734,-1.53334 2.33333,-0.53333 4.64533,-1.16 6.93733,-1.83999 -0.236,0.14666 -0.472,0.29333 -0.704,0.45333 -0.51333,0.36 -0.0267,1.2 0.49333,0.84 4.89467,-3.37333 10.796,-4.24 16.396,-5.84 6.092,-1.74667 11.836,-4.57333 17.392,-7.57333 0.55467,-0.29334 0.0613,-1.13334 -0.492,-0.84" style="fill:#577c69;fill-opacity:1;fill-rule:nonzero;stroke:none;stroke-width:0.133333"/><path id="path128" d="m 574.86265,236.01343 c -7.67866,3.08 -15.36666,6.2 -22.42266,10.56 -0.21334,0.13333 -0.25867,0.34666 -0.20667,0.53333 -13.39733,2.73333 -26.83867,5.28 -40.53333,5.74666 -0.628,0.0267 -0.62934,1 0,0.97334 18.88133,-0.64 37.28933,-5.21334 55.75466,-8.8 0.61734,-0.12 0.35467,-1.05333 -0.26,-0.93333 -4.368,0.84 -8.73333,1.74666 -13.10266,2.63999 6.664,-3.95999 13.844,-6.89333 21.03066,-9.77333 0.576,-0.24 0.32534,-1.18666 -0.26,-0.94666" style="fill:#577c69;fill-opacity:1;fill-rule:nonzero;stroke:none;stroke-width:0.133333"/><path id="path160" d="m 377.12266,301.13342 c -0.20134,0.4 -0.424,0.78667 -0.65734,1.17334 -0.212,-1.02667 -0.32133,-2.08 -0.37066,-3.16 0.17733,0.54666 0.336,1.09333 0.464,1.65333 0.0693,0.30667 0.332,0.38667 0.564,0.33333 z m -4.73067,-54.44 c 0.5,0.37334 0.98533,-0.46666 0.492,-0.85333 -0.20933,-0.17333 -0.436,-0.33333 -0.68267,-0.45333 -0.33733,-0.2 -0.70533,0.0533 -0.73333,0.41333 -0.752,9.66667 -2.04533,19.25333 -1.23067,28.96 0.37334,4.46667 1.11734,8.89333 2.08934,13.26667 0.496,2.22666 1.068,4.38666 1.93333,6.49333 0.28667,0.70667 0.58,1.4 0.86667,2.09333 -0.028,2.24 0.0427,4.49334 0.58,6.64 -0.24134,0.25334 -0.112,0.72 0.22666,0.81334 0.0707,0.22666 0.148,0.45333 0.232,0.68 -0.0147,0.0267 -0.0293,0.04 -0.0453,0.0667 -0.21733,0.34667 0.0573,0.66667 0.36933,0.72 0.04,0.08 0.076,0.17334 0.11867,0.26667 0.23067,0.48 0.85467,0.2 0.888,-0.24 0.048,0 0.096,0 0.15067,-0.0267 2.64266,-1.08 4.94133,-2.70666 6.97733,-4.65333 -0.0133,0.36 0.33333,0.72 0.70267,0.45333 21.77333,-15.12 25.50133,-45.52 25.61466,-69.94666 0.003,-0.62667 -0.97333,-0.62667 -0.976,0 -0.11066,23.77333 -3.61466,53.53333 -24.444,68.6 1.688,-1.74667 3.19334,-3.69334 4.56267,-5.66667 3.92533,-5.69333 6.8,-12.10667 9.21867,-18.56 2.26266,-6.04 3.95866,-12.22667 5.272,-18.53333 1.72933,-8.32 3.05733,-16.85333 3.19466,-25.36 0.0107,-0.62667 -0.96533,-0.62667 -0.976,0 -0.13333,8.22667 -1.41733,16.42666 -3.032,24.46666 -1.21466,6.05334 -2.82533,11.98667 -4.9,17.8 -2.23733,6.26667 -4.99066,12.4 -8.54,18.05334 -3.15066,5 -7.29466,10.09333 -12.916,12.4 0.28267,-0.46667 0.56267,-0.92 0.83334,-1.38667 3.42666,-2.01333 5.66266,-6.36 7.44133,-9.6 3.168,-5.76 6.36133,-11.46667 8.888,-17.54667 2.85467,-6.86666 4.83333,-14.08 6.548,-21.29333 1.61467,-6.81333 2.88133,-13.92 2.26267,-20.93333 -0.056,-0.62667 -1.032,-0.62667 -0.976,0 0.59333,6.73333 -0.58934,13.49333 -2.08134,20.04 -1.54266,6.77333 -3.41866,13.50666 -5.91866,19.98666 -2.37734,6.17334 -5.58,11.82667 -8.68667,17.62667 -1.588,2.97333 -3.512,7.2 -6.35867,9.72 4.68267,-8.66667 7.572,-18.17333 10.056,-27.69333 1.548,-5.93334 3.064,-11.88 4.48667,-17.85334 0.73333,-3.06666 1.35333,-6.16 1.78533,-9.29333 0.39334,-2.84 -0.112,-5.74666 0.844,-8.50666 0.088,-0.25334 -0.036,-0.44 -0.21866,-0.52 12.75733,-13.01334 24.46,-27.16 33.86666,-42.8 9.86667,-16.38667 17.144,-34.90667 17.60267,-54.22667 0.0147,-0.62667 -0.96,-0.62667 -0.976,0 -0.456,19.2 -7.736,37.42667 -17.46933,53.73333 -9.74934,16.34667 -22.16667,31.04 -35.572,44.48 -0.44534,0.45334 0.24533,1.13334 0.68933,0.69334 0.316,-0.32 0.628,-0.64 0.94267,-0.96 -0.59734,2.2 -0.456,4.50666 -0.55867,6.77333 -0.14533,3.24 -0.99067,6.52 -1.71067,9.66666 -1.32533,5.78667 -2.85333,11.53334 -4.324,17.28 -2.69466,10.53334 -5.83066,21.08 -11.288,30.53334 -0.009,0 -0.0187,0 -0.028,0.0133 2.35067,-4.05333 2.96934,-8.86667 3.62134,-13.44 0.84533,-5.93333 2.25733,-11.76 3.37333,-17.64 0.99333,-5.25333 1.608,-10.49333 1.968,-15.81333 0.308,-4.56 0.28933,-9.50667 1.78667,-13.86667 0.20533,-0.6 -0.73734,-0.85333 -0.94134,-0.25333 -1.29333,3.76 -1.392,7.98666 -1.67066,11.92 -0.39067,5.49333 -0.86134,10.89333 -1.824,16.33333 -1.06267,6 -2.588,11.90667 -3.47067,17.93333 -0.45333,3.08 -0.816,6.30667 -1.664,9.36 1.23333,-8.36 1.07333,-16.82666 1.70133,-25.25333 0.71867,-9.6 2.76,-19.02667 2.52,-28.70666 -0.016,-0.62667 -0.992,-0.62667 -0.976,0 0.228,9.19999 -1.54,18.17333 -2.4,27.29333 -0.872,9.22666 -0.45066,18.54666 -1.97466,27.72 -0.0667,0.4 0.312,0.64 0.61066,0.6 -0.20266,0.57333 -0.428,1.14666 -0.68133,1.70666 -0.33467,-1.41333 -0.836,-2.76 -1.39067,-4.09333 0.0307,-1.44 0.10267,-2.86667 0.11334,-4.24 0.0413,-5.30667 -0.16267,-10.6 0.009,-15.92 0.35467,-11.04 0.35467,-22.02667 0.34533,-33.06666 0,-0.62667 -0.976,-0.62667 -0.976,0 0.0107,11.54666 -0.0467,23.03999 -0.39333,34.57333 -0.16,5.37333 0.12,10.73333 0.0147,16.09333 -0.001,0.12 -0.005,0.25333 -0.008,0.37333 -0.72267,-1.85333 -1.288,-3.72 -1.75467,-5.69333 -1.12,-4.72 -1.864,-9.53333 -2.26933,-14.37333 -0.768,-9.16 0.47333,-18.26667 1.21866,-27.38667 0.005,0 0.012,0 0.0187,0.0133" style="fill:#577c69;fill-opacity:1;fill-rule:nonzero;stroke:none;stroke-width:0.133333"/><path id="path166" d="m 414.11332,228.70676 c 0.016,-0.64 -0.96,-0.64 -0.976,0 -0.18533,7.05333 0.81867,14.09333 0.032,21.13333 -0.76933,6.89333 -2.93066,13.58667 -5.18266,20.12 -3.66934,10.64 -8.17067,22.08 -17.152,29.38667 -0.488,0.4 0.20666,1.09333 0.69066,0.69333 8.976,-7.30667 13.50534,-18.68 17.22,-29.29333 2.288,-6.54667 4.352,-13.18667 5.29467,-20.06667 1.00133,-7.30666 -0.12,-14.64 0.0733,-21.97333" style="fill:#577c69;fill-opacity:1;fill-rule:nonzero;stroke:none;stroke-width:0.133333"/><path id="path167" d="m 412.24132,267.69342 c -1.88266,5.70667 -4.28133,11.30667 -7.06,16.64 -2.644,5.06667 -5.98266,10.04 -10.832,13.24 -0.52266,0.33334 -0.0347,1.18667 0.492,0.84 4.528,-2.98666 7.72534,-7.41333 10.35867,-12.08 3.044,-5.38666 5.472,-11.21333 7.52667,-17.04 2.28933,-6.49333 3.844,-13.21333 4.41866,-20.08 0.63067,-7.54666 0.15334,-15.14666 0.13867,-22.70666 -0.001,-0.62667 -0.97733,-0.62667 -0.976,0 0.0133,6.84 0.34667,13.68 0.005,20.52 -0.352,7.08 -1.85866,13.96 -4.072,20.66666" style="fill:#577c69;fill-opacity:1;fill-rule:nonzero;stroke:none;stroke-width:0.133333"/><path id="path168" d="m 411.17466,280.36009 c -1.48134,2.82667 -3.24934,5.48 -5.14,8.04 -0.96534,1.30667 -1.98267,2.57333 -3.00534,3.84 -0.832,1.02667 -2.10133,2.10667 -2.65333,3.30667 -0.212,0.46666 0.212,0.86666 0.668,0.66666 0.14,-0.0533 0.248,-0.17333 0.38533,-0.24 0.25867,-0.14666 0.28267,-0.4 0.18267,-0.61333 0.692,-1.04 1.772,-2.02667 2.50667,-2.93333 0.812,-1 1.60533,-2.01334 2.388,-3.04 1.91866,-2.52 3.65333,-5.17334 5.192,-7.94667 3.04,-5.46667 5.84266,-11.22667 7.58,-17.25333 1.892,-6.56 1.94133,-13.41334 1.8,-20.2 -0.0733,-3.54667 -0.13067,-7.10667 -0.12667,-10.66667 10e-4,-1.70666 -0.0533,-3.41333 -0.19867,-5.12 -0.0813,-0.94666 -0.68133,-2.61333 -0.31466,-3.52 0.23466,-0.58666 -0.70934,-0.82666 -0.94134,-0.25333 -0.20933,0.52 -0.0173,1.29333 0.0347,1.81333 0.16133,1.62667 0.36,3.24 0.416,4.88 0.12133,3.58667 0.0227,7.17334 0.10533,10.74667 0.16267,6.98666 0.28667,13.96 -1.37733,20.78666 -1.524,6.25334 -4.52267,12.04 -7.50133,17.70667" style="fill:#577c69;fill-opacity:1;fill-rule:nonzero;stroke:none;stroke-width:0.133333"/><path id="path169" d="m 414.87466,280.04009 c -1.96534,2.8 -3.89067,5.62667 -5.93334,8.36 -1.38,1.86667 -3.628,3.26667 -4.32533,5.56 -0.18533,0.6 0.75733,0.85333 0.94,0.25333 0.44133,-1.44 1.67867,-2.48 2.70933,-3.52 0.9,-0.90666 1.632,-1.93333 2.38667,-2.97333 2.02533,-2.74667 3.93333,-5.58667 5.90533,-8.37333 3.40134,-4.81334 5.784,-10.30667 7.20534,-16.01334 1.54666,-6.21333 1.43733,-12.78666 1.43066,-19.14666 -0.007,-7.28 -0.31733,-14.54667 -0.34666,-21.82667 -10e-4,-0.62666 -0.97734,-0.62666 -0.97467,0 0.0267,6.77334 0.27867,13.54667 0.33867,20.32 0.0587,6.77333 0.16266,13.76 -1.388,20.4 -1.44934,6.18667 -4.312,11.78667 -7.948,16.96" style="fill:#577c69;fill-opacity:1;fill-rule:nonzero;stroke:none;stroke-width:0.133333"/><path id="path170" d="m 421.03466,281.41342 c 3.532,-6 5.424,-12.73333 6.64533,-19.54666 1.30933,-7.30667 2.26,-14.82667 2.808,-22.22667 0.288,-3.88 0.23467,-7.78666 0.292,-11.68 0.0293,-1.94666 0.016,-3.90666 -0.072,-5.85333 -0.0907,-2.02667 -0.60133,-3.96 -0.0227,-5.96 0.17467,-0.61333 -0.76666,-0.86667 -0.94133,-0.26667 -0.424,1.48 -0.344,2.90667 -0.184,4.41334 0.19333,1.82666 0.25067,3.64 0.26,5.46666 0.0213,4.13334 -0.008,8.30667 -0.21733,12.44 -0.40667,8 -1.564,16.16 -2.97734,24.04 -1.34133,7.49333 -3.776,14.42667 -7.77333,20.90667 -1.772,2.86666 -3.84,5.42666 -6.46933,7.54666 -0.784,0.62667 -3.20134,2.09334 -2.59467,3.4 0.26667,0.56 1.108,0.0667 0.84267,-0.49333 -0.17334,-0.37333 4.2,-3.72 4.704,-4.21333 2.32133,-2.30667 4.05066,-5.17334 5.7,-7.97334" style="fill:#577c69;fill-opacity:1;fill-rule:nonzero;stroke:none;stroke-width:0.133333"/><path id="path171" d="m 430.81466,271.60009 c -1.132,3.38667 -2.40134,6.66667 -4.14,9.8 -0.81467,1.46667 -1.63467,2.96 -2.61067,4.32 -0.776,1.09333 -1.58267,2.02667 -1.88267,3.36 -0.13866,0.61333 0.80134,0.86667 0.94134,0.25333 0.31466,-1.38666 1.292,-2.42666 2.104,-3.56 0.98933,-1.38666 1.78266,-2.97333 2.608,-4.45333 1.55733,-2.8 2.65333,-5.77333 3.69733,-8.8 2.368,-6.85333 4.17467,-13.92 5.50933,-21.04 1.34667,-7.2 1.70534,-14.50666 1.58267,-21.81333 -0.0533,-3.17333 -0.17733,-6.33333 -0.616,-9.46667 -0.46533,-3.33333 -1.12933,-6.66666 -1.20667,-10.04 -0.0133,-0.62666 -0.98933,-0.62666 -0.976,0 0.0653,2.81334 0.54934,5.61334 0.968,8.4 0.52,3.45334 0.75067,6.88 0.84,10.38667 0.19067,7.45333 -0.19333,14.92 -1.532,22.26666 -1.25866,6.92 -3.06133,13.73334 -5.28666,20.38667" style="fill:#577c69;fill-opacity:1;fill-rule:nonzero;stroke:none;stroke-width:0.133333"/><path id="path172" d="m 426.29332,288.60009 c 0.336,-1.56 1.34534,-2.81333 2.29334,-4.06667 0.968,-1.26666 1.808,-2.54666 2.588,-3.93333 1.68666,-3.02667 3.04266,-6.21333 4.31866,-9.41333 2.792,-7.02667 5.01867,-14.24 6.38267,-21.68 1.364,-7.44 1.62933,-15.06667 1.44933,-22.62667 -0.0933,-3.94666 -0.396,-7.89333 -0.85066,-11.82666 -0.47334,-4.08 -1.464,-8.10667 -1.76934,-12.21334 -0.0467,-0.62666 -1.02266,-0.62666 -0.976,0 0.26934,3.61334 1.10534,7.16 1.58534,10.74667 0.524,3.92 0.828,7.86667 0.988,11.81333 0.32133,7.96 0.008,16 -1.368,23.85333 -1.30534,7.44 -3.62667,14.64 -6.38267,21.66667 -1.4,3.57333 -2.98533,7.05333 -4.89867,10.37333 -1.35733,2.36 -3.71466,4.32 -4.3,7.05334 -0.132,0.61333 0.808,0.86666 0.94,0.25333" style="fill:#577c69;fill-opacity:1;fill-rule:nonzero;stroke:none;stroke-width:0.133333"/><path id="path173" d="m 429.17199,288.22676 c 8.51733,-12.12 14.09733,-26.36 16.728,-40.90667 2.956,-16.36 0.936,-32.97333 -1.552,-49.24 -0.096,-0.62666 -1.036,-0.36 -0.94133,0.25334 2.50133,16.36 4.408,32.92 1.43866,49.34666 -2.57333,14.24 -8.18933,28.21333 -16.516,40.05333 -0.36266,0.52 0.484,1.01334 0.84267,0.49334" style="fill:#577c69;fill-opacity:1;fill-rule:nonzero;stroke:none;stroke-width:0.133333"/><path id="path174" d="m 438.39466,278.25342 c 1.916,-3.46666 3.584,-7.05333 4.98,-10.76 3.024,-8.02666 5.69466,-16.28 7.29866,-24.70666 1.58934,-8.34667 1.83734,-17.01333 1.19734,-25.46667 -0.304,-4.02666 -0.90934,-8.02666 -1.70134,-11.97333 -0.87733,-4.38667 -2.80266,-8.56 -3.36533,-13 -0.0773,-0.61333 -1.05467,-0.61333 -0.976,0 0.48533,3.82667 2.04933,7.37333 2.94,11.10667 1.084,4.54666 1.74133,9.21333 2.12667,13.86666 0.73333,8.84 0.29733,17.86667 -1.42667,26.57334 -1.66533,8.38666 -4.43867,16.67999 -7.53467,24.65333 -1.6,4.10666 -3.61733,8.16 -5.932,11.93333 -1.15333,1.86667 -3.54,4 -3.08533,6.41333 0.116,0.62667 1.056,0.36 0.94133,-0.25333 -0.27866,-1.48 1.20667,-3.14667 2.00267,-4.26667 0.944,-1.32 1.74533,-2.69333 2.53467,-4.12" style="fill:#577c69;fill-opacity:1;fill-rule:nonzero;stroke:none;stroke-width:0.133333"/><path id="path175" d="m 438.12266,284.92009 c 5.38266,-5.88 8.36666,-13.49333 10.824,-20.96 2.844,-8.64 5.368,-17.52 6.58,-26.56 1.18133,-8.8 1.132,-17.84 0.26533,-26.68 -0.79733,-8.13333 -2.65733,-16.28 -6.61467,-23.49333 -0.30266,-0.56 -1.14533,-0.0667 -0.84266,0.49333 3.98666,7.26667 5.74133,15.45334 6.544,23.64 0.82133,8.37334 0.82266,17 -0.23467,25.34667 -1.11333,8.81333 -3.59733,17.42666 -6.27733,25.86666 -2.43467,7.68 -5.41334,15.62667 -10.93467,21.65334 -0.424,0.46666 0.264,1.14666 0.69067,0.69333" style="fill:#577c69;fill-opacity:1;fill-rule:nonzero;stroke:none;stroke-width:0.133333"/><path id="path176" d="m 443.00266,283.21342 c 5.20133,-4.8 7.656,-11.92 9.50266,-18.56 2.27867,-8.18666 3.964,-16.65333 5.06267,-25.07999 1.27067,-9.74667 1.51067,-19.61334 0.91867,-29.41334 -0.28534,-4.72 -0.976,-9.41333 -2.19067,-13.98666 -1.25467,-4.72 -3.32533,-9.18667 -5.11733,-13.70667 -0.22934,-0.58667 -1.17334,-0.33333 -0.94134,0.25333 1.62267,4.10667 3.41334,8.13334 4.72534,12.36 1.44933,4.65334 2.14,9.53334 2.50133,14.38667 0.692,9.28 0.464,18.72 -0.60267,27.96 -0.98666,8.54667 -2.736,17.05333 -4.876,25.4 -1.79333,6.98666 -4.212,14.66666 -9.67333,19.69333 -0.464,0.42667 0.228,1.10667 0.69067,0.69333" style="fill:#577c69;fill-opacity:1;fill-rule:nonzero;stroke:none;stroke-width:0.133333"/><path id="path177" d="m 461.35466,252.46676 c -0.85334,4.54666 -1.952,9.04 -3.39067,13.42666 -1.56,4.76 -3.97867,8.76 -6.45733,13.06667 -0.31467,0.54667 0.528,1.04 0.84266,0.49333 2.28667,-3.97333 4.548,-7.65333 6.10667,-11.98666 1.71867,-4.78667 2.876,-9.76 3.84,-14.73334 1.92,-9.91999 2.67333,-20.03999 2.952,-30.11999 0.54267,-19.64 -1.95733,-39.10667 -10.21467,-57.10667 -0.26266,-0.57333 -1.104,-0.0667 -0.84266,0.49333 8.19333,17.85334 10.568,37.13334 10.08133,56.61334 -0.24933,10 -1.06533,20.01333 -2.91733,29.85333" style="fill:#577c69;fill-opacity:1;fill-rule:nonzero;stroke:none;stroke-width:0.133333"/><path id="path178" d="m 465.63466,263.50676 c -1.616,3.74666 -3.984,7.57333 -3.948,11.78666 0.005,0.64 0.98133,0.64 0.976,0 -0.04,-4.57333 2.832,-8.72 4.45599,-12.85333 2.14667,-5.45333 3.516,-11.30667 4.76,-17.02666 2.44,-11.22667 3.50134,-22.77334 2.62667,-34.24 -0.42133,-5.53334 -1.62667,-10.84 -2.748,-16.25334 -1.11333,-5.37333 -1.836,-10.82666 -3.084,-16.17333 -1.10533,-4.74667 -2.71066,-9.38667 -5.34133,-13.52 -2.09067,-3.26667 -4.864,-6.98667 -8.47467,-8.66667 -0.56666,-0.26666 -1.06133,0.57334 -0.492,0.84 3.77734,1.76 6.55867,5.77334 8.68267,9.21334 2.67867,4.33333 4.04666,9.38666 5.12,14.32 1.11866,5.14666 1.81466,10.36 2.91466,15.50666 1.196,5.6 2.23867,11.10667 2.592,16.82667 0.70134,11.41333 -0.68533,22.85333 -3.20133,33.97333 -1.236,5.46667 -2.61733,11.10667 -4.83866,16.26667" style="fill:#577c69;fill-opacity:1;fill-rule:nonzero;stroke:none;stroke-width:0.133333"/><path id="path179" d="m 472.40932,258.10676 c 1.904,-5.37334 3.38267,-10.88 4.42933,-16.49333 0.98134,-5.25334 1.384,-10.58667 1.83067,-15.90667 0.48667,-5.8 0.99333,-11.66667 0.78933,-17.49333 -0.17466,-4.98667 -1.43066,-9.85334 -2.57733,-14.68 -1.14,-4.8 -2.25333,-9.6 -3.58267,-14.34667 -2.576,-9.21333 -6.136,-18.26667 -12.24266,-25.73333 -0.39867,-0.48 -1.08533,0.21333 -0.69067,0.69333 6.14267,7.50667 9.57333,16.65333 12.16,25.89333 1.27333,4.54667 2.32533,9.16 3.41467,13.74667 1.24,5.24 2.48533,10.42667 2.58,15.82667 0.0973,5.61333 -0.42,11.25333 -0.888,16.82666 -0.48,5.72 -1.00934,11.38667 -2.14134,17.01334 -1.07866,5.35999 -2.65733,10.59999 -4.504,15.74666 -0.956,2.66667 -1.99733,5.29333 -3.1,7.90667 -0.87466,2.06666 -2.20133,3.93333 -2.29599,6.24 -0.0267,0.62666 0.94933,0.62666 0.97466,0 0.104,-2.48 1.82267,-4.92 2.76933,-7.18667 1.10667,-2.65333 2.11734,-5.34667 3.07467,-8.05333" style="fill:#577c69;fill-opacity:1;fill-rule:nonzero;stroke:none;stroke-width:0.133333"/><path id="path180" d="m 469.73732,273.10676 c 0.016,-1.53334 1.2,-2.69334 1.90933,-3.97334 0.76267,-1.36 1.428,-2.78666 2.076,-4.21333 1.33334,-2.92 2.52,-5.93333 3.664,-8.93333 2.49067,-6.54667 4.376,-13.30667 5.41467,-20.22667 1.02,-6.8 1.8,-13.78666 1.99733,-20.66666 0.088,-3.05334 -0.0973,-6.08 -0.44533,-9.10667 -0.23467,-2.02667 -0.456,-4.18667 -1.264,-6.08 -0.24667,-0.57333 -1.08667,-0.08 -0.84267,0.49333 0.92,2.16 1.05467,4.74667 1.292,7.05334 0.30934,3.01333 0.352,6.04 0.23734,9.06666 -0.264,6.98667 -1.088,14.16 -2.24667,21.05334 -1.11867,6.68 -3.14933,13.15999 -5.58667,19.46666 -1.20533,3.10667 -2.47866,6.21333 -3.91866,9.22667 -0.628,1.32 -1.29067,2.62666 -2.11467,3.84 -0.668,0.97333 -1.136,1.8 -1.148,3 -0.007,0.62666 0.96933,0.62666 0.976,0" style="fill:#577c69;fill-opacity:1;fill-rule:nonzero;stroke:none;stroke-width:0.133333"/><path id="path181" d="m 473.57465,271.16009 c 5.59734,-9.96 8.88134,-20.86667 10.992,-32.04 1.08934,-5.77333 1.9,-11.61333 2.65867,-17.42666 0.41333,-3.17334 0.708,-6.34667 0.79733,-9.54667 0.0693,-2.45333 -0.708,-5.30667 0.43334,-7.6 0.28,-0.56 -0.56134,-1.05333 -0.84267,-0.49333 -0.92,1.85333 -0.73467,3.90666 -0.608,5.90666 0.184,2.92 -0.11067,5.88 -0.408,8.78667 -0.64533,6.28 -1.62933,12.57333 -2.732,18.8 -2.044,11.54666 -5.364,22.85333 -11.13333,33.12 -0.30934,0.54666 0.53333,1.04 0.84266,0.49333" style="fill:#577c69;fill-opacity:1;fill-rule:nonzero;stroke:none;stroke-width:0.133333"/><path id="path182" d="m 477.72132,269.69342 c 5.532,-8.4 8.60533,-18.18666 10.57067,-27.97333 2.27466,-11.33333 2.9,-22.96 2.91466,-34.49333 10e-4,-0.62667 -0.97466,-0.62667 -0.976,0 -0.0133,11.26667 -0.65733,22.53333 -2.76,33.61333 -1.88266,9.92 -5.004,19.88 -10.592,28.36 -0.34666,0.52 0.49867,1.01333 0.84267,0.49333" style="fill:#577c69;fill-opacity:1;fill-rule:nonzero;stroke:none;stroke-width:0.133333"/><path id="path183" d="m 492.60399,240.96009 c 0.89466,-4.92 1.11866,-9.94666 1.42666,-14.93333 0.34134,-5.52 0.58,-11.05333 0.592,-16.6 10e-4,-0.62667 -0.97466,-0.62667 -0.976,0 -0.0107,5.29333 -0.236,10.57333 -0.54666,15.85333 -0.31734,5.37334 -0.59067,10.76 -1.55467,16.06667 -0.82933,4.56 -2.2,9 -3.92533,13.30666 -1.712,4.25334 -4.724,8 -5.91067,12.46667 -0.16133,0.61333 0.78,0.86667 0.94133,0.25333 1.17734,-4.42666 4.16934,-8.24 5.91067,-12.46666 1.85067,-4.49334 3.17467,-9.17333 4.04267,-13.94667" style="fill:#577c69;fill-opacity:1;fill-rule:nonzero;stroke:none;stroke-width:0.133333"/><path id="path184" d="m 494.63999,248.09342 c -0.10534,0.61334 0.83466,0.88 0.94,0.25334 1.08,-6.32 1.50133,-12.70667 1.81333,-19.09333 0.31733,-6.50667 1.08,-13.06667 0.888,-19.58667 -0.0187,-0.62667 -0.99333,-0.62667 -0.976,0 0.18533,6.28 -0.556,12.58667 -0.85333,18.85333 -0.30934,6.54667 -0.70667,13.09334 -1.812,19.57333" style="fill:#577c69;fill-opacity:1;fill-rule:nonzero;stroke:none;stroke-width:0.133333"/><path id="path226" d="m 452.85199,134.48009 c 3.424,3.26667 6.872,6.52 10.192,9.90667 0.35867,0.81333 0.708,1.64 1.044,2.48 0.0573,0.41333 0.112,0.84 0.164,1.25333 -1.188,-1.90666 -2.784,-3.58666 -4.36133,-5.16 -1.07867,-1.08 -2.20134,-2.10666 -3.32934,-3.13333 -1.304,-1.73333 -2.53466,-3.52 -3.70933,-5.34667 z m -24.496,-22.17333 c 6.14667,7.88 14.084,14.21333 20.74133,21.65333 2.1,2.33334 4.43334,4.42667 6.756,6.54667 2.32667,3.08 4.884,5.98667 7.81734,8.58667 0.028,0.0267 0.0573,0.04 0.0867,0.0533 0.312,0.57333 0.58667,1.16 0.804,1.77333 0.009,0.0267 0.028,0.04 0.0413,0.0667 10e-4,0 0.004,0 0.007,0.0133 0.0667,0.10667 0.164,0.18667 0.27734,0.22667 0.0107,0 0.0213,0 0.032,0 0.0373,0.0133 0.072,0.0133 0.11066,0.0133 0.17734,0.0133 0.34934,-0.0533 0.43467,-0.2 0.004,-0.0133 0.008,-0.0133 0.0133,-0.0133 0.009,-0.0267 0.0173,-0.0533 0.024,-0.08 0.0187,-0.0533 0.024,-0.12 0.016,-0.18667 -0.0333,-0.36 -0.0747,-0.70666 -0.112,-1.06666 0.30667,0.08 0.668,-0.10667 0.62134,-0.45334 0.31333,-0.0133 0.62933,-0.36 0.44133,-0.73333 -0.52267,-1.04 -1.016,-2.10667 -1.49733,-3.17333 0.0573,-0.14667 0.0453,-0.33334 -0.10267,-0.48 -0.0387,-0.04 -0.0787,-0.08 -0.11867,-0.12 -1.53466,-9.64 -4.43866,-18.89334 -7.20666,-28.29334 -3.064,-10.41333 -5.74534,-21.279995 -11.896,-30.399994 -0.34934,-0.52 -1.196,-0.02667 -0.84267,0.493333 6.1,9.04 8.772,19.826671 11.79867,30.160001 2.364,8.08 4.856,16.02666 6.48,24.22666 -3.208,-7.94666 -5.728,-16.17333 -9.312,-23.97333 -5.212,-11.33333 -10.30134,-22.719998 -15.74134,-33.946664 -0.27466,-0.573334 -1.116,-0.08 -0.84266,0.493333 5.332,11 10.288,22.173331 15.42533,33.266661 2.97067,6.41334 5.22667,13.12 7.708,19.73334 -4.25467,-8.22667 -9.22267,-16.10667 -13.63867,-24.2 -3.448,-6.32 -6.71466,-12.733335 -10.052,-19.120001 -2.91733,-5.573333 -7.04666,-11.106667 -7.67466,-17.546666 -0.06,-0.626667 -1.03734,-0.626667 -0.976,0 0.55333,5.666666 3.72133,10.733333 6.45333,15.586666 3.516,6.24 6.63867,12.706671 10.02533,19.013331 5.66,10.54667 12.37467,20.72 17.44267,31.61333 -3.67333,-3.65333 -7.45467,-7.17333 -11.14933,-10.76 -3.12534,-5.24 -5.94134,-10.69333 -8.93467,-15.94666 -7.06,-12.37333 -14.81467,-24.706668 -18.46533,-38.626667 -0.15867,-0.6 -1.1,-0.346667 -0.94,0.266666 3.66933,13.986667 11.44933,26.426671 18.56266,38.853331 2.41734,4.22667 4.71734,8.58667 7.15334,12.86667 -5.376,-5.37334 -10.44667,-11.01334 -14.55067,-17.61333 -8.03467,-12.893338 -12.72933,-27.506671 -19.41467,-41.093337 -0.27866,-0.56 -1.12,-0.06667 -0.84266,0.493333 6.692,13.6 11.46266,28.133333 19.41466,41.093334 4.752,7.76 10.89867,14.2 17.31734,20.41333 0.99733,1.66667 2.03066,3.32 3.108,4.92 -0.56134,-0.52 -1.12267,-1.05333 -1.66667,-1.58667 -3.26667,-3.26666 -6.29333,-6.76 -9.59067,-10 -3.51733,-3.46666 -7.08,-6.88 -10.38266,-10.54666 -6.22,-6.92 -10.76267,-15.280001 -14.564,-23.706668 -1.82134,-4.04 -3.69867,-8.053333 -5.53067,-12.093333 -2.06,-4.533333 -3.56267,-9.28 -3.29067,-14.319999 0.0347,-0.626667 -0.94133,-0.626667 -0.976,0 -0.47466,8.773333 4.356,16.239999 7.684,23.986666 3.62,8.439999 7.85867,16.600004 13.51467,23.866664" style="fill:#577c69;fill-opacity:1;fill-rule:nonzero;stroke:none;stroke-width:0.133333"/><path id="path227" d="m 466.06666,146.21343 c 0.003,0.42666 0.456,0.56 0.74266,0.4 0.28933,0.16 0.74133,0.0267 0.74133,-0.4 0.005,-9.33334 0.10667,-18.68 -1.27866,-27.93334 -1.38,-9.21333 -5.59733,-17.55999 -7.88,-26.533328 -0.15467,-0.613333 -1.096,-0.346666 -0.94133,0.253334 2.16133,8.493334 6.09866,16.440004 7.644,25.106664 1.144,6.41333 1.42133,12.94667 1.47866,19.48 -1.41466,-16.02667 -5.97466,-31.74666 -12.29333,-46.479998 -0.24667,-0.573333 -1.088,-0.08 -0.84267,0.493334 7.512,17.506664 12.51734,36.479994 12.62934,55.613334" style="fill:#577c69;fill-opacity:1;fill-rule:nonzero;stroke:none;stroke-width:0.133333"/></g></svg>