<svg version="1.1" id="svg1" width="2000" height="2579.9468" viewBox="1127.6211205562945 599.9703186895846 9.266822732234004 15.901251662993786" sodipodi:docname="styletrees.svg" inkscape:version="1.4.2 (f4327f4, 2025-05-13)" xmlns:inkscape="http://www.inkscape.org/namespaces/inkscape" xmlns:sodipodi="http://sodipodi.sourceforge.net/DTD/sodipodi-0.dtd" xmlns="http://www.w3.org/2000/svg" xmlns:svg="http://www.w3.org/2000/svg"><defs id="defs1"/><g><path id="path973" d="m 1128.636,601.84008 c 0.8933,4.58667 1.7293,9.2 3.4506,13.57334 0.3214,0.81333 1.6574,0.45333 1.3307,-0.37334 -1.72,-4.37333 -2.5573,-8.97333 -3.4507,-13.57333 -0.1706,-0.86667 -1.5,-0.50667 -1.3306,0.37333 v 0" style="fill:#577c69;fill-opacity:1;fill-rule:nonzero;stroke:none;stroke-width:0.133333"/><path id="path974" d="m 1133.4426,604.18675 c 0.344,3.57333 1.3254,7.02667 2.096,10.53333 0.1907,0.86667 1.5214,0.50667 1.3307,-0.36 -0.7427,-3.38666 -1.7147,-6.72 -2.0467,-10.17333 -0.084,-0.88 -1.4653,-0.89333 -1.38,0 v 0" style="fill:#577c69;fill-opacity:1;fill-rule:nonzero;stroke:none;stroke-width:0.133333"/><path id="path973" d="m 1128.636,601.84008 c 0.8933,4.58667 1.7293,9.2 3.4506,13.57334 0.3214,0.81333 1.6574,0.45333 1.3307,-0.37334 -1.72,-4.37333 -2.5573,-8.97333 -3.4507,-13.57333 -0.1706,-0.86667 -1.5,-0.50667 -1.3306,0.37333 v 0" style="fill:#577c69;fill-opacity:1;fill-rule:nonzero;stroke:none;stroke-width:0.133333"/><path id="path974" d="m 1133.4426,604.18675 c 0.344,3.57333 1.3254,7.02667 2.096,10.53333 0.1907,0.86667 1.5214,0.50667 1.3307,-0.36 -0.7427,-3.38666 -1.7147,-6.72 -2.0467,-10.17333 -0.084,-0.88 -1.4653,-0.89333 -1.38,0 v 0" style="fill:#577c69;fill-opacity:1;fill-rule:nonzero;stroke:none;stroke-width:0.133333"/></g></svg>