<svg version="1.1" id="svg1" width="2000" height="2579.9468" viewBox="1190.6495647575357 582.2541352317602 7.672945879551435 12.945229536479701" sodipodi:docname="styletrees.svg" inkscape:version="1.4.2 (f4327f4, 2025-05-13)" xmlns:inkscape="http://www.inkscape.org/namespaces/inkscape" xmlns:sodipodi="http://sodipodi.sourceforge.net/DTD/sodipodi-0.dtd" xmlns="http://www.w3.org/2000/svg" xmlns:svg="http://www.w3.org/2000/svg"><defs id="defs1"/><g><path id="path982" d="m 1191.6546,585.08008 c 0.3414,3.05334 0.9174,6.09334 2.096,8.93334 0.336,0.81333 1.672,0.45333 1.3307,-0.37334 -1.1293,-2.72 -1.7187,-5.62666 -2.0453,-8.56 -0.099,-0.86666 -1.48,-0.88 -1.3814,0 v 0" style="fill:#577c69;fill-opacity:1;fill-rule:nonzero;stroke:none;stroke-width:0.133333"/><path id="path983" d="m 1194.6706,584.12008 c 0.7134,3.53334 1.5,7.06667 2.3014,10.58667 0.1973,0.86667 1.528,0.49333 1.3306,-0.37333 -0.8013,-3.52 -1.5866,-7.04 -2.3,-10.58667 -0.176,-0.86667 -1.5066,-0.49333 -1.332,0.37333 v 0" style="fill:#577c69;fill-opacity:1;fill-rule:nonzero;stroke:none;stroke-width:0.133333"/><path id="path982" d="m 1191.6546,585.08008 c 0.3414,3.05334 0.9174,6.09334 2.096,8.93334 0.336,0.81333 1.672,0.45333 1.3307,-0.37334 -1.1293,-2.72 -1.7187,-5.62666 -2.0453,-8.56 -0.099,-0.86666 -1.48,-0.88 -1.3814,0 v 0" style="fill:#577c69;fill-opacity:1;fill-rule:nonzero;stroke:none;stroke-width:0.133333"/><path id="path983" d="m 1194.6706,584.12008 c 0.7134,3.53334 1.5,7.06667 2.3014,10.58667 0.1973,0.86667 1.528,0.49333 1.3306,-0.37333 -0.8013,-3.52 -1.5866,-7.04 -2.3,-10.58667 -0.176,-0.86667 -1.5066,-0.49333 -1.332,0.37333 v 0" style="fill:#577c69;fill-opacity:1;fill-rule:nonzero;stroke:none;stroke-width:0.133333"/></g></svg>