<svg version="1.1" id="svg1" width="2000" height="2579.9468" viewBox="1124.2550112348592 797.1163966669999 3.2051500350376045 13.890343333002306" sodipodi:docname="styletrees.svg" inkscape:version="1.4.2 (f4327f4, 2025-05-13)" xmlns:inkscape="http://www.inkscape.org/namespaces/inkscape" xmlns:sodipodi="http://sodipodi.sourceforge.net/DTD/sodipodi-0.dtd" xmlns="http://www.w3.org/2000/svg" xmlns:svg="http://www.w3.org/2000/svg"><defs id="defs1"/><g><path id="path772" d="m 1126.356,798.17341 c -1.5067,0.62667 -1.0534,3.26667 -0.9814,4.52 0.1467,2.54667 0.6547,5.09333 0.7054,7.65333 0.017,0.88 1.3973,0.88 1.38,0 -0.033,-1.72 -0.316,-3.45333 -0.492,-5.16 -0.065,-0.64 -0.6934,-5.49333 -0.2454,-5.68 0.8094,-0.34666 0.4547,-1.68 -0.3666,-1.33333 v 0" style="fill:#577c69;fill-opacity:1;fill-rule:nonzero;stroke:none;stroke-width:0.133333"/><path id="path772" d="m 1126.356,798.17341 c -1.5067,0.62667 -1.0534,3.26667 -0.9814,4.52 0.1467,2.54667 0.6547,5.09333 0.7054,7.65333 0.017,0.88 1.3973,0.88 1.38,0 -0.033,-1.72 -0.316,-3.45333 -0.492,-5.16 -0.065,-0.64 -0.6934,-5.49333 -0.2454,-5.68 0.8094,-0.34666 0.4547,-1.68 -0.3666,-1.33333 v 0" style="fill:#577c69;fill-opacity:1;fill-rule:nonzero;stroke:none;stroke-width:0.133333"/></g></svg>