<svg version="1.1" id="svg1" width="2000" height="2579.9468" viewBox="1130.2836337567956 814.6600800000178 6.614445440365216 12.911671907577784" sodipodi:docname="styletrees.svg" inkscape:version="1.4.2 (f4327f4, 2025-05-13)" xmlns:inkscape="http://www.inkscape.org/namespaces/inkscape" xmlns:sodipodi="http://sodipodi.sourceforge.net/DTD/sodipodi-0.dtd" xmlns="http://www.w3.org/2000/svg" xmlns:svg="http://www.w3.org/2000/svg"><defs id="defs1"/><g><path id="path807" d="m 1134.1333,816.32008 c 0.048,3.06666 1.0547,5.96 1.38,8.97333 0.095,0.88 1.476,0.89333 1.38,0 -0.324,-3.01333 -1.332,-5.92 -1.38,-8.97333 -0.013,-0.88 -1.3947,-0.88 -1.38,0 v 0" style="fill:#577c69;fill-opacity:1;fill-rule:nonzero;stroke:none;stroke-width:0.133333"/><path id="path808" d="m 1131.6266,816.37341 c -1.1826,3.52 1.048,7.05333 1.356,10.53333 0.077,0.88 1.4587,0.89334 1.38,0 -0.2893,-3.28 -2.5053,-6.89333 -1.4053,-10.17333 0.2853,-0.84 -1.048,-1.2 -1.3307,-0.36 v 0" style="fill:#577c69;fill-opacity:1;fill-rule:nonzero;stroke:none;stroke-width:0.133333"/><path id="path807" d="m 1134.1333,816.32008 c 0.048,3.06666 1.0547,5.96 1.38,8.97333 0.095,0.88 1.476,0.89333 1.38,0 -0.324,-3.01333 -1.332,-5.92 -1.38,-8.97333 -0.013,-0.88 -1.3947,-0.88 -1.38,0 v 0" style="fill:#577c69;fill-opacity:1;fill-rule:nonzero;stroke:none;stroke-width:0.133333"/><path id="path808" d="m 1131.6266,816.37341 c -1.1826,3.52 1.048,7.05333 1.356,10.53333 0.077,0.88 1.4587,0.89334 1.38,0 -0.2893,-3.28 -2.5053,-6.89333 -1.4053,-10.17333 0.2853,-0.84 -1.048,-1.2 -1.3307,-0.36 v 0" style="fill:#577c69;fill-opacity:1;fill-rule:nonzero;stroke:none;stroke-width:0.133333"/></g></svg>