<svg version="1.1" id="svg1" width="2000" height="2579.9468" viewBox="1187.6665679023095 817.6384582283256 3.5163301827276428 14.55799362861876" sodipodi:docname="styletrees.svg" inkscape:version="1.4.2 (f4327f4, 2025-05-13)" xmlns:inkscape="http://www.inkscape.org/namespaces/inkscape" xmlns:sodipodi="http://sodipodi.sourceforge.net/DTD/sodipodi-0.dtd" xmlns="http://www.w3.org/2000/svg" xmlns:svg="http://www.w3.org/2000/svg"><defs id="defs1"/><g><path id="path795" d="m 1189.3266,818.82674 c -1.1306,1.05334 -0.4866,4.08 -0.392,5.37334 0.1854,2.50666 0.4667,5.02666 0.904,7.49333 0.156,0.88 1.4854,0.50667 1.332,-0.36 -0.3546,-2 -0.5706,-4.02667 -0.7626,-6.05333 -0.087,-0.90667 -0.8627,-4.77334 -0.1054,-5.48 0.652,-0.6 -0.3266,-1.57334 -0.976,-0.97334 v 0" style="fill:#577c69;fill-opacity:1;fill-rule:nonzero;stroke:none;stroke-width:0.133333"/><path id="path795" d="m 1189.3266,818.82674 c -1.1306,1.05334 -0.4866,4.08 -0.392,5.37334 0.1854,2.50666 0.4667,5.02666 0.904,7.49333 0.156,0.88 1.4854,0.50667 1.332,-0.36 -0.3546,-2 -0.5706,-4.02667 -0.7626,-6.05333 -0.087,-0.90667 -0.8627,-4.77334 -0.1054,-5.48 0.652,-0.6 -0.3266,-1.57334 -0.976,-0.97334 v 0" style="fill:#577c69;fill-opacity:1;fill-rule:nonzero;stroke:none;stroke-width:0.133333"/></g></svg>