<svg version="1.1" id="svg1" width="2000" height="2579.9468" viewBox="879.50801 2025.1867 19.84400000000005 18.33330000000001" sodipodi:docname="styletrees.svg" inkscape:version="1.4.2 (f4327f4, 2025-05-13)" xmlns:inkscape="http://www.inkscape.org/namespaces/inkscape" xmlns:sodipodi="http://sodipodi.sourceforge.net/DTD/sodipodi-0.dtd" xmlns="http://www.w3.org/2000/svg" xmlns:svg="http://www.w3.org/2000/svg"><defs id="defs1"/><g><path id="path1373" d="m 890.66664,2043.52 c 0.007,0 0.0133,0 0.0187,0 4.72533,0 8.66667,-3.9333 8.66667,-8.6666 0,-4.72 -3.94134,-8.6667 -8.66667,-8.6667 -0.504,0 -1.008,0 -1.51067,0 -4.72533,0 -8.66666,3.9467 -8.66666,8.6667 0,4.7333 3.94133,8.6666 8.66666,8.6666 0.2,0 0.40134,0 0.60267,0 4.72533,0 8.66667,-3.9333 8.66667,-8.6666 0,-4.72 -3.94134,-8.6667 -8.66667,-8.6667 -0.20133,0 -0.40267,0 -0.60267,0 -4.72533,0 -8.66666,3.9467 -8.66666,8.6667 0,4.7333 3.94133,8.6666 8.66666,8.6666 0.50267,0 1.00667,0 1.51067,0 4.72533,0 8.66667,-3.9333 8.66667,-8.6666 0,-4.72 -3.94134,-8.6667 -8.66667,-8.6667 -0.005,0 -0.012,0 -0.0187,0 -4.724,0 -8.66666,3.9467 -8.66666,8.6667 0,4.7333 3.94266,8.6666 8.66666,8.6666 v 0" style="fill:#577c69;fill-opacity:1;fill-rule:nonzero;stroke:none;stroke-width:0.133333"/></g></svg>