<svg version="1.1" id="svg1" width="2000" height="2579.9468" viewBox="1212.2696354085342 689.9382097502933 3.3062385605664986 17.068540249706416" sodipodi:docname="styletrees.svg" inkscape:version="1.4.2 (f4327f4, 2025-05-13)" xmlns:inkscape="http://www.inkscape.org/namespaces/inkscape" xmlns:sodipodi="http://sodipodi.sourceforge.net/DTD/sodipodi-0.dtd" xmlns="http://www.w3.org/2000/svg" xmlns:svg="http://www.w3.org/2000/svg"><defs id="defs1"/><g><path id="path418" d="m 1213.4853,692.10675 c 1.3467,1.25333 0.664,5.46666 0.604,7.09333 -0.088,2.38667 -0.3173,4.76 -0.3453,7.14667 -0.011,0.88 1.3693,0.88 1.38,0 0.036,-3.08 0.348,-6.14667 0.404,-9.22667 0.031,-1.68 0.3306,-4.69333 -1.0667,-5.98667 -0.6507,-0.61333 -1.6293,0.36 -0.976,0.97334 v 0" style="fill:#577c69;fill-opacity:1;fill-rule:nonzero;stroke:none;stroke-width:0.133333"/><path id="path418" d="m 1213.4853,692.10675 c 1.3467,1.25333 0.664,5.46666 0.604,7.09333 -0.088,2.38667 -0.3173,4.76 -0.3453,7.14667 -0.011,0.88 1.3693,0.88 1.38,0 0.036,-3.08 0.348,-6.14667 0.404,-9.22667 0.031,-1.68 0.3306,-4.69333 -1.0667,-5.98667 -0.6507,-0.61333 -1.6293,0.36 -0.976,0.97334 v 0" style="fill:#577c69;fill-opacity:1;fill-rule:nonzero;stroke:none;stroke-width:0.133333"/></g></svg>