<svg version="1.1" id="svg1" width="2000" height="2579.9468" viewBox="724.3915613047351 263.260986938002 225.28058586781776 163.16276232227943" sodipodi:docname="styletrees.svg" inkscape:version="1.4.2 (f4327f4, 2025-05-13)" xmlns:inkscape="http://www.inkscape.org/namespaces/inkscape" xmlns:sodipodi="http://sodipodi.sourceforge.net/DTD/sodipodi-0.dtd" xmlns="http://www.w3.org/2000/svg" xmlns:svg="http://www.w3.org/2000/svg"><defs id="defs1"/><g><path id="path280" d="m 937.73464,389.33342 c 0.88667,-4.58667 1.45067,-9.22667 1.8,-13.89333 0.75467,-10.04 -0.58933,-19.84 -1.644,-29.8 -0.976,-9.24 -1.964,-18.48 -4.432,-27.45333 -1.15066,-4.18667 -2.75866,-8.18667 -4.75733,-12.04 -0.94,-1.8 -1.92933,-3.93334 -3.06133,-5.89334 3.56533,3.70667 6.82933,7.69334 9.74133,11.93334 0.003,0.04 -0.0147,0.08 0.008,0.12 2.64533,5.32 3.22267,11.65333 4.13467,17.45333 0.99733,6.33333 1.7,12.72 2.40266,19.10667 0.672,6.10666 1.176,12.22666 1.36667,18.37333 0.172,5.54667 0.52,11.72 -0.93867,17.14666 -0.04,0.14667 0.0307,0.25334 0.12667,0.32 -1.63333,3.42667 -3.53467,6.72 -5.704,9.81334 0.45467,-1.70667 0.64533,-3.56 0.95733,-5.18667 z m -11.224,16.73333 c -2.18133,1.92 -4.53333,3.61334 -6.99333,5.13334 1.16133,-1.62667 2.032,-3.50667 3.316,-5.06667 1.86933,-2.26667 3.21067,-4.72 4.65467,-7.26667 2.628,-4.65333 3.83066,-9.08 4.96933,-14.28 2.53067,-11.53333 3.31333,-22.89333 1.304,-34.58666 -2.00933,-11.69333 -2.39333,-23.68 -6.55467,-34.89333 -2.18533,-5.88 -5.45733,-11.25334 -9.04,-16.38667 -2.86533,-4.09333 -5.824,-8.44 -9.19066,-12.26667 5.136,3.34667 9.94933,7.2 14.352,11.46667 1.91866,2.50667 3.364,5.92 4.79733,8.56 2.23333,4.12 3.77067,8.53333 5.00933,13.04 2.444,8.89333 3.25067,18.17333 4.21734,27.32 0.92266,8.73333 2.02,17.26667 1.66266,26.08 -0.204,5.02667 -0.84,10.04 -1.69466,15 -0.26134,1.50666 -0.564,3.01333 -0.85067,4.52 -0.16133,0.85333 -0.368,1.69333 -0.58933,2.53333 -0.0387,0.14667 -0.13867,0.66667 -0.25734,1.13333 -0.15333,0.21334 -0.29733,0.42667 -0.45333,0.62667 -10e-4,0 -0.003,-0.0133 -0.004,-0.0133 -0.0867,-0.42667 -0.72933,-0.24 -0.644,0.17333 0.036,0.17333 0.072,0.34667 0.108,0.52 -2.444,3.13333 -5.152,6.04 -8.11867,8.65333 z m -55.93066,18.17334 c -20.112,1.94666 -40.9,2.44 -61.01467,0.34666 -18.17066,-1.90666 -36.008,-7.08 -51.232,-17.29333 0.0213,-0.0933 0.012,-0.2 -0.088,-0.28 -3.272,-2.82667 -5.33866,-6.92 -7.33066,-10.69333 -2.54667,-4.82667 -4.524,-9.93334 -6.18534,-15.12 -3.08933,-9.64 -4.648,-19.74667 -5.55466,-29.8 -0.91467,-10.17333 -0.76267,-20.49333 1.468,-30.48 1.16666,-5.24 3.09733,-10.32 4.93466,-15.34667 0.97867,-2.68 1.928,-5.4 3.18,-7.96 1.044,-2.13333 2.332,-4.10666 3.35867,-6.25333 1.64133,-1.48 3.33067,-2.92 5.07333,-4.29333 1.34534,-1.06667 2.72267,-2.10667 4.12134,-3.12 -0.77334,1.17333 -1.42,2.45333 -2.06,3.69333 -2.00534,3.90667 -3.99067,7.76 -5.6,11.85333 -3.7,9.4 -6.268,19.50667 -8.17467,29.41334 -1.78667,9.28 -2.33067,18.64 -0.996,28.01333 1.348,9.45333 4.52667,18.70667 8.13867,27.52 3.05733,7.45333 7.052,14.69333 13.10133,20.13333 5.864,5.26667 13.844,8.01333 21.17867,10.50667 9.28933,3.14666 18.424,4.85333 28.228,5.26666 10.528,0.44 21.35733,0.56 31.872,-0.12 5.424,-0.36 10.75866,-1.56 16.08133,-2.6 5.636,-1.09333 11.35466,-1.58666 17.008,-2.57333 5.38666,-0.94667 10.76933,-2.05333 15.984,-3.72 1.948,-0.62667 4.00533,-1.13333 5.97866,-1.81333 -0.236,0.17333 -0.47066,0.34666 -0.70933,0.49333 -0.36133,0.24 -0.0267,0.81333 0.33733,0.58667 0.764,-0.49334 1.432,-1.09334 2.07067,-1.73334 1.372,-0.58666 2.67467,-1.30666 3.82933,-2.26666 0.33067,-0.28 -0.14266,-0.74667 -0.47066,-0.48 -0.64134,0.54666 -1.352,0.98666 -2.09067,1.38666 0.50667,-0.56 1.00933,-1.13333 1.52667,-1.69333 1.94666,-2.05333 3.62533,-4.2 4.85733,-6.77333 2.716,-5.65334 3.69067,-12.50667 4.35733,-18.68 1.45734,-13.52 -0.61333,-27.25333 -3.55466,-40.44 -2.948,-13.2 -6.65334,-27.06667 -13.45334,-38.86667 -3.33733,-5.8 -7.528,-11.16 -11.41466,-16.58666 -1.75067,-2.44 -3.628,-4.77334 -5.692,-6.97334 -1.03067,-1.08 -2.16267,-2.06666 -3.31467,-3.04 -0.628,-0.52 -2.16133,-1.26666 -2.84133,-2.04 3.61733,0.92 7.19733,1.94667 10.72133,3.14667 1.276,0.86667 2.456,2.01333 3.49333,2.82667 2.72934,2.12 5.20934,4.56 7.572,7.08 4.748,5.06666 8.83067,10.74666 11.93867,16.96 5.99867,11.97333 7.992,25.64 9.29067,38.82666 1.16666,11.84 2.32666,23.86667 2.41733,35.77334 0.0947,12.17333 -1.72667,25.15999 -10.14667,34.54666 -0.28666,0.32 0.184,0.78667 0.47067,0.46667 8.13067,-9.06667 10.12667,-21.25334 10.33467,-33.04 0.232,-13.22667 -1.27867,-26.72 -2.62267,-39.86667 -1.36933,-13.4 -3.844,-26.88 -10.12,-38.90666 -3.25333,-6.24 -7.81333,-11.86667 -12.684,-16.90667 -2.432,-2.50667 -5.124,-4.69333 -7.85067,-6.88 -0.112,-0.0933 -0.22666,-0.18667 -0.34,-0.28 3.404,1.21333 6.74934,2.58667 10.01867,4.13333 16.69067,17.32 26.18933,39.73334 28.83333,63.48 1.248,11.2 1.55867,22.68 0.46534,33.90667 -0.6,6.16 -1.884,12.24 -3.89467,18.09333 -1.93067,5.62667 -4.728,11.97333 -9.444,15.8 -0.33467,0.26667 0.14,0.73333 0.47067,0.46667 4.01866,-3.25334 6.44,-8.12 8.36133,-12.84 2.35867,-5.77334 3.83867,-11.77334 4.74,-17.94667 1.79867,-12.32 1.24933,-25.13333 -0.032,-37.48 -2.42,-23.30666 -11.816,-45.46666 -27.824,-62.66666 1.20267,0.6 2.39733,1.21333 3.57733,1.86666 1.20267,0.68 2.38667,1.38667 3.56,2.10667 3.79467,3.93333 6.94134,8.62667 10.128,13.04 3.872,5.36 7.21867,11 9.64,17.17333 4.10267,10.44 4.05734,21.57334 6.11334,32.46667 2.208,11.68 2.028,23.06667 -0.43734,34.70666 -1.136,5.36 -2.16266,10.34667 -4.84133,15.2 -1.53867,2.78667 -3.00133,5.53334 -5.03467,8 -1.68533,2.04 -2.72266,4.76 -4.588,6.57334 -0.009,0 -0.004,0.0133 -0.012,0.0267 -14.02533,8.01334 -31.61733,10.45334 -47.18266,11.97334 z M 726.93732,360.77342 c -2.436,-13.54666 -0.604,-27.64 4.42266,-40.37333 4.27467,-10.84 11.13733,-20.06667 19.512,-27.89333 -1.70267,3.49333 -3.64533,6.81333 -5.04533,10.50666 -2.068,5.44 -4.08,10.94667 -5.552,16.58667 -2.69467,10.32 -2.63867,21.24 -1.76667,31.8 0.87067,10.53333 2.708,21.01333 5.936,31.09333 1.56267,4.88 3.568,9.6 5.89467,14.16 1.57466,3.09333 3.308,6.37333 5.64133,9.02667 -15.056,-10.82667 -25.744,-26.58667 -29.04266,-44.90667 z m 30.51866,-19.01333 c 0.2,9.45333 3.30667,19.17333 6.51733,27.98667 2.94534,8.08 7.52,15.21333 14.19867,20.69333 6.38,5.24 14.184,8.46666 21.728,11.61333 8.96133,3.74667 18.33733,5.41333 27.96933,6.25333 10.448,0.90667 21.01467,1.50667 31.49734,1.8 5.06,0.14667 10.13733,0.0933 15.13866,-0.74666 3.032,-0.49334 7.152,-1.33334 8.904,-4.16 0.22667,-0.37334 -0.35067,-0.70667 -0.576,-0.33334 -1.78267,2.88 -6.224,3.48 -9.28933,3.98667 -4.24267,0.70667 -8.59467,0.66667 -12.88,0.61333 -10.51867,-0.13333 -21.112,-0.94666 -31.6,-1.73333 -10.41067,-0.77333 -20.33467,-2.70667 -29.98533,-6.73333 -8.828,-3.69334 -17.55867,-7.74667 -24.39067,-14.62667 -7.12933,-7.17333 -10.428,-16.98666 -13.16133,-26.48 -1.48134,-5.14666 -2.716,-10.33333 -3.25067,-15.66666 -0.53467,-5.33334 -0.18267,-10.85334 0.14667,-16.17334 1.296,-21.05333 9.292,-40.02666 25.032,-54.30666 1.60666,-1.46667 3.32,-2.8 5.072,-4.08 1.93066,-0.64 3.88266,-1.21334 5.85466,-1.70667 -1.348,0.94667 -2.54533,2.2 -3.64133,3.32 -3.076,3.16 -5.724,6.66667 -8.15467,10.33333 -5.26533,7.94667 -9.576,16.84 -13.21733,25.62667 -3.564,8.6 -5.82133,17.14667 -6.028,26.48 -0.19733,9 1.48267,18.01333 4.244,26.53333 2.51733,7.77334 6.188,14.97334 11.51067,21.2 5.30666,6.2 12.072,11.05333 19.10933,15.09333 7.56133,4.34667 15.192,7.48 23.91467,8.38667 4.696,0.49333 9.43866,0.50667 14.14933,0.76 5.02133,0.28 10.15333,0.66667 15.17733,0.64 1.87334,-0.0133 3.7,-0.38667 5.58534,-0.34667 1.99066,0.04 3.948,0.2 5.92666,-0.13333 4.38533,-0.72 8.548,-2.01333 12.808,-3.22667 0.41333,-0.12 0.23733,-0.76 -0.17733,-0.64 -4.95334,1.41334 -9.86533,3.12 -15.05333,3.42667 -2.34667,0.13333 -4.65467,-0.21333 -7.00534,0.0533 -2.10133,0.24 -4.096,0.18667 -6.2,0 -10.27866,-0.90666 -20.71466,-0.10666 -30.90666,-2.01333 -8.82934,-1.66667 -17.47334,-6.78667 -24.80934,-11.82667 -7.50533,-5.14666 -13.93866,-11.75999 -18.39733,-19.71999 -9.092,-16.22667 -11.93467,-37.65334 -6.56133,-55.48 2.976,-9.88 7.86666,-19.4 12.84533,-28.4 2.46533,-4.45334 5.27467,-8.72 8.484,-12.66667 2.21067,-2.73333 5.39467,-6.84 8.94267,-8.01333 0.816,-0.17334 1.632,-0.34667 2.45333,-0.49334 3.416,-0.62666 6.856,-1.08 10.308,-1.37333 -7.228,5.76 -13.66533,12.8 -19.56,19.90667 -5.3,6.37333 -9.73067,13.41333 -12.61867,21.21333 -5.93066,16 -6.60533,35.45333 -0.41866,51.42667 6.13866,15.85333 20.31866,27.82666 34.99733,35.57333 4.05867,2.13333 8.27333,4.13333 12.49733,5.93333 4.32,1.82667 8.836,2.38667 13.46267,2.82667 9.76933,0.92 19.36667,-0.18667 29.128,-0.16 0.676,0 1.252,-0.10667 1.836,-0.44 0.37466,-0.21334 0.0387,-0.78667 -0.33734,-0.57334 -1.164,0.65334 -2.85733,0.29334 -4.13199,0.29334 -2.44934,-0.0133 -4.93334,0.2 -7.376,0.37333 -4.67867,0.32 -9.336,0.45333 -14.02267,0.24 -4.964,-0.22667 -10.12,-0.65333 -14.91733,-1.96 -4.83067,-1.33333 -9.42534,-3.98667 -13.92,-6.16 -15.51867,-7.50667 -29.916,-19.92 -36.57334,-36.12 -6.50933,-15.84 -5.12533,-35.16 0.41867,-51.08 2.928,-8.4 8.12933,-15.82666 13.83067,-22.57333 5.524,-6.53333 11.56,-13 18.26266,-18.32 0.17467,-0.14667 0.12934,-0.33333 0,-0.45333 2.93334,-0.24 5.87334,-0.38667 8.81734,-0.42667 -2.83734,1.4 -5.27867,3.41333 -7.688,5.48 -3.63867,3.13333 -7.26667,6.26667 -10.672,9.65333 -6.128,6.09334 -10.968,13.06667 -14.06134,21.16 -6.056,15.84 -4.196,33.73334 1.61467,49.32 2.98667,8.01334 7.25067,15.53334 12.39067,22.36 2.63466,3.49334 5.59466,6.72 8.56,9.93333 3.04133,3.30667 5.90533,6.32 9.86,8.52 7.892,4.37334 17.43066,5.26667 26.10933,7.17334 4.35467,0.96 8.65733,1.45333 13.11867,1.2 2.03333,-0.10667 4.04133,-0.38667 6.07733,-0.45334 1.41867,-0.04 3.32133,0 4.62,-0.70666 0.22933,-0.13334 0.45733,-0.25334 0.68666,-0.37334 0.37734,-0.21333 0.0413,-0.78666 -0.33733,-0.58666 -2.95066,1.61333 -7.728,1.2 -11.04666,1.45333 -4.78934,0.37333 -9.456,-0.41333 -14.11867,-1.44 -8.38933,-1.84 -17.036,-2.88 -24.77333,-6.85333 -3.92267,-2.01334 -6.808,-5.18667 -9.72534,-8.4 -3.17866,-3.50667 -6.32666,-6.98667 -9.176,-10.76 -4.86666,-6.46667 -8.692,-13.70667 -11.60266,-21.24 -5.76134,-14.92 -7.21467,-31.65333 -2.308,-47 2.70933,-8.46667 7.68666,-15.65333 13.788,-22.02667 2.85466,-2.98666 5.95866,-5.72 9.09466,-8.4 3.508,-3 6.884,-6.30666 11.24,-8.02666 1.41067,-0.0133 2.82134,0.0133 4.23334,0.04 -0.0467,0.0267 -0.0933,0.04 -0.14,0.0533 -1.85734,0.81333 -3.464,2.32 -5.13334,3.44 -1.99866,1.34667 -4.032,2.61333 -5.97866,4.04 -3.44934,2.52 -6.77734,5.46667 -9.432,8.82667 -2.228,2.81333 -3.48667,6.34666 -4.67867,9.68 -1.616,4.53333 -2.89333,9.16 -3.83333,13.88 -1.832,9.18666 -2.49467,19.32 -1.604,28.64 0.82266,8.62666 4.37866,17.08 7.744,24.97333 3.068,7.2 6.97333,14.01333 12.10266,19.94667 5.30534,6.13333 11.95334,10.69333 19.6,13.35999 4.35734,1.52 8.932,2.25334 13.48,2.92 1.98,0.30667 3.968,0.49334 5.968,0.58667 2.41467,0.10667 4.81467,-0.46667 7.21334,-0.08 0.42,0.0667 0.60133,-0.57333 0.17733,-0.64 -1.70667,-0.28 -3.33733,-0.0933 -5.056,0.0267 -2.69867,0.2 -5.46,-0.16 -8.12533,-0.53334 -4.95867,-0.66666 -9.836,-1.65333 -14.56667,-3.29333 -9.38533,-3.28 -16.876,-10.28 -22.48667,-18.30666 -5.292,-7.56 -8.808,-16.32 -11.88933,-24.97334 -1.76,-4.93333 -3.116,-10.01333 -3.61467,-15.24 -0.52,-5.44 -0.0147,-11.06666 0.32,-16.52 0.63334,-10.30666 3.128,-21.05333 7.57467,-30.4 2.13067,-4.48 5.888,-7.70666 9.61467,-10.84 3.888,-3.25333 8.50266,-6.44 12.94133,-8.90666 0.16267,-0.0933 0.32267,-0.14667 0.484,-0.21334 -1.20133,0.68 -2.272,2.17334 -2.95067,2.90667 -2.768,3.02667 -5.74666,5.73333 -8.224,9.02667 -5.124,6.81333 -8.736,14.4 -10.39333,22.77333 -1.84,9.29333 -2.45867,19.56 -1.176,28.96 2.23733,16.4 8.76267,33.85333 20.4,45.94667 5.58667,5.78666 12.40267,9.38666 20.288,10.85333 2.13733,0.4 4.25867,0.69333 6.276,1.53333 0.98267,0.4 1.724,0.69333 2.72933,0.29333 2.11334,-0.85333 3.55734,-4.16 4.57734,-5.98666 4.20133,-7.53333 5.888,-16.45333 6.86666,-24.94667 1.11734,-9.68 0.31734,-19.54666 -1.48,-29.09333 -3.59466,-19.10667 -12.64533,-36.70667 -24.41066,-52.06667 -2.45867,-3.2 -4.62134,-6.89333 -7.38,-9.85333 -0.0507,-0.0533 -0.10667,-0.0933 -0.15867,-0.13333 21.33733,9.33333 33.044,32.96 37.86666,54.68 1.376,6.2 2.85467,12.49333 3.58134,18.8 0.76266,6.64 0.27466,13.37333 -0.68667,19.94666 -0.87067,5.97334 -2.12133,11.90667 -3.696,17.73334 -1.30266,4.81333 -2.808,11.21333 -7.14933,14.18666 -0.35067,0.25333 -0.0187,0.82667 0.33733,0.58667 3.46134,-2.38667 4.95734,-6.65334 6.22267,-10.48 2.088,-6.32 3.41333,-12.88 4.53733,-19.42667 1.13867,-6.62666 1.692,-13.30666 1.31467,-20.04 -0.364,-6.46666 -2.00534,-12.84 -3.32134,-19.16 -4.69999,-22.54666 -16.15466,-47.16 -38.11333,-57.16 3.992,0.26667 7.976,0.65334 11.93734,1.16 0.0267,0.04 0.036,0.08 0.0853,0.0933 2.23733,1 3.77733,2.72 5.688,4.17333 2.444,1.85333 5.11467,3.22667 7.44133,5.26667 4.448,3.90666 7.78667,9.69333 11.01733,14.6 3.43867,5.24 6.244,10.62666 7.97067,16.66666 1.59333,5.57334 2.328,11.37334 3.176,17.08 0.98133,6.61334 1.85467,13.13334 1.912,19.82667 0.0573,6.69333 -1.052,13.16 -2.128,19.73333 -0.98,5.97334 -1.70267,11.92 -4.45733,17.41333 -2.43067,4.84 -5.71067,10.34667 -10.45333,13.17334 -0.368,0.21333 -0.0333,0.78666 0.33733,0.57333 4.208,-2.50667 6.784,-6.76 9.21866,-10.86667 3.12534,-5.27999 4.52,-10.71999 5.47334,-16.74666 1.028,-6.49333 2.28533,-12.89333 2.60266,-19.49333 0.328,-6.82667 -0.29466,-13.66667 -1.34266,-20.41334 -1.00534,-6.46666 -1.81734,-12.97333 -3.39867,-19.34666 -1.52933,-6.16 -4.31733,-11.57334 -7.68267,-16.92 -3.25866,-5.17334 -6.75866,-10.65334 -11.03866,-15.05334 -1.92533,-1.97333 -4.27333,-3.50666 -6.636,-4.90666 -2.236,-1.30667 -3.89467,-3.26667 -6.05867,-4.62667 1.24667,0.17333 2.49067,0.34667 3.732,0.53333 0.0293,0.0933 0.0893,0.17334 0.20667,0.2 5.82933,1.68 10.39867,5.88 14.548,10.12 4.224,4.32 8.18933,8.93334 11.61466,13.90667 8.032,11.68 11.172,25.78667 12.692,39.66667 1.33334,12.18666 1.67867,24.96 0.45067,37.16 -1.20667,11.99999 -5.868,25.46666 -15.61867,33.26666 -0.336,0.26667 0.13867,0.73333 0.47067,0.46667 9.33067,-7.45334 13.952,-20.08 15.548,-31.50667 1.84933,-13.24 1.128,-27.4 -0.32,-40.62666 -1.54667,-14.12 -5.18,-27.90667 -13.3,-39.70667 -3.42933,-4.98667 -7.56267,-9.52 -11.78533,-13.84 -3.38133,-3.45333 -7.2,-6.76 -11.68267,-8.65333 1.77867,0.28 3.56,0.57333 5.34134,0.88 0.0227,0.0667 0.052,0.13333 0.128,0.17333 5.30133,3.01333 9.308,7.62667 13.21599,12.21333 4.26934,5.01334 8.55867,9.98667 12.42,15.32 7.62934,10.56 12.51067,22.30667 15.61067,34.90667 3.188,12.97333 3.60533,26.16 0.89467,39.24 -1.252,6.04 -3.29467,11.89333 -5.976,17.44 -1.26534,2.61333 -2.76267,5.12 -4.36667,7.53333 -1.952,2.94667 -4.92133,7.93333 -8.796,8.38667 -0.42133,0.0533 -0.42667,0.72 0,0.66666 4.84133,-0.57333 8.208,-6.85333 10.56,-10.53333 3.536,-5.56 6.04933,-11.72 7.89733,-18.01333 3.85334,-13.12 3.99867,-26.90667 1.44267,-40.26667 -2.67333,-13.97333 -7.92533,-27.09333 -16.044,-38.78666 -3.80533,-5.46667 -8.18,-10.49334 -12.492,-15.56 -3.88933,-4.57334 -7.83733,-9.22667 -12.952,-12.45334 2.88267,0.52 5.76267,1.05334 8.632,1.65334 -0.048,0.0933 -0.068,0.18666 10e-4,0.29333 2.55467,4.2 7.36534,7.38667 10.78934,10.85333 4.71066,4.77334 8.448,10.32 11.85066,16.08 6.75467,11.41334 12.32267,23.64 15.60267,36.52 3.30133,12.97334 4.04267,27.06667 2.24667,40.32 -0.86534,6.37333 -2.98134,12.57333 -5.74934,18.36 -1.312,2.74667 -2.884,5.36 -4.57066,7.89333 -1.66134,2.49334 -4.33867,6.78667 -7.71467,7.14667 -0.42267,0.04 -0.428,0.70667 0,0.66667 0.19333,-0.0267 0.38267,-0.0667 0.572,-0.10667 -2.424,1.08 -5.06933,1.68 -7.69333,2.17333 -4.90934,0.93334 -9.93467,1.54667 -14.90134,2.02667 -10.66266,1.02667 -21.39999,1.25333 -32.07733,2.14667 -10.58133,0.88 -21.80266,0.50666 -32.26266,-1.36 -9.98134,-1.77334 -18.09067,-8.21334 -26.39067,-13.58667 -8.91867,-5.78667 -15.668,-12.46667 -19.764,-22.4 -3.592,-8.72 -4.91333,-18.42666 -5.69467,-27.74666 -1.71466,-20.48 1.90667,-41.73334 11.65734,-59.93334 1.58933,-2.96 3.46133,-5.77333 5.452,-8.48 1.08133,-1.48 2.368,-3.17333 3.86133,-4.54666 4.504,-2.52 9.196,-4.69334 14.028,-6.44 -13.30533,10.41333 -22.61867,25.2 -26.47467,41.66666 -2.26533,9.66667 -2.744,19.81334 -2.53333,29.70667 z m 67.336,-74.68 c -1.208,1.50667 -2.57733,2.89333 -3.732,4.45333 -5.48667,7.41334 -8.46,16.70667 -9.968,25.72 -3.084,18.41334 1.43467,38.74667 8.716,55.68 3.63333,8.45334 7.99867,18.76 17.00533,22.65334 2.90267,1.25333 6.6,2.58666 9.736,3.22666 0.86267,0.17334 1.46134,0.0267 1.808,-0.37333 0.19067,0.2 0.47734,0.28 0.90934,0.0533 2.492,-1.28 3.80666,-4.36 4.756,-6.82666 3.21733,-8.34667 1.61066,-18.64 0.324,-27.2 -1.59334,-10.6 -3.83467,-21.09334 -5.40534,-31.70667 -1.488,-10.05333 -5.53733,-19.22667 -8.476,-28.88 -1.16933,-3.85333 -3.04,-7.36 -5.544,-10.50667 -0.10266,-0.13333 -0.21466,-0.25333 -0.31733,-0.37333 -1.12,-2.05333 -2.42,-4.01333 -3.696,-5.97333 -0.0187,-0.0267 -0.0387,-0.0667 -0.0573,-0.0933 2.472,2.32 4.51333,6.24 5.99333,8.14667 3.444,4.42667 6.33467,9.17333 9.41867,13.85333 5.60533,8.49334 9.77866,17.74667 12.78,27.46667 5.97733,19.36 7.048,41.44 -0.32267,60.6 -0.908,2.36 -4.444,11.08 -7.96933,10.10666 -4.524,-1.25333 -9.344,-1.97333 -13.784,-3.57333 -8.44667,-3.04 -15.01067,-10.02666 -19.90934,-17.29333 -10.952,-16.25333 -15.09733,-36.62667 -13.62933,-55.92 0.776,-10.18667 3.16267,-19.6 8.608,-28.32 2.39867,-3.84 5.33733,-7.32 8.47867,-10.57333 1.184,-1.22667 2.43066,-2.37334 3.58266,-3.62667 0.15067,-0.16 0.41067,-0.45333 0.716,-0.74667 -0.007,0 -0.0147,0.0133 -0.0213,0.0267 z m 5.59733,1.02667 c -0.472,-0.54667 -1.21066,-1.50667 -1.98133,-2.18667 0.62,0.0933 1.26267,0.52 1.92533,1.44 0.59867,0.84 1.124,1.72 1.676,2.58667 -0.54133,-0.61334 -1.084,-1.22667 -1.62,-1.84 z m 7.57334,16 c 1.26933,4.93333 2.68266,9.8 4.11066,14.69333 1.61067,5.52 2.04534,11.33333 2.716,17.01333 1.25334,10.6 2.66134,21.17334 3.48934,31.82667 0.39866,5.12 0.732,10.26667 0.872,15.4 0.0787,2.89333 -0.20534,5.73333 -0.708,8.58667 -0.164,0.92 -0.20934,1.41333 -0.30667,2.34666 -0.032,0.30667 -0.0653,0.54667 -0.1,0.76 -0.784,-3.28 -1.08533,-6.68 -1.66667,-10 -0.82133,-4.69333 -1.92266,-9.32 -2.84666,-13.98666 -2.01067,-10.16 -3.04534,-20.52 -4.19067,-30.81334 -1.048,-9.4 -2.05467,-18.82666 -3.64933,-28.16 -0.768,-4.50666 -1.75067,-8.96 -2.90267,-13.37333 -0.98533,-3.77333 -2.408,-7.24 -3.78933,-10.8 0.312,0.32 0.62666,0.64 0.928,0.97333 1.58133,1.76 3.12666,3.53334 4.54266,5.38667 1.612,3.2 2.624,6.74667 3.50134,10.14667 z m 10.70266,92.65333 c -0.0133,-0.0933 -0.0587,-0.13333 -0.10933,-0.17333 0.24,-0.84 0.22933,-1.66667 0.24667,-2.61334 0.044,-2.33333 0.744,-4.73333 0.93733,-7.08 0.45467,-5.49333 -0.268,-11.2 -0.61333,-16.69333 -0.67067,-10.65333 -2.08,-21.25333 -3.36534,-31.84 -0.556,-4.58667 -1.008,-9.2 -1.74266,-13.76 -0.87334,-5.44 -2.76267,-10.64 -4.216,-15.93333 -1.136,-4.13334 -2.05067,-8.28 -3.608,-12.28 1.132,1.72 2.12533,3.53333 2.89733,5.50666 1.83467,4.68 3.08667,9.61334 4.84533,14.34667 3.72667,10.01333 4.644,20.33333 6.54,30.77333 1.976,10.88 4.444,21.68 4.528,32.78667 0.036,4.97333 -0.544,9.90667 -2.82666,14.37333 -0.84934,1.66667 -1.96267,3.16 -3.54934,3.73334 0.0893,-0.32 0.10934,-0.70667 0.036,-1.14667 z M 826.70265,266.37342 c -0.71334,1.38667 -1.73734,2.61334 -2.49734,3.96 -1.332,2.34667 -2.33866,4.93334 -3.33333,7.44 -1.99333,5.04 -3.20667,10.30667 -3.844,15.66667 -1.34133,11.32 -1.10667,22.81333 0.70667,34.06667 3.15866,19.58666 11.764,39.4 29.74533,49.33333 0.076,0.14667 0.15333,0.29333 0.24667,0.44 0.0627,0.10667 0.18266,0.16 0.29866,0.16 0.0187,0.21333 0.0613,0.42667 0.128,0.62667 -0.59066,0.13333 -1.24266,0.14666 -1.97066,0 -1.24,-0.26667 -2.42134,-0.85334 -3.592,-1.32 -4.564,-1.81334 -8.44934,-2.66667 -11.996,-6.37334 -3.344,-3.49333 -5.60534,-7.96 -7.70934,-12.25333 -4.62266,-9.45333 -7.88933,-19.53333 -9.944,-29.84 -3.988,-20 -2.876,-43.88 11.516,-59.73333 0.68267,-0.76 1.43734,-1.62667 2.24534,-2.17334 z m 15.80266,96.08 c -2.45733,-5.14666 -4.33466,-10.28 -5.92266,-15.74666 -2.97734,-10.26667 -5.048,-20.88 -6.81734,-31.41334 -1.83733,-10.93333 -2.82266,-22 -2.95466,-33.09333 -0.0613,-5.21333 -0.0587,-10.68 0.83866,-15.84 0.016,0.0133 0.0307,0.0267 0.0453,0.04 0.096,1.09333 2.02266,4.37333 2.30666,5.08 1.07067,2.65333 1.728,5.53333 2.45067,8.29333 4.96267,19.01334 5.71867,38.89334 8.38533,58.30667 1.36134,9.88 3.71067,19.54667 5.324,29.38667 0.24934,1.53333 0.46,3.06666 0.69334,4.58666 -1.02267,-3.29333 -2.93734,-6.64 -4.34934,-9.6 z m -15.91866,-68.84 c 0.60533,9.90667 2.04266,19.70667 3.89733,29.45334 1.924,10.10666 4.212,20.13333 7.31467,29.93333 1.312,4.16 3.29866,7.96 5.12133,11.89333 1.13333,2.45334 2.22133,4.94667 3.212,7.45334 0.452,1.14666 0.58933,2.4 0.964,3.56 -0.72667,-0.41334 -1.44133,-0.84 -2.15067,-1.26667 -3.56133,-2.18667 -6.73733,-4.92 -9.58666,-7.94667 -12.432,-13.25333 -17.12,-33.37333 -18.28934,-50.96 -0.61466,-9.22666 -0.28533,-18.84 1.508,-27.93333 0.95467,-4.84 2.67867,-9.50667 4.69334,-14 0.88666,-1.97333 2.32666,-3.88 3.42933,-5.84 -1.38267,8.32 -0.61733,17.41333 -0.11333,25.65333 z m 51.27199,-18.68 c 2.35067,1.82667 4.36134,4.08 6.24934,6.37334 4.15466,5.04 7.852,10.64 11.516,16.04 7.42933,10.96 11.31333,24.17333 14.53866,36.89333 3.22934,12.73333 5.52267,25.78667 5.34934,38.96 -0.088,6.76 -1.04667,13.46666 -2.82934,19.97333 -0.98133,3.58667 -2.248,6.89333 -4.55066,9.84 -1.28934,1.65333 -2.856,3.62667 -4.54667,5.21333 -2.80267,1.24 -5.97467,1.92 -8.776,2.81334 -4.84533,1.53333 -9.90533,2.45333 -14.89867,3.37333 -4.83866,0.88 -9.74,1.28 -14.58533,2.12 -5.68533,0.98667 -11.28533,2.33333 -17.03333,2.92 -10.46,1.05333 -21.41067,0.56 -31.91067,0.26667 -10.53733,-0.28 -20.32266,-2.24 -30.27066,-5.61334 -8.74134,-2.97333 -17.30667,-6.57333 -23.504,-13.65333 -6.248,-7.14667 -9.72,-16.53333 -12.78,-25.36 -3.36934,-9.73333 -5.58534,-19.77333 -5.48934,-30.10666 0.1,-10.66667 2.676,-21.28 5.52934,-31.48 1.724,-6.17334 3.628,-12.26667 6.22133,-18.13334 1.11867,-2.53333 2.484,-4.93333 3.73867,-7.38666 0.93066,-1.82667 1.88,-3.77334 3.27066,-5.32 2.21467,-1.53334 4.48534,-3.01334 6.81334,-4.38667 -2.27067,2.64 -4.12934,5.84 -5.64,8.26667 -4.93334,7.89333 -8.108,16.88 -10.47867,25.84 -4.79333,18.12 -4.41067,37.86666 -0.17333,56.05333 1.89333,8.13333 5.23733,15.92 10.71866,22.26666 5.824,6.76 14.46,11.32 21.85334,16.10667 7.936,5.13333 15.77066,7.57333 25.15866,8.4 10.744,0.94667 21.208,0.46667 31.93067,-0.34667 10.29067,-0.77333 20.616,-0.82666 30.85733,-2.21333 6.97733,-0.94667 15.24667,-1.41333 20.77467,-6.28 0.32133,-0.28 -0.14134,-0.74667 -0.46267,-0.48 1.67467,-1.74667 3.03067,-4 4.14667,-5.66667 3.61466,-5.42666 6.24666,-11.49333 8.088,-17.73333 3.77733,-12.8 3.11466,-27.22666 1.08133,-40.28 -2.18,-13.97333 -7.68667,-27.21333 -14.36933,-39.6 -3.21467,-5.94666 -6.72934,-11.74666 -10.97867,-17.01333 -2.188,-2.72 -4.64133,-5.2 -7.19467,-7.57333 -2.38933,-2.21334 -5.52133,-4.57334 -7.29733,-7.37334 2.22533,0.48 4.44133,0.97334 6.64533,1.52 0.43467,1.33334 2.28534,1.97334 3.288,2.76 z m 71.02134,87 c -0.69067,7.10667 -2.56534,14.13334 -5.44667,20.70667 0.864,-4.58667 0.61467,-9.50667 0.556,-14.09333 -0.092,-7.01334 -0.77333,-14.02667 -1.54,-20.98667 -0.66133,-6.01333 -1.37333,-12.01333 -2.28267,-17.98667 -0.73466,-4.82666 -1.31466,-9.98666 -2.98133,-14.66666 0.332,0.53333 0.66933,1.05333 0.992,1.57333 8.272,13.61333 12.24533,29.57333 10.70267,45.45333 z m -13.13867,-50.45333 c -3.47867,-5.09333 -7.51067,-9.78667 -11.95333,-14.05333 -0.28267,-0.36 -0.57334,-0.70667 -0.876,-1.02667 -0.088,-0.0933 -0.188,-0.10667 -0.28267,-0.08 -4.712,-4.37333 -9.872,-8.28 -15.328,-11.68 -0.404,-0.41333 -0.80533,-0.84 -1.22267,-1.24 -0.20933,-0.2 -0.47466,-0.04 -0.54133,0.17333 -1.20533,-0.72 -2.42,-1.42666 -3.652,-2.09333 -1.18667,-0.65333 -2.392,-1.25333 -3.60533,-1.84 -0.18134,-0.18667 -0.352,-0.38667 -0.53467,-0.57333 -0.17733,-0.17334 -0.39467,-0.08 -0.49867,0.08 -3.66533,-1.70667 -7.43866,-3.2 -11.292,-4.48 -0.90533,-0.57334 -1.87733,-1 -2.944,-1.02667 -0.056,0 -0.0827,0.0267 -0.124,0.0533 -10.83866,-3.30666 -22.18266,-5.24 -33.22799,-6.98666 -6.57734,-1.01334 -13.30267,-1.78667 -20.06,-2.17334 -0.168,-0.08 -0.33067,-0.14666 -0.5,-0.21333 -0.17867,-0.08 -0.30134,0.0267 -0.35867,0.16 -0.248,-0.0133 -0.496,-0.0267 -0.744,-0.04 -0.0587,0 -0.11867,-0.0133 -0.17867,-0.0133 -10.136,-0.46667 -20.32266,0 -30.17733,2.06666 -0.02,0 -0.032,-0.0133 -0.052,-0.0133 -0.088,0.0267 -0.17067,0.0533 -0.25733,0.08 -2.46667,0.52 -4.91334,1.14667 -7.33334,1.88 -0.20266,0.0667 -0.404,0.13333 -0.60666,0.2 -0.08,-0.16 -0.25467,-0.25333 -0.43734,-0.12 -0.21066,0.14667 -0.412,0.30667 -0.62133,0.46667 -3.86667,1.26666 -7.704,2.81333 -11.46267,4.62666 -0.0213,0 -0.036,-0.0267 -0.0587,-0.0133 -1.74,0.33333 -3.32267,1.26667 -4.76267,2.50667 -2.58,1.41333 -5.11067,2.94666 -7.572,4.58666 -0.06,-0.0133 -0.124,0 -0.18933,0.04 -0.252,0.18667 -0.48667,0.37334 -0.716,0.57334 -3.94534,2.68 -7.70534,5.61333 -11.21334,8.76 -0.14266,-0.08 -0.328,-0.0667 -0.41333,0.12 -0.06,0.14666 -0.12533,0.28 -0.18667,0.41333 -2.84533,2.6 -5.52533,5.30667 -7.98133,8.12 -22.35866,25.68 -25.072,65.18667 -4.00533,92.38666 23.048,29.74667 62.56133,35.6 97.796,35.30667 19.95333,-0.16 40.17199,-1.10667 59.61866,-5.88 8.556,-2.10667 16.94533,-4.92 24.332,-9.8 5.22133,-3.45333 9.72533,-7.89333 13.57867,-12.81333 0.0787,-0.0267 0.15333,-0.0667 0.20266,-0.12 0.17467,-0.24 0.32267,-0.48 0.468,-0.73334 0.528,-0.69333 1.04667,-1.4 1.55067,-2.10666 17.88133,-25.34667 15.47733,-58.52 -1.576,-83.48" style="fill:#577c69;fill-opacity:1;fill-rule:nonzero;stroke:none;stroke-width:0.133333"/></g></svg>