<svg version="1.1" id="svg1" width="2000" height="2579.9468" viewBox="1101.1617049722086 604.8008023816919 6.956226826146576 13.849883134540619" sodipodi:docname="styletrees.svg" inkscape:version="1.4.2 (f4327f4, 2025-05-13)" xmlns:inkscape="http://www.inkscape.org/namespaces/inkscape" xmlns:sodipodi="http://sodipodi.sourceforge.net/DTD/sodipodi-0.dtd" xmlns="http://www.w3.org/2000/svg" xmlns:svg="http://www.w3.org/2000/svg"><defs id="defs1"/><g><path id="path968" d="m 1102.1746,608.97342 c 0.5614,3.09333 1.104,6.18666 2.0707,9.2 0.272,0.84 1.6053,0.48 1.332,-0.37334 -0.9667,-3 -1.5107,-6.09333 -2.0707,-9.2 -0.1586,-0.86666 -1.4893,-0.50666 -1.332,0.37334 v 0" style="fill:#577c69;fill-opacity:1;fill-rule:nonzero;stroke:none;stroke-width:0.133333"/><path id="path969" d="m 1104.936,606.66675 c 0.5653,3.38667 1.3053,6.73333 1.8413,10.12 0.1387,0.88 1.468,0.50667 1.3307,-0.36 -0.5347,-3.38667 -1.276,-6.74667 -1.84,-10.13333 -0.1467,-0.86667 -1.4774,-0.49334 -1.332,0.37333 v 0" style="fill:#577c69;fill-opacity:1;fill-rule:nonzero;stroke:none;stroke-width:0.133333"/><path id="path968" d="m 1102.1746,608.97342 c 0.5614,3.09333 1.104,6.18666 2.0707,9.2 0.272,0.84 1.6053,0.48 1.332,-0.37334 -0.9667,-3 -1.5107,-6.09333 -2.0707,-9.2 -0.1586,-0.86666 -1.4893,-0.50666 -1.332,0.37334 v 0" style="fill:#577c69;fill-opacity:1;fill-rule:nonzero;stroke:none;stroke-width:0.133333"/><path id="path969" d="m 1104.936,606.66675 c 0.5653,3.38667 1.3053,6.73333 1.8413,10.12 0.1387,0.88 1.468,0.50667 1.3307,-0.36 -0.5347,-3.38667 -1.276,-6.74667 -1.84,-10.13333 -0.1467,-0.86667 -1.4774,-0.49334 -1.332,0.37333 v 0" style="fill:#577c69;fill-opacity:1;fill-rule:nonzero;stroke:none;stroke-width:0.133333"/></g></svg>