<svg version="1.1" id="svg1" width="2000" height="2579.9468" viewBox="76.33863360707974 2167.9909125837435 161.86081580307072 94.06058635052386" sodipodi:docname="styletrees.svg" inkscape:version="1.4.2 (f4327f4, 2025-05-13)" xmlns:inkscape="http://www.inkscape.org/namespaces/inkscape" xmlns:sodipodi="http://sodipodi.sourceforge.net/DTD/sodipodi-0.dtd" xmlns="http://www.w3.org/2000/svg" xmlns:svg="http://www.w3.org/2000/svg"><defs id="defs1"/><g><path id="path1325" d="m 79.297865,2244.3334 c 8.486533,-0.32 16.925066,-1.1334 25.281865,-2.4 -0.85467,1.3866 -1.75427,2.72 -2.6808,4.04 -4.203066,1.5733 -8.224399,3.6266 -12.631732,4.6133 -0.835467,0.1867 -0.4812,1.4667 0.352133,1.28 3.783333,-0.8533 7.278,-2.48 10.848929,-3.92 -2.894796,3.8667 -6.112529,7.4667 -9.691196,10.8133 -1.262,1.1734 0.655734,3.04 1.9104,1.8667 3.241734,-3.0267 6.198534,-6.2667 8.892796,-9.7067 0.48427,3.4134 -0.14013,6.8934 -0.61626,10.2934 -0.11667,0.84 1.16146,1.2 1.2792,0.36 0.55986,-4.0134 1.29893,-8.0934 0.4188,-12.08 1.93173,-2.5867 3.72133,-5.28 5.3672,-8.1067 10.20933,-1.7067 20.28386,-4.1067 30.14946,-7.16 -0.832,1.84 -1.69333,3.6667 -2.58133,5.48 -3.8812,2.12 -7.23173,5.0667 -11.1124,7.1867 -0.75053,0.4133 -0.0808,1.56 0.66973,1.1466 3.2896,-1.8 6.1984,-4.2 9.37067,-6.1733 -2.4456,4.84 -5.09827,9.56 -7.9696,14.1867 -0.91613,1.4666 1.40627,2.7733 2.31507,1.32 2.87093,-4.6267 5.52253,-9.3467 7.97186,-14.1734 -0.188,3.7467 -0.592,7.4667 -1.38666,11.16 -0.17867,0.84 1.1,1.1867 1.28,0.36 1.02266,-4.7733 1.432,-9.5733 1.54133,-14.4266 1.144,-2.36 2.23867,-4.7467 3.284,-7.1467 10.55733,-3.4533 20.86533,-7.6667 30.82933,-12.6 -0.616,1.4133 -1.26533,2.8133 -1.94133,4.2 -0.18,-0.04 -0.37467,0 -0.55067,0.1333 -4.10533,3.2534 -8.38266,6.28 -13.132,8.52 -0.77333,0.3734 -0.1,1.5067 0.66934,1.1467 4.26666,-2.0133 8.14666,-4.6533 11.872,-7.5333 -2.372,4.5733 -5.06934,8.96 -8.12,13.1866 -1.012,1.4 1.31866,2.7067 2.316,1.32 2.772,-3.84 5.24666,-7.8133 7.45466,-11.9333 -0.61466,3.1733 -1.43733,6.32 -1.89466,9.52 -0.11867,0.84 1.15866,1.2 1.28,0.3467 0.652,-4.5734 2.02,-9.0134 2.52933,-13.6 1.136,-2.3467 2.184,-4.7334 3.15867,-7.16 7.80933,-4.04 15.396,-8.5334 22.72,-13.44 -0.55734,2.5333 -1.17867,5.04 -1.86134,7.5333 -0.688,1.0933 -1.30133,2.24 -1.96933,3.32 -1.62,2.6 -3.40133,5.08 -5.34533,7.4533 -0.53734,0.6534 0.39466,1.6 0.93866,0.9334 1.62134,-1.9734 3.12267,-4.0267 4.54,-6.1467 0.14,-0.2133 0.27467,-0.4267 0.40934,-0.6533 -1.292,4.16 -2.75734,8.28 -4.41867,12.3333 -0.64933,1.6 1.66,2.92 2.316,1.32 2.58267,-6.3067 4.73067,-12.7333 6.46667,-19.2667 0.148,4.68 0.47199,9.36 -0.472,13.9867 -0.17067,0.8267 1.10799,1.1867 1.27866,0.3467 1.132,-5.5467 0.51867,-11.1467 0.46533,-16.76 -0.003,-0.3467 -0.232,-0.5467 -0.49733,-0.6134 0.48267,-1.9733 0.924,-3.96 1.32933,-5.96 9.132,-6.3466 17.82667,-13.36 26.004,-21.0133 0.10134,0.04 0.20667,0.053 0.316,0.067 -1.664,5.72 -3.47466,11.4 -5.432,17.0133 -2.252,0.5467 -4.14666,3.0267 -5.52533,4.5867 -2.75733,3.1333 -6.132,5.7466 -8.58667,9.12 -0.50266,0.6933 0.64934,1.36 1.14667,0.68 2.04533,-2.8267 4.88267,-4.8534 7.16267,-7.4534 1.25866,-1.44 3.156,-4.2933 5.23733,-5.32 -2.74667,7.76 -5.76667,15.4134 -9.08933,22.96 -0.69467,1.5734 1.616,2.9067 2.31466,1.32 3.292,-7.48 6.30667,-15.0533 9.05067,-22.7333 0.68533,6.52 -0.30133,13.0933 -1.296,19.56 -0.12933,0.8267 1.14933,1.1867 1.27867,0.3467 1.15333,-7.48 2.252,-15.08 0.96,-22.6134 2.13466,-6.1333 4.09733,-12.3333 5.88133,-18.6 0,-0.013 -0.001,-0.027 -0.001,-0.04 1.592,-0.8266 3.032,-1.9066 4.27066,-3.28 1.244,-1.3866 3.752,-4.64 1.93734,-6.4533 -1.892,-1.8933 -5.136,0.28 -6.69734,1.5333 -1.55733,1.24 -2.76666,2.8934 -3.828,4.6134 -0.716,0.6933 -1.42933,1.3866 -2.15466,2.0533 -2.61867,0.52 -5.25067,0.84 -7.81067,0.72 -2.01333,-3.4133 -3.82133,-6.8533 -4.93867,-10.6933 -0.23866,-0.8134 -1.51866,-0.4667 -1.28,0.36 1.06134,3.64 2.71334,6.9466 4.59067,10.2 -3.18,-0.4 -6.212,-1.5867 -8.908,-4.1067 -1.25867,-1.1867 -3.104,0.76 -1.84133,1.9333 2.74133,2.56 5.776,3.9467 8.964,4.56 -3.028,1.16 -6.47067,1.2267 -9.68267,1.16 -0.856,-0.013 -0.85467,1.32 0,1.3334 4.04533,0.067 8.492,-0.093 12.06933,-2.16 1.748,0.1466 3.532,0.093 5.32934,-0.093 -5.88267,5.2534 -12.028,10.1734 -18.39067,14.76 0.008,-0.04 0.016,-0.093 0.024,-0.1333 0.12933,-0.8 -0.38667,-1.7733 -1.30933,-1.68 -2.47333,0.2533 -5.044,0.4933 -7.52933,0.3867 -2.6,-2.7067 -5.31467,-5.1334 -6.57867,-8.8267 -0.276,-0.8 -1.55733,-0.4533 -1.27867,0.3467 1.176,3.44 3.46134,5.84 5.86,8.3066 -3.66933,-0.4666 -7.02266,-1.9333 -9.40533,-5.5866 -0.944,-1.44 -3.216,-0.04 -2.26667,1.4133 2.58267,3.9467 6.132,5.8 10.08534,6.56 -2.832,0.88 -5.904,1.08 -8.764,0.44 -0.83334,-0.1867 -1.188,1.0933 -0.35334,1.28 3.93734,0.88 8.23067,0.3467 11.9,-1.36 2.19734,0.16 4.47334,0.08 6.744,-0.12 -0.0693,0.4 -0.14933,0.7867 -0.22133,1.1867 -7.82,5.44 -15.96667,10.3866 -24.37333,14.8 -2.55867,-0.2 -5.032,-0.6134 -7.43867,-1.2134 -2.57867,-2.36 -4.704,-5.2933 -5.25067,-8.8 -0.132,-0.8533 -1.41066,-0.4933 -1.28,0.3467 0.45867,2.9467 1.98667,5.5333 3.96267,7.7467 -4.94,-1.5467 -9.564,-3.9467 -13.89733,-7.2134 -1.37467,-1.04 -2.65067,1.3334 -1.296,2.3467 4.204,3.1733 8.67733,5.5067 13.42533,7.0933 -5.38,0.4667 -10.71733,1.5067 -16.148,1.12 -0.85467,-0.053 -0.848,1.2667 0,1.3334 6.75067,0.48 13.36,-1.24 20.084,-1.32 1.19333,0.2933 2.40933,0.52 3.63867,0.72 -8.968,4.48 -18.21867,8.36 -27.68534,11.6266 0.13734,-0.3466 0.28267,-0.68 0.41867,-1.0266 0.368,-0.9334 -0.0827,-2 -1.18133,-2.0134 -3.44667,-0.013 -6.912,-0.2266 -10.26494,-0.8 -0.5728,-1.3066 -1.92853,-2.2933 -2.97853,-3.1466 -1.56773,-1.2667 -3.24013,-2.3867 -4.912,-3.5067 -0.71413,-0.48 -1.37707,0.6667 -0.66987,1.1467 1.3032,0.8666 2.59587,1.76 3.8532,2.6933 0.83694,0.6267 2.16254,1.48 2.9692,2.4667 -5.61093,-1.2134 -10.8208,-3.6267 -14.94426,-8.24 -1.15307,-1.28 -2.98747,0.6666 -1.8416,1.9466 3.57813,4 7.95306,6.48 12.70626,7.9867 -1.81093,0.3467 -3.64173,0.5733 -5.50373,0.5333 -0.85573,-0.027 -0.8536,1.3067 0,1.32 2.7928,0.067 5.52667,-0.44 8.22093,-1.1066 3.69627,0.88 7.564,1.2666 11.428,1.3733 -0.20266,0.4933 -0.416,0.9867 -0.62266,1.48 -10.42774,3.4133 -21.10334,6.0667 -31.9392,7.9333 -3.64694,-1.08 -7.224,-2.32 -10.741736,-3.6933 0.0328,-0.2267 -0.05253,-0.4533 -0.3312,-0.5867 -1.819866,-0.8533 -3.404666,-3.5466 -4.743733,-5.0133 -2.639067,-2.8667 -5.450533,-5.5733 -8.388533,-8.1467 -0.6412,-0.56 -1.583333,0.3734 -0.938133,0.9334 2.941733,2.5733 5.724533,5.3066 8.388133,8.16 0.854666,0.92 1.734266,2.2 2.710933,3.3066 -3.9688,-1.68 -7.862533,-3.5466 -11.6824,-5.6133 -1.510933,-0.8267 -2.806133,1.5333 -1.2968,2.3467 3.193734,1.7333 6.438533,3.32 9.7328,4.7866 -3.863067,0.68 -7.622933,1.9467 -11.584933,2.0267 -0.854133,0.013 -0.855733,1.3467 0,1.32 4.7604,-0.08 9.219333,-1.88 13.9172,-2.3333 2.9756,1.2533 5.9948,2.4 9.058932,3.44 -7.688666,1.1066 -15.445332,1.8266 -23.243865,2.12 -2.561867,0.093 -2.493734,4.1466 0.0724,4.04" style="fill:#577c69;fill-opacity:1;fill-rule:nonzero;stroke:none;stroke-width:0.133333"/></g></svg>