<svg version="1.1" id="svg1" width="2000" height="2579.9468" viewBox="241.50040857932984 2087.386699999999 211.12394687765718 281.360142749681" sodipodi:docname="styletrees.svg" inkscape:version="1.4.2 (f4327f4, 2025-05-13)" xmlns:inkscape="http://www.inkscape.org/namespaces/inkscape" xmlns:sodipodi="http://sodipodi.sourceforge.net/DTD/sodipodi-0.dtd" xmlns="http://www.w3.org/2000/svg" xmlns:svg="http://www.w3.org/2000/svg"><defs id="defs1"/><g><path id="path1322" d="m 295.62133,2145.9467 c -0.11867,0.053 -0.21334,0.12 -0.26267,0.2267 -0.02,-0.2134 -0.0173,-0.4267 -0.0267,-0.64 0.0947,0.1333 0.19334,0.28 0.28934,0.4133 z m 65.60133,8.5333 c -3.796,-0.3733 -7.57467,-0.52 -11.34667,-0.4533 3.81467,-3.1467 8.70533,-4.48 13.58,-5.2 0.844,-0.12 0.484,-1.4 -0.352,-1.28 -5.59467,0.8267 -11.17333,2.5067 -15.276,6.56 -2.98267,0.12 -5.964,0.3867 -8.948,0.8 -8.98,-3.88 -17.78933,-8.1867 -26.39866,-12.9467 -3.73867,-2.0666 -7.42267,-4.24 -11.06267,-6.48 4.47467,1.2 8.956,2.2267 13.50267,2.5334 5.972,2 11.54933,5.2133 17.67066,6.84 0.828,0.2133 1.17867,-1.0667 0.352,-1.28 -4.87066,-1.2934 -9.396,-3.6 -14.052,-5.4934 2.156,-0.067 4.33067,-0.3333 6.53067,-0.8533 1.66533,-0.4 0.91067,-2.9867 -0.75067,-2.5867 -3.356,0.8 -6.66933,0.9467 -9.956,0.7067 3.748,-0.52 7.62,-2.5067 10.932,-3.4267 0.82267,-0.24 0.472,-1.52 -0.35333,-1.28 -4.556,1.2667 -10.476,4.8134 -15.23467,2.9734 -0.65866,-0.2534 -0.996,0.5733 -0.656,1.04 -5.26933,-0.9734 -10.48133,-2.6667 -15.692,-4.0934 -6.48266,-4.28 -12.80266,-8.8266 -18.94933,-13.5866 -5.752,-4.4667 -11.29067,-9.2 -16.7,-14.08 -3.656,-3.2934 -8.81867,-7.2534 -12.34667,-11.84 0.87867,-0.4534 1.02934,-2.0667 -0.21733,-2.4934 -0.61333,-0.2133 -1.07333,-0.1333 -1.436,0.1067 -0.0547,-0.093 -0.12533,-0.1867 -0.17867,-0.28 -0.007,0.1333 -0.009,0.2667 -0.0147,0.4 -0.61734,0.56 -0.852,1.6533 -0.89734,2.52 -0.0813,1.56 0.0907,3.2267 1.068,4.5067 0.34534,0.4533 0.92667,0.7466 1.46267,0.64 0.1,0.1066 0.188,0.2 0.28933,0.3066 2.78134,2.84 5.66267,5.5734 8.60267,8.2534 3.34533,6.7733 6.64133,13.5733 9.924,20.3733 0.57867,5.6133 1.81467,11.12 2.80533,16.68 0.14934,0.84 1.428,0.48 1.27867,-0.36 -0.74533,-4.1867 -1.632,-8.3467 -2.264,-12.5467 2.30133,4.7734 4.6,9.56 6.91067,14.3334 0.75466,1.56 3.01733,0.1466 2.26533,-1.4134 -2.108,-4.3466 -4.20533,-8.7066 -6.30667,-13.0666 3.86934,4.6133 8.26667,8.76 12.548,13.0133 0.60667,0.6 1.54534,-0.3333 0.93734,-0.9467 -5.40667,-5.36 -11.044,-10.5333 -15.484,-16.7733 -0.108,-0.1467 -0.25067,-0.2267 -0.39734,-0.2667 -2.32266,-4.8133 -4.67333,-9.6133 -7.02266,-14.4266 1.30533,1.1466 2.616,2.2666 3.932,3.3866 7.68666,6.5334 15.73733,12.6 24.06,18.2667 -0.344,0.4 -0.48667,0.96 -0.15334,1.5467 2.17334,3.8133 4.476,7.5333 6.884,11.1733 -0.19066,0.093 -0.34,0.28 -0.348,0.5467 -0.15333,5.1733 2.71467,9.7066 4.33467,14.44 0.276,0.8133 1.55733,0.4666 1.28,-0.3467 -1.328,-3.88 -3.54267,-7.6533 -4.12933,-11.7467 0.144,0.2 0.38,0.3334 0.68133,0.2934 0.10133,-0.013 0.21067,-0.027 0.31867,-0.027 4.156,6.04 8.62933,11.8267 13.43866,17.3867 1.132,1.3066 2.964,-0.64 1.84134,-1.9334 -3.828,-4.4266 -7.428,-9.0133 -10.82534,-13.7333 1.464,0.8533 2.872,1.7733 3.83867,2.2133 4.144,1.8267 8.49733,3.12 12.924,4.0534 0.83467,0.1733 1.18933,-1.1067 0.35333,-1.28 -5.31333,-1.12 -10.80533,-2.6934 -15.58133,-5.3334 -0.90133,-0.5066 -1.94267,-1.2 -3.03333,-1.76 -3,-4.2933 -5.824,-8.72 -8.48667,-13.2666 3.97067,2.64 7.992,5.1866 12.068,7.64 10.19067,6.1333 20.76533,11.5866 31.62266,16.4 3.30934,4.3733 6.80667,8.5733 10.49467,12.6 1.27867,2.6 2.28133,5.3733 3.67333,7.9066 0.412,0.7467 1.55734,0.08 1.14534,-0.6666 -0.75067,-1.3734 -1.39067,-2.8 -2.02267,-4.2267 2.08933,2.1867 4.22267,4.32 6.43067,6.3867 1.25733,1.1733 3.10133,-0.76 1.84133,-1.9334 -5.94667,-5.5733 -11.45867,-11.5466 -16.548,-17.9066 9.424,3.96 19.052,7.4266 28.824,10.4 2.76133,2.52 5.26933,5.2666 7.616,8.16 -0.31867,0.3733 -0.15867,1.12 0.48267,1.1066 0.136,0 0.26933,0.013 0.40533,0.013 2.30267,2.9066 4.484,5.92 6.64933,8.9466 0.49334,0.6934 1.64534,0.027 1.14534,-0.6666 -1.98534,-2.7734 -3.98,-5.5467 -6.06934,-8.2267 6.01067,0.32 11.84534,2.2133 17.592,3.8933 0.82267,0.24 1.172,-1.04 0.352,-1.28 -6.20266,-1.8133 -12.50666,-3.84 -19.016,-3.9733 -1.988,-2.4933 -4.08133,-4.88 -6.34266,-7.1333 7.58266,2.2266 15.24666,4.1466 22.968,5.7733 2.50933,0.52 3.50133,-3.4 0.988,-3.92 -17.572,-3.68 -34.70267,-8.96 -51.264,-15.7467 4.58666,-0.3866 9.17333,-0.4266 13.77866,-0.1466 5.91467,1.32 11.78,2.8666 17.81867,3.56 0.848,0.1066 0.83867,-1.2267 0,-1.32 -4.46533,-0.52 -8.836,-1.5067 -13.20133,-2.5334 0.38933,-0.7466 0.0107,-2.0133 -1.128,-2.12" style="fill:#577c69;fill-opacity:1;fill-rule:nonzero;stroke:none;stroke-width:0.133333"/><path id="path1323" d="m 253.28933,2194.9467 c 0.20533,2.5467 2.25333,5.24 3.32133,7.4533 3.80933,7.9067 8.07733,15.5867 12.592,23.0934 0.89067,1.4933 3.16,0.093 2.26667,-1.4 -2.876,-4.7867 -5.62534,-9.6267 -8.25867,-14.56 -0.33333,-0.6134 -1.34533,-2.3067 -2.51467,-4.3467 6.66,8.48 14.09867,16.1867 22.16,23.16 4.41067,6.32 9.41734,12.0667 14.99867,17.2267 2.51067,4.7866 4.97733,9.6 7.476,14.3866 0.396,0.76 1.54133,0.093 1.14533,-0.6666 -1.94133,-3.7334 -3.868,-7.4667 -5.80533,-11.1867 2.30267,1.9867 4.69467,3.8667 7.176,5.6667 1.396,1 2.676,-1.36 1.29733,-2.36 -6.31866,-4.56 -12.02666,-9.8 -17.12,-15.64 9.62667,7.3066 19.96534,13.7466 30.81467,19.3466 4.728,5.2934 9.71867,10.28 14.988,14.9467 0.0507,0.2 0.172,0.3867 0.40266,0.48 0.124,0.053 0.236,0.12 0.35734,0.1733 1.73466,1.52 3.50133,3 5.29333,4.4534 2.45467,3.04 4.44533,6.68 7.32267,9.1333 0.648,0.5467 1.592,-0.3867 0.93866,-0.9467 -1.74266,-1.48 -3.16133,-3.3333 -4.54266,-5.24 2.97466,2.2934 6.01466,4.5067 9.136,6.6134 1.42933,0.9733 2.71066,-1.4 1.29733,-2.3467 -4.59467,-3.1067 -9.01067,-6.4267 -13.27333,-9.9333 3.49733,1.16 7.02666,2.28 10.33733,3.88 0.76667,0.3733 1.44,-0.7734 0.66933,-1.1467 -2.42,-1.16 -4.91866,-2.0667 -7.47333,-2.9067 -1.048,-0.3466 -3.70267,-0.8666 -5.75733,-1.68 -4.50267,-3.8133 -8.816,-7.8533 -12.93733,-12.12 12.47333,5.96 25.52399,10.9067 38.82133,14.9867 4.82133,4.56 9.73333,9.0133 14.75733,13.3333 -0.0147,0.16 0.04,0.3334 0.19733,0.4934 5.36934,5.1733 8.39467,12.12 12.168,18.44 0.43867,0.7333 1.58534,0.067 1.14534,-0.68 -2.74667,-4.5867 -5.124,-9.4934 -8.24934,-13.8534 4.97067,4.1334 10.008,8.1867 15.16934,12.08 1.372,1.04 2.64933,-1.3333 1.296,-2.3466 -4.38934,-3.32 -8.68267,-6.76 -12.93067,-10.2534 0.77733,0.24 1.552,0.48 2.31333,0.76 3.244,1.1734 6.46134,2.3334 9.83334,3.0934 0.83333,0.1866 1.18666,-1.0934 0.352,-1.28 -2.99734,-0.6667 -5.876,-1.6534 -8.75867,-2.7067 -2.05733,-0.7467 -4.19333,-1.32 -6.28933,-1.9733 -5.19067,-4.3467 -10.28,-8.8 -15.25867,-13.3867 12.58133,3.6 25.33867,6.4533 38.00533,8.6533 2.68934,1.8134 5.41334,3.56 8.17467,5.24 -0.0373,0.2267 0.0427,0.48 0.30933,0.64 7.36134,4.2667 11.55734,12.36 16.78,18.8 0.54,0.6534 1.472,-0.28 0.93867,-0.9466 -3.86667,-4.76 -7.19333,-10.3734 -11.61067,-14.7467 4.57734,2.56 9.24934,4.96 14.028,7.1733 1.54134,0.72 2.89067,-1.5733 1.33867,-2.2933 -8.13867,-3.7733 -15.98,-8.0533 -23.54133,-12.84 1.21333,0.013 2.00933,-0.9867 2.12133,-2 6.25333,-0.6133 12.224,-2.8267 17.56133,-6.6533 1.37734,-0.9867 0.056,-3.28 -1.33866,-2.28 -4.20934,3.0133 -8.83867,5.0133 -13.70134,5.92 4.27334,-2.2667 7.80267,-6.0267 12.02267,-8.3867 0.748,-0.4133 0.0787,-1.56 -0.66933,-1.1333 -5.47067,3.04 -9.75734,8.5733 -16.092,9.88 -0.15734,0.027 -0.26134,0.1066 -0.33867,0.2 -0.672,0.027 -1.34933,0.013 -2.02667,0 -9.10666,-1.5067 -18.28533,-3.3467 -27.436,-5.5734 5.85067,-0.9333 11.61734,-3.2666 17.28267,-5.7866 1.544,-0.68 0.816,-3.28 -0.752,-2.5867 -2.17867,0.9733 -4.39733,1.9333 -6.644,2.8133 2.548,-2.16 4.80933,-4.8 7.29333,-6.8666 0.65734,-0.5467 -0.28533,-1.48 -0.93866,-0.9334 -3.728,3.1067 -6.97734,7.6534 -11.552,9.6 -6.43867,1.8934 -13.05334,2.4667 -19.64267,-0.4933 -0.38133,-0.16 -0.74667,-0.1467 -1.06,-0.027 -1.76933,-0.52 -3.53333,-1.0666 -5.29333,-1.6133 -0.14934,-0.08 -0.296,-0.12 -0.44667,-0.1333 -6.66267,-2.1067 -13.26,-4.44 -19.748,-7 2.17733,0.32 4.37333,0.52 6.584,0.5733 4.57467,2.6 9.70533,3.96 14.74933,5.4 0.824,0.2267 1.17334,-1.0533 0.352,-1.28 -4.132,-1.1733 -8.32533,-2.2933 -12.212,-4.1067 3.56267,-0.093 7.152,-0.52 10.74134,-1.28 1.67333,-0.36 0.91333,-2.9466 -0.752,-2.5866 -4.15334,0.88 -8.30134,1.28 -12.40134,1.2 2.89067,-1.5334 5.45467,-3.6534 8.37067,-5.1734 0.75867,-0.4 0.088,-1.5466 -0.66933,-1.1466 -3.64,1.9066 -6.72534,4.8133 -10.63867,6.1733 -8.26133,-0.6267 -16.28,-3.2 -23.68266,-7.6533 -0.65867,-0.4 -1.27867,-0.1467 -1.63467,0.3333 -10.60667,-5.3733 -20.73733,-11.5333 -30.18,-18.5467 5.764,2.6534 11.67867,4.8534 17.75067,6.56 2.39466,2.24 4.88266,4.3734 7.12533,6.7734 0.58533,0.6266 1.52267,-0.32 0.93867,-0.9467 -1.69334,-1.8 -3.52934,-3.4667 -5.35867,-5.12 4.71333,1.2 9.50267,2.16 14.38133,2.8133 1.67734,0.2134 2.35067,-2.3866 0.65867,-2.6133 -2.748,-0.36 -5.46133,-0.8533 -8.156,-1.3867 3.59867,-0.12 7.21867,-0.6133 10.784,-1.0933 0.84533,-0.12 0.484,-1.3867 -0.352,-1.28 -6.58267,0.8933 -13.34,1.8267 -19.79867,0.1067 -0.524,-0.16 -1.044,-0.32 -1.56666,-0.48 -0.27734,-0.093 -0.55734,-0.1867 -0.83467,-0.2934 -0.0907,-0.027 -0.17333,-0.04 -0.252,-0.04 -7.824,-2.44 -15.40267,-5.6533 -22.68933,-9.7066 -0.43067,-0.24 -0.83467,-0.2 -1.16934,-0.027 -9.216,-7.7333 -17.62133,-16.4133 -24.99466,-26.12 4.13466,2.6667 8.356,5.16 12.66,7.5067 1.13333,1.8266 2.88666,3.3333 4.32666,4.8533 2.228,2.3733 4.43467,4.76 6.488,7.2933 0.54,0.6667 1.47334,-0.28 0.93867,-0.9466 -1.848,-2.2667 -3.81867,-4.4267 -5.82133,-6.5734 -0.92667,-0.9866 -2.02667,-1.9866 -3.02667,-3.0666 4.20933,2.2 8.5,4.2533 12.87333,6.16 1.56,0.68 2.86934,-1.6667 1.29734,-2.3467 -3.32667,-1.4533 -6.59734,-3 -9.828,-4.6133 4.46666,0.3866 8.94533,0.6266 13.43333,0.7466 0.856,0.013 0.85333,-1.3066 0,-1.3333 -5.56533,-0.1333 -11.11333,-0.48 -16.64667,-1.0533 -6.82533,-3.5734 -13.43866,-7.5467 -19.844,-11.9334 -0.296,-0.2 -0.58266,-0.2533 -0.844,-0.2133 -4.06666,-5.88 -7.752,-12.1333 -11.04,-18.7333 -0.46266,-1.84 -1.11733,-3.6667 -2.316,-4.8 -0.66,-0.6267 -2.064,-0.4534 -2.22933,0.5866 -0.616,3.9067 0.0493,9.0667 3.75733,11.2934 0.0253,0.013 0.0507,0.013 0.076,0.027 2.12134,3.8667 4.36,7.6267 6.75334,11.2267" style="fill:#577c69;fill-opacity:1;fill-rule:nonzero;stroke:none;stroke-width:0.133333"/><path id="path1327" d="m 451.73332,2362.8534 c -3.75466,-1.48 -7.42133,-3.1067 -11.03333,-4.8534 3.11467,-0.3333 6.29067,-0.2266 9.31867,-1.2266 0.80933,-0.2667 0.46266,-1.5467 -0.352,-1.28 -3.60134,1.1866 -7.41867,0.8133 -11.09067,1.4666 -0.696,-0.3466 -1.37867,-0.72 -2.06933,-1.08 -0.14134,-0.2933 -0.42134,-0.4 -0.69067,-0.36 -1.684,-0.8933 -3.35467,-1.8133 -5.00933,-2.76 5.828,-0.093 11.65333,-0.3466 17.46133,-0.7866 2.548,-0.2 2.48933,-4.24 -0.0733,-4.04 -6.18934,0.4666 -12.37734,0.72 -18.56134,0.7866 2.48667,-1.0533 4.848,-2.32 7.05734,-3.8 4.51066,-0.7466 9.08533,-0.9333 13.54933,-1.96 0.83333,-0.2 0.48,-1.48 -0.35333,-1.28 -3.59867,0.8267 -7.27467,1.12 -10.928,1.5867 3.22133,-2.4933 6.124,-5.4267 8.636,-8.84 1.01333,-1.3867 -1.316,-2.6533 -2.31734,-1.2933 -1.45066,1.9733 -3.052,3.76 -4.776,5.4 0.176,-1.24 0.66134,-2.68 0.804,-3.28 0.40934,-1.6934 0.88,-3.4267 1.57734,-5.0267 0.34,-0.7733 -0.80267,-1.4533 -1.14534,-0.6667 -0.94533,2.16 -1.54933,4.4934 -2.04533,6.8 -0.184,0.8667 -0.53867,2.1734 -0.48267,3.32 -4.648,4.04 -10.136,6.9467 -16.28133,8.5734 -0.32,0.08 -0.52533,0.2533 -0.67867,0.4533 -11.29333,-0.16 -22.552,-0.9867 -33.73466,-2.4667 2.244,-1.1066 4.43733,-2.2933 6.54933,-3.6 1.89333,-0.3866 3.98533,-0.3466 5.85867,-0.6 2.472,-0.3333 4.904,-0.8533 7.30666,-1.52 0.824,-0.2266 0.47467,-1.5066 -0.352,-1.28 -2.63066,0.7334 -5.27866,1.2534 -7.984,1.6134 -0.79333,0.1066 -1.60933,0.1466 -2.42666,0.2 2.124,-1.4267 4.20133,-2.9334 6.196,-4.5734 1.32,-1.0933 -0.47334,-3.0533 -1.79067,-1.96 -2.472,2.04 -5.04667,3.8934 -7.72267,5.5734 1.924,-2.5334 2.98934,-5.8534 4.18134,-8.68 0.332,-0.7867 -0.952,-1.12 -1.28,-0.3467 -1.48,3.5067 -2.75734,8.1467 -6.13734,10.3333 -0.292,0.1867 -0.34666,0.48 -0.26933,0.7467 -1.77867,0.9867 -3.58533,1.9333 -5.45867,2.7867 -0.376,0.1733 -0.584,0.44 -0.672,0.7333 -11.676,-1.7067 -23.26133,-4.1333 -34.704,-7.2533 5.94934,0.52 11.84667,0.2666 17.692,-0.8267 0.57867,0.3867 1.15867,0.7867 1.728,1.1867 1.636,1.16 3.26134,2.32 4.992,3.3466 0.74,0.4267 1.40667,-0.72 0.66934,-1.1466 -1.384,-0.8134 -2.704,-1.72 -4.01334,-2.64 -0.528,-0.3734 -1.056,-0.76 -1.584,-1.1334 1.864,-0.4 3.724,-0.8533 5.57867,-1.4133 1.636,-0.5067 0.88933,-3.0933 -0.752,-2.5867 -4.79067,1.4667 -9.596,2.36 -14.436,2.68 2.58933,-1.2 4.7,-3.32 7.42,-4.3066 0.79733,-0.2934 0.45333,-1.5734 -0.352,-1.28 -3.33333,1.2133 -5.79733,4.1866 -9.28667,4.9733 -0.38933,0.093 -0.51066,0.4133 -0.456,0.72 -3.976,0.093 -7.97733,-0.1867 -12.02,-0.8667 -0.644,-0.1066 -1.13466,0.2134 -1.40533,0.6667 -0.66133,-0.7733 -1.56,-0.4133 -1.96933,0.2667 -7.48267,-2.28 -14.80133,-4.92 -21.98667,-7.8534 3.864,0.9067 7.75334,1.6134 11.652,1.68 -0.172,0.28 -0.152,0.6667 0.23867,0.8534 3.756,1.76 7.77733,1.5733 11.832,1.64 0.856,0.013 0.85466,-1.32 0,-1.3334 -3.52667,-0.053 -7.13067,0.1467 -10.45067,-1.1733 2.42533,-0.067 4.85333,-0.4133 7.28,-1.1467 1.63867,-0.48 0.892,-3.0666 -0.752,-2.5866 -3.94,1.1866 -7.90933,1.2666 -11.86666,0.8133 2.644,-2.88 7.24933,-3.8667 10.79999,-5 0.812,-0.2533 0.464,-1.5333 -0.35333,-1.28 -4.112,1.32 -9.21733,2.48 -11.98666,6.08 -5.04667,-0.76 -10.064,-2.2933 -14.96667,-3.5333 -0.60667,-0.16 -1.07467,0.093 -1.34933,0.4933 -0.30134,-0.2667 -0.69467,-0.3467 -1.07867,-0.28 -6.712,-3.08 -13.3,-6.4267 -19.78,-9.9733 4.79867,1.32 9.672,2.2 14.616,2.6533 3.216,1.44 6.09467,3.6667 9.18133,5.3333 0.752,0.4134 1.42134,-0.7333 0.66934,-1.1466 -2.21467,-1.2 -4.32134,-2.6534 -6.51467,-3.9334 2.51067,0.1334 5.03467,0.1867 7.58267,0.093 1.70933,-0.053 1.66266,-2.7467 -0.048,-2.6934 -4.57334,0.16 -9.07734,-0.067 -13.52134,-0.64 1.95867,-0.52 4.10267,-0.8 5.89334,-1.28 2.832,-0.7733 5.63866,-1.6266 8.44,-2.4933 0.81466,-0.2533 0.46666,-1.5333 -0.35334,-1.28 -3.20133,1 -6.41333,1.9467 -9.64933,2.8133 -2.28667,0.6134 -4.93333,0.84 -7.11733,1.8134 -6.01334,-0.9867 -11.916,-2.6267 -17.70934,-4.9467 -0.49333,-0.2 -0.89333,-0.08 -1.16533,0.1867 -5.496,-3.24 -10.916,-6.6267 -16.26533,-10.1467 3.40666,0.92 6.87066,1.5733 10.39466,1.9733 2.56667,1.24 4.90134,3.32 7.08267,4.88 0.69867,0.4934 1.36,-0.6533 0.67067,-1.1466 -1.53334,-1.0934 -3.08934,-2.36 -4.732,-3.4534 0.872,0.053 1.74533,0.12 2.62533,0.1467 1.712,0.053 1.656,-2.64 -0.048,-2.6933 -3.528,-0.12 -6.99067,-0.52 -10.39733,-1.16 2.64133,-0.7334 5.13466,-1.9867 7.68666,-3.1867 0.77467,-0.3733 0.1,-1.5067 -0.66933,-1.1467 -3.39333,1.5867 -6.648,3.2934 -10.35333,3.6134 -3.696,-0.8934 -7.324,-2.1067 -10.88267,-3.64 -1.22533,-0.84 -2.43867,-1.7067 -3.65333,-2.56 -0.084,-0.093 -0.164,-0.1867 -0.25734,-0.2667 0.0187,-1.0667 -0.99466,-1.4667 -1.78533,-1.1733 -0.0413,-0.027 -0.0827,-0.053 -0.124,-0.093 -0.009,0.053 -0.0187,0.1067 -0.028,0.16 -0.0853,0.04 -0.17067,0.093 -0.24533,0.1467 -0.34,0.027 -0.668,0.1467 -0.93334,0.4133 -0.56533,0.56 -0.57733,1.6267 0.0733,2.1467 0.0547,0.04 0.10666,0.067 0.16133,0.093 0.0707,0.5334 0.27467,1.0534 0.66933,1.5734 0.0653,0.08 0.15867,0.1466 0.24534,0.2266 0.001,0.04 0.001,0.093 0.001,0.1334 0.73067,0.5066 1.46,1.0266 2.192,1.5333 1.41867,4.0267 2.83733,8.04 4.256,12.0667 -0.43467,1.6133 0.52933,4.6933 0.67333,6.32 0.33467,3.7466 0.41867,7.5066 0.42667,11.2666 10e-4,0.8667 1.328,0.8667 1.32667,0 -0.007,-2.9333 -0.0813,-5.8533 -0.24667,-8.7866 -0.064,-1.1334 -0.16,-2.2534 -0.26533,-3.3734 1.57066,4.4534 3.14133,8.8934 4.712,13.3467 0.57466,1.6267 3.124,0.88 2.54533,-0.76 -1.676,-4.7467 -3.35333,-9.5067 -5.02933,-14.2533 3.688,2.4 6.72133,5.8933 9.75466,9 0.59867,0.6133 1.536,-0.3334 0.93734,-0.9467 -3.47067,-3.5467 -6.95734,-7.6 -11.38667,-10.0267 -1.33067,-3.76 -2.66267,-7.5333 -3.99333,-11.3066 7.264,4.9333 14.64266,9.64 22.15733,14.08 0.009,0.1333 0.036,0.28 0.1,0.44 1.328,3.1866 2.75333,6.3333 4.228,9.44 -0.12933,0.2266 -0.13467,0.52 0.11733,0.7466 0.21334,0.2 0.40534,0.44 0.58,0.72 0.20667,0.4267 0.40267,0.8667 0.612,1.2934 0.81734,2.2 1.11867,5.2533 1.524,6.92 0.8,3.2666 1.57067,6.5333 2.42,9.7866 0.216,0.8267 1.496,0.48 1.27867,-0.3466 -0.95467,-3.6667 -1.81867,-7.3467 -2.71867,-11.0134 -0.0573,-0.24 -0.10933,-0.4933 -0.16133,-0.76 1.46,2.8 2.96,5.5734 4.548,8.3067 0.87067,1.4933 3.13867,0.093 2.26667,-1.4 -2.036,-3.5067 -3.95067,-7.0667 -5.776,-10.6667 3.00133,1.4134 5.42533,4.0267 8.164,5.8934 0.70933,0.48 1.372,-0.68 0.66933,-1.1467 -3.21733,-2.2 -6,-5.3333 -9.748,-6.5467 -1.54,-3.12 -2.984,-6.2933 -4.36533,-9.48 9.18,5.2667 18.56666,10.1467 28.20666,14.52 0.996,2.8667 2.22,5.6134 3.66934,8.2267 -0.12134,0.1067 -0.19867,0.2667 -0.188,0.48 0.20933,4.0933 1.25733,8 2.456,11.8933 0.25066,0.8134 1.53066,0.4667 1.27866,-0.3466 -0.99066,-3.2267 -1.88933,-6.4534 -2.26,-9.8 2.51067,4.04 5.57867,7.7066 9.17334,10.96 1.276,1.1466 3.12133,-0.7867 1.84133,-1.9467 -2.42,-2.1867 -4.57333,-4.5733 -6.47867,-7.12 2.768,1.4533 5.82667,2.48 8.62667,3.6267 0.792,0.3333 1.132,-0.9467 0.35333,-1.2667 -3.596,-1.4933 -7.65466,-2.7467 -10.86666,-5.08 -1.64534,-2.5467 -3.04,-5.2667 -4.196,-8.12 8.70133,3.8133 17.60133,7.24 26.74799,10.1733 2.10934,0.68 4.228,1.3334 6.352,1.96 3.05334,3.4134 6.19467,6.7334 9.424,9.9734 v 9.2 c 0,0.8533 1.32667,0.8533 1.32667,0 v -7.88 c 2.57867,2.5466 5.192,5.0533 7.88267,7.4933 1.276,1.1467 3.12133,-0.7867 1.84133,-1.9467 -1.8,-1.6266 -3.56933,-3.28 -5.31867,-4.96 1.96134,0.9734 3.99334,1.8267 6.032,2.6267 0.79734,0.3067 1.14,-0.9733 0.352,-1.28 -3.52666,-1.3733 -7.07733,-2.92 -10.18933,-5.1067 -2.212,-2.2133 -4.38933,-4.4666 -6.51733,-6.76 9.68,2.6667 19.49733,4.8134 29.40133,6.4267 -0.11333,0.4 -0.0613,0.84 0.32133,1.2267 2.172,2.16 4.484,4.1333 6.89734,5.9466 0.016,0.12 0.0587,0.2534 0.16933,0.36 3.63067,3.8134 6.62,8.1734 10.28133,11.9467 0.59734,0.6133 1.53334,-0.32 0.93867,-0.9333 -2.61333,-2.7067 -4.88667,-5.6934 -7.292,-8.56 4.84,3.0533 10.07467,5.4533 15.684,7.12 1.644,0.4933 2.34,-2.0667 0.70533,-2.5467 -3.78266,-1.1333 -7.37733,-2.6 -10.78666,-4.3733 3.79733,-0.093 7.58266,-0.72 11.34666,-1.3734 0.84134,-0.1466 0.48267,-1.4266 -0.35333,-1.28 -4.42933,0.7734 -8.91733,1.5334 -13.40667,1.3067 -3.96666,-2.3067 -7.652,-5.0933 -11.05866,-8.32 14.25466,2.1467 28.66533,3.2133 43.07066,3.2133 0.032,0.027 0.0453,0.053 0.08,0.08 3.49467,2.1334 7.07067,4.0934 10.70134,5.9467 2.25866,3.8133 6.25866,6.64 9.29066,9.72 0.6,0.6133 1.53734,-0.3333 0.93734,-0.9333 -2.39734,-2.44 -5.54667,-4.7467 -7.79334,-7.56 3.97334,1.9466 8.02134,3.7333 12.15867,5.36 1.59467,0.6133 2.28,-1.9467 0.70533,-2.56" style="fill:#577c69;fill-opacity:1;fill-rule:nonzero;stroke:none;stroke-width:0.133333"/><path id="path1329" d="m 293.80799,2113.3867 c -6.656,-1.0533 -13.18933,-2.8 -19.924,-3.32 -5.068,-3.12 -10.01333,-6.4267 -14.82933,-9.9867 -1.38533,-1.0133 -2.66267,1.3467 -1.296,2.36 10.47333,7.72 21.536,14.4 33.224,20.04 1.54133,0.7334 2.844,-1.6133 1.29733,-2.36 -5.384,-2.6 -10.628,-5.4266 -15.75066,-8.4666 5.68933,0.7066 11.26266,2.12 16.92666,3.0133 0.836,0.1333 1.196,-1.1467 0.352,-1.28" style="fill:#577c69;fill-opacity:1;fill-rule:nonzero;stroke:none;stroke-width:0.133333"/><path id="path1330" d="m 260.13466,2212.2 c 0.0373,4.9734 0.43467,9.88 1.35067,14.76 0.15733,0.8534 1.436,0.4934 1.27866,-0.3466 -0.89466,-4.7734 -1.26533,-9.56 -1.30266,-14.4134 -0.005,-0.8533 -1.33334,-0.8533 -1.32667,0" style="fill:#577c69;fill-opacity:1;fill-rule:nonzero;stroke:none;stroke-width:0.133333"/></g></svg>