<svg version="1.1" id="svg1" width="2000" height="2579.9468" viewBox="1248.6241439822613 546.1434149999978 13.90741330812375 12.692500385862445" sodipodi:docname="styletrees.svg" inkscape:version="1.4.2 (f4327f4, 2025-05-13)" xmlns:inkscape="http://www.inkscape.org/namespaces/inkscape" xmlns:sodipodi="http://sodipodi.sourceforge.net/DTD/sodipodi-0.dtd" xmlns="http://www.w3.org/2000/svg" xmlns:svg="http://www.w3.org/2000/svg"><defs id="defs1"/><g><path id="path1061" d="m 1249.6373,548.96008 c -0.1027,2.77334 0.3987,5.42667 1.4053,8.01334 0.32,0.81333 1.6547,0.45333 1.3307,-0.37334 -0.9627,-2.46666 -1.4533,-4.98666 -1.356,-7.64 0.033,-0.89333 -1.3467,-0.88 -1.38,0 v 0" style="fill:#577c69;fill-opacity:1;fill-rule:nonzero;stroke:none;stroke-width:0.133333"/><path id="path1062" d="m 1252.3986,547.81342 c 0.132,4.05333 2.8214,7.41333 4.9254,10.69333 0.48,0.76 1.6746,0.0667 1.1933,-0.69333 -1.9493,-3.02667 -4.6147,-6.24 -4.7387,-10 -0.028,-0.89334 -1.4093,-0.89334 -1.38,0 v 0" style="fill:#577c69;fill-opacity:1;fill-rule:nonzero;stroke:none;stroke-width:0.133333"/><path id="path1063" d="m 1258.3813,551.26675 c 0.156,2.57333 1.5613,4.64 2.8547,6.78667 0.4573,0.76 1.652,0.0667 1.192,-0.69334 -1.148,-1.92 -2.528,-3.8 -2.6667,-6.09333 -0.053,-0.89333 -1.4347,-0.89333 -1.38,0 v 0" style="fill:#577c69;fill-opacity:1;fill-rule:nonzero;stroke:none;stroke-width:0.133333"/><path id="path1061" d="m 1249.6373,548.96008 c -0.1027,2.77334 0.3987,5.42667 1.4053,8.01334 0.32,0.81333 1.6547,0.45333 1.3307,-0.37334 -0.9627,-2.46666 -1.4533,-4.98666 -1.356,-7.64 0.033,-0.89333 -1.3467,-0.88 -1.38,0 v 0" style="fill:#577c69;fill-opacity:1;fill-rule:nonzero;stroke:none;stroke-width:0.133333"/><path id="path1062" d="m 1252.3986,547.81342 c 0.132,4.05333 2.8214,7.41333 4.9254,10.69333 0.48,0.76 1.6746,0.0667 1.1933,-0.69333 -1.9493,-3.02667 -4.6147,-6.24 -4.7387,-10 -0.028,-0.89334 -1.4093,-0.89334 -1.38,0 v 0" style="fill:#577c69;fill-opacity:1;fill-rule:nonzero;stroke:none;stroke-width:0.133333"/><path id="path1063" d="m 1258.3813,551.26675 c 0.156,2.57333 1.5613,4.64 2.8547,6.78667 0.4573,0.76 1.652,0.0667 1.192,-0.69334 -1.148,-1.92 -2.528,-3.8 -2.6667,-6.09333 -0.053,-0.89333 -1.4347,-0.89333 -1.38,0 v 0" style="fill:#577c69;fill-opacity:1;fill-rule:nonzero;stroke:none;stroke-width:0.133333"/></g></svg>