<svg version="1.1" id="svg1" width="2000" height="2579.9468" viewBox="1150.6754549255925 818.0660121938961 4.175595382590927 12.271269625204582" sodipodi:docname="styletrees.svg" inkscape:version="1.4.2 (f4327f4, 2025-05-13)" xmlns:inkscape="http://www.inkscape.org/namespaces/inkscape" xmlns:sodipodi="http://sodipodi.sourceforge.net/DTD/sodipodi-0.dtd" xmlns="http://www.w3.org/2000/svg" xmlns:svg="http://www.w3.org/2000/svg"><defs id="defs1"/><g><path id="path803" d="m 1152.1733,819.42674 c -1.352,3.08 0.3773,7.44 1.312,10.42667 0.264,0.85333 1.5973,0.48 1.3307,-0.36 -0.44,-1.41333 -0.84,-2.82667 -1.1734,-4.26667 -0.3453,-1.48 -0.9293,-3.62666 -0.276,-5.10666 0.3547,-0.8 -0.8346,-1.50667 -1.1933,-0.69334 v 0" style="fill:#577c69;fill-opacity:1;fill-rule:nonzero;stroke:none;stroke-width:0.133333"/><path id="path803" d="m 1152.1733,819.42674 c -1.352,3.08 0.3773,7.44 1.312,10.42667 0.264,0.85333 1.5973,0.48 1.3307,-0.36 -0.44,-1.41333 -0.84,-2.82667 -1.1734,-4.26667 -0.3453,-1.48 -0.9293,-3.62666 -0.276,-5.10666 0.3547,-0.8 -0.8346,-1.50667 -1.1933,-0.69334 v 0" style="fill:#577c69;fill-opacity:1;fill-rule:nonzero;stroke:none;stroke-width:0.133333"/></g></svg>