<svg version="1.1" id="svg1" width="2000" height="2579.9468" viewBox="1157.9765945078495 652.6767449999952 5.147429148769106 16.140002500004698" sodipodi:docname="styletrees.svg" inkscape:version="1.4.2 (f4327f4, 2025-05-13)" xmlns:inkscape="http://www.inkscape.org/namespaces/inkscape" xmlns:sodipodi="http://sodipodi.sourceforge.net/DTD/sodipodi-0.dtd" xmlns="http://www.w3.org/2000/svg" xmlns:svg="http://www.w3.org/2000/svg"><defs id="defs1"/><g><path id="path682" d="m 1161.2826,654.34675 c 0,4.6 0.4254,9.2 0.4614,13.8 0.01,0.89333 1.3866,0.89333 1.38,0 -0.036,-4.6 -0.4627,-9.2 -0.46,-13.8 0,-0.89334 -1.38,-0.89334 -1.3814,0 v 0" style="fill:#577c69;fill-opacity:1;fill-rule:nonzero;stroke:none;stroke-width:0.133333"/><path id="path683" d="m 1158.9826,655.72008 c -0.075,3.94667 0.5707,7.82667 0.92,11.73333 0.079,0.88 1.46,0.89334 1.38,0 -0.3493,-3.90666 -0.9933,-7.78666 -0.92,-11.73333 0.017,-0.89333 -1.364,-0.88 -1.38,0 v 0" style="fill:#577c69;fill-opacity:1;fill-rule:nonzero;stroke:none;stroke-width:0.133333"/><path id="path682" d="m 1161.2826,654.34675 c 0,4.6 0.4254,9.2 0.4614,13.8 0.01,0.89333 1.3866,0.89333 1.38,0 -0.036,-4.6 -0.4627,-9.2 -0.46,-13.8 0,-0.89334 -1.38,-0.89334 -1.3814,0 v 0" style="fill:#577c69;fill-opacity:1;fill-rule:nonzero;stroke:none;stroke-width:0.133333"/><path id="path683" d="m 1158.9826,655.72008 c -0.075,3.94667 0.5707,7.82667 0.92,11.73333 0.079,0.88 1.46,0.89334 1.38,0 -0.3493,-3.90666 -0.9933,-7.78666 -0.92,-11.73333 0.017,-0.89333 -1.364,-0.88 -1.38,0 v 0" style="fill:#577c69;fill-opacity:1;fill-rule:nonzero;stroke:none;stroke-width:0.133333"/></g></svg>