<svg version="1.1" id="svg1" width="2000" height="2579.9468" viewBox="1084.5839999999998 693.2234124999917 2.3800000000003365 15.396667500007425" sodipodi:docname="styletrees.svg" inkscape:version="1.4.2 (f4327f4, 2025-05-13)" xmlns:inkscape="http://www.inkscape.org/namespaces/inkscape" xmlns:sodipodi="http://sodipodi.sourceforge.net/DTD/sodipodi-0.dtd" xmlns="http://www.w3.org/2000/svg" xmlns:svg="http://www.w3.org/2000/svg"><defs id="defs1"/><g><path id="path434" d="m 1086.964,696.45341 c 0,-0.52 0,-1.04 0,-1.56 -0.46,0 -0.92,0 -1.38,0 0,4.34667 0,8.70667 0,13.06667 0,0.88 1.38,0.88 1.38,0 0,-4.36 0,-8.72 0,-13.06667 0,-0.89333 -1.38,-0.89333 -1.38,0 0,0.52 0,1.04 0,1.56 0,0.88 1.38,0.88 1.38,0 v 0" style="fill:#577c69;fill-opacity:1;fill-rule:nonzero;stroke:none;stroke-width:0.133333"/><path id="path434" d="m 1086.964,696.45341 c 0,-0.52 0,-1.04 0,-1.56 -0.46,0 -0.92,0 -1.38,0 0,4.34667 0,8.70667 0,13.06667 0,0.88 1.38,0.88 1.38,0 0,-4.36 0,-8.72 0,-13.06667 0,-0.89333 -1.38,-0.89333 -1.38,0 0,0.52 0,1.04 0,1.56 0,0.88 1.38,0.88 1.38,0 v 0" style="fill:#577c69;fill-opacity:1;fill-rule:nonzero;stroke:none;stroke-width:0.133333"/></g></svg>