<svg version="1.1" id="svg1" width="2000" height="2579.9468" viewBox="1089.4255848186356 675.647944523914 3.7370741240208645 12.508507333030707" sodipodi:docname="styletrees.svg" inkscape:version="1.4.2 (f4327f4, 2025-05-13)" xmlns:inkscape="http://www.inkscape.org/namespaces/inkscape" xmlns:sodipodi="http://sodipodi.sourceforge.net/DTD/sodipodi-0.dtd" xmlns="http://www.w3.org/2000/svg" xmlns:svg="http://www.w3.org/2000/svg"><defs id="defs1"/><g><path id="path671" d="m 1092.852,678.16008 c 0.077,-0.16 0.1546,-0.30667 0.2306,-0.46667 0.3974,-0.78666 -0.7933,-1.49333 -1.192,-0.69333 -0.077,0.16 -0.1533,0.30667 -0.2306,0.46667 -0.396,0.78666 0.7946,1.49333 1.192,0.69333 v 0" style="fill:#577c69;fill-opacity:1;fill-rule:nonzero;stroke:none;stroke-width:0.133333"/><path id="path672" d="m 1091.2,677.22675 c -1.3374,3.17333 -0.1254,6.77333 -0.76,10.06666 -0.1667,0.86667 1.164,1.24 1.332,0.36 0.5973,-3.09333 -0.6187,-6.8 0.62,-9.72 0.3426,-0.81333 -0.8454,-1.52 -1.192,-0.70666 v 0" style="fill:#577c69;fill-opacity:1;fill-rule:nonzero;stroke:none;stroke-width:0.133333"/><path id="path671" d="m 1092.852,678.16008 c 0.077,-0.16 0.1546,-0.30667 0.2306,-0.46667 0.3974,-0.78666 -0.7933,-1.49333 -1.192,-0.69333 -0.077,0.16 -0.1533,0.30667 -0.2306,0.46667 -0.396,0.78666 0.7946,1.49333 1.192,0.69333 v 0" style="fill:#577c69;fill-opacity:1;fill-rule:nonzero;stroke:none;stroke-width:0.133333"/><path id="path672" d="m 1091.2,677.22675 c -1.3374,3.17333 -0.1254,6.77333 -0.76,10.06666 -0.1667,0.86667 1.164,1.24 1.332,0.36 0.5973,-3.09333 -0.6187,-6.8 0.62,-9.72 0.3426,-0.81333 -0.8454,-1.52 -1.192,-0.70666 v 0" style="fill:#577c69;fill-opacity:1;fill-rule:nonzero;stroke:none;stroke-width:0.133333"/></g></svg>