<svg version="1.1" id="svg1" width="2000" height="2579.9468" viewBox="1232.0698982939764 689.4303858968467 3.0996122288718198 16.199691603158044" sodipodi:docname="styletrees.svg" inkscape:version="1.4.2 (f4327f4, 2025-05-13)" xmlns:inkscape="http://www.inkscape.org/namespaces/inkscape" xmlns:sodipodi="http://sodipodi.sourceforge.net/DTD/sodipodi-0.dtd" xmlns="http://www.w3.org/2000/svg" xmlns:svg="http://www.w3.org/2000/svg"><defs id="defs1"/><g><path id="path421" d="m 1233.2733,691.64008 c 1.168,1.44 0.3973,5.06667 0.2627,6.73333 -0.176,2.18667 -0.4827,4.38667 -0.4654,6.58667 0.01,0.89333 1.388,0.89333 1.3814,0 -0.024,-2.88 0.4333,-5.76 0.6106,-8.62667 0.108,-1.76 0.388,-4.2 -0.8133,-5.66666 -0.564,-0.69334 -1.5347,0.29333 -0.976,0.97333 v 0" style="fill:#577c69;fill-opacity:1;fill-rule:nonzero;stroke:none;stroke-width:0.133333"/><path id="path421" d="m 1233.2733,691.64008 c 1.168,1.44 0.3973,5.06667 0.2627,6.73333 -0.176,2.18667 -0.4827,4.38667 -0.4654,6.58667 0.01,0.89333 1.388,0.89333 1.3814,0 -0.024,-2.88 0.4333,-5.76 0.6106,-8.62667 0.108,-1.76 0.388,-4.2 -0.8133,-5.66666 -0.564,-0.69334 -1.5347,0.29333 -0.976,0.97333 v 0" style="fill:#577c69;fill-opacity:1;fill-rule:nonzero;stroke:none;stroke-width:0.133333"/></g></svg>