<svg version="1.1" id="svg1" width="2000" height="2579.9468" viewBox="1248.8278557935862 631.5456463920301 4.950657260793378 12.427888119633167" sodipodi:docname="styletrees.svg" inkscape:version="1.4.2 (f4327f4, 2025-05-13)" xmlns:inkscape="http://www.inkscape.org/namespaces/inkscape" xmlns:sodipodi="http://sodipodi.sourceforge.net/DTD/sodipodi-0.dtd" xmlns="http://www.w3.org/2000/svg" xmlns:svg="http://www.w3.org/2000/svg"><defs id="defs1"/><g><path id="path868" d="m 1251.4533,633.68008 c -0.1013,-0.30666 -0.188,-0.50666 -0.3493,-0.78666 -0.404,-0.72 -1.4094,-0.21334 -1.2614,0.53333 0.68,3.4 1.732,6.69333 2.58,10.05333 0.2187,0.86667 1.5494,0.49334 1.332,-0.36 -0.8493,-3.36 -1.9,-6.66666 -2.58,-10.06666 -0.4213,0.17333 -0.8413,0.34666 -1.2626,0.53333 0.071,0.14667 0.14,0.30667 0.2106,0.46667 0.276,0.84 1.6094,0.48 1.3307,-0.37334 v 0" style="fill:#577c69;fill-opacity:1;fill-rule:nonzero;stroke:none;stroke-width:0.133333"/><path id="path868" d="m 1251.4533,633.68008 c -0.1013,-0.30666 -0.188,-0.50666 -0.3493,-0.78666 -0.404,-0.72 -1.4094,-0.21334 -1.2614,0.53333 0.68,3.4 1.732,6.69333 2.58,10.05333 0.2187,0.86667 1.5494,0.49334 1.332,-0.36 -0.8493,-3.36 -1.9,-6.66666 -2.58,-10.06666 -0.4213,0.17333 -0.8413,0.34666 -1.2626,0.53333 0.071,0.14667 0.14,0.30667 0.2106,0.46667 0.276,0.84 1.6094,0.48 1.3307,-0.37334 v 0" style="fill:#577c69;fill-opacity:1;fill-rule:nonzero;stroke:none;stroke-width:0.133333"/></g></svg>