<svg version="1.1" id="svg1" width="2000" height="2579.9468" viewBox="1166.7244472400798 835.3767450000346 9.053486567825303 16.827277627822355" sodipodi:docname="styletrees.svg" inkscape:version="1.4.2 (f4327f4, 2025-05-13)" xmlns:inkscape="http://www.inkscape.org/namespaces/inkscape" xmlns:sodipodi="http://sodipodi.sourceforge.net/DTD/sodipodi-0.dtd" xmlns="http://www.w3.org/2000/svg" xmlns:svg="http://www.w3.org/2000/svg"><defs id="defs1"/><g><path id="path821" d="m 1167.7253,837.72008 c 0.1813,3.94666 1.2173,7.81333 2.856,11.4 0.3693,0.8 1.5587,0.10666 1.192,-0.69334 -1.5333,-3.36 -2.4973,-7.01333 -2.6667,-10.70666 -0.041,-0.88 -1.4213,-0.89334 -1.3813,0 v 0" style="fill:#577c69;fill-opacity:1;fill-rule:nonzero;stroke:none;stroke-width:0.133333"/><path id="path822" d="m 1171.6373,837.02674 c 0.6613,4.94667 1.58,9.84 2.7853,14.68 0.2147,0.86667 1.5467,0.50667 1.332,-0.36 -1.1746,-4.72 -2.092,-9.49333 -2.7373,-14.32 -0.116,-0.86666 -1.4973,-0.86666 -1.38,0 v 0" style="fill:#577c69;fill-opacity:1;fill-rule:nonzero;stroke:none;stroke-width:0.133333"/><path id="path821" d="m 1167.7253,837.72008 c 0.1813,3.94666 1.2173,7.81333 2.856,11.4 0.3693,0.8 1.5587,0.10666 1.192,-0.69334 -1.5333,-3.36 -2.4973,-7.01333 -2.6667,-10.70666 -0.041,-0.88 -1.4213,-0.89334 -1.3813,0 v 0" style="fill:#577c69;fill-opacity:1;fill-rule:nonzero;stroke:none;stroke-width:0.133333"/><path id="path822" d="m 1171.6373,837.02674 c 0.6613,4.94667 1.58,9.84 2.7853,14.68 0.2147,0.86667 1.5467,0.50667 1.332,-0.36 -1.1746,-4.72 -2.092,-9.49333 -2.7373,-14.32 -0.116,-0.86666 -1.4973,-0.86666 -1.38,0 v 0" style="fill:#577c69;fill-opacity:1;fill-rule:nonzero;stroke:none;stroke-width:0.133333"/></g></svg>