<svg version="1.1" id="svg1" width="2000" height="2579.9468" viewBox="1127.7942509593597 832.7843271895674 4.501074215816743 11.135867322095692" sodipodi:docname="styletrees.svg" inkscape:version="1.4.2 (f4327f4, 2025-05-13)" xmlns:inkscape="http://www.inkscape.org/namespaces/inkscape" xmlns:sodipodi="http://sodipodi.sourceforge.net/DTD/sodipodi-0.dtd" xmlns="http://www.w3.org/2000/svg" xmlns:svg="http://www.w3.org/2000/svg"><defs id="defs1"/><g><path id="path813" d="m 1129.5026,834.01341 c -1.9866,2.34667 0.7667,6.97333 1.4334,9.41333 0.2346,0.86667 1.5653,0.49334 1.332,-0.36 -0.3574,-1.30666 -0.86,-2.57333 -1.28,-3.86666 -0.3147,-0.97334 -1.288,-3.29334 -0.5094,-4.21334 0.572,-0.66666 -0.4,-1.65333 -0.976,-0.97333 v 0" style="fill:#577c69;fill-opacity:1;fill-rule:nonzero;stroke:none;stroke-width:0.133333"/><path id="path813" d="m 1129.5026,834.01341 c -1.9866,2.34667 0.7667,6.97333 1.4334,9.41333 0.2346,0.86667 1.5653,0.49334 1.332,-0.36 -0.3574,-1.30666 -0.86,-2.57333 -1.28,-3.86666 -0.3147,-0.97334 -1.288,-3.29334 -0.5094,-4.21334 0.572,-0.66666 -0.4,-1.65333 -0.976,-0.97333 v 0" style="fill:#577c69;fill-opacity:1;fill-rule:nonzero;stroke:none;stroke-width:0.133333"/></g></svg>