<svg version="1.1" id="svg1" width="2000" height="2579.9468" viewBox="1076.0904198371063 930.0569504866348 3.245660509252275 15.499205215258371" sodipodi:docname="styletrees.svg" inkscape:version="1.4.2 (f4327f4, 2025-05-13)" xmlns:inkscape="http://www.inkscape.org/namespaces/inkscape" xmlns:sodipodi="http://sodipodi.sourceforge.net/DTD/sodipodi-0.dtd" xmlns="http://www.w3.org/2000/svg" xmlns:svg="http://www.w3.org/2000/svg"><defs id="defs1"/><g><path id="path1183" d="m 1078.3453,933.25341 c 0.4107,-0.66667 0.392,-0.6 0.5213,-1.36 -0.4373,-0.0667 -0.8733,-0.12 -1.3093,-0.18667 -0.083,4.45333 -0.8867,9.05333 0.4587,13.38667 0.2546,0.81333 1.5426,0.46666 1.2866,-0.36 -1.3066,-4.2 -0.492,-8.70667 -0.412,-13.02667 0.013,-0.73333 -1.184,-0.92 -1.3106,-0.17333 -0.128,0.34666 -0.2574,0.69333 -0.3854,1.04 -0.4546,0.73333 0.6987,1.4 1.1507,0.68 v 0" style="fill:#577c69;fill-opacity:1;fill-rule:nonzero;stroke:none;stroke-width:0.133333"/><path id="path1183" d="m 1078.3453,933.25341 c 0.4107,-0.66667 0.392,-0.6 0.5213,-1.36 -0.4373,-0.0667 -0.8733,-0.12 -1.3093,-0.18667 -0.083,4.45333 -0.8867,9.05333 0.4587,13.38667 0.2546,0.81333 1.5426,0.46666 1.2866,-0.36 -1.3066,-4.2 -0.492,-8.70667 -0.412,-13.02667 0.013,-0.73333 -1.184,-0.92 -1.3106,-0.17333 -0.128,0.34666 -0.2574,0.69333 -0.3854,1.04 -0.4546,0.73333 0.6987,1.4 1.1507,0.68 v 0" style="fill:#577c69;fill-opacity:1;fill-rule:nonzero;stroke:none;stroke-width:0.133333"/></g></svg>