<svg version="1.1" id="svg1" width="2000" height="2579.9468" viewBox="1269.2611038160576 780.3914899549715 4.060637672259418 17.751629027369745" sodipodi:docname="styletrees.svg" inkscape:version="1.4.2 (f4327f4, 2025-05-13)" xmlns:inkscape="http://www.inkscape.org/namespaces/inkscape" xmlns:sodipodi="http://sodipodi.sourceforge.net/DTD/sodipodi-0.dtd" xmlns="http://www.w3.org/2000/svg" xmlns:svg="http://www.w3.org/2000/svg"><defs id="defs1"/><g><path id="path740" d="m 1270.6,781.85341 c -0.8507,2.24 0.1386,4.98667 0.384,7.26667 0.3053,2.84 0.5546,5.69333 0.9973,8.52 0.136,0.88 1.4667,0.50666 1.3307,-0.36 -0.4227,-2.70667 -0.6734,-5.44 -0.948,-8.16 -0.1987,-1.97334 -1.1467,-5.01334 -0.432,-6.89334 0.3173,-0.84 -1.0187,-1.18666 -1.332,-0.37333 v 0" style="fill:#577c69;fill-opacity:1;fill-rule:nonzero;stroke:none;stroke-width:0.133333"/><path id="path740" d="m 1270.6,781.85341 c -0.8507,2.24 0.1386,4.98667 0.384,7.26667 0.3053,2.84 0.5546,5.69333 0.9973,8.52 0.136,0.88 1.4667,0.50666 1.3307,-0.36 -0.4227,-2.70667 -0.6734,-5.44 -0.948,-8.16 -0.1987,-1.97334 -1.1467,-5.01334 -0.432,-6.89334 0.3173,-0.84 -1.0187,-1.18666 -1.332,-0.37333 v 0" style="fill:#577c69;fill-opacity:1;fill-rule:nonzero;stroke:none;stroke-width:0.133333"/></g></svg>