<svg version="1.1" id="svg1" width="2000" height="2579.9468" viewBox="1243.5484549344203 819.6978841268505 4.235013180753867 14.338567730094155" sodipodi:docname="styletrees.svg" inkscape:version="1.4.2 (f4327f4, 2025-05-13)" xmlns:inkscape="http://www.inkscape.org/namespaces/inkscape" xmlns:sodipodi="http://sodipodi.sourceforge.net/DTD/sodipodi-0.dtd" xmlns="http://www.w3.org/2000/svg" xmlns:svg="http://www.w3.org/2000/svg"><defs id="defs1"/><g><path id="path788" d="m 1244.6,821.20008 c -0.2147,1.58666 0.2893,3 0.6293,4.53333 0.5653,2.56 0.7733,5.21333 1.212,7.8 0.148,0.88 1.4787,0.50667 1.3307,-0.36 -0.3414,-2.02667 -0.6107,-4.05333 -0.9187,-6.08 -0.2613,-1.70667 -1.1573,-3.78667 -0.9213,-5.52 0.1173,-0.88 -1.2134,-1.25333 -1.332,-0.37333 v 0" style="fill:#577c69;fill-opacity:1;fill-rule:nonzero;stroke:none;stroke-width:0.133333"/><path id="path788" d="m 1244.6,821.20008 c -0.2147,1.58666 0.2893,3 0.6293,4.53333 0.5653,2.56 0.7733,5.21333 1.212,7.8 0.148,0.88 1.4787,0.50667 1.3307,-0.36 -0.3414,-2.02667 -0.6107,-4.05333 -0.9187,-6.08 -0.2613,-1.70667 -1.1573,-3.78667 -0.9213,-5.52 0.1173,-0.88 -1.2134,-1.25333 -1.332,-0.37333 v 0" style="fill:#577c69;fill-opacity:1;fill-rule:nonzero;stroke:none;stroke-width:0.133333"/></g></svg>