<svg version="1.1" id="svg1" width="2000" height="2579.9468" viewBox="1093.0916890866936 675.0620932675849 2.6106320263850193 13.767984232413255" sodipodi:docname="styletrees.svg" inkscape:version="1.4.2 (f4327f4, 2025-05-13)" xmlns:inkscape="http://www.inkscape.org/namespaces/inkscape" xmlns:sodipodi="http://sodipodi.sourceforge.net/DTD/sodipodi-0.dtd" xmlns="http://www.w3.org/2000/svg" xmlns:svg="http://www.w3.org/2000/svg"><defs id="defs1"/><g><path id="path674" d="m 1095.6133,676.77341 c -0.029,-0.0667 -0.06,-0.13333 -0.091,-0.21333 -0.1413,-0.41333 -0.6106,-0.64 -1.0133,-0.4 -0.025,0.0133 -0.051,0.0267 -0.076,0.04 -0.2093,0.12 -0.3427,0.34667 -0.3413,0.6 0.027,3.78667 0.01,7.57333 0.01,11.36 0,0.89333 1.38,0.89333 1.38,0 0,-1.74667 0.01,-3.49333 0.01,-5.24 0,-0.88 0,-1.76 0,-2.62667 0,-0.21333 0.015,-3.12 -0.2827,-2.94666 -0.3373,-0.13334 -0.676,-0.28 -1.0133,-0.41334 0.063,0.18667 0.136,0.36 0.2293,0.53334 0.412,0.78666 1.604,0.0933 1.192,-0.69334 v 0" style="fill:#577c69;fill-opacity:1;fill-rule:nonzero;stroke:none;stroke-width:0.133333"/><path id="path674" d="m 1095.6133,676.77341 c -0.029,-0.0667 -0.06,-0.13333 -0.091,-0.21333 -0.1413,-0.41333 -0.6106,-0.64 -1.0133,-0.4 -0.025,0.0133 -0.051,0.0267 -0.076,0.04 -0.2093,0.12 -0.3427,0.34667 -0.3413,0.6 0.027,3.78667 0.01,7.57333 0.01,11.36 0,0.89333 1.38,0.89333 1.38,0 0,-1.74667 0.01,-3.49333 0.01,-5.24 0,-0.88 0,-1.76 0,-2.62667 0,-0.21333 0.015,-3.12 -0.2827,-2.94666 -0.3373,-0.13334 -0.676,-0.28 -1.0133,-0.41334 0.063,0.18667 0.136,0.36 0.2293,0.53334 0.412,0.78666 1.604,0.0933 1.192,-0.69334 v 0" style="fill:#577c69;fill-opacity:1;fill-rule:nonzero;stroke:none;stroke-width:0.133333"/></g></svg>