<svg version="1.1" id="svg1" width="2000" height="2579.9468" viewBox="1095.1506492372187 779.9434125000108 6.083750225786616 13.573933016221645" sodipodi:docname="styletrees.svg" inkscape:version="1.4.2 (f4327f4, 2025-05-13)" xmlns:inkscape="http://www.inkscape.org/namespaces/inkscape" xmlns:sodipodi="http://sodipodi.sourceforge.net/DTD/sodipodi-0.dtd" xmlns="http://www.w3.org/2000/svg" xmlns:svg="http://www.w3.org/2000/svg"><defs id="defs1"/><g><path id="path702" d="m 1097.548,782.73341 c 0,-0.37333 0,-0.74667 0,-1.12 0,-0.89333 -1.3573,-0.89333 -1.38,0 -0.1,3.86667 0.2147,7.73333 1.404,11.42667 0.272,0.84 1.604,0.48 1.3307,-0.37334 -1.1534,-3.57333 -1.4507,-7.30666 -1.3547,-11.05333 -0.46,0 -0.92,0 -1.38,0 0,0.37333 0,0.74667 0,1.12 0,0.89333 1.3826,0.89333 1.38,0 v 0" style="fill:#577c69;fill-opacity:1;fill-rule:nonzero;stroke:none;stroke-width:0.133333"/><path id="path703" d="m 1098.9293,782.26674 c 0.2333,3.38667 0.5907,6.76 0.92,10.13334 0.085,0.86666 1.4667,0.88 1.3813,0 -0.3293,-3.37334 -0.688,-6.74667 -0.9213,-10.13334 -0.06,-0.88 -1.4413,-0.88 -1.38,0 v 0" style="fill:#577c69;fill-opacity:1;fill-rule:nonzero;stroke:none;stroke-width:0.133333"/><path id="path702" d="m 1097.548,782.73341 c 0,-0.37333 0,-0.74667 0,-1.12 0,-0.89333 -1.3573,-0.89333 -1.38,0 -0.1,3.86667 0.2147,7.73333 1.404,11.42667 0.272,0.84 1.604,0.48 1.3307,-0.37334 -1.1534,-3.57333 -1.4507,-7.30666 -1.3547,-11.05333 -0.46,0 -0.92,0 -1.38,0 0,0.37333 0,0.74667 0,1.12 0,0.89333 1.3826,0.89333 1.38,0 v 0" style="fill:#577c69;fill-opacity:1;fill-rule:nonzero;stroke:none;stroke-width:0.133333"/><path id="path703" d="m 1098.9293,782.26674 c 0.2333,3.38667 0.5907,6.76 0.92,10.13334 0.085,0.86666 1.4667,0.88 1.3813,0 -0.3293,-3.37334 -0.688,-6.74667 -0.9213,-10.13334 -0.06,-0.88 -1.4413,-0.88 -1.38,0 v 0" style="fill:#577c69;fill-opacity:1;fill-rule:nonzero;stroke:none;stroke-width:0.133333"/></g></svg>