<svg version="1.1" id="svg1" width="2000" height="2579.9468" viewBox="1101.7046401993268 760.0831839129073 3.436684176645713 14.346893587086242" sodipodi:docname="styletrees.svg" inkscape:version="1.4.2 (f4327f4, 2025-05-13)" xmlns:inkscape="http://www.inkscape.org/namespaces/inkscape" xmlns:sodipodi="http://sodipodi.sourceforge.net/DTD/sodipodi-0.dtd" xmlns="http://www.w3.org/2000/svg" xmlns:svg="http://www.w3.org/2000/svg"><defs id="defs1"/><g><path id="path598" d="m 1103.9626,761.30675 c -2.6933,3.08 -0.228,8.86666 -0.2013,12.45333 0.01,0.89333 1.3867,0.89333 1.38,0 -0.012,-1.58667 -0.3067,-3.17333 -0.5293,-4.73333 -0.26,-1.84 -1.0374,-5.18667 0.328,-6.74667 0.5826,-0.66667 -0.3894,-1.64 -0.9774,-0.97333 v 0" style="fill:#577c69;fill-opacity:1;fill-rule:nonzero;stroke:none;stroke-width:0.133333"/><path id="path598" d="m 1103.9626,761.30675 c -2.6933,3.08 -0.228,8.86666 -0.2013,12.45333 0.01,0.89333 1.3867,0.89333 1.38,0 -0.012,-1.58667 -0.3067,-3.17333 -0.5293,-4.73333 -0.26,-1.84 -1.0374,-5.18667 0.328,-6.74667 0.5826,-0.66667 -0.3894,-1.64 -0.9774,-0.97333 v 0" style="fill:#577c69;fill-opacity:1;fill-rule:nonzero;stroke:none;stroke-width:0.133333"/></g></svg>