<svg version="1.1" id="svg1" width="2000" height="2579.9468" viewBox="32.90578154910013 77.9239146526127 187.00337060956744 372.8528378473777" sodipodi:docname="styletrees.svg" inkscape:version="1.4.2 (f4327f4, 2025-05-13)" xmlns:inkscape="http://www.inkscape.org/namespaces/inkscape" xmlns:sodipodi="http://sodipodi.sourceforge.net/DTD/sodipodi-0.dtd" xmlns="http://www.w3.org/2000/svg" xmlns:svg="http://www.w3.org/2000/svg"><defs id="defs1"/><g><path id="path4" d="m 99.883331,178.58676 c 5.484399,3.78667 11.287469,7.2 17.631729,9.32 5.0876,1.69333 10.39334,2.69333 15.67707,3.54667 5.1612,0.84 10.47987,2.17333 15.72653,2.12 0.33467,-0.0133 0.48667,-0.28 0.46534,-0.54667 0.252,0.16 0.50533,0.30667 0.75333,0.48 0.52533,0.34667 1.01467,-0.50667 0.492,-0.84 -4.20133,-2.78667 -9.19733,-4.05333 -13.73733,-6.16 -5.366,-2.48 -10.4884,-5.46667 -15.59307,-8.44 -5.03387,-2.93333 -9.44213,-6.49333 -13.9396,-10.17333 -2.15413,-1.76 -4.4224,-3.37334 -6.55413,-5.16 -4.910402,-4.13334 -9.620269,-8.52 -14.082802,-13.12 -2.455733,-2.53334 -4.837467,-5.16 -6.9552,-7.98667 -1.417733,-1.89333 -2.986933,-4.06667 -3.402133,-6.45333 -0.107734,-0.61334 -1.0484,-0.34667 -0.941067,0.26666 0.3916,2.24 1.780667,4.28 3.074933,6.09334 1.894267,2.66666 4.089067,5.12 6.321867,7.49333 4.538533,4.84 9.4276,9.37333 14.4652,13.69333 1.723862,1.46667 3.518132,2.81334 5.310932,4.2 4.23013,3.28 8.1692,6.90667 12.65307,9.85334 4.87653,3.21333 10.13746,6.01333 15.31933,8.69333 4.85867,2.50667 10.048,4.13333 14.94933,6.52 0.22,0.10667 0.42934,0.22667 0.644,0.34667 -2.40266,-0.10667 -4.672,-0.82667 -6.93866,-1.61334 -2.532,-0.88 -5.088,-1.64 -7.64267,-2.45333 -5.334,-1.69333 -10.584,-3.65333 -15.5964,-6.14667 -7.46253,-3.72 -14.23493,-8.50666 -20.552132,-13.92 -4.9292,-4.22666 -9.716667,-8.62666 -14.2672,-13.25333 -4.615067,-4.69333 -9.9572,-10 -12.390133,-16.25333 -0.225467,-0.58667 -1.169733,-0.33334 -0.941067,0.26666 2.333867,5.98667 7.2448,11.05334 11.620267,15.62667 4.8276,5.04 9.995866,9.76 15.287999,14.30667 6.559996,5.62666 13.608936,10.50666 21.361996,14.37333 4.8792,2.42667 10.03547,4.28 15.21774,5.94667 2.55093,0.81333 5.1136,1.56 7.6416,2.45333 0.31866,0.10667 0.63733,0.21333 0.956,0.32 -2.84267,-0.44 -5.67867,-1.02667 -8.468,-1.48 -5.06867,-0.8 -10.10667,-1.8 -15.01294,-3.33333 -6.36933,-1.97334 -12.14693,-5.41334 -17.636,-9.14667 -6.742129,-4.57333 -13.042662,-9.82667 -18.824395,-15.56 -5.731334,-5.68 -11.024,-12.01333 -14.7708,-19.2 -0.2912,-0.56 -1.133333,-0.0667 -0.8428,0.49333 7.4344,14.25334 20.457866,25.8 33.518266,34.82667" style="fill:#577c69;fill-opacity:1;fill-rule:nonzero;stroke:none;stroke-width:0.133333"/><path id="path5" d="m 67.088532,156.37343 c 3.9912,4.6 8.068266,9.12 12.184933,13.61333 4.610933,5.02667 9.957733,9.05333 15.565066,12.94667 4.371333,3.02666 8.903199,5.81333 13.894269,7.70666 5.20053,1.96 10.98546,2.82667 16.47346,3.54667 7.2984,0.94667 14.64707,1.32 22.00574,1.33333 0.0427,0 0.0747,-0.0133 0.112,-0.0267 -0.08,0.10666 -0.12267,0.24 -0.0947,0.4 1.71733,9.66666 6.37733,18.73333 11.51867,27 5.56666,8.96 12.54933,16.76 19.304,24.81333 7.888,9.38666 15.336,19.05333 22.61599,28.92 6.89734,9.34666 14.83734,17.86666 22.12667,26.90666 6.11067,7.57334 11.528,15.94667 19.31867,21.96 0.49733,0.38667 0.98266,-0.46666 0.492,-0.84 -8.60934,-6.65333 -14.51867,-16.25333 -21.36134,-24.56 -7.656,-9.29333 -15.61466,-18.25333 -22.66933,-28.02666 -6.94133,-9.61334 -14.52133,-18.76 -22.16266,-27.82667 -6.916,-8.2 -13.67734,-16.28 -19.07867,-25.58666 -4.12933,-7.13334 -7.71467,-14.86667 -9.164,-23.01334 -0.056,-0.32 -0.33067,-0.4 -0.57067,-0.33333 0.18,-0.28 0.056,-0.76 -0.38666,-0.76 -11.98134,-0.0267 -24.12134,-0.89333 -35.7256,-4.04 -5.47134,-1.48 -10.41134,-4.53333 -15.068669,-7.68 -4.707867,-3.17333 -9.409867,-6.49333 -13.538,-10.4 -3.074,-2.92 -5.812533,-6.29333 -8.640133,-9.44 -3.942266,-4.4 -7.919333,-8.78667 -11.5896,-13.41333 -0.3964,-0.50667 -1.580666,-1.73334 -1.623466,-2.29334 -0.04787,-0.61333 -1.023867,-0.62666 -0.976,0 0.08173,1.06667 1.294266,2.2 1.909333,2.98667 1.644267,2.08 3.388,4.09333 5.128667,6.10667" style="fill:#577c69;fill-opacity:1;fill-rule:nonzero;stroke:none;stroke-width:0.133333"/><path id="path6" d="m 97.772931,187.84009 c 5.480129,3.24 11.094269,6.2 17.305199,7.72 5.63907,1.38667 11.2912,2.13334 17.074,2.52 4.4252,0.29334 9.20787,1.26667 13.4812,-0.38666 0.58133,-0.21334 0.32933,-1.16 -0.25867,-0.93334 -4.16,1.6 -8.90933,0.68 -13.22253,0.34667 -5.95267,-0.45333 -11.71933,-1.24 -17.52707,-2.65333 -6.0016,-1.48 -11.47813,-4.56 -16.759996,-7.69334 -6.701066,-3.96 -13.151466,-8.38666 -19.291599,-13.17333 -4.735467,-3.69333 -9.806267,-7.68 -13.296933,-12.62667 -0.359334,-0.50666 -1.206267,-0.0267 -0.842667,0.49334 3.5516,5.04 8.642667,9.05333 13.448933,12.82666 6.315067,4.94667 12.9844,9.48 19.890133,13.56" style="fill:#577c69;fill-opacity:1;fill-rule:nonzero;stroke:none;stroke-width:0.133333"/><path id="path7" d="m 74.481731,180.00009 c 1.646934,1.62667 3.467734,3.09334 5.298,4.49334 3.323334,2.57333 6.8104,5.30666 10.595733,7.17333 3.266667,1.61333 6.8704,2.76 10.313066,3.93333 4.01827,1.36 8.11773,2.48 12.27813,3.32 8.69174,1.73334 17.61094,1.72 26.43734,1.72 0.62933,0 0.62933,-0.97333 0,-0.97333 -8.2852,0 -16.59614,-0.0133 -24.78574,-1.44 -7.90213,-1.36 -15.535462,-4.02667 -22.937062,-7.05333 -3.621334,-1.48 -6.905733,-4.13334 -10.013467,-6.45334 -1.972933,-1.46666 -3.898,-3.01333 -5.717733,-4.68 -1.085467,-0.98666 -2.612,-2.22666 -3.084933,-3.68 -0.194267,-0.58666 -1.136933,-0.33333 -0.941067,0.26667 0.435334,1.33333 1.588,2.41333 2.557733,3.37333" style="fill:#577c69;fill-opacity:1;fill-rule:nonzero;stroke:none;stroke-width:0.133333"/><path id="path8" d="m 121.5948,206.74676 c -15.25307,-0.0533 -30.107336,-3.32 -43.424002,-10.92 -0.547333,-0.30667 -1.039067,0.53333 -0.492667,0.85333 13.459333,7.66667 28.498929,11 43.916669,11.04 0.62973,0 0.6292,-0.97333 0,-0.97333" style="fill:#577c69;fill-opacity:1;fill-rule:nonzero;stroke:none;stroke-width:0.133333"/><path id="path9" d="m 115.49586,209.18676 c -5.924,-0.04 -11.83853,-1.17333 -17.660396,-2.16 -6.51,-1.12 -12.934933,-2.76 -18.444799,-6.56 -0.519334,-0.36 -1.0068,0.49333 -0.4928,0.84 5.575066,3.85333 12.088533,5.52 18.678133,6.65333 5.901602,1.01334 11.914132,2.16 17.919862,2.21334 0.6292,0 0.6292,-0.97334 0,-0.98667" style="fill:#577c69;fill-opacity:1;fill-rule:nonzero;stroke:none;stroke-width:0.133333"/><path id="path10" d="m 110.61613,212.84009 c 0.62187,-0.0533 0.62707,-1.02666 0,-0.97333 -5.44587,0.48 -10.931732,0.28 -16.298399,-0.8 -5.090667,-1.02667 -9.9276,-3.05333 -14.799466,-4.78667 -0.594267,-0.21333 -0.847467,0.72 -0.259467,0.93334 4.888533,1.74666 9.711466,3.68 14.799066,4.78666 5.407734,1.18667 11.062396,1.33334 16.558266,0.84" style="fill:#577c69;fill-opacity:1;fill-rule:nonzero;stroke:none;stroke-width:0.133333"/><path id="path11" d="m 185.236,200.22676 c 0.0227,0.04 0.0427,0.0933 0.064,0.14667 -0.59867,-0.41334 -1.20667,-0.81334 -1.824,-1.18667 0.58266,0.34667 1.16933,0.69333 1.76,1.04 z m -28.572,-29.34667 c 0.0347,-0.0533 0.0573,-0.10666 0.0693,-0.16 0.12933,0.17334 0.24933,0.34667 0.38,0.50667 0.28933,0.36 0.74133,0.08 0.79733,-0.29333 1.56667,1.94666 3.20667,3.84 4.916,5.66666 0.26667,0.28 0.53334,0.57334 0.8,0.86667 -1.524,-1.4 -3.03733,-2.8 -4.528,-4.24 -0.81466,-0.77333 -1.62266,-1.56 -2.43466,-2.34667 z m -47.08334,-12.61333 c 6.68867,5.52 13.74534,10.58667 20.84174,15.58667 9.4776,6.65333 19.06826,13.46666 29.50826,18.56 8.53467,4.16 18.44,5.65333 26.31334,11.09333 0.0613,0.04 0.12266,0.0667 0.18133,0.08 0.11067,0.45333 0.20533,0.92 0.268,1.4 0.08,0.61333 1.056,0.61333 0.97467,0 -0.10667,-0.81333 -0.288,-1.61333 -0.52534,-2.4 0.352,-0.12 0.43067,-0.76 -0.0347,-0.94667 -0.116,-0.0533 -0.22667,-0.10666 -0.34134,-0.14666 -0.064,-0.17334 -0.12666,-0.34667 -0.19466,-0.50667 0,-0.0133 0,-0.0133 0,-0.0133 0.0533,0.0267 0.10666,0.0667 0.16,0.0933 0.552,0.30667 1.04533,-0.54667 0.492,-0.84 -0.30267,-0.17333 -0.60267,-0.34667 -0.904,-0.50667 -0.384,-1.49333 -1.02934,-2.92 -1.812,-4.26666 0.25066,-0.14667 0.39466,-0.49334 0.132,-0.76 -0.51467,-0.53334 -1.05467,-1.04 -1.608,-1.52 -0.48667,-0.69334 -0.99067,-1.37334 -1.496,-2.04 -0.008,-0.13334 -0.0667,-0.28 -0.212,-0.37334 -0.0587,-0.04 -0.11334,-0.0933 -0.172,-0.13333 -0.0747,-0.0933 -0.14934,-0.18667 -0.22267,-0.29333 -0.32267,-0.41334 -0.64267,-0.82667 -0.964,-1.25334 -0.116,-0.21333 -0.232,-0.44 -0.34667,-0.66666 0.38134,0.12 0.80934,-0.42667 0.47867,-0.82667 -0.79867,-0.97333 -1.57333,-1.96 -2.34,-2.96 -0.98,-2.10667 -1.90667,-4.24 -2.79867,-6.37333 -4.57466,-10.96 -7.36,-22.45334 -10.83733,-33.78667 -1.784,-5.8 -3.576,-11.6 -5.05733,-17.49333 -1.452,-5.78667 -2.364,-11.68 -3.596,-17.50667 -1.03067,-4.86666 -1.312,-10.013331 -1.79467,-14.959998 -0.30533,-3.133333 -0.57467,-6.266666 -0.732,-9.413333 -0.0667,-1.32 -0.62533,-4.213333 0.17067,-5.413333 0.348,-0.52 -0.49734,-1.013333 -0.84267,-0.493333 -0.72267,1.093333 -0.396,3.173333 -0.364,4.373333 0.0787,2.986666 0.33733,5.96 0.604,8.933333 0.492,5.466666 1.05067,10.946671 1.87333,16.386671 1.588,10.47999 4.22667,20.83999 7.30134,30.97333 3.45466,11.37333 6.33866,22.98666 10.53333,34.12 0.89733,2.38666 1.86933,4.73333 2.88533,7.05333 -0.99466,-1.38667 -1.96266,-2.8 -2.908,-4.24 -1.94533,-4.38667 -3.35466,-9.01333 -4.79733,-13.57333 -1.712,-5.41334 -3.64667,-10.74667 -5.62667,-16.06667 -2.12266,-5.70667 -4.22666,-11.42667 -6.024,-17.25333 -1.77066,-5.73334 -3.02,-11.61334 -4.296,-17.48 -1.28533,-5.90667 -1.59866,-12.10667 -2.12266,-18.120001 -0.32934,-3.76 -0.87067,-7.693333 -0.66,-11.48 0.0347,-0.626667 -0.94134,-0.626667 -0.976,0 -0.32134,5.813333 0.66133,11.88 1.23733,17.640001 0.704,7.05333 1.84533,13.74666 3.46667,20.65333 2.78,11.85333 7.35066,23.09333 11.45866,34.52 1.98134,5.52 3.532,11.25333 5.55334,16.78667 -2.77867,-4.52 -5.368,-9.14667 -7.84134,-13.81334 -4.14266,-7.84 -8.028,-15.57333 -10.49866,-24.10666 -2.44667,-8.45334 -4.14134,-17.13334 -5.508,-25.81333 -1.252,-7.94667 -2.228,-16.000004 -2.43867,-24.040004 -0.016,-0.613334 -0.0227,-1.213334 -0.0253,-1.826667 -0.003,-0.626667 -0.97734,-0.626667 -0.97467,0 0.032,7.506667 0.9,15 1.94533,22.426671 1.24134,8.79999 2.90134,17.57333 5.148,26.18666 0.96934,3.72 2.07867,7.4 3.42934,11 1.45733,3.88 3.41066,7.54667 5.28,11.24 4.096,8.09333 8.45733,16.06667 13.45333,23.64 1.128,2.53333 2.41467,5 3.96933,7.33333 0.76934,1.16 1.668,2.29334 2.60667,3.45334 -3.096,-2.77334 -5.74267,-6.05334 -8.21333,-9.38667 -3.34134,-4.50667 -6.45467,-9.18667 -9.52667,-13.88 -6.65467,-10.16 -12.29867,-20.84 -16.45067,-32.28 -5.068,-13.94667 -7.32533,-28.37333 -8.836,-43.053331 -0.21466,-2.08 -0.40666,-4.173333 -0.51733,-6.266667 -0.0413,-0.76 -0.33333,-2.946666 0.0547,-3.453333 0.38133,-0.48 -0.304,-1.173333 -0.69067,-0.68 -0.7264,0.933333 -0.4,2.786667 -0.352,3.853333 0.12267,2.826667 0.42667,5.653334 0.732,8.453334 0.612,5.626666 1.34267,11.253334 2.18,16.853334 0.476,3.18667 1.28267,6.32 2.06267,9.44 1.45066,5.8 3.068,11.53333 5.17733,17.14666 4.13733,11 9.76,21.25334 16.18933,31.08 3.17334,4.84 6.41867,9.66667 9.89867,14.30667 2.296,3.05333 4.78533,6.01333 7.636,8.56 -1.72267,-1.21333 -3.44533,-2.42667 -5.05067,-3.77333 -0.17866,-0.14667 -0.352,-0.29334 -0.52933,-0.45334 -1.38533,-1.34666 -2.724,-2.76 -4.044,-4.16 -3.77067,-4.01333 -7.54,-8.02666 -10.85467,-12.44 -6.91333,-9.2 -11.592,-19.88 -16.436,-30.25333 -2.596,-5.56 -4.87333,-11.21333 -6.772,-17.05333 -1.0304,-3.16 -2.15853,-6.33334 -2.76893,-9.61333 -1.136,-6.09334 -2.04333,-12.253338 -2.7324,-18.426671 -0.19947,-1.786667 -0.9052,-4.52 -0.28747,-6.293333 0.2088,-0.586667 -0.73333,-0.84 -0.94013,-0.253334 -0.53013,1.506667 -0.0391,3.653334 0.11,5.186667 0.30093,3.106666 0.72907,6.2 1.17333,9.280001 0.7964,5.52 1.5828,10.98667 3.22814,16.33333 3.46946,11.26667 8.29746,21.73333 13.43346,32.32 1.37067,2.81333 2.74667,5.61333 4.22534,8.36 -2.06934,-3.41333 -4.09467,-6.84 -6.21867,-10.17333 -2.976,-4.66667 -5.356,-9.76 -7.716,-14.76 -6.22147,-13.17334 -12.09853,-26.81333 -16.04227,-40.866668 -0.16986,-0.6 -1.11146,-0.346666 -0.94066,0.253334 3.9672,14.133334 9.9016,27.853334 16.14026,41.106664 2.38934,5.08 4.82934,10.22667 7.85334,14.97333 3.70266,5.81334 7.104,11.92 10.984,17.65334 -0.972,-1.21334 -1.96667,-2.4 -2.98667,-3.57334 -8.052,-11.01333 -17.1904,-21.30666 -23.86907,-33.22666 -3.0756,-5.49334 -5.94946,-11.10667 -8.55266,-16.84 -2.17387,-4.78667 -5.06147,-10.46667 -5.13534,-15.840001 -0.009,-0.64 -0.9844,-0.64 -0.97613,0 0.0715,5.173331 2.67867,10.466671 4.71987,15.106671 2.62493,5.95999 5.61666,11.77333 8.77293,17.47999 5.08587,9.18667 11.63107,17.38667 18.0524,25.68 -2.52133,-2.68 -5.08533,-5.33333 -7.75733,-7.84 -2.9196,-2.74666 -6.23987,-5.30666 -8.63734,-8.54666 -1.20466,-1.62667 -2.31293,-3.33334 -3.42493,-5.02667 -3.5724,-5.42667 -6.9984,-10.96 -10.2584,-16.58667 -1.5348,-2.64 -3.02547,-5.31999 -4.3968,-8.05333 -0.90467,-1.8 -1.93747,-3.73333 -2.29227,-5.74666 -0.10933,-0.61334 -1.05,-0.36 -0.94106,0.25333 0.314,1.78667 1.1896,3.50667 1.96453,5.12 1.28173,2.66667 2.7308,5.26666 4.19947,7.84 3.3152,5.81333 6.8532,11.50666 10.50986,17.10666 1.16987,1.78667 2.35,3.57334 3.6,5.32 2.0876,2.89334 4.8964,5.25334 7.51774,7.65334 3.96453,3.62666 7.6432,7.56 11.33386,11.46666 1.616,1.70667 3.208,3.44 4.75734,5.21334 0.828,1.13333 1.644,2.28 2.44533,3.42666 -5.89867,-5.74666 -11.772,-11.52 -17.772,-17.17333 -4.2848,-4.04 -8.15147,-8.57333 -12.0124,-13.01333 -5.25573,-6.04 -10.39173,-12.2 -15.1172,-18.66667 -1.8276,-2.50667 -3.6136,-5.06666 -5.08907,-7.78666 -0.29946,-0.54667 -1.14213,-0.0667 -0.84213,0.49333 3.1604,5.84 7.48173,11.10666 11.63387,16.26666 4.82026,5.97334 9.84626,11.8 15.03373,17.46667 5.13187,5.6 10.8132,10.6 16.27453,15.86667 3.43734,3.33333 6.824,6.69333 10.23067,10.02666 0.33067,0.50667 0.66533,1.01334 0.988,1.53334 0.176,0.26666 0.48933,0.26666 0.70133,0.12 4.59467,4.48 9.24934,8.90666 14.14667,13.08 0.304,0.26666 0.60933,0.52 0.91467,0.77333 2.576,2.53333 5.31066,4.88 8.392,6.76 0.19733,0.12 0.38666,0.0933 0.52266,-0.0267 0.34534,0.25334 0.68667,0.50667 1.024,0.77334 0.65067,1.08 1.34667,2.17333 2.02934,3.26666 -9.68267,-5.73333 -18.572,-12.74666 -26.93867,-20.26666 -8.784,-7.88 -17.00667,-16.37334 -26.2856,-23.69334 -5.1844,-4.09333 -9.65893,-9.13333 -14.0464,-14.04 -5.4068,-6.04 -10.7256,-12.32 -15.16827,-19.12 -0.523462,-0.8 -1.021329,-1.61333 -1.496796,-2.45333 -0.312533,-0.54667 -1.155733,-0.0533 -0.8428,0.49333 3.697466,6.46667 8.624536,12.29334 13.448536,17.92 4.7504,5.54667 9.6776,11.06667 15.10773,15.97334 3.37453,3.04 7.05427,5.74666 10.45427,8.77333 4.39733,3.92 8.63333,8.01333 12.92666,12.04 8.51067,7.98667 17.42,15.53333 27.15467,22 2.20267,1.45333 4.46,2.82667 6.752,4.14667 0.18667,0.32 0.36667,0.64 0.544,0.97333 -4.212,-2.49333 -8.284,-5.21333 -12.56,-7.58667 -4.85867,-2.70666 -9.668,-5.50666 -14.188,-8.74666 -4.90267,-3.53334 -9.18267,-7.84 -13.60667,-11.92 -4.436,-4.10667 -8.916,-8.16 -13.53573,-12.05334 -4.95787,-4.17333 -9.6448,-8.32 -14.14747,-13 -5.48693,-5.70666 -10.79426,-11.58666 -15.8448,-17.68 -3.146796,-3.8 -6.324929,-7.69333 -8.801996,-11.97333 -0.3152,-0.54667 -1.158933,-0.0533 -0.8428,0.49333 3.300534,5.69334 7.741734,10.81334 12.014666,15.78667 5.01867,5.85333 10.25,11.54667 15.6708,17.02667 5.2604,5.32 11.14693,9.82666 16.74867,14.78666 8.62133,7.61334 16.536,16.10667 26.25066,22.36 3.968,2.56 8.13067,4.77334 12.22267,7.13334 3.06,1.74666 6.00667,3.69333 9.016,5.53333 -3.348,-2.01333 -6.89867,-3.74667 -10.284,-5.65333 -4.81867,-2.70667 -9.78933,-5.13334 -14.57067,-7.92 -10.27466,-5.97334 -18.81466,-14.64 -28.02453,-22.08 -5.42707,-4.38667 -11.00467,-8.45334 -16.21667,-13.09334 -5.82133,-5.18666 -11.4848,-10.56 -16.935329,-16.14666 -4.064667,-4.14667 -8.288,-8.45334 -11.454133,-13.34667 -0.3396,-0.53333 -1.184933,-0.04 -0.8428,0.48 3.5552,5.52 8.364133,10.29333 12.950533,14.93333 5.404669,5.46667 11.020799,10.73334 16.781329,15.82667 5.54267,4.89333 11.54574,9.17333 17.26707,13.85333 8.8732,7.26667 17.1332,15.34667 27.1292,21.08 4.604,2.65334 9.376,4.98667 14.00267,7.58667 1.32933,0.74667 2.68266,1.46667 4.03866,2.18667 -1.48266,-0.53334 -2.97333,-1.06667 -4.44933,-1.62667 -5.6,-2.12 -10.85333,-5.10667 -15.92267,-8.26667 -10.28266,-6.41333 -20.052,-13.66666 -29.88026,-20.73333 -4.49787,-3.24 -8.9468,-6.37333 -13.15827,-9.96 -4.4704,-3.81333 -8.87973,-7.69333 -13.22867,-11.64 -3.997996,-3.62667 -7.957862,-7.30667 -11.717729,-11.18667 -1.360933,-1.4 -2.696933,-2.84 -3.914533,-4.36 -0.301067,-0.38666 -1.7568,-2 -1.4912,-2.57333 0.264533,-0.56 -0.576533,-1.06667 -0.842667,-0.49333 -0.4068,0.86666 0.299467,1.88 0.7672,2.57333 1.076,1.6 2.4228,3.04 3.739067,4.44 4.125466,4.41333 8.594266,8.50667 13.060933,12.56 4.319199,3.92 8.704669,7.76 13.144269,11.54667 4.0176,3.42666 8.25253,6.41333 12.5452,9.49333 10.038,7.22667 20.01533,14.58667 30.48333,21.18667 4.94267,3.10666 10.08,5.93333 15.50533,8.10666 2.98934,1.2 6.06267,2.16 9.03067,3.41334 0.99867,0.42666 1.91867,0.98666 2.832,1.56 -3.34533,-1.73334 -6.928,-2.97334 -10.51867,-4.17334 -5.456,-1.81333 -10.71866,-3.90666 -15.804,-6.61333 -10.37066,-5.50667 -20.03066,-12.52 -29.5744,-19.32 -12.8896,-9.18667 -24.8876,-19.33333 -36.798529,-29.74667 -3.619733,-3.16 -7.269733,-6.32 -10.7364,-9.64 -0.4536,-0.44 -1.144266,0.25334 -0.690133,0.68 9.699466,9.32 20.173466,17.97334 30.537462,26.54667" style="fill:#577c69;fill-opacity:1;fill-rule:nonzero;stroke:none;stroke-width:0.133333"/><path id="path22" d="m 63.350532,281.05342 c -6.596933,-3.66666 -13.607333,-6.81333 -19.236533,-11.96 -0.463467,-0.41333 -1.1556,0.26667 -0.69,0.69334 5.532266,5.05333 12.3776,8.26666 18.896266,11.81333 6.4084,3.49333 13.839066,5 19.912,9.08 0.483333,0.33333 0.925066,-0.36 0.586533,-0.74667 2.084267,1.22667 4.166666,2.44 6.2448,3.68 0.542666,0.32 1.033333,-0.52 0.492666,-0.84 -0.038,-0.0267 -0.0756,-0.0533 -0.1136,-0.0667 0.0756,-0.16 0.062,-0.36 -0.112933,-0.50667 -5.81,-5.17333 -11.3328,-10.66667 -17.515733,-15.4 -3.313466,-2.53333 -6.9796,-4.50667 -10.5932,-6.58667 -4.671333,-2.68 -9.331199,-5.38666 -13.824933,-8.34666 -3.287999,-2.17334 -7.581333,-4.70667 -9.542799,-8.28 -0.302534,-0.56 -1.1452,-0.0667 -0.842667,0.49333 1.794267,3.26667 5.474533,5.58667 8.4536,7.65333 4.443333,3.06667 9.1272,5.78667 13.804266,8.49334 3.2916,1.89333 6.7396,3.64 9.864533,5.81333 6.2964,4.37333 11.7776,9.8 17.429733,14.97333 -16.252133,-9.57333 -32.709466,-18.8 -48.884399,-28.49333 -0.5412,-0.33333 -1.0312,0.52 -0.492133,0.84 13.856133,8.30667 27.920799,16.26667 41.885866,24.4 -5.0984,-2.52 -10.7344,-3.93333 -15.721333,-6.70667" style="fill:#577c69;fill-opacity:1;fill-rule:nonzero;stroke:none;stroke-width:0.133333"/><path id="path23" d="m 81.632265,291.41342 c -6.9552,-2.10666 -13.857733,-3.73333 -20.385333,-7.04 -6.2,-3.14666 -11.964133,-7.08 -18.207333,-10.14666 -0.562533,-0.28 -1.057333,0.56 -0.492667,0.84 6.242667,3.06666 12.033733,6.94666 18.2072,10.14666 3.366666,1.74667 6.857333,3.01334 10.4052,4.13334 -3.6812,-0.84 -7.4036,-1.56 -10.977067,-2.72 -6.7516,-2.2 -13.427066,-5.13334 -19.094799,-9.46667 -0.499467,-0.38667 -0.9848,0.46667 -0.492134,0.84 5.5828,4.26667 12.115067,7.12 18.735867,9.37333 6.784933,2.30667 14.120932,2.89334 20.740666,5.64 0.5812,0.24 0.831733,-0.70666 0.259333,-0.94666 -0.06093,-0.0267 -0.1228,-0.04 -0.184267,-0.0667 0.4088,0.12 0.817067,0.24 1.226,0.36 0.604134,0.18667 0.859867,-0.76 0.259334,-0.94667" style="fill:#577c69;fill-opacity:1;fill-rule:nonzero;stroke:none;stroke-width:0.133333"/><path id="path24" d="m 113.79173,308.17342 c 3.9504,0.21334 7.92387,0.22667 11.87907,0.32 1.4276,0.04 2.85946,0.0133 4.27133,-0.13333 0.26987,0.04 0.53907,0.0667 0.80947,0.0933 -14.11254,3 -28.82347,2.58667 -42.872402,-0.73333 -7.435467,-1.74667 -14.421867,-4.61333 -21.607333,-7.12 -6.547866,-2.29333 -13.539066,-3.82667 -19.3292,-7.82667 -0.519199,-0.36 -1.006266,0.48 -0.492133,0.84 5.678133,3.92 12.55,5.56 19.0036,7.73334 7.636,2.57333 14.984399,5.62666 22.857866,7.48 15.484932,3.65333 31.948932,3.6 47.318662,-0.53334 0.608,-0.16 0.34934,-1.09333 -0.25866,-0.93333 -0.40667,0.10667 -0.816,0.2 -1.224,0.30667 -0.19067,0 -0.38,-0.0133 -0.56934,-0.0267 0.624,-0.18667 1.24,-0.41333 1.844,-0.69333 0.56934,-0.26667 0.0733,-1.10667 -0.49333,-0.84 -1.588,0.74666 -3.2684,1.10666 -4.98093,1.28 -3.0484,-0.33334 -6.06867,-0.90667 -9.1,-1.4 -4.29574,-0.70667 -8.626,-1.14667 -12.91614,-1.90667 -8.733329,-1.54667 -17.628662,-3.25333 -26.070795,-6 -7.3776,-2.4 -14.531733,-5.34667 -21.982266,-7.53333 -6.612534,-1.94667 -13.8552,-3.94667 -19.017733,-8.76 -0.459867,-0.42667 -1.151067,0.25333 -0.690134,0.69333 4.884934,4.56 11.564133,6.64 17.827067,8.52 7.533333,2.26667 14.832266,5.02667 22.269866,7.57333 8.625466,2.96 17.731199,4.65334 26.683865,6.32 4.5276,0.84 9.09427,1.30667 13.63693,2.04 1.08854,0.16 2.174,0.36 3.25934,0.53334 -3.59574,-0.10667 -7.19574,-0.12 -10.788,-0.30667 -8.40934,-0.45333 -16.731736,-1.89333 -24.938536,-3.73333 -15.488532,-3.46667 -30.535865,-8.81334 -44.757332,-15.86667 -0.561466,-0.26667 -1.056133,0.57333 -0.492133,0.85333 14.735466,7.29334 30.308266,12.72 46.363999,16.26667 8.086,1.78667 16.281862,3.05333 24.555332,3.49333" style="fill:#577c69;fill-opacity:1;fill-rule:nonzero;stroke:none;stroke-width:0.133333"/><path id="path25" d="m 122.75053,317.53342 c 0.90987,-0.4 1.8188,-0.81333 2.72653,-1.21333 0.11987,-0.04 0.24014,-0.08 0.35987,-0.12 -0.93907,0.65333 -1.93387,1.22667 -2.96147,1.73333 0.012,-0.14666 -0.0348,-0.29333 -0.12493,-0.4 z m -11.1016,3.22667 c 1.5756,-0.50667 3.15,-1.02667 4.7256,-1.54667 -0.7548,0.32 -1.51093,0.64 -2.26773,0.96 -0.81614,0.21334 -1.63547,0.4 -2.45787,0.58667 z m -1.47867,-2.68 c 3.69587,-0.54667 7.20947,-1.76 10.72974,-2.93333 2.22546,-0.17334 4.45266,-0.44 6.64693,-0.85334 -0.8,0.36 -1.6016,0.72 -2.4032,1.08 -1.88173,0.57334 -3.75987,1.16 -5.63387,1.76 -0.0661,-0.22666 -0.28693,-0.42666 -0.59733,-0.34666 -1.87187,0.48 -3.75373,0.90666 -5.64227,1.28 -1.03333,0.0133 -2.06666,0.0133 -3.1,0.0133 z m 19.46667,-5.37333 c -0.11187,0.10666 -0.2244,0.2 -0.33427,0.30666 -1.08546,0.24 -2.18546,0.37334 -2.83493,0.48 -0.19227,0.04 -0.386,0.0533 -0.57813,0.0933 1.23493,-0.34667 2.4812,-0.65334 3.74733,-0.88 z m -23.03533,20.49333 c 5.64266,-3.24 11.00146,-6.82667 16.376,-10.48 4.07546,-2.76 8.6464,-5.72 10.66773,-10.41333 0.13867,-0.32 -0.068,-0.61334 -0.31773,-0.70667 0.008,-0.0267 0.0244,-0.04 0.0324,-0.0667 0.24933,-0.58666 -0.71307,-0.84 -0.95787,-0.25333 -0.0792,0.18667 -0.20267,0.34667 -0.35373,0.50667 0.0303,-0.37334 -0.32547,-0.74667 -0.6968,-0.48 -0.18027,0.13333 -0.35214,0.28 -0.52707,0.41333 -0.10893,-0.10667 -0.2552,-0.17333 -0.4376,-0.14667 -3.3604,0.50667 -6.5708,1.54667 -9.77493,2.6 -0.66307,0.0533 -1.32654,0.10667 -1.98854,0.14667 -7.85986,0.48 -15.74533,0.0133 -23.572396,-0.74667 -9.181333,-0.88 -17.829733,-2.62666 -26.462532,-5.92 -8.421867,-3.22666 -16.445867,-7.38666 -24.55,-11.32 -0.574533,-0.26666 -1.078666,0.58667 -0.502133,0.86667 8.393333,4.06667 16.704266,8.32 25.425599,11.65333 8.952,3.42667 18.0104,4.96 27.509866,5.85334 6.798936,0.64 13.635466,0.97333 20.457866,0.68 -2.52347,0.8 -5.07667,1.49333 -7.7276,1.84 -7.49427,0.98666 -15.154799,0.2 -22.645332,-0.42667 -14.4964,-1.22667 -27.531733,-8.64 -40.155732,-15.25333 -0.5672,-0.30667 -1.069867,0.56 -0.502134,0.85333 11.4104,5.98667 22.912,12.29333 35.656266,14.66667 -0.4016,-0.0267 -0.804133,-0.0533 -1.206267,-0.0933 -5.682266,-0.50666 -11.432799,-1.05333 -16.872399,-2.85333 -4.908267,-1.62667 -9.535333,-3.98667 -14.4948,-5.46667 -0.6156,-0.18666 -0.876533,0.77334 -0.264,0.96 4.956267,1.48 9.608267,3.78667 14.4948,5.46667 5.040533,1.73333 10.423466,2.22667 15.699466,2.74667 9.4312,0.94666 18.917733,1.21333 28.396402,1.24 -7.11307,1 -14.311469,1.32 -21.520935,1.29333 -10.771334,-0.0533 -21.759333,-0.12 -31.287466,-5.8 -0.552134,-0.33333 -1.0516,0.53333 -0.5016,0.85333 9.305733,5.54667 19.820932,5.78667 30.355199,5.92 9.729733,0.13334 19.475602,-0.38666 29.014132,-2.26666 0.076,0 0.152,0 0.22813,0 -3.17293,1.04 -6.3464,2.06666 -9.5328,3.06666 -4.519862,0.64 -9.088529,1.01334 -13.634929,1.36 -5.525066,0.42667 -11.078133,1.12 -16.6208,1.18667 -3.041199,0.04 -6.053199,-0.33333 -8.980266,-1.16 -2.334933,-0.65333 -4.409867,-1.98667 -6.8656,-2.2 -0.638533,-0.0533 -0.633333,0.93333 0,0.98667 2.762533,0.25333 5.310933,1.86666 7.9912,2.54666 2.556133,0.65334 5.228,0.81334 7.854666,0.82667 5.530134,0.0133 11.1088,-0.77333 16.6208,-1.18667 2.688533,-0.2 5.386933,-0.42666 8.0792,-0.69333 -0.989067,0.29333 -1.9776,0.57333 -2.971333,0.84 -5.259467,1.45333 -10.611467,2.58667 -15.9516,3.69333 -5.587067,1.14667 -11.207866,1.74667 -16.898,1.12 -0.636933,-0.0667 -0.6296,0.92 0,0.98667 5.326134,0.6 10.578667,0.0933 15.825067,-0.89333 5.560933,-1.04 11.122399,-2.30667 16.590133,-3.76 3.1124,-0.81334 6.197332,-1.73334 9.270262,-2.69334 1.4136,-0.2 2.82294,-0.42666 4.22454,-0.68 -3.37707,1.33334 -6.7756,2.61334 -10.208402,3.81334 -10.867734,3.8 -21.986933,6.86666 -32.578133,11.42666 -0.586933,0.25334 -0.08013,1.10667 0.502133,0.85334 10.728667,-4.61334 22.014533,-7.70667 33.024933,-11.56 5.107869,-1.77334 10.141199,-3.76 15.129729,-5.84 1.11774,-0.29334 2.2276,-0.62667 3.33067,-0.97334 -0.94787,0.37334 -1.89053,0.76 -2.81187,1.16 -5.8828,2.53334 -11.40373,5.93334 -17.131329,8.8 -4.727067,2.37334 -9.150533,5.26667 -13.790133,7.8 -4.785867,2.6 -10.076533,4.92 -15.640533,4.57334 -0.640667,-0.04 -0.637067,0.94666 0,0.98666 10.703066,0.66667 19.831199,-7.33333 28.811999,-11.94666 5.913466,-3.02667 11.717196,-6.37334 17.756666,-9.14667 4.59013,-2.10667 9.68547,-3.48 13.46053,-6.98667 0.0203,-0.0133 0.0369,-0.0267 0.0536,-0.04 0.11307,-0.10666 0.22867,-0.21333 0.33907,-0.32 0.0885,-0.0933 0.12293,-0.18666 0.1344,-0.28 1.01147,-0.46666 2.02293,-0.93333 3.0328,-1.38666 -2.37653,3.97333 -6.65733,6.58666 -10.4084,9.13333 -5.07547,3.45333 -10.16973,6.8 -15.49533,9.86667 -5.50574,3.17333 -11.038536,6.37333 -16.782802,9.10666 -2.7104,1.28 -5.513467,2.32 -8.342667,3.30667 -2.750533,0.96 -5.645866,1.84 -8.588533,1.61333 -0.628133,-0.04 -0.623466,0.93334 0,0.97334 5.413067,0.41333 11.2984,-2.33334 16.1396,-4.46667 6.238,-2.76 12.156262,-6.30667 18.067202,-9.68" style="fill:#577c69;fill-opacity:1;fill-rule:nonzero;stroke:none;stroke-width:0.133333"/><path id="path26" d="m 37.181199,249.53342 c 11.031333,4.98667 21.655733,11.26667 31.901599,17.68 4.702667,2.94667 9.054667,6.09334 13.249467,9.70667 5.648933,4.86667 12.947999,10.42667 13.311466,18.54667 0.02867,0.64 1.022933,0.64 0.994267,0 -0.338,-7.53334 -6.3292,-12.97334 -11.659333,-17.58667 -4.3532,-3.76 -8.660934,-7.21333 -13.508933,-10.33333 -10.771867,-6.92 -22.1,-13.58667 -33.786933,-18.86667 -0.5792,-0.26667 -1.084933,0.6 -0.5016,0.85333" style="fill:#577c69;fill-opacity:1;fill-rule:nonzero;stroke:none;stroke-width:0.133333"/><path id="path27" d="m 74.185465,263.94676 c -5.792267,-4.33334 -11.801067,-8.38667 -17.993733,-12.12 -4.918267,-2.96 -10.190666,-6.14667 -15.804266,-7.58667 -0.956267,-0.25333 -1.966667,-0.41333 -2.955734,-0.34666 -0.6344,0.0533 -0.6396,1.05333 0,1 1.9928,-0.14667 4.027067,0.64 5.849467,1.34666 2.899067,1.13333 5.6704,2.6 8.386,4.10667 6.362533,3.53333 12.454666,7.57333 18.379199,11.8 4.416133,3.14666 8.998933,6.36 12.8348,10.22666 2.840133,2.85334 5.557333,5.89334 8.3084,8.82667 3.4692,3.72 6.812,7.72 8.804133,12.45333 0.356269,0.84 0.628669,1.72 0.872399,2.6 0.1708,0.61334 1.13027,0.34667 0.95893,-0.26666 -2.502662,-9.04 -10.096396,-15.49334 -16.246395,-22.12 -3.4672,-3.74667 -7.305734,-6.86667 -11.3932,-9.92" style="fill:#577c69;fill-opacity:1;fill-rule:nonzero;stroke:none;stroke-width:0.133333"/><path id="path28" d="m 45.098399,241.37343 c 5.787066,3.2 11.461466,6.59999 17.098933,10.05333 4.2928,2.62666 8.5876,5.26666 12.767733,8.06666 7.4276,4.97334 12.985999,12.56 18.947466,19.09334 2.5312,2.77333 5.032267,5.58666 7.184799,8.66666 1.986,2.84 2.98293,6.13334 4.69853,9.12 0.3192,0.54667 1.17814,0.0533 0.85827,-0.50666 -1.276,-2.22667 -2.0968,-4.65334 -3.30413,-6.90667 -1.25934,-2.36 -3.0156,-4.49333 -4.716669,-6.53333 -3.584933,-4.30667 -7.4412,-8.44 -11.1864,-12.61334 -4.375066,-4.86666 -9.012533,-9.29333 -14.504799,-12.84 -10.221867,-6.6 -20.6572,-13.05333 -31.459866,-18.66666 -1.911467,-0.98667 -4.816667,-2.98667 -7.097334,-2.86667 -0.637066,0.04 -0.640666,1.02667 0,1 1.258267,-0.08 2.769734,0.85334 3.857734,1.36 2.333333,1.09334 4.601066,2.33334 6.855733,3.57334" style="fill:#577c69;fill-opacity:1;fill-rule:nonzero;stroke:none;stroke-width:0.133333"/><path id="path29" d="m 79.527598,258.01342 c -9.7536,-7.32 -19.718266,-14.37333 -29.776533,-21.26666 -2.6084,-1.78667 -5.228133,-3.56 -7.895866,-5.25333 -1.3484,-0.86667 -2.765067,-1.89334 -4.2912,-2.41334 -0.607733,-0.21333 -0.866667,0.74667 -0.264,0.96 1.2156,0.41334 2.354667,1.24 3.436,1.92 2.080667,1.29334 4.118667,2.66667 6.150933,4.04 5.442267,3.66667 10.81,7.45334 16.157866,11.26667 4.826,3.44 9.633334,6.89333 14.395333,10.42666 4.8744,3.61334 9.1656,7.65334 13.212533,12.2 7.6452,8.6 14.852536,17.61334 19.321866,28.30667 0.2432,0.58667 1.2052,0.33333 0.95827,-0.26667 -4.0328,-9.65333 -10.19014,-17.82666 -16.954136,-25.72 -4.4188,-5.16 -9.008933,-10.12 -14.451066,-14.2" style="fill:#577c69;fill-opacity:1;fill-rule:nonzero;stroke:none;stroke-width:0.133333"/><path id="path30" d="m 114.8364,298.26676 c -2.8504,-10.44 -9.18427,-19.64 -16.020269,-27.88 -5.5516,-6.68 -12.2364,-11.78667 -19.0088,-17.13334 -9.995333,-7.89333 -20.019866,-15.78666 -30.462532,-23.07999 -3.749467,-2.62667 -7.566133,-5.28 -11.662,-7.33334 -0.5708,-0.29333 -1.0744,0.56 -0.5016,0.85334 5.531333,2.78666 10.616666,6.53333 15.625066,10.14666 6.064534,4.37334 12.0052,8.92 17.902133,13.50667 3.209867,2.50666 6.372267,5.06666 9.595733,7.54666 4.2776,3.29334 8.5428,6.54667 12.428133,10.30667 4.1068,3.97333 7.700536,8.54667 11.011996,13.18667 4.36774,6.13333 8.14214,12.84 10.13387,20.14666 0.16827,0.61334 1.12707,0.34667 0.95827,-0.26666" style="fill:#577c69;fill-opacity:1;fill-rule:nonzero;stroke:none;stroke-width:0.133333"/><path id="path31" d="m 120.36666,301.52009 c -1.8188,-9.73333 -6.28693,-18.14667 -12.73693,-25.58667 -5.95107,-6.86666 -12.480266,-13.28 -19.037066,-19.57333 -8.346266,-8 -16.949999,-15.76 -25.770799,-23.24 -5.0896,-4.30666 -10.276,-8.52 -15.672933,-12.45333 -3.930666,-2.85333 -8.0672,-5.8 -12.631733,-7.57333 -0.598933,-0.22667 -0.855733,0.73333 -0.264533,0.96 5.085333,1.97333 9.6676,5.44 14.008799,8.65333 5.954667,4.42667 11.654134,9.18667 17.267733,14.04 7.9104,6.81333 15.692667,13.84 23.188533,21.12 6.692133,6.49333 13.440669,13.05333 19.435869,20.21333 5.7724,6.88 9.6016,14.86667 11.25426,23.69333 0.1176,0.64 1.07547,0.37334 0.9588,-0.25333" style="fill:#577c69;fill-opacity:1;fill-rule:nonzero;stroke:none;stroke-width:0.133333"/><path id="path32" d="m 34.252666,208.65343 c 4.678,1.77333 8.912933,4.93333 12.933733,7.84 5.8172,4.21333 11.395333,8.76 16.895866,13.37333 9.580266,8.04 18.9432,16.36 28.007866,24.98666 5.559333,5.28 10.414529,11.21334 14.961469,17.38667 3.44213,4.66667 6.83066,9.44 9.9072,14.36 3.2776,5.24 6.09906,11.04 6.33493,17.32 0.024,0.64 1.01827,0.64 0.99373,0 -0.3864,-10.28 -7.09426,-18.98667 -12.73693,-27.08 -5.05573,-7.25333 -10.40987,-14.53333 -16.737466,-20.74667 -7.9912,-7.85333 -16.432399,-15.27999 -24.915199,-22.58666 -6.410933,-5.52 -12.9296,-10.92 -19.692666,-16.01333 -4.838533,-3.64 -9.976,-7.62667 -15.688,-9.8 -0.6,-0.22667 -0.857333,0.73333 -0.264533,0.96" style="fill:#577c69;fill-opacity:1;fill-rule:nonzero;stroke:none;stroke-width:0.133333"/><path id="path33" d="m 126.39266,302.46676 c 0.05,0.0133 0.1,0.0133 0.15,0.0267 0.224,0.0267 0.41574,-0.17333 0.4792,-0.37333 0.1604,-0.48 -0.0812,-1.01333 -0.23226,-1.46667 -0.3792,-1.14666 -0.7636,-2.30666 -1.1688,-3.45333 -0.95627,-2.69333 -2.15054,-5.30667 -3.40054,-7.88 -2.55413,-5.26667 -5.51293,-10.34667 -8.57386,-15.32 -3.83854,-6.24 -8.00267,-12.48 -13.06307,-17.8 -7.905732,-8.32 -16.301599,-16.21333 -24.709332,-24.02666 -7.111466,-6.6 -14.332266,-13.10667 -21.814666,-19.29334 -5.021333,-4.14666 -10.354666,-8.90666 -16.376533,-11.56 -0.580667,-0.26666 -1.086933,0.6 -0.5016,0.85334 4.093333,1.8 7.7568,4.74666 11.263066,7.46666 5.266667,4.09334 10.325067,8.45334 15.319733,12.88 10.201067,9.02667 20.122,18.38667 29.7964,27.97333 4.1756,4.13334 8.186532,8.22667 11.727602,12.93334 4.5156,6 8.45373,12.42666 12.13133,18.96 1.83373,3.26666 3.58173,6.57333 5.14213,9.97333 0.8692,1.89333 1.64534,3.82667 2.3416,5.78667 0.26987,0.76 0.4964,1.54666 0.7636,2.30666 0.10787,0.29334 0.20987,0.6 0.3068,0.89334 0,0.13333 0.0156,0.21333 0.0396,0.28 -0.1964,0.26666 -0.0709,0.78666 0.3796,0.84" style="fill:#577c69;fill-opacity:1;fill-rule:nonzero;stroke:none;stroke-width:0.133333"/><path id="path34" d="m 130.45053,302.49342 c -0.91307,-4.94666 -3.0484,-9.64 -5.2984,-14.10666 -3.11773,-6.17334 -6.81147,-12.06667 -10.6756,-17.8 -8.94427,-13.28 -19.065066,-25.81333 -29.852532,-37.64 -5.481333,-6 -11.1876,-11.82667 -17.232266,-17.26667 -4.498534,-4.05333 -9.2308,-8.01333 -14.474,-11.06666 -0.554667,-0.33334 -1.054667,0.53333 -0.5016,0.85333 4.836933,2.82667 9.199466,6.42667 13.386533,10.13333 5.444667,4.8 10.576,9.97334 15.5432,15.26667 11.126533,11.86667 21.458265,24.56 30.717735,37.94666 4.17853,6.04 8.1312,12.25334 11.55,18.76 2.5088,4.77334 4.89266,9.84 5.87813,15.18667 0.11667,0.62667 1.0744,0.36 0.9588,-0.26667" style="fill:#577c69;fill-opacity:1;fill-rule:nonzero;stroke:none;stroke-width:0.133333"/><path id="path35" d="m 132.0948,302.62676 c 0.0599,-2.56 -0.61827,-4.94667 -1.4156,-7.34667 -0.9568,-2.89333 -1.95107,-5.77333 -2.99694,-8.64 -1.29626,-3.54667 -2.60306,-7.17333 -4.36093,-10.52 -2.37653,-4.53333 -5.33907,-8.78667 -8.2724,-12.97333 -8.44427,-12.05334 -17.682266,-23.61333 -27.564532,-34.52 -3.966667,-4.37333 -8.0756,-8.64 -12.482267,-12.57333 -2.983333,-2.65334 -6.210933,-5.41334 -9.895866,-7.05334 -0.580267,-0.26666 -1.086533,0.6 -0.502133,0.85334 4.4808,2 8.2932,5.54666 11.833333,8.86666 5.145333,4.81334 9.911466,10.02667 14.535999,15.33334 9.494796,10.90666 18.491596,22.35999 26.504136,34.39999 1.98546,2.98667 3.96093,6.02667 5.53333,9.25334 1.75267,3.58666 3.08907,7.42666 4.436,11.2 1.54213,4.30666 3.7624,9.06666 3.6536,13.72 -0.0151,0.64 0.9792,0.64 0.99427,0" style="fill:#577c69;fill-opacity:1;fill-rule:nonzero;stroke:none;stroke-width:0.133333"/><path id="path36" d="m 136.256,302.69342 c -1.13067,-2.18666 -1.628,-4.62666 -2.108,-7.02666 -0.57867,-2.89334 -1.1824,-5.77334 -1.93294,-8.62667 -1.37653,-5.24 -3.04626,-10.50667 -5.1036,-15.52 -2.286,-5.57333 -5.68226,-10.73333 -9.01666,-15.72 -8.39067,-12.54666 -17.95214,-25.04 -29.251602,-35.12 -2.180133,-1.94666 -4.502,-3.84 -7.0896,-5.21333 -0.565067,-0.30667 -1.0672,0.56 -0.501467,0.85333 5.234267,2.8 9.578533,7.38667 13.607733,11.65334 5.566666,5.89333 10.688536,12.21333 15.542266,18.69333 4.4224,5.90666 8.6416,12.01333 12.33067,18.4 4.2276,7.33333 6.80053,15.48 8.89013,23.64 1.21667,4.76 1.50213,10.08 3.7744,14.49333 0.29333,0.57333 1.15067,0.0667 0.85867,-0.50667" style="fill:#577c69;fill-opacity:1;fill-rule:nonzero;stroke:none;stroke-width:0.133333"/><path id="path37" d="m 94.751598,219.00009 c 5.595732,3.45334 9.882262,9.12 13.705202,14.34667 4.8896,6.68 9.18226,13.81333 13.12026,21.09333 3.20894,5.93333 6.27454,12.04 8.53694,18.4 3.93666,11.08 6.786,22.56 10.11266,33.81333 0.18134,0.61334 1.14,0.36 0.95867,-0.25333 -3.356,-11.37333 -6.244,-22.93333 -10.216,-34.10667 -2.31147,-6.50666 -5.4928,-12.73333 -8.7704,-18.78666 -4.014,-7.42667 -8.4484,-14.65333 -13.4572,-21.45333 -3.7688,-5.10667 -8.01053,-10.52 -13.488666,-13.90667 -0.5468,-0.33333 -1.045733,0.52 -0.501466,0.85333" style="fill:#577c69;fill-opacity:1;fill-rule:nonzero;stroke:none;stroke-width:0.133333"/><path id="path38" d="m 137.91866,290.26676 c -1.48,-5.36 -2.86266,-10.73334 -4.7436,-15.97334 -1.87613,-5.21333 -3.93706,-10.38666 -6.03706,-15.52 -1.63387,-4 -3.2672,-8.09333 -5.41774,-11.85333 -5.58226,-9.72 -12.5692,-18.58666 -18.48173,-28.10666 -0.33747,-0.54667 -1.19733,-0.04 -0.85827,0.50666 5.91454,9.52 12.84427,18.41334 18.48174,28.10667 2.24586,3.86666 3.9036,8.14666 5.5916,12.28 2.1016,5.13333 4.13333,10.32 6.01,15.53333 1.87773,5.22667 3.2124,10.64 4.68973,15.98667 0.60667,2.18666 1.192,4.37333 1.75333,6.58666 0.44267,1.74667 0.94534,3.58667 2.02,5.06667 0.37467,0.50667 1.23734,0.0133 0.85867,-0.50667 -1.13467,-1.56 -1.58667,-3.52 -2.05333,-5.34666 -0.57734,-2.26667 -1.19067,-4.52 -1.81334,-6.76" style="fill:#577c69;fill-opacity:1;fill-rule:nonzero;stroke:none;stroke-width:0.133333"/><path id="path39" d="m 144.76266,305.54676 c -0.0147,0.64 0.98,0.64 0.99467,0 0.0547,-2.38667 -0.524,-4.6 -1.23733,-6.85334 -0.852,-2.70666 -1.59867,-5.44 -2.39067,-8.16 -1.56267,-5.37333 -3.276,-10.69333 -5.28133,-15.90666 -2.412,-6.28 -4.74694,-12.57334 -7.274,-18.8 -3.03547,-7.49334 -6.28494,-14.90667 -10.11774,-22.01333 -3.00106,-5.57334 -6.46453,-11.58667 -11.49746,-15.58667 -0.49627,-0.4 -1.20467,0.30667 -0.70254,0.70667 4.98547,3.96 8.3468,9.88 11.3416,15.37333 3.81827,7.02667 7.0068,14.38666 10.0172,21.77333 2.45734,6.04 4.73027,12.14667 7.05294,18.22667 1.81333,4.76 3.43066,9.56 4.89466,14.42666 0.82267,2.74667 1.57734,5.49334 2.376,8.24 0.832,2.85334 1.89334,5.54667 1.824,8.57334" style="fill:#577c69;fill-opacity:1;fill-rule:nonzero;stroke:none;stroke-width:0.133333"/><path id="path40" d="m 112.43173,214.93343 c -0.45147,-0.45334 -1.1536,0.24 -0.70307,0.70666 4.36307,4.41334 7.2656,10.41334 10.02494,15.89334 3.72813,7.4 7.00893,15.02666 10.1516,22.69333 6.6508,16.21333 13.04146,32.72 16.46946,49.94666 0.13734,0.69334 0.52267,1.76 0.628,2.62667 -0.003,0.0267 -0.0107,0.04 -0.0107,0.0533 -0.012,0.33334 -0.0427,0.65334 0.008,0.98667 0.0747,0.49333 0.86933,0.46667 0.95866,0 0.044,-0.22667 0.0413,-0.46667 0.0173,-0.72 0.003,-0.0933 0.007,-0.17333 0.009,-0.26667 0.005,-0.13333 -0.0387,-0.22666 -0.0987,-0.29333 -0.0893,-0.42667 -0.212,-0.85333 -0.28266,-1.24 -0.26,-1.4 -0.54934,-2.81333 -0.84667,-4.2 -0.64267,-3.02667 -1.392,-6.01333 -2.2,-8.98667 -1.56267,-5.74666 -3.44267,-11.41333 -5.48667,-17.01333 -2.16133,-5.92 -4.43866,-11.8 -6.78666,-17.65333 -2.996,-7.48 -6.1408,-14.89333 -9.58867,-22.16 -2.92293,-6.17333 -6.00627,-12.48 -10.16093,-17.93333 -0.65214,-0.85334 -1.34694,-1.68 -2.10267,-2.44" style="fill:#577c69;fill-opacity:1;fill-rule:nonzero;stroke:none;stroke-width:0.133333"/><path id="path41" d="m 145.13733,273.60009 c -1.788,-5.38667 -4.00533,-10.68 -6.048,-15.97333 -1.876,-4.86667 -4.00667,-9.6 -6.88573,-13.96 -2.8656,-4.34667 -4.93747,-9.38667 -7.25574,-14.02667 -2.402,-4.81333 -4.7104,-9.68 -7.21813,-14.42666 -0.0324,-0.0533 -0.0647,-0.12 -0.0969,-0.18667 -0.30467,-0.56 -1.16307,-0.0533 -0.85827,0.50667 5.02707,9.30666 9.0072,19.21333 14.38067,28.32 2.4648,4.18666 4.67813,8.26666 6.48613,12.78666 2.096,5.25333 4.18667,10.54667 6.076,15.86667 1.988,5.6 3.43067,11.38666 5.148,17.06666 1.75467,5.81334 4.35733,11.46667 4.68,17.6 0.0333,0.64 1.028,0.64 0.99467,0 -0.304,-5.76 -2.57334,-11.05333 -4.29467,-16.49333 -1.79333,-5.66667 -3.23333,-11.44 -5.108,-17.08" style="fill:#577c69;fill-opacity:1;fill-rule:nonzero;stroke:none;stroke-width:0.133333"/><path id="path42" d="m 118.8552,210.81343 c -0.52654,-0.37334 -1.02294,0.49333 -0.5016,0.85333 4.57453,3.2 7.5672,9.04 10.20946,13.77333 1.88694,3.4 3.63387,6.86667 5.28094,10.37334 -0.17467,-0.25334 -0.35067,-0.50667 -0.51587,-0.77334 -0.338,-0.54666 -1.1984,-0.04 -0.8584,0.49334 0.9436,1.52 2.04627,2.90666 3.19027,4.26666 1.16666,2.62667 2.28533,5.28 3.36533,7.93333 2.80667,6.92 5.37733,13.96 7.33067,21.17334 1.096,4.04 1.86533,8.14666 3.05733,12.17333 1.584,5.34667 3.51333,10.58667 5.08933,15.93333 1.2,4.08 2.13467,8.22667 2.62134,12.44 0.072,0.62667 1.06666,0.64 0.99333,0 -1.27333,-11.04 -5.78667,-21.24 -8.66933,-31.89333 -0.964,-3.56 -1.62534,-7.18667 -2.64267,-10.74667 -0.99067,-3.46666 -2.14133,-6.88 -3.35467,-10.28 -1.71733,-4.8 -3.612,-9.53333 -5.63466,-14.22666 0.0467,0.0533 0.0947,0.10667 0.14133,0.16 2.26133,2.62667 3.984,5.49333 5.58133,8.54666 3.33334,6.38667 5.79734,13.18667 8.12267,19.98667 2.32133,6.8 4.712,13.6 6.75867,20.48 1.01466,3.41333 1.852,6.88 2.424,10.4 0.528,3.25333 0.844,6.41333 2.20266,9.45333 0.26134,0.58667 1.11734,0.08 0.85867,-0.50666 -1.40667,-3.13334 -1.66533,-6.52 -2.212,-9.88 -0.572,-3.52 -1.50133,-7 -2.52,-10.42667 -2.04133,-6.86667 -4.456,-13.64 -6.77333,-20.42667 -2.21067,-6.46666 -4.624,-12.86666 -7.696,-18.97333 -1.39334,-2.77333 -2.91867,-5.46666 -4.84134,-7.90666 -1.092,-1.38667 -2.26933,-2.69334 -3.408,-4.02667 -0.76133,-1.70667 -1.53733,-3.4 -2.33733,-5.08 -3.0288,-6.36 -6.31373,-12.76 -10.55693,-18.42667 -1.352,-1.8 -2.84587,-3.57333 -4.7052,-4.86666" style="fill:#577c69;fill-opacity:1;fill-rule:nonzero;stroke:none;stroke-width:0.133333"/><path id="path43" d="m 123.59066,350.45342 c 1.95107,2.10667 4.452,3.81334 6.8968,5.29334 2.2876,1.38666 5.2272,1.4 7.35254,3.09333 0.48666,0.38667 1.18133,-0.30667 0.68933,-0.69333 -1.672,-1.33334 -3.792,-1.78667 -5.77827,-2.46667 -2.78386,-0.94667 -5.44226,-3.08 -7.586,-5.04 -2.31813,-2.12 -4.09266,-4.8 -5.7036,-7.46667 -1.40106,-2.33333 -1.72453,-5.17333 -3.30053,-7.37333 -0.36307,-0.50667 -1.20987,-0.0133 -0.84267,0.49333 1.45574,2.02667 1.73387,4.66667 2.9828,6.82667 1.50987,2.61333 3.23534,5.10667 5.2896,7.33333" style="fill:#577c69;fill-opacity:1;fill-rule:nonzero;stroke:none;stroke-width:0.133333"/><path id="path44" d="m 136.012,334.48009 c -2.986,-3.09333 -7.05,-6.69333 -8.0912,-11 -0.14787,-0.61333 -1.08907,-0.36 -0.94107,0.25333 0.988,4.09334 4.41613,7.08 7.1296,10.09334 3.67467,4.06666 8.068,7.18666 12.26933,10.68 8.068,6.69333 18.08134,9.36 27.784,12.74666 0.59467,0.21334 0.84934,-0.73333 0.25867,-0.93333 -0.072,-0.0267 -0.14533,-0.0533 -0.21867,-0.08 0.308,-0.12 0.50667,-0.50667 0.19067,-0.77333 -1.232,-1.06667 -2.736,-1.8 -4.15333,-2.57334 -2.11067,-1.16 -4.228,-2.29333 -6.37867,-3.37333 -4.61333,-2.32 -9.30133,-4.48 -13.80267,-7.01333 -4.37466,-2.46667 -8.42133,-5.36 -11.87466,-9.02667 -3.63734,-3.85333 -6.58294,-8.29333 -9.90067,-12.41333 -0.39533,-0.49334 -1.0812,0.2 -0.69013,0.69333 3.17706,3.93333 6.04813,8.12 9.42946,11.89333 3.128,3.50667 6.85334,6.28 10.85067,8.70667 4.34533,2.64 8.96933,4.8 13.528,7.02667 2.40133,1.17333 4.78533,2.38666 7.12667,3.68 1.648,0.90666 3.484,1.72 4.95733,2.92 -9.028,-3.10667 -18.296,-5.69334 -25.89733,-11.74667 -3.932,-3.13333 -8.084,-6.12 -11.576,-9.76" style="fill:#577c69;fill-opacity:1;fill-rule:nonzero;stroke:none;stroke-width:0.133333"/><path id="path45" d="m 160.028,359.00009 c -7.98267,-2.6 -15.11467,-7.42667 -21.83867,-12.34667 -3.46667,-2.54666 -6.70867,-5.38666 -9.8216,-8.33333 -2.2432,-2.13333 -6.45573,-5.08 -6.77293,-8.37333 -0.0599,-0.61334 -1.036,-0.62667 -0.97547,0 0.2952,3.06666 3.0588,5.16 5.10827,7.16 3.29533,3.21333 6.68026,6.33333 10.3364,9.14666 7.172,5.52 15.04,10.86667 23.704,13.68 0.6,0.2 0.856,-0.74666 0.26,-0.93333" style="fill:#577c69;fill-opacity:1;fill-rule:nonzero;stroke:none;stroke-width:0.133333"/><path id="path46" d="m 153.928,359.24009 c -7.532,-1.6 -13.53867,-6.84 -19.43867,-11.45333 -2.89667,-2.26667 -5.79453,-4.52 -8.41427,-7.10667 -1.37293,-1.36 -2.5376,-2.85333 -3.7376,-4.36 -1.16773,-1.46667 -2.55106,-2.90667 -2.95573,-4.8 -0.13173,-0.61333 -1.07293,-0.34667 -0.94107,0.26667 0.28587,1.33333 1.01147,2.45333 1.84427,3.52 1.22813,1.56 2.43533,3.16 3.7572,4.65333 2.8704,3.22667 6.36147,5.86667 9.75653,8.52 6.04134,4.72 12.16534,10.06667 19.87067,11.70667 0.61333,0.12 0.87467,-0.81334 0.25867,-0.94667" style="fill:#577c69;fill-opacity:1;fill-rule:nonzero;stroke:none;stroke-width:0.133333"/><path id="path47" d="m 147.11066,361.76009 c 0.42934,0.46667 1.11867,-0.22667 0.68934,-0.68 -4.80667,-5.16 -11.544,-8.05333 -17.04067,-12.37333 -4.97027,-3.89334 -11.68333,-8.66667 -13.08533,-15.22667 -0.13134,-0.61333 -1.07187,-0.36 -0.9412,0.25333 1.34786,6.30667 7.41933,10.96 12.18493,14.76 2.65053,2.10667 5.3676,4.04 8.2396,5.84 3.512,2.2 7.10267,4.37334 9.95333,7.42667" style="fill:#577c69;fill-opacity:1;fill-rule:nonzero;stroke:none;stroke-width:0.133333"/><path id="path48" d="m 131.4964,321.02676 c 11.15293,13.45333 24.96893,24.41333 40.84093,31.78666 0.568,0.26667 1.064,-0.57333 0.49333,-0.84 -15.80533,-7.34666 -29.54,-18.24 -40.64426,-31.64 -0.40147,-0.48 -1.088,0.21334 -0.69,0.69334" style="fill:#577c69;fill-opacity:1;fill-rule:nonzero;stroke:none;stroke-width:0.133333"/><path id="path49" d="m 132.9604,317.85342 c 6.1636,6.12 12.1436,12.44 18.5116,18.36 6.11333,5.68 13.188,9.85334 20.13466,14.4 0.528,0.34667 1.016,-0.49333 0.492,-0.84 -6.88133,-4.50666 -13.85866,-8.65333 -19.93733,-14.25333 -6.388,-5.89333 -12.34933,-12.22667 -18.51067,-18.36 -0.44706,-0.44 -1.13706,0.24 -0.69026,0.69333" style="fill:#577c69;fill-opacity:1;fill-rule:nonzero;stroke:none;stroke-width:0.133333"/><path id="path50" d="m 134.424,314.92009 c 6.29333,5.14667 11.42533,11.45333 16.90933,17.41333 5.68667,6.16 12.09867,11.18667 19.05333,15.84 0.524,0.36 1.012,-0.49333 0.492,-0.84 -6.892,-4.61333 -13.2,-9.61333 -18.85466,-15.69333 -5.512,-5.93333 -10.61067,-12.26667 -16.90934,-17.41333 -0.484,-0.38667 -1.17866,0.29333 -0.69066,0.69333" style="fill:#577c69;fill-opacity:1;fill-rule:nonzero;stroke:none;stroke-width:0.133333"/><path id="path51" d="m 135.888,312.48009 c 2.588,2.76 5.50666,5.17333 8.01866,8 2.69334,3.02667 5.28934,6.12 8.08934,9.05333 2.72666,2.86667 5.50133,5.73334 8.52666,8.28 2.84,2.38667 5.88267,4.52 8.54534,7.12 0.45066,0.44 1.14,-0.25333 0.68933,-0.69333 -2.65867,-2.6 -5.68267,-4.76 -8.544,-7.12 -3.04933,-2.50667 -5.79467,-5.42667 -8.528,-8.28 -2.80667,-2.92 -5.46,-5.97333 -8.088,-9.05333 -2.44933,-2.88 -5.436,-5.24 -8.01867,-8 -0.432,-0.45334 -1.12133,0.24 -0.69066,0.69333" style="fill:#577c69;fill-opacity:1;fill-rule:nonzero;stroke:none;stroke-width:0.133333"/><path id="path52" d="m 145.34933,318.62676 c 2.35733,2.73333 4.69867,5.48 7.09867,8.17333 4.75333,5.33333 9.78533,10.48 15.156,15.2 0.47066,0.41333 1.164,-0.26667 0.68933,-0.68 -5.37467,-4.73333 -10.38267,-9.88 -15.15467,-15.21333 -2.40933,-2.68 -4.74533,-5.44 -7.1,-8.17334 -1.98266,-2.30666 -3.63466,-4.92 -6.144,-6.70666 -0.51466,-0.36 -1.00133,0.48 -0.492,0.84 2.428,1.73333 4.02667,4.32 5.94667,6.56" style="fill:#577c69;fill-opacity:1;fill-rule:nonzero;stroke:none;stroke-width:0.133333"/><path id="path53" d="m 168.78133,339.12009 c -5.26933,-4.21333 -9.12667,-9.78667 -13.39733,-14.93333 -4.65067,-5.61334 -9.80934,-10.77334 -14.09467,-16.68 -0.36533,-0.50667 -1.212,-0.0267 -0.84267,0.48 4.19734,5.8 9.19334,10.92 13.808,16.37333 4.47734,5.26667 8.38134,11.09333 13.83734,15.45333 0.48666,0.38667 1.18133,-0.30666 0.68933,-0.69333" style="fill:#577c69;fill-opacity:1;fill-rule:nonzero;stroke:none;stroke-width:0.133333"/><path id="path54" d="m 155.58533,320.52009 c 2.792,3.54667 4.88133,7.81333 8.11467,10.98667 0.44933,0.45333 1.14,-0.24 0.69066,-0.68 -3.21333,-3.16 -5.35333,-7.45334 -8.11466,-11 -2.99867,-3.86667 -6.25467,-7.50667 -9.93867,-10.72 -0.472,-0.41334 -1.16533,0.28 -0.69067,0.69333 3.69067,3.22667 6.91867,6.86667 9.93867,10.72" style="fill:#577c69;fill-opacity:1;fill-rule:nonzero;stroke:none;stroke-width:0.133333"/><path id="path55" d="m 165.44266,328.24009 c -3.212,-6.14667 -7.28533,-11.73333 -11.54266,-17.17333 -0.388,-0.50667 -1.07334,0.2 -0.69067,0.68 4.20667,5.38666 8.21733,10.92 11.39067,16.98666 0.292,0.56 1.13333,0.0667 0.84266,-0.49333" style="fill:#577c69;fill-opacity:1;fill-rule:nonzero;stroke:none;stroke-width:0.133333"/><path id="path56" d="m 175.264,312.64009 c -0.58,-3.01333 -0.86134,-6.09333 -1.39734,-9.12 -0.68,-3.84 -2.07066,-7.53333 -3.56,-11.12 -2.78933,-6.72 -5.73733,-13.41333 -8.64266,-20.08 -5.67867,-13.04 -13.18934,-25.30667 -22.884,-35.76 -0.21334,-0.22666 -0.48934,-0.17333 -0.66534,0 -0.452,-0.44 -1.13466,0.25334 -0.688,0.70667 10.12667,10.22666 15.46134,23.49333 20.192,36.84 2.772,7.81333 5.356,15.69333 7.492,23.70666 0.788,2.94667 1.39867,5.86667 1.85867,8.88 0.3,1.97334 0.41733,4.58667 1.608,6.26667 0.36667,0.52 1.22933,0.0267 0.85733,-0.50667 -1.28666,-1.81333 -1.33066,-4.85333 -1.65333,-6.98666 -0.48,-3.17334 -1.25733,-6.24 -2.09467,-9.34667 -2.14533,-7.93333 -4.77733,-15.73333 -7.53333,-23.46667 -2.796,-7.86666 -5.88,-15.66666 -10.04,-22.82666 4.97067,7.2 9.152,14.94666 12.692,22.98666 1.43467,3.26667 2.68133,6.6 4.1,9.85334 1.544,3.56 3.22133,7.05333 4.70667,10.62666 1.408,3.4 2.596,6.88 3.296,10.49334 0.708,3.65333 0.916,7.37333 1.79866,11 0.128,0.53333 0.81867,0.42666 0.948,0 1.86667,3.54666 2.94667,7.41333 3.81734,11.32 1.00933,4.53333 1.844,9.13333 2.564,13.72 1.228,7.81333 1.88533,15.72 2.136,23.64 -1.36,-7.64 -3.572,-15.06667 -5.56267,-22.57334 -1.256,-4.73333 -2.18133,-9.56 -3.47067,-14.29333 -1.232,-4.50667 -3.43733,-8.76 -3.77466,-13.48 -0.044,-0.62667 -1.02,-0.62667 -0.976,0 0.29733,4.14667 1.936,8.01333 3.24533,11.92 1.59333,4.76 2.42933,9.8 3.66,14.66667 2.48267,9.81333 5.64,19.41333 6.75733,29.52 0.0187,0.17333 0.11334,0.29333 0.232,0.37333 0.003,0.34667 0.009,0.69333 0.009,1.04 -0.42,-1.24 -0.84667,-2.46667 -1.28134,-3.70667 -1.952,-9.10666 -4.756,-17.94666 -8.016,-26.68 -1.59866,-4.26666 -3.08933,-8.58666 -4.42266,-12.96 -0.72,-2.34666 -1.38267,-4.72 -2.088,-7.06666 -0.35467,-1.18667 -0.71867,-2.37334 -1.084,-3.54667 -0.376,-1.21333 -1.056,-2.37333 -0.688,-3.68 0.16933,-0.61333 -0.772,-0.86667 -0.94134,-0.25333 -0.48,1.70666 0.40134,3.26666 0.908,4.89333 0.732,2.36 1.43334,4.73333 2.124,7.10667 1.416,4.86666 3.008,9.65333 4.748,14.41333 2.34,6.4 4.53467,12.78667 6.352,19.30667 -2.2,-5.78667 -4.50933,-11.54667 -6.82133,-17.29334 -2.06533,-5.13333 -4.04533,-10.30666 -6.148,-15.42666 -1.98267,-4.82667 -4.616,-9.48 -5.34533,-14.72 -0.0867,-0.61334 -1.02667,-0.34667 -0.94134,0.26666 0.67334,4.82667 2.956,9.24 4.89467,13.65334 2.276,5.18666 4.212,10.54666 6.32533,15.81333 3.52534,8.76 7.05334,17.53333 10.20134,26.42667 0.016,0.08 0.0333,0.14666 0.048,0.21333 0.0187,0.0933 0.0547,0.16 0.1,0.21333 0.632,1.78667 1.25466,3.58667 1.852,5.4 0.196,0.6 1.13866,0.34667 0.94133,-0.25333 -0.15733,-0.48 -0.32267,-0.94667 -0.48133,-1.42667 0.288,0.16 0.74266,0.0267 0.74266,-0.4 -0.012,-10.50666 -0.708,-20.98666 -2.29466,-31.37333 -0.732,-4.8 -1.64534,-9.58667 -2.70134,-14.32 -0.96,-4.30667 -2.28266,-8.58667 -4.58533,-12.37333 -0.10667,-0.17334 -0.268,-0.22667 -0.42533,-0.22667" style="fill:#577c69;fill-opacity:1;fill-rule:nonzero;stroke:none;stroke-width:0.133333"/><path id="path57" d="m 186.97866,374.34676 c 1.13334,-10.46667 1.82134,-21 0.46534,-31.48 -0.62934,-4.86667 -1.61334,-9.70667 -2.75334,-14.49334 -0.59066,-2.46666 -1.24933,-4.92 -2.08666,-7.32 -0.85067,-2.44 -1.74267,-4.85333 -1.96934,-7.45333 -0.0533,-0.61333 -1.02933,-0.62667 -0.97466,0 0.38666,4.45333 2.444,8.62667 3.56,12.92 1.28266,4.93333 2.264,9.94667 3.04933,14.97333 1.69867,10.88 0.91333,21.97334 -0.26667,32.85334 -0.068,0.62666 0.90934,0.62666 0.976,0" style="fill:#577c69;fill-opacity:1;fill-rule:nonzero;stroke:none;stroke-width:0.133333"/><path id="path58" d="m 190.62,368.13342 c 2.30133,-8.10666 0.63333,-16.94666 -0.892,-25.05333 -1.86267,-9.90667 -4.77334,-19.58667 -7.15867,-29.36 -0.14933,-0.61333 -1.08933,-0.36 -0.94133,0.25333 2.27066,9.32 4.968,18.52 6.876,27.92 1.68933,8.30667 3.544,17.62667 1.176,25.98667 -0.172,0.6 0.76933,0.86667 0.94,0.25333" style="fill:#577c69;fill-opacity:1;fill-rule:nonzero;stroke:none;stroke-width:0.133333"/><path id="path59" d="m 191.61333,334.82676 c 0.152,-7.02667 -1.65067,-13.85334 -4.45733,-20.25334 -0.252,-0.57333 -1.09334,-0.08 -0.84267,0.49334 2.736,6.24 4.472,12.92 4.324,19.76 -0.0133,0.62666 0.96267,0.62666 0.976,0" style="fill:#577c69;fill-opacity:1;fill-rule:nonzero;stroke:none;stroke-width:0.133333"/><path id="path65" d="m 206.99466,119.96009 c 0.23733,-3.49333 0.0893,-8.17333 2.692,-10.86666 0.43733,-0.45333 -0.252,-1.14667 -0.68933,-0.69333 -2.50134,2.6 -2.64934,6.75999 -2.88667,10.14666 -0.36667,5.26667 -1.04533,10.49333 -1.31867,15.76 -0.628,12.10667 -0.32666,24.45333 0.444,36.54667 0.39067,6.10666 1.25734,12.14666 2.01067,18.21333 0.764,6.17333 1.31467,12.36 1.85867,18.54667 1.07466,12.18666 2.12133,24.38666 4.42133,36.41333 1.35867,7.12 3.88133,13.93333 5.42933,21 0.13467,0.61333 1.07467,0.34666 0.94,-0.26667 -1.288,-5.88 -3.24133,-11.58667 -4.66666,-17.44 -1.51067,-6.2 -2.352,-12.6 -3.11867,-18.93333 -1.49333,-12.33333 -2.21467,-24.74667 -3.624,-37.09333 -0.696,-6.09334 -1.64267,-12.13334 -2.12,-18.25334 -0.476,-6.09333 -0.64267,-12.2 -0.72,-18.30666 -0.0773,-6.08 -0.16,-12.17334 0.0307,-18.25334 0.172,-5.53333 0.94,-11 1.31733,-16.52" style="fill:#577c69;fill-opacity:1;fill-rule:nonzero;stroke:none;stroke-width:0.133333"/><path id="path66" d="m 205.29333,107.0001 c -1.46,5.17333 -1.56534,10.77333 -2.45334,16.07999 -0.988,5.89334 -1.45466,11.81334 -1.49066,17.78667 -0.0733,12.26667 0.23066,24.53333 1.09333,36.77333 0.86933,12.34667 2.15867,24.69334 3.30933,37.02667 0.54667,5.85333 0.996,11.76 2.10934,17.54667 0.50133,2.58666 1.256,5.10666 1.93333,7.66666 0.616,2.32 1.02933,4.69334 1.71067,7 0.44533,1.50667 1.052,2.98667 1.96933,4.26667 0.36267,0.50666 1.20933,0.0267 0.84267,-0.49334 -2.664,-3.73333 -3.00667,-8.99999 -4.22934,-13.33333 -1.68266,-5.94666 -2.30933,-12.05333 -2.92666,-18.18666 -1.24534,-12.36 -2.35734,-24.73334 -3.404,-37.10667 -1.03334,-12.22667 -1.41067,-24.50667 -1.44,-36.76 -0.016,-6.37333 0.13466,-12.68 1.01333,-19 0.364,-2.62667 0.932,-5.21333 1.26933,-7.82667 0.37734,-2.94666 0.55867,-5.90666 1.07467,-8.82666 0.14,-0.8 0.34,-1.57333 0.56,-2.36 0.17067,-0.6 -0.77067,-0.86667 -0.94133,-0.25333" style="fill:#577c69;fill-opacity:1;fill-rule:nonzero;stroke:none;stroke-width:0.133333"/><path id="path67" d="m 201.06399,109.26676 c -2.57066,9.77333 -3.20133,19.96 -3.67199,30 -0.50134,10.72 -0.22667,21.48 0.51733,32.18667 0.75067,10.81333 2.02533,21.6 2.928,32.4 0.42933,5.14666 0.56,10.38666 1.41733,15.48 0.91733,5.44 2.81467,10.69333 2.696,16.28 -0.0133,0.62666 0.96267,0.62666 0.976,0 0.1,-4.70667 -1.16267,-9.24 -2.17867,-13.8 -1.20533,-5.4 -1.36133,-10.97334 -1.812,-16.46667 -0.888,-10.82667 -2.12133,-21.61333 -2.94533,-32.44 -0.81466,-10.70667 -1.08533,-21.45333 -0.684,-32.18667 0.39067,-10.42666 1.032,-21.06666 3.69867,-31.18666 0.16133,-0.61333 -0.78,-0.86667 -0.94134,-0.26667" style="fill:#577c69;fill-opacity:1;fill-rule:nonzero;stroke:none;stroke-width:0.133333"/><path id="path68" d="m 196.18533,109.26676 c -3.58133,20.01333 -4.192,40.41333 -2.82133,60.66667 0.68533,10.12 2.008,20.10666 3.68666,30.10666 0.89334,5.30667 1.708,10.62667 2.148,15.98667 0.19734,2.42667 0.38534,4.84 0.74267,7.25333 0.38933,2.62667 1.66266,5.13334 1.756,7.77334 0.0227,0.64 0.99866,0.64 0.976,0 -0.0733,-2.08 -0.9,-3.94667 -1.4,-5.94667 -0.62267,-2.48 -0.77867,-5.10667 -0.98534,-7.65333 -0.40133,-4.94667 -1.01999,-9.84 -1.81066,-14.74667 -1.68,-10.41333 -3.24533,-20.77333 -4.03333,-31.30667 -1.54267,-20.62666 -0.96534,-41.48 2.68266,-61.86666 0.10934,-0.61333 -0.83066,-0.88 -0.94133,-0.26667" style="fill:#577c69;fill-opacity:1;fill-rule:nonzero;stroke:none;stroke-width:0.133333"/><path id="path69" d="m 191.93866,108.42676 c -0.96533,9.62667 -3.27466,19.05333 -3.24933,28.76 0.0253,9.90667 0.15867,19.82667 1.172,29.69333 0.98667,9.62667 2.40533,19.28 3.832,28.84 0.68533,4.6 1.23467,9.18667 1.73867,13.81334 0.45066,4.13333 1.052,8.26666 2.38,12.22666 0.19866,0.58667 1.14133,0.33334 0.94133,-0.26666 -2.71467,-8.08 -2.70267,-16.92 -4.008,-25.29334 -0.79333,-5.09333 -1.38533,-10.21333 -2.04133,-15.32 -0.632,-4.90666 -1.43734,-9.8 -1.94267,-14.73333 -0.988,-9.61333 -1.068,-19.30667 -1.096,-28.96 -0.0293,-9.70667 2.284,-19.14667 3.24933,-28.76 0.0627,-0.62666 -0.91333,-0.62666 -0.976,0" style="fill:#577c69;fill-opacity:1;fill-rule:nonzero;stroke:none;stroke-width:0.133333"/><path id="path70" d="m 188.504,106.13343 c -1.98134,2.04 -2.23467,5.04 -2.49734,7.73333 -0.416,4.26667 -1.19066,8.48 -1.75733,12.72 -1.28933,9.65333 -1.376,19.21333 -0.45067,28.90667 1.816,19.02666 6.884,37.4 10.10934,56.17333 0.10666,0.62667 1.04666,0.36 0.94133,-0.25333 -1.50267,-8.74667 -3.55067,-17.38667 -5.36133,-26.08 -1.90134,-9.13334 -3.44667,-18.36 -4.484,-27.62667 -1.02,-9.12 -1.25467,-18.26667 -0.24534,-27.38667 0.51734,-4.68 1.29334,-9.33333 1.95867,-14 0.444,-3.11999 0.11867,-7.06666 2.476,-9.50666 0.43867,-0.44 -0.25067,-1.13333 -0.68933,-0.68" style="fill:#577c69;fill-opacity:1;fill-rule:nonzero;stroke:none;stroke-width:0.133333"/><path id="path71" d="m 176.43866,111.66676 c 0.008,-2.52 0.072,-5.05333 0.304,-7.57333 0.16667,-1.8 0.32267,-4.320001 1.55334,-5.773335 0.404,-0.48 -0.28267,-1.173333 -0.68934,-0.693333 -1.01333,1.2 -1.32133,2.839998 -1.572,4.346668 -0.41066,2.45333 -0.49066,4.96 -0.54533,7.45333 -0.12,5.45333 -0.16133,10.84 -0.43467,16.29333 -0.42666,8.53334 -0.224,16.98667 0.46,25.50667 0.32934,4.10667 0.7,8.22667 1.31467,12.29333 0.624,4.13334 2.35067,8.01334 2.424,12.24 0.0107,0.62667 0.98667,0.62667 0.97467,0 -0.0613,-3.62666 -1.23067,-7.06666 -2.06667,-10.56 -0.972,-4.06666 -1.19067,-8.37333 -1.55067,-12.52 -0.71466,-8.26666 -1.00666,-16.48 -0.67866,-24.76 0.216,-5.44 0.48933,-10.81333 0.50666,-16.25333" style="fill:#577c69;fill-opacity:1;fill-rule:nonzero;stroke:none;stroke-width:0.133333"/><path id="path72" d="m 171.82533,124.18676 c 0.39333,-5.24 0.90133,-10.48 1.32667,-15.72 0.35866,-4.42666 0.80266,-8.906665 0.61466,-13.359998 -0.0267,-0.626667 -1.00266,-0.626667 -0.976,0 0.188,4.453333 -0.26,8.933338 -0.61466,13.359998 -0.432,5.38667 -0.95467,10.76 -1.36,16.16 -0.372,4.94667 -0.41067,9.90667 -0.55067,14.86667 -0.17733,6.26666 -0.27067,12.94666 2.17333,18.82666 0.23867,0.57334 1.18267,0.32 0.94134,-0.25333 -2.49467,-6.01333 -2.30267,-12.78667 -2.12134,-19.17333 0.13734,-4.90667 0.19867,-9.81334 0.56667,-14.70667" style="fill:#577c69;fill-opacity:1;fill-rule:nonzero;stroke:none;stroke-width:0.133333"/><path id="path73" d="m 168.27333,91.880096 c 0.0413,-0.626667 -0.93467,-0.626667 -0.976,0 -0.51733,7.786666 -1.04533,15.573334 -1.16533,23.386664 -0.0707,4.54667 -0.0133,9.10667 0.40666,13.64 0.28134,3.02667 0.65467,6.29333 2.04667,9.04 0.284,0.56 1.12533,0.0667 0.84267,-0.49333 -1.432,-2.82667 -1.716,-6.26667 -1.98667,-9.36 -0.384,-4.42667 -0.39467,-8.88 -0.32667,-13.30667 0.11734,-7.65333 0.652,-15.279998 1.15867,-22.906664" style="fill:#577c69;fill-opacity:1;fill-rule:nonzero;stroke:none;stroke-width:0.133333"/><path id="path74" d="m 164.28933,110.37343 c -0.44,4.54666 -0.65867,9.10666 -0.65067,13.66666 0.001,0.62667 0.97734,0.62667 0.976,0 -0.008,-4.56 0.21067,-9.12 0.65067,-13.66666 0.06,-0.62667 -0.916,-0.61333 -0.976,0" style="fill:#577c69;fill-opacity:1;fill-rule:nonzero;stroke:none;stroke-width:0.133333"/><path id="path77" d="m 163.95466,374.88009 c -1.17066,-2.73333 -2.37333,-5.45333 -3.67866,-8.13333 -0.76267,-1.56 -1.52667,-3.28 -2.67734,-4.6 -0.25866,-0.30667 -0.668,-0.61334 -1.084,-0.46667 -0.58933,0.21333 -0.336,1.14667 0.26,0.94667 -0.072,0.0267 0.496,0.68 0.67067,0.94666 0.54933,0.84 1.01067,1.73334 1.46667,2.62667 1.29866,2.53333 2.448,5.14667 3.584,7.74667 2.39333,5.49333 4.64,11.06666 6.808,16.65333 7.33333,18.90666 12.444,39.36 12.55066,59.70666 0.004,0.62667 0.98,0.62667 0.976,0 -0.10666,-20.28 -5.14533,-40.66666 -12.41466,-59.52 -2.05734,-5.34666 -4.21067,-10.64 -6.46134,-15.90666" style="fill:#577c69;fill-opacity:1;fill-rule:nonzero;stroke:none;stroke-width:0.133333"/></g></svg>