<svg version="1.1" id="svg1" width="2000" height="2579.9468" viewBox="1260.9929022521712 1778.7867020249728 80.25709774783536 41.42440834919921" sodipodi:docname="styletrees.svg" inkscape:version="1.4.2 (f4327f4, 2025-05-13)" xmlns:inkscape="http://www.inkscape.org/namespaces/inkscape" xmlns:sodipodi="http://sodipodi.sourceforge.net/DTD/sodipodi-0.dtd" xmlns="http://www.w3.org/2000/svg" xmlns:svg="http://www.w3.org/2000/svg"><defs id="defs1"/><g><path id="path1307" d="m 1313.7866,1812.6401 c 4.3827,5.52 10.128,9.48 16.8147,11.7066 1.3293,0.44 1.8947,-1.6533 0.576,-2.0933 -5.428,-1.8 -10.1267,-4.8667 -13.9733,-8.9733 2.0506,0.2533 4.156,0.2666 6.3013,0.013 0.3027,0.6 1.12,0.9467 1.7267,0.3333 4.3826,-4.4666 8.768,-8.92 13.1546,-13.3866 0.9734,-1 -0.56,-2.5334 -1.5333,-1.5334 -4.1627,4.2267 -8.3213,8.4667 -12.4787,12.6934 -0.2306,-0.1867 -0.5306,-0.2934 -0.888,-0.24 -2.932,0.4 -5.8266,0.2133 -8.5933,-0.4534 -0.156,-0.093 -0.3173,-0.1333 -0.4787,-0.1066 -2.5133,-0.68 -4.9,-1.7867 -7.096,-3.2934 4.9614,-1.52 9.8734,-3.7733 14.756,-6.2533 1.2467,-0.64 0.1494,-2.5067 -1.0933,-1.8667 -8.06,4.0934 -16.224,7.6534 -24.6,7.8934 0.564,-0.7334 1.0507,-1.52 1.5587,-2.3067 1.2213,-1.8933 3.1946,-3.0133 5.4253,-3.1733 1.3853,-0.093 1.3947,-2.2667 0,-2.16 -1.9307,0.1333 -3.8173,0.7333 -5.3173,2 -1.36,1.1466 -2.1427,2.7466 -3.1987,4.12 -0.648,-0.1067 -1.4067,0.56 -1.2667,1.3733 -0.027,0.027 -0.041,0.053 -0.064,0.08 -3.9013,-0.2667 -7.848,-1.2933 -11.856,-3.4 -0.3213,-0.1733 -0.6293,-0.16 -0.892,-0.053 3.2907,-3.24 7.16,-5.9334 11.5547,-7.8667 1.276,-0.56 0.172,-2.4267 -1.0933,-1.8667 -6.6307,2.9067 -12.1747,7.48 -16.2774,13.16 -2.7,-5.1733 -3.372,-10.84 -1.9053,-16.5466 0.3493,-1.3467 -1.7413,-1.92 -2.0893,-0.5734 -0.524,2.04 -0.7707,4.0667 -0.8027,6.0934 -3.084,-3.1334 -5.1147,-6.8934 -6.0467,-11.2 -0.2946,-1.36 -2.384,-0.7867 -2.0893,0.5733 1.0213,4.72 3.3293,8.92 6.748,12.32 0.4587,0.4533 1.0253,0.36 1.412,0.04 0.2093,3.8533 1.2907,7.6 3.264,11.1067 0.049,0.08 0.1147,0.1333 0.1747,0.2 -2.024,3.1866 -3.6574,6.6666 -4.7427,10.4 -0.3907,1.3466 1.7013,1.92 2.0907,0.5733 1.7626,-6.0667 4.944,-11.4 9.1666,-15.7733 -0.192,0.4533 -0.1253,0.9866 0.4347,1.28 4.736,2.4933 9.3973,3.5866 14.0013,3.72 1.9667,4.1733 4.3707,8.08 7.2494,11.72 0.8666,1.0933 2.3893,-0.44 1.532,-1.5334 -2.512,-3.1733 -4.6347,-6.5866 -6.416,-10.2 2.5986,-0.12 5.18,-0.52 7.7466,-1.16 2.7974,2.1867 5.856,3.7334 9.104,4.6134" style="fill:#577c69;fill-opacity:1;fill-rule:nonzero;stroke:none;stroke-width:0.133333"/><path id="path1308" d="m 1340.2,1786.7601 c 1.4,0.053 1.4,-2.1067 0,-2.16 -6,-0.2134 -11.596,-1.76 -16.8534,-4.6667 -1.224,-0.68 -2.316,1.1867 -1.0933,1.8667 5.5773,3.08 11.5867,4.7466 17.9467,4.96" style="fill:#577c69;fill-opacity:1;fill-rule:nonzero;stroke:none;stroke-width:0.133333"/></g></svg>