<svg version="1.1" id="svg1" width="2000" height="2579.9468" viewBox="936.1480185735496 2127.64 31.938626426463998 25" sodipodi:docname="styletrees.svg" inkscape:version="1.4.2 (f4327f4, 2025-05-13)" xmlns:inkscape="http://www.inkscape.org/namespaces/inkscape" xmlns:sodipodi="http://sodipodi.sourceforge.net/DTD/sodipodi-0.dtd" xmlns="http://www.w3.org/2000/svg" xmlns:svg="http://www.w3.org/2000/svg"><defs id="defs1"/><g><path id="path1398" d="m 963.33331,2140.64 c 7.73867,0 7.73867,-12 0,-12 -7.73867,0 -7.73867,12 0,12 v 0" style="fill:#577c69;fill-opacity:1;fill-rule:nonzero;stroke:none;stroke-width:0.133333"/><path id="path1423" d="m 962.66664,2145.9734 c 0,0.2133 0,0.44 0,0.6666 0,3.2667 2.72934,6 6,6 3.27067,0 6,-2.7333 6,-6 0,-0.2266 0,-0.4533 0,-0.6666 0,-3.2667 -2.72933,-6 -6,-6 -3.27066,0 -6,2.7333 -6,6 v 0" style="fill:#577c69;fill-opacity:1;fill-rule:nonzero;stroke:none;stroke-width:0.133333"/><path id="path1481" d="m 967.24264,2146.6534 c -10.20133,-0.013 -19.04933,-5.5467 -28.99733,-6.9467 -1.1,-0.1467 -1.57467,1.5333 -0.464,1.68 10.104,1.4267 19.09333,7 29.46133,7.0133 1.12534,0 1.12534,-1.7333 0,-1.7466" style="fill:#534741;fill-opacity:1;fill-rule:nonzero;stroke:none;stroke-width:0.133333"/></g></svg>