<svg version="1.1" id="svg1" width="2000" height="2579.9468" viewBox="656.3333199999998 2079.6344420817 15.666660000000093 15.005557918300383" sodipodi:docname="styletrees.svg" inkscape:version="1.4.2 (f4327f4, 2025-05-13)" xmlns:inkscape="http://www.inkscape.org/namespaces/inkscape" xmlns:sodipodi="http://sodipodi.sourceforge.net/DTD/sodipodi-0.dtd" xmlns="http://www.w3.org/2000/svg" xmlns:svg="http://www.w3.org/2000/svg"><defs id="defs1"/><g><path id="path1426" d="m 668.71465,2092.68 c 0.08,-0.1066 0.172,-0.2 0.27333,-0.2933 -0.44933,0.3467 -0.89866,0.6933 -1.34933,1.0533 0.15867,-0.12 0.30267,-0.2133 0.48533,-0.2933 -0.53066,0.2267 -1.06133,0.4533 -1.592,0.68 0.12134,-0.04 0.24534,-0.067 0.372,-0.08 -0.59066,0.08 -1.18133,0.16 -1.772,0.2267 0.0667,0 0.13467,0 0.20134,0 3.62933,-0.16 6.66666,-2.9067 6.66666,-6.6667 0,-3.5067 -3.03333,-6.8267 -6.66666,-6.6667 -2.22267,0.093 -4.56667,0.8534 -6.048,2.6134 -1.176,1.4 -1.952,2.8266 -1.952,4.72 0,1.76 0.708,3.4666 1.952,4.7066 1.24533,1.2534 2.95333,1.96 4.71466,1.96 1.63067,0 3.62934,-0.6666 4.71467,-1.96 v 0" style="fill:#577c69;fill-opacity:1;fill-rule:nonzero;stroke:none;stroke-width:0.133333"/></g></svg>