<svg version="1.1" id="svg1" width="2000" height="2579.9468" viewBox="845.661462247797 1855.6401 13.671477752203145 14.333300000000008" sodipodi:docname="styletrees.svg" inkscape:version="1.4.2 (f4327f4, 2025-05-13)" xmlns:inkscape="http://www.inkscape.org/namespaces/inkscape" xmlns:sodipodi="http://sodipodi.sourceforge.net/DTD/sodipodi-0.dtd" xmlns="http://www.w3.org/2000/svg" xmlns:svg="http://www.w3.org/2000/svg"><defs id="defs1"/><g><path id="path1388" d="m 849.09065,1858.4001 c -1.632,1.36 -2.332,3.52 -2.424,5.5733 -0.14667,3.2667 2.84,6 6,6 3.38133,0 5.85333,-2.7333 6,-6 0.003,-0.067 0.007,-0.1333 0.009,-0.2 -0.072,0.5333 -0.14267,1.0533 -0.21467,1.5867 0.012,-0.12 0.04,-0.2534 0.0813,-0.3734 -0.20134,0.48 -0.40267,0.96 -0.604,1.44 0.0773,-0.1866 0.16133,-0.3333 0.28133,-0.48 -0.312,0.4 -0.62533,0.8 -0.93867,1.2134 0.0893,-0.1067 0.18667,-0.2 0.29467,-0.28 1.164,-0.9734 1.75733,-2.7734 1.75733,-4.24 0,-1.5867 -0.63733,-3.12 -1.75733,-4.24 -1.12,-1.12 -2.65733,-1.76 -4.24267,-1.76 -1.70133,0 -2.98,0.6933 -4.24266,1.76 v 0" style="fill:#577c69;fill-opacity:1;fill-rule:nonzero;stroke:none;stroke-width:0.133333"/></g></svg>