<svg version="1.1" id="svg1" width="2000" height="2579.9468" viewBox="1133.1104421003083 779.7181183402624 3.3288665024113016 11.955291659736076" sodipodi:docname="styletrees.svg" inkscape:version="1.4.2 (f4327f4, 2025-05-13)" xmlns:inkscape="http://www.inkscape.org/namespaces/inkscape" xmlns:sodipodi="http://sodipodi.sourceforge.net/DTD/sodipodi-0.dtd" xmlns="http://www.w3.org/2000/svg" xmlns:svg="http://www.w3.org/2000/svg"><defs id="defs1"/><g><path id="path711" d="m 1135.5133,781.81341 c -0.01,-0.14667 -0.028,-0.28 -0.019,-0.42667 -0.452,0.0667 -0.904,0.12 -1.356,0.18667 0.4814,1.22667 0.3814,3.01333 0.4734,4.34667 0.1186,1.70666 0.228,3.4 0.4413,5.09333 0.1093,0.88 1.4907,0.88 1.38,0 -0.212,-1.69333 -0.328,-3.38667 -0.4413,-5.09333 -0.096,-1.45334 0.015,-3.34667 -0.5227,-4.72 -0.2813,-0.72 -1.304,-0.61334 -1.356,0.18666 -0.01,0.14667 0.012,0.28 0.02,0.42667 0.045,0.88 1.4267,0.89333 1.38,0 v 0" style="fill:#577c69;fill-opacity:1;fill-rule:nonzero;stroke:none;stroke-width:0.133333"/><path id="path711" d="m 1135.5133,781.81341 c -0.01,-0.14667 -0.028,-0.28 -0.019,-0.42667 -0.452,0.0667 -0.904,0.12 -1.356,0.18667 0.4814,1.22667 0.3814,3.01333 0.4734,4.34667 0.1186,1.70666 0.228,3.4 0.4413,5.09333 0.1093,0.88 1.4907,0.88 1.38,0 -0.212,-1.69333 -0.328,-3.38667 -0.4413,-5.09333 -0.096,-1.45334 0.015,-3.34667 -0.5227,-4.72 -0.2813,-0.72 -1.304,-0.61334 -1.356,0.18666 -0.01,0.14667 0.012,0.28 0.02,0.42667 0.045,0.88 1.4267,0.89333 1.38,0 v 0" style="fill:#577c69;fill-opacity:1;fill-rule:nonzero;stroke:none;stroke-width:0.133333"/></g></svg>