<svg version="1.1" id="svg1" width="2000" height="2579.9468" viewBox="1211.9427817487838 1283.0949632295556 13.272468800386378 15.298968669461374" sodipodi:docname="styletrees.svg" inkscape:version="1.4.2 (f4327f4, 2025-05-13)" xmlns:inkscape="http://www.inkscape.org/namespaces/inkscape" xmlns:sodipodi="http://sodipodi.sourceforge.net/DTD/sodipodi-0.dtd" xmlns="http://www.w3.org/2000/svg" xmlns:svg="http://www.w3.org/2000/svg"><defs id="defs1"/><g><path id="path397" d="m 1223.04,1289.9681 c 0.4,3.548 -1.7334,7.0533 -5.6974,5.8866 -4,-1.1773 -3.3733,-7.0933 -1.0213,-9.5133 2.2293,-2.292 5.484,0.5147 6.6533,2.508 2.0934,3.5667 -0.1706,6.7347 -3.6466,8.064 -0.8827,0.3373 -0.5,1.7707 0.3933,1.428 4.4907,-1.716 6.9813,-5.7107 4.5333,-10.24 -1.6826,-3.1107 -5.928,-5.568 -8.9813,-2.8067 -3.2827,2.9694 -3.272,9.9427 1.152,11.788 4.9387,2.0587 8.6253,-2.4293 8.096,-7.1146 -0.1053,-0.9387 -1.5893,-0.9494 -1.4813,0 v 0" style="fill:#577c69;fill-opacity:1;fill-rule:nonzero;stroke:none;stroke-width:0.133333"/><path id="path397" d="m 1223.04,1289.9681 c 0.4,3.548 -1.7334,7.0533 -5.6974,5.8866 -4,-1.1773 -3.3733,-7.0933 -1.0213,-9.5133 2.2293,-2.292 5.484,0.5147 6.6533,2.508 2.0934,3.5667 -0.1706,6.7347 -3.6466,8.064 -0.8827,0.3373 -0.5,1.7707 0.3933,1.428 4.4907,-1.716 6.9813,-5.7107 4.5333,-10.24 -1.6826,-3.1107 -5.928,-5.568 -8.9813,-2.8067 -3.2827,2.9694 -3.272,9.9427 1.152,11.788 4.9387,2.0587 8.6253,-2.4293 8.096,-7.1146 -0.1053,-0.9387 -1.5893,-0.9494 -1.4813,0 v 0" style="fill:#577c69;fill-opacity:1;fill-rule:nonzero;stroke:none;stroke-width:0.133333"/></g></svg>