<svg version="1.1" id="svg1" width="2000" height="2579.9468" viewBox="1087.7994278396536 758.5066283491842 7.891161706428193 18.236493507760315" sodipodi:docname="styletrees.svg" inkscape:version="1.4.2 (f4327f4, 2025-05-13)" xmlns:inkscape="http://www.inkscape.org/namespaces/inkscape" xmlns:sodipodi="http://sodipodi.sourceforge.net/DTD/sodipodi-0.dtd" xmlns="http://www.w3.org/2000/svg" xmlns:svg="http://www.w3.org/2000/svg"><defs id="defs1"/><g><path id="path601" d="m 1092.5106,760.00008 c -1.0853,4.61333 1.208,8.98667 1.8414,13.48 0.124,0.88 1.4533,0.50667 1.3306,-0.36 -0.592,-4.21333 -2.8533,-8.45333 -1.84,-12.76 0.204,-0.85333 -1.1266,-1.22667 -1.332,-0.36 v 0" style="fill:#577c69;fill-opacity:1;fill-rule:nonzero;stroke:none;stroke-width:0.133333"/><path id="path602" d="m 1088.8053,762.02675 c 0.592,4.88 2.5173,9.41333 3.476,14.21333 0.1747,0.88 1.5053,0.50667 1.3307,-0.36 -0.9334,-4.68 -2.8494,-9.10667 -3.4267,-13.85333 -0.1053,-0.88 -1.4867,-0.88 -1.38,0 v 0" style="fill:#577c69;fill-opacity:1;fill-rule:nonzero;stroke:none;stroke-width:0.133333"/><path id="path601" d="m 1092.5106,760.00008 c -1.0853,4.61333 1.208,8.98667 1.8414,13.48 0.124,0.88 1.4533,0.50667 1.3306,-0.36 -0.592,-4.21333 -2.8533,-8.45333 -1.84,-12.76 0.204,-0.85333 -1.1266,-1.22667 -1.332,-0.36 v 0" style="fill:#577c69;fill-opacity:1;fill-rule:nonzero;stroke:none;stroke-width:0.133333"/><path id="path602" d="m 1088.8053,762.02675 c 0.592,4.88 2.5173,9.41333 3.476,14.21333 0.1747,0.88 1.5053,0.50667 1.3307,-0.36 -0.9334,-4.68 -2.8494,-9.10667 -3.4267,-13.85333 -0.1053,-0.88 -1.4867,-0.88 -1.38,0 v 0" style="fill:#577c69;fill-opacity:1;fill-rule:nonzero;stroke:none;stroke-width:0.133333"/></g></svg>