<svg version="1.1" id="svg1" width="2000" height="2579.9468" viewBox="1093.337169804385 944.163155529556 5.53810132231456 12.499667352213237" sodipodi:docname="styletrees.svg" inkscape:version="1.4.2 (f4327f4, 2025-05-13)" xmlns:inkscape="http://www.inkscape.org/namespaces/inkscape" xmlns:sodipodi="http://sodipodi.sourceforge.net/DTD/sodipodi-0.dtd" xmlns="http://www.w3.org/2000/svg" xmlns:svg="http://www.w3.org/2000/svg"><defs id="defs1"/><g><path id="path1157" d="m 1098.8573,951.40007 c -0.424,-1.93333 -0.7,-3.89333 -1.3333,-5.77333 -0.272,-0.81333 -1.56,-0.46667 -1.2854,0.34667 0.6334,1.88 0.9094,3.85333 1.3334,5.78666 0.184,0.84 1.4693,0.48 1.2853,-0.36 v 0" style="fill:#577c69;fill-opacity:1;fill-rule:nonzero;stroke:none;stroke-width:0.133333"/><path id="path1248" d="m 1096.1906,955.84007 c -0.512,-1.53333 -0.628,-3.09333 -0.42,-4.70666 0.1094,-0.85334 -1.2253,-0.84 -1.3333,0 -0.2227,1.72 -0.077,3.42666 0.468,5.06666 0.2693,0.81334 1.5573,0.46667 1.2853,-0.36 v 0" style="fill:#577c69;fill-opacity:1;fill-rule:nonzero;stroke:none;stroke-width:0.133333"/><path id="path1157" d="m 1098.8573,951.40007 c -0.424,-1.93333 -0.7,-3.89333 -1.3333,-5.77333 -0.272,-0.81333 -1.56,-0.46667 -1.2854,0.34667 0.6334,1.88 0.9094,3.85333 1.3334,5.78666 0.184,0.84 1.4693,0.48 1.2853,-0.36 v 0" style="fill:#577c69;fill-opacity:1;fill-rule:nonzero;stroke:none;stroke-width:0.133333"/><path id="path1248" d="m 1096.1906,955.84007 c -0.512,-1.53333 -0.628,-3.09333 -0.42,-4.70666 0.1094,-0.85334 -1.2253,-0.84 -1.3333,0 -0.2227,1.72 -0.077,3.42666 0.468,5.06666 0.2693,0.81334 1.5573,0.46667 1.2853,-0.36 v 0" style="fill:#577c69;fill-opacity:1;fill-rule:nonzero;stroke:none;stroke-width:0.133333"/></g></svg>