<svg version="1.1" id="svg1" width="2000" height="2579.9468" viewBox="850.26935 2045.5983367362162 19.694204424033842 19.25203204977629" sodipodi:docname="styletrees.svg" inkscape:version="1.4.2 (f4327f4, 2025-05-13)" xmlns:inkscape="http://www.inkscape.org/namespaces/inkscape" xmlns:sodipodi="http://sodipodi.sourceforge.net/DTD/sodipodi-0.dtd" xmlns="http://www.w3.org/2000/svg" xmlns:svg="http://www.w3.org/2000/svg"><defs id="defs1"/><g><path id="path1372" d="m 865.70798,2048.7067 c -0.43067,-0.2267 -0.88267,-0.4133 -1.27467,-0.7067 0.58534,0.44 1.16934,0.8934 1.75467,1.3467 -0.0333,-0.027 -0.0627,-0.053 -0.0907,-0.08 0.452,0.5867 0.904,1.1733 1.356,1.76 -0.008,-0.013 -0.0173,-0.027 -0.0253,-0.04 0.292,0.6933 0.58266,1.3733 0.87333,2.0667 -0.003,-0.013 -0.005,-0.013 -0.008,-0.027 0,1.5333 0,3.0667 0,4.6 0.003,0 0.005,-0.013 0.008,-0.013 -1.328,1.72 -2.656,3.4533 -3.98266,5.1733 0.009,0 0.0173,-0.013 0.0267,-0.013 -0.68933,0.28 -1.38,0.5733 -2.07066,0.8666 0.016,0 0.032,0 0.048,-0.013 -0.768,0.1067 -1.536,0.2133 -2.304,0.3067 0.096,0 0.18533,0.013 0.28133,0.013 -0.768,-0.093 -1.536,-0.2 -2.304,-0.3067 0.048,0.013 0.096,0.013 0.144,0.027 0.768,0.093 1.536,0.2 2.304,0.3067 1.56533,-0.013 3.02267,-0.4 4.37467,-1.1867 1.93733,-1.1333 3.38666,-3.0133 3.98266,-5.1733 0.616,-2.24 0.29867,-4.68 -0.87333,-6.68 -0.452,-0.5867 -0.904,-1.1734 -1.35467,-1.76 -1.08266,-1.0667 -2.35733,-1.8134 -3.82533,-2.2267 -0.884,-0.1333 -1.76667,-0.32 -2.66,-0.3467 -1.316,-0.04 -3.412,0.4534 -4.51867,1.2267 -1.30133,0.76 -2.33866,1.8 -3.108,3.1067 -0.78,1.3333 -1.192,2.8533 -1.192,4.4 0,2.3333 0.952,4.52 2.572,6.1866 0.94667,0.9734 1.97334,1.56 3.11734,2.16 2.09866,1.0934 4.35466,1.5067 6.67866,0.8667 2.16667,-0.5867 4.044,-2.04 5.18,-3.9733 2.30267,-3.9334 1.07067,-9.6667 -3.10933,-11.8667 v 0" style="fill:#577c69;fill-opacity:1;fill-rule:nonzero;stroke:none;stroke-width:0.133333"/></g></svg>