<svg version="1.1" id="svg1" width="2000" height="2579.9468" viewBox="1304.3381420206626 1831.8637732082027 39.55657173777877 59.240351821105605" sodipodi:docname="styletrees.svg" inkscape:version="1.4.2 (f4327f4, 2025-05-13)" xmlns:inkscape="http://www.inkscape.org/namespaces/inkscape" xmlns:sodipodi="http://sodipodi.sourceforge.net/DTD/sodipodi-0.dtd" xmlns="http://www.w3.org/2000/svg" xmlns:svg="http://www.w3.org/2000/svg"><defs id="defs1"/><g><path id="path1310" d="m 1332.6373,1851.5201 c 4.6427,-0.3867 8.6827,-2.84 11.096,-6.84 0.72,-1.2 -1.16,-2.28 -1.88,-1.0934 -1.9067,3.1867 -5.0933,5.2534 -8.7547,5.6934 0.2,-0.5067 0.3814,-1.0134 0.568,-1.52 0.8667,0.3333 2.0134,-0.5467 1.3467,-1.4934 -0.2,-0.28 -0.36,-0.5866 -0.5467,-0.88 0.1734,-0.52 0.3467,-1.0266 0.4934,-1.56 0.3066,-1.08 -0.9867,-1.64 -1.7014,-1.12 -0.8813,-2.7466 -0.796,-5.68 0.328,-8.5333 0.5067,-1.3067 -1.584,-1.8667 -2.0893,-0.5867 -1.56,3.9734 -1.3133,8.28 0.5853,11.9867 -1.8946,5.68 -4.6213,10.9467 -8.2266,15.7467 -0.924,-6.5867 -1.524,-13.2134 -1.76,-19.8934 -0.049,-1.4 -2.216,-1.4 -2.168,0 0.084,2.36 0.2213,4.72 0.3906,7.08 -0.031,-0.053 -0.041,-0.093 -0.079,-0.1333 -2.9174,-3.0667 -5.132,-6.6 -6.584,-10.5733 -0.4747,-1.2934 -2.5694,-0.7334 -2.088,0.5733 1.5813,4.3333 3.9586,8.2 7.14,11.5333 0.5906,0.6267 1.3906,0.28 1.7026,-0.3066 0.2947,3.8133 0.692,7.6133 1.2094,11.3866 -2.8987,-2.1066 -5.4814,-4.5466 -7.7934,-7.3466 -2.092,-2.5334 -3.568,-7.76 -7.132,-8.52 -1.3626,-0.28 -1.9426,1.8 -0.576,2.0933 1.8907,0.4 3.0707,3.5733 4.0027,5.0133 1.0747,1.6534 2.34,3.1867 3.636,4.6667 2.388,2.7333 5.2493,5.0267 8.2933,7 1.3614,8.92 3.3254,17.7467 5.9374,26.4533 0.4,1.3334 2.492,0.76 2.0893,-0.5866 -2.4493,-8.1467 -4.3347,-16.4134 -5.676,-24.7734 0.628,-0.2 1.004,-1.0266 0.64,-1.6266 2.8653,-3.7067 5.2507,-7.68 7.1333,-11.9067 0.132,0.053 0.2854,0.08 0.4627,0.067" style="fill:#577c69;fill-opacity:1;fill-rule:nonzero;stroke:none;stroke-width:0.133333"/></g></svg>