<svg version="1.1" id="svg1" width="2000" height="2579.9468" viewBox="321.3835036197238 311.5567574999984 40.123973493885956 128.83651413558368" sodipodi:docname="styletrees.svg" inkscape:version="1.4.2 (f4327f4, 2025-05-13)" xmlns:inkscape="http://www.inkscape.org/namespaces/inkscape" xmlns:sodipodi="http://sodipodi.sourceforge.net/DTD/sodipodi-0.dtd" xmlns="http://www.w3.org/2000/svg" xmlns:svg="http://www.w3.org/2000/svg"><defs id="defs1"/><g><path id="path85" d="m 322.52399,440.20009 c -0.43866,0.45333 0.25067,1.14666 0.68934,0.69333 3.464,-3.56 7.12,-6.94667 10.09733,-10.94667 2.724,-3.66666 4.66666,-7.86666 6.26266,-12.12 3.38667,-9.02666 5.00934,-18.69333 6.70267,-28.14666 2.02133,-11.28 3.46933,-22.69333 3.512,-34.17333 0.0213,-5.85334 -0.49333,-11.66667 -1.08933,-17.48 -0.268,-2.61334 -0.59467,-5.22667 -1.00134,-7.82667 -0.45333,-2.90667 -1.72933,-5.97333 -0.93733,-8.90667 0.164,-0.6 -0.77733,-0.86666 -0.94133,-0.25333 -0.56534,2.09333 -0.19067,3.98667 0.304,6.05333 0.688,2.89334 1.02666,5.88 1.36933,8.82667 0.644,5.50667 1.14933,11.05333 1.288,16.6 0.29067,11.64 -1.11067,23.25333 -3.06,34.69333 -1.604,9.42667 -3.28267,18.97333 -6.28267,28.06667 -1.47733,4.48 -3.404,8.8 -5.984,12.76 -2.99199,4.58666 -7.14133,8.26666 -10.92933,12.16" style="fill:#577c69;fill-opacity:1;fill-rule:nonzero;stroke:none;stroke-width:0.133333"/><path id="path86" d="m 342.75066,380.90675 c -0.808,8.82667 -2.04267,17.65334 -3.67867,26.36 -1.40133,7.45334 -3.272,15.44 -7.84133,21.65334 -0.37333,0.50666 0.47333,0.98666 0.84267,0.49333 4.51733,-6.14667 6.38933,-13.98667 7.83333,-21.33333 1.712,-8.72 2.88266,-17.61334 3.75066,-26.45334 0.98934,-10.06666 0.98667,-20.21333 1.05467,-30.31999 0.0653,-9.84 -0.43067,-19.70667 -2.83067,-29.29334 -0.15333,-0.61333 -1.09466,-0.34666 -0.94133,0.25334 2.38133,9.52 2.84,19.28 2.796,29.04 -0.0453,9.86666 -0.084,19.77333 -0.98533,29.59999" style="fill:#577c69;fill-opacity:1;fill-rule:nonzero;stroke:none;stroke-width:0.133333"/><path id="path87" d="m 334.74132,324.41342 c 0.74,8.53334 2.24934,16.96 3.17734,25.46667 0.94933,8.68 0.81733,17.44 0.56533,26.16 -0.25867,8.94666 -1.21333,17.77333 -2.58933,26.61333 -0.652,4.18667 -1.30267,8.44 -2.40134,12.53333 -0.99466,3.70667 -2.79199,7.14667 -2.97999,11.05334 -0.0307,0.62666 0.94533,0.62666 0.976,0 0.19066,-3.97334 2.08666,-7.6 3.10399,-11.38667 1.10534,-4.12 1.696,-8.44 2.35334,-12.65333 1.31466,-8.44 2.196,-16.89334 2.48933,-25.44 0.3,-8.72 0.408,-17.48 -0.46667,-26.16 -0.87866,-8.76 -2.492,-17.41333 -3.252,-26.18667 -0.0533,-0.61333 -1.02933,-0.62666 -0.976,0" style="fill:#577c69;fill-opacity:1;fill-rule:nonzero;stroke:none;stroke-width:0.133333"/><path id="path88" d="m 330.53066,326.17342 c 1.69867,7.41334 3.30133,14.84 4.164,22.4 0.86933,7.61334 0.956,15.33334 0.73733,22.98667 -0.21733,7.65333 -0.88133,15.28 -1.56667,22.90666 -0.34266,3.81334 -0.69466,7.64 -1.22399,11.44 -0.48,3.44 -1.58,6.73334 -1.47734,10.24 0.0173,0.62667 0.99334,0.62667 0.976,0 -0.10666,-3.62666 1.03867,-7.08 1.536,-10.65333 0.51067,-3.65333 0.82933,-7.34667 1.16533,-11.02667 0.71734,-7.86666 1.364,-15.74666 1.588,-23.65333 0.21734,-7.65333 0.028,-15.34666 -0.84133,-22.96 -0.844,-7.4 -2.45333,-14.69333 -4.116,-21.93333 -0.14133,-0.61333 -1.08266,-0.36 -0.94133,0.25333" style="fill:#577c69;fill-opacity:1;fill-rule:nonzero;stroke:none;stroke-width:0.133333"/><path id="path89" d="m 331.21733,385.46675 c -0.51067,6.54667 -1.488,13.04 -1.35467,19.62667 0.012,0.62667 0.988,0.62667 0.976,0 -0.13333,-6.57333 0.80933,-13.09333 1.35467,-19.62667 0.556,-6.66666 0.54666,-13.41333 0.68933,-20.10666 0.14533,-6.73333 0.212,-13.50667 -0.14667,-20.24 -0.344,-6.45333 -1.54266,-12.82667 -2.56533,-19.2 -0.1,-0.62667 -1.04,-0.36 -0.94133,0.25333 1.01066,6.29334 2.13333,12.57334 2.53066,18.94667 0.42,6.73333 0.28267,13.50667 0.14667,20.24 -0.13467,6.69333 -0.16933,13.42667 -0.68933,20.10666" style="fill:#577c69;fill-opacity:1;fill-rule:nonzero;stroke:none;stroke-width:0.133333"/><path id="path90" d="m 346.62399,410.44009 c -3.31467,9.36 -9.40133,17.06666 -15.64133,24.61333 -1.32267,1.17333 -2.51733,2.48 -3.404,4.08 -0.084,0.17333 -0.168,0.34667 -0.252,0.52 -0.272,0.56 0.56933,1.05333 0.84267,0.49333 0.47733,-0.98666 1.088,-1.88 1.78,-2.69333 0.14133,0.04 0.29466,0.0133 0.42133,-0.13333 0.49467,-0.6 0.98933,-1.2 1.48267,-1.8 2.27466,-2.02667 4.95199,-3.73334 7.10533,-5.81334 3.74,-3.6 6.63466,-8.02666 9.11866,-12.56 5.22934,-9.54666 8.34934,-20.13333 10.36534,-30.78666 2.09733,-11.08 2.86933,-22.4 3.03866,-33.66667 0.092,-6.05333 -0.0613,-12.12 -0.41866,-18.17333 -0.35734,-6.02667 -1.32534,-11.89333 -2.024,-17.86667 -0.14134,-1.2 -0.20267,-2.41333 -0.22534,-3.62666 -0.012,-0.62667 -0.988,-0.62667 -0.976,0 0.11334,6 1.536,11.93333 2.004,17.92 0.47067,6.01333 0.67334,12.06666 0.688,18.10666 0.0267,11.72 -0.7,23.50667 -2.67333,35.06667 -1.888,11.06666 -5.06,22.01333 -10.31467,31.96 -2.59066,4.90666 -5.732,9.53333 -9.736,13.38666 -1.00133,0.97334 -2.10133,1.84 -3.21466,2.69334 4.852,-6.04 9.348,-12.32 12.27733,-19.6 4.156,-10.32 6.13467,-21.61334 7.22667,-32.64 1.14133,-11.52 0.92266,-23.18667 0.908,-34.74667 -0.008,-6.09333 -0.18667,-12.18666 -0.784,-18.24 -0.36667,-3.73333 -1.01067,-7.54666 -0.936,-11.29333 0.0133,-0.64 -0.96267,-0.62667 -0.97467,0 -0.072,3.6 0.53067,7.26667 0.892,10.85333 0.576,5.70667 0.776,11.44 0.82,17.18667 0.0867,11.37333 0.21867,22.85333 -0.71467,34.18667 -0.912,11.06666 -2.968,22.09333 -6.68133,32.57333" style="fill:#577c69;fill-opacity:1;fill-rule:nonzero;stroke:none;stroke-width:0.133333"/></g></svg>