<svg version="1.1" id="svg1" width="2000" height="2579.9468" viewBox="1090.523480396028 619.964881572889 4.482510521050699 19.871577409452243" sodipodi:docname="styletrees.svg" inkscape:version="1.4.2 (f4327f4, 2025-05-13)" xmlns:inkscape="http://www.inkscape.org/namespaces/inkscape" xmlns:sodipodi="http://sodipodi.sourceforge.net/DTD/sodipodi-0.dtd" xmlns="http://www.w3.org/2000/svg" xmlns:svg="http://www.w3.org/2000/svg"><defs id="defs1"/><g><path id="path899" d="m 1092.2293,621.18675 c -1.1693,1.26667 -0.6,3.21333 -0.304,4.74667 0.856,4.4 0.94,8.97333 1.736,13.4 0.1573,0.88 1.488,0.50666 1.332,-0.36 -0.6573,-3.65334 -1.036,-7.34667 -1.4133,-11.04 -0.14,-1.38667 -1.3374,-4.73334 -0.3747,-5.77334 0.6013,-0.65333 -0.372,-1.64 -0.976,-0.97333 v 0" style="fill:#577c69;fill-opacity:1;fill-rule:nonzero;stroke:none;stroke-width:0.133333"/><path id="path899" d="m 1092.2293,621.18675 c -1.1693,1.26667 -0.6,3.21333 -0.304,4.74667 0.856,4.4 0.94,8.97333 1.736,13.4 0.1573,0.88 1.488,0.50666 1.332,-0.36 -0.6573,-3.65334 -1.036,-7.34667 -1.4133,-11.04 -0.14,-1.38667 -1.3374,-4.73334 -0.3747,-5.77334 0.6013,-0.65333 -0.372,-1.64 -0.976,-0.97333 v 0" style="fill:#577c69;fill-opacity:1;fill-rule:nonzero;stroke:none;stroke-width:0.133333"/></g></svg>