<svg version="1.1" id="svg1" width="2000" height="2579.9468" viewBox="1178.22317970619 653.3070309100643 3.0295072954995703 15.756090946880477" sodipodi:docname="styletrees.svg" inkscape:version="1.4.2 (f4327f4, 2025-05-13)" xmlns:inkscape="http://www.inkscape.org/namespaces/inkscape" xmlns:sodipodi="http://sodipodi.sourceforge.net/DTD/sodipodi-0.dtd" xmlns="http://www.w3.org/2000/svg" xmlns:svg="http://www.w3.org/2000/svg"><defs id="defs1"/><g><path id="path677" d="m 1180.4266,654.36008 c -1.5666,0.65333 -1.1466,4.21333 -1.1666,5.49333 -0.043,2.85334 -0.083,5.89334 0.4546,8.70667 0.1667,0.88 1.4974,0.50667 1.332,-0.36 -0.3746,-1.97333 -0.348,-4.05333 -0.3933,-6.04 -0.017,-0.76 -0.232,-6.30667 0.1413,-6.46667 0.8107,-0.33333 0.456,-1.66666 -0.368,-1.33333 v 0" style="fill:#577c69;fill-opacity:1;fill-rule:nonzero;stroke:none;stroke-width:0.133333"/><path id="path677" d="m 1180.4266,654.36008 c -1.5666,0.65333 -1.1466,4.21333 -1.1666,5.49333 -0.043,2.85334 -0.083,5.89334 0.4546,8.70667 0.1667,0.88 1.4974,0.50667 1.332,-0.36 -0.3746,-1.97333 -0.348,-4.05333 -0.3933,-6.04 -0.017,-0.76 -0.232,-6.30667 0.1413,-6.46667 0.8107,-0.33333 0.456,-1.66666 -0.368,-1.33333 v 0" style="fill:#577c69;fill-opacity:1;fill-rule:nonzero;stroke:none;stroke-width:0.133333"/></g></svg>