<svg version="1.1" id="svg1" width="2000" height="2579.9468" viewBox="858.9999999999999 1838.9733999999999 13.671548425971537 13.67160578458379" sodipodi:docname="styletrees.svg" inkscape:version="1.4.2 (f4327f4, 2025-05-13)" xmlns:inkscape="http://www.inkscape.org/namespaces/inkscape" xmlns:sodipodi="http://sodipodi.sourceforge.net/DTD/sodipodi-0.dtd" xmlns="http://www.w3.org/2000/svg" xmlns:svg="http://www.w3.org/2000/svg"><defs id="defs1"/><g><path id="path1415" d="m 865.99998,1852.6401 c 3.652,0.1466 6.81333,-3.0134 6.66666,-6.6667 -0.13066,-3.2667 -2.63066,-6 -5.99999,-6 -3.172,0 -6.13067,2.7333 -6,6 0.0133,0.1067 0.0107,0.2133 -0.012,0.32 0.072,-0.5333 0.14266,-1.0667 0.21466,-1.6 -0.0147,0.04 -0.0293,0.08 -0.0453,0.12 0.20267,-0.4667 0.404,-0.9467 0.60533,-1.4267 -0.024,0.027 -0.0467,0.067 -0.0707,0.093 0.71733,-0.72 1.43466,-1.4267 2.15333,-2.1467 -0.0333,0.027 -0.0653,0.04 -0.0973,0.067 0.47866,-0.2 0.956,-0.4 1.43333,-0.6 -0.04,0.013 -0.0813,0.027 -0.12133,0.04 0.532,-0.067 1.06266,-0.1467 1.59466,-0.2134 -0.10666,0.027 -0.21333,0.027 -0.32133,0.013 -3.26933,-0.1334 -6,2.8266 -6,6 0,3.3733 2.73333,5.8666 6,6 v 0" style="fill:#577c69;fill-opacity:1;fill-rule:nonzero;stroke:none;stroke-width:0.133333"/></g></svg>