<svg version="1.1" id="svg1" width="2000" height="2579.9468" viewBox="1188.35471575573 766.338642771747 2.8612074429358927 11.77143472824514" sodipodi:docname="styletrees.svg" inkscape:version="1.4.2 (f4327f4, 2025-05-13)" xmlns:inkscape="http://www.inkscape.org/namespaces/inkscape" xmlns:sodipodi="http://sodipodi.sourceforge.net/DTD/sodipodi-0.dtd" xmlns="http://www.w3.org/2000/svg" xmlns:svg="http://www.w3.org/2000/svg"><defs id="defs1"/><g><path id="path581" d="m 1190.016,767.52008 c -0.828,0.73333 -0.5334,3.12 -0.564,4.06667 -0.064,1.94666 -0.048,3.90666 -0.097,5.85333 -0.023,0.89333 1.3574,0.89333 1.38,0 0.039,-1.53333 0.036,-3.06667 0.067,-4.61333 0.015,-0.76 -0.188,-4 0.192,-4.33334 0.6653,-0.58666 -0.3147,-1.56 -0.9773,-0.97333 v 0" style="fill:#577c69;fill-opacity:1;fill-rule:nonzero;stroke:none;stroke-width:0.133333"/><path id="path581" d="m 1190.016,767.52008 c -0.828,0.73333 -0.5334,3.12 -0.564,4.06667 -0.064,1.94666 -0.048,3.90666 -0.097,5.85333 -0.023,0.89333 1.3574,0.89333 1.38,0 0.039,-1.53333 0.036,-3.06667 0.067,-4.61333 0.015,-0.76 -0.188,-4 0.192,-4.33334 0.6653,-0.58666 -0.3147,-1.56 -0.9773,-0.97333 v 0" style="fill:#577c69;fill-opacity:1;fill-rule:nonzero;stroke:none;stroke-width:0.133333"/></g></svg>