<svg version="1.1" id="svg1" width="2000" height="2579.9468" viewBox="68.96390391664666 1175.3900788279304 324.20871321817714 249.7762211720626" sodipodi:docname="styletrees.svg" inkscape:version="1.4.2 (f4327f4, 2025-05-13)" xmlns:inkscape="http://www.inkscape.org/namespaces/inkscape" xmlns:sodipodi="http://sodipodi.sourceforge.net/DTD/sodipodi-0.dtd" xmlns="http://www.w3.org/2000/svg" xmlns:svg="http://www.w3.org/2000/svg"><defs id="defs1"/><g><path id="path332" d="m 212.79599,1180.0401 c -5.21466,0.16 -8.94266,8.1066 -11.376,11.8266 -4.65866,7.1334 -8.40399,14.8534 -11.28133,22.8667 -6.10666,17 -7.35466,36.092 -6.196,53.9947 0.0813,1.26 1.91467,11.7853 1.88667,11.7893 -1.944,0.2627 -3.548,1.5867 -4.46933,3.256 -1.60134,2.9027 -0.38,6.9093 2.58,8.3347 8.15466,3.9266 10.95466,-12.6707 2.85466,-11.3414 -0.95466,0.156 -0.548,1.604 0.4,1.448 4.42934,-0.7266 4.008,9.9894 -2.18933,8.6854 -2.22133,-0.468 -3.01733,-3.1227 -2.74933,-5.08 0.33333,-2.4467 2.43333,-3.6454 4.67333,-3.948 0.30667,-0.041 0.57733,-0.4267 0.552,-0.724 -0.36,-4.2 -1.72933,-8.208 -2.036,-12.42 -0.34667,-4.7547 -0.40133,-9.528 -0.30533,-14.292 0.19333,-9.4894 1.27466,-18.996 3.27733,-28.276 1.92933,-8.9467 5.35067,-17.52 9.62133,-25.6 1.97333,-3.72 4.21467,-7.3067 6.59067,-10.7867 1.84266,-2.7067 4.44933,-8.1067 8.16666,-8.2267 0.96667,-0.04 0.96934,-1.5333 0,-1.5066 v 0" style="fill:#577c69;fill-opacity:1;fill-rule:nonzero;stroke:none;stroke-width:0.133333"/><path id="path333" d="m 212.79599,1181.0401 c 0,-0.4 0,-0.8 0.001,-1.2134 0,-0.96 -1.48134,-0.96 -1.504,0 -0.184,7.88 1.208,15.6534 1.564,23.5067 0.39733,8.76 0.436,17.5467 0.352,26.32 -0.08,8.3333 -0.42,16.6533 -0.55334,24.9933 -0.136,8.4307 0.68134,17.184 -0.20533,25.56 0.25067,-0.2506 0.50133,-0.5013 0.752,-0.752 -5.64267,-0.124 -6.27333,9.324 -0.8,9.896 6.59067,0.688 7.96,-9.984 1.144,-10.1146 -0.96933,-0.019 -0.96667,1.484 0,1.5026 4.66267,0.091 3.632,7.0094 -0.576,7.168 -3.82667,0.1454 -3.90933,-7.04 0.232,-6.9493 0.44133,0.011 0.70933,-0.3507 0.75067,-0.7507 0.84133,-7.9466 0.08,-16.248 0.18533,-24.244 0.116,-8.772 0.468,-17.536 0.57333,-26.3093 0.10134,-8.3467 -0.024,-16.68 -0.304,-25.0133 -0.28,-8.2934 -1.80533,-16.5067 -1.61066,-24.8134 -0.50134,0 -1.00267,0 -1.504,0 0,0.4134 0,0.8134 0,1.2134 -0.001,0.9733 1.50133,0.9733 1.50266,0 v 0" style="fill:#577c69;fill-opacity:1;fill-rule:nonzero;stroke:none;stroke-width:0.133333"/><path id="path334" d="m 210.81866,1181.2401 c 1.18,3.32 3.20267,6.1866 5.14933,9.0933 2.532,3.7867 4.388,7.72 5.98667,11.9733 3.136,8.36 4.828,17.2134 6.488,25.96 1.844,9.7334 3.144,19.4894 4.40133,29.3067 0.572,4.4587 1.47867,8.9147 1.81867,13.3933 0.296,3.912 0.14,7.8547 1.49867,11.5947 0.45733,-0.1933 0.916,-0.3867 1.37333,-0.58 -2.956,-3.8453 -8.30533,4.136 -4.67733,6.452 2.50933,1.604 6,0.664 7.08266,-2.1147 1.13467,-2.912 -1.688,-5.2933 -4.34933,-5.0786 -0.95867,0.077 -0.96667,1.5813 0,1.5026 4.53733,-0.3653 3.408,5.8534 -1.308,4.7507 -3.28,-0.7667 0.9,-6.1253 1.95467,-4.7533 0.472,0.616 1.69066,0.2946 1.37333,-0.5787 -1.42133,-3.912 -1.21333,-8.1373 -1.524,-12.232 -0.34533,-4.5573 -1.32533,-9.1227 -1.90533,-13.6573 -1.168,-9.1094 -2.35867,-18.1654 -4.06267,-27.192 -1.656,-8.7867 -3.38933,-17.5467 -6.30267,-26.0134 -1.27333,-3.7066 -2.78933,-7.4 -4.79333,-10.7733 -2.26533,-3.8 -5.252,-7.2267 -6.75467,-11.4533 -0.32266,-0.9067 -1.77466,-0.5067 -1.44933,0.4 v 0" style="fill:#577c69;fill-opacity:1;fill-rule:nonzero;stroke:none;stroke-width:0.133333"/><path id="path335" d="m 210.91333,1181.1867 c 16.28,7.24 26.65733,24.5467 32.84,40.5734 3.51066,9.1066 6.004,18.6 7.99866,28.1386 1.02267,4.888 1.856,9.8147 2.612,14.7507 0.68534,4.4827 2.616,9.5453 2.25467,14.0613 0.31733,-0.2413 0.63467,-0.4826 0.952,-0.724 -5.19867,-0.716 -5.72533,6.4254 -2.43867,9.084 1.96134,1.5867 5.24134,0.4414 6.63867,-1.392 2.43067,-3.1893 -0.89733,-6.0586 -3.75733,-7.3413 -0.876,-0.3933 -1.64134,0.9013 -0.75867,1.2973 1.67467,0.7507 4.67067,2.356 3.692,4.664 -0.912,2.1507 -4.20667,2.6694 -5.548,0.9174 -1.35333,-1.7667 -1.35467,-6.2107 1.772,-5.78 0.50667,0.069 0.90933,-0.1934 0.952,-0.7254 0.324,-4.052 -1.38,-8.016 -1.94533,-11.9906 -0.76267,-5.3574 -1.67467,-10.6907 -2.72667,-15.9987 -2.116,-10.668 -5.02267,-21.2147 -9.02133,-31.3347 -6.18267,-15.6666 -16.89334,-32.44 -32.75734,-39.4933 -0.87733,-0.3867 -1.64266,0.9067 -0.75866,1.2933 v 0" style="fill:#577c69;fill-opacity:1;fill-rule:nonzero;stroke:none;stroke-width:0.133333"/><path id="path336" d="m 212.82666,1180.8267 c 3.12,-2.84 10.81733,-1.1066 14.204,0.053 5.36133,1.84 9.92533,5.8266 13.92133,9.7066 7.61067,7.3867 13.24,16.6134 18.12934,25.9467 4.876,9.32 9.25866,18.8933 12.112,29.0267 2.96933,10.5466 4.51066,21.456 5.992,32.292 0.308,-0.308 0.616,-0.616 0.924,-0.924 -4.56534,-1.2534 -7.576,5.792 -4.188,8.688 1.90666,1.6306 5.79466,0.8093 6.95866,-1.3707 2.11334,-3.9573 -1.31733,-6.324 -4.58133,-7.912 -0.86667,-0.4227 -1.62933,0.8733 -0.75733,1.2973 1.904,0.9267 7.436,3.524 2.97066,6.812 -1.66133,1.224 -3.99733,0.4054 -4.484,-1.4386 -0.56266,-2.1267 1.29334,-5.2827 3.68134,-4.6267 0.60933,0.1667 1,-0.38 0.92533,-0.924 -1.64267,-12.0213 -3.46133,-24.0387 -6.98,-35.68 -3.35067,-11.08 -8.75333,-21.7733 -14.45333,-31.8267 -5.452,-9.6133 -12.20667,-18.6533 -20.96934,-25.4933 -3.77733,-2.9467 -8.34133,-5.5067 -13.16266,-6.1467 -3.37067,-0.44 -8.56,-1.04 -11.30534,1.4534 -0.71866,0.6533 0.34667,1.7066 1.06267,1.0666 v 0" style="fill:#577c69;fill-opacity:1;fill-rule:nonzero;stroke:none;stroke-width:0.133333"/><path id="path337" d="m 212.34399,1182.1867 c 1.84534,-1.8 4.77867,-1.7333 7.18934,-1.8133 3.38,-0.1067 6.724,0.1067 10.068,0.6133 6.544,1 12.78266,3.44 18.588,6.56 10.44666,5.6134 19.41466,13.6134 26.436,23.1334 14.42533,19.56 20.42,44.6933 23.53866,68.384 0.25067,-0.2507 0.50134,-0.5014 0.752,-0.752 -3.908,-0.2734 -5.688,5.9746 -1.66533,7.2213 2.656,0.8227 5.636,-1.1253 6.38667,-3.6107 1.12933,-3.736 -3.64934,-3.796 -5.84534,-3.5573 -0.95333,0.104 -0.96266,1.608 0,1.504 0.89334,-0.099 1.75734,-0.1627 2.656,-0.1573 1.42,2.5866 1.03067,4.024 -1.16666,4.312 -0.97867,0.3 -1.86267,0.1026 -2.652,-0.5894 -1.08267,-1.4666 0.808,-3.7226 2.28666,-3.62 0.37067,0.027 0.80267,-0.3626 0.752,-0.7506 -3.30666,-25.1067 -9.85333,-51.2374 -25.62133,-71.6107 -7.71067,-9.9733 -17.936,-17.9733 -29.316,-23.3333 -5.816,-2.7334 -12.05867,-4.3867 -18.44,-5.0667 -4.26667,-0.44 -11.58267,-1.2667 -15.00933,2.0667 -0.696,0.68 0.368,1.7333 1.06266,1.0666 v 0" style="fill:#577c69;fill-opacity:1;fill-rule:nonzero;stroke:none;stroke-width:0.133333"/><path id="path338" d="m 214.33866,1180.9201 c 4.82533,-3.3867 11.164,-3.2 16.77867,-2.6267 5.90666,0.6133 11.748,2.2 17.33466,4.16 13.75867,4.8533 25.73334,13.9067 35.90267,24.1867 10.264,10.3733 18.28,22.24 23.17067,36.04 4.376,12.348 6.03066,25.4853 6.51466,38.5186 0.25067,-0.2506 0.50134,-0.5013 0.752,-0.752 -1.28,0.1707 -5.55733,0.7934 -4.67733,3.1614 0.73067,1.9653 3.46133,3.496 5.57467,3.0826 1.95733,-0.384 5.204,-2.0813 3.74266,-4.576 -1.276,-2.1786 -5.78666,-1.692 -7.82533,-1.6573 -0.968,0.016 -0.96933,1.5187 0,1.5027 1.87067,-0.031 3.73467,-0.043 5.56533,0.404 -0.34133,0.9026 -0.68266,1.8053 -1.024,2.7093 -1.08666,0.232 -2.112,0.091 -3.07733,-0.4253 -2.85867,-1.2187 0.39867,-2.5214 1.72133,-2.6987 0.39334,-0.052 0.768,-0.3013 0.75067,-0.7507 -0.504,-13.5733 -2.36667,-27.064 -6.91867,-39.9053 -4.96933,-14.0267 -13.516,-25.92 -23.90666,-36.4267 -10.45067,-10.5733 -22.864,-19.28 -36.93867,-24.24 -5.672,-2 -11.62667,-3.3066 -17.60533,-3.9333 -5.54134,-0.5733 -11.872,-0.3867 -16.59334,2.9333 -0.78666,0.5467 -0.036,1.8534 0.75867,1.2934 v 0" style="fill:#577c69;fill-opacity:1;fill-rule:nonzero;stroke:none;stroke-width:0.133333"/><path id="path339" d="m 210.49066,1179.5601 c -3.476,-0.8 -6.10133,0.88 -8.916,2.76 -3.57066,2.3866 -6.85466,5.2 -9.93333,8.1866 -6.18933,6 -10.884,13.3734 -14.65733,21.0667 -7.508,15.3333 -10.736,32.4933 -12.196,49.3893 -0.65734,7.6067 -1.444,15.7187 -0.708,23.336 0.156,1.6227 0.732,4.0267 -1.416,4.5 -0.81867,0.18 -1.62534,0.8387 -2.08267,1.5094 -1.348,1.9746 -2.13067,4.9146 -1.13467,7.2173 1.55067,3.5867 6.16534,4.388 7.83734,0.5573 1.316,-3.0186 0.55866,-7.6613 -2.884,-8.8 -0.92267,-0.3053 -1.31467,1.1467 -0.4,1.4494 3.92666,1.3 2.80133,10.5653 -1.83334,7.852 -3.13866,-1.8387 -1.596,-7.788 1.608,-8.4934 1.55467,-0.3426 1.90934,-1.4226 1.98667,-2.8626 0.116,-2.1667 -0.312,-4.3934 -0.304,-6.572 0.012,-3.424 0.10133,-6.8467 0.24133,-10.268 0.284,-6.968 0.90267,-13.924 1.87867,-20.8294 1.86267,-13.1586 5.30133,-26.1853 11.16267,-38.1586 3.06133,-6.24 6.89733,-12.16 11.55733,-17.3334 2.33467,-2.6 4.93467,-4.9466 7.62267,-7.16 3.11333,-2.5733 7.86399,-6.8933 12.17066,-5.8933 0.94267,0.2267 1.344,-1.2267 0.4,-1.4533 v 0" style="fill:#577c69;fill-opacity:1;fill-rule:nonzero;stroke:none;stroke-width:0.133333"/><path id="path340" d="m 210.99199,1180.5734 c -3.69066,-1.4667 -7.16933,0.013 -10.63466,1.4667 -3.784,1.5733 -7.444,3.3866 -10.99733,5.4266 -7.716,4.44 -14.712,10.24 -20.25067,17.2134 -11.51333,14.52 -19.104,32.68 -24.94933,50.1 -2.99067,8.9133 -4.80534,18.104 -5.45334,27.4813 -0.18533,2.6747 1.892,8.0413 -1.444,9.2907 -2.496,0.9346 -2.06933,4.16 -1.28533,6.0813 1.34933,3.308 7.69067,6.552 10.15333,2.5013 3.51467,-5.78 -3.47733,-7.464 -7.10133,-9.7746 -0.82,-0.5227 -1.57333,0.7786 -0.75867,1.2986 1.79467,1.144 3.84267,1.7827 5.65867,2.8907 2.35467,1.4387 1.98933,4.9173 -0.63867,5.7653 -1.652,0.5334 -3.53866,-0.488 -4.73466,-1.5333 -1.46134,-1.2747 -2.992,-4.9947 -0.152,-6.0587 0.548,-0.2053 1.404,-0.5066 1.66933,-1.1106 0.816,-1.8654 0.51333,-3.98 0.34,-5.9534 -1.244,-14.2786 4.40667,-29.3693 9.54933,-42.4453 5.49734,-13.9733 12.44667,-28.52 22.28934,-39.9867 4.772,-5.56 10.68133,-10.08 16.90933,-13.8933 2.828,-1.72 5.78533,-3.2267 8.78933,-4.6267 3.76133,-1.7466 8.48267,-4.3466 12.64133,-2.6933 0.90134,0.36 1.28934,-1.0933 0.4,-1.44 v 0" style="fill:#577c69;fill-opacity:1;fill-rule:nonzero;stroke:none;stroke-width:0.133333"/><path id="path341" d="m 209.53999,1179.5334 c -12.98399,-1.2533 -26.84533,3.3733 -38.41199,8.96 -11.904,5.7333 -21.27734,14.5467 -29.456,24.7867 -7.81867,9.7866 -14.7048,20.1466 -19.58654,31.72 -2.44693,5.7986 -4.27293,11.844 -5.65946,17.9786 -0.68014,3.0094 -1.21347,6.06 -1.62027,9.1174 -0.4516,3.3893 -1.412,6.6946 -1.47453,10.1266 0.31666,-0.2413 0.63386,-0.4826 0.95106,-0.724 -6.95573,-1.6333 -7.51146,10.176 -1.95253,12.3094 3.93533,1.5106 7.9468,-1.216 8.22907,-5.4547 0.3636,-5.4653 -3.87187,-8.2827 -8.91147,-7.3373 -0.95147,0.1786 -0.54733,1.628 0.3996,1.4493 4.28947,-0.8053 7.73373,1.9013 6.89,6.4787 -0.68693,3.7253 -4.99947,4.9906 -7.55467,2.3613 -2.21613,-2.2813 -1.9088,-9.3933 2.50054,-8.3573 0.47973,0.112 0.94226,-0.224 0.95106,-0.7254 0.0563,-3.0626 0.92134,-5.972 1.32347,-8.9906 0.44053,-3.3094 1.01507,-6.5894 1.71773,-9.8534 1.24787,-5.7933 3.0536,-11.4546 5.24054,-16.952 4.67453,-11.7733 11.8244,-22.1866 19.61906,-32.08 7.81867,-9.92 16.84,-18.2266 28.12134,-24.0533 11.37866,-5.8667 25.78666,-10.5067 38.68399,-9.2533 0.964,0.093 0.95467,-1.4134 0,-1.5067 v 0" style="fill:#577c69;fill-opacity:1;fill-rule:nonzero;stroke:none;stroke-width:0.133333"/><path id="path342" d="m 208.23599,1179.3201 c -13.99733,-2 -27.73199,0.16 -40.93866,5 -12.748,4.6666 -25.48,10.6933 -36.12227,19.2133 -10.24586,8.1867 -17.7824,19.7333 -24.29746,30.96 -3.1708,5.4667 -5.7,11.28 -7.493736,17.3413 -0.942133,3.1827 -1.5656,6.4494 -2.030266,9.7307 -0.500534,3.5373 -0.0796,7.1187 -0.6416,10.6333 0.308266,-0.1746 0.616666,-0.3506 0.9244,-0.5253 -7.439067,-2.2867 -10.047867,9.8493 -2.609867,10.7507 3.947467,0.4786 7.666669,-2.248 7.534399,-6.3787 -0.1292,-4.028 -5.809332,-4.4453 -8.549466,-5.5493 -0.899466,-0.3627 -1.2864,1.092 -0.399466,1.4493 1.475466,0.5947 3.030666,0.9373 4.539066,1.4347 4.577066,1.508 2.898936,6.3826 -1.023466,7.5213 -6.597867,1.916 -6.7344,-9.8813 0.109333,-7.7787 0.359467,0.1107 0.860933,-0.128 0.924533,-0.5253 0.400534,-2.5053 0.2688,-5.012 0.331734,-7.54 0.0808,-3.228 0.801066,-6.512 1.512532,-9.6533 1.4416,-6.368 3.99533,-12.4174 7.0636,-18.164 6.0812,-11.3867 13.8036,-22.6134 23.47333,-31.2134 9.944,-8.8666 22.62267,-14.44 34.84134,-19.3733 13.47866,-5.4267 27.98933,-7.9467 42.45333,-5.8933 0.94666,0.1466 1.35466,-1.3067 0.39866,-1.44 v 0" style="fill:#577c69;fill-opacity:1;fill-rule:nonzero;stroke:none;stroke-width:0.133333"/><path id="path343" d="m 210.57199,1180.0134 c -1.992,-1.5467 -4.004,-1.5867 -6.472,-1.7467 -3.71066,-0.2533 -7.43999,-0.1733 -11.14933,0.04 -6.97733,0.4 -13.89333,1.6134 -20.70133,3.1334 -13.49733,3.04 -26.66267,7.7733 -38.77733,14.48 -11.92987,6.6 -21.29387,15.3866 -29.55174,26.1733 -7.787462,10.16 -18.453062,22.4667 -18.663995,36.0133 0.377066,-0.2173 0.7536,-0.4333 1.130666,-0.6493 -5.699466,-3.244 -9.676533,9.0573 -5.188533,12.176 3.989067,2.7733 7.404266,-1.1667 8.817733,-4.6733 0.733867,-1.82 1.267733,-4.684 0.302667,-6.528 -1.073467,-2.0507 -3.159467,-2.7014 -5.145333,-3.6414 -0.8708,-0.412 -1.6344,0.8827 -0.758934,1.2974 2.983333,1.412 5.299467,2.2866 4.754267,6.2413 -0.423467,3.0733 -2.972933,8.216 -6.813067,6.284 -3.666666,-1.8453 -0.510933,-12.012 3.272934,-9.8587 0.499466,0.2854 1.121866,-0.076 1.130666,-0.648 0.200533,-12.8933 10.403733,-24.6 17.765729,-34.3466 8.05827,-10.6667 17.10934,-19.2534 28.70934,-25.9867 10.88426,-6.3067 22.84026,-10.6533 34.9896,-13.8133 6.49733,-1.68 13.10133,-2.96 19.76933,-3.72 3.29467,-0.3867 6.60667,-0.56 9.92133,-0.6134 3.232,-0.067 8.89867,-0.6533 11.59467,1.44 0.75466,0.6 1.82666,-0.4666 1.06266,-1.0533 v 0" style="fill:#577c69;fill-opacity:1;fill-rule:nonzero;stroke:none;stroke-width:0.133333"/><path id="path344" d="m 207.98533,1178.3201 c -6.352,-1.12 -13.47067,0.013 -19.864,0.48 -6.71733,0.4933 -13.428,1.24 -20.06667,2.4 -12.77333,2.2 -25.18533,6.36 -36.71973,12.2666 -22.91613,11.7467 -41.244266,31.5467 -55.193199,52.8667 0.342667,-0.093 0.685334,-0.1867 1.028,-0.2667 -7.554666,-4.6133 -10.520266,9.9934 -2.192666,9.4987 5.6292,-0.3333 7.495866,-12.792 1.100533,-10.1253 -0.880267,0.3733 -0.494267,1.8306 0.399467,1.456 4.233866,-1.776 1.292666,5.5653 -0.574,6.8066 -5.323867,3.54 -6.542667,-10.6493 0.507866,-6.3453 0.363067,0.2213 0.807867,0.068 1.028134,-0.2693 13.688533,-20.9147 31.444795,-39.8614 53.646395,-51.7947 10.97587,-5.8933 22.93454,-9.8133 35.1292,-12.24 6.79734,-1.3467 13.71067,-2.08 20.60934,-2.6533 3.46,-0.28 6.92533,-0.48 10.39333,-0.6534 3.40933,-0.16 6.98666,-0.5733 10.36933,0.013 0.94667,0.1733 1.352,-1.28 0.39867,-1.44 v 0" style="fill:#577c69;fill-opacity:1;fill-rule:nonzero;stroke:none;stroke-width:0.133333"/><path id="path345" d="m 241.55199,1180.2667 c 2.568,-0.5066 5.848,1.4667 8.24667,2.2534 3.07067,0.9866 6.13733,1.9866 9.164,3.1066 5.788,2.1467 11.23867,5.2134 16.58533,8.28 10.31734,5.8934 19.92267,12.92 28.616,21.0267 8.82667,8.24 16.41867,17.7733 22.12534,28.4267 2.82266,5.2706 5.00666,10.88 6.38666,16.696 1.49333,6.2933 1.79733,12.812 3.06933,19.152 0.24134,-0.3174 0.48267,-0.6347 0.724,-0.952 -4.09733,0.4666 -7.11733,7.008 -2.28,8.9 2.93067,1.1466 5.964,-0.2347 7.26934,-3.036 1.54533,-3.3147 -2.17734,-5.1174 -3.88667,-7.168 -0.62133,-0.7454 -1.67867,0.324 -1.06267,1.0626 0.672,0.8067 1.44934,1.4347 2.26,2.0974 3.608,2.9546 -0.40533,6.5333 -3.624,5.812 -3.70133,-0.828 -1.43333,-5.8507 1.324,-6.1654 0.50534,-0.057 0.82934,-0.4333 0.72534,-0.9506 -1.27334,-6.3454 -1.71067,-12.8214 -3.06934,-19.152 -1.27733,-5.9574 -3.74266,-11.6667 -6.53866,-17.056 -5.796,-11.16 -14.04,-20.9734 -23.2,-29.5067 -9.05733,-8.4533 -19.27467,-15.5333 -30.04267,-21.6 -5.568,-3.1467 -11.22666,-5.9867 -17.25066,-8.1333 -3.04667,-1.0934 -6.144,-2.04 -9.21867,-3.0534 -2.32,-0.76 -4.22267,-1.9866 -6.72267,-1.4933 -0.95066,0.1867 -0.54666,1.64 0.4,1.4533 v 0" style="fill:#577c69;fill-opacity:1;fill-rule:nonzero;stroke:none;stroke-width:0.133333"/><path id="path346" d="m 249.58799,1181.8267 c 2.47067,2.4934 5.612,3.2134 8.86667,4.28 5.34,1.76 10.564,3.84 15.856,5.72 9.37067,3.3467 18.408,7.5067 27.04933,12.4267 17.24534,9.84 31.87334,23.44 42.44,40.28 5.57333,8.888 9.08,17.956 10.208,28.4027 0.24933,2.3106 0.444,4.628 0.68,6.9413 0.11067,1.0893 -1.23867,1.1693 -1.98667,1.8493 -1.564,1.42 -2.53333,3.252 -2.41333,5.3974 0.24267,4.4013 6.55467,4.5346 9.10267,2.132 3.556,-3.3534 0.684,-7.66 -3.564,-8.016 -0.96534,-0.08 -0.95867,1.4226 0,1.5026 2.112,0.1774 4.048,1.4174 3.62666,3.7934 -0.424,2.4026 -3.95733,3.0253 -5.88,2.628 -1.85066,-0.3814 -1.976,-2.416 -1.58133,-3.8654 0.484,-1.7773 2.12933,-2.9666 3.77067,-3.5613 0.29066,-0.1053 0.58933,-0.3787 0.55066,-0.7253 -0.67866,-6.2467 -1.03466,-12.5267 -2.536,-18.6494 -1.43866,-5.8613 -4.48,-11.4453 -7.49333,-16.6293 -6.52133,-11.2 -15.25066,-21.2267 -25.11866,-29.6 -9.75067,-8.28 -20.988,-14.7867 -32.56934,-20.12 -5.72533,-2.6533 -11.63066,-4.7867 -17.54666,-6.9467 -3.652,-1.3466 -7.28934,-2.72 -10.96534,-3.9866 -3.30666,-1.1467 -6.88933,-1.7467 -9.43333,-4.32 -0.68267,-0.6934 -1.744,0.3733 -1.06267,1.0666 v 0" style="fill:#577c69;fill-opacity:1;fill-rule:nonzero;stroke:none;stroke-width:0.133333"/><path id="path347" d="m 250.87066,1181.8001 c -10e-4,-0.093 -10e-4,-0.1734 -0.003,-0.2667 -0.31733,0.24 -0.63466,0.48 -0.95066,0.72 10.10666,1.96 19.92666,5.0267 29.72666,8.1333 9.72934,3.08 19.584,5.84 29.12934,9.4667 18.70266,7.1067 34.52399,20.0267 46.86533,35.6267 6.24,7.8933 10.54133,16.332 13.16933,26.0493 1.19067,4.4 2.948,9.5813 2.228,14.1667 -0.41067,2.6173 -3.30933,3.82 -2.87867,6.8346 0.572,3.996 6.98934,8.4227 9.13334,2.9854 0.944,-2.392 1.04,-5.6587 -0.772,-7.716 -1.67467,-1.9014 -3.75067,-3.064 -5.94267,-1.3494 -0.76267,0.596 0.308,1.652 1.06267,1.0627 1.96,-0.3027 3.34,0.3147 4.14133,1.852 0.932,1.3827 0.73467,3.4067 0.39067,4.9173 -1.11734,4.9107 -5.768,0.9654 -6.43467,-1.2466 -0.81867,-2.72 1.98667,-4.6094 2.74933,-6.9414 0.82934,-2.5333 -0.14933,-6.056 -0.67066,-8.5706 -0.83734,-4.0414 -1.93467,-8.056 -3.21734,-11.9774 -4.75866,-14.5466 -15.54933,-26.84 -26.72133,-36.9466 -11.884,-10.76 -25.548,-17.9734 -40.684,-23.0267 -16.62666,-5.56 -33.648,-11.44 -50.876,-14.76 -0.46933,-0.093 -0.956,0.2 -0.95066,0.72 0,0.093 0.001,0.1733 0.003,0.2667 0.0107,0.96 1.51334,0.96 1.50267,0 v 0" style="fill:#577c69;fill-opacity:1;fill-rule:nonzero;stroke:none;stroke-width:0.133333"/><path id="path348" d="m 254.87866,1181.5467 c -0.55467,0 -1.10933,0 -1.664,0 0,0.5067 0,1 0,1.5067 7.4,-0.36 14.796,-0.4 22.18667,0.1467 7.944,0.6 15.55066,2.36 23.20266,4.4666 14.11334,3.9067 28.09867,8.6667 40.808,16.04 24.82267,14.4134 36.37467,40.4 46.61333,65.9334 0.308,-0.308 0.616,-0.616 0.924,-0.9254 -2.57866,-0.6386 -4.5,1.4307 -4.74933,3.9494 -0.33733,3.3973 2.20533,5.576 5.52533,5.876 3.25734,0.2946 5.87867,-1.5587 5.388,-5.0227 -0.44933,-3.1733 -4.64,-5.304 -7.47733,-5.3027 -0.96933,0 -0.96933,1.504 0,1.5027 2.6,0 9.856,4.9133 4.27733,7.24 -1.54266,0.644 -3.58533,-0.2133 -4.91333,-0.9547 -2.14533,-1.1973 -1.696,-6.6426 1.54933,-5.8386 0.50267,0.1253 1.14934,-0.364 0.92534,-0.924 -10.14,-25.28 -21.43867,-50.6667 -45.38667,-65.68 -12.52933,-7.8534 -26.79066,-12.6934 -40.92533,-16.7334 -7.276,-2.08 -14.53067,-3.8933 -22.05867,-4.7733 -8.58133,-1 -17.27333,-0.92 -25.88933,-0.5067 -0.96267,0.053 -0.97333,1.5067 0,1.5067 0.55467,0 1.10933,0 1.664,-0.013 0.96933,0 0.96933,-1.5067 0,-1.4934 v 0" style="fill:#577c69;fill-opacity:1;fill-rule:nonzero;stroke:none;stroke-width:0.133333"/><path id="path1458" d="m 263.72933,1298.1174 c 0.003,5.3547 0.032,10.708 0.0773,16.0613 -7.72533,-1.952 -14.92267,-3.38 -21.52933,-8.18 -6.50134,-4.7253 -11.692,-11.632 -14.99867,-18.9 -1.604,-3.5253 -6.784,-0.4666 -5.19067,3.0334 3.51334,7.724 9.004,14.5026 15.57467,19.8386 7.44133,6.0454 15.86933,7.796 24.92267,10.1 0.464,0.1174 0.89466,0.1307 1.28666,0.065 0.364,33.664 1.34534,67.3306 1.36,101.0106 0.003,5.36 8.32934,5.36 8.328,0 -0.0187,-41.0133 -1.48533,-82.0133 -1.50266,-123.0293 -0.003,-5.3693 -8.32934,-5.3693 -8.328,0" style="fill:#534741;fill-opacity:1;fill-rule:nonzero;stroke:none;stroke-width:0.133333"/><path id="path1462" d="m 350.55599,1179.2801 c -0.64,7.6666 -3.972,14.5066 -7.856,21.0266 -1.98933,3.3334 3.20933,6.36 5.19067,3.0267 4.464,-7.4933 7.944,-15.28 8.67733,-24.0533 0.32267,-3.8667 -5.692,-3.84 -6.012,0" style="fill:#534741;fill-opacity:1;fill-rule:nonzero;stroke:none;stroke-width:0.133333"/><path id="path332" d="m 212.79599,1180.0401 c -5.21466,0.16 -8.94266,8.1066 -11.376,11.8266 -4.65866,7.1334 -8.40399,14.8534 -11.28133,22.8667 -6.10666,17 -7.35466,36.092 -6.196,53.9947 0.0813,1.26 1.91467,11.7853 1.88667,11.7893 -1.944,0.2627 -3.548,1.5867 -4.46933,3.256 -1.60134,2.9027 -0.38,6.9093 2.58,8.3347 8.15466,3.9266 10.95466,-12.6707 2.85466,-11.3414 -0.95466,0.156 -0.548,1.604 0.4,1.448 4.42934,-0.7266 4.008,9.9894 -2.18933,8.6854 -2.22133,-0.468 -3.01733,-3.1227 -2.74933,-5.08 0.33333,-2.4467 2.43333,-3.6454 4.67333,-3.948 0.30667,-0.041 0.57733,-0.4267 0.552,-0.724 -0.36,-4.2 -1.72933,-8.208 -2.036,-12.42 -0.34667,-4.7547 -0.40133,-9.528 -0.30533,-14.292 0.19333,-9.4894 1.27466,-18.996 3.27733,-28.276 1.92933,-8.9467 5.35067,-17.52 9.62133,-25.6 1.97333,-3.72 4.21467,-7.3067 6.59067,-10.7867 1.84266,-2.7067 4.44933,-8.1067 8.16666,-8.2267 0.96667,-0.04 0.96934,-1.5333 0,-1.5066 v 0" style="fill:#577c69;fill-opacity:1;fill-rule:nonzero;stroke:none;stroke-width:0.133333"/><path id="path333" d="m 212.79599,1181.0401 c 0,-0.4 0,-0.8 0.001,-1.2134 0,-0.96 -1.48134,-0.96 -1.504,0 -0.184,7.88 1.208,15.6534 1.564,23.5067 0.39733,8.76 0.436,17.5467 0.352,26.32 -0.08,8.3333 -0.42,16.6533 -0.55334,24.9933 -0.136,8.4307 0.68134,17.184 -0.20533,25.56 0.25067,-0.2506 0.50133,-0.5013 0.752,-0.752 -5.64267,-0.124 -6.27333,9.324 -0.8,9.896 6.59067,0.688 7.96,-9.984 1.144,-10.1146 -0.96933,-0.019 -0.96667,1.484 0,1.5026 4.66267,0.091 3.632,7.0094 -0.576,7.168 -3.82667,0.1454 -3.90933,-7.04 0.232,-6.9493 0.44133,0.011 0.70933,-0.3507 0.75067,-0.7507 0.84133,-7.9466 0.08,-16.248 0.18533,-24.244 0.116,-8.772 0.468,-17.536 0.57333,-26.3093 0.10134,-8.3467 -0.024,-16.68 -0.304,-25.0133 -0.28,-8.2934 -1.80533,-16.5067 -1.61066,-24.8134 -0.50134,0 -1.00267,0 -1.504,0 0,0.4134 0,0.8134 0,1.2134 -0.001,0.9733 1.50133,0.9733 1.50266,0 v 0" style="fill:#577c69;fill-opacity:1;fill-rule:nonzero;stroke:none;stroke-width:0.133333"/><path id="path334" d="m 210.81866,1181.2401 c 1.18,3.32 3.20267,6.1866 5.14933,9.0933 2.532,3.7867 4.388,7.72 5.98667,11.9733 3.136,8.36 4.828,17.2134 6.488,25.96 1.844,9.7334 3.144,19.4894 4.40133,29.3067 0.572,4.4587 1.47867,8.9147 1.81867,13.3933 0.296,3.912 0.14,7.8547 1.49867,11.5947 0.45733,-0.1933 0.916,-0.3867 1.37333,-0.58 -2.956,-3.8453 -8.30533,4.136 -4.67733,6.452 2.50933,1.604 6,0.664 7.08266,-2.1147 1.13467,-2.912 -1.688,-5.2933 -4.34933,-5.0786 -0.95867,0.077 -0.96667,1.5813 0,1.5026 4.53733,-0.3653 3.408,5.8534 -1.308,4.7507 -3.28,-0.7667 0.9,-6.1253 1.95467,-4.7533 0.472,0.616 1.69066,0.2946 1.37333,-0.5787 -1.42133,-3.912 -1.21333,-8.1373 -1.524,-12.232 -0.34533,-4.5573 -1.32533,-9.1227 -1.90533,-13.6573 -1.168,-9.1094 -2.35867,-18.1654 -4.06267,-27.192 -1.656,-8.7867 -3.38933,-17.5467 -6.30267,-26.0134 -1.27333,-3.7066 -2.78933,-7.4 -4.79333,-10.7733 -2.26533,-3.8 -5.252,-7.2267 -6.75467,-11.4533 -0.32266,-0.9067 -1.77466,-0.5067 -1.44933,0.4 v 0" style="fill:#577c69;fill-opacity:1;fill-rule:nonzero;stroke:none;stroke-width:0.133333"/><path id="path335" d="m 210.91333,1181.1867 c 16.28,7.24 26.65733,24.5467 32.84,40.5734 3.51066,9.1066 6.004,18.6 7.99866,28.1386 1.02267,4.888 1.856,9.8147 2.612,14.7507 0.68534,4.4827 2.616,9.5453 2.25467,14.0613 0.31733,-0.2413 0.63467,-0.4826 0.952,-0.724 -5.19867,-0.716 -5.72533,6.4254 -2.43867,9.084 1.96134,1.5867 5.24134,0.4414 6.63867,-1.392 2.43067,-3.1893 -0.89733,-6.0586 -3.75733,-7.3413 -0.876,-0.3933 -1.64134,0.9013 -0.75867,1.2973 1.67467,0.7507 4.67067,2.356 3.692,4.664 -0.912,2.1507 -4.20667,2.6694 -5.548,0.9174 -1.35333,-1.7667 -1.35467,-6.2107 1.772,-5.78 0.50667,0.069 0.90933,-0.1934 0.952,-0.7254 0.324,-4.052 -1.38,-8.016 -1.94533,-11.9906 -0.76267,-5.3574 -1.67467,-10.6907 -2.72667,-15.9987 -2.116,-10.668 -5.02267,-21.2147 -9.02133,-31.3347 -6.18267,-15.6666 -16.89334,-32.44 -32.75734,-39.4933 -0.87733,-0.3867 -1.64266,0.9067 -0.75866,1.2933 v 0" style="fill:#577c69;fill-opacity:1;fill-rule:nonzero;stroke:none;stroke-width:0.133333"/><path id="path336" d="m 212.82666,1180.8267 c 3.12,-2.84 10.81733,-1.1066 14.204,0.053 5.36133,1.84 9.92533,5.8266 13.92133,9.7066 7.61067,7.3867 13.24,16.6134 18.12934,25.9467 4.876,9.32 9.25866,18.8933 12.112,29.0267 2.96933,10.5466 4.51066,21.456 5.992,32.292 0.308,-0.308 0.616,-0.616 0.924,-0.924 -4.56534,-1.2534 -7.576,5.792 -4.188,8.688 1.90666,1.6306 5.79466,0.8093 6.95866,-1.3707 2.11334,-3.9573 -1.31733,-6.324 -4.58133,-7.912 -0.86667,-0.4227 -1.62933,0.8733 -0.75733,1.2973 1.904,0.9267 7.436,3.524 2.97066,6.812 -1.66133,1.224 -3.99733,0.4054 -4.484,-1.4386 -0.56266,-2.1267 1.29334,-5.2827 3.68134,-4.6267 0.60933,0.1667 1,-0.38 0.92533,-0.924 -1.64267,-12.0213 -3.46133,-24.0387 -6.98,-35.68 -3.35067,-11.08 -8.75333,-21.7733 -14.45333,-31.8267 -5.452,-9.6133 -12.20667,-18.6533 -20.96934,-25.4933 -3.77733,-2.9467 -8.34133,-5.5067 -13.16266,-6.1467 -3.37067,-0.44 -8.56,-1.04 -11.30534,1.4534 -0.71866,0.6533 0.34667,1.7066 1.06267,1.0666 v 0" style="fill:#577c69;fill-opacity:1;fill-rule:nonzero;stroke:none;stroke-width:0.133333"/><path id="path337" d="m 212.34399,1182.1867 c 1.84534,-1.8 4.77867,-1.7333 7.18934,-1.8133 3.38,-0.1067 6.724,0.1067 10.068,0.6133 6.544,1 12.78266,3.44 18.588,6.56 10.44666,5.6134 19.41466,13.6134 26.436,23.1334 14.42533,19.56 20.42,44.6933 23.53866,68.384 0.25067,-0.2507 0.50134,-0.5014 0.752,-0.752 -3.908,-0.2734 -5.688,5.9746 -1.66533,7.2213 2.656,0.8227 5.636,-1.1253 6.38667,-3.6107 1.12933,-3.736 -3.64934,-3.796 -5.84534,-3.5573 -0.95333,0.104 -0.96266,1.608 0,1.504 0.89334,-0.099 1.75734,-0.1627 2.656,-0.1573 1.42,2.5866 1.03067,4.024 -1.16666,4.312 -0.97867,0.3 -1.86267,0.1026 -2.652,-0.5894 -1.08267,-1.4666 0.808,-3.7226 2.28666,-3.62 0.37067,0.027 0.80267,-0.3626 0.752,-0.7506 -3.30666,-25.1067 -9.85333,-51.2374 -25.62133,-71.6107 -7.71067,-9.9733 -17.936,-17.9733 -29.316,-23.3333 -5.816,-2.7334 -12.05867,-4.3867 -18.44,-5.0667 -4.26667,-0.44 -11.58267,-1.2667 -15.00933,2.0667 -0.696,0.68 0.368,1.7333 1.06266,1.0666 v 0" style="fill:#577c69;fill-opacity:1;fill-rule:nonzero;stroke:none;stroke-width:0.133333"/><path id="path338" d="m 214.33866,1180.9201 c 4.82533,-3.3867 11.164,-3.2 16.77867,-2.6267 5.90666,0.6133 11.748,2.2 17.33466,4.16 13.75867,4.8533 25.73334,13.9067 35.90267,24.1867 10.264,10.3733 18.28,22.24 23.17067,36.04 4.376,12.348 6.03066,25.4853 6.51466,38.5186 0.25067,-0.2506 0.50134,-0.5013 0.752,-0.752 -1.28,0.1707 -5.55733,0.7934 -4.67733,3.1614 0.73067,1.9653 3.46133,3.496 5.57467,3.0826 1.95733,-0.384 5.204,-2.0813 3.74266,-4.576 -1.276,-2.1786 -5.78666,-1.692 -7.82533,-1.6573 -0.968,0.016 -0.96933,1.5187 0,1.5027 1.87067,-0.031 3.73467,-0.043 5.56533,0.404 -0.34133,0.9026 -0.68266,1.8053 -1.024,2.7093 -1.08666,0.232 -2.112,0.091 -3.07733,-0.4253 -2.85867,-1.2187 0.39867,-2.5214 1.72133,-2.6987 0.39334,-0.052 0.768,-0.3013 0.75067,-0.7507 -0.504,-13.5733 -2.36667,-27.064 -6.91867,-39.9053 -4.96933,-14.0267 -13.516,-25.92 -23.90666,-36.4267 -10.45067,-10.5733 -22.864,-19.28 -36.93867,-24.24 -5.672,-2 -11.62667,-3.3066 -17.60533,-3.9333 -5.54134,-0.5733 -11.872,-0.3867 -16.59334,2.9333 -0.78666,0.5467 -0.036,1.8534 0.75867,1.2934 v 0" style="fill:#577c69;fill-opacity:1;fill-rule:nonzero;stroke:none;stroke-width:0.133333"/><path id="path339" d="m 210.49066,1179.5601 c -3.476,-0.8 -6.10133,0.88 -8.916,2.76 -3.57066,2.3866 -6.85466,5.2 -9.93333,8.1866 -6.18933,6 -10.884,13.3734 -14.65733,21.0667 -7.508,15.3333 -10.736,32.4933 -12.196,49.3893 -0.65734,7.6067 -1.444,15.7187 -0.708,23.336 0.156,1.6227 0.732,4.0267 -1.416,4.5 -0.81867,0.18 -1.62534,0.8387 -2.08267,1.5094 -1.348,1.9746 -2.13067,4.9146 -1.13467,7.2173 1.55067,3.5867 6.16534,4.388 7.83734,0.5573 1.316,-3.0186 0.55866,-7.6613 -2.884,-8.8 -0.92267,-0.3053 -1.31467,1.1467 -0.4,1.4494 3.92666,1.3 2.80133,10.5653 -1.83334,7.852 -3.13866,-1.8387 -1.596,-7.788 1.608,-8.4934 1.55467,-0.3426 1.90934,-1.4226 1.98667,-2.8626 0.116,-2.1667 -0.312,-4.3934 -0.304,-6.572 0.012,-3.424 0.10133,-6.8467 0.24133,-10.268 0.284,-6.968 0.90267,-13.924 1.87867,-20.8294 1.86267,-13.1586 5.30133,-26.1853 11.16267,-38.1586 3.06133,-6.24 6.89733,-12.16 11.55733,-17.3334 2.33467,-2.6 4.93467,-4.9466 7.62267,-7.16 3.11333,-2.5733 7.86399,-6.8933 12.17066,-5.8933 0.94267,0.2267 1.344,-1.2267 0.4,-1.4533 v 0" style="fill:#577c69;fill-opacity:1;fill-rule:nonzero;stroke:none;stroke-width:0.133333"/><path id="path340" d="m 210.99199,1180.5734 c -3.69066,-1.4667 -7.16933,0.013 -10.63466,1.4667 -3.784,1.5733 -7.444,3.3866 -10.99733,5.4266 -7.716,4.44 -14.712,10.24 -20.25067,17.2134 -11.51333,14.52 -19.104,32.68 -24.94933,50.1 -2.99067,8.9133 -4.80534,18.104 -5.45334,27.4813 -0.18533,2.6747 1.892,8.0413 -1.444,9.2907 -2.496,0.9346 -2.06933,4.16 -1.28533,6.0813 1.34933,3.308 7.69067,6.552 10.15333,2.5013 3.51467,-5.78 -3.47733,-7.464 -7.10133,-9.7746 -0.82,-0.5227 -1.57333,0.7786 -0.75867,1.2986 1.79467,1.144 3.84267,1.7827 5.65867,2.8907 2.35467,1.4387 1.98933,4.9173 -0.63867,5.7653 -1.652,0.5334 -3.53866,-0.488 -4.73466,-1.5333 -1.46134,-1.2747 -2.992,-4.9947 -0.152,-6.0587 0.548,-0.2053 1.404,-0.5066 1.66933,-1.1106 0.816,-1.8654 0.51333,-3.98 0.34,-5.9534 -1.244,-14.2786 4.40667,-29.3693 9.54933,-42.4453 5.49734,-13.9733 12.44667,-28.52 22.28934,-39.9867 4.772,-5.56 10.68133,-10.08 16.90933,-13.8933 2.828,-1.72 5.78533,-3.2267 8.78933,-4.6267 3.76133,-1.7466 8.48267,-4.3466 12.64133,-2.6933 0.90134,0.36 1.28934,-1.0933 0.4,-1.44 v 0" style="fill:#577c69;fill-opacity:1;fill-rule:nonzero;stroke:none;stroke-width:0.133333"/><path id="path341" d="m 209.53999,1179.5334 c -12.98399,-1.2533 -26.84533,3.3733 -38.41199,8.96 -11.904,5.7333 -21.27734,14.5467 -29.456,24.7867 -7.81867,9.7866 -14.7048,20.1466 -19.58654,31.72 -2.44693,5.7986 -4.27293,11.844 -5.65946,17.9786 -0.68014,3.0094 -1.21347,6.06 -1.62027,9.1174 -0.4516,3.3893 -1.412,6.6946 -1.47453,10.1266 0.31666,-0.2413 0.63386,-0.4826 0.95106,-0.724 -6.95573,-1.6333 -7.51146,10.176 -1.95253,12.3094 3.93533,1.5106 7.9468,-1.216 8.22907,-5.4547 0.3636,-5.4653 -3.87187,-8.2827 -8.91147,-7.3373 -0.95147,0.1786 -0.54733,1.628 0.3996,1.4493 4.28947,-0.8053 7.73373,1.9013 6.89,6.4787 -0.68693,3.7253 -4.99947,4.9906 -7.55467,2.3613 -2.21613,-2.2813 -1.9088,-9.3933 2.50054,-8.3573 0.47973,0.112 0.94226,-0.224 0.95106,-0.7254 0.0563,-3.0626 0.92134,-5.972 1.32347,-8.9906 0.44053,-3.3094 1.01507,-6.5894 1.71773,-9.8534 1.24787,-5.7933 3.0536,-11.4546 5.24054,-16.952 4.67453,-11.7733 11.8244,-22.1866 19.61906,-32.08 7.81867,-9.92 16.84,-18.2266 28.12134,-24.0533 11.37866,-5.8667 25.78666,-10.5067 38.68399,-9.2533 0.964,0.093 0.95467,-1.4134 0,-1.5067 v 0" style="fill:#577c69;fill-opacity:1;fill-rule:nonzero;stroke:none;stroke-width:0.133333"/><path id="path342" d="m 208.23599,1179.3201 c -13.99733,-2 -27.73199,0.16 -40.93866,5 -12.748,4.6666 -25.48,10.6933 -36.12227,19.2133 -10.24586,8.1867 -17.7824,19.7333 -24.29746,30.96 -3.1708,5.4667 -5.7,11.28 -7.493736,17.3413 -0.942133,3.1827 -1.5656,6.4494 -2.030266,9.7307 -0.500534,3.5373 -0.0796,7.1187 -0.6416,10.6333 0.308266,-0.1746 0.616666,-0.3506 0.9244,-0.5253 -7.439067,-2.2867 -10.047867,9.8493 -2.609867,10.7507 3.947467,0.4786 7.666669,-2.248 7.534399,-6.3787 -0.1292,-4.028 -5.809332,-4.4453 -8.549466,-5.5493 -0.899466,-0.3627 -1.2864,1.092 -0.399466,1.4493 1.475466,0.5947 3.030666,0.9373 4.539066,1.4347 4.577066,1.508 2.898936,6.3826 -1.023466,7.5213 -6.597867,1.916 -6.7344,-9.8813 0.109333,-7.7787 0.359467,0.1107 0.860933,-0.128 0.924533,-0.5253 0.400534,-2.5053 0.2688,-5.012 0.331734,-7.54 0.0808,-3.228 0.801066,-6.512 1.512532,-9.6533 1.4416,-6.368 3.99533,-12.4174 7.0636,-18.164 6.0812,-11.3867 13.8036,-22.6134 23.47333,-31.2134 9.944,-8.8666 22.62267,-14.44 34.84134,-19.3733 13.47866,-5.4267 27.98933,-7.9467 42.45333,-5.8933 0.94666,0.1466 1.35466,-1.3067 0.39866,-1.44 v 0" style="fill:#577c69;fill-opacity:1;fill-rule:nonzero;stroke:none;stroke-width:0.133333"/><path id="path343" d="m 210.57199,1180.0134 c -1.992,-1.5467 -4.004,-1.5867 -6.472,-1.7467 -3.71066,-0.2533 -7.43999,-0.1733 -11.14933,0.04 -6.97733,0.4 -13.89333,1.6134 -20.70133,3.1334 -13.49733,3.04 -26.66267,7.7733 -38.77733,14.48 -11.92987,6.6 -21.29387,15.3866 -29.55174,26.1733 -7.787462,10.16 -18.453062,22.4667 -18.663995,36.0133 0.377066,-0.2173 0.7536,-0.4333 1.130666,-0.6493 -5.699466,-3.244 -9.676533,9.0573 -5.188533,12.176 3.989067,2.7733 7.404266,-1.1667 8.817733,-4.6733 0.733867,-1.82 1.267733,-4.684 0.302667,-6.528 -1.073467,-2.0507 -3.159467,-2.7014 -5.145333,-3.6414 -0.8708,-0.412 -1.6344,0.8827 -0.758934,1.2974 2.983333,1.412 5.299467,2.2866 4.754267,6.2413 -0.423467,3.0733 -2.972933,8.216 -6.813067,6.284 -3.666666,-1.8453 -0.510933,-12.012 3.272934,-9.8587 0.499466,0.2854 1.121866,-0.076 1.130666,-0.648 0.200533,-12.8933 10.403733,-24.6 17.765729,-34.3466 8.05827,-10.6667 17.10934,-19.2534 28.70934,-25.9867 10.88426,-6.3067 22.84026,-10.6533 34.9896,-13.8133 6.49733,-1.68 13.10133,-2.96 19.76933,-3.72 3.29467,-0.3867 6.60667,-0.56 9.92133,-0.6134 3.232,-0.067 8.89867,-0.6533 11.59467,1.44 0.75466,0.6 1.82666,-0.4666 1.06266,-1.0533 v 0" style="fill:#577c69;fill-opacity:1;fill-rule:nonzero;stroke:none;stroke-width:0.133333"/><path id="path344" d="m 207.98533,1178.3201 c -6.352,-1.12 -13.47067,0.013 -19.864,0.48 -6.71733,0.4933 -13.428,1.24 -20.06667,2.4 -12.77333,2.2 -25.18533,6.36 -36.71973,12.2666 -22.91613,11.7467 -41.244266,31.5467 -55.193199,52.8667 0.342667,-0.093 0.685334,-0.1867 1.028,-0.2667 -7.554666,-4.6133 -10.520266,9.9934 -2.192666,9.4987 5.6292,-0.3333 7.495866,-12.792 1.100533,-10.1253 -0.880267,0.3733 -0.494267,1.8306 0.399467,1.456 4.233866,-1.776 1.292666,5.5653 -0.574,6.8066 -5.323867,3.54 -6.542667,-10.6493 0.507866,-6.3453 0.363067,0.2213 0.807867,0.068 1.028134,-0.2693 13.688533,-20.9147 31.444795,-39.8614 53.646395,-51.7947 10.97587,-5.8933 22.93454,-9.8133 35.1292,-12.24 6.79734,-1.3467 13.71067,-2.08 20.60934,-2.6533 3.46,-0.28 6.92533,-0.48 10.39333,-0.6534 3.40933,-0.16 6.98666,-0.5733 10.36933,0.013 0.94667,0.1733 1.352,-1.28 0.39867,-1.44 v 0" style="fill:#577c69;fill-opacity:1;fill-rule:nonzero;stroke:none;stroke-width:0.133333"/><path id="path345" d="m 241.55199,1180.2667 c 2.568,-0.5066 5.848,1.4667 8.24667,2.2534 3.07067,0.9866 6.13733,1.9866 9.164,3.1066 5.788,2.1467 11.23867,5.2134 16.58533,8.28 10.31734,5.8934 19.92267,12.92 28.616,21.0267 8.82667,8.24 16.41867,17.7733 22.12534,28.4267 2.82266,5.2706 5.00666,10.88 6.38666,16.696 1.49333,6.2933 1.79733,12.812 3.06933,19.152 0.24134,-0.3174 0.48267,-0.6347 0.724,-0.952 -4.09733,0.4666 -7.11733,7.008 -2.28,8.9 2.93067,1.1466 5.964,-0.2347 7.26934,-3.036 1.54533,-3.3147 -2.17734,-5.1174 -3.88667,-7.168 -0.62133,-0.7454 -1.67867,0.324 -1.06267,1.0626 0.672,0.8067 1.44934,1.4347 2.26,2.0974 3.608,2.9546 -0.40533,6.5333 -3.624,5.812 -3.70133,-0.828 -1.43333,-5.8507 1.324,-6.1654 0.50534,-0.057 0.82934,-0.4333 0.72534,-0.9506 -1.27334,-6.3454 -1.71067,-12.8214 -3.06934,-19.152 -1.27733,-5.9574 -3.74266,-11.6667 -6.53866,-17.056 -5.796,-11.16 -14.04,-20.9734 -23.2,-29.5067 -9.05733,-8.4533 -19.27467,-15.5333 -30.04267,-21.6 -5.568,-3.1467 -11.22666,-5.9867 -17.25066,-8.1333 -3.04667,-1.0934 -6.144,-2.04 -9.21867,-3.0534 -2.32,-0.76 -4.22267,-1.9866 -6.72267,-1.4933 -0.95066,0.1867 -0.54666,1.64 0.4,1.4533 v 0" style="fill:#577c69;fill-opacity:1;fill-rule:nonzero;stroke:none;stroke-width:0.133333"/><path id="path346" d="m 249.58799,1181.8267 c 2.47067,2.4934 5.612,3.2134 8.86667,4.28 5.34,1.76 10.564,3.84 15.856,5.72 9.37067,3.3467 18.408,7.5067 27.04933,12.4267 17.24534,9.84 31.87334,23.44 42.44,40.28 5.57333,8.888 9.08,17.956 10.208,28.4027 0.24933,2.3106 0.444,4.628 0.68,6.9413 0.11067,1.0893 -1.23867,1.1693 -1.98667,1.8493 -1.564,1.42 -2.53333,3.252 -2.41333,5.3974 0.24267,4.4013 6.55467,4.5346 9.10267,2.132 3.556,-3.3534 0.684,-7.66 -3.564,-8.016 -0.96534,-0.08 -0.95867,1.4226 0,1.5026 2.112,0.1774 4.048,1.4174 3.62666,3.7934 -0.424,2.4026 -3.95733,3.0253 -5.88,2.628 -1.85066,-0.3814 -1.976,-2.416 -1.58133,-3.8654 0.484,-1.7773 2.12933,-2.9666 3.77067,-3.5613 0.29066,-0.1053 0.58933,-0.3787 0.55066,-0.7253 -0.67866,-6.2467 -1.03466,-12.5267 -2.536,-18.6494 -1.43866,-5.8613 -4.48,-11.4453 -7.49333,-16.6293 -6.52133,-11.2 -15.25066,-21.2267 -25.11866,-29.6 -9.75067,-8.28 -20.988,-14.7867 -32.56934,-20.12 -5.72533,-2.6533 -11.63066,-4.7867 -17.54666,-6.9467 -3.652,-1.3466 -7.28934,-2.72 -10.96534,-3.9866 -3.30666,-1.1467 -6.88933,-1.7467 -9.43333,-4.32 -0.68267,-0.6934 -1.744,0.3733 -1.06267,1.0666 v 0" style="fill:#577c69;fill-opacity:1;fill-rule:nonzero;stroke:none;stroke-width:0.133333"/><path id="path347" d="m 250.87066,1181.8001 c -10e-4,-0.093 -10e-4,-0.1734 -0.003,-0.2667 -0.31733,0.24 -0.63466,0.48 -0.95066,0.72 10.10666,1.96 19.92666,5.0267 29.72666,8.1333 9.72934,3.08 19.584,5.84 29.12934,9.4667 18.70266,7.1067 34.52399,20.0267 46.86533,35.6267 6.24,7.8933 10.54133,16.332 13.16933,26.0493 1.19067,4.4 2.948,9.5813 2.228,14.1667 -0.41067,2.6173 -3.30933,3.82 -2.87867,6.8346 0.572,3.996 6.98934,8.4227 9.13334,2.9854 0.944,-2.392 1.04,-5.6587 -0.772,-7.716 -1.67467,-1.9014 -3.75067,-3.064 -5.94267,-1.3494 -0.76267,0.596 0.308,1.652 1.06267,1.0627 1.96,-0.3027 3.34,0.3147 4.14133,1.852 0.932,1.3827 0.73467,3.4067 0.39067,4.9173 -1.11734,4.9107 -5.768,0.9654 -6.43467,-1.2466 -0.81867,-2.72 1.98667,-4.6094 2.74933,-6.9414 0.82934,-2.5333 -0.14933,-6.056 -0.67066,-8.5706 -0.83734,-4.0414 -1.93467,-8.056 -3.21734,-11.9774 -4.75866,-14.5466 -15.54933,-26.84 -26.72133,-36.9466 -11.884,-10.76 -25.548,-17.9734 -40.684,-23.0267 -16.62666,-5.56 -33.648,-11.44 -50.876,-14.76 -0.46933,-0.093 -0.956,0.2 -0.95066,0.72 0,0.093 0.001,0.1733 0.003,0.2667 0.0107,0.96 1.51334,0.96 1.50267,0 v 0" style="fill:#577c69;fill-opacity:1;fill-rule:nonzero;stroke:none;stroke-width:0.133333"/><path id="path348" d="m 254.87866,1181.5467 c -0.55467,0 -1.10933,0 -1.664,0 0,0.5067 0,1 0,1.5067 7.4,-0.36 14.796,-0.4 22.18667,0.1467 7.944,0.6 15.55066,2.36 23.20266,4.4666 14.11334,3.9067 28.09867,8.6667 40.808,16.04 24.82267,14.4134 36.37467,40.4 46.61333,65.9334 0.308,-0.308 0.616,-0.616 0.924,-0.9254 -2.57866,-0.6386 -4.5,1.4307 -4.74933,3.9494 -0.33733,3.3973 2.20533,5.576 5.52533,5.876 3.25734,0.2946 5.87867,-1.5587 5.388,-5.0227 -0.44933,-3.1733 -4.64,-5.304 -7.47733,-5.3027 -0.96933,0 -0.96933,1.504 0,1.5027 2.6,0 9.856,4.9133 4.27733,7.24 -1.54266,0.644 -3.58533,-0.2133 -4.91333,-0.9547 -2.14533,-1.1973 -1.696,-6.6426 1.54933,-5.8386 0.50267,0.1253 1.14934,-0.364 0.92534,-0.924 -10.14,-25.28 -21.43867,-50.6667 -45.38667,-65.68 -12.52933,-7.8534 -26.79066,-12.6934 -40.92533,-16.7334 -7.276,-2.08 -14.53067,-3.8933 -22.05867,-4.7733 -8.58133,-1 -17.27333,-0.92 -25.88933,-0.5067 -0.96267,0.053 -0.97333,1.5067 0,1.5067 0.55467,0 1.10933,0 1.664,-0.013 0.96933,0 0.96933,-1.5067 0,-1.4934 v 0" style="fill:#577c69;fill-opacity:1;fill-rule:nonzero;stroke:none;stroke-width:0.133333"/><path id="path1458" d="m 263.72933,1298.1174 c 0.003,5.3547 0.032,10.708 0.0773,16.0613 -7.72533,-1.952 -14.92267,-3.38 -21.52933,-8.18 -6.50134,-4.7253 -11.692,-11.632 -14.99867,-18.9 -1.604,-3.5253 -6.784,-0.4666 -5.19067,3.0334 3.51334,7.724 9.004,14.5026 15.57467,19.8386 7.44133,6.0454 15.86933,7.796 24.92267,10.1 0.464,0.1174 0.89466,0.1307 1.28666,0.065 0.364,33.664 1.34534,67.3306 1.36,101.0106 0.003,5.36 8.32934,5.36 8.328,0 -0.0187,-41.0133 -1.48533,-82.0133 -1.50266,-123.0293 -0.003,-5.3693 -8.32934,-5.3693 -8.328,0" style="fill:#534741;fill-opacity:1;fill-rule:nonzero;stroke:none;stroke-width:0.133333"/><path id="path1462" d="m 350.55599,1179.2801 c -0.64,7.6666 -3.972,14.5066 -7.856,21.0266 -1.98933,3.3334 3.20933,6.36 5.19067,3.0267 4.464,-7.4933 7.944,-15.28 8.67733,-24.0533 0.32267,-3.8667 -5.692,-3.84 -6.012,0" style="fill:#534741;fill-opacity:1;fill-rule:nonzero;stroke:none;stroke-width:0.133333"/></g></svg>