<svg version="1.1" id="svg1" width="2000" height="2579.9468" viewBox="1050.7706 1318.379100000012 88.14744647750558 133.34494422434386" sodipodi:docname="styletrees.svg" inkscape:version="1.4.2 (f4327f4, 2025-05-13)" xmlns:inkscape="http://www.inkscape.org/namespaces/inkscape" xmlns:sodipodi="http://sodipodi.sourceforge.net/DTD/sodipodi-0.dtd" xmlns="http://www.w3.org/2000/svg" xmlns:svg="http://www.w3.org/2000/svg"><defs id="defs1"/><g><path id="path1127" d="m 1088.1693,1395.3867 c -6.492,-2.24 -13.084,-4.2133 -19.156,-7.48 -6.4147,-3.4533 -10.6947,-8.3066 -12.7387,-15.3066 -1.7213,-5.8934 -1.8413,-12.1734 -2.3933,-18.2534 -0.7933,-8.76 -0.7787,-17.5466 -0.7773,-26.3226 0,-0.86 -1.3334,-0.86 -1.3334,0 0,9.0693 0.036,18.136 0.8547,27.176 0.5973,6.5733 0.868,13.2 2.912,19.5333 4.4453,13.8 20.088,17.7467 32.2787,21.9333 0.8146,0.28 1.1613,-1.0133 0.3533,-1.28 v 0" style="fill:#577c69;fill-opacity:1;fill-rule:nonzero;stroke:none;stroke-width:0.133333"/><path id="path1139" d="m 1087.992,1396.6934 c 3.7186,-0.16 6.9266,1.5067 10.412,2.52 2.6186,0.76 5.5333,0.8133 8.2333,0.8 5.8693,-0.04 11.572,-1.6133 16.492,-4.8133 9.3213,-6.0667 16.3613,-17.68 15.752,-28.96 -0.047,-0.8534 -1.38,-0.8534 -1.3333,0 0.6133,11.36 -6.6134,22.2933 -15.8867,28.32 -5.0427,3.28 -11.1867,4.2266 -17.096,4.1066 -5.7867,-0.12 -10.86,-3.56 -16.5733,-3.3066 -0.856,0.04 -0.86,1.3733 0,1.3333 v 0" style="fill:#577c69;fill-opacity:1;fill-rule:nonzero;stroke:none;stroke-width:0.133333"/><path id="path1201" d="m 1080.2386,1328.2907 c -0.7946,2.6774 -0.4866,5.4294 -0.468,8.176 0.01,0.8667 1.3387,0.8667 1.3334,0 -0.019,-2.6266 -0.34,-5.2626 0.42,-7.8213 0.2453,-0.8267 -1.0414,-1.1773 -1.2854,-0.3547 v 0" style="fill:#577c69;fill-opacity:1;fill-rule:nonzero;stroke:none;stroke-width:0.133333"/><path id="path1202" d="m 1081.104,1352.0267 c 0.1466,2.3867 0.5893,4.7334 0.888,7.1067 0.1066,0.84 1.4413,0.8533 1.3333,0 -0.2987,-2.3733 -0.7413,-4.72 -0.888,-7.1067 -0.053,-0.8533 -1.3867,-0.8666 -1.3333,0 v 0" style="fill:#577c69;fill-opacity:1;fill-rule:nonzero;stroke:none;stroke-width:0.133333"/><path id="path1203" d="m 1081.992,1365.8001 c 0,0.44 0,0.8933 0,1.3333 0,0.8667 1.3333,0.8667 1.3333,0 0,-0.44 0,-0.8933 0,-1.3333 0,-0.8534 -1.3333,-0.8534 -1.3333,0 v 0" style="fill:#577c69;fill-opacity:1;fill-rule:nonzero;stroke:none;stroke-width:0.133333"/><path id="path1204" d="m 1080.4373,1375.3601 c -3.768,0.4 -4.3707,-5.08 -6.196,-7.36 -0.536,-0.68 -1.4733,0.28 -0.9427,0.9333 2.1654,2.72 2.524,8.2533 7.1387,7.76 0.8453,-0.093 0.8547,-1.4267 0,-1.3333 v 0" style="fill:#577c69;fill-opacity:1;fill-rule:nonzero;stroke:none;stroke-width:0.133333"/><path id="path1205" d="m 1074.4133,1359.4001 c -0.6907,-2.56 -0.4347,-5.2 -0.4213,-7.8267 0.01,-0.8533 -1.328,-0.8533 -1.3334,0 -0.013,2.76 -0.2533,5.4933 0.4694,8.1867 0.2226,0.8266 1.5093,0.48 1.2853,-0.36 v 0" style="fill:#577c69;fill-opacity:1;fill-rule:nonzero;stroke:none;stroke-width:0.133333"/><path id="path1206" d="m 1073.524,1333.6267 c -1.0094,-4.488 -0.464,-9.0546 -0.42,-13.6026 0.01,-0.86 -1.3254,-0.86 -1.3334,0 -0.045,4.6746 -0.5693,9.3466 0.468,13.9493 0.188,0.84 1.4747,0.4933 1.2854,-0.3467 v 0" style="fill:#577c69;fill-opacity:1;fill-rule:nonzero;stroke:none;stroke-width:0.133333"/><path id="path1219" d="m 1082.2146,1382.4667 c -4.4346,0.2667 -9.312,-1.48 -12.4173,-4.6933 -0.5987,-0.6133 -1.5413,0.32 -0.9427,0.9467 3.336,3.44 8.5894,5.36 13.36,5.08 0.8547,-0.053 0.86,-1.3867 0,-1.3334 v 0" style="fill:#577c69;fill-opacity:1;fill-rule:nonzero;stroke:none;stroke-width:0.133333"/><path id="path1220" d="m 1064.908,1371.1067 c -2.148,-1.96 -2.0694,-5.04 -2.4947,-7.7066 -0.1347,-0.84 -1.42,-0.48 -1.2853,0.36 0.468,2.9333 0.476,6.1333 2.8373,8.2933 0.6347,0.5733 1.58,-0.36 0.9427,-0.9467 v 0" style="fill:#577c69;fill-opacity:1;fill-rule:nonzero;stroke:none;stroke-width:0.133333"/><path id="path1221" d="m 1062.8813,1347.1334 c 0,-2.96 0,-5.92 0,-8.8933 0,-0.8534 -1.3333,-0.8534 -1.3333,0 0,2.9733 0,5.9333 0,8.8933 0,0.8667 1.3333,0.8667 1.3333,0 v 0" style="fill:#577c69;fill-opacity:1;fill-rule:nonzero;stroke:none;stroke-width:0.133333"/><path id="path1232" d="m 1101.524,1365.6267 c -0.5867,-2.44 -0.4294,-4.9066 -0.42,-7.3866 0,-0.8534 -1.3307,-0.8534 -1.3334,0 -0.01,2.6133 -0.148,5.1866 0.468,7.7333 0.2014,0.84 1.488,0.48 1.2854,-0.3467 v 0" style="fill:#577c69;fill-opacity:1;fill-rule:nonzero;stroke:none;stroke-width:0.133333"/><path id="path1262" d="m 1103.7706,1360.4667 c 0.212,2.68 -0.7013,5 -2.132,7.2267 -0.4666,0.72 0.688,1.3867 1.152,0.6667 1.5467,-2.4 2.5427,-5 2.3134,-7.8934 -0.068,-0.8533 -1.4014,-0.8533 -1.3334,0 v 0" style="fill:#577c69;fill-opacity:1;fill-rule:nonzero;stroke:none;stroke-width:0.133333"/><path id="path1263" d="m 1108.636,1375.3067 c 1.04,-3.0266 3.34,-5.4266 4.444,-8.44 0.296,-0.8133 -0.9934,-1.16 -1.2854,-0.36 -1.104,3.0267 -3.4,5.4 -4.4453,8.4534 -0.28,0.8133 1.008,1.16 1.2867,0.3466 v 0" style="fill:#577c69;fill-opacity:1;fill-rule:nonzero;stroke:none;stroke-width:0.133333"/><path id="path1280" d="m 1107.44,1385.0401 c 4.24,-2.1334 6.4413,-6.0134 8.684,-10.0134 0.4213,-0.7466 -0.7307,-1.4266 -1.152,-0.6666 -2.1267,3.7866 -4.1707,7.4933 -8.2054,9.5333 -0.768,0.3867 -0.092,1.5333 0.6734,1.1467 v 0" style="fill:#577c69;fill-opacity:1;fill-rule:nonzero;stroke:none;stroke-width:0.133333"/><path id="path1281" d="m 1120.02,1368.4934 c 2.1493,-1.9733 2.8293,-4.7333 3.7266,-7.4 0.2747,-0.8267 -1.0133,-1.1733 -1.2853,-0.36 -0.8227,2.4533 -1.4107,5 -3.384,6.8133 -0.6347,0.5867 0.3107,1.5334 0.9427,0.9467 v 0" style="fill:#577c69;fill-opacity:1;fill-rule:nonzero;stroke:none;stroke-width:0.133333"/><path id="path1287" d="m 1105.6626,1392.6001 c 2.284,-1.4267 5.1694,-0.9734 7.5547,-2.2267 0.7613,-0.4 0.088,-1.5467 -0.672,-1.1467 -2.3867,1.2534 -5.236,0.7734 -7.556,2.2267 -0.728,0.4533 -0.059,1.6 0.6733,1.1467 v 0" style="fill:#577c69;fill-opacity:1;fill-rule:nonzero;stroke:none;stroke-width:0.133333"/><path id="path1288" d="m 1119.6786,1385.2534 c 1.5747,-3.1067 3.324,-6.1733 5.6747,-8.76 0.576,-0.64 -0.364,-1.5733 -0.9427,-0.9467 -2.428,2.68 -4.256,5.8134 -5.8826,9.0267 -0.388,0.7733 0.7626,1.44 1.1506,0.68 v 0" style="fill:#577c69;fill-opacity:1;fill-rule:nonzero;stroke:none;stroke-width:0.133333"/><path id="path1289" d="m 1129.9693,1368.6401 c 1.1573,-3.9734 1.7573,-8.08 3.1107,-12 0.2813,-0.8134 -1.0067,-1.16 -1.2854,-0.3467 -1.3533,3.92 -1.9546,8.0267 -3.112,12 -0.2413,0.8267 1.0467,1.1733 1.2867,0.3467 v 0" style="fill:#577c69;fill-opacity:1;fill-rule:nonzero;stroke:none;stroke-width:0.133333"/><path id="path1291" d="m 1083.884,1387.8934 c -2.416,-1.1067 -4.8774,-2.0933 -7.1107,-3.56 -0.7227,-0.4667 -1.3893,0.6933 -0.6733,1.16 2.2333,1.4533 4.6946,2.4533 7.112,3.5467 0.776,0.36 1.4546,-0.7867 0.672,-1.1467 v 0" style="fill:#577c69;fill-opacity:1;fill-rule:nonzero;stroke:none;stroke-width:0.133333"/><path id="path1480" d="m 1102.1266,1381.2134 c 0.7427,-0.8667 1.14,-2.0933 1.1867,-3.4 0.031,-0.027 0.061,-0.04 0.091,-0.08 0.116,0.093 0.224,0.1733 0.352,0.2667 -0.095,1.2133 -0.5974,2.3333 -1.6294,3.2133 z m -4.824,-11.2267 c 0.01,-0.027 0.016,-0.053 0.021,-0.067 0.077,0.053 0.16,0.1066 0.2333,0.1733 -0.085,-0.04 -0.164,-0.08 -0.2547,-0.1067 z m 10.0854,5.7334 c -0.8734,-4.8134 -4.756,-8.2667 -8.9094,-9.24 -0.3573,-0.2 -0.7293,-0.36 -1.112,-0.4667 -0.2733,-0.28 -0.6426,-0.4933 -1.12,-0.56 -9.8306,-1.1867 -14.0173,9.64 -8.3893,16.9067 1.2413,1.6133 2.96,2.7066 4.8693,3.32 -2.52,8.2 -2.4693,16.88 -2.428,25.4133 0.031,6.6533 -0.38,13.0667 -1.1106,19.5733 -0.3787,3.3734 -1.2774,11.6934 0.668,16.8 0.012,0.3067 0.016,0.6134 0.036,0.92 0.061,0.96 0.7266,1.5467 1.4786,1.68 1.1667,1.28 2.7947,1.9334 5.0574,1.5467 3.9773,-0.68 4.8893,-4.3467 5.3973,-7.8667 0.804,-5.5866 0.572,-11.32 0.3013,-16.9333 -0.5053,-10.4667 -1.008,-21.3867 -2.8786,-31.7733 -0.029,-2.9867 -0.048,-5.9734 -0.059,-8.96 5,-0.8934 9.2547,-4.5334 8.1987,-10.36" style="fill:#534741;fill-opacity:1;fill-rule:nonzero;stroke:none;stroke-width:0.133333"/><path id="path1127" d="m 1088.1693,1395.3867 c -6.492,-2.24 -13.084,-4.2133 -19.156,-7.48 -6.4147,-3.4533 -10.6947,-8.3066 -12.7387,-15.3066 -1.7213,-5.8934 -1.8413,-12.1734 -2.3933,-18.2534 -0.7933,-8.76 -0.7787,-17.5466 -0.7773,-26.3226 0,-0.86 -1.3334,-0.86 -1.3334,0 0,9.0693 0.036,18.136 0.8547,27.176 0.5973,6.5733 0.868,13.2 2.912,19.5333 4.4453,13.8 20.088,17.7467 32.2787,21.9333 0.8146,0.28 1.1613,-1.0133 0.3533,-1.28 v 0" style="fill:#577c69;fill-opacity:1;fill-rule:nonzero;stroke:none;stroke-width:0.133333"/><path id="path1139" d="m 1087.992,1396.6934 c 3.7186,-0.16 6.9266,1.5067 10.412,2.52 2.6186,0.76 5.5333,0.8133 8.2333,0.8 5.8693,-0.04 11.572,-1.6133 16.492,-4.8133 9.3213,-6.0667 16.3613,-17.68 15.752,-28.96 -0.047,-0.8534 -1.38,-0.8534 -1.3333,0 0.6133,11.36 -6.6134,22.2933 -15.8867,28.32 -5.0427,3.28 -11.1867,4.2266 -17.096,4.1066 -5.7867,-0.12 -10.86,-3.56 -16.5733,-3.3066 -0.856,0.04 -0.86,1.3733 0,1.3333 v 0" style="fill:#577c69;fill-opacity:1;fill-rule:nonzero;stroke:none;stroke-width:0.133333"/><path id="path1201" d="m 1080.2386,1328.2907 c -0.7946,2.6774 -0.4866,5.4294 -0.468,8.176 0.01,0.8667 1.3387,0.8667 1.3334,0 -0.019,-2.6266 -0.34,-5.2626 0.42,-7.8213 0.2453,-0.8267 -1.0414,-1.1773 -1.2854,-0.3547 v 0" style="fill:#577c69;fill-opacity:1;fill-rule:nonzero;stroke:none;stroke-width:0.133333"/><path id="path1202" d="m 1081.104,1352.0267 c 0.1466,2.3867 0.5893,4.7334 0.888,7.1067 0.1066,0.84 1.4413,0.8533 1.3333,0 -0.2987,-2.3733 -0.7413,-4.72 -0.888,-7.1067 -0.053,-0.8533 -1.3867,-0.8666 -1.3333,0 v 0" style="fill:#577c69;fill-opacity:1;fill-rule:nonzero;stroke:none;stroke-width:0.133333"/><path id="path1203" d="m 1081.992,1365.8001 c 0,0.44 0,0.8933 0,1.3333 0,0.8667 1.3333,0.8667 1.3333,0 0,-0.44 0,-0.8933 0,-1.3333 0,-0.8534 -1.3333,-0.8534 -1.3333,0 v 0" style="fill:#577c69;fill-opacity:1;fill-rule:nonzero;stroke:none;stroke-width:0.133333"/><path id="path1204" d="m 1080.4373,1375.3601 c -3.768,0.4 -4.3707,-5.08 -6.196,-7.36 -0.536,-0.68 -1.4733,0.28 -0.9427,0.9333 2.1654,2.72 2.524,8.2533 7.1387,7.76 0.8453,-0.093 0.8547,-1.4267 0,-1.3333 v 0" style="fill:#577c69;fill-opacity:1;fill-rule:nonzero;stroke:none;stroke-width:0.133333"/><path id="path1205" d="m 1074.4133,1359.4001 c -0.6907,-2.56 -0.4347,-5.2 -0.4213,-7.8267 0.01,-0.8533 -1.328,-0.8533 -1.3334,0 -0.013,2.76 -0.2533,5.4933 0.4694,8.1867 0.2226,0.8266 1.5093,0.48 1.2853,-0.36 v 0" style="fill:#577c69;fill-opacity:1;fill-rule:nonzero;stroke:none;stroke-width:0.133333"/><path id="path1206" d="m 1073.524,1333.6267 c -1.0094,-4.488 -0.464,-9.0546 -0.42,-13.6026 0.01,-0.86 -1.3254,-0.86 -1.3334,0 -0.045,4.6746 -0.5693,9.3466 0.468,13.9493 0.188,0.84 1.4747,0.4933 1.2854,-0.3467 v 0" style="fill:#577c69;fill-opacity:1;fill-rule:nonzero;stroke:none;stroke-width:0.133333"/><path id="path1219" d="m 1082.2146,1382.4667 c -4.4346,0.2667 -9.312,-1.48 -12.4173,-4.6933 -0.5987,-0.6133 -1.5413,0.32 -0.9427,0.9467 3.336,3.44 8.5894,5.36 13.36,5.08 0.8547,-0.053 0.86,-1.3867 0,-1.3334 v 0" style="fill:#577c69;fill-opacity:1;fill-rule:nonzero;stroke:none;stroke-width:0.133333"/><path id="path1220" d="m 1064.908,1371.1067 c -2.148,-1.96 -2.0694,-5.04 -2.4947,-7.7066 -0.1347,-0.84 -1.42,-0.48 -1.2853,0.36 0.468,2.9333 0.476,6.1333 2.8373,8.2933 0.6347,0.5733 1.58,-0.36 0.9427,-0.9467 v 0" style="fill:#577c69;fill-opacity:1;fill-rule:nonzero;stroke:none;stroke-width:0.133333"/><path id="path1221" d="m 1062.8813,1347.1334 c 0,-2.96 0,-5.92 0,-8.8933 0,-0.8534 -1.3333,-0.8534 -1.3333,0 0,2.9733 0,5.9333 0,8.8933 0,0.8667 1.3333,0.8667 1.3333,0 v 0" style="fill:#577c69;fill-opacity:1;fill-rule:nonzero;stroke:none;stroke-width:0.133333"/><path id="path1232" d="m 1101.524,1365.6267 c -0.5867,-2.44 -0.4294,-4.9066 -0.42,-7.3866 0,-0.8534 -1.3307,-0.8534 -1.3334,0 -0.01,2.6133 -0.148,5.1866 0.468,7.7333 0.2014,0.84 1.488,0.48 1.2854,-0.3467 v 0" style="fill:#577c69;fill-opacity:1;fill-rule:nonzero;stroke:none;stroke-width:0.133333"/><path id="path1262" d="m 1103.7706,1360.4667 c 0.212,2.68 -0.7013,5 -2.132,7.2267 -0.4666,0.72 0.688,1.3867 1.152,0.6667 1.5467,-2.4 2.5427,-5 2.3134,-7.8934 -0.068,-0.8533 -1.4014,-0.8533 -1.3334,0 v 0" style="fill:#577c69;fill-opacity:1;fill-rule:nonzero;stroke:none;stroke-width:0.133333"/><path id="path1263" d="m 1108.636,1375.3067 c 1.04,-3.0266 3.34,-5.4266 4.444,-8.44 0.296,-0.8133 -0.9934,-1.16 -1.2854,-0.36 -1.104,3.0267 -3.4,5.4 -4.4453,8.4534 -0.28,0.8133 1.008,1.16 1.2867,0.3466 v 0" style="fill:#577c69;fill-opacity:1;fill-rule:nonzero;stroke:none;stroke-width:0.133333"/><path id="path1280" d="m 1107.44,1385.0401 c 4.24,-2.1334 6.4413,-6.0134 8.684,-10.0134 0.4213,-0.7466 -0.7307,-1.4266 -1.152,-0.6666 -2.1267,3.7866 -4.1707,7.4933 -8.2054,9.5333 -0.768,0.3867 -0.092,1.5333 0.6734,1.1467 v 0" style="fill:#577c69;fill-opacity:1;fill-rule:nonzero;stroke:none;stroke-width:0.133333"/><path id="path1281" d="m 1120.02,1368.4934 c 2.1493,-1.9733 2.8293,-4.7333 3.7266,-7.4 0.2747,-0.8267 -1.0133,-1.1733 -1.2853,-0.36 -0.8227,2.4533 -1.4107,5 -3.384,6.8133 -0.6347,0.5867 0.3107,1.5334 0.9427,0.9467 v 0" style="fill:#577c69;fill-opacity:1;fill-rule:nonzero;stroke:none;stroke-width:0.133333"/><path id="path1287" d="m 1105.6626,1392.6001 c 2.284,-1.4267 5.1694,-0.9734 7.5547,-2.2267 0.7613,-0.4 0.088,-1.5467 -0.672,-1.1467 -2.3867,1.2534 -5.236,0.7734 -7.556,2.2267 -0.728,0.4533 -0.059,1.6 0.6733,1.1467 v 0" style="fill:#577c69;fill-opacity:1;fill-rule:nonzero;stroke:none;stroke-width:0.133333"/><path id="path1288" d="m 1119.6786,1385.2534 c 1.5747,-3.1067 3.324,-6.1733 5.6747,-8.76 0.576,-0.64 -0.364,-1.5733 -0.9427,-0.9467 -2.428,2.68 -4.256,5.8134 -5.8826,9.0267 -0.388,0.7733 0.7626,1.44 1.1506,0.68 v 0" style="fill:#577c69;fill-opacity:1;fill-rule:nonzero;stroke:none;stroke-width:0.133333"/><path id="path1289" d="m 1129.9693,1368.6401 c 1.1573,-3.9734 1.7573,-8.08 3.1107,-12 0.2813,-0.8134 -1.0067,-1.16 -1.2854,-0.3467 -1.3533,3.92 -1.9546,8.0267 -3.112,12 -0.2413,0.8267 1.0467,1.1733 1.2867,0.3467 v 0" style="fill:#577c69;fill-opacity:1;fill-rule:nonzero;stroke:none;stroke-width:0.133333"/><path id="path1291" d="m 1083.884,1387.8934 c -2.416,-1.1067 -4.8774,-2.0933 -7.1107,-3.56 -0.7227,-0.4667 -1.3893,0.6933 -0.6733,1.16 2.2333,1.4533 4.6946,2.4533 7.112,3.5467 0.776,0.36 1.4546,-0.7867 0.672,-1.1467 v 0" style="fill:#577c69;fill-opacity:1;fill-rule:nonzero;stroke:none;stroke-width:0.133333"/></g></svg>