<svg version="1.1" id="svg1" width="2000" height="2579.9468" viewBox="1192.0614849281467 563.5916852862639 7.882118141850469 16.869416003712786" sodipodi:docname="styletrees.svg" inkscape:version="1.4.2 (f4327f4, 2025-05-13)" xmlns:inkscape="http://www.inkscape.org/namespaces/inkscape" xmlns:sodipodi="http://sodipodi.sourceforge.net/DTD/sodipodi-0.dtd" xmlns="http://www.w3.org/2000/svg" xmlns:svg="http://www.w3.org/2000/svg"><defs id="defs1"/><g><path id="path1021" d="m 1193.5426,565.96008 c -0.061,-0.0133 0.3707,1.48 0.4667,1.89334 0.26,1.10666 0.4467,2.24 0.6347,3.36 0.3466,2.08 0.5973,4.16 0.9466,6.22666 0.1494,0.88 1.4787,0.50667 1.332,-0.36 -0.436,-2.58666 -0.7493,-5.17333 -1.212,-7.76 -0.208,-1.16 -0.364,-4.22666 -1.8013,-4.69333 -0.8507,-0.26667 -1.212,1.06667 -0.3667,1.33333 v 0" style="fill:#577c69;fill-opacity:1;fill-rule:nonzero;stroke:none;stroke-width:0.133333"/><path id="path1022" d="m 1196.4866,568.52008 c 0.037,3.92 1.02,7.70667 2.096,11.45334 0.244,0.85333 1.5774,0.49333 1.3307,-0.36 -1.0413,-3.64 -2.0093,-7.29334 -2.0453,-11.09334 -0.01,-0.89333 -1.3894,-0.89333 -1.3814,0 v 0" style="fill:#577c69;fill-opacity:1;fill-rule:nonzero;stroke:none;stroke-width:0.133333"/><path id="path1021" d="m 1193.5426,565.96008 c -0.061,-0.0133 0.3707,1.48 0.4667,1.89334 0.26,1.10666 0.4467,2.24 0.6347,3.36 0.3466,2.08 0.5973,4.16 0.9466,6.22666 0.1494,0.88 1.4787,0.50667 1.332,-0.36 -0.436,-2.58666 -0.7493,-5.17333 -1.212,-7.76 -0.208,-1.16 -0.364,-4.22666 -1.8013,-4.69333 -0.8507,-0.26667 -1.212,1.06667 -0.3667,1.33333 v 0" style="fill:#577c69;fill-opacity:1;fill-rule:nonzero;stroke:none;stroke-width:0.133333"/><path id="path1022" d="m 1196.4866,568.52008 c 0.037,3.92 1.02,7.70667 2.096,11.45334 0.244,0.85333 1.5774,0.49333 1.3307,-0.36 -1.0413,-3.64 -2.0093,-7.29334 -2.0453,-11.09334 -0.01,-0.89333 -1.3894,-0.89333 -1.3814,0 v 0" style="fill:#577c69;fill-opacity:1;fill-rule:nonzero;stroke:none;stroke-width:0.133333"/></g></svg>