<svg version="1.1" id="svg1" width="2000" height="2579.9468" viewBox="1215.573678819001 782.4315397502933 3.243283110789207 13.644066122855975" sodipodi:docname="styletrees.svg" inkscape:version="1.4.2 (f4327f4, 2025-05-13)" xmlns:inkscape="http://www.inkscape.org/namespaces/inkscape" xmlns:sodipodi="http://sodipodi.sourceforge.net/DTD/sodipodi-0.dtd" xmlns="http://www.w3.org/2000/svg" xmlns:svg="http://www.w3.org/2000/svg"><defs id="defs1"/><g><path id="path729" d="m 1217.6266,783.62674 c -1.26,1.18667 -1.048,3.65334 -1.0266,5.21334 0.029,2.24 0.2653,4.50666 0.62,6.73333 0.14,0.88 1.4693,0.50667 1.3306,-0.37333 -0.2813,-1.76 -0.4386,-3.54667 -0.5346,-5.33334 -0.071,-1.32 -0.4894,-4.25333 0.588,-5.26666 0.648,-0.61334 -0.3294,-1.58667 -0.9774,-0.97334 v 0" style="fill:#577c69;fill-opacity:1;fill-rule:nonzero;stroke:none;stroke-width:0.133333"/><path id="path729" d="m 1217.6266,783.62674 c -1.26,1.18667 -1.048,3.65334 -1.0266,5.21334 0.029,2.24 0.2653,4.50666 0.62,6.73333 0.14,0.88 1.4693,0.50667 1.3306,-0.37333 -0.2813,-1.76 -0.4386,-3.54667 -0.5346,-5.33334 -0.071,-1.32 -0.4894,-4.25333 0.588,-5.26666 0.648,-0.61334 -0.3294,-1.58667 -0.9774,-0.97334 v 0" style="fill:#577c69;fill-opacity:1;fill-rule:nonzero;stroke:none;stroke-width:0.133333"/></g></svg>