<svg version="1.1" id="svg1" width="2000" height="2579.9468" viewBox="863.88001 2312.3067 21.666669999999954 21" sodipodi:docname="styletrees.svg" inkscape:version="1.4.2 (f4327f4, 2025-05-13)" xmlns:inkscape="http://www.inkscape.org/namespaces/inkscape" xmlns:sodipodi="http://sodipodi.sourceforge.net/DTD/sodipodi-0.dtd" xmlns="http://www.w3.org/2000/svg" xmlns:svg="http://www.w3.org/2000/svg"><defs id="defs1"/><g><path id="path1344" d="m 889.33331,2333.3067 c 0.22267,0 0.444,0 0.66667,0 5.45066,0 10,-4.5467 10,-10 0,-5.4533 -4.54934,-10 -10,-10 -0.22267,0 -0.444,0 -0.66667,0 -5.45067,0 -10,4.5467 -10,10 0,5.4533 4.54933,10 10,10 v 0" style="fill:#577c69;fill-opacity:1;fill-rule:nonzero;stroke:none;stroke-width:0.133333"/><path id="path1427" d="m 872.66664,2333.3067 c 0.005,0 0.009,0 0.0147,0 3.63467,0 6.66667,-3.04 6.66667,-6.6667 0,-3.64 -3.032,-6.6666 -6.66667,-6.6666 -0.37867,0 -0.756,0 -1.13467,0 -3.63333,0 -6.66666,3.0266 -6.66666,6.6666 0,3.6267 3.03333,6.6667 6.66666,6.6667 0.15067,0 0.30267,0 0.45334,0 3.63466,0 6.66666,-3.04 6.66666,-6.6667 0,-3.64 -3.032,-6.6666 -6.66666,-6.6666 -0.15067,0 -0.30267,0 -0.45334,0 -3.63333,0 -6.66666,3.0266 -6.66666,6.6666 0,3.6267 3.03333,6.6667 6.66666,6.6667 0.37867,0 0.756,0 1.13467,0 3.63467,0 6.66667,-3.04 6.66667,-6.6667 0,-3.64 -3.032,-6.6666 -6.66667,-6.6666 -0.005,0 -0.009,0 -0.0147,0 -3.63466,0 -6.66666,3.0266 -6.66666,6.6666 0,3.6267 3.032,6.6667 6.66666,6.6667 v 0" style="fill:#577c69;fill-opacity:1;fill-rule:nonzero;stroke:none;stroke-width:0.133333"/></g></svg>