<svg version="1.1" id="svg1" width="2000" height="2579.9468" viewBox="1145.3006087141005 834.9084018564499 4.660164974530517 12.985289215253829" sodipodi:docname="styletrees.svg" inkscape:version="1.4.2 (f4327f4, 2025-05-13)" xmlns:inkscape="http://www.inkscape.org/namespaces/inkscape" xmlns:sodipodi="http://sodipodi.sourceforge.net/DTD/sodipodi-0.dtd" xmlns="http://www.w3.org/2000/svg" xmlns:svg="http://www.w3.org/2000/svg"><defs id="defs1"/><g><path id="path817" d="m 1146.328,836.57341 c -0.14,2.16 0.2813,4.41333 0.704,6.53333 0.2973,1.48 0.6293,3.66667 1.9386,4.65334 0.712,0.53333 1.3987,-0.66667 0.696,-1.2 -1.064,-0.8 -1.2706,-3.61334 -1.4906,-4.8 -0.3134,-1.68 -0.5787,-3.46667 -0.468,-5.18667 0.057,-0.89333 -1.324,-0.88 -1.38,0 v 0" style="fill:#577c69;fill-opacity:1;fill-rule:nonzero;stroke:none;stroke-width:0.133333"/><path id="path817" d="m 1146.328,836.57341 c -0.14,2.16 0.2813,4.41333 0.704,6.53333 0.2973,1.48 0.6293,3.66667 1.9386,4.65334 0.712,0.53333 1.3987,-0.66667 0.696,-1.2 -1.064,-0.8 -1.2706,-3.61334 -1.4906,-4.8 -0.3134,-1.68 -0.5787,-3.46667 -0.468,-5.18667 0.057,-0.89333 -1.324,-0.88 -1.38,0 v 0" style="fill:#577c69;fill-opacity:1;fill-rule:nonzero;stroke:none;stroke-width:0.133333"/></g></svg>