<svg version="1.1" id="svg1" width="2000" height="2579.9468" viewBox="1166.618251120702 672.4686510657326 2.731471640210202 17.05476393425033" sodipodi:docname="styletrees.svg" inkscape:version="1.4.2 (f4327f4, 2025-05-13)" xmlns:inkscape="http://www.inkscape.org/namespaces/inkscape" xmlns:sodipodi="http://sodipodi.sourceforge.net/DTD/sodipodi-0.dtd" xmlns="http://www.w3.org/2000/svg" xmlns:svg="http://www.w3.org/2000/svg"><defs id="defs1"/><g><path id="path654" d="m 1167.98,673.94675 c -0.6134,1.88 -0.264,3.89333 -0.2507,5.84 0.023,3.02666 0.208,6.04 0.2267,9.06666 0.01,0.89334 1.3853,0.89334 1.38,0 -0.016,-2.64 -0.1307,-5.29333 -0.204,-7.93333 -0.057,-2.08 -0.4747,-4.61333 0.18,-6.61333 0.2773,-0.84 -1.056,-1.2 -1.332,-0.36 v 0" style="fill:#577c69;fill-opacity:1;fill-rule:nonzero;stroke:none;stroke-width:0.133333"/><path id="path654" d="m 1167.98,673.94675 c -0.6134,1.88 -0.264,3.89333 -0.2507,5.84 0.023,3.02666 0.208,6.04 0.2267,9.06666 0.01,0.89334 1.3853,0.89334 1.38,0 -0.016,-2.64 -0.1307,-5.29333 -0.204,-7.93333 -0.057,-2.08 -0.4747,-4.61333 0.18,-6.61333 0.2773,-0.84 -1.056,-1.2 -1.332,-0.36 v 0" style="fill:#577c69;fill-opacity:1;fill-rule:nonzero;stroke:none;stroke-width:0.133333"/></g></svg>