<svg version="1.1" id="svg1" width="2000" height="2579.9468" viewBox="1273.253359821195 707.6380076551042 3.1995870849934818 12.4804142524913" sodipodi:docname="styletrees.svg" inkscape:version="1.4.2 (f4327f4, 2025-05-13)" xmlns:inkscape="http://www.inkscape.org/namespaces/inkscape" xmlns:sodipodi="http://sodipodi.sourceforge.net/DTD/sodipodi-0.dtd" xmlns="http://www.w3.org/2000/svg" xmlns:svg="http://www.w3.org/2000/svg"><defs id="defs1"/><g><path id="path454" d="m 1274.5986,709.93341 c 0.9774,0.54667 0.372,3.76 0.2854,4.64 -0.16,1.64 -0.4667,3.25334 -0.6267,4.88 -0.087,0.89334 1.2947,0.88 1.38,0 0.2053,-2.08 0.5947,-4.14666 0.7427,-6.24 0.095,-1.33333 0.3173,-3.68 -1.084,-4.48 -0.776,-0.44 -1.4707,0.76 -0.6974,1.2 v 0" style="fill:#577c69;fill-opacity:1;fill-rule:nonzero;stroke:none;stroke-width:0.133333"/><path id="path454" d="m 1274.5986,709.93341 c 0.9774,0.54667 0.372,3.76 0.2854,4.64 -0.16,1.64 -0.4667,3.25334 -0.6267,4.88 -0.087,0.89334 1.2947,0.88 1.38,0 0.2053,-2.08 0.5947,-4.14666 0.7427,-6.24 0.095,-1.33333 0.3173,-3.68 -1.084,-4.48 -0.776,-0.44 -1.4707,0.76 -0.6974,1.2 v 0" style="fill:#577c69;fill-opacity:1;fill-rule:nonzero;stroke:none;stroke-width:0.133333"/></g></svg>