<svg version="1.1" id="svg1" width="2000" height="2579.9468" viewBox="52.2663892033873 886.5028469361689 295.4452806149784 94.28722306382758" sodipodi:docname="styletrees.svg" inkscape:version="1.4.2 (f4327f4, 2025-05-13)" xmlns:inkscape="http://www.inkscape.org/namespaces/inkscape" xmlns:sodipodi="http://sodipodi.sourceforge.net/DTD/sodipodi-0.dtd" xmlns="http://www.w3.org/2000/svg" xmlns:svg="http://www.w3.org/2000/svg"><defs id="defs1"/><g><path id="path284" d="m 189.49733,896.69341 c -6.25067,2.61333 -7.29467,12.26667 -8.10533,18.02666 -1.43734,10.2 -1.70134,20.56 -0.74534,30.81334 0.27334,2.92 1.10267,5.70666 -0.14933,8.48 -0.71067,1.58666 -2.20667,2.4 -2.60533,4.17333 -0.54,2.4 2.748,3.89333 4.62266,3.24 3.856,-1.36 4.58134,-8.94667 -0.57333,-8.52 -0.95867,0.08 -0.96667,1.58667 0,1.50667 3.236,-0.26667 2.25467,3.41333 0.90267,4.98666 -1.86267,2.16 -3.95067,-0.94666 -2.35734,-2.89333 0.71467,-0.86667 1.31334,-1.6 1.72134,-2.66667 1.14933,-3 0.116,-6.44 -0.17334,-9.53333 -0.424,-4.56 -0.536,-9.14667 -0.448,-13.72 0.11334,-5.92 0.672,-11.94667 1.604,-17.78666 0.72,-4.53334 1.83067,-12.61334 6.70667,-14.65334 0.88,-0.36 0.49467,-1.82666 -0.4,-1.45333 v 0" style="fill:#577c69;fill-opacity:1;fill-rule:nonzero;stroke:none;stroke-width:0.133333"/><path id="path285" d="m 187.804,897.73341 c 4.27733,1.81333 5.36266,6.70667 6.244,10.81333 1.15733,5.4 2.028,10.81333 2.59866,16.29333 0.60134,5.78667 1.076,11.6 1.488,17.41334 0.20667,2.90666 0.31334,5.81333 0.32667,8.73333 0.0107,2.42667 -0.39733,1.36 -1.50533,2.94667 -2.116,3.04 0.088,8.88 4.34666,6.52 4.432,-2.46667 2.064,-9.48 -3.024,-7.62667 -0.904,0.33333 -0.51333,1.78667 0.39867,1.45333 4.632,-1.69333 4.55466,5.88 0.20533,5.08 -2.37066,-0.44 -1.41066,-4.8 0.488,-5.16 0.33067,-0.0667 0.544,-0.41333 0.552,-0.72 0.284,-11.61333 -0.984,-23.53333 -2.53333,-35.02666 -0.644,-4.77334 -1.524,-9.69333 -2.9,-14.32 -0.96533,-3.25333 -2.696,-6.33333 -5.92667,-7.69333 -0.88133,-0.37334 -1.648,0.92 -0.75866,1.29333 v 0" style="fill:#577c69;fill-opacity:1;fill-rule:nonzero;stroke:none;stroke-width:0.133333"/><path id="path286" d="m 188.75866,897.80008 c 5.13867,-0.76 10.01067,4.77333 13.48267,7.93333 4.03866,3.66667 7.26133,8.12 9.78266,12.94666 5.732,10.96 5.63067,23.6 5.61867,35.65334 0.24933,-0.25334 0.5,-0.50667 0.75067,-0.74667 -6.39334,-0.24 -6.27334,10.61333 -0.56534,8.94667 4.71334,-1.37334 4.27467,-10.89334 -0.52,-8.30667 -0.85333,0.45333 -0.0947,1.74667 0.75867,1.29333 1.908,-1.02666 1.792,1.82667 1.66533,2.72 -0.20666,1.46667 -1.132,2.70667 -2.67466,2.88 -3.38,0.38667 -2.448,-6.17333 1.336,-6.04 0.41066,0.0133 0.75066,-0.34666 0.752,-0.74666 0.0133,-13.24 -0.25867,-26.36 -6.804,-38.24 -2.868,-5.2 -6.88,-9.70667 -11.42134,-13.50667 -3.63999,-3.04 -7.40666,-7 -12.55999,-6.22666 -0.956,0.13333 -0.548,1.58666 0.39866,1.44 v 0" style="fill:#577c69;fill-opacity:1;fill-rule:nonzero;stroke:none;stroke-width:0.133333"/><path id="path287" d="m 190.63733,897.74674 c 10.74533,-2.97333 21.70933,6.29334 29.012,13 9.144,8.41333 15.972,17.77333 18.31066,30.21333 0.63734,3.38667 0.892,6.84 1.04667,10.26667 0.12267,2.73333 0.0653,4.21333 -1.47467,6.38667 -1.952,2.76 -4.784,6.88 -0.24266,8.81333 2.44666,1.04 4.12933,-1.37333 4.75333,-3.38667 0.94667,-3.06666 -0.14133,-6.65333 -2.91067,-8.30666 -0.83466,-0.49334 -1.58933,0.8 -0.75866,1.29333 2.15066,1.29333 2.69333,3.69333 2.348,6.04 -0.13734,0.93333 -0.52667,1.81333 -1.13467,2.53333 -1.996,2.33334 -3.49733,-2 -2.45467,-3.81333 0.82534,-1.42667 2.16934,-2.58667 2.964,-4.01333 0.73734,-1.32 0.48667,-3 0.45067,-4.45334 -0.26267,-10.58666 -2.39333,-20.98666 -8.324,-29.90666 -4.77733,-7.18667 -11.76933,-13.48 -18.59067,-18.66667 -6.45866,-4.90666 -15.02799,-9.76 -23.39466,-7.44 -0.93333,0.25334 -0.536,1.70667 0.4,1.44 v 0" style="fill:#577c69;fill-opacity:1;fill-rule:nonzero;stroke:none;stroke-width:0.133333"/><path id="path288" d="m 192.48133,897.89341 c 3.90267,-4.09333 11.096,-1.77333 15.76933,-0.42667 6.032,1.73334 11.82533,4.17334 17.032,7.69334 11.26533,7.64 18.76267,21.51999 23.164,34.05333 0.98267,2.8 1.75467,5.66666 2.41467,8.56 0.70666,3.08 1.728,6.2 1.91466,9.37333 0.18534,3.13333 -5.14666,7.2 -0.576,9.81333 2.66134,1.53334 5.168,-1.65333 5.944,-3.74666 1.38267,-3.73334 -2.83066,-5.74667 -5.60533,-6.69334 -0.91867,-0.32 -1.31067,1.13334 -0.39867,1.44 2.896,1 5.92534,2.58667 3.94667,6.21334 -1.66667,3.05333 -5.13733,0.50666 -3.684,-2.42667 0.46,-0.92 1.144,-1.69333 1.57733,-2.64 1.47734,-3.24 -0.98666,-8.53333 -1.66933,-11.73333 -2.356,-11.06667 -7.368,-21.64 -13.93067,-30.81334 -6.15333,-8.59999 -13.80266,-14.67999 -23.656,-18.51999 -6.116,-2.37334 -17.75333,-7.02667 -23.30533,-1.21334 -0.668,0.70667 0.39334,1.76 1.06267,1.06667 v 0" style="fill:#577c69;fill-opacity:1;fill-rule:nonzero;stroke:none;stroke-width:0.133333"/><path id="path289" d="m 187.444,896.73341 c -10.756,0.0667 -18.836,11.50667 -23.756,19.76 -6.49467,10.90666 -10.40267,25.16 -9.572,37.84 0.37733,-0.22667 0.75466,-0.44 1.13066,-0.65334 -5.06533,-2.32 -12.07333,3.49334 -6.67733,7.81334 5.07733,4.06666 11.51733,-3.70667 5.95867,-7.66667 -0.79067,-0.57333 -1.54,0.73333 -0.75867,1.29333 4.232,3.01334 -1.052,7.77334 -4.748,4.82667 -1.62267,-1.30667 -0.74,-3.25333 0.4,-4.4 1.35333,-1.37333 3.44133,-1.32 5.06667,-0.57333 0.47466,0.22666 1.172,-0.0267 1.13066,-0.64 -0.78266,-11.94667 2.81867,-25.2 8.55467,-35.65334 4.496,-8.19999 12.74133,-20.37333 23.27067,-20.43999 0.968,0 0.96933,-1.50667 0,-1.50667 v 0" style="fill:#577c69;fill-opacity:1;fill-rule:nonzero;stroke:none;stroke-width:0.133333"/><path id="path290" d="m 186.696,896.86674 c -5.38934,-2.6 -11.71334,0 -16.78267,2.21334 -6.87733,3.01333 -12.88133,7.18666 -18.164,12.50666 -10.96133,11.05333 -19.46493,27.13333 -18.592,43.01333 0.428,-0.18666 0.85467,-0.36 1.28267,-0.53333 -3.43947,-4.2 -9.46134,1.64 -7.4452,5.90667 1.07133,2.26666 4.8276,2.93333 6.89986,1.90666 3.95334,-1.96 2.37067,-5.58666 0.95334,-8.70666 -0.4,-0.88 -1.69494,-0.12 -1.29734,0.76 0.79734,1.76 2.57467,4.56 0.22534,6.33333 -1.63587,1.24 -4.35934,0.46667 -5.48334,-1.05333 -1.87866,-2.54667 2.85627,-6.81334 5.08467,-4.09334 0.416,0.50667 1.31733,0.0933 1.28267,-0.52 -0.82534,-15.02666 6.90266,-29.50666 16.70133,-40.41333 4.66,-5.18666 10.25333,-9.45333 16.512,-12.50666 5.056,-2.48 12.47467,-6.21334 18.064,-3.50667 0.868,0.41333 1.63067,-0.88 0.75867,-1.30667 v 0" style="fill:#577c69;fill-opacity:1;fill-rule:nonzero;stroke:none;stroke-width:0.133333"/><path id="path291" d="m 184.24133,896.10674 c -6.964,-2.84 -15.09733,0.8 -21.90933,2.49334 -8.808,2.17333 -16.776,6.32 -23.99334,11.78666 -14.42466,10.90667 -23.2272,25.76 -25.60586,43.72 0.31666,-0.24 0.63386,-0.48 0.95106,-0.73333 -2.92186,-1.02667 -6.0084,0.0933 -6.80266,3.26666 -0.7432,2.98667 2.54693,4.98667 5.09906,4.94667 5.32027,-0.0933 6.7708,-9.62667 0.75614,-10.04 -0.9676,-0.0667 -0.96134,1.44 0,1.50667 3.84853,0.26666 2.574,5.14666 0.34426,6.65333 -1.76133,1.18667 -4.5656,-0.25333 -4.76666,-2.32 -0.26454,-2.73333 3.14746,-3.2 4.9704,-2.56 0.5104,0.18667 0.89213,-0.28 0.95106,-0.72 1.114,-8.41333 3.68387,-16.49333 7.85774,-23.89333 4.34226,-7.69334 10.86413,-13.88 17.8548,-19.17333 6.504,-4.92 13.848,-8.61334 21.72266,-10.73334 6.71867,-1.81333 15.33867,-5.53333 22.17067,-2.74666 0.89867,0.37333 1.28533,-1.09334 0.4,-1.45334 v 0" style="fill:#577c69;fill-opacity:1;fill-rule:nonzero;stroke:none;stroke-width:0.133333"/><path id="path292" d="m 181.40533,895.89341 c -6.308,-3.49333 -14.54667,-2.50667 -21.46133,-2.01333 -8.464,0.61333 -16.82667,2.42666 -24.84267,5.17333 -14.11387,4.85333 -25.0784,15.72 -32.58307,28.4 -3.305729,5.57333 -5.834396,11.66666 -6.728129,18.10666 -0.192267,1.38667 -0.344267,3.04 -1.649467,3.8 -1.059466,0.62667 -2.439066,0.82667 -3.590666,1.24 -1.522934,0.54667 -2.6104,1.48 -3.037467,3.05334 -1.0964,4.04 3.1568,7.24 6.753067,6.34666 1.902666,-0.46666 2.978666,-2.29333 3.438533,-4.04 0.766133,-2.92 -1.25,-4.98666 -2.938533,-7.04 -0.6156,-0.74666 -1.6724,0.32 -1.062534,1.06667 1.208934,1.46667 2.501067,2.68 2.640134,4.73333 0.1464,2.16 -1.483334,3.81334 -3.4968,4.01334 -3.428134,0.33333 -5.381867,-4.89334 -2.236,-6.54667 2.901066,-1.52 5.4464,-1.04 6.360933,-4.70667 0.466667,-1.88 0.5016,-3.82666 0.9948,-5.69333 0.7328,-2.78667 1.8032,-5.48 2.987469,-8.09333 2.56986,-5.68 6.09906,-10.93334 10.07813,-15.72 8.10733,-9.73333 18.08907,-15.78667 30.19093,-19.26667 6.488,-1.86666 13.192,-2.92 19.91734,-3.4 6.24133,-0.45333 13.85066,-1.24 19.50666,1.89334 0.848,0.46666 1.60667,-0.82667 0.75867,-1.30667 v 0" style="fill:#577c69;fill-opacity:1;fill-rule:nonzero;stroke:none;stroke-width:0.133333"/><path id="path293" d="m 179.388,895.10674 c -3.08934,-4.49333 -9.664,-4.61333 -14.58,-4.50666 -9.01867,0.17333 -18.07067,1.76 -26.76667,4.08 -16.72,4.46666 -34.01893,11.81333 -46.454399,24.11999 -5.5396,5.48 -10.040533,12.01334 -13.0416,19.2 -0.7792,1.86667 -1.365066,3.81334 -1.870266,5.76 -0.612534,2.37334 -0.372934,1.93334 -2.560534,2.24 -2.377066,0.34667 -4.136399,2.52 -4.405733,4.89334 -0.59,5.18666 4.8948,9.09333 9.136533,5.06666 2.007334,-1.90666 2.916667,-4.10666 2.25,-6.84 -0.669333,-2.74666 -4.085466,-3.53333 -6.322933,-4.33333 -0.915067,-0.32 -1.305733,1.13333 -0.399467,1.45333 1.803067,0.64 3.780667,1.06667 4.997867,2.70667 2.024,2.72 -1.0948,6.05333 -3.45,6.97333 -3.004133,1.17334 -4.768133,-1.82666 -4.793733,-4.28 -0.03587,-3.41333 2.928133,-4.30666 5.674533,-3.98666 0.3052,0.04 0.6724,-0.25334 0.7244,-0.54667 1.7928,-10.2 7.336533,-19.06667 14.386533,-26.49333 7.412,-7.8 16.476529,-12.84 26.199999,-17.17333 10.08693,-4.50667 20.65147,-7.86667 31.53547,-9.78667 5.22,-0.92 10.552,-1.46667 15.85333,-1.57333 4.09333,-0.08 10.01467,0.04 12.58933,3.78666 0.544,0.8 1.848,0.04 1.29734,-0.76 v 0" style="fill:#577c69;fill-opacity:1;fill-rule:nonzero;stroke:none;stroke-width:0.133333"/><path id="path294" d="m 191.98666,899.14674 c 4.11067,-2.04 8.21467,-4.01333 12.70133,-5.06666 5.144,-1.2 10.51867,-0.33334 15.568,0.89333 9.104,2.21333 16.916,7.45333 23.79467,13.64 14.028,12.62666 24.19867,30.08 27.76267,48.64 0.24133,-0.32 0.484,-0.62667 0.72533,-0.94667 -1.864,0.21333 -3.90933,1.13333 -3.988,3.32 -0.06,1.72 0.932,3.88 2.912,3.98667 5.55867,0.29333 5.27733,-8.12 0.009,-8.44 -0.968,-0.0533 -0.96266,1.45333 0,1.50666 2.968,0.18667 3.716,4.37334 0.836,5.4 -2.43733,0.86667 -3.316,-3.86666 0.23067,-4.26666 0.508,-0.0667 0.824,-0.44 0.724,-0.96 -3.836,-19.97334 -15.17467,-38.24 -30.552,-51.41333 -6.99867,-6 -15.01333,-10.37334 -24.03733,-12.37334 -4.41734,-0.97333 -8.88,-1.33333 -13.36267,-0.62666 -4.972,0.77333 -9.624,3.2 -14.08266,5.4 -0.868,0.44 -0.10667,1.73333 0.75866,1.30666 v 0" style="fill:#577c69;fill-opacity:1;fill-rule:nonzero;stroke:none;stroke-width:0.133333"/><path id="path295" d="m 196.40666,896.01341 c 5.91733,-2.92 13.95067,-2.2 20.40133,-2.48 9.252,-0.41333 18.50134,0.22667 27.096,3.93333 14.328,6.18667 27.41867,17.12 36.62,29.64 4.384,5.96 7.76934,12.64 9.808,19.76 0.80667,2.81333 3.14134,6.6 1.68934,9.50667 -0.88267,1.77333 -3.364,3.38666 -3.46267,5.50666 -0.208,4.44 6.048,5.84 8.37467,2.32 3.16266,-4.8 -1.48,-7.77333 -5.70934,-8.81333 -0.94133,-0.22667 -1.34133,1.21333 -0.4,1.45333 1.192,0.29334 2.31467,0.61334 3.432,1.14667 3.52267,1.65333 2.376,6.37333 -1.25333,6.78667 -2.80933,-1.74667 -3.35067,-3.38667 -1.62533,-4.94667 0.36266,-0.45333 0.70533,-0.88 1.056,-1.33333 0.412,-0.53334 1.02666,-1.38667 1.21333,-2.04 0.64267,-2.28 0.036,-4.29334 -0.68533,-6.50667 -0.89734,-2.74667 -1.73734,-5.52 -2.736,-8.24 -4.47734,-12.14667 -13.14667,-22.49333 -22.844,-30.85333 -9.97867,-8.61333 -22.05867,-16.22667 -35.24934,-18.26667 -6.77866,-1.04 -13.63866,-0.61333 -20.452,-0.30666 -5.26666,0.24 -11.18666,0.0533 -16.03199,2.42666 -0.86934,0.42667 -0.108,1.73334 0.75866,1.30667 v 0" style="fill:#577c69;fill-opacity:1;fill-rule:nonzero;stroke:none;stroke-width:0.133333"/><path id="path296" d="m 217.74533,893.22674 c 4.95066,-0.22666 9.85333,-0.94666 14.78666,-1.37333 4.896,-0.42667 9.76267,-0.0533 14.63734,0.44 10.28133,1.06667 19.73066,3.88 28.908,8.61333 7.42133,3.81334 14.52,8.25334 20.59866,14.01333 6.98534,6.62667 11.72134,15.06667 15.22,23.94667 1.544,3.92 2.65334,7.96 3.89467,11.97333 0.528,1.70667 1.016,3.42667 1.23333,5.2 0.24534,2.02667 -1.11466,2.25334 -2.57333,2.6 -3.80933,0.88 -3.72933,5.64 -0.848,7.77334 2.81333,2.08 6.332,0.21333 8.12133,-2.29334 2.48534,-3.49333 -0.544,-6.49333 -3.77866,-7.62666 -0.91734,-0.33334 -1.308,1.12 -0.4,1.44 2.58533,0.92 4.5,2.72 2.88133,5.42666 -1.09467,1.82667 -3.70933,3.13334 -5.69333,2.04 -1.31467,-0.73333 -2.596,-3.84 -1.04534,-4.90666 0.688,-0.46667 1.78267,-0.54667 2.58,-0.73334 1.224,-0.30666 2.17467,-1.06666 2.25467,-2.4 0.14,-2.36 -0.60667,-4.69333 -1.28267,-6.92 -1.10266,-3.64 -2.156,-7.26666 -3.46266,-10.84 -2.696,-7.37333 -6.364,-14.38666 -11.25734,-20.53333 -8.528,-10.72 -21.548,-18.32 -34.08266,-23.41333 -7.51734,-3.05333 -15.648,-4.34667 -23.68267,-5.09333 -9.15867,-0.85334 -17.896,0.76 -27.00933,1.16 -0.96534,0.04 -0.96934,1.54666 0,1.50666 v 0" style="fill:#577c69;fill-opacity:1;fill-rule:nonzero;stroke:none;stroke-width:0.133333"/><path id="path297" d="m 177.404,893.68008 c -5.37467,-1.73334 -10.78,-3.70667 -16.42534,-4.33334 -6.51466,-0.73333 -13.19066,-0.13333 -19.69066,0.52 -12.6896,1.26667 -25.3296,4.08 -37.14067,8.93334 -17.821332,7.33333 -37.034798,20.51999 -42.576532,39.99999 0.367734,-0.16 0.736,-0.30666 1.103734,-0.45333 -6.4928,-4.05333 -13.563067,5.8 -6.412533,8.74667 6.921333,2.84 9.973466,-7.06667 3.801066,-10.06667 -0.868266,-0.41333 -1.6308,0.88 -0.758933,1.30667 3.605733,1.74666 3.716133,8.49333 -1.266667,7.78666 -6.197866,-0.89333 -1.978666,-10.13333 3.878667,-6.48 0.416666,0.26667 0.974,0.0133 1.1036,-0.44 5.599066,-19.68 25.393332,-32.50666 43.376668,-39.69333 11.11146,-4.44 23.02813,-6.85333 34.8916,-8.13333 5.73733,-0.61333 11.61866,-1.06667 17.388,-0.74667 6.316,0.34667 12.36533,2.57334 18.328,4.50667 0.92533,0.29333 1.31866,-1.16 0.4,-1.45333 v 0" style="fill:#577c69;fill-opacity:1;fill-rule:nonzero;stroke:none;stroke-width:0.133333"/><path id="path298" d="m 186.84666,896.02674 c -8.33333,3.18667 -12.272,13.56 -14.73066,21.4 -3.98534,12.69333 -5.23067,26.38667 -5.544,39.62667 0.31733,-0.24 0.63466,-0.48 0.952,-0.72 -4.076,-1.36 -6.45467,3.32 -5.48134,6.77333 0.87734,3.10667 5.884,4.29333 8.23334,2.29333 3.70133,-3.16 -1.35867,-14.21333 -4.692,-9.4 -0.55334,0.78667 0.74933,1.54667 1.29733,0.74667 1.66933,-2.4 3.24,4.86667 3.064,6.02667 -0.348,2.29333 -2.41867,2.29333 -4.23867,1.76 -3.996,-1.16 -2.552,-8.08 1.41734,-6.76 0.476,0.16 0.94,-0.25334 0.952,-0.72 0.29466,-12.50667 1.68133,-24.92 4.85733,-37.04 2.04533,-7.81333 6.04133,-19.38667 14.312,-22.54667 0.896,-0.33333 0.508,-1.78666 -0.39867,-1.44 v 0" style="fill:#577c69;fill-opacity:1;fill-rule:nonzero;stroke:none;stroke-width:0.133333"/><path id="path299" d="m 222.79466,893.24008 c 1.76933,-1.94667 4.65467,-2.16 7.10667,-2.54667 3.47466,-0.54667 6.92533,-1.12 10.43333,-1.44 6.89867,-0.62667 13.69733,-0.10667 20.512,1.04 12.48133,2.08 24.40133,6.42667 35.45333,12.56 20.20534,11.2 39.06,28.93333 44.86267,52 0.17466,-0.30667 0.34933,-0.61334 0.524,-0.92 -7.168,1.08 -6.292,12.30666 1.308,10.90666 9.37733,-1.72 2.80133,-14.50666 -2.76267,-10.45333 -0.77467,0.57333 -0.0267,1.88 0.75867,1.30667 3.536,-2.57334 8.77866,5.58666 1.604,7.69333 -5.352,1.57333 -5.94934,-7.18667 -0.508,-8.01333 0.412,-0.0533 0.616,-0.56 0.52533,-0.92 -6.11733,-24.30667 -26.224,-42.42667 -47.54666,-54 -11.592,-6.28 -24.23067,-10.22667 -37.25067,-12.16 -7.072,-1.05333 -14.11467,-1 -21.20533,-0.16 -2.92267,0.34667 -5.81734,0.89333 -8.72134,1.37333 -2.268,0.36 -4.56533,0.92 -6.15733,2.68 -0.64933,0.70667 0.41067,1.77334 1.064,1.05334 v 0" style="fill:#577c69;fill-opacity:1;fill-rule:nonzero;stroke:none;stroke-width:0.133333"/><path id="path1460" d="m 196.50266,977.88007 c 0,-3.76 0,-7.52 0,-11.28 0,-3.86666 -6.012,-3.86666 -6.012,0 0,3.76 0,7.52 0,11.28 0,3.88 6.012,3.88 6.012,0" style="fill:#534741;fill-opacity:1;fill-rule:nonzero;stroke:none;stroke-width:0.133333"/><path id="path284" d="m 189.49733,896.69341 c -6.25067,2.61333 -7.29467,12.26667 -8.10533,18.02666 -1.43734,10.2 -1.70134,20.56 -0.74534,30.81334 0.27334,2.92 1.10267,5.70666 -0.14933,8.48 -0.71067,1.58666 -2.20667,2.4 -2.60533,4.17333 -0.54,2.4 2.748,3.89333 4.62266,3.24 3.856,-1.36 4.58134,-8.94667 -0.57333,-8.52 -0.95867,0.08 -0.96667,1.58667 0,1.50667 3.236,-0.26667 2.25467,3.41333 0.90267,4.98666 -1.86267,2.16 -3.95067,-0.94666 -2.35734,-2.89333 0.71467,-0.86667 1.31334,-1.6 1.72134,-2.66667 1.14933,-3 0.116,-6.44 -0.17334,-9.53333 -0.424,-4.56 -0.536,-9.14667 -0.448,-13.72 0.11334,-5.92 0.672,-11.94667 1.604,-17.78666 0.72,-4.53334 1.83067,-12.61334 6.70667,-14.65334 0.88,-0.36 0.49467,-1.82666 -0.4,-1.45333 v 0" style="fill:#577c69;fill-opacity:1;fill-rule:nonzero;stroke:none;stroke-width:0.133333"/><path id="path285" d="m 187.804,897.73341 c 4.27733,1.81333 5.36266,6.70667 6.244,10.81333 1.15733,5.4 2.028,10.81333 2.59866,16.29333 0.60134,5.78667 1.076,11.6 1.488,17.41334 0.20667,2.90666 0.31334,5.81333 0.32667,8.73333 0.0107,2.42667 -0.39733,1.36 -1.50533,2.94667 -2.116,3.04 0.088,8.88 4.34666,6.52 4.432,-2.46667 2.064,-9.48 -3.024,-7.62667 -0.904,0.33333 -0.51333,1.78667 0.39867,1.45333 4.632,-1.69333 4.55466,5.88 0.20533,5.08 -2.37066,-0.44 -1.41066,-4.8 0.488,-5.16 0.33067,-0.0667 0.544,-0.41333 0.552,-0.72 0.284,-11.61333 -0.984,-23.53333 -2.53333,-35.02666 -0.644,-4.77334 -1.524,-9.69333 -2.9,-14.32 -0.96533,-3.25333 -2.696,-6.33333 -5.92667,-7.69333 -0.88133,-0.37334 -1.648,0.92 -0.75866,1.29333 v 0" style="fill:#577c69;fill-opacity:1;fill-rule:nonzero;stroke:none;stroke-width:0.133333"/><path id="path286" d="m 188.75866,897.80008 c 5.13867,-0.76 10.01067,4.77333 13.48267,7.93333 4.03866,3.66667 7.26133,8.12 9.78266,12.94666 5.732,10.96 5.63067,23.6 5.61867,35.65334 0.24933,-0.25334 0.5,-0.50667 0.75067,-0.74667 -6.39334,-0.24 -6.27334,10.61333 -0.56534,8.94667 4.71334,-1.37334 4.27467,-10.89334 -0.52,-8.30667 -0.85333,0.45333 -0.0947,1.74667 0.75867,1.29333 1.908,-1.02666 1.792,1.82667 1.66533,2.72 -0.20666,1.46667 -1.132,2.70667 -2.67466,2.88 -3.38,0.38667 -2.448,-6.17333 1.336,-6.04 0.41066,0.0133 0.75066,-0.34666 0.752,-0.74666 0.0133,-13.24 -0.25867,-26.36 -6.804,-38.24 -2.868,-5.2 -6.88,-9.70667 -11.42134,-13.50667 -3.63999,-3.04 -7.40666,-7 -12.55999,-6.22666 -0.956,0.13333 -0.548,1.58666 0.39866,1.44 v 0" style="fill:#577c69;fill-opacity:1;fill-rule:nonzero;stroke:none;stroke-width:0.133333"/><path id="path287" d="m 190.63733,897.74674 c 10.74533,-2.97333 21.70933,6.29334 29.012,13 9.144,8.41333 15.972,17.77333 18.31066,30.21333 0.63734,3.38667 0.892,6.84 1.04667,10.26667 0.12267,2.73333 0.0653,4.21333 -1.47467,6.38667 -1.952,2.76 -4.784,6.88 -0.24266,8.81333 2.44666,1.04 4.12933,-1.37333 4.75333,-3.38667 0.94667,-3.06666 -0.14133,-6.65333 -2.91067,-8.30666 -0.83466,-0.49334 -1.58933,0.8 -0.75866,1.29333 2.15066,1.29333 2.69333,3.69333 2.348,6.04 -0.13734,0.93333 -0.52667,1.81333 -1.13467,2.53333 -1.996,2.33334 -3.49733,-2 -2.45467,-3.81333 0.82534,-1.42667 2.16934,-2.58667 2.964,-4.01333 0.73734,-1.32 0.48667,-3 0.45067,-4.45334 -0.26267,-10.58666 -2.39333,-20.98666 -8.324,-29.90666 -4.77733,-7.18667 -11.76933,-13.48 -18.59067,-18.66667 -6.45866,-4.90666 -15.02799,-9.76 -23.39466,-7.44 -0.93333,0.25334 -0.536,1.70667 0.4,1.44 v 0" style="fill:#577c69;fill-opacity:1;fill-rule:nonzero;stroke:none;stroke-width:0.133333"/><path id="path288" d="m 192.48133,897.89341 c 3.90267,-4.09333 11.096,-1.77333 15.76933,-0.42667 6.032,1.73334 11.82533,4.17334 17.032,7.69334 11.26533,7.64 18.76267,21.51999 23.164,34.05333 0.98267,2.8 1.75467,5.66666 2.41467,8.56 0.70666,3.08 1.728,6.2 1.91466,9.37333 0.18534,3.13333 -5.14666,7.2 -0.576,9.81333 2.66134,1.53334 5.168,-1.65333 5.944,-3.74666 1.38267,-3.73334 -2.83066,-5.74667 -5.60533,-6.69334 -0.91867,-0.32 -1.31067,1.13334 -0.39867,1.44 2.896,1 5.92534,2.58667 3.94667,6.21334 -1.66667,3.05333 -5.13733,0.50666 -3.684,-2.42667 0.46,-0.92 1.144,-1.69333 1.57733,-2.64 1.47734,-3.24 -0.98666,-8.53333 -1.66933,-11.73333 -2.356,-11.06667 -7.368,-21.64 -13.93067,-30.81334 -6.15333,-8.59999 -13.80266,-14.67999 -23.656,-18.51999 -6.116,-2.37334 -17.75333,-7.02667 -23.30533,-1.21334 -0.668,0.70667 0.39334,1.76 1.06267,1.06667 v 0" style="fill:#577c69;fill-opacity:1;fill-rule:nonzero;stroke:none;stroke-width:0.133333"/><path id="path289" d="m 187.444,896.73341 c -10.756,0.0667 -18.836,11.50667 -23.756,19.76 -6.49467,10.90666 -10.40267,25.16 -9.572,37.84 0.37733,-0.22667 0.75466,-0.44 1.13066,-0.65334 -5.06533,-2.32 -12.07333,3.49334 -6.67733,7.81334 5.07733,4.06666 11.51733,-3.70667 5.95867,-7.66667 -0.79067,-0.57333 -1.54,0.73333 -0.75867,1.29333 4.232,3.01334 -1.052,7.77334 -4.748,4.82667 -1.62267,-1.30667 -0.74,-3.25333 0.4,-4.4 1.35333,-1.37333 3.44133,-1.32 5.06667,-0.57333 0.47466,0.22666 1.172,-0.0267 1.13066,-0.64 -0.78266,-11.94667 2.81867,-25.2 8.55467,-35.65334 4.496,-8.19999 12.74133,-20.37333 23.27067,-20.43999 0.968,0 0.96933,-1.50667 0,-1.50667 v 0" style="fill:#577c69;fill-opacity:1;fill-rule:nonzero;stroke:none;stroke-width:0.133333"/><path id="path290" d="m 186.696,896.86674 c -5.38934,-2.6 -11.71334,0 -16.78267,2.21334 -6.87733,3.01333 -12.88133,7.18666 -18.164,12.50666 -10.96133,11.05333 -19.46493,27.13333 -18.592,43.01333 0.428,-0.18666 0.85467,-0.36 1.28267,-0.53333 -3.43947,-4.2 -9.46134,1.64 -7.4452,5.90667 1.07133,2.26666 4.8276,2.93333 6.89986,1.90666 3.95334,-1.96 2.37067,-5.58666 0.95334,-8.70666 -0.4,-0.88 -1.69494,-0.12 -1.29734,0.76 0.79734,1.76 2.57467,4.56 0.22534,6.33333 -1.63587,1.24 -4.35934,0.46667 -5.48334,-1.05333 -1.87866,-2.54667 2.85627,-6.81334 5.08467,-4.09334 0.416,0.50667 1.31733,0.0933 1.28267,-0.52 -0.82534,-15.02666 6.90266,-29.50666 16.70133,-40.41333 4.66,-5.18666 10.25333,-9.45333 16.512,-12.50666 5.056,-2.48 12.47467,-6.21334 18.064,-3.50667 0.868,0.41333 1.63067,-0.88 0.75867,-1.30667 v 0" style="fill:#577c69;fill-opacity:1;fill-rule:nonzero;stroke:none;stroke-width:0.133333"/><path id="path291" d="m 184.24133,896.10674 c -6.964,-2.84 -15.09733,0.8 -21.90933,2.49334 -8.808,2.17333 -16.776,6.32 -23.99334,11.78666 -14.42466,10.90667 -23.2272,25.76 -25.60586,43.72 0.31666,-0.24 0.63386,-0.48 0.95106,-0.73333 -2.92186,-1.02667 -6.0084,0.0933 -6.80266,3.26666 -0.7432,2.98667 2.54693,4.98667 5.09906,4.94667 5.32027,-0.0933 6.7708,-9.62667 0.75614,-10.04 -0.9676,-0.0667 -0.96134,1.44 0,1.50667 3.84853,0.26666 2.574,5.14666 0.34426,6.65333 -1.76133,1.18667 -4.5656,-0.25333 -4.76666,-2.32 -0.26454,-2.73333 3.14746,-3.2 4.9704,-2.56 0.5104,0.18667 0.89213,-0.28 0.95106,-0.72 1.114,-8.41333 3.68387,-16.49333 7.85774,-23.89333 4.34226,-7.69334 10.86413,-13.88 17.8548,-19.17333 6.504,-4.92 13.848,-8.61334 21.72266,-10.73334 6.71867,-1.81333 15.33867,-5.53333 22.17067,-2.74666 0.89867,0.37333 1.28533,-1.09334 0.4,-1.45334 v 0" style="fill:#577c69;fill-opacity:1;fill-rule:nonzero;stroke:none;stroke-width:0.133333"/><path id="path292" d="m 181.40533,895.89341 c -6.308,-3.49333 -14.54667,-2.50667 -21.46133,-2.01333 -8.464,0.61333 -16.82667,2.42666 -24.84267,5.17333 -14.11387,4.85333 -25.0784,15.72 -32.58307,28.4 -3.305729,5.57333 -5.834396,11.66666 -6.728129,18.10666 -0.192267,1.38667 -0.344267,3.04 -1.649467,3.8 -1.059466,0.62667 -2.439066,0.82667 -3.590666,1.24 -1.522934,0.54667 -2.6104,1.48 -3.037467,3.05334 -1.0964,4.04 3.1568,7.24 6.753067,6.34666 1.902666,-0.46666 2.978666,-2.29333 3.438533,-4.04 0.766133,-2.92 -1.25,-4.98666 -2.938533,-7.04 -0.6156,-0.74666 -1.6724,0.32 -1.062534,1.06667 1.208934,1.46667 2.501067,2.68 2.640134,4.73333 0.1464,2.16 -1.483334,3.81334 -3.4968,4.01334 -3.428134,0.33333 -5.381867,-4.89334 -2.236,-6.54667 2.901066,-1.52 5.4464,-1.04 6.360933,-4.70667 0.466667,-1.88 0.5016,-3.82666 0.9948,-5.69333 0.7328,-2.78667 1.8032,-5.48 2.987469,-8.09333 2.56986,-5.68 6.09906,-10.93334 10.07813,-15.72 8.10733,-9.73333 18.08907,-15.78667 30.19093,-19.26667 6.488,-1.86666 13.192,-2.92 19.91734,-3.4 6.24133,-0.45333 13.85066,-1.24 19.50666,1.89334 0.848,0.46666 1.60667,-0.82667 0.75867,-1.30667 v 0" style="fill:#577c69;fill-opacity:1;fill-rule:nonzero;stroke:none;stroke-width:0.133333"/><path id="path293" d="m 179.388,895.10674 c -3.08934,-4.49333 -9.664,-4.61333 -14.58,-4.50666 -9.01867,0.17333 -18.07067,1.76 -26.76667,4.08 -16.72,4.46666 -34.01893,11.81333 -46.454399,24.11999 -5.5396,5.48 -10.040533,12.01334 -13.0416,19.2 -0.7792,1.86667 -1.365066,3.81334 -1.870266,5.76 -0.612534,2.37334 -0.372934,1.93334 -2.560534,2.24 -2.377066,0.34667 -4.136399,2.52 -4.405733,4.89334 -0.59,5.18666 4.8948,9.09333 9.136533,5.06666 2.007334,-1.90666 2.916667,-4.10666 2.25,-6.84 -0.669333,-2.74666 -4.085466,-3.53333 -6.322933,-4.33333 -0.915067,-0.32 -1.305733,1.13333 -0.399467,1.45333 1.803067,0.64 3.780667,1.06667 4.997867,2.70667 2.024,2.72 -1.0948,6.05333 -3.45,6.97333 -3.004133,1.17334 -4.768133,-1.82666 -4.793733,-4.28 -0.03587,-3.41333 2.928133,-4.30666 5.674533,-3.98666 0.3052,0.04 0.6724,-0.25334 0.7244,-0.54667 1.7928,-10.2 7.336533,-19.06667 14.386533,-26.49333 7.412,-7.8 16.476529,-12.84 26.199999,-17.17333 10.08693,-4.50667 20.65147,-7.86667 31.53547,-9.78667 5.22,-0.92 10.552,-1.46667 15.85333,-1.57333 4.09333,-0.08 10.01467,0.04 12.58933,3.78666 0.544,0.8 1.848,0.04 1.29734,-0.76 v 0" style="fill:#577c69;fill-opacity:1;fill-rule:nonzero;stroke:none;stroke-width:0.133333"/><path id="path294" d="m 191.98666,899.14674 c 4.11067,-2.04 8.21467,-4.01333 12.70133,-5.06666 5.144,-1.2 10.51867,-0.33334 15.568,0.89333 9.104,2.21333 16.916,7.45333 23.79467,13.64 14.028,12.62666 24.19867,30.08 27.76267,48.64 0.24133,-0.32 0.484,-0.62667 0.72533,-0.94667 -1.864,0.21333 -3.90933,1.13333 -3.988,3.32 -0.06,1.72 0.932,3.88 2.912,3.98667 5.55867,0.29333 5.27733,-8.12 0.009,-8.44 -0.968,-0.0533 -0.96266,1.45333 0,1.50666 2.968,0.18667 3.716,4.37334 0.836,5.4 -2.43733,0.86667 -3.316,-3.86666 0.23067,-4.26666 0.508,-0.0667 0.824,-0.44 0.724,-0.96 -3.836,-19.97334 -15.17467,-38.24 -30.552,-51.41333 -6.99867,-6 -15.01333,-10.37334 -24.03733,-12.37334 -4.41734,-0.97333 -8.88,-1.33333 -13.36267,-0.62666 -4.972,0.77333 -9.624,3.2 -14.08266,5.4 -0.868,0.44 -0.10667,1.73333 0.75866,1.30666 v 0" style="fill:#577c69;fill-opacity:1;fill-rule:nonzero;stroke:none;stroke-width:0.133333"/><path id="path295" d="m 196.40666,896.01341 c 5.91733,-2.92 13.95067,-2.2 20.40133,-2.48 9.252,-0.41333 18.50134,0.22667 27.096,3.93333 14.328,6.18667 27.41867,17.12 36.62,29.64 4.384,5.96 7.76934,12.64 9.808,19.76 0.80667,2.81333 3.14134,6.6 1.68934,9.50667 -0.88267,1.77333 -3.364,3.38666 -3.46267,5.50666 -0.208,4.44 6.048,5.84 8.37467,2.32 3.16266,-4.8 -1.48,-7.77333 -5.70934,-8.81333 -0.94133,-0.22667 -1.34133,1.21333 -0.4,1.45333 1.192,0.29334 2.31467,0.61334 3.432,1.14667 3.52267,1.65333 2.376,6.37333 -1.25333,6.78667 -2.80933,-1.74667 -3.35067,-3.38667 -1.62533,-4.94667 0.36266,-0.45333 0.70533,-0.88 1.056,-1.33333 0.412,-0.53334 1.02666,-1.38667 1.21333,-2.04 0.64267,-2.28 0.036,-4.29334 -0.68533,-6.50667 -0.89734,-2.74667 -1.73734,-5.52 -2.736,-8.24 -4.47734,-12.14667 -13.14667,-22.49333 -22.844,-30.85333 -9.97867,-8.61333 -22.05867,-16.22667 -35.24934,-18.26667 -6.77866,-1.04 -13.63866,-0.61333 -20.452,-0.30666 -5.26666,0.24 -11.18666,0.0533 -16.03199,2.42666 -0.86934,0.42667 -0.108,1.73334 0.75866,1.30667 v 0" style="fill:#577c69;fill-opacity:1;fill-rule:nonzero;stroke:none;stroke-width:0.133333"/><path id="path296" d="m 217.74533,893.22674 c 4.95066,-0.22666 9.85333,-0.94666 14.78666,-1.37333 4.896,-0.42667 9.76267,-0.0533 14.63734,0.44 10.28133,1.06667 19.73066,3.88 28.908,8.61333 7.42133,3.81334 14.52,8.25334 20.59866,14.01333 6.98534,6.62667 11.72134,15.06667 15.22,23.94667 1.544,3.92 2.65334,7.96 3.89467,11.97333 0.528,1.70667 1.016,3.42667 1.23333,5.2 0.24534,2.02667 -1.11466,2.25334 -2.57333,2.6 -3.80933,0.88 -3.72933,5.64 -0.848,7.77334 2.81333,2.08 6.332,0.21333 8.12133,-2.29334 2.48534,-3.49333 -0.544,-6.49333 -3.77866,-7.62666 -0.91734,-0.33334 -1.308,1.12 -0.4,1.44 2.58533,0.92 4.5,2.72 2.88133,5.42666 -1.09467,1.82667 -3.70933,3.13334 -5.69333,2.04 -1.31467,-0.73333 -2.596,-3.84 -1.04534,-4.90666 0.688,-0.46667 1.78267,-0.54667 2.58,-0.73334 1.224,-0.30666 2.17467,-1.06666 2.25467,-2.4 0.14,-2.36 -0.60667,-4.69333 -1.28267,-6.92 -1.10266,-3.64 -2.156,-7.26666 -3.46266,-10.84 -2.696,-7.37333 -6.364,-14.38666 -11.25734,-20.53333 -8.528,-10.72 -21.548,-18.32 -34.08266,-23.41333 -7.51734,-3.05333 -15.648,-4.34667 -23.68267,-5.09333 -9.15867,-0.85334 -17.896,0.76 -27.00933,1.16 -0.96534,0.04 -0.96934,1.54666 0,1.50666 v 0" style="fill:#577c69;fill-opacity:1;fill-rule:nonzero;stroke:none;stroke-width:0.133333"/><path id="path297" d="m 177.404,893.68008 c -5.37467,-1.73334 -10.78,-3.70667 -16.42534,-4.33334 -6.51466,-0.73333 -13.19066,-0.13333 -19.69066,0.52 -12.6896,1.26667 -25.3296,4.08 -37.14067,8.93334 -17.821332,7.33333 -37.034798,20.51999 -42.576532,39.99999 0.367734,-0.16 0.736,-0.30666 1.103734,-0.45333 -6.4928,-4.05333 -13.563067,5.8 -6.412533,8.74667 6.921333,2.84 9.973466,-7.06667 3.801066,-10.06667 -0.868266,-0.41333 -1.6308,0.88 -0.758933,1.30667 3.605733,1.74666 3.716133,8.49333 -1.266667,7.78666 -6.197866,-0.89333 -1.978666,-10.13333 3.878667,-6.48 0.416666,0.26667 0.974,0.0133 1.1036,-0.44 5.599066,-19.68 25.393332,-32.50666 43.376668,-39.69333 11.11146,-4.44 23.02813,-6.85333 34.8916,-8.13333 5.73733,-0.61333 11.61866,-1.06667 17.388,-0.74667 6.316,0.34667 12.36533,2.57334 18.328,4.50667 0.92533,0.29333 1.31866,-1.16 0.4,-1.45333 v 0" style="fill:#577c69;fill-opacity:1;fill-rule:nonzero;stroke:none;stroke-width:0.133333"/><path id="path298" d="m 186.84666,896.02674 c -8.33333,3.18667 -12.272,13.56 -14.73066,21.4 -3.98534,12.69333 -5.23067,26.38667 -5.544,39.62667 0.31733,-0.24 0.63466,-0.48 0.952,-0.72 -4.076,-1.36 -6.45467,3.32 -5.48134,6.77333 0.87734,3.10667 5.884,4.29333 8.23334,2.29333 3.70133,-3.16 -1.35867,-14.21333 -4.692,-9.4 -0.55334,0.78667 0.74933,1.54667 1.29733,0.74667 1.66933,-2.4 3.24,4.86667 3.064,6.02667 -0.348,2.29333 -2.41867,2.29333 -4.23867,1.76 -3.996,-1.16 -2.552,-8.08 1.41734,-6.76 0.476,0.16 0.94,-0.25334 0.952,-0.72 0.29466,-12.50667 1.68133,-24.92 4.85733,-37.04 2.04533,-7.81333 6.04133,-19.38667 14.312,-22.54667 0.896,-0.33333 0.508,-1.78666 -0.39867,-1.44 v 0" style="fill:#577c69;fill-opacity:1;fill-rule:nonzero;stroke:none;stroke-width:0.133333"/><path id="path299" d="m 222.79466,893.24008 c 1.76933,-1.94667 4.65467,-2.16 7.10667,-2.54667 3.47466,-0.54667 6.92533,-1.12 10.43333,-1.44 6.89867,-0.62667 13.69733,-0.10667 20.512,1.04 12.48133,2.08 24.40133,6.42667 35.45333,12.56 20.20534,11.2 39.06,28.93333 44.86267,52 0.17466,-0.30667 0.34933,-0.61334 0.524,-0.92 -7.168,1.08 -6.292,12.30666 1.308,10.90666 9.37733,-1.72 2.80133,-14.50666 -2.76267,-10.45333 -0.77467,0.57333 -0.0267,1.88 0.75867,1.30667 3.536,-2.57334 8.77866,5.58666 1.604,7.69333 -5.352,1.57333 -5.94934,-7.18667 -0.508,-8.01333 0.412,-0.0533 0.616,-0.56 0.52533,-0.92 -6.11733,-24.30667 -26.224,-42.42667 -47.54666,-54 -11.592,-6.28 -24.23067,-10.22667 -37.25067,-12.16 -7.072,-1.05333 -14.11467,-1 -21.20533,-0.16 -2.92267,0.34667 -5.81734,0.89333 -8.72134,1.37333 -2.268,0.36 -4.56533,0.92 -6.15733,2.68 -0.64933,0.70667 0.41067,1.77334 1.064,1.05334 v 0" style="fill:#577c69;fill-opacity:1;fill-rule:nonzero;stroke:none;stroke-width:0.133333"/><path id="path1460" d="m 196.50266,977.88007 c 0,-3.76 0,-7.52 0,-11.28 0,-3.86666 -6.012,-3.86666 -6.012,0 0,3.76 0,7.52 0,11.28 0,3.88 6.012,3.88 6.012,0" style="fill:#534741;fill-opacity:1;fill-rule:nonzero;stroke:none;stroke-width:0.133333"/></g></svg>