<svg version="1.1" id="svg1" width="2000" height="2579.9468" viewBox="1095.1236875971863 605.053113181659 3.114660227715831 9.923634318353493" sodipodi:docname="styletrees.svg" inkscape:version="1.4.2 (f4327f4, 2025-05-13)" xmlns:inkscape="http://www.inkscape.org/namespaces/inkscape" xmlns:sodipodi="http://sodipodi.sourceforge.net/DTD/sodipodi-0.dtd" xmlns="http://www.w3.org/2000/svg" xmlns:svg="http://www.w3.org/2000/svg"><defs id="defs1"/><g><path id="path966" d="m 1097.548,607.17342 c 0.01,-0.21334 0.01,-0.41334 -0.023,-0.61334 -0.1227,-0.84 -1.2813,-0.53333 -1.356,0.17334 -0.2573,2.45333 0.664,5.09333 0.6893,7.57333 0.01,0.89333 1.3894,0.89333 1.38,0 -0.025,-2.48 -0.9453,-5.12 -0.688,-7.57333 -0.452,0.0667 -0.904,0.13333 -1.356,0.18666 0,0.0267 -0.024,0.18667 -0.027,0.25334 -0.031,0.89333 1.3493,0.89333 1.38,0 v 0" style="fill:#577c69;fill-opacity:1;fill-rule:nonzero;stroke:none;stroke-width:0.133333"/><path id="path966" d="m 1097.548,607.17342 c 0.01,-0.21334 0.01,-0.41334 -0.023,-0.61334 -0.1227,-0.84 -1.2813,-0.53333 -1.356,0.17334 -0.2573,2.45333 0.664,5.09333 0.6893,7.57333 0.01,0.89333 1.3894,0.89333 1.38,0 -0.025,-2.48 -0.9453,-5.12 -0.688,-7.57333 -0.452,0.0667 -0.904,0.13333 -1.356,0.18666 0,0.0267 -0.024,0.18667 -0.027,0.25334 -0.031,0.89333 1.3493,0.89333 1.38,0 v 0" style="fill:#577c69;fill-opacity:1;fill-rule:nonzero;stroke:none;stroke-width:0.133333"/></g></svg>