<svg version="1.1" id="svg1" width="2000" height="2579.9468" viewBox="1128.5198786241156 796.4878335886508 3.772500580972519 15.675573911339939" sodipodi:docname="styletrees.svg" inkscape:version="1.4.2 (f4327f4, 2025-05-13)" xmlns:inkscape="http://www.inkscape.org/namespaces/inkscape" xmlns:sodipodi="http://sodipodi.sourceforge.net/DTD/sodipodi-0.dtd" xmlns="http://www.w3.org/2000/svg" xmlns:svg="http://www.w3.org/2000/svg"><defs id="defs1"/><g><path id="path771" d="m 1130.5453,797.80008 c -2.452,3.68 0.248,9.69333 0.3667,13.69333 0.025,0.89333 1.4066,0.89333 1.38,0 -0.055,-1.82667 -0.4254,-3.65333 -0.7187,-5.45333 -0.3547,-2.18667 -1.1733,-5.53334 0.164,-7.54667 0.496,-0.73333 -0.7013,-1.42667 -1.192,-0.69333 v 0" style="fill:#577c69;fill-opacity:1;fill-rule:nonzero;stroke:none;stroke-width:0.133333"/><path id="path771" d="m 1130.5453,797.80008 c -2.452,3.68 0.248,9.69333 0.3667,13.69333 0.025,0.89333 1.4066,0.89333 1.38,0 -0.055,-1.82667 -0.4254,-3.65333 -0.7187,-5.45333 -0.3547,-2.18667 -1.1733,-5.53334 0.164,-7.54667 0.496,-0.73333 -0.7013,-1.42667 -1.192,-0.69333 v 0" style="fill:#577c69;fill-opacity:1;fill-rule:nonzero;stroke:none;stroke-width:0.133333"/></g></svg>