<svg version="1.1" id="svg1" width="2000" height="2579.9468" viewBox="1195.691811972991 800.8522074561093 3.426904792978803 12.457870043921957" sodipodi:docname="styletrees.svg" inkscape:version="1.4.2 (f4327f4, 2025-05-13)" xmlns:inkscape="http://www.inkscape.org/namespaces/inkscape" xmlns:sodipodi="http://sodipodi.sourceforge.net/DTD/sodipodi-0.dtd" xmlns="http://www.w3.org/2000/svg" xmlns:svg="http://www.w3.org/2000/svg"><defs id="defs1"/><g><path id="path743" d="m 1196.9186,803.01341 c 1.1334,0.97333 0.8334,3.34667 0.7907,4.69333 -0.051,1.64 -0.2773,3.29334 -0.3027,4.93334 -0.012,0.89333 1.368,0.89333 1.3814,0 0.029,-1.97334 0.2946,-3.93334 0.3253,-5.90667 0.023,-1.50667 0.029,-3.62667 -1.2173,-4.70667 -0.6707,-0.57333 -1.652,0.4 -0.9774,0.98667 v 0" style="fill:#577c69;fill-opacity:1;fill-rule:nonzero;stroke:none;stroke-width:0.133333"/><path id="path743" d="m 1196.9186,803.01341 c 1.1334,0.97333 0.8334,3.34667 0.7907,4.69333 -0.051,1.64 -0.2773,3.29334 -0.3027,4.93334 -0.012,0.89333 1.368,0.89333 1.3814,0 0.029,-1.97334 0.2946,-3.93334 0.3253,-5.90667 0.023,-1.50667 0.029,-3.62667 -1.2173,-4.70667 -0.6707,-0.57333 -1.652,0.4 -0.9774,0.98667 v 0" style="fill:#577c69;fill-opacity:1;fill-rule:nonzero;stroke:none;stroke-width:0.133333"/></g></svg>