<svg version="1.1" id="svg1" width="2000" height="2579.9468" viewBox="674.4096607752059 986.0267700000004 213.90652813649103 84.5353724803856" sodipodi:docname="styletrees.svg" inkscape:version="1.4.2 (f4327f4, 2025-05-13)" xmlns:inkscape="http://www.inkscape.org/namespaces/inkscape" xmlns:sodipodi="http://sodipodi.sourceforge.net/DTD/sodipodi-0.dtd" xmlns="http://www.w3.org/2000/svg" xmlns:svg="http://www.w3.org/2000/svg"><defs id="defs1"/><g><path id="path360" d="m 682.95465,1011.9067 c 0.256,-0.32 0.53867,-0.6266 0.80533,-0.9333 -1.068,2.52 -1.456,5.1467 -1.73466,7.8533 -0.44,4.2667 -0.86134,8.52 -0.67867,12.8134 0.25333,5.92 1.76,11.8933 4.248,17.2666 2.256,4.88 5.68933,8.88 10.776,10.7867 4.796,1.8 10.84933,2.1067 15.876,1.3067 5.956,-0.9467 10.38133,-5.0534 14.27333,-9.3867 4.288,-4.7867 8.35067,-9.9067 10.92,-15.8267 2.93067,-6.76 3.39333,-14.8933 4.67867,-22.0933 0.66,-3.6933 1.32533,-7.3867 1.55466,-11.1333 0.26,-4.26669 -0.27333,-9.13336 0.80134,-13.28003 0.024,-0.0933 10e-4,-0.17333 -0.0347,-0.24 1.912,-0.13333 3.81733,-0.24 5.71733,-0.33333 0.0827,17.85336 2.388,35.87996 9.65067,52.31996 2.80667,6.36 6.82,12.6534 13.416,15.4934 6.55067,2.8266 14.43867,2.7733 21.36267,1.7466 12.88533,-1.8933 19.86266,-11.7866 23.38933,-23.5466 1.904,-6.3467 2.88667,-12.9867 3.80933,-19.5334 0.64534,-4.5733 0.688,-9.2266 0.70667,-13.8266 0.0147,-3.78669 0.63067,-8.08003 -0.35067,-11.76003 -0.10933,-0.41333 -0.75333,-0.24 -0.64266,0.17334 0.952,3.57333 0.328,7.89333 0.32666,11.58669 -0.003,4.1733 -0.12133,8.3333 -0.54533,12.4933 -0.62267,6.12 -1.78667,12.32 -3.288,18.28 -3.06267,12.1733 -9.54533,22.8 -22.63067,25.3333 -7.36266,1.4267 -15.72,1.0934 -22.656,-1.8933 -6.88266,-2.96 -10.66533,-10.8 -13.36666,-17.32 -6.47067,-15.64 -8.44134,-32.7733 -8.51467,-49.57333 1.456,-0.0667 2.91067,-0.13333 4.356,-0.18666 5.61867,-0.18667 11.25467,-0.29334 16.89733,-0.36 -0.005,0.0133 -0.0187,0.0133 -0.0227,0.0267 -0.75067,2.50667 -0.56667,5.44 -0.71867,8.05334 -0.2,3.44 -0.248,6.87995 -0.296,10.31995 -0.0933,6.6267 0.37067,13.12 1.52667,19.64 1.74533,9.8533 5.64133,19.4533 16.84,20.52 4.40133,0.4133 8.85066,-1.3333 11.64933,-4.7333 2.624,-3.1867 3.292,-7.76 3.80267,-11.7067 1.79733,-13.9067 2.64933,-27.7867 2.07333,-41.78662 -0.004,-0.08 -0.0453,-0.13333 -0.084,-0.17333 2.65067,0.04 5.3,0.0933 7.94533,0.16 10.544,0.22666 21.18667,0.89333 31.612,2.65333 -0.0533,0.04 -0.10666,0.08 -0.128,0.16 -1.21066,4.64 -0.69733,9.93332 -0.68533,14.67992 0.0133,5.0934 0.328,10.1734 1.13733,15.2 1.11067,6.9067 2.89867,15.3867 11.11867,16.0934 7.02,0.6 11.08933,-7.0667 13.26266,-12.5467 1.82,-4.6 3.04134,-9.5467 3.672,-14.4533 0.296,-2.32 0.39867,-4.6134 0.44267,-6.9467 0.0213,-1.12 0.27067,-2.4667 0.192,-3.67995 0.57333,0.24 1.14933,0.47995 1.72533,0.74665 0,0 -0.005,0 -0.005,0.013 0.116,7.4667 1.11333,14.56 0.25333,22.08 -1.17333,10.24 -5.06133,20.2667 -14.61733,25.32 -5.33866,2.8133 -12.744,0.88 -16.00133,-4.1067 -2.87067,-4.4 -3.72667,-10.6533 -4.54267,-15.7333 -0.96533,-6.0133 -1.26,-12.1333 -1.32533,-18.2133 -0.0667,-6.1067 -0.36933,-12.79999 0.68267,-18.82665 0.0733,-0.42667 -0.56934,-0.6 -0.64267,-0.18667 -1.14,6.53333 -0.76533,13.71992 -0.69333,20.33332 0.0707,6.52 0.61333,13.04 1.73866,19.4666 0.83334,4.7467 1.9,11.3334 5.32934,15.0667 2.9,3.1467 7.80533,4.72 12.04933,3.9867 9.61866,-1.6667 15.312,-11.6 17.476,-20.24 1.384,-5.5334 1.93866,-11.5067 1.72933,-17.2 -0.14,-3.8134 -0.672,-7.6267 -0.75733,-11.4534 0.656,0.3067 1.30533,0.6267 1.93733,0.9734 -0.052,0.053 -0.096,0.12 -0.1,0.2133 -0.41333,12.0133 -0.78933,24.04 -2.008,36 -0.652,6.4 -2.28267,12.7333 -6.76133,17.5467 -4.85067,5.2266 -10.78533,5.7333 -17.37867,4.4533 -13.29866,-2.56 -16.90266,-16.6267 -18.008,-28.36 -1.28933,-13.6933 1.808,-27.1733 1.98934,-40.79995 0.007,-0.42667 -0.66,-0.42667 -0.66667,0 -0.20533,15.41325 -3.70133,30.47995 -1.36,45.93325 0.93333,6.16 2.90533,12.3734 6.65733,17.4134 3.188,4.28 8.036,5.9733 13.12934,6.8 5.168,0.84 9.452,0.2933 13.71733,-2.84 4.56933,-3.3467 6.99066,-8.4134 8.31466,-13.7734 1.51867,-6.16 1.44534,-12.64 1.948,-18.9333 0.62267,-7.7733 0.82267,-15.5333 1.09067,-23.3333 3.26533,1.8666 6.016,4.3333 6.85867,7.9466 1.416,6.0534 -0.044,13.1734 -0.41334,19.32 -0.40533,6.7334 -0.99333,13.4534 -2.38933,20.0534 -1.288,6.0933 -3.48133,13.8266 -8.86,17.5733 -4.496,3.1333 -10.78266,3.2667 -16.03466,2.9067 -5.64267,-0.3734 -11.548,-1.7867 -16.528,-4.52 -5.85867,-3.2134 -10.768,-9.3067 -13.97734,-15.04 -4.45866,-7.96 -1.12533,-16.7067 -1.24266,-25.2134 -0.005,-0.3733 -0.564,-0.4533 -0.65467,-0.093 -1.396,5.7067 -3.09867,11.32 -5.08267,16.84 -1.97866,5.5067 -4.06533,11.08 -7.98933,15.5067 -6.89067,7.8 -18.052,9.72 -27.932,9.6533 -21.012,-0.1067 -35.28667,-19.9867 -36.22933,-39.6667 -0.0147,-0.32 -0.452,-0.4666 -0.62134,-0.16 -4.56266,8.16 -4.09733,18.0267 -9.56533,25.84 -5.53067,7.9067 -15.192,12.2 -24.31733,14.2534 -10.64133,2.3866 -20.87067,-0.6934 -28.93467,-7.9067 -3.91066,-3.4933 -6.92933,-7.84 -8.43733,-12.88 -1.06933,-3.5733 -1.22533,-7.4 -1.30667,-11.1467 0.0747,0.1734 0.124,0.3467 0.20667,0.52 0.184,0.3867 0.75867,0.053 0.57467,-0.3333 -0.36,-0.76 -0.62,-1.5333 -0.82934,-2.3333 -0.005,-0.2 -0.008,-0.4134 -0.0133,-0.6134 -0.004,-0.1466 -0.0933,-0.2266 -0.19733,-0.2666 -1.36134,-7 2.468,-15.1067 6.55333,-20.2934 z m 4.03067,-4.28 c -0.92267,6.4934 -1.124,13.5734 -0.74,20.08 0.36533,6.1867 1.616,13.1734 3.7,19.0134 3.52933,9.8933 14.976,12.3733 23.54533,7.6133 10.19067,-5.6533 15.12933,-18.16 17.12133,-28.9867 1.09467,-5.9466 1.376,-12.0266 1.496,-18.0533 0.068,-3.3867 0.12,-6.7067 0.5,-10.06666 0.20934,-1.85333 1.336,-5.6 -0.28933,-6.58667 0.30933,0.18667 0.56933,-0.17333 0.43733,-0.42666 3.688,-0.49334 7.39067,-0.85334 11.084,-1.12 -10e-4,0 -0.007,0 -0.008,0.0133 -0.61867,2.38667 -0.36933,4.89333 -0.57067,7.33333 -0.29866,3.65336 -0.216,7.25336 -0.75466,10.89336 -1.048,7.04 -2.528,14.0267 -3.66267,21.0667 -1.06267,6.6 -4.30533,12.24 -8.35733,17.44 -3.54133,4.5466 -7.424,9.1866 -12.328,12.3066 -4.94667,3.1467 -11.65067,2.8534 -17.23333,2 -6.38267,-0.9733 -10.63734,-4.2933 -13.84267,-9.8133 -3.09333,-5.3333 -4.47067,-11.7067 -5.00667,-17.7867 -0.28933,-3.3066 -0.056,-6.6 0.23467,-9.8933 0.34667,-3.9067 0.508,-7.9867 2.13067,-11.6267 0.012,-0.027 -0.003,-0.053 0.003,-0.08 0.016,-0.053 0.0187,-0.1066 0.005,-0.1733 -0.005,-0.013 -0.009,-0.027 -0.016,-0.04 -0.024,-0.067 -0.0653,-0.1067 -0.12667,-0.1467 -0.028,-0.013 -0.0547,-0.027 -0.0867,-0.04 -0.0253,0 -0.0373,-0.027 -0.0667,-0.027 -0.005,0 -0.007,0.013 -0.012,0.013 0.896,-1.0267 1.83866,-2 2.844,-2.9067 z m 16.38,-9.87996 c -1.42667,8.35996 -2.21067,18.09336 0.007,26.34666 0.756,2.8133 2.76934,9.44 6.46134,9.3733 4.15733,-0.067 2.656,-14.76 2.636,-16.8533 -0.0507,-5.2267 -0.264,-10.4667 -0.31067,-15.7067 -0.0173,-1.82663 0.64533,-4.49329 0.13467,-6.39996 2.436,-0.74667 4.90266,-1.4 7.39466,-1.97333 -0.12533,0.0667 -0.22533,0.18666 -0.18933,0.36 0.73333,3.52 0.424,7.58669 0.42533,11.18669 0.003,4.1866 -0.54133,8.36 -0.852,12.5333 -0.55333,7.44 -0.41333,16.2933 -5.6,22.24 -4.05866,4.6533 -8.98533,0.9867 -11.204,-3.2267 -1.94533,-3.6933 -2.50533,-8.2533 -2.95466,-12.32 -0.848,-7.7066 -0.65334,-16.0133 0.0453,-23.73329 0.532,-0.26667 1.064,-0.53334 1.59867,-0.77334 0.796,-0.37333 1.60133,-0.70666 2.408,-1.05333 z m 8.12133,1.85333 c -0.11333,3.92003 0.11733,7.86663 0.21333,11.78663 0.15867,6.4 0.99334,13.6667 -0.66,19.92 -1.00133,3.8 -3.79866,-0.24 -4.30933,-1.04 -0.536,-0.84 -0.944,-1.76 -1.352,-2.6533 -1.05333,-2.3333 -1.71333,-4.76 -2.15733,-7.28 -1.248,-7.04 -0.39467,-15.5467 0.80933,-22.55999 0.0213,-0.12 -0.024,-0.21334 -0.0893,-0.28 2.52266,-1.05334 5.09866,-1.96 7.70933,-2.78667 0.36133,1.45333 -0.12533,3.54667 -0.164,4.89333 z m -20.12933,35.30663 c 1.31866,7.8 7.73066,17.1467 16.776,14.56 9.19466,-2.64 12.31066,-13.8933 13.91333,-21.9733 1.22267,-6.1733 1.84667,-12.4 2.13067,-18.6667 0.252,-5.5333 0.976,-11.30663 -0.14667,-16.78663 -0.0867,-0.41333 -0.72933,-0.24 -0.64267,0.18667 0.95334,4.65333 0.37867,9.35996 0.21067,14.05336 -0.196,5.4666 -0.56133,10.88 -1.35467,16.2933 -1.348,9.1867 -3.29333,18.6533 -11.1,24.5333 -4.73733,3.56 -10.23866,2.1467 -14.19333,-1.8 -3.58267,-3.56 -4.83733,-8.8133 -5.384,-13.6533 -0.476,-4.2267 -0.272,-8.5333 -0.13467,-12.76 0.15467,-4.7467 -0.248,-11.0267 1.59867,-15.4533 0.0573,-0.1334 0.0147,-0.24 -0.0707,-0.3067 1.84667,-1.1867 3.75867,-2.2533 5.70534,-3.22666 -0.81867,9.23996 -0.916,19.13336 0.66933,28.26666 0.95867,5.5333 3.94533,15.0667 11.352,13.32 7.21467,-1.7067 8.176,-13.7067 8.66667,-19.4133 0.44133,-5.12 0.87066,-10.2667 1.15733,-15.3867 0.24667,-4.4133 0.53467,-9.63999 -0.36933,-13.98666 -0.0347,-0.16 -0.16,-0.21333 -0.29067,-0.21333 4.056,-0.93334 8.17067,-1.65334 12.30933,-2.21334 -0.0107,0.0533 -0.0213,0.10667 -0.005,0.16 0.608,2.13334 0.032,4.62667 -0.21333,6.78667 -0.30267,2.66667 -0.44934,5.30666 -0.472,7.98666 -0.0427,5.2933 -0.26934,10.5733 -0.88534,15.84 -1.3,11.1067 -5.11866,21.88 -13.39733,29.6933 -4.452,4.2 -10.17733,6.1734 -16.228,5.04 -6.08667,-1.1466 -9.79733,-6.5733 -11.27867,-12.1866 -3.088,-11.6934 -3.77733,-24.4 -1.98266,-36.3734 0.009,-0.067 -0.0213,-0.12 -0.04,-0.1733 1.46,-1.2533 3.00933,-2.4133 4.62533,-3.48 -1.75867,4.52 -1.336,10.5733 -1.51733,15.32 -0.204,5.3467 -0.30534,10.72 0.592,16.0133 z m 86.69333,-46.82663 c -0.13467,0.0533 -0.248,0.18667 -0.21867,0.36 0.35467,2.21334 -0.55467,5.34667 -0.63067,7.6 -0.0947,2.76 -0.0693,5.53333 -0.088,8.29333 -0.0347,5.2667 0.0253,10.6 0.792,15.8133 0.89734,6.12 3.796,18.3067 12.72134,16.5467 8.48266,-1.6533 10.056,-12.4 11.02133,-19.4267 0.68,-4.9333 0.78267,-9.9466 0.632,-14.92 -0.136,-4.49329 0.10667,-9.83996 -1.39067,-14.14663 1.816,0.0267 3.632,0.0533 5.448,0.08 -0.0373,0.0533 -0.076,0.10667 -0.072,0.18667 0.452,11 0.0773,21.90666 -1.02666,32.86666 -0.996,9.8933 -1.17734,23.6 -13.93334,24.7067 -12.37333,1.0666 -16.53333,-11.2267 -18.268,-21.0134 -1.08933,-6.1333 -1.38133,-12.2666 -1.33066,-18.4933 0.024,-3 0.10533,-6.0133 0.23066,-9.02666 0.12,-2.89333 -0.076,-6.37333 0.76,-9.17333 0.0253,-0.08 0.003,-0.14667 -0.0253,-0.21334 1.79333,-0.0133 3.58533,-0.04 5.37867,-0.04 z m 3.9,-0.0133 c 10e-4,0.0133 -0.012,0.0267 -0.007,0.04 0.42667,1.84 0.0987,3.98667 0.0867,5.85333 -0.016,2.46667 -0.009,4.92 0.0773,7.3866 0.14533,4.1334 0.49867,8.2534 1.13067,12.3467 0.63866,4.1467 1.772,14.2133 7.44133,14.88 5.74667,0.6667 5.75067,-8.84 5.952,-12.6 0.48533,-9.1333 0.596,-18.2533 0.52133,-27.39996 -0.003,-0.42667 -0.66933,-0.42667 -0.66666,0 0.0573,7.02666 0.048,13.99996 -0.30267,21.01326 -0.144,2.8667 -0.15333,5.7334 -0.356,8.6 -0.268,3.7734 -1.86267,13.1867 -7.50267,8.4 -2.25333,-1.92 -2.904,-5.8266 -3.54666,-8.56 -0.90934,-3.8666 -1.41467,-7.8 -1.73334,-11.76 -0.26266,-3.2666 -0.35466,-6.55993 -0.36133,-9.83993 -0.005,-2.68 0.50133,-5.73333 -0.0733,-8.36 1.32266,0 2.644,0 3.96666,0 -0.0253,0.0267 -0.0627,0.04 -0.0787,0.0933 -0.916,2.6 -0.70267,5.30667 -0.764,8.02667 -0.0947,4.15996 -0.27067,8.26666 -0.001,12.42666 0.18534,2.8533 0.0613,9.2133 3.172,10.6933 2.556,1.2134 2.96934,-3.9333 3.12,-5.24 0.976,-8.5333 -0.012,-17.05329 -0.0933,-25.59996 -0.004,-0.42667 -0.67067,-0.42667 -0.66667,0 0.0533,5.54667 0.476,11.09333 0.552,16.63996 0.036,2.56 -0.084,5.12 -0.31333,7.68 -0.084,0.9334 -0.86133,8.4667 -3.40533,4.9734 -0.94534,-1.2934 -1.04,-3.48 -1.22534,-5 -0.32266,-2.6267 -0.57066,-5.2267 -0.644,-7.8667 -0.08,-2.9067 0.0507,-5.81333 0.172,-8.70666 0.11067,-2.66667 -0.16666,-5.28 0.74,-7.85333 0.0373,-0.10667 0.0187,-0.2 -0.028,-0.26667 4.36,0.0267 8.72,0.0533 13.07467,0.12 1.32667,3.68 1.08267,8.06667 1.32267,11.93336 0.25866,4.1733 0.208,8.3466 -0.0613,12.5066 -0.48666,7.4934 -1.74133,22.7867 -11.78933,23.48 -5.22,0.36 -8.42133,-5.12 -9.74667,-9.3333 -1.40533,-4.4667 -1.74666,-9.3067 -1.992,-13.9467 -0.23333,-4.4133 -0.13733,-8.8266 -0.1,-13.23996 0.02,-2.37333 0.0573,-4.73333 0.24,-7.09333 0.11334,-1.45334 0.64534,-2.78667 0.41334,-4.22667 -0.0147,-0.0933 -0.0667,-0.16 -0.12667,-0.18667 1.2,-0.0133 2.40133,-0.0133 3.60267,-0.0133 z m 92.74266,11.25333 c 0.10267,0.92 -0.08,1.9866 -0.10933,2.84 -0.0653,1.8933 -0.0733,3.8 -0.19734,5.7066 -0.292,4.44 -1.40266,8.8934 -2.69866,13.1467 -2.00934,6.5733 -5.792,15.5467 -13.84,15.56 -9.236,0.027 -10.42133,-13.84 -11.128,-20.52 -0.39867,-3.7733 -0.45467,-7.5867 -0.464,-11.3733 -0.012,-4.28 -0.42667,-9.06666 0.664,-13.24 0.028,-0.10666 0.004,-0.18666 -0.0453,-0.26666 5.63066,0.97333 11.192,2.28 16.64133,4 -0.007,0.0267 -0.0293,0.04 -0.0293,0.0667 0.0507,8.14666 -0.0787,17.10666 -2.116,25.02666 -1.79334,0.8267 -2.73334,0.5067 -2.82134,-0.9866 -0.4,-1.3467 -0.464,-2.7867 -0.564,-4.1734 -0.172,-2.4133 -0.11733,-4.84 -0.0147,-7.2533 0.192,-4.5467 0.69733,-9.05336 0.73866,-13.61336 0.004,-0.42666 -0.66266,-0.42666 -0.66666,0 -0.056,6.20006 -0.89467,12.36006 -0.824,18.56006 0.02,1.6533 -0.0347,10.0933 2.78133,10.0933 2.91733,0 2.93467,-7.2667 3.12533,-9.1733 0.60934,-6.1067 1.05734,-12.2134 1.02667,-18.34672 1.88533,0.61333 3.75333,1.28 5.60933,2 -0.0373,0.10666 -0.0427,0.22666 0.0453,0.33333 0.64667,0.77333 0.13334,3.63999 0.1,4.63999 -0.12,3.56 -0.352,7.1067 -1.084,10.6134 -1.08533,5.1866 -1.78666,11.1733 -5.70266,15.1066 -2.63333,2.64 -6.11867,2.2134 -8.08267,-0.9333 -0.77066,-1.24 -1.09066,-2.7733 -1.39333,-4.1867 -0.672,-3.12 -0.84,-6.3866 -0.92267,-9.56 -0.0853,-3.3466 0.11867,-6.6933 0.31467,-10.0133 0.19867,-3.36 0.052,-6.96002 1.21733,-10.14669 0.148,-0.41333 -0.49733,-0.58667 -0.64266,-0.18667 -1.324,3.62667 -1.09067,7.77336 -1.31467,11.57336 -0.29467,5 -0.388,9.9867 0.17867,14.9733 0.532,4.68 2.03466,12.6134 8.49733,10.6134 6.16,-1.9067 7.22133,-11.0667 8.312,-16.2534 0.832,-3.9466 1.164,-7.84 1.29866,-11.88 0.036,-1.08 0.42934,-3.19999 -0.052,-4.39999 0.22,0.0933 0.44134,0.17333 0.66,0.26667 1.09467,0.44 2.284,0.89333 3.50267,1.38666 z m -194.30133,53.9733 c 4.03867,6.4533 10.77334,11.3067 17.86267,13.8267 13.924,4.9466 32.30533,-1.8267 41.352,-13.04 5.156,-6.3867 5.74666,-14.68 8.2,-22.2267 0.40533,-1.24 0.93733,-2.44 1.51733,-3.6133 0.0867,-0.1734 -10e-4,1.2266 0.0307,1.5866 0.13466,1.4934 0.388,2.96 0.67066,4.4267 0.68134,3.5467 1.884,6.9867 3.348,10.28 5.70667,12.8267 17.42,22.5467 31.756,23.0133 7.07467,0.2267 14.26,-0.72 20.75467,-3.6266 6.85867,-3.08 11.25867,-8.6667 14.168,-15.4267 1.71733,-3.9867 3.172,-8.0933 4.516,-12.2267 0.73067,-2.24 1.388,-4.52 2.02,-6.8 0.15067,-0.5333 0.28533,-1.08 0.42667,-1.6266 -0.0333,0.5866 -0.0653,1.1733 -0.12134,1.76 -0.37733,4.6533 -1.27733,9.1733 -0.82666,13.8533 0.37066,3.8533 2.26266,7.2533 4.37466,10.4 3.74667,5.56 8.86667,10.7067 15.1,13.3733 5.62267,2.4 11.964,3.3867 18.05067,3.3334 5.268,-0.053 11.09866,-1.2534 14.76133,-5.32 4.60533,-5.12 6.27067,-13.1067 7.40267,-19.64 1.27733,-7.3734 1.544,-14.88 2.02933,-22.3334 0.42267,-6.5066 1.964,-14.4 -3.40267,-19.3066 -2.28933,-2.08 -5.37866,-3.2534 -8.16,-4.52 -0.29066,-0.13333 -0.58133,-0.25333 -0.872,-0.38666 -0.0253,-0.14667 -0.0547,-0.30667 -0.0973,-0.45334 -0.11467,-0.38666 -0.68667,-0.24 -0.63733,0.13334 -3.45467,-1.53334 -6.93334,-2.93334 -10.536,-4.10667 -8.58533,-2.82667 -17.54267,-4.4 -26.5,-5.42667 -18.988,-2.18666 -38.19067,-1.45333 -57.26133,-1.53333 -0.53734,0 -1.07467,0 -1.612,0 0.36266,-0.0667 0.35333,-0.64 -0.0533,-0.64 -0.40533,0 -0.41466,0.57333 -0.0533,0.64 -9.33467,-0.04 -18.68533,-0.0533 -27.99733,0.41333 -0.0907,-0.04 -0.18,-0.04 -0.26667,0.0133 -10.27467,0.50666 -20.5,1.6 -30.604,3.88 -2.55333,0.57333 -5.11333,1.22666 -7.652,1.98666 -0.0307,-0.0667 -0.048,-0.14666 -0.0827,-0.21333 -0.20267,-0.38667 -0.77867,-0.04 -0.576,0.33333 0.0107,0.0133 0.0147,0.04 0.0253,0.0667 -8.76133,2.65333 -17.232,6.49334 -24.21867,12.41334 -6.868,5.8133 -13.83466,17.08 -11.27733,26.6266 0.19467,7.0934 0.556,13.9067 4.44133,20.1067" style="fill:#577c69;fill-opacity:1;fill-rule:nonzero;stroke:none;stroke-width:0.133333"/><path id="path363" d="m 813.61065,988.89341 c 2.28,13.02669 -1.688,26.31999 -3.256,39.15999 -0.81467,6.68 -1.38534,12.64 -5.872,18 -4.61067,5.5067 -11.55467,7.7467 -18.51734,6.5067 -12.26933,-2.16 -19.248,-13.2267 -22.01866,-24.4 -1.588,-6.4 -2.248,-13.0134 -2.82134,-19.56 -0.584,-6.6667 -0.224,-13.24003 -0.30533,-19.90669 -0.005,-0.42667 -0.672,-0.42667 -0.66667,0 0.26534,21.81329 -1.78666,61.10669 27.88,64.85329 11.70934,1.48 20.992,-8.7866 22.34534,-19.6533 1.816,-14.56 6.452,-30.4533 3.87466,-45.18666 -0.0747,-0.41333 -0.71733,-0.24 -0.64266,0.18667" style="fill:#577c69;fill-opacity:1;fill-rule:nonzero;stroke:none;stroke-width:0.133333"/><path id="path360" d="m 682.95465,1011.9067 c 0.256,-0.32 0.53867,-0.6266 0.80533,-0.9333 -1.068,2.52 -1.456,5.1467 -1.73466,7.8533 -0.44,4.2667 -0.86134,8.52 -0.67867,12.8134 0.25333,5.92 1.76,11.8933 4.248,17.2666 2.256,4.88 5.68933,8.88 10.776,10.7867 4.796,1.8 10.84933,2.1067 15.876,1.3067 5.956,-0.9467 10.38133,-5.0534 14.27333,-9.3867 4.288,-4.7867 8.35067,-9.9067 10.92,-15.8267 2.93067,-6.76 3.39333,-14.8933 4.67867,-22.0933 0.66,-3.6933 1.32533,-7.3867 1.55466,-11.1333 0.26,-4.26669 -0.27333,-9.13336 0.80134,-13.28003 0.024,-0.0933 10e-4,-0.17333 -0.0347,-0.24 1.912,-0.13333 3.81733,-0.24 5.71733,-0.33333 0.0827,17.85336 2.388,35.87996 9.65067,52.31996 2.80667,6.36 6.82,12.6534 13.416,15.4934 6.55067,2.8266 14.43867,2.7733 21.36267,1.7466 12.88533,-1.8933 19.86266,-11.7866 23.38933,-23.5466 1.904,-6.3467 2.88667,-12.9867 3.80933,-19.5334 0.64534,-4.5733 0.688,-9.2266 0.70667,-13.8266 0.0147,-3.78669 0.63067,-8.08003 -0.35067,-11.76003 -0.10933,-0.41333 -0.75333,-0.24 -0.64266,0.17334 0.952,3.57333 0.328,7.89333 0.32666,11.58669 -0.003,4.1733 -0.12133,8.3333 -0.54533,12.4933 -0.62267,6.12 -1.78667,12.32 -3.288,18.28 -3.06267,12.1733 -9.54533,22.8 -22.63067,25.3333 -7.36266,1.4267 -15.72,1.0934 -22.656,-1.8933 -6.88266,-2.96 -10.66533,-10.8 -13.36666,-17.32 -6.47067,-15.64 -8.44134,-32.7733 -8.51467,-49.57333 1.456,-0.0667 2.91067,-0.13333 4.356,-0.18666 5.61867,-0.18667 11.25467,-0.29334 16.89733,-0.36 -0.005,0.0133 -0.0187,0.0133 -0.0227,0.0267 -0.75067,2.50667 -0.56667,5.44 -0.71867,8.05334 -0.2,3.44 -0.248,6.87995 -0.296,10.31995 -0.0933,6.6267 0.37067,13.12 1.52667,19.64 1.74533,9.8533 5.64133,19.4533 16.84,20.52 4.40133,0.4133 8.85066,-1.3333 11.64933,-4.7333 2.624,-3.1867 3.292,-7.76 3.80267,-11.7067 1.79733,-13.9067 2.64933,-27.7867 2.07333,-41.78662 -0.004,-0.08 -0.0453,-0.13333 -0.084,-0.17333 2.65067,0.04 5.3,0.0933 7.94533,0.16 10.544,0.22666 21.18667,0.89333 31.612,2.65333 -0.0533,0.04 -0.10666,0.08 -0.128,0.16 -1.21066,4.64 -0.69733,9.93332 -0.68533,14.67992 0.0133,5.0934 0.328,10.1734 1.13733,15.2 1.11067,6.9067 2.89867,15.3867 11.11867,16.0934 7.02,0.6 11.08933,-7.0667 13.26266,-12.5467 1.82,-4.6 3.04134,-9.5467 3.672,-14.4533 0.296,-2.32 0.39867,-4.6134 0.44267,-6.9467 0.0213,-1.12 0.27067,-2.4667 0.192,-3.67995 0.57333,0.24 1.14933,0.47995 1.72533,0.74665 0,0 -0.005,0 -0.005,0.013 0.116,7.4667 1.11333,14.56 0.25333,22.08 -1.17333,10.24 -5.06133,20.2667 -14.61733,25.32 -5.33866,2.8133 -12.744,0.88 -16.00133,-4.1067 -2.87067,-4.4 -3.72667,-10.6533 -4.54267,-15.7333 -0.96533,-6.0133 -1.26,-12.1333 -1.32533,-18.2133 -0.0667,-6.1067 -0.36933,-12.79999 0.68267,-18.82665 0.0733,-0.42667 -0.56934,-0.6 -0.64267,-0.18667 -1.14,6.53333 -0.76533,13.71992 -0.69333,20.33332 0.0707,6.52 0.61333,13.04 1.73866,19.4666 0.83334,4.7467 1.9,11.3334 5.32934,15.0667 2.9,3.1467 7.80533,4.72 12.04933,3.9867 9.61866,-1.6667 15.312,-11.6 17.476,-20.24 1.384,-5.5334 1.93866,-11.5067 1.72933,-17.2 -0.14,-3.8134 -0.672,-7.6267 -0.75733,-11.4534 0.656,0.3067 1.30533,0.6267 1.93733,0.9734 -0.052,0.053 -0.096,0.12 -0.1,0.2133 -0.41333,12.0133 -0.78933,24.04 -2.008,36 -0.652,6.4 -2.28267,12.7333 -6.76133,17.5467 -4.85067,5.2266 -10.78533,5.7333 -17.37867,4.4533 -13.29866,-2.56 -16.90266,-16.6267 -18.008,-28.36 -1.28933,-13.6933 1.808,-27.1733 1.98934,-40.79995 0.007,-0.42667 -0.66,-0.42667 -0.66667,0 -0.20533,15.41325 -3.70133,30.47995 -1.36,45.93325 0.93333,6.16 2.90533,12.3734 6.65733,17.4134 3.188,4.28 8.036,5.9733 13.12934,6.8 5.168,0.84 9.452,0.2933 13.71733,-2.84 4.56933,-3.3467 6.99066,-8.4134 8.31466,-13.7734 1.51867,-6.16 1.44534,-12.64 1.948,-18.9333 0.62267,-7.7733 0.82267,-15.5333 1.09067,-23.3333 3.26533,1.8666 6.016,4.3333 6.85867,7.9466 1.416,6.0534 -0.044,13.1734 -0.41334,19.32 -0.40533,6.7334 -0.99333,13.4534 -2.38933,20.0534 -1.288,6.0933 -3.48133,13.8266 -8.86,17.5733 -4.496,3.1333 -10.78266,3.2667 -16.03466,2.9067 -5.64267,-0.3734 -11.548,-1.7867 -16.528,-4.52 -5.85867,-3.2134 -10.768,-9.3067 -13.97734,-15.04 -4.45866,-7.96 -1.12533,-16.7067 -1.24266,-25.2134 -0.005,-0.3733 -0.564,-0.4533 -0.65467,-0.093 -1.396,5.7067 -3.09867,11.32 -5.08267,16.84 -1.97866,5.5067 -4.06533,11.08 -7.98933,15.5067 -6.89067,7.8 -18.052,9.72 -27.932,9.6533 -21.012,-0.1067 -35.28667,-19.9867 -36.22933,-39.6667 -0.0147,-0.32 -0.452,-0.4666 -0.62134,-0.16 -4.56266,8.16 -4.09733,18.0267 -9.56533,25.84 -5.53067,7.9067 -15.192,12.2 -24.31733,14.2534 -10.64133,2.3866 -20.87067,-0.6934 -28.93467,-7.9067 -3.91066,-3.4933 -6.92933,-7.84 -8.43733,-12.88 -1.06933,-3.5733 -1.22533,-7.4 -1.30667,-11.1467 0.0747,0.1734 0.124,0.3467 0.20667,0.52 0.184,0.3867 0.75867,0.053 0.57467,-0.3333 -0.36,-0.76 -0.62,-1.5333 -0.82934,-2.3333 -0.005,-0.2 -0.008,-0.4134 -0.0133,-0.6134 -0.004,-0.1466 -0.0933,-0.2266 -0.19733,-0.2666 -1.36134,-7 2.468,-15.1067 6.55333,-20.2934 z m 4.03067,-4.28 c -0.92267,6.4934 -1.124,13.5734 -0.74,20.08 0.36533,6.1867 1.616,13.1734 3.7,19.0134 3.52933,9.8933 14.976,12.3733 23.54533,7.6133 10.19067,-5.6533 15.12933,-18.16 17.12133,-28.9867 1.09467,-5.9466 1.376,-12.0266 1.496,-18.0533 0.068,-3.3867 0.12,-6.7067 0.5,-10.06666 0.20934,-1.85333 1.336,-5.6 -0.28933,-6.58667 0.30933,0.18667 0.56933,-0.17333 0.43733,-0.42666 3.688,-0.49334 7.39067,-0.85334 11.084,-1.12 -10e-4,0 -0.007,0 -0.008,0.0133 -0.61867,2.38667 -0.36933,4.89333 -0.57067,7.33333 -0.29866,3.65336 -0.216,7.25336 -0.75466,10.89336 -1.048,7.04 -2.528,14.0267 -3.66267,21.0667 -1.06267,6.6 -4.30533,12.24 -8.35733,17.44 -3.54133,4.5466 -7.424,9.1866 -12.328,12.3066 -4.94667,3.1467 -11.65067,2.8534 -17.23333,2 -6.38267,-0.9733 -10.63734,-4.2933 -13.84267,-9.8133 -3.09333,-5.3333 -4.47067,-11.7067 -5.00667,-17.7867 -0.28933,-3.3066 -0.056,-6.6 0.23467,-9.8933 0.34667,-3.9067 0.508,-7.9867 2.13067,-11.6267 0.012,-0.027 -0.003,-0.053 0.003,-0.08 0.016,-0.053 0.0187,-0.1066 0.005,-0.1733 -0.005,-0.013 -0.009,-0.027 -0.016,-0.04 -0.024,-0.067 -0.0653,-0.1067 -0.12667,-0.1467 -0.028,-0.013 -0.0547,-0.027 -0.0867,-0.04 -0.0253,0 -0.0373,-0.027 -0.0667,-0.027 -0.005,0 -0.007,0.013 -0.012,0.013 0.896,-1.0267 1.83866,-2 2.844,-2.9067 z m 16.38,-9.87996 c -1.42667,8.35996 -2.21067,18.09336 0.007,26.34666 0.756,2.8133 2.76934,9.44 6.46134,9.3733 4.15733,-0.067 2.656,-14.76 2.636,-16.8533 -0.0507,-5.2267 -0.264,-10.4667 -0.31067,-15.7067 -0.0173,-1.82663 0.64533,-4.49329 0.13467,-6.39996 2.436,-0.74667 4.90266,-1.4 7.39466,-1.97333 -0.12533,0.0667 -0.22533,0.18666 -0.18933,0.36 0.73333,3.52 0.424,7.58669 0.42533,11.18669 0.003,4.1866 -0.54133,8.36 -0.852,12.5333 -0.55333,7.44 -0.41333,16.2933 -5.6,22.24 -4.05866,4.6533 -8.98533,0.9867 -11.204,-3.2267 -1.94533,-3.6933 -2.50533,-8.2533 -2.95466,-12.32 -0.848,-7.7066 -0.65334,-16.0133 0.0453,-23.73329 0.532,-0.26667 1.064,-0.53334 1.59867,-0.77334 0.796,-0.37333 1.60133,-0.70666 2.408,-1.05333 z m 8.12133,1.85333 c -0.11333,3.92003 0.11733,7.86663 0.21333,11.78663 0.15867,6.4 0.99334,13.6667 -0.66,19.92 -1.00133,3.8 -3.79866,-0.24 -4.30933,-1.04 -0.536,-0.84 -0.944,-1.76 -1.352,-2.6533 -1.05333,-2.3333 -1.71333,-4.76 -2.15733,-7.28 -1.248,-7.04 -0.39467,-15.5467 0.80933,-22.55999 0.0213,-0.12 -0.024,-0.21334 -0.0893,-0.28 2.52266,-1.05334 5.09866,-1.96 7.70933,-2.78667 0.36133,1.45333 -0.12533,3.54667 -0.164,4.89333 z m -20.12933,35.30663 c 1.31866,7.8 7.73066,17.1467 16.776,14.56 9.19466,-2.64 12.31066,-13.8933 13.91333,-21.9733 1.22267,-6.1733 1.84667,-12.4 2.13067,-18.6667 0.252,-5.5333 0.976,-11.30663 -0.14667,-16.78663 -0.0867,-0.41333 -0.72933,-0.24 -0.64267,0.18667 0.95334,4.65333 0.37867,9.35996 0.21067,14.05336 -0.196,5.4666 -0.56133,10.88 -1.35467,16.2933 -1.348,9.1867 -3.29333,18.6533 -11.1,24.5333 -4.73733,3.56 -10.23866,2.1467 -14.19333,-1.8 -3.58267,-3.56 -4.83733,-8.8133 -5.384,-13.6533 -0.476,-4.2267 -0.272,-8.5333 -0.13467,-12.76 0.15467,-4.7467 -0.248,-11.0267 1.59867,-15.4533 0.0573,-0.1334 0.0147,-0.24 -0.0707,-0.3067 1.84667,-1.1867 3.75867,-2.2533 5.70534,-3.22666 -0.81867,9.23996 -0.916,19.13336 0.66933,28.26666 0.95867,5.5333 3.94533,15.0667 11.352,13.32 7.21467,-1.7067 8.176,-13.7067 8.66667,-19.4133 0.44133,-5.12 0.87066,-10.2667 1.15733,-15.3867 0.24667,-4.4133 0.53467,-9.63999 -0.36933,-13.98666 -0.0347,-0.16 -0.16,-0.21333 -0.29067,-0.21333 4.056,-0.93334 8.17067,-1.65334 12.30933,-2.21334 -0.0107,0.0533 -0.0213,0.10667 -0.005,0.16 0.608,2.13334 0.032,4.62667 -0.21333,6.78667 -0.30267,2.66667 -0.44934,5.30666 -0.472,7.98666 -0.0427,5.2933 -0.26934,10.5733 -0.88534,15.84 -1.3,11.1067 -5.11866,21.88 -13.39733,29.6933 -4.452,4.2 -10.17733,6.1734 -16.228,5.04 -6.08667,-1.1466 -9.79733,-6.5733 -11.27867,-12.1866 -3.088,-11.6934 -3.77733,-24.4 -1.98266,-36.3734 0.009,-0.067 -0.0213,-0.12 -0.04,-0.1733 1.46,-1.2533 3.00933,-2.4133 4.62533,-3.48 -1.75867,4.52 -1.336,10.5733 -1.51733,15.32 -0.204,5.3467 -0.30534,10.72 0.592,16.0133 z m 86.69333,-46.82663 c -0.13467,0.0533 -0.248,0.18667 -0.21867,0.36 0.35467,2.21334 -0.55467,5.34667 -0.63067,7.6 -0.0947,2.76 -0.0693,5.53333 -0.088,8.29333 -0.0347,5.2667 0.0253,10.6 0.792,15.8133 0.89734,6.12 3.796,18.3067 12.72134,16.5467 8.48266,-1.6533 10.056,-12.4 11.02133,-19.4267 0.68,-4.9333 0.78267,-9.9466 0.632,-14.92 -0.136,-4.49329 0.10667,-9.83996 -1.39067,-14.14663 1.816,0.0267 3.632,0.0533 5.448,0.08 -0.0373,0.0533 -0.076,0.10667 -0.072,0.18667 0.452,11 0.0773,21.90666 -1.02666,32.86666 -0.996,9.8933 -1.17734,23.6 -13.93334,24.7067 -12.37333,1.0666 -16.53333,-11.2267 -18.268,-21.0134 -1.08933,-6.1333 -1.38133,-12.2666 -1.33066,-18.4933 0.024,-3 0.10533,-6.0133 0.23066,-9.02666 0.12,-2.89333 -0.076,-6.37333 0.76,-9.17333 0.0253,-0.08 0.003,-0.14667 -0.0253,-0.21334 1.79333,-0.0133 3.58533,-0.04 5.37867,-0.04 z m 3.9,-0.0133 c 10e-4,0.0133 -0.012,0.0267 -0.007,0.04 0.42667,1.84 0.0987,3.98667 0.0867,5.85333 -0.016,2.46667 -0.009,4.92 0.0773,7.3866 0.14533,4.1334 0.49867,8.2534 1.13067,12.3467 0.63866,4.1467 1.772,14.2133 7.44133,14.88 5.74667,0.6667 5.75067,-8.84 5.952,-12.6 0.48533,-9.1333 0.596,-18.2533 0.52133,-27.39996 -0.003,-0.42667 -0.66933,-0.42667 -0.66666,0 0.0573,7.02666 0.048,13.99996 -0.30267,21.01326 -0.144,2.8667 -0.15333,5.7334 -0.356,8.6 -0.268,3.7734 -1.86267,13.1867 -7.50267,8.4 -2.25333,-1.92 -2.904,-5.8266 -3.54666,-8.56 -0.90934,-3.8666 -1.41467,-7.8 -1.73334,-11.76 -0.26266,-3.2666 -0.35466,-6.55993 -0.36133,-9.83993 -0.005,-2.68 0.50133,-5.73333 -0.0733,-8.36 1.32266,0 2.644,0 3.96666,0 -0.0253,0.0267 -0.0627,0.04 -0.0787,0.0933 -0.916,2.6 -0.70267,5.30667 -0.764,8.02667 -0.0947,4.15996 -0.27067,8.26666 -0.001,12.42666 0.18534,2.8533 0.0613,9.2133 3.172,10.6933 2.556,1.2134 2.96934,-3.9333 3.12,-5.24 0.976,-8.5333 -0.012,-17.05329 -0.0933,-25.59996 -0.004,-0.42667 -0.67067,-0.42667 -0.66667,0 0.0533,5.54667 0.476,11.09333 0.552,16.63996 0.036,2.56 -0.084,5.12 -0.31333,7.68 -0.084,0.9334 -0.86133,8.4667 -3.40533,4.9734 -0.94534,-1.2934 -1.04,-3.48 -1.22534,-5 -0.32266,-2.6267 -0.57066,-5.2267 -0.644,-7.8667 -0.08,-2.9067 0.0507,-5.81333 0.172,-8.70666 0.11067,-2.66667 -0.16666,-5.28 0.74,-7.85333 0.0373,-0.10667 0.0187,-0.2 -0.028,-0.26667 4.36,0.0267 8.72,0.0533 13.07467,0.12 1.32667,3.68 1.08267,8.06667 1.32267,11.93336 0.25866,4.1733 0.208,8.3466 -0.0613,12.5066 -0.48666,7.4934 -1.74133,22.7867 -11.78933,23.48 -5.22,0.36 -8.42133,-5.12 -9.74667,-9.3333 -1.40533,-4.4667 -1.74666,-9.3067 -1.992,-13.9467 -0.23333,-4.4133 -0.13733,-8.8266 -0.1,-13.23996 0.02,-2.37333 0.0573,-4.73333 0.24,-7.09333 0.11334,-1.45334 0.64534,-2.78667 0.41334,-4.22667 -0.0147,-0.0933 -0.0667,-0.16 -0.12667,-0.18667 1.2,-0.0133 2.40133,-0.0133 3.60267,-0.0133 z m 92.74266,11.25333 c 0.10267,0.92 -0.08,1.9866 -0.10933,2.84 -0.0653,1.8933 -0.0733,3.8 -0.19734,5.7066 -0.292,4.44 -1.40266,8.8934 -2.69866,13.1467 -2.00934,6.5733 -5.792,15.5467 -13.84,15.56 -9.236,0.027 -10.42133,-13.84 -11.128,-20.52 -0.39867,-3.7733 -0.45467,-7.5867 -0.464,-11.3733 -0.012,-4.28 -0.42667,-9.06666 0.664,-13.24 0.028,-0.10666 0.004,-0.18666 -0.0453,-0.26666 5.63066,0.97333 11.192,2.28 16.64133,4 -0.007,0.0267 -0.0293,0.04 -0.0293,0.0667 0.0507,8.14666 -0.0787,17.10666 -2.116,25.02666 -1.79334,0.8267 -2.73334,0.5067 -2.82134,-0.9866 -0.4,-1.3467 -0.464,-2.7867 -0.564,-4.1734 -0.172,-2.4133 -0.11733,-4.84 -0.0147,-7.2533 0.192,-4.5467 0.69733,-9.05336 0.73866,-13.61336 0.004,-0.42666 -0.66266,-0.42666 -0.66666,0 -0.056,6.20006 -0.89467,12.36006 -0.824,18.56006 0.02,1.6533 -0.0347,10.0933 2.78133,10.0933 2.91733,0 2.93467,-7.2667 3.12533,-9.1733 0.60934,-6.1067 1.05734,-12.2134 1.02667,-18.34672 1.88533,0.61333 3.75333,1.28 5.60933,2 -0.0373,0.10666 -0.0427,0.22666 0.0453,0.33333 0.64667,0.77333 0.13334,3.63999 0.1,4.63999 -0.12,3.56 -0.352,7.1067 -1.084,10.6134 -1.08533,5.1866 -1.78666,11.1733 -5.70266,15.1066 -2.63333,2.64 -6.11867,2.2134 -8.08267,-0.9333 -0.77066,-1.24 -1.09066,-2.7733 -1.39333,-4.1867 -0.672,-3.12 -0.84,-6.3866 -0.92267,-9.56 -0.0853,-3.3466 0.11867,-6.6933 0.31467,-10.0133 0.19867,-3.36 0.052,-6.96002 1.21733,-10.14669 0.148,-0.41333 -0.49733,-0.58667 -0.64266,-0.18667 -1.324,3.62667 -1.09067,7.77336 -1.31467,11.57336 -0.29467,5 -0.388,9.9867 0.17867,14.9733 0.532,4.68 2.03466,12.6134 8.49733,10.6134 6.16,-1.9067 7.22133,-11.0667 8.312,-16.2534 0.832,-3.9466 1.164,-7.84 1.29866,-11.88 0.036,-1.08 0.42934,-3.19999 -0.052,-4.39999 0.22,0.0933 0.44134,0.17333 0.66,0.26667 1.09467,0.44 2.284,0.89333 3.50267,1.38666 z m -194.30133,53.9733 c 4.03867,6.4533 10.77334,11.3067 17.86267,13.8267 13.924,4.9466 32.30533,-1.8267 41.352,-13.04 5.156,-6.3867 5.74666,-14.68 8.2,-22.2267 0.40533,-1.24 0.93733,-2.44 1.51733,-3.6133 0.0867,-0.1734 -10e-4,1.2266 0.0307,1.5866 0.13466,1.4934 0.388,2.96 0.67066,4.4267 0.68134,3.5467 1.884,6.9867 3.348,10.28 5.70667,12.8267 17.42,22.5467 31.756,23.0133 7.07467,0.2267 14.26,-0.72 20.75467,-3.6266 6.85867,-3.08 11.25867,-8.6667 14.168,-15.4267 1.71733,-3.9867 3.172,-8.0933 4.516,-12.2267 0.73067,-2.24 1.388,-4.52 2.02,-6.8 0.15067,-0.5333 0.28533,-1.08 0.42667,-1.6266 -0.0333,0.5866 -0.0653,1.1733 -0.12134,1.76 -0.37733,4.6533 -1.27733,9.1733 -0.82666,13.8533 0.37066,3.8533 2.26266,7.2533 4.37466,10.4 3.74667,5.56 8.86667,10.7067 15.1,13.3733 5.62267,2.4 11.964,3.3867 18.05067,3.3334 5.268,-0.053 11.09866,-1.2534 14.76133,-5.32 4.60533,-5.12 6.27067,-13.1067 7.40267,-19.64 1.27733,-7.3734 1.544,-14.88 2.02933,-22.3334 0.42267,-6.5066 1.964,-14.4 -3.40267,-19.3066 -2.28933,-2.08 -5.37866,-3.2534 -8.16,-4.52 -0.29066,-0.13333 -0.58133,-0.25333 -0.872,-0.38666 -0.0253,-0.14667 -0.0547,-0.30667 -0.0973,-0.45334 -0.11467,-0.38666 -0.68667,-0.24 -0.63733,0.13334 -3.45467,-1.53334 -6.93334,-2.93334 -10.536,-4.10667 -8.58533,-2.82667 -17.54267,-4.4 -26.5,-5.42667 -18.988,-2.18666 -38.19067,-1.45333 -57.26133,-1.53333 -0.53734,0 -1.07467,0 -1.612,0 0.36266,-0.0667 0.35333,-0.64 -0.0533,-0.64 -0.40533,0 -0.41466,0.57333 -0.0533,0.64 -9.33467,-0.04 -18.68533,-0.0533 -27.99733,0.41333 -0.0907,-0.04 -0.18,-0.04 -0.26667,0.0133 -10.27467,0.50666 -20.5,1.6 -30.604,3.88 -2.55333,0.57333 -5.11333,1.22666 -7.652,1.98666 -0.0307,-0.0667 -0.048,-0.14666 -0.0827,-0.21333 -0.20267,-0.38667 -0.77867,-0.04 -0.576,0.33333 0.0107,0.0133 0.0147,0.04 0.0253,0.0667 -8.76133,2.65333 -17.232,6.49334 -24.21867,12.41334 -6.868,5.8133 -13.83466,17.08 -11.27733,26.6266 0.19467,7.0934 0.556,13.9067 4.44133,20.1067" style="fill:#577c69;fill-opacity:1;fill-rule:nonzero;stroke:none;stroke-width:0.133333"/><path id="path363" d="m 813.61065,988.89341 c 2.28,13.02669 -1.688,26.31999 -3.256,39.15999 -0.81467,6.68 -1.38534,12.64 -5.872,18 -4.61067,5.5067 -11.55467,7.7467 -18.51734,6.5067 -12.26933,-2.16 -19.248,-13.2267 -22.01866,-24.4 -1.588,-6.4 -2.248,-13.0134 -2.82134,-19.56 -0.584,-6.6667 -0.224,-13.24003 -0.30533,-19.90669 -0.005,-0.42667 -0.672,-0.42667 -0.66667,0 0.26534,21.81329 -1.78666,61.10669 27.88,64.85329 11.70934,1.48 20.992,-8.7866 22.34534,-19.6533 1.816,-14.56 6.452,-30.4533 3.87466,-45.18666 -0.0747,-0.41333 -0.71733,-0.24 -0.64266,0.18667" style="fill:#577c69;fill-opacity:1;fill-rule:nonzero;stroke:none;stroke-width:0.133333"/></g></svg>