<svg version="1.1" id="svg1" width="2000" height="2579.9468" viewBox="1235.3195052331082 561.2950112302776 7.189883991424267 15.031915098802415" sodipodi:docname="styletrees.svg" inkscape:version="1.4.2 (f4327f4, 2025-05-13)" xmlns:inkscape="http://www.inkscape.org/namespaces/inkscape" xmlns:sodipodi="http://sodipodi.sourceforge.net/DTD/sodipodi-0.dtd" xmlns="http://www.w3.org/2000/svg" xmlns:svg="http://www.w3.org/2000/svg"><defs id="defs1"/><g><path id="path1029" d="m 1236.7986,563.66675 c 1.9214,0.62667 2.5334,4.54667 2.964,6.21333 0.5094,1.97334 0.8334,4 1.3867,5.96 0.2413,0.85334 1.5733,0.49334 1.3307,-0.37333 -0.7614,-2.69333 -1.1867,-5.46667 -2.0054,-8.16 -0.5413,-1.78667 -1.3333,-4.33333 -3.308,-4.97333 -0.8493,-0.28 -1.2106,1.05333 -0.368,1.33333 v 0" style="fill:#577c69;fill-opacity:1;fill-rule:nonzero;stroke:none;stroke-width:0.133333"/><path id="path1029" d="m 1236.7986,563.66675 c 1.9214,0.62667 2.5334,4.54667 2.964,6.21333 0.5094,1.97334 0.8334,4 1.3867,5.96 0.2413,0.85334 1.5733,0.49334 1.3307,-0.37333 -0.7614,-2.69333 -1.1867,-5.46667 -2.0054,-8.16 -0.5413,-1.78667 -1.3333,-4.33333 -3.308,-4.97333 -0.8493,-0.28 -1.2106,1.05333 -0.368,1.33333 v 0" style="fill:#577c69;fill-opacity:1;fill-rule:nonzero;stroke:none;stroke-width:0.133333"/></g></svg>