<svg version="1.1" id="svg1" width="2000" height="2579.9468" viewBox="275.87551834313484 305.05342000000337 117.1127813742263 176.3501208825308" sodipodi:docname="styletrees.svg" inkscape:version="1.4.2 (f4327f4, 2025-05-13)" xmlns:inkscape="http://www.inkscape.org/namespaces/inkscape" xmlns:sodipodi="http://sodipodi.sourceforge.net/DTD/sodipodi-0.dtd" xmlns="http://www.w3.org/2000/svg" xmlns:svg="http://www.w3.org/2000/svg"><defs id="defs1"/><g><path id="path14" d="m 365.48132,413.70675 c 0.62934,0 0.62934,-0.97333 0,-0.97333 -0.62933,0 -0.62933,0.97333 0,0.97333" style="fill:#577c69;fill-opacity:1;fill-rule:nonzero;stroke:none;stroke-width:0.133333"/><path id="path91" d="m 340.63466,431.66675 c 2.488,-2.44 4.916,-4.93333 7.236,-7.52 1.48666,-1.66666 3.092,-3.4 4.164,-5.37333 0.98266,-1.81333 1.54533,-3.96 2.21866,-5.89333 1.012,-2.92 1.904,-5.86667 2.73334,-8.84 1.592,-5.72 2.84,-11.52 3.93333,-17.34667 2.22667,-11.89333 3.948,-23.93333 4.344,-36.02666 0.212,-6.46667 -0.0787,-12.90667 -0.79333,-19.32 -0.71467,-6.42667 -1.69867,-12.81334 -1.75334,-19.29334 -0.005,-0.62666 -0.98133,-0.62666 -0.976,0 0.052,6.22667 0.944,12.38667 1.66934,18.54667 0.72533,6.17333 1.02533,12.36 0.91466,18.58667 -0.22266,12.50666 -2.07733,24.96 -4.34666,37.23999 -1.07867,5.84 -2.36534,11.62667 -3.93334,17.34667 -0.75333,2.74667 -1.596,5.46667 -2.50266,8.17333 -0.732,2.18667 -1.368,4.64 -2.52267,6.64 -1.26933,2.21334 -3.156,4.13334 -4.86267,6 -2.39866,2.62667 -4.91066,5.14667 -7.46933,7.6 -2.11733,2.04 -4.28267,4.04 -6.52133,5.94667 -1.38533,1.17333 -2.84133,2.50667 -4.50267,3.29333 -0.568,0.26667 -0.0733,1.10667 0.49334,0.84 0.14133,-0.0667 0.28,-0.14666 0.41866,-0.21333 -3.11466,11.38667 -11.21333,20.22667 -20.40533,27.22667 -4.96,3.77333 -9.93333,7.53333 -15.42133,10.52 -2.95867,1.61333 -6.10667,2.82666 -9.30534,3.86666 -2.14933,0.70667 -4.516,0.92 -6.36266,2.32 -0.49334,0.38667 -0.008,1.22667 0.49333,0.85334 2.06667,-1.57334 5.02133,-1.84 7.444,-2.66667 2.83333,-0.94667 5.57867,-2.14667 8.22267,-3.53333 5.92933,-3.12 11.224,-7.33334 16.53733,-11.37334 8.98,-6.82666 16.72,-15.90666 19.74133,-26.96 0.084,-0.30666 -0.11866,-0.53333 -0.36,-0.58666 1.42534,-0.88 2.72267,-2.06667 3.96267,-3.12 2.59466,-2.21334 5.07466,-4.56 7.512,-6.93334" style="fill:#577c69;fill-opacity:1;fill-rule:nonzero;stroke:none;stroke-width:0.133333"/><path id="path92" d="m 383.95466,385.41342 c 1.68666,-1.81333 3.51466,-3.53333 4.99466,-5.53333 1.56534,-2.10667 2.476,-4.58667 3.95334,-6.74667 0.356,-0.52 -0.49067,-1.01333 -0.84267,-0.49333 -1.364,2 -2.24933,4.26667 -3.596,6.26667 -1.55467,2.31999 -3.75867,4.26666 -5.65333,6.30666 -0.40134,0.42667 -0.78934,0.86667 -1.17467,1.32 0.61867,-0.96 1.236,-1.90667 1.84667,-2.86667 1.62666,-2.57333 3.15866,-5.18666 4.47466,-7.91999 0.84934,-1.77334 0.924,-4.29334 2.26667,-5.77334 0.42267,-0.45333 -0.26533,-1.14666 -0.69067,-0.68 -1.04133,1.13334 -1.36533,2.88 -1.816,4.32 -0.87066,2.76 -2.47066,5.29334 -3.96266,7.76 -3.06267,5.06667 -6.39867,9.97333 -9.79867,14.81333 -3.496,4.97334 -7.12,9.90667 -11.16267,14.45334 -1.708,1.92 -3.48533,3.78666 -5.26133,5.64 1.52667,-1.98667 3.10933,-3.92 4.62933,-5.89334 4.024,-5.24 7.66267,-10.81333 11.024,-16.49333 3.15734,-5.33333 5.95734,-10.86667 8.18267,-16.65333 2.20933,-5.74667 3.80667,-11.70667 5.27333,-17.68 0.0267,-0.0267 0.0573,-0.0533 0.08,-0.0933 0.24267,-0.37334 0.30267,-0.41334 0.35734,-0.8 0.0387,-0.26667 -0.064,-0.50667 -0.34134,-0.6 -0.0667,-0.0267 -0.13466,-0.04 -0.20133,-0.0667 -0.24667,-0.08 -0.54133,0.0933 -0.60133,0.34667 -1.47867,6.06666 -3.1,12.10666 -5.264,17.98666 -2.27734,6.17333 -5.344,12.02667 -8.69334,17.68 -3.24266,5.48 -6.81066,10.8 -10.65866,15.88 -0.12534,0.16 -0.25467,0.32 -0.38,0.48 4.12266,-6.62667 7.83066,-13.45333 10.736,-20.70667 3.064,-7.66666 5.01466,-15.73333 6.45066,-23.83999 0.65867,-3.72 1.212,-7.48 1.53867,-11.24 0.23867,-2.73334 -0.468,-5.98667 0.60133,-8.57334 0.24,-0.57333 -0.704,-0.82666 -0.94133,-0.25333 -0.92667,2.24 -0.54,5.10667 -0.57867,7.46667 -0.0653,3.88 -0.8,7.81333 -1.43866,11.62666 -1.36267,8.13334 -3.35867,16.2 -6.32134,23.90667 -2.984,7.76 -7.04933,14.97333 -11.436,22.01333 -2.14933,3.44 -4.38933,6.82667 -6.772,10.12 -0.65733,0.90667 -1.488,1.76 -2.3,2.64 1.42667,-2.02667 2.928,-4 4.276,-6.06667 2.724,-4.2 4.74667,-8.86666 6.64134,-13.46666 4.06666,-9.89334 7.74,-19.97334 10.09866,-30.41333 4.972,-22.01334 4.244,-44.65334 4.23467,-67.05334 0,-0.64 -0.976,-0.64 -0.976,0 0.009,22.12 0.64667,44.33334 -4.04933,66.10667 -2.21334,10.25333 -5.85867,20.08 -9.732,29.81333 -0.66,1.66667 -1.34934,3.32 -2.076,4.96 3.65333,-9.82667 7.02666,-19.78667 9.26266,-30.04 4.84667,-22.24 2.39467,-45.05333 2.36667,-67.6 -0.001,-0.62666 -0.97733,-0.62666 -0.976,0 0.0267,22.25334 2.36533,44.68 -2.18667,66.65334 -2.128,10.27999 -5.53466,20.23999 -9.16266,30.07999 -1.73734,4.69334 -3.95334,9 -6.70134,13.18667 -2.68266,4.09333 -5.63333,8 -8.232,12.14667 -0.33466,0.53333 0.51067,1.02666 0.84267,0.49333 0.56933,-0.90667 1.15333,-1.8 1.744,-2.69333 0.14,0.34666 0.65867,0.52 0.85867,0.0933 0.24266,-0.52 0.50533,-1.01333 0.77733,-1.52 -0.0133,0.0533 -0.0307,0.12 -0.0427,0.17333 -0.12666,0.61334 0.81467,0.86667 0.94134,0.25334 0.32533,-1.57334 1.36,-2.97334 2.528,-4.28 0.044,0.0267 0.0893,0.0533 0.13866,0.0667 -0.17866,0.53334 0.592,0.97334 0.86267,0.42667 0.088,-0.17333 0.188,-0.34667 0.27867,-0.52 0.21333,0.14667 0.52533,0.16 0.69733,-0.13333 2.61067,-4.29334 6.672,-7.45334 9.948,-11.21334 3.696,-4.24 7.04,-8.85333 10.38133,-13.37333 3.512,-4.76 6.696,-9.86667 10.73334,-14.2" style="fill:#577c69;fill-opacity:1;fill-rule:nonzero;stroke:none;stroke-width:0.133333"/></g></svg>