<svg version="1.1" id="svg1" width="2000" height="2579.9468" viewBox="56.94974381070126 2265.2994500002314 181.32557774345042 99.12504893403775" sodipodi:docname="styletrees.svg" inkscape:version="1.4.2 (f4327f4, 2025-05-13)" xmlns:inkscape="http://www.inkscape.org/namespaces/inkscape" xmlns:sodipodi="http://sodipodi.sourceforge.net/DTD/sodipodi-0.dtd" xmlns="http://www.w3.org/2000/svg" xmlns:svg="http://www.w3.org/2000/svg"><defs id="defs1"/><g><path id="path1332" d="m 234.51066,2266.68 c -0.716,0.7734 -1.43333,1.5467 -2.14933,2.32 -0.35867,-0.067 -0.71867,-0.1333 -1.07867,-0.2 -0.012,0.4134 -0.024,0.8267 -0.0347,1.24 -3.30133,3.48 -6.62533,6.9734 -9.984,10.4267 -2.74,1.2667 -6.23866,2.9867 -9.89733,4.32 -5.28133,-1.2667 -10.452,-2.8933 -15.61733,-4.5733 -0.816,-0.2667 -1.16267,1.0133 -0.35333,1.28 4.51333,1.4666 9.03199,2.8933 13.62266,4.0666 -4.26933,1.3067 -8.588,1.84 -12.04533,0.28 -1.55467,-0.6933 -2.86133,1.6534 -1.296,2.36 2.46533,1.1067 5.112,1.4134 7.816,1.2134 -2.88134,1.4266 -5.54,3.2933 -8.53867,4.5066 -0.78266,0.32 -0.44133,1.6 0.352,1.28 3.98934,-1.6133 7.39733,-4.4 11.49733,-5.7466 0.31867,-0.1067 0.45334,-0.3734 0.456,-0.6267 2.95334,-0.68 5.90934,-1.7867 8.71334,-3 -5.87734,5.88 -11.908,11.5867 -18.204,16.92 -0.124,-0.72 -1.02667,-1.2 -1.688,-0.9867 -4.40133,1.4534 -8.83467,2.3734 -13.30933,2.7734 -4.86534,-2.04 -10.07867,-3.16 -14.944,-5.24 -0.77734,-0.3334 -1.45467,0.8133 -0.67067,1.1466 4.04933,1.72 8.34667,2.8 12.48,4.2934 -3.64667,0.12 -7.32133,-0.093 -11.03333,-0.6667 -1.67867,-0.2667 -2.348,2.3467 -0.65867,2.6 4.15733,0.6533 8.27467,0.8667 12.36,0.6933 -1.068,0.4267 -2.12933,0.88 -3.20667,1.2267 -3.18133,1.0267 -6.40133,1.92 -9.56133,3.0267 -0.80267,0.28 -0.45733,1.56 0.35333,1.28 2.76267,-0.9734 5.56534,-1.8 8.364,-2.6534 2.67734,-0.8266 5.92667,-2.6133 8.70534,-2.8533 0.32,-0.027 0.51866,-0.24 0.59733,-0.48 3.12933,-0.4133 6.24,-1.0667 9.332,-1.9733 -0.009,0.08 -0.0253,0.16 -0.036,0.24 -7.61333,6.2266 -15.63467,11.88 -24.248,16.64 0.0227,-0.72 -0.71733,-1.28 -1.37867,-1.3334 -2.77066,-0.2 -5.80133,-0.067 -8.796,-0.1333 -3.93733,-2.4933 -6.81866,-6.3067 -8.948,-10.4267 -0.39333,-0.76 -1.53866,-0.08 -1.14533,0.6667 1.89467,3.6667 4.39467,7.1067 7.63733,9.6533 -4.73733,-0.3466 -9.176,-1.6133 -12.09866,-6.0133 -0.95334,-1.4267 -3.22667,-0.04 -2.26534,1.4 2.35867,3.56 5.464,5.36 8.924,6.3067 -3.35733,0.8933 -6.77066,1.48 -10.248,1.5866 -0.85333,0.027 -0.856,1.36 0,1.3334 2.50267,-0.093 4.92934,-0.4134 7.38667,-0.88 1.58,-0.3067 3.13733,-0.7334 4.68933,-1.1467 0.328,-0.093 0.64134,-0.2133 0.94934,-0.32 3.87066,0.5733 8.03066,0.4267 12.01866,0.5733 -0.0867,0.2134 -0.184,0.4267 -0.272,0.64 -3.484,1.7867 -7.064,3.4267 -10.75733,4.8934 -7.56667,3 -15.34533,5.2133 -23.25493,6.8533 -2.012,-1.5867 -3.99694,-3.2133 -5.9532,-4.8667 -0.36094,-1.9866 -1.3552,-3.6933 -2.38694,-5.4666 -1.80933,-3.1334 -3.01146,-6.56 -4.8412,-9.68 -0.43226,-0.7467 -1.57906,-0.08 -1.14573,0.6666 1.33427,2.28 2.41093,4.6667 3.50573,7.0667 0.89787,1.96 2.28174,3.8533 3.0728,5.9067 -3.86346,-3.3334 -7.626,-6.7867 -11.2776,-10.3734 -1.23013,-1.2133 -3.07186,0.72 -1.8416,1.9334 3.15467,3.1066 6.39267,6.1066 9.70414,9.0133 -3.69787,-1.2267 -7.28747,-2.8 -11.03694,-3.9067 -0.82293,-0.24 -1.17186,1.04 -0.3532,1.28 4.69947,1.3867 9.14374,3.5067 13.86987,4.7734 1.70413,1.4666 3.42653,2.9066 5.1744,4.3066 -11.68227,2.16 -23.6192,3.12 -35.572932,3.5067 -5.236934,-0.76 -10.19,-2.2133 -14.840533,-4.3467 -2.2604,-4.24 -4.822934,-8.2933 -7.459467,-12.3066 -0.466666,-0.72 -1.616133,-0.053 -1.1452,0.6666 2.287467,3.48 4.5124,7 6.541067,10.64 -3.459334,-1.7733 -6.7448,-3.9466 -9.826,-6.5333 -1.299467,-1.0933 -3.186533,0.7733 -1.875467,1.88 2.434267,2.04 4.9916,3.8267 7.647334,5.4133 -3.0964,0.92 -6.4156,0.6534 -9.607867,1.1067 -0.844267,0.12 -0.483867,1.4 0.352667,1.28 3.604133,-0.52 7.323466,-0.1067 10.756266,-1.52 2.858267,1.5733 5.838,2.8933 8.937467,3.92 -7.919734,0.067 -15.8136,-0.027 -23.606266,-0.12 -2.5692,-0.04 -2.489067,4.0133 0.0724,4.04 9.369866,0.1067 18.804666,0.1867 28.229732,-0.027 -2.181333,1.76 -4.362,3.52 -6.5432,5.2667 -3.995866,0.1867 -7.865733,1.2133 -11.831866,1.7333 -0.835867,0.1067 -0.846267,1.44 0,1.32 3.3568,-0.44 6.656266,-1.24 10.014666,-1.5866 -3.844266,3.0933 -7.687999,6.1866 -11.532399,9.28 -1.333334,1.0666 0.5568,2.9333 1.876133,1.88 4.2468,-3.4267 8.494266,-6.84 12.7416,-10.2534 -0.442667,4.0934 -1.046267,8.1734 -1.800534,12.2267 -0.154666,0.84 1.123467,1.2 1.279734,0.36 0.846933,-4.56 1.5156,-9.1467 1.975466,-13.76 2.722933,-2.1867 5.445333,-4.3867 8.1688,-6.5733 13.319329,-0.4267 26.589599,-1.5467 39.602129,-4.08 0.17134,1.52 -0.84066,3.0133 -2.0448,4.6 -0.0959,-0.027 -0.20053,-0.04 -0.3172,-0.027 -4.57973,0.7733 -8.6084,3.1733 -13.0448,4.4267 -0.82186,0.2266 -0.4724,1.5066 0.35214,1.28 4.05093,-1.1467 7.7676,-3.24 11.86813,-4.1734 -0.21453,0.2934 -0.42653,0.5867 -0.6276,0.88 -2.82293,4.2134 -5.77187,8.3334 -8.76147,12.4267 -1.02026,1.4 1.3104,2.6933 2.3152,1.32 2.91347,-3.9867 5.74574,-8.0267 8.51454,-12.12 -0.006,3.6667 -0.0396,7.32 -0.2188,10.9733 -0.0416,0.8534 1.28546,0.8534 1.32666,0 0.21094,-4.3066 0.22187,-8.6266 0.22134,-12.9466 1.51146,-2.2534 3.01,-4.52 4.478,-6.8134 0.12,-0.1866 0.16133,-0.44 0.156,-0.6933 7.88266,-1.7333 15.66133,-4 23.284,-7.0267 1.65333,-0.6533 3.28,-1.36 4.892,-2.08 -0.76534,1.5867 -1.58267,3.1467 -2.428,4.6934 -1.544,0.3733 -2.69734,1.36 -3.98267,2.3333 -2.17067,1.6533 -4.76,2.8 -7.056,4.2667 -0.71733,0.4666 -0.0533,1.6133 0.66933,1.1466 1.91467,-1.2266 3.91067,-2.3066 5.856,-3.48 1.18,-0.7066 2.28667,-1.8533 3.55067,-2.5333 -2.34933,4.0933 -4.98933,8.0133 -7.928,11.7733 -1.05467,1.36 0.84533,3.24 1.90933,1.88 3.02267,-3.8666 5.728,-7.9066 8.152,-12.0933 0.82,3.96 0.484,8.1867 -0.35333,12.1067 -0.17867,0.84 1.1,1.2 1.27867,0.36 0.984,-4.6 1.316,-9.5734 0.0333,-14.1467 1.45333,-2.6267 2.78933,-5.3333 4.02133,-8.0933 9.112,-4.5067 17.59467,-10.0934 25.60267,-16.3867 -0.38933,1.92 -0.84933,3.8267 -1.36,5.7067 -2.684,2.6933 -5.26667,5.4933 -8.18,7.9466 -0.65467,0.56 0.28933,1.4934 0.93867,0.9467 2.29466,-1.9467 4.38,-4.0933 6.47333,-6.24 -1.11733,3.68 -2.45467,7.2933 -4.04267,10.84 -0.704,1.5733 1.60667,2.8933 2.31467,1.32 1.48133,-3.3067 2.75467,-6.6667 3.84133,-10.0667 0.34267,4.6267 1.468,9.1867 1.55734,13.84 0.016,0.8534 1.34266,0.8667 1.32666,0 -0.11866,-6.1466 -2.03866,-12.16 -1.56933,-18.3333 0.74267,-2.7867 1.348,-5.6267 1.83867,-8.4933 7.97466,-6.5334 15.51066,-13.6934 22.78933,-21.0534 -0.71067,4.6534 -1.54534,9.2667 -2.49734,13.8667 -3.85866,2.7867 -6.29466,7.3733 -9.53333,10.7733 -0.59067,0.6267 0.34667,1.56 0.93867,0.9334 2.836,-2.9734 5.04,-6.92 8.172,-9.68 -1.50934,7.0133 -3.296,13.96 -5.37467,20.84 -0.504,1.6666 2.07067,2.3333 2.57067,0.68 2.25466,-7.4667 4.168,-15.0134 5.75733,-22.6267 1.05867,5.44 0.888,10.9867 1.008,16.52 0.0187,0.8533 1.34533,0.8533 1.32667,0 -0.13334,-6.1467 0.0827,-12.3067 -1.35067,-18.3067 -0.072,-0.3066 -0.29067,-0.4533 -0.52667,-0.48 1.04,-5.2 1.924,-10.44 2.65467,-15.72 1.76,-1.8133 3.48933,-3.64 5.22667,-5.4533 0.248,0.027 0.51466,-0.013 0.78933,-0.2 1.56267,-1.0133 3.164,-1.9467 4.82267,-2.8 1.26,-0.6533 2.92666,-1.12 3.72266,-2.4 1.52,-2.4667 0.82934,-5.04 -1.048,-7.0667 -0.48,-0.5066 -1.40533,-0.5066 -1.88533,0" style="fill:#577c69;fill-opacity:1;fill-rule:nonzero;stroke:none;stroke-width:0.133333"/></g></svg>