<svg version="1.1" id="svg1" width="2000" height="2579.9468" viewBox="1165.9252105554442 763.5437069807837 4.0882416948927585 15.01970801925006" sodipodi:docname="styletrees.svg" inkscape:version="1.4.2 (f4327f4, 2025-05-13)" xmlns:inkscape="http://www.inkscape.org/namespaces/inkscape" xmlns:sodipodi="http://sodipodi.sourceforge.net/DTD/sodipodi-0.dtd" xmlns="http://www.w3.org/2000/svg" xmlns:svg="http://www.w3.org/2000/svg"><defs id="defs1"/><g><path id="path585" d="m 1168.848,764.76008 c -2.8614,3.10667 -1.7214,9.32 -1.5827,13.13333 0.032,0.89334 1.4133,0.89334 1.3813,0 -0.067,-1.81333 -0.1626,-3.62666 -0.1653,-5.45333 0,-2.05333 -0.148,-5.08 1.3427,-6.70667 0.6026,-0.65333 -0.372,-1.62666 -0.976,-0.97333 v 0" style="fill:#577c69;fill-opacity:1;fill-rule:nonzero;stroke:none;stroke-width:0.133333"/><path id="path585" d="m 1168.848,764.76008 c -2.8614,3.10667 -1.7214,9.32 -1.5827,13.13333 0.032,0.89334 1.4133,0.89334 1.3813,0 -0.067,-1.81333 -0.1626,-3.62666 -0.1653,-5.45333 0,-2.05333 -0.148,-5.08 1.3427,-6.70667 0.6026,-0.65333 -0.372,-1.62666 -0.976,-0.97333 v 0" style="fill:#577c69;fill-opacity:1;fill-rule:nonzero;stroke:none;stroke-width:0.133333"/></g></svg>