<svg version="1.1" id="svg1" width="2000" height="2579.9468" viewBox="1053.2802652651785 1081.933425000055 3.832369985531386 29.39449701706758" sodipodi:docname="styletrees.svg" inkscape:version="1.4.2 (f4327f4, 2025-05-13)" xmlns:inkscape="http://www.inkscape.org/namespaces/inkscape" xmlns:sodipodi="http://sodipodi.sourceforge.net/DTD/sodipodi-0.dtd" xmlns="http://www.w3.org/2000/svg" xmlns:svg="http://www.w3.org/2000/svg"><defs id="defs1"/><g><path id="path1133" d="m 1056.568,1110.3601 c -1.2454,-1.8934 -0.9214,-3.8667 -0.6427,-5.96 0.304,-2.28 0.3453,-4.6 0.5147,-6.8934 0.344,-4.64 0.736,-9.2666 0.664,-13.9333 -0.013,-0.8533 -1.3467,-0.8533 -1.3334,0 0.085,5.5067 -0.4666,10.9733 -0.844,16.4533 -0.2413,3.5067 -1.576,7.88 0.4907,11 0.472,0.7067 1.6267,0.04 1.1507,-0.6666 v 0" style="fill:#577c69;fill-opacity:1;fill-rule:nonzero;stroke:none;stroke-width:0.133333"/><path id="path1133" d="m 1056.568,1110.3601 c -1.2454,-1.8934 -0.9214,-3.8667 -0.6427,-5.96 0.304,-2.28 0.3453,-4.6 0.5147,-6.8934 0.344,-4.64 0.736,-9.2666 0.664,-13.9333 -0.013,-0.8533 -1.3467,-0.8533 -1.3334,0 0.085,5.5067 -0.4666,10.9733 -0.844,16.4533 -0.2413,3.5067 -1.576,7.88 0.4907,11 0.472,0.7067 1.6267,0.04 1.1507,-0.6666 v 0" style="fill:#577c69;fill-opacity:1;fill-rule:nonzero;stroke:none;stroke-width:0.133333"/></g></svg>