<svg version="1.1" id="svg1" width="2000" height="2579.9468" viewBox="694.9999799999998 1858.2855704921028 13.463703745650037 13.692728422510982" sodipodi:docname="styletrees.svg" inkscape:version="1.4.2 (f4327f4, 2025-05-13)" xmlns:inkscape="http://www.inkscape.org/namespaces/inkscape" xmlns:sodipodi="http://sodipodi.sourceforge.net/DTD/sodipodi-0.dtd" xmlns="http://www.w3.org/2000/svg" xmlns:svg="http://www.w3.org/2000/svg"><defs id="defs1"/><g><path id="path1389" d="m 705.02798,1871.1467 c 1.19734,-0.9066 1.59334,-1.2266 2.47867,-2.4133 0.90933,-1.2267 1.22267,-3.4267 0.71333,-4.8267 -0.60133,-1.6533 -1.348,-2.6533 -2.784,-3.6666 -1.06,-0.7467 -2.20533,-0.7867 -3.436,-0.9334 -1.48666,-0.1733 -3.23066,0.7467 -4.24266,1.76 -1.12,1.12 -1.75734,2.6534 -1.75734,4.24 0,1.5867 0.63734,3.12 1.75734,4.24 0.40533,0.3067 0.80933,0.6267 1.21466,0.9334 0.936,0.5466 1.94534,0.8266 3.028,0.8266 0.0627,0 0.12667,0.013 0.18934,0.027 -0.53067,-0.08 -1.06267,-0.1467 -1.59467,-0.2267 0.0453,0.013 0.0907,0.027 0.136,0.04 -0.47733,-0.2 -0.956,-0.4 -1.43333,-0.6 0.0267,0.013 0.0547,0.04 0.0813,0.053 -0.91867,-1.1867 -1.83867,-2.3867 -2.75733,-3.5867 0.009,0.027 0.0187,0.053 0.0267,0.08 0,-1.0667 0,-2.12 0,-3.1867 -0.008,0.027 -0.0173,0.053 -0.0267,0.093 0.20133,-0.48 0.40266,-0.96 0.60533,-1.44 -0.028,0.04 -0.0547,0.08 -0.0813,0.1066 0.312,-0.4 0.62533,-0.8 0.93733,-1.2133 -0.0453,0.04 -0.0907,0.093 -0.13467,0.1333 0.404,-0.32 0.80934,-0.6266 1.21334,-0.9466 -0.0627,0.053 -0.12667,0.1066 -0.18934,0.1466 -0.40533,0.32 -0.80933,0.6267 -1.21466,0.9467 -0.744,0.7467 -1.25734,1.6267 -1.54267,2.64 -0.42667,1.5467 -0.20667,3.24 0.604,4.6267 0.78667,1.3466 2.08667,2.3466 3.58667,2.76 1.39466,0.3866 3.412,0.3066 4.62266,-0.6134 v 0" style="fill:#577c69;fill-opacity:1;fill-rule:nonzero;stroke:none;stroke-width:0.133333"/></g></svg>