<svg version="1.1" id="svg1" width="2000" height="2579.9468" viewBox="1233.2248871688191 669.2274652317601 3.527327979472375 18.455949768245546" sodipodi:docname="styletrees.svg" inkscape:version="1.4.2 (f4327f4, 2025-05-13)" xmlns:inkscape="http://www.inkscape.org/namespaces/inkscape" xmlns:sodipodi="http://sodipodi.sourceforge.net/DTD/sodipodi-0.dtd" xmlns="http://www.w3.org/2000/svg" xmlns:svg="http://www.w3.org/2000/svg"><defs id="defs1"/><g><path id="path614" d="m 1234.2466,671.09341 c 0.6107,2.56 0.4014,5.14667 0.532,7.76 0.1387,2.72 0.5334,5.42667 0.5934,8.16 0.019,0.89334 1.4,0.89334 1.38,0 -0.059,-2.73333 -0.3867,-5.44 -0.592,-8.16 -0.2067,-2.74666 0.06,-5.42666 -0.5827,-8.13333 -0.2067,-0.86667 -1.5373,-0.49333 -1.3307,0.37333 v 0" style="fill:#577c69;fill-opacity:1;fill-rule:nonzero;stroke:none;stroke-width:0.133333"/><path id="path614" d="m 1234.2466,671.09341 c 0.6107,2.56 0.4014,5.14667 0.532,7.76 0.1387,2.72 0.5334,5.42667 0.5934,8.16 0.019,0.89334 1.4,0.89334 1.38,0 -0.059,-2.73333 -0.3867,-5.44 -0.592,-8.16 -0.2067,-2.74666 0.06,-5.42666 -0.5827,-8.13333 -0.2067,-0.86667 -1.5373,-0.49333 -1.3307,0.37333 v 0" style="fill:#577c69;fill-opacity:1;fill-rule:nonzero;stroke:none;stroke-width:0.133333"/></g></svg>