<svg version="1.1" id="svg1" width="2000" height="2579.9468" viewBox="409.5463773548532 298.02580231613666 111.5863056693641 73.07159915058003" sodipodi:docname="styletrees.svg" inkscape:version="1.4.2 (f4327f4, 2025-05-13)" xmlns:inkscape="http://www.inkscape.org/namespaces/inkscape" xmlns:sodipodi="http://sodipodi.sourceforge.net/DTD/sodipodi-0.dtd" xmlns="http://www.w3.org/2000/svg" xmlns:svg="http://www.w3.org/2000/svg"><defs id="defs1"/><g><path id="path13" d="m 485.82799,313.26676 c 0.0587,0 0.11866,0 0.17866,0 -0.008,0.0267 -0.016,0.0533 -0.02,0.08 -0.052,-0.0267 -0.10533,-0.0533 -0.15866,-0.08 z m 72.79466,-14.21334 c -21.704,7.36 -44.42,11.12 -67.25333,12.52 -0.448,0.0267 -0.57067,0.53334 -0.376,0.8 -1.55867,-0.0133 -3.11733,-0.04 -4.676,-0.0667 -1.10267,-0.25334 -2.23067,-0.41334 -3.40533,-0.41334 -0.15734,0 -0.27467,0.0667 -0.35334,0.14667 -0.748,-0.64 -1.492,-1.29333 -2.22933,-1.94667 -0.468,-0.42666 -1.16133,0.26667 -0.69067,0.68 14.168,12.62667 30.19067,23.88 49.296,27.05334 0.61467,0.10666 0.87867,-0.84 0.25867,-0.93334 -17.108,-2.85333 -31.704,-12.2 -44.72133,-23.21333 1.664,0.81333 3.31866,1.64 4.968,2.49333 3.31733,2.26667 6.85333,4.06667 10.53733,5.52 10.32,5.38667 20.80933,10.36 32.50267,11.94667 0.616,0.0933 0.88133,-0.85333 0.26,-0.93333 -9.388,-1.28 -17.99467,-4.74667 -26.36134,-8.85334 9.588,2.73334 19.84267,3.72 29.63067,4.88 0.624,0.0667 0.61733,-0.90666 0,-0.97333 -11.76533,-1.4 -24.29467,-2.52 -35.44533,-6.85333 -3.57334,-1.86667 -7.12667,-3.77334 -10.70134,-5.61334 -0.77866,-0.53333 -1.54533,-1.10666 -2.29866,-1.69333 0.0667,0.0133 0.132,0.0267 0.19733,0.0533 0.0533,0.0667 0.12133,0.13334 0.22533,0.17334 16.432,6.30666 33.772,10.56 51.468,10.21333 0.62934,-0.0133 0.63067,-1 0,-0.98667 -12.90133,0.26667 -25.6,-1.94666 -37.9,-5.61333 2.94934,0.32 5.93867,0.4 8.88,0.52 10.73467,0.42667 21.4,1.98667 32.15467,2.02667 0.62933,0.0133 0.62933,-0.96 0,-0.97334 -10.52,-0.04 -20.95333,-1.53333 -31.452,-2 -5.164,-0.22666 -10.32933,-0.34666 -15.36267,-1.65333 -2.05466,-0.53333 -4.01066,-1.32 -5.98666,-2.02667 0.636,0.0133 1.272,0.0267 1.90933,0.0267 0.0773,0.08 0.18133,0.14667 0.32267,0.16 18.76666,1.78667 37.83733,3.22667 56.40133,-0.96 0.61333,-0.14667 0.35333,-1.08 -0.26,-0.94667 -15.804,3.57334 -31.98533,3.01334 -48.024,1.66667 18.07333,-0.44 36.08667,-2.64 53.62667,-7.16 0.60933,-0.14667 0.35066,-1.09333 -0.26,-0.93333 -19.512,5.01333 -39.604,7.16 -59.716,7.2 22.10266,-1.52 44.076,-5.26667 65.09466,-12.38667 0.592,-0.2 0.33734,-1.14667 -0.26,-0.94667" style="fill:#577c69;fill-opacity:1;fill-rule:nonzero;stroke:none;stroke-width:0.133333"/><path id="path129" d="m 453.81599,311.60009 c -2.54533,12.36 -10.09067,23.65333 -17.712,33.48 -3.83333,4.94667 -8.26933,9.65333 -13.61867,12.97333 -3.66266,2.26667 -8.84533,3.08 -11.808,6.36 -0.42,0.46667 0.268,1.16 0.69067,0.68 0.15733,-0.17333 0.32933,-0.33333 0.50533,-0.49333 0.14267,0.24 0.50267,0.4 0.79467,0.17333 0.0613,-0.04 0.124,-0.08 0.18533,-0.13333 0.18267,0.41333 0.92267,0.33333 0.93467,-0.21333 0.003,-0.17334 0.0813,-0.32 0.216,-0.46667 0.596,0.0133 1.18933,0.0133 1.77733,0 0.0547,0.17333 0.20134,0.32 0.44534,0.30667 3.716,-0.13334 7.27466,1.21333 10.99333,1.06666 3.86267,-0.14666 7.84267,-1.36 11.48267,-2.57333 7.332,-2.42667 14.276,-6.14667 20.91733,-10.05333 5.896,-3.46667 11.27333,-7.89334 16.05066,-12.76 4.64534,-4.74667 8.76534,-10.2 11.28934,-16.37334 0.23866,-0.58666 -0.70534,-0.84 -0.94,-0.26666 -4.992,12.21333 -16.18934,22.26666 -27.35333,28.82666 -6.43467,3.78667 -13.15334,7.25334 -20.224,9.69334 -3.61467,1.24 -7.41067,2.18666 -11.22267,2.53333 -2.12933,0.2 -4.23333,-0.24 -6.34267,-0.6 0.0747,0 0.15334,0 0.224,0.0133 3.10534,0.16 5.556,-0.22666 8.54267,-1.17333 7.66533,-2.4 14.87067,-6.52 21.17467,-11.46667 12.62,-9.89333 24.77999,-20.76 33.16533,-34.6 0.32666,-0.54666 -0.51734,-1.02666 -0.84267,-0.49333 -8.49067,14.01333 -20.98933,25.30667 -33.95066,35.12 -6.672,5.05333 -14.248,9.04 -22.336,11.24 -1.27334,0.36 -2.55467,0.45333 -3.84267,0.45333 10,-2.64 18.93333,-9.56 26.63867,-16.09333 5.41733,-4.6 10.672,-9.42667 15.22933,-14.89333 2.22,-2.66667 4.22133,-5.50667 6.03866,-8.45334 2.10534,-3.42666 3.51467,-7.21333 5.908,-10.45333 0.37467,-0.52 -0.47333,-1 -0.84266,-0.49333 -2.124,2.88 -3.524,6.17333 -5.236,9.29333 -1.73334,3.16 -3.90267,6.13333 -6.16,8.93333 -4.352,5.4 -9.504,10.09334 -14.74667,14.61334 -8.72533,7.52 -19.12533,15.70666 -30.876,17.37333 -0.23066,-0.0133 -0.46,-0.0267 -0.68933,-0.0267 -0.0627,0 -0.132,-0.0133 -0.196,-0.0133 0.69333,-0.10667 1.276,-0.18667 1.548,-0.22667 2.53333,-0.48 4.78667,-1.46666 7.08667,-2.62666 6.32266,-3.18667 12,-7.70667 16.99866,-12.68 5.172,-5.14667 9.80267,-11 14.18,-16.81334 2.18534,-2.90666 4.308,-5.90666 6.15867,-9.02666 1.64667,-2.78667 2.33333,-6.10667 4.56666,-8.53334 0.42534,-0.46666 -0.264,-1.16 -0.69066,-0.69333 -2.03067,2.21333 -2.94933,5.13333 -4.22933,7.8 -1.60534,3.33333 -4.03467,6.41333 -6.22667,9.38667 -4.78667,6.50666 -10.01333,12.94666 -15.83733,18.54666 -5.58534,5.37334 -12.112,10.05334 -19.33067,12.94667 -1.412,0.56 -2.94533,0.78667 -4.45467,1.06667 0.88667,-0.41334 1.784,-0.81334 2.67467,-1.21334 2.72,-1.22666 5.14933,-2.73333 7.47867,-4.6 5.04666,-4.04 9.1,-9.18666 13.17866,-14.16 7.00534,-8.53333 15.992,-17.61333 17.804,-28.97333 0.0987,-0.61333 -0.84133,-0.88 -0.94133,-0.26667 -1.848,11.58667 -11.236,20.85334 -18.372,29.54667 -0.39867,0.49333 -0.79733,0.97333 -1.19733,1.46667 7.12933,-9.4 13.892,-20.12 16.28266,-31.72 0.12534,-0.61334 -0.81466,-0.88 -0.94133,-0.26667" style="fill:#577c69;fill-opacity:1;fill-rule:nonzero;stroke:none;stroke-width:0.133333"/><path id="path130" d="m 447.35866,310.50676 c -1.11467,1.72 -1.70267,3.65333 -2.27067,5.6 -0.78,2.68 -1.924,5.17333 -3.02533,7.73333 -2.19334,5.09333 -4.51334,10.04 -7.296,14.84 -2.66934,4.61333 -5.71734,9 -9.596,12.68 -3.916,3.72 -8.71734,6.36 -12.86667,9.8 -0.48533,0.4 0.20933,1.08 0.68933,0.68 4.15867,-3.44 8.87867,-6.13333 12.868,-9.78667 3.668,-3.36 6.53867,-7.52 9.09334,-11.76 2.83866,-4.72 5.23466,-9.6 7.392,-14.65333 0.98666,-2.32 2.12933,-4.58667 2.972,-6.94667 0.92666,-2.6 1.35866,-5.33333 2.88266,-7.69333 0.344,-0.53333 -0.50133,-1.01333 -0.84266,-0.49333" style="fill:#577c69;fill-opacity:1;fill-rule:nonzero;stroke:none;stroke-width:0.133333"/><path id="path131" d="m 443.45599,310.18676 c -3.892,7.22666 -6.08,15.24 -9.924,22.49333 -3.96267,7.48 -9.49467,13.97333 -14.47333,20.77333 -0.372,0.50667 0.47466,0.98667 0.84266,0.49334 4.86,-6.64 10.14667,-12.97334 14.156,-20.18667 4.1,-7.38667 6.24534,-15.65333 10.24134,-23.08 0.29733,-0.56 -0.54534,-1.05333 -0.84267,-0.49333" style="fill:#577c69;fill-opacity:1;fill-rule:nonzero;stroke:none;stroke-width:0.133333"/><path id="path132" d="m 439.17732,309.65342 c -2.56666,7.17334 -4.31466,15.28 -9.308,21.25334 -0.4,0.48 0.28667,1.17333 0.69067,0.69333 5.11333,-6.12 6.93067,-14.34667 9.55867,-21.69333 0.212,-0.58667 -0.73067,-0.84 -0.94134,-0.25334" style="fill:#577c69;fill-opacity:1;fill-rule:nonzero;stroke:none;stroke-width:0.133333"/><path id="path133" d="m 437.69466,366.05342 c 8.06,-2.10666 15.55333,-6.12 22.772,-10.17333 13.12266,-7.37333 26.28133,-16.32 33.60133,-29.92 0.29866,-0.54667 -0.544,-1.04 -0.84267,-0.49333 -7.14133,13.26666 -19.90267,22 -32.68533,29.25333 -7.164,4.05333 -14.52,7.92 -22.464,10.21333 -3.912,1.13334 -8.06933,1.89334 -12.14267,1.48 -3.928,-0.4 -7.66533,-1.74666 -11.65733,-1.49333 -0.62533,0.04 -0.62933,1.01333 0,0.97333 0.93867,-0.0667 1.87067,-0.0267 2.79733,0.0533 -0.0493,0.26666 0.0973,0.58666 0.45467,0.6 4.296,0.13333 8.344,1.74666 12.58,2.30666 3.88133,0.52 7.97467,-0.0667 11.78667,-0.82666 8.05333,-1.62667 15.72,-5.2 22.82666,-9.24 7.12667,-4.04 13.72667,-8.97334 19.91733,-14.33334 2.81467,-2.42666 5.56534,-4.94666 8.11067,-7.66666 1.86667,-1.98667 3.96933,-4.13334 5.22133,-6.58667 0.28534,-0.56 -0.556,-1.05333 -0.84266,-0.49333 -1.22,2.38666 -3.25867,4.44 -5.06934,6.4 -2.37466,2.56 -4.976,4.90666 -7.59866,7.21333 -6.088,5.36 -12.64134,10.18667 -19.64533,14.29333 -7.01467,4.09334 -14.56934,7.50667 -22.51067,9.32 -4.30667,0.98667 -8.90933,1.49334 -13.29333,0.78667 -0.348,-0.0667 -0.69334,-0.13333 -1.03867,-0.2 3.27067,0.0667 6.60933,-0.65333 9.72267,-1.46667" style="fill:#577c69;fill-opacity:1;fill-rule:nonzero;stroke:none;stroke-width:0.133333"/><path id="path134" d="m 500.45732,331.88009 c -1.92267,1.54667 -3.17067,3.76 -4.59067,5.74667 -1.91066,2.66666 -4.43733,5.01333 -6.79866,7.28 -4.744,4.56 -10.03467,8.38666 -15.68534,11.73333 -5.82133,3.44 -11.93866,6.38667 -18.32399,8.62667 -3.10534,1.09333 -6.288,2.02666 -9.47734,2.82666 -1.816,0.46667 -3.66,0.8 -5.524,1 -1.62133,0.17334 -3.17333,-0.0533 -4.768,0.4 -0.60533,0.16 -0.348,1.10667 0.26,0.93334 1.69867,-0.46667 3.48,-0.24 5.22134,-0.42667 1.712,-0.18667 3.4,-0.56 5.07066,-0.96 3.41734,-0.82667 6.80534,-1.89333 10.12,-3.06667 6.248,-2.18666 12.20533,-5.16 17.91333,-8.49333 5.55867,-3.25333 10.70134,-7.04 15.41067,-11.42667 2.352,-2.2 4.616,-4.52 6.69067,-6.98666 1.79333,-2.12 2.97466,-4.72 5.172,-6.49334 0.48933,-0.4 -0.20534,-1.08 -0.69067,-0.69333" style="fill:#577c69;fill-opacity:1;fill-rule:nonzero;stroke:none;stroke-width:0.133333"/><path id="path135" d="m 505.66265,335.45342 c -8.248,8.48 -16.79733,16.6 -27.156,22.48 -5.64933,3.2 -11.632,5.81334 -17.73599,8.01334 -2.63067,0.94666 -5.316,1.93333 -8.07467,2.42666 -2.42133,0.42667 -4.93333,0.57334 -7.11333,1.81334 -0.54667,0.30666 -0.0547,1.16 0.492,0.84 2.24133,-1.26667 4.952,-1.37334 7.44,-1.81334 3.00666,-0.53333 5.97733,-1.76 8.83466,-2.8 5.94667,-2.18666 11.728,-4.85333 17.23733,-7.97333 10.19867,-5.78667 18.65067,-13.94667 26.76534,-22.29333 0.43866,-0.45334 -0.25067,-1.14667 -0.68934,-0.69334" style="fill:#577c69;fill-opacity:1;fill-rule:nonzero;stroke:none;stroke-width:0.133333"/><path id="path136" d="m 487.74665,358.80009 c -8.05466,5.42667 -17.51466,8.86667 -27.08399,10.36 -0.62134,0.10667 -0.356,1.04 0.25866,0.94667 9.70267,-1.52 19.10933,-5.06667 27.31733,-10.46667 4.04534,-2.66667 7.58667,-5.88 10.716,-9.57333 3.26134,-3.84 6.176,-7.98667 10,-11.32 0.476,-0.41334 -0.21733,-1.09334 -0.68933,-0.68 -3.656,3.17333 -6.51867,7.10666 -9.59067,10.82666 -3.17866,3.85334 -6.78666,7.10667 -10.928,9.90667" style="fill:#577c69;fill-opacity:1;fill-rule:nonzero;stroke:none;stroke-width:0.133333"/><path id="path137" d="m 515.89599,339.52009 c 0.592,-0.2 0.33866,-1.13333 -0.26,-0.93333 -2.07467,0.70666 -2.808,2.86666 -3.96134,4.56 -1.86933,2.74666 -3.91866,5.33333 -6.132,7.81333 -4.00266,4.46667 -8.788,9.17333 -14.628,11.04 -0.59733,0.2 -0.34133,1.14667 0.25867,0.94667 5.13867,-1.65334 9.36933,-5.4 13.084,-9.18667 1.95867,-2 3.81733,-4.12 5.51467,-6.33333 0.94933,-1.24 1.85866,-2.50667 2.74533,-3.78667 0.94,-1.37333 1.70267,-3.54667 3.37867,-4.12" style="fill:#577c69;fill-opacity:1;fill-rule:nonzero;stroke:none;stroke-width:0.133333"/><path id="path138" d="m 520.22399,337.84009 c -1.452,2.61333 -2.428,5.49333 -4.44667,7.76 -1.56,1.74667 -4.01333,2.21333 -5.312,4.26667 -0.33733,0.53333 0.508,1.02666 0.84267,0.49333 1.38933,-2.2 4.29333,-2.93333 5.93466,-5 1.66267,-2.08 2.53734,-4.72 3.824,-7.04 0.30667,-0.54667 -0.53733,-1.04 -0.84266,-0.48" style="fill:#577c69;fill-opacity:1;fill-rule:nonzero;stroke:none;stroke-width:0.133333"/></g></svg>