<svg version="1.1" id="svg1" width="2000" height="2579.9468" viewBox="1245.6073258873166 649.1946125207428 3.556348247039068 14.111415097565214" sodipodi:docname="styletrees.svg" inkscape:version="1.4.2 (f4327f4, 2025-05-13)" xmlns:inkscape="http://www.inkscape.org/namespaces/inkscape" xmlns:sodipodi="http://sodipodi.sourceforge.net/DTD/sodipodi-0.dtd" xmlns="http://www.w3.org/2000/svg" xmlns:svg="http://www.w3.org/2000/svg"><defs id="defs1"/><g><path id="path640" d="m 1247.4306,650.54675 c -1.7693,3.45333 -0.2293,8.64 0.3907,12.26666 0.1507,0.86667 1.48,0.49334 1.3307,-0.37333 -0.32,-1.86667 -0.632,-3.73333 -0.8374,-5.62667 -0.1853,-1.70666 -0.5066,-3.97333 0.308,-5.57333 0.404,-0.78667 -0.7866,-1.49333 -1.192,-0.69333 v 0" style="fill:#577c69;fill-opacity:1;fill-rule:nonzero;stroke:none;stroke-width:0.133333"/><path id="path640" d="m 1247.4306,650.54675 c -1.7693,3.45333 -0.2293,8.64 0.3907,12.26666 0.1507,0.86667 1.48,0.49334 1.3307,-0.37333 -0.32,-1.86667 -0.632,-3.73333 -0.8374,-5.62667 -0.1853,-1.70666 -0.5066,-3.97333 0.308,-5.57333 0.404,-0.78667 -0.7866,-1.49333 -1.192,-0.69333 v 0" style="fill:#577c69;fill-opacity:1;fill-rule:nonzero;stroke:none;stroke-width:0.133333"/></g></svg>