<svg version="1.1" id="svg1" width="2000" height="2579.9468" viewBox="1269.3141296720366 708.3060718268633 3.553398915052867 14.363769483552119" sodipodi:docname="styletrees.svg" inkscape:version="1.4.2 (f4327f4, 2025-05-13)" xmlns:inkscape="http://www.inkscape.org/namespaces/inkscape" xmlns:sodipodi="http://sodipodi.sourceforge.net/DTD/sodipodi-0.dtd" xmlns="http://www.w3.org/2000/svg" xmlns:svg="http://www.w3.org/2000/svg"><defs id="defs1"/><g><path id="path453" d="m 1271.7013,710.44008 c 0.037,-0.0933 0.075,-0.17333 0.112,-0.26667 -0.284,0.16 -0.5667,0.32 -0.8493,0.48 0.8,0.13334 0.428,4.96 0.388,5.64 -0.1147,1.98667 -0.224,3.92 0.168,5.88 0.1746,0.86667 1.5053,0.50667 1.332,-0.37333 -0.5574,-2.77333 0,-5.62667 -0.04,-8.42667 -0.016,-1.13333 -0.041,-3.81333 -1.4814,-4.05333 -0.4106,-0.0667 -0.6906,0.10667 -0.8493,0.48 -0.037,0.0933 -0.075,0.18667 -0.1107,0.26667 -0.3453,0.82666 0.992,1.17333 1.3307,0.37333 v 0" style="fill:#577c69;fill-opacity:1;fill-rule:nonzero;stroke:none;stroke-width:0.133333"/><path id="path453" d="m 1271.7013,710.44008 c 0.037,-0.0933 0.075,-0.17333 0.112,-0.26667 -0.284,0.16 -0.5667,0.32 -0.8493,0.48 0.8,0.13334 0.428,4.96 0.388,5.64 -0.1147,1.98667 -0.224,3.92 0.168,5.88 0.1746,0.86667 1.5053,0.50667 1.332,-0.37333 -0.5574,-2.77333 0,-5.62667 -0.04,-8.42667 -0.016,-1.13333 -0.041,-3.81333 -1.4814,-4.05333 -0.4106,-0.0667 -0.6906,0.10667 -0.8493,0.48 -0.037,0.0933 -0.075,0.18667 -0.1107,0.26667 -0.3453,0.82666 0.992,1.17333 1.3307,0.37333 v 0" style="fill:#577c69;fill-opacity:1;fill-rule:nonzero;stroke:none;stroke-width:0.133333"/></g></svg>