<svg version="1.1" id="svg1" width="2000" height="2579.9468" viewBox="748.4850320355275 44.80011400000004 260.18794603881815 199.08423601282632" sodipodi:docname="styletrees.svg" inkscape:version="1.4.2 (f4327f4, 2025-05-13)" xmlns:inkscape="http://www.inkscape.org/namespaces/inkscape" xmlns:sodipodi="http://sodipodi.sourceforge.net/DTD/sodipodi-0.dtd" xmlns="http://www.w3.org/2000/svg" xmlns:svg="http://www.w3.org/2000/svg"><defs id="defs1"/><g><path id="path281" d="m 1167.272,315.25342 c -8.28,5.25334 -18.4187,7.73334 -27.9214,9.68 -3.6306,0.73334 -7.2893,1.32 -10.964,1.78667 2.416,-0.82667 4.7774,-1.86667 7.204,-2.62667 4.2654,-1.34666 8.468,-2.52 12.572,-4.34666 8.816,-3.90667 16.192,-9.94667 22.7227,-16.96 6.252,-6.70667 12.1907,-14.33334 17.0413,-22.12 2.4254,-3.88 3.9054,-8.30667 6.0654,-12.33334 0.5493,-1.02666 1.2346,-2.21333 1.7146,-3.44 -1.52,20.01334 -10.8373,39.21334 -28.4346,50.36 z m -59.6374,13.16 c -16.7093,0.77334 -33.7,0.94667 -50.204,-1.98666 0.32,-0.10667 0.304,-0.64 -0.087,-0.62667 -4.7907,0.18667 -10.548,-4.68 -14.3534,-7.28 -4.824,-3.29333 -8.884,-8.10667 -14.1453,-10.66667 -0.3853,-0.18666 -0.7227,0.38667 -0.3373,0.57334 3.0613,1.49333 5.4826,3.85333 8.0106,6.08 2.1974,1.93333 4.6587,3.58666 7.076,5.22666 2.5974,1.77334 5.904,4.41334 9.2814,5.8 -2.4374,-0.52 -4.8627,-1.10666 -7.2734,-1.78666 -17.4533,-4.92 -33.3706,-15.01334 -44.3066,-29.58667 -9.62269,-12.82667 -13.79736,-28.68 -13.25069,-44.49333 1.39733,10.42666 6.57867,19.97333 11.81333,29.01333 3.29466,5.69333 6.96796,11.12 10.80396,16.45333 1.6614,2.32 3.3587,4.58667 5.1547,6.8 2.0107,2.46667 4.5213,4.30667 6.624,6.66667 0.2867,0.32 0.7573,-0.16 0.4707,-0.48 -1.5654,-1.74667 -3.4747,-3.12 -5.0667,-4.85333 -2.1507,-2.34667 -4.0333,-4.92 -5.9027,-7.49334 -3.6186,-4.96 -7.0546,-10.02666 -10.2373,-15.28 -6.52532,-10.77333 -13.13199,-22.64 -13.35466,-35.53333 0.15334,-1.64 0.33867,-3.28 0.59334,-4.90666 1.04533,-6.70667 3.004,-13 5.676,-18.88 -1.412,6.42666 -0.91067,13.76 -0.64934,19.98666 0.39734,9.50667 2.07334,19.05333 5.964,27.78667 4.13336,9.26666 9.84396,17.81333 16.11866,25.74666 1.932,2.45334 3.872,4.89334 6.0227,7.14667 1.5106,1.58667 3.58,3.72 5.9346,3.74667 0.4294,0 0.4294,-0.66667 0,-0.66667 -2.8373,-0.0267 -5.3666,-3.38667 -7.084,-5.32 -2.292,-2.56 -4.412,-5.33333 -6.5026,-8.06667 -5.4467,-7.12 -10.128,-14.81333 -13.9134,-22.93333 -3.97996,-8.53333 -5.39062,-18.10667 -5.87329,-27.44 -0.384,-7.41333 -0.948,-16.6 1.77867,-23.66666 3.78662,-7.25334 8.70802,-13.84 14.50262,-19.72 -5.268,8.02666 -8.5253,18.41333 -9.8973,27.74666 -1.47599,10.05334 0.051,20.69334 1.8413,30.62667 1.8747,10.4 5.236,20.52 10.4494,29.73333 2.2613,3.98667 5.2053,7.52 8.5506,10.65333 3.0254,2.82667 6.884,6.37334 10.948,7.48 0.4147,0.12 0.5907,-0.52 0.1774,-0.64 -4.232,-1.16 -8.2734,-5.08 -11.416,-8.02666 -3.348,-3.13334 -6.016,-6.85334 -8.2667,-10.84 -4.9853,-8.8 -7.9213,-18.64 -9.8,-28.53334 -1.94,-10.21333 -3.192,-21.07999 -1.672,-31.41333 1.356,-9.24 4.9133,-19.66666 10.2427,-27.36 0.1266,-0.18666 0.032,-0.36 -0.1227,-0.44 4.596,-4.52 9.6853,-8.62666 15.168,-12.28 0.544,-0.36 1.1013,-0.69333 1.6493,-1.04 -0.3013,0.34667 -0.5946,0.70667 -0.8746,1.06667 -1.8067,2.34667 -3.6787,4.6 -5.5747,6.86667 -3.9053,4.68 -7.3227,9.74666 -10.036,15.21333 -5.5227,11.12 -6.3467,23.8 -4.6653,35.94667 1.8933,13.69333 6.1506,27.13333 10.908,40.06666 3.2666,8.89333 9.2306,16.09333 18.7266,18.30667 0.4187,0.0933 0.596,-0.54667 0.1774,-0.64 -10.6174,-2.46667 -15.9507,-10.97334 -19.264,-20.69334 -4.0174,-11.78666 -7.8827,-23.66666 -9.74,-36.02666 -1.876,-12.46667 -1.02,-25.13333 4.4333,-36.62667 2.432,-5.12 5.716,-9.82666 9.2507,-14.24 1.4093,-1.76 3.0053,-3.38666 4.3626,-5.18666 1.4467,-1.92 2.844,-4.37334 5.0374,-5.50667 0.1453,-0.08 0.164,-0.21333 0.1386,-0.33333 6.832,-4 14.0214,-7.01334 21.6307,-8.93334 -4.8573,4.06667 -9.6907,8.14667 -14.6133,12.13334 -4.984,4.02666 -9.848,8.2 -13.8587,13.22666 -7.4893,9.38667 -11.0587,21.96 -11.8853,33.77334 -0.9067,12.94666 2.1666,25.57333 6.584,37.63999 4.256,11.62667 10.072,21.48 19.6,29.54667 0.3253,0.28 0.8,-0.18667 0.4706,-0.46667 -9.4626,-8.01333 -15.1413,-17.74666 -19.428,-29.25333 -4.3613,-11.72 -7.104,-23.78666 -6.6213,-36.36 0.4933,-12.8 4.82,-26.14666 13.092,-36.05333 3.6467,-4.37333 8.12,-8.01333 12.5187,-11.58667 5.156,-4.18666 10.2293,-8.46666 15.328,-12.72 0.055,-0.0533 0.06,-0.10666 0.075,-0.16 2.6867,-0.62666 5.416,-1.14666 8.208,-1.52 2.896,-0.37333 5.8027,-0.6 8.7147,-0.72 -5.5333,1.68 -9.656,5.64 -14.0187,9.26667 -4.7413,3.94667 -9.6653,7.65333 -14.3466,11.68 -9.8107,8.41333 -16.796,18.25333 -20.5187,30.70667 -3.9613,13.25333 -3.3747,27.49333 0.3,40.71999 1.7507,6.30667 4.4227,12.29334 7.7227,17.92 1.724,2.94667 3.6973,5.73334 5.764,8.45334 2.124,2.78666 4.692,5.2 6.4653,8.25333 0.216,0.37333 0.792,0.0267 0.576,-0.34667 -2.8893,-4.94666 -7.2453,-9.01333 -10.432,-13.81333 -3.768,-5.68 -6.6547,-11.88 -8.7613,-18.34667 -4.24,-13.02666 -4.844,-27.09333 -1.6054,-40.39999 3.0627,-12.58667 9.916,-22.74667 19.4334,-31.33334 4.312,-3.89333 8.9466,-7.41333 13.4666,-11.05333 5.1867,-4.18667 9.984,-9.4 16.588,-11.22667 0.2707,-0.0667 0.2734,-0.36 0.136,-0.53333 5.9734,-0.22667 11.9627,0.0133 17.9227,0.57333 -2.6947,0.77334 -5.4293,1.38667 -8.04,2.45334 -2.944,1.2 -5.672,2.93333 -8.356,4.61333 -6.0973,3.84 -12.264,7.52 -18.0453,11.82667 -9.7774,7.28 -18.8387,16.14666 -24.0147,27.33333 -2.5907,5.6 -4.5933,12.21333 -5.2493,18.36 -0.8027,7.52 0.72,15.05333 1.7346,22.48 1.0054,7.36 3.54,13.37333 6.76,20 3.012,6.2 6.1814,12.10666 10.828,17.25333 0.288,0.32 0.7587,-0.14667 0.4707,-0.46667 -4.3227,-4.8 -7.3107,-10.2 -10.1467,-15.94666 -3.1933,-6.46667 -6.06,-12.62667 -7.1053,-19.82667 -1.008,-6.93333 -2.292,-13.94666 -2.096,-20.97333 0.2013,-7.16 2.8267,-15.01333 5.812,-21.48 5.12,-11.06667 14.6933,-19.72 24.312,-26.88 5.1373,-3.82667 10.6733,-7.02667 16.072,-10.46667 2.6773,-1.69333 5.3667,-3.34666 8.2173,-4.74666 3.352,-1.64 7.0454,-2.2 10.5654,-3.34667 0.011,0 0.012,-0.0133 0.021,-0.0133 3.776,0.38666 7.54,0.89333 11.2747,1.49333 1.8946,0.32 3.7933,0.64 5.6893,0.98667 -2.8947,0.04 -5.54,1.01333 -8.2973,1.88 -3.2814,1.02666 -6.6614,1.76 -9.9534,2.76 -6.6453,2.02666 -12.8413,4.94666 -18.8173,8.45333 -11.5187,6.78667 -20.7267,16.21333 -27.8627,27.46667 -3.604,5.68 -6.5013,11.82666 -8.32,18.32 -1.888,6.72 -1.6973,13.76 -0.7906,20.62666 0.956,7.24 2.8653,14.42667 4.9253,21.42667 1.8827,6.4 5.968,11.88 9.3107,17.56 0.2173,0.36 0.7933,0.0267 0.576,-0.34667 -3.1534,-5.34667 -6.7227,-10.42667 -8.88,-16.29333 -2.3347,-6.36 -3.7427,-13.36 -4.904,-20.01334 -1.2574,-7.21333 -1.5227,-14.58666 0.1386,-21.74666 1.504,-6.48 4.528,-12.57333 7.9294,-18.24 6.8013,-11.36 16.0346,-20.65333 27.268,-27.61333 5.8306,-3.6 12,-6.48 18.516,-8.61334 2.916,-0.96 5.888,-1.74666 8.856,-2.52 3.568,-0.93333 7.0413,-2.53333 10.788,-2.45333 0.3066,0.0133 0.3853,-0.33333 0.252,-0.52 2.7426,0.49333 5.4786,1.02667 8.2053,1.61333 -13.6147,3.13334 -26.0467,10.05334 -38.092,16.94667 -11.8253,6.76 -19.9253,17.09333 -26.468,28.85333 -6.82,12.25334 -9.8587,25.09334 -8.8333,39.12 0.5066,6.92 1.9506,13.76 4.1693,20.34667 0.8987,2.65333 1.464,7.6 4.1533,9.14666 0.3734,0.21334 0.7094,-0.36 0.336,-0.57333 -1.836,-1.05333 -2.4186,-4.18667 -3.0093,-6.04 -0.6547,-2.06667 -1.324,-4.12 -1.948,-6.2 -1.9893,-6.58667 -2.9347,-13.46667 -3.252,-20.33333 -0.64,-13.84 3.7893,-26.26667 10.6347,-38.08 6.6,-11.38667 15.0093,-20.34667 26.5253,-26.78667 11.6827,-6.53333 23.572,-13.06666 36.748,-15.94666 0.1267,-0.0267 0.184,-0.10667 0.212,-0.2 3.1627,0.69333 6.304,1.45333 9.4133,2.32 -10.98,4.48 -21.7853,10.36 -31.968,16.36 -11.504,6.78666 -20.5346,16.26666 -29.168,26.33333 -3.8893,4.53333 -7.364,8.88 -9.752,14.41333 -2.0866,4.82667 -3.3293,10.10667 -4.008,15.30667 -0.8586,6.6 -1.3826,13.36 -1.0693,20.01333 0.2467,5.25333 0.744,11.42667 3.0747,16.18667 0.1893,0.38666 0.764,0.0533 0.576,-0.33334 -2.6347,-5.38666 -2.9214,-12.4 -3.0734,-18.30666 -0.1586,-6.12 0.4214,-12.44 1.2947,-18.49334 0.792,-5.49333 2.308,-10.89333 4.628,-15.94666 2.488,-5.4 6.5547,-9.77333 10.408,-14.24 8.1187,-9.4 16.736,-17.92 27.4253,-24.36 4.9254,-2.96 10.076,-5.53333 15.1894,-8.16 5.7786,-2.96 11.456,-6.05333 17.4826,-8.48 4.9654,1.41333 9.8387,3.10667 14.5614,5.16 -5.5014,0 -10.756,1.82667 -15.844,3.78667 -5.824,2.24 -11.6307,4.54666 -17.32,7.10666 -11.9027,5.36 -23.7267,12.02667 -32.592,21.77334 -7.864,8.65333 -13.0027,19.50666 -16.4547,30.57333 -2.0013,6.41333 -3.1133,12.92 -3.6173,19.61333 -0.2694,3.6 -0.344,7.2 -0.6147,10.78667 -0.1747,2.32 -0.348,4.24 1.0613,6.18666 0.2494,0.34667 0.828,0.0133 0.576,-0.33333 -1.7013,-2.36 -0.9813,-5.29333 -0.836,-7.98667 0.176,-3.29333 0.3254,-6.58666 0.5734,-9.88 0.4946,-6.58666 1.852,-12.92 3.8146,-19.21333 3.5427,-11.37333 9.2147,-22.12 17.4014,-30.82666 8.1946,-8.70667 19.2453,-14.64 29.9693,-19.64 5.6347,-2.62667 11.444,-4.84 17.22,-7.12 5.528,-2.2 11.3107,-4.34667 17.3413,-4.17334 -1.604,0.82667 -5.1413,1.85334 -5.744,2.10667 -2.7013,1.14667 -5.316,2.45333 -7.9493,3.74667 -5.5507,2.73333 -11.1507,5.36 -16.6293,8.22666 -9.956,5.22667 -18.3694,11.50667 -25.4654,20.26667 -6.7426,8.33333 -12.7413,17.65333 -17.0053,27.49333 -3.768,8.69333 -7.4013,18.58667 -7.2827,28.26667 -0.368,2.05333 -0.6053,4.12 -0.68,6.16 -0.3106,0.10666 -0.292,0.62666 0.096,0.62666 0.069,0 0.1387,-0.0133 0.208,-0.0133 0,0 0.01,0 0.011,0 4.9067,-0.0933 9.728,-2.32 14.1587,-4.25333 5.956,-2.6 11.6253,-5.73334 17.1813,-9.09334 5.5507,-3.34666 10.6813,-7.29333 15.8893,-11.14666 4.976,-3.66667 10.1307,-7.02667 14.7774,-11.13333 8.7413,-7.72 14.6666,-18.01334 18.4386,-28.96 1.896,-5.50667 3.0507,-11.2 3.9614,-16.94667 0.6946,-4.37333 1.768,-9.04 0.756,-13.44 1.7506,0.90667 3.4706,1.88 5.1666,2.90667 -0.1986,24.58666 -8.5306,48.52 -26.5613,65.61333 -8.1693,7.74666 -17.7587,14 -27.8613,18.90666 -5.9334,2.89334 -12.1347,4.89334 -18.5534,6.37334 -6.5586,1.50666 -13.488,3.05333 -20.2386,2.96 -0.4307,0 -0.4307,0.66666 0,0.66666 6.468,0.0933 12.9533,-1.4 19.2506,-2.73333 6.2187,-1.30667 12.2614,-3.2 18.0547,-5.82667 10.9107,-4.94666 21.04,-11.73333 29.8187,-19.88 18.172,-16.83999 26.4626,-41.25333 26.7466,-65.67999 0.14,0.08 0.2827,0.16 0.4227,0.25333 1.468,0.92 2.9027,1.90667 4.3133,2.90667 -0.1586,0.0267 -0.316,0.0667 -0.4733,0.0933 -0.4227,0.0667 -0.244,0.70667 0.1773,0.64 0.776,-0.13333 1.428,8.06667 1.6574,9.18667 0.908,4.38666 1.1386,8.25333 0.4,12.68 -1.0934,6.58666 -2.0414,13.12 -4.3734,19.41333 -4.6706,12.6 -13.6986,24.01333 -23.2133,33.33333 -9.5547,9.37333 -22.0933,16.02667 -35.1733,18.72 -6.824,1.41333 -14.028,1.73333 -20.96,1.05333 -6.6467,-0.65333 -13.1614,-2.26666 -19.848,-1.02666 -0.4227,0.0667 -0.2427,0.72 0.1773,0.64 7.3333,-1.36 14.6333,0.69333 21.9427,1.25333 7.0453,0.54667 14.2973,-0.22667 21.1746,-1.77333 13.1147,-2.93334 25.3374,-10.46667 34.7307,-19.96 9.0427,-9.13334 17.116,-20.05333 21.812,-32.06667 2.7133,-6.93333 3.5027,-14.4 4.7613,-21.69333 0.4867,-2.81333 0.16,-5.62667 -0.324,-8.42667 -0.6546,-3.78666 -0.8466,-7.65333 -1.5653,-11.41333 3.5187,2.58667 6.8413,5.44 9.9467,8.52 0.8586,2.42667 0.3333,5.28 0.1093,7.78667 -0.3173,3.57333 -0.268,7.12 -0.7573,10.69333 -1.064,7.74667 -3.6,14.89333 -7.4574,21.68 -6.5493,11.53333 -14.396,22.4 -24.5333,31.04 -10.608,9.04 -22.956,13.81333 -36.5293,16.26666 -8.116,1.48 -16.3387,2.36 -24.5894,2.41334 -7.716,0.04 -15.3226,-1.6 -23.032,-1.42667 -0.4293,0.0133 -0.4306,0.68 0,0.66667 8.1134,-0.17334 16.1347,1.46666 24.264,1.41333 8.304,-0.0533 16.5894,-1.16 24.7467,-2.64 13.3373,-2.41333 25.1493,-7.52 35.612,-16.22667 10.5493,-8.77333 18.4573,-20.29333 25.1813,-32.11999 3.912,-6.89334 6.0734,-14.28 7.148,-22.12 0.44,-3.2 0.3547,-6.41334 0.6134,-9.64 0.18,-2.21334 0.5986,-4.62667 0.1613,-6.85334 2.3787,2.41334 4.62,4.97334 6.7147,7.64 -0.1027,0.12 -0.1427,0.30667 -0.011,0.45334 1.324,1.52 0.708,5.28 0.64,7.13333 -0.1133,3.12 -0.083,6.24 -0.2813,9.36 -0.5654,8.89333 -4.3214,16.25333 -9.104,23.58666 -4.296,6.58667 -8.2787,13.12 -13.92,18.68 -5.6387,5.56 -12.2214,10.13334 -19.084,14.04 -6.8614,3.90667 -14.076,6.8 -21.7814,8.52 -7.5133,1.69334 -15.2133,2.42667 -22.832,3.48 -4.572,0.62667 -9.1,1.52 -13.6826,2.08 -4.1387,0.49334 -8.248,0.12 -12.3747,-0.29333 -4.1173,-0.4 -13.532,0.84 -15.2453,-4.02667 -0.1427,-0.4 -0.7867,-0.22666 -0.6427,0.18667 1.428,4.04 7.1587,4.04 10.6973,4.17333 3.3867,0.13334 6.744,0.53334 10.1227,0.77334 4.684,0.34666 9.2653,-0.33334 13.8747,-1.08 8.928,-1.45334 17.9426,-2.34667 26.844,-3.96 8.6786,-1.56 16.632,-4.54667 24.3693,-8.73334 7.3413,-3.97333 14.176,-8.92 20.2067,-14.69333 6.2826,-6.01333 10.604,-13.49333 15.2773,-20.74667 4.6733,-7.25333 7.468,-14.53333 8.0173,-23.18666 0.2174,-3.42667 0.2027,-6.90667 0.2667,-10.34667 0.02,-1.09333 0.1253,-2.58666 -0.1653,-3.84 1.3413,1.78667 2.6213,3.62667 3.8266,5.50667 0,0.0133 -0.016,0.0267 -0.016,0.04 0.063,3.52 -1.2773,7.32 -1.7506,10.85333 -0.5627,4.18667 -1.3334,8.34667 -2.092,12.50667 -1.2494,6.86666 -2.7254,13.68 -5.0454,20.26666 -2.5093,7.12 -6.328,13.65334 -11.568,19.10667 -5.8226,6.05333 -13.4053,10.76 -20.6146,14.97333 -14.8174,8.66667 -31.7147,14.92 -48.8827,16.44 -8.4227,0.76 -17.0067,-0.25333 -25.1933,-2.25333 -4.5027,-1.09333 -8.8707,-2.69333 -13.0694,-4.65333 -1.688,-0.78667 -3.3053,-1.66667 -4.8533,-2.70667 -1.9893,-1.33333 -3.1947,-3.32 -5.028,-4.77333 -0.3347,-0.25334 -0.8093,0.21333 -0.472,0.48 2.8173,2.21333 4.6853,4.76 7.9413,6.54666 3.76,2.04 7.8467,3.54667 11.9254,4.81334 8.1066,2.52 16.8066,3.62666 25.2813,3.41333 17.648,-0.42667 35.2867,-7.12 50.5853,-15.53333 7.5427,-4.16 14.9734,-9.04 21.3627,-14.84 5.4653,-4.96 9.3587,-11.34667 12.1787,-18.10667 2.9293,-7.01333 4.512,-14.54667 5.912,-22 0.776,-4.13333 1.552,-8.26666 2.1306,-12.44 0.4987,-3.58666 1.744,-7.46666 1.892,-11.12 0.8534,1.37334 1.6787,2.76 2.456,4.17334 -0.072,4.48 -0.5093,8.93333 -0.8426,13.4 -0.34,4.58666 -0.164,9.16 -0.3534,13.74666 -0.3906,9.46667 -5.1013,18.17333 -9.0546,26.58667 -3.92,8.34666 -9.5774,14.28 -16.988,19.65333 -7.4667,5.41333 -15.804,9.06667 -24.0827,13.01333 -4.0947,1.94667 -8.0947,3.92 -12.4573,5.22667 -4.644,1.37333 -9.556,1.76 -14.356,2.22667 -9.8054,0.94666 -19.488,2.38666 -29.3547,1.56 -13.6333,-1.14667 -30.5413,-4.16 -37.8747,-17.17334 -0.2106,-0.37333 -0.7866,-0.04 -0.576,0.33334 6.9507,12.34666 22.1787,15.66666 35.168,17.17333 10.2054,1.18667 19.936,-0.0667 30.0907,-1 9.344,-0.85333 17.9373,-2.09333 26.4733,-6.18667 16.508,-7.90666 34.7374,-15.44 43.5907,-32.57333 2.0107,-3.88 3.668,-7.96 5.468,-11.94667 1.9053,-4.22666 3.596,-8.49333 4.288,-13.10666 0.6827,-4.53334 0.3533,-9.17333 0.4773,-13.74667 0.144,-5.33333 0.8507,-10.62666 1.0307,-15.96 0.252,0.48 0.5107,0.94667 0.7533,1.42667 2.3507,4.64 4.1867,9.57333 5.504,14.65333 0.089,3.78667 -1.4693,7.28 -2.804,10.74667 -1.464,3.8 -2.48,7.77333 -3.9186,11.58666 -3.3587,8.92 -8.2667,16.08 -14.2894,23.36 -5.2746,6.38667 -9.116,13.45334 -15.52,18.92 -6.744,5.73334 -14.74,10.25334 -22.7546,13.94667 -8.7,4 -17.4667,6.56 -27.0667,6.89333 -9.4267,0.33334 -18.6773,-0.12 -28.068,-0.92 -7.82,-0.65333 -15.8133,-0.69333 -23.3013,-3.30666 -8.456,-2.96 -13.732,-11.24 -20.3747,-16.8 -0.328,-0.28 -0.8013,0.18666 -0.472,0.46666 6.568,5.50667 11.6093,13.13334 19.6667,16.58667 6.8066,2.90667 14.6133,2.97333 21.8773,3.52 10.2853,0.76 20.3493,1.4 30.672,1.12 8.908,-0.24 17.1,-2.49333 25.2547,-6.04 8.2413,-3.58667 16.1386,-8.05333 23.244,-13.57333 7.3506,-5.72 11.6,-13.21334 17.3133,-20.34667 2.644,-3.29333 5.4787,-6.34667 7.7547,-9.93333 2.3173,-3.64 4.176,-7.56 5.8426,-11.53334 1.7547,-4.2 2.9334,-8.54666 4.432,-12.82666 1.1214,-3.2 2.5947,-6.30667 3.036,-9.65333 1.416,6.22666 2.0614,12.63999 1.92,19.03999 -0.224,-0.0667 -0.52,0.0933 -0.432,0.38667 0.9387,3.12 -2.3133,7.25333 -3.62,10.01333 -1.7946,3.77334 -3.3573,7.61334 -5.72,11.08 -5.2026,7.65334 -10.924,15.09334 -17.3093,21.8 -6.0533,6.34667 -13.028,11.46667 -20.992,15.16 -4,1.85334 -8.176,3.09334 -12.4107,4.28 -3.7493,1.04 -7.212,2.94667 -11.048,3.69334 -0.039,0.0133 -0.048,0.04 -0.077,0.0533 -5.5373,0.58667 -11.1013,0.96 -16.6547,1.21333 z M 1093.884,224.84009 c 7.3066,-8.36 14.564,-16.06666 23.7253,-22.44 7.14,-4.96 14.664,-9.30666 22.0653,-13.85333 -1.1706,1.18667 -2.3266,2.38667 -3.5226,3.49333 -4.2534,3.94667 -8.584,7.8 -12.9974,11.56 -7.8826,6.72 -14.1546,14.68 -20.2573,23 -6.3107,8.6 -13.1267,16.78667 -19.288,25.49333 -3.5547,5.02667 -7.0667,10.08 -10.8773,14.92 -2.3107,2.93334 -5.1094,5.4 -7.2,8.45334 0.015,-0.90667 -0.012,-2.04 -0.041,-3.09334 3.5934,-18 16.816,-34.29333 28.3934,-47.53333 z m 47.9373,-38.4 c -8.8467,5.53334 -17.9187,10.69334 -26.4587,16.72 -9.1506,6.46667 -16.2706,14.76 -23.62,23.12 -7.0933,8.05334 -13.448,16.72 -18.8306,26.02667 -3.1267,5.4 -5.86,11.49333 -7.4787,17.77333 0,-0.25333 0,-0.45333 0.012,-0.57333 0.3027,-3.12 1.0867,-6.18667 1.9347,-9.2 1.5746,-5.58667 3.632,-11.17334 6.02,-16.46667 4.624,-10.24 11.3546,-20.06666 18.7293,-28.52 7.44,-8.53333 16.9613,-14.09333 26.9573,-19.12 5.1494,-2.6 10.3787,-5.02666 15.536,-7.6 3.0107,-1.50666 6.1427,-2.74666 9.272,-3.97333 -0.7106,0.57333 -1.4026,1.17333 -2.0733,1.81333 z m 4.268,-2.34666 c 0.01,0 0.012,0 0.017,0 -0.01,0.26666 -0.017,0.52 -0.04,0.78666 0.01,-0.26666 0.017,-0.53333 0.023,-0.78666 z m -1.508,10.49333 c -0.8613,5.98667 -2.3547,11.85333 -4.4867,17.54667 -3.908,10.44 -10.556,18.94666 -18.4186,26.70666 -4.2414,4.18667 -8.9467,7.64 -13.8454,11 -4.6533,3.18667 -8.9773,6.85333 -13.4853,10.24 -4.6493,3.49333 -9.6493,6.41333 -14.684,9.30667 -4.0333,2.32 -8.6387,6.25333 -13.304,7.48 2.1373,-2.8 7.1013,-4.30667 9.82,-6.32 4.6587,-3.42667 8.8773,-7.44 13.132,-11.34667 8.6333,-7.93333 17.3533,-15.77333 25.644,-24.06666 7.6733,-7.68 14.9013,-15.86667 21.4493,-24.52 2.7907,-3.69334 5.1814,-7.64 6.92,-11.93334 0.54,-1.33333 0.9254,-2.70666 1.2587,-4.09333 z m -0.1653,-2.29333 c -0.5894,2.81333 -1.3667,5.44 -2.5227,8.08 -2.1187,4.82666 -5.3787,9.12 -8.648,13.21333 -6.892,8.64 -14.3267,16.76 -22.2187,24.49333 -8.0973,7.93334 -16.5613,15.48 -24.912,23.14667 -4.14,3.8 -8.4146,8.01333 -13.308,10.82666 -2.424,1.38667 -5.8466,2.46667 -7.364,5 -0.039,0.0133 -0.079,0.0133 -0.112,0.04 0.039,-0.0267 0.069,-0.12 0.096,-0.24 2.28,-3.85333 5.7827,-6.84 8.544,-10.34666 3.0787,-3.90667 5.9294,-7.98667 8.792,-12.05334 6.188,-8.78666 13.0187,-17.05333 19.3787,-25.70666 6.012,-8.17333 12.012,-16.34667 19.648,-23.10667 4.012,-3.56 8.1187,-7 12.088,-10.61333 2.6707,-2.42667 5.2373,-5.30667 7.9933,-7.84 0.9947,-0.61333 1.988,-1.24 2.9747,-1.86667 0.2493,-0.16 0.164,-0.48 -0.031,-0.58666 0.1987,-0.16 0.4027,-0.29334 0.604,-0.44 -0.036,1.69333 -0.1213,3.36 -0.256,5.04 -0.2653,0.97333 -0.5373,1.96 -0.7466,2.96 z m 0.5186,-8.62667 c 0.015,-0.0267 0.02,-0.0533 0.028,-0.08 0.019,0 0.037,0.0133 0.055,0.0267 -0.028,0.0133 -0.052,0.0267 -0.083,0.0533 z m 3.6894,1.65333 c 1.2786,4.69334 -0.013,9.77334 -0.756,14.44 -0.872,5.49334 -2.096,10.88 -3.836,16.16 -3.604,10.92 -9.7534,20.90667 -18.2667,28.66667 -4.2333,3.85333 -9.0413,6.96 -13.6627,10.30666 -4.9226,3.57334 -9.708,7.32 -14.828,10.61334 -5.1013,3.28 -10.4546,6.22666 -15.92,8.85333 -5.0026,2.4 -11.0813,5.4 -16.7693,5.62667 0.023,-0.62667 0.057,-1.24 0.1053,-1.85334 0.016,-0.0267 0.039,-0.0267 0.052,-0.0533 0.048,-0.0933 0.108,-0.18667 0.1574,-0.28 0.095,0.13333 0.2626,0.22667 0.4266,0.10667 0,-0.0133 -0.01,-0.0133 -0.011,-0.0267 0.1693,0.24 0.5666,0.10667 0.56,-0.21333 4.684,-0.96 9.0066,-4.74667 13.0373,-7.08 5.3973,-3.12 10.7467,-6.22667 15.7693,-9.93334 4.8694,-3.6 9.4934,-7.50666 14.4894,-10.93333 4.6266,-3.17333 8.928,-6.50666 12.9746,-10.41333 7.4667,-7.2 13.8534,-15.33333 17.7934,-25 3.2813,-8.04 5.232,-16.53333 5.9013,-25.17333 0.4173,-1.56 0.8333,-3.09334 0.9267,-4.72 0.6226,0.29333 1.2386,0.6 1.856,0.90666 z m 45.4946,54.25334 c 0,-0.04 0,-0.0667 0,-0.10667 0,-0.0533 -0.039,-0.0933 -0.064,-0.13333 -1.616,-5.90667 -3.9253,-11.65334 -6.8293,-17.12 0,-0.17334 0,-0.34667 0,-0.52 0,-0.26667 -0.2374,-0.34667 -0.432,-0.28 -2.272,-4.17334 -4.892,-8.17334 -7.828,-11.93334 -6.5654,-8.44 -14.7227,-15.57333 -23.7854,-21.22666 -0.056,-0.14667 -0.1813,-0.21334 -0.324,-0.2 -2.044,-1.26667 -4.1186,-2.48 -6.248,-3.58667 -0.604,-0.30667 -1.2173,-0.61333 -1.8293,-0.90667 0,-0.0267 0,-0.0533 0,-0.0933 -0.01,-0.30667 -0.3787,-0.4 -0.564,-0.24 -0.031,-0.0267 -0.065,-0.0533 -0.1067,-0.0667 0,-0.0533 0,-0.0933 0,-0.13333 0,-0.38667 -0.5267,-0.4 -0.628,-0.08 -4.9467,-2.30667 -10.132,-4.13333 -15.432,-5.62667 -0.056,-0.14666 -0.18,-0.24 -0.3613,-0.17333 -0.031,0.0133 -0.06,0.0267 -0.091,0.04 -8.6427,-2.41333 -17.5773,-3.98667 -26.2613,-5.44 -19.4294,-3.14667 -40.396,-4.14667 -59.104,2.96 -16.4067,6.25333 -32.0694,18.08 -42.3974,32.26667 -8.02796,11.02666 -12.76662,24.22666 -14.13462,37.74666 -0.009,0.0267 -0.036,0.0533 -0.0347,0.08 0,0.0667 0.005,0.12 0.007,0.17334 -0.32667,3.31999 -0.456,6.66666 -0.372,9.99999 0.428,17.12 7.07066,33.17334 18.58932,45.77334 26.12,28.58666 66.976,29.94666 102.964,28.28 18.7213,-0.86667 39.3507,-2.85334 56.2013,-11.72 13.8027,-7.26667 23.136,-21.12 28.044,-35.58667 4.72,-13.92 4.7027,-28.46667 1.008,-42.14666" style="fill:#577c69;fill-opacity:1;fill-rule:nonzero;stroke:none;stroke-width:0.133333"/><path id="path282" d="m 972.07064,222.12009 c -0.088,0.0533 -0.18133,0.0933 -0.27066,0.14667 1.70266,-2.02667 2.99066,-4.57333 4.084,-6.65333 3.15866,-5.97334 4.72533,-12.57334 7.06933,-18.89334 2.55067,-6.85333 4.516,-13.2 5.25333,-20.52 0.832,-8.24 0.77867,-16.57333 0.26134,-24.84 -0.976,-15.56 -3.93334,-31.09333 -7.90134,-46.15999 -1.74266,-6.613338 -3.97733,-13.093338 -6.988,-19.240004 -1.66933,-3.413334 -3.73866,-6.546667 -5.92666,-9.64 -1.91467,-2.706667 -3.492,-5.613333 -5.36667,-8.346667 6.76,4.306667 13.184,9.36 18.79333,15.053333 1.79867,4.36 4.076,8.426667 5.69867,12.92 1.86667,5.146668 3.56533,10.359998 5.31067,15.559998 3.26,9.69333 6.15333,19.37333 7.75466,29.50667 1.64936,10.42666 1.66936,20.94666 0.61196,31.42666 -0.56529,5.6 -1.40662,11.18667 -3.24929,16.52 -1.68133,4.86667 -2.84933,10 -5.26133,14.56 -0.176,0.34667 0.23733,0.61334 0.47866,0.41334 -0.0853,0.12 -0.164,0.24 -0.25066,0.36 -5.40934,7.22666 -12.268,13.34666 -20.10134,17.82666 z m 1.38667,-25.25333 c 4.95067,-15.14667 5.504,-30.85333 3.26667,-46.53333 -2.53467,-17.76 -5.18667,-36.2 -10.828,-53.280001 -2.468,-7.466667 -6.19334,-14.04 -10.64534,-20.493333 -2.55866,-3.72 -5.136,-7.413333 -7.60533,-11.186666 -1.67467,-2.546667 -3.08667,-5.346667 -5.28667,-7.48 1.92,0.72 3.82934,1.48 5.71467,2.346666 4.288,1.96 8.57867,4.24 12.76,6.813333 1.82133,2.426667 3.35333,5.04 4.948,7.613334 1.81067,2.933333 3.908,5.653333 5.632,8.639999 3.576,6.2 5.94667,13.04 7.912,19.893338 4.024,14.03999 6.68533,28.65333 8.07867,43.18666 1.35466,14.10667 2.02133,30.09333 -2.64134,43.65333 -2.31466,6.73334 -4.61333,13.56 -7.14533,20.21334 -1.444,3.8 -3.95733,9.93333 -7.60133,12.96 -5.85334,3.05333 -12.24134,5.22666 -18.65734,7.02666 11.54534,-7.68 17.85334,-20.38666 22.09867,-33.37333 z m -40.512,37.93333 c 0.78533,-0.48 1.52933,-0.96 2.15867,-1.25333 3.72133,-1.72 7.29866,-3.41333 10.28533,-6.28 5.90267,-5.66667 11.68667,-11.74667 16.268,-18.54667 4.84267,-7.18666 7.728,-15.90666 10.024,-24.2 2.384,-8.61333 2.59067,-17.22666 1.20667,-26.02666 -1.49067,-9.46667 -3.344,-18.98667 -5.18267,-28.38667 -0.95733,-4.90667 -2.27333,-9.74667 -3.37067,-14.61333 -1.072,-4.76 -1.504,-9.64 -2.82666,-14.33333 -2.31334,-8.226671 -7.756,-15.213338 -11.65867,-22.693337 -2.17733,-4.173334 -3.80133,-8.613334 -5.71333,-12.92 -1.55334,-3.48 -3.508,-6.146667 -5.75467,-9.053333 0.8,0.253333 1.6,0.52 2.39467,0.8 0.007,0.06667 0.036,0.133333 0.10933,0.186666 2.73867,2.146667 4.328,5.36 6.184,8.24 2.22267,3.44 4.576,6.8 6.90667,10.16 4.70133,6.786666 8.57866,13.506666 11.27733,21.359999 5.27867,15.346665 7.58,32.079995 10.05467,48.066665 2.47466,15.98667 2.94533,31.25333 -1.21067,47.02667 -3.93467,14.93333 -11.23467,30.42666 -24.964,38.52 -1.84933,0.49333 -3.696,0.97333 -5.52667,1.44 -3.53866,0.90666 -7.096,1.73333 -10.66133,2.50666 z m -28.1,2.98667 c 1.72933,-0.69333 3.46133,-1.38667 5.2,-2.09333 4.24533,-1.72 8.08533,-4.38667 11.872,-6.93334 7.704,-5.16 15.51733,-10.22666 22.22133,-16.68 11.724,-11.30666 18.07734,-28.56 20.04,-44.44 1.29867,-10.50666 0.096,-21.26666 -0.94933,-31.74666 -0.98667,-9.89334 -2.22933,-19.85334 -4.42,-29.56 -3.96133,-17.573334 -12.916,-33.093334 -25.40933,-45.946667 -2.088,-2.146667 -4.292,-4.933333 -6.73867,-7.04 3.57467,0.773333 7.108,1.666667 10.58667,2.76 2.46666,3.173333 4.61466,6.093333 6.312,9.786667 1.804,3.919999 3.324,7.959999 5.188,11.853333 3.668,7.679999 8.93333,14.426666 11.772,22.506667 1.33466,3.8 1.76933,7.86667 2.44133,11.82667 0.76133,4.47999 1.96,8.89333 3.00533,13.30666 2.11867,8.96 3.30934,18.10667 5.13334,27.13333 1.864,9.21334 2.77733,18.08 0.99066,27.37334 -1.61866,8.42666 -4.72666,17.28 -8.788,24.82666 -3.69866,6.86667 -9.136,12.61334 -14.53866,18.16 -3.10534,3.18667 -6.03334,6.14667 -10.02134,8.22667 -1.628,0.85333 -3.32933,1.56 -4.99466,2.33333 -0.88667,0.41334 -2.088,1.33334 -3.24667,1.89334 -9.95067,2.10666 -19.984,3.76 -30.07467,5.02666 1.54267,-0.70666 3.00534,-1.6 4.41867,-2.57333 z m -4.092,1.66667 c -0.75067,0.37333 -1.524,0.70666 -2.32,1 0.772,-0.34667 1.54533,-0.68 2.32,-1 z m -15.42533,2.52 c 0.032,-0.04 0.0547,-0.10667 0.0613,-0.17334 0.003,-0.0267 0.005,-0.04 0.007,-0.0667 0.44,-0.17334 0.852,-0.38667 1.18266,-0.69334 0.12934,-0.12 0.10934,-0.25333 0.0413,-0.37333 15.496,-3.57333 27.53066,-15.48 36.448,-28.09333 5.26266,-7.45334 8.976,-15.65334 12.444,-24.05334 3.736,-9.05333 7.692,-18.16 9,-27.96 1.35333,-10.12 0.25333,-20.37333 -1.23734,-30.41333 -1.548,-10.42667 -3.33733,-20.89333 -6.312,-31.013331 -2.66266,-9.066667 -5.82533,-18 -9.792,-26.573333 -1.97866,-4.28 -4.248,-8.426666 -6.72133,-12.426666 -1.83867,-2.986667 -3.636,-6.426667 -6.17867,-8.866667 -0.0627,-0.06667 -0.13066,-0.106666 -0.19466,-0.16 1.44666,0.226667 2.89466,0.44 4.34,0.68 0.92266,0.146667 1.84,0.306667 2.75733,0.48 6.19067,6.666667 9.60933,15.213333 14.07067,23 2.16933,3.786666 4.25733,7.626666 6.41733,11.426666 2.57067,4.52 3.792,9.333333 4.84667,14.373331 2.024,9.66667 4.484,19.24 6.156,28.98667 1.73466,10.10666 2.26533,20.38666 1.64933,30.62666 -0.56667,9.45334 -2.024,19.41334 -5.328,28.32 -1.63467,4.4 -4.22667,8.42667 -6.696,12.4 -2.55733,4.10667 -5.14933,8.04 -8.42267,11.62667 -5.75866,6.32 -12.90266,11.14667 -19.64266,16.32 -3.07734,2.36 -5.99334,5.13333 -9.16,7.44 -0.64134,0.21333 -1.28134,0.44 -1.90667,0.70667 -0.72533,0.30666 -7.27733,2.82666 -7.25867,3.30666 -0.016,-0.42666 -0.68266,-0.42666 -0.66666,0 0.004,0.08 0.007,0.13334 0.0107,0.2 -3.3,0.36 -6.60533,0.69334 -9.91466,0.97334 z m -47.34,-0.24 c -0.0747,-0.12 -0.156,-0.21334 -0.40933,-0.49334 -0.26,-0.29333 -0.64667,0.0667 -0.5,0.38667 -0.244,-0.04 -0.48934,-0.0667 -0.732,-0.10667 -0.18134,-0.0667 -0.36134,-0.13333 -0.53334,-0.24 -1.42133,-0.50666 -2.80133,-1.13333 -4.172,-1.76 -2.096,-0.97333 -4.108,-2.10666 -6.092,-3.29333 -3.664,-2.17333 -7.11466,-4.69333 -10.50133,-7.26667 -6.90667,-5.26666 -14.16133,-10.25333 -20.32,-16.4 -12.964,-12.93333 -17.944,-33.54666 -20.244,-51.14666 -2.416,-18.49334 -0.596,-37.44 4.428,-55.34667 2.50133,-8.919998 5.848,-17.759998 9.896,-26.093331 1.696,-3.48 3.556,-7.04 6.116,-9.973333 2.168,-2.493333 4.58533,-4.773333 6.988,-7.04 4.78667,-3.093333 9.77733,-5.64 14.92267,-7.733333 -1.04934,0.906667 -2.01334,1.933333 -2.952,2.92 -3.12,3.28 -6.39334,6.333333 -9.25867,9.853333 -5.67333,6.973333 -9.236,15.333333 -12.556,23.613333 -7.372,18.386671 -11.47067,38.120001 -9.46933,57.933331 1.86666,18.49333 8.29733,36.84 18.86266,52.14667 5.032,7.29333 10.988,13.90666 17.044,20.36 5.20267,5.53333 11.13067,9.48 18.144,12.41333 9.61334,4.02667 20.132,5.76 30.452,6.72 3.7,0.34667 7.42267,0.69333 11.13333,0.90667 0.98,0.0533 2.276,0.17333 3.58934,0.18666 -0.608,0.0533 -1.216,0.10667 -1.824,0.16 -13.99067,1.06667 -28.128,1.14667 -42.012,-0.70666 z m -20.892,-4.4 c -8.60533,-2.57334 -16.87067,-6.32 -24.50533,-11.06667 -0.0227,-0.0267 -0.0453,-0.0533 -0.0787,-0.08 -1.04933,-0.70667 -1.936,-2.18667 -2.752,-3.13333 -1.33467,-1.53334 -2.65867,-3.09334 -3.984,-4.64 -4.15467,-4.86667 -7.18267,-10.22667 -9.51067,-16.18667 -4.98933,-12.74667 -7.204,-27.12 -8.74666,-40.65333 -1.74267,-15.29334 -1.188,-30.77334 2.63066,-45.72 1.76,-6.89333 3.94134,-13.82667 6.37867,-20.506668 2.76933,-7.586666 7.17333,-14.586666 10.96533,-21.693333 0.0133,-0.02667 -10e-4,-0.05333 0.007,-0.08 3.664,-3.066666 7.47867,-5.946666 11.38,-8.613333 -1.51333,1.493334 -3.00267,3 -4.42667,4.56 -2.40933,2.653333 -4.07466,5.933333 -5.70666,9.093333 -4.26134,8.266667 -7.48134,17.213333 -10.14,26.106671 -5.564,18.61333 -7.32267,38.73333 -4.62,57.98666 2.42266,17.26667 7.38533,36.42667 19.52,49.54667 5.91333,6.38666 13.41866,11.28 20.28,16.56 6.23333,4.8 12.72533,9.22666 19.94266,12.29333 -5.60133,-0.90667 -11.156,-2.13333 -16.63333,-3.77333 z m -43.576,-26.46667 c -1.396,-1.45333 -2.712,-2.96 -3.98,-4.49333 0.112,-0.0933 0.18267,-0.24 0.092,-0.4 -4.80533,-8.64 -8.81733,-17.62667 -10.732,-27.36 -1.98267,-10.08 -1.87733,-21.01334 -1.71733,-31.25334 0.164,-10.53333 1.31866,-21.18666 4.48666,-31.26666 1.492,-4.74667 3.456,-9.36 5.272,-13.98667 1.65734,-4.226665 2.712,-8.879998 4.94134,-12.866664 4.30133,-5.24 9.12133,-10.08 14.27466,-14.52 -3.26666,6.013333 -6.808,11.973333 -9.432,18.293333 -3.01333,7.253331 -5.184,15.080001 -7.21866,22.653331 -4.12134,15.36 -4.30267,31.44 -2.512,47.16 1.58533,13.90667 4.09466,28.53333 9.41333,41.54667 2.17733,5.33333 5.168,10.13333 8.896,14.50666 1.32267,1.54667 2.69733,3.62667 4.212,5.38667 -5.78533,-3.89333 -11.168,-8.37333 -15.996,-13.4 z m -12.46,-105.37333 c 2.54,-4.90667 5.57733,-9.546668 8.972,-13.933334 -1.08667,2.626666 -1.856,5.386666 -2.84667,8.053333 -2.02266,5.453331 -4.336,10.773331 -6.15866,16.306661 -3.32534,10.06667 -4.27334,20.90667 -4.51067,31.44 -0.23333,10.36 -0.0787,21.21334 1.74133,31.42667 1.62667,9.14667 5.484,17.74667 9.9,25.86667 -21.80133,-27.93334 -23.29066,-67.89334 -7.09733,-99.16 z m 123.596,136.50666 c 0.028,0.0133 0.0573,0.0133 0.0853,0.0267 -0.15333,0.0133 -0.30667,0.0267 -0.46,0.04 0.124,-0.0267 0.25333,-0.04 0.37467,-0.0667 z m -49.228,-192.359993 c -5.97867,3.653333 -10.96267,9.173333 -15.14667,14.653333 -5.96666,7.826666 -10.816,16.466666 -15.39866,25.146666 -4.332,8.213333 -8.59867,16.346664 -10.86267,25.399994 -2.14533,8.58667 -2.488,17.56 -1.77733,26.34667 1.40933,17.41333 7.50933,35.12 16.63866,49.98667 9.20134,14.98666 22.928,26.97333 37.55734,36.48 5.204,3.37333 10.656,6.82666 16.58133,8.77333 6.76,2.21333 13.93866,2.42667 20.54533,5.12 -2.05867,0.28 -4.56933,-0.08 -6.10267,-0.17333 -2.85066,-0.16 -5.69466,-0.46667 -8.54266,-0.69334 -8.33467,-0.64 -16.63067,-1.96 -24.66933,-4.26666 -8.188,-2.36 -16.12267,-6.06667 -22.41734,-11.89334 -6.83066,-6.33333 -13.04266,-13.89333 -18.532,-21.38666 -11.86133,-16.2 -18.47733,-36.06667 -20.264,-55.97334 -1.87866,-20.92 3.74,-41.85333 11.992,-60.933328 3.04,-7.026666 6.50667,-13.546666 11.45334,-19.426666 2.06933,-2.466666 4.38133,-4.68 6.67333,-6.933333 2.00667,-1.973333 3.87867,-4.426667 6.41867,-5.706667 5.15466,-1.919999 10.456,-3.399999 15.85333,-4.519999 z m -34.89733,82.919993 c 1.39066,18.44 10.052,36.45334 19.18533,52.24 8.864,15.32 20.34667,29.21334 34.56133,39.82667 8.472,6.33333 18.70133,9.88 28.644,13.16 0.40933,0.14667 0.584,-0.50667 0.17733,-0.64 -8.62,-2.84 -17.23599,-5.92 -25.00266,-10.69333 -7.984,-4.92 -14.992,-11.8 -21.196,-18.77334 -12.89333,-14.48 -22.516,-32.04 -29.54,-50.04 -3.73333,-9.56 -6.15733,-19.58666 -6.40133,-29.86666 -0.244,-10.34667 2.636,-20.25333 7.00133,-29.533335 3.968,-8.453333 9.08933,-16.493333 14.33467,-24.199999 5.44933,-8 11.75333,-15.213333 19.46533,-21.093333 2.89867,-2.213333 6.028,-4.333333 9.46267,-5.613333 3.20933,-0.293333 6.43333,-0.493333 9.668,-0.6 0.83333,-0.02667 1.66666,-0.02667 2.50133,-0.04 -33.50933,11.04 -49.696,47.253332 -50.244,80.52 -0.28933,17.6 4.812,33.77333 12.12267,49.58666 7.41466,16.04 17.216,31.28 30.764,42.81334 3.768,3.2 7.85466,6.04 12.09333,8.58666 4.27066,2.57334 9.36933,3.98667 13.38,6.89334 0.34933,0.25333 0.68133,-0.32 0.33733,-0.57334 -3.41733,-2.48 -7.688,-3.73333 -11.39067,-5.74666 -4.65466,-2.53334 -9.00533,-5.62667 -13.12133,-8.94667 -7.248,-5.86667 -13.36666,-13.02667 -18.68,-20.65333 -5.18133,-7.44 -9.464,-15.48 -13.26133,-23.69334 -3.87067,-8.37333 -7.316,-16.96 -9.344,-25.98666 -8.01733,-35.66667 4.57733,-79.533334 37.72133,-98.226667 3.25067,-1.84 6.86667,-3.013333 10.40934,-4.133333 0.21866,-0.08 0.26133,-0.28 0.2,-0.453333 1.61733,-0.01333 3.23466,-0.01333 4.85333,0 -1.74534,0.573333 -3.43067,1.36 -5.09733,2.186666 -3.68,1.826667 -7.28934,3.8 -10.54134,6.333333 -6.73333,5.24 -11.904,11.746667 -15.59733,19.426667 -8.224,17.093333 -9.772,36.559997 -9.86133,55.266667 -0.096,19.81333 4.36,38.44 12.504,56.45333 3.74933,8.29333 7.82266,16.62667 13.14933,24.04 5.22133,7.25333 12.08267,11.82667 19.548,16.50667 3.04533,1.90666 7.11866,6.21333 11.008,5.90666 0.42533,-0.0267 0.428,-0.69333 0,-0.66666 -3.58134,0.29333 -7.844,-4.02667 -10.672,-5.82667 -4.19334,-2.66667 -8.46133,-5.13333 -12.24267,-8.4 -6.76933,-5.82667 -11.30533,-13.90667 -15.312,-21.76 -9.11333,-17.86667 -15.796,-36.41333 -17.05333,-56.57333 -1.18267,-18.93334 0.0613,-39.29333 6.456,-57.253334 3.14933,-8.853333 7.74667,-16.8 14.58,-23.293333 3.23867,-3.093333 6.948,-5.64 10.864,-7.773333 3.33867,-1.826667 6.93333,-3.84 10.73733,-4.52 1.676,0.04 3.34933,0.106667 5.024,0.186667 -24.304,12.973333 -31.02666,41.586665 -32.408,67.279993 -0.83733,15.56 -0.21733,31.22667 2.64,46.54667 1.656,8.88 4.25867,17.65333 7.816,25.94667 3.50534,8.18666 7.676,17.28 13.76933,23.86666 4.87867,5.25334 8.53867,11.56 14.14667,16.14667 0.32933,0.26667 0.804,-0.2 0.47067,-0.46667 -3.32,-2.72 -5.99067,-6.04 -8.628,-9.4 -3.17867,-4.05333 -6.73467,-7.82666 -9.52667,-12.14666 -5.372,-8.32 -9.61333,-17.33334 -12.83333,-26.69334 -5.72933,-16.64 -7.464,-34.34666 -7.48133,-51.85333 -0.0293,-27.666665 3.88266,-61.49333 29.87333,-77.279997 1.11866,-0.68 2.28,-1.28 3.452,-1.866666 -0.003,0.133333 0.0107,0.266666 0.0107,0.386666 -0.0867,0.08 -0.17066,0.16 -0.25333,0.266667 -23.02133,17.066666 -24.428,47.959999 -24.26,74.44 0.044,6.94666 -0.56,14.38666 0.54934,21.25333 0.73333,4.54667 2.17466,8.8 2.28133,13.45333 0.1,4.38667 1.83333,9.29334 2.908,13.52 4.23467,16.66667 11.33066,32.58667 21.64533,46.36 0.37333,1.37334 0.57333,2.74667 0.44667,4.12 -0.0147,0.16 0.0787,0.24 0.19066,0.28 -0.0653,0.58667 -0.148,1.04 -0.236,0.89334 -0.21466,-0.37334 -0.79066,-0.04 -0.576,0.33333 0.18267,0.32 0.268,0.49333 0.356,0.61333 -0.009,0.0133 -0.0147,0.04 -0.0227,0.0533 -0.2,0.37333 0.37466,0.72 0.576,0.33333 0.0187,-0.04 0.0347,-0.08 0.0547,-0.12 0.064,0.0267 0.128,0.04 0.20934,0.0533 0.21333,0.0533 0.41733,-0.0933 0.42266,-0.32 0,-0.0533 -10e-4,-0.0933 0,-0.14666 0.14267,0.0133 0.29334,-0.04 0.34667,-0.21334 0.0627,-0.2 0.12667,-0.41333 0.18933,-0.61333 0.27734,0.97333 0.54267,1.97333 0.83334,2.94667 0.12266,0.41333 0.76666,0.24 0.644,-0.17334 -0.392,-1.32 -0.75467,-2.64 -1.116,-3.96 2.07733,-6.76 4.29466,-13.29333 5.66933,-20.29333 1.672,-8.50667 2.98667,-17.09333 4.33733,-25.66667 2.472,-15.68 5.52267,-31.24 6.92934,-47.06666 1.37466,-15.46667 1.24266,-31.146668 -1.596,-46.440001 -1.30534,-7.04 -3.04934,-14.133333 -6.75067,-20.319999 -1.664,-2.773334 -3.75067,-5.306667 -5.88267,-7.733333 -1.17333,-1.333334 -3.34133,-2.666667 -4.70533,-4.266667 -0.152,-0.226667 -0.31467,-0.426667 -0.48267,-0.64 -0.26,-0.386667 -0.464,-0.786667 -0.59066,-1.213333 1.368,0.08 2.736,0.173333 4.10266,0.28 2.91334,1.32 5.656,6.413333 7.22134,8.613333 2.25866,3.173333 4.428,6.426666 6.376,9.813333 3.712,6.426666 6.408,13.586666 7.81866,20.879999 1.49067,7.706667 1.268,15.679998 0.892,23.479998 -0.388,8.02667 -0.80266,16.06667 -1.23866,24.09333 -0.89734,16.53334 -2.72934,33.02667 -5.47867,49.34667 -2.54933,15.13333 -4.65733,31.93333 -16.508,42.94667 -0.31467,0.29333 0.15733,0.76 0.472,0.46666 11.68533,-10.85333 13.85333,-27.05333 16.46267,-41.97333 3.08133,-17.62667 4.932,-35.45333 5.85333,-53.32 0.824,-15.98667 3.19467,-32.879998 -0.548,-48.639998 -1.716,-7.226666 -4.98267,-14.213333 -8.87067,-20.506666 -2.29866,-3.72 -4.84666,-7.32 -7.50533,-10.786666 -1.02267,-1.333333 -2.09467,-3.133333 -3.50933,-4.293333 1.52533,0.133333 3.048,0.293333 4.57066,0.453333 23.604,22.933333 26.77334,55.89333 24.06534,87.06666 -1.41334,16.25334 -4.02267,32.53334 -6.956,48.58667 -1.75067,9.57333 -4.4,18.74667 -7.576,27.94667 -1.54934,4.48 -3.184,8.92 -5.56667,13.04 -1.19867,2.06666 -2.752,3.88 -4.38533,5.61333 -1.268,1.34667 -3.50667,4.21333 -5.604,4.02667 -0.428,-0.04 -0.424,0.62666 0,0.66666 2.58666,0.22667 4.43333,-2.54666 6.076,-4.21333 3.03466,-3.09333 5.18933,-6.68 6.96266,-10.61333 3.79734,-8.44 6.57734,-17.64 8.72267,-26.61334 3.95467,-16.54666 6.24,-33.78666 8.2,-50.66666 3.53467,-30.48 2.90667,-63.786667 -17.35333,-88.733334 -1.72134,-2.119999 -3.60667,-4.093333 -5.55067,-6.013333 2.688,0.28 5.37333,0.6 8.05467,0.933334 3.72133,2.08 6.10133,6.173333 8.49466,9.559999 2.46934,3.506667 4.72667,7.146667 6.8,10.893333 4.42,7.986667 7.392,16.653333 9.29467,25.573333 3.82,17.879998 2.70533,36.453328 1.30267,54.546668 -0.704,9.09333 -1.244,18.24 -2.53867,27.26666 -1.384,9.65334 -4.49733,18.56 -9.06267,27.17334 -2.09866,3.96 -4.43333,7.78666 -6.75333,11.61333 -2.30267,3.81333 -4.332,8 -7.17867,11.42667 -4.636,5.57333 -11.73866,8.44 -17.04,13.29333 -0.064,0.0533 -0.076,0.12 -0.084,0.18667 -1.17066,-0.37334 -2.44933,-0.97334 -2.75733,-1.06667 -2.16267,-0.65333 -4.40267,-1.05333 -6.62,-1.48 -5.28667,-1 -10.46666,-1.93333 -15.316,-4.38667 -8.34933,-4.22666 -16.236,-9.64 -23.53733,-15.46666 -15.044,-11.98667 -26.28533,-26.88 -33.49733,-44.69334 -7.15467,-17.68 -10.47467,-37.41333 -6.67067,-56.28 1.98133,-9.82666 6.67067,-18.573328 11.27867,-27.386661 4.68533,-8.946667 9.712,-17.853333 15.94266,-25.839999 4.412,-5.64 9.69067,-11.32 16.08934,-14.72 3.784,-0.72 7.61333,-1.266667 11.472,-1.666667 -5.97067,2.746667 -11.35467,7.546667 -15.87334,12.066667 -6.4,6.4 -11.52666,14.026666 -16.30266,21.679999 -9.912,15.866666 -17.704,32.093331 -16.256,51.266661 z m 84.43199,73.13334 c 1.34667,-7.77334 1.52267,-15.62667 1.84267,-23.48 0.672,-16.52 2.05067,-32.94667 2.34533,-49.48 0.29467,-16.53334 0.068,-33.080001 -1.68266,-49.533334 -0.80267,-7.546667 -1.512,-15.146667 -2.76934,-22.64 -0.48666,-2.893333 -1.02133,-6.72 -2.464,-9.799999 1.80534,1.8 3.668,3.413333 5.316,5.413333 5.32267,6.44 7.82534,13.799999 9.652,21.853333 3.512,15.466666 3.64934,31.559997 2.47867,47.306667 -1.20133,16.16 -4.36933,32.02666 -6.89733,48 -1.35867,8.57333 -2.68667,17.16 -4.29734,25.69333 -1.18933,6.30667 -3.032,12.24 -4.904,18.28 0.69734,-3.82667 0.728,-7.85333 1.38,-11.61333 z m -2.168,12.4 c -0.14266,-0.18667 -0.27733,-0.37334 -0.41866,-0.56 -0.0213,-0.08 -0.0413,-0.16 -0.0627,-0.24 -0.25333,-12.69334 -2.036,-25.34667 -1.97733,-38.09334 0.0693,-14.92 1.304,-29.82666 2.03066,-44.73333 0.72534,-14.92 1.128,-29.85333 0.71734,-44.786664 -0.20267,-7.32 -0.628,-14.64 -1.372,-21.933333 -0.30667,-3 -0.71334,-5.986667 -1.17334,-8.96 -0.568,-3.68 -1.736,-7.24 -1.84666,-10.96 0.0173,-0.01333 0.0347,-0.02667 0.052,-0.05333 0.1,-0.01333 0.16666,-0.06667 0.204,-0.146667 0.024,-0.01333 0.0493,-0.02667 0.0733,-0.05333 2.308,1.786667 3.136,4.906667 3.852,7.6 1.01733,3.826666 1.57867,7.76 2.07333,11.679999 0.96267,7.6 1.82267,15.24 2.484,22.866667 1.31334,15.173338 1.296,30.413338 1.00534,45.626668 -0.292,15.22667 -1.46667,30.36 -2.23867,45.57333 -0.396,7.8 -0.52533,15.54667 -1.672,23.30667 -0.64933,4.4 -0.67467,9.36 -1.73067,13.86667 z m -7.64666,-88.97334 c 0.24666,16.50667 0.588,32.93334 1.52133,49.42667 0.42267,7.46667 0.532,15.05333 1.596,22.46667 0.61333,4.26666 1.45467,8.52 2.44667,12.72 -1.09067,-2.84 -2.59734,-5.64 -3.55867,-8.2 -2.864,-7.62667 -5.04133,-15.52 -6.824,-23.48 -3.64533,-16.26667 -5.27066,-33.02667 -5.78533,-49.66667 -0.528,-17.06667 0.54267,-34.186665 3.268,-51.026664 1.628,-10.066667 1.972,-23.453333 9.012,-31.639999 -4.00267,13.199999 -1.77334,72.933333 -1.676,79.399993 z m 2.91866,-80.38666 c 0.156,2.226667 0.636,4.386667 1.144,6.6 0.932,4.066666 1.384,8.266666 1.83467,12.413333 0.792,7.28 1.144,14.613333 1.372,21.933333 0.46267,14.933334 -0.008,29.866664 -0.71733,44.786664 -0.71067,14.90667 -1.89734,29.8 -2.03067,44.73333 -0.0667,7.46667 0.2,14.93334 0.83733,22.37334 0.28934,3.36 0.66267,6.72 0.89467,10.10666 0.0547,0.78667 0.0773,1.57334 0.11333,2.37334 -0.74266,-3.17334 -1.41733,-6.36 -2.02266,-9.57334 -1.448,-7.68 -1.568,-15.56 -2.00934,-23.33333 -0.88533,-15.62667 -1.488,-31.18667 -1.60666,-46.82667 -0.116,-15.04 -0.29734,-30.10666 -0.56534,-45.146661 -0.136,-7.613333 0.20267,-15.133333 0.5,-22.746666 0.16134,-4.133333 0.19867,-8.226667 0.88267,-12.32 0.092,-0.56 0.752,-3.76 1.37333,-5.373333 z m -2.59066,1.586667 c -5.548,7.359999 -6.252,18.066666 -7.62267,26.799999 -2.61466,16.666666 -4.228,33.226664 -4.07866,50.133334 0.148,16.8 1.71466,33.68 4.90933,50.17333 1.55466,8.02667 3.632,15.94667 6.20666,23.69333 1.01334,3.06667 2.11867,6.09334 3.4,9.04 0.612,1.41334 1.32267,2.92 1.912,4.46667 -9.61866,-13.36 -16.14399,-28.56 -20.30799,-44.49333 -2.16534,-8.28 -2.90667,-16.72 -4.80134,-25.04 -1.54,-6.77334 -0.82933,-14.29334 -0.89866,-21.21334 -0.25334,-25.639995 0.54933,-55.879994 21.28133,-73.559993 z m 9.97733,190.546663 c 0.0467,0.0267 0.0973,0.0267 0.156,0.0267 -0.052,0.0267 -0.096,0.0667 -0.14933,0.0933 0,-0.04 -0.003,-0.08 -0.007,-0.12 z m 26.52,-190.09333 c 0.0387,0.05333 0.0853,0.106667 0.17067,0.133333 3.25333,0.84 5.372,5.893333 7.092,8.546667 2.568,3.96 4.80133,8.133333 6.85866,12.386666 4.092,8.44 7.14267,17.36 9.88,26.333333 2.836,9.280001 4.504,18.826661 6.06667,28.386661 1.63733,10.01334 2.88933,20.16 2.21467,30.33334 -0.65334,9.84 -4.30667,19.17333 -8.04134,28.18666 -3.53066,8.52 -7.00533,16.96 -12.06133,24.70667 -8.98533,13.77333 -22.02133,27.04 -38.676,30.48 -0.052,0 -0.068,0.04 -0.10133,0.0667 -0.0133,-0.08 -0.028,-0.17334 -0.044,-0.28 -0.064,-0.42667 -0.70667,-0.25334 -0.644,0.17333 0.1,0.66667 -0.568,0.70667 -1.44,0.49333 5.56133,-5.04 12.66933,-8.08 17.532,-13.93333 2.65733,-3.2 4.52533,-7.26667 6.67733,-10.81333 2.53333,-4.18667 5.03467,-8.38667 7.32533,-12.70667 8.89867,-16.77333 9.66134,-35.14667 11.12,-53.69333 1.46534,-18.62667 2.35467,-37.49333 -1.57466,-55.893335 -1.91734,-8.973333 -5.24,-17.559999 -9.68,-25.586666 -2.26134,-4.079999 -4.86667,-7.973333 -7.588,-11.773333 -1.82,-2.533333 -3.63734,-5.279999 -6.17067,-7.133333 3.70133,0.48 7.39467,1.013334 11.084,1.586667 z m 13.14933,2.24 c 1.512,1.24 2.83067,2.866666 4.16267,4.186666 1.83333,1.813334 3.652,3.653334 5.436,5.52 3.36133,3.506667 6.42133,7.266667 9.212,11.253333 5.38133,7.666667 9.38533,16.24 12.228,25.146666 3.012,9.440005 4.35333,19.386665 5.56133,29.186665 1.29067,10.49333 2.41067,21.13333 2.27734,31.70667 -0.22934,18.09333 -7.02267,37.66666 -19.62534,50.88 -6.58266,6.89333 -14.92666,12.01333 -22.79333,17.29333 -4.088,2.74667 -8.18533,5.42667 -12.76267,7.29333 -0.564,0.22667 -1.13733,0.42667 -1.712,0.62667 2.336,-1.84 4.56134,-3.84 6.80267,-5.66667 6.89467,-5.62666 14.27733,-10.42666 20.428,-16.94666 6.128,-6.48 11.27867,-15.02667 14.828,-23.17334 3.63067,-8.33333 4.796,-18.09333 5.62133,-27.08 1.96534,-21.41333 -3.272,-41.61333 -7.636,-62.34666 -0.90266,-4.293335 -1.88266,-8.480001 -3.8,-12.440001 -2.22533,-4.613333 -5.00133,-9.08 -7.53066,-13.52 -4.324,-7.6 -7.74667,-15.893333 -13.608,-22.493332 0.97466,0.186666 1.94266,0.386666 2.91066,0.573333 z m 66.27734,42.653332 c 5.06666,7.746668 8.336,16.573338 10.89732,25.413328 2.7507,9.49334 4.7,19.28 5.456,29.14667 1.4813,19.30667 -3.7107,37.86667 -15.14132,53.45333 2.02133,-3.90666 2.98666,-8.12 4.41866,-12.25333 1.75067,-5.05333 2.94267,-9.97333 3.65866,-15.28 1.4187,-10.52 1.556,-21.10667 0.304,-31.64 -1.25066,-10.53333 -4.03466,-20.77333 -7.45332,-30.78667 -1.77067,-5.18666 -3.46934,-10.39999 -5.27334,-15.573328 -0.97066,-2.786667 -1.99333,-5.546666 -3.05733,-8.293333 -0.72933,-1.893333 -1.80933,-3.6 -2.72933,-5.386667 3.328,3.52 6.34266,7.266667 8.92,11.2 z m 5.20666,8.053338 c -3.624,-7.760005 -8.78666,-14.640004 -14.816,-20.733338 -0.0387,-0.09333 -0.088,-0.173333 -0.12533,-0.266666 -0.0667,-0.16 -0.21467,-0.226667 -0.35467,-0.226667 -5.992,-5.96 -12.81466,-11.16 -19.832,-15.666666 -0.1,-0.133334 -0.18933,-0.28 -0.292,-0.413333 -0.13066,-0.173334 -0.344,-0.173334 -0.48933,-0.08 -7.204,-4.546667 -14.90267,-7.973334 -22.89333,-10.586667 -0.076,-0.09333 -0.148,-0.186667 -0.22534,-0.293333 -0.15733,-0.2 -0.388,-0.106667 -0.492,0.06667 -3.84,-1.226666 -7.74266,-2.279999 -11.692,-3.186666 -0.47066,-0.333333 -0.94933,-0.653333 -1.43866,-0.933333 -0.34934,-0.186667 -0.63734,0.28 -0.38267,0.52 -0.73467,-0.16 -1.472,-0.306667 -2.208,-0.453334 -0.004,0 -0.005,0 -0.008,-0.01333 -0.104,-0.106667 -0.22267,-0.09333 -0.328,-0.05333 -7.22267,-1.453334 -14.55733,-2.48 -21.884,-3.28 -0.0267,-0.01333 -0.0507,-0.04 -0.0787,-0.05333 -0.10666,-0.04 -0.20533,-0.02667 -0.29066,0.01333 -4.73867,-0.506667 -9.46934,-0.933334 -14.15867,-1.32 -0.0667,-0.01333 -0.13333,-0.01333 -0.19867,-0.01333 -0.24666,-0.106666 -0.49733,-0.2 -0.764,-0.266666 -0.16933,-0.02667 -0.28266,0.06667 -0.35066,0.186666 -0.992,-0.08 -1.98534,-0.146666 -2.98,-0.213333 -0.0173,-0.226667 -0.24134,-0.426667 -0.48267,-0.266667 -0.0107,0 -0.0213,0.01333 -0.0333,0.02667 -0.18534,-0.09333 -0.41067,-0.02667 -0.44134,0.186667 -0.0533,0 -0.10666,0 -0.16133,0 0.316,-0.213334 0.007,-0.72 -0.364,-0.546667 -0.316,0.146667 -0.616,0.32 -0.928,0.466667 -1.19733,-0.05333 -2.39467,-0.106667 -3.592,-0.16 0.016,-0.173334 -0.08,-0.36 -0.31067,-0.36 -0.85733,0.02667 -1.69333,0.12 -2.512,0.28 -6.53733,-0.146667 -13.07599,0 -19.57733,0.533333 -0.068,-0.106667 -0.17466,-0.186667 -0.33333,-0.133333 -0.16533,0.06667 -0.32667,0.146666 -0.492,0.2 -4.56133,0.4 -9.10267,1 -13.61067,1.826666 -0.0427,0 -0.0827,-0.01333 -0.128,0.01333 -0.012,0 -0.0227,0.01333 -0.0347,0.01333 -4.452,0.826667 -8.872,1.853333 -13.24267,3.146667 -7.16667,2.133333 -14.012,5.346666 -20.48133,9.279999 -0.11067,-0.146666 -0.31867,-0.226666 -0.49067,-0.05333 -0.35067,0.333333 -0.70267,0.666667 -1.05467,1 -9.15866,5.786666 -17.524,12.973333 -24.888,20.533333 -1.60933,1.653333 -3.14933,3.36 -4.62533,5.106666 -0.14533,-0.09333 -0.36133,-0.09333 -0.484,0.09333 -0.36533,0.56 -0.68933,1.133333 -0.996,1.72 -20.116,25.026665 -26.94933,58.906665 -17.16533,89.919995 6.32,20.04 20.06933,35.78667 37.22,46.64 0.34533,0.30667 0.69733,0.6 1.06,0.84 0.11066,0.0667 0.21466,0.0667 0.3,0.0133 10.824,6.62666 22.93333,11.33333 35.35466,13.98666 2.99734,0.64 6.01334,1.14667 9.04,1.57334 0.32134,0.12 0.63334,0.25333 0.95734,0.36 0.18,0.0667 0.304,-0.04 0.364,-0.17334 16.712,2.2 33.77999,1.44 50.50133,-0.17333 1.96533,-0.18667 3.928,-0.4 5.89066,-0.61333 0.0413,0.16 0.18934,0.30666 0.40534,0.28 0.99733,-0.14667 1.95733,-0.37334 2.88933,-0.66667 10.30533,-1.21333 20.55733,-2.82667 30.71733,-4.92 0.0293,0.0133 0.0453,0.04 0.0827,0.04 0.69067,0.0667 1.456,-0.17333 2.23467,-0.53333 6.068,-1.29334 12.104,-2.73334 18.092,-4.38667 0.084,0.04 0.18,0.0533 0.28533,-0.0133 0.06,-0.0267 0.11467,-0.0667 0.17467,-0.10667 0.0773,-0.0267 0.15466,-0.04 0.23066,-0.0533 5.97334,-1.66667 11.952,-3.6 17.61867,-6.16 0.0667,0.10666 0.176,0.18666 0.34133,0.13333 1.008,-0.34667 1.91334,-0.90667 2.732,-1.62667 1.57067,-0.8 3.12,-1.64 4.62134,-2.57333 6.58933,-4.08 12.40933,-9.58667 17.12266,-15.72 10.96267,-14.25333 16.62797,-31.18667 16.54137,-49.16 -0.085,-17.70667 -4.5894,-36.53333 -12.06537,-52.54666" style="fill:#577c69;fill-opacity:1;fill-rule:nonzero;stroke:none;stroke-width:0.133333"/></g></svg>