<svg version="1.1" id="svg1" width="2000" height="2579.9468" viewBox="632.089568040014 1074.9314760144437 310.24976298484546 107.89862398555942" sodipodi:docname="styletrees.svg" inkscape:version="1.4.2 (f4327f4, 2025-05-13)" xmlns:inkscape="http://www.inkscape.org/namespaces/inkscape" xmlns:sodipodi="http://sodipodi.sourceforge.net/DTD/sodipodi-0.dtd" xmlns="http://www.w3.org/2000/svg" xmlns:svg="http://www.w3.org/2000/svg"><defs id="defs1"/><g><path id="path359" d="m 637.07732,1106.0001 c 0.8,3.28 0.66133,7.0533 1.02133,10.3866 0.41733,3.8534 0.98133,7.68 1.79867,11.48 1.47066,6.8134 3.928,13.7867 6.97066,20.0667 5.152,10.6133 19.4,14.4267 30.19334,11.12 12.924,-3.9733 14.66,-18.9067 15.93866,-30.24 0.912,-8.08 1.27334,-16.2267 2.12134,-24.32 0.396,-3.7733 0.76666,-7.5333 0.90133,-11.3333 0.13067,-3.6267 -0.82667,-7.44 0.003,-11.0134 1.96533,-0.48 3.93733,-0.9333 5.91333,-1.36 0,0 -0.007,0 -0.007,0.013 0.004,2.7866 -0.57466,5.7466 -0.816,8.5333 -0.352,4.0533 -0.88666,8.0933 -1.46266,12.1333 -1.05334,7.3734 -1.64934,14.8267 -1.88,22.28 -0.22267,7.16 0.45466,14.7734 -1.30134,21.7734 -1.80133,7.1866 -6.54933,12.2266 -12.79866,15.84 -6.86667,3.96 -13.69467,4.9866 -21.47734,3.8 -7.30533,-1.12 -13.13333,-7.6934 -16.62666,-13.7734 -3.27067,-5.6933 -4.90134,-12.24 -6.424,-18.5733 -0.92534,-3.84 -1.39867,-7.7467 -1.90534,-11.6667 -0.42666,-3.3066 -1.544,-6.6933 -1.53066,-10.0133 10e-4,-0.4267 -0.66534,-0.4267 -0.66667,0 -0.016,3.7333 1.208,7.52 1.68667,11.2133 0.46266,3.5867 0.93866,7.1334 1.77333,10.6534 1.61333,6.7866 3.50667,13.5333 7.00667,19.6266 2.83733,4.9334 7.75866,10.3867 13.27866,12.2934 6.29867,2.1733 13.95334,2.1466 20.10134,-0.4667 5.99466,-2.56 11.36,-5.8533 14.992,-11.36 4.00933,-6.0933 4.22666,-13.1067 4.38933,-20.16 0.21067,-9.2 0.47467,-18.32 1.53467,-27.48 0.48133,-4.16 1.14933,-8.3067 1.61466,-12.4667 0.444,-3.9733 1.184,-8.2133 1.17867,-12.1866 0,-0.067 -0.0373,-0.1067 -0.064,-0.1467 2.04667,-0.44 4.10267,-0.8267 6.164,-1.2 -0.084,9.12 -1.416,18.7067 0,27.7333 1.364,8.68 2.89867,17.9734 6.44533,26.0667 3.46267,7.9067 8.85867,13.4 15.46134,18.7867 6.35733,5.1866 12.65999,8.6133 20.81999,9.96 7.06934,1.16 13.71734,-0.2 18.9,-5.3067 6.036,-5.96 9.46267,-14.1733 11.556,-22.2 2.41734,-9.28 3.472,-18.56 3.832,-28.12 0.19334,-5.1067 0.51734,-10.2 0.77467,-15.32 0.232,-4.6 -0.37733,-9.1333 -0.33467,-13.6933 0.004,-0.4267 -0.66266,-0.4267 -0.66666,0 -0.0347,3.7466 0.48533,7.4933 0.41733,11.28 -0.0747,4.1866 -0.484,8.36 -0.664,12.5466 -0.39067,9.0934 -0.74667,17.9867 -2.58,26.9334 -1.74533,8.52 -4.19467,16.24 -9.144,23.4666 -2.18267,3.1867 -4.576,5.9467 -7.93867,7.92 -4.64133,2.72 -10.01733,2.4934 -15.128,1.6534 -7.95333,-1.3067 -14.07333,-5.2667 -20.21066,-10.2667 -6.872,-5.6133 -12.12267,-11.68 -15.34133,-20.0533 -3.004,-7.8134 -4.608,-16.6934 -5.70534,-24.96 -1.148,-8.6667 0.104,-17.8134 0.176,-26.5334 1.91734,-0.3333 3.83867,-0.64 5.77067,-0.8933 0.62933,-0.08 1.26133,-0.1467 1.892,-0.2133 -0.0573,0.053 -0.0987,0.12 -0.0987,0.2266 0.007,13.3734 -0.87333,28.4 4.48534,41 4.832,11.3467 15.83066,20.24 28.43466,20.8934 12.39733,0.64 21.36267,-8.2667 25.768,-18.9467 5.688,-13.8 5.812,-29.9467 6.32533,-44.64 6.15734,0.12 12.31334,0.32 18.468,0.5467 -0.008,0.04 -0.036,0.08 -0.0253,0.12 0.85733,4.2666 -0.444,9.0133 -0.756,13.3066 -0.37333,5.1334 -0.56133,10.28 -0.69467,15.44 -0.26266,10.0267 -0.87333,19.6134 1.116,29.52 1.46267,7.2934 3.176,16.32 8.04,22.24 4.68934,5.72 12.592,8.8134 19.90534,8.68 6.55066,-0.12 12.41733,-3.3866 16.23333,-8.6 2.54,-3.4666 4.72,-7.1333 6.03333,-11.24 1.42,-4.44 1.48667,-9.2933 2.27067,-13.8666 0.812,-4.72 1.00933,-9.4934 1.30133,-14.2667 0.32,-5.24 1.09867,-10.4267 1.652,-15.6267 0.532,-4.9866 0.51067,-10.0266 0.85334,-15.04 0.15333,-2.2533 1.29733,-5.6266 0.32133,-7.8 -0.176,-0.3866 -0.75067,-0.053 -0.576,0.3334 0.55867,1.24 0.04,3.2 -0.12267,4.4666 -0.23466,1.8267 -0.34133,3.6667 -0.44666,5.5067 -0.24,4.1867 -0.30534,8.36 -0.696,12.5333 -0.80934,8.64 -1.492,17.3334 -2.38,25.96 -0.87067,8.4667 -1.736,17.4667 -6.188,24.8667 -4.632,7.7067 -11.096,12.3867 -20.336,12.08 -8.31467,-0.2667 -16.1,-5.2133 -19.86,-12.5067 -4.02134,-7.8 -5.788,-17.88 -6.728,-26.52 -0.924,-8.48 0.132,-17.3733 0.42933,-25.88 0.15067,-4.28 0.39867,-8.5733 0.732,-12.8533 0.28,-3.6133 1.25467,-7.2133 0.54933,-10.8267 0.96,0.027 1.92134,0.067 2.88134,0.1067 -0.0613,0.053 -0.10267,0.1333 -0.10267,0.24 0.064,8.64 -0.512,17.1733 0.076,25.8267 0.54,7.9466 1.308,15.84 2.50667,23.72 1.14666,7.52 3.568,14.7333 7.244,21.4 3.01866,5.4666 7.47733,9.2666 13.964,9.04 14.14533,-0.48 16.18933,-17.9867 18.192,-28.3334 0.708,-3.6533 1.88533,-7.2133 2.356,-10.92 0.53733,-4.2266 0.76,-8.4533 0.904,-12.7066 0.296,-8.7067 0.75466,-17.3867 0.75733,-26.1067 7.944,0.4133 15.86933,0.92 23.77466,1.6 -0.34933,7.7067 -0.98666,15.2267 -0.472,22.9467 0.484,7.24 1.87867,14.32 3.612,21.3466 1.45467,5.9067 2.72134,11.88 6.62534,16.72 3.872,4.7867 7.96533,7.0267 13.956,8.3467 12.328,2.72 20.98266,-5.1733 25.79733,-15.8267 2.68133,-5.92 4.364,-12.28 6.15733,-18.5066 2.116,-7.3467 2.296,-15.0934 3.76,-22.5734 0.0827,-0.4133 -0.56,-0.6 -0.64266,-0.1733 -1.15867,5.92 -1.58267,11.9467 -2.65734,17.88 -1.02133,5.64 -2.91066,11.2533 -4.736,16.68 -1.948,5.7867 -4.39066,11.72 -8.62933,16.2267 -5.14,5.4533 -11.696,7.0133 -18.872,5.6533 -6.512,-1.24 -11.02533,-4.3733 -14.81333,-9.76 -3.724,-5.3067 -4.77734,-12.48 -6.22,-18.6533 -1.52534,-6.5467 -2.448,-13.16 -2.824,-19.8667 -0.38267,-6.8267 0.30933,-13.56 0.62133,-20.3733 1.008,0.08 2.016,0.16 3.024,0.2666 -0.003,0.013 -0.016,0.013 -0.016,0.027 -0.096,13.5867 -0.66,26.76 3.00133,39.9867 2.57334,9.3066 8.18667,21.5333 18.708,23.64 4.456,0.8933 9.97334,-0.6 13.49734,-3.3867 4.144,-3.28 6.384,-9.5467 8.17866,-14.32 2.31467,-6.1467 3.87067,-12.72 4.948,-19.2 0.94667,-5.68 2.06,-12.4267 0.804,-18.1333 1.224,0.44 2.44,0.92 3.63334,1.44 2.492,1.1066 4.85333,2.52 6.92533,4.28 -0.0547,0.04 -0.108,0.08 -0.12933,0.16 -1.76,7.0266 -1.31867,13.72 -1.55334,20.88 -0.25733,7.8666 -2.53333,15.52 -4.99333,22.92 -2.44267,7.36 -6.44667,12.7733 -12.932,17.0666 -6.34533,4.2 -14.37867,5.92 -21.896,4.8534 -7.18933,-1.0267 -13.33067,-6.24 -17.87733,-11.5734 -5.07467,-5.96 -7.68667,-12.9866 -8.86934,-20.64 -1.24666,-8.08 -1.90933,-16.32 -2.16799,-24.48 -0.25467,-8 1.64799,-15.9733 1.37199,-23.9333 -0.008,-0.2267 -0.20533,-0.36 -0.42133,-0.32 -0.472,0.08 -0.46267,0.1067 -0.73867,0.48 -0.25066,0.36 0.328,0.6933 0.576,0.3467 -0.58,0.8 -0.28266,3.9333 -0.40533,5 -0.27733,2.3733 -0.40933,4.7733 -0.59466,7.1733 -0.35334,4.5867 -0.56667,9.1467 -0.35867,13.7467 0.384,8.5066 1.09066,17.1333 2.66533,25.4933 2.51067,13.3333 13.55333,27.48 27.61733,29.48 12.94134,1.84 26.92267,-5.6933 32.71067,-17.2933 3.50933,-7.04 5.48533,-15.7334 6.556,-23.48 0.55733,-4.0267 0.47867,-8.0534 0.37467,-12.0934 -0.116,-4.52 0.46666,-8.96 1.55466,-13.3333 0.41334,0.3733 0.836,0.7333 1.22134,1.1467 3.22933,3.3866 3.12,8.6666 2.95333,13.0266 -0.33333,8.7734 -0.908,17.6 -2.26267,26.2667 -1.37066,8.7867 -3.64266,18.2267 -9.3,25.28 -9.75333,12.1733 -27.87866,13.4267 -41.80533,9.2267 -9.21867,-2.7734 -16.76933,-9.4667 -21.56933,-17.6934 -5.58533,-9.5733 -4.78267,-20.6133 -4.75733,-31.2533 0,-0.44 -0.616,-0.4133 -0.66667,0 -0.816,6.5867 -1.47467,13.2 -2.44933,19.76 -0.81867,5.52 -1.79467,10.8933 -4.80934,15.6667 -5.41733,8.6 -16.03466,11 -25.52533,10.8666 -10.15733,-0.1333 -21.152,-3.4533 -27.45067,-11.88 -5.456,-7.2933 -6.888,-18.1466 -5.98266,-27.68 0.32666,-2.3466 0.68,-4.68 1.12666,-7.0133 0.08,-0.4133 -0.544,-0.6 -0.64266,-0.1733 -0.704,3 -1.14667,6.2133 -1.30934,9.5066 -1.09466,10.3867 -1.804,21.1467 -7.94266,29.6267 -6.892,9.5333 -19.128,13.0133 -30.38134,12.76 -11.94133,-0.2667 -24.73466,-3.9733 -34.49999,-10.9067 -5.26934,-3.7333 -8.836,-8.8133 -11.85867,-14.44 -1.65733,-3.08 -3.03733,-6.3066 -4.01733,-9.6666 -1.22667,-4.2134 -0.104,-8.12 -0.0373,-12.36 0.007,-0.4267 -0.628,-0.4134 -0.66666,0 -0.888,9.6933 -1.68267,19.7066 -5.748,28.6933 -4.77334,10.5333 -14.808,16.0533 -25.992,17.3333 -12.032,1.3867 -23.02,-4.0133 -29.13734,-14.4266 -3.35466,-5.7067 -5.484,-12.24 -7.17866,-18.6267 -0.592,-2.2267 -0.54667,-6.0667 -1.78,-8.3733 0.16133,0 0.308,-0.1067 0.284,-0.3067 -1.052,-8.7333 -3.07334,-17.1867 1.812,-24.6933 z m 4.49733,-4.96 c -0.596,1.5333 -0.40133,3.4666 -0.29733,5.04 0.20933,3.2133 0.80133,6.4133 1.16133,9.6133 0.67333,5.9733 1.51467,11.9467 3.69067,17.5867 3.60266,9.3466 11.92666,17.32 22.50933,15.5866 11.30667,-1.84 16.41067,-13.2933 18.06,-23.28 1.06267,-6.4533 1.436,-13.0133 1.76533,-19.5333 0.352,-6.96 0.984,-14.12 -0.32266,-21.0133 -0.0787,-0.4134 -0.72134,-0.24 -0.64267,0.1866 1.06267,5.6 0.704,11.2934 0.47333,16.96 -0.24666,6.0267 -0.6,12.0534 -1.24,18.0534 -1.16,10.88 -3.88266,21.5733 -14.52533,26.7866 -11.732,5.7334 -21.93067,-4.8266 -25.83067,-14.9466 -2.00266,-5.2 -2.63866,-10.9067 -3.27066,-16.3867 -0.248,-2.16 -0.476,-4.32 -0.77867,-6.4667 -0.324,-2.3066 -1.108,-5.7866 -0.10667,-8.04 0.10267,-0.2266 -0.06,-0.4133 -0.244,-0.4666 1.388,-1.1334 2.88,-2.1334 4.44934,-3.04 -0.016,0.04 -0.0493,0.067 -0.0493,0.12 0.0373,5.72 -0.352,11.4266 -0.248,17.16 0.0987,5.3466 1.60134,10.5066 3.67867,15.4133 3.11467,7.3733 10.664,11.6533 18.22667,7.8267 7.91466,-4 10.61733,-14.2267 11.31333,-22.28 0.45067,-5.2134 0.13333,-10.4667 -0.024,-15.68 -0.0813,-2.7467 -0.0787,-5.4934 -0.0653,-8.24 0.007,-1.48 0.51333,-3.7734 -0.26,-5.1467 -0.052,-0.093 -0.12667,-0.1333 -0.20667,-0.16 1.36267,-0.36 2.728,-0.72 4.084,-1.0933 4.136,-1.1467 8.284,-2.2667 12.45333,-3.2934 -0.42933,2.16 -0.23466,4.32 -0.0493,6.5067 0.26533,3.12 0.028,6.28 -0.21067,9.4 -0.55066,7.2133 -1.36933,14.4 -1.924,21.6133 -0.55066,7.1467 -1.25066,14.2934 -2.74533,21.3067 -1.476,6.9333 -4.52667,12.28 -10.71333,16 -5.66267,3.4 -13.412,2.6133 -19.47734,0.8933 -7.46933,-2.12 -11.65733,-7.2666 -14.412,-14.24 -2.396,-6.0666 -4.51066,-12.2133 -5.77466,-18.6133 -0.73867,-3.7467 -1.132,-7.5467 -1.52667,-11.3333 -0.29467,-2.8267 -0.128,-5.8267 -0.908,-8.5734 -0.003,0 -0.009,0 -0.012,-0.013 0.33467,-0.4667 0.69067,-0.9333 1.084,-1.3867 0.884,-1.0266 1.87733,-1.9466 2.916,-2.8266 z m 10.89333,-6.2934 c -1.036,1.52 -0.89466,4.0534 -0.95333,5.7067 -0.16667,4.7733 -0.492,9.4533 0.11733,14.2133 0.65734,5.1467 3.716,15.72 10.38534,15.9867 8.01066,0.32 11.82933,-7.0267 12.79466,-13.92 0.65067,-4.6267 0.88534,-9.36 1.008,-14.0267 0.0773,-2.96 0.004,-5.9066 -0.19866,-8.8666 -0.13467,-1.9467 -0.0933,-4.2134 -0.76934,-6.08 1.22667,-0.3334 2.45067,-0.6667 3.676,-0.9867 -0.12533,0.093 -0.204,0.24 -0.10666,0.4133 0.652,1.16 0.17333,3.5867 0.16933,4.8134 -0.0107,2.4133 -0.0133,4.8266 0.0387,7.2266 0.092,4.16 0.296,8.32 0.244,12.48 -0.10934,8.68 -1.82,17.6267 -8.32267,23.8534 -3.62933,3.48 -8.64133,4.36 -13.244,2.4 -4.36,-1.8667 -6.51867,-6.6134 -8.03067,-10.7734 -3.50266,-9.6266 -2.168,-19.3866 -2.23333,-29.3866 -10e-4,-0.1867 -0.14,-0.28 -0.28667,-0.3067 1.84,-1.0267 3.76,-1.9467 5.712,-2.7467 z m 15.68667,-5.1733 h -10e-4 c 1.128,9.1867 4.81066,19.88 0.36133,28.8133 -0.496,1 -1.24533,1.7867 -2.15467,2.4134 -2.36133,1.6266 -4.208,-0.56 -5.31466,-2.3067 -1.36134,-2.1467 -1.93734,-4.7733 -2.39867,-7.24 -1.12,-5.96 -0.208,-12.2133 -0.27067,-18.2267 -0.004,-0.4266 -0.67066,-0.4266 -0.66666,0 0.0773,7.3867 -0.90934,14.7867 1.14,22.0134 0.9,3.1733 3.16,7.96 7.17066,6.6666 3.592,-1.1733 4.49734,-6.4266 4.884,-9.56 0.42267,-3.44 0.23334,-7 -0.009,-10.44 -0.292,-4.1333 -1.57333,-8.04 -2.07467,-12.1333 -0.008,-0.067 -0.052,-0.1067 -0.0907,-0.16 1.82533,-0.5067 3.652,-1 5.48266,-1.4933 1.19467,3.24 0.91067,7.7066 0.96267,11.1066 0.0573,3.68 -0.12267,7.36 -0.388,11.04 -0.55067,7.5734 -1.064,16.28 -9.24133,19.4534 -8.88134,3.4533 -12.604,-9.8267 -13.4,-16.04 -0.45867,-3.5867 -0.26534,-7.2667 -0.0707,-10.8667 0.12,-2.2267 -0.46933,-6.48 1.42533,-8.0267 0.11334,-0.08 0.12934,-0.2 0.0947,-0.2933 1.61467,-0.64 3.23333,-1.2267 4.82,-1.76 3.20667,-1.0933 6.46667,-2.04 9.74,-2.96 z m 84.57066,-12.8133 c -0.001,0.013 -0.0173,0.027 -0.016,0.04 0.28667,8 0.66,15.9333 0.54134,23.96 -0.0827,5.6266 1.13333,14.2933 -3.92534,18.16 -6.50266,4.9733 -7.95466,-13.9467 -8.01733,-16.1867 -0.236,-8.3733 -0.74,-17.3467 0.72267,-25.6267 0.012,-0.067 -0.0173,-0.1066 -0.0373,-0.16 1.556,-0.027 3.112,-0.053 4.66534,-0.093 2.02266,-0.027 4.04533,-0.067 6.06666,-0.093 z m 10.78267,-0.12 c -0.004,0.027 -0.0213,0.027 -0.0213,0.053 -0.0253,9.5333 -0.0867,19.0667 -1.448,28.5333 -1.08667,7.5334 -2.85067,21.7067 -12.67067,22 -11.064,0.3467 -15.03333,-11.3333 -16.1,-20.2 -1.176,-9.7733 -0.204,-19.8933 0.44133,-29.6666 0.007,-0.1067 -0.0307,-0.1734 -0.0813,-0.2267 2.58533,-0.08 5.172,-0.1333 7.75733,-0.1733 -1.66133,9.4 -1.18,19.9066 -0.58133,29.4133 0.19733,3.1333 1.34,13.68 6.192,13.9067 6.02133,0.2933 6.70933,-8.6134 6.81333,-12.7467 0.26134,-10.28 -0.0653,-20.4667 -0.43333,-30.7333 -10e-4,-0.027 -0.02,-0.027 -0.024,-0.053 3.38533,-0.053 6.77067,-0.08 10.156,-0.1066 z m 6.17333,0 c -0.10533,0.04 -0.19466,0.12 -0.19466,0.2666 -0.0107,12.04 -0.90667,23.7467 -2.69467,35.64 -0.72933,4.8534 -1.22667,9.7467 -3.692,14.08 -2.71333,4.7734 -8.696,6.84 -13.888,6.9867 -5.03467,0.1467 -10.42533,-2.6533 -14.1,-5.8933 -4.22666,-3.7334 -5.75733,-9.6267 -7.212,-14.8534 -1.672,-6.0133 -2.34533,-11.9466 -2.13866,-18.1866 0.188,-5.6534 1.38666,-11.2534 1.504,-16.88 0.008,-0.4267 -0.65867,-0.4267 -0.66667,0 -0.144,6.8933 -1.57333,13.7333 -1.56533,20.6666 0.008,6.5334 1.56,12.8 3.53866,18.9867 1.47867,4.6267 3.54934,9.0667 7.57867,12 3.768,2.7467 8.35733,4.7067 13.06133,4.8267 4.32933,0.12 8.77467,-1.6267 12.05467,-4.3867 3.79733,-3.1867 4.86533,-8.68 5.608,-13.2933 2.12133,-13.2267 3.26666,-26.2934 3.27866,-39.6934 0,-0.1466 -0.088,-0.2266 -0.19333,-0.2666 3.22133,0.013 6.44267,0.027 9.66667,0.08 0.552,0.013 1.10266,0.027 1.65466,0.04 0.94934,1.3333 -0.99466,17.5733 -1.12266,19.32 -0.51467,6.9466 -1.67867,13.8666 -3.59467,20.56 -3.648,12.76 -12.59733,23.0933 -26.712,23.0533 -13.044,-0.04 -24.31466,-10.84 -28.55733,-22.4133 -4.45067,-12.12 -3.69067,-26.1067 -3.696,-38.8134 0,-0.1466 -0.088,-0.2266 -0.19333,-0.2666 5.22533,-0.6 10.48,-0.8934 15.74133,-1.0534 -0.052,0.053 -0.0987,0.12 -0.104,0.2134 -0.77867,11.8 -2.05067,24.2133 0.624,35.8666 1.82,7.92 7.168,14.2667 15.70133,14.6667 8.95467,0.4267 11.128,-11.4533 12.512,-17.96 2.316,-10.8933 2.244,-22.1733 2.27333,-33.24 0,-0.027 -0.0173,-0.027 -0.02,-0.053 1.84934,0 3.69867,0 5.548,0 z m 63.256,2.1466 c 0,0 -0.005,0.013 -0.005,0.013 -0.33867,5.7733 0.36933,11.84 0.736,17.6133 0.34933,5.5067 1.632,13.2 -0.75333,18.3867 -1.49734,0.2 -2.99334,0.3866 -4.49067,0.5866 -0.856,-0.9066 -1.46,-1.96 -1.812,-3.16 -0.55467,-1.4266 -0.876,-2.9466 -1.18667,-4.4533 -0.69866,-3.3733 -0.82,-6.88 -1,-10.32 -0.30666,-5.8267 -0.99466,-12.76 0.49467,-18.4533 0.108,-0.4134 -0.53467,-0.5867 -0.64267,-0.1734 -0.836,3.1867 -0.62933,6.6134 -0.69066,9.88 -0.0827,4.4667 0.13066,8.92 0.452,13.36 0.328,4.5334 0.69466,13.6267 6.22,15.04 5.032,1.28 4.42666,-9.84 4.444,-11.9866 0.072,-8.7334 -1.61334,-17.5734 -1.10534,-26.2934 3.488,0.16 6.976,0.3334 10.464,0.5067 -0.0733,0.053 -0.12933,0.12 -0.12933,0.24 -0.0373,5.6267 -0.50533,11.24 -0.752,16.8533 -0.252,5.7067 -0.176,11.4534 -0.81867,17.1334 -0.66533,5.8933 -2.45333,11.56 -4.784,16.9866 -1.824,4.2534 -4.20933,8.9334 -8.99066,10.2934 -11.652,3.3066 -15.24,-18.2667 -16.68,-25.5467 -1.17734,-5.9467 -1.888,-12 -2.46534,-18.0267 -0.60266,-6.32 -0.0987,-12.6933 -0.176,-19.0266 -0.005,-0.4267 -0.672,-0.4267 -0.66666,0 0.088,7.1866 -0.344,14.3466 0.42933,21.52 0.7,6.4666 1.576,12.9066 2.97733,19.2666 1.74134,7.9067 4.612,22.56 15.04,22.68 9.14667,0.1067 13.00667,-14.5866 14.71867,-21.24 1.60667,-6.2533 1.67867,-12.64 1.892,-19.04 0.24133,-7.28 0.89467,-14.56 0.94267,-21.8533 0,-0.093 -0.0413,-0.1733 -0.0973,-0.2267 0.336,0.013 0.672,0.04 1.008,0.053 1.216,0.053 2.42934,0.12 3.644,0.1866 -10e-4,7.0267 -0.36,14 -0.60133,21.0134 -0.26,7.5733 -0.29333,15.16 -1.98667,22.5866 -2.69733,11.8267 -3.092,32.16 -18.95466,33.8267 -8.11467,0.8533 -12.52934,-6.52 -15.47734,-12.8267 -3.27066,-7 -4.75733,-14.3466 -5.772,-21.96 -0.94266,-7.0666 -1.51333,-14.1466 -1.96666,-21.2666 -0.49467,-7.7867 0.15066,-15.4934 0.092,-23.2667 0,-0.1067 -0.0427,-0.1733 -0.0973,-0.2267 3.41334,0.1334 6.82534,0.2934 10.23867,0.44 -0.004,0.013 -0.0147,0.013 -0.0173,0.027 -1.07867,5.0533 -0.92134,10.6533 -0.87067,15.8 0.0587,5.9333 0.864,11.8267 2.216,17.6 1.416,6.04 3.47733,15.88 11.264,16.36 9.31333,0.5867 11.236,-8.4933 11.556,-15.9867 0.26133,-6.1066 0.13733,-12.2 0.484,-18.3066 0.164,-2.8934 0.27067,-5.7867 0.28533,-8.68 0.007,-1.3867 0.51467,-4.08 -0.21466,-5.3067 -0.21867,-0.3733 -0.796,-0.04 -0.576,0.3333 0.61733,1.04 0.116,3.8 0.124,4.9734 0.0147,2.4666 -0.0933,4.9466 -0.21734,7.4133 -0.22666,4.56 -0.52533,9.12 -0.516,13.6933 0.016,8.1334 0.32534,22.8667 -11.75333,21.08 -7.42667,-1.1066 -9.08133,-12.3733 -10.35333,-18.24 -1.064,-4.9066 -1.50934,-9.92 -1.632,-14.9333 -0.12134,-5.0267 -0.20267,-10.7067 0.84666,-15.6267 0.0147,-0.067 -0.0147,-0.12 -0.0333,-0.1733 5.90667,0.28 11.812,0.56 17.71733,0.8533 z m 74.82267,6.76 c 0.87333,0.1467 1.748,0.3067 2.62266,0.4667 -0.0973,0.067 -0.16533,0.1733 -0.10533,0.32 0.78933,1.9733 0.0827,4.92 -0.0333,6.9733 -0.192,3.4267 -0.57867,6.8534 -0.884,10.2667 -0.54534,6.0933 0.12933,14.2267 -3.9,19.2933 -2.496,3.1467 -5.216,-2.28 -5.72,-3.5066 -0.48934,-1.1867 -0.70534,-2.48 -0.92667,-3.7334 -0.55867,-3.16 -0.73733,-6.4533 -0.82267,-9.64 -0.184,-6.8666 -0.052,-14.6 1.37334,-21.32 0.0893,-0.4133 -0.55334,-0.6 -0.64267,-0.1733 -0.87067,4.1067 -0.888,8.36 -1.144,12.5333 -0.28533,4.68 -0.38933,9.3467 0.0413,14.0267 0.288,3.12 0.89467,13.7467 6.18,13.1867 5.04934,-0.52 5.40134,-10.0667 5.74134,-13.76 0.40533,-4.4134 0.684,-8.84 1.07733,-13.2534 0.212,-2.3866 0.288,-4.7866 0.47733,-7.1866 0.10534,-1.3467 0.336,-2.6 -0.17466,-3.88 -0.0107,-0.027 -0.0347,-0.027 -0.0493,-0.053 1.99067,0.3734 3.97867,0.7867 5.95334,1.24 0,0 -0.004,0.013 -0.004,0.013 -0.14267,8.3466 -1.71334,16.84 -3.22134,25.0266 -1.184,6.44 -2.35466,16.9867 -10.95466,16.96 -8.78934,-0.027 -10.12,-14.32 -10.73467,-20.4666 -0.43067,-4.2934 -0.31333,-8.64 -0.0373,-12.9467 0.26133,-4.0933 0.348,-8.6533 1.488,-12.5867 4.80666,0.64 9.60666,1.36 14.4,2.2 z m 13.12,2.84 c -0.14667,0.013 -0.28267,0.1067 -0.28134,0.3067 0.024,9.7333 -1.15866,19.5067 -3.25333,29.0133 -2.03467,9.24 -7.04133,19.64 -18.19733,17.92 -10.09734,-1.56 -11.39467,-12.9333 -12.78134,-21.0933 -0.912,-5.3733 -1.43333,-10.8 -1.576,-16.24 -0.13733,-5.1867 0.57334,-10.32 0.696,-15.4933 0.0107,-0.4267 -0.656,-0.4267 -0.66666,0 -0.14267,6.04 -0.85067,11.9733 -0.61334,18.0266 0.23334,5.9334 1.10534,11.8267 2.18934,17.6667 1.56133,8.3867 3.98933,16.4533 13.536,17.92 8.47066,1.32 13.884,-5.6933 16.48666,-12.84 1.944,-5.3467 2.728,-11.1867 3.48,-16.7867 0.81334,-6.0666 1.38134,-11.9866 1.36667,-18.0933 -10e-4,-0.1067 -0.0427,-0.1733 -0.0987,-0.2267 1.54534,0.4267 3.076,0.92 4.588,1.4534 -0.024,0.053 -0.0507,0.12 -0.0333,0.1866 1.29867,5.6134 0.084,12.4134 -0.76533,18.0134 -0.81334,5.3733 -2.22134,10.72 -3.828,15.92 -1.60667,5.1866 -3.82,10.24 -6.86134,14.7466 -3.83866,5.7067 -12.54,7.36 -18.60933,4.6667 -9.51733,-4.2 -13.75333,-17.2133 -15.848,-26.44 -2.66533,-11.7467 -1.96267,-23.4933 -1.87867,-35.4133 4.92934,0.48 9.852,1.0133 14.76534,1.6533 -1.26134,4.4133 -1.28267,9.4267 -1.57334,13.9733 -0.33466,5.2267 -0.13733,10.44 0.60267,15.6267 0.81867,5.7333 2.624,16.0933 9.98267,17.04 7.788,1 10.47333,-6.9467 11.75466,-13.12 1.96934,-9.48 3.836,-19.56 4.01867,-29.2667 1.13867,0.2667 2.272,0.56 3.39867,0.88 z m -286.60133,41.6267 c -0.304,-0.3067 -0.77467,0.16 -0.472,0.4667 1.66933,1.68 1.68667,6.2666 2.16933,8.48 0.97067,4.44 2.59867,8.88 4.32,13.0933 2.91067,7.12 7.14267,13.4 13.84134,17.3733 11.83066,7.04 29.224,4.2934 39.11466,-4.8933 7.52534,-7 9.936,-17.5067 11.17734,-27.6533 0.0627,0.36 0.12666,0.7333 0.20666,1.1066 0.88134,4.1067 2.85067,8.04 4.82534,11.7067 3.58,6.6533 8.30933,11.8667 14.756,15.84 7.55733,4.6667 16.57866,7.2 25.32666,8.3467 8.17067,1.0533 16.72533,0.7733 24.38667,-2.56 7.29733,-3.1867 13.008,-8.5334 16.30933,-15.8134 1.84667,-4.0666 2.516,-8.5066 3.09467,-12.9066 0.296,-2.2267 0.564,-4.48 0.83333,-6.72 0.37333,10.6533 4.036,21.36 12.74533,27.3733 10.60667,7.3067 27.53067,8.2933 39.00534,2.6 5.408,-2.68 9.168,-7.48 11.26933,-13.04 1.552,-4.12 2.016,-8.6933 2.62933,-13.0133 0.532,-3.76 0.95734,-7.52 1.38534,-11.2934 -0.0293,2.32 -0.0213,4.6267 0.0613,6.9334 0.16933,4.7866 0.99733,9.48 2.68667,13.9733 2.61866,6.96 7.73066,12.92 13.65066,17.3067 11.00133,8.1466 27.32933,9.4933 39.98533,4.8533 14.96134,-5.4667 20.01067,-20.1067 22.41867,-34.6133 1.35333,-8.16 1.64533,-16.4 2.18667,-24.64 0.44266,-6.7334 0.20533,-12.8667 -5.29867,-17.4 -5.216,-4.3067 -12.292,-6.3334 -18.72667,-7.9334 -7.74,-1.92 -15.72533,-3.12 -23.612,-4.24 -20.96533,-2.9866 -42.17333,-3.68 -63.29999,-4.68 -16.52667,-0.7866 -33.04667,-1.5866 -49.58267,-1.9466 -0.10667,-0.027 -0.212,-0.053 -0.31867,-0.08 -0.12133,-0.04 -0.21333,0 -0.28533,0.067 -5.34667,-0.1066 -10.696,-0.1733 -16.04667,-0.1733 -18.51733,0 -37.38666,-0.1867 -55.72799,2.7867 -0.148,-0.1867 -0.45067,-0.1467 -0.53867,0.093 -2.068,0.3333 -4.13067,0.7067 -6.184,1.1333 -10.436,2.1867 -20.66933,5.2534 -30.944,8.08 -6.77467,1.8534 -13.556,3.6267 -20.036,6.3867 -5.992,2.5467 -11.704,6.16 -15.428,11.6133 -5.01733,7.3467 -2.61733,16.2134 -1.604,24.36 -0.0947,-0.12 -0.17333,-0.2666 -0.28,-0.3733" style="fill:#577c69;fill-opacity:1;fill-rule:nonzero;stroke:none;stroke-width:0.133333"/><path id="path1457" d="m 799.58531,1178.9601 c 0,-6.44 0,-12.88 0,-19.3334 0,-5.16 -8,-5.16 -8,0 0,6.4534 0,12.8934 0,19.3334 0,5.16 8,5.16 8,0" style="fill:#534741;fill-opacity:1;fill-rule:nonzero;stroke:none;stroke-width:0.133333"/><path id="path359" d="m 637.07732,1106.0001 c 0.8,3.28 0.66133,7.0533 1.02133,10.3866 0.41733,3.8534 0.98133,7.68 1.79867,11.48 1.47066,6.8134 3.928,13.7867 6.97066,20.0667 5.152,10.6133 19.4,14.4267 30.19334,11.12 12.924,-3.9733 14.66,-18.9067 15.93866,-30.24 0.912,-8.08 1.27334,-16.2267 2.12134,-24.32 0.396,-3.7733 0.76666,-7.5333 0.90133,-11.3333 0.13067,-3.6267 -0.82667,-7.44 0.003,-11.0134 1.96533,-0.48 3.93733,-0.9333 5.91333,-1.36 0,0 -0.007,0 -0.007,0.013 0.004,2.7866 -0.57466,5.7466 -0.816,8.5333 -0.352,4.0533 -0.88666,8.0933 -1.46266,12.1333 -1.05334,7.3734 -1.64934,14.8267 -1.88,22.28 -0.22267,7.16 0.45466,14.7734 -1.30134,21.7734 -1.80133,7.1866 -6.54933,12.2266 -12.79866,15.84 -6.86667,3.96 -13.69467,4.9866 -21.47734,3.8 -7.30533,-1.12 -13.13333,-7.6934 -16.62666,-13.7734 -3.27067,-5.6933 -4.90134,-12.24 -6.424,-18.5733 -0.92534,-3.84 -1.39867,-7.7467 -1.90534,-11.6667 -0.42666,-3.3066 -1.544,-6.6933 -1.53066,-10.0133 10e-4,-0.4267 -0.66534,-0.4267 -0.66667,0 -0.016,3.7333 1.208,7.52 1.68667,11.2133 0.46266,3.5867 0.93866,7.1334 1.77333,10.6534 1.61333,6.7866 3.50667,13.5333 7.00667,19.6266 2.83733,4.9334 7.75866,10.3867 13.27866,12.2934 6.29867,2.1733 13.95334,2.1466 20.10134,-0.4667 5.99466,-2.56 11.36,-5.8533 14.992,-11.36 4.00933,-6.0933 4.22666,-13.1067 4.38933,-20.16 0.21067,-9.2 0.47467,-18.32 1.53467,-27.48 0.48133,-4.16 1.14933,-8.3067 1.61466,-12.4667 0.444,-3.9733 1.184,-8.2133 1.17867,-12.1866 0,-0.067 -0.0373,-0.1067 -0.064,-0.1467 2.04667,-0.44 4.10267,-0.8267 6.164,-1.2 -0.084,9.12 -1.416,18.7067 0,27.7333 1.364,8.68 2.89867,17.9734 6.44533,26.0667 3.46267,7.9067 8.85867,13.4 15.46134,18.7867 6.35733,5.1866 12.65999,8.6133 20.81999,9.96 7.06934,1.16 13.71734,-0.2 18.9,-5.3067 6.036,-5.96 9.46267,-14.1733 11.556,-22.2 2.41734,-9.28 3.472,-18.56 3.832,-28.12 0.19334,-5.1067 0.51734,-10.2 0.77467,-15.32 0.232,-4.6 -0.37733,-9.1333 -0.33467,-13.6933 0.004,-0.4267 -0.66266,-0.4267 -0.66666,0 -0.0347,3.7466 0.48533,7.4933 0.41733,11.28 -0.0747,4.1866 -0.484,8.36 -0.664,12.5466 -0.39067,9.0934 -0.74667,17.9867 -2.58,26.9334 -1.74533,8.52 -4.19467,16.24 -9.144,23.4666 -2.18267,3.1867 -4.576,5.9467 -7.93867,7.92 -4.64133,2.72 -10.01733,2.4934 -15.128,1.6534 -7.95333,-1.3067 -14.07333,-5.2667 -20.21066,-10.2667 -6.872,-5.6133 -12.12267,-11.68 -15.34133,-20.0533 -3.004,-7.8134 -4.608,-16.6934 -5.70534,-24.96 -1.148,-8.6667 0.104,-17.8134 0.176,-26.5334 1.91734,-0.3333 3.83867,-0.64 5.77067,-0.8933 0.62933,-0.08 1.26133,-0.1467 1.892,-0.2133 -0.0573,0.053 -0.0987,0.12 -0.0987,0.2266 0.007,13.3734 -0.87333,28.4 4.48534,41 4.832,11.3467 15.83066,20.24 28.43466,20.8934 12.39733,0.64 21.36267,-8.2667 25.768,-18.9467 5.688,-13.8 5.812,-29.9467 6.32533,-44.64 6.15734,0.12 12.31334,0.32 18.468,0.5467 -0.008,0.04 -0.036,0.08 -0.0253,0.12 0.85733,4.2666 -0.444,9.0133 -0.756,13.3066 -0.37333,5.1334 -0.56133,10.28 -0.69467,15.44 -0.26266,10.0267 -0.87333,19.6134 1.116,29.52 1.46267,7.2934 3.176,16.32 8.04,22.24 4.68934,5.72 12.592,8.8134 19.90534,8.68 6.55066,-0.12 12.41733,-3.3866 16.23333,-8.6 2.54,-3.4666 4.72,-7.1333 6.03333,-11.24 1.42,-4.44 1.48667,-9.2933 2.27067,-13.8666 0.812,-4.72 1.00933,-9.4934 1.30133,-14.2667 0.32,-5.24 1.09867,-10.4267 1.652,-15.6267 0.532,-4.9866 0.51067,-10.0266 0.85334,-15.04 0.15333,-2.2533 1.29733,-5.6266 0.32133,-7.8 -0.176,-0.3866 -0.75067,-0.053 -0.576,0.3334 0.55867,1.24 0.04,3.2 -0.12267,4.4666 -0.23466,1.8267 -0.34133,3.6667 -0.44666,5.5067 -0.24,4.1867 -0.30534,8.36 -0.696,12.5333 -0.80934,8.64 -1.492,17.3334 -2.38,25.96 -0.87067,8.4667 -1.736,17.4667 -6.188,24.8667 -4.632,7.7067 -11.096,12.3867 -20.336,12.08 -8.31467,-0.2667 -16.1,-5.2133 -19.86,-12.5067 -4.02134,-7.8 -5.788,-17.88 -6.728,-26.52 -0.924,-8.48 0.132,-17.3733 0.42933,-25.88 0.15067,-4.28 0.39867,-8.5733 0.732,-12.8533 0.28,-3.6133 1.25467,-7.2133 0.54933,-10.8267 0.96,0.027 1.92134,0.067 2.88134,0.1067 -0.0613,0.053 -0.10267,0.1333 -0.10267,0.24 0.064,8.64 -0.512,17.1733 0.076,25.8267 0.54,7.9466 1.308,15.84 2.50667,23.72 1.14666,7.52 3.568,14.7333 7.244,21.4 3.01866,5.4666 7.47733,9.2666 13.964,9.04 14.14533,-0.48 16.18933,-17.9867 18.192,-28.3334 0.708,-3.6533 1.88533,-7.2133 2.356,-10.92 0.53733,-4.2266 0.76,-8.4533 0.904,-12.7066 0.296,-8.7067 0.75466,-17.3867 0.75733,-26.1067 7.944,0.4133 15.86933,0.92 23.77466,1.6 -0.34933,7.7067 -0.98666,15.2267 -0.472,22.9467 0.484,7.24 1.87867,14.32 3.612,21.3466 1.45467,5.9067 2.72134,11.88 6.62534,16.72 3.872,4.7867 7.96533,7.0267 13.956,8.3467 12.328,2.72 20.98266,-5.1733 25.79733,-15.8267 2.68133,-5.92 4.364,-12.28 6.15733,-18.5066 2.116,-7.3467 2.296,-15.0934 3.76,-22.5734 0.0827,-0.4133 -0.56,-0.6 -0.64266,-0.1733 -1.15867,5.92 -1.58267,11.9467 -2.65734,17.88 -1.02133,5.64 -2.91066,11.2533 -4.736,16.68 -1.948,5.7867 -4.39066,11.72 -8.62933,16.2267 -5.14,5.4533 -11.696,7.0133 -18.872,5.6533 -6.512,-1.24 -11.02533,-4.3733 -14.81333,-9.76 -3.724,-5.3067 -4.77734,-12.48 -6.22,-18.6533 -1.52534,-6.5467 -2.448,-13.16 -2.824,-19.8667 -0.38267,-6.8267 0.30933,-13.56 0.62133,-20.3733 1.008,0.08 2.016,0.16 3.024,0.2666 -0.003,0.013 -0.016,0.013 -0.016,0.027 -0.096,13.5867 -0.66,26.76 3.00133,39.9867 2.57334,9.3066 8.18667,21.5333 18.708,23.64 4.456,0.8933 9.97334,-0.6 13.49734,-3.3867 4.144,-3.28 6.384,-9.5467 8.17866,-14.32 2.31467,-6.1467 3.87067,-12.72 4.948,-19.2 0.94667,-5.68 2.06,-12.4267 0.804,-18.1333 1.224,0.44 2.44,0.92 3.63334,1.44 2.492,1.1066 4.85333,2.52 6.92533,4.28 -0.0547,0.04 -0.108,0.08 -0.12933,0.16 -1.76,7.0266 -1.31867,13.72 -1.55334,20.88 -0.25733,7.8666 -2.53333,15.52 -4.99333,22.92 -2.44267,7.36 -6.44667,12.7733 -12.932,17.0666 -6.34533,4.2 -14.37867,5.92 -21.896,4.8534 -7.18933,-1.0267 -13.33067,-6.24 -17.87733,-11.5734 -5.07467,-5.96 -7.68667,-12.9866 -8.86934,-20.64 -1.24666,-8.08 -1.90933,-16.32 -2.16799,-24.48 -0.25467,-8 1.64799,-15.9733 1.37199,-23.9333 -0.008,-0.2267 -0.20533,-0.36 -0.42133,-0.32 -0.472,0.08 -0.46267,0.1067 -0.73867,0.48 -0.25066,0.36 0.328,0.6933 0.576,0.3467 -0.58,0.8 -0.28266,3.9333 -0.40533,5 -0.27733,2.3733 -0.40933,4.7733 -0.59466,7.1733 -0.35334,4.5867 -0.56667,9.1467 -0.35867,13.7467 0.384,8.5066 1.09066,17.1333 2.66533,25.4933 2.51067,13.3333 13.55333,27.48 27.61733,29.48 12.94134,1.84 26.92267,-5.6933 32.71067,-17.2933 3.50933,-7.04 5.48533,-15.7334 6.556,-23.48 0.55733,-4.0267 0.47867,-8.0534 0.37467,-12.0934 -0.116,-4.52 0.46666,-8.96 1.55466,-13.3333 0.41334,0.3733 0.836,0.7333 1.22134,1.1467 3.22933,3.3866 3.12,8.6666 2.95333,13.0266 -0.33333,8.7734 -0.908,17.6 -2.26267,26.2667 -1.37066,8.7867 -3.64266,18.2267 -9.3,25.28 -9.75333,12.1733 -27.87866,13.4267 -41.80533,9.2267 -9.21867,-2.7734 -16.76933,-9.4667 -21.56933,-17.6934 -5.58533,-9.5733 -4.78267,-20.6133 -4.75733,-31.2533 0,-0.44 -0.616,-0.4133 -0.66667,0 -0.816,6.5867 -1.47467,13.2 -2.44933,19.76 -0.81867,5.52 -1.79467,10.8933 -4.80934,15.6667 -5.41733,8.6 -16.03466,11 -25.52533,10.8666 -10.15733,-0.1333 -21.152,-3.4533 -27.45067,-11.88 -5.456,-7.2933 -6.888,-18.1466 -5.98266,-27.68 0.32666,-2.3466 0.68,-4.68 1.12666,-7.0133 0.08,-0.4133 -0.544,-0.6 -0.64266,-0.1733 -0.704,3 -1.14667,6.2133 -1.30934,9.5066 -1.09466,10.3867 -1.804,21.1467 -7.94266,29.6267 -6.892,9.5333 -19.128,13.0133 -30.38134,12.76 -11.94133,-0.2667 -24.73466,-3.9733 -34.49999,-10.9067 -5.26934,-3.7333 -8.836,-8.8133 -11.85867,-14.44 -1.65733,-3.08 -3.03733,-6.3066 -4.01733,-9.6666 -1.22667,-4.2134 -0.104,-8.12 -0.0373,-12.36 0.007,-0.4267 -0.628,-0.4134 -0.66666,0 -0.888,9.6933 -1.68267,19.7066 -5.748,28.6933 -4.77334,10.5333 -14.808,16.0533 -25.992,17.3333 -12.032,1.3867 -23.02,-4.0133 -29.13734,-14.4266 -3.35466,-5.7067 -5.484,-12.24 -7.17866,-18.6267 -0.592,-2.2267 -0.54667,-6.0667 -1.78,-8.3733 0.16133,0 0.308,-0.1067 0.284,-0.3067 -1.052,-8.7333 -3.07334,-17.1867 1.812,-24.6933 z m 4.49733,-4.96 c -0.596,1.5333 -0.40133,3.4666 -0.29733,5.04 0.20933,3.2133 0.80133,6.4133 1.16133,9.6133 0.67333,5.9733 1.51467,11.9467 3.69067,17.5867 3.60266,9.3466 11.92666,17.32 22.50933,15.5866 11.30667,-1.84 16.41067,-13.2933 18.06,-23.28 1.06267,-6.4533 1.436,-13.0133 1.76533,-19.5333 0.352,-6.96 0.984,-14.12 -0.32266,-21.0133 -0.0787,-0.4134 -0.72134,-0.24 -0.64267,0.1866 1.06267,5.6 0.704,11.2934 0.47333,16.96 -0.24666,6.0267 -0.6,12.0534 -1.24,18.0534 -1.16,10.88 -3.88266,21.5733 -14.52533,26.7866 -11.732,5.7334 -21.93067,-4.8266 -25.83067,-14.9466 -2.00266,-5.2 -2.63866,-10.9067 -3.27066,-16.3867 -0.248,-2.16 -0.476,-4.32 -0.77867,-6.4667 -0.324,-2.3066 -1.108,-5.7866 -0.10667,-8.04 0.10267,-0.2266 -0.06,-0.4133 -0.244,-0.4666 1.388,-1.1334 2.88,-2.1334 4.44934,-3.04 -0.016,0.04 -0.0493,0.067 -0.0493,0.12 0.0373,5.72 -0.352,11.4266 -0.248,17.16 0.0987,5.3466 1.60134,10.5066 3.67867,15.4133 3.11467,7.3733 10.664,11.6533 18.22667,7.8267 7.91466,-4 10.61733,-14.2267 11.31333,-22.28 0.45067,-5.2134 0.13333,-10.4667 -0.024,-15.68 -0.0813,-2.7467 -0.0787,-5.4934 -0.0653,-8.24 0.007,-1.48 0.51333,-3.7734 -0.26,-5.1467 -0.052,-0.093 -0.12667,-0.1333 -0.20667,-0.16 1.36267,-0.36 2.728,-0.72 4.084,-1.0933 4.136,-1.1467 8.284,-2.2667 12.45333,-3.2934 -0.42933,2.16 -0.23466,4.32 -0.0493,6.5067 0.26533,3.12 0.028,6.28 -0.21067,9.4 -0.55066,7.2133 -1.36933,14.4 -1.924,21.6133 -0.55066,7.1467 -1.25066,14.2934 -2.74533,21.3067 -1.476,6.9333 -4.52667,12.28 -10.71333,16 -5.66267,3.4 -13.412,2.6133 -19.47734,0.8933 -7.46933,-2.12 -11.65733,-7.2666 -14.412,-14.24 -2.396,-6.0666 -4.51066,-12.2133 -5.77466,-18.6133 -0.73867,-3.7467 -1.132,-7.5467 -1.52667,-11.3333 -0.29467,-2.8267 -0.128,-5.8267 -0.908,-8.5734 -0.003,0 -0.009,0 -0.012,-0.013 0.33467,-0.4667 0.69067,-0.9333 1.084,-1.3867 0.884,-1.0266 1.87733,-1.9466 2.916,-2.8266 z m 10.89333,-6.2934 c -1.036,1.52 -0.89466,4.0534 -0.95333,5.7067 -0.16667,4.7733 -0.492,9.4533 0.11733,14.2133 0.65734,5.1467 3.716,15.72 10.38534,15.9867 8.01066,0.32 11.82933,-7.0267 12.79466,-13.92 0.65067,-4.6267 0.88534,-9.36 1.008,-14.0267 0.0773,-2.96 0.004,-5.9066 -0.19866,-8.8666 -0.13467,-1.9467 -0.0933,-4.2134 -0.76934,-6.08 1.22667,-0.3334 2.45067,-0.6667 3.676,-0.9867 -0.12533,0.093 -0.204,0.24 -0.10666,0.4133 0.652,1.16 0.17333,3.5867 0.16933,4.8134 -0.0107,2.4133 -0.0133,4.8266 0.0387,7.2266 0.092,4.16 0.296,8.32 0.244,12.48 -0.10934,8.68 -1.82,17.6267 -8.32267,23.8534 -3.62933,3.48 -8.64133,4.36 -13.244,2.4 -4.36,-1.8667 -6.51867,-6.6134 -8.03067,-10.7734 -3.50266,-9.6266 -2.168,-19.3866 -2.23333,-29.3866 -10e-4,-0.1867 -0.14,-0.28 -0.28667,-0.3067 1.84,-1.0267 3.76,-1.9467 5.712,-2.7467 z m 15.68667,-5.1733 h -10e-4 c 1.128,9.1867 4.81066,19.88 0.36133,28.8133 -0.496,1 -1.24533,1.7867 -2.15467,2.4134 -2.36133,1.6266 -4.208,-0.56 -5.31466,-2.3067 -1.36134,-2.1467 -1.93734,-4.7733 -2.39867,-7.24 -1.12,-5.96 -0.208,-12.2133 -0.27067,-18.2267 -0.004,-0.4266 -0.67066,-0.4266 -0.66666,0 0.0773,7.3867 -0.90934,14.7867 1.14,22.0134 0.9,3.1733 3.16,7.96 7.17066,6.6666 3.592,-1.1733 4.49734,-6.4266 4.884,-9.56 0.42267,-3.44 0.23334,-7 -0.009,-10.44 -0.292,-4.1333 -1.57333,-8.04 -2.07467,-12.1333 -0.008,-0.067 -0.052,-0.1067 -0.0907,-0.16 1.82533,-0.5067 3.652,-1 5.48266,-1.4933 1.19467,3.24 0.91067,7.7066 0.96267,11.1066 0.0573,3.68 -0.12267,7.36 -0.388,11.04 -0.55067,7.5734 -1.064,16.28 -9.24133,19.4534 -8.88134,3.4533 -12.604,-9.8267 -13.4,-16.04 -0.45867,-3.5867 -0.26534,-7.2667 -0.0707,-10.8667 0.12,-2.2267 -0.46933,-6.48 1.42533,-8.0267 0.11334,-0.08 0.12934,-0.2 0.0947,-0.2933 1.61467,-0.64 3.23333,-1.2267 4.82,-1.76 3.20667,-1.0933 6.46667,-2.04 9.74,-2.96 z m 84.57066,-12.8133 c -0.001,0.013 -0.0173,0.027 -0.016,0.04 0.28667,8 0.66,15.9333 0.54134,23.96 -0.0827,5.6266 1.13333,14.2933 -3.92534,18.16 -6.50266,4.9733 -7.95466,-13.9467 -8.01733,-16.1867 -0.236,-8.3733 -0.74,-17.3467 0.72267,-25.6267 0.012,-0.067 -0.0173,-0.1066 -0.0373,-0.16 1.556,-0.027 3.112,-0.053 4.66534,-0.093 2.02266,-0.027 4.04533,-0.067 6.06666,-0.093 z m 10.78267,-0.12 c -0.004,0.027 -0.0213,0.027 -0.0213,0.053 -0.0253,9.5333 -0.0867,19.0667 -1.448,28.5333 -1.08667,7.5334 -2.85067,21.7067 -12.67067,22 -11.064,0.3467 -15.03333,-11.3333 -16.1,-20.2 -1.176,-9.7733 -0.204,-19.8933 0.44133,-29.6666 0.007,-0.1067 -0.0307,-0.1734 -0.0813,-0.2267 2.58533,-0.08 5.172,-0.1333 7.75733,-0.1733 -1.66133,9.4 -1.18,19.9066 -0.58133,29.4133 0.19733,3.1333 1.34,13.68 6.192,13.9067 6.02133,0.2933 6.70933,-8.6134 6.81333,-12.7467 0.26134,-10.28 -0.0653,-20.4667 -0.43333,-30.7333 -10e-4,-0.027 -0.02,-0.027 -0.024,-0.053 3.38533,-0.053 6.77067,-0.08 10.156,-0.1066 z m 6.17333,0 c -0.10533,0.04 -0.19466,0.12 -0.19466,0.2666 -0.0107,12.04 -0.90667,23.7467 -2.69467,35.64 -0.72933,4.8534 -1.22667,9.7467 -3.692,14.08 -2.71333,4.7734 -8.696,6.84 -13.888,6.9867 -5.03467,0.1467 -10.42533,-2.6533 -14.1,-5.8933 -4.22666,-3.7334 -5.75733,-9.6267 -7.212,-14.8534 -1.672,-6.0133 -2.34533,-11.9466 -2.13866,-18.1866 0.188,-5.6534 1.38666,-11.2534 1.504,-16.88 0.008,-0.4267 -0.65867,-0.4267 -0.66667,0 -0.144,6.8933 -1.57333,13.7333 -1.56533,20.6666 0.008,6.5334 1.56,12.8 3.53866,18.9867 1.47867,4.6267 3.54934,9.0667 7.57867,12 3.768,2.7467 8.35733,4.7067 13.06133,4.8267 4.32933,0.12 8.77467,-1.6267 12.05467,-4.3867 3.79733,-3.1867 4.86533,-8.68 5.608,-13.2933 2.12133,-13.2267 3.26666,-26.2934 3.27866,-39.6934 0,-0.1466 -0.088,-0.2266 -0.19333,-0.2666 3.22133,0.013 6.44267,0.027 9.66667,0.08 0.552,0.013 1.10266,0.027 1.65466,0.04 0.94934,1.3333 -0.99466,17.5733 -1.12266,19.32 -0.51467,6.9466 -1.67867,13.8666 -3.59467,20.56 -3.648,12.76 -12.59733,23.0933 -26.712,23.0533 -13.044,-0.04 -24.31466,-10.84 -28.55733,-22.4133 -4.45067,-12.12 -3.69067,-26.1067 -3.696,-38.8134 0,-0.1466 -0.088,-0.2266 -0.19333,-0.2666 5.22533,-0.6 10.48,-0.8934 15.74133,-1.0534 -0.052,0.053 -0.0987,0.12 -0.104,0.2134 -0.77867,11.8 -2.05067,24.2133 0.624,35.8666 1.82,7.92 7.168,14.2667 15.70133,14.6667 8.95467,0.4267 11.128,-11.4533 12.512,-17.96 2.316,-10.8933 2.244,-22.1733 2.27333,-33.24 0,-0.027 -0.0173,-0.027 -0.02,-0.053 1.84934,0 3.69867,0 5.548,0 z m 63.256,2.1466 c 0,0 -0.005,0.013 -0.005,0.013 -0.33867,5.7733 0.36933,11.84 0.736,17.6133 0.34933,5.5067 1.632,13.2 -0.75333,18.3867 -1.49734,0.2 -2.99334,0.3866 -4.49067,0.5866 -0.856,-0.9066 -1.46,-1.96 -1.812,-3.16 -0.55467,-1.4266 -0.876,-2.9466 -1.18667,-4.4533 -0.69866,-3.3733 -0.82,-6.88 -1,-10.32 -0.30666,-5.8267 -0.99466,-12.76 0.49467,-18.4533 0.108,-0.4134 -0.53467,-0.5867 -0.64267,-0.1734 -0.836,3.1867 -0.62933,6.6134 -0.69066,9.88 -0.0827,4.4667 0.13066,8.92 0.452,13.36 0.328,4.5334 0.69466,13.6267 6.22,15.04 5.032,1.28 4.42666,-9.84 4.444,-11.9866 0.072,-8.7334 -1.61334,-17.5734 -1.10534,-26.2934 3.488,0.16 6.976,0.3334 10.464,0.5067 -0.0733,0.053 -0.12933,0.12 -0.12933,0.24 -0.0373,5.6267 -0.50533,11.24 -0.752,16.8533 -0.252,5.7067 -0.176,11.4534 -0.81867,17.1334 -0.66533,5.8933 -2.45333,11.56 -4.784,16.9866 -1.824,4.2534 -4.20933,8.9334 -8.99066,10.2934 -11.652,3.3066 -15.24,-18.2667 -16.68,-25.5467 -1.17734,-5.9467 -1.888,-12 -2.46534,-18.0267 -0.60266,-6.32 -0.0987,-12.6933 -0.176,-19.0266 -0.005,-0.4267 -0.672,-0.4267 -0.66666,0 0.088,7.1866 -0.344,14.3466 0.42933,21.52 0.7,6.4666 1.576,12.9066 2.97733,19.2666 1.74134,7.9067 4.612,22.56 15.04,22.68 9.14667,0.1067 13.00667,-14.5866 14.71867,-21.24 1.60667,-6.2533 1.67867,-12.64 1.892,-19.04 0.24133,-7.28 0.89467,-14.56 0.94267,-21.8533 0,-0.093 -0.0413,-0.1733 -0.0973,-0.2267 0.336,0.013 0.672,0.04 1.008,0.053 1.216,0.053 2.42934,0.12 3.644,0.1866 -10e-4,7.0267 -0.36,14 -0.60133,21.0134 -0.26,7.5733 -0.29333,15.16 -1.98667,22.5866 -2.69733,11.8267 -3.092,32.16 -18.95466,33.8267 -8.11467,0.8533 -12.52934,-6.52 -15.47734,-12.8267 -3.27066,-7 -4.75733,-14.3466 -5.772,-21.96 -0.94266,-7.0666 -1.51333,-14.1466 -1.96666,-21.2666 -0.49467,-7.7867 0.15066,-15.4934 0.092,-23.2667 0,-0.1067 -0.0427,-0.1733 -0.0973,-0.2267 3.41334,0.1334 6.82534,0.2934 10.23867,0.44 -0.004,0.013 -0.0147,0.013 -0.0173,0.027 -1.07867,5.0533 -0.92134,10.6533 -0.87067,15.8 0.0587,5.9333 0.864,11.8267 2.216,17.6 1.416,6.04 3.47733,15.88 11.264,16.36 9.31333,0.5867 11.236,-8.4933 11.556,-15.9867 0.26133,-6.1066 0.13733,-12.2 0.484,-18.3066 0.164,-2.8934 0.27067,-5.7867 0.28533,-8.68 0.007,-1.3867 0.51467,-4.08 -0.21466,-5.3067 -0.21867,-0.3733 -0.796,-0.04 -0.576,0.3333 0.61733,1.04 0.116,3.8 0.124,4.9734 0.0147,2.4666 -0.0933,4.9466 -0.21734,7.4133 -0.22666,4.56 -0.52533,9.12 -0.516,13.6933 0.016,8.1334 0.32534,22.8667 -11.75333,21.08 -7.42667,-1.1066 -9.08133,-12.3733 -10.35333,-18.24 -1.064,-4.9066 -1.50934,-9.92 -1.632,-14.9333 -0.12134,-5.0267 -0.20267,-10.7067 0.84666,-15.6267 0.0147,-0.067 -0.0147,-0.12 -0.0333,-0.1733 5.90667,0.28 11.812,0.56 17.71733,0.8533 z m 74.82267,6.76 c 0.87333,0.1467 1.748,0.3067 2.62266,0.4667 -0.0973,0.067 -0.16533,0.1733 -0.10533,0.32 0.78933,1.9733 0.0827,4.92 -0.0333,6.9733 -0.192,3.4267 -0.57867,6.8534 -0.884,10.2667 -0.54534,6.0933 0.12933,14.2267 -3.9,19.2933 -2.496,3.1467 -5.216,-2.28 -5.72,-3.5066 -0.48934,-1.1867 -0.70534,-2.48 -0.92667,-3.7334 -0.55867,-3.16 -0.73733,-6.4533 -0.82267,-9.64 -0.184,-6.8666 -0.052,-14.6 1.37334,-21.32 0.0893,-0.4133 -0.55334,-0.6 -0.64267,-0.1733 -0.87067,4.1067 -0.888,8.36 -1.144,12.5333 -0.28533,4.68 -0.38933,9.3467 0.0413,14.0267 0.288,3.12 0.89467,13.7467 6.18,13.1867 5.04934,-0.52 5.40134,-10.0667 5.74134,-13.76 0.40533,-4.4134 0.684,-8.84 1.07733,-13.2534 0.212,-2.3866 0.288,-4.7866 0.47733,-7.1866 0.10534,-1.3467 0.336,-2.6 -0.17466,-3.88 -0.0107,-0.027 -0.0347,-0.027 -0.0493,-0.053 1.99067,0.3734 3.97867,0.7867 5.95334,1.24 0,0 -0.004,0.013 -0.004,0.013 -0.14267,8.3466 -1.71334,16.84 -3.22134,25.0266 -1.184,6.44 -2.35466,16.9867 -10.95466,16.96 -8.78934,-0.027 -10.12,-14.32 -10.73467,-20.4666 -0.43067,-4.2934 -0.31333,-8.64 -0.0373,-12.9467 0.26133,-4.0933 0.348,-8.6533 1.488,-12.5867 4.80666,0.64 9.60666,1.36 14.4,2.2 z m 13.12,2.84 c -0.14667,0.013 -0.28267,0.1067 -0.28134,0.3067 0.024,9.7333 -1.15866,19.5067 -3.25333,29.0133 -2.03467,9.24 -7.04133,19.64 -18.19733,17.92 -10.09734,-1.56 -11.39467,-12.9333 -12.78134,-21.0933 -0.912,-5.3733 -1.43333,-10.8 -1.576,-16.24 -0.13733,-5.1867 0.57334,-10.32 0.696,-15.4933 0.0107,-0.4267 -0.656,-0.4267 -0.66666,0 -0.14267,6.04 -0.85067,11.9733 -0.61334,18.0266 0.23334,5.9334 1.10534,11.8267 2.18934,17.6667 1.56133,8.3867 3.98933,16.4533 13.536,17.92 8.47066,1.32 13.884,-5.6933 16.48666,-12.84 1.944,-5.3467 2.728,-11.1867 3.48,-16.7867 0.81334,-6.0666 1.38134,-11.9866 1.36667,-18.0933 -10e-4,-0.1067 -0.0427,-0.1733 -0.0987,-0.2267 1.54534,0.4267 3.076,0.92 4.588,1.4534 -0.024,0.053 -0.0507,0.12 -0.0333,0.1866 1.29867,5.6134 0.084,12.4134 -0.76533,18.0134 -0.81334,5.3733 -2.22134,10.72 -3.828,15.92 -1.60667,5.1866 -3.82,10.24 -6.86134,14.7466 -3.83866,5.7067 -12.54,7.36 -18.60933,4.6667 -9.51733,-4.2 -13.75333,-17.2133 -15.848,-26.44 -2.66533,-11.7467 -1.96267,-23.4933 -1.87867,-35.4133 4.92934,0.48 9.852,1.0133 14.76534,1.6533 -1.26134,4.4133 -1.28267,9.4267 -1.57334,13.9733 -0.33466,5.2267 -0.13733,10.44 0.60267,15.6267 0.81867,5.7333 2.624,16.0933 9.98267,17.04 7.788,1 10.47333,-6.9467 11.75466,-13.12 1.96934,-9.48 3.836,-19.56 4.01867,-29.2667 1.13867,0.2667 2.272,0.56 3.39867,0.88 z m -286.60133,41.6267 c -0.304,-0.3067 -0.77467,0.16 -0.472,0.4667 1.66933,1.68 1.68667,6.2666 2.16933,8.48 0.97067,4.44 2.59867,8.88 4.32,13.0933 2.91067,7.12 7.14267,13.4 13.84134,17.3733 11.83066,7.04 29.224,4.2934 39.11466,-4.8933 7.52534,-7 9.936,-17.5067 11.17734,-27.6533 0.0627,0.36 0.12666,0.7333 0.20666,1.1066 0.88134,4.1067 2.85067,8.04 4.82534,11.7067 3.58,6.6533 8.30933,11.8667 14.756,15.84 7.55733,4.6667 16.57866,7.2 25.32666,8.3467 8.17067,1.0533 16.72533,0.7733 24.38667,-2.56 7.29733,-3.1867 13.008,-8.5334 16.30933,-15.8134 1.84667,-4.0666 2.516,-8.5066 3.09467,-12.9066 0.296,-2.2267 0.564,-4.48 0.83333,-6.72 0.37333,10.6533 4.036,21.36 12.74533,27.3733 10.60667,7.3067 27.53067,8.2933 39.00534,2.6 5.408,-2.68 9.168,-7.48 11.26933,-13.04 1.552,-4.12 2.016,-8.6933 2.62933,-13.0133 0.532,-3.76 0.95734,-7.52 1.38534,-11.2934 -0.0293,2.32 -0.0213,4.6267 0.0613,6.9334 0.16933,4.7866 0.99733,9.48 2.68667,13.9733 2.61866,6.96 7.73066,12.92 13.65066,17.3067 11.00133,8.1466 27.32933,9.4933 39.98533,4.8533 14.96134,-5.4667 20.01067,-20.1067 22.41867,-34.6133 1.35333,-8.16 1.64533,-16.4 2.18667,-24.64 0.44266,-6.7334 0.20533,-12.8667 -5.29867,-17.4 -5.216,-4.3067 -12.292,-6.3334 -18.72667,-7.9334 -7.74,-1.92 -15.72533,-3.12 -23.612,-4.24 -20.96533,-2.9866 -42.17333,-3.68 -63.29999,-4.68 -16.52667,-0.7866 -33.04667,-1.5866 -49.58267,-1.9466 -0.10667,-0.027 -0.212,-0.053 -0.31867,-0.08 -0.12133,-0.04 -0.21333,0 -0.28533,0.067 -5.34667,-0.1066 -10.696,-0.1733 -16.04667,-0.1733 -18.51733,0 -37.38666,-0.1867 -55.72799,2.7867 -0.148,-0.1867 -0.45067,-0.1467 -0.53867,0.093 -2.068,0.3333 -4.13067,0.7067 -6.184,1.1333 -10.436,2.1867 -20.66933,5.2534 -30.944,8.08 -6.77467,1.8534 -13.556,3.6267 -20.036,6.3867 -5.992,2.5467 -11.704,6.16 -15.428,11.6133 -5.01733,7.3467 -2.61733,16.2134 -1.604,24.36 -0.0947,-0.12 -0.17333,-0.2666 -0.28,-0.3733" style="fill:#577c69;fill-opacity:1;fill-rule:nonzero;stroke:none;stroke-width:0.133333"/><path id="path1457" d="m 799.58531,1178.9601 c 0,-6.44 0,-12.88 0,-19.3334 0,-5.16 -8,-5.16 -8,0 0,6.4534 0,12.8934 0,19.3334 0,5.16 8,5.16 8,0" style="fill:#534741;fill-opacity:1;fill-rule:nonzero;stroke:none;stroke-width:0.133333"/></g></svg>