<svg version="1.1" id="svg1" width="2000" height="2579.9468" viewBox="1204.2641216926752 518.0784092130816 4.65924808240311 23.051382643862894" sodipodi:docname="styletrees.svg" inkscape:version="1.4.2 (f4327f4, 2025-05-13)" xmlns:inkscape="http://www.inkscape.org/namespaces/inkscape" xmlns:sodipodi="http://sodipodi.sourceforge.net/DTD/sodipodi-0.dtd" xmlns="http://www.w3.org/2000/svg" xmlns:svg="http://www.w3.org/2000/svg"><defs id="defs1"/><g><path id="path1075" d="m 1205.572,528.38675 c 1.5,1.04 1.3986,4.85333 1.528,6.41333 0.1626,1.93334 0.1746,3.90667 0.456,5.82667 0.128,0.88 1.4586,0.50667 1.3306,-0.36 -0.3746,-2.57333 -0.332,-5.21333 -0.6386,-7.8 -0.2054,-1.72 -0.408,-4.17333 -1.9787,-5.26667 -0.7333,-0.50666 -1.4227,0.68 -0.6973,1.18667 v 0" style="fill:#577c69;fill-opacity:1;fill-rule:nonzero;stroke:none;stroke-width:0.133333"/><path id="path1112" d="m 1206.1506,519.73342 c 0.2787,2.33333 0.6854,4.62666 1.4054,6.86666 0.272,0.84 1.604,0.48 1.3306,-0.37333 -0.6813,-2.12 -1.0906,-4.28 -1.356,-6.49333 -0.104,-0.86667 -1.4853,-0.88 -1.38,0 v 0" style="fill:#577c69;fill-opacity:1;fill-rule:nonzero;stroke:none;stroke-width:0.133333"/><path id="path1075" d="m 1205.572,528.38675 c 1.5,1.04 1.3986,4.85333 1.528,6.41333 0.1626,1.93334 0.1746,3.90667 0.456,5.82667 0.128,0.88 1.4586,0.50667 1.3306,-0.36 -0.3746,-2.57333 -0.332,-5.21333 -0.6386,-7.8 -0.2054,-1.72 -0.408,-4.17333 -1.9787,-5.26667 -0.7333,-0.50666 -1.4227,0.68 -0.6973,1.18667 v 0" style="fill:#577c69;fill-opacity:1;fill-rule:nonzero;stroke:none;stroke-width:0.133333"/><path id="path1112" d="m 1206.1506,519.73342 c 0.2787,2.33333 0.6854,4.62666 1.4054,6.86666 0.272,0.84 1.604,0.48 1.3306,-0.37333 -0.6813,-2.12 -1.0906,-4.28 -1.356,-6.49333 -0.104,-0.86667 -1.4853,-0.88 -1.38,0 v 0" style="fill:#577c69;fill-opacity:1;fill-rule:nonzero;stroke:none;stroke-width:0.133333"/></g></svg>