<svg version="1.1" id="svg1" width="2000" height="2579.9468" viewBox="1148.1681530552999 583.4037081430554 3.453201181849863 16.849826368607864" sodipodi:docname="styletrees.svg" inkscape:version="1.4.2 (f4327f4, 2025-05-13)" xmlns:inkscape="http://www.inkscape.org/namespaces/inkscape" xmlns:sodipodi="http://sodipodi.sourceforge.net/DTD/sodipodi-0.dtd" xmlns="http://www.w3.org/2000/svg" xmlns:svg="http://www.w3.org/2000/svg"><defs id="defs1"/><g><path id="path1008" d="m 1149.344,584.90675 c -0.4,2.50667 -0.025,4.90667 0.212,7.41333 0.2373,2.52 0.047,4.97334 0.708,7.44 0.2306,0.86667 1.5613,0.49334 1.3306,-0.36 -0.5466,-2.04 -0.5426,-4.09333 -0.608,-6.18666 -0.084,-2.68 -0.74,-5.25334 -0.312,-7.94667 0.1387,-0.86667 -1.192,-1.24 -1.3306,-0.36 v 0" style="fill:#577c69;fill-opacity:1;fill-rule:nonzero;stroke:none;stroke-width:0.133333"/><path id="path1008" d="m 1149.344,584.90675 c -0.4,2.50667 -0.025,4.90667 0.212,7.41333 0.2373,2.52 0.047,4.97334 0.708,7.44 0.2306,0.86667 1.5613,0.49334 1.3306,-0.36 -0.5466,-2.04 -0.5426,-4.09333 -0.608,-6.18666 -0.084,-2.68 -0.74,-5.25334 -0.312,-7.94667 0.1387,-0.86667 -1.192,-1.24 -1.3306,-0.36 v 0" style="fill:#577c69;fill-opacity:1;fill-rule:nonzero;stroke:none;stroke-width:0.133333"/></g></svg>