<svg version="1.1" id="svg1" width="2000" height="2579.9468" viewBox="1198.4602152289863 631.528769185704 11.86191605027966 15.189409748563321" sodipodi:docname="styletrees.svg" inkscape:version="1.4.2 (f4327f4, 2025-05-13)" xmlns:inkscape="http://www.inkscape.org/namespaces/inkscape" xmlns:sodipodi="http://sodipodi.sourceforge.net/DTD/sodipodi-0.dtd" xmlns="http://www.w3.org/2000/svg" xmlns:svg="http://www.w3.org/2000/svg"><defs id="defs1"/><g><path id="path857" d="m 1199.4786,634.56008 c -0.124,3.86667 0.3747,7.78667 1.6347,11.45334 0.2867,0.83999 1.6213,0.48 1.3307,-0.37334 -1.2227,-3.56 -1.7054,-7.32 -1.5854,-11.08 0.028,-0.89333 -1.352,-0.89333 -1.38,0 v 0" style="fill:#577c69;fill-opacity:1;fill-rule:nonzero;stroke:none;stroke-width:0.133333"/><path id="path858" d="m 1201.7786,635.01342 c 0.436,3.86666 1.584,7.54666 2.7867,11.22666 0.2747,0.84 1.608,0.48 1.3307,-0.36 -1.1614,-3.56 -2.3147,-7.13333 -2.736,-10.86666 -0.099,-0.86667 -1.4814,-0.88 -1.3814,0 v 0" style="fill:#577c69;fill-opacity:1;fill-rule:nonzero;stroke:none;stroke-width:0.133333"/><path id="path859" d="m 1205.7853,633.52008 c 2.4213,3.28 1.6587,7.48 3.1507,11.10667 0.3333,0.81333 1.6693,0.46667 1.332,-0.36 -1.544,-3.76 -0.7787,-8.04 -3.2907,-11.44 -0.524,-0.70667 -1.7227,-0.0267 -1.192,0.69333 v 0" style="fill:#577c69;fill-opacity:1;fill-rule:nonzero;stroke:none;stroke-width:0.133333"/><path id="path857" d="m 1199.4786,634.56008 c -0.124,3.86667 0.3747,7.78667 1.6347,11.45334 0.2867,0.83999 1.6213,0.48 1.3307,-0.37334 -1.2227,-3.56 -1.7054,-7.32 -1.5854,-11.08 0.028,-0.89333 -1.352,-0.89333 -1.38,0 v 0" style="fill:#577c69;fill-opacity:1;fill-rule:nonzero;stroke:none;stroke-width:0.133333"/><path id="path858" d="m 1201.7786,635.01342 c 0.436,3.86666 1.584,7.54666 2.7867,11.22666 0.2747,0.84 1.608,0.48 1.3307,-0.36 -1.1614,-3.56 -2.3147,-7.13333 -2.736,-10.86666 -0.099,-0.86667 -1.4814,-0.88 -1.3814,0 v 0" style="fill:#577c69;fill-opacity:1;fill-rule:nonzero;stroke:none;stroke-width:0.133333"/><path id="path859" d="m 1205.7853,633.52008 c 2.4213,3.28 1.6587,7.48 3.1507,11.10667 0.3333,0.81333 1.6693,0.46667 1.332,-0.36 -1.544,-3.76 -0.7787,-8.04 -3.2907,-11.44 -0.524,-0.70667 -1.7227,-0.0267 -1.192,0.69333 v 0" style="fill:#577c69;fill-opacity:1;fill-rule:nonzero;stroke:none;stroke-width:0.133333"/></g></svg>