<svg version="1.1" id="svg1" width="2000" height="2579.9468" viewBox="1142.5663516947814 711.0465040761435 3.061899543322852 12.991887831452004" sodipodi:docname="styletrees.svg" inkscape:version="1.4.2 (f4327f4, 2025-05-13)" xmlns:inkscape="http://www.inkscape.org/namespaces/inkscape" xmlns:sodipodi="http://sodipodi.sourceforge.net/DTD/sodipodi-0.dtd" xmlns="http://www.w3.org/2000/svg" xmlns:svg="http://www.w3.org/2000/svg"><defs id="defs1"/><g><path id="path466" d="m 1145.1306,712.12008 c -0.4466,-0.0933 -0.612,-0.12 -1.0386,0.0533 -0.2987,0.12 -0.496,0.33334 -0.5067,0.66667 -0.1253,3.52 0.4107,7.01333 0.4413,10.53333 0.01,0.88 1.388,0.89334 1.38,0 -0.031,-3.52 -0.5653,-7.01333 -0.4413,-10.53333 -0.1693,0.21333 -0.3373,0.44 -0.5067,0.66667 0.1014,-0.0133 0.2027,-0.04 0.3054,-0.0533 0.868,0.17334 1.2386,-1.16 0.3666,-1.33333 v 0" style="fill:#577c69;fill-opacity:1;fill-rule:nonzero;stroke:none;stroke-width:0.133333"/><path id="path466" d="m 1145.1306,712.12008 c -0.4466,-0.0933 -0.612,-0.12 -1.0386,0.0533 -0.2987,0.12 -0.496,0.33334 -0.5067,0.66667 -0.1253,3.52 0.4107,7.01333 0.4413,10.53333 0.01,0.88 1.388,0.89334 1.38,0 -0.031,-3.52 -0.5653,-7.01333 -0.4413,-10.53333 -0.1693,0.21333 -0.3373,0.44 -0.5067,0.66667 0.1014,-0.0133 0.2027,-0.04 0.3054,-0.0533 0.868,0.17334 1.2386,-1.16 0.3666,-1.33333 v 0" style="fill:#577c69;fill-opacity:1;fill-rule:nonzero;stroke:none;stroke-width:0.133333"/></g></svg>