<svg version="1.1" id="svg1" width="2000" height="2579.9468" viewBox="1286.362515758945 689.0182097502933 3.439133632774201 13.388540249700895" sodipodi:docname="styletrees.svg" inkscape:version="1.4.2 (f4327f4, 2025-05-13)" xmlns:inkscape="http://www.inkscape.org/namespaces/inkscape" xmlns:sodipodi="http://sodipodi.sourceforge.net/DTD/sodipodi-0.dtd" xmlns="http://www.w3.org/2000/svg" xmlns:svg="http://www.w3.org/2000/svg"><defs id="defs1"/><g><path id="path431" d="m 1287.5746,691.18675 c 1.1067,1.05333 0.844,3.53333 0.8534,4.92 0.012,1.88 -0.124,3.76 -0.136,5.64 -0.01,0.88 1.376,0.88 1.3813,0 0.013,-2.25334 0.168,-4.50667 0.1187,-6.76 -0.033,-1.52 -0.047,-3.64 -1.2414,-4.77334 -0.644,-0.61333 -1.6226,0.36 -0.976,0.97334 v 0" style="fill:#577c69;fill-opacity:1;fill-rule:nonzero;stroke:none;stroke-width:0.133333"/><path id="path431" d="m 1287.5746,691.18675 c 1.1067,1.05333 0.844,3.53333 0.8534,4.92 0.012,1.88 -0.124,3.76 -0.136,5.64 -0.01,0.88 1.376,0.88 1.3813,0 0.013,-2.25334 0.168,-4.50667 0.1187,-6.76 -0.033,-1.52 -0.047,-3.64 -1.2414,-4.77334 -0.644,-0.61333 -1.6226,0.36 -0.976,0.97334 v 0" style="fill:#577c69;fill-opacity:1;fill-rule:nonzero;stroke:none;stroke-width:0.133333"/></g></svg>