<svg version="1.1" id="svg1" width="2000" height="2579.9468" viewBox="727.8199054687026 918.5069484923836 125.46996380791256 61.03060242929291" sodipodi:docname="styletrees.svg" inkscape:version="1.4.2 (f4327f4, 2025-05-13)" xmlns:inkscape="http://www.inkscape.org/namespaces/inkscape" xmlns:sodipodi="http://sodipodi.sourceforge.net/DTD/sodipodi-0.dtd" xmlns="http://www.w3.org/2000/svg" xmlns:svg="http://www.w3.org/2000/svg"><defs id="defs1"/><g><path id="path361" d="m 729.78932,939.06674 c 0.28,-1.86667 0.952,-3.65333 1.81333,-5.33333 0.376,-0.73334 0.828,-1.4 1.32133,-2.04 -0.0267,2.78666 -0.16933,5.4 0.26267,8.22666 0.50266,3.28 1.24266,6.53334 1.83466,9.81334 0.924,5.09333 3.16267,9.81333 6.048,14.08 2.584,3.81333 5.432,6.41333 9.81734,7.92 4.46133,1.54666 9.98,2.2 14.63333,1.48 5.028,-0.78667 9.97467,-1.69334 14.02,-4.94667 3.60533,-2.89333 5.77467,-7.22667 7.484,-11.42667 2.332,-5.72 3.98667,-11.72 5.22667,-17.76 0.648,-3.14666 1.104,-6.33333 1.75466,-9.48 0.62134,-3 0.79467,-6.44 2.044,-9.26666 0.70134,0 1.40134,-0.0267 2.10267,-0.0267 0.428,-0.0133 0.856,-0.0133 1.28533,-0.0267 -0.0533,0.08 -0.0813,0.16 -0.0493,0.28 0.54933,1.93334 -0.212,3.93334 -0.46133,5.88 -0.43867,3.4 -0.376,6.94667 -0.33334,10.37334 0.072,5.84 0.57867,11.74666 2.15067,17.37333 2.592,9.29333 8.13467,17.82667 17.66,20.70667 4.60267,1.38666 9.70533,1.25333 14.316,0.04 4.78133,-1.25334 7.72533,-4.37334 10.19733,-8.45334 2.94,-4.85333 5.416,-9.54666 6.68667,-15.12 0.64267,-2.81333 0.968,-5.72 1.23867,-8.58666 0.24266,-2.57334 0.69733,-5.17334 0.888,-7.74667 1.72533,6.08 0.86,13.28 -0.29734,19.09333 -1.516,7.61334 -4.70133,16.24 -11.08,21.09334 -6.248,4.76 -15.65866,4.22666 -22.84,2.46666 -7.87866,-1.93333 -13.74266,-6.48 -17.36,-13.77333 -1.968,-3.96 -3.016,-8.4 -3.01066,-12.81333 0.004,-4.05334 0.73866,-8.02667 0.007,-12.06667 -0.0627,-0.34667 -0.54533,-0.28 -0.64266,0 -3.46934,10.24 -2.14267,22.21333 -10.04534,30.58667 -6.26933,6.64 -16.49333,6.2 -24.85733,5.86666 -7.95467,-0.33333 -17.54133,0.12 -23.956,-5.38666 -7.752,-6.66667 -4.15733,-19.96 -7.26933,-28.77334 -0.016,-0.10666 -0.0893,-0.2 -0.18933,-0.24 -0.007,-0.0133 -0.0133,-0.0133 -0.0213,-0.0133 -0.072,-0.0267 -0.14933,-0.04 -0.22533,-0.0133 -0.007,0 -0.012,0 -0.0187,0 -0.0507,0.0267 -0.0987,0.0533 -0.14,0.10666 -0.0173,0.0133 -0.0333,0.0267 -0.0453,0.0533 -0.244,0.36 -0.48933,0.73333 -0.73333,1.09333 0.724,-1.08 0.57466,-1.84 0.784,-3.24 z m 10.07599,-12.85333 c 0.0613,-0.04 0.12534,-0.0667 0.18667,-0.0933 -0.044,0.04 -0.092,0.08 -0.108,0.14667 -1.004,4.37333 0.0973,9.85333 0.728,14.24 0.80533,5.6 1.82,11.16 3.76533,16.49333 3.148,8.64 11.42134,15.46667 21.01467,14.45334 8.99333,-0.96 15.37867,-9.16 17.93733,-17.14667 3.32134,-10.37333 3.732,-23.01333 1.864,-33.70667 -0.004,-0.0267 -0.0227,-0.0267 -0.028,-0.04 3.368,-0.0933 6.73867,-0.16 10.10934,-0.21333 -1.57734,3.77333 -1.89467,8.48 -2.64134,12.45333 -1.08533,5.78667 -2.13733,11.48 -3.908,17.09334 -1.38933,4.41333 -2.984,8.82666 -5.37333,12.8 -3.14667,5.24 -7.78933,7.82666 -13.62533,9.04 -5.49734,1.13333 -10.44,1.22666 -15.94534,0.10666 -5.92266,-1.21333 -9.46,-4.32 -12.77466,-9.21333 -2.67734,-3.96 -4.42134,-8.41333 -5.40267,-13.08 -0.596,-2.82667 -1.08667,-5.70667 -1.61867,-8.56 -0.65066,-3.48 -0.45066,-6.49333 -0.44666,-9.96 0,-0.0533 -0.0307,-0.0667 -0.0427,-0.10667 1.74,-1.97333 3.97467,-3.50666 6.30933,-4.70666 z m 13.824,-3.78667 c -0.616,9.09333 -1.308,18.28 -0.0467,27.36 0.544,3.92 1.652,7.65333 4.07866,10.82667 1.24,1.61333 4.38534,4.74666 6.63334,4.76 5.68,0.0533 6.60533,-11.17334 7.04133,-15.06667 1.07733,-9.61333 -0.14133,-19.13333 -0.24267,-28.73333 -0.004,-0.42667 -0.67066,-0.42667 -0.66666,0 0.072,6.92 0.756,13.78666 0.652,20.72 -0.104,7.01333 -0.43334,14.70666 -4.06267,20.90666 -2.04,3.49334 -6.06133,-0.32 -7.50267,-1.57333 -1.43466,-1.26667 -2.44,-2.88 -3.284,-4.57333 -1.85733,-3.70667 -2.22666,-8.30667 -2.50533,-12.36 -0.51333,-7.45334 0.0747,-14.92 0.57733,-22.34667 1.02534,-0.12 2.052,-0.21333 3.07867,-0.29333 -0.148,0.0133 -0.28533,0.10666 -0.28667,0.30666 -0.012,7.98667 -0.33333,16.08 0.776,24.02667 0.51334,3.68 1.00134,7.41333 2.22934,10.93333 0.41466,1.18667 1.18266,3.32 2.556,3.69334 3.30133,0.90666 1.368,-11.05334 1.312,-12.37334 -0.37334,-8.76 -1.456,-17.50666 -1.54,-26.28 -0.004,-0.42666 -0.67067,-0.42666 -0.66667,0 0.0613,6.26667 0.66,12.56 1.068,18.81334 0.38533,5.93333 1.31733,12.12 0.76933,18.04 -0.63466,-0.0133 -1.26933,-0.04 -1.904,-0.0533 -0.37066,-0.64 -0.688,-1.32 -0.952,-2.01333 -0.55866,-1.32 -0.844,-2.77333 -1.13733,-4.17333 -0.716,-3.44 -1.164,-6.96 -1.47867,-10.44 -0.60533,-6.70667 -0.376,-13.46667 -0.36533,-20.17334 10e-4,-0.2 -0.148,-0.30666 -0.304,-0.32 2.916,-0.24 5.81733,-0.38666 8.604,-0.58666 4.25467,-0.30667 8.51067,-0.52 12.768,-0.68 0.72,3.8 0.54,8.08 0.60133,11.92 0.064,3.97333 0.0293,7.97333 -0.144,11.93333 -0.38666,8.94667 -3.43066,18.48 -12.43466,22.13333 -4.7,1.92 -9.71067,-1.8 -12.71467,-5.10666 -2.69867,-2.97334 -4.09867,-7.02667 -5.18267,-10.81334 -2.49466,-8.70666 -2.20133,-17.96 -2.19333,-26.93333 0,-0.0933 -0.0413,-0.17333 -0.0973,-0.22667 2.27066,-0.57333 4.608,-0.97333 6.96666,-1.25333 z m 30.96667,-1.85333 c -0.0307,0.0667 -0.06,0.12 -0.0453,0.2 1.63466,9.36 1.15066,19.78666 -0.75067,29.02666 -1.93333,9.4 -6.97467,17.57334 -16.56533,20.58667 -4.992,1.57333 -10.22,-0.41333 -14.42667,-3.08 -4.596,-2.92 -6.85467,-7.61333 -8.53333,-12.6 -1.444,-4.29333 -2.18,-8.81333 -2.85734,-13.28 -0.684,-4.49333 -1.932,-10.44 -0.89066,-14.98667 0.0613,-0.26666 -0.18267,-0.41333 -0.39067,-0.38666 1.91067,-0.94667 3.92267,-1.68 5.99867,-2.24 -0.012,0.04 -0.0413,0.0533 -0.0413,0.0933 -0.009,10.13333 -0.13733,20.30667 3.12,30.02667 1.21867,3.62666 3.11067,6.97333 5.86267,9.65333 2.34667,2.28 6.42267,4.96 9.90933,4.32 8.79067,-1.61333 13.27467,-10.48 14.52667,-18.50667 0.72933,-4.66666 0.568,-9.48 0.59467,-14.18666 0.0267,-4.65334 0.25066,-9.85334 -0.60934,-14.46667 1.69867,-0.0667 3.39867,-0.12 5.09867,-0.17333 z m 25.00533,-0.36 c -0.0253,0.04 -0.0627,0.08 -0.0627,0.14666 -0.0307,4.92 -0.83334,9.88 -0.984,14.82667 -0.17067,5.64 0.0547,11.28 0.98,16.85333 1.284,7.73334 3.94533,17.29334 12.932,18.2 3.88933,0.4 7.91466,-0.44 11.17866,-2.6 2.86934,-1.89333 3.912,-5.49333 4.25734,-8.73333 0.576,-5.4 0.76,-10.88 1.016,-16.30667 0.296,-6.21333 0.86933,-12.82666 0.17466,-19.02666 -0.0467,-0.41334 -0.71466,-0.42667 -0.66666,0 1.06666,9.52 -0.116,19.73333 -0.772,29.25333 -0.25867,3.74667 -0.2,7.54667 -1.712,11.06667 -2.01734,4.69333 -7.996,5.8 -12.52534,5.73333 -10.86,-0.14667 -12.97066,-13.97333 -13.87466,-22.44 -0.50934,-4.76 -0.41067,-9.58667 -0.244,-14.36 0.144,-4.16 0.88133,-8.32 0.90666,-12.46667 0,-0.0667 -0.036,-0.10666 -0.0613,-0.14666 5.62667,0.0267 11.24533,0.24 16.84267,0.86666 0.14533,7.01334 0.34266,13.85334 0.0547,20.88 -0.284,6.93334 1.30667,14.76 -1.61466,21.30667 -1.996,0.14667 -3.15467,-0.68 -3.47467,-2.45333 -0.22267,-0.6 -0.41333,-1.21334 -0.572,-1.82667 -0.436,-1.54667 -0.62533,-3.18667 -0.816,-4.77333 -0.404,-3.36 -0.672,-6.76 -0.848,-10.14667 -0.40267,-7.74667 -0.084,-15.52 -0.0667,-23.26667 0.001,-0.42666 -0.66533,-0.42666 -0.66666,0 -0.0227,9.92 -0.42,19.84 0.544,29.72 0.316,3.22667 0.588,6.44 1.47466,9.57334 0.424,1.49333 1.54267,4.84 3.528,4.84 1.432,0 1.996,-2.57334 2.28,-3.54667 1.16534,-4 1.01867,-8.28 0.92,-12.38667 -0.10666,-4.45333 0.064,-8.85333 0.27334,-13.29333 0.22933,-4.88 -0.232,-9.68 -0.344,-14.54667 0.81866,0.0933 1.64,0.18667 2.45866,0.29334 4.62134,0.65333 9.79867,1.52 13.97467,3.85333 -0.024,10.86667 -0.58133,21.72 -3.76933,32.18667 -1.32534,4.34666 -2.51867,8.76 -5.69334,12.17333 -3.69866,3.96 -10.06533,4.96 -15.08,3.45333 -8.23466,-2.46666 -11.88666,-12.44 -13.97733,-19.84 -1.58133,-5.58666 -2.508,-11.33333 -2.688,-17.14666 -0.16667,-5.36 0.632,-10.57334 0.76533,-15.89334 0,0 -0.004,0 -0.004,0 1.98534,-0.0267 3.97067,-0.04 5.956,-0.0267 z m 40.41067,10.78666 c 0.45467,0.8 0.83733,1.64 1.16133,2.52 -0.036,0.04 -0.0773,0.0933 -0.08,0.17334 -0.0653,2.2 -0.66533,4.41333 -0.79466,6.64 -0.164,2.84 -0.48934,5.65333 -0.93867,8.45333 -0.84933,5.29333 -2.76267,10.08 -5.468,14.69333 -2.932,5 -5.62,8.96 -11.40933,10.81334 -5.1,1.64 -11.008,1.05333 -15.97867,-0.70667 -9.908,-3.50667 -14.79067,-15.54667 -16.40267,-25.12 -0.92933,-5.53333 -1.012,-11.26667 -0.86533,-16.85333 0.064,-2.44 0.19467,-4.88 0.65467,-7.28 0.25333,-1.32 0.45333,-2.64 0.08,-3.96 -0.0147,-0.04 -0.0533,-0.0667 -0.0813,-0.0933 1.032,-0.0133 2.06267,-0.0267 3.09467,-0.04 0,0 -0.001,0 -0.001,0 -0.068,2.72 -0.62267,5.41334 -0.71467,8.14667 -0.11467,3.41333 -0.12533,6.85333 0.0547,10.28 0.32,6.12 1.74133,12.18667 3.55466,18.01333 2.25334,7.25334 6.58934,15.01334 14.30534,17.32 3.776,1.13334 8.09466,0.30667 11.55066,-1.38666 4.12267,-2.02667 6.28667,-6.10667 7.75467,-10.24 4.22133,-11.89334 5.21867,-24.16 5.26933,-36.68 2.12,1.29333 3.95067,3 5.25467,5.30666 z m -120.63066,11.85334 c 0.164,-0.24 0.32933,-0.49334 0.49333,-0.73334 2.56133,7.97334 0.68933,16.92 4.31733,24.6 2.64933,5.61334 8.97733,7.69334 14.652,8.56 6.772,1.04 14.01467,1.16 20.852,0.97334 6.33733,-0.17334 12.51067,-1.66667 17.17733,-6.17334 6.18134,-5.96 6.94934,-15.2 8.3,-23.16 0.38,-2.25333 0.89334,-4.45333 1.55067,-6.62666 -0.51467,1.70666 0.0373,4.45333 -0.0733,6.26666 -0.26934,4.49334 -0.25467,8.50667 0.996,12.85334 1.96266,6.81333 6.13866,12.81333 12.42933,16.2 5.892,3.17333 13.02133,4.30666 19.63867,3.81333 14.67866,-1.08 20.66933,-15.01333 22.804,-27.88 1.05866,-6.38667 1.16133,-13.4 -1.272,-19.49333 -2.016,-5.05334 -6.55334,-7.69334 -11.516,-9.25334 -8.93334,-2.8 -18.75067,-3.13333 -28.03467,-3.25333 -10.46133,-0.13333 -20.96933,0.08 -31.424,0.46667 -0.35333,0.0133 -0.708,0.0267 -1.06267,0.04 -0.0707,-0.0133 -0.14,-0.0133 -0.212,0.0133 -8.30266,0.30667 -16.70133,0.70667 -24.95733,1.76 -0.0427,0 -0.0773,0 -0.12,0.0133 -1.01467,0.13334 -2.028,0.26667 -3.03733,0.41334 -6.21467,0.93333 -12.552,2.96 -17.14267,7.42666 -3.52,3.42667 -4.86133,8.22667 -4.98,13.01334 -0.008,0.34666 0.44534,0.42666 0.62134,0.16" style="fill:#577c69;fill-opacity:1;fill-rule:nonzero;stroke:none;stroke-width:0.133333"/><path id="path362" d="m 834.36398,922.93341 c -0.10933,-0.41334 -0.752,-0.24 -0.64267,0.17333 0.95867,3.66667 0.656,8.05333 0.788,11.81333 0.15067,4.26667 0.12134,8.53334 -0.008,12.8 -0.14,4.6 0.172,9.86667 -2.06133,14.04 -2.51467,4.68 -9.04133,5.16 -12.664,1.74667 -4.224,-3.97333 -4.91867,-11.56 -5.44667,-16.96 -0.40133,-4.09333 -0.37866,-8.22667 -0.248,-12.33333 0.14134,-4.44 0.116,-9.12 1.172,-13.44 0.10134,-0.41334 -0.54133,-0.58667 -0.64266,-0.17334 -1.08,4.41334 -1.01334,9.09334 -1.196,13.61334 -0.21867,5.36 -0.10134,10.78666 0.684,16.09333 0.83466,5.64 2.31066,13.13333 8.164,15.64 2.63733,1.13333 5.62266,0.37333 7.97866,-1.01333 3.37467,-1.98667 4.228,-6.02667 4.55467,-9.61334 0.54133,-5.93333 0.54667,-11.97333 0.44533,-17.92 -0.0773,-4.58666 0.292,-10 -0.87733,-14.46666" style="fill:#577c69;fill-opacity:1;fill-rule:nonzero;stroke:none;stroke-width:0.133333"/><path id="path361" d="m 729.78932,939.06674 c 0.28,-1.86667 0.952,-3.65333 1.81333,-5.33333 0.376,-0.73334 0.828,-1.4 1.32133,-2.04 -0.0267,2.78666 -0.16933,5.4 0.26267,8.22666 0.50266,3.28 1.24266,6.53334 1.83466,9.81334 0.924,5.09333 3.16267,9.81333 6.048,14.08 2.584,3.81333 5.432,6.41333 9.81734,7.92 4.46133,1.54666 9.98,2.2 14.63333,1.48 5.028,-0.78667 9.97467,-1.69334 14.02,-4.94667 3.60533,-2.89333 5.77467,-7.22667 7.484,-11.42667 2.332,-5.72 3.98667,-11.72 5.22667,-17.76 0.648,-3.14666 1.104,-6.33333 1.75466,-9.48 0.62134,-3 0.79467,-6.44 2.044,-9.26666 0.70134,0 1.40134,-0.0267 2.10267,-0.0267 0.428,-0.0133 0.856,-0.0133 1.28533,-0.0267 -0.0533,0.08 -0.0813,0.16 -0.0493,0.28 0.54933,1.93334 -0.212,3.93334 -0.46133,5.88 -0.43867,3.4 -0.376,6.94667 -0.33334,10.37334 0.072,5.84 0.57867,11.74666 2.15067,17.37333 2.592,9.29333 8.13467,17.82667 17.66,20.70667 4.60267,1.38666 9.70533,1.25333 14.316,0.04 4.78133,-1.25334 7.72533,-4.37334 10.19733,-8.45334 2.94,-4.85333 5.416,-9.54666 6.68667,-15.12 0.64267,-2.81333 0.968,-5.72 1.23867,-8.58666 0.24266,-2.57334 0.69733,-5.17334 0.888,-7.74667 1.72533,6.08 0.86,13.28 -0.29734,19.09333 -1.516,7.61334 -4.70133,16.24 -11.08,21.09334 -6.248,4.76 -15.65866,4.22666 -22.84,2.46666 -7.87866,-1.93333 -13.74266,-6.48 -17.36,-13.77333 -1.968,-3.96 -3.016,-8.4 -3.01066,-12.81333 0.004,-4.05334 0.73866,-8.02667 0.007,-12.06667 -0.0627,-0.34667 -0.54533,-0.28 -0.64266,0 -3.46934,10.24 -2.14267,22.21333 -10.04534,30.58667 -6.26933,6.64 -16.49333,6.2 -24.85733,5.86666 -7.95467,-0.33333 -17.54133,0.12 -23.956,-5.38666 -7.752,-6.66667 -4.15733,-19.96 -7.26933,-28.77334 -0.016,-0.10666 -0.0893,-0.2 -0.18933,-0.24 -0.007,-0.0133 -0.0133,-0.0133 -0.0213,-0.0133 -0.072,-0.0267 -0.14933,-0.04 -0.22533,-0.0133 -0.007,0 -0.012,0 -0.0187,0 -0.0507,0.0267 -0.0987,0.0533 -0.14,0.10666 -0.0173,0.0133 -0.0333,0.0267 -0.0453,0.0533 -0.244,0.36 -0.48933,0.73333 -0.73333,1.09333 0.724,-1.08 0.57466,-1.84 0.784,-3.24 z m 10.07599,-12.85333 c 0.0613,-0.04 0.12534,-0.0667 0.18667,-0.0933 -0.044,0.04 -0.092,0.08 -0.108,0.14667 -1.004,4.37333 0.0973,9.85333 0.728,14.24 0.80533,5.6 1.82,11.16 3.76533,16.49333 3.148,8.64 11.42134,15.46667 21.01467,14.45334 8.99333,-0.96 15.37867,-9.16 17.93733,-17.14667 3.32134,-10.37333 3.732,-23.01333 1.864,-33.70667 -0.004,-0.0267 -0.0227,-0.0267 -0.028,-0.04 3.368,-0.0933 6.73867,-0.16 10.10934,-0.21333 -1.57734,3.77333 -1.89467,8.48 -2.64134,12.45333 -1.08533,5.78667 -2.13733,11.48 -3.908,17.09334 -1.38933,4.41333 -2.984,8.82666 -5.37333,12.8 -3.14667,5.24 -7.78933,7.82666 -13.62533,9.04 -5.49734,1.13333 -10.44,1.22666 -15.94534,0.10666 -5.92266,-1.21333 -9.46,-4.32 -12.77466,-9.21333 -2.67734,-3.96 -4.42134,-8.41333 -5.40267,-13.08 -0.596,-2.82667 -1.08667,-5.70667 -1.61867,-8.56 -0.65066,-3.48 -0.45066,-6.49333 -0.44666,-9.96 0,-0.0533 -0.0307,-0.0667 -0.0427,-0.10667 1.74,-1.97333 3.97467,-3.50666 6.30933,-4.70666 z m 13.824,-3.78667 c -0.616,9.09333 -1.308,18.28 -0.0467,27.36 0.544,3.92 1.652,7.65333 4.07866,10.82667 1.24,1.61333 4.38534,4.74666 6.63334,4.76 5.68,0.0533 6.60533,-11.17334 7.04133,-15.06667 1.07733,-9.61333 -0.14133,-19.13333 -0.24267,-28.73333 -0.004,-0.42667 -0.67066,-0.42667 -0.66666,0 0.072,6.92 0.756,13.78666 0.652,20.72 -0.104,7.01333 -0.43334,14.70666 -4.06267,20.90666 -2.04,3.49334 -6.06133,-0.32 -7.50267,-1.57333 -1.43466,-1.26667 -2.44,-2.88 -3.284,-4.57333 -1.85733,-3.70667 -2.22666,-8.30667 -2.50533,-12.36 -0.51333,-7.45334 0.0747,-14.92 0.57733,-22.34667 1.02534,-0.12 2.052,-0.21333 3.07867,-0.29333 -0.148,0.0133 -0.28533,0.10666 -0.28667,0.30666 -0.012,7.98667 -0.33333,16.08 0.776,24.02667 0.51334,3.68 1.00134,7.41333 2.22934,10.93333 0.41466,1.18667 1.18266,3.32 2.556,3.69334 3.30133,0.90666 1.368,-11.05334 1.312,-12.37334 -0.37334,-8.76 -1.456,-17.50666 -1.54,-26.28 -0.004,-0.42666 -0.67067,-0.42666 -0.66667,0 0.0613,6.26667 0.66,12.56 1.068,18.81334 0.38533,5.93333 1.31733,12.12 0.76933,18.04 -0.63466,-0.0133 -1.26933,-0.04 -1.904,-0.0533 -0.37066,-0.64 -0.688,-1.32 -0.952,-2.01333 -0.55866,-1.32 -0.844,-2.77333 -1.13733,-4.17333 -0.716,-3.44 -1.164,-6.96 -1.47867,-10.44 -0.60533,-6.70667 -0.376,-13.46667 -0.36533,-20.17334 10e-4,-0.2 -0.148,-0.30666 -0.304,-0.32 2.916,-0.24 5.81733,-0.38666 8.604,-0.58666 4.25467,-0.30667 8.51067,-0.52 12.768,-0.68 0.72,3.8 0.54,8.08 0.60133,11.92 0.064,3.97333 0.0293,7.97333 -0.144,11.93333 -0.38666,8.94667 -3.43066,18.48 -12.43466,22.13333 -4.7,1.92 -9.71067,-1.8 -12.71467,-5.10666 -2.69867,-2.97334 -4.09867,-7.02667 -5.18267,-10.81334 -2.49466,-8.70666 -2.20133,-17.96 -2.19333,-26.93333 0,-0.0933 -0.0413,-0.17333 -0.0973,-0.22667 2.27066,-0.57333 4.608,-0.97333 6.96666,-1.25333 z m 30.96667,-1.85333 c -0.0307,0.0667 -0.06,0.12 -0.0453,0.2 1.63466,9.36 1.15066,19.78666 -0.75067,29.02666 -1.93333,9.4 -6.97467,17.57334 -16.56533,20.58667 -4.992,1.57333 -10.22,-0.41333 -14.42667,-3.08 -4.596,-2.92 -6.85467,-7.61333 -8.53333,-12.6 -1.444,-4.29333 -2.18,-8.81333 -2.85734,-13.28 -0.684,-4.49333 -1.932,-10.44 -0.89066,-14.98667 0.0613,-0.26666 -0.18267,-0.41333 -0.39067,-0.38666 1.91067,-0.94667 3.92267,-1.68 5.99867,-2.24 -0.012,0.04 -0.0413,0.0533 -0.0413,0.0933 -0.009,10.13333 -0.13733,20.30667 3.12,30.02667 1.21867,3.62666 3.11067,6.97333 5.86267,9.65333 2.34667,2.28 6.42267,4.96 9.90933,4.32 8.79067,-1.61333 13.27467,-10.48 14.52667,-18.50667 0.72933,-4.66666 0.568,-9.48 0.59467,-14.18666 0.0267,-4.65334 0.25066,-9.85334 -0.60934,-14.46667 1.69867,-0.0667 3.39867,-0.12 5.09867,-0.17333 z m 25.00533,-0.36 c -0.0253,0.04 -0.0627,0.08 -0.0627,0.14666 -0.0307,4.92 -0.83334,9.88 -0.984,14.82667 -0.17067,5.64 0.0547,11.28 0.98,16.85333 1.284,7.73334 3.94533,17.29334 12.932,18.2 3.88933,0.4 7.91466,-0.44 11.17866,-2.6 2.86934,-1.89333 3.912,-5.49333 4.25734,-8.73333 0.576,-5.4 0.76,-10.88 1.016,-16.30667 0.296,-6.21333 0.86933,-12.82666 0.17466,-19.02666 -0.0467,-0.41334 -0.71466,-0.42667 -0.66666,0 1.06666,9.52 -0.116,19.73333 -0.772,29.25333 -0.25867,3.74667 -0.2,7.54667 -1.712,11.06667 -2.01734,4.69333 -7.996,5.8 -12.52534,5.73333 -10.86,-0.14667 -12.97066,-13.97333 -13.87466,-22.44 -0.50934,-4.76 -0.41067,-9.58667 -0.244,-14.36 0.144,-4.16 0.88133,-8.32 0.90666,-12.46667 0,-0.0667 -0.036,-0.10666 -0.0613,-0.14666 5.62667,0.0267 11.24533,0.24 16.84267,0.86666 0.14533,7.01334 0.34266,13.85334 0.0547,20.88 -0.284,6.93334 1.30667,14.76 -1.61466,21.30667 -1.996,0.14667 -3.15467,-0.68 -3.47467,-2.45333 -0.22267,-0.6 -0.41333,-1.21334 -0.572,-1.82667 -0.436,-1.54667 -0.62533,-3.18667 -0.816,-4.77333 -0.404,-3.36 -0.672,-6.76 -0.848,-10.14667 -0.40267,-7.74667 -0.084,-15.52 -0.0667,-23.26667 0.001,-0.42666 -0.66533,-0.42666 -0.66666,0 -0.0227,9.92 -0.42,19.84 0.544,29.72 0.316,3.22667 0.588,6.44 1.47466,9.57334 0.424,1.49333 1.54267,4.84 3.528,4.84 1.432,0 1.996,-2.57334 2.28,-3.54667 1.16534,-4 1.01867,-8.28 0.92,-12.38667 -0.10666,-4.45333 0.064,-8.85333 0.27334,-13.29333 0.22933,-4.88 -0.232,-9.68 -0.344,-14.54667 0.81866,0.0933 1.64,0.18667 2.45866,0.29334 4.62134,0.65333 9.79867,1.52 13.97467,3.85333 -0.024,10.86667 -0.58133,21.72 -3.76933,32.18667 -1.32534,4.34666 -2.51867,8.76 -5.69334,12.17333 -3.69866,3.96 -10.06533,4.96 -15.08,3.45333 -8.23466,-2.46666 -11.88666,-12.44 -13.97733,-19.84 -1.58133,-5.58666 -2.508,-11.33333 -2.688,-17.14666 -0.16667,-5.36 0.632,-10.57334 0.76533,-15.89334 0,0 -0.004,0 -0.004,0 1.98534,-0.0267 3.97067,-0.04 5.956,-0.0267 z m 40.41067,10.78666 c 0.45467,0.8 0.83733,1.64 1.16133,2.52 -0.036,0.04 -0.0773,0.0933 -0.08,0.17334 -0.0653,2.2 -0.66533,4.41333 -0.79466,6.64 -0.164,2.84 -0.48934,5.65333 -0.93867,8.45333 -0.84933,5.29333 -2.76267,10.08 -5.468,14.69333 -2.932,5 -5.62,8.96 -11.40933,10.81334 -5.1,1.64 -11.008,1.05333 -15.97867,-0.70667 -9.908,-3.50667 -14.79067,-15.54667 -16.40267,-25.12 -0.92933,-5.53333 -1.012,-11.26667 -0.86533,-16.85333 0.064,-2.44 0.19467,-4.88 0.65467,-7.28 0.25333,-1.32 0.45333,-2.64 0.08,-3.96 -0.0147,-0.04 -0.0533,-0.0667 -0.0813,-0.0933 1.032,-0.0133 2.06267,-0.0267 3.09467,-0.04 0,0 -0.001,0 -0.001,0 -0.068,2.72 -0.62267,5.41334 -0.71467,8.14667 -0.11467,3.41333 -0.12533,6.85333 0.0547,10.28 0.32,6.12 1.74133,12.18667 3.55466,18.01333 2.25334,7.25334 6.58934,15.01334 14.30534,17.32 3.776,1.13334 8.09466,0.30667 11.55066,-1.38666 4.12267,-2.02667 6.28667,-6.10667 7.75467,-10.24 4.22133,-11.89334 5.21867,-24.16 5.26933,-36.68 2.12,1.29333 3.95067,3 5.25467,5.30666 z m -120.63066,11.85334 c 0.164,-0.24 0.32933,-0.49334 0.49333,-0.73334 2.56133,7.97334 0.68933,16.92 4.31733,24.6 2.64933,5.61334 8.97733,7.69334 14.652,8.56 6.772,1.04 14.01467,1.16 20.852,0.97334 6.33733,-0.17334 12.51067,-1.66667 17.17733,-6.17334 6.18134,-5.96 6.94934,-15.2 8.3,-23.16 0.38,-2.25333 0.89334,-4.45333 1.55067,-6.62666 -0.51467,1.70666 0.0373,4.45333 -0.0733,6.26666 -0.26934,4.49334 -0.25467,8.50667 0.996,12.85334 1.96266,6.81333 6.13866,12.81333 12.42933,16.2 5.892,3.17333 13.02133,4.30666 19.63867,3.81333 14.67866,-1.08 20.66933,-15.01333 22.804,-27.88 1.05866,-6.38667 1.16133,-13.4 -1.272,-19.49333 -2.016,-5.05334 -6.55334,-7.69334 -11.516,-9.25334 -8.93334,-2.8 -18.75067,-3.13333 -28.03467,-3.25333 -10.46133,-0.13333 -20.96933,0.08 -31.424,0.46667 -0.35333,0.0133 -0.708,0.0267 -1.06267,0.04 -0.0707,-0.0133 -0.14,-0.0133 -0.212,0.0133 -8.30266,0.30667 -16.70133,0.70667 -24.95733,1.76 -0.0427,0 -0.0773,0 -0.12,0.0133 -1.01467,0.13334 -2.028,0.26667 -3.03733,0.41334 -6.21467,0.93333 -12.552,2.96 -17.14267,7.42666 -3.52,3.42667 -4.86133,8.22667 -4.98,13.01334 -0.008,0.34666 0.44534,0.42666 0.62134,0.16" style="fill:#577c69;fill-opacity:1;fill-rule:nonzero;stroke:none;stroke-width:0.133333"/><path id="path362" d="m 834.36398,922.93341 c -0.10933,-0.41334 -0.752,-0.24 -0.64267,0.17333 0.95867,3.66667 0.656,8.05333 0.788,11.81333 0.15067,4.26667 0.12134,8.53334 -0.008,12.8 -0.14,4.6 0.172,9.86667 -2.06133,14.04 -2.51467,4.68 -9.04133,5.16 -12.664,1.74667 -4.224,-3.97333 -4.91867,-11.56 -5.44667,-16.96 -0.40133,-4.09333 -0.37866,-8.22667 -0.248,-12.33333 0.14134,-4.44 0.116,-9.12 1.172,-13.44 0.10134,-0.41334 -0.54133,-0.58667 -0.64266,-0.17334 -1.08,4.41334 -1.01334,9.09334 -1.196,13.61334 -0.21867,5.36 -0.10134,10.78666 0.684,16.09333 0.83466,5.64 2.31066,13.13333 8.164,15.64 2.63733,1.13333 5.62266,0.37333 7.97866,-1.01333 3.37467,-1.98667 4.228,-6.02667 4.55467,-9.61334 0.54133,-5.93333 0.54667,-11.97333 0.44533,-17.92 -0.0773,-4.58666 0.292,-10 -0.87733,-14.46666" style="fill:#577c69;fill-opacity:1;fill-rule:nonzero;stroke:none;stroke-width:0.133333"/></g></svg>