<svg version="1.1" id="svg1" width="2000" height="2579.9468" viewBox="974.8206004913945 337.2712119579427 154.49189828359295 99.99553804205732" sodipodi:docname="styletrees.svg" inkscape:version="1.4.2 (f4327f4, 2025-05-13)" xmlns:inkscape="http://www.inkscape.org/namespaces/inkscape" xmlns:sodipodi="http://sodipodi.sourceforge.net/DTD/sodipodi-0.dtd" xmlns="http://www.w3.org/2000/svg" xmlns:svg="http://www.w3.org/2000/svg"><defs id="defs1"/><g><path id="path253" d="m 1048.9653,406.97342 c -2.4387,-3.86667 -1.8933,-9.02667 -1.8013,-13.4 0.1253,-5.89333 1.372,-11.41333 3.3026,-16.97333 1.952,-5.61333 4.3107,-11.16 7.1134,-16.4 2.8293,-5.29333 6.0293,-10.36 8.3853,-15.89333 0.1653,-0.38667 -0.408,-0.73334 -0.576,-0.33334 -2.5093,5.89334 -5.9347,11.30667 -8.9493,16.94667 -2.8267,5.28 -5.0467,10.98667 -7.0107,16.64 -1.912,5.49333 -2.8253,11 -2.948,16.8 -0.091,4.25333 -0.4693,9.18666 1.908,12.94666 0.228,0.36 0.8053,0.0267 0.576,-0.33333 v 0" style="fill:#577c69;fill-opacity:1;fill-rule:nonzero;stroke:none;stroke-width:0.133333"/><path id="path254" d="m 1065.356,344.22676 c 1.2933,5.78666 0.3893,11.74666 -0.1774,17.57333 -0.688,7.05333 -2.068,14.02667 -3.684,20.93333 -1.1106,4.74667 -2.2466,9.54667 -3.696,14.2 -1.404,4.50667 -3.8746,9.77333 -9.288,9.86667 -0.4293,0.0133 -0.4306,0.68 0,0.66666 9.108,-0.16 10.6907,-12.96 12.416,-19.65333 1.884,-7.32 3.524,-14.73333 4.476,-22.24 0.8854,-6.98666 2.156,-14.54666 0.596,-21.52 -0.095,-0.42666 -0.7373,-0.24 -0.6426,0.17334 v 0" style="fill:#577c69;fill-opacity:1;fill-rule:nonzero;stroke:none;stroke-width:0.133333"/><path id="path255" d="m 1065.356,344.21342 c -1.6027,5.24 -2.6547,10.50667 -3.896,15.82667 -1.224,5.24 -2.908,10.36 -4.5067,15.48 -1.6147,5.18666 -3.008,10.41333 -4.224,15.69333 -0.656,2.85333 -1.2493,5.72 -1.836,8.58667 -0.5467,2.66666 -0.824,5.42666 -2.1707,7.84 -0.2106,0.37333 0.3654,0.70666 0.576,0.33333 2.1067,-3.77333 2.372,-8.73333 3.2627,-12.90667 1.22,-5.73333 2.6227,-11.41333 4.308,-17.01333 1.6667,-5.53333 3.492,-11.02666 4.9373,-16.62666 1.464,-5.69334 2.4694,-11.4 4.192,-17.02667 0.1254,-0.41333 -0.5173,-0.6 -0.6426,-0.18667 v 0" style="fill:#577c69;fill-opacity:1;fill-rule:nonzero;stroke:none;stroke-width:0.133333"/><path id="path256" d="m 1048.344,406.80009 c -3.8347,-0.44 -3.7054,-8.32 -3.8174,-11.05334 -0.2653,-6.45333 -0.6653,-12.38666 1.2107,-18.67999 1.872,-6.28 4.4253,-12.70667 7.8853,-18.26667 1.7267,-2.77333 3.7854,-5.34667 5.8347,-7.89333 1.912,-2.37334 3.3307,-5.08 6.0547,-6.64 0.372,-0.22667 0.036,-0.8 -0.3374,-0.58667 -2.244,1.29333 -3.6506,3.28 -5.1306,5.34667 -2.2814,3.2 -4.8494,6.13333 -6.9974,9.44 -4.392,6.74666 -7.5493,15.36 -9.1653,23.21333 -1.1533,5.6 -0.3373,12.06666 0.2333,17.76 0.2707,2.69333 0.7907,7.62666 4.2294,8.02666 0.4266,0.0533 0.4213,-0.61333 0,-0.66666 v 0" style="fill:#577c69;fill-opacity:1;fill-rule:nonzero;stroke:none;stroke-width:0.133333"/><path id="path257" d="m 1049.432,408.29342 c 4.7466,-1.52 8.6733,-3.62667 11.744,-7.64 3.3893,-4.42667 4.82,-10.37333 5.544,-15.78667 1.776,-13.29333 2.584,-28.23999 -0.888,-41.31999 -0.1107,-0.41334 -0.7534,-0.24 -0.6427,0.18666 3.1387,11.81334 2.392,24.85334 1.3453,36.92 -0.5106,5.88 -1.5746,11.76 -4.3013,17.06667 -2.7627,5.36 -7.42,8.16 -12.9787,9.93333 -0.408,0.13333 -0.2333,0.77333 0.1774,0.64 v 0" style="fill:#577c69;fill-opacity:1;fill-rule:nonzero;stroke:none;stroke-width:0.133333"/><path id="path258" d="m 1028.3373,338.93342 c -6.8253,0 -13.292,0.69334 -19.2187,2.08 -15.11462,3.52 -26.57996,13.41334 -30.66929,26.45334 -3.572,11.4 -2.21467,24.33333 3.632,34.61333 3.04933,5.36 7.19733,9.64 13.056,13.46666 4.85333,3.16 10.19329,5.57334 15.84399,8.13334 l 0.6493,0.29333 c 18.248,8.26667 37.5774,12.62667 55.9,12.62667 5.624,0 11.2187,-0.4 16.6267,-1.21334 12.26,-1.84 22.6013,-5.33333 30.74,-10.4 10.624,-6.62666 15.44,-16.93333 13.2147,-28.29333 -1.0947,-5.58667 -5.6427,-11.49333 -9.2974,-16.22667 l -0.828,-1.07999 c -8.7413,-11.41334 -19.9986,-21.06667 -32.5546,-27.92 -6.5294,-3.56 -13.3107,-6.30667 -20.1547,-8.16 -4.824,-1.30667 -9.7733,-1.86667 -14.5587,-2.4 -2.1333,-0.24 -4.3373,-0.49334 -6.5146,-0.8 -5.4134,-0.78667 -10.752,-1.17334 -15.8667,-1.17334 z m 39.1933,98.33333 v 0 c -18.416,0 -37.8413,-4.38666 -56.176,-12.69333 l -0.648,-0.28 c -5.676,-2.57333 -11.03596,-5 -15.93462,-8.2 -5.94934,-3.86667 -10.16667,-8.22667 -13.272,-13.68 -5.93467,-10.44 -7.31334,-23.57333 -3.68667,-35.14666 4.16,-13.26667 15.808,-23.32 31.15469,-26.90667 10.448,-2.42667 22.6093,-2.74667 35.3306,-0.92 2.168,0.32 4.368,0.56 6.4947,0.8 4.8107,0.54667 9.7853,1.10667 14.6587,2.42667 6.8933,1.86666 13.724,4.62666 20.3,8.22666 12.6373,6.89334 23.9666,16.6 32.764,28.08 l 0.828,1.08 c 3.696,4.8 8.296,10.77333 9.4213,16.52 2.2827,11.64 -2.644,22.2 -13.516,28.97333 -8.216,5.12 -18.6427,8.65334 -30.9933,10.49334 -5.4414,0.81333 -11.068,1.22666 -16.7254,1.22666" style="fill:#577c69;fill-opacity:1;fill-rule:nonzero;stroke:none;stroke-width:0.133333"/><path id="path259" d="m 1065.4213,342.65342 c -5.7613,1.08 -11.056,6.36 -15.344,10.04 -5.8413,5 -8.092,12 -9.6747,19.28 -2.6586,12.24 -4.724,31.36 7.772,39.29333 0.3654,0.22667 0.6987,-0.34666 0.3374,-0.58666 -6.328,-4.01334 -8.716,-12.24 -9.3267,-19.28 -0.5893,-6.81334 0.6587,-13.72 2.0973,-20.33333 1.5,-6.90667 3.928,-13.08 9.2667,-17.90667 4.076,-3.68 9.4933,-8.82667 15.0493,-9.86667 0.4227,-0.08 0.2427,-0.72 -0.1773,-0.64 v 0" style="fill:#577c69;fill-opacity:1;fill-rule:nonzero;stroke:none;stroke-width:0.133333"/><path id="path260" d="m 1065.4413,343.60009 c 4.6893,4.53333 5.6947,13.06667 6.008,19.17333 0.352,6.8 0.6333,13.85334 -0.3373,20.61333 -0.8254,5.74667 -3.2134,11.45334 -6.0867,16.45334 -1.4827,2.58666 -3.328,4.93333 -5.4693,6.98666 -2.9374,2.84 -6.0387,3.42667 -9.6347,4.77334 -0.3987,0.14666 -0.2267,0.78666 0.1773,0.64 1.0694,-0.4 2.2494,-0.36 3.2934,-0.8 1.7813,-0.76 3.4013,-1.65334 4.9826,-2.76 2.224,-1.56 3.9814,-3.74667 5.564,-5.92 3.792,-5.21334 6.2827,-11.72 7.6054,-18 1.572,-7.45333 0.9,-15.64 0.5106,-23.2 -0.304,-5.90667 -1.6693,-14.10667 -6.1426,-18.44 -0.308,-0.29333 -0.78,0.17333 -0.4707,0.48 v 0" style="fill:#577c69;fill-opacity:1;fill-rule:nonzero;stroke:none;stroke-width:0.133333"/><path id="path261" d="m 1065.8853,343.60009 c 5.6053,5.29333 9.1147,10.70667 11.028,18.26667 1.916,7.57333 1.832,15.65333 0.6253,23.33333 -1.1826,7.52 -4.764,13.93333 -9.4146,19.85333 -2.1627,2.76 -4.736,4.96 -7.7747,6.70667 -3.368,1.92 -7.1347,2.06666 -10.7613,3.17333 -0.4094,0.12 -0.2347,0.76 0.1773,0.64 3.3667,-1.02667 6.796,-1.30667 10.0307,-2.78667 3.2026,-1.45333 5.8306,-3.81333 8.12,-6.42666 5.2546,-6.02667 8.8866,-13.12 10.2666,-20.98667 1.3067,-7.45333 1.1414,-15.18666 -0.3773,-22.58666 -1.6587,-8.09334 -5.54,-14.08 -11.448,-19.66667 -0.312,-0.29333 -0.7853,0.18667 -0.472,0.48 v 0" style="fill:#577c69;fill-opacity:1;fill-rule:nonzero;stroke:none;stroke-width:0.133333"/><path id="path262" d="m 1066.3653,343.57342 c 7.392,2.78667 12.712,11.90667 15.5973,18.78667 3.416,8.13333 4.432,17.4 3.928,26.14666 -0.5453,9.48 -4.8173,16.92 -12.052,22.93334 -6.8906,5.72 -16.3946,6.05333 -24.94,5.92 -0.4293,0 -0.4293,0.66666 0,0.66666 8.3174,0.13334 17.724,-0.16 24.5934,-5.49333 7.1453,-5.53333 11.64,-12.54667 12.8306,-21.53333 1.3174,-9.93334 -0.32,-20.73333 -4.1853,-29.93333 -2.8147,-6.70667 -8.4507,-15.44 -15.5947,-18.13334 -0.4026,-0.16 -0.5746,0.49334 -0.1773,0.64 v 0" style="fill:#577c69;fill-opacity:1;fill-rule:nonzero;stroke:none;stroke-width:0.133333"/><path id="path263" d="m 1048.0106,420.25342 c 4.8334,0.0133 9.688,1.81333 14.5294,0.97333 4.5106,-0.8 9.0946,-2.2 13.2186,-4.21333 7.256,-3.52 12.4107,-13.08 14.6014,-20.50667 2.488,-8.44 1.7346,-17.79999 -0.776,-26.10666 -1.2894,-4.26667 -3.248,-8.33333 -5.6374,-12.09333 -1.512,-2.37334 -2.968,-4.77334 -4.596,-7.08 -1.2853,-1.81334 -3.144,-3.28 -4.164,-5.25334 -0.1973,-0.38666 -0.772,-0.0533 -0.576,0.33334 0.568,1.09333 1.332,1.93333 2.172,2.82666 1.8147,1.94667 3.2387,4.2 4.6454,6.44 2.4106,3.84 4.7013,7.57334 6.392,11.8 3.2866,8.21334 4.032,17.09333 2.6066,25.78667 -0.72,4.38666 -2.6026,8.2 -4.7666,12.02666 -2.3574,4.17334 -5.14,8.2 -9.2894,10.74667 -3.7466,2.28 -8.556,3.49333 -12.812,4.44 -5.2106,1.14667 -10.3306,-0.77333 -15.548,-0.78667 -0.4306,0 -0.4306,0.66667 0,0.66667 v 0" style="fill:#577c69;fill-opacity:1;fill-rule:nonzero;stroke:none;stroke-width:0.133333"/><path id="path264" d="m 1047.1213,422.80009 c 1.8947,-0.13334 4.0093,0.88 5.8693,1.21333 2.2627,0.41333 4.5627,0.44 6.852,0.30667 4.6734,-0.25334 9.2027,-1.68 13.496,-3.46667 7.96,-3.29333 14.4667,-9.01333 18.276,-16.78667 3.7227,-7.58666 4.8374,-16.73333 3.6147,-25.05333 -1.568,-10.68 -6.9667,-19.64 -11.4867,-29.26666 -0.1826,-0.38667 -0.7573,-0.0533 -0.576,0.33333 3.972,8.46667 8.8334,16.52 10.844,25.73333 2.0374,9.33333 0.9707,19.24 -2.972,27.92 -3.6986,8.14667 -10.892,13.58667 -18.9653,16.93333 -4.2827,1.77334 -8.788,2.8 -13.4147,3.05334 -2.5946,0.14666 -5.18,-0.24 -7.708,-0.78667 -1.3293,-0.29333 -2.4426,-0.89333 -3.8293,-0.8 -0.4267,0.04 -0.4293,0.70667 0,0.66667 v 0" style="fill:#577c69;fill-opacity:1;fill-rule:nonzero;stroke:none;stroke-width:0.133333"/><path id="path265" d="m 1046.1213,425.80009 c 2.184,0.17333 4.3107,0.93333 6.4933,1.22666 2.7467,0.36 5.5854,0.46667 8.3534,0.46667 4.308,0 8.4506,-1.05333 12.3866,-2.73333 8.996,-3.86667 16.0414,-9.29334 21.6254,-17.42667 5.2413,-7.62667 6.6466,-16.86667 5.428,-25.90667 -0.7054,-5.23999 -3.0267,-10.22666 -4.9267,-15.11999 -1.816,-4.66667 -3.7107,-9.37334 -6.516,-13.56 -0.2387,-0.34667 -0.8173,-0.0133 -0.576,0.33333 2.5547,3.81333 4.296,8.02667 5.9973,12.25333 1.6734,4.17334 3.44,8.4 4.6547,12.73334 2.6333,9.39999 0.9573,19.70666 -4.02,27.97333 -4.9667,8.25333 -12.3987,13.73333 -20.9747,17.68 -4.596,2.12 -9.176,3.10666 -14.244,3.10666 -2.3893,0 -4.8133,-0.22666 -7.188,-0.46666 -2.2213,-0.22667 -4.2813,-1.04 -6.4933,-1.22667 -0.4293,-0.0267 -0.4253,0.64 0,0.66667 v 0" style="fill:#577c69;fill-opacity:1;fill-rule:nonzero;stroke:none;stroke-width:0.133333"/><path id="path266" d="m 1044.4773,429.46675 c 5.6387,1.30667 11.1173,2.66667 16.9453,2.56 5.6307,-0.0933 11.1894,-1.48 16.54,-3.12 4.9494,-1.53333 9.236,-3.44 13.0454,-7.01333 3.772,-3.53333 7.5506,-7.4 10.4853,-11.66667 5.5187,-8.02666 7.0533,-18.09333 5.412,-27.53333 -0.8787,-5.05333 -3.0307,-9.68 -5.112,-14.32 -1.0347,-2.30666 -2.1933,-4.66666 -3.772,-6.66666 -1.8427,-2.32 -4.2813,-4.30667 -5.8347,-6.85334 -0.224,-0.36 -0.8013,-0.0267 -0.576,0.34667 2.1454,3.49333 5.5214,6.04 7.648,9.62667 2.4934,4.18666 4.5187,9.10666 5.9667,13.74666 3.0947,9.92 1.8707,20.58667 -3.232,29.58667 -2.508,4.44 -6.284,7.94666 -9.7733,11.58666 -4.1947,4.37334 -8.7174,6.68 -14.4347,8.52 -5.3213,1.69334 -10.772,2.85334 -16.3627,3.09334 -5.7186,0.25333 -11.2533,-1.25334 -16.768,-2.54667 -0.4186,-0.0933 -0.596,0.54667 -0.1773,0.65333 v 0" style="fill:#577c69;fill-opacity:1;fill-rule:nonzero;stroke:none;stroke-width:0.133333"/><path id="path267" d="m 1042.788,432.46675 c 2.6466,0.16 5.384,0.89334 8.0426,1.18667 3.352,0.36 6.6907,0.68 10.0627,0.76 5.7267,0.13333 11.4693,-0.46667 17.1173,-1.37333 10.1827,-1.61334 18.7547,-6.53334 25.5734,-14.25334 6.496,-7.34666 10.3066,-17.76 10.7026,-27.49333 0.2054,-5.02667 -1.0533,-9.8 -3.1146,-14.34666 -2.344,-5.16 -4.956,-10.64 -8.704,-14.93334 -0.284,-0.32 -0.7534,0.14667 -0.472,0.46667 3.2786,3.76 5.3426,8.33333 7.5933,12.73333 2.6267,5.14667 4.0773,10.29333 4.0307,16.08 -0.084,10.28 -4.9427,21.08 -11.8787,28.53333 -7.0933,7.62667 -15.9507,11.41334 -26.0867,12.90667 -5.7093,0.84 -11.4773,1.16 -17.2413,0.93333 -5.264,-0.21333 -10.4227,-1.56 -15.6253,-1.86666 -0.4294,-0.0133 -0.4267,0.65333 0,0.66666 v 0" style="fill:#577c69;fill-opacity:1;fill-rule:nonzero;stroke:none;stroke-width:0.133333"/><path id="path268" d="m 1063.5653,437.25342 c 9.0613,-0.21333 18.5173,-1.46667 27.1933,-4.10667 7.5627,-2.30666 13.6427,-6.28 18.1787,-12.82666 2.5253,-3.64 4.2053,-8.02667 6.2333,-11.96 1.9494,-3.78667 2.628,-7.96 2.9107,-12.16 0.28,-4.17334 -0.2333,-8.37334 -1.3133,-12.41334 -1.2467,-4.65333 -4.3507,-8.71999 -5.436,-13.39999 -0.097,-0.42667 -0.74,-0.24 -0.6427,0.17333 0.82,3.53333 2.932,6.85333 4.3347,10.18666 1.7493,4.16 2.3866,8.70667 2.452,13.17334 0.1293,8.93333 -3.84,16.54666 -7.9667,24.21333 -4.0387,7.50667 -11.0467,11.84 -18.928,14.37333 -8.5373,2.73334 -18.064,3.86667 -27.016,4.08 -0.4293,0.0133 -0.4293,0.68 0,0.66667 v 0" style="fill:#577c69;fill-opacity:1;fill-rule:nonzero;stroke:none;stroke-width:0.133333"/><path id="path269" d="m 1103.956,431.32009 c 7.9493,-5.81334 15.852,-12.29334 18.7133,-22.09334 1.424,-4.88 1.2867,-10.13333 0.8347,-15.14666 -0.2027,-2.22667 -0.584,-4.32 -1.3454,-6.44 -0.8946,-2.48 -2.8186,-4.98667 -3.148,-7.61334 -0.053,-0.42666 -0.72,-0.42666 -0.6666,0 0.4653,3.73334 3.2053,7.13334 4.0826,10.85334 1.192,5.05333 0.9814,11.02666 0.083,16.09333 -1.8907,10.64 -10.652,17.74667 -18.8893,23.76 -0.344,0.25333 -0.012,0.84 0.336,0.58667 v 0" style="fill:#577c69;fill-opacity:1;fill-rule:nonzero;stroke:none;stroke-width:0.133333"/><path id="path270" d="m 1061.988,342.04009 c -2.8814,-0.46667 -6.16,1.53333 -8.728,2.69333 -3.68,1.66667 -7.0747,3.65334 -10.02,6.42667 -5.4054,5.09333 -8.3854,12.36 -10.0294,19.46667 -1.796,7.76 -1.8973,16.09333 -0.2253,23.87999 0.96,4.46667 3.2547,8.46667 5.5973,12.33334 0.984,1.62666 1.956,3.16 3.2374,4.57333 0.8466,0.92 4.376,3.74667 5.6573,3.29333 -0.4027,0.14667 -0.2293,0.78667 0.1773,0.64 0.093,-0.0267 0.188,-0.0667 0.2827,-0.0933 0.212,-0.08 0.3573,-0.38667 0.1467,-0.56 -1.0387,-0.85333 -2.172,-1.30667 -3.372,-1.89333 -2.216,-1.08 -3.6787,-3.26667 -4.9307,-5.28 -2.3893,-3.85334 -4.656,-7.76 -5.896,-12.14667 -2.0507,-7.25333 -1.7147,-15.4 -0.404,-22.74666 1.2293,-6.89334 3.9107,-13.58667 8.38,-19.01334 2.1213,-2.57333 4.772,-4.64 7.668,-6.26666 1.6507,-0.92 3.376,-1.72 5.1,-2.50667 1.94,-0.88 4.94,-2.52 7.1813,-2.16 0.42,0.0667 0.6,-0.57333 0.1774,-0.64 v 0" style="fill:#577c69;fill-opacity:1;fill-rule:nonzero;stroke:none;stroke-width:0.133333"/><path id="path271" d="m 1055.7653,340.81342 c -2.4853,-0.50666 -5.816,1.84 -7.9387,2.84 -4,1.89334 -7.7826,4.28 -10.968,7.36 -6.048,5.85334 -9.3053,15.76 -11.2106,23.73334 -2.2667,9.47999 -0.6494,18.71999 3.1373,27.58666 1.9587,4.57333 4.272,8.98667 7.2987,12.94667 1.9413,2.56 5.5146,6.48 9.26,6.08 -0.4227,0.04 -0.428,0.72 0,0.66666 0.2133,-0.0267 0.4266,-0.04 0.64,-0.0667 0.324,-0.04 0.4613,-0.42667 0.168,-0.62667 -1.096,-0.70667 -2.264,-0.97333 -3.516,-1.34667 -2.2907,-0.66666 -3.8134,-2.49333 -5.312,-4.22666 -2.968,-3.41334 -5.124,-7.56 -7.028,-11.62667 -3.9987,-8.56 -6,-17.49333 -4.472,-26.89333 1.2266,-7.54667 4.3506,-15.48 8.4426,-21.90667 2.4734,-3.89333 6.0574,-6.66666 9.96,-9.02666 1.5894,-0.94667 3.2627,-1.76 4.9374,-2.54667 1.6813,-0.8 4.5613,-2.68 6.424,-2.30667 0.42,0.0933 0.5986,-0.54666 0.1773,-0.64 v 0" style="fill:#577c69;fill-opacity:1;fill-rule:nonzero;stroke:none;stroke-width:0.133333"/><path id="path272" d="m 1050.5653,340.46676 c -8.5507,0.34666 -15.5773,7.8 -20.3907,14.14666 -6.0533,7.98667 -10.724,17.37334 -11.6226,27.45333 -0.8854,9.93334 4.1973,19.56 8.8626,28 2.3707,4.28 5.3067,8.30667 8.6787,11.85334 1.4413,1.52 3.608,2 5.1307,3.45333 0.5106,0.49333 1.8653,0.8 2.2173,0.53333 -0.34,0.25334 0.136,0.73334 0.4707,0.46667 0.3853,-0.29333 0.4226,-0.26667 0.5666,-0.62667 0.065,-0.16 -0.071,-0.37333 -0.2333,-0.41333 -7.7347,-1.76 -12.46,-9.04 -16.256,-15.61333 -4.6347,-8.01334 -9.052,-17.13334 -8.832,-26.56 0.2147,-9.22667 4.6227,-18.04 9.68,-25.54667 4.8013,-7.12 12.408,-16.09333 21.728,-16.48 0.4293,-0.0133 0.4307,-0.68 0,-0.66666 v 0" style="fill:#577c69;fill-opacity:1;fill-rule:nonzero;stroke:none;stroke-width:0.133333"/><path id="path273" d="m 1044.6773,339.69342 c -1.276,-0.12 -2.2653,0.64 -3.296,1.32 -2.1707,1.44 -4.408,2.72 -6.5253,4.25334 -4.0814,2.93333 -7.9694,6.29333 -11.44,9.93333 -6.8747,7.21333 -10.2987,16.30667 -10.58,26.2 -0.284,10.01333 3.5666,19.30666 9.6626,27.08 3.312,4.21333 6.9774,8.34666 10.7467,12.16 2.5107,2.53333 5.0587,6.12 8.7867,6.82666 0.4213,0.0667 0.6,-0.57333 0.1773,-0.65333 -3.5813,-0.66667 -6.0707,-4.18667 -8.492,-6.65333 -3.264,-3.32 -6.2373,-6.90667 -9.3013,-10.41334 -6.728,-7.69333 -10.6054,-16.90666 -10.912,-27.16 -0.2934,-9.79999 3.2986,-18.81333 9.6693,-26.13333 2.736,-3.13333 6.0013,-5.84 9.2227,-8.46666 2.1613,-1.76 4.436,-3.36 6.78,-4.86667 1.2946,-0.82667 3.86,-2.92 5.5013,-2.76 0.428,0.04 0.424,-0.62667 0,-0.66667 v 0" style="fill:#577c69;fill-opacity:1;fill-rule:nonzero;stroke:none;stroke-width:0.133333"/><path id="path274" d="m 1040.1213,338.69342 c -3.9613,0.33334 -8.2827,3.56 -11.4653,5.68 -4.476,2.98667 -8.892,6.4 -12.6227,10.28 -6.5187,6.78667 -10.572,15.84 -11.096,25.22667 -0.5707,10.21333 4.4787,20.81333 10.8987,28.46666 3.9026,4.65334 8.04,9.29334 12.3506,13.57334 4.176,4.14666 9.0347,6.44 14.2107,9.06666 0.3827,0.18667 0.72,-0.38666 0.336,-0.58666 -4.7867,-2.42667 -9.2147,-4.48 -13.24,-8.14667 -3.6947,-3.37333 -6.8307,-7.33333 -10.1907,-11.02667 -7.1893,-7.88 -12.9786,-17.46666 -13.6866,-28.37333 -0.624,-9.58666 3.5,-18.98666 9.548,-26.22666 3.1493,-3.77334 7.1253,-6.76 11.0346,-9.69334 2.132,-1.6 4.3534,-3.05333 6.652,-4.4 2.028,-1.18666 4.8947,-2.97333 7.2707,-3.17333 0.4253,-0.04 0.428,-0.70667 0,-0.66667 v 0" style="fill:#577c69;fill-opacity:1;fill-rule:nonzero;stroke:none;stroke-width:0.133333"/><path id="path275" d="m 1031.5653,338.69342 c -2.0827,0.08 -3.6933,1.06667 -5.4627,2.09334 -2.4,1.38666 -4.904,2.54666 -7.2626,4.02666 -4.5094,2.81334 -8.5067,6.38667 -11.8187,10.53334 -3.2053,4.02666 -6.2933,8.74666 -7.89999,13.65333 -1.76133,5.38667 -1.12133,11.65333 -0.40267,17.16 1.42396,10.93333 6.54936,21.04 13.40266,29.6 3.5173,4.38666 7.8693,8.24 12.968,10.70666 5.2027,2.50667 10.8173,4.25334 16.276,6.10667 0.4093,0.13333 0.5827,-0.50667 0.1773,-0.64 -10.176,-3.45333 -20.2093,-6.65333 -27.5546,-14.94667 -7.076,-7.97333 -12.292,-18.18666 -14.25469,-28.64 -1.032,-5.50666 -1.39733,-11.39999 -0.50133,-16.93333 0.84532,-5.22666 4.17862,-9.65333 7.05202,-13.94666 2.9146,-4.34667 6.8866,-7.90667 11.1306,-10.90667 2.02,-1.44 4.1747,-2.66667 6.356,-3.82667 2.3467,-1.25333 5.104,-3.28 7.7947,-3.37333 0.4293,-0.0133 0.4307,-0.68 0,-0.66667 v 0" style="fill:#577c69;fill-opacity:1;fill-rule:nonzero;stroke:none;stroke-width:0.133333"/><path id="path276" d="m 1023.232,338.46676 c -4.02,0.53333 -8.1027,4.22666 -11.2694,6.57333 -3.6653,2.72 -7.412,5.76 -10.192,9.41333 -6.24929,8.21334 -9.27062,18.86667 -8.78662,29.12 0.23466,4.93333 1.43466,9.82667 2.584,14.61333 1.07733,4.48 2.736,8.45334 5.68662,12.01334 3.4267,4.14666 7.4547,7.92 11.604,11.33333 4.064,3.33333 8.9627,5.36 13.0267,8.61333 0.332,0.26667 0.8067,-0.2 0.472,-0.46666 -2.872,-2.29334 -6.2973,-3.81334 -9.344,-5.86667 -4.1893,-2.82667 -7.9173,-6.32 -11.4453,-9.92 -3.324,-3.38667 -6.27069,-6.77333 -7.98002,-11.25333 -1.716,-4.50667 -2.608,-9.50667 -3.40667,-14.24 -1.76533,-10.46667 0.57333,-20.68 5.67067,-29.88 2.36932,-4.26667 5.91202,-7.61333 9.63862,-10.69333 2.1854,-1.81334 4.48,-3.48 6.8307,-5.06667 1.9787,-1.33333 4.4893,-3.29333 6.9107,-3.62667 0.42,-0.0533 0.4253,-0.72 0,-0.66666 v 0" style="fill:#577c69;fill-opacity:1;fill-rule:nonzero;stroke:none;stroke-width:0.133333"/><path id="path277" d="m 1013.508,339.52009 c -6.4827,4.28 -12.664,8.84 -17.27469,15.18667 -4.78667,6.6 -7.00267,14.37333 -7.62,22.4 -0.672,8.73333 0.0227,17.07999 3.56,25.15999 1.64933,3.76 3.72267,7.33334 6.01067,10.74667 1.06666,1.58667 2.23062,3.10667 3.41462,4.6 1.1334,1.44 2.6867,2.49333 3.568,4.13333 0.204,0.38667 0.78,0.0533 0.576,-0.33333 -1.208,-2.24 -3.4693,-3.97333 -5.0146,-6 -2.26802,-2.96 -4.23602,-6.14667 -6.00536,-9.44 -4.30133,-7.97333 -5.89866,-16.16 -5.64533,-25.17333 0.24,-8.6 1.99333,-16.49333 6.492,-23.88 4.39867,-7.24 11.33729,-12.24 18.27599,-16.82667 0.356,-0.24 0.023,-0.81333 -0.3373,-0.57333 v 0" style="fill:#577c69;fill-opacity:1;fill-rule:nonzero;stroke:none;stroke-width:0.133333"/><path id="path278" d="m 1003.9533,341.73342 c -1.9507,0.97334 -3.04,3.02667 -4.19999,4.77334 -2.06267,3.12 -4.39733,6.02666 -6.37333,9.21333 -4.21867,6.8 -6.80667,14.36 -8.472,22.16 -3.26534,15.29333 5.72133,29.77333 14.86666,41.26666 0.26796,0.34667 0.73596,-0.13333 0.47066,-0.46666 -9.14932,-11.50667 -17.56532,-25.4 -14.69466,-40.61333 1.31334,-6.96 3.78134,-13.8 7.212,-19.98667 1.712,-3.08 3.72667,-5.98667 5.79867,-8.84 1.59999,-2.2 3.24529,-5.69333 5.72799,-6.92 0.3853,-0.2 0.048,-0.77333 -0.336,-0.58667 v 0" style="fill:#577c69;fill-opacity:1;fill-rule:nonzero;stroke:none;stroke-width:0.133333"/><path id="path279" d="m 994.61998,346.29342 c -4.38934,3.02667 -7.408,8.01334 -10.01467,12.56 -3.17467,5.53334 -5.244,11.93334 -5.956,18.26667 -0.70267,6.25333 -0.37867,12.48 1.33467,18.54666 0.78,2.76 1.95066,5.41334 3.312,7.93334 1.59066,2.94666 4.31066,5.22666 5.648,8.26666 0.17333,0.38667 0.748,0.0533 0.576,-0.33333 -0.952,-2.16 -2.612,-3.72 -3.98667,-5.61333 -1.848,-2.54667 -3.16667,-5.48 -4.24933,-8.41334 -2.13467,-5.77333 -2.60134,-12.02666 -2.19467,-18.13333 0.42133,-6.33333 2.28133,-12.50666 5.036,-18.18666 2.488,-5.13334 6.07867,-11.04 10.83067,-14.32 0.352,-0.24 0.0187,-0.81334 -0.336,-0.57334 v 0" style="fill:#577c69;fill-opacity:1;fill-rule:nonzero;stroke:none;stroke-width:0.133333"/></g></svg>