<svg version="1.1" id="svg1" width="2000" height="2579.9468" viewBox="1097.7324576591182 758.2965849791403 3.7329829252821582 14.7418369284552" sodipodi:docname="styletrees.svg" inkscape:version="1.4.2 (f4327f4, 2025-05-13)" xmlns:inkscape="http://www.inkscape.org/namespaces/inkscape" xmlns:sodipodi="http://sodipodi.sourceforge.net/DTD/sodipodi-0.dtd" xmlns="http://www.w3.org/2000/svg" xmlns:svg="http://www.w3.org/2000/svg"><defs id="defs1"/><g><path id="path599" d="m 1099.484,759.60008 c -1.0427,1.49333 -0.7507,3.65333 -0.5787,5.34667 0.2533,2.49333 0.8853,4.93333 1.1747,7.42666 0.1013,0.88 1.4826,0.89334 1.38,0 -0.2027,-1.74666 -0.568,-3.46666 -0.8587,-5.2 -0.3147,-1.88 -1.1333,-5.14666 0.075,-6.86666 0.512,-0.73334 -0.6867,-1.42667 -1.192,-0.70667 v 0" style="fill:#577c69;fill-opacity:1;fill-rule:nonzero;stroke:none;stroke-width:0.133333"/><path id="path599" d="m 1099.484,759.60008 c -1.0427,1.49333 -0.7507,3.65333 -0.5787,5.34667 0.2533,2.49333 0.8853,4.93333 1.1747,7.42666 0.1013,0.88 1.4826,0.89334 1.38,0 -0.2027,-1.74666 -0.568,-3.46666 -0.8587,-5.2 -0.3147,-1.88 -1.1333,-5.14666 0.075,-6.86666 0.512,-0.73334 -0.6867,-1.42667 -1.192,-0.70667 v 0" style="fill:#577c69;fill-opacity:1;fill-rule:nonzero;stroke:none;stroke-width:0.133333"/></g></svg>