<svg version="1.1" id="svg1" width="2000" height="2579.9468" viewBox="594.3372807551856 2065.640200000001 13.655582880051043 14.30176164105751" sodipodi:docname="styletrees.svg" inkscape:version="1.4.2 (f4327f4, 2025-05-13)" xmlns:inkscape="http://www.inkscape.org/namespaces/inkscape" xmlns:sodipodi="http://sodipodi.sourceforge.net/DTD/sodipodi-0.dtd" xmlns="http://www.w3.org/2000/svg" xmlns:svg="http://www.w3.org/2000/svg"><defs id="defs1"/><g><path id="path1396" d="m 597.75732,2068.4 c -0.58267,0.4934 -1.00133,1.1334 -1.46267,1.7467 -0.72133,0.9733 -0.824,2.24 -0.94,3.3733 -0.15466,1.5067 0.74534,3.44 1.83067,4.44 0.94667,0.8667 1.95467,1.4934 3.22,1.8 3.176,0.7734 6.49333,-0.9733 7.38,-4.2 0.84666,-3.0666 -1.01334,-6.6 -4.19067,-7.3733 -0.124,-0.027 -0.24533,-0.053 -0.36133,-0.1067 0.47866,0.2 0.956,0.4 1.43333,0.6 -0.0413,-0.027 -0.0827,-0.04 -0.12267,-0.067 0.404,0.3066 0.80934,0.6266 1.21334,0.9333 -0.0293,-0.027 -0.0573,-0.053 -0.0867,-0.08 0.312,0.4133 0.62533,0.8133 0.93733,1.2133 -0.0173,-0.027 -0.0347,-0.053 -0.052,-0.093 0.20134,0.48 0.40267,0.96 0.604,1.44 -0.007,-0.04 -0.0133,-0.067 -0.02,-0.093 0.072,0.52 0.14267,1.0533 0.21467,1.5866 0.003,-0.027 0.007,-0.067 0.0107,-0.1066 -0.072,0.5333 -0.14267,1.0666 -0.21467,1.6 0.0133,-0.04 0.028,-0.08 0.0413,-0.12 -0.20133,0.48 -0.404,0.96 -0.60533,1.44 0.044,-0.093 0.0987,-0.1734 0.164,-0.2534 -0.312,0.4 -0.62533,0.8134 -0.93733,1.2134 0.13466,-0.1467 0.276,-0.28 0.42933,-0.4134 2.47867,-2.1333 2.184,-6.3066 0,-8.48 -1.12,-1.12 -2.65733,-1.76 -4.24267,-1.76 -1.68266,0 -3.00133,0.68 -4.24266,1.76 v 0" style="fill:#577c69;fill-opacity:1;fill-rule:nonzero;stroke:none;stroke-width:0.133333"/></g></svg>