<svg version="1.1" id="svg1" width="2000" height="2579.9468" viewBox="189.65738834282 442.33023141973945 56.940703844015246 57.27428124456719" sodipodi:docname="styletrees.svg" inkscape:version="1.4.2 (f4327f4, 2025-05-13)" xmlns:inkscape="http://www.inkscape.org/namespaces/inkscape" xmlns:sodipodi="http://sodipodi.sourceforge.net/DTD/sodipodi-0.dtd" xmlns="http://www.w3.org/2000/svg" xmlns:svg="http://www.w3.org/2000/svg"><defs id="defs1"/><g><path id="path139" d="m 247.53066,498.62675 c -5.93867,-2.18666 -10.95333,-6.84 -15.896,-10.68 -5.13733,-3.98666 -9.94667,-8.37333 -14.452,-13.05333 -9.188,-9.56 -16.99067,-20.33333 -24.33466,-31.33333 -0.34667,-0.53334 -1.19334,-0.04 -0.84267,0.48 7.39867,11.09333 15.27733,21.86666 24.48666,31.53333 4.672,4.90667 9.73467,9.44 15.104,13.56 4.90534,3.77333 9.79734,8.26667 15.676,10.44 0.59067,0.21333 0.844,-0.73333 0.25867,-0.94667" style="fill:#577c69;fill-opacity:1;fill-rule:nonzero;stroke:none;stroke-width:0.133333"/><path id="path140" d="m 201.90133,462.82675 c -3.744,-5.13333 -7.76267,-10.17333 -10.35467,-16.02666 -0.25466,-0.57334 -1.09466,-0.0667 -0.84266,0.49333 2.67333,6.04 6.85733,11.24 10.71999,16.53333 3.93867,5.4 8.71867,10.08 13.428,14.8 0.44534,0.44 1.136,-0.24 0.69067,-0.69333 -4.80667,-4.81333 -9.62267,-9.6 -13.64133,-15.10667" style="fill:#577c69;fill-opacity:1;fill-rule:nonzero;stroke:none;stroke-width:0.133333"/></g></svg>