<svg version="1.1" id="svg1" width="2000" height="2579.9468" viewBox="911.66664 2186.550745402008 22.333339999999907 21.67555459799223" sodipodi:docname="styletrees.svg" inkscape:version="1.4.2 (f4327f4, 2025-05-13)" xmlns:inkscape="http://www.inkscape.org/namespaces/inkscape" xmlns:sodipodi="http://sodipodi.sourceforge.net/DTD/sodipodi-0.dtd" xmlns="http://www.w3.org/2000/svg" xmlns:svg="http://www.w3.org/2000/svg"><defs id="defs1"/><g><path id="path1349" d="m 931.07064,2191.16 c -2.04,-2.44 -5.356,-3.4666 -8.404,-3.6 -5.44933,-0.2533 -10,4.7334 -10,10 0,2.64 1.06267,5.2 2.92934,7.0667 1.93466,1.9333 4.37733,2.8133 7.07066,2.9333 0.0667,0 0.13467,0 0.20134,0.013 -0.88667,-0.12 -1.772,-0.24 -2.65867,-0.36 0.128,0.013 0.252,0.04 0.37333,0.08 -0.79733,-0.3334 -1.59333,-0.68 -2.38933,-1.0134 0.18267,0.08 0.32667,0.16 0.48533,0.28 -0.67466,-0.52 -1.34933,-1.04 -2.024,-1.56 0.10267,0.093 0.19334,0.1867 0.27467,0.2934 1.62667,1.9466 4.624,2.9333 7.07067,2.9333 2.64133,0 5.204,-1.0667 7.07066,-2.9333 1.86667,-1.8667 2.92934,-4.4267 2.92934,-7.0667 -0.11867,-0.8933 -0.23867,-1.7733 -0.35734,-2.6667 -0.47466,-1.6933 -1.332,-3.16 -2.572,-4.4 v 0" style="fill:#577c69;fill-opacity:1;fill-rule:nonzero;stroke:none;stroke-width:0.133333"/></g></svg>