<svg version="1.1" id="svg1" width="2000" height="2579.9468" viewBox="1186.0533217641512 672.0634052092332 3.0914353059199584 12.860009790756635" sodipodi:docname="styletrees.svg" inkscape:version="1.4.2 (f4327f4, 2025-05-13)" xmlns:inkscape="http://www.inkscape.org/namespaces/inkscape" xmlns:sodipodi="http://sodipodi.sourceforge.net/DTD/sodipodi-0.dtd" xmlns="http://www.w3.org/2000/svg" xmlns:svg="http://www.w3.org/2000/svg"><defs id="defs1"/><g><path id="path650" d="m 1189.124,674.13341 c 0.01,-0.13333 0.01,-0.26666 0.02,-0.4 -0.46,0 -0.92,0 -1.38,0 -0.01,0.76 -0.059,1.52 -0.064,2.28 -0.01,0.76 1.244,0.97334 1.356,0.18667 0.016,-0.10667 0.028,-0.21333 0.035,-0.32 0.048,-0.89333 -1.3253,-0.88 -1.3813,0 -0.176,2.8 -0.672,5.56 -0.656,8.37333 0.01,0.89334 1.3853,0.89334 1.38,0 -0.015,-2.81333 0.48,-5.57333 0.6573,-8.37333 -0.4613,0 -0.9213,0 -1.3813,0 0.01,-0.0133 0.011,-0.04 0.016,-0.0533 0.452,0.0667 0.904,0.13333 1.356,0.18666 0.01,-0.76 0.057,-1.52 0.063,-2.28 0.01,-0.90666 -1.2974,-0.88 -1.38,0 -0.013,0.13334 -0.015,0.26667 -0.02,0.4 -0.04,0.89334 1.3413,0.88 1.38,0 v 0" style="fill:#577c69;fill-opacity:1;fill-rule:nonzero;stroke:none;stroke-width:0.133333"/><path id="path650" d="m 1189.124,674.13341 c 0.01,-0.13333 0.01,-0.26666 0.02,-0.4 -0.46,0 -0.92,0 -1.38,0 -0.01,0.76 -0.059,1.52 -0.064,2.28 -0.01,0.76 1.244,0.97334 1.356,0.18667 0.016,-0.10667 0.028,-0.21333 0.035,-0.32 0.048,-0.89333 -1.3253,-0.88 -1.3813,0 -0.176,2.8 -0.672,5.56 -0.656,8.37333 0.01,0.89334 1.3853,0.89334 1.38,0 -0.015,-2.81333 0.48,-5.57333 0.6573,-8.37333 -0.4613,0 -0.9213,0 -1.3813,0 0.01,-0.0133 0.011,-0.04 0.016,-0.0533 0.452,0.0667 0.904,0.13333 1.356,0.18666 0.01,-0.76 0.057,-1.52 0.063,-2.28 0.01,-0.90666 -1.2974,-0.88 -1.38,0 -0.013,0.13334 -0.015,0.26667 -0.02,0.4 -0.04,0.89334 1.3413,0.88 1.38,0 v 0" style="fill:#577c69;fill-opacity:1;fill-rule:nonzero;stroke:none;stroke-width:0.133333"/></g></svg>