<svg version="1.1" id="svg1" width="2000" height="2579.9468" viewBox="1091.1660461421027 1351.7100750000113 3.715146711122543 11.645094456284369" sodipodi:docname="styletrees.svg" inkscape:version="1.4.2 (f4327f4, 2025-05-13)" xmlns:inkscape="http://www.inkscape.org/namespaces/inkscape" xmlns:sodipodi="http://sodipodi.sourceforge.net/DTD/sodipodi-0.dtd" xmlns="http://www.w3.org/2000/svg" xmlns:svg="http://www.w3.org/2000/svg"><defs id="defs1"/><g><path id="path1160" d="m 1094.5506,1362.1201 c -1.252,-0.6934 -0.9053,-3.24 -0.8533,-4.4267 0.064,-1.4533 0.2707,-2.8933 0.2947,-4.3333 0.015,-0.8667 -1.3187,-0.8667 -1.3334,0 -0.043,2.5466 -1.664,8.3333 1.22,9.9066 0.7547,0.4134 1.4267,-0.7333 0.672,-1.1466 v 0" style="fill:#577c69;fill-opacity:1;fill-rule:nonzero;stroke:none;stroke-width:0.133333"/><path id="path1160" d="m 1094.5506,1362.1201 c -1.252,-0.6934 -0.9053,-3.24 -0.8533,-4.4267 0.064,-1.4533 0.2707,-2.8933 0.2947,-4.3333 0.015,-0.8667 -1.3187,-0.8667 -1.3334,0 -0.043,2.5466 -1.664,8.3333 1.22,9.9066 0.7547,0.4134 1.4267,-0.7333 0.672,-1.1466 v 0" style="fill:#577c69;fill-opacity:1;fill-rule:nonzero;stroke:none;stroke-width:0.133333"/></g></svg>