<svg version="1.1" id="svg1" width="2000" height="2579.9468" viewBox="889.4469360088715 2378.530050000089 23.6637039911285 21.886147788602557" sodipodi:docname="styletrees.svg" inkscape:version="1.4.2 (f4327f4, 2025-05-13)" xmlns:inkscape="http://www.inkscape.org/namespaces/inkscape" xmlns:sodipodi="http://sodipodi.sourceforge.net/DTD/sodipodi-0.dtd" xmlns="http://www.w3.org/2000/svg" xmlns:svg="http://www.w3.org/2000/svg"><defs id="defs1"/><g><path id="path1363" d="m 895.39731,2398.16 c 2.07467,1.6 5.144,2.3067 7.71333,2.2534 5.44934,-0.1067 10,-4.4667 10,-10 0,-5.36 -4.548,-10.1067 -10,-10 -0.284,0.013 -0.56,0 -0.84266,-0.04 0.88666,0.12 1.77333,0.24 2.65866,0.36 -0.26533,-0.053 -0.516,-0.12 -0.76933,-0.2134 0.796,0.3334 1.59333,0.6667 2.38933,1 -0.384,-0.16 -0.724,-0.3733 -1.05466,-0.6266 -0.796,-0.3334 -1.59334,-0.68 -2.38934,-1.0134 -1.772,-0.4666 -3.544,-0.4666 -5.316,0 -2.5,0.6934 -4.668,2.36 -5.97733,4.6 -1.352,2.3067 -1.71733,5.12 -1.008,7.7067 0.336,0.8 0.672,1.5867 1.008,2.3867 0.88933,1.5066 2.08533,2.6933 3.588,3.5866 v 0" style="fill:#577c69;fill-opacity:1;fill-rule:nonzero;stroke:none;stroke-width:0.133333"/></g></svg>