<svg version="1.1" id="svg1" width="2000" height="2579.9468" viewBox="389.54278616424966 971.6421841725777 94.81157564709105 83.27289002097916" sodipodi:docname="styletrees.svg" inkscape:version="1.4.2 (f4327f4, 2025-05-13)" xmlns:inkscape="http://www.inkscape.org/namespaces/inkscape" xmlns:sodipodi="http://sodipodi.sourceforge.net/DTD/sodipodi-0.dtd" xmlns="http://www.w3.org/2000/svg" xmlns:svg="http://www.w3.org/2000/svg"><defs id="defs1"/><g><path id="path349" d="m 400.55866,973.58674 c -6.48534,8.28 -7.18,20.26667 -7.56534,30.37336 -0.284,7.44 0.39734,14.84 0.88,22.2666 0.04,0.6134 0.66667,5.5334 0.0933,5.72 -0.76534,0.2534 -1.388,0.7067 -2.00534,1.2 -1.14,0.9067 -1.50266,2.4667 -1.40266,3.8534 0.552,7.68 12.50133,6.1733 12.976,-0.8534 0.36266,-5.3733 -7.856,-11.9733 -10.92,-5.2533 -0.4,0.8667 0.896,1.6267 1.29733,0.7467 2.52533,-5.52 9.62,1.3066 7.728,5.7733 -1.30933,3.0933 -5.39733,4.3867 -8.02267,2.28 -2.76,-2.2267 -1.56533,-5.5333 1.48534,-6.5333 0.31333,-0.1067 0.56,-0.3867 0.55066,-0.7334 -0.28533,-10.6266 -1.59333,-21.1466 -1.00133,-31.8 0.47867,-8.62663 1.44667,-18.93329 6.96933,-25.97329 0.59067,-0.76 -0.46533,-1.82667 -1.06266,-1.06667 v 0" style="fill:#577c69;fill-opacity:1;fill-rule:nonzero;stroke:none;stroke-width:0.133333"/><path id="path350" d="m 400.02932,975.06674 c 8.33067,18.34667 13.80267,37.70666 16.016,57.73336 0.316,-0.24 0.63334,-0.48 0.95067,-0.72 -3.82667,-0.7334 -6.18933,2.5333 -5.988,6.12 0.224,3.9866 4.588,5.4533 7.95333,4.6933 3.33334,-0.76 5.13867,-4.36 5.26934,-7.4933 0.15866,-3.8 -2.78134,-6.1867 -6.33867,-6.4134 -0.968,-0.067 -0.96267,1.44 0,1.5067 5.21333,0.32 6.08667,6.0933 2.99467,9.5333 -1.85067,2.0667 -5.40534,2.0934 -7.424,0.28 -2.56134,-2.2933 -0.292,-7.4266 3.13333,-6.7733 0.432,0.08 1.00933,-0.2133 0.952,-0.7333 -2.244,-20.3067 -7.77333,-39.89336 -16.22133,-58.48003 -0.4,-0.88 -1.696,-0.12 -1.29734,0.74667 v 0" style="fill:#577c69;fill-opacity:1;fill-rule:nonzero;stroke:none;stroke-width:0.133333"/><path id="path351" d="m 398.71999,973.57341 c 1.08133,3.97333 6.62667,5.38666 9.63733,7.49333 6.10534,4.26667 11.168,10.36 15.736,16.17333 9.68534,12.30663 15.956,26.21333 17.868,41.82663 0.37734,-0.2133 0.75467,-0.44 1.13067,-0.6533 -3.00533,-1.52 -7.48533,-0.8667 -8.884,2.64 -1.33867,3.36 1.168,6.9333 4.64,7.4667 2.856,0.44 5.06933,-2.0267 5.94267,-4.4534 1.24133,-3.4533 -1.09867,-6.5333 -4.04534,-8.0266 -0.86133,-0.44 -1.62266,0.8533 -0.75866,1.2933 3.75466,1.9067 5.06933,6.64 1.13466,9.2267 -2.324,1.5333 -4.98266,-0.6 -5.768,-2.8 -1.43333,-4 4.54134,-5.28 6.98134,-4.04 0.44933,0.2266 1.20533,-0.04 1.13066,-0.6534 -1.75866,-14.3466 -6.96933,-27.4533 -15.46533,-39.13329 -4.088,-5.62667 -8.58267,-10.96 -13.62933,-15.73334 -2.14,-2.02666 -4.42267,-4.04 -6.98,-5.52 -2.27067,-1.30666 -6.464,-2.72 -7.22134,-5.50666 -0.25466,-0.93334 -1.70533,-0.53334 -1.44933,0.4 v 0" style="fill:#577c69;fill-opacity:1;fill-rule:nonzero;stroke:none;stroke-width:0.133333"/><path id="path352" d="m 399.63999,977.14674 c 7.12,-1.64 14.37467,1.28 20.56267,4.6 6.748,3.62667 12.87733,8.48 18.36,13.78667 6.22933,6.05329 11.07733,13.37329 15.10533,21.02669 2.288,4.3466 4.288,8.9066 5.752,13.6 1.33067,4.2666 1.232,8.7466 3.09067,12.88 0.216,-0.3867 0.43333,-0.76 0.64933,-1.1334 -3.69067,-0.16 -8.208,-1.2133 -9.00933,3.64 -0.59734,3.6267 2.32933,6.72 5.69333,7.2667 2.472,0.4 4.48133,-1.4533 4.76667,-3.84 0.39866,-3.3333 -1.272,-6.5333 -4.27067,-8.04 -0.86267,-0.44 -1.62267,0.8533 -0.75867,1.2933 2.716,1.3734 5.61334,6.6134 2.13734,8.8534 -2.86667,1.8533 -5.79867,-2.2134 -6.09867,-4.5734 -0.58533,-4.6133 5.016,-3.2133 7.54,-3.1066 0.62,0.027 0.86667,-0.64 0.64933,-1.12 -2.07866,-4.6267 -1.95733,-9.8534 -3.636,-14.6134 -1.69866,-4.8133 -3.888,-9.4533 -6.32,-13.9466 -4.07466,-7.52 -9.18666,-14.45336 -15.384,-20.36003 -5.688,-5.41333 -12.14666,-10.14666 -19.12266,-13.76 -6.09734,-3.16 -13.22934,-5.49333 -20.10667,-3.90666 -0.944,0.22666 -0.544,1.66666 0.4,1.45333 v 0" style="fill:#577c69;fill-opacity:1;fill-rule:nonzero;stroke:none;stroke-width:0.133333"/><path id="path353" d="m 399.14532,977.22674 c 6.532,-2.48 13.84134,-0.25333 20.064,2.13333 6.944,2.68 13.484,6.49334 19.668,10.6 14.40667,9.56 25.05334,22.60003 34.2,37.08003 2.948,4.6666 7.49067,10.6666 7.69067,16.3866 0.10533,2.9734 -8.204,4.3734 -5.87734,8.5467 1.872,3.3467 7.01467,4.2533 8.85334,0.52 1.632,-3.3333 -0.144,-7.6933 -3.71734,-8.6533 -0.2,-0.027 -0.39866,-0.053 -0.59733,-0.08 -0.94667,-0.12 -1.356,1.32 -0.4,1.4533 2.91733,0.4 4.13733,3.0533 3.64,5.76 -0.824,4.52 -7.756,1.7067 -6.15867,-1.2 1.75067,-3.1733 6.416,-3.1733 5.66267,-7.52 -0.85467,-4.92 -3.844,-9.52 -6.396,-13.72 -3.25867,-5.36 -6.60133,-10.7067 -10.456,-15.6533 -9.04533,-11.6267 -19.94,-21.14669 -32.63733,-28.54669 -9.28667,-5.42667 -22.93067,-12.73334 -33.93867,-8.56 -0.89733,0.34666 -0.508,1.8 0.4,1.45333 v 0" style="fill:#577c69;fill-opacity:1;fill-rule:nonzero;stroke:none;stroke-width:0.133333"/></g></svg>