<svg version="1.1" id="svg1" width="2000" height="2579.9468" viewBox="1194.6176060472637 853.9463929262704 4.40097819584571 15.284299701586406" sodipodi:docname="styletrees.svg" inkscape:version="1.4.2 (f4327f4, 2025-05-13)" xmlns:inkscape="http://www.inkscape.org/namespaces/inkscape" xmlns:sodipodi="http://sodipodi.sourceforge.net/DTD/sodipodi-0.dtd" xmlns="http://www.w3.org/2000/svg" xmlns:svg="http://www.w3.org/2000/svg"><defs id="defs1"/><g><path id="path846" d="m 1196.5986,855.08008 c -1.5053,1.09333 -0.884,3.82666 -0.6786,5.37333 0.376,2.78667 1.0333,5.56 1.7426,8.28 0.2227,0.86667 1.5547,0.50667 1.3307,-0.36 -0.504,-1.93333 -0.9533,-3.88 -1.3373,-5.85333 -0.1827,-0.93334 -1.404,-5.49334 -0.36,-6.25334 0.7093,-0.52 0.021,-1.72 -0.6974,-1.18666 v 0" style="fill:#577c69;fill-opacity:1;fill-rule:nonzero;stroke:none;stroke-width:0.133333"/><path id="path846" d="m 1196.5986,855.08008 c -1.5053,1.09333 -0.884,3.82666 -0.6786,5.37333 0.376,2.78667 1.0333,5.56 1.7426,8.28 0.2227,0.86667 1.5547,0.50667 1.3307,-0.36 -0.504,-1.93333 -0.9533,-3.88 -1.3373,-5.85333 -0.1827,-0.93334 -1.404,-5.49334 -0.36,-6.25334 0.7093,-0.52 0.021,-1.72 -0.6974,-1.18666 v 0" style="fill:#577c69;fill-opacity:1;fill-rule:nonzero;stroke:none;stroke-width:0.133333"/></g></svg>