<svg version="1.1" id="svg1" width="2000" height="2579.9468" viewBox="1132.9260879321732 747.1955350588468 2.7956469876990013 11.35454244112816" sodipodi:docname="styletrees.svg" inkscape:version="1.4.2 (f4327f4, 2025-05-13)" xmlns:inkscape="http://www.inkscape.org/namespaces/inkscape" xmlns:sodipodi="http://sodipodi.sourceforge.net/DTD/sodipodi-0.dtd" xmlns="http://www.w3.org/2000/svg" xmlns:svg="http://www.w3.org/2000/svg"><defs id="defs1"/><g><path id="path533" d="m 1134.7053,748.30675 c -0.9987,0.64 -0.7507,2.65333 -0.7547,3.64 -0.01,1.97333 0.1627,3.96 0.1827,5.93333 0.01,0.89333 1.388,0.89333 1.38,0 -0.013,-1.46667 -0.116,-2.92 -0.1587,-4.38667 -0.025,-0.86666 -0.031,-1.73333 -0.01,-2.61333 0.01,-0.29333 0.031,-0.58667 0.056,-0.89333 0.023,-0.25334 0.2507,-0.64 0,-0.48 0.7467,-0.48 0.056,-1.68 -0.696,-1.2 v 0" style="fill:#577c69;fill-opacity:1;fill-rule:nonzero;stroke:none;stroke-width:0.133333"/><path id="path533" d="m 1134.7053,748.30675 c -0.9987,0.64 -0.7507,2.65333 -0.7547,3.64 -0.01,1.97333 0.1627,3.96 0.1827,5.93333 0.01,0.89333 1.388,0.89333 1.38,0 -0.013,-1.46667 -0.116,-2.92 -0.1587,-4.38667 -0.025,-0.86666 -0.031,-1.73333 -0.01,-2.61333 0.01,-0.29333 0.031,-0.58667 0.056,-0.89333 0.023,-0.25334 0.2507,-0.64 0,-0.48 0.7467,-0.48 0.056,-1.68 -0.696,-1.2 v 0" style="fill:#577c69;fill-opacity:1;fill-rule:nonzero;stroke:none;stroke-width:0.133333"/></g></svg>