<svg version="1.1" id="svg1" width="2000" height="2579.9468" viewBox="260.44800360720546 26.43343025 67.96359229058237 83.67091249818102" sodipodi:docname="styletrees.svg" inkscape:version="1.4.2 (f4327f4, 2025-05-13)" xmlns:inkscape="http://www.inkscape.org/namespaces/inkscape" xmlns:sodipodi="http://sodipodi.sourceforge.net/DTD/sodipodi-0.dtd" xmlns="http://www.w3.org/2000/svg" xmlns:svg="http://www.w3.org/2000/svg"><defs id="defs1"/><g><path id="path204" d="m 280.21599,105.0801 c -0.003,0.04 0.0107,0.08 0.0173,0.12 -0.31467,0.93333 -0.64667,1.86666 -1.016,2.8 -0.12267,0.30666 0.0987,0.52 0.35866,0.56 -0.0773,0.08 -0.16133,0.16 -0.23733,0.25333 -0.39733,0.45333 0.26533,1.12 0.664,0.66667 0.0693,-0.08 0.14533,-0.16 0.216,-0.24 0.0413,0.22666 0.27067,0.36 0.496,0.34666 -0.0747,0.42667 0.59067,0.74667 0.88533,0.30667 0.50267,-0.76 1.10667,-1.42667 1.77467,-2.04 3.59333,-0.57333 7.10133,-1.53333 10.49333,-2.82667 -3.24133,1.66667 -6.636,2.90667 -10.13466,3.13334 -0.60134,0.04 -0.60534,0.98666 0,0.94666 6.36133,-0.41333 12.33066,-4.01333 17.672,-7.57333 8.52133,-4.693335 16.036,-11.386668 21.924,-18.920001 5.40266,-6.906666 8.996,-14.76 11.42933,-23.159999 2.71066,-9.36 4.1,-19.04 6.81333,-28.386666 0.16933,-0.586667 -0.73733,-0.84 -0.90667,-0.253334 -2.52533,8.706667 -3.956,17.666667 -6.272,26.426666 -2.27866,8.626667 -5.76533,16.68 -11.08533,23.866666 -0.89733,1.213334 -1.84133,2.4 -2.82666,3.56 0.0853,-0.106666 0.17866,-0.226666 0.264,-0.346666 4.80266,-6.76 8.164,-14.746667 10.41066,-22.693333 1.352,-4.786667 2.19467,-9.706666 2.96267,-14.613333 0.36266,-2.32 0.77466,-4.64 0.96933,-6.973333 0.22267,-2.68 0.196,-5.36 1.35867,-7.853333 0.25466,-0.546667 -0.556,-1.026667 -0.812,-0.466667 -1.748,3.733333 -1.38934,8.2 -1.992,12.213333 -0.73867,4.933333 -1.528,9.84 -2.68,14.693333 -1.952,8.213333 -5.25867,16.293333 -9.80667,23.413333 -4.30933,6.733333 -10.06133,11.759999 -16.612,16.239999 -1.20266,0.813334 -2.448,1.68 -3.72933,2.546665 -4.88267,2.65334 -10.08667,4.64 -15.464,5.72 14.172,-5.12 26.24133,-14.786664 34.01067,-27.826664 4.808,-8.066667 7.10533,-16.733333 8.164,-25.999999 0.50266,-4.413334 1.15466,-8.88 1.38533,-13.32 0.0853,-1.64 0.10133,-3.293333 0.18,-4.933333 0.06,-1.28 -0.0707,-3.24 0.75333,-4.306667 0.37067,-0.48 -0.44666,-0.946667 -0.81066,-0.48 -1.30267,1.693333 -0.90934,5.146667 -0.972,7.106667 -0.12534,3.973333 -0.652,7.879999 -1.04667,11.826666 -0.52,5.2 -1.092,10.386666 -2.384,15.466666 -1.13467,4.453333 -3.04267,8.693333 -5.256,12.72 -6.44533,11.72 -16.612,20.839999 -28.57733,26.466664 0.02,-0.0133 0.0413,-0.0267 0.0627,-0.04 0.124,-0.08 0.24134,-0.17333 0.364,-0.25333 2.81067,-1.45333 5.692,-2.82667 8.26,-4.680001 6.26134,-4.52 11.45867,-10.733333 15.06134,-17.533333 3.87733,-7.333333 5.572,-15.426666 6.92266,-23.52 1.612,-9.679999 2.62267,-19.533332 2.34667,-29.346666 -0.0173,-0.613333 -0.95733,-0.613333 -0.94,0 0.27467,9.746667 -0.744,19.48 -2.31333,29.093333 -1.37467,8.413333 -3.22934,16.68 -7.332,24.239999 -3.63867,6.693334 -9.188,13.106667 -15.648,17.226667 -0.60934,0.386666 -1.24934,0.746666 -1.908,1.106666 1.40666,-1.186666 2.76666,-2.44 4.08266,-3.72 5.32134,-5.199999 9.624,-11.146666 12.49067,-18.039999 2.976,-7.146667 4.804,-14.866666 5.54133,-22.573333 0.852,-8.92 -0.088,-17.893333 0.44,-26.826666 0.036,-0.613333 -0.904,-0.6 -0.94,0 -0.51333,8.693333 0.276,17.4 -0.37866,26.093333 -0.60134,7.986666 -2.608,16.146666 -5.76267,23.506666 -3.07333,7.173333 -7.79333,13.173333 -13.43733,18.506666 -2.01867,1.906667 -4.17334,3.653338 -6.432,5.266668 -0.88934,0.42667 -1.78,0.86667 -2.65467,1.33333 7.66933,-6.799998 14.348,-14.586664 18.40267,-24.199997 2.95466,-7 4.048,-14.493333 4.624,-22.013333 0.73733,-9.653333 0.49066,-19.346666 0.48533,-29 -10e-4,-0.613333 -0.94133,-0.613333 -0.94,0 0.005,8.92 0.17467,17.853333 -0.33733,26.773333 -0.45067,7.853333 -1.484,15.626666 -4.34,23.013333 -4.524,11.693333 -13.364,20.733333 -22.96134,28.480004 -0.17733,0.0667 -0.35466,0.12 -0.53333,0.18666 3.988,-3.84 8.42267,-7.226665 11.88533,-11.599998 4.30534,-5.426666 6.79467,-12.093333 8.33734,-18.786666 3.60133,-15.613333 3.30133,-32.146666 3.30266,-48.066666 0,-0.613333 -0.94,-0.613333 -0.94,0 -10e-4,15.493333 0.10934,31.32 -2.99866,46.573333 -1.47067,7.226666 -4.14534,14.293333 -8.75867,20.106666 -3.112,3.933333 -7.08533,7.013331 -10.74667,10.413331 0.78134,-1.36 1.66267,-2.66666 2.568,-3.97333 0.30534,-0.33333 0.608,-0.65333 0.90267,-0.98667 2.21067,-2.453331 3.92667,-4.919998 5.39333,-7.893331 3.28134,-6.626667 5.18534,-13.906666 6.27734,-21.2 1.15866,-7.733333 1.192,-15.586666 1.19466,-23.386666 0,-3.053333 -0.136,-6.08 -0.29333,-9.119999 -0.152,-2.92 -0.364,-6.146667 0.78267,-8.893334 0.23333,-0.56 -0.676,-0.8 -0.90667,-0.24 -0.97067,2.32 -0.93867,4.96 -0.884,7.44 0.0707,3.12 0.35867,6.226667 0.36,9.36 0.004,8.213333 -0.0107,16.44 -1.15867,24.586666 -0.872,6.186667 -2.46666,12.293333 -4.88666,18.04 1.43333,-4.626667 1.97733,-9.68 2.39866,-14.346667 1.33734,-14.839999 0.0427,-29.693332 -1.508,-44.453332 -0.0627,-0.6 -1.00266,-0.6 -0.94,0 1.53067,14.56 2.70134,29.119999 1.56534,43.759999 -0.536,6.906666 -1.52134,14.426666 -4.89867,20.586666 -1.10267,2.013333 -2.44533,3.893333 -3.77733,5.773338 -0.18934,0.21333 -0.37734,0.42666 -0.56934,0.64 -0.17333,0.2 -0.348,0.38666 -0.52266,0.58666 3.91466,-8.679998 6.18133,-18.333331 6.96,-27.679997 1.22533,-14.706667 -3.73334,-29.026666 -3.91067,-43.666666 -0.008,-0.6 -0.948,-0.613333 -0.94,0 0.17067,14.133333 4.688,27.879999 4.016,42.066666 -0.532,11.226666 -3.71067,23.199999 -9.09867,33.186667 7.92534,-24.053334 -1.584,-49.6 -0.072,-74.24 0.0373,-0.6 -0.90266,-0.6 -0.94,0 -1.44266,23.506666 7.19734,47.839999 1.02667,70.89333 0.0387,-10.226664 -2.21333,-20.359998 -3.328,-30.493331 -1.38267,-12.573333 -2.29867,-25.199999 -2.344,-37.853332 -0.003,-0.613333 -0.94267,-0.613333 -0.94133,0 0.0467,12.4 0.94133,24.773333 2.264,37.106666 1.22933,11.466666 3.96133,22.906666 3.32266,34.493337" style="fill:#577c69;fill-opacity:1;fill-rule:nonzero;stroke:none;stroke-width:0.133333"/><path id="path205" d="m 276.66133,97.973429 c 0.003,0.6 0.94266,0.6 0.94,0 -0.0467,-11.36 -2.16,-22.613333 -4.712,-33.639999 -2.36534,-10.226667 -5.24267,-20.786667 -4.42934,-31.36 0.0467,-0.613333 -0.89333,-0.613333 -0.94,0 -0.788,10.253333 1.87467,20.546666 4.19334,30.453333 2.65066,11.32 4.9,22.866666 4.948,34.546666" style="fill:#577c69;fill-opacity:1;fill-rule:nonzero;stroke:none;stroke-width:0.133333"/><path id="path206" d="m 268.21733,58.120096 c 2.064,7.906667 4.47733,15.866667 4.38133,24.106666 -0.007,0.613334 0.93333,0.6 0.94,0 0.096,-8.319999 -2.316,-16.386666 -4.41467,-24.346666 -2.12933,-8.093333 -3.51733,-16.399999 -6.82133,-24.133332 -0.23867,-0.56 -1.048,-0.08 -0.812,0.466666 3.268,7.653333 4.636,15.906667 6.72667,23.906666" style="fill:#577c69;fill-opacity:1;fill-rule:nonzero;stroke:none;stroke-width:0.133333"/></g></svg>