<svg version="1.1" id="svg1" width="2000" height="2579.9468" viewBox="40.277412088528706 970.617255915118 444.076949722812 201.91913313635723" sodipodi:docname="styletrees.svg" inkscape:version="1.4.2 (f4327f4, 2025-05-13)" xmlns:inkscape="http://www.inkscape.org/namespaces/inkscape" xmlns:sodipodi="http://sodipodi.sourceforge.net/DTD/sodipodi-0.dtd" xmlns="http://www.w3.org/2000/svg" xmlns:svg="http://www.w3.org/2000/svg"><defs id="defs1"/><g><path id="path315" d="m 186.35466,989.00007 c -5.02266,2.48 -8.17333,9.38667 -10.392,14.17333 -2.95066,6.36 -5.16133,13.1467 -7.01866,19.9067 -4.06667,14.7866 -5.48267,30.16 -4.728,45.4533 0.11866,2.4 1.68133,7.56 -0.74534,8.9067 -1.512,0.8266 -2.868,2.7333 -2.94266,4.4933 -0.156,3.6667 2.67466,6.1733 6.30133,5.6133 2.80533,-0.44 4.264,-3.6533 4.26267,-6.1733 -0.001,-3.0667 -2.61867,-4.6133 -5.4,-4.5467 -0.968,0.027 -0.96934,1.52 0,1.5067 4.02,-0.1067 4.944,3.9467 2.58133,6.6933 -2.116,2.4534 -5.92,0.6534 -6.27467,-2.3333 -0.32133,-2.7333 2.06134,-3.3333 3.56267,-4.6933 0.448,-0.4134 0.696,-0.9334 0.7,-1.5467 0.016,-2.6267 -0.39067,-5.2933 -0.54267,-7.92 -0.344,-5.92 -0.26,-11.8533 0.0973,-17.7733 0.67866,-11.2267 2.92133,-22.3467 6.276,-33.0667 1.57333,-5.0267 3.432,-10.0133 5.64666,-14.8 1.97467,-4.26666 4.98,-10.42666 9.37467,-12.58666 0.86933,-0.44 0.10667,-1.73333 -0.75867,-1.30667 v 0" style="fill:#577c69;fill-opacity:1;fill-rule:nonzero;stroke:none;stroke-width:0.133333"/><path id="path316" d="m 186.93333,988.93341 c -3.70267,-0.84 -7.4,3.17333 -9.784,5.44 -4.36,4.14666 -8.98133,8.29329 -12.65733,13.05329 -4.808,6.24 -7.47867,13.4134 -9.556,20.9467 -2.24534,8.1333 -4.06134,16.4533 -5.36667,24.8 -0.58133,3.7067 -0.97733,7.4533 -1.24133,11.1867 -0.312,4.4133 0.69866,9.0666 -0.0467,13.4 -0.128,0.7466 -1.59333,1.36 -2.144,1.84 -0.76667,0.6666 -1.12267,1.7333 -1.38933,2.6666 -0.50934,1.7734 0.59733,4.16 2.12266,5.1067 2.88934,1.8133 7.16,1.3733 7.872,-2.4667 0.65867,-3.5466 -2.736,-5.76 -5.83333,-5.8266 -0.97067,-0.027 -0.968,1.48 0,1.5066 2.272,0.04 4.21733,1.1734 4.384,3.6267 0.24133,3.5467 -4.38533,2.9867 -6.12133,1.44 -1.84667,-1.6533 -0.96267,-4.4933 0.85866,-5.6 0.51867,-0.32 0.88134,-0.5067 1.26934,-0.9733 1.05733,-1.28 0.69066,-3.8534 0.628,-5.3334 -0.52134,-12.1866 1.44533,-23.9866 4.19066,-35.8533 2.68934,-11.6133 5.688,-22.9733 13.728,-32.1333 2.724,-3.0934 5.85467,-5.81336 8.75734,-8.73336 2.15733,-2.18667 6.45733,-7.42667 9.92933,-6.65333 0.944,0.21333 1.34533,-1.24 0.4,-1.44 v 0" style="fill:#577c69;fill-opacity:1;fill-rule:nonzero;stroke:none;stroke-width:0.133333"/><path id="path317" d="m 185.93066,988.42674 c -4.08533,-0.98667 -7.896,0.34667 -11.62933,2 -4.62133,2.02667 -9.10667,4.45333 -13.364,7.17333 -8.49067,5.40003 -14.964,12.70663 -19.812,21.48003 -10.55027,19.0933 -16.40347,41.4133 -14.54307,63.2266 0.25054,-0.2533 0.50107,-0.5066 0.7516,-0.76 -5.94066,-0.6133 -5.54786,8.2667 -0.39746,9.1867 3.10213,0.56 5.74586,-2.2933 5.98706,-5.2133 0.3516,-4.28 -3.49226,-4.72 -6.7584,-3.4134 -0.88746,0.36 -0.50053,1.8134 0.39947,1.4534 2.17813,-0.88 5.47613,-0.92 4.71773,2.4933 -0.52026,2.3467 -2.94626,3.9733 -5.19426,2.84 -2.74067,-1.3867 -2.15,-6.2 1.24586,-5.84 0.38387,0.04 0.78387,-0.3733 0.7516,-0.7467 -1.77453,-20.8133 3.6864,-40.8133 12.75454,-59.4133 4.3,-8.8133 10.168,-16.3333 18.112,-22.1333 3.58533,-2.61336 7.48933,-4.78669 11.44133,-6.80003 4.55733,-2.32 9.868,-5.36 15.13867,-4.08 0.94133,0.22667 1.34133,-1.22666 0.39866,-1.45333 v 0" style="fill:#577c69;fill-opacity:1;fill-rule:nonzero;stroke:none;stroke-width:0.133333"/><path id="path318" d="m 184.47866,988.90674 c 0.16134,7.70667 1.436,15.37336 1.856,23.07996 0.42134,7.76 0.7,15.52 0.96667,23.28 0.252,7.2934 0.636,14.6 0.464,21.9067 -0.15867,6.8133 -0.444,13.6933 1.156,20.3733 0.24133,-0.32 0.48267,-0.64 0.724,-0.96 -5.344,0.3867 -3.80933,8.2534 0.68133,8.7734 2.86667,0.3333 5.54934,-2.1867 5.28,-5.0667 -0.31466,-3.3733 -4.59333,-4.72 -7.32,-3.6933 -0.89733,0.3333 -0.50933,1.7866 0.4,1.4533 1.78934,-0.68 3.324,-0.28 4.688,1 2.53067,2.3733 -1.16666,5.6533 -3.57066,4.5867 -2.12,-0.9467 -3.35734,-5.32 -0.15867,-5.5467 0.49467,-0.04 0.844,-0.4533 0.72533,-0.9467 -1.56666,-6.5466 -1.27066,-13.3066 -1.10133,-19.9733 0.184,-7.3067 -0.216,-14.6133 -0.46533,-21.9067 -0.264,-7.76 -0.56,-15.52 -0.96667,-23.28 -0.40533,-7.7066 -1.69467,-15.37329 -1.856,-23.07996 -0.02,-0.97333 -1.52267,-0.97333 -1.50267,0 v 0" style="fill:#577c69;fill-opacity:1;fill-rule:nonzero;stroke:none;stroke-width:0.133333"/><path id="path319" d="m 185.28133,990.37341 c 5.08667,0.69333 8.956,5.85333 12.048,9.54666 4.56266,5.45333 7.62533,11.80003 9.91333,18.49333 4.69867,13.7467 5.29867,28.2133 5.66933,42.6 0.0613,2.36 0.27334,4.6667 0.492,7.0133 0.116,1.2534 0.148,2.5067 -0.036,3.7467 -0.22533,1.5467 -1.36133,1.16 -2.48533,1.6 -2.90267,1.1333 -2.16533,6.2667 0.21867,7.5067 3.05866,1.6 6.60266,0.36 7.40266,-3.1467 0.732,-3.2133 -2.332,-5.4933 -5.21866,-5.1733 -0.952,0.1066 -0.96267,1.6133 0,1.5066 4.608,-0.5066 5.032,5.8534 0.35733,6.0934 -2.476,0.12 -4.86133,-4.36 -1.816,-5.56 0.64267,-0.24 1.308,-0.013 1.91733,-0.36 2.11467,-1.24 1.18934,-6.0667 0.99734,-7.88 -1.172,-11.0534 -0.54134,-22.1467 -2.316,-33.1734 -1.58934,-9.88 -4.58267,-19.7733 -9.72667,-28.3866 -2.096,-3.5067 -4.79866,-6.68003 -7.572,-9.66669 -2.5,-2.69334 -5.648,-5.69334 -9.44533,-6.2 -0.948,-0.13334 -1.35733,1.30666 -0.4,1.44 v 0" style="fill:#577c69;fill-opacity:1;fill-rule:nonzero;stroke:none;stroke-width:0.133333"/><path id="path320" d="m 186.93333,989.37341 c 6.86533,-2.13334 13.18533,2.72 17.868,7.21333 5.04266,4.85336 9.01333,10.75996 12.21066,16.94666 6.74267,13.0533 8.93734,27.92 11.16667,42.2667 0.64533,4.1466 1.20133,8.3066 1.69467,12.4666 0.0413,0.3467 0.54533,4.4534 0.49733,4.4667 -0.63867,0.12 -1.176,0.56 -1.636,0.9867 -1.98533,1.8533 -0.65733,5.44 1.04667,6.92 5.04266,4.3733 9.03066,-8.5867 1.28933,-8.32 -0.96667,0.027 -0.96933,1.5333 0,1.4933 4.36267,-0.1467 3.33333,7.3067 0.0227,5.9067 -2.412,-1.0267 -2.436,-5.1334 0.27733,-5.6534 0.30133,-0.067 0.58267,-0.4133 0.552,-0.7333 -1.03467,-10.24 -2.59333,-20.4267 -4.42133,-30.56 -1.61467,-8.9467 -3.73467,-17.68 -7.336,-26.0667 -3.38,-7.8666 -8.236,-15.1333 -14.30134,-21.17329 -4.972,-4.96 -12.00933,-9.88 -19.33066,-7.61334 -0.92133,0.29334 -0.528,1.74667 0.4,1.45334 v 0" style="fill:#577c69;fill-opacity:1;fill-rule:nonzero;stroke:none;stroke-width:0.133333"/><path id="path321" d="m 187.11333,989.54674 c 6.81467,-5.01333 18.476,1.36 24.67466,4.84 7.548,4.22667 13.632,10.37336 18.852,17.19996 10.132,13.24 16.47467,29.36 19.53867,45.6667 0.62933,3.3467 0.916,6.7333 1.49333,10.0933 0.29867,1.7334 0.79334,3.5734 -0.55466,4.9334 -0.79734,0.8 -1.39734,1.76 -1.78267,2.84 -1.39467,3.88 0.68933,8.1733 5.29867,7.48 5.384,-0.8 3.66266,-13.04 -3.15067,-9.9334 -0.88133,0.4 -0.11733,1.6934 0.75867,1.2934 4.104,-1.8667 5.376,5.16 2.504,7.0133 -1.17467,0.76 -2.88134,-0.3067 -3.76534,-1 -1.40533,-1.0933 -0.60133,-5.92 1.21334,-6.56 1.42,-0.5067 1.35733,-2.5333 1.30266,-3.72 -0.268,-5.9067 -1.61333,-12.1333 -2.91066,-17.88 -1.55867,-6.9067 -3.84534,-13.6267 -6.624,-20.12 -5.268,-12.3333 -12.98134,-24.1867 -23.228,-32.94666 -5.08267,-4.36 -11.136,-7.56 -17.344,-9.97333 -5.17333,-2.01334 -12.09467,-4.16 -17.03467,-0.52 -0.772,0.57333 -0.024,1.86666 0.75867,1.29333 v 0" style="fill:#577c69;fill-opacity:1;fill-rule:nonzero;stroke:none;stroke-width:0.133333"/><path id="path322" d="m 188.36533,988.80007 c 5.53333,-3.84 13.53866,-1.24 19.48666,0.26667 7.94934,2.02667 15.52934,5.22667 22.46267,9.6 14.28267,9.02666 25.44667,23.65336 30.524,39.73336 2.75333,8.7066 4.64133,17.88 6.144,26.8933 0.32933,1.9733 0.816,4.04 0.432,6.04 -0.25067,1.3067 -0.98533,2.5067 -1.124,3.84 -0.20667,1.9867 0.232,4.32 1.628,5.84 3.052,3.3333 6.93867,1.7733 7.71867,-2.4 0.872,-4.6667 -1.85334,-8.16 -6.492,-8.56 -0.96667,-0.08 -0.95867,1.4267 0,1.5067 4.16133,0.3466 5.61466,3.6 4.916,7.3333 -0.59067,3.16 -3.796,2.8533 -5.36934,0.64 -0.96266,-1.36 -1.148,-3.2 -0.78133,-4.7867 0.51333,-2.2 1.26,-3.76 1.07467,-6.0666 -0.30134,-3.7867 -1.19067,-7.5867 -1.94,-11.2934 -2.98267,-14.76 -6.872,-28.72 -15.868,-41.0266 -8.03734,-10.9867 -18.924,-19.60003 -31.45067,-24.90669 -5.52933,-2.33334 -11.36133,-3.96 -17.23067,-5.18667 -4.83466,-1.01333 -10.59466,-1.74667 -14.88933,1.22667 -0.79066,0.56 -0.04,1.85333 0.75867,1.30666 v 0" style="fill:#577c69;fill-opacity:1;fill-rule:nonzero;stroke:none;stroke-width:0.133333"/><path id="path323" d="m 200.54133,987.17341 c 2.09466,-1.74667 6.496,0.14666 8.70933,0.88 2.636,0.88 5.212,1.86666 7.87067,2.68 9.16266,2.8 17.3,6.93333 25.39866,12.02669 7.25467,4.56 13.684,9.7066 19.312,16.1733 5.41467,6.24 9.888,13.2667 13.92667,20.44 4.37733,7.7867 8.21467,15.8933 10.428,24.56 0.39467,1.56 0.71067,3.12 1.13733,4.6667 0.324,1.16 0.97467,2.6933 -0.27333,3.6533 -0.304,0.2267 -0.60133,0.52 -0.78667,0.8667 -1.10533,2 -1.276,3.9333 -0.0173,5.92 1.82533,2.8666 7.18667,2.72 8.312,-0.6134 1.18933,-3.5333 -3.09733,-6.5333 -6.12533,-6.36 -0.96267,0.053 -0.968,1.56 0,1.5067 2.41466,-0.1467 5.09733,1.76 4.676,4.4533 -0.492,3.1334 -5.43467,0.92 -6.15334,-0.8666 -0.85466,-2.1334 1.096,-3.1334 1.96534,-4.6134 1.00266,-1.7066 -0.12934,-4.28 -0.596,-5.9733 -1.03467,-3.76 -1.872,-7.48 -3.22267,-11.1467 -4.84267,-13.16 -12.57467,-25.9466 -21.50533,-36.72 -9.37467,-11.32 -22.29867,-19.46663 -35.46934,-25.70663 -5.65066,-2.66666 -11.904,-4.05333 -17.78533,-6.16 -2.996,-1.06666 -8.01467,-3.10666 -10.864,-0.72 -0.744,0.61334 0.324,1.68 1.06267,1.05334 v 0" style="fill:#577c69;fill-opacity:1;fill-rule:nonzero;stroke:none;stroke-width:0.133333"/><path id="path324" d="m 185.03066,987.92007 c -3.688,0.97334 -7.608,-0.22666 -11.384,0.50667 -4.916,0.96 -9.73466,2.38667 -14.44266,4.08 -8.452,3.04 -16.49467,7.37333 -23.55067,12.94666 -7.29653,5.76 -13.56893,12.44 -18.28507,20.48 -4.76666,8.12 -10.1532,16.1467 -13.3776,25.0267 -3.00626,8.28 -4.779729,17.3333 -3.88226,26.1333 0.15146,1.4933 0.98946,5.6267 -1.690136,5.76 -1.088533,0.053 -1.8756,0.6667 -2.667733,1.32 -2.063067,1.72 -2.836533,4.8267 -2.462,7.36 0.726,4.92 6.606267,4.1467 9.130269,1.3333 2.7276,-3.0266 1.5776,-10.1066 -2.907336,-10.76 -0.947866,-0.1333 -1.355733,1.32 -0.399466,1.4534 3.405732,0.4933 3.859862,5.44 2.508262,7.8666 -2.013462,3.6267 -6.937996,2.6534 -6.977062,-1.5866 -0.0156,-1.6934 1.073466,-3.4 2.169866,-4.6 1.396267,-1.52 2.612,-0.2667 3.696266,-1.2934 1.462,-1.3866 1.33187,-3.2533 1.24067,-5.1733 -0.33334,-7.0667 -0.14787,-13.5067 1.5656,-20.4667 2.024,-8.2266 5.7,-15.2533 10.13133,-22.3733 4.12333,-6.6267 7.35093,-13.4533 12.51613,-19.4133 5.152,-5.9467 11.45027,-10.9734 18.1156,-15.12 6.536,-4.05336 13.708,-7.02669 21.04534,-9.28003 3.70933,-1.14666 7.764,-2.41333 11.65733,-2.6 2.92133,-0.14666 5.764,0.61334 8.64933,-0.14666 0.936,-0.24 0.53867,-1.69334 -0.4,-1.45334 v 0" style="fill:#577c69;fill-opacity:1;fill-rule:nonzero;stroke:none;stroke-width:0.133333"/><path id="path325" d="m 180.6,988.00007 c -4.664,-1.97333 -9.67734,-0.69333 -14.45467,0.18667 -7.36667,1.34667 -14.332,3.42667 -21.28267,6.22667 -12.2616,4.93333 -24.8876,10.02669 -34.84493,18.95999 -9.05053,8.1067 -15.530799,18.8267 -20.922399,29.5867 -5.642266,11.2666 -12.042666,23.7866 -12.5984,36.5733 0.2504,-0.24 0.5004,-0.4933 0.750934,-0.7467 -3.383334,0 -6.330133,2.32 -5.919733,5.88 0.3636,3.16 4.189599,4.8267 6.937999,4.8934 2.867734,0.067 5.795867,-3.3467 4.9812,-6.2134 -0.961866,-3.3733 -4.497333,-4.7066 -7.7328,-4.7733 -0.969733,-0.013 -0.9676,1.48 0,1.5067 3.821467,0.08 9.4532,3.92 4.3568,7.5333 -5.023466,3.56 -11.165599,-7.3333 -2.623466,-7.32 0.423466,0 0.733866,-0.3467 0.7516,-0.76 0.5328,-12.2533 6.6484,-24.0133 11.925599,-34.8667 5.1,-10.48 11.291066,-20.5466 19.618666,-28.7866 9.01147,-8.9067 20.83027,-13.76 32.31893,-18.60003 6.168,-2.58666 12.392,-4.94666 18.904,-6.53333 5.56134,-1.34667 13.60267,-3.76 19.07467,-1.45333 0.88133,0.37333 1.64933,-0.92 0.75867,-1.29334 v 0" style="fill:#577c69;fill-opacity:1;fill-rule:nonzero;stroke:none;stroke-width:0.133333"/><path id="path326" d="m 181.504,987.12007 c -3.96534,-3.14666 -10.848,-1.09333 -15.34934,-0.36 -9.76666,1.58667 -18.668,4.88 -27.93466,8.24 -8.89294,3.22667 -17.856,6.37333 -26.1304,11.01333 -7.1568,4.0133 -13.599469,9.2133 -19.452669,14.9333 -12.300533,12.04 -23.556666,26.6934 -28.741599,43.2667 -0.9948,3.1733 -1.320267,5.88 -1.4412,9.16 -0.1536,4.2 -3.560933,1.7333 -5.751067,3.7867 -3.880666,3.6266 0.8376,7.8533 4.816267,7.44 5.111333,-0.5067 6.662933,-7.68 1.169733,-9 -0.942133,-0.2267 -1.341733,1.2266 -0.399467,1.4533 4.139067,0.9867 1.8172,5.7867 -1.421333,6.12 -2.286,0.2267 -4.247466,-1.32 -3.871333,-3.7733 0.408267,-2.64 4.516666,-1.1334 5.9776,-2.4934 1.2724,-1.1733 0.99,-3.4933 1.0312,-5.0666 0.09587,-3.6534 1.210933,-7.0267 2.405733,-10.4534 5.326533,-15.3066 16.557866,-28.88 28.010933,-40.08 5.288,-5.1733 11.165062,-9.6933 17.523462,-13.48 7.62707,-4.5333 16.05107,-7.52 24.35814,-10.53329 8.44533,-3.06667 16.792,-6.57334 25.62533,-8.36 2.876,-0.58667 5.83867,-0.96 8.744,-1.38667 2.79467,-0.41333 7.34267,-1.29333 9.768,0.62667 0.75067,0.6 1.82133,-0.45334 1.06267,-1.05334 v 0" style="fill:#577c69;fill-opacity:1;fill-rule:nonzero;stroke:none;stroke-width:0.133333"/><path id="path327" d="m 165.692,986.14674 c -6.524,0.08 -13.32934,2.41333 -19.60267,4.08 -6.70933,1.77333 -13.2976,3.97333 -19.92733,6.02667 -6.2448,1.92 -12.45,3.93329 -18.40734,6.63999 -6.83693,3.12 -13.223996,7.32 -19.455196,11.48 -17.725466,11.84 -39.177599,27.2 -40.121332,50.64 0.3172,-0.24 0.6344,-0.48 0.951067,-0.72 -7.369867,-1.84 -11.4428,10.8533 -3.599467,11.9067 6.8692,0.92 9.178667,-13.1867 2.6812,-13.4 -0.969733,-0.04 -0.966667,1.4666 0,1.4933 4.290667,0.1467 1.930267,9.5333 -1.207333,10.4533 -5.804667,1.7334 -5.4156,-10.7866 1.726133,-9 0.487467,0.12 0.9312,-0.24 0.950933,-0.7333 0.938667,-23.3067 22.9172,-38.3467 40.430266,-50.04 5.572933,-3.72 11.296399,-7.28 17.303599,-10.2533 6.09387,-3.0267 12.66827,-5.01336 19.14693,-7.02669 6.24014,-1.93334 12.4492,-3.94667 18.7452,-5.69334 3.16534,-0.88 6.35867,-1.66666 9.56534,-2.37333 3.62,-0.8 7.07466,-1.93333 10.82,-1.97333 0.968,-0.0133 0.96933,-1.52 0,-1.50667 v 0" style="fill:#577c69;fill-opacity:1;fill-rule:nonzero;stroke:none;stroke-width:0.133333"/><path id="path328" d="m 222.25333,992.62674 c 4.63466,-1.33333 10.876,0.30667 15.52933,1.10667 5.44133,0.93333 10.816,2.45333 16.02,4.28 9.64267,3.39999 17.444,11.15999 24.008,18.70669 6.80267,7.8266 13.028,16.44 18.32933,25.3466 2.89467,4.8534 5.29067,9.9867 6.992,15.3867 1.644,5.2133 2.35734,10.72 3.608,16.04 0.24134,-0.32 0.48267,-0.64 0.72534,-0.9467 -6.29334,-0.4133 -4.50267,9.2 0.37866,9.68 3.70534,0.36 4.90934,-4.0266 4.936,-6.9066 0.0347,-3.6667 -4.21066,-5.4134 -6.208,-2.1334 -0.50533,0.8267 0.79467,1.5867 1.29734,0.76 1.136,0.4534 2.272,0.92 3.408,1.3734 0.0307,0.7733 -0.0427,1.5466 -0.22,2.3066 -0.18267,0.9734 -0.68667,1.8134 -1.372,2.52 -1.13334,1.16 -2.46934,0.4534 -3.384,-0.4933 -1.79067,-1.8533 -2.35867,-5.8267 1.164,-5.6133 0.50533,0.04 0.82933,-0.4934 0.724,-0.9467 -1.34134,-5.6933 -2.18534,-11.5333 -3.948,-17.12 -1.624,-5.1467 -4.10134,-10.0133 -6.804,-14.6667 -5.436,-9.36 -12.152,-18.28 -19.25334,-26.44 -6.62666,-7.6133 -14.44533,-14.64 -23.98266,-18.30663 -5.50267,-2.10666 -11.404,-3.48 -17.20267,-4.48 -4.684,-0.8 -10.476,-2.24 -15.14533,-0.89333 -0.92934,0.26667 -0.53467,1.70667 0.4,1.44 v 0" style="fill:#577c69;fill-opacity:1;fill-rule:nonzero;stroke:none;stroke-width:0.133333"/><path id="path329" d="m 263.38399,1002.4267 c 3.47067,-0.1733 6.59867,1.8534 9.49734,3.52 3.308,1.9067 6.80133,3.4667 10.16133,5.2667 8.152,4.4 14.324,9.88 19.37333,17.64 4.51867,6.9467 8.92267,14.04 13.24934,21.1067 4.78133,7.8133 7.272,16.1866 10.744,24.5866 0.17466,-0.3066 0.34933,-0.6133 0.524,-0.9333 -2.98,0.4933 -4.94667,1.3467 -5.524,4.5867 -0.44667,2.5066 0.712,5.2 2.996,6.3466 2.45466,1.2267 4.764,-0.7866 5.768,-2.8533 1.44933,-3 -0.02,-5.7733 -2.38267,-7.6533 -0.74933,-0.6 -1.82133,0.4533 -1.06267,1.0666 1.412,1.12 2.33867,2.04 2.484,4 0.17867,2.4 -2.284,5.72 -5.08133,3.5067 -1.32267,-1.04 -1.412,-3.2267 -1.14667,-4.72 0.39467,-2.2133 2.54667,-2.5333 4.34934,-2.8267 0.37066,-0.067 0.66933,-0.5733 0.524,-0.92 -1.844,-4.4666 -3.16267,-9.1066 -4.976,-13.5733 -1.60934,-3.96 -3.71867,-7.7067 -5.91867,-11.3733 -4.632,-7.7067 -9.44933,-15.44 -14.44,-22.9067 -4.83733,-7.2533 -11.152,-12.1867 -18.72133,-16.3733 -3.60934,-1.9867 -7.376,-3.6667 -10.95067,-5.72 -2.884,-1.6534 -6.03467,-3.4534 -9.46667,-3.28 -0.964,0.053 -0.96933,1.56 0,1.5066 v 0" style="fill:#577c69;fill-opacity:1;fill-rule:nonzero;stroke:none;stroke-width:0.133333"/><path id="path330" d="m 263.43466,1001.8934 c 4.01333,0.72 7.95733,3.4267 11.76,4.9733 4.84933,1.96 9.40267,4.24 13.98,6.76 7.89333,4.36 15.64667,8.9867 22.72667,14.6 6.89733,5.4667 13.10933,12.1067 18.34266,19.1734 2.78267,3.76 5.088,7.84 6.68133,12.24 1.632,4.5066 2.09067,9.48 3.116,14.16 0.24267,-0.32 0.484,-0.64 0.72534,-0.96 -5.75334,-0.04 -3.508,8.1066 0.86666,7.08 6.03867,-1.4134 3.10534,-9.96 -2.72933,-7 -0.864,0.44 -0.10267,1.7333 0.75867,1.2933 3.08533,-1.56 5.568,1.9867 2.60933,3.92 -2.75733,1.8133 -5.48133,-3.8267 -1.50533,-3.7867 0.508,0.013 0.828,-0.48 0.724,-0.9466 -1.032,-4.7067 -1.61334,-9.5734 -3.116,-14.16 -1.38,-4.2 -3.684,-8.08 -6.18933,-11.7067 -5.06267,-7.3067 -11.51067,-13.9733 -18.336,-19.6533 -7.03334,-5.8534 -14.948,-10.5467 -22.91067,-14.9867 -4.27067,-2.3867 -8.52933,-4.68 -13.05333,-6.56 -2.624,-1.08 -5.26134,-2.1067 -7.836,-3.3067 -2.1,-0.9866 -3.90534,-2.16 -6.21467,-2.5733 -0.948,-0.1733 -1.35333,1.28 -0.4,1.44 v 0" style="fill:#577c69;fill-opacity:1;fill-rule:nonzero;stroke:none;stroke-width:0.133333"/><path id="path331" d="m 291.63866,1015.1734 c 5.50133,-1.3067 12.47867,3.8933 17.25733,6.2267 6.88667,3.3733 13.452,7.3866 19.43734,12.1866 11.19466,8.9734 22.24533,21.4534 24.87199,35.9467 0.17467,-0.3067 0.35067,-0.6133 0.52534,-0.92 -7.44267,2.72 0.33066,11.7467 5.90133,6.2667 4.42133,-4.3467 -5.54133,-10.64 -6.79467,-5.52 -0.23066,0.9466 1.21867,1.3333 1.44934,0.4 0.53333,-2.1867 6.03866,0.7733 4.53466,3.72 -2.516,4.9066 -10.428,-1.32 -4.69066,-3.4267 0.41066,-0.1467 0.60266,-0.4933 0.524,-0.92 -2.756,-15.2133 -14.47467,-27.96 -26.16267,-37.3333 -6.39066,-5.12 -13.56666,-9.1734 -20.932,-12.7067 -4.8,-2.3067 -10.716,-6.7067 -16.32,-5.3733 -0.94266,0.2266 -0.54266,1.68 0.39867,1.4533 v 0" style="fill:#577c69;fill-opacity:1;fill-rule:nonzero;stroke:none;stroke-width:0.133333"/><path id="path354" d="m 399.19066,977.24007 c -8.34534,-0.53333 -15.132,7.92 -19.41334,14.02667 -6.20933,8.83996 -9.88933,20.30666 -10.54533,31.02666 0.46667,-0.12 0.93333,-0.2533 1.4,-0.3733 -2.21733,-3.3734 -6.82667,-4.8 -10.672,-3.8667 -4.588,1.1067 -3.66,6.6667 -1.152,9.4133 6.24667,6.8267 17.604,-4.8533 9.89867,-9.4933 -0.83334,-0.4933 -1.588,0.8 -0.75867,1.3067 5.70267,3.4266 -3.65467,12.9733 -8.37733,6.72 -2.16934,-2.8667 -1.812,-6.36 2.10666,-6.72 2.80134,-0.2667 6.09067,1.0133 7.65734,3.4 0.41866,0.64 1.35333,0.3733 1.4,-0.3867 0.59733,-9.76 3.864,-19.8933 8.98933,-28.22666 3.888,-6.32 11.09467,-15.85333 19.46667,-15.33333 0.968,0.0667 0.96133,-1.44 0,-1.49334 v 0" style="fill:#577c69;fill-opacity:1;fill-rule:nonzero;stroke:none;stroke-width:0.133333"/><path id="path355" d="m 399.40666,976.34674 c -1.24134,-0.88 -2.63734,0.24 -3.75067,0.89333 -3.56133,2.05334 -8.37067,2.25334 -12.36133,2.8 -7.604,1.04 -14.51067,3.49334 -21.196,7.24 -5.7,3.2 -11.424,7.29334 -15.296,12.61334 -2.28667,3.14669 -4.06134,6.41329 -8.148,7.26669 -2.78667,0.5733 -4.9,1.4 -6.704,3.7066 -2.25867,2.8934 -2.35467,6.9467 0.18267,9.64 2.26133,2.3867 6.45733,2.4534 8.91866,0.4134 4.31867,-3.5867 6.012,-13.2934 -1.45333,-14.04 -0.964,-0.093 -0.95467,1.4133 0,1.5066 7.052,0.7067 3.064,12.1467 -2.54534,12.5067 -6.25866,0.4133 -6.10799,-6.8533 -3.008,-10.16 1.94534,-2.08 5.03334,-1.8667 7.49467,-2.8533 1.46933,-0.5867 2.58933,-1.9467 3.572,-3.12 2.84267,-3.4 4.98533,-6.86669 8.43067,-9.76003 4.36933,-3.65333 9.29466,-6.64 14.44266,-9.06666 5.028,-2.36 10.22934,-3.66667 15.70934,-4.44 2.836,-0.4 5.65866,-0.78667 8.456,-1.41334 0.656,-0.14666 6.16,-2.68 6.49733,-2.44 0.79067,0.57334 1.54,-0.73333 0.75867,-1.29333 v 0" style="fill:#577c69;fill-opacity:1;fill-rule:nonzero;stroke:none;stroke-width:0.133333"/><path id="path356" d="m 400.64132,974.96007 c -7.70266,1.4 -15.728,0.24 -23.52666,1.21334 -7.584,0.93333 -14.972,2.98666 -22.06667,5.8 -10.94,4.33333 -22.50933,10.04 -29.62933,19.75999 0.43333,0 0.86533,0 1.29733,0 -2.008,-3.51999 -6.43866,-3.34666 -9.53866,-1.4133 -4.384,2.72 -3.16534,7.8133 -0.4,11.2 2.61466,3.2 6.276,1.8266 7.72933,-1.56 1.68133,-3.9334 0.2,-8.48 -3.54267,-10.50669 -0.85333,-0.45334 -1.612,0.83999 -0.75866,1.30669 2.69333,1.4533 3.78933,4.0933 3.35733,7.0666 -0.39733,2.7467 -2.624,5.3867 -5.264,3.1067 -2.92133,-2.5067 -3.648,-6.9067 -0.36267,-9.32 2.27067,-1.66666 5.96134,-1.78666 7.48267,0.88 0.30267,0.52 0.97733,0.44 1.29733,0 7.53333,-10.29333 20.484,-16.10666 32.12533,-20.37333 7.028,-2.57333 14.4,-4.12 21.84,-4.85333 6.776,-0.66667 13.64,0.36 20.35867,-0.85333 0.95333,-0.17334 0.548,-1.62667 -0.39867,-1.45334 v 0" style="fill:#577c69;fill-opacity:1;fill-rule:nonzero;stroke:none;stroke-width:0.133333"/><path id="path357" d="m 399.47732,975.97341 c -3.44666,-3.41334 -9.16266,-3.82667 -13.728,-4.16 -6.544,-0.46667 -13.16666,-0.0267 -19.68933,0.54666 -16.53867,1.46667 -33.34133,2.53334 -48.30933,10.33334 -3.128,1.62666 -22.03867,3.88 -15.98933,11.04 2.61466,3.09333 7.31733,5.42666 10.90666,2.44 2.368,-1.97334 4.484,-6.2 2.91867,-9.24 -0.584,-1.14667 -1.50533,-1.8 -2.77067,-1.97334 -0.94666,-0.13333 -1.356,1.30667 -0.39866,1.45334 4.23466,0.58666 1.32,6.70666 -0.432,8.38666 -3.38934,3.24 -12.43067,-1.82666 -8.96,-5.26666 2.65866,-2.62667 7.84533,-3.24 11.31333,-4.17334 5.164,-1.37333 9.67467,-4.29333 14.768,-5.94666 12.616,-4.12 26.57066,-4.74667 39.74,-5.78667 5.35466,-0.42667 10.736,-0.62667 16.104,-0.36 4.30666,0.21333 10.19466,0.53333 13.46266,3.77333 0.68934,0.68 1.75334,-0.38666 1.064,-1.06666 v 0" style="fill:#577c69;fill-opacity:1;fill-rule:nonzero;stroke:none;stroke-width:0.133333"/><path id="path1459" d="m 196.50266,1088.3467 c -0.25466,-3.8533 -6.268,-3.8666 -6.012,0 0.95734,14.4534 -11.98,28.2 -24.704,33.5334 -0.448,-8.9867 -0.10533,-18.0134 -0.0947,-26.0134 0.005,-3.88 -6.00667,-3.88 -6.012,0 -0.0373,26.3867 -2.36,60.8534 24.03333,76.24 3.356,1.9467 6.38133,-3.24 3.03467,-5.2 -14.17334,-8.2533 -18.96667,-23.0933 -20.508,-38.7733 0.0853,-0.027 0.164,-0.027 0.25066,-0.067 15.38667,-5.9866 31.17734,-22.1066 30.012,-39.72" style="fill:#534741;fill-opacity:1;fill-rule:nonzero;stroke:none;stroke-width:0.133333"/><path id="path315" d="m 186.35466,989.00007 c -5.02266,2.48 -8.17333,9.38667 -10.392,14.17333 -2.95066,6.36 -5.16133,13.1467 -7.01866,19.9067 -4.06667,14.7866 -5.48267,30.16 -4.728,45.4533 0.11866,2.4 1.68133,7.56 -0.74534,8.9067 -1.512,0.8266 -2.868,2.7333 -2.94266,4.4933 -0.156,3.6667 2.67466,6.1733 6.30133,5.6133 2.80533,-0.44 4.264,-3.6533 4.26267,-6.1733 -0.001,-3.0667 -2.61867,-4.6133 -5.4,-4.5467 -0.968,0.027 -0.96934,1.52 0,1.5067 4.02,-0.1067 4.944,3.9467 2.58133,6.6933 -2.116,2.4534 -5.92,0.6534 -6.27467,-2.3333 -0.32133,-2.7333 2.06134,-3.3333 3.56267,-4.6933 0.448,-0.4134 0.696,-0.9334 0.7,-1.5467 0.016,-2.6267 -0.39067,-5.2933 -0.54267,-7.92 -0.344,-5.92 -0.26,-11.8533 0.0973,-17.7733 0.67866,-11.2267 2.92133,-22.3467 6.276,-33.0667 1.57333,-5.0267 3.432,-10.0133 5.64666,-14.8 1.97467,-4.26666 4.98,-10.42666 9.37467,-12.58666 0.86933,-0.44 0.10667,-1.73333 -0.75867,-1.30667 v 0" style="fill:#577c69;fill-opacity:1;fill-rule:nonzero;stroke:none;stroke-width:0.133333"/><path id="path316" d="m 186.93333,988.93341 c -3.70267,-0.84 -7.4,3.17333 -9.784,5.44 -4.36,4.14666 -8.98133,8.29329 -12.65733,13.05329 -4.808,6.24 -7.47867,13.4134 -9.556,20.9467 -2.24534,8.1333 -4.06134,16.4533 -5.36667,24.8 -0.58133,3.7067 -0.97733,7.4533 -1.24133,11.1867 -0.312,4.4133 0.69866,9.0666 -0.0467,13.4 -0.128,0.7466 -1.59333,1.36 -2.144,1.84 -0.76667,0.6666 -1.12267,1.7333 -1.38933,2.6666 -0.50934,1.7734 0.59733,4.16 2.12266,5.1067 2.88934,1.8133 7.16,1.3733 7.872,-2.4667 0.65867,-3.5466 -2.736,-5.76 -5.83333,-5.8266 -0.97067,-0.027 -0.968,1.48 0,1.5066 2.272,0.04 4.21733,1.1734 4.384,3.6267 0.24133,3.5467 -4.38533,2.9867 -6.12133,1.44 -1.84667,-1.6533 -0.96267,-4.4933 0.85866,-5.6 0.51867,-0.32 0.88134,-0.5067 1.26934,-0.9733 1.05733,-1.28 0.69066,-3.8534 0.628,-5.3334 -0.52134,-12.1866 1.44533,-23.9866 4.19066,-35.8533 2.68934,-11.6133 5.688,-22.9733 13.728,-32.1333 2.724,-3.0934 5.85467,-5.81336 8.75734,-8.73336 2.15733,-2.18667 6.45733,-7.42667 9.92933,-6.65333 0.944,0.21333 1.34533,-1.24 0.4,-1.44 v 0" style="fill:#577c69;fill-opacity:1;fill-rule:nonzero;stroke:none;stroke-width:0.133333"/><path id="path317" d="m 185.93066,988.42674 c -4.08533,-0.98667 -7.896,0.34667 -11.62933,2 -4.62133,2.02667 -9.10667,4.45333 -13.364,7.17333 -8.49067,5.40003 -14.964,12.70663 -19.812,21.48003 -10.55027,19.0933 -16.40347,41.4133 -14.54307,63.2266 0.25054,-0.2533 0.50107,-0.5066 0.7516,-0.76 -5.94066,-0.6133 -5.54786,8.2667 -0.39746,9.1867 3.10213,0.56 5.74586,-2.2933 5.98706,-5.2133 0.3516,-4.28 -3.49226,-4.72 -6.7584,-3.4134 -0.88746,0.36 -0.50053,1.8134 0.39947,1.4534 2.17813,-0.88 5.47613,-0.92 4.71773,2.4933 -0.52026,2.3467 -2.94626,3.9733 -5.19426,2.84 -2.74067,-1.3867 -2.15,-6.2 1.24586,-5.84 0.38387,0.04 0.78387,-0.3733 0.7516,-0.7467 -1.77453,-20.8133 3.6864,-40.8133 12.75454,-59.4133 4.3,-8.8133 10.168,-16.3333 18.112,-22.1333 3.58533,-2.61336 7.48933,-4.78669 11.44133,-6.80003 4.55733,-2.32 9.868,-5.36 15.13867,-4.08 0.94133,0.22667 1.34133,-1.22666 0.39866,-1.45333 v 0" style="fill:#577c69;fill-opacity:1;fill-rule:nonzero;stroke:none;stroke-width:0.133333"/><path id="path318" d="m 184.47866,988.90674 c 0.16134,7.70667 1.436,15.37336 1.856,23.07996 0.42134,7.76 0.7,15.52 0.96667,23.28 0.252,7.2934 0.636,14.6 0.464,21.9067 -0.15867,6.8133 -0.444,13.6933 1.156,20.3733 0.24133,-0.32 0.48267,-0.64 0.724,-0.96 -5.344,0.3867 -3.80933,8.2534 0.68133,8.7734 2.86667,0.3333 5.54934,-2.1867 5.28,-5.0667 -0.31466,-3.3733 -4.59333,-4.72 -7.32,-3.6933 -0.89733,0.3333 -0.50933,1.7866 0.4,1.4533 1.78934,-0.68 3.324,-0.28 4.688,1 2.53067,2.3733 -1.16666,5.6533 -3.57066,4.5867 -2.12,-0.9467 -3.35734,-5.32 -0.15867,-5.5467 0.49467,-0.04 0.844,-0.4533 0.72533,-0.9467 -1.56666,-6.5466 -1.27066,-13.3066 -1.10133,-19.9733 0.184,-7.3067 -0.216,-14.6133 -0.46533,-21.9067 -0.264,-7.76 -0.56,-15.52 -0.96667,-23.28 -0.40533,-7.7066 -1.69467,-15.37329 -1.856,-23.07996 -0.02,-0.97333 -1.52267,-0.97333 -1.50267,0 v 0" style="fill:#577c69;fill-opacity:1;fill-rule:nonzero;stroke:none;stroke-width:0.133333"/><path id="path319" d="m 185.28133,990.37341 c 5.08667,0.69333 8.956,5.85333 12.048,9.54666 4.56266,5.45333 7.62533,11.80003 9.91333,18.49333 4.69867,13.7467 5.29867,28.2133 5.66933,42.6 0.0613,2.36 0.27334,4.6667 0.492,7.0133 0.116,1.2534 0.148,2.5067 -0.036,3.7467 -0.22533,1.5467 -1.36133,1.16 -2.48533,1.6 -2.90267,1.1333 -2.16533,6.2667 0.21867,7.5067 3.05866,1.6 6.60266,0.36 7.40266,-3.1467 0.732,-3.2133 -2.332,-5.4933 -5.21866,-5.1733 -0.952,0.1066 -0.96267,1.6133 0,1.5066 4.608,-0.5066 5.032,5.8534 0.35733,6.0934 -2.476,0.12 -4.86133,-4.36 -1.816,-5.56 0.64267,-0.24 1.308,-0.013 1.91733,-0.36 2.11467,-1.24 1.18934,-6.0667 0.99734,-7.88 -1.172,-11.0534 -0.54134,-22.1467 -2.316,-33.1734 -1.58934,-9.88 -4.58267,-19.7733 -9.72667,-28.3866 -2.096,-3.5067 -4.79866,-6.68003 -7.572,-9.66669 -2.5,-2.69334 -5.648,-5.69334 -9.44533,-6.2 -0.948,-0.13334 -1.35733,1.30666 -0.4,1.44 v 0" style="fill:#577c69;fill-opacity:1;fill-rule:nonzero;stroke:none;stroke-width:0.133333"/><path id="path320" d="m 186.93333,989.37341 c 6.86533,-2.13334 13.18533,2.72 17.868,7.21333 5.04266,4.85336 9.01333,10.75996 12.21066,16.94666 6.74267,13.0533 8.93734,27.92 11.16667,42.2667 0.64533,4.1466 1.20133,8.3066 1.69467,12.4666 0.0413,0.3467 0.54533,4.4534 0.49733,4.4667 -0.63867,0.12 -1.176,0.56 -1.636,0.9867 -1.98533,1.8533 -0.65733,5.44 1.04667,6.92 5.04266,4.3733 9.03066,-8.5867 1.28933,-8.32 -0.96667,0.027 -0.96933,1.5333 0,1.4933 4.36267,-0.1467 3.33333,7.3067 0.0227,5.9067 -2.412,-1.0267 -2.436,-5.1334 0.27733,-5.6534 0.30133,-0.067 0.58267,-0.4133 0.552,-0.7333 -1.03467,-10.24 -2.59333,-20.4267 -4.42133,-30.56 -1.61467,-8.9467 -3.73467,-17.68 -7.336,-26.0667 -3.38,-7.8666 -8.236,-15.1333 -14.30134,-21.17329 -4.972,-4.96 -12.00933,-9.88 -19.33066,-7.61334 -0.92133,0.29334 -0.528,1.74667 0.4,1.45334 v 0" style="fill:#577c69;fill-opacity:1;fill-rule:nonzero;stroke:none;stroke-width:0.133333"/><path id="path321" d="m 187.11333,989.54674 c 6.81467,-5.01333 18.476,1.36 24.67466,4.84 7.548,4.22667 13.632,10.37336 18.852,17.19996 10.132,13.24 16.47467,29.36 19.53867,45.6667 0.62933,3.3467 0.916,6.7333 1.49333,10.0933 0.29867,1.7334 0.79334,3.5734 -0.55466,4.9334 -0.79734,0.8 -1.39734,1.76 -1.78267,2.84 -1.39467,3.88 0.68933,8.1733 5.29867,7.48 5.384,-0.8 3.66266,-13.04 -3.15067,-9.9334 -0.88133,0.4 -0.11733,1.6934 0.75867,1.2934 4.104,-1.8667 5.376,5.16 2.504,7.0133 -1.17467,0.76 -2.88134,-0.3067 -3.76534,-1 -1.40533,-1.0933 -0.60133,-5.92 1.21334,-6.56 1.42,-0.5067 1.35733,-2.5333 1.30266,-3.72 -0.268,-5.9067 -1.61333,-12.1333 -2.91066,-17.88 -1.55867,-6.9067 -3.84534,-13.6267 -6.624,-20.12 -5.268,-12.3333 -12.98134,-24.1867 -23.228,-32.94666 -5.08267,-4.36 -11.136,-7.56 -17.344,-9.97333 -5.17333,-2.01334 -12.09467,-4.16 -17.03467,-0.52 -0.772,0.57333 -0.024,1.86666 0.75867,1.29333 v 0" style="fill:#577c69;fill-opacity:1;fill-rule:nonzero;stroke:none;stroke-width:0.133333"/><path id="path322" d="m 188.36533,988.80007 c 5.53333,-3.84 13.53866,-1.24 19.48666,0.26667 7.94934,2.02667 15.52934,5.22667 22.46267,9.6 14.28267,9.02666 25.44667,23.65336 30.524,39.73336 2.75333,8.7066 4.64133,17.88 6.144,26.8933 0.32933,1.9733 0.816,4.04 0.432,6.04 -0.25067,1.3067 -0.98533,2.5067 -1.124,3.84 -0.20667,1.9867 0.232,4.32 1.628,5.84 3.052,3.3333 6.93867,1.7733 7.71867,-2.4 0.872,-4.6667 -1.85334,-8.16 -6.492,-8.56 -0.96667,-0.08 -0.95867,1.4267 0,1.5067 4.16133,0.3466 5.61466,3.6 4.916,7.3333 -0.59067,3.16 -3.796,2.8533 -5.36934,0.64 -0.96266,-1.36 -1.148,-3.2 -0.78133,-4.7867 0.51333,-2.2 1.26,-3.76 1.07467,-6.0666 -0.30134,-3.7867 -1.19067,-7.5867 -1.94,-11.2934 -2.98267,-14.76 -6.872,-28.72 -15.868,-41.0266 -8.03734,-10.9867 -18.924,-19.60003 -31.45067,-24.90669 -5.52933,-2.33334 -11.36133,-3.96 -17.23067,-5.18667 -4.83466,-1.01333 -10.59466,-1.74667 -14.88933,1.22667 -0.79066,0.56 -0.04,1.85333 0.75867,1.30666 v 0" style="fill:#577c69;fill-opacity:1;fill-rule:nonzero;stroke:none;stroke-width:0.133333"/><path id="path323" d="m 200.54133,987.17341 c 2.09466,-1.74667 6.496,0.14666 8.70933,0.88 2.636,0.88 5.212,1.86666 7.87067,2.68 9.16266,2.8 17.3,6.93333 25.39866,12.02669 7.25467,4.56 13.684,9.7066 19.312,16.1733 5.41467,6.24 9.888,13.2667 13.92667,20.44 4.37733,7.7867 8.21467,15.8933 10.428,24.56 0.39467,1.56 0.71067,3.12 1.13733,4.6667 0.324,1.16 0.97467,2.6933 -0.27333,3.6533 -0.304,0.2267 -0.60133,0.52 -0.78667,0.8667 -1.10533,2 -1.276,3.9333 -0.0173,5.92 1.82533,2.8666 7.18667,2.72 8.312,-0.6134 1.18933,-3.5333 -3.09733,-6.5333 -6.12533,-6.36 -0.96267,0.053 -0.968,1.56 0,1.5067 2.41466,-0.1467 5.09733,1.76 4.676,4.4533 -0.492,3.1334 -5.43467,0.92 -6.15334,-0.8666 -0.85466,-2.1334 1.096,-3.1334 1.96534,-4.6134 1.00266,-1.7066 -0.12934,-4.28 -0.596,-5.9733 -1.03467,-3.76 -1.872,-7.48 -3.22267,-11.1467 -4.84267,-13.16 -12.57467,-25.9466 -21.50533,-36.72 -9.37467,-11.32 -22.29867,-19.46663 -35.46934,-25.70663 -5.65066,-2.66666 -11.904,-4.05333 -17.78533,-6.16 -2.996,-1.06666 -8.01467,-3.10666 -10.864,-0.72 -0.744,0.61334 0.324,1.68 1.06267,1.05334 v 0" style="fill:#577c69;fill-opacity:1;fill-rule:nonzero;stroke:none;stroke-width:0.133333"/><path id="path324" d="m 185.03066,987.92007 c -3.688,0.97334 -7.608,-0.22666 -11.384,0.50667 -4.916,0.96 -9.73466,2.38667 -14.44266,4.08 -8.452,3.04 -16.49467,7.37333 -23.55067,12.94666 -7.29653,5.76 -13.56893,12.44 -18.28507,20.48 -4.76666,8.12 -10.1532,16.1467 -13.3776,25.0267 -3.00626,8.28 -4.779729,17.3333 -3.88226,26.1333 0.15146,1.4933 0.98946,5.6267 -1.690136,5.76 -1.088533,0.053 -1.8756,0.6667 -2.667733,1.32 -2.063067,1.72 -2.836533,4.8267 -2.462,7.36 0.726,4.92 6.606267,4.1467 9.130269,1.3333 2.7276,-3.0266 1.5776,-10.1066 -2.907336,-10.76 -0.947866,-0.1333 -1.355733,1.32 -0.399466,1.4534 3.405732,0.4933 3.859862,5.44 2.508262,7.8666 -2.013462,3.6267 -6.937996,2.6534 -6.977062,-1.5866 -0.0156,-1.6934 1.073466,-3.4 2.169866,-4.6 1.396267,-1.52 2.612,-0.2667 3.696266,-1.2934 1.462,-1.3866 1.33187,-3.2533 1.24067,-5.1733 -0.33334,-7.0667 -0.14787,-13.5067 1.5656,-20.4667 2.024,-8.2266 5.7,-15.2533 10.13133,-22.3733 4.12333,-6.6267 7.35093,-13.4533 12.51613,-19.4133 5.152,-5.9467 11.45027,-10.9734 18.1156,-15.12 6.536,-4.05336 13.708,-7.02669 21.04534,-9.28003 3.70933,-1.14666 7.764,-2.41333 11.65733,-2.6 2.92133,-0.14666 5.764,0.61334 8.64933,-0.14666 0.936,-0.24 0.53867,-1.69334 -0.4,-1.45334 v 0" style="fill:#577c69;fill-opacity:1;fill-rule:nonzero;stroke:none;stroke-width:0.133333"/><path id="path325" d="m 180.6,988.00007 c -4.664,-1.97333 -9.67734,-0.69333 -14.45467,0.18667 -7.36667,1.34667 -14.332,3.42667 -21.28267,6.22667 -12.2616,4.93333 -24.8876,10.02669 -34.84493,18.95999 -9.05053,8.1067 -15.530799,18.8267 -20.922399,29.5867 -5.642266,11.2666 -12.042666,23.7866 -12.5984,36.5733 0.2504,-0.24 0.5004,-0.4933 0.750934,-0.7467 -3.383334,0 -6.330133,2.32 -5.919733,5.88 0.3636,3.16 4.189599,4.8267 6.937999,4.8934 2.867734,0.067 5.795867,-3.3467 4.9812,-6.2134 -0.961866,-3.3733 -4.497333,-4.7066 -7.7328,-4.7733 -0.969733,-0.013 -0.9676,1.48 0,1.5067 3.821467,0.08 9.4532,3.92 4.3568,7.5333 -5.023466,3.56 -11.165599,-7.3333 -2.623466,-7.32 0.423466,0 0.733866,-0.3467 0.7516,-0.76 0.5328,-12.2533 6.6484,-24.0133 11.925599,-34.8667 5.1,-10.48 11.291066,-20.5466 19.618666,-28.7866 9.01147,-8.9067 20.83027,-13.76 32.31893,-18.60003 6.168,-2.58666 12.392,-4.94666 18.904,-6.53333 5.56134,-1.34667 13.60267,-3.76 19.07467,-1.45333 0.88133,0.37333 1.64933,-0.92 0.75867,-1.29334 v 0" style="fill:#577c69;fill-opacity:1;fill-rule:nonzero;stroke:none;stroke-width:0.133333"/><path id="path326" d="m 181.504,987.12007 c -3.96534,-3.14666 -10.848,-1.09333 -15.34934,-0.36 -9.76666,1.58667 -18.668,4.88 -27.93466,8.24 -8.89294,3.22667 -17.856,6.37333 -26.1304,11.01333 -7.1568,4.0133 -13.599469,9.2133 -19.452669,14.9333 -12.300533,12.04 -23.556666,26.6934 -28.741599,43.2667 -0.9948,3.1733 -1.320267,5.88 -1.4412,9.16 -0.1536,4.2 -3.560933,1.7333 -5.751067,3.7867 -3.880666,3.6266 0.8376,7.8533 4.816267,7.44 5.111333,-0.5067 6.662933,-7.68 1.169733,-9 -0.942133,-0.2267 -1.341733,1.2266 -0.399467,1.4533 4.139067,0.9867 1.8172,5.7867 -1.421333,6.12 -2.286,0.2267 -4.247466,-1.32 -3.871333,-3.7733 0.408267,-2.64 4.516666,-1.1334 5.9776,-2.4934 1.2724,-1.1733 0.99,-3.4933 1.0312,-5.0666 0.09587,-3.6534 1.210933,-7.0267 2.405733,-10.4534 5.326533,-15.3066 16.557866,-28.88 28.010933,-40.08 5.288,-5.1733 11.165062,-9.6933 17.523462,-13.48 7.62707,-4.5333 16.05107,-7.52 24.35814,-10.53329 8.44533,-3.06667 16.792,-6.57334 25.62533,-8.36 2.876,-0.58667 5.83867,-0.96 8.744,-1.38667 2.79467,-0.41333 7.34267,-1.29333 9.768,0.62667 0.75067,0.6 1.82133,-0.45334 1.06267,-1.05334 v 0" style="fill:#577c69;fill-opacity:1;fill-rule:nonzero;stroke:none;stroke-width:0.133333"/><path id="path327" d="m 165.692,986.14674 c -6.524,0.08 -13.32934,2.41333 -19.60267,4.08 -6.70933,1.77333 -13.2976,3.97333 -19.92733,6.02667 -6.2448,1.92 -12.45,3.93329 -18.40734,6.63999 -6.83693,3.12 -13.223996,7.32 -19.455196,11.48 -17.725466,11.84 -39.177599,27.2 -40.121332,50.64 0.3172,-0.24 0.6344,-0.48 0.951067,-0.72 -7.369867,-1.84 -11.4428,10.8533 -3.599467,11.9067 6.8692,0.92 9.178667,-13.1867 2.6812,-13.4 -0.969733,-0.04 -0.966667,1.4666 0,1.4933 4.290667,0.1467 1.930267,9.5333 -1.207333,10.4533 -5.804667,1.7334 -5.4156,-10.7866 1.726133,-9 0.487467,0.12 0.9312,-0.24 0.950933,-0.7333 0.938667,-23.3067 22.9172,-38.3467 40.430266,-50.04 5.572933,-3.72 11.296399,-7.28 17.303599,-10.2533 6.09387,-3.0267 12.66827,-5.01336 19.14693,-7.02669 6.24014,-1.93334 12.4492,-3.94667 18.7452,-5.69334 3.16534,-0.88 6.35867,-1.66666 9.56534,-2.37333 3.62,-0.8 7.07466,-1.93333 10.82,-1.97333 0.968,-0.0133 0.96933,-1.52 0,-1.50667 v 0" style="fill:#577c69;fill-opacity:1;fill-rule:nonzero;stroke:none;stroke-width:0.133333"/><path id="path328" d="m 222.25333,992.62674 c 4.63466,-1.33333 10.876,0.30667 15.52933,1.10667 5.44133,0.93333 10.816,2.45333 16.02,4.28 9.64267,3.39999 17.444,11.15999 24.008,18.70669 6.80267,7.8266 13.028,16.44 18.32933,25.3466 2.89467,4.8534 5.29067,9.9867 6.992,15.3867 1.644,5.2133 2.35734,10.72 3.608,16.04 0.24134,-0.32 0.48267,-0.64 0.72534,-0.9467 -6.29334,-0.4133 -4.50267,9.2 0.37866,9.68 3.70534,0.36 4.90934,-4.0266 4.936,-6.9066 0.0347,-3.6667 -4.21066,-5.4134 -6.208,-2.1334 -0.50533,0.8267 0.79467,1.5867 1.29734,0.76 1.136,0.4534 2.272,0.92 3.408,1.3734 0.0307,0.7733 -0.0427,1.5466 -0.22,2.3066 -0.18267,0.9734 -0.68667,1.8134 -1.372,2.52 -1.13334,1.16 -2.46934,0.4534 -3.384,-0.4933 -1.79067,-1.8533 -2.35867,-5.8267 1.164,-5.6133 0.50533,0.04 0.82933,-0.4934 0.724,-0.9467 -1.34134,-5.6933 -2.18534,-11.5333 -3.948,-17.12 -1.624,-5.1467 -4.10134,-10.0133 -6.804,-14.6667 -5.436,-9.36 -12.152,-18.28 -19.25334,-26.44 -6.62666,-7.6133 -14.44533,-14.64 -23.98266,-18.30663 -5.50267,-2.10666 -11.404,-3.48 -17.20267,-4.48 -4.684,-0.8 -10.476,-2.24 -15.14533,-0.89333 -0.92934,0.26667 -0.53467,1.70667 0.4,1.44 v 0" style="fill:#577c69;fill-opacity:1;fill-rule:nonzero;stroke:none;stroke-width:0.133333"/><path id="path329" d="m 263.38399,1002.4267 c 3.47067,-0.1733 6.59867,1.8534 9.49734,3.52 3.308,1.9067 6.80133,3.4667 10.16133,5.2667 8.152,4.4 14.324,9.88 19.37333,17.64 4.51867,6.9467 8.92267,14.04 13.24934,21.1067 4.78133,7.8133 7.272,16.1866 10.744,24.5866 0.17466,-0.3066 0.34933,-0.6133 0.524,-0.9333 -2.98,0.4933 -4.94667,1.3467 -5.524,4.5867 -0.44667,2.5066 0.712,5.2 2.996,6.3466 2.45466,1.2267 4.764,-0.7866 5.768,-2.8533 1.44933,-3 -0.02,-5.7733 -2.38267,-7.6533 -0.74933,-0.6 -1.82133,0.4533 -1.06267,1.0666 1.412,1.12 2.33867,2.04 2.484,4 0.17867,2.4 -2.284,5.72 -5.08133,3.5067 -1.32267,-1.04 -1.412,-3.2267 -1.14667,-4.72 0.39467,-2.2133 2.54667,-2.5333 4.34934,-2.8267 0.37066,-0.067 0.66933,-0.5733 0.524,-0.92 -1.844,-4.4666 -3.16267,-9.1066 -4.976,-13.5733 -1.60934,-3.96 -3.71867,-7.7067 -5.91867,-11.3733 -4.632,-7.7067 -9.44933,-15.44 -14.44,-22.9067 -4.83733,-7.2533 -11.152,-12.1867 -18.72133,-16.3733 -3.60934,-1.9867 -7.376,-3.6667 -10.95067,-5.72 -2.884,-1.6534 -6.03467,-3.4534 -9.46667,-3.28 -0.964,0.053 -0.96933,1.56 0,1.5066 v 0" style="fill:#577c69;fill-opacity:1;fill-rule:nonzero;stroke:none;stroke-width:0.133333"/><path id="path330" d="m 263.43466,1001.8934 c 4.01333,0.72 7.95733,3.4267 11.76,4.9733 4.84933,1.96 9.40267,4.24 13.98,6.76 7.89333,4.36 15.64667,8.9867 22.72667,14.6 6.89733,5.4667 13.10933,12.1067 18.34266,19.1734 2.78267,3.76 5.088,7.84 6.68133,12.24 1.632,4.5066 2.09067,9.48 3.116,14.16 0.24267,-0.32 0.484,-0.64 0.72534,-0.96 -5.75334,-0.04 -3.508,8.1066 0.86666,7.08 6.03867,-1.4134 3.10534,-9.96 -2.72933,-7 -0.864,0.44 -0.10267,1.7333 0.75867,1.2933 3.08533,-1.56 5.568,1.9867 2.60933,3.92 -2.75733,1.8133 -5.48133,-3.8267 -1.50533,-3.7867 0.508,0.013 0.828,-0.48 0.724,-0.9466 -1.032,-4.7067 -1.61334,-9.5734 -3.116,-14.16 -1.38,-4.2 -3.684,-8.08 -6.18933,-11.7067 -5.06267,-7.3067 -11.51067,-13.9733 -18.336,-19.6533 -7.03334,-5.8534 -14.948,-10.5467 -22.91067,-14.9867 -4.27067,-2.3867 -8.52933,-4.68 -13.05333,-6.56 -2.624,-1.08 -5.26134,-2.1067 -7.836,-3.3067 -2.1,-0.9866 -3.90534,-2.16 -6.21467,-2.5733 -0.948,-0.1733 -1.35333,1.28 -0.4,1.44 v 0" style="fill:#577c69;fill-opacity:1;fill-rule:nonzero;stroke:none;stroke-width:0.133333"/><path id="path331" d="m 291.63866,1015.1734 c 5.50133,-1.3067 12.47867,3.8933 17.25733,6.2267 6.88667,3.3733 13.452,7.3866 19.43734,12.1866 11.19466,8.9734 22.24533,21.4534 24.87199,35.9467 0.17467,-0.3067 0.35067,-0.6133 0.52534,-0.92 -7.44267,2.72 0.33066,11.7467 5.90133,6.2667 4.42133,-4.3467 -5.54133,-10.64 -6.79467,-5.52 -0.23066,0.9466 1.21867,1.3333 1.44934,0.4 0.53333,-2.1867 6.03866,0.7733 4.53466,3.72 -2.516,4.9066 -10.428,-1.32 -4.69066,-3.4267 0.41066,-0.1467 0.60266,-0.4933 0.524,-0.92 -2.756,-15.2133 -14.47467,-27.96 -26.16267,-37.3333 -6.39066,-5.12 -13.56666,-9.1734 -20.932,-12.7067 -4.8,-2.3067 -10.716,-6.7067 -16.32,-5.3733 -0.94266,0.2266 -0.54266,1.68 0.39867,1.4533 v 0" style="fill:#577c69;fill-opacity:1;fill-rule:nonzero;stroke:none;stroke-width:0.133333"/><path id="path349" d="m 400.55866,973.58674 c -6.48534,8.28 -7.18,20.26667 -7.56534,30.37336 -0.284,7.44 0.39734,14.84 0.88,22.2666 0.04,0.6134 0.66667,5.5334 0.0933,5.72 -0.76534,0.2534 -1.388,0.7067 -2.00534,1.2 -1.14,0.9067 -1.50266,2.4667 -1.40266,3.8534 0.552,7.68 12.50133,6.1733 12.976,-0.8534 0.36266,-5.3733 -7.856,-11.9733 -10.92,-5.2533 -0.4,0.8667 0.896,1.6267 1.29733,0.7467 2.52533,-5.52 9.62,1.3066 7.728,5.7733 -1.30933,3.0933 -5.39733,4.3867 -8.02267,2.28 -2.76,-2.2267 -1.56533,-5.5333 1.48534,-6.5333 0.31333,-0.1067 0.56,-0.3867 0.55066,-0.7334 -0.28533,-10.6266 -1.59333,-21.1466 -1.00133,-31.8 0.47867,-8.62663 1.44667,-18.93329 6.96933,-25.97329 0.59067,-0.76 -0.46533,-1.82667 -1.06266,-1.06667 v 0" style="fill:#577c69;fill-opacity:1;fill-rule:nonzero;stroke:none;stroke-width:0.133333"/><path id="path350" d="m 400.02932,975.06674 c 8.33067,18.34667 13.80267,37.70666 16.016,57.73336 0.316,-0.24 0.63334,-0.48 0.95067,-0.72 -3.82667,-0.7334 -6.18933,2.5333 -5.988,6.12 0.224,3.9866 4.588,5.4533 7.95333,4.6933 3.33334,-0.76 5.13867,-4.36 5.26934,-7.4933 0.15866,-3.8 -2.78134,-6.1867 -6.33867,-6.4134 -0.968,-0.067 -0.96267,1.44 0,1.5067 5.21333,0.32 6.08667,6.0933 2.99467,9.5333 -1.85067,2.0667 -5.40534,2.0934 -7.424,0.28 -2.56134,-2.2933 -0.292,-7.4266 3.13333,-6.7733 0.432,0.08 1.00933,-0.2133 0.952,-0.7333 -2.244,-20.3067 -7.77333,-39.89336 -16.22133,-58.48003 -0.4,-0.88 -1.696,-0.12 -1.29734,0.74667 v 0" style="fill:#577c69;fill-opacity:1;fill-rule:nonzero;stroke:none;stroke-width:0.133333"/><path id="path351" d="m 398.71999,973.57341 c 1.08133,3.97333 6.62667,5.38666 9.63733,7.49333 6.10534,4.26667 11.168,10.36 15.736,16.17333 9.68534,12.30663 15.956,26.21333 17.868,41.82663 0.37734,-0.2133 0.75467,-0.44 1.13067,-0.6533 -3.00533,-1.52 -7.48533,-0.8667 -8.884,2.64 -1.33867,3.36 1.168,6.9333 4.64,7.4667 2.856,0.44 5.06933,-2.0267 5.94267,-4.4534 1.24133,-3.4533 -1.09867,-6.5333 -4.04534,-8.0266 -0.86133,-0.44 -1.62266,0.8533 -0.75866,1.2933 3.75466,1.9067 5.06933,6.64 1.13466,9.2267 -2.324,1.5333 -4.98266,-0.6 -5.768,-2.8 -1.43333,-4 4.54134,-5.28 6.98134,-4.04 0.44933,0.2266 1.20533,-0.04 1.13066,-0.6534 -1.75866,-14.3466 -6.96933,-27.4533 -15.46533,-39.13329 -4.088,-5.62667 -8.58267,-10.96 -13.62933,-15.73334 -2.14,-2.02666 -4.42267,-4.04 -6.98,-5.52 -2.27067,-1.30666 -6.464,-2.72 -7.22134,-5.50666 -0.25466,-0.93334 -1.70533,-0.53334 -1.44933,0.4 v 0" style="fill:#577c69;fill-opacity:1;fill-rule:nonzero;stroke:none;stroke-width:0.133333"/><path id="path352" d="m 399.63999,977.14674 c 7.12,-1.64 14.37467,1.28 20.56267,4.6 6.748,3.62667 12.87733,8.48 18.36,13.78667 6.22933,6.05329 11.07733,13.37329 15.10533,21.02669 2.288,4.3466 4.288,8.9066 5.752,13.6 1.33067,4.2666 1.232,8.7466 3.09067,12.88 0.216,-0.3867 0.43333,-0.76 0.64933,-1.1334 -3.69067,-0.16 -8.208,-1.2133 -9.00933,3.64 -0.59734,3.6267 2.32933,6.72 5.69333,7.2667 2.472,0.4 4.48133,-1.4533 4.76667,-3.84 0.39866,-3.3333 -1.272,-6.5333 -4.27067,-8.04 -0.86267,-0.44 -1.62267,0.8533 -0.75867,1.2933 2.716,1.3734 5.61334,6.6134 2.13734,8.8534 -2.86667,1.8533 -5.79867,-2.2134 -6.09867,-4.5734 -0.58533,-4.6133 5.016,-3.2133 7.54,-3.1066 0.62,0.027 0.86667,-0.64 0.64933,-1.12 -2.07866,-4.6267 -1.95733,-9.8534 -3.636,-14.6134 -1.69866,-4.8133 -3.888,-9.4533 -6.32,-13.9466 -4.07466,-7.52 -9.18666,-14.45336 -15.384,-20.36003 -5.688,-5.41333 -12.14666,-10.14666 -19.12266,-13.76 -6.09734,-3.16 -13.22934,-5.49333 -20.10667,-3.90666 -0.944,0.22666 -0.544,1.66666 0.4,1.45333 v 0" style="fill:#577c69;fill-opacity:1;fill-rule:nonzero;stroke:none;stroke-width:0.133333"/><path id="path353" d="m 399.14532,977.22674 c 6.532,-2.48 13.84134,-0.25333 20.064,2.13333 6.944,2.68 13.484,6.49334 19.668,10.6 14.40667,9.56 25.05334,22.60003 34.2,37.08003 2.948,4.6666 7.49067,10.6666 7.69067,16.3866 0.10533,2.9734 -8.204,4.3734 -5.87734,8.5467 1.872,3.3467 7.01467,4.2533 8.85334,0.52 1.632,-3.3333 -0.144,-7.6933 -3.71734,-8.6533 -0.2,-0.027 -0.39866,-0.053 -0.59733,-0.08 -0.94667,-0.12 -1.356,1.32 -0.4,1.4533 2.91733,0.4 4.13733,3.0533 3.64,5.76 -0.824,4.52 -7.756,1.7067 -6.15867,-1.2 1.75067,-3.1733 6.416,-3.1733 5.66267,-7.52 -0.85467,-4.92 -3.844,-9.52 -6.396,-13.72 -3.25867,-5.36 -6.60133,-10.7067 -10.456,-15.6533 -9.04533,-11.6267 -19.94,-21.14669 -32.63733,-28.54669 -9.28667,-5.42667 -22.93067,-12.73334 -33.93867,-8.56 -0.89733,0.34666 -0.508,1.8 0.4,1.45333 v 0" style="fill:#577c69;fill-opacity:1;fill-rule:nonzero;stroke:none;stroke-width:0.133333"/><path id="path354" d="m 399.19066,977.24007 c -8.34534,-0.53333 -15.132,7.92 -19.41334,14.02667 -6.20933,8.83996 -9.88933,20.30666 -10.54533,31.02666 0.46667,-0.12 0.93333,-0.2533 1.4,-0.3733 -2.21733,-3.3734 -6.82667,-4.8 -10.672,-3.8667 -4.588,1.1067 -3.66,6.6667 -1.152,9.4133 6.24667,6.8267 17.604,-4.8533 9.89867,-9.4933 -0.83334,-0.4933 -1.588,0.8 -0.75867,1.3067 5.70267,3.4266 -3.65467,12.9733 -8.37733,6.72 -2.16934,-2.8667 -1.812,-6.36 2.10666,-6.72 2.80134,-0.2667 6.09067,1.0133 7.65734,3.4 0.41866,0.64 1.35333,0.3733 1.4,-0.3867 0.59733,-9.76 3.864,-19.8933 8.98933,-28.22666 3.888,-6.32 11.09467,-15.85333 19.46667,-15.33333 0.968,0.0667 0.96133,-1.44 0,-1.49334 v 0" style="fill:#577c69;fill-opacity:1;fill-rule:nonzero;stroke:none;stroke-width:0.133333"/><path id="path355" d="m 399.40666,976.34674 c -1.24134,-0.88 -2.63734,0.24 -3.75067,0.89333 -3.56133,2.05334 -8.37067,2.25334 -12.36133,2.8 -7.604,1.04 -14.51067,3.49334 -21.196,7.24 -5.7,3.2 -11.424,7.29334 -15.296,12.61334 -2.28667,3.14669 -4.06134,6.41329 -8.148,7.26669 -2.78667,0.5733 -4.9,1.4 -6.704,3.7066 -2.25867,2.8934 -2.35467,6.9467 0.18267,9.64 2.26133,2.3867 6.45733,2.4534 8.91866,0.4134 4.31867,-3.5867 6.012,-13.2934 -1.45333,-14.04 -0.964,-0.093 -0.95467,1.4133 0,1.5066 7.052,0.7067 3.064,12.1467 -2.54534,12.5067 -6.25866,0.4133 -6.10799,-6.8533 -3.008,-10.16 1.94534,-2.08 5.03334,-1.8667 7.49467,-2.8533 1.46933,-0.5867 2.58933,-1.9467 3.572,-3.12 2.84267,-3.4 4.98533,-6.86669 8.43067,-9.76003 4.36933,-3.65333 9.29466,-6.64 14.44266,-9.06666 5.028,-2.36 10.22934,-3.66667 15.70934,-4.44 2.836,-0.4 5.65866,-0.78667 8.456,-1.41334 0.656,-0.14666 6.16,-2.68 6.49733,-2.44 0.79067,0.57334 1.54,-0.73333 0.75867,-1.29333 v 0" style="fill:#577c69;fill-opacity:1;fill-rule:nonzero;stroke:none;stroke-width:0.133333"/><path id="path356" d="m 400.64132,974.96007 c -7.70266,1.4 -15.728,0.24 -23.52666,1.21334 -7.584,0.93333 -14.972,2.98666 -22.06667,5.8 -10.94,4.33333 -22.50933,10.04 -29.62933,19.75999 0.43333,0 0.86533,0 1.29733,0 -2.008,-3.51999 -6.43866,-3.34666 -9.53866,-1.4133 -4.384,2.72 -3.16534,7.8133 -0.4,11.2 2.61466,3.2 6.276,1.8266 7.72933,-1.56 1.68133,-3.9334 0.2,-8.48 -3.54267,-10.50669 -0.85333,-0.45334 -1.612,0.83999 -0.75866,1.30669 2.69333,1.4533 3.78933,4.0933 3.35733,7.0666 -0.39733,2.7467 -2.624,5.3867 -5.264,3.1067 -2.92133,-2.5067 -3.648,-6.9067 -0.36267,-9.32 2.27067,-1.66666 5.96134,-1.78666 7.48267,0.88 0.30267,0.52 0.97733,0.44 1.29733,0 7.53333,-10.29333 20.484,-16.10666 32.12533,-20.37333 7.028,-2.57333 14.4,-4.12 21.84,-4.85333 6.776,-0.66667 13.64,0.36 20.35867,-0.85333 0.95333,-0.17334 0.548,-1.62667 -0.39867,-1.45334 v 0" style="fill:#577c69;fill-opacity:1;fill-rule:nonzero;stroke:none;stroke-width:0.133333"/><path id="path357" d="m 399.47732,975.97341 c -3.44666,-3.41334 -9.16266,-3.82667 -13.728,-4.16 -6.544,-0.46667 -13.16666,-0.0267 -19.68933,0.54666 -16.53867,1.46667 -33.34133,2.53334 -48.30933,10.33334 -3.128,1.62666 -22.03867,3.88 -15.98933,11.04 2.61466,3.09333 7.31733,5.42666 10.90666,2.44 2.368,-1.97334 4.484,-6.2 2.91867,-9.24 -0.584,-1.14667 -1.50533,-1.8 -2.77067,-1.97334 -0.94666,-0.13333 -1.356,1.30667 -0.39866,1.45334 4.23466,0.58666 1.32,6.70666 -0.432,8.38666 -3.38934,3.24 -12.43067,-1.82666 -8.96,-5.26666 2.65866,-2.62667 7.84533,-3.24 11.31333,-4.17334 5.164,-1.37333 9.67467,-4.29333 14.768,-5.94666 12.616,-4.12 26.57066,-4.74667 39.74,-5.78667 5.35466,-0.42667 10.736,-0.62667 16.104,-0.36 4.30666,0.21333 10.19466,0.53333 13.46266,3.77333 0.68934,0.68 1.75334,-0.38666 1.064,-1.06666 v 0" style="fill:#577c69;fill-opacity:1;fill-rule:nonzero;stroke:none;stroke-width:0.133333"/><path id="path1459" d="m 196.50266,1088.3467 c -0.25466,-3.8533 -6.268,-3.8666 -6.012,0 0.95734,14.4534 -11.98,28.2 -24.704,33.5334 -0.448,-8.9867 -0.10533,-18.0134 -0.0947,-26.0134 0.005,-3.88 -6.00667,-3.88 -6.012,0 -0.0373,26.3867 -2.36,60.8534 24.03333,76.24 3.356,1.9467 6.38133,-3.24 3.03467,-5.2 -14.17334,-8.2533 -18.96667,-23.0933 -20.508,-38.7733 0.0853,-0.027 0.164,-0.027 0.25066,-0.067 15.38667,-5.9866 31.17734,-22.1066 30.012,-39.72" style="fill:#534741;fill-opacity:1;fill-rule:nonzero;stroke:none;stroke-width:0.133333"/></g></svg>