<svg version="1.1" id="svg1" width="5078.9116" height="5263.5273" viewBox="334.1683138279093 3315.0454330267403 515.4576261720912 658.2936676998133" sodipodi:docname="trees3.svg" inkscape:version="1.4.2 (f4327f4, 2025-05-13)" xmlns:inkscape="http://www.inkscape.org/namespaces/inkscape" xmlns:sodipodi="http://sodipodi.sourceforge.net/DTD/sodipodi-0.dtd" xmlns="http://www.w3.org/2000/svg" xmlns:svg="http://www.w3.org/2000/svg"><defs id="defs1"/><g><path style="fill:#1a1a1a" d="m 552.62588,3971.8366 c -10.2338,-1.3561 -11.6854,-2.788 -7.0653,-6.9691 3.2606,-2.9509 7.5988,-17.3293 8.6669,-28.7258 0.4467,-4.7667 1.38,-11.6667 2.074,-15.3333 0.6939,-3.6667 1.5789,-10.2667 1.9665,-14.6667 0.7855,-8.9155 0.9877,-10.1934 4.0074,-25.3333 3.3683,-16.8878 6.414,-74.3782 4.6974,-88.6667 -0.2203,-1.8333 0.029,-14.3206 0.5533,-27.7495 l 0.9538,-24.4161 -13.0936,-12.9891 c -7.2016,-7.144 -15.7937,-15.0412 -19.0937,-17.5494 -3.3,-2.5082 -6.3,-4.9358 -6.6667,-5.3947 -0.8743,-1.0944 -23.4017,-16.0822 -29.0921,-19.3555 -2.434,-1.4002 -5.601,-4.4441 -7.0378,-6.7643 -1.4369,-2.3203 -5.5045,-6.0745 -9.0393,-8.3428 -5.6479,-3.6242 -14.7608,-12.9411 -17.9096,-18.3106 -1.2144,-2.0708 -16.4649,-9.2846 -23.5878,-11.1574 -2.5667,-0.6749 -10.6667,-2.7674 -18,-4.6499 -13.7454,-3.5287 -37.6582,-10.6194 -43.0628,-12.7691 -1.6845,-0.6701 -4.5219,-1.2183 -6.3052,-1.2183 -4.5188,0 -22.8769,-6.2555 -29.2987,-9.9834 -6.0407,-3.5068 -12.2019,-9.5925 -10.9643,-10.8301 0.4532,-0.4532 2.8764,0.4444 5.3849,1.9948 2.5084,1.5503 5.72,2.8187 7.1368,2.8187 1.4167,0 3.1459,0.4867 3.8426,1.0816 1.4007,1.1961 17.1903,4.981 28.6,6.8556 4.0333,0.6627 9.9625,1.8687 13.176,2.6801 3.2134,0.8114 6.1182,1.1996 6.455,0.8628 3.2577,-3.2577 -20.6598,-28.117 -30.39,-31.5867 -4.5013,-1.605 -6.4552,-3.2493 -8.2075,-6.9066 -2.8947,-6.0414 -9.3073,-10.9481 -16.9764,-12.9896 -5.1026,-1.3584 -5.5953,-1.7765 -3.4849,-2.9576 1.3928,-0.7794 6.2606,-1.0703 11.233,-0.6711 7.2023,0.5781 9.2877,1.3004 11.6356,4.0299 5.6801,6.6035 16.2353,12.935 21.5641,12.935 4.7644,0 5.2071,0.3725 8.3188,7 8.2336,17.5366 39.8862,41.6741 60.7932,46.3595 12.0243,2.6947 21.1995,7.0642 26.6847,12.7082 3.0078,3.0947 6.7585,6.0361 8.3349,6.5365 1.5765,0.5003 3.4969,2.0879 4.2675,3.5279 0.7707,1.44 3.7499,4.3195 6.6205,6.399 2.8705,2.0794 4.8999,4.1 4.5098,4.4901 -0.3902,0.3902 1.5486,2.42 4.3085,4.5108 2.7599,2.0907 6.4869,5.1513 8.2823,6.8013 1.7954,1.65 3.6833,3 4.1955,3 0.5122,0 2.6746,1.5113 4.8053,3.3585 10.5166,9.117 38.0492,22.333 40.7985,19.5837 1.6706,-1.6705 -8.8996,-16.9628 -14.7236,-21.3012 -2.6771,-1.9942 -5.1675,-4.0006 -5.5341,-4.4586 -0.3667,-0.458 -3.7946,-2.4103 -7.6175,-4.3384 -7.6721,-3.8695 -16.3733,-10.9346 -16.399,-13.3155 -0.027,-2.4799 -8.9445,-7.5285 -13.2982,-7.5285 -2.2103,0 -4.0187,-0.488 -4.0187,-1.0845 0,-0.5964 -2.1,-1.9084 -4.6666,-2.9155 -2.5667,-1.0071 -4.6667,-2.3191 -4.6667,-2.9155 0,-0.5965 -0.9,-1.0845 -2,-1.0845 -1.1,0 -2,-0.6 -2,-1.3333 0,-0.7334 -1.0843,-1.3334 -2.4096,-1.3334 -3.1567,0 -10.9237,-6.4756 -10.9237,-9.1074 0,-1.1297 -1.2835,-3.4202 -2.8522,-5.09 -1.5686,-1.6698 -3.5186,-4.1865 -4.3333,-5.5927 -2.6053,-4.497 -26.5344,-35.4429 -29.5461,-38.2099 -3.2716,-3.0058 -6.3581,-10.9145 -4.6673,-11.9595 0.6097,-0.3768 3.2201,1.6522 5.801,4.509 2.5809,2.8567 5.4962,5.1572 6.4785,5.1122 4.4875,-0.2055 6.4527,0.4865 6.4527,2.2721 0,1.0635 0.799,2.4135 1.7755,3 0.9765,0.5864 3.4749,4.2219 5.5521,8.0788 3.3665,6.2512 7.1887,10.4803 23.0517,25.5059 2.4086,2.2815 4.9086,4.1482 5.5555,4.1482 0.647,0 1.3763,0.4545 1.6207,1.0099 1.4876,3.3802 25.7728,18.9901 29.544,18.9901 1.4011,0 1.7538,-0.8816 1.2001,-3 -1.818,-6.9561 -6.02,-11.7656 -13.1151,-15.0109 -6.506,-2.976 -9.4046,-5.9891 -5.7613,-5.9891 2.0112,0 0.3944,-4.3959 -4.7702,-12.9693 -2.7087,-4.4966 -4.2396,-8.6427 -3.9973,-10.8258 0.2159,-1.9461 -0.2547,-3.9425 -1.0458,-4.4366 -0.998,-0.6233 -0.9078,-1.5378 0.2945,-2.9865 1.5495,-1.867 1.9793,-1.7719 4.0591,0.8984 1.2794,1.6425 3.3922,5.0865 4.6953,7.6531 1.303,2.5667 3.1878,5.1465 4.1885,5.7329 1.0006,0.5865 1.8194,1.6618 1.8194,2.3897 0,1.7299 1.3735,3.2855 13.5924,15.3933 9.7711,9.6822 10.3038,10.5223 11.1967,17.6583 2.6159,20.9056 1.8655,19.6779 13.6282,22.2949 5.5586,1.2367 10.7387,2.7732 11.5113,3.4144 0.7726,0.6413 2.8465,2.3548 4.6087,3.8079 4.7069,3.8812 6.7094,3.3652 6.564,-1.6914 -0.4645,-16.155 -7.0624,-45.683 -11.3614,-50.8463 -10.7596,-12.9227 -26.4773,-23.6441 -39.4229,-26.8912 -7.659,-1.9211 -9.1436,-2.7686 -9.8617,-5.6299 -0.465,-1.8526 -0.1845,-4.4267 0.6232,-5.7201 1.704,-2.7285 0.531,-4.0098 -8.4633,-9.2458 -3.1493,-1.8333 -9.1978,-5.6962 -13.441,-8.5841 -7.1533,-4.8684 -8.4475,-5.2686 -17.7779,-5.4967 -5.5347,-0.1353 -12.2727,-1.175 -14.9735,-2.3105 -13.0663,-5.4935 -25.5095,-7.8739 -36.6232,-7.0063 -10.9923,0.8582 -17.7996,0.072 -17.7996,-2.0549 0,-0.6398 1.65,-1.5139 3.6666,-1.9422 2.0167,-0.4284 7.8082,-2.0445 12.8701,-3.5913 8.2616,-2.5248 9.967,-2.6419 16.6666,-1.1446 8.6327,1.9293 28.4367,4.2683 29.2503,3.4547 0.3038,-0.3038 -2.674,-3.744 -6.6173,-7.645 -6.9282,-6.8536 -7.8168,-7.2864 -26.3812,-12.8464 -21.1848,-6.3448 -28.11,-6.6037 -38.257,-1.4305 -2.7775,1.4161 -8.0834,2.9353 -11.7908,3.376 -15.4829,1.8404 -24.2691,5.1437 -34.4073,12.9361 -2.75,2.1137 -5,3.1629 -5,2.3315 0,-2.287 3.5535,-8.6821 5.912,-10.6395 1.1484,-0.9531 2.088,-3.1189 2.088,-4.8131 0,-2.028 1.0248,-3.4 3,-4.0164 1.65,-0.5149 3.3,-1.3195 3.6666,-1.788 0.8708,-1.1126 28.4453,-8.1572 35.3334,-9.0267 2.9333,-0.3703 6.6622,-1.5183 8.2864,-2.5511 3.7416,-2.3791 6.4037,-2.3586 15.9286,0.1223 13.4412,3.501 13.9248,2.6803 5.0655,-8.5961 -6.894,-8.775 -16.5133,-14.7372 -23.7764,-14.7372 -4.2582,0 -5.0301,-0.5467 -6.8196,-4.8295 -2.9633,-7.0922 -2.6476,-8.1177 2.3155,-7.5211 4.3056,0.5177 4.278,0.4671 -4.3334,-7.9197 -9.0237,-8.7884 -13.5152,-15.7297 -10.178,-15.7297 0.9706,0 2.9077,1.2792 4.3047,2.8428 1.397,1.5635 7.5038,5.2217 13.5706,8.1291 7.7456,3.712 12.0934,6.737 14.599,10.1572 1.9625,2.679 6.9737,8.4709 11.1358,12.8709 4.1622,4.4 12.2845,13.0078 18.0496,19.1285 16.0792,17.0709 26.2596,21.7862 25.6856,11.8966 -0.3529,-6.0794 1.5905,-24.079 2.7739,-25.6918 0.5381,-0.7333 1.7464,-4.1724 2.6851,-7.6425 0.9387,-3.47 2.1876,-6.0119 2.7753,-5.6486 0.5878,0.3632 0.4858,2.6023 -0.2266,4.9757 -1.342,4.471 -1.6921,18.3136 -0.5813,22.9821 0.349,1.4666 1.5318,5.0666 2.6286,8 1.0967,2.9333 2.0262,6.5333 2.0656,8 0.2677,9.9773 15.7807,28.6946 28.6679,34.5893 3.7185,1.7009 9.5437,5.7141 12.9447,8.9183 15.0599,14.1881 26.2359,22.0687 34.1088,24.0511 3.8889,0.9792 7.1213,3.0452 10.031,6.4111 5.2874,6.1166 10.0803,8.9464 10.8756,6.421 2.5646,-8.1433 3.9198,-35.0713 2.2261,-44.2334 -2.442,-13.2096 -13.3129,-26.6364 -37.0666,-45.7811 -9.3121,-7.5053 -12.6434,-11.0607 -13.8618,-14.7946 -2.4836,-7.6111 -10.6698,-22.4263 -16.2097,-29.3357 -15.4171,-19.2284 -19.1962,-22.0332 -34.4113,-25.5397 -3.9926,-0.9201 -9.6592,-2.7555 -12.5926,-4.0787 -2.9333,-1.3231 -9.4569,-2.8333 -14.4969,-3.3561 -7.4251,-0.7702 -11.2193,-2.1172 -20,-7.1006 -15.9878,-9.0737 -13.4419,-9.0232 30.4969,0.6051 8.8,1.9283 19.8597,3.9765 24.5771,4.5514 5.8062,0.7077 9.1401,1.8152 10.3196,3.4283 3.0433,4.1619 3.5212,0.9594 1.2496,-8.3743 -5.5794,-22.9254 -17.9046,-44.8147 -32.6011,-57.8991 -5.2241,-4.6511 -5.6818,-5.4131 -2.8785,-4.7922 12.0589,2.6708 12.4294,2.6854 11.574,0.4561 -0.4546,-1.1844 -3.1918,-5.3019 -6.0827,-9.1499 -5.4068,-7.1968 -7.3296,-12.3297 -4.6186,-12.3297 1.6235,0 18.4991,21.1776 22.3121,28 1.2296,2.2 4.033,7 6.2298,10.6667 2.1968,3.6667 4.568,8.0314 5.2693,9.6995 0.7013,1.6682 3.3723,4.2704 5.9356,5.7827 4.2929,2.5329 4.654,3.2404 4.5773,8.9672 -0.1319,9.8478 7.5878,32.1759 20.1281,58.2173 2.1189,4.4 5.3863,11.5198 7.261,15.8218 3.3657,7.7233 14.0741,19.6603 24.6801,27.5115 2.4766,1.8333 7.7432,6.3067 11.7037,9.9407 5.8061,5.3276 7.4386,6.2315 8.4285,4.6667 0.6752,-1.0674 1.2519,-3.1407 1.2815,-4.6074 0.03,-1.4667 0.4158,-8.7415 0.8581,-16.1663 1.2662,-21.2556 -2.4959,-35.1677 -14.1972,-52.5004 -5.6163,-8.3191 -9.8024,-17.2196 -13.2759,-28.2274 -2.7032,-8.5666 -11.3018,-22.1192 -21.2179,-33.4425 -14.6161,-16.6902 -24.1801,-33.3992 -24.1801,-42.2439 0,-2.2474 0.3538,-4.0862 0.7862,-4.0862 1.3626,0 5.8314,5.7916 8.7448,11.3334 5.1662,9.827 12.0065,18.0072 17.9894,21.5134 3.2633,1.9125 6.2755,3.1351 6.6936,2.717 0.8835,-0.8835 -2.7104,-20.7934 -6.5399,-36.2304 -4.534,-18.2775 -4.5977,-20.4474 -0.479,-16.3287 1.7654,1.7654 7.4715,17.5596 7.4715,20.6807 0,1.0088 1.7956,4.444 3.9902,7.6338 3.4899,5.0723 6.491,16.578 6.6501,25.4948 0.014,0.8143 1.424,3.5401 3.1323,6.0573 1.9679,2.9 3.7145,8.4639 4.7672,15.1862 2.9435,18.7978 8.6935,33.9033 15.7684,41.4249 l 3.6223,3.851 1.1213,-8 c 0.6167,-4.4 0.8559,-15.5588 0.5315,-24.7974 -0.4685,-13.3472 -1.0962,-17.5922 -3.0557,-20.6667 -1.3563,-2.1281 -2.9955,-4.2452 -3.6426,-4.7047 -1.951,-1.3854 2.0463,-10.4979 4.6051,-10.4979 1.2582,0 2.5556,0.75 2.8829,1.6667 1.5385,4.3076 2.506,-1.8908 3.8136,-24.4319 1.4511,-25.0146 2.574,-31.2006 5.4883,-30.2359 1.0993,0.364 1.7895,4.2529 2.0472,11.5344 0.4519,12.7707 1.8931,13.4844 6.8647,3.3996 4.2703,-8.6621 5.2297,-4.8315 1.6082,6.4213 -4.2314,13.148 -4.3322,14.0591 -4.2348,38.2619 0.022,5.4722 -0.2463,10.8722 -0.5963,12 -0.8342,2.6881 1.8681,6.8032 2.8588,4.3536 1.4857,-3.6731 9.3542,-14.162 11.0474,-14.7264 2.5036,-0.8345 0.851,8.9855 -2.6753,15.8977 -1.4674,2.8762 -4.2335,11.0712 -6.147,18.2109 -2.9366,10.9572 -3.5027,15.9963 -3.6301,32.3148 -0.083,10.6333 0.3993,19.6333 1.0718,20 0.6726,0.3666 1.3849,-0.5334 1.583,-2 1.6032,-11.8686 2.4973,-15.5309 5.2806,-21.6301 1.7478,-3.8299 3.552,-8.4545 4.0094,-10.277 0.4827,-1.9233 5.817,-7.5773 12.7148,-13.4766 6.5357,-5.5897 13.5236,-12.3651 15.5287,-15.0564 2.005,-2.6913 3.9495,-5.1932 4.321,-5.5599 1.4762,-1.4569 6.5503,-13.0746 8.7353,-20 1.2724,-4.0334 2.829,-8.3752 3.459,-9.6486 0.6299,-1.2734 1.1454,-3.2634 1.1454,-4.4223 0,-2.187 5.0162,-9.4839 10.4921,-15.2625 l 3.1587,-3.3333 -0.9161,3.3333 c -5.0674,18.4394 -5.9066,22.315 -5.2731,24.3543 1.0167,3.2727 -1.6114,10.5869 -7.1367,19.8623 -2.5774,4.3267 -4.2917,8.2611 -3.8096,8.7432 1.1993,1.1993 12.818,-4.5707 12.818,-6.3656 0,-1.7604 5.5706,-0.2266 6.9696,1.9189 0.5332,0.8178 0.6588,2.4865 0.2791,3.7081 -0.3798,1.2216 -0.066,2.607 0.6971,3.0787 3.098,1.9147 1.0619,4.4656 -4.7282,5.9236 -5.2972,1.3338 -17.2728,6.8205 -33.8317,15.5001 -6.3983,3.3538 -15.579,13.1147 -16.526,17.5705 -0.4332,2.0383 -1.4427,7.6059 -2.2433,12.3726 -1.5205,9.0528 -3.8708,21.7437 -7.161,38.6667 -3.2387,16.6585 -6.2389,68.014 -3.9716,67.9847 1.6405,-0.021 5.3093,-8.2303 8.6338,-19.318 1.5391,-5.1334 3.3422,-9.9034 4.007,-10.6 0.6647,-0.6967 1.2086,-2.3967 1.2086,-3.7779 0,-1.3811 1.95,-4.4318 4.3333,-6.7792 9.4646,-9.3221 26.9199,-34.8553 29.5992,-43.2971 0.5026,-1.5836 1.4188,-2.8792 2.0361,-2.8792 1.3602,0 15.1423,-12.466 25.4892,-23.0552 7.9349,-8.1208 12.99674,-19.3119 11.2392,-24.849 -0.4677,-1.4736 0.3635,-7.348 1.84704,-13.0542 1.4836,-5.7062 3.9538,-18.7749 5.4892,-29.0416 2.633,-17.6053 6.0584,-29.9838 8.3001,-29.995 0.55,0 1,-0.9624 1,-2.1326 0,-2.7062 4.19,-9.8724 5.7722,-9.8724 1.3586,0 0.248,8.7757 -2.4144,19.079 -2.8239,10.928 -3.9142,20.0019 -2.3341,19.4244 1.8211,-0.6655 29.245,-37.8158 30.2481,-40.9761 0.6646,-2.0941 2.3696,-3.3351 9.0615,-6.5956 2.011,-0.9798 0.9157,2.5882 -2.4133,7.8617 -2.2736,3.6016 -2.9927,5.9302 -2.1536,6.9735 1.9861,2.4694 -0.1567,6.2569 -9.1615,16.1934 -6.4485,7.1156 -10.2985,13.2439 -16.7369,26.6406 -8.065,16.7814 -15.2013,37.5604 -15.2013,44.2618 0,2.9029 0.294,3.0737 2.895,1.6817 5.497,-2.9419 9.736,-9.4433 11.1433,-17.0907 1.2497,-6.7908 1.684,-7.459 4.8842,-7.514 2.5045,-0.043 5.305,-2.054 9.7584,-7.0072 3.4352,-3.8208 7.8373,-7.3361 9.7825,-7.8117 1.9451,-0.4756 3.926,-1.4597 4.402,-2.187 0.476,-0.7273 1.8686,-0.9374 3.0947,-0.4669 2.019,0.7748 1.963,1.2294 -0.5938,4.8201 -1.5527,2.1805 -4.4453,5.6811 -6.428,7.779 -5.8972,6.2396 -9.8128,11.9503 -16.8966,24.6426 -6.6687,11.9485 -6.7598,12.0404 -15.3751,15.4925 -11.234,4.5014 -18.90544,9.5485 -23.57904,15.513 -2.0649,2.6352 -7.533,7.7852 -12.1514,11.4445 -8.0147,6.3503 -13.5872,13.252 -13.5979,16.8414 -0.01,2.582 3.3077,1.9694 6.1121,-1.1294 3.1071,-3.4333 21.5056,-12.6923 22.7494,-11.4485 2.1706,2.1705 -2.1957,7.4563 -6.8862,8.3362 -3.1181,0.585 -5.8313,2.2849 -7.7164,4.8346 -1.599,2.1628 -9.3257,8.754 -17.1705,14.6472 -7.8447,5.8931 -15.7683,12.9893 -17.608,15.7692 -1.8396,2.7799 -5.2689,10.665 -7.6207,17.5225 -2.3518,6.8575 -4.7834,13.0382 -5.4036,13.7349 -0.6203,0.6967 -1.1315,2.1967 -1.136,3.3333 0,1.1367 -0.9668,3.8667 -2.1385,6.0667 -3.0748,5.7735 -10.6719,27.138 -11.7342,32.9988 -0.9008,4.9692 -0.886,4.9897 2.4874,3.4527 1.8664,-0.8504 3.3935,-1.9492 3.3935,-2.4418 0,-0.4925 3.4896,-4.4462 7.7547,-8.7859 6.8377,-6.9575 7.9625,-8.8738 9.5119,-16.2068 0.9665,-4.574 3.1769,-10.2406 4.912,-12.5924 1.7351,-2.3518 3.1548,-5.024 3.1548,-5.9383 0,-0.9142 0.6065,-2.0371 1.3478,-2.4953 0.8883,-0.549 1.1149,3.1744 0.6646,10.9213 l -0.6833,11.7544 3.0021,-6.4635 c 9.0346,-19.4512 15.2973,-30.8453 17.65,-32.1115 1.4563,-0.7838 3.5563,-2.3838 4.6666,-3.5556 1.1104,-1.1719 4.4188,-2.9132 7.3522,-3.8696 2.9333,-0.9564 6.6127,-3.2178 8.1764,-5.0253 2.2053,-2.5492 4.7476,-3.5189 11.33334,-4.3228 4.6697,-0.57 15.6903,-2.6141 24.4903,-4.5424 43.9388,-9.6283 46.4847,-9.6788 30.4968,-0.6051 -8.7806,4.9833 -12.5748,6.3304 -20,7.1006 -5.0399,0.5228 -11.5635,2.0331 -14.4968,3.3562 -2.9334,1.3231 -8.6001,3.1585 -12.5927,4.0786 -15.26584,3.5182 -18.93154,6.2503 -34.64304,25.8202 -4.5609,5.6809 -13.3052,21.7871 -16.9582,31.2353 -0.6582,1.7023 -6.8838,7.7114 -13.8347,13.3537 -12.1762,9.8836 -12.7544,10.5989 -15.8204,19.5715 -2.5026,7.3238 -3.3229,13.0865 -3.8406,26.9797 -0.4892,13.1292 -0.2512,17.6666 0.9269,17.6666 0.8718,0 3.9857,-2.6377 6.9197,-5.8616 3.7078,-4.0741 7.048,-6.2931 10.9531,-7.2764 7.7571,-1.9533 18.9981,-9.8976 33.9894,-24.0211 3.401,-3.2041 9.2261,-7.2174 12.9447,-8.9183 12.88724,-5.8947 28.40024,-24.612 28.66794,-34.5892 0.039,-1.4667 0.9689,-5.0667 2.0656,-8 1.0967,-2.9334 2.2796,-6.5334 2.6286,-8 1.1108,-4.6685 0.7607,-18.5111 -0.5813,-22.9821 -0.7124,-2.3734 -0.8144,-4.6125 -0.2266,-4.9758 0.5877,-0.3632 1.8366,2.1787 2.7753,5.6487 0.9387,3.4701 2.147,6.9092 2.6851,7.6425 1.1834,1.6127 3.1268,19.6124 2.7739,25.6918 -0.5741,9.8895 9.6064,5.1743 25.6856,-11.8967 5.7651,-6.1206 13.8874,-14.7284 18.0496,-19.1284 4.16212,-4.4 9.17332,-10.1919 11.13582,-12.8709 2.5056,-3.4202 6.8534,-6.4452 14.5989,-10.1572 6.0669,-2.9074 12.1737,-6.5656 13.5707,-8.1291 1.397,-1.5636 3.3341,-2.8429 4.3047,-2.8429 3.3372,0 -1.1543,6.9414 -10.178,15.7298 -8.6114,8.3868 -8.6391,8.4374 -4.3334,7.9197 4.9631,-0.5966 5.2788,0.4289 2.3155,7.5211 -1.7895,4.2828 -2.5614,4.8295 -6.8196,4.8295 -7.2632,0 -16.8824,5.9622 -23.7764,14.7372 -8.85932,11.2764 -8.37572,12.0971 5.0654,8.5961 9.525,-2.4809 12.1871,-2.5014 15.9287,-0.1223 1.6242,1.0328 5.3531,2.1807 8.2864,2.5511 6.8881,0.8695 34.4626,7.914 35.3334,9.0266 0.3666,0.4685 2.0166,1.2731 3.6666,1.7881 1.9752,0.6164 3,1.9884 3,4.0164 0,1.6941 0.9396,3.86 2.0879,4.8131 2.3585,1.9573 5.9121,8.3524 5.9121,10.6395 0,0.8314 -2.25,-0.2178 -5,-2.3315 -10.1382,-7.7924 -18.9244,-11.0957 -34.4073,-12.9361 -3.7074,-0.4407 -9.0133,-1.9599 -11.7909,-3.376 -10.1469,-5.1732 -17.0721,-4.9143 -38.25692,1.4305 -18.5644,5.56 -19.453,5.9927 -26.3812,12.8464 -3.9433,3.9009 -6.9211,7.3412 -6.6173,7.645 0.8136,0.8136 20.6176,-1.5254 29.2503,-3.4547 6.6996,-1.4973 8.4049,-1.3802 16.66662,1.1445 5.0619,1.5469 10.8534,3.163 12.8701,3.5913 2.0166,0.4284 3.6666,1.3024 3.6666,1.9423 0,2.1272 -6.8073,2.9131 -17.7996,2.0549 -11.11372,-0.8677 -23.55692,1.5128 -36.62322,7.0063 -2.7008,1.1355 -9.4389,2.1752 -14.9735,2.3105 -9.3308,0.2281 -10.6242,0.6281 -17.776,5.4967 -8.1057,5.5181 -8.958,6.0627 -17.20034,10.9908 -4.5844,2.7411 -5.0478,3.4948 -4.2845,6.97 1.5404,7.0134 0,8.7967 -9.7179,11.2336 -10.0698,2.5258 -23.2554,10.2442 -30.3141,17.7451 -5.2495,5.5783 -14.5862,23.4041 -12.6146,24.0841 0.7009,0.2418 4.4721,-1.3899 8.3804,-3.626 6.4816,-3.7084 7.5662,-3.9385 12.3452,-2.619 7.9463,2.1941 24.1921,0.357 29.9115,-3.3824 9.5732,-6.2592 44.12484,-6.9131 62.00004,-1.1733 4.6308,1.487 22.4395,0.832 27.3333,-1.0054 5.44742,-2.0451 28.82032,-2.344 32.29832,-0.413 1.6693,0.9268 5.6988,1.7063 8.9545,1.7323 5.3991,0.043 6.4829,0.6569 12.3287,6.9824 6.3563,6.8779 8.763,11.1648 7.1651,12.7627 -0.4566,0.4566 -6.3614,-0.5738 -13.1217,-2.2898 -14.6692,-3.7236 -45.2964,-5.4147 -50.23132,-2.7737 -2.9461,1.5768 -2.951,1.6243 -0.3533,3.4438 1.4488,1.0148 5.55732,2.5799 9.13022,3.4781 15.3998,3.8716 7.0126,4.7098 -12.17052,1.2165 -4.4,-0.8013 -11.3,-2.0329 -15.3333,-2.7369 -4.0334,-0.704 -11.8334,-2.267 -17.3334,-3.4733 -14.4567,-3.1706 -41.33334,-1.4144 -41.33334,2.701 0,3.6994 23.63044,12.25 37.00994,13.3918 12.6821,1.0823 20.1098,3.1383 17.4829,4.8392 -1.0044,0.6503 -4.2261,1.0835 -7.1595,0.9627 -2.9333,-0.1209 -6.612,0.1946 -8.1748,0.701 -1.5628,0.5065 -13.2628,-0.8746 -26,-3.069 -47.05924,-8.1074 -50.40554,-7.9531 -61.02094,2.8145 -8.0569,8.1724 -12.5563,20.7228 -15.5609,43.4042 -2.3656,17.8579 -1.675,58.5512 1.0782,63.5358 1.045,1.8917 1.626,12.939 1.7614,33.4896 0.1412,21.4212 0.8345,34.0834 2.2996,42 1.1535,6.2333 2.4568,13.7138 2.8962,16.6233 0.4394,2.9095 2.8814,12.9762 5.4267,22.3706 2.5453,9.3944 4.6279,18.1719 4.6279,19.5057 0,2.0344 -2.1378,2.78 -13.2731,4.6294 -14.9102,2.4762 -60.1374,2.8083 -77.0603,0.5659 z" id="path3"/></g></svg>