<svg version="1.1" id="svg1" width="5078.9116" height="5263.5273" viewBox="1199.732349747514 1196.592819476851 722.0541532801753 800.4600295993025" sodipodi:docname="trees3.svg" inkscape:version="1.4.2 (f4327f4, 2025-05-13)" xmlns:inkscape="http://www.inkscape.org/namespaces/inkscape" xmlns:sodipodi="http://sodipodi.sourceforge.net/DTD/sodipodi-0.dtd" xmlns="http://www.w3.org/2000/svg" xmlns:svg="http://www.w3.org/2000/svg"><defs id="defs1"/><g><path d="m 1563.0071,1197.5968 c -0.8593,-0.023 -1.7528,0.054 -2.7409,0.2225 -1.9762,0.3361 -4.6233,1.0151 -7.1851,2.1335 -2.562,1.1182 -4.8583,2.5588 -5.8991,2.9805 -1.0406,0.4215 -0.8418,0.2941 -2.4085,-0.098 -1.5664,-0.3917 -3.9127,-0.968 -5.9653,-1.446 -2.0526,-0.478 -3.9309,-0.8827 -6.5245,-1.1266 -2.5933,-0.2437 -5.8455,-0.332 -9.4248,-0.3413 -3.5796,0 -7.5036,0.063 -10.9286,0.3501 -3.425,0.288 -6.3321,0.7958 -9.0438,1.5747 -2.7115,0.7789 -5.1511,1.7986 -7.3715,2.7144 -2.2202,0.9158 -4.4378,1.8208 -6.9234,3.2512 -2.4858,1.4302 -5.1745,3.3469 -8.1609,5.8945 -2.9867,2.5475 -6.2629,5.7129 -9.1501,8.8662 -2.8874,3.1531 -5.3784,6.2958 -7.8373,9.9128 -2.4589,3.6171 -4.8907,7.7042 -6.7948,11.4076 -1.9042,3.7036 -3.2483,6.9613 -4.3467,9.4785 -1.0983,2.5168 -2.01,4.2319 -2.6967,4.9187 -0.6865,0.6866 -1.7018,1.0051 -3.5969,1.8274 -1.8952,0.8222 -4.0239,1.9649 -5.9745,2.9493 -1.9504,0.9844 -3.6656,1.7327 -4.8698,1.916 -1.2045,0.184 -2.4517,-0.071 -4.0717,-0.377 -1.6201,-0.3068 -3.5019,-0.5833 -6.3381,-0.4347 -2.8361,0.1477 -6.6162,0.6754 -9.7531,1.4328 -3.1373,0.7571 -5.5385,1.7529 -7.5623,2.8297 -2.0239,1.0766 -3.7706,2.29 -5.4644,3.7744 -1.6936,1.4845 -3.3196,3.2013 -4.2445,4.045 -0.925,0.8438 -0.7858,0.7173 -1.1309,0.7718 -0.3454,0.054 -0.7857,0.086 -2.4262,-0.3549 -1.6407,-0.442 -4.4648,-1.4098 -7.7353,-2.0756 -3.2704,-0.6658 -6.9507,-1.0194 -10.9286,-0.7939 -3.9777,0.2248 -8.1035,1.0124 -10.1257,1.3925 -2.0224,0.3804 -1.952,0.3663 -2.2488,0.4126 -0.2968,0.045 -1.0975,0.1794 -2.4306,0.5766 -1.333,0.3978 -3.318,1.0786 -5.4952,2.0935 -2.1774,1.0146 -4.4805,2.3334 -6.5688,3.801 -2.0883,1.4676 -3.9618,3.1014 -5.9699,5.2646 -2.0081,2.1635 -4.1689,4.8554 -5.8811,7.3849 -1.7123,2.5295 -2.9788,4.7152 -3.6991,5.3978 -0.7205,0.6825 -1.2319,0.7075 -3.1269,0.8914 -1.8951,0.1839 -4.4376,0.4071 -6.7551,0.7673 -2.3174,0.3604 -4.5519,0.8914 -6.8037,2.1247 -2.252,1.233 -4.3999,3.069 -6.4446,5.3311 -2.0446,2.262 -3.9333,4.8983 -5.2957,6.8526 -1.3625,1.9543 -1.6974,2.6367 -3.5394,3.4462 -1.8421,0.8096 -5.6576,1.6078 -9.0523,2.7099 -3.395,1.1023 -6.1739,2.5189 -8.4584,3.7701 -2.2842,1.2513 -4.2908,2.4599 -6.3069,4.1737 -2.0161,1.7136 -3.9377,3.8212 -5.5442,5.6638 -1.6063,1.8428 -3.0118,3.5593 -4.2356,5.7217 -1.2239,2.1621 -2.3036,4.9073 -2.8077,8.999 -0.5039,4.0919 -0.4914,9.4666 -0.1953,13.8071 0.2964,4.3408 0.8922,7.5677 1.1754,9.6024 0.1408,1.0176 0.1499,1.6162 0.1022,1.863 -0.05,0.2467 -0.045,0.3184 -0.5366,0.754 -0.9812,0.8708 -3.9602,2.4434 -6.4668,3.6414 -2.5065,1.1979 -4.5427,2.1323 -6.3069,2.8963 -1.7645,0.7639 -3.4082,1.4201 -5.5352,2.5769 -2.1274,1.1566 -4.7957,2.8368 -7.1454,5.2381 -2.3496,2.4012 -4.161,5.2858 -5.6594,7.7928 -1.4988,2.5072 -2.8335,4.9078 -3.6859,7.8861 -0.8523,2.9782 -1.1886,6.3752 -1.1886,10.4273 0,4.0522 0.3363,8.7387 0.5412,11.4653 0.1021,1.3635 0.093,2.0572 0.052,2.2089 -0.039,0.1521 -0.023,0.2158 -0.7851,0.825 -1.5381,1.2168 -5.3915,3.4556 -8.2408,5.1669 -2.8492,1.7116 -4.8971,3.07 -7.0211,5.194 -2.1237,2.1237 -4.2434,4.8764 -5.6949,6.5953 -1.4515,1.7186 -2.4585,2.6481 -3.4286,4.2045 -0.9699,1.5565 -1.7081,3.4794 -2.3374,6.0454 -0.6291,2.5658 -1.157,5.7835 -1.437,8.7376 -0.2798,2.954 -0.305,5.7352 0.2662,8.6932 0.5712,2.958 1.7106,6.0128 3.424,9.4205 1.7135,3.4079 4.029,7.2345 6.8394,10.7158 2.8102,3.4813 6.0062,6.4795 8.072,8.3473 2.0661,1.8678 2.7358,2.5212 2.8698,2.8252 0.1339,0.3043 0.2021,1.3053 0.1453,3.4641 -0.057,2.1587 -0.1226,5.2684 0.2661,8.3738 0.3893,3.1056 1.2182,6.0192 2.1953,8.9415 0.9774,2.9225 2.1258,5.9527 3.4374,8.3829 1.3117,2.4302 2.7326,4.1007 4.2668,5.8501 1.5345,1.7495 3.37,3.8186 5.3979,5.4154 2.0279,1.5971 4.0837,2.5416 6.9235,3.717 2.8397,1.1752 6.6988,2.6865 10.6447,3.8809 3.9461,1.1943 7.9251,2.0599 11.4829,2.3949 3.5581,0.3351 6.6367,0.1113 9.9042,-0.4079 3.2674,-0.519 6.7786,-1.3287 8.9416,-1.8185 0.9654,-0.218 1.5147,-0.3138 1.8051,-0.3461 -0.029,0.079 0.7054,1.5569 2.3552,3.7568 1.7624,2.3501 4.5143,5.1126 7.4912,7.7176 2.9771,2.6049 6.115,4.9727 8.4138,6.777 2.2988,1.8042 3.8721,3.1483 5.5752,4.249 1.7032,1.1009 3.4286,1.8539 5.2203,2.3463 1.7918,0.4925 3.2717,0.7302 4.2491,1.2684 0.9776,0.5383 2.121,1.7677 3.4286,2.8344 1.3073,1.0666 2.6312,1.5882 3.8143,1.9247 1.1829,0.3366 2.4912,0.6153 3.3664,0.8208 0.8752,0.2066 0.3785,-0.2044 1.3394,0.9846 0.961,1.189 2.7225,3.8764 4.1605,5.7969 1.4376,1.9202 2.5656,3.0372 3.4728,3.9164 0.4535,0.4396 0.6831,0.7082 0.7363,0.8073 0.052,0.098 0.093,0.048 0,0.4834 -0.1681,0.8723 -1.528,3.575 -3.2024,6.3292 -1.6743,2.7538 -3.6505,5.8121 -5.2735,9.2343 -1.6233,3.4222 -2.8647,7.1507 -3.2424,10.9374 -0.3776,3.7868 0.1341,7.4447 1.0735,10.7956 0.939,3.3509 2.3322,6.5181 4.3464,9.1412 2.0145,2.6228 4.592,4.5638 7.7619,6.2715 3.17,1.7075 7.0797,3.2835 11.6471,4.3598 4.5677,1.0764 9.649,1.6389 13.2484,1.7077 3.5993,0.068 5.733,-0.4176 7.2606,-0.7542 1.5274,-0.3362 2.1017,-0.48 3.1225,-0.031 1.0205,0.4491 3.0425,2.1057 6.4311,4.595 3.3884,2.4894 8.1533,5.7245 12.3656,7.8062 4.2123,2.0815 7.7069,2.8817 10.7867,3.5703 3.0798,0.6885 6.0542,1.338 8.8973,1.6811 2.8432,0.3432 5.4054,0.3625 7.8859,0.3902 2.4807,0.028 4.4573,0.073 6.5333,1.2065 2.0758,1.1343 4.8147,3.8837 8.3782,6.8437 3.5635,2.9599 7.8411,5.9395 11.6693,8.1654 3.8283,2.2259 7.2247,3.6856 10.9421,4.799 3.7172,1.1133 7.81,1.901 12.9465,2.4129 5.1367,0.5116 11.2858,0.7507 15.5015,0.927 4.2157,0.1771 6.5867,0.2968 8.9638,0.2089 2.3772,-0.088 4.7005,-0.3849 6.9546,-0.936 2.254,-0.551 4.343,-1.3053 5.4244,-1.5345 0.5405,-0.1135 0.647,-0.1226 1.051,-0.043 0.4042,0.077 1.1436,0.3268 2.3908,0.847 2.4941,1.0408 6.8555,3.0448 10.7067,4.8968 3.7456,1.801 7.0616,3.4711 10.179,4.6303 -0.3422,0.7862 -0.4912,1.5247 -0.5588,2.2 -0.087,0.8682 -0.079,1.6661 -0.079,2.1467 0,0.9652 0.031,1.3512 0.1816,2.2221 0.1499,0.8688 0.4199,2.3171 0.5857,11.2746 0.1658,8.9575 0.2021,25.2268 0.218,37.5936 0.023,12.3674 0.023,16.5858 0.023,21.2408 0,4.6528 0.023,13.9521 -0.066,20.6373 -0.084,6.6857 -0.2666,10.7894 -0.3415,14.9872 -0.075,4.197 -0.043,8.3589 -0.2225,13.7316 -0.1794,5.3731 -0.5678,12.0159 -0.9181,18.4242 -0.3505,6.409 -0.6604,12.5678 -0.9893,19.2138 -0.3288,6.6459 -0.6824,13.7726 -1.1177,19.1696 -0.4353,5.3968 -0.9528,9.1165 -1.5167,13.4788 -0.5642,4.3626 -1.1581,9.2536 -1.9827,14.4369 -0.8244,5.183 -1.8862,10.6465 -3.3353,15.08 -1.4495,4.4346 -3.3395,8.0421 -4.9321,11.3678 -1.5928,3.3259 -2.7784,6.1429 -3.761,7.9127 -0.9824,1.7687 -1.8006,2.6682 -3.2955,4.2579 -1.4952,1.5894 -3.4924,3.664 -4.666,4.9364 -1.1738,1.2726 -1.7408,2.0574 -2.0535,2.8563 -0.3105,0.7932 -0.4213,1.2471 -0.59,1.5258 -0.1681,0.2786 -0.5848,0.7401 -2.6878,2.5282 -2.104,1.7888 -5.7258,4.794 -8.8263,7.3935 -3.1002,2.5995 -5.6601,4.7609 -7.1674,6.3072 -0.7534,0.7727 -1.3147,1.3784 -1.6722,2.3594 -0.3573,0.9812 -0.057,2.3437 0.3461,2.9851 0.8054,1.2853 2.7954,2.5613 5.176,2.1201 2.3814,-0.4415 4.334,-1.8135 7.2073,-3.1182 2.8736,-1.3046 6.6898,-2.7123 9.3008,-3.7744 2.6116,-1.0623 3.7645,-1.6798 8.3385,-3.3664 4.5731,-1.686 12.5873,-4.4409 18.3221,-6.0541 5.7344,-1.613 9.2196,-2.1106 12.4144,-2.4217 3.1952,-0.3111 5.8914,-0.4122 9.5627,-0.1862 3.6725,0.2271 8.3258,0.7923 11.6072,1.5169 3.2814,0.7247 5.2401,1.5765 7.7442,2.8784 2.5032,1.3019 5.3363,2.9719 7.8504,4.8656 2.5148,1.8941 4.8111,4.081 7.3138,6.6264 2.5026,2.5452 5.1617,5.4081 6.9811,7.1453 1.8183,1.7359 3.053,2.4653 4.0983,2.7764 1.0478,0.3118 2.3549,0.52 3.7036,-0.2439 0.6722,-0.381 1.2122,-1.0201 1.5436,-1.6366 0.331,-0.6166 0.5392,-1.2467 0.7582,-2.0182 0.4378,-1.5414 0.8886,-3.5963 1.5435,-5.2114 0.6556,-1.6162 1.6093,-3.0684 2.1335,-3.8544 0.367,-0.5502 0.6728,-1.1313 1.0023,-1.672 0.3295,-0.5407 0.6978,-1.0216 0.7983,-1.1177 0.5052,-0.4819 1.6741,-1.2313 3.0738,-2.1644 1.3997,-0.9331 2.6442,-1.7152 3.5748,-1.8497 0.9323,-0.1339 2.5264,0.2542 5.2426,1.1489 2.7155,0.8945 6.2683,2.1033 9.6201,3.4817 3.352,1.3784 6.5817,2.9587 8.7951,4.1205 1.1073,0.5811 1.9739,1.0655 2.7412,1.4459 0.7672,0.3801 1.3512,0.8007 2.6124,0.7407 0.6286,-0.029 1.3612,-0.3113 1.8583,-0.7895 0.4973,-0.4782 0.7416,-1.0596 0.8427,-1.5567 0.2021,-0.9946 -0.023,-1.7822 -0.3681,-2.5238 -0.7112,-1.4846 -1.5749,-2.0411 -2.4394,-3.1845 -0.865,-1.1441 -2.0354,-3.083 -3.2244,-4.7548 -1.1886,-1.6709 -2.217,-2.8318 -3.0293,-4.1203 -0.8132,-1.2899 -1.6239,-3.0422 -2.7855,-5.216 -1.162,-2.1748 -2.5854,-4.5858 -3.7699,-7.0165 -1.1841,-2.4296 -2.1937,-5.0071 -2.9585,-7.03 -0.7642,-2.0224 -1.2728,-3.54 -2.1112,-4.9232 -0.8384,-1.3837 -1.2833,-1.5142 -2.4526,-4.7945 -1.1695,-3.281 -2.8793,-9.5248 -4.7813,-18.0917 -1.9021,-8.5676 -4.0167,-19.4969 -5.8103,-30.5461 -1.7936,-11.0489 -3.2712,-22.2546 -4.5595,-31.4818 -1.2883,-9.2271 -2.3756,-16.3867 -3.1401,-24.7668 -0.7649,-8.3804 -1.2138,-18.0729 -1.3574,-24.1769 -0.143,-6.1034 0.034,-8.6766 -0.2527,-11.372 -0.2855,-2.6941 -0.9372,-4.75 -1.4904,-11.0706 -0.5529,-6.321 -1.0058,-16.9069 -1.0378,-28.1378 -0.032,-11.2308 0.3534,-23.1753 0.5147,-32.4974 0.1611,-9.322 0.1679,-15.8726 -0.7097,-19.8925 -0.1477,-0.6764 -0.3947,-1.2226 -0.6254,-1.7917 0.2841,-0.05 0.7085,-0.05 0.9757,-0.1022 1.7191,-0.3304 3.4328,-0.7828 5.735,-1.9339 2.3022,-1.1511 5.2129,-2.9449 7.2738,-4.4929 2.0608,-1.5481 3.2131,-2.7825 3.5306,-3.0028 0.1589,-0.1113 -0.034,-0.045 0.2661,-0.074 0.3009,-0.029 1.0316,-0.023 2.2532,0.05 2.4428,0.1362 6.7901,0.4431 11.3675,0.4524 4.5774,0 9.3154,-0.2728 13.2571,-0.7097 3.9421,-0.4369 7.2206,-1.0558 10.7825,-2.4172 3.5616,-1.3615 7.3097,-3.4001 10.7998,-5.451 3.4903,-2.0508 6.7974,-4.1665 9.74,-6.573 2.9424,-2.4067 5.4068,-5.0121 6.8347,-6.4402 1.4281,-1.4282 1.1829,-1.3474 2.3551,-1.5833 1.1725,-0.2359 3.5728,-0.4237 6.316,-0.59 2.7432,-0.1657 5.8766,-0.329 8.538,-0.6076 2.6616,-0.2786 4.8116,-0.6772 7.7174,-1.3262 2.9059,-0.6488 6.7636,-1.5822 10.667,-3.2732 3.9034,-1.6912 7.6815,-4.0644 11.1726,-6.6397 3.491,-2.5754 6.5843,-5.1254 9.0834,-5.9388 2.4989,-0.8136 5.324,-0.3152 8.2364,0.062 2.9125,0.3772 5.5289,0.461 8.7687,0.05 3.2396,-0.4124 7.0826,-1.2842 10.1079,-2.1955 3.0255,-0.9116 5.2832,-1.9091 7.5045,-3.3 2.2217,-1.3909 4.4347,-3.1611 6.3338,-5.0207 1.8992,-1.8596 3.461,-3.7638 4.4575,-5.5884 0.9962,-1.8249 1.2817,-3.4918 1.6189,-6.0011 0.337,-2.5095 0.8361,-6.4086 0.5144,-10.4097 -0.3216,-4.0011 -1.4504,-7.8603 -2.9538,-11.1459 -1.5035,-3.2855 -3.3475,-5.9063 -4.6659,-7.815 -1.3188,-1.9087 -2.1851,-3.2035 -2.9497,-4.5329 -0.7646,-1.3294 -1.1486,-2.7632 -1.1574,-2.6613 0,0.052 -0.082,0.1091 0.1953,-0.2305 0.2775,-0.3395 0.8581,-0.9186 1.57,-1.7476 1.4238,-1.6577 3.1134,-4.0285 4.413,-5.9123 1.2999,-1.8834 2.0545,-2.9489 2.8475,-3.4683 0.7932,-0.5195 2.3256,-0.9144 3.7966,-1.2996 1.4714,-0.3851 2.8616,-0.8704 4.2403,-1.8585 1.3786,-0.9878 2.3195,-1.9889 4.1514,-2.8386 1.8319,-0.8496 4.9809,-1.633 7.5667,-2.8563 2.5859,-1.2231 4.1867,-2.8182 5.6993,-4.249 1.5129,-1.4307 3.1997,-2.959 5.6683,-4.9631 2.4689,-2.0043 5.7719,-4.5117 8.1743,-6.7949 2.4023,-2.2831 3.7589,-4.2604 4.6483,-5.5575 0.4446,-0.6483 0.5931,-0.805 0.7096,-0.8736 0.1158,-0.068 0.4964,-0.2355 1.712,-0.2044 2.4313,0.063 7.7153,1.0273 12.0597,1.5346 4.3442,0.5071 7.8221,0.5156 11.1726,0.041 3.3502,-0.4759 6.5474,-1.4234 10.1835,-2.7812 3.6359,-1.3575 7.756,-3.1326 10.7867,-4.7013 3.0307,-1.5685 5.0373,-3.0104 7.0077,-4.9408 1.9704,-1.9307 4.016,-4.4089 5.9388,-7.3803 1.9228,-2.9717 3.7769,-6.5264 4.9187,-10.8756 1.1421,-4.3493 1.5424,-9.2534 1.6101,-12.6628 0.068,-3.4093 -0.077,-4.9619 0.2395,-5.7792 0.3161,-0.8172 1.5619,-2.1503 3.8144,-4.4309 2.2525,-2.2806 5.2664,-5.4376 7.7574,-8.6044 2.4909,-3.167 4.3957,-6.2745 5.9564,-9.3673 1.5611,-3.093 2.8403,-6.2986 3.5663,-9.9974 0.7257,-3.6988 0.897,-7.7205 0.6962,-10.7333 -0.2021,-3.013 -0.8518,-5.0463 -1.65,-7.0656 -0.798,-2.0193 -1.8288,-4.3483 -3.0602,-6.4178 -1.2318,-2.0697 -2.5983,-3.7489 -4.2802,-5.7128 -1.6818,-1.9637 -3.8771,-4.4419 -7.1097,-6.928 -3.2328,-2.4859 -7.3249,-4.8754 -9.7357,-6.227 -2.4105,-1.3519 -2.9725,-1.6495 -3.0559,-1.7343 -0.041,-0.043 0.077,0.2378 0.023,-0.079 -0.063,-0.3177 -0.1272,-1.1483 -0.052,-2.6124 0.1477,-2.9279 0.8083,-8.4354 0.8474,-12.7737 0.039,-4.338 -0.596,-7.4542 -1.4682,-10.1302 -0.8722,-2.6762 -2.0258,-5.1094 -3.6148,-7.5667 -1.5889,-2.4574 -3.5836,-4.9234 -5.451,-6.8792 -1.8673,-1.9558 -3.672,-3.4276 -5.9034,-4.7724 -2.2313,-1.3448 -4.8876,-2.5897 -8.1165,-3.9209 -3.229,-1.3312 -7.0303,-2.7501 -9.354,-3.7522 -2.324,-1.0023 -2.9413,-1.5955 -2.9805,-1.6589 -0.023,-0.032 -0.023,0.054 -0.023,-0.2089 0,-0.264 0.068,-0.8247 0.227,-1.6543 0.3178,-1.6593 0.934,-4.3254 1.3305,-7.5845 0.3966,-3.259 0.5664,-7.0093 0.5278,-10.0859 -0.039,-3.0766 -0.2975,-5.5145 -0.8293,-7.9965 -0.5318,-2.4824 -1.3276,-5.0533 -2.4263,-7.2919 -1.0984,-2.2386 -2.442,-3.9881 -3.832,-5.6638 -1.39,-1.6756 -2.9549,-3.439 -4.7414,-5.0874 -1.7865,-1.6483 -3.7245,-3.1171 -5.5176,-4.3156 -1.7929,-1.1983 -3.5523,-2.1794 -6.0407,-3.1845 -2.4887,-1.0051 -5.7034,-2.0563 -8.3828,-2.7454 -2.6793,-0.6893 -4.1725,-0.9202 -5.522,-1.9782 -1.3497,-1.0578 -3.135,-3.5846 -5.0696,-6.0319 -1.9346,-2.4474 -3.9879,-4.6247 -6.0807,-6.4314 -2.0931,-1.8065 -4.3717,-3.3427 -7.2784,-4.2799 -2.9066,-0.9374 -6.1754,-1.2563 -8.6312,-1.4726 -2.4555,-0.2158 -4.0422,-0.4325 -4.4486,-0.6253 -0.4063,-0.193 -0.6491,-0.5527 -1.184,-1.5215 -0.5353,-0.9687 -1.1784,-2.1289 -2.7236,-4.2401 -1.5448,-2.1113 -4.0364,-5.2653 -6.8257,-8.1032 -2.7895,-2.8379 -5.7715,-5.2546 -8.2897,-6.9103 -2.5184,-1.6557 -4.6495,-2.5502 -7.7218,-3.5394 -3.0723,-0.9892 -7.3036,-2.1776 -11.1148,-2.8032 -3.8115,-0.6253 -7.2026,-0.648 -10.9464,-0.023 -3.744,0.6307 -7.7873,1.8611 -10.472,2.5638 -2.6846,0.7027 -4.0212,0.8405 -4.5771,0.7717 -0.5562,-0.068 -0.6379,-0.134 -1.6367,-1.0734 -0.9986,-0.9384 -2.5079,-2.5127 -4.3509,-4.0272 -1.8433,-1.5144 -3.9662,-2.9231 -6.2407,-4.0095 -2.2743,-1.0863 -4.6374,-1.8062 -7.4201,-2.4128 -2.7829,-0.6068 -6.1153,-1.1404 -9.4251,-1.1 -3.3097,0.041 -6.3473,0.6529 -8.1522,1.0158 -0.9024,0.1817 -1.4449,0.2725 -1.6943,0.2793 -0.2493,0 -0.2622,0.023 -0.6385,-0.1499 -0.7526,-0.3383 -2.523,-1.5648 -4.3201,-2.6744 -1.797,-1.1098 -3.6246,-2.0502 -5.4243,-2.7055 -1.7999,-0.6554 -3.3486,-1.063 -3.6724,-1.2509 -0.1613,-0.093 -0.1045,0 -0.3104,-0.3549 -0.2044,-0.3447 -0.5428,-1.0875 -1.0513,-2.2664 -1.0169,-2.3573 -2.7205,-6.3475 -4.5595,-10.0636 -1.8391,-3.7162 -3.7873,-7.1003 -5.6017,-10.0016 -1.8147,-2.9015 -3.5192,-5.3561 -5.726,-8.2231 -2.2069,-2.8672 -4.9331,-6.1798 -7.6643,-9.0258 -2.7312,-2.8463 -5.4494,-5.1942 -8.3561,-7.2385 -2.9068,-2.0445 -5.9542,-3.758 -8.3785,-4.9986 -2.4239,-1.2408 -4.2488,-2.0168 -6.0053,-2.7455 -1.7566,-0.7287 -3.7186,-1.5174 -6.6484,-2.129 -2.9299,-0.6114 -6.8041,-1.0615 -11.7582,-1.2508 -4.9539,-0.1885 -10.9295,-0.118 -14.9247,0.1204 -3.9954,0.2384 -5.9976,0.6597 -7.8684,0.9536 -1.8705,0.2941 -3.9127,0.5116 -5.5795,0.6876 -1.6669,0.1771 -2.5212,0.2457 -3.424,-0.032 -0.903,-0.2768 -2.4274,-1.2022 -4.2756,-2.1112 -1.8483,-0.909 -3.8172,-1.6398 -5.5045,-2.0535 -0.8433,-0.2067 -1.6686,-0.3248 -2.5278,-0.3461 z" id="path72" style="fill:#ffffff"/><path id="path22" style="fill:#1a1a1a;stroke-width:2.27088;stroke-linecap:round" d="m 1563.0071,1197.5968 c -0.8593,-0.023 -1.7528,0.054 -2.7409,0.2225 -1.9762,0.3361 -4.6233,1.0151 -7.1851,2.1335 -2.562,1.1182 -4.8583,2.5588 -5.8991,2.9805 -1.0406,0.4215 -0.8418,0.2941 -2.4085,-0.098 -1.5664,-0.3917 -3.9127,-0.968 -5.9653,-1.446 -2.0526,-0.478 -3.9309,-0.8827 -6.5245,-1.1266 -2.5933,-0.2437 -5.8455,-0.332 -9.4248,-0.3413 -3.5796,0 -7.5036,0.063 -10.9286,0.3501 -3.425,0.288 -6.3321,0.7958 -9.0438,1.5747 -2.7115,0.7789 -5.1511,1.7986 -7.3715,2.7144 -2.2202,0.9158 -4.4378,1.8208 -6.9234,3.2512 -2.4858,1.4302 -5.1745,3.3469 -8.1609,5.8945 -2.9867,2.5475 -6.2629,5.7129 -9.1501,8.8662 -2.8874,3.1531 -5.3784,6.2958 -7.8373,9.9128 -2.4589,3.6171 -4.8907,7.7042 -6.7948,11.4076 -1.9042,3.7036 -3.2483,6.9613 -4.3467,9.4785 -1.0983,2.5168 -2.01,4.2319 -2.6967,4.9187 -0.6865,0.6866 -1.7018,1.0051 -3.5969,1.8274 -1.8952,0.8222 -4.0239,1.9649 -5.9745,2.9493 -1.9504,0.9844 -3.6656,1.7327 -4.8698,1.916 -1.2045,0.184 -2.4517,-0.071 -4.0717,-0.377 -1.6201,-0.3068 -3.5019,-0.5833 -6.3381,-0.4347 -2.8361,0.1477 -6.6162,0.6754 -9.7531,1.4328 -3.1373,0.7571 -5.5385,1.7529 -7.5623,2.8297 -2.0239,1.0766 -3.7706,2.29 -5.4644,3.7744 -1.6936,1.4845 -3.3196,3.2013 -4.2445,4.045 -0.925,0.8438 -0.7858,0.7173 -1.1309,0.7718 -0.3454,0.054 -0.7857,0.086 -2.4262,-0.3549 -1.6407,-0.442 -4.4648,-1.4098 -7.7353,-2.0756 -3.2704,-0.6658 -6.9507,-1.0194 -10.9286,-0.7939 -3.9777,0.2248 -8.1035,1.0124 -10.1257,1.3925 -2.0224,0.3804 -1.952,0.3663 -2.2488,0.4126 -0.2968,0.045 -1.0975,0.1794 -2.4306,0.5766 -1.333,0.3978 -3.318,1.0786 -5.4952,2.0935 -2.1774,1.0146 -4.4805,2.3334 -6.5688,3.801 -2.0883,1.4676 -3.9618,3.1014 -5.9699,5.2646 -2.0081,2.1635 -4.1689,4.8554 -5.8811,7.3849 -1.7123,2.5295 -2.9788,4.7152 -3.6991,5.3978 -0.7205,0.6825 -1.2319,0.7075 -3.1269,0.8914 -1.8951,0.1839 -4.4376,0.4071 -6.7551,0.7673 -2.3174,0.3604 -4.5519,0.8914 -6.8037,2.1247 -2.252,1.233 -4.3999,3.069 -6.4446,5.3311 -2.0446,2.262 -3.9333,4.8983 -5.2957,6.8526 -1.3625,1.9543 -1.6974,2.6367 -3.5394,3.4462 -1.8421,0.8096 -5.6576,1.6078 -9.0523,2.7099 -3.395,1.1023 -6.1739,2.5189 -8.4584,3.7701 -2.2842,1.2513 -4.2908,2.4599 -6.3069,4.1737 -2.0161,1.7136 -3.9377,3.8212 -5.5442,5.6638 -1.6063,1.8428 -3.0118,3.5593 -4.2356,5.7217 -1.2239,2.1621 -2.3036,4.9073 -2.8077,8.999 -0.5039,4.0919 -0.4914,9.4666 -0.1953,13.8071 0.2964,4.3408 0.8922,7.5677 1.1754,9.6024 0.1408,1.0176 0.1499,1.6162 0.1022,1.863 -0.05,0.2467 -0.045,0.3184 -0.5366,0.754 -0.9812,0.8708 -3.9602,2.4434 -6.4668,3.6414 -2.5065,1.1979 -4.5427,2.1323 -6.3069,2.8963 -1.7645,0.7639 -3.4082,1.4201 -5.5352,2.5769 -2.1274,1.1566 -4.7957,2.8368 -7.1454,5.2381 -2.3496,2.4012 -4.161,5.2858 -5.6594,7.7928 -1.4988,2.5072 -2.8335,4.9078 -3.6859,7.8861 -0.8523,2.9782 -1.1886,6.3752 -1.1886,10.4273 0,4.0522 0.3363,8.7387 0.5412,11.4653 0.1021,1.3635 0.093,2.0572 0.052,2.2089 -0.039,0.1521 -0.023,0.2158 -0.7851,0.825 -1.5381,1.2168 -5.3915,3.4556 -8.2408,5.1669 -2.8492,1.7116 -4.8971,3.07 -7.0211,5.194 -2.1237,2.1237 -4.2434,4.8764 -5.6949,6.5953 -1.4515,1.7186 -2.4585,2.6481 -3.4286,4.2045 -0.9699,1.5565 -1.7081,3.4794 -2.3374,6.0454 -0.6291,2.5658 -1.157,5.7835 -1.437,8.7376 -0.2798,2.954 -0.305,5.7352 0.2662,8.6932 0.5712,2.958 1.7106,6.0128 3.424,9.4205 1.7135,3.4079 4.029,7.2345 6.8394,10.7158 2.8102,3.4813 6.0062,6.4795 8.072,8.3473 2.0661,1.8678 2.7358,2.5212 2.8698,2.8252 0.1339,0.3043 0.2021,1.3053 0.1453,3.4641 -0.057,2.1587 -0.1226,5.2684 0.2661,8.3738 0.3893,3.1056 1.2182,6.0192 2.1953,8.9415 0.9774,2.9225 2.1258,5.9527 3.4374,8.3829 1.3117,2.4302 2.7326,4.1007 4.2668,5.8501 1.5345,1.7495 3.37,3.8186 5.3979,5.4154 2.0279,1.5971 4.0837,2.5416 6.9235,3.717 2.8397,1.1752 6.6988,2.6865 10.6447,3.8809 3.9461,1.1943 7.9251,2.0599 11.4829,2.3949 3.5581,0.3351 6.6367,0.1113 9.9042,-0.4079 3.2674,-0.519 6.7786,-1.3287 8.9416,-1.8185 0.9654,-0.218 1.5147,-0.3138 1.8051,-0.3461 -0.029,0.079 0.7054,1.5569 2.3552,3.7568 1.7624,2.3501 4.5143,5.1126 7.4912,7.7176 2.9771,2.6049 6.115,4.9727 8.4138,6.777 2.2988,1.8042 3.8721,3.1483 5.5752,4.249 1.7032,1.1009 3.4286,1.8539 5.2203,2.3463 1.7918,0.4925 3.2717,0.7302 4.2491,1.2684 0.9776,0.5383 2.121,1.7677 3.4286,2.8344 1.3073,1.0666 2.6312,1.5882 3.8143,1.9247 1.1829,0.3366 2.4912,0.6153 3.3664,0.8208 0.8752,0.2066 0.3785,-0.2044 1.3394,0.9846 0.961,1.189 2.7225,3.8764 4.1605,5.7969 1.4376,1.9202 2.5656,3.0372 3.4728,3.9164 0.4535,0.4396 0.6831,0.7082 0.7363,0.8073 0.052,0.098 0.093,0.048 0,0.4834 -0.1681,0.8723 -1.528,3.575 -3.2024,6.3292 -1.6743,2.7538 -3.6505,5.8121 -5.2735,9.2343 -1.6233,3.4222 -2.8647,7.1507 -3.2424,10.9374 -0.3776,3.7868 0.1341,7.4447 1.0735,10.7956 0.939,3.3509 2.3322,6.5181 4.3464,9.1412 2.0145,2.6228 4.592,4.5638 7.7619,6.2715 3.17,1.7075 7.0797,3.2835 11.6471,4.3598 4.5677,1.0764 9.649,1.6389 13.2484,1.7077 3.5993,0.068 5.733,-0.4176 7.2606,-0.7542 1.5274,-0.3362 2.1017,-0.48 3.1225,-0.031 1.0205,0.4491 3.0425,2.1057 6.4311,4.595 3.3884,2.4894 8.1533,5.7245 12.3656,7.8062 4.2123,2.0815 7.7069,2.8817 10.7867,3.5703 3.0798,0.6885 6.0542,1.338 8.8973,1.6811 2.8432,0.3432 5.4054,0.3625 7.8859,0.3902 2.4807,0.028 4.4573,0.073 6.5333,1.2065 2.0758,1.1343 4.8147,3.8837 8.3782,6.8437 3.5635,2.9599 7.8411,5.9395 11.6693,8.1654 3.8283,2.2259 7.2247,3.6856 10.9421,4.799 3.7172,1.1133 7.81,1.901 12.9465,2.4129 5.1367,0.5116 11.2858,0.7507 15.5015,0.927 4.2157,0.1771 6.5867,0.2968 8.9638,0.2089 2.3772,-0.088 4.7005,-0.3849 6.9546,-0.936 2.254,-0.551 4.343,-1.3053 5.4244,-1.5345 0.5405,-0.1135 0.647,-0.1226 1.051,-0.043 0.4042,0.077 1.1436,0.3268 2.3908,0.847 2.4941,1.0408 6.8555,3.0448 10.7067,4.8968 3.7456,1.801 7.0616,3.4711 10.179,4.6303 -0.3422,0.7862 -0.4912,1.5247 -0.5588,2.2 -0.087,0.8682 -0.079,1.6661 -0.079,2.1467 0,0.9652 0.031,1.3512 0.1816,2.2221 0.1499,0.8688 0.4199,2.3171 0.5857,11.2746 0.1658,8.9575 0.2021,25.2268 0.218,37.5936 0.023,12.3674 0.023,16.5858 0.023,21.2408 0,4.6528 0.023,13.9521 -0.066,20.6373 -0.084,6.6857 -0.2666,10.7894 -0.3415,14.9872 -0.075,4.197 -0.043,8.3589 -0.2225,13.7316 -0.1794,5.3731 -0.5678,12.0159 -0.9181,18.4242 -0.3505,6.409 -0.6604,12.5678 -0.9893,19.2138 -0.3288,6.6459 -0.6824,13.7726 -1.1177,19.1696 -0.4353,5.3968 -0.9528,9.1165 -1.5167,13.4788 -0.5642,4.3626 -1.1581,9.2536 -1.9827,14.4369 -0.8244,5.183 -1.8862,10.6465 -3.3353,15.08 -1.4495,4.4346 -3.3395,8.0421 -4.9321,11.3678 -1.5928,3.3259 -2.7784,6.1429 -3.761,7.9127 -0.9824,1.7687 -1.8006,2.6682 -3.2955,4.2579 -1.4952,1.5894 -3.4924,3.664 -4.666,4.9364 -1.1738,1.2726 -1.7408,2.0574 -2.0535,2.8563 -0.3105,0.7932 -0.4213,1.2471 -0.59,1.5258 -0.1681,0.2786 -0.5848,0.7401 -2.6878,2.5282 -2.104,1.7888 -5.7258,4.794 -8.8263,7.3935 -3.1002,2.5995 -5.6601,4.7609 -7.1674,6.3072 -0.7534,0.7727 -1.3147,1.3784 -1.6722,2.3594 -0.3573,0.9812 -0.057,2.3437 0.3461,2.9851 0.8054,1.2853 2.7954,2.5613 5.176,2.1201 2.3814,-0.4415 4.334,-1.8135 7.2073,-3.1182 2.8736,-1.3046 6.6898,-2.7123 9.3008,-3.7744 2.6116,-1.0623 3.7645,-1.6798 8.3385,-3.3664 4.5731,-1.686 12.5873,-4.4409 18.3221,-6.0541 5.7344,-1.613 9.2196,-2.1106 12.4144,-2.4217 3.1952,-0.3111 5.8914,-0.4122 9.5627,-0.1862 3.6725,0.2271 8.3258,0.7923 11.6072,1.5169 3.2814,0.7247 5.2401,1.5765 7.7442,2.8784 2.5032,1.3019 5.3363,2.9719 7.8504,4.8656 2.5148,1.8941 4.8111,4.081 7.3138,6.6264 2.5026,2.5452 5.1617,5.4081 6.9811,7.1453 1.8183,1.7359 3.053,2.4653 4.0983,2.7764 1.0478,0.3118 2.3549,0.52 3.7036,-0.2439 0.6722,-0.381 1.2122,-1.0201 1.5436,-1.6366 0.331,-0.6166 0.5392,-1.2467 0.7582,-2.0182 0.4378,-1.5414 0.8886,-3.5963 1.5435,-5.2114 0.6556,-1.6162 1.6093,-3.0684 2.1335,-3.8544 0.367,-0.5502 0.6728,-1.1313 1.0023,-1.672 0.3295,-0.5407 0.6978,-1.0216 0.7983,-1.1177 0.5052,-0.4819 1.6741,-1.2313 3.0738,-2.1644 1.3997,-0.9331 2.6442,-1.7152 3.5748,-1.8497 0.9323,-0.1339 2.5264,0.2542 5.2426,1.1489 2.7155,0.8945 6.2683,2.1033 9.6201,3.4817 3.352,1.3784 6.5817,2.9587 8.7951,4.1205 1.1073,0.5811 1.9739,1.0655 2.7412,1.4459 0.7672,0.3801 1.3512,0.8007 2.6124,0.7407 0.6286,-0.029 1.3612,-0.3113 1.8583,-0.7895 0.4973,-0.4782 0.7416,-1.0596 0.8427,-1.5567 0.2021,-0.9946 -0.023,-1.7822 -0.3681,-2.5238 -0.7112,-1.4846 -1.5749,-2.0411 -2.4394,-3.1845 -0.865,-1.1441 -2.0354,-3.083 -3.2244,-4.7548 -1.1886,-1.6709 -2.217,-2.8318 -3.0293,-4.1203 -0.8132,-1.2899 -1.6239,-3.0422 -2.7855,-5.216 -1.162,-2.1748 -2.5854,-4.5858 -3.7699,-7.0165 -1.1841,-2.4296 -2.1937,-5.0071 -2.9585,-7.03 -0.7642,-2.0224 -1.2728,-3.54 -2.1112,-4.9232 -0.8384,-1.3837 -1.2833,-1.5142 -2.4526,-4.7945 -1.1695,-3.281 -2.8793,-9.5248 -4.7813,-18.0917 -1.9021,-8.5676 -4.0167,-19.4969 -5.8103,-30.5461 -1.7936,-11.0489 -3.2712,-22.2546 -4.5595,-31.4818 -1.2883,-9.2271 -2.3756,-16.3867 -3.1401,-24.7668 -0.7649,-8.3804 -1.2138,-18.0729 -1.3574,-24.1769 -0.143,-6.1034 0.034,-8.6766 -0.2527,-11.372 -0.2855,-2.6941 -0.9372,-4.75 -1.4904,-11.0706 -0.5529,-6.321 -1.0058,-16.9069 -1.0378,-28.1378 -0.032,-11.2308 0.3534,-23.1753 0.5147,-32.4974 0.1611,-9.322 0.1679,-15.8726 -0.7097,-19.8925 -0.1477,-0.6764 -0.3947,-1.2226 -0.6254,-1.7917 0.2841,-0.05 0.7085,-0.05 0.9757,-0.1022 1.7191,-0.3304 3.4328,-0.7828 5.735,-1.9339 2.3022,-1.1511 5.2129,-2.9449 7.2738,-4.4929 2.0608,-1.5481 3.2131,-2.7825 3.5306,-3.0028 0.1589,-0.1113 -0.034,-0.045 0.2661,-0.074 0.3009,-0.029 1.0316,-0.023 2.2532,0.05 2.4428,0.1362 6.7901,0.4431 11.3675,0.4524 4.5774,0 9.3154,-0.2728 13.2571,-0.7097 3.9421,-0.4369 7.2206,-1.0558 10.7825,-2.4172 3.5616,-1.3615 7.3097,-3.4001 10.7998,-5.451 3.4903,-2.0508 6.7974,-4.1665 9.74,-6.573 2.9424,-2.4067 5.4068,-5.0121 6.8347,-6.4402 1.4281,-1.4282 1.1829,-1.3474 2.3551,-1.5833 1.1725,-0.2359 3.5728,-0.4237 6.316,-0.59 2.7432,-0.1657 5.8766,-0.329 8.538,-0.6076 2.6616,-0.2786 4.8116,-0.6772 7.7174,-1.3262 2.9059,-0.6488 6.7636,-1.5822 10.667,-3.2732 3.9034,-1.6912 7.6815,-4.0644 11.1726,-6.6397 3.491,-2.5754 6.5843,-5.1254 9.0834,-5.9388 2.4989,-0.8136 5.324,-0.3152 8.2364,0.062 2.9125,0.3772 5.5289,0.461 8.7687,0.05 3.2396,-0.4124 7.0826,-1.2842 10.1079,-2.1955 3.0255,-0.9116 5.2832,-1.9091 7.5045,-3.3 2.2217,-1.3909 4.4347,-3.1611 6.3338,-5.0207 1.8992,-1.8596 3.461,-3.7638 4.4575,-5.5884 0.9962,-1.8249 1.2817,-3.4918 1.6189,-6.0011 0.337,-2.5095 0.8361,-6.4086 0.5144,-10.4097 -0.3216,-4.0011 -1.4504,-7.8603 -2.9538,-11.1459 -1.5035,-3.2855 -3.3475,-5.9063 -4.6659,-7.815 -1.3188,-1.9087 -2.1851,-3.2035 -2.9497,-4.5329 -0.7646,-1.3294 -1.1486,-2.7632 -1.1574,-2.6613 0,0.052 -0.082,0.1091 0.1953,-0.2305 0.2775,-0.3395 0.8581,-0.9186 1.57,-1.7476 1.4238,-1.6577 3.1134,-4.0285 4.413,-5.9123 1.2999,-1.8834 2.0545,-2.9489 2.8475,-3.4683 0.7932,-0.5195 2.3256,-0.9144 3.7966,-1.2996 1.4714,-0.3851 2.8616,-0.8704 4.2403,-1.8585 1.3786,-0.9878 2.3195,-1.9889 4.1514,-2.8386 1.8319,-0.8496 4.9809,-1.633 7.5667,-2.8563 2.5859,-1.2231 4.1867,-2.8182 5.6993,-4.249 1.5129,-1.4307 3.1997,-2.959 5.6683,-4.9631 2.4689,-2.0043 5.7719,-4.5117 8.1743,-6.7949 2.4023,-2.2831 3.7589,-4.2604 4.6483,-5.5575 0.4446,-0.6483 0.5931,-0.805 0.7096,-0.8736 0.1158,-0.068 0.4964,-0.2355 1.712,-0.2044 2.4313,0.063 7.7153,1.0273 12.0597,1.5346 4.3442,0.5071 7.8221,0.5156 11.1726,0.041 3.3502,-0.4759 6.5474,-1.4234 10.1835,-2.7812 3.6359,-1.3575 7.756,-3.1326 10.7867,-4.7013 3.0307,-1.5685 5.0373,-3.0104 7.0077,-4.9408 1.9704,-1.9307 4.016,-4.4089 5.9388,-7.3803 1.9228,-2.9717 3.7769,-6.5264 4.9187,-10.8756 1.1421,-4.3493 1.5424,-9.2534 1.6101,-12.6628 0.068,-3.4093 -0.077,-4.9619 0.2395,-5.7792 0.3161,-0.8172 1.5619,-2.1503 3.8144,-4.4309 2.2525,-2.2806 5.2664,-5.4376 7.7574,-8.6044 2.4909,-3.167 4.3957,-6.2745 5.9564,-9.3673 1.5611,-3.093 2.8403,-6.2986 3.5663,-9.9974 0.7257,-3.6988 0.897,-7.7205 0.6962,-10.7333 -0.2021,-3.013 -0.8518,-5.0463 -1.65,-7.0656 -0.798,-2.0193 -1.8288,-4.3483 -3.0602,-6.4178 -1.2318,-2.0697 -2.5983,-3.7489 -4.2802,-5.7128 -1.6818,-1.9637 -3.8771,-4.4419 -7.1097,-6.928 -3.2328,-2.4859 -7.3249,-4.8754 -9.7357,-6.227 -2.4105,-1.3519 -2.9725,-1.6495 -3.0559,-1.7343 -0.041,-0.043 0.077,0.2378 0.023,-0.079 -0.063,-0.3177 -0.1272,-1.1483 -0.052,-2.6124 0.1477,-2.9279 0.8083,-8.4354 0.8474,-12.7737 0.039,-4.338 -0.596,-7.4542 -1.4682,-10.1302 -0.8722,-2.6762 -2.0258,-5.1094 -3.6148,-7.5667 -1.5889,-2.4574 -3.5836,-4.9234 -5.451,-6.8792 -1.8673,-1.9558 -3.672,-3.4276 -5.9034,-4.7724 -2.2313,-1.3448 -4.8876,-2.5897 -8.1165,-3.9209 -3.229,-1.3312 -7.0303,-2.7501 -9.354,-3.7522 -2.324,-1.0023 -2.9413,-1.5955 -2.9805,-1.6589 -0.023,-0.032 -0.023,0.054 -0.023,-0.2089 0,-0.264 0.068,-0.8247 0.227,-1.6543 0.3178,-1.6593 0.934,-4.3254 1.3305,-7.5845 0.3966,-3.259 0.5664,-7.0093 0.5278,-10.0859 -0.039,-3.0766 -0.2975,-5.5145 -0.8293,-7.9965 -0.5318,-2.4824 -1.3276,-5.0533 -2.4263,-7.2919 -1.0984,-2.2386 -2.442,-3.9881 -3.832,-5.6638 -1.39,-1.6756 -2.9549,-3.439 -4.7414,-5.0874 -1.7865,-1.6483 -3.7245,-3.1171 -5.5176,-4.3156 -1.7929,-1.1983 -3.5523,-2.1794 -6.0407,-3.1845 -2.4887,-1.0051 -5.7034,-2.0563 -8.3828,-2.7454 -2.6793,-0.6893 -4.1725,-0.9202 -5.522,-1.9782 -1.3497,-1.0578 -3.135,-3.5846 -5.0696,-6.0319 -1.9346,-2.4474 -3.9879,-4.6247 -6.0807,-6.4314 -2.0931,-1.8065 -4.3717,-3.3427 -7.2784,-4.2799 -2.9066,-0.9374 -6.1754,-1.2563 -8.6312,-1.4726 -2.4555,-0.2158 -4.0422,-0.4325 -4.4486,-0.6253 -0.4063,-0.193 -0.6491,-0.5527 -1.184,-1.5215 -0.5353,-0.9687 -1.1784,-2.1289 -2.7236,-4.2401 -1.5448,-2.1113 -4.0364,-5.2653 -6.8257,-8.1032 -2.7895,-2.8379 -5.7715,-5.2546 -8.2897,-6.9103 -2.5184,-1.6557 -4.6495,-2.5502 -7.7218,-3.5394 -3.0723,-0.9892 -7.3036,-2.1776 -11.1148,-2.8032 -3.8115,-0.6253 -7.2026,-0.648 -10.9464,-0.023 -3.744,0.6307 -7.7873,1.8611 -10.472,2.5638 -2.6846,0.7027 -4.0212,0.8405 -4.5771,0.7717 -0.5562,-0.068 -0.6379,-0.134 -1.6367,-1.0734 -0.9986,-0.9384 -2.5079,-2.5127 -4.3509,-4.0272 -1.8433,-1.5144 -3.9662,-2.9231 -6.2407,-4.0095 -2.2743,-1.0863 -4.6374,-1.8062 -7.4201,-2.4128 -2.7829,-0.6068 -6.1153,-1.1404 -9.4251,-1.1 -3.3097,0.041 -6.3473,0.6529 -8.1522,1.0158 -0.9024,0.1817 -1.4449,0.2725 -1.6943,0.2793 -0.2493,0 -0.2622,0.023 -0.6385,-0.1499 -0.7526,-0.3383 -2.523,-1.5648 -4.3201,-2.6744 -1.797,-1.1098 -3.6246,-2.0502 -5.4243,-2.7055 -1.7999,-0.6554 -3.3486,-1.063 -3.6724,-1.2509 -0.1613,-0.093 -0.1045,0 -0.3104,-0.3549 -0.2044,-0.3447 -0.5428,-1.0875 -1.0513,-2.2664 -1.0169,-2.3573 -2.7205,-6.3475 -4.5595,-10.0636 -1.8391,-3.7162 -3.7873,-7.1003 -5.6017,-10.0016 -1.8147,-2.9015 -3.5192,-5.3561 -5.726,-8.2231 -2.2069,-2.8672 -4.9331,-6.1798 -7.6643,-9.0258 -2.7312,-2.8463 -5.4494,-5.1942 -8.3561,-7.2385 -2.9068,-2.0445 -5.9542,-3.758 -8.3785,-4.9986 -2.4239,-1.2408 -4.2488,-2.0168 -6.0053,-2.7455 -1.7566,-0.7287 -3.7186,-1.5174 -6.6484,-2.129 -2.9299,-0.6114 -6.8041,-1.0615 -11.7582,-1.2508 -4.9539,-0.1885 -10.9295,-0.118 -14.9247,0.1204 -3.9954,0.2384 -5.9976,0.6597 -7.8684,0.9536 -1.8705,0.2941 -3.9127,0.5116 -5.5795,0.6876 -1.6669,0.1771 -2.5212,0.2457 -3.424,-0.032 -0.903,-0.2768 -2.4274,-1.2022 -4.2756,-2.1112 -1.8483,-0.909 -3.8172,-1.6398 -5.5045,-2.0535 -0.8433,-0.2067 -1.6686,-0.3248 -2.5278,-0.3461 z m -0.1294,4.484 c 0.4976,0 0.9477,0.093 1.5792,0.2485 1.2628,0.3098 3.0391,0.9556 4.586,1.7163 1.547,0.761 3.0652,1.8008 4.9453,2.3774 1.8801,0.5766 3.5521,0.3851 5.2248,0.2089 1.6728,-0.1771 3.7804,-0.4001 5.8058,-0.7185 2.0256,-0.3182 3.6595,-0.6792 7.438,-0.9047 3.7788,-0.2248 9.7137,-0.3018 14.4814,-0.1204 4.7677,0.1817 8.4282,0.6234 11.0084,1.1621 2.5803,0.5386 4.11,1.1576 5.8413,1.8762 1.7313,0.7182 3.3889,1.4277 5.6772,2.5989 2.2884,1.1714 5.1781,2.8001 7.8373,4.6704 2.6591,1.8702 5.1387,4.0067 7.6953,6.6707 2.5564,2.6641 5.2101,5.8847 7.3447,8.6577 2.1347,2.7732 3.7299,5.065 5.4776,7.8595 1.7477,2.7943 3.6243,6.0546 5.3845,9.6113 1.7604,3.5566 3.4336,7.4728 4.4575,9.8463 0.5121,1.1868 0.8591,2.0147 1.3174,2.7855 0.4582,0.7707 1.1593,1.5119 1.9249,1.9558 1.5315,0.8884 2.9853,1.0745 4.3954,1.5879 1.4099,0.5134 2.9969,1.3196 4.5949,2.3065 1.5982,0.9867 3.2025,2.2073 4.8436,2.9449 0.8201,0.369 1.7599,0.5734 2.6121,0.5499 0.8525,-0.023 1.5601,-0.1884 2.4574,-0.368 1.7942,-0.3607 4.5469,-0.8931 7.3226,-0.927 2.7757,-0.034 5.826,0.4358 8.405,0.998 2.5788,0.5621 4.554,1.1771 6.4354,2.0756 1.8817,0.8988 3.7288,2.1185 5.318,3.4241 1.5891,1.3057 2.9757,2.7439 4.1294,3.8278 1.1536,1.0838 2.4802,2.0526 4.169,2.262 1.6892,0.2089 3.4364,-0.1386 6.2806,-0.8827 2.8441,-0.7444 6.775,-1.9225 10.0814,-2.4793 3.3064,-0.5569 6.0362,-0.5399 9.4605,0.023 3.4244,0.5619 7.5424,1.7076 10.463,2.6478 2.9204,0.9404 4.4276,1.5689 6.6219,3.0116 2.1941,1.4427 4.9994,3.7 7.5532,6.2981 2.5539,2.5984 4.9582,5.6406 6.4003,7.611 1.442,1.9705 1.8762,2.7774 2.4173,3.7568 0.5409,0.9794 1.3778,2.5507 3.1978,3.4152 1.82,0.8645 3.6053,0.832 5.992,1.0423 2.387,0.2112 5.4281,0.5589 7.6422,1.2728 2.2139,0.714 3.8678,1.8133 5.7081,3.402 1.8403,1.5885 3.7194,3.568 5.4955,5.8146 1.7758,2.2468 3.481,4.9499 5.8234,6.7861 2.3424,1.8365 4.7439,2.1662 7.1853,2.7943 2.4413,0.6279 5.5726,1.6534 7.815,2.559 2.2426,0.9059 3.5996,1.6666 5.2203,2.7501 1.621,1.0834 3.3916,2.4353 4.9633,3.8853 1.5715,1.4501 3.01,3.0629 4.3287,4.6525 1.3188,1.5899 2.3874,2.9949 3.2556,4.7636 0.8681,1.7688 1.5923,4.0561 2.0624,6.2495 0.47,2.1933 0.696,4.2491 0.7319,7.1096 0.036,2.8603 -0.1271,6.4895 -0.4924,9.4827 -0.3642,2.9933 -0.9362,5.4497 -1.2861,7.2784 -0.1749,0.9142 -0.3098,1.6907 -0.3061,2.5282 0,0.8372 0.2157,1.7926 0.6962,2.5679 0.9626,1.5508 2.497,2.3299 5.034,3.424 2.5373,1.0944 6.3045,2.4941 9.4208,3.779 3.1161,1.2846 5.58,2.4548 7.5045,3.6148 1.9244,1.1598 3.3142,2.2867 4.9719,4.0229 1.6578,1.7363 3.5206,4.0515 4.9187,6.2139 1.3982,2.1622 2.3577,4.1823 3.1182,6.5153 0.7603,2.3334 1.2769,4.785 1.2417,8.6846 -0.034,3.8993 -0.6712,9.2999 -0.8381,12.5873 -0.084,1.6435 -0.059,2.7518 0.1339,3.7212 0.193,0.9694 0.729,1.8869 1.1975,2.364 0.9374,0.9542 1.7468,1.209 4.0674,2.5104 2.3203,1.3013 6.3187,3.6644 9.1897,5.8723 2.8713,2.208 4.7966,4.3664 6.4357,6.2803 1.6391,1.914 2.7959,3.3537 3.8278,5.0875 1.0316,1.7339 1.999,3.8935 2.741,5.7703 0.7419,1.8769 1.1735,3.1464 1.3439,5.6995 0.1703,2.5529 0,6.3639 -0.6255,9.5668 -0.6285,3.203 -1.722,5.9681 -3.1667,8.8307 -1.4447,2.8627 -3.1776,5.6904 -5.4732,8.6089 -2.2957,2.9186 -5.2202,5.9954 -7.4204,8.2231 -2.2003,2.2278 -3.9225,3.679 -4.8122,5.9788 -0.8898,2.2997 -0.4789,4.1971 -0.5412,7.3184 -0.062,3.1213 -0.4719,7.8258 -1.4635,11.6028 -0.9917,3.7769 -2.5915,6.8655 -4.3421,9.5713 -1.7509,2.7058 -3.6017,4.94 -5.3049,6.6087 -1.7029,1.6686 -3.149,2.7144 -5.9253,4.1514 -2.7767,1.437 -6.8202,3.1885 -10.2901,4.4841 -3.4697,1.2955 -6.318,2.1267 -9.2386,2.5413 -2.9209,0.4149 -5.9363,0.423 -10.015,-0.052 -4.0788,-0.476 -9.1477,-1.4799 -12.4677,-1.5655 -1.6602,-0.043 -3.0077,0.1702 -4.1205,0.825 -1.1127,0.6549 -1.6963,1.5673 -2.1421,2.2175 -0.8917,1.3005 -1.9443,2.8507 -4.0317,4.8345 -2.0876,1.984 -5.3536,4.4825 -7.9127,6.5599 -2.559,2.0776 -4.3585,3.7072 -5.9256,5.1894 -1.5671,1.4819 -2.6385,2.5542 -4.524,3.4462 -1.8855,0.8919 -5.0076,1.6703 -7.5355,2.843 -2.5282,1.1726 -4.0356,2.6569 -4.8833,3.2644 -0.8477,0.6074 -1.4613,0.8236 -2.7544,1.1619 -1.2932,0.3387 -3.2859,0.6879 -5.1271,1.894 -1.8415,1.206 -2.8288,2.8522 -4.0895,4.6794 -1.2605,1.8268 -2.9514,4.1645 -4.1248,5.5307 -0.5867,0.683 -1.1118,1.1947 -1.6366,1.8362 -0.5248,0.6416 -1.1004,1.5739 -1.1976,2.701 -0.1953,2.2543 0.8706,3.7867 1.7387,5.2959 0.868,1.5092 1.8144,2.9203 3.1491,4.8522 1.3346,1.9318 2.9773,4.2861 4.2756,7.1231 1.2981,2.837 2.2872,6.2503 2.5591,9.6335 0.272,3.3832 -0.1567,6.98 -0.4878,9.4428 -0.3309,2.4628 -0.454,3.2403 -1.1089,4.4398 -0.6549,1.1992 -1.9871,2.8956 -3.6502,4.524 -1.6632,1.6284 -3.6779,3.234 -5.5753,4.4219 -1.8973,1.1881 -3.6457,1.9706 -6.4088,2.8031 -2.7635,0.8325 -6.4936,1.6735 -9.3765,2.0405 -2.8826,0.3667 -4.9432,0.2972 -7.6154,-0.048 -2.6719,-0.3462 -6.3355,-1.1444 -10.219,0.1204 -3.8832,1.2642 -7.0613,4.17 -10.3609,6.6042 -3.2993,2.4339 -6.8276,4.6251 -10.2897,6.125 -3.4623,1.4999 -7.0282,2.3847 -9.8555,3.016 -2.8269,0.6313 -4.725,0.978 -7.2027,1.2376 -2.4778,0.2593 -5.5759,0.4265 -8.343,0.5943 -2.767,0.1681 -5.1547,0.312 -6.9323,0.6696 -1.7777,0.358 -3.1352,1.2947 -4.6571,2.8164 -1.5217,1.522 -3.8417,3.9627 -6.5022,6.1386 -2.6604,2.176 -5.7747,4.1803 -9.1678,6.1739 -3.3929,1.9938 -6.9898,3.9241 -10.1259,5.1229 -3.1358,1.1988 -5.9068,1.7301 -9.6644,2.1467 -3.7576,0.4164 -8.3677,0.6921 -12.7515,0.683 -4.3838,0 -8.6131,-0.2981 -11.1239,-0.4392 -1.2553,-0.07 -2.0912,-0.1226 -2.9405,-0.041 -0.8493,0.082 -1.7742,0.4279 -2.4039,0.865 -1.2597,0.8743 -1.9255,1.791 -3.668,3.1002 -1.7427,1.3091 -4.6171,3.0803 -6.5821,4.0628 -1.965,0.9824 -3.0034,1.2383 -4.5683,1.539 -1.5649,0.3006 -3.3187,0.5553 -5.4822,0.5811 -2.1632,0.025 -4.8499,-0.1884 -7.2738,-0.4347 -2.4237,-0.247 -4.4539,-0.5071 -7.0566,-1.1353 -0.3408,-0.082 -0.8361,-0.1885 -1.2108,-0.2839 -1.9804,-0.595 -3.8398,-1.3062 -5.8014,-1.5969 -0.5505,-0.082 -1.0896,-0.1181 -1.6101,-0.1158 -1.5969,0 -3.083,0.3864 -4.8476,0.9538 -0.4937,0.1589 -1.0347,0.3345 -1.5747,0.5188 -2.7398,0.687 -5.3634,1.5107 -7.398,2.0845 -0.9334,0.2635 -1.6587,0.3615 -2.4439,0.5146 -0.4563,0.032 -0.8693,0.082 -1.4059,0.1067 -2.0086,0.095 -4.5166,0.1907 -7.7308,0.2225 -2.1022,0.023 -4.2082,-0.023 -6.3337,-0.045 -3.0155,-0.2602 -5.3175,-0.6595 -8.0677,-1.6589 -2.7814,-1.0105 -6.1466,-2.7087 -10.0505,-4.586 -3.9039,-1.8773 -8.2605,-3.8828 -10.9241,-4.9941 -1.3319,-0.5557 -2.2836,-0.9223 -3.2735,-1.1135 -0.9896,-0.1907 -1.9827,-0.1203 -2.8429,0.062 -1.7202,0.3646 -3.6415,1.0918 -5.5618,1.5612 -1.9205,0.4695 -3.9371,0.7333 -6.0499,0.8118 -2.1126,0.079 -4.3785,-0.028 -8.6046,-0.2043 -4.2258,-0.1772 -10.325,-0.4193 -15.2439,-0.9093 -4.9192,-0.4901 -8.6925,-1.224 -12.0998,-2.2443 -3.407,-1.0204 -6.3915,-2.3036 -9.966,-4.3821 -3.5745,-2.0783 -7.7146,-4.9621 -11.0528,-7.7351 -3.3384,-2.773 -5.9824,-5.6275 -9.1012,-7.3316 -3.119,-1.7043 -6.1529,-1.7331 -8.6446,-1.7608 -2.4915,-0.028 -4.8608,-0.048 -7.398,-0.3549 -2.5373,-0.3061 -5.3925,-0.9168 -8.4536,-1.6012 -3.0614,-0.6842 -6.024,-1.3639 -9.7712,-3.2156 -3.7469,-1.8517 -8.4379,-5.0035 -11.6913,-7.3935 -3.2535,-2.3904 -5.0566,-4.1123 -7.2827,-5.0918 -2.2262,-0.9797 -4.3274,-0.5986 -5.9168,-0.2484 -1.5897,0.3501 -3.0139,0.713 -6.2049,0.6519 -3.1911,-0.062 -8.1283,-0.6093 -12.2993,-1.5923 -4.171,-0.9828 -7.7154,-2.4135 -10.5383,-3.9341 -2.8228,-1.5206 -4.777,-3.032 -6.3246,-5.0472 -1.5479,-2.0154 -2.7514,-4.6726 -3.5751,-7.6111 -0.8234,-2.9386 -1.2401,-6.0313 -0.9313,-9.1279 0.3089,-3.0965 1.373,-6.3802 2.8298,-9.4516 1.4567,-3.0715 3.3354,-5.9915 5.0561,-8.8218 1.7209,-2.8305 3.2929,-5.3198 3.7747,-7.8239 0.2407,-1.2522 0.034,-2.5378 -0.4659,-3.4686 -0.4989,-0.9308 -1.1238,-1.4878 -1.57,-1.9204 -0.8924,-0.8648 -1.7318,-1.6778 -3.0028,-3.3753 -1.271,-1.6975 -2.9596,-4.3178 -4.2622,-5.9299 -1.3028,-1.6123 -2.876,-2.3201 -3.819,-2.5415 -0.9428,-0.2227 -2.1975,-0.496 -3.1667,-0.7718 -0.9692,-0.2756 -1.388,-0.4189 -2.1955,-1.0777 -0.8075,-0.6587 -2.1489,-2.2152 -4.1027,-3.291 -1.954,-1.0759 -3.8529,-1.2883 -5.2335,-1.6677 -1.381,-0.3794 -2.6213,-0.9215 -3.9609,-1.7874 -1.3396,-0.8659 -2.8845,-2.1544 -5.2426,-4.0051 -2.3581,-1.8508 -5.416,-4.1619 -8.2274,-6.6219 -2.8116,-2.46 -5.4426,-5.1499 -6.8526,-7.03 -1.41,-1.8801 -1.4524,-3.0598 -2.9762,-4.5417 -0.7617,-0.741 -2.0477,-1.1014 -2.976,-1.0601 -0.9283,0.04 -1.7273,0.25 -2.8163,0.4966 -2.1785,0.4935 -5.6084,1.2781 -8.6489,1.7609 -3.0407,0.483 -5.638,0.6683 -8.7776,0.3726 -3.1396,-0.2956 -6.8794,-1.0972 -10.596,-2.222 -3.7163,-1.125 -7.4643,-2.5863 -10.2277,-3.7301 -2.7633,-1.1439 -4.3018,-1.8685 -5.8546,-3.0915 -1.5529,-1.2231 -3.2862,-3.1236 -4.7945,-4.8433 -1.5086,-1.7199 -2.6086,-3.0168 -3.6902,-5.0209 -1.0819,-2.004 -2.1933,-4.8767 -3.127,-7.6685 -0.9336,-2.792 -1.6661,-5.4079 -2.0002,-8.0723 -0.3343,-2.6647 -0.2859,-5.5636 -0.2308,-7.6908 0.054,-2.1271 0.2287,-3.6843 -0.5277,-5.4022 -0.7566,-1.7181 -1.9768,-2.5497 -3.974,-4.3555 -1.9975,-1.8058 -5.0372,-4.6721 -7.5888,-7.8328 -2.5516,-3.1608 -4.7271,-6.7531 -6.316,-9.913 -1.589,-3.1599 -2.5616,-5.8231 -3.0294,-8.2452 -0.4676,-2.4223 -0.4576,-4.6882 -0.1999,-7.4114 0.2582,-2.7233 0.7681,-5.8092 1.3262,-8.0855 0.5584,-2.2765 1.1576,-3.7331 1.7832,-4.737 0.6256,-1.004 1.4744,-1.8147 3.047,-3.6768 1.5726,-1.8621 3.6468,-4.5252 5.4377,-6.316 1.7908,-1.7908 3.3795,-2.8497 6.1517,-4.5152 2.7723,-1.6652 6.5246,-3.7665 8.7154,-5.4997 1.0955,-0.8665 2.017,-1.9295 2.3552,-3.2155 0.3381,-1.2862 0.1862,-2.3401 0.084,-3.6947 -0.2044,-2.7094 -0.5323,-7.3325 -0.5323,-11.1282 0,-3.7958 0.3283,-6.7834 1.0157,-9.1856 0.6875,-2.402 1.7688,-4.3802 3.2201,-6.8082 1.4513,-2.4278 3.127,-5.0329 5.0074,-6.9546 1.8804,-1.9216 4.182,-3.3982 6.0809,-4.4308 1.8989,-1.0326 3.3366,-1.6008 5.1714,-2.3951 1.8349,-0.7946 3.918,-1.7534 6.458,-2.9674 2.5398,-1.2137 5.5305,-2.5737 7.5177,-4.3376 0.9938,-0.8818 1.7309,-2.0506 1.9694,-3.2512 0.2386,-1.2004 0.093,-2.2545 -0.062,-3.3707 -0.3107,-2.2324 -0.8611,-5.2007 -1.14,-9.2831 -0.2787,-4.0826 -0.2691,-9.3576 0.1726,-12.9467 0.4421,-3.5891 1.2505,-5.5559 2.2531,-7.3271 1.0024,-1.7711 2.1603,-3.2056 3.7079,-4.9808 1.5476,-1.7752 3.375,-3.7489 5.0695,-5.1894 1.6946,-1.4402 3.3616,-2.4569 5.5487,-3.6545 2.1868,-1.1979 4.676,-2.4574 7.6819,-3.4331 3.006,-0.9758 6.7191,-1.6614 9.4782,-2.8741 2.7591,-1.2126 4.0967,-3.0893 5.4244,-4.9941 1.3279,-1.9048 3.1496,-4.4268 4.9453,-6.4134 1.7959,-1.9868 3.6162,-3.4906 5.2603,-4.391 1.6444,-0.9003 3.2333,-1.2971 5.3313,-1.6234 2.0981,-0.3261 4.5664,-0.5492 6.4935,-0.7363 1.9268,-0.1862 4.0496,-0.4559 5.7968,-2.1112 1.747,-1.655 2.7803,-3.8484 4.3333,-6.1428 1.5531,-2.2945 3.623,-4.8699 5.4553,-6.8436 1.8324,-1.9742 3.4109,-3.3472 5.256,-4.6438 1.8449,-1.2969 3.9538,-2.5056 5.8768,-3.402 1.9228,-0.8961 3.7258,-1.5142 4.8788,-1.8582 1.1531,-0.3443 1.5394,-0.3973 1.8362,-0.4438 0.2968,-0.045 0.364,-0.054 2.3863,-0.4346 2.0222,-0.3804 5.9898,-1.1203 9.5446,-1.3217 3.5549,-0.2021 6.849,0.1135 9.7755,0.7097 2.9265,0.5959 5.5201,1.4865 7.4603,2.0092 1.94,0.5228 3.2419,0.625 4.3065,0.4567 1.0649,-0.168 2.2784,-0.8125 3.4686,-1.8983 1.1901,-1.0856 2.7177,-2.7075 4.1779,-3.9873 1.4604,-1.28 2.8702,-2.253 4.6129,-3.18 1.7424,-0.9272 3.7163,-1.7549 6.4977,-2.4262 2.7813,-0.6713 6.4626,-1.1833 8.9326,-1.3128 2.4701,-0.1294 3.745,0.077 5.2603,0.3636 1.5154,0.287 3.3834,0.7399 5.593,0.4038 2.2093,-0.3363 4.2027,-1.3314 6.2227,-2.3509 2.0199,-1.0193 4.1236,-2.1393 5.7348,-2.8385 1.6114,-0.6993 3.3803,-1.1627 4.9941,-2.7767 1.6139,-1.6139 2.5178,-3.7171 3.6459,-6.3024 1.1282,-2.5853 2.4161,-5.7118 4.2225,-9.2254 1.8065,-3.5137 4.1646,-7.4771 6.5111,-10.9286 2.3463,-3.4518 4.6808,-6.3966 7.4335,-9.403 2.753,-3.0064 5.9302,-6.0741 8.7508,-8.4802 2.8206,-2.4062 5.2928,-4.16 7.4824,-5.4201 2.1897,-1.2599 4.1634,-2.0641 6.3957,-2.9848 2.2325,-0.9209 4.502,-1.8637 6.8926,-2.5505 2.3904,-0.6867 4.9757,-1.1461 8.1742,-1.4147 3.1986,-0.2689 7.0306,-0.3463 10.5382,-0.337 3.5079,0 6.6753,0.1044 9.017,0.3235 2.3419,0.2203 3.9107,0.561 5.9213,1.0292 2.0104,0.468 4.3442,1.0405 5.8946,1.4282 1.5501,0.3874 3.3072,0.6684 5.198,-0.098 1.8907,-0.7659 3.8964,-2.1069 6.0098,-3.0293 2.1136,-0.9226 4.5155,-1.5424 6.1385,-1.8185 0.8116,-0.1386 1.3566,-0.1999 1.8539,-0.1908 z m 14.9426,498.6001 h -0.2304 l -0.2308,0.05 z m -61.4689,-339.0266 -1.7299,0.1409 -0.079,0.4569 c -0.7314,0.2557 -1.4783,0.4536 -2.0844,1.1043 -0.836,0.8972 -1.0735,2.2699 -1.0024,3.2778 0.073,1.0111 0.3143,2.0915 0.8381,4.2047 0.5238,2.1119 1.3524,5.3237 2.3064,7.9747 0.9538,2.6501 2.0111,4.6291 3.087,6.4134 1.0764,1.7851 2.1955,3.4328 3.1225,4.8656 0.9258,1.4307 1.7417,2.7853 2.9051,4.4265 1.1636,1.6418 2.6133,3.4838 4.564,5.9521 1.9512,2.4694 4.3842,5.5349 6.3957,8.569 2.0114,3.0337 3.6775,6.15 4.7325,8.343 1.0553,2.1935 1.4509,3.3154 1.8717,4.9984 0.421,1.6841 0.8268,3.8444 1.3394,7.1676 0.5125,3.3229 1.1284,7.7809 1.6588,12.4365 0.5307,4.6557 0.9728,9.4959 1.2375,15.2575 0.2645,5.7613 0.3447,12.4652 0.075,17.5905 -0.2694,5.1252 -0.8837,8.7298 -1.1575,11.0306 -0.2741,2.302 -0.1772,2.9778 -0.2839,3.6014 -0.1067,0.624 -0.5693,2.0658 -0.9049,3.8012 -0.335,1.7327 -0.4894,3.5578 -0.7452,5.8412 -0.2554,2.2823 -0.6117,5.0575 -1.1797,8.3384 -0.5681,3.2816 -1.3606,7.1031 -1.6942,9.7621 -0.1658,1.3302 -0.2301,2.354 -0.125,3.3043 0.1068,0.9507 0.4407,1.9785 1.2509,2.7101 0.8123,0.7338 1.8508,0.9095 2.5901,0.9093 0.7392,-3e-4 1.3509,-0.1136 2.0002,-0.218 1.2999,-0.2089 2.9272,-0.4705 4.5641,-0.5989 1.6375,-0.1271 3.3656,-0.1271 4.8122,0 0.7224,0.059 1.4556,0.159 2.2576,0.1862 0.8021,0.028 1.7803,0.045 2.8299,-0.6388 1.0495,-0.6835 1.4776,-1.7585 1.7208,-2.639 0.2432,-0.8804 0.3895,-1.8075 0.6254,-3.0247 0.4714,-2.4333 1.2992,-6.1941 2.0756,-9.731 0.7764,-3.5365 1.4908,-6.8036 2.3819,-9.9973 0.8906,-3.1931 1.9627,-6.3312 3.3618,-9.6158 1.3993,-3.284 3.1322,-6.72 5.3714,-10.5959 2.2392,-3.8767 4.9888,-8.1982 7.8238,-12.3568 2.8352,-4.1589 5.7305,-8.1214 9.3897,-12.4765 3.659,-4.3553 8.1288,-9.1548 11.8821,-13.3859 3.7529,-4.2307 6.7892,-7.5425 7.8947,-10.7333 0.5525,-1.5944 0.3216,-3.3541 -0.5144,-4.4532 -0.8359,-1.0989 -1.8893,-1.5022 -2.6258,-1.7163 -0.7362,-0.2135 -1.8683,-0.2739 -2.7632,0.1408 -0.8949,0.4158 -1.3937,0.9807 -1.9559,1.6055 -1.1241,1.2489 -2.6651,3.2212 -4.0405,4.8567 -1.3758,1.6357 -2.5946,2.9565 -3.8145,4.2445 -1.2208,1.2892 -2.3369,2.4428 -4.9142,4.7148 -2.5774,2.272 -6.618,5.6574 -9.0615,7.6022 -2.442,1.9435 -3.1217,2.3347 -3.8409,2.621 -0.719,0.2865 -1.5388,0.4577 -2.4571,0.5946 -0.9247,0.1386 -1.7311,0.2135 -2.4527,0.1681 -0.7218,-0.045 -1.3812,-0.1862 -2.3375,-0.6123 -0.9553,-0.4246 -2.2515,-1.1967 -3.1313,-1.7962 -0.8804,-0.6 -1.1304,-0.7901 -1.9516,-1.9028 -0.8209,-1.1127 -2.0532,-3.0609 -3.3353,-5.3134 -1.2828,-2.2532 -2.6389,-4.8377 -3.8854,-7.3981 -1.2458,-2.5597 -2.4183,-5.1856 -4.3156,-8.875 -1.8968,-3.6891 -4.4612,-8.3437 -6.3335,-12.5564 -1.8721,-4.2123 -3.1009,-8.0708 -4.0052,-11.8379 -0.9042,-3.7681 -1.4835,-7.4621 -1.7208,-9.7047 -0.2376,-2.2447 -0.1635,-2.8579 -0.043,-3.7345 0.118,-0.8742 0.2904,-1.7826 0.7052,-4.0893 0.4143,-2.305 1.0685,-5.9637 1.6764,-8.8263 0.3043,-1.4317 0.6073,-2.7012 0.8207,-3.8321 0.2135,-1.131 0.4124,-2.0679 0.1908,-3.2598 -0.2225,-1.1918 -1.2996,-2.3616 -2.2888,-2.7056 -0.989,-0.3442 -1.7497,-0.2569 -2.364,-0.1999 -1.229,0.1159 -2.3572,0.3849 -2.8741,0.5056 -0.1293,0.029 -0.2949,0.05 -0.6474,0.1953 -0.3526,0.1453 -0.934,0.5586 -1.2288,1.0377 -0.589,0.9589 -0.4221,1.3002 -0.4654,1.7389 -0.087,0.8759 -0.2528,2.5749 -0.4881,4.076 -0.2357,1.5035 -0.5363,2.8045 -0.9581,3.9164 -0.4208,1.1102 -0.9742,2.0771 -1.7031,2.9938 -0.7299,0.9178 -1.6719,1.8115 -2.5902,2.506 -0.8595,0.6499 -1.6952,1.0689 -2.0313,1.1975 -0.057,-0.034 -0.057,-0.023 -0.3504,-0.2395 -0.8782,-0.6494 -2.3422,-1.9325 -3.3043,-3.3089 -0.9618,-1.3756 -1.6403,-3.099 -2.2532,-5.4198 -0.6133,-2.3225 -0.9574,-5.0907 -2.1867,-7.2651 -0.9215,-1.6304 -2.9092,-2.4178 -4.138,-2.3151 z m 0.2089,4.5329 v 0 c 0.3401,0.6018 1.0722,3.6216 1.7519,6.1964 0.6803,2.576 1.5178,4.853 2.9185,6.8569 1.4002,2.0031 3.1417,3.4828 4.3156,4.351 0.5856,0.4331 1.1238,0.815 1.9071,1.0512 0.7834,0.2362 1.7106,0.143 2.3285,-0.05 1.2306,-0.3819 2.356,-1.0832 3.5571,-1.9916 1.2026,-0.909 2.3903,-2.0233 3.402,-3.2953 1.0126,-1.2732 1.8115,-2.6769 2.3905,-4.2047 0.5787,-1.5263 0.9334,-3.1304 1.1978,-4.8168 0.2157,-1.3777 0.3297,-2.5824 0.4257,-3.5348 0.3227,-0.063 0.5859,-0.1249 0.927,-0.168 -0.023,0.2868 -3e-4,0.307 -0.088,0.7761 -0.1816,0.9652 -0.4819,2.2393 -0.7984,3.7299 -0.6337,2.9831 -1.2899,6.6694 -1.7032,8.9685 -0.413,2.2969 -0.5968,3.253 -0.7362,4.2756 -0.1385,1.0202 -0.2314,2.3415 0.032,4.8211 0.2628,2.4821 0.8607,6.2942 1.8186,10.2856 0.958,3.9921 2.2806,8.1401 4.271,12.6185 1.9903,4.4777 4.5954,9.1994 6.4402,12.7869 1.8444,3.5871 2.9824,6.1386 4.2712,8.7865 1.2884,2.6467 2.6846,5.3045 4.0228,7.6554 1.3387,2.3512 2.5997,4.3737 3.6236,5.7614 1.024,1.3875 1.9747,2.2262 3.0428,2.9539 1.0687,0.7281 2.4684,1.5767 3.8409,2.1865 1.3716,0.6097 2.6675,0.9174 3.8941,0.9935 1.227,0.075 2.3563,-0.054 3.3975,-0.2089 1.0474,-0.1568 2.2303,-0.3752 3.4595,-0.8648 1.2292,-0.4896 2.4443,-1.2599 4.9854,-3.2821 2.5396,-2.0213 6.5743,-5.3994 9.2387,-7.7485 2.6646,-2.3492 3.9622,-3.6843 5.2071,-4.9987 1.2458,-1.3155 2.5395,-2.7129 3.9918,-4.4397 1.4524,-1.727 3.0449,-3.7531 3.9386,-4.7457 0.2893,-0.3216 0.2679,-0.2943 0.3236,-0.3461 0,3e-4 0.082,0.045 0.066,0.028 -0.066,-0.086 0.05,-0.3559 -0.1544,0.2396 -0.4118,1.189 -3.3116,5.05 -7.0077,9.2166 -3.6956,4.1661 -8.1895,8.9886 -11.9621,13.4788 -3.7726,4.4906 -6.7749,8.5973 -9.6644,12.8359 -2.8897,4.2389 -5.6888,8.6371 -8.0014,12.6406 -2.3132,4.0043 -4.1347,7.6132 -5.6151,11.0883 -1.4804,3.4747 -2.6201,6.8108 -3.557,10.1701 -0.937,3.3585 -1.6639,6.7123 -2.4396,10.2456 -0.7753,3.5327 -1.6081,7.2875 -2.1022,9.8377 -0.2457,1.2678 -0.4099,2.1916 -0.5412,2.6698 -0.063,0 0.054,-0.023 -0.048,-0.023 -0.4523,-0.023 -1.1806,-0.1067 -2.0447,-0.1771 -1.726,-0.1407 -3.6509,-0.1385 -5.5309,0 -1.8805,0.1476 -3.6364,0.4331 -4.923,0.6388 -0.3066,0.05 -0.3961,0.052 -0.6123,0.079 0,-0.4076 -0.023,-0.8632 0.088,-1.7609 0.2872,-2.2897 1.0806,-6.1619 1.6676,-9.5535 0.5873,-3.392 0.9536,-6.27 1.2154,-8.609 0.2616,-2.3378 0.4234,-4.0982 0.6919,-5.4866 0.2681,-1.3857 0.7018,-2.604 0.9225,-3.8941 0.2203,-1.2903 0.077,-1.789 0.3193,-3.8322 0.2434,-2.0443 0.8974,-5.9519 1.1799,-11.3277 0.2826,-5.3757 0.1976,-12.1563 -0.07,-18.034 -0.27,-5.8773 -0.7255,-10.8346 -1.2642,-15.5589 -0.5384,-4.7248 -1.1634,-9.2296 -1.6854,-12.6141 -0.5219,-3.3845 -0.9436,-5.6731 -1.4193,-7.5756 -0.4758,-1.9035 -1.0476,-3.5006 -2.1822,-5.8591 -1.1347,-2.3591 -2.8815,-5.6236 -5.0429,-8.884 -2.1612,-3.2596 -4.6673,-6.4083 -6.613,-8.8705 -1.9464,-2.4632 -3.3614,-4.2694 -4.4221,-5.766 -1.061,-1.497 -1.8276,-2.7662 -2.7986,-4.2668 -0.9697,-1.4988 -2.0543,-3.0993 -3.047,-4.7457 -0.9932,-1.6471 -1.8661,-3.2776 -2.7056,-5.6107 -0.8394,-2.3322 -1.6623,-5.4703 -2.1733,-7.5311 -0.5034,-2.0306 -0.6696,-2.9274 -0.7053,-3.3886 0.062,-0.028 0.068,-0.052 0.4746,-0.1545 0.057,-0.023 0.073,-0.023 0.1158,-0.023 z m -149.2794,94.4678 c -0.6041,0.023 -1.1509,0.1522 -1.6366,0.3504 -0.6354,0.2607 -1.6996,1.1496 -2.0491,2.1601 -0.3495,1.0105 -0.351,1.9813 -0.2707,3.3753 0.1613,2.7883 0.8544,7.3303 1.1089,9.9839 0.2548,2.653 0.1499,2.9822 -0.1407,3.6193 -0.291,0.6378 -0.9234,1.4552 -1.304,1.7917 -0.3804,0.3365 -0.4146,0.3177 -0.7184,0.3592 -0.2981,0.041 -0.6235,0.037 -1.5258,-0.1589 -0.9012,-0.1976 -2.0981,-0.5289 -5.0164,-1.7652 -2.9184,-1.2362 -7.4415,-3.3707 -10.3564,-4.3067 -1.4575,-0.4678 -2.5218,-0.6901 -3.6856,-0.4746 -1.1641,0.2158 -2.1778,1.2708 -2.4794,1.8496 -0.6031,1.157 -0.7088,2.7239 -0.1068,4.0938 0.6018,1.3693 1.5986,2.3249 2.9717,3.5527 1.3728,1.2274 3.2315,2.7405 4.6926,3.863 1.4599,1.1218 2.6229,1.9186 4.1691,2.7012 1.5476,0.7832 3.4098,1.5442 5.4998,2.4351 2.0915,0.8913 4.4237,1.9087 6.7596,3.047 2.3347,1.1378 4.6757,2.4013 6.4665,3.6191 1.7908,1.2179 3.1445,2.454 4.5241,3.7568 1.3809,1.3041 2.6954,2.5862 3.7256,3.6414 1.0296,1.0545 1.7915,1.9054 2.3996,2.5326 0.6088,0.6279 0.6863,0.6225 2.4437,3.0337 1.7568,2.4103 4.9969,7.0347 6.9857,9.5093 0.9943,1.2372 1.6323,2.0432 2.7809,2.6079 1.1488,0.565 2.5992,0.258 3.2601,0 1.3221,-0.5246 3.0266,-1.3818 4.3776,-2.4882 1.352,-1.1071 2.1378,-2.5913 2.1378,-3.9651 0,-0.6873 -0.2939,-1.5841 -0.7186,-2.3287 -0.4246,-0.7444 -1.0373,-1.6574 -2.1023,-3.2332 -2.1308,-3.1529 -6.0573,-8.8978 -9.5493,-14.2684 -3.4918,-5.3707 -6.5329,-10.3407 -9.2875,-15.7143 -2.7543,-5.3729 -5.2584,-11.2331 -6.7903,-14.9649 -1.5322,-3.7319 -1.8928,-5.3872 -3.3398,-6.8835 -0.9097,-0.9405 -2.1908,-1.3536 -3.2202,-1.3262 z m 0.5723,5.8104 c 0.3199,0.65 0.6403,1.2571 1.814,4.1159 1.5573,3.7932 4.0952,9.7419 6.9502,15.3107 2.8543,5.5684 5.9856,10.6802 9.5181,16.1135 3.5326,5.4333 7.4788,11.2056 9.5936,14.3349 1.0578,1.5656 1.6627,2.4855 1.9248,2.9452 0.2623,0.4595 0.125,0.1384 0.125,0.088 0,-0.098 0.1611,-0.062 -0.4878,0.4701 -0.6157,0.5043 -2.1215,1.3093 -3.0071,1.6854 -0.063,-0.075 -0.3046,-0.2395 -1.0247,-1.1354 -1.7562,-2.1852 -5.0411,-6.8494 -6.8569,-9.3408 -1.8151,-2.4901 -2.3562,-3.006 -2.852,-3.5171 -0.4964,-0.5121 -1.3194,-1.4214 -2.4129,-2.5414 -1.0927,-1.1195 -2.4348,-2.4337 -3.8498,-3.7701 -1.4163,-1.3375 -2.9993,-2.7862 -5.0917,-4.2091 -2.0922,-1.4227 -4.5796,-2.7509 -7.0254,-3.9429 -2.4451,-1.1918 -4.8441,-2.2414 -6.9637,-3.1447 -2.1208,-0.904 -3.9506,-1.6614 -5.2334,-2.3109 -1.2845,-0.6499 -2.0893,-1.2002 -3.4597,-2.2532 -1.3694,-1.0518 -3.2019,-2.5431 -4.4353,-3.6457 -0.8593,-0.7682 -1.0228,-1.053 -1.2862,-1.3972 0.1271,0.034 0.048,0 0.1953,0.045 2.2455,0.7211 6.9046,2.8641 9.9751,4.1649 3.0706,1.3007 4.662,1.7662 5.8147,2.0181 1.1514,0.2516 2.1426,0.3533 3.1046,0.2226 0.9563,-0.1318 2.1303,-0.5961 3.0959,-1.4505 0.9656,-0.854 1.8154,-1.9702 2.4217,-3.2998 0.6069,-1.3305 0.8127,-3.0041 0.5323,-5.9256 -0.2751,-2.8656 -0.928,-7.3016 -1.0779,-9.629 z m 404.5093,8.9415 c -1.1262,-0.034 -2.8023,-0.032 -4.4398,1.0203 -2.1859,1.403 -2.9108,3.6545 -3.8409,6.0941 -0.9297,2.4383 -1.97,5.3648 -3.8941,9.6202 -1.9237,4.254 -4.7735,9.8976 -6.5776,13.1284 -1.805,3.2322 -2.51,3.9808 -3.1979,5.1271 -0.6897,1.1496 -0.9365,1.867 -0.9581,1.894 -0.023,0.023 -0.9749,0.6545 -1.8805,2.0004 -0.9058,1.3462 -1.2833,2.6031 -2.9009,5.2603 -1.6174,2.6576 -4.4679,6.7524 -6.2803,9.2254 -1.8116,2.4721 -2.5709,3.2783 -3.2112,4.2445 -0.32,0.4832 -0.7923,1.3167 -0.7006,2.3774 0.091,1.0607 0.6347,1.794 1.1797,2.4085 1.0878,1.2267 2.7312,2.6034 4.4707,3.4906 0.8709,0.4439 2.121,0.8286 3.3843,0.5055 1.2633,-0.3232 2.1909,-1.11 3.1401,-2.1245 1.8985,-2.0289 4.1867,-5.423 5.7216,-7.6864 1.5341,-2.2623 2.2132,-3.295 3.0336,-4.3111 0.821,-1.0162 1.8533,-2.098 2.8209,-2.9496 0.9676,-0.8514 2.0018,-1.5801 3.2068,-2.5813 1.2053,-1.0014 2.4236,-2.1564 3.6593,-3.3486 1.2378,-1.1943 2.2899,-2.2364 4.1824,-3.3441 1.8905,-1.1069 4.8457,-2.3518 7.58,-3.5571 2.7326,-1.2049 5.2003,-2.3647 7.4424,-3.5705 2.2418,-1.2059 4.2415,-2.4504 6.1472,-3.7833 1.9066,-1.3338 3.7277,-2.7573 5.1363,-4.0806 1.4093,-1.3244 2.4001,-2.4105 2.9494,-3.8321 0.275,-0.7119 0.4102,-1.7247 0.037,-2.6346 -0.3747,-0.9098 -1.0644,-1.453 -1.6633,-1.8052 -1.1947,-0.7026 -3.0025,-1.2087 -5.1051,-0.714 -2.1038,0.4949 -3.7243,1.6258 -6.3292,2.8784 -2.6059,1.2533 -6.3453,2.7888 -8.405,3.4286 -1.0301,0.3199 -1.6128,0.4024 -1.8583,0.4035 -0.2457,0 -0.1862,0 -0.448,-0.1204 -0.5223,-0.2611 -1.3501,-0.913 -1.7697,-1.3793 -0.4206,-0.4673 -0.3812,-0.2548 -0.4966,-1.5255 -0.1159,-1.2679 -0.095,-3.4807 0.5143,-6.3427 0.6096,-2.8628 1.8594,-6.5655 2.4971,-8.436 0.159,-0.4679 0.2825,-0.8323 0.386,-1.1932 0.1045,-0.3606 0.268,-0.6905 0.1636,-1.4813 -0.091,-0.6944 -0.9118,-1.4689 -1.5082,-1.8184 v -0.417 z m -1.4904,4.7371 c -0.6869,2.0299 -1.6727,4.8887 -2.2797,7.7396 -0.7024,3.2991 -0.755,5.9211 -0.5943,7.6908 0.1613,1.7665 0.8146,3.2246 1.6367,4.1382 0.8231,0.9145 1.8668,1.7804 3.1047,2.3994 0.6195,0.3097 1.5342,0.5993 2.4928,0.5943 0.9583,0 1.9275,-0.2158 3.1755,-0.6032 2.4969,-0.7755 6.2127,-2.3195 9.0258,-3.6724 2.8144,-1.3532 4.5766,-2.3595 5.4068,-2.5548 0.3171,-0.075 0.4203,0.054 0.6785,0.079 -0.3066,0.4067 -0.3758,0.6058 -1.0289,1.2197 -1.1632,1.0929 -2.8608,2.4346 -4.6306,3.6724 -1.7701,1.2383 -3.6047,2.3797 -5.6948,3.504 -2.0899,1.1241 -4.4583,2.2381 -7.1276,3.4152 -2.6677,1.176 -5.6818,2.4135 -8.0367,3.7921 -2.3533,1.3775 -3.8258,2.8218 -5.0387,3.9917 -1.2151,1.1725 -2.368,2.2646 -3.4062,3.127 -1.0385,0.8628 -2.1145,1.6142 -3.3044,2.6613 -1.1895,1.0467 -2.3617,2.2763 -3.353,3.5037 -0.9917,1.2276 -1.7395,2.3706 -3.2601,4.6128 -1.5199,2.2412 -3.919,5.6794 -5.2822,7.1363 -0.6818,0.7288 -1.0302,0.8523 -0.9582,0.8339 0.073,-0.023 0.2158,0.071 -0.218,-0.1499 -0.7895,-0.4026 -2.1936,-1.5805 -2.8608,-2.2486 0.3843,-0.5168 1.0635,-1.3203 2.719,-3.5794 1.8809,-2.5666 4.7282,-6.6494 6.4933,-9.549 1.7652,-2.9002 2.453,-4.5825 2.7897,-5.0829 0.337,-0.501 0.8004,-0.625 1.6633,-1.7077 0.8586,-1.0774 0.958,-1.8097 1.3039,-2.3863 0.3477,-0.5793 1.3587,-1.8342 3.2644,-5.2469 1.9064,-3.4138 4.7566,-9.0603 6.7506,-13.4699 1.9934,-4.4084 3.1009,-7.5135 4.0006,-9.8731 0.8993,-2.3586 1.6896,-3.6665 2.058,-3.9032 0.077,-0.05 0.3644,-0.043 0.51,-0.084 z m -194.5948,225.5932 c 2.7196,-0.2248 5.1764,0.3698 7.5622,0.967 0.3072,0.091 0.4356,0.1272 0.7585,0.218 0.2411,0.068 0.5384,0.082 0.785,0.1453 2.2902,0.6005 4.7518,1.1169 7.2916,1.3616 2.8116,0.271 5.533,0.2728 7.4557,0.4079 0.9615,0.068 1.3233,0.1862 1.4461,0.275 0.1227,0.091 0.4553,0.3981 0.7717,1.8451 0.6327,2.894 0.7635,9.5854 0.6031,18.8502 -0.1612,9.2642 -0.5468,21.2476 -0.5143,32.5907 0.032,11.3433 0.4833,21.9775 1.0555,28.5191 0.5724,6.5417 1.2701,8.9885 1.4992,11.1502 0.2291,2.1601 0.079,4.7913 0.2271,11.004 0.1454,6.2122 0.5961,15.9491 1.3748,24.483 0.7789,8.5343 1.8826,15.7811 3.1669,24.9797 1.2843,9.1987 2.7603,20.4405 4.5684,31.5794 1.8081,11.1389 3.9388,22.1347 5.8634,30.8033 1.9246,8.6688 3.6257,14.9633 4.9322,18.6283 1.3066,3.6654 2.4041,4.8807 2.852,5.6195 0.4478,0.7394 0.9683,2.1164 1.7474,4.1781 0.7789,2.0609 1.826,4.7603 3.1179,7.4116 1.2915,2.6498 2.7609,5.1296 3.8498,7.1673 1.0896,2.0388 1.8933,3.8266 2.9451,5.4952 1.0528,1.6698 2.1412,2.8807 3.1713,4.3291 0.6969,0.9796 1.4736,2.157 2.2355,3.2909 -2.1953,-1.1157 -4.7083,-2.3737 -7.6511,-3.5837 -3.5296,-1.4515 -7.1794,-2.6864 -9.9306,-3.5927 -2.7504,-0.9059 -4.8884,-1.6784 -7.3006,-1.3305 -2.4135,0.3481 -4.1274,1.6961 -5.4288,2.5635 -1.3014,0.8676 -2.5763,1.594 -3.6856,2.6525 -0.7069,0.6742 -1.1395,1.3802 -1.5392,2.0358 -0.3994,0.6554 -0.7508,1.2792 -0.9093,1.5167 -0.5268,0.7901 -1.6898,2.518 -2.559,4.6617 -0.8698,2.1449 -1.3483,4.427 -1.7032,5.6772 -0.1363,0.4807 -0.2248,0.6801 -0.3015,0.8604 -0.062,0 0.077,-0.023 -0.071,-0.057 -0.4022,-0.1203 -0.6513,-0.1794 -2.262,-1.7165 -1.6096,-1.5369 -4.3202,-4.4361 -6.8837,-7.0434 -2.5632,-2.6067 -5.0269,-4.9618 -7.8194,-7.0653 -2.7932,-2.104 -5.8141,-3.8828 -8.4803,-5.2692 -2.6654,-1.3859 -5.1902,-2.4689 -8.8529,-3.2778 -3.6629,-0.8088 -8.4161,-1.375 -12.3079,-1.6143 -3.8934,-0.2394 -6.9194,-0.1318 -10.2723,0.1953 -3.3527,0.3265 -7.2382,0.8943 -13.2039,2.5724 -5.9653,1.678 -13.9792,4.4396 -18.6593,6.1652 -4.6792,1.7253 -6.0087,2.414 -8.4803,3.4195 -2.4722,1.0056 -6.3422,2.4276 -9.4651,3.8455 -2.7473,1.2474 -4.4788,2.1165 -5.4244,2.4528 1.2712,-1.2437 3.4558,-3.1486 6.3025,-5.5353 3.0857,-2.5872 6.701,-5.5818 8.8531,-7.4114 2.153,-1.8306 3.006,-2.6042 3.6279,-3.6325 0.6222,-1.0285 0.8194,-1.9423 0.927,-2.2178 0.1045,-0.2695 0.07,-0.253 1.1666,-1.4415 1.0963,-1.1883 3.1113,-3.2762 4.6394,-4.9011 1.5281,-1.6245 2.7486,-2.9959 3.9518,-5.1625 1.2027,-2.1658 2.3487,-4.9438 3.8852,-8.152 1.5367,-3.2088 3.5696,-7.0706 5.154,-11.9178 1.5846,-4.8481 2.6628,-10.4852 3.5037,-15.772 0.841,-5.2864 1.44,-10.2296 2.0005,-14.5657 0.5604,-4.3358 1.0984,-8.1774 1.5435,-13.6961 0.445,-5.5185 0.7977,-12.6656 1.1266,-19.3113 0.3288,-6.6455 0.6304,-12.7926 0.98,-19.1872 0.3498,-6.3952 0.7451,-13.0539 0.9271,-18.5219 0.1816,-5.4683 0.1476,-9.6835 0.2225,-13.8027 0.073,-4.1189 0.2563,-8.2653 0.3415,-15.0091 0.086,-6.7441 0.071,-16.0497 0.066,-20.6995 0,-4.6481 0,-8.871 -0.023,-21.2407 -0.023,-12.3704 -0.05,-28.6272 -0.218,-37.6737 -0.1681,-9.0467 -0.4964,-11.0835 -0.6474,-11.9576 -0.1499,-0.8717 -0.1204,-0.4904 -0.1204,-1.4547 0,-0.4841 0,-1.1322 0.062,-1.6987 0.039,-0.386 0.077,-0.4799 0.1114,-0.6167 0.398,-0.032 1.1743,-0.025 2.3816,0 0.8361,0.023 2.1192,0 3.1714,0.023 0,0 0,0 0,0 3.2789,0.2783 7.0873,0.3722 10.201,0.315 2.0936,-0.039 4.048,-0.2595 6.112,-0.6342 1.4007,-0.1113 2.8141,-0.2823 4.5638,-0.7628 1.9057,-0.5235 4.0059,-1.2951 5.9257,-1.9562 1.2643,-0.3176 2.5629,-0.684 3.6767,-0.7762 z"/></g></svg>