<svg version="1.1" id="svg1" width="5078.9116" height="5263.5273" viewBox="1463.251301060154 245.85037286386324 195.0161989398457 798.9172905905687" sodipodi:docname="trees3.svg" inkscape:version="1.4.2 (f4327f4, 2025-05-13)" xmlns:inkscape="http://www.inkscape.org/namespaces/inkscape" xmlns:sodipodi="http://sodipodi.sourceforge.net/DTD/sodipodi-0.dtd" xmlns="http://www.w3.org/2000/svg" xmlns:svg="http://www.w3.org/2000/svg"><defs id="defs1"/><g><path d="m 1553.1838,246.93926 c -0.2359,0.2525 -0.3286,1.0317 -0.3286,2.262 0,1.8007 -2.5085,10.6056 -5.5736,19.5675 -3.0651,8.96199 -6.5985,20.73999 -7.8537,26.17279 -2.8637,12.3957 -4.8142,16.2315 -8.7407,17.1924 -1.6849,0.4122 -3.435,1.3017 -3.8882,1.9777 -0.4531,0.676 -0.8476,8.0429 -0.8772,16.36931 -0.086,24.0621 -2.1484,35.2865 -5.8117,31.6232 -0.7401,-0.7401 -2.9421,-1.3453 -4.8936,-1.3453 -3.371,0 -3.5836,0.2593 -4.2611,5.2024 -0.3922,2.8615 -0.713,12.45 -0.713,21.3071 v 16.1032 h -5.0463 c -6.0841,0 -5.8434,-2.0695 -3.1736,27.1666 1.0548,11.5498 1.5242,21.3901 1.0431,21.8673 -0.4811,0.4773 -1.9839,-0.5198 -3.3396,-2.216 -1.3556,-1.696 -2.8108,-3.0833 -3.2344,-3.0833 -0.4236,0 -1.6206,1.6407 -2.6595,3.6452 -1.5224,2.9375 -2.0626,8.7352 -2.7827,29.8902 -0.4914,14.4358 -1.3773,26.732 -1.9696,27.3243 -0.6881,0.6882 -2.0099,0.4237 -3.6631,-0.7343 -1.4228,-0.9966 -3.737,-1.8119 -5.1416,-1.8119 -2.4861,0 -2.5533,0.2905 -2.51,10.9337 0.024,6.0135 0.7136,14.46501 1.5309,18.78231 5.4537,28.8071 5.5181,28.2645 -3.2656,27.6842 l -5.3107,-0.35 0.4779,10.4426 c 0.4601,10.0555 0.6725,10.7764 5.7428,19.3918 2.8963,4.9212 5.2665,9.7804 5.2665,10.7973 0,1.0169 0.7836,3.7236 1.7412,6.0155 2.3375,5.5944 2.3708,17.1475 0.056,19.4625 -1.5862,1.5862 -1.9965,1.5196 -4.3695,-0.7097 -3.1462,-2.9557 -7.151,-3.2067 -7.9424,-0.4977 -0.7561,2.5885 -1.1768,38.4834 -0.4763,40.6497 5.1375,15.889 5.01,15.0567 2.0944,13.4963 -4.1558,-2.2242 -4.56,-1.4484 -4.56,8.7571 0,11.3498 1.5402,16.7356 9.2662,32.4002 2.7843,5.6451 4.7828,10.5434 4.4402,10.886 -0.3426,0.3426 -3.189,0.6312 -6.3243,0.6406 -8.5782,0.026 -9.0643,0.6441 -9.0643,11.5119 0,9.2243 0.1077,9.5883 7.0553,23.768 4.4817,9.1467 6.6662,14.7905 5.9859,15.4707 -0.6801,0.6802 -3.4068,0 -7.4725,-1.8595 -3.5204,-1.6117 -6.8433,-2.9305 -7.3855,-2.9305 -1.6078,0 -1.1644,20.9558 0.5289,24.9868 0.8338,1.9847 4.3668,7.3917 7.8504,12.0145 3.4837,4.6228 6.3341,8.696 6.3341,9.0528 0,0.3568 -1.8923,1.1178 -4.2052,1.6903 l -4.2053,1.0415 0.028,6.165 c 0.025,5.3441 0.6382,7.0614 4.6078,12.8933 2.5188,3.7006 4.9182,7.8012 5.3305,9.112 0.4122,1.3107 2.3754,4.0868 4.3629,6.1682 1.9874,2.0816 6.8935,7.7146 10.9024,12.5172 8.3882,10.0491 13.1816,13.7056 19.9307,15.2063 5.5228,1.2281 12.1886,5.9138 13.9676,9.8183 0.6736,1.4784 2.1164,2.6874 3.2065,2.6874 3.1156,0 3.4214,6.7308 3.0473,67.1035 l -0.3434,55.32873 -5.9087,5.227 c -8.1986,7.2519 -7.9346,8.2139 2.6825,9.7772 3.0085,0.443 6.4645,1.4925 7.6811,2.3326 2.814,1.9433 13.7585,1.9209 17.2893,-0.036 2.23,-1.236 3.5317,-1.2296 7.7485,0.04 5.8831,1.7706 11.0276,1.9766 11.9538,0.4781 0.356,-0.5762 2.3399,-0.7727 4.4089,-0.4369 7.4368,1.2068 6.466,-5.5209 -1.6574,-11.484 -3.9808,-2.9222 -5.7701,-5.1424 -6.5855,-8.1707 -1.4823,-5.5046 -3.2553,-48.87163 -3.6517,-89.31903 l -0.3187,-32.5218 8.4105,-1.3618 c 12.5205,-2.029 15.0669,-3.9468 33.2593,-25.0376 5.0319,-5.8337 11.709,-13.0003 14.8367,-15.9258 6.7087,-6.2749 10.9258,-14.0158 11.985,-22.0004 0.4203,-3.1685 0.4687,-5.7609 0.1084,-5.7609 -0.3603,0 -3.5754,1.7188 -7.1457,3.8209 -3.5702,2.1021 -6.8731,3.5867 -7.3394,3.2985 -1.704,-1.0532 -0.7238,-5.3302 5.3205,-23.2324 4.6036,-13.6348 6.1667,-19.8802 6.1667,-24.627 0,-5.9487 -0.1721,-6.3589 -2.6661,-6.3589 -1.4664,0 -3.2416,-0.6941 -3.9456,-1.5425 -1.0117,-1.2189 0.3921,-3.6306 6.6971,-11.4954 10.8496,-13.5337 13.3477,-19.0083 13.3616,-29.2956 0.01,-6.1633 -0.3632,-8.1296 -1.5343,-8.1296 -0.8497,0 -2.1496,-0.7299 -2.8895,-1.6213 -1.0838,-1.3059 -0.4339,-3.155 3.3462,-9.5177 7.0928,-11.9389 10.0028,-19.8478 10.0335,-27.2701 l 0.026,-6.4475 h -6.0302 c -3.4916,0 -6.5271,-0.5971 -7.2081,-1.4176 -1.9834,-2.3898 3.7214,-31.062 6.5247,-32.7945 0.6087,-0.3762 1.1055,-1.8317 1.1055,-3.2344 0,-1.4027 0.376,-2.9255 0.8345,-3.384 0.9036,-0.9035 0.531,-22.3424 -0.4468,-25.7079 -0.4645,-1.5987 -1.2621,-1.8915 -3.5761,-1.3141 -1.638,0.4087 -3.7753,1.4605 -4.749,2.3375 -0.9737,0.8771 -2.1091,1.5951 -2.5232,1.5951 -1.9045,0 -0.3964,-8.7207 3.2394,-18.7282 6.5897,-18.1379 10.1001,-37.7347 8.6701,-48.3966 -0.7051,-5.2566 -2.8098,-6.0094 -7.7518,-2.7712 -4.7321,3.1006 -4.6492,3.4618 -8.2233,-36.07651 -3.1689,-35.056 -2.8856,-34.2893 -11.134,-30.1744 -7.5414,3.7622 -8.7576,-3.1542 -4.0608,-23.0928 4.327,-18.3684 7.7213,-39.6372 6.868,-43.0365 -0.7341,-2.9252 -1.0016,-3.0326 -5.7788,-2.3162 -2.7551,0.4131 -5.0103,0.366 -5.0103,-0.1051 0,-0.4712 1.2775,-3.467 2.8386,-6.6578 2.2321,-4.5621 2.9867,-8.2397 3.5334,-17.2136 0.3988,-6.5445 0.2641,-11.4009 -0.3154,-11.3871 -0.5557,0.014 -4.4978,2.284 -8.7621,5.0463 -4.2641,2.7623 -8.4095,5.0217 -9.2121,5.0217 -3.3256,0 -3.6161,-3.98 -1.4932,-20.5236 1.9118,-14.8982 1.9748,-19.8469 0.2513,-19.8469 -0.3214,0 -3.336,1.575 -6.6988,3.4989 -3.5152,2.0113 -6.5329,3.0785 -7.0996,2.5117 -0.5422,-0.5422 -1.7855,-8.9908 -2.7631,-18.7758 -2.9367,-29.39651 -7.1745,-50.03271 -10.2749,-50.03271 -0.8655,0 -2.8607,0.8437 -4.4335,1.8742 -2.4372,1.5969 -3.0091,1.6373 -3.8686,0.2793 -0.5547,-0.8763 -1.0173,-2.5692 -1.0267,-3.7633 -0.038,-4.8216 -3.9828,-17.6028 -9.1956,-29.79009 -4.6137,-10.7864 -6.6057,-14.7709 -7.3132,-14.0136 z" id="path73" style="fill:#ffffff"/><path id="path23" style="fill:#1a1a1a;stroke-width:0.841052" d="m 1553.1838,246.93926 c -0.2359,0.2525 -0.3286,1.0317 -0.3286,2.262 0,1.8007 -2.5085,10.6056 -5.5736,19.5675 -3.0651,8.96199 -6.5985,20.73999 -7.8537,26.17279 -2.8637,12.3957 -4.8142,16.2315 -8.7407,17.1924 -1.6849,0.4122 -3.435,1.3017 -3.8882,1.9777 -0.4531,0.676 -0.8476,8.0429 -0.8772,16.36931 -0.086,24.0621 -2.1484,35.2865 -5.8117,31.6232 -0.7401,-0.7401 -2.9421,-1.3453 -4.8936,-1.3453 -3.371,0 -3.5836,0.2593 -4.2611,5.2024 -0.3922,2.8615 -0.713,12.45 -0.713,21.3071 v 16.1032 h -5.0463 c -6.0841,0 -5.8434,-2.0695 -3.1736,27.1666 1.0548,11.5498 1.5242,21.3901 1.0431,21.8673 -0.4811,0.4773 -1.9839,-0.5198 -3.3396,-2.216 -1.3556,-1.696 -2.8108,-3.0833 -3.2344,-3.0833 -0.4236,0 -1.6206,1.6407 -2.6595,3.6452 -1.5224,2.9375 -2.0626,8.7352 -2.7827,29.8902 -0.4914,14.4358 -1.3773,26.732 -1.9696,27.3243 -0.6881,0.6882 -2.0099,0.4237 -3.6631,-0.7343 -1.4228,-0.9966 -3.737,-1.8119 -5.1416,-1.8119 -2.4861,0 -2.5533,0.2905 -2.51,10.9337 0.024,6.0135 0.7136,14.46501 1.5309,18.78231 5.4537,28.8071 5.5181,28.2645 -3.2656,27.6842 l -5.3107,-0.35 0.4779,10.4426 c 0.4601,10.0555 0.6725,10.7764 5.7428,19.3918 2.8963,4.9212 5.2665,9.7804 5.2665,10.7973 0,1.0169 0.7836,3.7236 1.7412,6.0155 2.3375,5.5944 2.3708,17.1475 0.056,19.4625 -1.5862,1.5862 -1.9965,1.5196 -4.3695,-0.7097 -3.1462,-2.9557 -7.151,-3.2067 -7.9424,-0.4977 -0.7561,2.5885 -1.1768,38.4834 -0.4763,40.6497 5.1375,15.889 5.01,15.0567 2.0944,13.4963 -4.1558,-2.2242 -4.56,-1.4484 -4.56,8.7571 0,11.3498 1.5402,16.7356 9.2662,32.4002 2.7843,5.6451 4.7828,10.5434 4.4402,10.886 -0.3426,0.3426 -3.189,0.6312 -6.3243,0.6406 -8.5782,0.026 -9.0643,0.6441 -9.0643,11.5119 0,9.2243 0.1077,9.5883 7.0553,23.768 4.4817,9.1467 6.6662,14.7905 5.9859,15.4707 -0.6801,0.6802 -3.4068,0 -7.4725,-1.8595 -3.5204,-1.6117 -6.8433,-2.9305 -7.3855,-2.9305 -1.6078,0 -1.1644,20.9558 0.5289,24.9868 0.8338,1.9847 4.3668,7.3917 7.8504,12.0145 3.4837,4.6228 6.3341,8.696 6.3341,9.0528 0,0.3568 -1.8923,1.1178 -4.2052,1.6903 l -4.2053,1.0415 0.028,6.165 c 0.025,5.3441 0.6382,7.0614 4.6078,12.8933 2.5188,3.7006 4.9182,7.8012 5.3305,9.112 0.4122,1.3107 2.3754,4.0868 4.3629,6.1682 1.9874,2.0816 6.8935,7.7146 10.9024,12.5172 8.3882,10.0491 13.1816,13.7056 19.9307,15.2063 5.5228,1.2281 12.1886,5.9138 13.9676,9.8183 0.6736,1.4784 2.1164,2.6874 3.2065,2.6874 3.1156,0 3.4214,6.7308 3.0473,67.1035 l -0.3434,55.32873 -5.9087,5.227 c -8.1986,7.2519 -7.9346,8.2139 2.6825,9.7772 3.0085,0.443 6.4645,1.4925 7.6811,2.3326 2.814,1.9433 13.7585,1.9209 17.2893,-0.036 2.23,-1.236 3.5317,-1.2296 7.7485,0.04 5.8831,1.7706 11.0276,1.9766 11.9538,0.4781 0.356,-0.5762 2.3399,-0.7727 4.4089,-0.4369 7.4368,1.2068 6.466,-5.5209 -1.6574,-11.484 -3.9808,-2.9222 -5.7701,-5.1424 -6.5855,-8.1707 -1.4823,-5.5046 -3.2553,-48.87163 -3.6517,-89.31903 l -0.3187,-32.5218 8.4105,-1.3618 c 12.5205,-2.029 15.0669,-3.9468 33.2593,-25.0376 5.0319,-5.8337 11.709,-13.0003 14.8367,-15.9258 6.7087,-6.2749 10.9258,-14.0158 11.985,-22.0004 0.4203,-3.1685 0.4687,-5.7609 0.1084,-5.7609 -0.3603,0 -3.5754,1.7188 -7.1457,3.8209 -3.5702,2.1021 -6.8731,3.5867 -7.3394,3.2985 -1.704,-1.0532 -0.7238,-5.3302 5.3205,-23.2324 4.6036,-13.6348 6.1667,-19.8802 6.1667,-24.627 0,-5.9487 -0.1721,-6.3589 -2.6661,-6.3589 -1.4664,0 -3.2416,-0.6941 -3.9456,-1.5425 -1.0117,-1.2189 0.3921,-3.6306 6.6971,-11.4954 10.8496,-13.5337 13.3477,-19.0083 13.3616,-29.2956 0.01,-6.1633 -0.3632,-8.1296 -1.5343,-8.1296 -0.8497,0 -2.1496,-0.7299 -2.8895,-1.6213 -1.0838,-1.3059 -0.4339,-3.155 3.3462,-9.5177 7.0928,-11.9389 10.0028,-19.8478 10.0335,-27.2701 l 0.026,-6.4475 h -6.0302 c -3.4916,0 -6.5271,-0.5971 -7.2081,-1.4176 -1.9834,-2.3898 3.7214,-31.062 6.5247,-32.7945 0.6087,-0.3762 1.1055,-1.8317 1.1055,-3.2344 0,-1.4027 0.376,-2.9255 0.8345,-3.384 0.9036,-0.9035 0.531,-22.3424 -0.4468,-25.7079 -0.4645,-1.5987 -1.2621,-1.8915 -3.5761,-1.3141 -1.638,0.4087 -3.7753,1.4605 -4.749,2.3375 -0.9737,0.8771 -2.1091,1.5951 -2.5232,1.5951 -1.9045,0 -0.3964,-8.7207 3.2394,-18.7282 6.5897,-18.1379 10.1001,-37.7347 8.6701,-48.3966 -0.7051,-5.2566 -2.8098,-6.0094 -7.7518,-2.7712 -4.7321,3.1006 -4.6492,3.4618 -8.2233,-36.07651 -3.1689,-35.056 -2.8856,-34.2893 -11.134,-30.1744 -7.5414,3.7622 -8.7576,-3.1542 -4.0608,-23.0928 4.327,-18.3684 7.7213,-39.6372 6.868,-43.0365 -0.7341,-2.9252 -1.0016,-3.0326 -5.7788,-2.3162 -2.7551,0.4131 -5.0103,0.366 -5.0103,-0.1051 0,-0.4712 1.2775,-3.467 2.8386,-6.6578 2.2321,-4.5621 2.9867,-8.2397 3.5334,-17.2136 0.3988,-6.5445 0.2641,-11.4009 -0.3154,-11.3871 -0.5557,0.014 -4.4978,2.284 -8.7621,5.0463 -4.2641,2.7623 -8.4095,5.0217 -9.2121,5.0217 -3.3256,0 -3.6161,-3.98 -1.4932,-20.5236 1.9118,-14.8982 1.9748,-19.8469 0.2513,-19.8469 -0.3214,0 -3.336,1.575 -6.6988,3.4989 -3.5152,2.0113 -6.5329,3.0785 -7.0996,2.5117 -0.5422,-0.5422 -1.7855,-8.9908 -2.7631,-18.7758 -2.9367,-29.39651 -7.1745,-50.03271 -10.2749,-50.03271 -0.8655,0 -2.8607,0.8437 -4.4335,1.8742 -2.4372,1.5969 -3.0091,1.6373 -3.8686,0.2793 -0.5547,-0.8763 -1.0173,-2.5692 -1.0267,-3.7633 -0.038,-4.8216 -3.9828,-17.6028 -9.1956,-29.79009 -4.6137,-10.7864 -6.6057,-14.7709 -7.3132,-14.0136 z m 2.2406,10.9452 c 1.8281,0.6094 12.2056,29.20359 12.844,35.38979 l 0.6259,6.0566 4.3564,-0.5848 c 3.7327,-0.5007 4.6155,-0.1875 6.1666,2.1798 3.7873,5.7802 7.1974,25.6713 8.8804,51.80681 l 0.7457,11.599 5.1745,-0.7524 c 2.8461,-0.4139 6.3201,-1.4882 7.7189,-2.3868 2.2666,-1.4559 2.6211,-1.4329 3.2541,0.2168 0.3908,1.0182 0.09,5.1994 -0.6668,9.291 -0.7572,4.0918 -1.6697,11.9349 -2.0288,17.4289 l -0.6538,9.9891 5.5046,-0.7408 c 3.3742,-0.4538 7.3612,-2.0412 10.3029,-4.1018 2.6393,-1.8488 5.2945,-3.361 5.9006,-3.361 1.1184,0 0.7252,4.7273 -1.2338,14.8515 -0.5661,2.9262 -2.548,8.0135 -4.4056,11.3049 -4.7871,8.4824 -4.4831,15.2865 0.4402,9.8463 2.4955,-2.7576 7.0205,-3.6035 8.6668,-1.6197 1.8333,2.2088 0.6009,11.4548 -4.0886,30.6589 -4.9479,20.262 -6.1926,33.442 -3.42,36.2145 2.4032,2.4032 6.6174,2.4506 10.1845,0.1134 2.625,-1.72 2.7935,-1.681 3.7667,0.8788 0.9339,2.4562 3.489,30.3871 5.2467,57.34921 0.4764,7.3069 1.1968,11.1952 2.1421,11.5579 0.7834,0.3006 3.2461,-0.4771 5.4734,-1.7281 3.9658,-2.2275 4.0739,-2.2311 5.1941,-0.138 2.834,5.2953 -0.1713,25.0832 -6.1698,40.6251 -8.3758,21.7011 -7.6941,33.6085 1.5523,27.1321 1.9467,-1.3636 2.9046,-1.4928 3.8734,-0.524 1.7623,1.7624 2.5013,17.8696 0.8936,19.4773 -0.6868,0.6869 -1.2484,2.3087 -1.2484,3.604 0,1.2952 -0.4602,2.8341 -1.0234,3.42 -1.2346,1.2845 -6.3386,24.3236 -7.3559,33.2035 l -0.7278,6.3457 7.6369,-0.1775 7.6384,-0.1773 0.345,3.5613 c 0.2585,2.6666 -1.7853,7.671 -8.1296,19.8994 -4.6615,8.9848 -8.4762,17.0948 -8.4762,18.0234 0,0.9287 0.9318,1.6887 2.0697,1.6887 3.1374,0 5.7834,3.6504 5.756,7.9391 -0.036,5.6119 -3.5426,12.4521 -11.3575,22.1597 -7.4851,9.2981 -10.9836,15.8297 -11.0223,20.5778 -0.022,2.6812 0.4423,3.0549 4.1806,3.3643 3.7081,0.3069 4.1834,0.6785 4.0114,3.1506 -0.384,5.5163 -2.5587,13.0553 -6.6316,22.9893 -2.9912,7.2961 -4.2918,12.3449 -4.6914,18.2222 -0.5287,7.7767 -0.4456,8.1313 1.894,8.1313 1.3453,0 3.9808,-0.7944 5.8562,-1.7642 1.8753,-0.9698 4.1534,-1.4764 5.0643,-1.1269 2.7459,1.0538 -2.3049,8.648 -14.1928,21.3367 -5.8592,6.2542 -14.3838,15.5121 -18.9433,20.573 -4.5595,5.0608 -8.7437,9.2006 -9.2976,9.2006 -0.5538,0 -2.4743,1.0856 -4.2676,2.4115 -1.7933,1.3258 -7.4494,3.3466 -12.5698,4.4911 -12.5232,2.7991 -29.034,3.5599 -36.387,1.6771 -3.1736,-0.8126 -7.7153,-3.0044 -10.0926,-4.8705 -2.3773,-1.8662 -6.0892,-3.7206 -8.2479,-4.1215 -5.479,-1.0173 -17.373,-10.2848 -26.3354,-20.5203 -7.9244,-9.05 -18.7117,-24.7903 -21.3992,-31.2224 -1.5012,-3.5928 -1.4416,-3.8813 1.2632,-6.0089 1.5631,-1.2296 4.3321,-2.5634 6.1535,-2.9634 1.8213,-0.4001 3.3117,-1.377 3.3117,-2.1717 0,-0.7946 -3.0931,-5.4233 -6.8747,-10.2848 -11.4308,-14.6949 -15.0539,-25.5221 -10.0548,-30.0462 2.0273,-1.8347 2.4148,-1.7874 7.8125,0.9478 7.8691,3.9876 9.5028,3.8398 8.5124,-0.7671 -1.3569,-6.3126 -6.086,-17.9652 -9.4306,-23.239 -5.7963,-9.1397 -7.5573,-21.5171 -3.5745,-25.1215 1.149,-1.0398 4.6689,-2.1973 7.8225,-2.5708 7.0816,-0.8387 8.1143,-2.9727 4.3547,-8.9985 -3.1917,-5.1158 -10.236,-21.5502 -11.9242,-27.8188 -1.5621,-5.8005 -1.5487,-10.998 0.033,-12.5796 0.7075,-0.7076 2.906,-0.9864 5.0463,-0.6391 4.9193,0.7984 4.9431,-0.8148 0.1479,-9.9611 l -3.6452,-6.9519 v -19.3606 c 0,-14.5597 0.3678,-19.7223 1.4817,-20.8193 1.2186,-1.2 1.8481,-1.0112 3.5449,1.0644 1.2984,1.5884 3.2975,2.5232 5.3963,2.5232 3.9158,0 4.6781,-1.8261 4.7013,-11.2589 0.023,-9.223 -2.6435,-18.1439 -9.5374,-31.9157 -6.3547,-12.6945 -7.2477,-16.5688 -4.6406,-20.1342 1.501,-2.0528 2.81,-2.0486 9.6064,0.036 l 2.7022,0.8296 -0.6702,-9.429 c -0.3685,-5.1861 -1.7908,-14.4758 -3.1605,-20.6435 -2.4115,-10.8591 -3.5585,-29.78731 -1.9056,-31.44091 0.4342,-0.4344 2.7773,0.7858 5.2073,2.7104 2.4302,1.9247 4.9769,3.499 5.659,3.499 0.8678,0 1.2403,-7.2282 1.2403,-24.0555 0,-22.9781 1.1328,-34.56 3.5252,-36.0387 0.6058,-0.3743 1.9926,0.1249 3.0816,1.1105 3.9214,3.5487 5.7106,2.3124 5.9268,-4.0952 0.3512,-10.4061 -0.3044,-20.2462 -1.9531,-29.2808 -1.9969,-10.9432 -1.9984,-12.0973 0,-14.8006 1.2877,-1.7446 1.8901,-1.8988 3.0291,-0.7753 0.7817,0.771 2.2542,1.4028 3.2739,1.4028 2.1873,0 3.3051,-9.7497 3.3051,-28.8388 0,-6.4236 0.5249,-12.6608 1.1662,-13.8592 1.134,-2.1188 1.28,-2.1 5.3059,0.6356 2.2772,1.5475 4.4736,2.8123 4.8804,2.8123 1.3716,0 1.9822,-4.9646 3.2295,-26.2631 0.6834,-11.6692 1.7367,-22.13981 2.3408,-23.26861 0.6041,-1.1288 2.3025,-2.0517 3.7749,-2.0517 2.9216,0 3.4856,-1.2109 6.7809,-14.5787 2.9684,-12.0414 14.3768,-44.92239 15.461,-44.56099 z m 1.687,87.1917 c -3.9161,-0.022 -4.0341,0.7765 -4.6143,31.1354 -0.2508,13.1247 -0.2361,23.6426 0.033,23.3736 0.269,-0.2689 0.9436,-11.7271 1.4998,-25.4615 0.5561,-13.7345 1.5176,-25.4761 2.1355,-26.094 1.7845,-1.7845 5.5102,2.3856 7.2885,8.1576 l 1.5803,5.1317 0.079,-4.1329 c 0.088,-4.6485 -1.6343,-9.9725 -3.637,-11.2458 -0.7323,-0.4657 -2.6964,-0.8547 -4.3646,-0.8641 z m -10.2586,73.9944 c -0.7907,0 -2.2938,2.7146 -3.3395,6.032 -1.0457,3.3174 -3.4587,7.9858 -5.3633,10.3735 -4.2155,5.2846 -8.2925,13.1627 -9.3551,18.0777 -1.1413,5.2785 0.237,4.4716 2.8731,-1.6822 1.2549,-2.9296 4.1881,-7.8527 6.5181,-10.9402 5.2414,-6.9453 7.9407,-12.071 7.9407,-15.0765 0,-3.728 1.8639,-2.6387 3.811,2.2275 3.4343,8.5833 7.3775,38.5336 7.4298,56.4293 0.03,10.3606 1.3597,17.4317 3.5368,18.8119 2.0322,1.2885 4.2857,1.2104 4.2857,-0.1478 0,-0.6168 -0.5296,-1.1203 -1.1778,-1.1203 -2.5735,0 -4.3891,-8.3021 -5.5457,-25.3679 -2.412,-35.59 -6.8513,-57.617 -11.6138,-57.617 z m 38.8855,6.942 c -1.2484,0.114 -3.0288,2.8081 -5.567,8.1526 -3.3473,7.0484 -4.0358,9.8285 -4.3744,17.6621 l -0.4025,9.2959 1.048,-8.2594 c 0.5765,-4.5429 1.879,-9.8415 2.8944,-11.7747 1.0155,-1.9331 2.4112,-4.6457 3.1014,-6.0286 0.6902,-1.3829 1.5084,-2.5077 1.8168,-2.5002 0.9738,0.024 10.0298,29.386 11.208,36.3394 1.7474,10.3125 1.342,21.8473 -1.0891,30.9891 -1.219,4.5841 -2.2294,8.8135 -2.2439,9.3994 -0.077,3.1119 2.3551,-1.9823 3.9868,-8.3514 1.4662,-5.7232 1.7426,-10.6004 1.3059,-22.9778 -0.5056,-14.3328 -0.9163,-16.7968 -4.6866,-28.0487 -2.2732,-6.7845 -4.425,-14.9858 -4.7818,-18.2239 -0.4261,-3.8671 -1.1144,-5.7743 -2.216,-5.6738 z m -50.1559,61.8518 c -0.2271,-0.017 -0.4569,0.042 -0.6866,0.184 -0.4862,0.3005 -1.2196,3.7004 -1.6312,7.5563 -0.4115,3.8559 -1.2684,8.6836 -1.9039,10.7283 -0.661,2.1275 -0.7848,5.4858 -0.289,7.8504 0.7878,3.7578 0.9919,3.2169 2.257,-5.9613 0.7651,-5.5509 1.4353,-10.9746 1.4883,-12.054 0.196,-3.9912 2.3391,-1.8091 2.3391,2.3819 0,6.1568 2.3712,12.1261 8.2002,20.6403 2.7819,4.0633 5.4346,8.55771 5.894,9.98581 0.4594,1.4283 1.0495,1.9697 1.3108,1.2041 0.8298,-2.4303 -2.0833,-9.58391 -6.9682,-17.11181 -6.7624,-10.4213 -6.5706,-9.9565 -6.7974,-16.4514 -0.1746,-5.0021 -1.6231,-8.8335 -3.2131,-8.9526 z m 48.3129,65.77451 c -1.8701,0 -13.7302,12.078 -12.7866,13.0216 0.866,0.8659 5.7173,-2.0489 9.9382,-5.9696 1.6284,-1.5126 3.2119,-2.3299 3.5169,-1.8168 0.3051,0.5132 2.446,6.7369 4.7588,13.8297 4.0796,12.5105 4.2056,13.3819 4.1872,29.1559 -0.01,8.9433 -0.2778,17.0179 -0.5929,17.943 -0.3152,0.9252 -1.1419,4.4565 -1.8382,7.8487 -0.6963,3.3923 -1.5667,7.3037 -1.9334,8.6914 -0.3768,1.4257 -0.1607,2.5232 0.4977,2.5232 1.2946,0 3.0701,-4.9378 4.2332,-11.7747 0.4197,-2.4671 1.3063,-5.1663 1.9696,-5.9991 1.58,-1.984 1.5081,-20.9777 -0.1167,-31.0072 -1.7374,-10.7244 -10.0887,-36.4461 -11.8338,-36.4461 z m -15.4823,14.6084 c -0.3706,-0.01 -0.8649,0.1176 -1.4915,0.3581 -1.4182,0.5442 -1.7045,2.7448 -1.5852,12.1936 l 0.1446,11.5283 0.9691,-8.4106 c 0.5329,-4.6257 1.4792,-9.88 2.1026,-11.6761 0.9611,-2.7689 0.9721,-3.9711 -0.1396,-3.9933 z m -48.9321,28.53 c -0.1021,0.024 -0.1976,0.079 -0.2858,0.1676 -0.5995,0.5994 -1.8348,11.1592 -2.7449,23.4672 -0.9101,12.3082 -1.9848,26.163 -2.3885,30.7888 -0.9178,10.5187 0.8698,14.7672 11.4478,27.1945 6.5784,7.7284 9.4027,10.135 9.4027,8.0114 0,-0.3738 -3.6033,-5.5458 -8.008,-11.4938 -4.4048,-5.9481 -8.9371,-12.8844 -10.0713,-15.4133 -1.9036,-4.2446 -1.9409,-5.2362 -0.4813,-12.8967 0.8696,-4.564 1.9427,-16.2451 2.3835,-25.9592 0.4408,-9.7142 1.1063,-17.6621 1.4801,-17.6604 0.3737,0 2.163,2.8414 3.9752,6.3095 3.4802,6.6602 12.0964,16.7899 17.6375,20.7355 6.1402,4.3722 4.7833,0.9715 -2.6397,-6.6134 -8.564,-8.7506 -13.5853,-15.5351 -16.693,-22.5606 -1.2528,-2.8321 -2.2992,-4.2417 -3.0143,-4.0771 z m 77.178,66.8011 c -1.0428,0.069 -12.1886,20.5762 -13.0511,24.0127 -1.3174,5.2487 1.4617,2.3754 5.1892,-5.3649 4.171,-8.6614 6.1677,-11.2838 7.8159,-10.2652 0.7615,0.4707 0.8816,1.2129 0.2907,1.8038 -0.5731,0.573 -0.619,4.4882 -0.1067,9.125 0.9977,9.0318 0.011,15.5648 -4.2316,28.0389 -4.0147,11.804 -4.0036,11.8125 5.7314,5.3452 9.9931,-6.6387 10.3263,-6.4579 10.8301,5.8562 l 0.4238,10.3735 -17.695,18.472 c -9.7319,10.1598 -17.6932,18.899 -17.6932,19.4214 0,3.1922 6.03,-1.8298 20.5877,-17.148 l 16.5188,-17.3812 -0.46,-15.4543 c -0.2525,-8.5 -0.7818,-15.7779 -1.1761,-16.1721 -0.3943,-0.3943 -1.5974,0.1312 -2.6743,1.1679 -12.6004,12.1304 -16.3809,12.6263 -10.6643,1.3995 0.9146,-1.796 1.8833,-6.3377 2.1535,-10.0926 0.2702,-3.7548 1.0442,-8.6883 1.7183,-10.9649 0.9785,-3.3044 0.8113,-5.9627 -0.8263,-13.1776 -1.1282,-4.9704 -2.3346,-9.0182 -2.6808,-8.9953 z m -67.4222,69.5265 c -0.3462,-0.023 -1.5526,4.0264 -2.6808,8.9969 -1.6375,7.2149 -1.8047,9.8715 -0.8263,13.1759 0.6741,2.2766 1.4481,7.2118 1.7183,10.9666 0.2702,3.7547 1.239,8.2964 2.1535,10.0926 5.7167,11.2268 1.9361,10.7293 -10.6643,-1.4012 -1.0768,-1.0367 -2.2799,-1.5623 -2.6742,-1.168 -0.3943,0.3943 -0.9218,7.6723 -1.1712,16.1722 l -0.4534,15.4543 16.5861,17.5997 c 14.3311,15.2083 20.5089,20.2854 20.5089,16.8522 0,-0.4795 -7.9613,-9.1844 -17.6933,-19.3442 l -17.695,-18.4719 0.4238,-10.3735 c 0.5038,-12.3141 0.837,-12.4933 10.8303,-5.8545 9.7348,6.4672 9.7461,6.4571 5.7312,-5.3469 -4.2531,-12.5049 -5.2292,-19.0005 -4.2233,-28.1096 0.5244,-4.7482 0.4795,-8.4556 -0.1068,-8.8179 -0.5714,-0.3531 -0.4826,-1.1534 0.2037,-1.8398 1.5576,-1.5575 3.4745,0.8859 7.8947,10.0647 3.7276,7.7404 6.5066,10.6154 5.1892,5.3667 -0.8625,-3.4366 -12.0082,-23.9452 -13.0511,-24.0143 z m 64.8087,49.3 c -0.695,0 -16.906,18.8172 -20.8932,24.2526 -1.4148,1.9285 -2.3776,4.4527 -2.1405,5.608 0.3371,1.6423 1.3624,0.815 4.6997,-3.788 2.3477,-3.2381 4.7297,-5.8874 5.2944,-5.8874 0.5646,0 2.5788,-2.5225 4.4763,-5.6064 3.4988,-5.6863 6.1359,-7.0554 7.374,-3.8291 1.1044,2.8781 -2.7833,20.1874 -6.9683,31.0236 -2.132,5.5206 -3.8767,10.4906 -3.8767,11.0454 0,4.9392 5.7959,-7.7859 8.9888,-19.7368 2.2083,-8.2657 4.4929,-33.0819 3.0455,-33.0819 z m -45.384,121.2412 c 7.2206,-0.062 16.5308,0.5426 17.5094,1.5523 0.9488,0.979 2.4609,40.4066 4.0639,105.97253 l 0.4518,18.5031 4.1806,3.6567 c 4.0346,3.5284 4.104,3.7141 2.0172,5.3403 -1.4804,1.1538 -3.2222,1.4333 -5.5259,0.8871 -1.8503,-0.4387 -6.1403,-0.7566 -9.5325,-0.7064 -3.3923,0.05 -7.6806,0.3521 -9.5309,0.6719 -3.8641,0.6677 -8.4847,-0.037 -10.0368,-1.5327 -0.5858,-0.5645 -2.9834,-1.0266 -5.3271,-1.0266 -2.3438,0 -4.2611,-0.2859 -4.2611,-0.6341 0,-0.3482 1.557,-1.9424 3.4594,-3.5433 l 3.4595,-2.9108 -0.3235,-62.05383 c -0.2294,-43.9682 0.034,-62.4117 0.9067,-63.2842 0.5762,-0.5762 4.157,-0.8545 8.4893,-0.892 z"/></g></svg>