<svg version="1.1" id="svg1" width="5078.9116" height="5263.5273" viewBox="1268.9319642540395 2153.922482200263 583.6549554163414 810.2574609205035" sodipodi:docname="trees3.svg" inkscape:version="1.4.2 (f4327f4, 2025-05-13)" xmlns:inkscape="http://www.inkscape.org/namespaces/inkscape" xmlns:sodipodi="http://sodipodi.sourceforge.net/DTD/sodipodi-0.dtd" xmlns="http://www.w3.org/2000/svg" xmlns:svg="http://www.w3.org/2000/svg"><defs id="defs1"/><g><path d="m 1507.2389,2963.4775 c -0.065,-0.3773 -0.023,-4.089 0.094,-8.2484 0.153,-5.4487 -0.168,-8.143 -1.1484,-9.6393 -0.7484,-1.1423 -1.8477,-4.422 -2.4427,-7.2884 -0.6624,-3.1905 -2.4763,-7.2996 -4.6773,-10.5958 -1.9776,-2.9613 -3.5955,-5.9828 -3.5955,-6.7144 0,-0.7315 -1.0272,-3.3546 -2.2825,-5.8291 -1.2554,-2.4745 -2.2843,-4.735 -2.2863,-5.0235 0,-0.2885 2.9048,-2.5119 6.46,-4.9411 3.5551,-2.4291 8.8325,-6.7487 11.7275,-9.5991 11.8827,-11.6995 12.1713,-13.893 12.6639,-96.2165 l 0.3868,-64.64 -3.5035,-1.0016 c -1.9269,-0.5509 -5.9727,-1.2354 -8.9906,-1.5213 -5.1912,-0.4915 -5.9281,-0.293 -13.6604,3.6819 -4.4952,2.3108 -9.1414,4.2014 -10.3249,4.2014 -2.9951,0 -8.6776,3.0573 -15.7316,8.4639 -10.252,7.8577 -12.2196,8.4602 -27.5014,8.421 -10.8849,-0.028 -14.5387,-0.3982 -20.3934,-2.0672 -15.2817,-4.3563 -23.8394,-10.7509 -26.9324,-20.1246 -1.5524,-4.7049 -2.1535,-5.432 -6.1972,-7.4965 -4.9472,-2.526 -12.8386,-9.9425 -16.5562,-15.5603 -1.3214,-1.9967 -2.7624,-5.5571 -3.2024,-7.912 -0.9484,-5.0769 -2.727,-7.2982 -6.5081,-8.1286 -3.5851,-0.7875 -10.3779,-7.0607 -12.7756,-11.7984 -6.7923,-13.4215 -11.6849,-17.3512 -23.2081,-18.6404 -12.2261,-1.3678 -21.3411,-6.8302 -23.2545,-13.9355 -0.5272,-1.9579 -3.4622,-6.8825 -6.5223,-10.9435 -5.893,-7.8206 -9.0058,-14.5272 -9.0069,-19.4058 0,-3.9706 -4.5553,-13.3716 -10.1039,-20.8562 -8.789,-11.8557 -9.7666,-17.0256 -4.9988,-26.4344 2.9404,-5.8026 4.1585,-13.8945 3.4987,-23.2428 -0.8211,-11.635 -0.2434,-13.3179 7.4326,-21.6539 3.6858,-4.0027 7.7467,-9.434 9.0244,-12.0694 1.2775,-2.6355 3.7937,-7.933 5.5913,-11.7723 3.7014,-7.9053 10.9519,-16.3401 14.0457,-16.3401 2.4958,0 4.2366,-2.6282 6.6891,-10.0988 2.4799,-7.5541 5.6393,-13.7527 8.9363,-17.5322 3.7306,-4.2766 6.1996,-9.5414 7.8851,-16.814 1.9451,-8.3933 4.8238,-14.4691 11.5418,-24.3607 6.2023,-9.1323 9.1307,-15.2031 10.8622,-22.5184 1.5799,-6.6747 5.0531,-10.3851 12.1282,-12.9561 3.1463,-1.1433 8.1215,-3.3278 11.0559,-4.8543 5.1879,-2.6988 5.4704,-3.0446 10.2173,-12.5096 6.2055,-12.3734 7.6057,-17.2927 8.6027,-30.222 0.9241,-11.9841 1.7045,-14.4908 5.9871,-19.2312 4.7254,-5.2304 5.2984,-6.7923 4.624,-12.6034 -1.1732,-10.1079 2.9701,-16.8958 18.0949,-29.6442 3.9901,-3.3633 5.8894,-6.5098 11.4363,-18.947 1.4582,-3.2695 4.3683,-8.0022 6.4668,-10.5171 3.8908,-4.663 5.9472,-8.4795 8.7658,-16.2692 2.1233,-5.8677 4.9724,-9.0555 12.3719,-13.8422 3.41,-2.2059 8.4938,-6.088 11.2972,-8.6268 5.6648,-5.1301 7.9475,-6.4607 15.0877,-8.795 6.335,-2.071 10.3307,-5.669 14.8065,-13.3325 5.5269,-9.4633 7.705,-11.6443 13.2349,-13.2518 2.681,-0.7794 8.9214,-3.867 13.8675,-6.8613 11.0945,-6.7164 18.3619,-9.1416 29.2904,-9.7744 9.8366,-0.5696 15.2354,0.8053 22.3328,5.6874 2.6962,1.8546 6.5865,3.5042 9.7377,4.129 12.2269,2.4242 13.7742,3.2226 31.0158,16.0048 11.889,8.814 20.3271,16.9949 22.6389,21.9488 3.0204,6.4723 7.3956,12.6206 14.6429,20.577 3.8944,4.2755 9.3275,11.5756 12.0735,16.2224 5.1737,8.755 7.436,10.9656 15.7808,15.4193 6.4573,3.4464 9.7354,8.4683 15.4998,23.7451 4.9968,13.2423 8.6241,20.9486 11.1711,23.733 2.6248,2.8695 4.2399,7.6462 4.9432,14.6201 1.0004,9.9192 6.271,19.6625 10.6364,19.6625 2.3045,0 5.2203,3.91 10.8847,14.5965 3.2385,6.11 6.6987,11.1446 9.7159,14.1368 5.3925,5.3479 6.677,7.623 10.5056,18.6075 1.5314,4.3936 4.8221,12.2382 7.3127,17.4323 4.6205,9.6363 7.1804,18.1633 7.2045,23.9994 0.022,5.3401 2.6043,12.7024 7.3988,21.0961 6.1161,10.7075 7.2069,14.2126 8.0881,25.9896 0.448,5.9879 1.3356,11.208 2.1771,12.8035 0.7814,1.4816 4.5553,5.7803 8.3865,9.5528 7.8911,7.7702 11.4734,12.9615 13.7002,19.854 0.8466,2.6203 2.6095,5.7069 3.9174,6.859 6.3576,5.6001 8.8364,8.8726 12.5651,16.5886 4.0266,8.3323 5.3821,12.7359 6.4264,20.8764 0.3507,2.7334 1.5028,5.4768 3.1939,7.6046 4.2335,5.3272 5.0332,11.074 5.0286,36.1325 -0.01,24.8153 -0.7964,31.6722 -5.1054,44.2169 l -2.7797,8.0926 2.4698,6.7722 c 2.9213,8.0096 2.6614,12.7312 -1.1122,20.2019 -4.559,9.0257 -29.3795,35.3168 -38.2538,40.5205 -8.3008,4.8673 -13.0887,9.8897 -13.8265,14.5037 -1.1835,7.401 -9.4721,15.2311 -20.5982,19.4587 -2.641,1.0035 -9.0314,2.1766 -14.4447,2.6517 -5.3396,0.4685 -11.9663,1.5323 -14.726,2.3638 -7.3259,2.2075 -13.8377,1.8417 -25.1886,-1.4152 -5.5048,-1.5795 -14.7414,-3.7077 -20.5259,-4.7292 -12.9347,-2.2843 -20.8655,-4.606 -27.4361,-8.0316 -2.7664,-1.4423 -7.8573,-4.1147 -11.3131,-5.9386 -10.2056,-5.3865 -15.8937,-4.2523 -17.8612,3.5612 -1.2248,4.864 -5.7543,10.1783 -14.9224,17.5073 -12.7278,10.1746 -15.4892,21.2905 -12.1242,48.8053 1.9619,16.0423 6.5723,41.329 8.3753,45.9364 2.7165,6.9419 6.7438,11.7402 29.2881,34.8964 12.2187,12.5502 22.2157,23.1088 22.2157,23.4637 0,0.3548 -0.7864,1.6167 -1.7474,2.8042 -1.6308,2.0147 -2.3486,2.1542 -10.7458,2.087 -5.1897,-0.042 -12.1791,-0.7904 -16.5133,-1.7693 -7.1372,-1.6121 -7.603,-1.6177 -9.2689,-0.11 -0.9648,0.8731 -2.0003,2.818 -2.301,4.3219 -0.6079,3.0391 -4.8693,7.4144 -9.6588,9.917 -3.1266,1.6336 -3.1497,1.6305 -7.2019,-0.9393 -13.6207,-8.638 -31.7684,-3.8582 -41.3326,10.8863 -1.273,1.9624 -1.6684,2.0463 -5.4872,1.1654 -6.0762,-1.4015 -18.1436,-1.1437 -22.4062,0.4787 -2.0119,0.7658 -5.8898,2.0138 -8.6174,2.7732 -7.0104,1.952 -17.2602,7.3801 -21.5622,11.4188 -4.3757,4.108 -10.2851,6.7103 -10.6359,4.6838 z" id="path62" style="fill:#ffffff"/><path style="fill:#1a1a1a;stroke-width:0.685901" d="m 1507.2389,2963.4775 c -0.065,-0.3773 -0.023,-4.089 0.094,-8.2484 0.153,-5.4487 -0.168,-8.143 -1.1484,-9.6393 -0.7484,-1.1423 -1.8477,-4.422 -2.4427,-7.2884 -0.6624,-3.1905 -2.4763,-7.2996 -4.6773,-10.5958 -1.9776,-2.9613 -3.5955,-5.9828 -3.5955,-6.7144 0,-0.7315 -1.0272,-3.3546 -2.2825,-5.8291 -1.2554,-2.4745 -2.2843,-4.735 -2.2863,-5.0235 0,-0.2885 2.9048,-2.5119 6.46,-4.9411 3.5551,-2.4291 8.8325,-6.7487 11.7275,-9.5991 11.8827,-11.6995 12.1713,-13.893 12.6639,-96.2165 l 0.3868,-64.64 -3.5035,-1.0016 c -1.9269,-0.5509 -5.9727,-1.2354 -8.9906,-1.5213 -5.1912,-0.4915 -5.9281,-0.293 -13.6604,3.6819 -4.4952,2.3108 -9.1414,4.2014 -10.3249,4.2014 -2.9951,0 -8.6776,3.0573 -15.7316,8.4639 -10.252,7.8577 -12.2196,8.4602 -27.5014,8.421 -10.8849,-0.028 -14.5387,-0.3982 -20.3934,-2.0672 -15.2817,-4.3563 -23.8394,-10.7509 -26.9324,-20.1246 -1.5524,-4.7049 -2.1535,-5.432 -6.1972,-7.4965 -4.9472,-2.526 -12.8386,-9.9425 -16.5562,-15.5603 -1.3214,-1.9967 -2.7624,-5.5571 -3.2024,-7.912 -0.9484,-5.0769 -2.727,-7.2982 -6.5081,-8.1286 -3.5851,-0.7875 -10.3779,-7.0607 -12.7756,-11.7984 -6.7923,-13.4215 -11.6849,-17.3512 -23.2081,-18.6404 -12.2261,-1.3678 -21.3411,-6.8302 -23.2545,-13.9355 -0.5272,-1.9579 -3.4622,-6.8825 -6.5223,-10.9435 -5.893,-7.8206 -9.0058,-14.5272 -9.0069,-19.4058 0,-3.9706 -4.5553,-13.3716 -10.1039,-20.8562 -8.789,-11.8557 -9.7666,-17.0256 -4.9988,-26.4344 2.9404,-5.8026 4.1585,-13.8945 3.4987,-23.2428 -0.8211,-11.635 -0.2434,-13.3179 7.4326,-21.6539 3.6858,-4.0027 7.7467,-9.434 9.0244,-12.0694 1.2775,-2.6355 3.7937,-7.933 5.5913,-11.7723 3.7014,-7.9053 10.9519,-16.3401 14.0457,-16.3401 2.4958,0 4.2366,-2.6282 6.6891,-10.0988 2.4799,-7.5541 5.6393,-13.7527 8.9363,-17.5322 3.7306,-4.2766 6.1996,-9.5414 7.8851,-16.814 1.9451,-8.3933 4.8238,-14.4691 11.5418,-24.3607 6.2023,-9.1323 9.1307,-15.2031 10.8622,-22.5184 1.5799,-6.6747 5.0531,-10.3851 12.1282,-12.9561 3.1463,-1.1433 8.1215,-3.3278 11.0559,-4.8543 5.1879,-2.6988 5.4704,-3.0446 10.2173,-12.5096 6.2055,-12.3734 7.6057,-17.2927 8.6027,-30.222 0.9241,-11.9841 1.7045,-14.4908 5.9871,-19.2312 4.7254,-5.2304 5.2984,-6.7923 4.624,-12.6034 -1.1732,-10.1079 2.9701,-16.8958 18.0949,-29.6442 3.9901,-3.3633 5.8894,-6.5098 11.4363,-18.947 1.4582,-3.2695 4.3683,-8.0022 6.4668,-10.5171 3.8908,-4.663 5.9472,-8.4795 8.7658,-16.2692 2.1233,-5.8677 4.9724,-9.0555 12.3719,-13.8422 3.41,-2.2059 8.4938,-6.088 11.2972,-8.6268 5.6648,-5.1301 7.9475,-6.4607 15.0877,-8.795 6.335,-2.071 10.3307,-5.669 14.8065,-13.3325 5.5269,-9.4633 7.705,-11.6443 13.2349,-13.2518 2.681,-0.7794 8.9214,-3.867 13.8675,-6.8613 11.0945,-6.7164 18.3619,-9.1416 29.2904,-9.7744 9.8366,-0.5696 15.2354,0.8053 22.3328,5.6874 2.6962,1.8546 6.5865,3.5042 9.7377,4.129 12.2269,2.4242 13.7742,3.2226 31.0158,16.0048 11.889,8.814 20.3271,16.9949 22.6389,21.9488 3.0204,6.4723 7.3956,12.6206 14.6429,20.577 3.8944,4.2755 9.3275,11.5756 12.0735,16.2224 5.1737,8.755 7.436,10.9656 15.7808,15.4193 6.4573,3.4464 9.7354,8.4683 15.4998,23.7451 4.9968,13.2423 8.6241,20.9486 11.1711,23.733 2.6248,2.8695 4.2399,7.6462 4.9432,14.6201 1.0004,9.9192 6.271,19.6625 10.6364,19.6625 2.3045,0 5.2203,3.91 10.8847,14.5965 3.2385,6.11 6.6987,11.1446 9.7159,14.1368 5.3925,5.3479 6.677,7.623 10.5056,18.6075 1.5314,4.3936 4.8221,12.2382 7.3127,17.4323 4.6205,9.6363 7.1804,18.1633 7.2045,23.9994 0.022,5.3401 2.6043,12.7024 7.3988,21.0961 6.1161,10.7075 7.2069,14.2126 8.0881,25.9896 0.448,5.9879 1.3356,11.208 2.1771,12.8035 0.7814,1.4816 4.5553,5.7803 8.3865,9.5528 7.8911,7.7702 11.4734,12.9615 13.7002,19.854 0.8466,2.6203 2.6095,5.7069 3.9174,6.859 6.3576,5.6001 8.8364,8.8726 12.5651,16.5886 4.0266,8.3323 5.3821,12.7359 6.4264,20.8764 0.3507,2.7334 1.5028,5.4768 3.1939,7.6046 4.2335,5.3272 5.0332,11.074 5.0286,36.1325 -0.01,24.8153 -0.7964,31.6722 -5.1054,44.2169 l -2.7797,8.0926 2.4698,6.7722 c 2.9213,8.0096 2.6614,12.7312 -1.1122,20.2019 -4.559,9.0257 -29.3795,35.3168 -38.2538,40.5205 -8.3008,4.8673 -13.0887,9.8897 -13.8265,14.5037 -1.1835,7.401 -9.4721,15.2311 -20.5982,19.4587 -2.641,1.0035 -9.0314,2.1766 -14.4447,2.6517 -5.3396,0.4685 -11.9663,1.5323 -14.726,2.3638 -7.3259,2.2075 -13.8377,1.8417 -25.1886,-1.4152 -5.5048,-1.5795 -14.7414,-3.7077 -20.5259,-4.7292 -12.9347,-2.2843 -20.8655,-4.606 -27.4361,-8.0316 -2.7664,-1.4423 -7.8573,-4.1147 -11.3131,-5.9386 -10.2056,-5.3865 -15.8937,-4.2523 -17.8612,3.5612 -1.2248,4.864 -5.7543,10.1783 -14.9224,17.5073 -12.7278,10.1746 -15.4892,21.2905 -12.1242,48.8053 1.9619,16.0423 6.5723,41.329 8.3753,45.9364 2.7165,6.9419 6.7438,11.7402 29.2881,34.8964 12.2187,12.5502 22.2157,23.1088 22.2157,23.4637 0,0.3548 -0.7864,1.6167 -1.7474,2.8042 -1.6308,2.0147 -2.3486,2.1542 -10.7458,2.087 -5.1897,-0.042 -12.1791,-0.7904 -16.5133,-1.7693 -7.1372,-1.6121 -7.603,-1.6177 -9.2689,-0.11 -0.9648,0.8731 -2.0003,2.818 -2.301,4.3219 -0.6079,3.0391 -4.8693,7.4144 -9.6588,9.917 -3.1266,1.6336 -3.1497,1.6305 -7.2019,-0.9393 -13.6207,-8.638 -31.7684,-3.8582 -41.3326,10.8863 -1.273,1.9624 -1.6684,2.0463 -5.4872,1.1654 -6.0762,-1.4015 -18.1436,-1.1437 -22.4062,0.4787 -2.0119,0.7658 -5.8898,2.0138 -8.6174,2.7732 -7.0104,1.952 -17.2602,7.3801 -21.5622,11.4188 -4.3757,4.108 -10.2851,6.7103 -10.6359,4.6838 z m 19.324,-24.9448 c 0.7545,-0.3768 3.2237,-1.321 5.4872,-2.0982 2.2635,-0.7773 6.9962,-2.5255 10.5171,-3.885 5.2104,-2.0118 8.1829,-2.5212 15.9723,-2.737 9.3465,-0.2589 9.6247,-0.3287 11.889,-2.9856 1.2751,-1.4962 5.0696,-4.4277 8.4323,-6.5144 7.8927,-4.898 20.0885,-7.3457 28.2362,-5.6671 5.7636,1.1874 15.492,1.4047 15.492,0.346 0,-0.3859 1.9106,-2.8856 4.2456,-5.5549 l 4.2455,-4.8533 6.7886,0.2964 6.7886,0.2963 -2.5747,-2.143 c -7.2832,-6.062 -23.0967,-22.6391 -25.711,-26.9526 -3.6359,-5.9994 -7.4914,-20.5974 -11.1553,-42.2382 -3.6503,-21.5598 -4.9116,-36.721 -4.3246,-51.9797 0.7315,-19.0131 1.1722,-20.04 14.0181,-32.6677 12.0292,-11.825 16.737,-18.3553 19.6155,-27.2089 1.0942,-3.3652 2.9319,-7.7648 4.0839,-9.7768 2.6317,-4.596 12.6837,-14.2811 25.1339,-24.2164 26.3886,-21.0582 28.9932,-23.8963 27.9735,-30.4814 -0.8289,-5.3529 -4.7002,-12.9561 -7.5465,-14.8211 -3.5906,-2.3526 -10.0443,-1.4101 -16.3707,2.3908 -2.8478,1.7109 -11.6837,9.1274 -19.6354,16.4813 -7.9517,7.3539 -16.033,14.3387 -17.9586,15.522 -4.6728,2.8715 -5.4955,3.9644 -13.173,17.4972 -7.7188,13.6057 -13.3947,20.1753 -17.0569,19.7423 -2.9399,-0.3476 -3.2519,-1.3366 -5.7166,-18.1191 -3.8653,-26.3183 -5.7885,-49.36 -5.8777,-70.4191 -0.1018,-24.0177 -0.6693,-22.1482 10.422,-34.3311 17.7236,-19.468 22.012,-27.6098 23.445,-44.5119 0.7424,-8.7567 -0.7524,-11.9795 -5.3436,-11.5211 -2.6191,0.2615 -2.9391,0.6894 -4.3294,5.7874 -0.8257,3.0277 -3.4236,9.1188 -5.7733,13.5357 -7.5919,14.2713 -13.336,20.0984 -22.2811,22.6028 -7.5957,2.1267 -9.2203,-0.6477 -13.0396,-22.2684 -2.7531,-15.5849 -4.078,-19.2282 -7.3732,-20.2741 -2.7259,-0.8651 -8.743,2.2695 -16.807,8.7556 l -7.1551,5.7551 0.5348,7.3694 c 0.9323,12.8466 3.4278,73.3686 3.1079,75.373 -0.2676,1.6764 -1.642,0.8632 -10.7429,-6.3566 -10.5085,-8.3363 -19.9259,-15.0639 -22.4343,-16.0265 -0.8392,-0.322 -3.2841,1.3041 -6.42,4.2699 -6.8133,6.4436 -6.744,7.9899 0.6513,14.5271 13.201,11.6693 23.2345,22.4553 25.5751,27.4933 7.2932,15.6983 8.0514,36.0855 5.2382,140.8384 -2.1069,78.4491 -5.0759,97.8932 -16.5562,108.4302 -3.1222,2.8656 -10.1185,8.4128 -11.5229,9.1361 -0.131,0.067 1.6181,3.8581 3.8868,8.4238 2.2686,4.5656 4.1248,8.5993 4.1248,8.9638 0,0.3645 1.1237,2.4389 2.4971,4.6099 2.56,4.0465 3.9832,4.41 8.4773,2.1654 z m 223.1738,-194.3176 c 6.2723,-0.7559 13.462,-1.8407 15.977,-2.4105 14.0894,-3.1923 16.9999,-9.5952 11.4783,-25.2515 -1.4635,-4.1497 -2.2448,-7.545 -1.7363,-7.545 0.5085,0 2.6592,1.4214 4.7792,3.1586 6.2759,5.1426 8.6649,6.1078 11.4639,4.6316 5.5838,-2.9448 17.4553,-17.6945 17.4553,-21.6872 0,-2.5873 3.031,-4.9742 7.1537,-5.6334 11.9405,-1.9094 21.2317,-27.0735 12.5552,-34.0042 -3.1703,-2.5325 -2.9318,-5.3769 0.8185,-9.7581 3.9733,-4.6419 5.9941,-10.5112 5.9941,-17.4094 0,-6.1712 -0.7284,-7.889 -5.617,-13.2459 -1.9406,-2.1265 -3.5283,-4.2728 -3.5283,-4.7695 0,-0.4968 1.1996,-2.7949 2.6659,-5.107 5.4412,-8.5798 6.7543,-23.1849 2.7524,-30.6121 -2.0063,-3.7235 -2.1932,-5.026 -1.9631,-13.6781 0.1872,-7.0351 -0.1565,-10.869 -1.3003,-14.5053 -1.7698,-5.6272 -6.1165,-10.7708 -9.7489,-11.5364 -1.3563,-0.2858 -3.5075,-0.7365 -4.7806,-1.0015 -2.8135,-0.5856 -5.5925,-4.902 -6.4119,-9.9587 -0.9905,-6.1129 -5.6557,-14.7918 -11.1283,-20.7029 -7.5843,-8.192 -8.7333,-8.6389 -22.2137,-8.6389 -14.3331,0 -14.9012,-1.0624 -3.5176,-6.5784 9.7271,-4.7134 10.3576,-6 9.7253,-19.8452 -0.4479,-9.8061 -2.0869,-14.6628 -6.2052,-18.3875 -1.1117,-1.0054 -3.0673,-3.6131 -4.346,-5.795 -2.0944,-3.5738 -2.3355,-4.9904 -2.4321,-14.2919 -0.1028,-9.894 -0.2403,-10.5848 -3.2962,-16.5491 -2.6154,-5.1047 -3.8962,-6.5783 -7.1217,-8.1938 -6.3718,-3.1914 -6.8004,-3.9162 -5.6069,-9.4815 2.1071,-9.8251 -1.5081,-15.967 -10.0669,-17.1024 -5.7463,-0.7623 -6.9504,-2.3106 -7.6672,-9.8592 -0.6506,-6.852 -4.2694,-14.2602 -9.7364,-19.9322 -6.0254,-6.2512 -7.1319,-6.0212 -16.1096,3.3488 -4.0965,4.2754 -7.9156,7.7735 -8.487,7.7735 -2.3228,0 -0.7626,-5.3961 3.9492,-13.6588 6.5685,-11.5186 7.7936,-14.636 8.4301,-21.452 0.4268,-4.5701 0.1619,-6.5484 -1.327,-9.9145 -2.2754,-5.1438 -5.3004,-7.2464 -11.2477,-7.8179 -2.4969,-0.2399 -4.7371,-0.7554 -4.9783,-1.1456 -0.2411,-0.3903 1.0435,-2.4833 2.8548,-4.6513 3.1609,-3.7833 3.2797,-4.1819 2.9555,-9.9181 -0.3905,-6.9087 -2.8486,-12.4013 -7.9267,-17.712 -4.4762,-4.6812 -7.5734,-6.1749 -14.6141,-7.0481 -3.2456,-0.4025 -6.4853,-1.3159 -7.1992,-2.0298 -0.7138,-0.7138 -1.6537,-3.8152 -2.0886,-6.892 -1.577,-11.1572 -11.6587,-25.2619 -20.0481,-28.0485 -4.9348,-1.639 -6.4999,-3.9295 -6.4999,-9.5122 0,-11.225 -6.6494,-19.3282 -15.8605,-19.3282 -3.8501,0 -6.6329,-2.0368 -7.2931,-5.3379 -0.6943,-3.4712 -4.8996,-7.6032 -10.3983,-10.217 -3.3951,-1.6138 -6.1785,-2.1248 -12.1749,-2.2351 -8.5458,-0.1572 -9.8617,-0.6575 -16.9795,-6.455 -11.6954,-9.5261 -23.7675,-9.0597 -36.1053,1.3948 -2.2509,1.9074 -5.1508,3.147 -9.4823,4.0533 -9.6417,2.0173 -12.6378,6.1284 -14.0314,19.2541 l -0.6797,6.4018 -7.3299,0.4784 c -8.1748,0.5336 -12.0063,2.3126 -16.8413,7.8193 -4.2827,4.8777 -3.7488,9.5109 1.7839,15.4802 4.5806,4.9419 7.2975,9.7563 7.2975,12.9311 0,1.6903 -0.2674,3.0733 -0.5942,3.0733 -0.3267,0 -2.567,-2.0577 -4.9783,-4.5727 -2.4113,-2.515 -5.0733,-4.5727 -5.9155,-4.5727 -0.8422,0 -2.9375,-1.2346 -4.6561,-2.7436 -1.8547,-1.6284 -4.1489,-2.7436 -5.6444,-2.7436 -3.6532,0 -13.2188,2.6282 -14.6189,4.0166 -0.6587,0.6533 -1.8284,4.8525 -2.5991,9.3314 -0.7708,4.479 -1.7898,8.6149 -2.2643,9.1911 -0.4747,0.5761 -2.2639,1.3103 -3.9761,1.6315 -6.4904,1.2176 -10.1875,8.8507 -9.2862,19.1724 0.3122,3.5745 0.2607,6.9489 -0.1144,7.4985 -0.375,0.5496 -2.112,1.2781 -3.86,1.6188 -7.6101,1.4831 -14.5926,9.4394 -17.5039,19.945 -0.9987,3.6037 -4.0585,10.8287 -6.7998,16.0555 -5.5712,10.6226 -5.8696,12.5673 -3.4898,22.7439 0.8618,3.6853 1.2464,7.5715 0.89,8.9915 -0.3452,1.3755 -3.2701,5.3144 -6.4998,8.7532 -3.2296,3.4388 -6.1474,7.3492 -6.4839,8.6898 -1.5732,6.2684 2.5297,18.3153 8.6294,25.3371 3.5291,4.0625 4.9479,6.8744 3.8204,7.5712 -1.2954,0.8007 -4.3333,-1.0413 -9.1541,-5.5506 -5.0822,-4.7539 -7.761,-5.8679 -14.111,-5.8679 -9.5714,0 -17.3243,4.5242 -21.1489,12.3415 -2.1658,4.4266 -2.3926,5.72 -1.8849,10.7493 0.7528,7.4578 -0.1569,9.0683 -8.4303,14.9264 -3.6801,2.6057 -7.3583,5.6902 -8.1738,6.8545 -0.9811,1.4007 -1.6927,5.144 -2.1033,11.0651 -0.7107,10.2486 -1.8363,12.6283 -7.289,15.4101 -6.7918,3.4648 -11.8633,13.3172 -11.8633,23.0466 0,5.4226 2.6994,11.0664 9.1186,19.0648 5.0134,6.2468 4.9657,7.8757 -0.202,6.9063 -3.6421,-0.6833 -6.4953,-3.4511 -11.9274,-11.5703 -5.0512,-7.55 -6.5059,-7.8031 -12.519,-2.1786 -5.531,5.1736 -9.8924,13.5525 -10.6775,20.5128 -0.7416,6.575 -1.5363,7.9445 -5.5933,9.6397 -4.2884,1.7918 -7.0934,4.4133 -9.9885,9.3353 -2.9141,4.9543 -2.971,8.0895 -0.3136,17.2861 l 2.1456,7.4253 -3.7993,7.5666 c -3.169,6.3111 -3.7994,8.4597 -3.7994,12.9504 0,6.7166 1.3973,9.4558 7.5103,14.7224 l 4.8355,4.166 0.4935,8.182 c 0.4414,7.3167 0.78,8.5388 3.2011,11.5547 6.655,8.2897 8.6092,11.1219 8.6299,12.507 0.034,2.2637 7.4227,8.5876 13.7883,11.801 6.4681,3.2651 13.2838,3.9063 15.1013,1.4207 0.5836,-0.7982 1.3305,-3.7437 1.6599,-6.5457 1.026,-8.7304 6.815,-16.8481 12.0147,-16.8481 3.2806,0 3.5975,1.5862 1.0613,5.3123 -5.9867,8.7956 -5.4649,24.3997 1.0363,30.9908 4.6473,4.7115 7.4742,9.0948 9.3136,14.4411 2.3575,6.8522 3.0244,7.5761 9.7663,10.601 3.1056,1.3935 6.0332,3.2849 6.5058,4.2034 0.4726,0.9183 1.096,4.0807 1.3853,7.0276 0.9788,9.971 8.0352,16.6102 19.0321,17.9069 3.1731,0.374 5.8886,1.2085 6.3615,1.9547 0.4539,0.7161 0.5696,3.8616 0.2574,6.99 -0.9574,9.5902 1.5797,11.7435 15.3901,13.062 4.3657,0.4169 10.6441,1.6721 13.9519,2.7895 5.3646,1.812 6.5767,1.9186 11.219,0.9864 7.1006,-1.4261 13.0263,-4.455 14.7997,-7.565 1.8186,-3.189 6.9618,-5.3582 12.7044,-5.3582 9.2265,0 12.4779,-2.0582 19.1427,-12.1176 2.2495,-3.3953 4.5447,-6.1732 5.1005,-6.1732 0.5557,0 2.0618,0.9729 3.3469,2.1619 4.6577,4.31 15.6878,5.8474 18.6297,2.5968 3.8156,-4.2162 5.4772,-24.7309 2.8915,-35.6989 -2.7166,-11.5238 -12.6632,-29.1217 -22.6159,-40.0132 -6.0106,-6.5775 -7.8155,-6.8508 -14.703,-2.2259 -6.7332,4.5213 -9.4119,5.3285 -11.327,3.4134 -2.3596,-2.3596 -0.6684,-5.7039 6.5188,-12.8911 3.709,-3.709 7.0521,-7.7199 7.4292,-8.9132 0.3771,-1.1933 1.4572,-2.7126 2.4003,-3.3764 5.1233,-3.6058 9.4142,-19.4008 8.8395,-32.5388 -0.351,-8.025 -0.5426,-8.7008 -3.6787,-12.973 -3.1561,-4.2994 -3.2387,-4.5965 -1.7937,-6.4446 0.8331,-1.0656 2.1322,-2.8585 2.8866,-3.9842 1.4915,-2.2254 5.2038,-7.2754 8.1818,-11.1301 1.033,-1.337 1.8781,-2.894 1.8781,-3.4599 0,-2.2392 4.638,-10.0109 6.2866,-10.5342 0.992,-0.3148 3.9898,0.4339 6.9127,1.7266 6.8171,3.0148 10.7096,3.6673 14.4717,2.4257 3.1604,-1.0431 7.3511,-4.946 10.1302,-9.4347 2.9336,-4.7381 5.3868,-5.5932 16.8903,-5.8876 12.1206,-0.3102 14.6945,-0.9714 20.8691,-5.3614 2.4504,-1.7421 4.9887,-3.1676 5.6406,-3.1676 0.6519,0 3.1225,1.8022 5.4902,4.0049 8.1648,7.5957 10.635,8.7986 18.069,8.7986 4.0808,0 8.8896,0.702 12.4472,1.8173 7.8809,2.4704 11.9943,2.3566 16.118,-0.4455 4.3196,-2.9352 5.8159,-2.8793 8.1704,0.3053 2.8916,3.9112 3.9043,8.8081 3.9099,18.9064 l 0.01,9.1518 4.1367,5.0235 c 5.1061,6.2005 6.6881,10.7831 5.171,14.9785 -1.5181,4.1986 -1.3314,8.3935 0.6563,14.7374 4.2483,13.5592 7.2002,17.9407 14.5901,21.6561 6.7736,3.4055 7.8973,4.8661 9.1783,11.9302 1.0578,5.8338 2.3548,8.4837 6.9674,14.2359 3.0821,3.8436 4.4186,7.2828 5.4836,14.1106 0.2918,1.8714 1.5777,4.647 2.8576,6.168 2.3781,2.8262 14.4957,9.1774 17.5099,9.1774 1.3463,0 1.6624,0.7083 1.6265,3.6451 -0.039,3.1816 -0.3817,3.7631 -2.696,4.5727 -1.4583,0.5101 -5.1622,0.9296 -8.2308,0.932 -6.9852,0.01 -13.0156,2.9241 -31.1864,15.093 -23.2002,15.5372 -33.3022,24.9056 -30.9231,28.6773 0.5089,0.8068 2.5651,1.9417 4.5692,2.5219 4.6811,1.3553 8.5632,3.3794 14.0716,7.3369 8.6643,6.2246 19.3513,8.6294 28.2351,6.3535 8.7927,-2.2526 10.5206,-1.9752 16.3817,2.6295 2.8607,2.2475 6.8385,4.4696 8.8395,4.9381 5.5465,1.2985 15.2969,1.18 27.9007,-0.339 z m -132.0189,-67.7718 c 12.0326,-14.2683 32.5871,-33.398 44.6535,-41.558 5.7737,-3.9045 12.3462,-9.9212 12.3462,-11.3022 0,-0.5801 -1.2167,-1.514 -2.7039,-2.0754 -1.5388,-0.5808 -3.8045,-2.7424 -5.2585,-5.0168 -1.4051,-2.1979 -3.7094,-5.4987 -5.1206,-7.3351 -1.4112,-1.8364 -3.8604,-6.5624 -5.4425,-10.5021 -2.6199,-6.5237 -2.8843,-8.1105 -2.9614,-17.772 l -0.085,-10.6087 -3.3587,-3.9239 c -4.6201,-5.3974 -6.181,-10.6707 -5.9585,-20.1301 0.2225,-9.4674 -0.1511,-10.2826 -4.1124,-8.9719 -4.4194,1.4624 -5.2383,3.0849 -5.2383,10.3773 0,14.0009 -8.2773,29.4343 -26.721,49.8224 l -8.6976,9.6146 0.7629,25.595 c 0.9057,30.3847 2.1187,46.7522 4.1956,56.6116 l 1.5248,7.2388 3.0443,-6.423 c 1.6743,-3.5327 5.7832,-9.6709 9.1308,-13.6405 z m -84.1932,-67.8053 c -1.2386,-5.4864 -2.3345,-25.4083 -2.361,-42.9216 -0.032,-20.7139 0.678,-18.8398 -7.573,-20.0044 -3.3621,-0.4747 -4.344,-0.3308 -4.344,0.6364 0,0.6874 -2.2626,4.2955 -5.0279,8.0181 -5.0075,6.7409 -5.0264,6.7911 -4.6362,12.3436 0.882,12.5514 3.3108,24.7825 6.0348,30.3902 3.5008,7.2068 11.356,13.9612 16.3108,14.0248 1.8929,0.024 2.0931,-0.2876 1.5965,-2.4871 z m 58.3556,-48.0202 c 5.0961,-5.3198 10.589,-15.9662 10.589,-20.5235 0,-6.8065 -8.9215,-15.7047 -14.5142,-14.4764 -4.1491,0.9113 -9.9676,5.6733 -10.6328,8.7021 -1.0658,4.8524 3.0998,22.9982 6.455,28.119 1.9689,3.005 3.8944,2.5722 8.103,-1.8212 z" id="path12"/></g></svg>