<svg version="1.1" id="svg1" width="5078.9116" height="5263.5273" viewBox="2170.7121176454657 1192.034798000871 715.129882354534 805.0180863257297" sodipodi:docname="trees3.svg" inkscape:version="1.4.2 (f4327f4, 2025-05-13)" xmlns:inkscape="http://www.inkscape.org/namespaces/inkscape" xmlns:sodipodi="http://sodipodi.sourceforge.net/DTD/sodipodi-0.dtd" xmlns="http://www.w3.org/2000/svg" xmlns:svg="http://www.w3.org/2000/svg"><defs id="defs1"/><g><path d="m 2474.1753,1995.5504 c -10.2339,-1.3561 -11.6855,-2.7879 -7.0653,-6.969 3.2606,-2.9509 7.5987,-17.3293 8.6668,-28.7258 0.4468,-4.7667 1.3801,-11.6667 2.074,-15.3334 0.6939,-3.6666 1.5789,-10.2666 1.9666,-14.6666 0.7855,-8.9155 0.9876,-10.1935 4.0074,-25.3334 2.5278,-12.674 5.1403,-49.8353 5.0148,-71.3333 -0.049,-8.4333 -0.1109,-19.5333 -0.1369,-24.6667 -0.026,-5.1333 0.07,-11.8836 0.2126,-15.0005 l 0.26,-5.6673 -21.3334,0.059 c -15.0888,0.042 -22.8944,0.6215 -26.6666,1.9805 -6.5345,2.3541 -21.6196,2.5165 -25.5688,0.2752 -1.5962,-0.9058 -5.7218,-3.297 -9.168,-5.3136 l -6.2658,-3.6667 h -28.867 c -15.8769,0 -33.8802,-0.6286 -40.0074,-1.3969 -11.0047,-1.3799 -11.2589,-1.4976 -20.8645,-9.6667 -7.6719,-6.5245 -9.7453,-9.062 -9.8247,-12.0241 -0.2166,-8.0903 -1.6384,-8.9123 -15.4151,-8.9123 -6.9048,0 -15.6476,-0.6634 -19.4284,-1.4743 -6.1721,-1.3236 -17.3453,-7.4326 -19.2598,-10.5302 -0.9215,-1.491 -16.1573,-9.2983 -18.3704,-9.4135 -0.8947,-0.047 -5.2268,-3.031 -9.6268,-6.6321 -4.4,-3.601 -11.416,-9.1129 -15.5912,-12.2486 -4.1751,-3.1357 -7.6251,-6.4701 -7.6666,-7.4098 -0.041,-0.9397 -0.9083,-2.0281 -1.9261,-2.4187 -2.4097,-0.9247 -4.4938,-9.4039 -5.3476,-21.7575 -0.3758,-5.4365 -1.2901,-10.2597 -2.0318,-10.7181 -0.7417,-0.4584 -2.0743,-5.3103 -2.9613,-10.782 -0.887,-5.4717 -2.4069,-10.6147 -3.3774,-11.4289 -1.249,-1.0477 -1.7647,-5.4012 -1.7647,-14.8982 0,-14.1973 -1.9756,-26.2553 -4.8649,-29.693 -1.3742,-1.6349 -1.561,-8.0776 -0.8861,-30.5702 0.961,-32.0308 1.1684,-32.7742 12.0844,-43.3233 3.1166,-3.0119 5.6666,-6.1238 5.6666,-6.9153 0,-2.5167 18.4262,-16.9115 29.0518,-22.6957 l 10.2433,-5.5761 1.5688,-10.1463 c 0.8628,-5.5805 2.1564,-10.8712 2.8746,-11.7573 0.7182,-0.886 2.0333,-5.2109 2.9224,-9.6109 0.8891,-4.4 2.4033,-8.9 3.365,-10 0.9617,-1.1 2.162,-4.2286 2.6675,-6.9525 0.5054,-2.7238 1.7908,-5.6761 2.8565,-6.5605 1.0656,-0.8844 2.7747,-3.6117 3.798,-6.0606 1.0232,-2.449 4.4385,-7.7003 7.5896,-11.6696 9.4054,-11.8478 22.935,-30.2026 24.8719,-33.7422 1.5393,-2.813 1.4896,-5.0547 -0.3333,-15.0184 -1.1785,-6.4415 -2.1427,-13.2758 -2.1427,-15.1873 0,-1.9116 -0.6,-3.4756 -1.3334,-3.4756 -0.7836,0 -1.3333,-4.6422 -1.3333,-11.2601 v -11.26 l 7.4649,-6.0809 c 4.1057,-3.3445 9.0557,-6.4602 11,-6.9238 1.9443,-0.4636 4.2361,-1.3929 5.0928,-2.0652 0.8567,-0.6722 6.5156,-2.4064 12.5754,-3.8538 6.0597,-1.4473 11.898,-3.3645 12.9738,-4.2605 1.2173,-1.0137 8.5544,-1.8808 19.4246,-2.2957 15.8817,-0.6061 17.8621,-0.9619 21.8018,-3.9174 4.1536,-3.1159 4.3334,-3.6311 4.3334,-12.4188 0,-6.8199 0.8109,-10.9389 3.1661,-16.0826 3.223,-7.0387 15.135,-19.5812 18.5969,-19.5812 1.0326,0 3.3354,-1.1469 5.1174,-2.5486 1.782,-1.4017 6.7637,-3.2 11.0706,-3.9961 4.3068,-0.7962 8.7871,-2.3133 9.9562,-3.3713 2.1834,-1.976 15.9919,-4.7227 23.8326,-4.7406 7.7393,-0.018 15.5929,-4.6231 19.8678,-11.6506 2.1276,-3.4977 4.6934,-8.4595 5.7017,-11.0261 2.1241,-5.4072 8.9849,-14.6667 10.8671,-14.6667 0.7072,0 3.7694,-1.2 6.8051,-2.6667 6.7387,-3.2557 27.6878,-3.8766 30.1633,-0.8938 0.85,1.0242 3.1073,1.5326 5.3462,1.204 2.2574,-0.3313 5.2984,0.364 7.2848,1.6656 1.8755,1.2288 6.5931,2.7674 10.4837,3.419 12.5399,2.1003 15.7405,2.8885 15.7405,3.876 0,1.6647 17.8842,4.4308 23.4068,3.6202 2.8929,-0.4246 10.6599,-1.7281 17.2599,-2.8967 6.6,-1.1686 14.1,-2.464 16.6666,-2.8788 2.5667,-0.4148 5.5667,-1.5053 6.6667,-2.4235 2.9719,-2.4806 18.1918,-3.9918 40.383,-4.0095 13.1618,-0.011 20.0323,0.4826 20.6667,1.4834 0.5227,0.8245 2.9547,1.9341 5.4046,2.4658 2.7102,0.5882 7.5609,3.8833 12.3878,8.4152 4.3634,4.0966 9.5589,8.4609 11.5456,9.6985 1.9868,1.2375 5.3745,4.1261 7.5284,6.419 2.1539,2.293 5.0039,4.169 6.3333,4.169 1.3295,0 2.4173,0.5475 2.4173,1.2167 0,0.6692 2.9188,4.7192 6.4862,9 4.4188,5.3025 7.2103,10.2863 8.7581,15.6365 1.2496,4.3192 3.1831,9.2437 4.2967,10.9434 2.0342,3.1045 1.9462,11.2303 -0.277,25.5687 l -0.8836,5.6987 11.356,10.968 c 6.2458,6.0324 12.2707,12.8117 13.3885,15.0651 1.1179,2.2534 2.9252,4.8379 4.0162,5.7434 1.0911,0.9055 2.3984,4.1007 2.9052,7.1004 0.5068,2.9998 1.8235,7.613 2.9259,10.2515 2.5845,6.1855 4.0911,36.6597 1.8801,38.0262 -0.8355,0.5163 -1.519,2.0534 -1.519,3.4156 0,1.3623 -0.7425,2.7244 -1.6499,3.0269 -1.1445,0.3815 -1.7935,5.2155 -2.1185,15.7778 l -0.4686,15.2278 4.1185,3.9161 c 2.2652,2.1539 4.1185,4.7039 4.1185,5.6667 0,0.9628 0.9,1.7505 2,1.7505 1.1,0 2,0.6257 2,1.3905 0,2.5042 12.3038,14.6095 14.8491,14.6095 1.3663,0 2.4842,0.8789 2.4842,1.9531 0,1.0742 1.35,2.6711 3,3.5488 5.7228,3.0439 16.9167,16.0313 17.7789,20.6274 0.9665,5.1517 0.1826,13.3634 -2.0877,21.8707 -0.9643,3.6134 -1.3781,11.3599 -1.0402,19.4749 0.4629,11.1178 1.0673,14.1859 3.455,17.5392 1.5917,2.2353 2.894,4.5956 2.894,5.2451 0,0.6495 2.445,3.8569 5.4334,7.1275 2.9883,3.2707 7.8631,10.0075 10.8329,14.9707 2.9697,4.9632 5.9247,9.3486 6.5666,9.7454 1.6262,1.005 1.4709,15.2305 -0.1662,15.2305 -0.7333,0 -1.3333,0.8359 -1.3333,1.8574 0,1.0215 -0.8055,2.1664 -1.79,2.5442 -3.0217,1.1595 -6.2116,9.6573 -6.1813,16.4666 0.026,5.9373 0.5785,7.0367 6.7612,13.4652 3.7029,3.85 7.14,7.0227 7.638,7.0506 0.8144,0.046 5.4932,6.0585 10.9054,14.0154 1.1,1.6172 4.25,6.226 7,10.2418 2.75,4.0159 5,7.6628 5,8.1043 0,0.4415 1.5,3.0132 3.3333,5.7147 3.0973,4.5641 3.3334,6.0445 3.3334,20.9045 0,8.796 -0.6475,18.4622 -1.4389,21.4807 -3.2155,12.264 -4.5014,16.1912 -5.5405,16.9218 -0.6001,0.4219 -1.406,4.0219 -1.7908,8 -0.9217,9.5283 -3.1762,16.927 -5.4203,17.7881 -0.9952,0.3819 -1.8095,1.5311 -1.8095,2.5538 0,3.3527 -23.4318,23.3584 -30.6667,26.1828 -2.5667,1.0019 -5.441,2.4148 -6.3873,3.1397 -0.9464,0.7249 -13.1437,1.7946 -27.1052,2.3773 -27.242,1.1368 -37.3941,2.2058 -38.5994,4.0643 -0.4172,0.6433 -5.1732,2.0901 -10.5689,3.2151 -11.2074,2.3369 -12.0059,2.6909 -12.0059,5.3238 0,1.0567 -0.9,1.9213 -2,1.9213 -1.1,0 -2,0.505 -2,1.1223 0,2.0275 -9.9209,4.1488 -23.5945,5.0448 -11.8945,0.7795 -14.1119,0.5665 -19.2572,-1.8502 -8.3133,-3.9045 -32.2702,-4.9641 -37.1233,-1.6418 -1.8471,1.2644 -6.8083,4.5119 -11.025,7.2165 -4.2166,2.7047 -7.6666,5.7155 -7.6666,6.6908 0,2.4651 -4.3257,3.3781 -16.1048,3.3994 -9.1004,0.016 -10.7294,-0.3956 -16.3899,-4.1449 -3.4568,-2.2897 -7.77,-6.1099 -9.5848,-8.4893 -6.3769,-8.3606 -19.6701,-13.2335 -44.9136,-16.4642 l -7.6597,-0.9803 -1.0069,4.7151 c -1.74,8.1475 -0.8107,58.0237 1.1474,61.5797 1.2538,2.2769 1.7818,11.532 1.9286,33.8021 0.1412,21.4212 0.8345,34.0834 2.2995,42 1.1536,6.2333 2.4569,13.7138 2.8963,16.6233 0.4394,2.9094 2.8814,12.9762 5.4267,22.3706 2.5453,9.3944 4.6278,18.1719 4.6278,19.5057 0,2.0344 -2.1377,2.78 -13.2731,4.6294 -14.9101,2.4762 -60.1374,2.8083 -77.0602,0.5658 z" id="path54" style="fill:#ffffff"/><path style="fill:#1a1a1a" d="m 2474.1753,1995.5504 c -10.2339,-1.3561 -11.6855,-2.7879 -7.0653,-6.969 3.2606,-2.9509 7.5987,-17.3293 8.6668,-28.7258 0.4468,-4.7667 1.3801,-11.6667 2.074,-15.3334 0.6939,-3.6666 1.5789,-10.2666 1.9666,-14.6666 0.7855,-8.9155 0.9876,-10.1935 4.0074,-25.3334 2.5278,-12.674 5.1403,-49.8353 5.0148,-71.3333 -0.049,-8.4333 -0.1109,-19.5333 -0.1369,-24.6667 -0.026,-5.1333 0.07,-11.8836 0.2126,-15.0005 l 0.26,-5.6673 -21.3334,0.059 c -15.0888,0.042 -22.8944,0.6215 -26.6666,1.9805 -6.5345,2.3541 -21.6196,2.5165 -25.5688,0.2752 -1.5962,-0.9058 -5.7218,-3.297 -9.168,-5.3136 l -6.2658,-3.6667 h -28.867 c -15.8769,0 -33.8802,-0.6286 -40.0074,-1.3969 -11.0047,-1.3799 -11.2589,-1.4976 -20.8645,-9.6667 -7.6719,-6.5245 -9.7453,-9.062 -9.8247,-12.0241 -0.2166,-8.0903 -1.6384,-8.9123 -15.4151,-8.9123 -6.9048,0 -15.6476,-0.6634 -19.4284,-1.4743 -6.1721,-1.3236 -17.3453,-7.4326 -19.2598,-10.5302 -0.9215,-1.491 -16.1573,-9.2983 -18.3704,-9.4135 -0.8947,-0.047 -5.2268,-3.031 -9.6268,-6.6321 -4.4,-3.601 -11.416,-9.1129 -15.5912,-12.2486 -4.1751,-3.1357 -7.6251,-6.4701 -7.6666,-7.4098 -0.041,-0.9397 -0.9083,-2.0281 -1.9261,-2.4187 -2.4097,-0.9247 -4.4938,-9.4039 -5.3476,-21.7575 -0.3758,-5.4365 -1.2901,-10.2597 -2.0318,-10.7181 -0.7417,-0.4584 -2.0743,-5.3103 -2.9613,-10.782 -0.887,-5.4717 -2.4069,-10.6147 -3.3774,-11.4289 -1.249,-1.0477 -1.7647,-5.4012 -1.7647,-14.8982 0,-14.1973 -1.9756,-26.2553 -4.8649,-29.693 -1.3742,-1.6349 -1.561,-8.0776 -0.8861,-30.5702 0.961,-32.0308 1.1684,-32.7742 12.0844,-43.3233 3.1166,-3.0119 5.6666,-6.1238 5.6666,-6.9153 0,-2.5167 18.4262,-16.9115 29.0518,-22.6957 l 10.2433,-5.5761 1.5688,-10.1463 c 0.8628,-5.5805 2.1564,-10.8712 2.8746,-11.7573 0.7182,-0.886 2.0333,-5.2109 2.9224,-9.6109 0.8891,-4.4 2.4033,-8.9 3.365,-10 0.9617,-1.1 2.162,-4.2286 2.6675,-6.9525 0.5054,-2.7238 1.7908,-5.6761 2.8565,-6.5605 1.0656,-0.8844 2.7747,-3.6117 3.798,-6.0606 1.0232,-2.449 4.4385,-7.7003 7.5896,-11.6696 9.4054,-11.8478 22.935,-30.2026 24.8719,-33.7422 1.5393,-2.813 1.4896,-5.0547 -0.3333,-15.0184 -1.1785,-6.4415 -2.1427,-13.2758 -2.1427,-15.1873 0,-1.9116 -0.6,-3.4756 -1.3334,-3.4756 -0.7836,0 -1.3333,-4.6422 -1.3333,-11.2601 v -11.26 l 7.4649,-6.0809 c 4.1057,-3.3445 9.0557,-6.4602 11,-6.9238 1.9443,-0.4636 4.2361,-1.3929 5.0928,-2.0652 0.8567,-0.6722 6.5156,-2.4064 12.5754,-3.8538 6.0597,-1.4473 11.898,-3.3645 12.9738,-4.2605 1.2173,-1.0137 8.5544,-1.8808 19.4246,-2.2957 15.8817,-0.6061 17.8621,-0.9619 21.8018,-3.9174 4.1536,-3.1159 4.3334,-3.6311 4.3334,-12.4188 0,-6.8199 0.8109,-10.9389 3.1661,-16.0826 3.223,-7.0387 15.135,-19.5812 18.5969,-19.5812 1.0326,0 3.3354,-1.1469 5.1174,-2.5486 1.782,-1.4017 6.7637,-3.2 11.0706,-3.9961 4.3068,-0.7962 8.7871,-2.3133 9.9562,-3.3713 2.1834,-1.976 15.9919,-4.7227 23.8326,-4.7406 7.7393,-0.018 15.5929,-4.6231 19.8678,-11.6506 2.1276,-3.4977 4.6934,-8.4595 5.7017,-11.0261 2.1241,-5.4072 8.9849,-14.6667 10.8671,-14.6667 0.7072,0 3.7694,-1.2 6.8051,-2.6667 6.7387,-3.2557 27.6878,-3.8766 30.1633,-0.8938 0.85,1.0242 3.1073,1.5326 5.3462,1.204 2.2574,-0.3313 5.2984,0.364 7.2848,1.6656 1.8755,1.2288 6.5931,2.7674 10.4837,3.419 12.5399,2.1003 15.7405,2.8885 15.7405,3.876 0,1.6647 17.8842,4.4308 23.4068,3.6202 2.8929,-0.4246 10.6599,-1.7281 17.2599,-2.8967 6.6,-1.1686 14.1,-2.464 16.6666,-2.8788 2.5667,-0.4148 5.5667,-1.5053 6.6667,-2.4235 2.9719,-2.4806 18.1918,-3.9918 40.383,-4.0095 13.1618,-0.011 20.0323,0.4826 20.6667,1.4834 0.5227,0.8245 2.9547,1.9341 5.4046,2.4658 2.7102,0.5882 7.5609,3.8833 12.3878,8.4152 4.3634,4.0966 9.5589,8.4609 11.5456,9.6985 1.9868,1.2375 5.3745,4.1261 7.5284,6.419 2.1539,2.293 5.0039,4.169 6.3333,4.169 1.3295,0 2.4173,0.5475 2.4173,1.2167 0,0.6692 2.9188,4.7192 6.4862,9 4.4188,5.3025 7.2103,10.2863 8.7581,15.6365 1.2496,4.3192 3.1831,9.2437 4.2967,10.9434 2.0342,3.1045 1.9462,11.2303 -0.277,25.5687 l -0.8836,5.6987 11.356,10.968 c 6.2458,6.0324 12.2707,12.8117 13.3885,15.0651 1.1179,2.2534 2.9252,4.8379 4.0162,5.7434 1.0911,0.9055 2.3984,4.1007 2.9052,7.1004 0.5068,2.9998 1.8235,7.613 2.9259,10.2515 2.5845,6.1855 4.0911,36.6597 1.8801,38.0262 -0.8355,0.5163 -1.519,2.0534 -1.519,3.4156 0,1.3623 -0.7425,2.7244 -1.6499,3.0269 -1.1445,0.3815 -1.7935,5.2155 -2.1185,15.7778 l -0.4686,15.2278 4.1185,3.9161 c 2.2652,2.1539 4.1185,4.7039 4.1185,5.6667 0,0.9628 0.9,1.7505 2,1.7505 1.1,0 2,0.6257 2,1.3905 0,2.5042 12.3038,14.6095 14.8491,14.6095 1.3663,0 2.4842,0.8789 2.4842,1.9531 0,1.0742 1.35,2.6711 3,3.5488 5.7228,3.0439 16.9167,16.0313 17.7789,20.6274 0.9665,5.1517 0.1826,13.3634 -2.0877,21.8707 -0.9643,3.6134 -1.3781,11.3599 -1.0402,19.4749 0.4629,11.1178 1.0673,14.1859 3.455,17.5392 1.5917,2.2353 2.894,4.5956 2.894,5.2451 0,0.6495 2.445,3.8569 5.4334,7.1275 2.9883,3.2707 7.8631,10.0075 10.8329,14.9707 2.9697,4.9632 5.9247,9.3486 6.5666,9.7454 1.6262,1.005 1.4709,15.2305 -0.1662,15.2305 -0.7333,0 -1.3333,0.8359 -1.3333,1.8574 0,1.0215 -0.8055,2.1664 -1.79,2.5442 -3.0217,1.1595 -6.2116,9.6573 -6.1813,16.4666 0.026,5.9373 0.5785,7.0367 6.7612,13.4652 3.7029,3.85 7.14,7.0227 7.638,7.0506 0.8144,0.046 5.4932,6.0585 10.9054,14.0154 1.1,1.6172 4.25,6.226 7,10.2418 2.75,4.0159 5,7.6628 5,8.1043 0,0.4415 1.5,3.0132 3.3333,5.7147 3.0973,4.5641 3.3334,6.0445 3.3334,20.9045 0,8.796 -0.6475,18.4622 -1.4389,21.4807 -3.2155,12.264 -4.5014,16.1912 -5.5405,16.9218 -0.6001,0.4219 -1.406,4.0219 -1.7908,8 -0.9217,9.5283 -3.1762,16.927 -5.4203,17.7881 -0.9952,0.3819 -1.8095,1.5311 -1.8095,2.5538 0,3.3527 -23.4318,23.3584 -30.6667,26.1828 -2.5667,1.0019 -5.441,2.4148 -6.3873,3.1397 -0.9464,0.7249 -13.1437,1.7946 -27.1052,2.3773 -27.242,1.1368 -37.3941,2.2058 -38.5994,4.0643 -0.4172,0.6433 -5.1732,2.0901 -10.5689,3.2151 -11.2074,2.3369 -12.0059,2.6909 -12.0059,5.3238 0,1.0567 -0.9,1.9213 -2,1.9213 -1.1,0 -2,0.505 -2,1.1223 0,2.0275 -9.9209,4.1488 -23.5945,5.0448 -11.8945,0.7795 -14.1119,0.5665 -19.2572,-1.8502 -8.3133,-3.9045 -32.2702,-4.9641 -37.1233,-1.6418 -1.8471,1.2644 -6.8083,4.5119 -11.025,7.2165 -4.2166,2.7047 -7.6666,5.7155 -7.6666,6.6908 0,2.4651 -4.3257,3.3781 -16.1048,3.3994 -9.1004,0.016 -10.7294,-0.3956 -16.3899,-4.1449 -3.4568,-2.2897 -7.77,-6.1099 -9.5848,-8.4893 -6.3769,-8.3606 -19.6701,-13.2335 -44.9136,-16.4642 l -7.6597,-0.9803 -1.0069,4.7151 c -1.74,8.1475 -0.8107,58.0237 1.1474,61.5797 1.2538,2.2769 1.7818,11.532 1.9286,33.8021 0.1412,21.4212 0.8345,34.0834 2.2995,42 1.1536,6.2333 2.4569,13.7138 2.8963,16.6233 0.4394,2.9094 2.8814,12.9762 5.4267,22.3706 2.5453,9.3944 4.6278,18.1719 4.6278,19.5057 0,2.0344 -2.1377,2.78 -13.2731,4.6294 -14.9101,2.4762 -60.1374,2.8083 -77.0602,0.5658 z m 163.7116,-183.0823 c 0.9376,-1.1298 6.9471,-5.5607 13.3544,-9.8464 l 11.6496,-7.7923 15.1422,0.6041 c 11.9457,0.4766 16.2349,1.1867 20.3185,3.3641 4.585,2.4448 6.5858,2.661 17.5142,1.8929 14.8392,-1.0431 19.9827,-2.6108 25.4527,-7.7577 2.9707,-2.7952 6.6923,-4.4318 13.1508,-5.7831 4.9542,-1.0365 9.6898,-2.4339 10.5235,-3.1053 2.5328,-2.0396 11.1203,-2.9493 38.2418,-4.0511 23.1372,-0.94 26.445,-1.3641 30.6074,-3.9242 2.5666,-1.5786 5.5666,-2.9096 6.6666,-2.9577 2.851,-0.1248 21.372,-15.911 24.206,-20.6318 4.5346,-7.5534 6.4607,-12.9774 6.4607,-18.1933 0,-2.884 1.302,-8.0608 2.8934,-11.5039 4.0451,-8.7518 5.3593,-15.979 6.022,-33.1156 0.4524,-11.6977 0.125,-15.8073 -1.5403,-19.3334 -4.0123,-8.4957 -10.7172,-19.6541 -13.7084,-22.814 -1.65,-1.743 -3,-3.8368 -3,-4.653 0,-0.8162 -1.5,-2.6638 -3.3334,-4.1059 -1.8333,-1.4421 -3.3333,-2.9895 -3.3333,-3.4387 0,-0.4491 -4.2,-5.1348 -9.3333,-10.4126 l -9.3334,-9.5961 v -8.6708 c 0,-7.9599 0.4373,-9.2943 5.3334,-16.2741 5.7396,-8.1824 7.2803,-16.5159 3.3333,-18.0305 -1.1,-0.4221 -2,-1.9221 -2,-3.3333 0,-1.4112 -0.871,-2.9001 -1.9355,-3.3086 -1.0645,-0.4085 -2.608,-2.7803 -3.4299,-5.2706 -0.8219,-2.4904 -2.9509,-5.6737 -4.7311,-7.074 -1.7803,-1.4003 -3.2368,-3.1693 -3.2368,-3.931 0,-0.7617 -1.1583,-1.7526 -2.574,-2.2019 -1.4442,-0.4583 -2.9538,-2.5461 -3.4393,-4.7565 -0.4759,-2.1668 -1.4176,-3.9396 -2.0927,-3.9396 -0.675,0 -1.2274,-0.85 -1.2274,-1.8888 0,-1.0389 -0.719,-2.1286 -1.5979,-2.4216 -1.0879,-0.3626 -1.7766,-5.8974 -2.1574,-17.3385 -0.4479,-13.4514 -0.094,-18.2863 1.7737,-24.2237 2.6995,-8.5824 2.1053,-19.0977 -1.2164,-21.5266 -1.1744,-0.8588 -2.1353,-2.2453 -2.1353,-3.0811 0,-0.8358 -0.4561,-1.5197 -1.0136,-1.5197 -0.5575,0 -2.7797,-1.65 -4.9383,-3.6666 -2.1585,-2.0167 -6.0524,-5.366 -8.653,-7.4428 -8.9868,-7.1769 -22.7284,-20.9656 -22.7284,-22.8063 0,-1.0159 -1.8,-3.3618 -4,-5.213 -3.9792,-3.3482 -4,-3.439 -4,-17.4378 0,-12.1068 0.4925,-15.3024 3.5268,-22.8821 3.2624,-8.1492 3.4661,-9.8073 2.7167,-22.1096 -0.4548,-7.4644 -1.6778,-15.0385 -2.7874,-17.2628 -1.0874,-2.1797 -2.3842,-6.678 -2.8818,-9.9962 -0.5594,-3.7309 -1.8592,-6.6293 -3.4062,-7.5954 -1.3758,-0.8592 -2.5015,-2.6178 -2.5015,-3.9081 0,-1.2903 -0.6,-2.346 -1.3333,-2.346 -0.7333,0 -1.3333,-0.8598 -1.3333,-1.9107 0,-1.0509 -4.3961,-5.7009 -9.7692,-10.3333 -11.6442,-10.0393 -13.6083,-13.6149 -12.1949,-22.2003 1.5485,-9.4061 1.4773,-21.535 -0.1326,-22.6051 -0.7866,-0.5228 -2.5026,-4.8506 -3.8135,-9.6172 -2.2543,-8.1971 -11.4755,-22.4391 -14.635,-22.6036 -0.6665,-0.035 -4.2665,-2.7964 -8,-6.1372 -17.9386,-16.0516 -25.2389,-21.9266 -27.256,-21.9341 -1.2093,-0 -3.9988,-1.0175 -6.1988,-2.2512 -7.2593,-4.0705 -55.8436,-2.6121 -59.4937,1.7859 -0.8247,0.9938 -3.7906,1.8068 -6.5909,1.8068 -2.8003,0 -5.4079,0.5121 -5.7947,1.138 -0.3868,0.6259 -5.0591,1.5428 -10.3829,2.0376 -5.3238,0.4948 -10.2628,1.4827 -10.9754,2.1954 -2.7325,2.7325 -23.9286,1.0643 -33.4291,-2.6309 -6.3855,-2.4837 -12.4267,-4.0734 -15.4794,-4.0734 -1.8096,0 -5.6438,-1.2 -8.5206,-2.6667 -2.8768,-1.4666 -6.2682,-2.6666 -7.5366,-2.6666 -1.2683,0 -2.6095,-0.4911 -2.9805,-1.0914 -0.9717,-1.5722 -27.4829,-2.0337 -27.4829,-0.4784 0,0.7015 -2.7,2.0727 -6,3.047 -3.3,0.9744 -6,2.4764 -6,3.3379 0,0.8614 -0.75,1.8551 -1.6667,2.2081 -0.9167,0.3529 -2.47,3.3734 -3.4518,6.7121 -0.9818,3.3387 -2.6318,6.3952 -3.6667,6.7923 -1.0348,0.3971 -1.8815,1.9409 -1.8815,3.4305 0,1.4897 -0.5272,2.7085 -1.1716,2.7085 -0.6443,0 -1.8955,1.7478 -2.7803,3.884 -0.9934,2.3983 -2.9629,4.2239 -5.1484,4.7724 -1.9468,0.4886 -3.9089,1.4859 -4.3602,2.2161 -0.4513,0.7302 -7.8711,2.1474 -16.4883,3.1492 -10.1773,1.1831 -16.4741,2.5511 -17.9687,3.9037 -1.2655,1.1453 -5.807,2.7305 -10.0922,3.5226 -4.2851,0.7922 -9.9253,2.8904 -12.5336,4.6628 -2.6083,1.7724 -5.3854,3.2226 -6.1713,3.2226 -2.2024,0 -9.538,8.2644 -10.6514,12 -0.5464,1.8333 -1.6086,3.7281 -2.3604,4.2106 -0.7519,0.4824 -1.6565,5.8824 -2.0104,12 -0.6131,10.6008 -2.9094,16.97 -6.1582,17.0808 -0.6756,0.023 -2.3859,1.0919 -3.8007,2.3752 -2.0901,1.896 -5.931,2.4584 -20.4885,3 -12.2904,0.4574 -18.2397,1.1909 -18.9464,2.3362 -0.5667,0.9182 -6.0941,2.8101 -12.2832,4.2042 -6.1891,1.3941 -13.7739,3.7929 -16.8551,5.3305 -3.0813,1.5377 -6.1972,2.7958 -6.9244,2.7958 -0.7272,0 -2.1062,1.0895 -3.0644,2.4212 -0.9583,1.3316 -2.7923,2.8127 -4.0756,3.2914 -1.8959,0.7072 -2.3334,2.5064 -2.3334,9.597 0,4.7996 0.5511,9.7685 1.2246,11.0418 2.0679,3.9095 5.8453,30.6325 4.9575,35.0714 -0.4602,2.3012 -2.3394,5.3661 -4.1761,6.8107 -1.8366,1.4447 -3.3393,3.4832 -3.3393,4.53 0,1.0468 -0.6188,1.9032 -1.3752,1.9032 -0.7563,0 -1.7456,0.9655 -2.1984,2.1455 -0.4529,1.18 -2.2923,3.73 -4.0878,5.6666 -3.1998,3.4515 -11.0053,14.4643 -11.0053,15.5275 0,0.2966 -1.4756,2.0148 -3.2791,3.8183 -1.8035,1.8036 -3.7005,4.9808 -4.2155,7.0606 -0.515,2.0799 -1.9861,4.5282 -3.2691,5.4409 -1.283,0.9126 -2.7329,4.028 -3.2221,6.9232 -0.4891,2.8952 -1.6902,5.9287 -2.6692,6.7411 -0.9789,0.8124 -2.1775,4.3685 -2.6635,7.9024 -0.4861,3.5339 -1.7347,8.0656 -2.7748,10.0704 -1.0401,2.0047 -2.5477,7.6332 -3.3502,12.5076 -0.8024,4.8744 -1.712,10.1911 -2.0212,11.8148 -0.4039,2.1215 -2.0432,3.351 -5.8257,4.3696 -2.895,0.7795 -5.6026,1.9657 -6.0168,2.6359 -0.4142,0.6703 -3.5134,2.5972 -6.8869,4.282 -3.3736,1.6849 -6.4242,3.8202 -6.7791,4.7452 -0.355,0.9249 -1.252,1.6817 -1.9934,1.6817 -1.6341,0 -10.7668,7.8111 -11.7,10.0068 -1.2225,2.8763 -7.8082,9.9932 -9.2473,9.9932 -0.7807,0 -1.4194,0.9 -1.4194,2 0,1.1 -0.6,2 -1.3333,2 -0.7334,0 -1.3334,1.1359 -1.3334,2.5241 0,1.3882 -0.8059,2.8332 -1.7909,3.2112 -2.4704,0.948 -4.1558,55.2524 -1.8027,58.0877 2.9732,3.5825 4.8095,14.2364 4.8681,28.2437 0.035,8.3456 0.6535,14.6613 1.5208,15.5286 0.8041,0.8041 2.287,5.792 3.2954,11.0843 1.0084,5.2924 2.5199,10.4496 3.359,11.4606 0.839,1.011 1.953,7.4911 2.4756,14.4002 0.6519,8.619 1.7123,13.7253 3.3783,16.268 2.7769,4.2381 10.0751,11.1916 11.7463,11.1916 0.6173,0 2.6369,1.8 4.4881,4 1.8512,2.2 3.8754,4 4.4983,4 0.6229,0 3.1032,1.8 5.5119,4 2.4087,2.2 5.4103,4 6.6703,4 1.26,0 2.6616,0.6 3.1149,1.3334 0.4532,0.7333 1.9886,1.3333 3.412,1.3333 1.4234,0 2.588,0.6 2.588,1.3333 0,0.7334 1.1953,1.3334 2.6564,1.3334 1.461,0 4.2601,1.8 6.2203,4 1.9603,2.2 4.3415,4 5.2917,4 0.9502,0 2.8011,1.1452 4.113,2.5449 3.0021,3.203 14.8897,5.4495 28.9635,5.4733 5.9153,0.01 12.0673,0.3701 13.6712,0.8002 2.9409,0.7887 5.7505,6.4699 5.7505,11.6279 0,2.7578 4.8176,8.887 6.9852,8.887 0.6529,0 2.634,1.7197 4.4026,3.8215 2.841,3.3764 4.5888,3.9976 15.0042,5.3333 6.4838,0.8316 24.8534,1.5119 40.8214,1.5119 27.0138,0 29.2684,0.1854 32.4228,2.6666 1.8646,1.4667 4.2931,2.6667 5.3967,2.6667 1.1036,0 2.686,0.9293 3.5165,2.065 2.4311,3.3248 15.4568,4.0508 24.0702,1.3416 5.9684,-1.8773 11.2776,-2.2163 29.0096,-1.8522 l 21.7042,0.4456 0.3941,-9.7825 0.394,-9.7824 -13.0607,-12.9561 c -7.1834,-7.1259 -15.7608,-15.0082 -19.0608,-17.5164 -3.3,-2.5082 -6.3,-4.9358 -6.6666,-5.3948 -0.8744,-1.0943 -23.4017,-16.0821 -29.0921,-19.3555 -2.434,-1.4001 -5.601,-4.444 -7.0379,-6.7643 -1.4368,-2.3202 -5.5045,-6.0744 -9.0392,-8.3427 -5.648,-3.6242 -14.7609,-12.9412 -17.9097,-18.3106 -1.2144,-2.0709 -16.4648,-9.2846 -23.5878,-11.1575 -2.5667,-0.6748 -10.6667,-2.7673 -18,-4.6499 -13.7453,-3.5286 -37.6581,-10.6193 -43.0627,-12.769 -1.6845,-0.6701 -4.5219,-1.2183 -6.3053,-1.2183 -4.5188,0 -22.8769,-6.2555 -29.2987,-9.9834 -6.0406,-3.5068 -12.2018,-9.5925 -10.9642,-10.8301 0.4532,-0.4532 2.8764,0.4444 5.3848,1.9948 2.5085,1.5503 5.72,2.8187 7.1368,2.8187 1.4168,0 3.146,0.4867 3.8426,1.0816 1.4008,1.1961 17.1904,4.981 28.6,6.8556 4.0334,0.6627 9.9626,1.8687 13.176,2.6801 3.2135,0.8114 6.1182,1.1996 6.4551,0.8628 3.2577,-3.2577 -20.6599,-28.117 -30.39,-31.5867 -4.5013,-1.6051 -6.4552,-3.2493 -8.2076,-6.9066 -2.8947,-6.0415 -9.3072,-10.9481 -16.9763,-12.9896 -5.1026,-1.3584 -5.5954,-1.7765 -3.485,-2.9576 1.3928,-0.7794 6.2606,-1.0703 11.233,-0.6711 7.2024,0.5781 9.2878,1.3004 11.6357,4.0299 5.68,6.6035 16.2353,12.9349 21.564,12.9349 4.7644,0 5.2072,0.3726 8.3188,7 8.2337,17.5367 39.8863,41.6742 60.7933,46.3596 12.0243,2.6947 21.1994,7.0642 26.6847,12.7081 3.0077,3.0948 6.7584,6.0362 8.3349,6.5366 1.5764,0.5003 3.4968,2.0879 4.2675,3.5279 0.7707,1.44 3.7499,4.3195 6.6204,6.399 2.8706,2.0794 4.9,4.1 4.5098,4.4901 -0.3902,0.3902 1.5487,2.42 4.3086,4.5108 2.7599,2.0907 6.4869,5.1513 8.2823,6.8013 1.7953,1.65 3.6833,3 4.1955,3 0.5122,0 2.6746,1.5113 4.8053,3.3585 10.5166,9.117 38.0492,22.333 40.7984,19.5837 1.6706,-1.6705 -8.8996,-16.9628 -14.7235,-21.3012 -2.6772,-1.9942 -5.1675,-4.0006 -5.5342,-4.4586 -0.3667,-0.458 -3.7945,-2.4103 -7.6174,-4.3384 -7.6721,-3.8695 -16.3734,-10.9347 -16.3991,-13.3155 -0.027,-2.4799 -8.9444,-7.5285 -13.2981,-7.5285 -2.2103,0 -4.0187,-0.488 -4.0187,-1.0845 0,-0.5965 -2.1,-1.9084 -4.6667,-2.9155 -2.5667,-1.0071 -4.6667,-2.3191 -4.6667,-2.9156 0,-0.5964 -0.9,-1.0844 -2,-1.0844 -1.1,0 -2,-0.6 -2,-1.3334 0,-0.7333 -1.0843,-1.3333 -2.4096,-1.3333 -3.1566,0 -10.9237,-6.4756 -10.9237,-9.1074 0,-1.1297 -1.2835,-3.4202 -2.8521,-5.09 -1.5687,-1.6698 -3.5187,-4.1865 -4.3334,-5.5927 -2.6053,-4.497 -26.5344,-35.4429 -29.546,-38.2099 -3.2716,-3.0058 -6.3581,-10.9146 -4.6674,-11.9595 0.6097,-0.3768 3.2202,1.6522 5.801,4.509 2.5809,2.8567 5.4963,5.1572 6.4786,5.1122 4.4875,-0.2055 6.4526,0.4865 6.4526,2.2721 0,1.0635 0.799,2.4135 1.7755,3 0.9765,0.5864 3.475,4.2219 5.5521,8.0788 3.3665,6.2511 7.1888,10.4803 23.0517,25.5059 2.4087,2.2815 4.9087,4.1482 5.5556,4.1482 0.6469,0 1.3762,0.4544 1.6207,1.0099 1.4876,3.3802 25.7727,18.9901 29.544,18.9901 1.401,0 1.7537,-0.8816 1.2001,-3 -1.818,-6.9561 -6.0201,-11.7656 -13.1151,-15.0109 -6.5061,-2.976 -9.4047,-5.9891 -5.7614,-5.9891 2.0112,0 0.3944,-4.3959 -4.7701,-12.9693 -2.7087,-4.4966 -4.2397,-8.6427 -3.9974,-10.8259 0.216,-1.946 -0.2546,-3.9424 -1.0458,-4.4365 -0.998,-0.6233 -0.9078,-1.5378 0.2946,-2.9865 1.5495,-1.867 1.9793,-1.7719 4.0591,0.8983 1.2793,1.6426 3.3922,5.0865 4.6952,7.6532 1.3031,2.5667 3.1879,5.1465 4.1885,5.7329 1.0007,0.5865 1.8194,1.6618 1.8194,2.3896 0,1.73 1.3736,3.2856 13.5925,15.3934 9.7711,9.6821 10.3037,10.5222 11.1967,17.6583 2.6158,20.9055 1.8654,19.6779 13.6281,22.2949 5.5586,1.2367 10.7387,2.7731 11.5113,3.4144 0.7726,0.6413 2.8465,2.3548 4.6088,3.8079 4.7068,3.8812 6.7094,3.3652 6.564,-1.6914 -0.4645,-16.155 -7.0625,-45.683 -11.3615,-50.8463 -10.7595,-12.9227 -26.4772,-23.6441 -39.4229,-26.8912 -7.6589,-1.9211 -9.1436,-2.7686 -9.8617,-5.6299 -0.465,-1.8526 -0.1845,-4.4267 0.6233,-5.7201 1.7039,-2.7285 0.531,-4.0099 -8.4634,-9.2458 -3.1493,-1.8334 -9.1977,-5.6962 -13.4409,-8.5841 -7.1533,-4.8684 -8.4476,-5.2686 -17.778,-5.4967 -5.5346,-0.1353 -12.2727,-1.175 -14.9735,-2.3105 -13.0663,-5.4935 -25.5094,-7.8739 -36.6232,-7.0063 -10.9922,0.8582 -17.7996,0.072 -17.7996,-2.0549 0,-0.6399 1.65,-1.5139 3.6667,-1.9422 2.0166,-0.4284 7.8082,-2.0445 12.87,-3.5914 8.2617,-2.5247 9.967,-2.6418 16.6667,-1.1445 8.6326,1.9293 28.4366,4.2683 29.2503,3.4547 0.3038,-0.3038 -2.674,-3.744 -6.6173,-7.645 -6.9282,-6.8537 -7.8168,-7.2864 -26.3813,-12.8464 -21.1848,-6.3448 -28.1099,-6.6037 -38.2569,-1.4305 -2.7776,1.4161 -8.0835,2.9353 -11.7908,3.376 -15.483,1.8404 -24.2691,5.1437 -34.4074,12.9361 -2.75,2.1137 -5,3.1629 -5,2.3315 0,-2.287 3.5536,-8.6821 5.9121,-10.6395 1.1483,-0.9531 2.0879,-3.1189 2.0879,-4.8131 0,-2.028 1.0248,-3.4 3,-4.0164 1.65,-0.5149 3.3,-1.3196 3.6667,-1.788 0.8708,-1.1127 28.4452,-8.1572 35.3333,-9.0267 2.9333,-0.3703 6.6622,-1.5183 8.2864,-2.5511 3.7416,-2.3791 6.4037,-2.3586 15.9287,0.1223 13.4412,3.501 13.9247,2.6803 5.0655,-8.5961 -6.894,-8.775 -16.5133,-14.7372 -23.7765,-14.7372 -4.2581,0 -5.03,-0.5467 -6.8195,-4.8295 -2.9633,-7.0922 -2.6476,-8.1177 2.3154,-7.5211 4.3057,0.5177 4.2781,0.4672 -4.3333,-7.9197 -9.0238,-8.7884 -13.5152,-15.7297 -10.1781,-15.7297 0.9706,0 2.9078,1.2792 4.3048,2.8428 1.3969,1.5636 7.5037,5.2217 13.5706,8.1291 7.7455,3.712 12.0933,6.737 14.5989,10.1572 1.9626,2.679 6.9737,8.4709 11.1359,12.8709 4.1622,4.4 12.2845,13.0078 18.0496,19.1285 16.0792,17.0709 26.2596,21.7862 25.6855,11.8966 -0.3529,-6.0794 1.5905,-24.079 2.7739,-25.6918 0.5381,-0.7333 1.7464,-4.1724 2.6851,-7.6425 0.9387,-3.47 2.1876,-6.0119 2.7754,-5.6486 0.5877,0.3632 0.4857,2.6023 -0.2267,4.9757 -1.3419,4.471 -1.692,18.3136 -0.5812,22.9821 0.349,1.4666 1.5318,5.0666 2.6285,8 1.0967,2.9333 2.0263,6.5333 2.0656,8 0.2677,9.9773 15.7808,28.6945 28.6679,34.5893 3.7186,1.7009 9.5437,5.7141 12.9447,8.9183 15.0599,14.1881 26.236,22.0687 34.1088,24.0511 3.889,0.9792 7.1214,3.0452 10.031,6.4111 5.2874,6.1166 10.0803,8.9464 10.8757,6.421 2.5646,-8.1433 3.9197,-35.0713 2.226,-44.2334 -2.4419,-13.2097 -13.3129,-26.6364 -37.0666,-45.7811 -9.3121,-7.5053 -12.6433,-11.0607 -13.8617,-14.7946 -2.4836,-7.6111 -10.6699,-22.4263 -16.2097,-29.3357 -15.4172,-19.2284 -19.1962,-22.0332 -34.4113,-25.5397 -3.9926,-0.9201 -9.6593,-2.7555 -12.5926,-4.0786 -2.9334,-1.3232 -9.457,-2.8334 -14.4969,-3.3562 -7.4252,-0.7702 -11.2193,-2.1172 -20,-7.1006 -15.9879,-9.0737 -13.442,-9.0232 30.4969,0.6051 8.8,1.9283 19.8597,3.9765 24.5771,4.5514 5.8061,0.7077 9.14,1.8152 10.3195,3.4283 3.0433,4.162 3.5212,0.9594 1.2497,-8.3743 -5.5795,-22.9254 -17.9046,-44.8147 -32.6011,-57.8991 -5.2241,-4.6511 -5.6819,-5.4131 -2.8786,-4.7922 12.0589,2.6708 12.4295,2.6854 11.574,0.4561 -0.4545,-1.1844 -3.1917,-5.3019 -6.0826,-9.1499 -5.4069,-7.1968 -7.3296,-12.3297 -4.6186,-12.3297 1.6235,0 18.4991,21.1776 22.3121,28 1.2295,2.2 4.033,7 6.2298,10.6667 2.1968,3.6667 4.568,8.0315 5.2692,9.6995 0.7013,1.6682 3.3724,4.2704 5.9357,5.7827 4.2928,2.5329 4.654,3.2404 4.5772,8.9672 -0.1319,9.8478 7.5879,32.1759 20.1282,58.2173 2.1188,4.4 5.3863,11.5198 7.261,15.8218 3.3657,7.7233 14.074,19.6603 24.68,27.5115 2.4766,1.8333 7.7433,6.3067 11.7037,9.9407 5.8061,5.3276 7.4387,6.2315 8.4285,4.6667 0.6752,-1.0674 1.2519,-3.1407 1.2816,-4.6074 0.03,-1.4667 0.4157,-8.7415 0.858,-16.1663 1.2663,-21.2556 -2.4959,-35.1677 -14.1972,-52.5004 -5.6162,-8.319 -9.8023,-17.2196 -13.2759,-28.2274 -2.7032,-8.5666 -11.3017,-22.1192 -21.2178,-33.4425 -14.6161,-16.6903 -24.1802,-33.3992 -24.1802,-42.2439 0,-2.2474 0.3538,-4.0862 0.7863,-4.0862 1.3626,0 5.8313,5.7916 8.7447,11.3333 5.1663,9.8271 12.0065,18.0073 17.9895,21.5136 3.2633,1.9124 6.2754,3.135 6.6935,2.7169 0.8835,-0.8835 -2.7104,-20.7934 -6.5398,-36.2304 -4.5341,-18.2776 -4.5977,-20.4474 -0.479,-16.3287 1.7654,1.7654 7.4715,17.5596 7.4715,20.6807 0,1.0088 1.7956,4.444 3.9902,7.6337 3.4898,5.0723 6.491,16.5781 6.65,25.4949 0.014,0.8143 1.4241,3.5401 3.1323,6.0574 1.968,2.8999 3.7146,8.4638 4.7672,15.1861 2.9436,18.7978 8.6935,33.9033 15.7685,41.4249 l 3.6223,3.851 1.1212,-8 c 0.6167,-4.4 0.8559,-15.5588 0.5316,-24.7974 -0.4686,-13.3472 -1.0962,-17.5922 -3.0557,-20.6667 -1.3563,-2.1281 -2.9955,-4.2452 -3.6426,-4.7047 -1.9511,-1.3854 2.0463,-10.4979 4.605,-10.4979 1.2583,0 2.5556,0.75 2.883,1.6667 1.5385,4.3076 2.506,-1.8908 3.8136,-24.4319 1.4511,-25.0146 2.5739,-31.2007 5.4883,-30.2359 1.0993,0.3639 1.7895,4.2529 2.0472,11.5344 0.4519,12.7707 1.8931,13.4844 6.8647,3.3996 4.2703,-8.6621 5.2297,-4.8315 1.6082,6.4213 -4.2314,13.148 -4.3322,14.0591 -4.2348,38.2619 0.022,5.4722 -0.2463,10.8722 -0.5963,12 -0.8342,2.6881 1.8681,6.8032 2.8588,4.3536 1.4857,-3.6731 9.3542,-14.162 11.0474,-14.7264 2.5036,-0.8345 0.851,8.9855 -2.6753,15.8977 -1.4674,2.8762 -4.2335,11.0712 -6.1471,18.2109 -2.9498,11.0067 -3.502,15.9699 -3.6301,32.6262 -0.091,11.8718 0.3524,19.5216 1.121,19.3334 0.6996,-0.1713 1.4119,-1.2115 1.583,-2.3115 0.1711,-1.1 0.7032,-4.7 1.1825,-8 0.4792,-3.3 2.3013,-9.1335 4.049,-12.9634 1.7478,-3.8299 3.552,-8.4545 4.0094,-10.2769 0.4827,-1.9234 5.817,-7.5774 12.7148,-13.4767 6.5357,-5.5897 13.5236,-12.3651 15.5287,-15.0564 2.005,-2.6913 3.9495,-5.1932 4.321,-5.5599 1.4762,-1.4569 6.5503,-13.0745 8.7352,-20 1.2725,-4.0334 2.8291,-8.3752 3.459,-9.6486 0.63,-1.2734 1.1455,-3.2634 1.1455,-4.4223 0,-2.1871 5.0162,-9.4839 10.492,-15.2625 l 3.1588,-3.3333 -0.9161,3.3333 c -5.0675,18.4394 -5.9066,22.315 -5.2731,24.3543 1.0167,3.2727 -1.6114,10.5869 -7.1367,19.8623 -2.5774,4.3267 -4.2917,8.2611 -3.8096,8.7432 1.1993,1.1993 12.818,-4.5707 12.818,-6.3656 0,-1.7604 5.5706,-0.2266 6.9696,1.9189 0.5332,0.8178 0.6588,2.4865 0.2791,3.7081 -0.3798,1.2216 -0.066,2.607 0.6971,3.0787 3.098,1.9147 1.0619,4.4656 -4.7282,5.9236 -5.2972,1.3338 -17.2728,6.8205 -33.8317,15.5001 -6.3983,3.3538 -15.579,13.1147 -16.526,17.5705 -0.4332,2.0383 -1.4427,7.6059 -2.2433,12.3726 -1.5205,9.0529 -3.8708,21.7437 -7.161,38.6667 -3.2387,16.6585 -6.2389,68.014 -3.9716,67.9847 1.6405,-0.021 5.3093,-8.2303 8.6337,-19.3181 1.5392,-5.1333 3.3423,-9.9033 4.007,-10.6 0.6648,-0.6966 1.2086,-2.3966 1.2086,-3.7778 0,-1.3811 1.95,-4.4318 4.3334,-6.7792 9.4646,-9.3221 26.9198,-34.8553 29.5992,-43.2971 0.5026,-1.5836 1.4188,-2.8792 2.0361,-2.8792 1.3602,0 15.1423,-12.466 25.4892,-23.0552 7.9349,-8.1207 12.9966,-19.3118 11.2392,-24.849 -0.4677,-1.4736 0.3635,-7.348 1.847,-13.0542 1.4836,-5.7062 3.9537,-18.7749 5.4892,-29.0416 2.633,-17.6053 6.0583,-29.9838 8.3001,-29.995 0.55,0 1,-0.9624 1,-2.1326 0,-2.7062 4.1899,-9.8724 5.7722,-9.8724 1.3585,0 0.248,8.7757 -2.4144,19.079 -2.8239,10.928 -3.9142,20.0019 -2.3341,19.4244 1.8211,-0.6655 29.245,-37.8158 30.248,-40.9761 0.6647,-2.0941 2.3697,-3.3351 9.0616,-6.5956 2.011,-0.9798 0.9157,2.5882 -2.4134,7.8617 -2.2735,3.6016 -2.9927,5.9302 -2.1535,6.9735 1.9861,2.4694 -0.1567,6.2569 -9.1615,16.1934 -6.4485,7.1156 -10.2986,13.2439 -16.7369,26.6406 -8.065,16.7814 -15.2014,37.5604 -15.2014,44.2618 0,2.9029 0.2941,3.0737 2.8951,1.6817 5.497,-2.9419 9.7359,-9.4433 11.1433,-17.0907 1.2496,-6.7908 1.684,-7.459 4.8842,-7.514 2.5044,-0.043 5.305,-2.054 9.7584,-7.0072 3.4352,-3.8208 7.8373,-7.3361 9.7824,-7.8117 1.9452,-0.4756 3.9261,-1.4597 4.4021,-2.187 0.4759,-0.7273 1.8686,-0.9374 3.0947,-0.4669 2.019,0.7748 1.963,1.2294 -0.5938,4.8201 -1.5527,2.1805 -4.4453,5.6811 -6.4281,7.779 -5.8971,6.2396 -9.8127,11.9503 -16.8965,24.6426 -6.6687,11.9486 -6.7598,12.0404 -15.3751,15.4925 -11.234,4.5014 -18.9055,9.5485 -23.579,15.513 -2.0649,2.6352 -7.533,7.7852 -12.1514,11.4445 -8.0147,6.3503 -13.5872,13.252 -13.5979,16.8414 -0.01,2.582 3.3077,1.9694 6.1121,-1.1294 3.107,-3.4333 21.5056,-12.6923 22.7494,-11.4485 2.1705,2.1705 -2.1957,7.4563 -6.8862,8.3362 -3.1181,0.585 -5.8313,2.2849 -7.7164,4.8346 -1.599,2.1628 -9.3257,8.754 -17.1705,14.6472 -7.8447,5.8931 -15.7683,12.9893 -17.608,15.7692 -1.8396,2.7799 -5.269,10.665 -7.6207,17.5225 -2.3518,6.8575 -4.7834,13.0382 -5.4037,13.7349 -0.6202,0.6966 -1.1314,2.1966 -1.1359,3.3333 0,1.1367 -0.9668,3.8667 -2.1385,6.0667 -3.0748,5.7735 -10.6719,27.138 -11.7343,32.9988 -0.9007,4.9692 -0.8859,4.9897 2.4875,3.4527 1.8664,-0.8504 3.3935,-1.9492 3.3935,-2.4418 0,-0.4925 3.4896,-4.4462 7.7547,-8.7859 6.8377,-6.9575 7.9624,-8.8738 9.5119,-16.2068 0.9665,-4.574 3.1769,-10.2406 4.912,-12.5924 1.7351,-2.3518 3.1547,-5.0241 3.1547,-5.9383 0,-0.9143 0.6066,-2.0371 1.3479,-2.4953 0.8883,-0.549 1.1149,3.1743 0.6646,10.9213 l -0.6833,11.7543 3.0021,-6.4634 c 9.0346,-19.4512 15.2973,-30.8453 17.65,-32.1115 1.4563,-0.7838 3.5563,-2.3838 4.6666,-3.5556 1.1103,-1.1719 4.4188,-2.9132 7.3521,-3.8696 2.9334,-0.9564 6.6128,-3.2178 8.1765,-5.0253 2.2053,-2.5492 4.7476,-3.5189 11.3333,-4.3228 4.6696,-0.57 15.6902,-2.6141 24.4902,-4.5424 43.9389,-9.6283 46.4848,-9.6788 30.4969,-0.6051 -8.7807,4.9833 -12.5748,6.3304 -20,7.1006 -5.0399,0.5228 -11.5635,2.033 -14.4969,3.3562 -2.9333,1.3231 -8.6,3.1585 -12.5926,4.0786 -15.2658,3.5182 -18.9315,6.2503 -34.6431,25.8202 -4.5608,5.6809 -13.3051,21.7871 -16.9581,31.2353 -0.6582,1.7023 -6.8838,7.7114 -13.8348,13.3537 -12.1761,9.8836 -12.7543,10.5989 -15.8203,19.5715 -2.5026,7.3238 -3.323,13.0865 -3.8406,26.9796 -0.4893,13.1293 -0.2512,17.6667 0.9268,17.6667 0.8719,0 3.9858,-2.6377 6.9198,-5.8616 3.7078,-4.0741 7.048,-6.2931 10.9531,-7.2764 7.757,-1.9533 18.9981,-9.8976 33.9894,-24.0211 3.401,-3.2041 9.2261,-7.2174 12.9447,-8.9183 12.8871,-5.8947 28.4002,-24.612 28.6679,-34.5893 0.039,-1.4666 0.9689,-5.0666 2.0656,-8 1.0967,-2.9333 2.2795,-6.5333 2.6285,-8 1.1108,-4.6684 0.7607,-18.511 -0.5812,-22.982 -0.7124,-2.3734 -0.8144,-4.6125 -0.2267,-4.9758 0.5878,-0.3632 1.8367,2.1787 2.7754,5.6487 0.9387,3.47 2.147,6.9091 2.6851,7.6425 1.1834,1.6127 3.1268,19.6124 2.7739,25.6918 -0.5741,9.8895 9.6063,5.1743 25.6855,-11.8967 5.7651,-6.1206 13.8874,-14.7285 18.0496,-19.1285 4.1622,-4.4 9.1733,-10.1918 11.1359,-12.8708 2.5056,-3.4203 6.8534,-6.4452 14.5989,-10.1572 6.0669,-2.9075 12.1737,-6.5656 13.5706,-8.1291 1.397,-1.5636 3.3342,-2.8429 4.3048,-2.8429 3.3371,0 -1.1543,6.9414 -10.1781,15.7298 -8.6114,8.3868 -8.639,8.4373 -4.3333,7.9197 4.963,-0.5966 5.2787,0.4289 2.3154,7.521 -1.7895,4.2829 -2.5614,4.8295 -6.8195,4.8295 -7.2632,0 -16.8825,5.9623 -23.7765,14.7373 -8.8592,11.2764 -8.3757,12.0971 5.0655,8.5961 9.525,-2.481 12.1871,-2.5014 15.9287,-0.1223 1.6242,1.0328 5.3531,2.1807 8.2864,2.551 6.8881,0.8696 34.4625,7.9141 35.3333,9.0267 0.3667,0.4685 2.0167,1.2731 3.6667,1.7881 1.9752,0.6164 3,1.9884 3,4.0164 0,1.6941 0.9396,3.86 2.0879,4.813 2.3585,1.9574 5.9121,8.3525 5.9121,10.6396 0,0.8313 -2.25,-0.2178 -5,-2.3315 -10.1383,-7.7924 -18.9244,-11.0957 -34.4074,-12.9362 -3.7073,-0.4406 -9.0132,-1.9598 -11.7908,-3.3759 -10.147,-5.1732 -17.0721,-4.9143 -38.2569,1.4305 -18.5645,5.56 -19.4531,5.9927 -26.3813,12.8464 -3.9433,3.9009 -6.9211,7.3412 -6.6173,7.645 0.8137,0.8136 20.6177,-1.5254 29.2503,-3.4547 6.6997,-1.4973 8.405,-1.3802 16.6667,1.1445 5.0618,1.5469 10.8534,3.163 12.87,3.5913 2.0167,0.4284 3.6667,1.3024 3.6667,1.9423 0,2.1272 -6.8074,2.9131 -17.7996,2.0549 -11.1138,-0.8677 -23.5569,1.5128 -36.6232,7.0063 -2.7008,1.1355 -9.4389,2.1752 -14.9735,2.3105 -9.3308,0.2281 -10.6242,0.628 -17.776,5.4967 -8.1058,5.5181 -8.958,6.0627 -17.2003,10.9908 -4.5845,2.741 -5.0478,3.4948 -4.2845,6.97 1.5404,7.0134 0,8.7967 -9.718,11.2336 -10.0697,2.5258 -23.2553,10.2442 -30.314,17.7451 -5.2496,5.5783 -14.5863,23.4041 -12.6147,24.0841 0.701,0.2418 4.4722,-1.3899 8.3804,-3.626 6.4816,-3.7084 7.5663,-3.9385 12.3453,-2.619 7.9463,2.1941 24.1921,0.357 29.9114,-3.3824 9.5733,-6.2592 44.1249,-6.9131 62,-1.1733 4.6309,1.487 22.4395,0.832 27.3334,-1.0054 5.4474,-2.0451 28.8202,-2.3441 32.2983,-0.413 1.6692,0.9268 5.6987,1.7063 8.9544,1.7323 5.3991,0.043 6.4829,0.6569 12.3288,6.9824 6.3563,6.8779 8.763,11.1648 7.1651,12.7627 -0.4566,0.4566 -6.3614,-0.5739 -13.1217,-2.2899 -14.6692,-3.7235 -45.2965,-5.4146 -50.2313,-2.7736 -2.9462,1.5768 -2.951,1.6243 -0.3533,3.4438 1.4487,1.0148 5.5573,2.5799 9.1302,3.4781 15.3998,3.8715 7.0126,4.7098 -12.1705,1.2165 -4.4,-0.8013 -11.3,-2.0329 -15.3334,-2.7369 -4.0333,-0.704 -11.8333,-2.267 -17.3333,-3.4733 -14.4567,-3.1706 -41.3333,-1.4144 -41.3333,2.701 0,3.6994 23.6303,12.25 37.0099,13.3918 12.682,1.0823 20.1098,3.1383 17.4829,4.8392 -1.0044,0.6503 -4.2262,1.0835 -7.1595,0.9627 -2.9333,-0.1209 -6.612,0.1946 -8.1748,0.701 -1.5629,0.5065 -13.2629,-0.8746 -26,-3.069 -38.9207,-6.7053 -45.875,-7.1891 -52.6893,-3.6652 -6.1956,3.2038 -12.516,10.2722 -15.8921,17.7726 -3.6259,8.0555 -7.4074,21.7933 -6.4328,23.3702 0.3738,0.6049 3.9089,1.0998 7.8557,1.0998 3.9467,0 7.503,0.5292 7.9027,1.176 0.3998,0.6468 4.6358,1.5947 9.4133,2.1063 8.6426,0.9255 16.2713,4.1092 26.3506,10.997 2.75,1.8792 5,4.1279 5,4.9971 0,0.8692 2.55,3.4638 5.6667,5.7658 5.1632,3.8136 6.5703,4.1902 15.8367,4.2383 7.5813,0.039 10.6041,-0.47 11.8749,-2.0013 z" id="path4"/></g></svg>