<svg version="1.1" id="svg1" width="5078.9116" height="5263.5273" viewBox="339.7936208737528 1204.5407959544455 504.2070370584582 792.5121040455551" sodipodi:docname="trees3.svg" inkscape:version="1.4.2 (f4327f4, 2025-05-13)" xmlns:inkscape="http://www.inkscape.org/namespaces/inkscape" xmlns:sodipodi="http://sodipodi.sourceforge.net/DTD/sodipodi-0.dtd" xmlns="http://www.w3.org/2000/svg" xmlns:svg="http://www.w3.org/2000/svg"><defs id="defs1"/><g><path d="m 535.73958,1994.3972 c 0,-1.4606 2.2355,-7.0375 4.9676,-12.3929 9.6083,-18.8337 10.714,-37.2452 9.8368,-163.7842 l -0.8406,-121.2583 -6.7087,-16.6007 c -7.0923,-17.5501 -8.6234,-17.1204 -10.5446,2.9591 -0.626,6.5439 -3.6226,15.3869 -6.6589,19.6509 -5.0047,7.0287 -5.243,8.8553 -2.549,19.5539 2.2168,8.8036 2.2351,12.5374 0.072,14.7 -1.5944,1.5943 -2.9828,11.0013 -3.0853,20.9043 -0.404,39.0115 -6.9925,57.9778 -20.7165,59.6365 -8.6114,1.041 -11.6162,-3.3665 -16.3825,-24.0291 -2.233,-9.6811 -6.825,-23.3649 -10.204,-30.4084 -3.3791,-7.0436 -6.1439,-16.4489 -6.1439,-20.9005 0,-4.6727 -3.472,-13.6794 -8.2138,-21.3073 l -8.2138,-13.2133 -3.9615,16.2496 c -2.1788,8.9373 -6.3945,20.266 -9.3683,25.1749 -4.6301,7.6433 -5.1154,10.9432 -3.3779,22.9722 2.5279,17.5 -3.3785,39.5692 -12.1235,45.299 -3.2013,2.0976 -5.8205,5.2052 -5.8205,6.9058 0,5.3333 -11.5257,14.1983 -18.4598,14.1983 -4.9981,0 -9.8468,-3.8405 -19.6286,-15.5471 -13.7814,-16.4931 -15.1027,-21.5062 -10.0838,-38.2577 2.4625,-8.219 2.2581,-10.3521 -1.3365,-13.9467 -7.5259,-7.5257 -12.0876,-19.129 -12.9042,-32.8221 -0.4385,-7.3551 -2.5712,-16.8033 -4.7392,-20.9958 -7.471,-14.4472 -9.8916,-36.627 -5.7376,-52.5747 2.3018,-8.8377 3.1638,-19.3097 2.2347,-27.1537 -2.0063,-16.9406 0.4218,-28.5199 8.4665,-40.3745 l 6.6335,-9.775 -5.4241,-16.8412 c -2.9831,-9.2626 -5.424,-23.1594 -5.424,-30.8818 0,-28.3162 12.5966,-53.2772 26.8864,-53.2772 4.667,0 6.2579,-2.1808 8.7179,-11.9506 1.6552,-6.5728 5.3416,-15.226 8.1921,-19.2292 3.6773,-5.1644 5.3023,-11.7933 5.5944,-22.8213 0.3826,-14.4511 1.059,-16.1052 9.6298,-23.5498 7.2473,-6.2948 8.7874,-9.0992 7.2029,-13.1148 -5.542,-14.0461 -0.2646,-33.875 12.2509,-46.0298 5.1051,-4.958 11.9478,-9.6836 15.2062,-10.5014 4.7189,-1.1844 5.9241,-3.2245 5.9241,-10.0287 0,-9.0228 4.2045,-20.6059 9.4912,-26.1475 1.7413,-1.8252 4.0533,-4.6984 5.1378,-6.385 4.3263,-6.7279 13.9944,-12.8971 26.7057,-17.0411 12.7352,-4.1516 13.395,-4.8068 13.9754,-13.8807 0.7855,-12.2789 7.8709,-24.2635 18.6322,-31.5156 9.7909,-6.5981 23.5581,-7.5369 28.2163,-1.9242 4.7334,5.7033 7.066,4.6966 8.9455,-3.8607 3.5985,-16.3841 31.7052,-27.8954 49.8052,-20.398 9.3758,3.8835 20.4224,16.4205 20.4224,23.1777 0,5.8817 3.2922,6.3462 7.6618,1.081 7.4915,-9.0267 32.9899,-1.1142 40.2039,12.4758 2.3228,4.3759 4.8581,13.0144 5.6338,19.1969 1.3661,10.8854 1.8164,11.3727 14.24532,15.4156 17.5084,5.695 23.8804,10.6523 33.689,26.2087 5.67115,8.9942 8.38675,16.4409 8.38675,22.9969 0,6.8136 1.1125,9.6957 3.742,9.6957 5.3108,0 21.3132,14.6407 26.0819,23.8624 3,5.8014 3.6408,11.877 2.5193,23.8873 -1.3864,14.8463 -1.0426,16.4096 4.3915,19.9702 8.2321,5.3939 11.7907,14.5486 11.7907,30.3322 0,10.3213 1.2208,14.6357 5.1465,18.1885 2.8307,2.5617 5.8255,8.9024 6.6551,14.0904 1.9127,11.9612 2.7439,13.0174 14.5353,18.472 19.5958,9.0649 27.856,47.542 17.2724,80.457 l -5.5939,17.3972 7.8089,14.845 c 5.8807,11.1794 7.8089,18.2122 7.8089,28.4817 0,7.5003 -0.989,14.2481 -2.1979,14.995 -1.2088,0.7471 -0.5578,7.4235 1.4467,14.8361 4.5711,16.9056 2.8314,40.2495 -4.1463,55.6331 -2.8633,6.3129 -5.3187,16.0751 -5.4566,21.6939 -0.3174,12.9513 -4.5879,24.5721 -12.2562,33.3509 -5.071,5.8052 -5.5697,7.8454 -3.1925,13.0628 1.5495,3.4005 2.8171,10.8167 2.8171,16.4803 0,8.7365 -1.9935,12.5894 -13.1527,25.4194 -14.9861,17.2298 -22.1649,19.1807 -31.0964,8.4508 -3.0543,-3.6693 -8.6153,-10.0578 -12.3577,-14.1966 -8.6597,-9.5768 -13.4596,-29.3098 -11.3974,-46.8561 1.3534,-11.5164 0.5903,-15.4797 -5.0883,-26.4252 -3.6744,-7.0821 -7.2698,-18.1026 -7.9898,-24.4899 -1.5208,-13.4941 -3.87755,-14.6439 -8.27145,-4.036 -1.7263,4.1675 -4.7389,8.9055 -6.6948,10.5286 -1.9558,1.6233 -3.5561,7.1498 -3.5561,12.2811 0,5.2151 -3.3437,16.0592 -7.5818,24.5885 -4.1699,8.3923 -7.6178,17.2299 -7.662,19.6389 -0.1263,6.8764 -7.8579,28.4483 -11.5935,32.345 -5.28102,5.5087 -15.87032,1.4185 -20.78922,-8.0301 -2.9667,-5.6982 -4.621,-16.5875 -5.3294,-35.0799 -0.5649,-14.7493 -2.1504,-29.768 -3.5236,-33.3752 -1.6351,-4.2961 -1.6143,-10.4635 0.06,-17.8779 2.3026,-10.1933 1.9211,-12.2395 -3.8363,-20.5722 -4.7218,-6.8342 -6.2303,-12.0114 -5.7706,-19.8041 1.0413,-17.6457 -4.1358,-18.2257 -10.6222,-1.1902 -8.8382,23.2127 -10.4961,52.2253 -9.6735,169.286 0.7468,106.2918 0.8934,109.035 6.6289,124.0199 3.2259,8.428 6.5203,17.3351 7.3213,19.7932 1.3571,4.1658 -2.3816,4.4695 -55.0292,4.4695 -37.3969,0 -56.4852,-0.8975 -56.4852,-2.6557 z" id="path60" style="fill:#ffffff"/><path style="fill:#1a1a1a;stroke-width:2.55396" d="m 535.73958,1994.3972 c 0,-1.4606 2.2355,-7.0375 4.9676,-12.3929 9.6083,-18.8337 10.714,-37.2452 9.8368,-163.7842 l -0.8406,-121.2583 -6.7087,-16.6007 c -7.0923,-17.5501 -8.6234,-17.1204 -10.5446,2.9591 -0.626,6.5439 -3.6226,15.3869 -6.6589,19.6509 -5.0047,7.0287 -5.243,8.8553 -2.549,19.5539 2.2168,8.8036 2.2351,12.5374 0.072,14.7 -1.5944,1.5943 -2.9828,11.0013 -3.0853,20.9043 -0.404,39.0115 -6.9925,57.9778 -20.7165,59.6365 -8.6114,1.041 -11.6162,-3.3665 -16.3825,-24.0291 -2.233,-9.6811 -6.825,-23.3649 -10.204,-30.4084 -3.3791,-7.0436 -6.1439,-16.4489 -6.1439,-20.9005 0,-4.6727 -3.472,-13.6794 -8.2138,-21.3073 l -8.2138,-13.2133 -3.9615,16.2496 c -2.1788,8.9373 -6.3945,20.266 -9.3683,25.1749 -4.6301,7.6433 -5.1154,10.9432 -3.3779,22.9722 2.5279,17.5 -3.3785,39.5692 -12.1235,45.299 -3.2013,2.0976 -5.8205,5.2052 -5.8205,6.9058 0,5.3333 -11.5257,14.1983 -18.4598,14.1983 -4.9981,0 -9.8468,-3.8405 -19.6286,-15.5471 -13.7814,-16.4931 -15.1027,-21.5062 -10.0838,-38.2577 2.4625,-8.219 2.2581,-10.3521 -1.3365,-13.9467 -7.5259,-7.5257 -12.0876,-19.129 -12.9042,-32.8221 -0.4385,-7.3551 -2.5712,-16.8033 -4.7392,-20.9958 -7.471,-14.4472 -9.8916,-36.627 -5.7376,-52.5747 2.3018,-8.8377 3.1638,-19.3097 2.2347,-27.1537 -2.0063,-16.9406 0.4218,-28.5199 8.4665,-40.3745 l 6.6335,-9.775 -5.4241,-16.8412 c -2.9831,-9.2626 -5.424,-23.1594 -5.424,-30.8818 0,-28.3162 12.5966,-53.2772 26.8864,-53.2772 4.667,0 6.2579,-2.1808 8.7179,-11.9506 1.6552,-6.5728 5.3416,-15.226 8.1921,-19.2292 3.6773,-5.1644 5.3023,-11.7933 5.5944,-22.8213 0.3826,-14.4511 1.059,-16.1052 9.6298,-23.5498 7.2473,-6.2948 8.7874,-9.0992 7.2029,-13.1148 -5.542,-14.0461 -0.2646,-33.875 12.2509,-46.0298 5.1051,-4.958 11.9478,-9.6836 15.2062,-10.5014 4.7189,-1.1844 5.9241,-3.2245 5.9241,-10.0287 0,-9.0228 4.2045,-20.6059 9.4912,-26.1475 1.7413,-1.8252 4.0533,-4.6984 5.1378,-6.385 4.3263,-6.7279 13.9944,-12.8971 26.7057,-17.0411 12.7352,-4.1516 13.395,-4.8068 13.9754,-13.8807 0.7855,-12.2789 7.8709,-24.2635 18.6322,-31.5156 9.7909,-6.5981 23.5581,-7.5369 28.2163,-1.9242 4.7334,5.7033 7.066,4.6966 8.9455,-3.8607 3.5985,-16.3841 31.7052,-27.8954 49.8052,-20.398 9.3758,3.8835 20.4224,16.4205 20.4224,23.1777 0,5.8817 3.2922,6.3462 7.6618,1.081 7.4915,-9.0267 32.9899,-1.1142 40.2039,12.4758 2.3228,4.3759 4.8581,13.0144 5.6338,19.1969 1.3661,10.8854 1.8164,11.3727 14.24532,15.4156 17.5084,5.695 23.8804,10.6523 33.689,26.2087 5.67115,8.9942 8.38675,16.4409 8.38675,22.9969 0,6.8136 1.1125,9.6957 3.742,9.6957 5.3108,0 21.3132,14.6407 26.0819,23.8624 3,5.8014 3.6408,11.877 2.5193,23.8873 -1.3864,14.8463 -1.0426,16.4096 4.3915,19.9702 8.2321,5.3939 11.7907,14.5486 11.7907,30.3322 0,10.3213 1.2208,14.6357 5.1465,18.1885 2.8307,2.5617 5.8255,8.9024 6.6551,14.0904 1.9127,11.9612 2.7439,13.0174 14.5353,18.472 19.5958,9.0649 27.856,47.542 17.2724,80.457 l -5.5939,17.3972 7.8089,14.845 c 5.8807,11.1794 7.8089,18.2122 7.8089,28.4817 0,7.5003 -0.989,14.2481 -2.1979,14.995 -1.2088,0.7471 -0.5578,7.4235 1.4467,14.8361 4.5711,16.9056 2.8314,40.2495 -4.1463,55.6331 -2.8633,6.3129 -5.3187,16.0751 -5.4566,21.6939 -0.3174,12.9513 -4.5879,24.5721 -12.2562,33.3509 -5.071,5.8052 -5.5697,7.8454 -3.1925,13.0628 1.5495,3.4005 2.8171,10.8167 2.8171,16.4803 0,8.7365 -1.9935,12.5894 -13.1527,25.4194 -14.9861,17.2298 -22.1649,19.1807 -31.0964,8.4508 -3.0543,-3.6693 -8.6153,-10.0578 -12.3577,-14.1966 -8.6597,-9.5768 -13.4596,-29.3098 -11.3974,-46.8561 1.3534,-11.5164 0.5903,-15.4797 -5.0883,-26.4252 -3.6744,-7.0821 -7.2698,-18.1026 -7.9898,-24.4899 -1.5208,-13.4941 -3.87755,-14.6439 -8.27145,-4.036 -1.7263,4.1675 -4.7389,8.9055 -6.6948,10.5286 -1.9558,1.6233 -3.5561,7.1498 -3.5561,12.2811 0,5.2151 -3.3437,16.0592 -7.5818,24.5885 -4.1699,8.3923 -7.6178,17.2299 -7.662,19.6389 -0.1263,6.8764 -7.8579,28.4483 -11.5935,32.345 -5.28102,5.5087 -15.87032,1.4185 -20.78922,-8.0301 -2.9667,-5.6982 -4.621,-16.5875 -5.3294,-35.0799 -0.5649,-14.7493 -2.1504,-29.768 -3.5236,-33.3752 -1.6351,-4.2961 -1.6143,-10.4635 0.06,-17.8779 2.3026,-10.1933 1.9211,-12.2395 -3.8363,-20.5722 -4.7218,-6.8342 -6.2303,-12.0114 -5.7706,-19.8041 1.0413,-17.6457 -4.1358,-18.2257 -10.6222,-1.1902 -8.8382,23.2127 -10.4961,52.2253 -9.6735,169.286 0.7468,106.2918 0.8934,109.035 6.6289,124.0199 3.2259,8.428 6.5203,17.3351 7.3213,19.7932 1.3571,4.1658 -2.3816,4.4695 -55.0292,4.4695 -37.3969,0 -56.4852,-0.8975 -56.4852,-2.6557 z m 104.1587,-9.4756 c -1.6491,-3.8629 -4.0538,-8.4481 -5.344,-10.1895 -1.2899,-1.7414 -2.887,-8.637 -3.549,-15.3238 -1.7435,-17.6139 -2.315,-258.6156 -0.6132,-258.6156 0.788,0 2.973,-6.0101 4.8558,-13.3558 1.8826,-7.3457 7.8194,-20.5386 13.1926,-29.3178 5.4478,-8.9006 9.1105,-17.6801 8.2794,-19.8458 -1.133,-2.9525 0.3775,-3.8836 6.3001,-3.8836 5.0286,0 9.1274,-1.909 11.562,-5.3848 2.0744,-2.9616 4.8333,-4.7288 6.1309,-3.9268 1.2976,0.8019 6.8485,0.1494 12.33542,-1.4494 l 9.9762,-2.9076 -10.2158,-1.8268 c -5.61882,-1.005 -11.93982,-0.9626 -14.04682,0.094 -2.1071,1.0565 -7.9152,2.5466 -12.907,3.3112 -7.5779,1.161 -9.4749,0.4819 -11.4929,-4.114 -3.2593,-7.4233 -9.9992,-7.0841 -10.3819,0.5225 -0.1668,3.3148 -1.6481,6.8581 -3.2918,7.8739 -1.6436,1.0159 -3.2312,5.1994 -3.5278,9.2968 -0.2965,4.0975 -1.8247,8.599 -3.3959,10.0038 -1.5714,1.4047 -5.0098,8.875 -7.6409,16.6007 -2.6313,7.7258 -5.4857,14.6216 -6.3431,15.3239 -0.8574,0.7023 -3.5836,5.5868 -6.0584,10.8543 -10.5109,22.373 -12.5757,10.4788 -12.1922,-70.234 l 0.3246,-68.3186 h -7.3671 c -4.0518,0 -8.1132,1.2072 -9.0251,2.6827 -0.9119,1.4756 -1.4817,20.1515 -1.2663,41.5021 0.2156,21.3505 0.4051,50.8866 0.4212,65.6357 0.042,38.7327 -3.8125,47.5758 -12.5248,28.7321 -2.4355,-5.2675 -5.5675,-10.3911 -6.9599,-11.3858 -1.3924,-0.9948 -2.5576,-3.2932 -2.5894,-5.1079 -0.098,-5.6157 -6.9714,-23.6401 -9.6855,-25.3997 -1.4155,-0.9177 -2.9907,-5.4792 -3.5005,-10.1366 -0.5099,-4.6574 -2.6835,-9.451 -4.8302,-10.6524 -2.3461,-1.3128 -3.3077,-4.0608 -2.4104,-6.8878 2.2943,-7.2286 -4.0081,-9.2928 -9.1154,-2.9857 -4.6956,5.7988 -21.8796,7.8543 -26.7599,3.2008 -1.3343,-1.2724 -7.0233,-1.4489 -12.6421,-0.3919 -10.468,1.969 -9.9412,2.5978 6.385,7.6226 4.9163,1.513 12.499,4.9247 16.8501,7.5816 8.5605,5.2271 32.5825,37.6003 30.455,41.0426 -0.7149,1.1567 0.5697,6.5352 2.8547,11.9519 5.777,13.6949 5.9057,16.6445 6.1932,141.8721 0.1727,75.187 -0.7022,116.2094 -2.6822,125.7462 -1.6162,7.7849 -2.2179,15.3203 -1.3373,16.7452 0.8807,1.4249 0.597,2.5906 -0.6305,2.5906 -1.2274,0 -4.1498,4.0226 -6.4943,8.9389 l -4.2627,8.9389 h 50.9834 50.9832 z m -234.7002,-152.9397 c 4.8599,-3.404 5.6983,-5.7535 4.5591,-12.7742 -1.2722,-7.8395 -0.9647,-8.372 3.4648,-6.0015 7.3366,3.9265 13.5506,-7.4042 14.7971,-26.981 1.6843,-26.4505 -6.1651,-39.461 -23.807,-39.461 -2.9508,0 -6.7441,-1.3791 -8.4297,-3.0648 -3.7057,-3.7056 -4.0887,-14.813 -0.5109,-14.813 1.4047,0 2.554,2.3347 2.554,5.188 0,6.0466 5.7396,8.9683 12.1313,6.1754 2.4582,-1.0743 5.906,-1.7216 7.6619,-1.4383 1.7558,0.283 3.1925,-1.2979 3.1925,-3.5132 0,-5.5497 -11.1635,-26.9012 -17.6513,-33.7602 -6.6081,-6.9862 -6.6709,-8.4073 -0.3713,-8.4073 6.9166,0 12.9147,-9.6004 12.9147,-20.6708 0,-7.7764 -1.4725,-10.3237 -8.8989,-15.394 -8.3817,-5.7224 -12.9643,-11.8805 -10.6002,-14.2444 0.5791,-0.5791 4.2219,1.8838 8.0949,5.4733 8.0101,7.4235 11.0338,7.951 17.6878,3.0853 3.2608,-2.3844 3.8029,-3.9993 1.7652,-5.2587 -5.4301,-3.3558 -3.0083,-5.7491 4.6765,-4.6213 6.3921,0.9382 8.034,0.023 10.2072,-5.6938 1.9385,-5.0988 1.647,-8.6352 -1.1594,-14.062 -5.2009,-10.0573 -7.9179,-28.2182 -4.2218,-28.2182 1.5843,0 2.8804,2.7032 2.8804,6.0071 0,3.304 2.6234,9.9124 5.8297,14.6854 4.7791,7.114 7.6802,8.8152 16.0961,9.4388 8.0635,0.5974 11.7445,-0.6094 17.156,-5.6245 6.7784,-6.282 8.4335,-13.3235 7.1114,-30.2532 -0.3017,-3.8629 0.5968,-7.0235 1.9967,-7.0235 3.3131,0 5.9393,8.4696 5.3602,17.2876 -1.0401,15.837 -0.5822,16.6072 8.8229,14.8429 5.0689,-0.951 9.4231,-0.534 10.3666,0.9927 3.6332,5.8786 17.1378,2.7636 24.5724,-5.668 18.993,-21.5398 3.1438,-70.8727 -22.769,-70.8727 -2.6859,0 -9.2221,3.448 -14.5248,7.662 -9.8092,7.7954 -18.5276,9.5442 -26.4483,5.3051 -3.4876,-1.8665 -5.0554,-0.8851 -7.535,4.7165 -5.0362,11.378 -24.1685,16.8765 -36.241,10.4153 -6.3107,-3.3773 -14.1625,-14.8454 -16.3495,-23.8793 -2.6087,-10.7758 2.484,-7.4828 9.2737,5.9964 4.766,9.4619 7.5169,11.9194 15.5664,13.9076 12.0594,2.9784 16.6893,0.504 23.0738,-12.3309 3.607,-7.2514 5.7686,-9.1009 8.9389,-7.6484 2.2996,1.0536 8.7442,1.9889 14.3212,2.0782 9.4028,0.1509 10.5934,-0.6565 16.3815,-11.1049 5.7612,-10.4002 6.0013,-12.1696 3.1191,-22.9857 -3.7888,-14.2187 -5.5564,-16.1877 -14.5311,-16.1877 -4.7864,0 -9.9435,-3.1127 -16.3969,-9.8967 -7.8967,-8.3012 -11.0752,-9.8967 -19.7159,-9.8967 -9.0003,0 -10.6958,-0.9519 -13.4235,-7.5372 -3.9559,-9.5505 -12.8839,-15.4485 -23.3849,-15.4485 -8.5982,0 -17.5302,6.0575 -17.5302,11.8888 0,1.8893 -1.0831,3.4351 -2.407,3.4351 -1.324,0 -2.7606,4.8175 -3.1925,10.7057 -0.7178,9.785 -1.5287,10.8971 -9.4306,12.9322 -16.0642,4.1373 -23.6512,17.8923 -25.3118,45.8898 -0.9704,16.3608 -0.1892,22.1417 4.5802,33.8925 7.3399,18.0848 17.9052,26.4969 27.0991,21.5764 5.5798,-2.9863 6.6656,-2.7476 10.154,2.233 2.1485,3.0671 5.5649,5.5767 7.5923,5.5767 2.0274,0 3.6862,1.1492 3.6862,2.5539 0,1.4048 -2.8054,2.554 -6.2342,2.554 -3.4288,0 -6.9446,-1.1492 -7.8126,-2.554 -0.8681,-1.4047 -5.2459,-2.5946 -9.7282,-2.6445 -4.4823,-0.049 -10.958,-1.6457 -14.3904,-3.5468 -5.5999,-3.1015 -6.6726,-2.8954 -10.4456,2.006 -6.0852,7.905 -10.1361,21.2721 -10.0912,33.2986 0.052,14.2441 2.7587,17.7769 12.5166,16.3448 5.0512,-0.7414 7.6794,-0.1559 7.1097,1.5842 -0.4973,1.518 -4.3941,3.1085 -8.6597,3.5345 -10.0502,1.0034 -13.5596,8.6675 -13.5596,29.6123 0,15.7609 3.4456,30.9278 8.1824,36.0165 3.1773,3.4133 9.6954,-5.4997 9.6954,-13.258 0,-3.6708 1.5227,-5.8969 4.0338,-5.8969 5.45,0 2.6961,13.7895 -4.8455,24.2628 -7.1319,9.9044 -6.8488,25.0192 0.7056,37.671 6.1865,10.3613 7.7074,11.1704 12.3225,6.5551 5.4591,-5.459 5.97,-0.3489 0.8444,8.4469 -7.5918,13.028 -9.1408,25.7337 -4.2824,35.1286 4.9591,9.5897 9.7993,10.0582 18.1054,1.7522 4.0281,-4.0282 6.831,-5.2318 7.9536,-3.4152 0.9533,1.5426 -2.1037,6.2331 -6.7933,10.4234 l -8.5267,7.6186 5.848,4.7355 c 7.1271,5.7712 7.7421,5.794 15.2087,0.5643 z m 388.92967,-2.6096 c 5.5564,-5.0286 6.0226,-8.5431 1.1334,-8.5431 -4.0645,0 -12.3093,-11.3958 -9.9511,-13.754 2.8797,-2.8797 5.2174,-1.62 6.5664,3.5381 1.6404,6.2733 12.4072,6.9196 18.2323,1.0945 5.4676,-5.4675 4.9589,-20.4724 -1.1507,-33.9364 -5.8193,-12.8246 -6.6118,-18.265 -1.9871,-13.6402 5.5198,5.5197 9.8753,3.2399 14.8819,-7.7897 6.5833,-14.5033 6.2827,-22.7992 -1.3458,-37.1292 -3.5117,-6.5967 -6.3484,-14.8763 -6.3037,-18.3992 0.079,-6.183 0.2114,-6.2332 3.831,-1.4477 2.0623,2.7266 3.7496,6.8959 3.7496,9.2647 0,2.3688 1.7239,5.7376 3.8307,7.4863 8.4637,7.024 17.223,-32.4711 11.7183,-52.8371 -2.5368,-9.3859 -3.8772,-10.7942 -10.9388,-11.4928 -4.4263,-0.4379 -8.536,-2.2829 -9.1328,-4.0999 -0.7594,-2.3118 0.7154,-2.8794 4.9112,-1.8902 3.298,0.7776 7.5202,0.4188 9.3825,-0.7974 5.6164,-3.6678 6.5608,-21.5804 1.8804,-35.6715 -5.7492,-17.3092 -8.6304,-19.3569 -20.3476,-14.4611 -5.1736,2.1615 -10.4713,3.2721 -11.773,2.4675 -1.3016,-0.8044 -5.9519,0.3915 -10.334,2.6576 -8.0953,4.1863 -16.7992,3.3477 -13.9024,-1.3394 0.8743,-1.4146 3.8564,-2.572 6.627,-2.572 2.7705,0 5.6967,-1.7183 6.5025,-3.8182 1.1042,-2.8775 3.8772,-3.4326 11.2555,-2.2527 8.2987,1.327 10.6897,0.5889 15.6939,-4.8448 13.6918,-14.8671 18.4176,-46.8546 10.7803,-72.9682 -4.1739,-14.2717 -9.7093,-20.2138 -21.883,-23.4919 -8.6047,-2.317 -9.8103,-3.5812 -9.8103,-10.2871 0,-12.4496 -6.2545,-24.1565 -14.7959,-27.6946 -10.451,-4.3289 -23.6005,1.7992 -30.2072,14.0776 -3.9901,7.4154 -5.8343,8.6597 -10.9383,7.38 -8.48895,-2.1279 -18.47615,2.5496 -24.46315,11.4577 -3.3017,4.9125 -7.6072,7.7531 -12.5038,8.2494 -10.327,1.0468 -18.10662,12.0704 -17.59392,24.9297 0.9363,23.4794 16.16552,34.8904 32.38322,24.2641 5.8142,-3.8096 6.0966,-3.6339 10.0539,6.2565 6.4329,16.077 18.37685,19.9317 30.99765,10.0042 3.8714,-3.0452 8.6389,-9.3663 10.5945,-14.0468 1.9558,-4.6805 4.6897,-8.5102 6.0756,-8.5102 3.9665,0 2.9867,4.8583 -3.1993,15.8651 -10.0833,17.9407 -28.52,22.581 -42.61045,10.7247 -4.3218,-3.6367 -7.8579,-8.2337 -7.8579,-10.216 0,-4.0649 -4.0375,-4.8481 -6.281,-1.218 -2.5247,4.0849 -20.2121,-0.1955 -27.06032,-6.5487 -17.3718,-16.1161 -41.831,2.8316 -43.288,33.5335 -0.9742,20.534 -0.04,24.3849 7.7602,32.0106 7.854,7.6775 20.8916,10.334 24.2273,4.9368 0.8971,-1.4516 5.8494,-2.3136 11.0051,-1.9156 l 9.37402,0.7237 -0.8469,-10.7399 c -0.9047,-11.4725 1.1647,-21.1847 4.514,-21.1847 1.1253,0 2.1018,6.2186 2.1701,13.819 0.068,7.6005 1.3248,16.0626 2.7922,18.8045 3.4157,6.3822 15.5606,11.4238 24.9361,10.3516 7.05895,-0.8073 13.36615,-9.7356 20.43565,-28.9283 1.6304,-4.4261 2.0159,-4.1075 2.8876,2.3881 0.5843,4.3538 -1.4074,12.6487 -4.7514,19.7883 -5.1136,10.9176 -5.366,13.0235 -2.2581,18.8308 2.6536,4.9583 4.8809,6.1916 9.2166,5.1034 6.0302,-1.5135 10.5256,2.1905 6.0304,4.9688 -1.4506,0.8964 -1.9761,2.6998 -1.168,4.0074 2.5698,4.1579 12.7742,2.5642 18.6537,-2.9134 3.1235,-2.9101 6.8705,-4.8937 8.3267,-4.4084 3.5308,1.1769 -7.3317,14.8073 -11.8003,14.8073 -5.2968,0 -7.3521,5.0538 -6.6809,16.4288 0.6243,10.5819 6.1533,19.3266 12.2193,19.3266 4.7153,0 4.307,2.5518 -1.4038,8.7743 -6.405,6.9789 -15.5928,24.5535 -15.5928,29.8261 0,2.3086 3.602,5.6894 8.0044,7.5129 7.0908,2.9371 8.3919,2.7854 11.4008,-1.3293 1.868,-2.5547 3.855,-5.9184 4.4157,-7.475 0.5608,-1.5567 2.0082,-1.9033 3.2165,-0.7701 4.474,4.1954 -5.1807,15.7068 -14.4353,17.2111 -12.0562,1.9596 -14.616,3.8631 -18.8619,14.025 -3.7337,8.9356 -3.3938,28.8236 0.7404,43.3227 1.8052,6.3312 3.404,7.5725 9.2057,7.1474 6.3421,-0.4648 6.8617,0.1202 5.3743,6.0468 -1.1136,4.4367 -0.2381,8.1178 2.704,11.3687 5.3637,5.9268 10.6567,6.1102 16.7664,0.5809 z m -285.04927,-25.9097 c 6.1267,-14.6633 7.6966,-50.8993 2.719,-62.7568 -5.5297,-13.1726 -5.1143,-17.0101 1.0414,-9.621 2.7627,3.3161 5.1448,5.0401 5.2937,3.831 1.6407,-13.3282 -6.1677,-31.3791 -17.7591,-41.0547 -6.5959,-5.5057 -6.6256,-5.6569 -1.1286,-5.7464 5.6169,-0.091 7.8721,1.6558 14.7171,11.4011 3.2975,4.6947 3.9249,4.776 7.7556,1.0049 2.5112,-2.472 4.3499,-8.9066 4.6256,-16.1873 0.3779,-9.9781 -0.607,-12.9465 -5.6507,-17.0312 -7.007,-5.6746 -5.0965,-10.0166 2.3589,-5.3607 6.291,3.9288 7.5803,3.8903 7.5803,-0.2261 0,-12.5979 -13.2334,-23.9723 -37.3716,-32.1211 -13.5818,-4.5852 -15.4831,-4.6689 -24.4639,-1.0755 -5.3557,2.1431 -12.0453,3.2929 -14.8656,2.5553 -7.7204,-2.0189 -13.6461,11.0076 -11.5044,25.2896 1.2279,8.1876 3.7004,12.6806 9.4582,17.1866 6.927,5.4213 7.4539,6.7399 4.7282,11.8327 -3.5122,6.5629 -1.648,20.2271 4.3393,31.8054 l 3.9474,7.6333 5.9365,-7.4452 c 7.2192,-9.0538 10.5404,-7.0871 5.2637,3.1168 -4.4448,8.5957 -4.1256,32.2242 0.5534,40.9561 3.2103,5.9912 9.1232,7.5858 11.8384,3.1925 0.8682,-1.4046 2.66,-2.554 3.9817,-2.554 4.0053,0 2.7048,4.6279 -2.7208,9.6828 -4.6135,4.2981 -4.8653,6.1381 -2.5274,18.4661 4.8859,25.7633 14.2477,31.429 21.8537,13.2258 z m 184.73432,1.4042 c 5.5633,-17.2482 6.2353,-29.5194 1.8564,-33.8982 -4.41022,-4.4102 -5.46442,-8.8807 -2.0943,-8.8807 1.1236,0 3.4304,1.3874 5.1262,3.083 2.4079,2.4081 3.8883,2.2683 6.7616,-0.6384 7.7227,-7.8123 8.904,-30.5117 2.6191,-50.3314 -2.7193,-8.5759 2.6273,-7.0189 7.0161,2.0431 l 3.7727,7.7895 4.8468,-7.151 c 3.5721,-5.2704 4.8438,-11.6596 4.8353,-24.2943 -0.015,-14.759 0.7279,-17.539 5.3038,-19.9879 5.16475,-2.7642 11.30855,-15.4306 11.30855,-23.3145 0,-2.1426 -1.8081,-7.5202 -4.018,-11.95 -3.32,-6.655 -5.5175,-8.0544 -12.64975,-8.0544 -4.7474,0 -11.5688,-1.3382 -15.1586,-2.9738 -4.689,-2.1364 -8.1389,-2.2125 -12.2515,-0.2701 -3.1485,1.487 -11.47102,4.7435 -18.49432,7.2366 -14.1847,5.0354 -26.7134,17.2087 -26.7759,26.0165 -0.049,6.8485 0.782,6.9984 8.9879,1.6217 8.0575,-5.2794 8.0225,-2.4966 -0.089,7.1444 -7.3828,8.7739 -8.2468,19.8581 -2.2602,28.9947 5.1588,7.8733 7.0952,7.8973 10.6334,0.1309 2.7367,-6.0061 12.2415,-11.1057 15.1948,-8.1524 0.8111,0.8111 -1.4738,3.7936 -5.0772,6.6282 -7.4566,5.8653 -17.2137,24.4326 -17.2137,32.7567 0,6.7381 2.1518,7.1048 6.5329,1.1132 5.3822,-7.3605 7.4047,-1.3176 2.5661,7.6671 -6.3715,11.8313 -4.9823,58.58 2.049,68.9478 6.5132,9.6041 13.3316,9.0819 16.67272,-1.2769 z m -259.18192,-61.1075 c 6.7657,-9.6593 10.2017,-30.9355 7.3363,-45.4273 -1.4184,-7.1741 -1.5843,-13.6084 -0.3702,-14.3588 1.2099,-0.7479 2.1998,-0.1432 2.1998,1.345 0,1.4876 1.1494,2.7047 2.554,2.7047 4.6241,0 2.6667,-8.0675 -3.8308,-15.7896 -3.5118,-4.1733 -6.385,-9.6068 -6.385,-12.0744 0,-6.848 -2.6841,-8.0901 -8.5714,-3.9663 -3.8945,2.7276 -5.1569,5.9982 -4.6482,12.0411 0.4129,4.9038 -1.7919,13.1994 -5.3921,20.2868 l -6.0906,11.9903 7.6446,13.2409 c 5.08,8.799 7.7242,16.9855 7.8818,24.4031 0.2653,12.4962 1.9716,13.7427 7.6718,5.6045 z m 324.05777,-6.8129 c 0.8058,-6.8045 4.6317,-18.8281 8.5018,-26.7191 6.8547,-13.9764 6.9154,-14.4811 2.349,-19.5269 -2.8145,-3.1101 -5.1583,-10.5474 -5.8658,-18.6138 -1.058,-12.066 -5.3811,-19.8193 -11.0507,-19.8193 -0.9798,0 -2.5268,3.9727 -3.4378,8.8283 -0.9108,4.8555 -4.3067,10.9132 -7.5463,13.4614 -4.3485,3.4206 -5.3734,5.9564 -3.9156,9.688 1.0863,2.7802 2.0556,3.6184 2.1543,1.8625 0.099,-1.7559 1.0616,-3.1925 2.1397,-3.1925 1.0782,0 2.0548,10.6309 2.1703,23.6242 0.2045,23.0076 5.1532,42.779 10.7072,42.779 1.2808,0 2.988,-5.5673 3.7939,-12.3718 z m -179.53157,-64.2473 c 0,-6.1038 -1.2041,-10.2158 -2.9914,-10.2158 -1.6451,0 -5.0931,-1.9021 -7.6618,-4.2268 -2.6727,-2.4188 -4.6705,-2.9943 -4.6705,-1.3453 0,4.4855 10.9881,26.0038 13.2787,26.0038 1.1248,0 2.045,-4.5972 2.045,-10.2159 z m 37.8007,-1.3453 c 6.8687,-14.1378 7.2026,-18.7592 0.9462,-13.0973 -2.5687,2.3247 -6.0167,4.2268 -7.6618,4.2268 -1.7873,0 -2.9914,4.112 -2.9914,10.2158 0,5.6187 0.9202,10.2159 2.045,10.2159 1.1249,0 4.5727,-5.2026 7.662,-11.5612 z m -37.8007,-43.1983 c 0,-16.0709 -1.0236,-29.8525 -2.2746,-30.6257 -1.251,-0.7733 -4.1352,1.4339 -6.4093,4.9045 -3.1078,4.7432 -5.9402,6.1 -11.4047,5.4638 -3.9986,-0.4656 -8.5849,-1.659 -10.1917,-2.6521 -4.3347,-2.679 -3.3779,2.7135 4.2655,24.0356 5.918,16.5093 7.6304,19.0494 12.398,18.3916 3.74,-0.5159 6.0695,0.9316 7.1924,4.4695 3.9634,12.4881 6.4244,3.2995 6.4244,-23.9872 z m 35.7556,24.1118 c 0,-5.8484 2.7715,-8.1066 6.3276,-5.1553 3.0978,2.5707 7.2781,-5.017 15.2764,-27.7288 5.2455,-14.8949 5.0369,-15.9334 -2.6155,-13.024 -9.1146,3.4654 -9.8183,3.3026 -17.0693,-3.9483 -8.3724,-8.3725 -9.099,-6.2491 -9.3689,27.3748 -0.178,22.1639 0.441,26.7383 3.6174,26.7383 2.1078,0 3.8323,-1.9154 3.8323,-4.2567 z m -51.5902,-51.59 c 1.6857,-1.6856 3.0648,-5.7082 3.0648,-8.9389 0,-3.5188 1.5361,-5.8742 3.831,-5.8742 2.107,0 3.8309,1.1494 3.8309,2.5541 0,1.4046 1.1494,2.5539 2.5539,2.5539 1.475,0 2.554,-8.0679 2.554,-19.0958 0,-17.8329 -0.4471,-19.389 -6.7594,-23.5249 -11.4991,-7.5345 -21.3342,-23.4073 -21.3342,-34.431 0,-7.4811 -2.327,-12.9373 -9.5774,-22.457 -5.2675,-6.9163 -10.3147,-12.6404 -11.216,-12.7205 -0.9012,-0.08 -2.367,2.7568 -3.2573,6.304 -0.8902,3.547 -5.612,10.8694 -10.4927,16.2718 -6.4486,7.1377 -8.8716,12.1811 -8.865,18.4518 0.015,7.8924 1.1536,9.1746 13.4084,15.0142 11.2824,5.3762 14.5089,8.5757 20.4226,20.2513 5.2488,10.3626 7.0234,17.5906 7.0234,28.6053 0,11.3426 1.0299,15.3387 4.4694,17.3421 5.8023,3.3794 6.684,3.3533 10.3436,-0.3062 z m 74.6176,-18.9238 c 2.1099,-28.157 15.0717,-47.0543 35.0102,-51.0419 7.431,-1.4862 7.7435,-2.0483 6.4598,-11.619 -0.85,-6.337 -4.1835,-13.0889 -9.0118,-18.2528 -4.2144,-4.5074 -8.7791,-11.3927 -10.1438,-15.3004 -2.057,-5.8908 -3.125,-6.5707 -6.2491,-3.978 -8.7293,7.2447 -18.661,25.0807 -18.661,33.5128 0,10.5269 -8.6698,24.1968 -19.7901,31.2035 -7.9574,5.014 -8.1087,5.4742 -8.2052,24.9911 -0.094,18.8801 0.1509,19.7498 4.8418,17.2393 6.9857,-3.7388 7.8297,-3.3906 7.8297,3.2303 0,8.1182 4.5571,12.0401 11.1671,9.6104 4.6235,-1.6995 5.6303,-4.6212 6.7524,-19.5953 z m -20.7176,-43.3242 c 9.1285,-7.6811 13.9755,-22.7389 11.5246,-35.8031 -1.5267,-8.1384 -2.3744,-8.9297 -8.041,-7.5076 -7.2787,1.8269 -18.5633,-4.3706 -18.5633,-10.195 0,-4.918 4.8448,-4.8756 6.7384,0.058 3.5856,9.3441 17.0139,2.3901 25.8247,-13.3736 3.2907,-5.8876 4.354,-27.8758 1.6846,-34.8327 -1.9139,-4.9873 -15.771,-2.8001 -21.8083,3.4422 -6.2873,6.501 -19.2247,11.0594 -26.3282,9.2765 -3.4793,-0.8732 -9.4159,-4.4513 -13.1924,-7.9512 -3.7764,-3.4997 -8.7671,-6.3634 -11.0904,-6.3634 -2.3234,0 -5.5658,-1.3414 -7.2053,-2.981 -4.415,-4.415 -6.9795,3.7911 -6.9795,22.3346 0,13.0672 1.1317,17.0062 7.1535,24.9012 5.2815,6.9243 9.0529,9.3786 14.4121,9.3786 4.0961,0 7.8992,-1.6692 8.7287,-3.831 1.6431,-4.2817 6.7384,-5.2473 6.7384,-1.2769 0,1.4046 -2.4183,4.9722 -5.3741,7.9278 -3.9953,3.9955 -7.2965,4.9895 -12.8684,3.8751 -6.0357,-1.207 -7.8779,-0.4624 -9.4641,3.8256 -2.7925,7.5486 -1.2904,21.1877 3.3138,30.0915 6.1845,11.9594 13.4159,15.5751 31.15,15.5751 13.286,0 17.0943,-1.0583 23.6462,-6.5713 z m -98.4485,-51.9063 c 6.8908,-12.7013 7.1181,-14.089 4.0832,-24.9288 -4.1026,-14.6525 -11.6457,-19.9029 -25.856,-17.9968 -7.0871,0.9505 -11.6697,0.2807 -13.9962,-2.0458 -2.5422,-2.5422 -5.6135,-2.8411 -11.5871,-1.1279 -9.9435,2.8518 -12.7883,0.7636 -5.9082,-4.337 3.3158,-2.4583 7.7879,-3.2198 12.7657,-2.174 4.214,0.8854 12.8337,1.8269 19.1548,2.0921 6.3211,0.2654 12.9799,1.4366 14.7972,2.6028 4.6106,2.9585 10.0727,-2.2373 15.9768,-15.1977 6.0257,-13.2272 6.5418,-23.9853 1.1506,-23.9853 -4.337,0 -5.137,-3.9993 -1.277,-6.385 7.3364,-4.534 0.1671,-23.3003 -13.1751,-34.4871 -4.6935,-3.9353 -7.6525,-8.0524 -6.5756,-9.1492 1.077,-1.0969 3.318,-0.6344 4.9802,1.0278 6.3032,6.303 24.9863,1.0961 24.9863,-6.9635 0,-1.6709 -1.7534,-6.4286 -3.8965,-10.5728 -2.9171,-5.6411 -5.7065,-7.5351 -11.097,-7.5351 -12.6413,0 -18.9864,-12.1896 -14.6237,-28.0936 1.0984,-4.0043 0.3959,-8.2368 -1.884,-11.3513 -3.3311,-4.5507 -4.5703,-4.6926 -14.7993,-1.6949 -15.8349,4.6405 -21.9308,9.1702 -30.4786,22.6489 -5.1962,8.1936 -7.5017,15.0883 -7.5017,22.4345 0,9.9276 -0.6267,10.8515 -9.8066,14.4575 -13.74,5.3971 -24.6991,20.4509 -24.5743,33.7563 0.2244,23.9518 6.6135,30.3668 18.0038,18.0767 3.8696,-4.1756 8.668,-6.385 13.866,-6.385 5.7262,0 9.7821,-2.1789 14.5056,-7.7923 5.5568,-6.6041 8.0701,-7.6751 16.4809,-7.0235 5.4583,0.4229 9.6165,1.8759 9.2406,3.2287 -0.376,1.3528 -3.7657,2.1364 -7.5328,1.7412 -8.1097,-0.8507 -17.4135,7.2849 -17.4135,15.227 0,4.1504 -1.0221,4.944 -4.4693,3.4699 -2.4582,-1.0515 -7.4476,-2.4274 -11.0877,-3.0578 -5.5069,-0.9537 -7.1829,0.2174 -9.9821,6.9755 -3.2193,7.7722 -3.8317,8.0515 -14.234,6.4915 -9.6727,-1.4505 -11.5971,-0.8458 -17.4729,5.4911 -4.6452,5.0097 -6.6031,9.942 -6.6031,16.6346 0,10.544 4.8403,14.8013 16.8283,14.8013 4.7651,0 9.9528,3.1583 16.5102,10.0516 6.5023,6.8355 12.7092,10.6333 19.3977,11.8693 6.279,1.1603 12.7756,4.9141 17.9649,10.3801 4.4709,4.7093 10.637,8.5625 13.7025,8.5625 3.0655,0 8.6017,3.3998 12.3028,7.5551 3.701,4.1554 7.8786,7.2408 9.2833,6.8569 1.4046,-0.3841 5.8376,-6.7509 9.8509,-14.1485 z m 167.2459,7.3984 c 4.056,-5.486 7.79342,-7.6619 13.16032,-7.6619 4.7648,0 8.447,-1.7777 10.1071,-4.8797 3.6402,-6.8017 18.5645,-15.552 26.52535,-15.552 4.4744,0 8.5479,-2.5845 12.4683,-7.9109 7.0837,-9.6236 16.9935,-15.0748 27.4049,-15.0748 7.4927,0 7.7886,-0.4235 7.7886,-11.1485 0,-7.532 -1.7768,-13.4073 -5.4777,-18.1122 -4.9208,-6.2559 -6.5884,-6.7974 -16.4008,-5.3259 -10.1467,1.5215 -11.1691,1.1299 -14.385,-5.512 -2.9952,-6.186 -4.9431,-7.1497 -14.44885,-7.1497 -9.9737,0 -11.3102,-0.7656 -14.4925,-8.3006 -3.1339,-7.4202 -4.6018,-8.3003 -13.8449,-8.3003 -12.28812,0 -13.69802,-3.7976 -2.259,-6.0854 8.956,-1.7912 18.0259,2.7074 22.5676,11.1934 1.8103,3.3828 5.3475,5.1079 10.47365,5.1079 9.7508,0 17.6199,4.1116 17.6199,9.2063 0,2.5892 1.9207,3.6418 5.6613,3.1026 7.2834,-1.05 10.8941,-13.0728 8.5733,-28.548 -2.1383,-14.2594 -8.7889,-22.979 -21.9577,-28.7891 -9.0703,-4.0018 -10.16105,-5.4504 -10.21435,-13.566 -0.079,-12.0366 -11.8623,-33.0363 -22.5729,-40.2286 -4.7223,-3.1709 -12.6638,-6.5305 -17.6482,-7.4655 -12.35912,-2.3186 -16.52022,3.3839 -14.35862,19.678 1.334,10.0563 0.7261,12.8252 -3.8113,17.3627 -2.9949,2.9948 -8.6719,5.3985 -12.7505,5.3985 -5.7169,0 -8.0393,1.6591 -10.4421,7.4599 -1.6995,4.1028 -2.693,9.5212 -2.2077,12.0407 1.2262,6.3677 16.3551,10.504 23.0732,6.3085 9.8349,-6.1419 7.682,-0.3363 -4.1336,11.1472 -10.5966,10.2985 -11.9274,12.8255 -11.8189,22.4414 0.068,5.9599 -0.5713,15.0644 -1.4186,20.232 -1.2068,7.3613 -0.015,12.2085 5.5286,22.3842 5.9956,11.0159 7.8772,12.7019 12.3895,11.1023 2.9264,-1.0374 9.5322,-1.916 14.6797,-1.9524 5.14742,-0.037 10.22342,-0.9282 11.28002,-1.9818 2.3103,-2.3037 14.3894,-2.5241 20.0154,-0.3653 7.8056,2.9953 3.9345,6.1553 -5.6608,4.6209 -7.159,-1.1447 -10.5812,-0.49 -13.062,2.4991 -2.1873,2.6355 -5.4956,3.5147 -9.471,2.5169 -3.36022,-0.8434 -9.89692,-0.8229 -14.52602,0.046 -6.5773,1.2339 -9.0852,3.4281 -11.476,10.0398 -5.2478,14.5124 -3.4754,25.5777 6.7176,41.9382 4.6531,7.4686 6.0176,7.2645 12.8047,-1.9154 z m -131.1615,0.058 c 0.8483,-1.3726 -1.3825,-7.7344 -4.9572,-14.1374 -3.5748,-6.4031 -6.4996,-12.818 -6.4996,-14.255 0,-3.421 -15.5521,-22.7454 -18.3051,-22.7454 -1.1697,0 -2.1266,1.2202 -2.1266,2.7115 0,4.4247 18.3467,40.7059 20.5842,40.7059 1.1315,0 2.7868,2.2986 3.6784,5.1079 1.742,5.4884 5.131,6.6494 7.6259,2.6125 z m 92.6174,-11.7142 c 5.9699,-7.6075 10.8543,-16.1991 10.8543,-19.0925 0,-2.8935 1.7534,-8.6517 3.8965,-12.7959 5.6515,-10.9287 -0.5401,-9.5272 -10.8095,2.4468 -5.4569,6.3625 -8.4011,12.683 -8.8225,18.9386 -0.3499,5.1953 -1.9883,9.389 -3.6681,9.389 -3.1975,0 -6.136,5.6039 -6.136,11.7017 0,6.2129 3.4567,3.7206 14.6853,-10.5877 z m -103.9268,-36.2312 c 0.874,-26.5049 4.9008,-62.6154 7.3055,-65.5128 2.4075,-2.9009 1.564,-5.7575 -4.1292,-13.9832 -7.3364,-10.6001 -9.8677,-11.9732 -15.4914,-8.4036 -2.5542,1.6215 -2.3804,3.7503 0.8318,10.1895 6.1224,12.2724 7.7239,46.3388 2.6408,56.1686 -5.1892,10.0347 -5.1231,13.4443 0.3948,20.3498 5.4131,6.7748 8.2504,7.175 8.4477,1.1917 z m 109.566,-21.2801 c -4.6765,-9.1667 -5.2014,-13.1713 -3.6936,-28.1839 0.9666,-9.6244 3.9319,-21.7643 6.5898,-26.9775 3.7241,-7.3049 4.1048,-9.9404 1.6602,-11.493 -4.9888,-3.1683 -12.1112,-2.4292 -12.1112,1.2565 0,1.8422 -2.3335,5.8543 -5.186,8.9158 -4.942,5.3049 -5.0051,6.198 -1.3419,18.998 2.1141,7.3872 3.7527,21.4764 3.641,31.3092 -0.168,14.7939 0.8289,27.0477 2.561,31.4819 0.1793,0.459 3.2523,-2.6432 6.8288,-6.8938 l 6.503,-7.7283 z m -50.8057,16.3061 c 5.9628,-3.5224 7.0527,-5.5582 5.8108,-10.8543 -1.2548,-5.3505 -0.9204,-5.9467 1.8656,-3.3263 5.6767,5.3387 15.9924,3.6183 21.2078,-3.5372 9.2162,-12.6439 2.9308,-46.9038 -8.6047,-46.9038 -7.944,0 -18.3857,-11.5594 -17.4185,-19.283 1.1346,-9.0599 5.667,-8.0119 7.1884,1.6622 1.4348,9.1234 8.2841,13.0433 17.0723,9.7707 6.9325,-2.5815 10.7949,-9.6259 14.8552,-27.0926 2.7132,-11.6718 2.6301,-13.5826 -0.5907,-13.5826 -7.3742,0 -20.4647,-8.0213 -23.321,-14.2901 -4.2416,-9.3092 -3.6655,-27.8732 0.9849,-31.7326 5.1915,-4.3086 7.4106,-1.645 3.9761,4.7726 -3.4854,6.5127 -3.5447,17.1357 -0.131,23.5138 3.747,7.0012 15.4557,12.396 21.6331,9.9676 2.8093,-1.1046 9.23,-1.4154 14.2679,-0.6911 8.2953,1.1928 9.4595,0.5942 12.3325,-6.3421 2.6502,-6.398 2.5015,-8.9571 -0.9028,-15.5402 -3.8444,-7.4343 -3.7834,-8.1729 1.0758,-13.0321 4.8436,-4.8436 6.4749,-12.5004 5.1784,-24.306 -2.3722,-21.6002 -28.9509,-35.0305 -40.4344,-20.4316 -2.7623,3.5116 -5.6298,6.3848 -6.3723,6.3848 -0.7423,0 -2.7625,-4.3098 -4.4891,-9.5773 -4.9336,-15.0517 -9.6047,-20.4867 -21.5175,-25.0362 -8.9716,-3.4262 -12.735,-3.6828 -19.8032,-1.35 -10.5742,3.4897 -21.0789,14.2544 -23.3634,23.9416 -2.2387,9.4934 -7.5633,11.0966 -14.3416,4.3182 -4.5228,-4.5228 -7.2657,-5.2231 -14.8827,-3.7999 -5.1359,0.9598 -10.8505,2.995 -12.6989,4.5228 -10.9817,9.0769 -14.9709,36.3223 -6.6625,45.503 3.9083,4.3188 4.0545,6.1118 1.2027,14.753 -4.7571,14.4139 -0.7995,20.5348 13.3154,20.5942 5.956,0.025 14.2454,0.185 18.4208,0.3553 11.0234,0.45 20.0495,-10.6761 18.5906,-22.9158 -0.6011,-5.0426 -2.0368,-11.3365 -3.1903,-13.9862 -1.5617,-3.5877 -1.1781,-4.517 1.5022,-3.6393 5.4339,1.7797 9.6806,17.212 7.1573,26.0101 -3.0111,10.4989 -11.8432,19.1255 -21.4211,20.9223 l -8.1074,1.521 2.4209,14.4804 c 3.5815,21.4236 15.7658,32.2887 27.2154,24.2691 3.2973,-2.3095 5.2733,-6.5101 5.2733,-11.2105 0,-9.1998 3.9579,-9.8923 6.1698,-1.0798 2.7632,11.0097 -6.3423,21.6563 -18.5219,21.6563 -5.7122,0 -9.6114,8.9221 -12.0896,27.663 -1.3042,9.8628 -0.6205,13.1374 3.9559,18.9469 5.54,7.0328 16.1053,9.4911 19.2087,4.4694 3.1491,-5.0952 6.9274,-2.509 5.3744,3.6789 -1.1694,4.6592 -0.1294,7.2383 4.1224,10.2159 7.1374,4.9992 8.4722,4.9724 17.4864,-0.3525 z" id="path10"/></g></svg>