<svg version="1.1" id="svg1" width="5078.9116" height="5263.5273" viewBox="4079.6780126156714 4268.168882260154 616.0912295215517 831.7252948012692" sodipodi:docname="trees3.svg" inkscape:version="1.4.2 (f4327f4, 2025-05-13)" xmlns:inkscape="http://www.inkscape.org/namespaces/inkscape" xmlns:sodipodi="http://sodipodi.sourceforge.net/DTD/sodipodi-0.dtd" xmlns="http://www.w3.org/2000/svg" xmlns:svg="http://www.w3.org/2000/svg"><defs id="defs1"/><g><path d="m 4344.6419,5098.2474 c -0.5698,-0.9266 -2.185,-8.2554 -3.5892,-16.2861 -5.0198,-28.7065 -7.2715,-38.4262 -8.7453,-37.7506 -0.8227,0.3772 -10.0882,5.3939 -20.5898,11.1482 -27.6785,15.1661 -51.6661,22.1745 -51.6661,15.0953 0,-1.3869 5.915,-8.8447 13.1443,-16.573 7.2294,-7.7282 13.7054,-16.1964 14.3909,-18.8186 0.6857,-2.622 0.9784,-4.7674 0.6504,-4.7674 -0.3282,0 -8.0677,3.4459 -17.1989,7.6576 -18.1254,8.3598 -41.7213,17.0523 -46.2887,17.0523 -6.4381,0 -1.9523,-9.2264 15.8696,-32.6409 21.0154,-27.61 33.5398,-47.8022 50.1165,-80.7996 14.9008,-29.6621 20.273,-45.8338 23.447,-70.5826 4.0292,-31.4186 -3.1281,-67.1396 -22.8705,-114.1408 -20.0623,-47.7631 -21.8557,-70.1998 -8.3074,-103.9326 9.3811,-23.3567 38.0264,-58.3542 60.7196,-74.1842 5.8666,-4.0923 10.2087,-7.8984 9.6492,-8.4577 -1.7951,-1.7953 -62.3214,-0.4424 -82.6366,1.8468 -44.9112,5.0612 -91.917,17.298 -121.7161,31.6859 -7.3229,3.5358 -15.1379,6.4287 -17.3663,6.4287 -4.5794,0 -7.1249,-7.2738 -5.9976,-17.1378 0.6283,-5.4985 1.7879,-6.502 7.8678,-6.8084 9.3198,-0.4697 34.4266,-11.7797 34.4266,-15.5082 0,-4.7578 -15.2208,-15.8399 -27.6786,-20.1527 -6.6408,-2.2991 -21.7541,-4.592 -35.2193,-5.3436 l -23.5866,-1.3165 -0.6896,-7.1086 c -0.8641,-8.9086 3.7178,-10.7412 21.6504,-8.6599 12.3811,1.4369 12.9379,1.2683 17.8783,-5.4138 2.8047,-3.7934 6.1668,-6.8971 7.4716,-6.8971 1.3049,0 7.5924,5.4258 13.9724,12.0574 12.4465,12.9369 27.9569,20.2434 57.6502,27.1571 22.7877,5.3058 24.5209,4.4325 14.6013,-7.356 -7.0635,-8.3945 -7.082,-12.4103 -0.079,-16.9989 9.8171,-6.4324 15.0382,-4.6471 25.7813,8.8162 8.4175,10.5488 10.8087,12.2688 15.7004,11.293 3.1739,-0.6332 17.6459,-1.4314 32.1599,-1.7739 14.5141,-0.3425 26.3917,-1.2466 26.3947,-2.0091 0,-0.7623 -4.0381,-4.0621 -8.9801,-7.3324 -9.4847,-6.2768 -12.4117,-15.9406 -5.6177,-18.5476 2.4896,-0.9554 -0.827,-5.7686 -12.722,-18.4619 -18.0999,-19.315 -30.0603,-36.914 -45.3989,-66.8013 -13.4843,-26.2739 -21.8173,-35.7929 -44.9437,-51.3402 -21.8034,-14.6578 -26.795,-19.5492 -25.7081,-25.1923 1.2546,-6.5151 7.5484,-6.0335 17.753,1.3588 10.0954,7.313 16.3917,8.6354 19.3503,4.0641 0.9994,-1.5442 1.8172,-9.8838 1.8172,-18.5324 0,-14.2268 0.4279,-15.7243 4.4927,-15.7243 3.7849,0 6.1274,4.9554 14.8666,31.4489 5.7054,17.2968 13.471,38.2134 17.2566,46.4812 7.9737,17.4144 21.9742,40.0032 24.7938,40.0032 1.0656,0 4.7298,-6.5706 8.143,-14.6014 3.413,-8.0305 7.432,-14.6011 8.9307,-14.6011 1.499,0 5.1318,2.5615 8.0731,5.6925 5.0147,5.3378 5.1473,6.1426 2.1297,12.9164 -1.77,3.9733 -3.2167,13.8234 -3.2151,21.8894 0,15.4663 5.0259,27.2352 18.8788,44.2381 12.3092,15.1083 51.1467,40.1861 55.4974,35.8354 0.821,-0.821 1.5822,-15.9025 1.6913,-33.5145 l 0.1985,-32.0219 -9.5469,-24.255 c -10.8343,-27.5255 -11.6669,-33.0269 -4.9982,-33.0269 3.2442,0 4.9305,1.9084 5.8797,6.6535 0.7319,3.6595 3.6767,8.1906 6.5439,10.0693 4.8385,3.1704 5.3193,3.0818 6.6887,-1.2329 1.6081,-5.0668 1.3145,-7.1815 -6.9992,-50.4108 -3.852,-20.0301 -5.4254,-34.9605 -4.9713,-47.1733 l 0.6643,-17.8682 7.252,-0.7004 c 6.4151,-0.6195 7.5464,-1.7862 9.8018,-10.1086 4.1613,-15.3555 11.2587,-32.6383 14.5124,-35.3385 5.0857,-4.2208 12.2376,-0.3996 12.2376,6.5384 0,3.3761 -0.9588,7.0987 -2.1308,8.2725 -1.1719,1.1736 -5.298,11.7371 -9.1689,23.4743 -9.5936,29.0877 -9.5749,49.5401 0.088,96.5931 7.6624,37.3126 7.8093,43.7014 2.5298,110.071 -1.0321,12.9727 -1.7584,23.772 -1.6142,23.9984 0.8753,1.3745 80.1413,-66.02 86.1832,-73.2756 4.3045,-5.1692 9.5157,-15.6902 12.5204,-25.2773 4.8663,-15.5275 5.5358,-16.461 12.2821,-17.1265 6.7802,-0.669 7.1352,-0.3164 7.1352,7.0903 0,6.6269 0.6572,7.6224 4.3889,6.6466 10.754,-2.8124 37.0944,-37.2696 54.1744,-70.8682 5.0767,-9.9864 9.0446,-15.1574 11.6349,-15.1628 2.4568,0 3.9313,1.7033 3.9313,4.5552 0,4.7876 -6.1607,24.2188 -12.3293,38.8877 -1.9966,4.7482 -3.3247,9.4643 -2.9512,10.4806 0.3735,1.0161 8.2606,-0.6367 17.5268,-3.6728 21.2465,-6.9618 30.0608,-6.4909 31.0063,1.6561 0.5654,4.8717 -0.7661,6.5436 -7.8623,9.8717 -22.1578,10.3923 -88.5704,53.5414 -129.8456,84.3622 -22.7009,16.9513 -61.7746,51.1747 -61.7746,54.1065 0,1.0537 1.7882,1.9159 3.9738,1.9159 33.4107,0 98.8233,3.4953 124.8992,6.6739 l 33.4032,4.0721 12.1495,-5.373 c 14.4089,-6.3724 22.7812,-6.8217 26.8651,-1.442 5.5986,7.3753 3.822,13.4619 -4.756,16.2928 -9.6617,3.1886 -8.403,5.6303 6.4734,12.557 12.9959,6.0512 28.8254,6.9687 49.2973,2.8574 9.9377,-1.9958 13.435,-1.9362 16.0992,0.2749 3.948,3.2766 4.5391,12.5394 0.9422,14.7624 -1.3537,0.8367 -16.1048,2.3041 -32.7801,3.261 -30.8761,1.7717 -37.4335,3.6432 -31.1211,8.8821 1.9056,1.5815 3.4647,5.2789 3.4647,8.2162 0,4.7277 -1.025,5.3409 -8.9277,5.3409 -7.5444,0 -9.4409,-0.9925 -12.2401,-6.4056 -14.2403,-27.5376 -68.6101,-44.9602 -141.0604,-45.2025 -20.8348,-0.069 -20.8514,0.4091 -0.7258,20.9347 28.5315,29.0988 35.6283,45.5713 35.4744,82.3395 -0.118,28.1375 -5.7988,51.1969 -24.0038,97.4323 -17.1784,43.6282 -20.1116,58.5631 -18.1439,92.384 3.0162,51.846 23.2728,105.0485 61.5709,161.7122 10.0114,14.8123 18.2025,28.2061 18.2025,29.7642 0,10.5892 -52.9259,-7.896 -77.2704,-26.988 l -8.7565,-6.8675 1.3247,20.029 c 0.7287,11.0158 2.0072,22.3034 2.8412,25.0832 2.0316,6.7717 -1.0985,6.5141 -18.0253,-1.4834 -15.0285,-7.1006 -22.8042,-15.517 -31.3231,-33.9042 l -5.2413,-11.3125 -13.0016,12.9607 c -18.6458,18.587 -28.6206,31.8205 -34.883,46.2791 -3.5397,8.1724 -6.8266,12.6686 -9.2796,12.6933 -2.0893,0.022 -4.2649,-0.7197 -4.8348,-1.6463 z" id="path59" style="fill:#ffffff"/><path style="fill:#1a1a1a;stroke-width:1.68476" d="m 4344.6419,5098.2474 c -0.5698,-0.9266 -2.185,-8.2554 -3.5892,-16.2861 -5.0198,-28.7065 -7.2715,-38.4262 -8.7453,-37.7506 -0.8227,0.3772 -10.0882,5.3939 -20.5898,11.1482 -27.6785,15.1661 -51.6661,22.1745 -51.6661,15.0953 0,-1.3869 5.915,-8.8447 13.1443,-16.573 7.2294,-7.7282 13.7054,-16.1964 14.3909,-18.8186 0.6857,-2.622 0.9784,-4.7674 0.6504,-4.7674 -0.3282,0 -8.0677,3.4459 -17.1989,7.6576 -18.1254,8.3598 -41.7213,17.0523 -46.2887,17.0523 -6.4381,0 -1.9523,-9.2264 15.8696,-32.6409 21.0154,-27.61 33.5398,-47.8022 50.1165,-80.7996 14.9008,-29.6621 20.273,-45.8338 23.447,-70.5826 4.0292,-31.4186 -3.1281,-67.1396 -22.8705,-114.1408 -20.0623,-47.7631 -21.8557,-70.1998 -8.3074,-103.9326 9.3811,-23.3567 38.0264,-58.3542 60.7196,-74.1842 5.8666,-4.0923 10.2087,-7.8984 9.6492,-8.4577 -1.7951,-1.7953 -62.3214,-0.4424 -82.6366,1.8468 -44.9112,5.0612 -91.917,17.298 -121.7161,31.6859 -7.3229,3.5358 -15.1379,6.4287 -17.3663,6.4287 -4.5794,0 -7.1249,-7.2738 -5.9976,-17.1378 0.6283,-5.4985 1.7879,-6.502 7.8678,-6.8084 9.3198,-0.4697 34.4266,-11.7797 34.4266,-15.5082 0,-4.7578 -15.2208,-15.8399 -27.6786,-20.1527 -6.6408,-2.2991 -21.7541,-4.592 -35.2193,-5.3436 l -23.5866,-1.3165 -0.6896,-7.1086 c -0.8641,-8.9086 3.7178,-10.7412 21.6504,-8.6599 12.3811,1.4369 12.9379,1.2683 17.8783,-5.4138 2.8047,-3.7934 6.1668,-6.8971 7.4716,-6.8971 1.3049,0 7.5924,5.4258 13.9724,12.0574 12.4465,12.9369 27.9569,20.2434 57.6502,27.1571 22.7877,5.3058 24.5209,4.4325 14.6013,-7.356 -7.0635,-8.3945 -7.082,-12.4103 -0.079,-16.9989 9.8171,-6.4324 15.0382,-4.6471 25.7813,8.8162 8.4175,10.5488 10.8087,12.2688 15.7004,11.293 3.1739,-0.6332 17.6459,-1.4314 32.1599,-1.7739 14.5141,-0.3425 26.3917,-1.2466 26.3947,-2.0091 0,-0.7623 -4.0381,-4.0621 -8.9801,-7.3324 -9.4847,-6.2768 -12.4117,-15.9406 -5.6177,-18.5476 2.4896,-0.9554 -0.827,-5.7686 -12.722,-18.4619 -18.0999,-19.315 -30.0603,-36.914 -45.3989,-66.8013 -13.4843,-26.2739 -21.8173,-35.7929 -44.9437,-51.3402 -21.8034,-14.6578 -26.795,-19.5492 -25.7081,-25.1923 1.2546,-6.5151 7.5484,-6.0335 17.753,1.3588 10.0954,7.313 16.3917,8.6354 19.3503,4.0641 0.9994,-1.5442 1.8172,-9.8838 1.8172,-18.5324 0,-14.2268 0.4279,-15.7243 4.4927,-15.7243 3.7849,0 6.1274,4.9554 14.8666,31.4489 5.7054,17.2968 13.471,38.2134 17.2566,46.4812 7.9737,17.4144 21.9742,40.0032 24.7938,40.0032 1.0656,0 4.7298,-6.5706 8.143,-14.6014 3.413,-8.0305 7.432,-14.6011 8.9307,-14.6011 1.499,0 5.1318,2.5615 8.0731,5.6925 5.0147,5.3378 5.1473,6.1426 2.1297,12.9164 -1.77,3.9733 -3.2167,13.8234 -3.2151,21.8894 0,15.4663 5.0259,27.2352 18.8788,44.2381 12.3092,15.1083 51.1467,40.1861 55.4974,35.8354 0.821,-0.821 1.5822,-15.9025 1.6913,-33.5145 l 0.1985,-32.0219 -9.5469,-24.255 c -10.8343,-27.5255 -11.6669,-33.0269 -4.9982,-33.0269 3.2442,0 4.9305,1.9084 5.8797,6.6535 0.7319,3.6595 3.6767,8.1906 6.5439,10.0693 4.8385,3.1704 5.3193,3.0818 6.6887,-1.2329 1.6081,-5.0668 1.3145,-7.1815 -6.9992,-50.4108 -3.852,-20.0301 -5.4254,-34.9605 -4.9713,-47.1733 l 0.6643,-17.8682 7.252,-0.7004 c 6.4151,-0.6195 7.5464,-1.7862 9.8018,-10.1086 4.1613,-15.3555 11.2587,-32.6383 14.5124,-35.3385 5.0857,-4.2208 12.2376,-0.3996 12.2376,6.5384 0,3.3761 -0.9588,7.0987 -2.1308,8.2725 -1.1719,1.1736 -5.298,11.7371 -9.1689,23.4743 -9.5936,29.0877 -9.5749,49.5401 0.088,96.5931 7.6624,37.3126 7.8093,43.7014 2.5298,110.071 -1.0321,12.9727 -1.7584,23.772 -1.6142,23.9984 0.8753,1.3745 80.1413,-66.02 86.1832,-73.2756 4.3045,-5.1692 9.5157,-15.6902 12.5204,-25.2773 4.8663,-15.5275 5.5358,-16.461 12.2821,-17.1265 6.7802,-0.669 7.1352,-0.3164 7.1352,7.0903 0,6.6269 0.6572,7.6224 4.3889,6.6466 10.754,-2.8124 37.0944,-37.2696 54.1744,-70.8682 5.0767,-9.9864 9.0446,-15.1574 11.6349,-15.1628 2.4568,0 3.9313,1.7033 3.9313,4.5552 0,4.7876 -6.1607,24.2188 -12.3293,38.8877 -1.9966,4.7482 -3.3247,9.4643 -2.9512,10.4806 0.3735,1.0161 8.2606,-0.6367 17.5268,-3.6728 21.2465,-6.9618 30.0608,-6.4909 31.0063,1.6561 0.5654,4.8717 -0.7661,6.5436 -7.8623,9.8717 -22.1578,10.3923 -88.5704,53.5414 -129.8456,84.3622 -22.7009,16.9513 -61.7746,51.1747 -61.7746,54.1065 0,1.0537 1.7882,1.9159 3.9738,1.9159 33.4107,0 98.8233,3.4953 124.8992,6.6739 l 33.4032,4.0721 12.1495,-5.373 c 14.4089,-6.3724 22.7812,-6.8217 26.8651,-1.442 5.5986,7.3753 3.822,13.4619 -4.756,16.2928 -9.6617,3.1886 -8.403,5.6303 6.4734,12.557 12.9959,6.0512 28.8254,6.9687 49.2973,2.8574 9.9377,-1.9958 13.435,-1.9362 16.0992,0.2749 3.948,3.2766 4.5391,12.5394 0.9422,14.7624 -1.3537,0.8367 -16.1048,2.3041 -32.7801,3.261 -30.8761,1.7717 -37.4335,3.6432 -31.1211,8.8821 1.9056,1.5815 3.4647,5.2789 3.4647,8.2162 0,4.7277 -1.025,5.3409 -8.9277,5.3409 -7.5444,0 -9.4409,-0.9925 -12.2401,-6.4056 -14.2403,-27.5376 -68.6101,-44.9602 -141.0604,-45.2025 -20.8348,-0.069 -20.8514,0.4091 -0.7258,20.9347 28.5315,29.0988 35.6283,45.5713 35.4744,82.3395 -0.118,28.1375 -5.7988,51.1969 -24.0038,97.4323 -17.1784,43.6282 -20.1116,58.5631 -18.1439,92.384 3.0162,51.846 23.2728,105.0485 61.5709,161.7122 10.0114,14.8123 18.2025,28.2061 18.2025,29.7642 0,10.5892 -52.9259,-7.896 -77.2704,-26.988 l -8.7565,-6.8675 1.3247,20.029 c 0.7287,11.0158 2.0072,22.3034 2.8412,25.0832 2.0316,6.7717 -1.0985,6.5141 -18.0253,-1.4834 -15.0285,-7.1006 -22.8042,-15.517 -31.3231,-33.9042 l -5.2413,-11.3125 -13.0016,12.9607 c -18.6458,18.587 -28.6206,31.8205 -34.883,46.2791 -3.5397,8.1724 -6.8266,12.6686 -9.2796,12.6933 -2.0893,0.022 -4.2649,-0.7197 -4.8348,-1.6463 z m 31.427,-47.9795 c 26.4088,-29.8198 33.1617,-32.6517 39.7363,-16.6636 6.4226,15.618 18.052,29.3344 28.3724,33.4639 5.033,2.0138 9.3831,3.6623 9.667,3.6635 0.2839,0 0.1688,-10.1072 -0.2559,-22.4634 -0.7471,-21.7373 -0.6153,-22.4657 4.0628,-22.4657 2.6592,0 8.5663,2.9223 13.1269,6.4939 12.5106,9.7979 31.5703,19.5962 46.5512,23.9312 7.3738,2.134 14.7964,4.4045 16.4946,5.0457 1.6983,0.6414 -4.7282,-10.3624 -14.2812,-24.4529 -19.6768,-29.0234 -28.6714,-45.9682 -41.5191,-78.2161 -13.3318,-33.4637 -17.4602,-51.9313 -19.1758,-85.7803 -2.017,-39.792 0.3769,-52.7078 18.1212,-97.7731 17.6266,-44.7668 23.7507,-69.0343 23.6572,-93.7462 -0.1263,-33.5522 -7.4711,-49.0564 -37.6943,-79.5755 -9.0386,-9.1269 -16.4337,-17.9567 -16.4337,-19.6219 0,-3.1584 -18.0584,-19.0788 -21.5717,-19.0176 -1.1082,0.02 -7.0692,-2.4055 -13.2468,-5.3884 -11.9271,-5.7594 -31.5171,-10.9412 -41.2813,-10.9195 -7.5141,0.017 -29.8751,-11.1182 -42.9567,-21.3911 -13.316,-10.457 -20.9305,-19.2086 -29.7723,-34.2192 -6.7395,-11.4413 -7.2618,-13.7667 -7.063,-31.4487 0.1179,-10.5018 0.6201,-21.519 1.1158,-24.4827 1.7825,-10.6584 -4.0483,-6.8061 -9.7703,6.4554 -4.4462,10.3045 -6.9488,13.5345 -10.4866,13.5345 -10.3279,0 -32.0659,-41.0895 -47.2983,-89.4044 -5.1416,-16.3086 -9.8655,-29.6521 -10.4976,-29.6521 -0.632,0 -0.4446,6.5769 0.4161,14.6155 1.1081,10.3464 0.7519,15.5956 -1.2194,17.9708 -4.4756,5.3928 -18.062,4.0977 -28.1076,-2.6793 -4.92,-3.3191 -7.6324,-4.4198 -6.0279,-2.4459 1.6046,1.9739 11.464,9.3344 21.9097,16.3567 23.277,15.6485 31.5904,25.1324 45.092,51.4401 15.3389,29.8878 27.2992,47.4864 45.4009,66.8032 16.5252,17.6345 18.8887,22.9683 12.3095,27.7792 -3.3493,2.4489 -2.4541,3.634 7.8219,10.3562 11.7664,7.6972 14.9041,14.2654 7.7533,16.2306 -2.1621,0.5943 -13.5342,1.1504 -25.2715,1.2361 -11.737,0.086 -27.4323,0.772 -34.8782,1.5253 l -13.5381,1.3696 -10.0247,-12.5629 c -5.5135,-6.9095 -10.5408,-12.5307 -11.1718,-12.4915 -0.6309,0.039 -3.0332,1.5 -5.3385,3.2459 -4.0697,3.0824 -4.0535,3.3498 0.5617,9.217 2.6141,3.3234 4.7529,8.9387 4.7529,12.4784 0,5.7705 -0.755,6.4328 -7.3006,6.403 -10.1731,-0.046 -33.5739,-5.7387 -52.2276,-12.7047 -11.6104,-4.3358 -18.509,-8.7177 -26.3667,-16.7479 l -10.6423,-10.8756 -3.8446,5.8678 c -3.6659,5.5948 -4.5357,5.8097 -18.697,4.6225 -15.1807,-1.2727 -21.9757,0.4626 -19.2268,4.9102 0.9402,1.5214 9.1486,2.4975 21.0031,2.4975 25.1012,0 46.4561,6.4311 59.3502,17.8737 12.9252,11.47 11.245,17.4752 -7.2065,25.7558 -7.4635,3.3493 -17.084,6.66 -21.3788,7.357 -7.6126,1.2353 -9.1242,3.624 -6.5457,10.3435 1.0427,2.7171 3.4961,2.2146 14.0398,-2.8756 29.558,-14.2694 77.0492,-26.5116 122.4322,-31.5601 20.9117,-2.3263 87.4561,-3.5173 93.6385,-1.676 1.8532,0.5519 8.4238,1.7836 14.6013,2.7372 6.1775,0.9536 13.4707,3.1406 16.2071,4.8599 2.7364,1.7193 6.5241,3.126 8.4172,3.126 4.6941,0 20.3211,14.4336 30.401,28.0795 27.1114,36.7016 25.5334,73.0062 -3.1732,73.0062 -8.7338,0 -20.0542,-9.4247 -26.4317,-22.0056 -5.7693,-11.3813 -6.7301,-16.3149 -9.7892,-50.2664 l -1.3505,-14.9902 -6.6034,2.3021 c -3.6318,1.2661 -9.5453,5.8709 -13.141,10.233 -5.6352,6.8365 -6.7744,10.6028 -8.255,27.2895 -0.9446,10.647 -1.4726,21.0883 -1.1734,23.2028 0.2992,2.1146 -1.075,10.7069 -3.0536,19.094 -1.9788,8.3872 -4.6159,19.6982 -5.8603,25.1358 -1.2444,5.4373 -3.7816,12.8238 -5.6382,16.4141 -2.9295,5.665 -4.4663,6.4368 -11.624,5.8382 -12.503,-1.0456 -14.4349,-6.5858 -13.1653,-37.7545 0.8589,-21.0846 2.1522,-28.598 7.0356,-40.8743 6.5642,-16.5018 21.6197,-35.5017 28.1313,-35.5017 2.2761,0 7.0197,-3.4957 10.5416,-7.7681 3.5216,-4.2725 10.1658,-9.3403 14.7647,-11.2619 12.2976,-5.1382 11.0854,-7.6935 -5.4986,-11.5914 -11.6588,-2.7402 -14.7244,-1.9833 -26.574,6.5622 -24.8135,17.8947 -52.8259,51.8812 -62.414,75.7253 -13.0131,32.3609 -11.5081,46.6586 10.6097,100.7873 11.2595,27.5551 19.9813,60.4322 21.8349,82.3062 1.6295,19.2302 -2.3602,51.042 -8.7085,69.4374 -11.002,31.8801 -38.5294,80.7319 -65.1447,115.6105 -9.7903,12.8297 -15.9594,22.5802 -13.7093,21.6679 2.2502,-0.9124 6.6431,-2.4286 9.7621,-3.3692 3.1188,-0.9406 13.6224,-5.3841 23.3413,-9.8745 20.1681,-9.3183 28.2696,-10.4125 28.2696,-3.818 0,7.7241 -4.1645,15.6152 -13.702,25.962 -5.6741,6.1558 -8.0415,10.1259 -6.0381,10.1259 4.1421,0 46.1712,-21.2918 51.4383,-26.0585 9.8863,-8.9471 13.9105,-1.501 20.1093,37.2091 l 2.6848,16.7668 7.341,-14.5203 c 4.0377,-7.9861 13.2576,-21.2009 20.4889,-29.3661 z m -32.9536,-344.0084 c 2.3039,-5.2509 4.8594,-13.5905 5.6787,-18.5324 0.8194,-4.9419 2.3925,-12.0179 3.4957,-15.7244 1.103,-3.7065 2.4963,-13.815 3.0961,-22.4636 0.5997,-8.6484 1.6883,-21.2841 2.4189,-28.0792 l 1.3283,-12.3551 -10.0334,10.671 c -15.4909,16.4748 -22.6462,37.2305 -22.7214,65.9085 -0.061,23.1064 2.112,30.1222 9.3274,30.1222 1.7715,0 5.1058,-4.2961 7.4097,-9.547 z m 90.9908,-35.3657 c 7.8452,-2.9829 12.6882,-14.7098 10.2711,-24.8711 -4.6428,-19.5188 -20.1189,-43.493 -36.6594,-56.79 -12.1944,-9.8031 -13.4055,-7.1708 -10.7297,23.321 2.6272,29.9387 9.4975,47.0239 22.3249,55.5178 8.9146,5.9031 7.4332,5.6205 14.7931,2.8223 z m 190.2456,-50.1403 c -11.0586,-11.7713 -4.8194,-15.1413 31.937,-17.2505 31.7163,-1.82 36.8515,-3.0132 32.9907,-7.6651 -1.8073,-2.1776 -5.6859,-2.1816 -18.4195,-0.019 -28.9073,4.9103 -60.6161,-3.9031 -62.1782,-17.2819 -0.5603,-4.7986 0.6825,-6.3445 7.2004,-8.9564 7.2539,-2.9067 7.6228,-3.4962 4.6597,-7.4466 -3.1399,-4.1862 -3.5672,-4.1415 -17.6545,1.8456 l -14.4365,6.1356 -37.8425,-4.4808 c -20.8133,-2.4645 -56.038,-5.1016 -78.2768,-5.8603 l -40.4343,-1.3795 8.9855,7.8615 c 8.8826,7.7714 9.2296,7.8629 30.3257,8.0036 77.2608,0.5152 130.5053,17.1376 145.0618,45.2869 2.0831,4.0279 5.104,6.4056 8.1391,6.4056 h 4.8267 z m -205.6895,-72.1232 c 1.7921,-4.6702 39.2654,-37.6105 62.6548,-55.0757 41.2856,-30.8288 107.6874,-73.9698 129.8577,-84.3682 5.6045,-2.6285 7.7933,-4.7739 6.3468,-6.2205 -1.4467,-1.4465 -8.5119,-0.1748 -20.487,3.6877 -30.2556,9.7589 -33.4995,7.6092 -23.6145,-15.6493 6.1413,-14.45 6.9382,-22.3135 1.0601,-10.4619 -6.9239,13.9603 -27.1909,42.7435 -36.431,51.7392 -6.6152,6.4402 -12.5804,10.0609 -18.0337,10.9459 -7.3607,1.1944 -8.2887,0.7649 -9.5954,-4.4417 -0.7957,-3.17 -0.7054,-6.9633 0.2007,-8.4293 1.0218,-1.6533 0.5135,-2.2876 -1.3385,-1.6701 -1.6424,0.5473 -5.2631,8.2413 -8.0461,17.0976 -2.7833,8.8563 -7.8982,19.7137 -11.3666,24.1276 -3.4684,4.4139 -24.8007,23.3165 -47.405,42.0059 l -41.0986,33.9807 6.2803,2.7801 c 8.3738,3.7066 9.5772,3.7014 11.016,-0.047 z m -25.9463,-8.6006 c 0.071,-1.5442 1.0944,-14.4327 2.2735,-28.6409 5.3958,-65.0148 5.4818,-61.6746 -2.6076,-101.2921 -10.1477,-49.6979 -10.1401,-74.6484 0.032,-105.2255 3.8778,-11.6567 8.1741,-22.5478 9.5475,-24.2026 2.7432,-3.3052 1.1625,-6.3708 -2.21,-4.2864 -2.3941,1.4796 -9.8596,20.218 -13.698,34.3813 -2.2552,8.3224 -3.3865,9.4891 -9.8016,10.1086 -7.212,0.6964 -7.2556,0.7753 -7.9093,14.296 -0.3935,8.1403 1.6363,25.1223 5.0585,42.3214 10.2043,51.284 10.3049,64.2625 0.498,64.2625 -2.8181,0 -6.3369,-1.213 -7.8195,-2.6956 -3.976,-3.976 -3.3666,-1.2476 3.4819,15.5884 5.846,14.3717 6.174,17.08 6.1125,50.4753 -0.062,33.6868 0.1415,35.3301 4.4926,36.1973 9.081,1.8101 12.4224,1.4672 12.5496,-1.2877 z" id="path9"/></g></svg>