<svg version="1.1" id="svg1" width="5078.9116" height="5263.5273" viewBox="1250.432879668866 3160.3369 620.6531610446584 813.0022000000004" sodipodi:docname="trees3.svg" inkscape:version="1.4.2 (f4327f4, 2025-05-13)" xmlns:inkscape="http://www.inkscape.org/namespaces/inkscape" xmlns:sodipodi="http://sodipodi.sourceforge.net/DTD/sodipodi-0.dtd" xmlns="http://www.w3.org/2000/svg" xmlns:svg="http://www.w3.org/2000/svg"><defs id="defs1"/><g><path d="m 1557.9028,3958.2042 c -2.4619,-8.324 -5.894,-24.6101 -7.6269,-36.1914 l -3.1506,-21.0567 -8.0646,15.7925 c -11.8098,23.1265 -16.4203,26.4476 -35.6968,25.7132 -17.5757,-0.6697 -19.9792,0.57 -31.2884,16.1373 -6.3268,8.7088 -7.4575,9.3874 -7.4575,4.4754 0,-8.2856 7.0357,-21.1324 17.6372,-32.2046 10.8003,-11.2798 9.1783,-13.1857 -11.3787,-13.3704 -17.219,-0.1548 -26.159,5.1443 -33.4621,19.8342 -6.2142,12.4997 -9.6457,10.1776 -9.6457,-6.5271 0,-11.5096 1.1549,-14.4233 8.7133,-21.9816 9.8373,-9.8374 20.6861,-13.351 49.1928,-15.9322 21.0297,-1.9042 31.5851,-7.7691 31.5851,-17.5497 0,-4.5943 -0.4254,-4.6567 -5.8498,-0.8573 -7.9193,5.5469 -18.6135,5.1521 -30.9521,-1.1426 -11.6184,-5.9272 -15.9727,-5.0568 -28.434,5.6841 -11.6382,10.0314 -19.5861,9.4842 -44.6809,-3.0762 -22.8234,-11.4234 -28.2106,-12.3954 -36.0096,-6.4965 -7.786,5.8891 -8.8318,4.8019 -6.6834,-6.9472 3.085,-16.8705 10.095,-22.0925 29.6324,-22.0742 12.3688,0.012 18.7085,1.4612 25.9005,5.9223 12.4185,7.7027 14.9252,7.479 24.9378,-2.2255 7.4894,-7.259 10.6783,-8.3289 29.6977,-9.9634 11.7191,-1.0071 22.4988,-3.0224 23.955,-4.4786 1.4561,-1.4561 3.9074,-8.5209 5.4473,-15.6996 3.3409,-15.5745 6.6184,-139.7355 3.9674,-150.2978 -1.8161,-7.2361 -2.0099,-7.0866 -9.9191,7.6532 -12.0144,22.3904 -29.8789,33.4649 -54.0498,33.5064 -9.6522,0.016 -10.2196,-2.5744 -6.0496,-27.6224 1.205,-7.2382 1.8084,-13.5722 1.3408,-14.0755 -0.4676,-0.5033 -7.4908,1.5694 -15.6071,4.6061 -9.3949,3.5151 -20.9376,5.5213 -31.7668,5.5213 h -17.0099 v -8.8814 c 0,-4.8848 1.692,-13.677 3.76,-19.5382 l 3.7599,-10.6568 -7.8057,2.7211 c -13.3671,4.6598 -41.9864,1.6256 -52.0136,-5.5144 -7.5538,-5.3787 -8.5337,-7.3235 -7.1575,-14.2045 0.8769,-4.3849 4.5458,-11.8419 8.1529,-16.5711 3.6071,-4.7291 6.5584,-9.1656 6.5584,-9.8588 0,-0.6932 -5.0339,-2.0986 -11.1864,-3.1231 -11.5486,-1.9232 -27.0357,-8.7803 -39.2342,-17.3715 -8.6733,-6.1084 -7.5685,-11.7814 4.5892,-23.5652 4.9401,-4.7881 8.982,-9.5141 8.982,-10.5021 0,-0.9881 -3.5235,-3.256 -7.8301,-5.0398 -17.1077,-7.0863 -34.2193,-32.8854 -34.2687,-51.6669 -0.016,-6.2598 9.4104,-8.8178 32.6873,-8.8698 l 12.9612,-0.029 -5.5973,-5.9581 c -8.3821,-8.9223 -13.7449,-23.894 -13.7449,-38.372 0,-11.0328 1.921,-19.2281 9.2361,-39.402 0.9344,-2.5769 4.5136,-1.6199 14.1044,3.7713 l 12.8521,7.2246 10.1987,-8.0169 c 12.9554,-10.1838 25.5355,-16.6344 32.4408,-16.6344 7.0889,0 6.9477,-0.5523 -3.7094,-14.5139 -5.0074,-6.5601 -9.8968,-16.1513 -10.8653,-21.314 -2.3289,-12.4141 0.1302,-45.4051 3.6464,-48.9214 5.9434,-5.9434 32.8607,17.1874 41.7891,35.9104 l 4.3707,9.1654 5.9324,-14.5964 c 5.7442,-14.1332 5.7929,-14.9731 1.5355,-26.4601 -4.3684,-11.7866 -4.3558,-11.8969 1.9454,-16.9993 3.4883,-2.8247 13.34,-7.0813 21.8926,-9.4591 13.7293,-3.8171 15.3506,-4.9605 13.8452,-9.7638 -0.9379,-2.9922 -2.3451,-14.4334 -3.1273,-25.425 -1.537,-21.5977 1.358,-31.3412 9.3119,-31.3412 8.3052,0 28.2834,14.697 31.9232,23.4844 l 3.4788,8.3985 8.9885,-15.9499 c 8.0932,-14.3612 9.5219,-15.6645 14.3431,-13.0843 5.6655,3.0321 14.3362,20.1881 17.0428,33.7212 0.8899,4.4497 2.6799,7.434 3.9777,6.632 1.2978,-0.8021 6.621,1.1753 11.8294,4.3943 l 9.4697,5.8526 -1.853,-5.8383 c -2.9477,-9.2875 -2.279,-45.2281 1.0714,-57.584 1.6838,-6.2092 6.5565,-15.0925 10.8284,-19.7407 l 7.7671,-8.4512 7.8052,8.4939 c 10.9034,11.8655 16.9355,34.1838 15.0961,55.855 -0.8051,9.4854 -2.3218,19.4579 -3.3704,22.1611 -1.7161,4.4241 -0.8104,4.2927 9.0674,-1.316 8.8841,-5.0445 11.4037,-5.5512 13.2309,-2.6611 1.5487,2.4497 3.2974,-0.8544 5.572,-10.5284 4.5604,-19.395 9.8313,-29.0863 15.2633,-28.0641 2.4497,0.4609 8.0073,6.3925 12.3502,13.1812 8.0115,12.5231 11.8445,15.4743 11.8445,9.1193 0,-1.9302 3.8494,-7.9276 8.5543,-13.3274 6.0727,-6.9697 11.9003,-10.5595 20.0881,-12.3743 6.3436,-1.406 12.2307,-1.8595 13.0824,-1.0078 0.8518,0.8518 2.0084,9.6851 2.5703,19.6297 0.8572,15.1693 -0.061,20.4449 -5.6985,32.7599 l -6.7202,14.6789 8.4087,0.015 c 13.9674,0.024 27.6011,5.0382 33.2591,12.2312 4.9639,6.3106 5.0545,7.2992 1.2584,13.7278 -3.7886,6.416 -3.6263,8.3574 2.1983,26.2934 l 6.289,19.3658 5.3279,-12.7856 c 7.1396,-17.133 17.496,-28.8912 28.7052,-32.5906 12.8917,-4.2546 16.2728,-2.06 18.3697,11.9233 3.734,24.8997 -6.9945,53.3943 -24.4329,64.893 -6.4767,4.2707 -6.6833,4.8102 -1.8475,4.8256 12.2101,0.039 33.5516,8.6778 43.3855,17.5622 l 10.3509,9.3514 12.7535,-8.1839 c 7.0145,-4.5011 14.0452,-8.1839 15.6239,-8.1839 3.8297,0 6.9358,26.2393 5.0204,42.4117 -0.8427,7.1158 -4.5472,18.9405 -8.2321,26.2769 -3.6848,7.3364 -6.6997,13.6682 -6.6997,14.0705 0,0.4024 6.6061,1.4134 14.6804,2.2467 8.0742,0.8333 17.5179,3.3744 20.9861,5.6468 5.5065,3.6081 5.9579,5.0473 3.5611,11.3556 -5.0597,13.3172 -23.3766,34.7241 -34.6196,40.4598 l -11.0386,5.6315 8.0847,6.8872 c 10.6388,9.0632 18.2036,20.9955 15.1877,23.9563 -7.9077,7.7633 -35.2725,21.265 -45.9772,22.6851 l -12.4383,1.65 10.2471,13.5152 c 10.4439,13.7748 12.7042,20.0955 7.1862,20.0955 -1.696,0 -10.809,3.0906 -20.2511,6.868 -13.1219,5.2496 -19.8302,6.5031 -28.4672,5.3193 l -11.2997,-1.5489 0.6236,16.3956 0.6237,16.3955 -18.0127,0.7839 c -10.4752,0.4559 -23.5373,-0.8356 -31.2154,-3.0863 l -13.2027,-3.8703 1.7693,8.3506 c 4.2528,20.0729 5.7984,33.6041 3.9676,34.7356 -4.0342,2.4933 -30.1398,-4.2684 -40.959,-10.6088 -6.1553,-3.6073 -14.6677,-10.7758 -18.9163,-15.9301 l -7.7247,-9.3714 -1.8566,32.59 c -2.724,47.8141 3.6211,127.9702 10.5877,133.752 2.2435,1.862 7.4035,2.332 13.5328,1.2328 19.2525,-3.4528 27.2708,-2.1155 37.7346,6.2934 11.6635,9.3731 17.3571,9.8729 35.3423,3.1026 20.6402,-7.7697 27.5773,-3.2575 33.0468,21.4953 2.5626,11.5976 2.6324,15.9536 0.293,18.293 -2.3394,2.3395 -3.0706,1.7273 -3.0706,-2.5707 0,-6.5594 -9.1646,-13.8362 -17.4257,-13.8362 -3.1492,0 -10.8807,2.9469 -17.181,6.5486 -14.1939,8.1142 -26.0722,8.349 -39.5369,0.7815 -10.2199,-5.744 -10.5672,-5.7618 -23.4095,-1.2006 -13.5255,4.8038 -29.0308,4.0101 -36.4625,-1.8665 -3.111,-2.4601 -3.4064,-1.6424 -1.7878,4.9494 1.0664,4.3429 3.095,9.0807 4.508,10.5284 1.413,1.4476 15.4515,3.2283 31.1965,3.9571 25.6888,1.1891 29.3239,1.9795 35.414,7.7009 6.4984,6.1048 13.4119,23.3837 10.5152,26.2804 -0.7618,0.7618 -6.3558,-1.2477 -12.4311,-4.4655 -12.3216,-6.5261 -20.6744,-7.2522 -33.1997,-2.8858 l -8.4625,2.95 8.0698,4.9076 c 4.4384,2.6991 8.0859,6.4054 8.1057,8.2363 0.02,1.8308 0.7985,6.1788 1.7306,9.6621 1.6849,6.2974 1.6076,6.3231 -13.6342,4.5318 -8.4307,-0.9909 -22.7648,-5.3506 -31.8534,-9.6881 -13.244,-6.3208 -18.2521,-10.5565 -25.2253,-21.3347 l -8.7005,-13.4481 -1.9335,11.5387 c -1.0634,6.3463 -2.7049,18.6454 -3.6478,27.3313 -1.5004,13.8227 -6.9839,30.2691 -10.0921,30.2691 -0.5839,0 -3.076,-6.8105 -5.5379,-15.1345 z" id="path53" style="fill:#ffffff"/><path style="fill:#1a1a1a;stroke-width:1.97407" d="m 1557.9028,3958.2042 c -2.4619,-8.324 -5.894,-24.6101 -7.6269,-36.1914 l -3.1506,-21.0567 -8.0646,15.7925 c -11.8098,23.1265 -16.4203,26.4476 -35.6968,25.7132 -17.5757,-0.6697 -19.9792,0.57 -31.2884,16.1373 -6.3268,8.7088 -7.4575,9.3874 -7.4575,4.4754 0,-8.2856 7.0357,-21.1324 17.6372,-32.2046 10.8003,-11.2798 9.1783,-13.1857 -11.3787,-13.3704 -17.219,-0.1548 -26.159,5.1443 -33.4621,19.8342 -6.2142,12.4997 -9.6457,10.1776 -9.6457,-6.5271 0,-11.5096 1.1549,-14.4233 8.7133,-21.9816 9.8373,-9.8374 20.6861,-13.351 49.1928,-15.9322 21.0297,-1.9042 31.5851,-7.7691 31.5851,-17.5497 0,-4.5943 -0.4254,-4.6567 -5.8498,-0.8573 -7.9193,5.5469 -18.6135,5.1521 -30.9521,-1.1426 -11.6184,-5.9272 -15.9727,-5.0568 -28.434,5.6841 -11.6382,10.0314 -19.5861,9.4842 -44.6809,-3.0762 -22.8234,-11.4234 -28.2106,-12.3954 -36.0096,-6.4965 -7.786,5.8891 -8.8318,4.8019 -6.6834,-6.9472 3.085,-16.8705 10.095,-22.0925 29.6324,-22.0742 12.3688,0.012 18.7085,1.4612 25.9005,5.9223 12.4185,7.7027 14.9252,7.479 24.9378,-2.2255 7.4894,-7.259 10.6783,-8.3289 29.6977,-9.9634 11.7191,-1.0071 22.4988,-3.0224 23.955,-4.4786 1.4561,-1.4561 3.9074,-8.5209 5.4473,-15.6996 3.3409,-15.5745 6.6184,-139.7355 3.9674,-150.2978 -1.8161,-7.2361 -2.0099,-7.0866 -9.9191,7.6532 -12.0144,22.3904 -29.8789,33.4649 -54.0498,33.5064 -9.6522,0.016 -10.2196,-2.5744 -6.0496,-27.6224 1.205,-7.2382 1.8084,-13.5722 1.3408,-14.0755 -0.4676,-0.5033 -7.4908,1.5694 -15.6071,4.6061 -9.3949,3.5151 -20.9376,5.5213 -31.7668,5.5213 h -17.0099 v -8.8814 c 0,-4.8848 1.692,-13.677 3.76,-19.5382 l 3.7599,-10.6568 -7.8057,2.7211 c -13.3671,4.6598 -41.9864,1.6256 -52.0136,-5.5144 -7.5538,-5.3787 -8.5337,-7.3235 -7.1575,-14.2045 0.8769,-4.3849 4.5458,-11.8419 8.1529,-16.5711 3.6071,-4.7291 6.5584,-9.1656 6.5584,-9.8588 0,-0.6932 -5.0339,-2.0986 -11.1864,-3.1231 -11.5486,-1.9232 -27.0357,-8.7803 -39.2342,-17.3715 -8.6733,-6.1084 -7.5685,-11.7814 4.5892,-23.5652 4.9401,-4.7881 8.982,-9.5141 8.982,-10.5021 0,-0.9881 -3.5235,-3.256 -7.8301,-5.0398 -17.1077,-7.0863 -34.2193,-32.8854 -34.2687,-51.6669 -0.016,-6.2598 9.4104,-8.8178 32.6873,-8.8698 l 12.9612,-0.029 -5.5973,-5.9581 c -8.3821,-8.9223 -13.7449,-23.894 -13.7449,-38.372 0,-11.0328 1.921,-19.2281 9.2361,-39.402 0.9344,-2.5769 4.5136,-1.6199 14.1044,3.7713 l 12.8521,7.2246 10.1987,-8.0169 c 12.9554,-10.1838 25.5355,-16.6344 32.4408,-16.6344 7.0889,0 6.9477,-0.5523 -3.7094,-14.5139 -5.0074,-6.5601 -9.8968,-16.1513 -10.8653,-21.314 -2.3289,-12.4141 0.1302,-45.4051 3.6464,-48.9214 5.9434,-5.9434 32.8607,17.1874 41.7891,35.9104 l 4.3707,9.1654 5.9324,-14.5964 c 5.7442,-14.1332 5.7929,-14.9731 1.5355,-26.4601 -4.3684,-11.7866 -4.3558,-11.8969 1.9454,-16.9993 3.4883,-2.8247 13.34,-7.0813 21.8926,-9.4591 13.7293,-3.8171 15.3506,-4.9605 13.8452,-9.7638 -0.9379,-2.9922 -2.3451,-14.4334 -3.1273,-25.425 -1.537,-21.5977 1.358,-31.3412 9.3119,-31.3412 8.3052,0 28.2834,14.697 31.9232,23.4844 l 3.4788,8.3985 8.9885,-15.9499 c 8.0932,-14.3612 9.5219,-15.6645 14.3431,-13.0843 5.6655,3.0321 14.3362,20.1881 17.0428,33.7212 0.8899,4.4497 2.6799,7.434 3.9777,6.632 1.2978,-0.8021 6.621,1.1753 11.8294,4.3943 l 9.4697,5.8526 -1.853,-5.8383 c -2.9477,-9.2875 -2.279,-45.2281 1.0714,-57.584 1.6838,-6.2092 6.5565,-15.0925 10.8284,-19.7407 l 7.7671,-8.4512 7.8052,8.4939 c 10.9034,11.8655 16.9355,34.1838 15.0961,55.855 -0.8051,9.4854 -2.3218,19.4579 -3.3704,22.1611 -1.7161,4.4241 -0.8104,4.2927 9.0674,-1.316 8.8841,-5.0445 11.4037,-5.5512 13.2309,-2.6611 1.5487,2.4497 3.2974,-0.8544 5.572,-10.5284 4.5604,-19.395 9.8313,-29.0863 15.2633,-28.0641 2.4497,0.4609 8.0073,6.3925 12.3502,13.1812 8.0115,12.5231 11.8445,15.4743 11.8445,9.1193 0,-1.9302 3.8494,-7.9276 8.5543,-13.3274 6.0727,-6.9697 11.9003,-10.5595 20.0881,-12.3743 6.3436,-1.406 12.2307,-1.8595 13.0824,-1.0078 0.8518,0.8518 2.0084,9.6851 2.5703,19.6297 0.8572,15.1693 -0.061,20.4449 -5.6985,32.7599 l -6.7202,14.6789 8.4087,0.015 c 13.9674,0.024 27.6011,5.0382 33.2591,12.2312 4.9639,6.3106 5.0545,7.2992 1.2584,13.7278 -3.7886,6.416 -3.6263,8.3574 2.1983,26.2934 l 6.289,19.3658 5.3279,-12.7856 c 7.1396,-17.133 17.496,-28.8912 28.7052,-32.5906 12.8917,-4.2546 16.2728,-2.06 18.3697,11.9233 3.734,24.8997 -6.9945,53.3943 -24.4329,64.893 -6.4767,4.2707 -6.6833,4.8102 -1.8475,4.8256 12.2101,0.039 33.5516,8.6778 43.3855,17.5622 l 10.3509,9.3514 12.7535,-8.1839 c 7.0145,-4.5011 14.0452,-8.1839 15.6239,-8.1839 3.8297,0 6.9358,26.2393 5.0204,42.4117 -0.8427,7.1158 -4.5472,18.9405 -8.2321,26.2769 -3.6848,7.3364 -6.6997,13.6682 -6.6997,14.0705 0,0.4024 6.6061,1.4134 14.6804,2.2467 8.0742,0.8333 17.5179,3.3744 20.9861,5.6468 5.5065,3.6081 5.9579,5.0473 3.5611,11.3556 -5.0597,13.3172 -23.3766,34.7241 -34.6196,40.4598 l -11.0386,5.6315 8.0847,6.8872 c 10.6388,9.0632 18.2036,20.9955 15.1877,23.9563 -7.9077,7.7633 -35.2725,21.265 -45.9772,22.6851 l -12.4383,1.65 10.2471,13.5152 c 10.4439,13.7748 12.7042,20.0955 7.1862,20.0955 -1.696,0 -10.809,3.0906 -20.2511,6.868 -13.1219,5.2496 -19.8302,6.5031 -28.4672,5.3193 l -11.2997,-1.5489 0.6236,16.3956 0.6237,16.3955 -18.0127,0.7839 c -10.4752,0.4559 -23.5373,-0.8356 -31.2154,-3.0863 l -13.2027,-3.8703 1.7693,8.3506 c 4.2528,20.0729 5.7984,33.6041 3.9676,34.7356 -4.0342,2.4933 -30.1398,-4.2684 -40.959,-10.6088 -6.1553,-3.6073 -14.6677,-10.7758 -18.9163,-15.9301 l -7.7247,-9.3714 -1.8566,32.59 c -2.724,47.8141 3.6211,127.9702 10.5877,133.752 2.2435,1.862 7.4035,2.332 13.5328,1.2328 19.2525,-3.4528 27.2708,-2.1155 37.7346,6.2934 11.6635,9.3731 17.3571,9.8729 35.3423,3.1026 20.6402,-7.7697 27.5773,-3.2575 33.0468,21.4953 2.5626,11.5976 2.6324,15.9536 0.293,18.293 -2.3394,2.3395 -3.0706,1.7273 -3.0706,-2.5707 0,-6.5594 -9.1646,-13.8362 -17.4257,-13.8362 -3.1492,0 -10.8807,2.9469 -17.181,6.5486 -14.1939,8.1142 -26.0722,8.349 -39.5369,0.7815 -10.2199,-5.744 -10.5672,-5.7618 -23.4095,-1.2006 -13.5255,4.8038 -29.0308,4.0101 -36.4625,-1.8665 -3.111,-2.4601 -3.4064,-1.6424 -1.7878,4.9494 1.0664,4.3429 3.095,9.0807 4.508,10.5284 1.413,1.4476 15.4515,3.2283 31.1965,3.9571 25.6888,1.1891 29.3239,1.9795 35.414,7.7009 6.4984,6.1048 13.4119,23.3837 10.5152,26.2804 -0.7618,0.7618 -6.3558,-1.2477 -12.4311,-4.4655 -12.3216,-6.5261 -20.6744,-7.2522 -33.1997,-2.8858 l -8.4625,2.95 8.0698,4.9076 c 4.4384,2.6991 8.0859,6.4054 8.1057,8.2363 0.02,1.8308 0.7985,6.1788 1.7306,9.6621 1.6849,6.2974 1.6076,6.3231 -13.6342,4.5318 -8.4307,-0.9909 -22.7648,-5.3506 -31.8534,-9.6881 -13.244,-6.3208 -18.2521,-10.5565 -25.2253,-21.3347 l -8.7005,-13.4481 -1.9335,11.5387 c -1.0634,6.3463 -2.7049,18.6454 -3.6478,27.3313 -1.5004,13.8227 -6.9839,30.2691 -10.0921,30.2691 -0.5839,0 -3.076,-6.8105 -5.5379,-15.1345 z m 13.4483,-63.8284 c 2.3241,-34.1567 4.7813,-39.9506 8.8658,-20.9051 1.6724,7.7982 7.1045,22.6274 12.0713,32.9539 8.5675,17.8125 9.8127,19.1145 24.2818,25.3896 8.3881,3.6378 18.9944,7.4364 23.5696,8.4412 7.185,1.5782 8.1471,1.1771 7.0616,-2.9436 -0.6913,-2.6238 -5.9297,-6.7554 -11.6411,-9.1813 -5.7113,-2.4259 -10.3842,-5.5292 -10.3842,-6.8962 0,-6.8689 43.6265,-12.5248 57.6428,-7.4731 l 6.317,2.2767 -5.7678,-8.1001 c -6.9103,-9.7046 -19.9324,-12.9743 -34.4044,-8.6384 -13.831,4.1439 -26.8328,3.7065 -33.7454,-1.1352 -12.6311,-8.8472 -21.1832,-34.7522 -22.9741,-69.5908 l -1.2854,-25.0049 5.24,19.4264 c 6.2357,23.1179 17.3269,41.9701 25.9985,44.1906 3.4284,0.878 14.4684,0.042 24.5333,-1.8567 16.672,-3.1457 19.0169,-3.0293 26.3613,1.3091 16.0028,9.4531 25.0166,9.6921 38.5404,1.0218 9.2887,-5.9551 14.314,-7.5317 20.8018,-6.526 7.1386,1.1066 8.5543,0.4905 8.5543,-3.7226 0,-8.122 -11.156,-9.1151 -27.2874,-2.429 -17.2255,7.1396 -23.6881,5.9348 -36.878,-6.8751 -8.4367,-8.1936 -11.0399,-9.3235 -18.2415,-7.9177 -4.6203,0.9019 -13.9234,2.3514 -20.6736,3.2211 -19.3805,2.497 -19.2544,3.0424 -28.8895,-124.9303 -3.4179,-45.3963 -1.0331,-68.0035 9.0508,-85.8011 6.1965,-10.9363 7.3542,-11.8261 25.5316,-19.6235 70.3522,-30.1783 104.2924,-49.2322 118.6146,-66.5898 5.1605,-6.2541 10.0555,-13.1477 10.8778,-15.3192 0.8224,-2.1715 8.0031,-12.9969 15.9572,-24.0564 7.9541,-11.0596 13.6915,-21.355 12.7498,-22.8786 -0.9417,-1.5237 -5.138,3.7729 -9.3251,11.7703 -11.2591,21.5045 -48.438,58.2803 -73.8596,73.0585 -29.2546,17.0065 -65.5688,28.3813 -90.4026,28.3172 -18.9747,-0.049 -19.5528,0.1499 -30.9272,10.6343 -6.3751,5.8764 -11.591,12.2797 -11.591,14.2296 0,1.95 3.7005,5.459 8.2235,7.7979 7.3407,3.7961 7.796,4.68 4.2416,8.2344 -6.2809,6.2809 -14.9801,1.7426 -20.4762,-10.6821 -7.4114,-16.7547 -10.5375,-42.547 -10.5683,-87.1943 -0.016,-22.34 -1.0272,-41.2357 -2.2483,-41.9904 -3.7904,-2.3427 -5.4933,13.5541 -5.4933,51.2817 0,56.1228 -8.2621,89.2999 -22.7821,91.4838 -2.83,0.4256 -7.3364,-1.6472 -10.0142,-4.6062 -4.7551,-5.2543 -4.7414,-5.38 0.5879,-5.38 15.808,0 17.9181,-8.2686 5.6701,-22.2182 -7.9471,-9.0513 -8.4262,-9.2082 -23.3502,-7.6483 -25.6046,2.6762 -89.1721,-15.3777 -113.9845,-32.3728 -17.3474,-11.8821 -45.2105,-39.1884 -56.0564,-54.936 -5.4659,-7.9363 -10.4017,-14.4296 -10.9684,-14.4296 -0.5667,0 2.2952,6.0697 6.3597,13.4882 10.5766,19.304 28.3957,38.0398 56.554,59.4633 20.9232,15.9189 29.0822,20.2652 55.4264,29.526 47.7445,16.7835 53.6416,19.7846 60.8147,30.9485 11.5348,17.9522 13.2028,32.8766 11.4042,102.0374 -1.6689,64.1712 -5.3875,93.1994 -13.5315,105.6287 -3.472,5.299 -5.7489,5.9625 -17.8266,5.1948 -7.6154,-0.4841 -17.0148,-1.714 -20.8874,-2.7331 -5.899,-1.5524 -8.9784,-0.067 -18.9825,9.1541 -13.3187,12.2768 -9.4528,12.5383 -37.1467,-2.5131 -16.4488,-8.9398 -38.1654,-4.3223 -38.1654,8.1149 0,4.313 0.6939,4.531 5.2885,1.6615 5.4716,-3.417 7.6565,-2.8337 47.7461,12.7466 l 12.2371,4.7557 10.6735,-7.3966 c 8.7702,-6.0778 12.6895,-7.1803 21.9801,-6.1829 6.2187,0.6676 15.1309,2.8179 19.8049,4.7786 7.6616,3.2139 9.2002,3.0406 15.6299,-1.7599 11.4846,-8.5744 17.2839,-18.1545 24.9543,-41.2222 5.9051,-17.7587 7.2172,-20.0159 7.2497,-12.471 0.054,12.4692 -13.5242,63.6583 -19.1714,72.277 -8.119,12.3911 -19.3626,17.1936 -40.2794,17.2045 -10.4013,0.01 -22.2457,1.2731 -26.321,2.8172 -10.0661,3.814 -19.254,12.8309 -19.254,18.8956 0,3.9898 1.8566,3.0241 9.2418,-4.8064 l 9.2418,-9.7992 29.8891,1.7071 c 29.7827,1.701 29.9138,1.6824 36.8199,-5.2237 6.2858,-6.2858 6.9307,-6.4502 6.9307,-1.7664 0,6.0381 -8.2057,14.1539 -20.7011,20.4745 -11.2511,5.6912 -7.5092,10.7304 6.0755,8.1819 6.9778,-1.3091 11.1398,-4.3275 15.8789,-11.5163 7.586,-11.5069 18.8644,-40.6374 22.7521,-58.7653 3.3883,-15.799 8.8187,-14.4744 6.4135,1.5643 -2.1695,14.4672 2.7462,74.8719 6.8883,84.6445 3.0816,7.2705 3.2771,6.9049 5.1057,-9.5486 1.0458,-9.4098 2.7477,-29.5453 3.782,-44.7457 z m -92.4301,-208.896 c 7.9018,-5.1774 16.765,-23.7085 17.7949,-37.205 0.7797,-10.2185 0.5424,-10.5534 -8.0631,-11.3765 -23.1312,-2.2125 -42.4595,19.1207 -42.4595,46.8639 0,5.3333 0.7004,10.3973 1.5565,11.2534 2.0722,2.0721 23.4244,-4.4598 31.1712,-9.5358 z m 201.4711,-2.3297 c -0.1494,-22.1165 -19.6512,-43.4615 -40.9012,-44.7669 -9.879,-0.6068 -10.405,-0.2434 -11.1772,7.7238 -1.8911,19.5114 22.9602,45.5974 43.4392,45.5974 8.0692,0 8.6929,-0.6176 8.6392,-8.5543 z m -265.5187,-20.7623 c 14.3429,-4.8022 25.6365,-14.7768 32.8513,-29.0145 3.6954,-7.2924 6.2148,-13.7631 5.5987,-14.3792 -0.6161,-0.6161 -8.3503,-2.3937 -17.187,-3.9503 -13.9897,-2.4642 -17.3512,-2.2005 -26.0011,2.04 -5.4638,2.6785 -12.6173,8.8983 -15.8967,13.8219 -6.7237,10.0946 -12.2642,28.0195 -9.862,31.9063 2.1569,3.4899 19.5281,3.2483 30.4968,-0.4242 z m 321.9514,-3.8663 c 12.4822,-4.7898 -4.1183,-35.8235 -22.987,-42.9726 -8.5391,-3.2354 -38.42,-3.7104 -43.1794,-0.6864 -7.3568,4.6743 16.1587,37.7038 30.8483,43.3292 5.3943,2.0657 30.1909,2.2973 35.3181,0.3298 z m -269.2759,-25.9142 c 11.2534,-6.3921 11.3011,-6.4803 4.8748,-9.0235 -5.4165,-2.1436 -7.469,-1.4871 -12.4119,3.9698 -5.3028,5.8544 -7.6979,11.5088 -4.8748,11.5088 0.5761,0 6.1614,-2.9048 12.4119,-6.4551 z m 196.9601,-1.6494 c -7.1791,-10.0822 -10.9606,-11.6033 -18.6351,-7.496 -5.8485,3.13 -5.6319,3.4133 7.0326,9.1959 17.3788,7.9353 18.361,7.7914 11.6025,-1.6999 z m -292.7705,-2.8172 c 8.8387,-2.699 27.0771,-24.3064 27.0771,-32.0787 0,-5.2858 -15.2344,-9.6075 -33.9352,-9.6268 -13.476,-0.014 -14.8418,0.6325 -26.979,12.7698 -15.7085,15.7084 -16.3437,22.0618 -2.9142,29.1453 10.1049,5.3299 18.7724,5.2804 36.7513,-0.2096 z m 405.9451,-4.4194 c 9.3251,-2.6356 17.3787,-6.0642 17.897,-7.6189 1.1973,-3.5921 -21.0042,-24.7083 -30.3907,-28.9052 -11.0076,-4.9216 -33.1377,-4.226 -39.9056,1.2543 l -5.7587,4.6631 11.2859,12.8215 c 9.7206,11.0432 24.3344,22.5793 28.6013,22.5778 0.7239,-2e-4 8.9457,-2.1569 18.2708,-4.7926 z m -60.0179,-18.9637 c -6.3169,-5.2625 -18.7911,-7.1252 -18.7911,-2.806 0,1.3039 4.4417,3.5503 9.8704,4.9922 14.5152,3.8552 15.7958,3.5413 8.9207,-2.1862 z m -305.6896,0.088 c 3.4024,-2.1988 3.333,-2.5571 -0.5027,-2.5918 -2.448,-0.022 -5.1829,1.1442 -6.0776,2.5918 -2.0587,3.3312 1.4257,3.3312 6.5803,0 z m 137.6991,-6.728 c 2.1936,-13.5175 -0.8129,-35.1813 -6.4422,-46.4195 -4.8388,-9.6603 -19.7503,-23.1833 -25.5635,-23.1833 -4.0447,0 -3.695,32.6274 0.4729,44.12 3.1914,8.7999 24.0242,34.8429 27.8722,34.8429 1.178,0 2.8252,-4.212 3.6606,-9.3601 z m 49.5815,-5.4904 c 9.6851,-10.8882 17.0975,-55.856 9.9367,-60.2816 -4.4495,-2.75 -24.6205,20.2296 -28.1771,32.1005 -3.4161,11.4017 -4.2764,31.9471 -1.6269,38.8515 1.4101,3.6746 2.384,3.5816 8.5543,-0.8167 3.8297,-2.7299 8.9205,-7.164 11.313,-9.8537 z m -120.1359,-8.8109 c -4.1463,-4.3279 -8.0294,-7.3782 -8.629,-6.7786 -2.3811,2.3811 2.5381,11.7476 6.7524,12.8569 9.0385,2.3791 9.2678,1.6364 1.8766,-6.0783 z m 35.507,3.466 c 0,-0.6641 -1.3978,-3.7946 -3.1062,-6.9566 -1.7085,-3.1621 -4.4111,-12.2636 -6.0058,-20.2257 -2.7368,-13.6638 -3.6337,-14.8716 -15.9765,-21.5132 -7.1923,-3.8702 -16.4977,-7.8891 -20.6787,-8.9309 l -7.6018,-1.8943 1.8776,10.247 c 4.1326,22.5536 15.7902,38.0399 36.9098,49.0319 6.8607,3.5708 14.5816,3.6989 14.5816,0.2418 z m 120.112,-5.1527 c 4.9738,-2.3603 12.5463,-8.5411 16.8277,-13.7351 7.4301,-9.0141 17.6276,-33.5872 15.0202,-36.1946 -2.4112,-2.4113 -30.0986,9.6168 -35.5884,15.4604 -6.9291,7.3757 -13.7197,23.2616 -13.7197,32.0959 0,7.9152 4.4943,8.5261 17.4602,2.3734 z m 24.7185,-2.4602 c 3.8174,-10.0406 3.0466,-11.1199 -2.6972,-3.7768 -5.7801,7.3894 -6.5454,10.5283 -2.567,10.5283 1.4835,0 3.8524,-3.0382 5.2642,-6.7515 z m -201.6223,-19.8243 c -2.4179,-10.7172 -6.567,-23.7786 -9.2201,-29.0252 -4.6437,-9.1831 -18.8857,-23.3619 -23.466,-23.3619 -1.2182,0 -4.0884,-0.719 -6.3783,-1.5977 -3.4051,-1.3066 -4.1608,0.4912 -4.1487,9.8704 0.021,16.186 4.5958,30.854 13.3515,42.8057 8.5647,11.691 28.8528,26.1998 32.098,22.9546 1.1879,-1.188 0.1816,-10.9286 -2.2364,-21.6459 z m -112.4483,12.8592 c 7.6706,-4.6488 13.9464,-9.7572 13.9464,-11.352 0,-3.5157 -12.2933,-15.2801 -20.2257,-19.3554 -15.3324,-7.8772 -49.2146,1.4948 -52.483,14.5171 -0.8922,3.5548 -1.1838,6.8585 -0.648,7.3416 0.5357,0.4832 6.3041,4.5361 12.8185,9.0066 16.0484,11.013 28.228,10.9717 46.5918,-0.158 z m 475.2668,-1.5351 c 19.0208,-10.1428 19.573,-11.8842 6.7571,-21.3091 -12.7314,-9.3627 -22.8731,-10.3589 -43.4005,-4.2629 -14.0041,4.1588 -23.696,12.2065 -20.6452,17.1428 1.0102,1.6345 6.6176,6.4351 12.461,10.668 9.0629,6.5651 12.2156,7.4578 21.452,6.0742 5.9553,-0.8921 16.4743,-4.633 23.3756,-8.313 z m -445.5278,3.1085 c 0,-0.5595 -3.5533,-1.0173 -7.8963,-1.0173 -4.3429,0 -7.8963,0.9793 -7.8963,2.1763 0,1.1969 3.5534,1.6547 7.8963,1.0173 4.343,-0.6375 7.8963,-1.6168 7.8963,-2.1763 z m 305.3956,-0.213 c 16.9851,-11.6401 28.6336,-31.5741 30.818,-52.7386 l 1.4875,-14.4132 -7.6346,3.9557 c -19.154,9.9243 -31.4444,28.9253 -34.2721,52.9847 -1.8609,15.8334 -0.584,17.1915 9.6012,10.2114 z m 82.9936,0.4281 c -5.7472,-4.347 -16.1657,-5.1381 -18.4742,-1.4029 -1.3191,2.1344 4.7446,3.6568 19.6353,4.9298 2.8643,0.2448 2.5455,-0.7234 -1.1611,-3.5269 z m -346.8027,-15.1851 c -3.2944,-10.734 -7.3692,-12.9577 -7.3692,-4.0216 0,5.1125 7.5249,16.5906 9.5494,14.5661 0.4444,-0.4444 -0.5367,-5.1894 -2.1802,-10.5445 z m 294.7132,-0.01 c 1.5199,-3.1805 3.466,-8.1516 4.3246,-11.0468 l 1.5612,-5.2642 -4.1552,5.2642 c -2.2853,2.8952 -5.8555,8.4896 -7.9338,12.4317 -3.1256,5.929 -3.1549,6.9283 -0.1693,5.7826 1.985,-0.7617 4.8526,-3.9871 6.3726,-7.1675 z m -307.0799,-21.2086 c 0.8489,-26.302 -7.2386,-56.7991 -16.8473,-63.5292 -8.4197,-5.8974 -12.6707,0.092 -14.2715,20.1075 -1.6015,20.0245 3.8038,40.786 14.1505,54.3513 l 7.0537,9.2478 4.8239,-5.9574 c 2.6532,-3.2765 4.944,-9.6755 5.0907,-14.22 z m 340.671,-7.5626 c 9.0739,-16.6719 12.145,-47.3293 5.607,-55.9742 -3.9323,-5.1997 -4.0738,-5.1756 -11.5498,1.9654 -10.5705,10.0968 -16.5398,28.5633 -16.5242,51.1193 0.01,10.3771 0.7566,20.8052 1.6654,23.1736 1.4661,3.8204 2.318,3.681 7.5513,-1.2354 3.2444,-3.048 9.207,-11.6199 13.2503,-19.0487 z m -154.2021,-7.8253 c 8.7334,-17.4771 12.0971,-34.4609 9.5325,-48.1313 -2.0027,-10.6754 -6.2135,-11.6744 -13.9423,-3.3077 -7.4507,8.0656 -11.0204,22.3521 -12.9889,51.9839 l -1.6611,25.0049 5.6505,-5.0115 c 3.1078,-2.7563 9.1419,-11.9985 13.4093,-20.5383 z m -40.6766,-31.1074 c -3.8157,-11.4881 -14.9163,-26.2538 -19.7372,-26.2538 -1.0632,0 -2.7423,8.2129 -3.7315,18.2508 -2.0013,20.3102 1.6938,30.8361 17.9309,51.0781 l 8.1922,10.2128 0.774,-20.318 c 0.5125,-13.4557 -0.6454,-24.5912 -3.4284,-32.9699 z m 77.0734,41.7568 c -6.2939,-3.9944 -9.2268,-2.3349 -7.9235,4.4832 1.2224,6.3941 1.5011,6.4904 6.2775,2.1678 3.8437,-3.4785 4.2239,-5.0149 1.646,-6.651 z m -259.3687,-7.3428 c -4.0957,-12.8075 -8.5094,-15.4401 -8.5094,-5.0755 0,5.257 7.657,17.8668 10.9445,18.0238 0.9526,0.045 -0.1432,-5.7813 -2.4351,-12.9483 z m 426.5906,3.2236 c -3.9936,-1.3494 -13.9645,3.8882 -13.9645,7.3355 0,1.4339 3.8495,0.609 8.5543,-1.833 4.7049,-2.442 7.1395,-4.9181 5.4102,-5.5025 z m -287.7025,4.5432 c 0,-1.4477 -1.2544,-2.6321 -2.7875,-2.6321 -1.5331,0 -2.0554,1.1844 -1.1607,2.6321 0.8947,1.4476 2.1491,2.6321 2.7874,2.6321 0.6384,0 1.1608,-1.1845 1.1608,-2.6321 z m 252.6012,-12.8248 c -0.088,-7.6375 -2.8897,-4.4185 -6.5615,7.5399 -1.8031,5.8724 -1.5607,6.1834 2.3137,2.9679 2.3803,-1.9755 4.2918,-6.704 4.2478,-10.5078 z m -153.828,2.8047 c -0.8104,-0.8104 -2.9342,0 -4.7197,1.7972 -2.5801,2.5995 -2.2778,2.9018 1.4735,1.4734 2.5958,-0.9884 4.0566,-2.4602 3.2462,-3.2706 z m 59.1526,-5.2519 c 0,-5.9773 -10.3698,-18.7281 -18.759,-23.0663 -4.8766,-2.5218 -12.8975,-3.7441 -21.3299,-3.2504 -12.1704,0.7125 -13.7019,1.497 -15.4006,7.889 -2.5922,9.7539 1.4396,14.2345 19.3531,21.5076 13.0239,5.2879 16.6828,5.7686 25.663,3.3717 5.8414,-1.5592 10.4734,-4.4125 10.4734,-6.4516 z m -349.506,4.6314 c 5.3764,-1.4931 10.3937,-3.7155 11.1497,-4.9386 2.541,-4.1115 -17.8396,-31.6082 -26.4601,-35.6989 -8.5482,-4.0564 -26.149,-5.3078 -33.731,-2.3983 -15.413,5.9145 14.0614,45.534 34.002,45.7055 2.8953,0.025 9.663,-1.1765 15.0394,-2.6697 z m 527.5413,-13.4103 c 13.6891,-13.4348 19.3496,-25.2501 13.8697,-28.9507 -6.9702,-4.707 -27.3631,-0.9394 -37.7349,6.9715 -8.8355,6.7392 -27.0262,29.6703 -24.7931,31.254 0.5015,0.3557 5.6495,1.8104 11.4401,3.2328 14.5124,3.5648 24.1375,0.3301 37.2182,-12.5076 z m -335.6615,7.7736 c 8.9377,-5.0233 10.2287,-6.9501 10.2287,-15.2661 0,-12.3872 -3.829,-15.8344 -17.5888,-15.8344 -9.707,0 -12.9225,1.5817 -23.1624,11.3933 -13.6952,13.1222 -14.8482,18.673 -4.6524,22.3968 11.9162,4.3522 24.3353,3.4026 35.1749,-2.6896 z m 18.125,3.1168 c 0,-1.4477 -1.2543,-2.6321 -2.7874,-2.6321 -1.5331,0 -2.0554,1.1844 -1.1607,2.6321 0.8947,1.4476 2.149,2.6321 2.7874,2.6321 0.6384,0 1.1607,-1.1845 1.1607,-2.6321 z m -68.4345,-10.8507 c 0,-3.1732 -7.2078,-2.921 -9.2123,0.3223 -2.8449,4.6032 1.3738,8.4929 5.4985,5.0697 2.0426,-1.6952 3.7138,-4.1216 3.7138,-5.392 z m 224.3965,4.2046 c 0.1504,-1.4114 -1.711,-2.9484 -4.1363,-3.4155 -3.1249,-0.6018 -3.9345,0.3893 -2.7787,3.4014 1.7043,4.4413 6.4423,4.451 6.915,0.014 z m -321.5889,-13.686 c 1.7398,-5.2715 2.5286,-16.4576 1.8004,-25.5298 -1.3886,-17.2992 -10.729,-39.3722 -15.9554,-37.7056 -1.7318,0.5522 -5.0212,6.5676 -7.3097,13.3676 -4.9747,14.7818 -3.1152,33.4483 5.2526,52.7282 4.5927,10.5817 6.2089,12.2542 9.335,9.6598 2.0793,-1.7257 5.174,-7.3598 6.8771,-12.5202 z m 425.0086,-12.2322 c 5.4971,-15.2126 6.964,-52.1747 2.2584,-56.9033 -2.0972,-2.1074 -5.6125,1.0597 -12.8666,11.5924 l -9.9811,14.492 1.294,24.7376 c 0.7116,13.6057 2.2294,26.2514 3.3729,28.1015 2.8781,4.6569 9.6836,-4.755 15.9224,-22.0202 z m -77.1401,9.3014 c 1.1076,-1.1076 -1.3451,-7.3104 -5.4505,-13.784 -9.5666,-15.0848 -24.1857,-22.244 -40.4122,-19.7904 -20.9163,3.1627 -21.124,5.1564 -2.395,22.9913 l 16.8556,16.0509 14.6941,-1.727 c 8.0818,-0.9499 15.6004,-2.6332 16.708,-3.7408 z m -236.698,-13.6614 c 15.8457,-16.182 14.5741,-18.5163 -11.0868,-20.3524 -24.7598,-1.7715 -33.6044,1.9941 -40.3147,17.164 -2.8215,6.3784 -4.7349,11.9287 -4.252,12.3341 4.4138,3.7049 19.0623,6.3859 29.6112,5.4195 11.4038,-1.0448 14.4968,-2.7746 26.0423,-14.5652 z m 100.6533,-8.2071 c 5.4234,-20.3759 4.7722,-41.385 -1.8165,-58.6022 -3.0962,-8.0909 -6.6192,-14.7108 -7.8287,-14.7108 -4.7528,0 -11.0884,17.9558 -12.2973,34.8521 -1.0126,14.1524 -0.053,21.1461 4.6955,34.2382 5.3317,14.6986 9.9961,21.8139 12.5958,19.2141 0.4954,-0.4953 2.5884,-7.2415 4.6512,-14.9914 z m -155.7031,0.1903 4.9899,-8.4964 -11.4714,1.8343 c -6.3092,1.0089 -11.8489,2.2119 -12.3103,2.6734 -0.4615,0.4614 1.2462,4.4724 3.7949,8.9132 5.1231,8.9266 7.2776,8.2191 14.9969,-4.9245 z m 310.3316,4.1436 4.393,-9.2124 h -10.4858 c -11.8894,0 -11.9394,0.082 -6.47,10.6591 5.1793,10.0157 7.2081,9.7821 12.5628,-1.4467 z m -404.7394,-53.2477 c -1.6968,-6.8008 -15.6004,-23.3634 -22.8854,-27.2623 -10.4873,-5.6126 -16.8226,27.4378 -8.8959,46.4091 2.104,5.0356 10.099,15.7942 17.7667,23.9079 l 13.9411,14.7521 0.7695,-25.9664 c 0.4232,-14.2816 0.11,-28.6097 -0.696,-31.8404 z m 177.3737,50.2493 c 0.6032,-0.5202 0.4118,-1.6307 -0.4253,-2.4678 -0.8371,-0.8371 -4.884,0.3511 -8.993,2.6405 l -7.471,4.1625 7.8963,-1.6947 c 4.343,-0.9321 8.3898,-2.1203 8.993,-2.6405 z m 138.4044,1.6863 c -0.8946,-1.4476 -3.4034,-2.6321 -5.5748,-2.6321 -2.1715,0 -3.2161,1.1845 -2.3215,2.6321 0.8947,1.4477 3.4035,2.6321 5.5749,2.6321 2.1715,0 3.2161,-1.1844 2.3214,-2.6321 z m 195.5656,-27.637 c 5.3976,-10.2939 6.923,-17.0017 7.0033,-30.7955 0.056,-9.6993 -1.1613,-18.899 -2.706,-20.4437 -4.3199,-4.3198 -21.0839,9.7333 -27.8262,23.3264 -6.5394,13.184 -10.409,50.2856 -5.2447,50.2856 1.6381,0 2.9783,2.0091 2.9783,4.4645 0,7.0363 17.6773,-11.355 25.7953,-26.8373 z m -196.8816,9.2786 c 9.4098,-4.8546 24.0834,-13.5255 32.608,-19.2687 16.3402,-11.0087 75.4365,-67.3327 65.667,-62.5865 -3.131,1.5212 -6.0921,3.6676 -6.5802,4.77 -1.38,3.1167 -33.5997,30.3657 -48.4585,40.9825 -17.1228,12.2346 -47.1034,27.0498 -62.6719,30.97 -13.1423,3.3093 -13.4874,3.8371 -9.4506,14.4548 2.4235,6.3741 3.1626,6.7112 7.2383,3.3016 2.4966,-2.0885 12.2381,-7.7692 21.6479,-12.6237 z m -262.9369,1.7858 c -2.1184,-2.1184 -2.8832,-0.8027 -2.8248,4.8598 0.07,6.8069 0.4285,7.1652 2.9048,2.9049 2.0245,-3.483 2.0018,-5.6829 -0.08,-7.7647 z m 145.7574,2.9117 c -0.847,-2.2071 -6.5119,-5.4858 -12.5888,-7.286 -6.0769,-1.8002 -22.8747,-9.3282 -37.3284,-16.7288 -21.2478,-10.8794 -30.6393,-17.7581 -49.0491,-35.9258 -12.5233,-12.3585 -24.0014,-24.829 -25.507,-27.7123 -1.5055,-2.8832 -3.4132,-4.5664 -4.2392,-3.7404 -3.1761,3.1762 29.7403,43.6983 44.7058,55.0356 17.7228,13.4262 80.3519,45.126 83.4862,42.2567 1.1332,-1.0374 1.3674,-3.692 0.5205,-5.899 z m 68.4857,-2.1316 c 0.8947,-1.4477 0.3724,-2.6321 -1.1607,-2.6321 -1.5331,0 -2.7874,1.1844 -2.7874,2.6321 0,1.4476 0.5223,2.632 1.1607,2.632 0.6384,0 1.8927,-1.1844 2.7874,-2.632 z m -159.3159,-10.0754 c 5.1075,-3.7512 9.7727,-7.1571 10.367,-7.5687 1.9605,-1.3578 -8.8308,-11.7788 -16.0782,-15.5266 -8.5714,-4.4324 -26.6025,-4.8025 -34.5273,-0.7088 -5.9011,3.0485 -17.3298,15.258 -17.4989,18.6945 -0.052,1.0579 5.214,4.6215 11.7023,7.919 15.4495,7.8516 32.9756,6.782 46.0351,-2.8094 z m 323.1006,3.3475 c 7.2304,-4.7375 4.8003,-10.1161 -8.7719,-19.416 -10.845,-7.431 -28.9445,-8.0035 -45.2508,-1.4313 -14.7674,5.9521 -13.65,10.7671 4.7448,20.4463 12.6708,6.6672 16.2559,7.4068 28.8902,5.9601 7.9333,-0.9084 17.1078,-3.41 20.3877,-5.5591 z m -66.3971,-1.1684 c -0.8947,-1.4477 -5.0403,-2.6321 -9.2124,-2.6321 -4.172,0 -8.3176,1.1844 -9.2123,2.6321 -0.9839,1.5919 2.6565,2.6321 9.2123,2.6321 6.5558,0 10.1963,-1.0402 9.2124,-2.6321 z m -152.2547,-17.1171 c -1.9926,-14.5381 -10.4709,-31.7547 -17.4865,-35.5093 -2.8699,-1.5359 -10.5649,-3.7915 -17.1001,-5.0124 -11.4074,-2.1312 -11.882,-1.9672 -11.882,4.1051 0,20.4547 24.0667,48.2318 41.8133,48.2596 5.9303,0.01 6.1895,-0.6501 4.6553,-11.843 z m 88.0636,-0.3492 c 9.572,-9.277 15.4973,-23.1625 15.4973,-36.3164 0,-6.1482 -0.8014,-6.8686 -5.9222,-5.3241 -12.7359,3.8412 -22.9024,9.8249 -26.8001,15.7735 -5.6864,8.6785 -10.6202,28.438 -8.4881,33.9942 2.6006,6.777 14.0783,3.1491 25.7131,-8.1272 z m -127.0938,2.0985 c -4.5818,-5.5913 -6.36,-6.463 -7.0666,-3.464 -0.5193,2.204 1.1876,5.5661 3.7932,7.4714 8.038,5.8775 9.7031,3.8391 3.2734,-4.0074 z m -125.8828,-4.373 6.1819,-6.5802 h -9.6148 c -9.3005,0 -9.5167,0.2151 -6.6165,6.5802 1.649,3.6192 3.1938,6.5803 3.4329,6.5803 0.2391,0 3.2165,-2.9611 6.6165,-6.5803 z m 271.0657,-1.974 c -0.033,-4.789 -0.5286,-5.1667 -2.5918,-1.9741 -3.2978,5.103 -3.2978,7.8963 0,7.8963 1.4477,0 2.614,-2.665 2.5918,-5.9222 z m 129.013,1.974 c 2.7773,-3.3463 2.1755,-3.9481 -3.9481,-3.9481 -6.1236,0 -6.7254,0.6018 -3.9482,3.9481 1.8022,2.1715 3.5789,3.9482 3.9482,3.9482 0.3693,0 2.146,-1.7767 3.9481,-3.9482 z m -429.0317,-10.3983 c 0,-1.5465 -2.5372,-4.3964 -5.6381,-6.3329 -5.2525,-3.2803 -5.525,-3.0986 -3.9841,2.6569 0.9097,3.3979 1.7078,8.5469 1.7736,11.4423 0.1181,5.1943 0.171,5.1963 3.9841,0.1549 2.1255,-2.8101 3.8645,-6.3746 3.8645,-7.9211 z m 136.869,-6.292 c 0,-25.8563 -12.3634,-55.9492 -24.6119,-59.9059 -7.7463,-2.5023 -10.0659,2.3769 -10.3122,21.6921 -0.2644,20.722 3.5622,30.0144 18.2234,44.2531 13.8325,13.434 16.7007,12.3968 16.7007,-6.0393 z m 326.1176,0.3223 c 0.1481,-1.8088 -1.4592,-2.5468 -3.6858,-1.6924 -4.0936,1.5709 -5.4251,11.7579 -1.9863,15.1968 1.8073,1.8073 5.0514,-5.9164 5.6721,-13.5044 z m -136.9724,0.3663 c 12.9555,-14.7182 19.3533,-32.7711 18.277,-51.5731 l -0.8026,-14.0201 -13.2102,13.1786 c -8.2543,8.2346 -14.4258,17.2361 -16.4506,23.9942 -3.7756,12.6019 -4.3486,40.474 -0.832,40.474 1.3246,0 7.1829,-5.4241 13.0184,-12.0536 z m -72.0361,1.6126 c 0.9433,-4.2948 4.5907,-12.0463 8.1054,-17.2255 7.2148,-10.6316 7.566,-11.815 3.5065,-11.815 -1.5861,0 -6.2407,-2.3903 -10.3436,-5.3118 -4.1029,-2.9215 -7.8698,-4.4021 -8.371,-3.2901 -0.5011,1.1119 -0.4941,11.7934 0.016,23.7365 0.9422,22.0738 3.9827,28.0399 7.0871,13.9059 z m 129.7336,-0.088 c 3.0962,0 3.4691,-0.7902 1.3658,-2.8935 -3.3143,-3.3143 -13.9519,-0.7582 -13.9519,3.3525 0,1.505 1.8735,2.0174 4.1634,1.1387 2.2899,-0.8787 6.0801,-1.5977 8.4227,-1.5977 z m 60.0061,-4.227 c 18.3667,-7.625 18.1587,-16.8721 -0.566,-25.1549 -14.5346,-6.4293 -26.5998,-5.5416 -44.209,3.2529 -17.2294,8.6048 -15.9218,13.5402 5.742,21.672 18.0124,6.7611 23.2272,6.7919 39.033,0.23 z m -241.0464,-16.8297 c 0,-11.5812 -0.3695,-21.0567 -0.821,-21.0567 -0.4516,0 -3.4571,3.5654 -6.679,7.9232 -5.8024,7.8481 -5.8137,8.0475 -1.1932,21.0567 2.5656,7.2235 5.571,13.1336 6.6789,13.1336 1.1079,0 2.0143,-9.4755 2.0143,-21.0568 z m -153.037,12.0386 c 10.6245,-5.4941 10.0129,-10.3131 -2.604,-20.5172 -13.7714,-11.1379 -26.9299,-12.2177 -43.9267,-3.6048 -16.5374,8.3802 -17.3923,13.7663 -3.7618,23.7008 8.7856,6.4032 11.6191,7.066 25.7819,6.0309 8.7514,-0.6396 19.7811,-3.164 24.5106,-5.6097 z m 47.0453,-8.1553 c -1.8935,-6.1695 -3.7268,-8.3977 -5.4729,-6.6516 -1.746,1.746 -1.6103,4.8537 0.4051,9.2772 4.5885,10.0707 8.364,8.1146 5.0678,-2.6256 z m 255.3763,-4.086 0.671,-9.0096 -3.9611,8.8565 c -4.8067,10.7468 -4.8639,11.6192 -0.6711,10.2428 1.8095,-0.594 3.5921,-5.1344 3.9612,-10.0897 z m -107.271,-48.524 c 3.6191,-3.8562 13.61,-11.3485 22.2019,-16.6496 11.2298,-6.9286 19.9271,-15.4405 30.9351,-30.2757 8.4223,-11.3506 14.6164,-21.7649 13.7647,-23.143 -0.8517,-1.3781 -5.0309,2.7516 -9.287,9.1772 -15.2485,23.0211 -51.1899,48.6077 -64.5912,45.9825 -7.6496,-1.4985 -11.9518,-19.6736 -10.0144,-42.3066 1.6038,-18.7354 1.3483,-20.3992 -3.1339,-20.4048 -4.4308,-0.01 -4.8027,2.022 -4.0388,22.0185 1.1279,29.5261 -3.3894,41.1579 -15.9843,41.1579 -15.3535,0 -37.6805,-17.4006 -56.6946,-44.185 -4.4057,-6.2061 -8.6938,-10.178 -9.5291,-8.8264 -1.8705,3.0265 19.3387,32.3249 33.2089,45.8747 5.6142,5.4846 16.6737,14.1082 24.5766,19.1636 13.4466,8.6017 14.3997,9.9044 14.8502,20.2972 0.2647,6.108 0.2693,14.2957 0.01,18.1947 -0.5993,9.016 3.6377,11.7939 7.3652,4.829 4.136,-7.7282 7.4175,-6.6105 12.5845,4.2862 l 4.5636,9.6241 1.3161,-23.9016 c 1.1494,-20.8748 2.1493,-24.7896 7.8963,-30.9129 z m -153.745,4.57 c -1.7244,-20.8912 -10.0923,-40.8386 -16.6055,-39.5842 -7.7776,1.4978 -12.4205,14.9661 -11.9149,34.5626 0.3842,14.8916 1.9071,20.4643 8.9614,32.794 l 8.4985,14.8538 6.212,-13.0532 c 5.1669,-10.8571 5.9826,-15.8327 4.8485,-29.573 z m 284.5781,23.758 c 7.1133,-15.7511 9.4396,-41.0944 5.2115,-56.7771 -2.6177,-9.7096 -6.7335,-7.9837 -15.7829,6.6187 -5.9083,9.5336 -7.4696,15.3122 -7.7661,28.7424 -0.3802,17.2297 4.3401,36.5505 8.9298,36.5505 1.415,0 5.6485,-6.8105 9.4077,-15.1345 z m -192.6297,6.0677 c 11.3371,-4.7369 19.7996,-19.9831 14.5816,-26.2704 -4.8006,-5.7843 -19.6942,-7.8995 -28.3431,-4.0254 -4.0441,1.8115 -11.3096,8.1135 -16.1454,14.0044 l -8.7925,10.7108 5.794,4.6916 c 7.0076,5.6745 20.5749,6.041 32.9054,0.889 z m 117.0706,-3.0378 c 0,-7.3083 -8.4372,-22.3457 -14.9215,-26.5944 -7.5988,-4.9789 -28.3668,-3.3678 -34.4035,2.6689 -5.7623,5.7623 -2.6369,11.2193 11.5951,20.2449 14.5036,9.198 37.7299,11.4637 37.7299,3.6806 z m -155.387,-20.138 c 0.1378,-2.9156 -9.8609,-2.4005 -11.7175,0.6036 -0.8762,1.4177 -0.2059,5.1698 1.4897,8.338 l 3.0828,5.7603 3.5259,-6.3639 c 1.9392,-3.5002 3.5678,-7.2523 3.6191,-8.338 z m 173.0209,2.2338 c -0.5054,-1.5161 -4.5795,-3.5052 -9.0535,-4.4203 l -8.1347,-1.6637 4.2017,8.8111 c 3.9791,8.3442 4.4589,8.5784 9.0536,4.4203 2.6684,-2.415 4.4383,-5.6313 3.9329,-7.1474 z m 97.2257,0.3982 c 13.6871,-10.2641 21.8441,-25.6395 23.8346,-44.9265 1.7196,-16.6611 -0.8703,-19.5758 -12.192,-13.7211 -17.9593,9.2871 -29.1146,30.6805 -29.1146,55.8353 0,13.7434 2.384,14.1272 17.472,2.8123 z M 1386.4027,3354.7 c -0.9115,-23.0596 -5.6072,-36.0366 -16.1988,-44.7671 -12.1636,-10.0263 -17.5126,-9.8972 -21.1407,0.5102 -7.0511,20.227 0.3192,38.3143 22.1154,54.2727 12.4224,9.0952 15.8894,6.8143 15.2241,-10.0158 z m 88.0291,-5.2608 c 6.9877,-1.4986 16.2191,-5.5268 20.5142,-8.9516 l 7.8092,-6.2269 -5.2439,-5.7944 c -16.702,-18.4556 -50.1129,-17.5995 -58.8184,1.5071 -2.8526,6.2608 -1.3386,8.3483 12.7646,17.5984 8.0267,5.2646 7.3788,5.212 22.9743,1.8674 z m 200.2894,-5.1377 c 11.7661,-8.5233 12.1226,-12.7562 1.6522,-19.6167 -13.8087,-9.0478 -49.8814,-1.6087 -49.8814,10.2867 0,6.548 17.9588,17.0894 29.2161,17.1491 4.9344,0.026 12.4495,-3.0644 19.0131,-7.8191 z m -164.0415,-0.034 c 0.8947,-1.4476 -0.2198,-2.6321 -2.4767,-2.6321 -2.257,0 -4.1035,1.1845 -4.1035,2.6321 0,1.4477 1.1145,2.6321 2.4767,2.6321 1.3622,0 3.2088,-1.1844 4.1035,-2.6321 z m 111.1513,-1.5902 c -0.8747,-0.8746 -3.1449,-0.9681 -5.0449,-0.2078 -2.0997,0.8402 -1.476,1.4639 1.5902,1.5902 2.7747,0.1143 4.3293,-0.5078 3.4547,-1.3824 z m -73.0785,-19.2935 c 3.5434,-6.621 3.4676,-30.2929 -0.1386,-43.2808 -3.0341,-10.9276 -12.9257,-22.6947 -19.0774,-22.6947 -4.0334,0 -9.6854,18.145 -9.5866,30.7767 0.1078,13.768 15.6025,40.2899 23.5384,40.2899 1.3968,0 3.7657,-2.291 5.2642,-5.0911 z m 148.5244,0.9277 c 2.0724,-5.4003 2.0144,-6.3734 -0.3764,-6.3246 -4.4543,0.091 -9.1069,4.8323 -7.4201,7.5617 2.5687,4.1562 5.9317,3.6225 7.7965,-1.2371 z m -264.244,-2.4168 c 0,-2.1715 -1.7767,-3.9481 -3.9482,-3.9481 -4.1102,0 -5.222,3.1129 -2.1934,6.1415 3.0286,3.0286 6.1416,1.9168 6.1416,-2.1934 z m 162.5319,-10.1933 c 7.7343,-11.5499 8.5543,-14.6463 8.5543,-32.3003 0,-15.4571 -0.8761,-19.8621 -4.2043,-21.1392 -9.8817,-3.792 -24.7487,26.546 -24.7487,50.5025 0,21.8887 7.03,22.9009 20.3987,2.937 z m 17.1086,-0.051 c 4.8785,-3.7033 6.0348,-13.6952 2.2719,-19.6331 -1.593,-2.5139 -3.51,0.1309 -6.5399,9.0232 -2.3575,6.9188 -4.2863,12.9608 -4.2863,13.4267 0,1.8698 4.2043,0.4854 8.5543,-2.8168 z m -150.5348,-12.2371 c 4.259,-3.0327 7.7436,-5.9794 7.7436,-6.5482 0,-2.8662 -13.0796,-12.9747 -22.3728,-17.2908 -15.0381,-6.9842 -23.4966,-6.2909 -33.5177,2.7474 -8.2619,7.4515 -8.4425,8.0315 -4.6477,14.9299 2.1715,3.9475 9.1029,9.8997 15.4031,13.2272 10.6238,5.6109 12.115,5.7741 20.5514,2.2492 5.0031,-2.0904 12.5811,-6.282 16.8401,-9.3147 z m 53.3939,5.916 c -1.6361,-6.2564 -6.1689,-8.0093 -6.1689,-2.3856 0,3.3298 5.4994,10.381 6.9585,8.922 0.4009,-0.401 0.046,-3.3424 -0.7896,-6.5364 z m 137.2804,4.7211 c -0.8947,-1.4477 -3.2636,-2.6321 -5.2642,-2.6321 -2.0006,0 -4.3695,1.1844 -5.2642,2.6321 -0.9262,1.4987 1.3405,2.6321 5.2642,2.6321 3.9237,0 6.1905,-1.1334 5.2642,-2.6321 z m 45.1944,-6.3879 c 15.7551,-7.3356 22.0637,-15.683 14.7193,-19.4761 -11.0868,-5.7259 -25.3706,-8.7533 -33.8205,-7.1681 -8.9096,1.6714 -27.4092,15.3545 -27.4092,20.273 0,3.1592 20.656,12.633 27.637,12.6756 2.8953,0.018 11.3883,-2.8193 18.8734,-6.3044 z m -220.9417,2.1656 c -0.8746,-0.8746 -3.1448,-0.9682 -5.0448,-0.2078 -2.0997,0.8402 -1.476,1.4639 1.5902,1.5902 2.7747,0.1143 4.3293,-0.5078 3.4546,-1.3824 z m 32.9589,-28.8666 c 5.3699,-21.2475 3.2136,-40.2998 -6.304,-55.6994 l -5.7148,-9.2469 -3.3086,6.3145 c -1.8196,3.473 -5.2632,13.8582 -7.6524,23.0783 -3.5907,13.8569 -3.8136,18.9745 -1.2857,29.5121 3.3223,13.8489 11.8619,26.7944 16.6544,25.2474 1.6512,-0.533 5.0762,-9.1757 7.6111,-19.206 z m 125.9813,8.8366 c 1.4554,-2.7194 3.6995,-11.4158 4.9868,-19.3252 2.6797,-16.465 -1.1591,-33.2537 -10.2445,-44.804 l -5.5539,-7.0606 -4.54,10.2136 c -6.4342,14.475 -6.3743,51.7757 0.1022,63.7 3.9623,7.295 5.397,8.2014 8.6753,5.4806 2.1604,-1.7929 5.1188,-5.4849 6.5742,-8.2044 z m -162.168,-40.9938 c -1.4032,-11.3056 -3.6316,-15.9215 -11.8647,-24.5763 -12.7984,-13.4539 -18.7773,-12.8462 -21.7551,2.2115 -4.1167,20.8167 6.4126,42.5614 24.986,51.6001 l 8.6263,4.198 0.8676,-9.7566 c 0.4771,-5.3661 0.09,-16.0206 -0.8601,-23.6767 z m 189.5414,24.9329 c 12.8467,-8.7296 19.4818,-18.1908 21.9238,-31.2619 2.6824,-14.3584 0.8527,-31.0767 -3.4011,-31.0767 -5.1614,0 -21.8196,13.8555 -25.316,21.0568 -3.4967,7.2018 -6.8645,47.3777 -3.9715,47.3777 0.9866,0 5.8308,-2.7432 10.7648,-6.0959 z m -95.9808,-7.8063 c 11.4021,-8.9679 13.8366,-63.573 3.4542,-77.479 -7.4589,-9.9904 -11.8678,-9.2044 -17.9833,3.206 -6.1875,12.5562 -6.9606,42.3843 -1.6543,63.8283 3.5563,14.3719 7.7494,17.0781 16.1834,10.4447 z" id="path2"/></g></svg>