<svg version="1.1" id="svg1" width="5078.9116" height="5263.5273" viewBox="229.93371925744293 2167.6505265530704 723.926865079918 796.5294084536577" sodipodi:docname="trees3.svg" inkscape:version="1.4.2 (f4327f4, 2025-05-13)" xmlns:inkscape="http://www.inkscape.org/namespaces/inkscape" xmlns:sodipodi="http://sodipodi.sourceforge.net/DTD/sodipodi-0.dtd" xmlns="http://www.w3.org/2000/svg" xmlns:svg="http://www.w3.org/2000/svg"><defs id="defs1"/><g><path d="m 573.61628,2168.682 c -0.7001,0.065 -1.3861,0.2343 -2.0204,0.4667 -2.5404,0.9308 -5.4124,2.7584 -7.5366,4.8735 -2.1242,2.1151 -2.9729,4.5172 -3.3477,6.4244 -0.3226,1.6415 -0.4458,3.0526 -0.5868,4.1106 -1.7779,-0.1786 -6.0664,-1.2043 -8.9226,-1.9645 -1.4568,-0.3878 -2.6198,-0.727 -3.8507,-0.897 -1.2309,-0.1701 -2.6927,-0.1068 -3.9849,0.5393 -2.5844,1.2922 -3.5491,3.3284 -4.7365,4.5884 -1.1874,1.2601 -2.7838,2.3599 -3.4763,2.6659 -0.3462,0.153 -0.1974,0.081 -0.123,0.092 0.074,0.01 -0.1457,-0.026 -0.7294,-0.3912 -1.1672,-0.7296 -3.4437,-2.5873 -6.1784,-3.7697 -2.7349,-1.1824 -5.2027,-1.38 -7.967,-2.0231 -2.7643,-0.6432 -6.8982,-2.0789 -11.4935,-0.9418 -4.5951,1.1372 -8.2869,4.2667 -10.9933,5.5078 -2.7064,1.2412 -5.165,1.2673 -7.9362,1.8667 -2.771,0.5994 -5.015,1.8298 -7.0418,3.4008 -2.027,1.5711 -3.9783,3.5047 -6.0193,5.5162 -2.0408,2.0116 -4.2227,4.1188 -5.6195,5.1082 -1.3969,0.9895 -1.9929,1.1063 -3.6998,1.3637 -0.8536,0.1287 -1.9968,0.2516 -3.2221,0.5729 -1.2252,0.3213 -2.6714,0.8283 -3.8143,2.2076 -1.1429,1.3792 -1.3868,2.9895 -1.4196,4.4292 -0.033,1.4396 0.1502,2.8751 0.3465,4.4124 0.1963,1.5372 0.4165,3.1739 0.4779,4.485 0.049,1.0376 -0.074,1.435 -0.067,1.59 -0.5723,-0.014 -1.5297,-0.1576 -2.7218,-0.2515 -2.5406,-0.2001 -5.4031,0.1002 -7.5365,2.1601 -2.1335,2.0599 -2.6144,4.1361 -3.4735,5.0552 -0.8592,0.919 -2.716,1.8063 -4.295,2.1153 -1.5791,0.3091 -3.179,0.1545 -5.6643,0.218 -2.4854,0.063 -5.788,0.1346 -8.4755,2.4451 -2.6876,2.3105 -3.0583,5.7389 -3.1968,9.5849 -0.1388,3.846 -0.027,8.8155 -0.38,10.7697 -0.1763,0.9771 -0.3742,1.3188 -0.6708,1.8416 -0.2966,0.5227 -1.0175,1.5609 -0.9892,3.0906 0.029,1.5297 0.5185,2.3646 0.8523,3.2024 0.3338,0.8377 0.5952,1.5812 0.6594,2.0287 0.1288,0.8951 0.1478,1.1612 -0.8271,1.6292 -0.9749,0.4679 -4.5934,0.7868 -8.5453,2.23 -3.952,1.4431 -7.5649,3.9389 -10.6132,5.6363 -3.0484,1.6974 -5.7224,2.7748 -7.953,3.3086 -2.2305,0.5338 -4.3138,0.4681 -6.6256,1.2826 -2.3117,0.8146 -2.2502,1.4667 -4.5213,1.6208 -2.2712,0.1541 -7.307,-0.4679 -10.9346,-0.3409 -1.8138,0.063 -3.3799,0.3432 -4.7646,1.0954 -1.3847,0.7523 -2.3774,1.9572 -3.0347,3.1326 -1.3145,2.3507 -2.0247,5.2617 -2.7888,9.135 -0.7642,3.8732 -1.5269,8.7258 -1.9337,11.485 -0.2029,1.3796 -0.3997,2.4578 -0.1957,3.7949 0.2041,1.337 0.8456,2.4828 1.632,3.6216 1.573,2.2775 4.3976,5.6898 5.9438,7.9082 0.4773,0.6848 0.6126,1.0017 0.8494,1.4335 -0.1963,0.042 -0.2269,0.06 -0.4583,0.1062 -0.8806,0.1754 -2.189,0.4011 -3.5853,1.115 -1.3961,0.7138 -2.8703,2.0692 -3.6187,3.996 -1.4968,3.8536 -0.7895,8.3918 -0.076,11.7758 0.3571,1.692 0.7964,2.9938 1.1123,3.8953 0.1187,0.339 0.084,0.1668 0.1431,0.38 -0.3404,0.2676 -0.6054,0.4523 -1.1737,0.9892 -1.7478,1.6513 -3.7002,3.9643 -5.2982,5.0049 -1.5981,1.0406 -4.1649,1.4969 -7.3718,3.8173 -3.2068,2.3203 -6.2273,5.9244 -8.5062,7.992 -2.2789,2.0675 -4.1292,2.9108 -5.9522,4.7337 -1.8227,1.8229 -2.589,3.8263 -3.1492,4.7897 -0.5601,0.9634 -0.8885,1.3572 -2.3809,2.3585 -1.4924,1.0012 -4.6918,2.5074 -6.4271,5.8907 -1.7355,3.3831 -1.1809,7.2116 -0.014,10.859 1.1697,3.6476 3.1637,7.4146 6.0415,10.5966 2.8778,3.1819 6.3826,5.5254 8.0618,6.8714 0.8398,0.673 1.1445,1.0746 1.1402,1.0675 0,0 0,-0.3113 -0.067,0.1087 -0.1274,0.8406 -1.0595,3.1565 -1.6068,3.9261 -0.2737,0.3849 -0.084,0.2242 -0.3576,0.3242 -0.2738,0.1002 -1.1597,0.271 -2.7638,0.3968 -3.2083,0.2517 -8.9176,0.4425 -15.1736,0.1844 -6.2562,-0.2579 -13.1993,-0.9733 -18.0185,-1.1484 -2.4095,-0.087 -4.3842,-0.1145 -6.3378,0.5588 -1.9534,0.6729 -3.6555,2.461 -4.3257,4.513 -1.3403,4.104 -0.7391,9.7374 1.7633,15.0509 2.5023,5.3134 6.7325,9.4748 8.224,11.9042 1.4914,2.4294 1.174,3.5716 1.2883,6.2651 0.1144,2.6935 1.1294,6.927 5.3764,9.3195 4.2471,2.3923 10.4336,3.3308 16.5654,4.703 6.1316,1.3722 12.1699,2.9928 17.5628,5.2059 5.393,2.2132 10.3835,5.2081 12.3933,6.9945 0.053,0.047 0,0.014 0.056,0.059 -0.9776,0.1658 -2.0481,0.3605 -3.683,0.5365 -1.145,0.1231 -2.3482,0.2544 -3.6411,0.911 -1.2931,0.6565 -2.4804,2.0595 -2.9371,3.616 -0.4566,1.5564 -0.4473,2.8338 -0.6371,3.8227 -0.1897,0.9891 -0.4222,1.3493 -0.6007,1.4755 -0.1786,0.1259 -1.4763,0.5264 -3.0627,0.6175 -1.5865,0.092 -3.3887,0.019 -4.977,0.073 -1.5881,0.054 -2.8346,0.235 -3.9652,0.6819 -1.1307,0.447 -2.069,1.257 -2.6156,1.9506 -0.5466,0.6936 -1.2974,2.386 -1.0814,3.9876 0.216,1.6016 0.9296,3.1431 2.2634,5.3374 2.6679,4.3885 8.0011,11.3249 10.9291,15.685 0.4884,0.7274 0.5601,0.9916 0.9165,1.5845 -2.7811,-1.3556 -6.4126,-2.9779 -12.0635,-4.4041 -8.0282,-2.0261 -18.6502,-3.4694 -24.602,-2.7188 -1.488,0.1875 -2.7233,0.5314 -3.7949,1.1708 -1.0715,0.6394 -1.9213,1.6685 -2.3109,2.6882 -0.5482,1.4342 -0.4732,2.4261 -0.38,3.0851 -0.2265,0.02 -0.1217,0.046 -0.7965,-0.05 -2.4579,-0.3502 -7.3778,-1.9259 -11.5381,-3.9682 -4.1605,-2.0422 -7.9919,-4.7154 -12.3152,-6.9274 -2.1616,-1.1059 -4.4538,-2.1079 -6.8574,-2.6043 -2.4037,-0.4965 -5.0649,-0.4647 -7.4332,0.869 -4.7368,2.6678 -6.5999,8.3151 -7.0393,12.9019 -0.4393,4.5869 0.829,7.781 0.7658,8.5091 -0.063,0.7281 -1.0684,1.9905 -2.3977,3.669 -0.6645,0.8395 -1.4288,1.8656 -1.713,3.359 -0.284,1.4934 0.154,3.1803 1.0256,4.5605 1.7435,2.7605 4.655,5.1643 6.2008,7.4918 1.5458,2.3277 2.1547,4.8063 2.7219,8.3861 0.567,3.5798 0.9594,8.301 3.3421,12.4101 2.3827,4.1091 6.5845,6.8338 11.879,8.2463 5.2946,1.4124 11.5056,1.639 17.2724,2.487 5.7668,0.8482 11.4335,2.324 14.5506,3.4036 1.5585,0.54 2.4032,0.9794 2.733,1.2212 0.3298,0.2419 0.2691,0.1719 0.4192,0.5617 0.3,0.7795 0.5012,2.6795 0.3856,3.8144 -0.054,0.5312 -0.1433,0.5392 -0.246,0.8243 -0.074,-0.031 -0.014,0 -0.089,-0.039 -1.8826,-0.8683 -5.9427,-3.2215 -10.6216,-4.5549 -4.6788,-1.3333 -9.5595,-1.5524 -13.0751,-1.2938 -3.5157,0.2586 -5.6207,1.0589 -6.9693,1.3665 -1.3487,0.3074 -2.5857,0.3721 -4.4263,0.1704 -1.8408,-0.2016 -4.5783,-0.7854 -7.8412,-0.651 -3.263,0.1345 -6.5715,0.954 -8.157,1.3329 -1.4605,0.3491 -2.3417,1.4546 -2.7777,2.2663 -0.4359,0.8115 -0.6276,1.5319 -0.8019,2.1852 -0.3485,1.3067 -0.9102,2.4648 -0.5282,2.0009 -0.1508,0.1832 -2.0689,1.0986 -4.9517,2.5513 -2.8828,1.4525 -6.2093,3.5637 -9.0316,6.0247 -2.8223,2.461 -4.8953,5.0216 -6.008,6.8072 -0.5564,0.8928 -1.1164,1.9628 -1.0059,3.3226 0.1101,1.3598 0.7168,2.1069 1.1009,2.6938 0.7682,1.1737 2.7897,3.9207 6.9442,5.4603 4.1544,1.5397 9.8386,2.2439 12.9074,3.5154 3.0687,1.2716 4.2472,2.9692 7.4053,7.4277 3.1579,4.4583 7.9421,11.5979 15.6794,14.5086 3.8687,1.4554 7.9717,1.6515 11.5298,1.7046 3.5583,0.053 6.7371,0.063 7.8301,0.3633 1.0929,0.3007 0.9417,0.3488 1.2715,1.2882 0.3296,0.9393 0.4528,2.6968 1.6738,4.6471 2.442,3.9005 6.8392,4.6426 9.7414,5.8264 0.9025,0.3681 1.5033,0.7328 2.2019,1.1038 -0.1216,0.034 -0.1651,0.067 -0.2906,0.1002 -2.1299,0.5704 -4.6571,0.9889 -7.3326,1.8052 -2.6753,0.8162 -5.366,2.016 -7.8858,3.7891 -2.5198,1.7733 -4.6502,3.9216 -6.4132,5.452 -1.763,1.5305 -3.4768,2.6813 -4.9238,4.323 -0.7235,0.8209 -1.6304,2.0029 -1.6376,3.7641 -0.014,1.7611 1.0872,3.3151 2.4452,4.3872 1.358,1.0722 2.9025,1.8615 4.2335,2.7582 1.3312,0.8966 2.264,1.8763 2.4396,2.2857 0.1755,0.4097 0.1765,1.3312 -0.1788,2.571 -0.3554,1.2397 -0.9747,2.548 -1.3889,3.9905 -0.4142,1.4423 -0.4388,3.0977 0.2935,4.3928 0.7322,1.2949 1.6915,1.8021 2.2746,2.1907 1.166,0.7774 3.0322,2.0356 5.7426,2.923 1.0391,0.3403 1.912,0.5739 2.7105,0.816 -0.8509,0.9121 -2.0676,2.0332 -3.1772,3.2107 -2.2447,2.3821 -3.9362,4.9405 -3.9038,8.0089 0.033,3.0684 1.7732,5.7606 4.3118,8.1095 2.5386,2.3487 5.9113,4.5283 9.1516,5.5999 3.2405,1.0717 6.1953,0.608 9.1072,-0.3184 2.9118,-0.9266 6.2307,-2.2416 9.2326,-2.6883 3.002,-0.4468 6.3675,-0.094 9.9342,-0.3717 3.5666,-0.2778 6.659,-1.2221 9.0567,-1.8415 2.3976,-0.6194 3.7697,-0.6704 4.2336,-0.4444 0.4639,0.2262 1.6802,1.9122 3.6076,3.5686 1.9275,1.6564 4.7877,2.1129 7.4024,1.4782 2.6148,-0.6347 4.9298,-1.7409 8.8333,-1.9057 3.9035,-0.165 9.7401,0.7567 13.9497,0.5365 2.1048,-0.1102 3.6715,-0.589 4.6583,-0.9417 0.9867,-0.3536 1.1441,-0.277 0.6763,-0.355 -0.4679,-0.077 -0.022,0.019 0.6063,0.5365 0.6283,0.5184 1.4783,1.3059 2.6463,1.9981 2.3362,1.3844 4.7978,1.6651 6.6592,1.78 0.7449,0.046 1.0308,0.082 1.2099,0.1001 0.1789,0.6318 0.4021,3.9437 0.076,5.2759 -0.1689,0.6891 -0.3085,0.8079 -0.3716,0.8663 -0.063,0.059 -0.2182,0.1763 -0.8104,0.3102 -1.1843,0.268 -3.5359,0.3224 -5.8068,0.4081 -2.2709,0.086 -5.2053,0.2448 -7.545,2.4563 -2.3397,2.2113 -3.2491,5.1632 -3.9792,6.8155 -0.7301,1.6523 -0.531,1.5528 -1.8946,2.339 -1.3638,0.7861 -4.1549,1.9028 -7.383,2.5484 -3.228,0.6457 -7.1908,0.9005 -10.4931,1.1513 -3.3023,0.2508 -6.0004,0.4171 -8.4839,1.5565 -1.2417,0.5698 -2.1,1.2545 -2.7161,1.6794 -0.6161,0.4251 -0.9347,0.5875 -1.2911,0.6596 -0.7126,0.1441 -3.9612,-0.3283 -9.4116,0.4471 -5.4504,0.7755 -12.8457,2.6977 -17.1744,5.139 -2.1645,1.2205 -3.8047,2.8818 -4.1442,5.0411 -0.3395,2.1594 0.6237,3.8591 1.5175,5.1557 1.7876,2.5933 4.4064,4.9272 6.1058,6.5865 0.8495,0.8297 1.3066,1.369 1.4586,1.6571 0.1519,0.288 0.2212,0.3984 0.1059,1.21 -0.1145,0.8115 -0.6196,2.4467 -0.9585,4.2531 -0.3391,1.8063 -0.6347,4.068 0.7181,6.2568 1.3529,2.1886 3.4621,3.008 5.3514,3.6326 1.8892,0.6248 3.7762,0.9736 4.9713,1.2631 1.1949,0.2894 1.3666,0.452 1.3469,0.4303 -0.02,-0.021 0.2582,0.3838 0.5169,1.9171 0.2587,1.5332 0.5028,3.9836 0.8383,6.4495 0.3355,2.4658 0.7112,4.9198 1.5677,7.0196 0.8565,2.0999 2.4714,3.7298 4.2839,4.337 1.8125,0.6072 3.4369,0.3864 4.8511,0.1844 2.8283,-0.404 5.7743,-1.0047 7.2068,-0.8384 1.4325,0.1664 2.8189,1.2858 5.6084,2.0316 2.7896,0.7457 5.8005,0.4791 8.9338,-0.3213 3.1332,-0.8005 6.3498,-2.1428 9.0484,-3.4065 1.3492,-0.6318 2.4846,-1.1883 3.2247,-1.4363 0.7402,-0.2478 0.8336,-0.1288 0.6512,-0.2123 -0.1826,-0.084 0.3456,0.3182 0.9669,1.1959 0.621,0.8778 1.3785,2.0987 2.5792,3.2415 2.4015,2.2858 5.4023,3.0507 7.8356,3.1829 2.4331,0.1316 4.9303,-0.7291 7.4639,-2.6408 2.5334,-1.9116 5.5762,-4.7652 8.3497,-6.3935 2.7734,-1.6284 5.8829,-2.3818 9.3082,-3.9346 3.3166,-1.5036 6.2123,-3.4982 7.9279,-4.5074 0.1273,0.4382 0.1712,0.5955 0.3521,1.1596 0.395,1.233 0.9051,2.7388 2.2998,4.0352 1.3945,1.2965 3.1663,1.73 4.7589,1.7997 1.5924,0.07 3.1416,-0.1824 4.6611,-0.5227 3.0386,-0.6803 6.2171,-1.8363 9.0847,-3.5013 2.8675,-1.6651 5.4027,-3.8973 8.4279,-7.5925 3.0252,-3.6951 6.6988,-8.914 8.8304,-11.1889 0.2473,-0.2638 0.3391,-0.3115 0.5254,-0.4806 0.1173,0.1919 0.1614,0.2121 0.3046,0.5002 1.4236,2.8645 3.5681,9.8597 5.3903,14.3606 1.8224,4.5008 3.7469,6.9391 6.159,8.1596 2.4121,1.2206 5.9533,1.315 9.1796,-0.7405 3.2264,-2.0554 6.2334,-5.5792 8.1682,-7.4947 0.6577,-0.651 0.8912,-0.7943 1.1932,-1.0256 0.1803,0.1965 0.1791,0.1818 0.4136,0.4864 0.5251,0.6819 1.0461,1.507 2.0791,2.3334 1.0328,0.8262 2.8294,1.1843 4.0407,0.9667 1.2112,-0.2175 2.1866,-0.6281 3.6355,-1.1484 2.8978,-1.0408 7.8937,-2.7478 11.9658,-4.7617 2.0361,-1.007 3.7022,-2.0152 4.9824,-2.6519 1.2802,-0.6368 2.0721,-0.7994 2.3725,-0.7686 0.2478,0.026 0.9287,0.4179 1.6626,0.9306 -0.5348,17.9068 -1.0719,35.9244 -1.5676,51.6606 -0.6208,19.7097 -1.1937,36.546 -3.071,51.7527 -1.8774,15.2068 -5.0957,28.8755 -9.3669,38.4178 -4.2714,9.5424 -9.6135,15.222 -12.5806,18.8932 -0.3708,0.4588 -0.751,0.922 -1.1121,1.5425 -0.3613,0.6205 -0.8197,1.5199 -0.6344,2.8084 0.03,0.2084 0.1102,0.3997 0.1788,0.5952 a 2.8614927,2.8614927 0 0 0 0.1002,0.8971 c 0.056,0.1001 0.36,0.6442 0.8411,1.0674 0.2405,0.2115 0.4978,0.3808 0.7573,0.5197 0.2596,0.1388 0.5215,0.2475 0.7796,0.3353 1.0323,0.3516 2.1813,0.5176 4.2365,0.7071 2.055,0.1895 4.994,0.362 9.3025,0.5197 4.3086,0.1578 9.9865,0.3007 17.524,0.4248 15.0746,0.2481 37.5472,0.4179 59.9962,0.4863 22.4491,0.069 44.8749,0.036 59.865,-0.1317 3.7475,-0.041 7.0215,-0.089 9.8839,-0.1453 8.5871,-0.172 13.4907,-0.4511 16.5318,-1.0646 1.0137,-0.2046 1.8472,-0.4275 2.6995,-0.9139 0.4261,-0.2432 0.8904,-0.6319 1.2714,-1.1205 0.381,-0.4886 0.6786,-1.0771 0.7713,-1.7213 0.046,-0.3223 0.053,-0.6219 0.032,-0.8971 -0.067,-0.8257 -0.3942,-1.4459 -0.6652,-1.9114 -0.3611,-0.6206 -0.7412,-1.0836 -1.1121,-1.5426 -1.8544,-2.2943 -4.6343,-5.3747 -7.503,-9.691 -1.7212,-2.5898 -3.4758,-5.6237 -5.0775,-9.202 -2.6695,-5.9641 -4.9272,-13.5399 -6.7038,-22.0956 -1.0661,-5.1335 -1.9591,-10.6197 -2.6631,-16.3222 -0.9387,-7.6034 -1.5509,-15.6149 -2.0064,-24.1887 -0.2278,-4.2868 -0.4165,-8.7136 -0.5868,-13.3013 -0.1704,-4.5877 -0.3226,-9.3354 -0.4779,-14.2628 -0.2927,-9.2909 -0.6107,-20.013 -0.9249,-30.5011 0.5783,-1.092 1.0122,-2.2698 1.453,-3.5294 0.8282,-2.3666 1.5588,-5.001 2.3502,-7.3354 1.5303,-4.5147 3.3598,-8.2194 4.3984,-10.3199 0.576,0.2062 1.0357,0.348 2.3669,0.939 1.682,0.7468 4.4735,2.0836 7.3996,3.4511 2.9261,1.3676 6.058,2.8422 9.149,3.535 3.0911,0.6926 5.2446,0.5055 6.8798,0.9892 1.63518,0.4837 3.95648,1.9378 6.90778,3.5546 1.4757,0.8083 3.1638,1.6857 5.0663,2.213 1.9026,0.5276 4.1789,0.6982 6.3295,-0.3269 4.3009,-2.0502 6.09414,-6.7378 7.65104,-11.0156 1.557,-4.2778 2.6431,-8.5124 3.3338,-9.7945 0.3454,-0.6411 0.2784,-0.4109 0.1173,-0.3688 -0.1609,0.042 0.1624,-0.024 1.0285,0.2794 1.7317,0.6085 4.5476,2.1297 6.7541,4.0548 2.2065,1.925 4.2271,4.638 6.8268,7.1816 2.5995,2.5436 5.5899,4.6302 8.9868,6.1924 3.3969,1.5622 6.8869,2.6382 9.7693,2.6799 1.4412,0.021 3.0536,-0.4036 4.1301,-1.4392 1.0766,-1.0354 1.4316,-2.1753 1.7409,-3.1576 0.4954,-1.5725 0.907,-3.1747 1.2688,-4.3593 1.7636,1.035 5.0486,3.4246 8.1149,5.1585 3.2272,1.8246 5.5349,2.5121 8.6964,4.4347 3.1614,1.9227 7.59,5.331 11.0352,7.6457 3.4451,2.3145 5.7515,3.6429 8.372,3.7863 1.3103,0.072 2.8014,-0.3916 3.7893,-1.2519 0.9878,-0.8602 1.4992,-1.8703 1.9114,-2.8642 0.7606,-1.8337 1.3269,-3.7567 1.6236,-4.4209 0.3793,0 1.3035,0.064 3.2275,0.4667 4.2878,0.8971 12.1253,2.9502 16.8979,3.4596 4.7726,0.5093 6.6386,-0.8211 7.1482,-0.8831 0.5095,-0.062 3.5302,0.486 6.469,0.7881 1.4695,0.1509 3.033,0.2177 4.6612,-0.1621 1.628,-0.3799 3.3597,-1.3454 4.4961,-2.9621 2.273,-3.2336 2.3134,-7.2951 2.2244,-10.521 -0.087,-3.1783 -0.4976,-5.4109 -0.4806,-5.7761 0.1045,-0.087 0.5018,-0.376 1.386,-0.7965 1.8818,-0.8947 5.2797,-2.2062 7.8104,-3.1688 2.5307,-0.9627 4.3272,-1.2019 6.0416,-3.1745 0.8572,-0.9862 1.18,-2.5804 1.0227,-3.644 -0.1572,-1.0635 -0.505,-1.8097 -0.8494,-2.6211 -0.6891,-1.6228 -1.1266,-2.4287 -0.4919,-3.6104 0.3173,-0.5909 1.3519,-1.7625 2.6044,-2.9901 1.2525,-1.2274 2.6987,-2.5544 3.887,-4.1328 1.1884,-1.5784 2.0861,-3.3783 2.0875,-5.4548 0,-2.0764 -1.1131,-4.1586 -2.8503,-5.5749 -3.4745,-2.8327 -8.8883,-4.1794 -13.9414,-4.6052 -5.0532,-0.4258 -9.3569,0.4077 -11.3313,0.5282 -0.9874,0.06 -1.4172,-0.047 -1.456,-0.062 -0.04,-0.014 0.1274,0.1435 -0.031,-0.076 -0.3147,-0.4379 -1.5963,-3.0115 -4.6863,-4.5801 -1.5451,-0.7843 -3.2446,-1.3121 -4.8455,-1.9001 -1.6009,-0.5881 -3.0717,-1.2464 -3.8088,-1.7941 -1.4742,-1.0955 -1.7859,-2.6033 -1.945,-4.3341 -0.074,-0.8105 -0.041,-1.3286 0,-1.565 0.014,0.07 1.4411,-0.3275 2.9006,-0.5336 1.5426,-0.2181 3.4651,-0.9156 4.6249,-2.3502 1.1596,-1.4347 1.9188,-3.3618 2.364,-5.9493 0.4453,-2.5875 0.5802,-5.4313 1.1932,-7.3382 0.6131,-1.9069 1.8135,-3.3463 2.7079,-3.9038 0.8942,-0.5575 1.8614,-0.6545 4.8734,-0.5338 3.0121,0.1202 7.4349,0.44 10.711,0.7154 3.2762,0.2754 5.1468,0.477 7.8104,1.2687 2.6636,0.7917 6.373,2.3591 10.1103,2.9089 3.7373,0.55 7.0887,-0.133 9.9538,-1.344 2.8649,-1.2111 5.7712,-2.9855 7.2403,-6.1114 1.4691,-3.1259 0.8822,-6.4394 -0.1316,-9.1964 -0.5068,-1.3787 -1.0538,-2.4787 -1.3106,-3.2836 -0.2567,-0.8048 -0.266,-1.1469 -0.123,-1.5564 0.286,-0.8192 2.9373,-3.5293 5.0187,-5.4939 1.0407,-0.9822 1.9237,-1.8562 2.6129,-3.0263 0.689,-1.1701 1.0377,-2.8691 0.6398,-4.323 -0.3978,-1.4541 -1.104,-2.3635 -1.6877,-3.2332 -0.5839,-0.8698 -1.0858,-1.6504 -1.3107,-2.2019 -0.4497,-1.1034 -0.4127,-1.6379 0.274,-2.2831 0.3432,-0.3226 1.2773,-0.876 2.4003,-1.4251 1.123,-0.5493 2.4128,-1.1057 3.6579,-2.0009 1.2451,-0.8952 2.3405,-2.1728 2.7861,-3.7781 0.4453,-1.6053 0.1897,-3.3013 -0.45,-4.851 -1.2791,-3.0996 -4.0131,-6.2849 -7.8076,-8.6712 -3.7945,-2.3864 -8.1409,-3.5748 -10.8227,-4.6555 -1.0898,-0.4391 -1.6101,-0.7914 -1.9617,-1.0339 0.2491,-0.3611 0.7162,-1.0349 1.6542,-2.0372 1.1397,-1.2179 2.5427,-2.6317 3.7305,-4.2586 1.188,-1.627 1.9225,-3.1255 2.5877,-4.1609 0.6653,-1.0356 1.1363,-1.5578 1.9282,-1.9394 1.5838,-0.7632 6.4378,-0.9196 10.4958,-1.224 4.058,-0.3043 7.2051,-1.1099 9.9119,-2.4675 2.7067,-1.3575 5.0719,-3.3226 7,-5.9549 1.9282,-2.6323 3.2827,-5.5293 5.1614,-8.0451 1.8785,-2.5158 4.495,-4.9489 6.6059,-6.1645 2.1109,-1.2156 4.2739,-1.5446 7.3187,-2.6269 3.0446,-1.082 6.2472,-2.735 8.685,-4.3984 1.2189,-0.8315 2.3078,-1.6917 3.194,-2.8167 0.8862,-1.1251 1.5296,-2.6224 1.5425,-4.1972 0.026,-3.1498 -1.7346,-5.656 -3.8395,-7.9529 -2.1048,-2.2971 -4.8315,-4.3554 -8.0367,-5.7398 -3.2053,-1.3845 -6.6049,-2.0581 -7.7881,-2.543 -0.5916,-0.2431 -0.5551,-0.3097 -0.5114,-0.2459 0.044,0.064 -0.04,-0.03 -0.1144,-0.6483 -0.074,-0.6185 -0.099,-1.8773 -0.6204,-3.3421 -0.5222,-1.4648 -1.7342,-3.116 -3.6161,-4.1078 -3.7635,-1.9837 -8.8548,-2.0707 -13.0611,-2.2859 -4.2061,-0.2148 -7.4143,-0.2438 -11.3173,-0.2291 -3.9031,0.014 -8.6794,0.036 -12.9215,1.0339 -4.2421,0.9987 -7.4482,2.9194 -9.4676,4.1805 -0.6298,0.3935 -0.8207,0.4883 -1.1484,0.6734 -0.1571,-0.2274 -0.1754,-0.2233 -0.3521,-0.584 -0.3748,-0.7651 -0.7333,-1.7133 -0.9558,-2.4507 -0.1652,-0.5484 -0.1402,-0.4932 -0.1592,-0.4554 0.06,-0.034 0.044,-0.027 0.2124,-0.1173 1.2738,-0.6838 5.4747,-1.8915 9.2299,-3.5044 3.7555,-1.6127 6.6467,-3.4362 9.1714,-4.063 2.5247,-0.6268 5.7739,-0.3437 9.7441,-0.5477 3.9703,-0.204 8.1756,-0.9509 11.664,-2.3446 3.4883,-1.3936 6.3716,-3.5 7.6147,-6.6843 1.2432,-3.1841 0.5357,-6.2938 -0.1563,-8.5537 -0.6922,-2.2597 -1.2389,-1.874 0.1001,-4.5409 1.3393,-2.6669 5.3886,-7.9283 7.8718,-11.5688 1.2416,-1.8204 2.1064,-3.26 2.6604,-4.678 0.5538,-1.4179 0.7771,-3.0165 0.2905,-4.4682 -0.973,-2.9037 -3.296,-3.8887 -3.7389,-4.2923 -0.2215,-0.2019 -0.1331,-0.1059 -0.1537,-0.1649 -0.021,-0.059 -0.1001,-0.4029 -0.1454,-1.1456 -0.09,-1.4857 -0.083,-4.1685 -0.2094,-7.3215 -0.1273,-3.153 -0.3607,-6.826 -1.2883,-10.0208 -0.4638,-1.5976 -1.2089,-3.5783 -3.2191,-4.7842 -2.0104,-1.2056 -4.5344,-1.0714 -7.3076,-0.123 -5.5464,1.8973 -13.5234,7.0381 -19.0943,9.6883 -5.5707,2.6502 -8.6272,2.9539 -10.2275,2.9482 -0.8001,0 -0.9181,-0.1145 -0.7629,-0.032 0.1552,0.083 0.1913,0.1984 -0.1145,-0.2544 -0.6118,-0.9054 -1.6083,-2.6472 -2.5988,-4.0659 -0.4953,-0.7092 -1.2284,-1.7165 -2.5513,-2.3444 -1.323,-0.6281 -2.8444,-0.6404 -4.3928,-0.3271 -1.5485,0.3135 -3.1896,0.8968 -4.7701,1.4225 -1.2503,0.4157 -2.1905,0.6603 -2.9313,0.8327 -0.023,-1.7176 0.1718,-4.9694 -1.9115,-8.0395 -2.1447,-3.1607 -5.5759,-5.0148 -7.6428,-6.6061 -2.0667,-1.5914 -3.6107,-3.404 -6.5054,-4.7785 -2.8946,-1.3744 -6.026,-2.1078 -7.0894,-2.9035 -1.0634,-0.7954 -1.6046,-2.3464 -2.3865,-4.2503 -0.7819,-1.9037 -1.819,-3.3657 -3.0878,-4.5828 -1.2688,-1.217 -2.6779,-2.2852 -3.8591,-3.479 -0.5905,-0.5969 -1.0761,-1.197 -1.2994,-1.5984 -0.2234,-0.4016 -0.1674,-0.4526 -0.1789,-0.4025 -0.023,0.1002 1.3508,-1.6814 2.9538,-2.8055 1.603,-1.1242 2.6225,-1.6958 6.4439,-2.8056 3.8214,-1.11 10.238,-2.6075 15.3888,-3.8312 5.151,-1.2236 9.0651,-2.1789 12.1531,-3.1773 1.5439,-0.4992 3.0026,-1.0277 4.3705,-1.9477 1.3678,-0.92 2.5726,-2.3166 3.2611,-4.0324 1.3767,-3.4315 1.1868,-7.4619 1.2435,-9.7916 0.029,-1.1649 0.113,-1.7042 0.1509,-1.8107 0.039,-0.1059 0,-0.1403 0.6287,-0.6456 1.2529,-1.0111 4.6274,-2.9266 7.1762,-5.2926 2.5486,-2.366 4.0307,-5.4121 4.6386,-9.3195 0.6081,-3.9073 0.6344,-8.8026 0.3046,-11.9769 -0.1648,-1.5871 -0.3773,-3.0672 -1.5146,-4.4151 -1.1372,-1.3481 -2.7825,-1.7912 -4.214,-1.9785 -2.8629,-0.3747 -7.0799,-0.2502 -11.0994,0.9054 -4.0196,1.1556 -6.9198,2.9163 -9.0679,3.1436 -2.148,0.2275 -5.2663,-0.8437 -9.1434,-1.3776 -3.877,-0.5334 -7.847,-0.3437 -8.8554,-0.5477 -0.5044,-0.1016 -0.3443,-0.073 -0.436,-0.1704 -0.092,-0.097 -0.3667,-0.5747 -1.0172,-1.3442 -1.3012,-1.5388 -3.3838,-2.7714 -6.1421,-3.2778 -2.7585,-0.5065 -5.857,-0.5029 -6.9443,-0.8187 -1.087,-0.3159 -1.0383,-0.4352 -1.5284,-1.6292 -0.2453,-0.5971 -0.3034,-1.012 -0.2962,-1.0871 0.014,-0.076 -0.1565,0.014 0.352,-0.366 1.0171,-0.752 5.6138,-2.2664 9.1517,-3.2974 3.538,-1.031 6.3548,-1.9454 9.0568,-3.7809 2.702,-1.8356 5.143,-4.4086 6.5809,-7.4583 1.4379,-3.0498 1.7406,-6.4518 0.4052,-9.392 -1.3355,-2.9404 -3.5413,-4.4464 -4.5158,-5.7511 -0.9745,-1.3045 -1.6111,-3.2519 -2.8447,-5.2199 -1.2338,-1.968 -3.2666,-3.3787 -5.5301,-3.9793 -2.2595,-0.5994 -4.7988,-0.7424 -6.0053,-0.95 -0.1316,-1.1279 -0.034,-3.9712 -0.246,-6.0892 -0.1073,-1.0822 -0.4371,-2.592 -1.6626,-3.6215 -1.2256,-1.0295 -2.4299,-1.1453 -3.6748,-1.2911 -1.2447,-0.1456 -2.6949,-0.2323 -4.0126,-0.4331 -1.3177,-0.2008 -2.4578,-0.6029 -2.7275,-0.7909 -0.2697,-0.1878 -0.473,-0.4879 -0.7349,-1.2602 -0.2619,-0.7724 -0.4052,-1.8578 -1.1206,-3.2164 -1.4307,-2.7172 -4.1838,-3.3571 -5.4128,-3.7306 -1.229,-0.3734 -1.5349,-0.6143 -1.5536,-0.6398 -0.019,-0.026 -0.1288,-0.2268 -0.023,-0.4192 0.1058,-0.1924 1.917,-1.6844 3.4315,-4.3063 1.5144,-2.6218 2.4234,-5.8064 1.903,-8.9617 -0.2601,-1.5777 -0.9039,-2.732 -1.3246,-3.5573 -0.4205,-0.8252 -0.6497,-1.3269 -0.7404,-2.0036 -0.1814,-1.3534 0.4819,-5.014 0.7685,-9.5513 0.2864,-4.5374 0.021,-9.7143 -0.3354,-14.0392 -0.3573,-4.325 -0.8177,-7.8259 -1.3973,-10.5825 -0.5794,-2.7567 -1.4921,-5.4769 -3.9457,-7.2152 -2.4534,-1.7384 -5.5071,-2.2472 -8.6152,-2.2887 -3.108,-0.042 -6.1283,0.3585 -7.0251,0.232 -0.8968,-0.1266 -0.7402,-0.1863 -1.2436,-0.8859 -0.2517,-0.3498 -0.6263,-0.9852 -1.4558,-1.6012 -0.8297,-0.6159 -1.9529,-0.9432 -3.0236,-1.0088 -2.1416,-0.1312 -4.5604,0.3182 -6.3741,0.5701 -1.8138,0.2519 -2.1138,0.3098 -2.8615,-0.02 -0.7477,-0.3293 -2.7293,-1.9069 -5.5582,-2.7832 -2.7336,-0.8468 -5.527,-0.8036 -6.6424,-0.9026 -0.295,-0.8234 -0.8023,-2.2291 -2.1125,-3.6076 -1.5247,-1.6044 -3.977,-2.6983 -6.9581,-2.6883 -2.3052,0.01 -4.2478,0.4706 -5.8711,0.7601 0.5353,-1.3955 1.2074,-2.8822 1.7269,-5.2479 0.7101,-3.2338 0.5441,-6.4894 -0.1704,-10.7083 -0.7145,-4.2188 -1.9276,-9.5863 -3.7082,-13.4104 -0.8903,-1.9121 -1.9624,-3.4769 -3.4288,-4.5941 -1.4663,-1.1172 -3.2858,-1.637 -5.0272,-1.6571 -3.4827,-0.04 -6.8823,1.3581 -8.5983,1.8136 -0.5406,0.1435 -0.4195,0.1238 -0.4808,0.1369 -0.5298,-0.9138 -1.5456,-3.5065 -2.3444,-5.5804 -0.408,-1.0593 -0.7889,-2.0751 -1.4365,-3.0963 -0.6474,-1.0211 -1.7485,-2.1215 -3.2191,-2.5541 -2.9411,-0.865 -5.1349,0.2678 -6.9944,0.844 -0.4558,0.1412 -0.7377,0.2059 -1.1206,0.3157 0.647,-1.6658 2.1404,-4.4671 2.16,-7.883 0.021,-3.7132 -2.2248,-6.7565 -5.027,-8.5594 -2.8024,-1.8028 -5.6731,-2.4171 -7.8441,-3.5908 -2.171,-1.1737 -4.3901,-3.1545 -6.85474,-5.5106 -2.4645,-2.3561 -5.4034,-5.3558 -9.8028,-6.9302 -4.3995,-1.5744 -9.0905,-1.5709 -12.57488,-2.7385 -3.4845,-1.1677 -6.7148,-3.636 -8.741,-5.3067 -1.013,-0.8353 -1.7683,-1.6057 -3.1186,-2.188 -1.3502,-0.5822 -3.1365,-0.4751 -4.5325,0.05 -1.3961,0.5254 -2.7393,1.3038 -4.1218,2.0288 -1.3826,0.7249 -2.78,1.3782 -3.6356,1.6095 -1.711,0.4628 -2.6829,-0.1839 -5.2143,-0.3632 -2.5316,-0.1793 -5.2378,0.8108 -7.1287,2.9174 -1.8907,2.1065 -2.8801,4.3647 -3.6913,5.0998 -0.8114,0.7351 -1.2999,0.9626 -2.7498,0.2012 -1.4499,-0.7614 -4.0707,-3.702 -7.5366,-5.4156 -3.4658,-1.7136 -6.4674,-1.3879 -8.5397,-1.9673 -2.0724,-0.5793 -4.596,-2.246 -7.1537,-3.2052 -2.5578,-0.9592 -4.7395,-0.5006 -5.5218,-0.4164 -0.7824,0.084 -0.6816,0.2963 -2.1965,-0.8774 -1.5147,-1.1737 -4.2911,-4.2533 -7.7768,-6.1142 -3.4859,-1.8609 -7.0319,-1.9662 -9.9901,-1.9813 -2.9583,-0.015 -6.3641,-0.2808 -9.135,2.1881 -1.1912,1.0614 -1.6143,2.151 -2.0063,3.0152 -0.6666,-0.5495 -1.4627,-1.2744 -2.4061,-2.1993 -2.1959,-2.1524 -4.6201,-4.6037 -6.5138,-6.2036 -0.9469,-0.7999 -1.9022,-1.5549 -3.2695,-1.9393 -0.6828,-0.192 -1.3986,-0.2345 -2.0986,-0.1705 z" id="path64" style="fill:#ffffff"/><path id="path14" style="fill:#1a1a1a;stroke-width:1.43075;stroke-linecap:round" d="m 573.61628,2168.682 c -0.7001,0.065 -1.3861,0.2343 -2.0204,0.4667 -2.5404,0.9308 -5.4124,2.7584 -7.5366,4.8735 -2.1242,2.1151 -2.9729,4.5172 -3.3477,6.4244 -0.3226,1.6415 -0.4458,3.0526 -0.5868,4.1106 -1.7779,-0.1786 -6.0664,-1.2043 -8.9226,-1.9645 -1.4568,-0.3878 -2.6198,-0.727 -3.8507,-0.897 -1.2309,-0.1701 -2.6927,-0.1068 -3.9849,0.5393 -2.5844,1.2922 -3.5491,3.3284 -4.7365,4.5884 -1.1874,1.2601 -2.7838,2.3599 -3.4763,2.6659 -0.3462,0.153 -0.1974,0.081 -0.123,0.092 0.074,0.01 -0.1457,-0.026 -0.7294,-0.3912 -1.1672,-0.7296 -3.4437,-2.5873 -6.1784,-3.7697 -2.7349,-1.1824 -5.2027,-1.38 -7.967,-2.0231 -2.7643,-0.6432 -6.8982,-2.0789 -11.4935,-0.9418 -4.5951,1.1372 -8.2869,4.2667 -10.9933,5.5078 -2.7064,1.2412 -5.165,1.2673 -7.9362,1.8667 -2.771,0.5994 -5.015,1.8298 -7.0418,3.4008 -2.027,1.5711 -3.9783,3.5047 -6.0193,5.5162 -2.0408,2.0116 -4.2227,4.1188 -5.6195,5.1082 -1.3969,0.9895 -1.9929,1.1063 -3.6998,1.3637 -0.8536,0.1287 -1.9968,0.2516 -3.2221,0.5729 -1.2252,0.3213 -2.6714,0.8283 -3.8143,2.2076 -1.1429,1.3792 -1.3868,2.9895 -1.4196,4.4292 -0.033,1.4396 0.1502,2.8751 0.3465,4.4124 0.1963,1.5372 0.4165,3.1739 0.4779,4.485 0.049,1.0376 -0.074,1.435 -0.067,1.59 -0.5723,-0.014 -1.5297,-0.1576 -2.7218,-0.2515 -2.5406,-0.2001 -5.4031,0.1002 -7.5365,2.1601 -2.1335,2.0599 -2.6144,4.1361 -3.4735,5.0552 -0.8592,0.919 -2.716,1.8063 -4.295,2.1153 -1.5791,0.3091 -3.179,0.1545 -5.6643,0.218 -2.4854,0.063 -5.788,0.1346 -8.4755,2.4451 -2.6876,2.3105 -3.0583,5.7389 -3.1968,9.5849 -0.1388,3.846 -0.027,8.8155 -0.38,10.7697 -0.1763,0.9771 -0.3742,1.3188 -0.6708,1.8416 -0.2966,0.5227 -1.0175,1.5609 -0.9892,3.0906 0.029,1.5297 0.5185,2.3646 0.8523,3.2024 0.3338,0.8377 0.5952,1.5812 0.6594,2.0287 0.1288,0.8951 0.1478,1.1612 -0.8271,1.6292 -0.9749,0.4679 -4.5934,0.7868 -8.5453,2.23 -3.952,1.4431 -7.5649,3.9389 -10.6132,5.6363 -3.0484,1.6974 -5.7224,2.7748 -7.953,3.3086 -2.2305,0.5338 -4.3138,0.4681 -6.6256,1.2826 -2.3117,0.8146 -2.2502,1.4667 -4.5213,1.6208 -2.2712,0.1541 -7.307,-0.4679 -10.9346,-0.3409 -1.8138,0.063 -3.3799,0.3432 -4.7646,1.0954 -1.3847,0.7523 -2.3774,1.9572 -3.0347,3.1326 -1.3145,2.3507 -2.0247,5.2617 -2.7888,9.135 -0.7642,3.8732 -1.5269,8.7258 -1.9337,11.485 -0.2029,1.3796 -0.3997,2.4578 -0.1957,3.7949 0.2041,1.337 0.8456,2.4828 1.632,3.6216 1.573,2.2775 4.3976,5.6898 5.9438,7.9082 0.4773,0.6848 0.6126,1.0017 0.8494,1.4335 -0.1963,0.042 -0.2269,0.06 -0.4583,0.1062 -0.8806,0.1754 -2.189,0.4011 -3.5853,1.115 -1.3961,0.7138 -2.8703,2.0692 -3.6187,3.996 -1.4968,3.8536 -0.7895,8.3918 -0.076,11.7758 0.3571,1.692 0.7964,2.9938 1.1123,3.8953 0.1187,0.339 0.084,0.1668 0.1431,0.38 -0.3404,0.2676 -0.6054,0.4523 -1.1737,0.9892 -1.7478,1.6513 -3.7002,3.9643 -5.2982,5.0049 -1.5981,1.0406 -4.1649,1.4969 -7.3718,3.8173 -3.2068,2.3203 -6.2273,5.9244 -8.5062,7.992 -2.2789,2.0675 -4.1292,2.9108 -5.9522,4.7337 -1.8227,1.8229 -2.589,3.8263 -3.1492,4.7897 -0.5601,0.9634 -0.8885,1.3572 -2.3809,2.3585 -1.4924,1.0012 -4.6918,2.5074 -6.4271,5.8907 -1.7355,3.3831 -1.1809,7.2116 -0.014,10.859 1.1697,3.6476 3.1637,7.4146 6.0415,10.5966 2.8778,3.1819 6.3826,5.5254 8.0618,6.8714 0.8398,0.673 1.1445,1.0746 1.1402,1.0675 0,0 0,-0.3113 -0.067,0.1087 -0.1274,0.8406 -1.0595,3.1565 -1.6068,3.9261 -0.2737,0.3849 -0.084,0.2242 -0.3576,0.3242 -0.2738,0.1002 -1.1597,0.271 -2.7638,0.3968 -3.2083,0.2517 -8.9176,0.4425 -15.1736,0.1844 -6.2562,-0.2579 -13.1993,-0.9733 -18.0185,-1.1484 -2.4095,-0.087 -4.3842,-0.1145 -6.3378,0.5588 -1.9534,0.6729 -3.6555,2.461 -4.3257,4.513 -1.3403,4.104 -0.7391,9.7374 1.7633,15.0509 2.5023,5.3134 6.7325,9.4748 8.224,11.9042 1.4914,2.4294 1.174,3.5716 1.2883,6.2651 0.1144,2.6935 1.1294,6.927 5.3764,9.3195 4.2471,2.3923 10.4336,3.3308 16.5654,4.703 6.1316,1.3722 12.1699,2.9928 17.5628,5.2059 5.393,2.2132 10.3835,5.2081 12.3933,6.9945 0.053,0.047 0,0.014 0.056,0.059 -0.9776,0.1658 -2.0481,0.3605 -3.683,0.5365 -1.145,0.1231 -2.3482,0.2544 -3.6411,0.911 -1.2931,0.6565 -2.4804,2.0595 -2.9371,3.616 -0.4566,1.5564 -0.4473,2.8338 -0.6371,3.8227 -0.1897,0.9891 -0.4222,1.3493 -0.6007,1.4755 -0.1786,0.1259 -1.4763,0.5264 -3.0627,0.6175 -1.5865,0.092 -3.3887,0.019 -4.977,0.073 -1.5881,0.054 -2.8346,0.235 -3.9652,0.6819 -1.1307,0.447 -2.069,1.257 -2.6156,1.9506 -0.5466,0.6936 -1.2974,2.386 -1.0814,3.9876 0.216,1.6016 0.9296,3.1431 2.2634,5.3374 2.6679,4.3885 8.0011,11.3249 10.9291,15.685 0.4884,0.7274 0.5601,0.9916 0.9165,1.5845 -2.7811,-1.3556 -6.4126,-2.9779 -12.0635,-4.4041 -8.0282,-2.0261 -18.6502,-3.4694 -24.602,-2.7188 -1.488,0.1875 -2.7233,0.5314 -3.7949,1.1708 -1.0715,0.6394 -1.9213,1.6685 -2.3109,2.6882 -0.5482,1.4342 -0.4732,2.4261 -0.38,3.0851 -0.2265,0.02 -0.1217,0.046 -0.7965,-0.05 -2.4579,-0.3502 -7.3778,-1.9259 -11.5381,-3.9682 -4.1605,-2.0422 -7.9919,-4.7154 -12.3152,-6.9274 -2.1616,-1.1059 -4.4538,-2.1079 -6.8574,-2.6043 -2.4037,-0.4965 -5.0649,-0.4647 -7.4332,0.869 -4.7368,2.6678 -6.5999,8.3151 -7.0393,12.9019 -0.4393,4.5869 0.829,7.781 0.7658,8.5091 -0.063,0.7281 -1.0684,1.9905 -2.3977,3.669 -0.6645,0.8395 -1.4288,1.8656 -1.713,3.359 -0.284,1.4934 0.154,3.1803 1.0256,4.5605 1.7435,2.7605 4.655,5.1643 6.2008,7.4918 1.5458,2.3277 2.1547,4.8063 2.7219,8.3861 0.567,3.5798 0.9594,8.301 3.3421,12.4101 2.3827,4.1091 6.5845,6.8338 11.879,8.2463 5.2946,1.4124 11.5056,1.639 17.2724,2.487 5.7668,0.8482 11.4335,2.324 14.5506,3.4036 1.5585,0.54 2.4032,0.9794 2.733,1.2212 0.3298,0.2419 0.2691,0.1719 0.4192,0.5617 0.3,0.7795 0.5012,2.6795 0.3856,3.8144 -0.054,0.5312 -0.1433,0.5392 -0.246,0.8243 -0.074,-0.031 -0.014,0 -0.089,-0.039 -1.8826,-0.8683 -5.9427,-3.2215 -10.6216,-4.5549 -4.6788,-1.3333 -9.5595,-1.5524 -13.0751,-1.2938 -3.5157,0.2586 -5.6207,1.0589 -6.9693,1.3665 -1.3487,0.3074 -2.5857,0.3721 -4.4263,0.1704 -1.8408,-0.2016 -4.5783,-0.7854 -7.8412,-0.651 -3.263,0.1345 -6.5715,0.954 -8.157,1.3329 -1.4605,0.3491 -2.3417,1.4546 -2.7777,2.2663 -0.4359,0.8115 -0.6276,1.5319 -0.8019,2.1852 -0.3485,1.3067 -0.9102,2.4648 -0.5282,2.0009 -0.1508,0.1832 -2.0689,1.0986 -4.9517,2.5513 -2.8828,1.4525 -6.2093,3.5637 -9.0316,6.0247 -2.8223,2.461 -4.8953,5.0216 -6.008,6.8072 -0.5564,0.8928 -1.1164,1.9628 -1.0059,3.3226 0.1101,1.3598 0.7168,2.1069 1.1009,2.6938 0.7682,1.1737 2.7897,3.9207 6.9442,5.4603 4.1544,1.5397 9.8386,2.2439 12.9074,3.5154 3.0687,1.2716 4.2472,2.9692 7.4053,7.4277 3.1579,4.4583 7.9421,11.5979 15.6794,14.5086 3.8687,1.4554 7.9717,1.6515 11.5298,1.7046 3.5583,0.053 6.7371,0.063 7.8301,0.3633 1.0929,0.3007 0.9417,0.3488 1.2715,1.2882 0.3296,0.9393 0.4528,2.6968 1.6738,4.6471 2.442,3.9005 6.8392,4.6426 9.7414,5.8264 0.9025,0.3681 1.5033,0.7328 2.2019,1.1038 -0.1216,0.034 -0.1651,0.067 -0.2906,0.1002 -2.1299,0.5704 -4.6571,0.9889 -7.3326,1.8052 -2.6753,0.8162 -5.366,2.016 -7.8858,3.7891 -2.5198,1.7733 -4.6502,3.9216 -6.4132,5.452 -1.763,1.5305 -3.4768,2.6813 -4.9238,4.323 -0.7235,0.8209 -1.6304,2.0029 -1.6376,3.7641 -0.014,1.7611 1.0872,3.3151 2.4452,4.3872 1.358,1.0722 2.9025,1.8615 4.2335,2.7582 1.3312,0.8966 2.264,1.8763 2.4396,2.2857 0.1755,0.4097 0.1765,1.3312 -0.1788,2.571 -0.3554,1.2397 -0.9747,2.548 -1.3889,3.9905 -0.4142,1.4423 -0.4388,3.0977 0.2935,4.3928 0.7322,1.2949 1.6915,1.8021 2.2746,2.1907 1.166,0.7774 3.0322,2.0356 5.7426,2.923 1.0391,0.3403 1.912,0.5739 2.7105,0.816 -0.8509,0.9121 -2.0676,2.0332 -3.1772,3.2107 -2.2447,2.3821 -3.9362,4.9405 -3.9038,8.0089 0.033,3.0684 1.7732,5.7606 4.3118,8.1095 2.5386,2.3487 5.9113,4.5283 9.1516,5.5999 3.2405,1.0717 6.1953,0.608 9.1072,-0.3184 2.9118,-0.9266 6.2307,-2.2416 9.2326,-2.6883 3.002,-0.4468 6.3675,-0.094 9.9342,-0.3717 3.5666,-0.2778 6.659,-1.2221 9.0567,-1.8415 2.3976,-0.6194 3.7697,-0.6704 4.2336,-0.4444 0.4639,0.2262 1.6802,1.9122 3.6076,3.5686 1.9275,1.6564 4.7877,2.1129 7.4024,1.4782 2.6148,-0.6347 4.9298,-1.7409 8.8333,-1.9057 3.9035,-0.165 9.7401,0.7567 13.9497,0.5365 2.1048,-0.1102 3.6715,-0.589 4.6583,-0.9417 0.9867,-0.3536 1.1441,-0.277 0.6763,-0.355 -0.4679,-0.077 -0.022,0.019 0.6063,0.5365 0.6283,0.5184 1.4783,1.3059 2.6463,1.9981 2.3362,1.3844 4.7978,1.6651 6.6592,1.78 0.7449,0.046 1.0308,0.082 1.2099,0.1001 0.1789,0.6318 0.4021,3.9437 0.076,5.2759 -0.1689,0.6891 -0.3085,0.8079 -0.3716,0.8663 -0.063,0.059 -0.2182,0.1763 -0.8104,0.3102 -1.1843,0.268 -3.5359,0.3224 -5.8068,0.4081 -2.2709,0.086 -5.2053,0.2448 -7.545,2.4563 -2.3397,2.2113 -3.2491,5.1632 -3.9792,6.8155 -0.7301,1.6523 -0.531,1.5528 -1.8946,2.339 -1.3638,0.7861 -4.1549,1.9028 -7.383,2.5484 -3.228,0.6457 -7.1908,0.9005 -10.4931,1.1513 -3.3023,0.2508 -6.0004,0.4171 -8.4839,1.5565 -1.2417,0.5698 -2.1,1.2545 -2.7161,1.6794 -0.6161,0.4251 -0.9347,0.5875 -1.2911,0.6596 -0.7126,0.1441 -3.9612,-0.3283 -9.4116,0.4471 -5.4504,0.7755 -12.8457,2.6977 -17.1744,5.139 -2.1645,1.2205 -3.8047,2.8818 -4.1442,5.0411 -0.3395,2.1594 0.6237,3.8591 1.5175,5.1557 1.7876,2.5933 4.4064,4.9272 6.1058,6.5865 0.8495,0.8297 1.3066,1.369 1.4586,1.6571 0.1519,0.288 0.2212,0.3984 0.1059,1.21 -0.1145,0.8115 -0.6196,2.4467 -0.9585,4.2531 -0.3391,1.8063 -0.6347,4.068 0.7181,6.2568 1.3529,2.1886 3.4621,3.008 5.3514,3.6326 1.8892,0.6248 3.7762,0.9736 4.9713,1.2631 1.1949,0.2894 1.3666,0.452 1.3469,0.4303 -0.02,-0.021 0.2582,0.3838 0.5169,1.9171 0.2587,1.5332 0.5028,3.9836 0.8383,6.4495 0.3355,2.4658 0.7112,4.9198 1.5677,7.0196 0.8565,2.0999 2.4714,3.7298 4.2839,4.337 1.8125,0.6072 3.4369,0.3864 4.8511,0.1844 2.8283,-0.404 5.7743,-1.0047 7.2068,-0.8384 1.4325,0.1664 2.8189,1.2858 5.6084,2.0316 2.7896,0.7457 5.8005,0.4791 8.9338,-0.3213 3.1332,-0.8005 6.3498,-2.1428 9.0484,-3.4065 1.3492,-0.6318 2.4846,-1.1883 3.2247,-1.4363 0.7402,-0.2478 0.8336,-0.1288 0.6512,-0.2123 -0.1826,-0.084 0.3456,0.3182 0.9669,1.1959 0.621,0.8778 1.3785,2.0987 2.5792,3.2415 2.4015,2.2858 5.4023,3.0507 7.8356,3.1829 2.4331,0.1316 4.9303,-0.7291 7.4639,-2.6408 2.5334,-1.9116 5.5762,-4.7652 8.3497,-6.3935 2.7734,-1.6284 5.8829,-2.3818 9.3082,-3.9346 3.3166,-1.5036 6.2123,-3.4982 7.9279,-4.5074 0.1273,0.4382 0.1712,0.5955 0.3521,1.1596 0.395,1.233 0.9051,2.7388 2.2998,4.0352 1.3945,1.2965 3.1663,1.73 4.7589,1.7997 1.5924,0.07 3.1416,-0.1824 4.6611,-0.5227 3.0386,-0.6803 6.2171,-1.8363 9.0847,-3.5013 2.8675,-1.6651 5.4027,-3.8973 8.4279,-7.5925 3.0252,-3.6951 6.6988,-8.914 8.8304,-11.1889 0.2473,-0.2638 0.3391,-0.3115 0.5254,-0.4806 0.1173,0.1919 0.1614,0.2121 0.3046,0.5002 1.4236,2.8645 3.5681,9.8597 5.3903,14.3606 1.8224,4.5008 3.7469,6.9391 6.159,8.1596 2.4121,1.2206 5.9533,1.315 9.1796,-0.7405 3.2264,-2.0554 6.2334,-5.5792 8.1682,-7.4947 0.6577,-0.651 0.8912,-0.7943 1.1932,-1.0256 0.1803,0.1965 0.1791,0.1818 0.4136,0.4864 0.5251,0.6819 1.0461,1.507 2.0791,2.3334 1.0328,0.8262 2.8294,1.1843 4.0407,0.9667 1.2112,-0.2175 2.1866,-0.6281 3.6355,-1.1484 2.8978,-1.0408 7.8937,-2.7478 11.9658,-4.7617 2.0361,-1.007 3.7022,-2.0152 4.9824,-2.6519 1.2802,-0.6368 2.0721,-0.7994 2.3725,-0.7686 0.2478,0.026 0.9287,0.4179 1.6626,0.9306 -0.5348,17.9068 -1.0719,35.9244 -1.5676,51.6606 -0.6208,19.7097 -1.1937,36.546 -3.071,51.7527 -1.8774,15.2068 -5.0957,28.8755 -9.3669,38.4178 -4.2714,9.5424 -9.6135,15.222 -12.5806,18.8932 -0.3708,0.4588 -0.751,0.922 -1.1121,1.5425 -0.3613,0.6205 -0.8197,1.5199 -0.6344,2.8084 0.03,0.2084 0.1102,0.3997 0.1788,0.5952 a 2.8614927,2.8614927 0 0 0 0.1002,0.8971 c 0.056,0.1001 0.36,0.6442 0.8411,1.0674 0.2405,0.2115 0.4978,0.3808 0.7573,0.5197 0.2596,0.1388 0.5215,0.2475 0.7796,0.3353 1.0323,0.3516 2.1813,0.5176 4.2365,0.7071 2.055,0.1895 4.994,0.362 9.3025,0.5197 4.3086,0.1578 9.9865,0.3007 17.524,0.4248 15.0746,0.2481 37.5472,0.4179 59.9962,0.4863 22.4491,0.069 44.8749,0.036 59.865,-0.1317 3.7475,-0.041 7.0215,-0.089 9.8839,-0.1453 8.5871,-0.172 13.4907,-0.4511 16.5318,-1.0646 1.0137,-0.2046 1.8472,-0.4275 2.6995,-0.9139 0.4261,-0.2432 0.8904,-0.6319 1.2714,-1.1205 0.381,-0.4886 0.6786,-1.0771 0.7713,-1.7213 0.046,-0.3223 0.053,-0.6219 0.032,-0.8971 -0.067,-0.8257 -0.3942,-1.4459 -0.6652,-1.9114 -0.3611,-0.6206 -0.7412,-1.0836 -1.1121,-1.5426 -1.8544,-2.2943 -4.6343,-5.3747 -7.503,-9.691 -1.7212,-2.5898 -3.4758,-5.6237 -5.0775,-9.202 -2.6695,-5.9641 -4.9272,-13.5399 -6.7038,-22.0956 -1.0661,-5.1335 -1.9591,-10.6197 -2.6631,-16.3222 -0.9387,-7.6034 -1.5509,-15.6149 -2.0064,-24.1887 -0.2278,-4.2868 -0.4165,-8.7136 -0.5868,-13.3013 -0.1704,-4.5877 -0.3226,-9.3354 -0.4779,-14.2628 -0.2927,-9.2909 -0.6107,-20.013 -0.9249,-30.5011 0.5783,-1.092 1.0122,-2.2698 1.453,-3.5294 0.8282,-2.3666 1.5588,-5.001 2.3502,-7.3354 1.5303,-4.5147 3.3598,-8.2194 4.3984,-10.3199 0.576,0.2062 1.0357,0.348 2.3669,0.939 1.682,0.7468 4.4735,2.0836 7.3996,3.4511 2.9261,1.3676 6.058,2.8422 9.149,3.535 3.0911,0.6926 5.2446,0.5055 6.8798,0.9892 1.63518,0.4837 3.95648,1.9378 6.90778,3.5546 1.4757,0.8083 3.1638,1.6857 5.0663,2.213 1.9026,0.5276 4.1789,0.6982 6.3295,-0.3269 4.3009,-2.0502 6.09414,-6.7378 7.65104,-11.0156 1.557,-4.2778 2.6431,-8.5124 3.3338,-9.7945 0.3454,-0.6411 0.2784,-0.4109 0.1173,-0.3688 -0.1609,0.042 0.1624,-0.024 1.0285,0.2794 1.7317,0.6085 4.5476,2.1297 6.7541,4.0548 2.2065,1.925 4.2271,4.638 6.8268,7.1816 2.5995,2.5436 5.5899,4.6302 8.9868,6.1924 3.3969,1.5622 6.8869,2.6382 9.7693,2.6799 1.4412,0.021 3.0536,-0.4036 4.1301,-1.4392 1.0766,-1.0354 1.4316,-2.1753 1.7409,-3.1576 0.4954,-1.5725 0.907,-3.1747 1.2688,-4.3593 1.7636,1.035 5.0486,3.4246 8.1149,5.1585 3.2272,1.8246 5.5349,2.5121 8.6964,4.4347 3.1614,1.9227 7.59,5.331 11.0352,7.6457 3.4451,2.3145 5.7515,3.6429 8.372,3.7863 1.3103,0.072 2.8014,-0.3916 3.7893,-1.2519 0.9878,-0.8602 1.4992,-1.8703 1.9114,-2.8642 0.7606,-1.8337 1.3269,-3.7567 1.6236,-4.4209 0.3793,0 1.3035,0.064 3.2275,0.4667 4.2878,0.8971 12.1253,2.9502 16.8979,3.4596 4.7726,0.5093 6.6386,-0.8211 7.1482,-0.8831 0.5095,-0.062 3.5302,0.486 6.469,0.7881 1.4695,0.1509 3.033,0.2177 4.6612,-0.1621 1.628,-0.3799 3.3597,-1.3454 4.4961,-2.9621 2.273,-3.2336 2.3134,-7.2951 2.2244,-10.521 -0.087,-3.1783 -0.4976,-5.4109 -0.4806,-5.7761 0.1045,-0.087 0.5018,-0.376 1.386,-0.7965 1.8818,-0.8947 5.2797,-2.2062 7.8104,-3.1688 2.5307,-0.9627 4.3272,-1.2019 6.0416,-3.1745 0.8572,-0.9862 1.18,-2.5804 1.0227,-3.644 -0.1572,-1.0635 -0.505,-1.8097 -0.8494,-2.6211 -0.6891,-1.6228 -1.1266,-2.4287 -0.4919,-3.6104 0.3173,-0.5909 1.3519,-1.7625 2.6044,-2.9901 1.2525,-1.2274 2.6987,-2.5544 3.887,-4.1328 1.1884,-1.5784 2.0861,-3.3783 2.0875,-5.4548 0,-2.0764 -1.1131,-4.1586 -2.8503,-5.5749 -3.4745,-2.8327 -8.8883,-4.1794 -13.9414,-4.6052 -5.0532,-0.4258 -9.3569,0.4077 -11.3313,0.5282 -0.9874,0.06 -1.4172,-0.047 -1.456,-0.062 -0.04,-0.014 0.1274,0.1435 -0.031,-0.076 -0.3147,-0.4379 -1.5963,-3.0115 -4.6863,-4.5801 -1.5451,-0.7843 -3.2446,-1.3121 -4.8455,-1.9001 -1.6009,-0.5881 -3.0717,-1.2464 -3.8088,-1.7941 -1.4742,-1.0955 -1.7859,-2.6033 -1.945,-4.3341 -0.074,-0.8105 -0.041,-1.3286 0,-1.565 0.014,0.07 1.4411,-0.3275 2.9006,-0.5336 1.5426,-0.2181 3.4651,-0.9156 4.6249,-2.3502 1.1596,-1.4347 1.9188,-3.3618 2.364,-5.9493 0.4453,-2.5875 0.5802,-5.4313 1.1932,-7.3382 0.6131,-1.9069 1.8135,-3.3463 2.7079,-3.9038 0.8942,-0.5575 1.8614,-0.6545 4.8734,-0.5338 3.0121,0.1202 7.4349,0.44 10.711,0.7154 3.2762,0.2754 5.1468,0.477 7.8104,1.2687 2.6636,0.7917 6.373,2.3591 10.1103,2.9089 3.7373,0.55 7.0887,-0.133 9.9538,-1.344 2.8649,-1.2111 5.7712,-2.9855 7.2403,-6.1114 1.4691,-3.1259 0.8822,-6.4394 -0.1316,-9.1964 -0.5068,-1.3787 -1.0538,-2.4787 -1.3106,-3.2836 -0.2567,-0.8048 -0.266,-1.1469 -0.123,-1.5564 0.286,-0.8192 2.9373,-3.5293 5.0187,-5.4939 1.0407,-0.9822 1.9237,-1.8562 2.6129,-3.0263 0.689,-1.1701 1.0377,-2.8691 0.6398,-4.323 -0.3978,-1.4541 -1.104,-2.3635 -1.6877,-3.2332 -0.5839,-0.8698 -1.0858,-1.6504 -1.3107,-2.2019 -0.4497,-1.1034 -0.4127,-1.6379 0.274,-2.2831 0.3432,-0.3226 1.2773,-0.876 2.4003,-1.4251 1.123,-0.5493 2.4128,-1.1057 3.6579,-2.0009 1.2451,-0.8952 2.3405,-2.1728 2.7861,-3.7781 0.4453,-1.6053 0.1897,-3.3013 -0.45,-4.851 -1.2791,-3.0996 -4.0131,-6.2849 -7.8076,-8.6712 -3.7945,-2.3864 -8.1409,-3.5748 -10.8227,-4.6555 -1.0898,-0.4391 -1.6101,-0.7914 -1.9617,-1.0339 0.2491,-0.3611 0.7162,-1.0349 1.6542,-2.0372 1.1397,-1.2179 2.5427,-2.6317 3.7305,-4.2586 1.188,-1.627 1.9225,-3.1255 2.5877,-4.1609 0.6653,-1.0356 1.1363,-1.5578 1.9282,-1.9394 1.5838,-0.7632 6.4378,-0.9196 10.4958,-1.224 4.058,-0.3043 7.2051,-1.1099 9.9119,-2.4675 2.7067,-1.3575 5.0719,-3.3226 7,-5.9549 1.9282,-2.6323 3.2827,-5.5293 5.1614,-8.0451 1.8785,-2.5158 4.495,-4.9489 6.6059,-6.1645 2.1109,-1.2156 4.2739,-1.5446 7.3187,-2.6269 3.0446,-1.082 6.2472,-2.735 8.685,-4.3984 1.2189,-0.8315 2.3078,-1.6917 3.194,-2.8167 0.8862,-1.1251 1.5296,-2.6224 1.5425,-4.1972 0.026,-3.1498 -1.7346,-5.656 -3.8395,-7.9529 -2.1048,-2.2971 -4.8315,-4.3554 -8.0367,-5.7398 -3.2053,-1.3845 -6.6049,-2.0581 -7.7881,-2.543 -0.5916,-0.2431 -0.5551,-0.3097 -0.5114,-0.2459 0.044,0.064 -0.04,-0.03 -0.1144,-0.6483 -0.074,-0.6185 -0.099,-1.8773 -0.6204,-3.3421 -0.5222,-1.4648 -1.7342,-3.116 -3.6161,-4.1078 -3.7635,-1.9837 -8.8548,-2.0707 -13.0611,-2.2859 -4.2061,-0.2148 -7.4143,-0.2438 -11.3173,-0.2291 -3.9031,0.014 -8.6794,0.036 -12.9215,1.0339 -4.2421,0.9987 -7.4482,2.9194 -9.4676,4.1805 -0.6298,0.3935 -0.8207,0.4883 -1.1484,0.6734 -0.1571,-0.2274 -0.1754,-0.2233 -0.3521,-0.584 -0.3748,-0.7651 -0.7333,-1.7133 -0.9558,-2.4507 -0.1652,-0.5484 -0.1402,-0.4932 -0.1592,-0.4554 0.06,-0.034 0.044,-0.027 0.2124,-0.1173 1.2738,-0.6838 5.4747,-1.8915 9.2299,-3.5044 3.7555,-1.6127 6.6467,-3.4362 9.1714,-4.063 2.5247,-0.6268 5.7739,-0.3437 9.7441,-0.5477 3.9703,-0.204 8.1756,-0.9509 11.664,-2.3446 3.4883,-1.3936 6.3716,-3.5 7.6147,-6.6843 1.2432,-3.1841 0.5357,-6.2938 -0.1563,-8.5537 -0.6922,-2.2597 -1.2389,-1.874 0.1001,-4.5409 1.3393,-2.6669 5.3886,-7.9283 7.8718,-11.5688 1.2416,-1.8204 2.1064,-3.26 2.6604,-4.678 0.5538,-1.4179 0.7771,-3.0165 0.2905,-4.4682 -0.973,-2.9037 -3.296,-3.8887 -3.7389,-4.2923 -0.2215,-0.2019 -0.1331,-0.1059 -0.1537,-0.1649 -0.021,-0.059 -0.1001,-0.4029 -0.1454,-1.1456 -0.09,-1.4857 -0.083,-4.1685 -0.2094,-7.3215 -0.1273,-3.153 -0.3607,-6.826 -1.2883,-10.0208 -0.4638,-1.5976 -1.2089,-3.5783 -3.2191,-4.7842 -2.0104,-1.2056 -4.5344,-1.0714 -7.3076,-0.123 -5.5464,1.8973 -13.5234,7.0381 -19.0943,9.6883 -5.5707,2.6502 -8.6272,2.9539 -10.2275,2.9482 -0.8001,0 -0.9181,-0.1145 -0.7629,-0.032 0.1552,0.083 0.1913,0.1984 -0.1145,-0.2544 -0.6118,-0.9054 -1.6083,-2.6472 -2.5988,-4.0659 -0.4953,-0.7092 -1.2284,-1.7165 -2.5513,-2.3444 -1.323,-0.6281 -2.8444,-0.6404 -4.3928,-0.3271 -1.5485,0.3135 -3.1896,0.8968 -4.7701,1.4225 -1.2503,0.4157 -2.1905,0.6603 -2.9313,0.8327 -0.023,-1.7176 0.1718,-4.9694 -1.9115,-8.0395 -2.1447,-3.1607 -5.5759,-5.0148 -7.6428,-6.6061 -2.0667,-1.5914 -3.6107,-3.404 -6.5054,-4.7785 -2.8946,-1.3744 -6.026,-2.1078 -7.0894,-2.9035 -1.0634,-0.7954 -1.6046,-2.3464 -2.3865,-4.2503 -0.7819,-1.9037 -1.819,-3.3657 -3.0878,-4.5828 -1.2688,-1.217 -2.6779,-2.2852 -3.8591,-3.479 -0.5905,-0.5969 -1.0761,-1.197 -1.2994,-1.5984 -0.2234,-0.4016 -0.1674,-0.4526 -0.1789,-0.4025 -0.023,0.1002 1.3508,-1.6814 2.9538,-2.8055 1.603,-1.1242 2.6225,-1.6958 6.4439,-2.8056 3.8214,-1.11 10.238,-2.6075 15.3888,-3.8312 5.151,-1.2236 9.0651,-2.1789 12.1531,-3.1773 1.5439,-0.4992 3.0026,-1.0277 4.3705,-1.9477 1.3678,-0.92 2.5726,-2.3166 3.2611,-4.0324 1.3767,-3.4315 1.1868,-7.4619 1.2435,-9.7916 0.029,-1.1649 0.113,-1.7042 0.1509,-1.8107 0.039,-0.1059 0,-0.1403 0.6287,-0.6456 1.2529,-1.0111 4.6274,-2.9266 7.1762,-5.2926 2.5486,-2.366 4.0307,-5.4121 4.6386,-9.3195 0.6081,-3.9073 0.6344,-8.8026 0.3046,-11.9769 -0.1648,-1.5871 -0.3773,-3.0672 -1.5146,-4.4151 -1.1372,-1.3481 -2.7825,-1.7912 -4.214,-1.9785 -2.8629,-0.3747 -7.0799,-0.2502 -11.0994,0.9054 -4.0196,1.1556 -6.9198,2.9163 -9.0679,3.1436 -2.148,0.2275 -5.2663,-0.8437 -9.1434,-1.3776 -3.877,-0.5334 -7.847,-0.3437 -8.8554,-0.5477 -0.5044,-0.1016 -0.3443,-0.073 -0.436,-0.1704 -0.092,-0.097 -0.3667,-0.5747 -1.0172,-1.3442 -1.3012,-1.5388 -3.3838,-2.7714 -6.1421,-3.2778 -2.7585,-0.5065 -5.857,-0.5029 -6.9443,-0.8187 -1.087,-0.3159 -1.0383,-0.4352 -1.5284,-1.6292 -0.2453,-0.5971 -0.3034,-1.012 -0.2962,-1.0871 0.014,-0.076 -0.1565,0.014 0.352,-0.366 1.0171,-0.752 5.6138,-2.2664 9.1517,-3.2974 3.538,-1.031 6.3548,-1.9454 9.0568,-3.7809 2.702,-1.8356 5.143,-4.4086 6.5809,-7.4583 1.4379,-3.0498 1.7406,-6.4518 0.4052,-9.392 -1.3355,-2.9404 -3.5413,-4.4464 -4.5158,-5.7511 -0.9745,-1.3045 -1.6111,-3.2519 -2.8447,-5.2199 -1.2338,-1.968 -3.2666,-3.3787 -5.5301,-3.9793 -2.2595,-0.5994 -4.7988,-0.7424 -6.0053,-0.95 -0.1316,-1.1279 -0.034,-3.9712 -0.246,-6.0892 -0.1073,-1.0822 -0.4371,-2.592 -1.6626,-3.6215 -1.2256,-1.0295 -2.4299,-1.1453 -3.6748,-1.2911 -1.2447,-0.1456 -2.6949,-0.2323 -4.0126,-0.4331 -1.3177,-0.2008 -2.4578,-0.6029 -2.7275,-0.7909 -0.2697,-0.1878 -0.473,-0.4879 -0.7349,-1.2602 -0.2619,-0.7724 -0.4052,-1.8578 -1.1206,-3.2164 -1.4307,-2.7172 -4.1838,-3.3571 -5.4128,-3.7306 -1.229,-0.3734 -1.5349,-0.6143 -1.5536,-0.6398 -0.019,-0.026 -0.1288,-0.2268 -0.023,-0.4192 0.1058,-0.1924 1.917,-1.6844 3.4315,-4.3063 1.5144,-2.6218 2.4234,-5.8064 1.903,-8.9617 -0.2601,-1.5777 -0.9039,-2.732 -1.3246,-3.5573 -0.4205,-0.8252 -0.6497,-1.3269 -0.7404,-2.0036 -0.1814,-1.3534 0.4819,-5.014 0.7685,-9.5513 0.2864,-4.5374 0.021,-9.7143 -0.3354,-14.0392 -0.3573,-4.325 -0.8177,-7.8259 -1.3973,-10.5825 -0.5794,-2.7567 -1.4921,-5.4769 -3.9457,-7.2152 -2.4534,-1.7384 -5.5071,-2.2472 -8.6152,-2.2887 -3.108,-0.042 -6.1283,0.3585 -7.0251,0.232 -0.8968,-0.1266 -0.7402,-0.1863 -1.2436,-0.8859 -0.2517,-0.3498 -0.6263,-0.9852 -1.4558,-1.6012 -0.8297,-0.6159 -1.9529,-0.9432 -3.0236,-1.0088 -2.1416,-0.1312 -4.5604,0.3182 -6.3741,0.5701 -1.8138,0.2519 -2.1138,0.3098 -2.8615,-0.02 -0.7477,-0.3293 -2.7293,-1.9069 -5.5582,-2.7832 -2.7336,-0.8468 -5.527,-0.8036 -6.6424,-0.9026 -0.295,-0.8234 -0.8023,-2.2291 -2.1125,-3.6076 -1.5247,-1.6044 -3.977,-2.6983 -6.9581,-2.6883 -2.3052,0.01 -4.2478,0.4706 -5.8711,0.7601 0.5353,-1.3955 1.2074,-2.8822 1.7269,-5.2479 0.7101,-3.2338 0.5441,-6.4894 -0.1704,-10.7083 -0.7145,-4.2188 -1.9276,-9.5863 -3.7082,-13.4104 -0.8903,-1.9121 -1.9624,-3.4769 -3.4288,-4.5941 -1.4663,-1.1172 -3.2858,-1.637 -5.0272,-1.6571 -3.4827,-0.04 -6.8823,1.3581 -8.5983,1.8136 -0.5406,0.1435 -0.4195,0.1238 -0.4808,0.1369 -0.5298,-0.9138 -1.5456,-3.5065 -2.3444,-5.5804 -0.408,-1.0593 -0.7889,-2.0751 -1.4365,-3.0963 -0.6474,-1.0211 -1.7485,-2.1215 -3.2191,-2.5541 -2.9411,-0.865 -5.1349,0.2678 -6.9944,0.844 -0.4558,0.1412 -0.7377,0.2059 -1.1206,0.3157 0.647,-1.6658 2.1404,-4.4671 2.16,-7.883 0.021,-3.7132 -2.2248,-6.7565 -5.027,-8.5594 -2.8024,-1.8028 -5.6731,-2.4171 -7.8441,-3.5908 -2.171,-1.1737 -4.3901,-3.1545 -6.85474,-5.5106 -2.4645,-2.3561 -5.4034,-5.3558 -9.8028,-6.9302 -4.3995,-1.5744 -9.0905,-1.5709 -12.57488,-2.7385 -3.4845,-1.1677 -6.7148,-3.636 -8.741,-5.3067 -1.013,-0.8353 -1.7683,-1.6057 -3.1186,-2.188 -1.3502,-0.5822 -3.1365,-0.4751 -4.5325,0.05 -1.3961,0.5254 -2.7393,1.3038 -4.1218,2.0288 -1.3826,0.7249 -2.78,1.3782 -3.6356,1.6095 -1.711,0.4628 -2.6829,-0.1839 -5.2143,-0.3632 -2.5316,-0.1793 -5.2378,0.8108 -7.1287,2.9174 -1.8907,2.1065 -2.8801,4.3647 -3.6913,5.0998 -0.8114,0.7351 -1.2999,0.9626 -2.7498,0.2012 -1.4499,-0.7614 -4.0707,-3.702 -7.5366,-5.4156 -3.4658,-1.7136 -6.4674,-1.3879 -8.5397,-1.9673 -2.0724,-0.5793 -4.596,-2.246 -7.1537,-3.2052 -2.5578,-0.9592 -4.7395,-0.5006 -5.5218,-0.4164 -0.7824,0.084 -0.6816,0.2963 -2.1965,-0.8774 -1.5147,-1.1737 -4.2911,-4.2533 -7.7768,-6.1142 -3.4859,-1.8609 -7.0319,-1.9662 -9.9901,-1.9813 -2.9583,-0.015 -6.3641,-0.2808 -9.135,2.1881 -1.1912,1.0614 -1.6143,2.151 -2.0063,3.0152 -0.6666,-0.5495 -1.4627,-1.2744 -2.4061,-2.1993 -2.1959,-2.1524 -4.6201,-4.6037 -6.5138,-6.2036 -0.9469,-0.7999 -1.9022,-1.5549 -3.2695,-1.9393 -0.6828,-0.192 -1.3986,-0.2345 -2.0986,-0.1705 z m 0.5505,5.6783 c 0.014,0 0.3766,0.1687 1.1262,0.802 1.4992,1.2666 3.9626,3.7302 6.1979,5.9214 1.1177,1.0956 2.2054,2.1631 3.3506,3.0319 0.5726,0.4345 1.1546,0.8288 1.903,1.1374 0.7484,0.3086 1.8059,0.5773 3.0013,0.1788 1.1952,-0.3984 1.8299,-1.2111 2.2159,-1.7996 0.386,-0.5885 0.6034,-1.0932 0.8104,-1.5397 0.4141,-0.8931 0.7899,-1.5001 0.9473,-1.6404 0.3149,-0.2805 2.4944,-0.7519 5.2982,-0.7377 2.804,0.014 5.1969,0.1706 7.327,1.3078 2.1302,1.1372 4.6468,3.7937 6.9637,5.5889 2.317,1.7951 4.7871,2.2099 6.3155,2.0455 1.5283,-0.1645 1.5973,-0.4077 2.9005,0.081 1.3033,0.4887 4.2523,2.4201 7.6205,3.3617 3.3681,0.9416 5.775,0.7094 7.5449,1.5844 1.7699,0.8751 4.2128,3.6704 7.4137,5.3513 3.2007,1.6809 6.9512,1.0592 9.255,-1.0283 2.3038,-2.0875 3.3049,-4.6247 4.1051,-5.5162 0.8002,-0.8916 1.4861,-1.1005 2.4646,-1.0312 0.9785,0.069 3.6338,1.1202 7.1147,0.1789 1.7404,-0.4707 3.3296,-1.2965 4.7952,-2.0651 1.4656,-0.7685 2.8348,-1.5013 3.4791,-1.7437 0.6441,-0.2424 0.2253,-0.1618 0.2571,-0.1481 0.032,0.014 0.6699,0.4638 1.7409,1.3469 2.142,1.7662 5.8428,4.7364 10.5629,6.3182 4.72008,1.5818 9.50908,1.6441 12.46598,2.7022 2.9568,1.0581 5.2514,3.2639 7.7741,5.6755 2.5226,2.4116 5.03974,4.7615 8.08974,6.4104 3.0502,1.6489 5.8844,2.3503 7.4697,3.3701 1.5851,1.0198 2.4089,2.3053 2.4003,3.711 -0.014,1.4056 -1.2812,4.1605 -2.1042,6.6926 -0.4114,1.2661 -0.6628,2.4116 -0.4555,3.7306 0.2074,1.319 1.356,2.8883 2.7386,3.3673 1.3825,0.4789 2.4085,0.2583 3.3728,0.059 0.9643,-0.1997 1.8932,-0.4928 2.828,-0.7825 1.8697,-0.5792 3.8892,-0.7609 3.6831,-0.8215 -0.1031,-0.03 -0.2081,-0.1995 0,0.1285 0.208,0.328 0.5414,1.08 0.9305,2.0902 0.7782,2.0203 1.6468,4.6448 2.8392,6.6116 0.596,0.9834 1.6452,2.1356 3.0794,2.5206 1.434,0.385 2.5637,0.091 3.7166,-0.2152 2.3058,-0.6121 5.4576,-1.642 7.0643,-1.6236 0.8034,0.01 1.1631,0.1383 1.6235,0.4891 0.4604,0.3507 1.0622,1.0732 1.7075,2.4591 1.2905,2.7717 2.5952,8.0509 3.2555,11.9489 0.6601,3.898 0.7274,6.2286 0.2235,8.523 -0.5038,2.2945 -1.7402,4.7122 -2.3194,6.9973 -0.1448,0.5712 -0.2637,1.1586 -0.2012,1.9197 0.063,0.7612 0.4371,1.7953 1.1765,2.4759 1.4787,1.3612 2.8611,1.1177 4.0296,1.006 2.3368,-0.2235 5.3508,-0.9528 7.0643,-0.9585 1.7135,-0.01 2.3594,0.4505 2.7944,0.9082 0.4349,0.4577 0.7305,1.2115 1.1065,2.1908 0.188,0.4897 0.5629,1.4435 1.5007,2.1601 0.9379,0.7166 1.9012,0.8854 2.8363,0.9892 1.8705,0.2079 4.2502,0.2239 5.7649,0.6931 1.5148,0.4692 2.8686,1.6403 4.9434,2.5541 2.0749,0.9138 4.0859,0.7098 5.9576,0.4499 1.8719,-0.26 4.5119,-0.5697 5.2369,-0.5254 0.031,0 0.014,0 0.031,0 -0.014,0 -0.062,-0.059 0.1537,0.2403 0.6227,0.8653 2.3584,2.8255 5.0886,3.2108 2.7303,0.3854 5.3873,-0.2104 7.7491,-0.1788 2.3616,0.032 4.5742,0.6656 5.382,1.2379 0.8078,0.5724 1.1516,1.3309 1.6542,3.7222 0.5028,2.3913 0.952,5.7061 1.2967,9.8783 0.3445,4.1722 0.576,9.1736 0.3214,13.2065 -0.2547,4.0328 -1.1714,7.3307 -0.7239,10.6719 0.2238,1.6706 0.8573,2.9528 1.3106,3.8423 0.4534,0.8895 0.6933,1.3826 0.7769,1.889 0.1671,1.0128 -0.3872,3.7377 -1.2127,5.167 -0.8257,1.4292 -2.2332,2.1304 -3.4874,4.4095 -1.2544,2.2792 -0.8611,4.8284 0.4219,6.5726 1.2829,1.7441 3.0808,2.2908 4.499,2.7217 1.4181,0.431 1.8514,0.6119 2.0147,0.9221 0.082,0.1553 0.3374,1.1343 0.7629,2.3894 0.4255,1.2549 1.2011,2.9439 2.8838,4.1161 1.6829,1.1722 3.4697,1.5006 5.139,1.7549 1.6694,0.2544 3.2668,0.3481 4.2084,0.4583 0.451,0.053 0.2086,-0.034 0.3159,0 0.1016,1.278 -0.033,4.0356 0.2654,6.2288 0.1538,1.1315 0.544,2.4493 1.59,3.4036 1.0461,0.9543 2.1716,1.1683 3.0907,1.3273 1.8382,0.3182 4.2051,0.4939 5.5245,0.844 1.3195,0.3501 1.5399,0.5178 2.149,1.4894 0.6091,0.9716 1.4083,3.3243 3.1102,5.6028 1.7018,2.2784 3.4117,3.6422 3.8897,4.6947 0.478,1.0523 0.4866,2.7653 -0.3715,4.5855 -0.8583,1.8204 -2.7172,3.8701 -4.6221,5.1642 -1.9049,1.2942 -3.9978,2.0189 -7.436,3.0207 -3.4381,1.0019 -7.8818,1.9135 -10.9596,4.1889 -1.5389,1.1378 -2.514,2.8856 -2.6519,4.4738 -0.1374,1.5885 0.3278,2.8391 0.7042,3.7557 0.7528,1.8335 2.4398,4.1416 5.2284,4.9519 2.7883,0.81 5.8035,0.6375 7.5057,0.95 1.7023,0.3126 2.4249,0.8939 2.8057,1.3442 0.1902,0.225 0.4755,0.7849 1.2211,1.5761 0.7456,0.791 2.0225,1.5598 3.4707,1.8526 2.8964,0.5858 6.1788,0.1925 9.2048,0.6093 3.0259,0.4166 6.459,1.8306 10.5266,1.3999 4.0676,-0.4308 7.0483,-2.4739 10.0487,-3.3366 3.0006,-0.8626 6.943,-0.9718 8.7745,-0.7321 0.9158,0.1202 0.7516,0.1961 0.5813,0 -0.1702,-0.2017 0.072,0.09 0.1985,1.319 0.2551,2.4564 0.2233,7.3625 -0.2656,10.5042 -0.4889,3.1418 -1.1417,4.3933 -2.8782,6.0053 -1.7365,1.6119 -4.7954,3.3528 -6.877,5.0327 -1.0409,0.84 -1.971,1.909 -2.4229,3.1716 -0.4518,1.2627 -0.4532,2.3583 -0.4834,3.5994 -0.06,2.4817 -0.2497,6.3488 -0.8327,7.802 -0.2916,0.7265 -0.5593,1.0195 -1.1458,1.414 -0.5863,0.3943 -1.5632,0.8049 -2.9368,1.249 -2.7475,0.8882 -6.5866,1.8357 -11.7171,3.0544 -5.1304,1.2187 -11.5254,2.7029 -15.66,3.9038 -4.1346,1.2008 -6.213,2.2684 -8.1345,3.6159 -1.9216,1.3476 -4.4973,2.8694 -5.2508,6.2456 -0.3768,1.688 0.113,3.2687 0.7601,4.4319 0.6469,1.1634 1.466,2.0613 2.2356,2.8392 1.539,1.5556 3.0814,2.7402 3.9624,3.5853 0.8811,0.845 1.1914,1.2545 1.755,2.6267 0.5635,1.3722 1.3676,4.5004 4.253,6.6591 2.8854,2.1587 6.3059,2.6564 8.062,3.4903 1.7561,0.8339 2.9606,2.2108 5.4714,4.144 2.511,1.9334 5.4847,3.9405 6.3965,5.2844 0.9119,1.3439 0.8846,3.0755 0.9334,5.1641 0.024,1.0443 -0.08,2.2606 0.9137,3.7361 0.4973,0.7378 1.3772,1.3906 2.2551,1.6627 0.8781,0.272 1.696,0.2622 2.4982,0.1592 1.6046,-0.2059 3.171,-0.7601 4.7842,-1.2965 1.613,-0.5366 3.2273,-1.0698 4.0993,-1.2463 0.8721,-0.1765 0.934,-0.05 0.8048,-0.1116 -0.1287,-0.062 -0.057,-0.074 0.3102,0.4526 0.7353,1.0531 1.7006,2.7343 2.5513,3.9933 0.4254,0.6296 1.0659,1.5108 2.1517,2.0931 1.0858,0.5823 2.2228,0.7055 3.4483,0.7098 2.451,0.014 6.5305,-0.5676 12.7036,-3.5043 6.1729,-2.9366 14.5455,-8.0901 18.4906,-9.4396 1.9726,-0.6748 2.4805,-0.4018 2.5121,-0.3828 0.032,0.019 0.3393,0.347 0.6652,1.4699 0.6518,2.2455 0.9489,5.653 1.0702,8.6571 0.1216,3.0042 0.097,5.558 0.2125,7.436 0.057,0.9391 0.1373,1.8053 0.4778,2.747 0.3408,0.9417 0.9941,1.8233 1.6794,2.4479 1.3706,1.249 2.2377,2.0787 2.1713,1.8807 -0.033,-0.099 0.073,-0.1202 -0.1957,0.5671 -0.2687,0.6881 -0.9345,1.8819 -2.0623,3.535 -2.2552,3.3064 -6.3063,8.3406 -8.2574,12.2257 -1.9512,3.8849 -0.9773,7.082 -0.4555,8.7856 0.5218,1.7036 0.7175,3.709 0.2934,4.7953 -0.4242,1.0863 -1.782,2.4024 -4.4068,3.4511 -2.6249,1.0486 -6.4036,1.7659 -9.8337,1.9421 -3.4299,0.1763 -6.9939,-0.2429 -10.8312,0.7098 -3.8371,0.9526 -6.8571,2.9887 -10.0487,4.3594 -3.1915,1.3706 -6.973,2.2706 -9.6771,3.722 -1.3521,0.7259 -2.6238,1.8828 -3.0655,3.4317 -0.4415,1.5488 -0.074,2.8015 0.2376,3.8338 0.3114,1.0323 0.7454,2.1975 1.2939,3.3171 0.5484,1.1195 1.0754,2.1817 2.2801,3.1605 1.2047,0.9788 3.295,1.1201 4.4767,0.6902 1.1818,-0.43 1.96,-1.0061 2.9174,-1.604 1.9148,-1.1959 4.471,-2.6941 7.7461,-3.4652 3.2753,-0.7708 7.7705,-0.8656 11.6332,-0.8802 3.8628,-0.014 6.9154,0.014 11.0018,0.2208 4.0862,0.209 9.3189,0.9128 10.6886,1.6348 0.6848,0.361 0.739,0.5395 0.8914,0.9669 0.1524,0.4272 0.2106,1.1228 0.3269,2.0986 0.1159,0.9756 0.3338,2.1184 1.076,3.2023 0.7419,1.0839 1.8755,1.8195 3.0682,2.3082 2.3853,0.9776 5.3032,1.4724 7.6847,2.5011 2.3814,1.0286 4.5084,2.6289 6.0891,4.3536 1.5805,1.7249 2.3375,3.6046 2.3332,4.038 0,0.2168 -0.014,0.3111 -0.3157,0.7014 -0.3075,0.3904 -0.955,0.9719 -1.9225,1.632 -1.9351,1.3202 -4.9085,2.8558 -7.3774,3.7333 -2.4689,0.8776 -5.162,1.2773 -8.2575,3.0599 -3.0956,1.7826 -6.0316,4.6159 -8.3357,7.7014 -2.3041,3.0856 -3.7593,6.1272 -5.1949,8.0872 -1.4356,1.96 -2.9903,3.2399 -4.9489,4.2223 -1.9587,0.9824 -4.2243,1.609 -7.7713,1.8751 -3.547,0.266 -8.4912,-0.1827 -12.5526,1.7744 -2.0307,0.9785 -3.3408,2.5728 -4.2587,4.0017 -0.9179,1.4287 -1.5645,2.7414 -2.3949,3.8786 -0.8302,1.1371 -2.085,2.4384 -3.289,3.7249 -1.2038,1.2867 -2.4011,2.4107 -3.1409,4.2532 -0.7398,1.8425 -0.032,4.332 1.2156,5.5497 1.2469,1.2177 2.6767,1.84 4.2755,2.4842 3.1974,1.2886 7.1307,2.442 9.9173,4.1945 2.7868,1.7526 4.939,4.5036 5.561,6.0107 0.3111,0.7538 0.2563,1.027 0.2264,1.1346 -0.03,0.1073 -0.087,0.2852 -0.6121,0.6623 -0.5245,0.3772 -1.6202,0.9128 -2.8334,1.5062 -1.2134,0.5934 -2.5671,1.2358 -3.8034,2.3976 -2.4723,2.3237 -2.7575,5.9133 -1.6571,8.6125 0.5503,1.3495 1.2924,2.39 1.8584,3.2331 0.5327,0.7935 0.8271,1.3731 0.8691,1.4615 -0.1518,0.2577 -0.698,0.9057 -1.6096,1.7661 -1.8234,1.7209 -5.1689,3.9835 -6.4915,7.7713 -0.6613,1.8938 -0.3771,3.7627 0.076,5.1808 0.4525,1.4182 1.0354,2.5522 1.3915,3.521 0.7122,1.9375 0.7975,3.774 0.3215,4.7869 -0.4762,1.013 -2.1354,2.3656 -4.2867,3.275 -2.1514,0.9094 -4.2693,1.3391 -6.8939,0.9529 -2.6245,-0.3862 -6.1685,-1.8017 -9.311,-2.7357 -3.1425,-0.934 -5.6303,-1.2007 -8.9645,-1.481 -3.3343,-0.2804 -7.7708,-0.6043 -10.9598,-0.7323 -3.1888,-0.1273 -5.7619,-0.082 -8.1289,1.3946 -2.367,1.4754 -4.1496,3.9573 -5.1307,7.0084 -0.9809,3.051 -1.0533,6.2035 -1.3832,8.1206 -0.3298,1.9169 -0.9147,3.0023 -1.1737,3.3225 -0.2589,0.3203 0.1705,0.1202 -0.978,0.2823 -1.1483,0.1622 -3.3255,-0.06 -5.6084,1.5844 -1.1414,0.8222 -1.8467,2.1571 -2.093,3.3282 -0.2464,1.1709 -0.1983,2.2492 -0.095,3.3728 0.2066,2.2471 0.9199,5.9473 4.228,8.4056 1.6541,1.2292 3.5144,1.9341 5.248,2.571 1.7335,0.6368 3.37,1.1949 4.2307,1.6319 1.7217,0.8739 1.5256,1.2803 2.6296,2.8168 0.552,0.7682 1.5086,1.6643 2.6854,2.1014 1.1769,0.4372 2.3865,0.494 3.7976,0.408 2.8226,-0.1721 6.3555,-0.8859 10.5015,-0.5365 4.1459,0.3492 9.2934,2.1033 10.806,3.3365 0.7562,0.6166 0.7436,0.8088 0.7433,1.1346 -10e-5,0.3256 -0.2086,1.054 -0.9361,2.0203 -0.7276,0.9663 -2.0084,2.1995 -3.3225,3.4875 -1.3142,1.2879 -2.6861,2.5892 -3.6411,4.3676 -1.9102,3.5567 -0.3591,7.076 0.2682,8.5537 0.1331,0.3122 0.1188,0.3116 0.1928,0.5171 -0.1837,0 -1.0237,0.5175 -3.1744,1.3357 -2.5442,0.9678 -5.9343,2.2592 -8.2353,3.3533 -1.1504,0.5471 -2.1172,1.0484 -3.0067,1.9142 -0.8896,0.8656 -1.5074,2.2256 -1.6236,3.4009 -0.2325,2.3502 0.3892,3.9741 0.4611,6.5835 0.072,2.6094 -0.6178,6.2698 -1.182,7.0728 -0.2822,0.4015 -0.4974,0.5342 -1.1179,0.679 -0.6204,0.1448 -1.609,0.1615 -2.7721,0.042 -2.3261,-0.2391 -4.8918,-1.1243 -7.746,-0.7769 -2.8542,0.3475 -2.127,1.2722 -5.8516,0.8746 -3.7245,-0.3974 -11.741,-2.4125 -16.3306,-3.3728 -2.2947,-0.4802 -3.7518,-0.7626 -5.3095,-0.6148 -1.5576,0.1479 -3.2535,1.414 -3.8703,2.448 -1.2334,2.0679 -1.6375,4.3472 -2.1292,5.533 -0.1698,0.409 -0.211,0.4304 -0.2656,0.5113 -0.405,-0.056 -2.2723,-0.6859 -5.3316,-2.7413 -3.1508,-2.1168 -7.5848,-5.5544 -11.2533,-7.7852 -3.6683,-2.231 -6.1566,-3.0026 -8.8527,-4.5271 -2.696,-1.5244 -6.0983,-4.0787 -8.5872,-5.4547 -1.2445,-0.6879 -2.4417,-1.3712 -4.2448,-0.9473 -0.9015,0.2119 -1.7144,0.8161 -2.1797,1.386 -0.4651,0.57 -0.6995,1.0908 -0.8998,1.579 -0.8009,1.9522 -1.2829,4.4295 -1.7465,5.9018 -0.1867,0.592 -0.2342,0.6205 -0.2012,0.6035 -0.052,0 -0.014,-0.014 -0.1259,-0.014 -1.154,-0.017 -4.6569,-0.8705 -7.461,-2.16 -2.8043,-1.2897 -5.2238,-2.976 -7.3774,-5.0832 -2.1536,-2.1072 -4.228,-4.9253 -7.067,-7.4024 -2.8392,-2.477 -6.0209,-4.2293 -8.6181,-5.1417 -1.2986,-0.4564 -2.7232,-0.846 -4.3705,-0.4164 -1.6472,0.4296 -2.9375,1.7555 -3.7109,3.1912 -1.54704,2.8714 -2.27474,6.7099 -3.67194,10.5491 -1.3973,3.8389 -3.6995,7.3131 -4.7366,7.8075 -0.5185,0.2473 -1.2215,0.2875 -2.3389,-0.023 -1.1175,-0.3098 -2.4909,-0.9768 -3.8451,-1.7187 -2.7086,-1.4836 -5.1237,-3.1593 -8.0368,-4.0211 -2.91328,-0.8618 -5.11878,-0.6098 -7.24868,-1.087 -2.1301,-0.4773 -5.0835,-1.7826 -7.9782,-3.1354 -2.8947,-1.3528 -5.6576,-2.6778 -7.5002,-3.4959 -1.8425,-0.8179 -2.7795,-1.1208 -3.3309,-1.3244 -0.5516,-0.2038 -1.0402,-0.4212 -1.3191,-0.545 -0.07,-0.032 -0.8558,-0.512 -2.0707,-0.19 -1.2147,0.3219 -1.6171,1.0324 -1.8359,1.3581 -0.4374,0.6511 -0.6026,1.0805 -1.1094,2.1042 -1.0133,2.0475 -3.1135,6.2804 -4.8399,11.3733 -0.8632,2.5464 -1.6,5.1868 -2.3333,7.2823 -0.6955,1.9873 -1.5451,3.2693 -1.6263,3.4036 -0.1173,-0.03 -0.2324,-0.042 -0.6009,-0.2319 -1.0044,-0.5207 -2.6225,-1.7435 -4.5381,-3.127 -3.8312,-2.767 -8.3118,-5.7947 -11.9881,-6.947 -1.8382,-0.576 -3.709,-0.537 -5.125,0.1845 -1.4159,0.7216 -2.1028,1.767 -2.515,2.2942 -0.8243,1.0542 -1.2333,1.2245 -1.0871,1.21 0.1462,-0.014 -1.1706,-0.3012 -3.4538,-1.7577 -1.1416,-0.7283 -2.5593,-1.6954 -3.9961,-2.5597 -1.4367,-0.8643 -2.7745,-1.679 -4.5353,-2.0008 -1.7608,-0.3219 -3.7025,0.4556 -4.6695,1.4699 -0.9226,0.9677 -1.2544,1.8701 -1.5118,2.4395 -0.654,-0.3631 -1.5589,-0.9248 -2.6826,-1.6013 -2.2855,-1.3755 -5.2222,-3.0599 -7.0811,-3.954 -0.4648,-0.2236 -0.8684,-0.4082 -1.3609,-0.5646 -0.4926,-0.1562 -1.1245,-0.4182 -2.2578,-0.079 -1.1335,0.34 -2.0676,1.7247 -2.2188,2.4843 -0.1514,0.7596 -0.074,1.1776 -0.023,1.59 0.2061,1.6491 0.7774,3.6633 1.1428,5.6447 0.1829,0.9908 0.3092,1.9387 0.341,2.6407 0.014,0.2227 0.014,0.1302 0,0.2906 -0.3206,0.024 -0.5039,0.053 -1.1513,0.059 -2.0616,0.02 -4.9566,-0.024 -6.8268,-0.4471 -1.8703,-0.4228 -3.0314,-1.1194 -5.5106,-3.2052 -2.4793,-2.0857 -5.9038,-5.3607 -8.2044,-7.2012 -1.1503,-0.9203 -1.9348,-1.6402 -3.5211,-1.9113 -0.7931,-0.136 -1.8734,0.034 -2.6211,0.4973 -0.7477,0.4638 -1.1378,1.0211 -1.4112,1.4643 -1.0936,1.7726 -1.4586,3.609 -1.9365,4.8036 -0.1577,0.3941 -0.2249,0.478 -0.313,0.6287 -0.023,-0.033 -0.9888,-0.089 -3.0738,-1.8667 -2.2386,-1.9082 -5.4735,-5.5019 -7.7407,-7.5839 -1.1336,-1.0411 -2.0395,-1.7695 -3.2611,-2.2077 -1.2215,-0.4382 -2.6888,-0.2336 -3.4846,0.059 -1.5917,0.5847 -1.9637,0.9742 -3.0543,0.9053 -1.0907,-0.069 -3.4942,-0.9172 -5.533,-2.4507 -1.0194,-0.7667 -2.1437,-1.8421 -3.4455,-2.867 -1.3017,-1.0249 -2.8519,-2.1077 -4.9713,-2.325 -2.1194,-0.2173 -3.8846,0.5299 -5.5049,1.3357 -1.6205,0.8058 -3.2019,1.774 -4.9713,2.6492 -3.539,1.7501 -8.3865,3.4331 -11.3623,4.5018 -1.3223,0.4749 -2.0445,0.7098 -2.4115,0.8048 -0.169,-0.1933 -0.4348,-0.4871 -0.8775,-1.0619 -0.5657,-0.7348 -1.1174,-1.6128 -2.3669,-2.4143 -1.2494,-0.8015 -3.3415,-0.8007 -4.5856,-0.1762 -1.2441,0.6246 -2.1128,1.4671 -3.2135,2.5569 -2.2016,2.1796 -5.3154,5.5224 -7.2181,6.7347 -1.9028,1.2121 -2.4971,0.9776 -3.5182,0.461 -1.021,-0.5167 -1.8289,-1.2217 -3.44,-5.2004 -1.6108,-3.9787 -3.601,-10.7998 -5.5691,-14.7601 -0.4921,-0.9902 -0.986,-1.8355 -1.6935,-2.5961 -0.7076,-0.7606 -1.7917,-1.4797 -3.0626,-1.5956 -1.2711,-0.1159 -2.3748,0.3517 -3.1942,0.8858 -0.8192,0.5341 -1.4819,1.1752 -2.1796,1.9198 -2.7906,2.9782 -6.3163,8.0987 -9.0819,11.4767 -2.7657,3.378 -4.6127,4.952 -6.8743,6.2651 -2.2615,1.3131 -4.9571,2.3065 -7.4611,2.8671 -1.252,0.2803 -2.3929,0.4249 -3.1632,0.3911 -0.7705,-0.034 -1.0357,-0.2053 -1.1094,-0.2738 -0.074,-0.069 -0.4616,-0.69 -0.749,-1.5871 -0.2875,-0.8972 -0.4563,-1.9062 -0.9781,-3.0936 -0.2608,-0.5936 -0.6302,-1.245 -1.3244,-1.8107 -0.6944,-0.5658 -1.7205,-0.8834 -2.5346,-0.8719 -1.6285,0.024 -2.4995,0.6409 -3.5601,1.2519 -2.1212,1.222 -4.9168,3.1442 -7.6958,4.4041 -2.7793,1.2598 -6.2042,2.0754 -9.842,4.2111 -3.638,2.1358 -6.8839,5.2383 -8.9003,6.7597 -2.0164,1.5216 -2.3331,1.5697 -3.7054,1.4951 -1.3723,-0.074 -3.1683,-0.6303 -4.2,-1.6124 -0.5159,-0.491 -1.1347,-1.3886 -1.8527,-2.4032 -0.7181,-1.0146 -1.49,-2.2799 -3.2443,-3.0879 -1.7544,-0.8078 -3.5034,-0.472 -4.8623,-0.017 -1.359,0.4552 -2.5802,1.091 -3.8368,1.6794 -2.5133,1.1769 -5.5032,2.3988 -8.0368,3.046 -2.5334,0.6472 -4.6506,0.7091 -6.0388,0.3381 -1.3881,-0.3711 -3.2269,-1.8166 -6.4272,-2.188 -3.2001,-0.3714 -6.2931,0.5173 -8.6766,0.8578 -1.1918,0.1703 -1.9658,0.1388 -2.2216,0.053 -0.2557,-0.086 -0.379,-0.03 -0.8048,-1.0731 -0.4257,-1.0438 -0.8772,-3.306 -1.1931,-5.628 -0.3161,-2.3219 -0.5487,-4.7313 -0.8692,-6.6312 -0.3204,-1.8999 -0.7228,-3.5019 -1.9421,-4.8315 -1.2193,-1.3297 -2.7645,-1.7748 -4.2167,-2.1265 -1.4523,-0.3518 -3.1429,-0.6759 -4.5214,-1.1319 -1.3786,-0.4558 -2.227,-1.1237 -2.2804,-1.2099 -0.053,-0.086 -0.206,-0.8874 0.039,-2.1937 0.2452,-1.3061 0.7638,-2.8343 1.0005,-4.5045 0.2365,-1.6703 -0.014,-3.3608 -0.7098,-4.6807 -0.6961,-1.3199 -1.6152,-2.1953 -2.5234,-3.0823 -1.8166,-1.7738 -4.2439,-4.0726 -5.3931,-5.7397 -0.5746,-0.8335 -0.5517,-1.1732 -0.5757,-1.02 -0.024,0.1533 -0.09,-0.1591 1.3022,-0.9445 2.7856,-1.571 10.4459,-3.7848 15.1708,-4.4571 4.7249,-0.6722 6.7699,0.094 9.7386,-0.5058 1.4844,-0.3001 2.6031,-1.0042 3.4036,-1.5565 0.8006,-0.5522 1.3393,-0.9536 1.8555,-1.1904 1.0324,-0.4737 3.2974,-0.8052 6.5306,-1.0507 3.2331,-0.2455 7.3768,-0.4856 11.1805,-1.2463 3.8036,-0.7608 6.9688,-1.9617 9.121,-3.2025 2.1521,-1.2406 3.4282,-3.0775 4.2699,-4.9824 0.8417,-1.9049 1.9972,-4.3287 2.6771,-4.9713 0.6798,-0.6427 1.7174,-0.8145 3.8311,-0.8942 2.1136,-0.08 4.5618,-0.027 6.852,-0.545 1.145,-0.2589 2.3962,-0.7304 3.4343,-1.6905 1.0382,-0.9602 1.6946,-2.2878 2.0427,-3.7082 0.6963,-2.8409 0.8473,-6.0757 -0.3354,-8.9785 -0.5913,-1.4514 -1.9941,-2.6803 -3.2415,-3.0823 -1.2473,-0.4026 -2.17,-0.3452 -2.9145,-0.3912 -1.489,-0.091 -3.0796,-0.3881 -4.0938,-0.9892 -0.5072,-0.3006 -1.1572,-0.86 -1.9198,-1.4894 -0.7627,-0.6295 -1.5999,-1.4841 -3.3086,-1.769 -1.7088,-0.2847 -2.7515,0.329 -3.5434,0.6121 -0.7918,0.283 -1.5823,0.5387 -3.0348,0.6147 -2.9048,0.152 -8.9813,-0.7466 -13.8882,-0.5393 -4.9069,0.2073 -8.2969,1.6657 -9.9426,2.0652 -1.6457,0.3993 -1.6024,0.3614 -2.3222,-0.2572 -0.7198,-0.6186 -1.9836,-2.9864 -4.8288,-4.3733 -2.8452,-1.387 -5.6076,-0.6125 -8.1737,0.05 -2.5659,0.6628 -5.2668,1.4555 -8.0702,1.6738 -2.8035,0.2185 -6.384,-0.171 -10.3309,0.4165 -3.947,0.5873 -7.579,2.0841 -10.127,2.895 -2.5482,0.8108 -3.5621,1.0065 -5.5749,0.3409 -2.0128,-0.6657 -5.1743,-2.6216 -7.0616,-4.3678 -1.8872,-1.7461 -2.4672,-3.1068 -2.4758,-3.968 -0.014,-0.8612 0.5356,-2.1071 2.3446,-4.0267 0.9044,-0.9599 2.147,-2.0963 3.2442,-3.278 0.5487,-0.5907 1.0662,-1.1882 1.5202,-1.9057 0.4541,-0.7176 0.9676,-1.6009 0.8692,-2.9789 -0.099,-1.3781 -0.9824,-2.448 -1.7159,-3.004 -0.7336,-0.5559 -1.4256,-0.8395 -2.1069,-1.0899 -1.3627,-0.5005 -2.7461,-0.8102 -3.7279,-1.1317 -1.9635,-0.643 -3.1563,-1.4522 -4.3481,-2.2467 -0.353,-0.2352 -0.2414,-0.1259 -0.2766,-0.1452 0.014,-0.054 0.014,-0.014 0.033,-0.097 0.1856,-0.6466 0.8783,-2.2004 1.3915,-3.9905 0.5134,-1.7902 0.9392,-4.0638 -0.064,-6.4049 -1.0033,-2.341 -2.8548,-3.669 -4.5017,-4.7784 -1.6261,-1.0954 -3.2093,-1.9892 -3.834,-2.4731 0.7333,-0.8006 2.3215,-1.9948 4.2726,-3.6887 2.0011,-1.7371 4.0076,-3.7238 5.9549,-5.0942 1.9474,-1.3703 4.0569,-2.3228 6.2624,-2.9957 2.2054,-0.6727 4.6398,-1.0816 7.1424,-1.7521 1.2515,-0.335 2.5017,-0.7079 3.6915,-1.3469 0.5949,-0.3193 1.2024,-0.6953 1.7802,-1.3859 0.5775,-0.6907 1.0812,-1.9204 0.8942,-3.1046 -0.374,-2.3685 -1.7766,-3.0466 -3.0684,-3.8982 -1.2917,-0.8516 -2.8372,-1.6039 -4.5298,-2.2944 -3.385,-1.3806 -6.5141,-2.7094 -7.0502,-3.5657 -0.2682,-0.4281 -0.4994,-1.7187 -1.1262,-3.5042 -0.6268,-1.7854 -2.337,-4.1378 -5.153,-4.9126 -2.8158,-0.7746 -5.8933,-0.5168 -9.2635,-0.5671 -3.3701,-0.05 -6.8701,-0.3093 -9.5988,-1.3358 -5.4575,-2.0531 -9.8543,-7.9844 -13.0248,-12.4603 -3.1706,-4.4761 -5.4658,-7.5783 -9.8839,-9.4089 -4.4182,-1.8306 -10.2314,-2.5301 -13.1087,-3.5965 -2.8231,-1.0461 -3.395,-2.087 -4.0966,-3.1661 0.6926,-1.0919 2.5248,-3.4187 4.8372,-5.4351 2.3481,-2.0475 5.3909,-3.9923 7.8439,-5.2284 2.453,-1.236 4.8351,-1.6426 6.7961,-4.0239 1.438,-1.7463 1.3677,-3.1418 1.6403,-4.1637 0.07,-0.2638 0.103,-0.3229 0.1621,-0.4918 1.6766,-0.3905 4.1273,-0.9594 6.279,-1.0479 2.4199,-0.1002 4.6852,0.3685 6.9833,0.6203 2.2981,0.2517 4.3352,0.1707 6.321,-0.2822 1.9858,-0.4529 3.2735,-1.0286 6.1198,-1.2379 2.8463,-0.2095 7.2965,0.014 11.0854,1.0926 3.789,1.0798 7.3307,3.1123 9.7917,4.2475 1.2305,0.5676 2.1416,0.9698 3.44,0.9669 1.2984,0 2.7267,-0.9882 3.2051,-1.5761 0.9569,-1.1755 1.5767,-2.7684 1.7829,-4.7924 0.2062,-2.0241 0.086,-4.3069 -0.7406,-6.4524 -0.4129,-1.0727 -1.2396,-2.2902 -2.3724,-3.1213 -1.1327,-0.8312 -2.4496,-1.3892 -4.2475,-2.012 -3.5959,-1.2457 -9.423,-2.7537 -15.5901,-3.6607 -6.1671,-0.9069 -12.3302,-1.2059 -16.6296,-2.353 -4.2995,-1.1469 -6.91,-3.0143 -8.4029,-5.5888 -1.4928,-2.5746 -2.0378,-6.6286 -2.6407,-10.4344 -0.6029,-3.8058 -1.3947,-7.3228 -3.6076,-10.6552 -2.2128,-3.3322 -5.4174,-6.2531 -6.1309,-7.3828 -0.3569,-0.5648 -0.2347,-0.4658 -0.2404,-0.4331 0,0.033 0.103,-0.2735 0.5785,-0.8747 0.9521,-1.2024 3.308,-3.2451 3.6103,-6.729 0.3025,-3.4838 -1.0603,-5.4085 -0.7685,-8.456 0.2921,-3.0474 2.5246,-7.5489 4.1498,-8.4643 0.8126,-0.4577 1.8973,-0.5759 3.4678,-0.2516 1.5707,0.3245 3.4813,1.1133 5.4072,2.0987 3.8522,1.9708 7.7432,4.6798 12.4018,6.9666 4.6585,2.2868 9.6543,3.9865 13.2511,4.499 1.7984,0.2563 3.3663,0.3151 4.9489,-0.5281 1.5827,-0.8433 2.4429,-2.8306 2.4619,-4.2867 0.017,-1.3348 -0.016,-1.7394 -0.073,-1.6907 0.1572,-0.083 0.5608,-0.2626 1.4699,-0.3772 3.9055,-0.4926 15.1003,0.7263 22.4867,2.5904 7.3863,1.8642 11.4688,4.2066 14.2236,5.5721 1.3772,0.6829 2.1388,1.1817 3.6663,1.2827 0.7637,0.05 2.155,-0.2571 2.934,-1.2435 0.7791,-0.9863 0.7566,-1.8663 0.7406,-2.4284 -0.064,-2.2486 -1.1256,-4.4261 -4.2671,-9.1043 -3.1415,-4.6781 -8.5139,-11.7243 -10.7893,-15.4671 -1.0716,-1.7627 -1.3354,-2.6651 -1.3944,-2.9481 0.02,-0.014 0,-0.016 0.042,-0.032 0.2148,-0.084 0.8415,-0.2439 2.0539,-0.2851 1.2124,-0.041 3.1363,0.036 5.111,-0.079 1.9746,-0.1131 4.0748,-0.2723 6.0388,-1.6598 1.9638,-1.3876 2.6181,-3.4952 2.9201,-5.0692 0.3021,-1.5739 0.4068,-2.9543 0.5058,-3.2918 0.099,-0.3374 -0.074,-0.066 0.036,-0.1231 0.1116,-0.056 0.6989,-0.2206 1.6599,-0.324 1.9221,-0.2069 4.6278,0.066 7.3326,-1.4419 1.3523,-0.7538 2.6832,-2.7723 2.3836,-4.65 -0.2996,-1.8778 -1.4045,-3.1413 -2.9007,-4.4711 -2.992,-2.6596 -8.1512,-5.6033 -14.0196,-8.0117 -5.8683,-2.4082 -12.203,-4.0901 -18.4878,-5.4966 -6.2849,-1.4065 -12.5548,-2.7215 -15.006,-4.1021 -2.4519,-1.3809 -2.3743,-2.4419 -2.4647,-4.5746 -0.09,-2.1326 0.1201,-5.3484 -2.1321,-9.0175 -2.2526,-3.6693 -6.0372,-7.3483 -7.9222,-11.351 -1.8852,-4.0027 -2.047,-9.1612 -1.5007,-10.834 0.2732,-0.8365 0.176,-0.6829 0.749,-0.8802 0.573,-0.1975 2.0477,-0.3295 4.267,-0.2488 4.4385,0.1613 11.4763,0.88 17.9878,1.1486 6.5114,0.2685 12.3537,0.076 15.8581,-0.1985 1.7523,-0.1373 3.0138,-0.2635 4.2811,-0.7265 1.2674,-0.4631 2.3948,-1.4522 3.0571,-2.3836 1.3247,-1.8629 2.2612,-4.14 2.6017,-6.3853 0.1702,-1.1227 0.057,-2.5914 -0.5925,-3.7557 -0.6493,-1.1645 -1.52,-1.9108 -2.5596,-2.7442 -2.0793,-1.6665 -5.156,-3.7676 -7.3968,-6.2455 -2.241,-2.4779 -3.9011,-5.5843 -4.8372,-8.5035 -0.9363,-2.9191 -0.9366,-5.3493 -0.3466,-6.4999 0.5902,-1.1504 2.5944,-2.4553 4.5242,-3.75 1.9299,-1.2948 3.2391,-2.6843 4.1414,-4.2364 0.9023,-1.5521 1.4225,-2.7945 2.2467,-3.6188 0.8243,-0.8242 2.9842,-2.0308 5.7509,-4.5409 2.7668,-2.5101 5.8275,-6.0108 8.0172,-7.5952 2.1898,-1.5845 4.333,-1.8321 7.137,-3.6579 2.804,-1.8259 4.9461,-4.5409 6.1086,-5.6391 0.5813,-0.5493 1.0042,-0.8284 1.6013,-1.3414 0.597,-0.513 1.6214,-1.8946 1.5984,-3.2751 -0.023,-1.3805 -0.4069,-1.9677 -0.7015,-2.8084 -0.2946,-0.8407 -0.6245,-1.8228 -0.911,-3.1801 -0.5728,-2.7146 -0.6529,-7.3309 -0.19,-8.523 0.2315,-0.596 0.422,-0.7367 0.8887,-0.9752 0.4665,-0.2386 1.217,-0.4225 2.0986,-0.598 0.8816,-0.1756 1.6906,-0.3121 2.5932,-0.6427 0.9027,-0.3307 2.1803,-1.0554 2.7581,-2.4675 0.5777,-1.4122 0.2692,-2.7397 -0.1677,-3.8368 -0.437,-1.0971 -1.0892,-2.1723 -1.998,-3.4762 -1.8177,-2.608 -4.6947,-6.1006 -5.9298,-7.8887 -0.6175,-0.8941 -0.6574,-1.0722 -0.6819,-1.2323 -0.024,-0.1602 -2e-4,-0.7507 0.1985,-2.0987 0.3976,-2.6959 1.1586,-7.5233 1.8863,-11.2112 0.7275,-3.6878 1.4794,-6.2176 2.1684,-7.4499 0.3445,-0.6162 0.4898,-0.7398 0.774,-0.8942 0.2845,-0.1545 0.9169,-0.3592 2.2329,-0.4053 2.6318,-0.092 7.5722,0.5706 11.1217,0.3298 3.5496,-0.2408 5.2765,-1.6661 6.0361,-1.9337 0.7596,-0.2677 3.1526,-0.4203 6.0555,-1.115 2.9027,-0.6947 6.0193,-1.9873 9.406,-3.8731 3.3865,-1.8858 6.8524,-4.1868 9.7889,-5.2591 2.9364,-1.0724 6.0152,-0.9854 9.0623,-2.4479 3.0469,-1.4626 4.4108,-4.8251 4.0128,-7.6009 -0.1991,-1.3879 -0.669,-2.4878 -1.0061,-3.3337 -0.2903,-0.729 -0.3621,-1.0909 -0.3883,-1.0256 0.034,-0.059 0.05,-0.085 0.1872,-0.3269 0.3963,-0.6984 1.0181,-1.9502 1.3245,-3.6495 0.6128,-3.3986 0.342,-8.1109 0.4667,-11.5774 0.1245,-3.4664 0.6626,-4.9837 1.2072,-5.4519 0.5447,-0.4682 2.7981,-1.0084 4.8903,-1.0619 2.0921,-0.053 4.0893,0.1712 6.6199,-0.3241 2.5305,-0.4953 5.294,-1.5974 7.3745,-3.8228 2.0804,-2.2253 2.8582,-4.4485 3.2695,-4.8455 0.4112,-0.3971 1.3804,-0.7091 3.1102,-0.5729 0.8649,0.068 2.0242,0.298 3.4176,0.2823 1.3934,-0.016 3.5827,-0.5632 4.6722,-2.4172 1.0896,-1.8541 0.9429,-3.4801 0.8635,-5.1781 -0.079,-1.698 -0.3229,-3.4431 -0.5141,-4.9405 -0.1913,-1.4975 -0.3203,-2.7484 -0.3019,-3.5573 0.019,-0.809 0.186,-1.0106 0.1031,-0.911 -0.083,0.1 0.1801,-0.1436 0.8578,-0.3214 0.6778,-0.1777 1.6348,-0.3007 2.624,-0.4499 1.9786,-0.2983 4.043,-0.8561 6.1561,-2.3529 2.1132,-1.4968 4.2899,-3.6904 6.3295,-5.7006 2.0394,-2.0103 3.8902,-3.8175 5.5049,-5.0691 1.6148,-1.2516 2.8535,-1.9236 4.7478,-2.3334 1.8943,-0.4097 5.2816,-0.5009 9.1126,-2.2579 3.8309,-1.7569 7.3696,-4.5058 9.9844,-5.1529 2.615,-0.6471 5.6724,0.227 8.8166,0.9585 3.144,0.7316 5.2977,0.9711 6.9943,1.7046 1.6966,0.7335 3.6607,2.2716 5.4184,3.3701 0.8789,0.5493 1.7942,1.0355 2.9509,1.2016 1.1568,0.1661 2.3357,-0.1198 3.2472,-0.5226 1.8231,-0.8055 3.647,-2.1917 5.3261,-3.9736 1.6792,-1.782 3.0261,-3.342 3.1327,-3.3953 0.053,-0.027 0.034,-0.073 0.6426,0.011 0.6083,0.084 1.6832,0.3626 3.1661,0.7573 2.9658,0.7894 7.1669,1.9278 10.0824,2.1769 1.4576,0.1244 2.9248,0.088 4.2278,-0.9641 1.3031,-1.0517 1.5103,-2.4435 1.6321,-3.1828 0.2435,-1.4788 0.3704,-3.1605 0.6538,-4.6025 0.2833,-1.4419 0.4828,-2.1955 1.7661,-3.4734 1.2834,-1.2779 4.1775,-3.0814 5.4686,-3.5546 0.6457,-0.2365 0.5922,-0.1652 0.6037,-0.162 z m -40.209,623.2996 c 2.2902,1.4229 4.6349,2.4467 6.9105,2.5905 2.6505,0.1674 4.5399,-0.87 5.1503,-1.1457 0.074,0.049 0.3714,0.1883 1.14,0.8942 1.7866,1.6406 5.0892,5.3274 7.8972,7.721 2.8078,2.3936 5.1379,3.6403 7.7014,3.3309 1.2816,-0.1546 2.5185,-0.9022 3.2526,-1.7521 0.7343,-0.8498 1.1186,-1.7177 1.4587,-2.568 0.3946,-0.9865 0.5757,-1.4903 0.8663,-2.2775 1.8797,1.5358 5.1863,4.6531 7.8301,6.8771 2.7324,2.2987 5.0468,3.7542 7.9333,4.4068 2.8865,0.6527 6.0296,0.6078 8.1458,0.5869 1.058,-0.014 1.9787,0.02 3.099,-0.246 1.1201,-0.2658 2.6125,-1.2461 3.2023,-2.5541 0.5899,-1.308 0.5651,-2.4011 0.5142,-3.5294 -0.052,-1.1281 -0.22,-2.2807 -0.4304,-3.4203 -0.087,-0.4745 -0.1302,-0.6404 -0.2263,-1.1066 1.2453,0.6971 2.3061,1.2441 3.4428,1.9281 1.0909,0.6566 2.0245,1.2442 2.9146,1.7354 0.89,0.4911 1.6858,0.9713 3.0124,1.0842 1.3266,0.113 2.8373,-0.6577 3.5377,-1.4531 0.7003,-0.7953 0.9869,-1.4937 1.2855,-2.135 0.1927,-0.414 0.2514,-0.4966 0.3464,-0.6622 0.3508,0.1216 1.2131,0.468 2.3026,1.1234 1.2363,0.7437 2.6101,1.6792 3.8675,2.4815 2.5149,1.6043 4.4257,2.8892 7.0951,2.6267 2.6694,-0.2626 4.0812,-2.1606 5.0356,-3.3813 0.4772,-0.6104 0.67,-0.7549 0.6035,-0.721 -0.066,0.034 -0.1202,-0.113 0.8132,0.1789 1.8663,0.585 6.7364,3.5152 10.3506,6.1254 1.8071,1.3052 3.435,2.6259 5.2534,3.5685 0.9094,0.4712 1.8996,0.876 3.1019,0.9501 0.032,0 0.066,-0.014 0.097,-0.014 0.276,9.1651 0.5577,18.7093 0.8159,26.9075 0.1554,4.9292 0.3075,9.6851 0.4779,14.2934 0.1706,4.6083 0.3598,9.0678 0.5896,13.3965 0.4596,8.6575 1.0814,16.7981 2.0428,24.5854 0.721,5.8405 1.6298,11.4683 2.7273,16.7722 0.3659,1.768 0.7513,3.5005 1.1598,5.1921 0.4083,1.6914 0.8396,3.3423 1.291,4.9489 0.9026,3.213 1.891,6.2479 2.9676,9.0706 0.5384,1.4113 1.0971,2.7704 1.6794,4.0715 1.6286,3.6384 3.3995,6.7544 5.1251,9.4116 1.7255,2.6572 3.4073,4.8548 4.8651,6.6536 0.9718,1.1992 1.8419,2.2219 2.5596,3.0851 -3.2205,0.4962 -10.3231,0.8431 -24.2221,0.9975 -29.8715,0.3319 -89.653,0.1431 -119.702,-0.3521 -7.5122,-0.1231 -13.1733,-0.2683 -17.426,-0.4247 -3.7268,-0.1373 -6.0033,-0.2855 -7.8607,-0.4359 0,0 0.029,-0.067 0.03,-0.073 -0.5147,-0.056 -1.166,-0.1073 -1.5594,-0.1677 2.8711,-3.4526 8.2069,-9.4479 12.5498,-19.1502 4.6591,-10.4085 7.9024,-24.4807 9.8252,-40.0553 1.9228,-15.5746 2.4891,-32.5584 3.1102,-52.2754 0.4578,-14.5326 0.9553,-31.2633 1.4474,-47.698 z"/></g></svg>