<svg version="1.1" id="svg1" width="5078.9116" height="5263.5273" viewBox="310.86303521163853 4265.726100453753 562.0682510718534 834.1680181957681" sodipodi:docname="trees3.svg" inkscape:version="1.4.2 (f4327f4, 2025-05-13)" xmlns:inkscape="http://www.inkscape.org/namespaces/inkscape" xmlns:sodipodi="http://sodipodi.sourceforge.net/DTD/sodipodi-0.dtd" xmlns="http://www.w3.org/2000/svg" xmlns:svg="http://www.w3.org/2000/svg"><defs id="defs1"/><g><path d="m 586.63828,4266.7276 c -5.6872,-0.028 -11.106,0.3355 -15.8672,1.1425 -5.1333,0.8701 -16.3876,4.4318 -25.0078,7.9161 -12.2405,4.9476 -17.7288,8.0496 -25.0644,14.1601 -13.1795,10.9784 -31.5937,30.651 -33.9356,36.2559 -1.0827,2.5914 -4.4644,7.6935 -7.5156,11.3379 -5.7864,6.9112 -16.1159,24.6337 -25.3301,43.4589 -2.9664,6.0606 -6.4743,11.598 -7.7949,12.3047 -1.3206,0.7068 -7.8554,1.9031 -14.5215,2.6582 -25.6234,2.9027 -46.6464,15.6509 -64.1816,38.9219 -12.1463,16.1193 -17.6223,28.264 -26.1426,57.9746 -6.0527,21.1061 -7.5787,28.3408 -7.5449,35.7871 0.046,10.1927 5.373,33.023 12.4433,53.334 4.3911,12.6145 6.1774,23.506 4.7735,29.0996 -0.4606,1.8349 -3.1128,5.7748 -5.8926,8.7559 -23.7632,25.4837 -37.9848,84.7496 -31.711,132.1445 2.8654,21.6458 6.2236,34.5098 12.9668,49.6778 3.013,6.7771 6.8994,15.8911 8.6387,20.2539 1.7393,4.3627 4.6126,9.4634 6.3848,11.3339 1.7722,1.8706 5.5197,6.8239 8.3281,11.0079 6.1125,9.1063 29.7115,35.6792 35.832,40.3476 24.3632,18.5827 49.804,30.1538 79.543,36.1797 20.7857,4.2117 45.8544,0.2181 73.4805,-11.707 12.1518,-5.2455 16.1089,-6.436 17.33,-5.2149 3.2884,3.2883 0.3592,29.8275 -10.5351,95.4551 -5.7755,34.7914 -8.7236,47.4333 -14.1016,60.4531 -3.7102,8.9823 -4.2324,11.7935 -4.3301,23.3164 -0.099,11.6235 0.1891,13.3263 2.5547,15.0938 2.2976,1.7166 11.4039,1.9333 65.7852,1.5644 l 63.1191,-0.4277 2.5469,-3.1484 c 1.4015,-1.7313 2.5396,-4.7306 2.5274,-6.6661 -0.021,-3.2794 -1.9746,-13.1074 -17.8497,-89.8339 -9.6037,-46.4163 -14.5907,-84.3508 -12.2929,-93.5059 1.1256,-4.4847 5.1195,-4.6233 10.7051,-0.3711 13.6001,10.3536 26.1829,13.4451 54.79286,13.4629 42.1921,0.026 66.2681,-8.5179 101.48049,-36.0137 18.473,-14.4248 26.9819,-22.9971 31.1308,-31.3593 2.1008,-4.2342 6.2389,-11.2617 9.1954,-15.6153 24.7855,-36.4982 37.5831,-95.678 30.3398,-140.2969 -3.9017,-24.0342 -19.4699,-60.3492 -33.4336,-77.9863 -11.1889,-14.1324 -10.9655,-13.0376 -5.5019,-27.0195 11.0425,-28.2594 13.2882,-82.1979 4.6093,-110.711 -8.1045,-26.6263 -35.2748,-66.6263 -49.93939,-73.5195 -7.2682,-3.4164 -21.9069,-8.1117 -27.4903,-8.8183 -6.0014,-0.7596 -19.7248,-4.8535 -20.5058,-6.1172 -0.3901,-0.6312 -1.7689,-1.1485 -3.0645,-1.1485 -3.6516,0 -7.482,-4.9391 -15.5566,-20.0664 -13.2842,-24.8871 -34.27256,-54.7802 -46.32226,-65.9746 -10.9027,-10.1289 -29.0223,-23.2789 -39.1386,-28.4043 -11.3959,-5.7736 -30.874,-9.388 -47.9356,-9.4726 z" id="path66" style="fill:#ffffff"/><path id="path16" style="display:inline;fill:#1a1a1a" d="m 586.63828,4266.7276 c -5.6872,-0.028 -11.106,0.3355 -15.8672,1.1425 -5.1333,0.8701 -16.3876,4.4318 -25.0078,7.9161 -12.2405,4.9476 -17.7288,8.0496 -25.0644,14.1601 -13.1795,10.9784 -31.5937,30.651 -33.9356,36.2559 -1.0827,2.5914 -4.4644,7.6935 -7.5156,11.3379 -5.7864,6.9112 -16.1159,24.6337 -25.3301,43.4589 -2.9664,6.0606 -6.4743,11.598 -7.7949,12.3047 -1.3206,0.7068 -7.8554,1.9031 -14.5215,2.6582 -25.6234,2.9027 -46.6464,15.6509 -64.1816,38.9219 -12.1463,16.1193 -17.6223,28.264 -26.1426,57.9746 -6.0527,21.1061 -7.5787,28.3408 -7.5449,35.7871 0.046,10.1927 5.373,33.023 12.4433,53.334 4.3911,12.6145 6.1774,23.506 4.7735,29.0996 -0.4606,1.8349 -3.1128,5.7748 -5.8926,8.7559 -23.7632,25.4837 -37.9848,84.7496 -31.711,132.1445 2.8654,21.6458 6.2236,34.5098 12.9668,49.6778 3.013,6.7771 6.8994,15.8911 8.6387,20.2539 1.7393,4.3627 4.6126,9.4634 6.3848,11.3339 1.7722,1.8706 5.5197,6.8239 8.3281,11.0079 6.1125,9.1063 29.7115,35.6792 35.832,40.3476 24.3632,18.5827 49.804,30.1538 79.543,36.1797 20.7857,4.2117 45.8544,0.2181 73.4805,-11.707 12.1518,-5.2455 16.1089,-6.436 17.33,-5.2149 3.2884,3.2883 0.3592,29.8275 -10.5351,95.4551 -5.7755,34.7914 -8.7236,47.4333 -14.1016,60.4531 -3.7102,8.9823 -4.2324,11.7935 -4.3301,23.3164 -0.099,11.6235 0.1891,13.3263 2.5547,15.0938 2.2976,1.7166 11.4039,1.9333 65.7852,1.5644 l 63.1191,-0.4277 2.5469,-3.1484 c 1.4015,-1.7313 2.5396,-4.7306 2.5274,-6.6661 -0.021,-3.2794 -1.9746,-13.1074 -17.8497,-89.8339 -9.6037,-46.4163 -14.5907,-84.3508 -12.2929,-93.5059 1.1256,-4.4847 5.1195,-4.6233 10.7051,-0.3711 13.6001,10.3536 26.1829,13.4451 54.79286,13.4629 42.1921,0.026 66.2681,-8.5179 101.48049,-36.0137 18.473,-14.4248 26.9819,-22.9971 31.1308,-31.3593 2.1008,-4.2342 6.2389,-11.2617 9.1954,-15.6153 24.7855,-36.4982 37.5831,-95.678 30.3398,-140.2969 -3.9017,-24.0342 -19.4699,-60.3492 -33.4336,-77.9863 -11.1889,-14.1324 -10.9655,-13.0376 -5.5019,-27.0195 11.0425,-28.2594 13.2882,-82.1979 4.6093,-110.711 -8.1045,-26.6263 -35.2748,-66.6263 -49.93939,-73.5195 -7.2682,-3.4164 -21.9069,-8.1117 -27.4903,-8.8183 -6.0014,-0.7596 -19.7248,-4.8535 -20.5058,-6.1172 -0.3901,-0.6312 -1.7689,-1.1485 -3.0645,-1.1485 -3.6516,0 -7.482,-4.9391 -15.5566,-20.0664 -13.2842,-24.8871 -34.27256,-54.7802 -46.32226,-65.9746 -10.9027,-10.1289 -29.0223,-23.2789 -39.1386,-28.4043 -11.3959,-5.7736 -30.874,-9.388 -47.9356,-9.4726 z m -0.059,9.5195 c 6.6296,-0.191 13.2863,0.6298 20.3106,2.4199 22.0021,5.6074 41.789,17.5063 62.8574,37.7988 16.1499,15.5552 21.2523,22.9005 37.62686,54.1797 6.7183,12.8334 13.7317,24.9205 15.586,26.8594 3.5599,3.7225 7.5285,5.0351 25.7285,8.5098 28.9563,5.5282 47.09099,19.0332 64.13279,47.7578 15.3141,25.8125 20.7742,48.3377 19.582,80.791 -0.8683,23.6367 -3.6155,35.1361 -13.1094,54.8691 l -6.7929,14.1192 9.8262,12.5703 c 11.7506,15.0323 20.8107,30.1777 26.3496,44.0488 26.2858,65.8284 12.586,138.6973 -36.668,195.0352 -10.1756,11.6391 -25.42949,25.5668 -35.86129,32.7441 -8.5424,5.8773 -26.2352,13.9143 -36.711,16.6778 -13.2076,3.484 -51.34946,4.3579 -64.31826,1.4726 -10.6804,-2.3761 -25.3205,-9.2744 -38.0918,-17.9473 -10.6844,-7.2556 -11.5127,-9.8537 -8.8516,-27.7753 9.425,-63.4739 36.0241,-88.4331 132.59566,-124.4161 41.65809,-15.5219 55.36369,-25.384 40.99999,-29.5039 -8.6151,-2.471 -40.57119,-2.033 -56.27929,0.7715 -39.6799,7.0846 -73.14066,21.4011 -104.72066,44.8067 -14.0879,10.4412 -20.7199,14.3367 -22.084,12.9726 -1.2356,-1.2356 6.016,-40.4514 11.4082,-61.6953 6.6906,-26.359 15.3517,-50.0899 27.3829,-75.0352 20.6455,-42.8062 40.85706,-71.7108 79.92566,-114.2988 10.091,-11 20.7989,-23.2174 23.7969,-27.1504 5.2898,-6.9394 5.3741,-7.2088 2.8438,-9.0957 -5.73,-4.2728 -21.4736,2.311 -38.8497,16.2461 -12.3581,9.9109 -49.38226,47.027 -63.84166,64 -5.6226,6.6 -16.2764,20.3537 -23.6758,30.5645 -13.9257,19.2165 -22.1007,28.7695 -24.6192,28.7695 -2.2371,0 -2.6097,-6.1646 -4.9297,-81.334 -3.6048,-116.7999 -7.1701,-159.8665 -13.9238,-168.207 -2.9172,-3.6027 -5.8681,-2.67 -9.2734,2.9297 -6.0375,9.9278 -7.8087,32.8516 -9.4727,122.5097 -1.2281,66.1761 -3.1455,111.1838 -5.1621,121.2344 l -0.8945,4.4668 -15.1641,-19.6602 c -44.6562,-57.9056 -88.2197,-101.8028 -116.1347,-117.0234 -10.5727,-5.7647 -16.9829,-7.1484 -20.6368,-4.4531 -2.6061,1.9225 -2.5988,2.0015 0.666,6.582 1.8175,2.5498 12.6112,14.4767 23.9864,26.5039 33.215,35.1191 53.8718,62.8806 73.2558,98.4512 4.5957,8.4333 10.1114,17.944 12.2559,21.1348 2.1445,3.1907 5.3907,8.7459 7.2148,12.3457 11.1128,21.93 36.9497,119.1592 32.4102,121.9648 -1.635,1.0105 -8.6794,-2.9292 -20.6133,-11.5273 -23.8048,-17.1509 -46.4744,-29.2201 -65.8711,-35.0684 -34.629,-10.4409 -77.8873,-15.6259 -91.0879,-10.918 -5.7962,2.0673 -10.2461,5.649 -10.2461,8.25 0,2.8437 25.4254,14.3662 50.7344,22.9922 23.7944,8.1098 51.3945,19.9007 66.9531,28.6016 38.5066,21.5341 62.2559,61.2148 62.3028,104.0976 0.01,9.0073 -0.1051,9.3157 -5.3086,14.2657 -11.4452,10.8875 -30.7413,19.7955 -50.2481,23.1972 -32.5674,5.6793 -63.1892,-1.0281 -92.1914,-20.1953 -14.5598,-9.6223 -43.613,-38.3585 -54.2363,-53.6445 -23.2642,-33.4753 -34.5245,-68.4909 -34.5684,-107.4961 -0.043,-38.6533 9.3641,-66.9368 34.5957,-104.0117 6.2151,-9.1322 11.3008,-17.1263 11.3008,-17.7657 0,-0.6393 -2.7183,-7.648 -6.039,-15.5742 -9.3683,-22.3605 -11.4979,-31.756 -12.2735,-54.1426 -1.5337,-44.2667 11.9152,-82.2834 37.9903,-107.3984 15.3134,-14.7495 32.8285,-21.7754 54.291,-21.7754 h 12.0761 l 9.1172,-18.332 c 27.4344,-55.1676 53.3363,-85.2714 88.17,-102.4687 12.4553,-6.1493 23.4272,-9.2794 34.4765,-9.5977 z m 5.2168,111.4453 c 2.1447,0.4102 2.8205,12.8247 3.7305,57.8418 1.7848,88.297 8.2106,191.7793 11.9101,191.7793 1.6188,0 10.4463,-10.14 26.0274,-29.9004 27.9792,-35.484 47.0156,-57.3814 75.30266,-86.6191 17.1184,-17.6938 34.1253,-32.8145 36.9082,-32.8145 3.3779,0 -1.4102,6.6705 -16.2656,22.666 -36.3277,39.1157 -57.14506,68.8286 -78.00386,111.334 -21.2163,43.2338 -34.427,85.7529 -38.5293,124 -1.8397,17.152 -2.4072,38.782 -1.0528,40.1524 1.6112,1.6301 6.1094,-1.6519 21.5391,-15.7227 7.783,-7.0976 18.3717,-15.6861 23.5293,-19.084 19.6545,-12.9484 47.59676,-26.2075 64.51166,-30.6133 17.2277,-4.4872 66.6191,-10.0117 68.9219,-7.7089 1.3567,1.3567 -11.3338,6.7415 -44.8887,19.0488 -47.7376,17.5092 -83.75406,39.7188 -101.15616,62.3789 -11.7979,15.3625 -17.7401,29.515 -21.3633,50.8828 -7.4355,43.8508 -1.905,104.0942 17.8731,194.7266 3.6079,16.5333 6.9513,33.3913 7.4296,37.4609 l 0.8692,7.3984 -9.8262,0.8848 c -5.4043,0.4862 -28.1255,1.1898 -50.4922,1.5645 -37.0423,0.6204 -44.8794,0.1967 -47.6523,-2.5762 -0.2289,-0.2289 2.0321,-12.0512 5.0234,-26.2715 17.6604,-83.9563 18.3181,-88.9143 19.4492,-146.4922 1.0335,-52.6055 -0.3774,-72.8392 -6.1133,-87.7129 -11.2577,-29.1923 -36.0373,-53.0828 -75.375,-72.6699 -13.9321,-6.9371 -24.1423,-11.1714 -61.623,-25.5605 -8.9594,-3.4396 -17.6277,-7.3374 -19.2637,-8.6622 l -2.9746,-2.4101 2.8809,-0.9141 c 4.0262,-1.2778 33.0064,1.5142 48.9804,4.7188 38.4768,7.719 65.4941,21.6991 104,53.8125 l 18.668,15.5664 0.3848,-14.4317 c 0.649,-24.2979 -5.0978,-54.1332 -17.7559,-92.1679 -19.6936,-59.1751 -43.6729,-100.5863 -89.3261,-154.2637 -13.3134,-15.6534 -21.069,-23.4062 -35.1797,-35.1641 -4.4838,-3.7361 -6.5356,-6.2906 -5.7129,-7.1133 3.1461,-3.1461 18.6084,8.5476 45.4844,34.3985 26.1653,25.1674 48.3262,49.816 71.205,79.1953 23.1638,29.7453 32.2808,39.8364 34.2285,37.8887 1.5832,-1.5832 3.4216,-40.9193 5.3223,-113.8731 2.1922,-84.1423 4.8072,-131.9009 7.3613,-134.455 0.3714,-0.3714 0.7073,-0.5567 1.0137,-0.4981 z"/></g></svg>