<svg version="1.1" id="svg1" width="5078.9116" height="5263.5273" viewBox="3980.7131708504266 2157.680997886585 814.0207291495726 806.498879635079" sodipodi:docname="trees3.svg" inkscape:version="1.4.2 (f4327f4, 2025-05-13)" xmlns:inkscape="http://www.inkscape.org/namespaces/inkscape" xmlns:sodipodi="http://sodipodi.sourceforge.net/DTD/sodipodi-0.dtd" xmlns="http://www.w3.org/2000/svg" xmlns:svg="http://www.w3.org/2000/svg"><defs id="defs1"/><g><path d="m 4386.6359,2158.681 c -1.4833,0 -10.245,10.2103 -10.245,11.9333 0,0.9265 -14.588,16.7537 -25.0405,27.1672 -2.4305,2.4214 -4.4191,5.0324 -4.4191,5.8018 0,0.7694 -1.7819,3.574 -3.96,6.2333 -2.1781,2.6593 -5.6341,8.1501 -7.6782,12.2009 -2.0441,4.0509 -4.1964,7.3641 -4.7833,7.3641 -0.587,0 -4.2485,-3.1818 -8.1374,-7.0706 -3.8888,-3.8888 -7.5698,-7.0706 -8.1805,-7.0706 -0.6107,0 -9.2705,-4.1552 -19.2438,-9.2352 -9.9734,-5.0801 -23.1711,-11.7927 -29.3284,-14.9163 -6.1574,-3.1235 -13.4058,-7.4518 -16.1073,-9.6184 -5.5554,-4.4552 -7.2339,-4.8372 -8.2306,-1.8764 -0.7443,2.2109 -2.7912,6.8505 -8.5586,19.394 -1.9991,4.3479 -3.6354,8.2229 -3.6354,8.6104 0,0.3874 -1.6469,3.9882 -3.6596,8.0027 -6.0196,12.0062 -11.2991,26.7097 -13.4127,37.3501 -2.1298,10.7223 -4.2834,15.3184 -7.1742,15.3184 -0.9908,0 -3.7622,-1.0059 -6.1591,-2.2371 -4.9305,-2.5327 -14.2307,-5.2727 -23.8028,-7.0119 -3.5647,-0.6477 -9.3974,-1.7938 -12.9621,-2.5462 -3.5647,-0.7524 -9.3974,-1.5441 -12.9622,-1.7607 -3.5647,-0.2166 -10.4591,-1.2944 -15.3201,-2.3943 -13.3139,-3.0124 -14.3955,-2.9268 -15.4324,1.2204 -0.4861,1.9444 -2.2497,15.7533 -3.9202,30.687 -3.0714,27.4578 -3.5551,40.3357 -2.0801,55.339 1.2938,13.1605 1.1185,13.5527 -6.047,13.5439 -5.5341,-0.01 -21.768,1.4527 -52.6529,4.7332 -6.1574,0.6541 -15.3049,1.1835 -20.328,1.1773 -11.0008,-0.014 -10.4861,-2.3935 -5.6309,26.0331 5.3223,31.1611 8.4207,43.3009 16.6045,65.0645 4.3671,11.6137 4.466,15.2923 0.4609,17.1171 -1.6508,0.7522 -3.9928,1.3689 -5.2046,1.3689 -1.2117,0 -2.3801,0.3977 -2.5962,0.8838 -1.0006,2.2513 -35.4155,18.4804 -47.067,22.1957 -3.4953,1.1146 -6.969,2.5004 -7.7196,3.0796 -0.9834,0.7587 0.3326,4.4173 4.7126,13.0933 3.3431,6.622 6.6526,13.3579 7.3537,14.9697 2.5001,5.7488 17.8749,31.68 23.1485,39.0418 2.9515,4.1203 8.6065,11.1495 12.5668,15.6206 3.9604,4.471 7.2001,9.0781 7.2001,10.2381 0,1.1755 -4.622,6.1851 -10.4419,11.3154 -17.132,15.1018 -34.0435,29.5283 -35.1527,29.9878 -0.5711,0.2366 -2.2813,2.2002 -3.801,4.3639 l -2.7637,3.9339 21.0719,20.8476 c 23.9479,23.6951 40.0024,36.6642 55.0248,44.4518 5.7112,2.9606 10.7021,6.2167 11.0927,7.2345 0.6935,1.8074 -2.0357,7.4894 -12.8897,26.834 -9.7215,17.3264 -11.7226,20.6108 -13.1054,21.5035 -2.1416,1.3825 -9.035,13.2617 -9.035,15.5705 0,0.6739 0.9294,1.2255 2.0646,1.2255 2.7172,0 20.3261,9.2493 20.3261,10.6767 0,0.609 0.778,1.1082 1.728,1.1082 0.9499,0 6.9157,2.9014 13.2573,6.4474 6.3416,3.5462 16.302,8.0816 22.1352,10.0794 5.8333,1.9978 11.9323,4.3318 13.5526,5.1856 1.6203,0.8537 5.0667,1.9293 7.6592,2.3908 2.5926,0.4613 6.3052,1.5457 8.2496,2.4097 11.4394,5.0835 48.2501,7.0384 64.5811,3.4301 20.757,-4.5864 37.6628,-11.2129 50.0758,-19.6289 7.1101,-4.8205 27.1225,-25.0179 32.0575,-32.3544 2.2685,-3.3723 4.5217,-6.1563 5.0078,-6.1867 0.4861,-0.03 0.8838,-1.117 0.8838,-2.4133 0,-1.2962 0.3977,-2.3588 0.8838,-2.3614 0.4861,0 3.0056,-3.824 5.5981,-8.4896 2.5926,-4.6655 6.8344,-10.6825 9.4269,-13.3712 4.3336,-4.4944 5.3443,-4.9517 12.5392,-5.6724 11.0088,-1.1026 14.7139,0.7067 18.9935,9.2732 5.7293,11.4682 8.0641,46.9131 5.7829,87.7919 -1.7987,32.2325 -6.9199,50.2876 -21.1151,74.4482 -1.7805,3.0306 -4.491,7.7677 -6.0228,10.5265 -1.5317,2.7587 -6.763,9.1914 -11.6243,14.2948 -8.067,8.4686 -8.7742,9.6002 -8.1028,12.9569 0.4046,2.0229 0.8632,3.7368 1.0185,3.8098 0.1553,0.073 3.1985,1.5394 6.7633,3.2573 16.3927,7.9 29.665,10.4132 58.9606,11.1635 16.4052,0.4201 21.3676,0.1138 31.4136,-1.9334 14.1687,-2.8873 20.5924,-3.0556 25.2252,-0.6629 15.3575,7.9318 21.9736,9.313 40.081,8.367 10.1401,-0.5298 15.9391,-0.3467 18.2651,0.5765 1.8744,0.7441 6.0601,2.0624 9.3008,2.9311 6.7005,1.7964 27.8937,1.3803 35.0491,-0.6887 6.1079,-1.7661 6.774,-5.1843 2.5324,-12.9776 -1.812,-3.3292 -4.6457,-6.7581 -6.2973,-7.6179 -4.7741,-2.4852 -16.9385,-13.5643 -19.2921,-17.5711 -1.182,-2.0122 -4.4686,-5.4236 -7.3037,-7.5798 -2.8493,-2.167 -6.843,-6.9104 -8.9297,-10.6059 -5.4143,-9.5884 -16.5106,-35.3123 -17.6246,-40.8595 -3.513,-17.492 -5.9953,-33.6087 -6.898,-44.7797 -1.1429,-14.145 0.1458,-52.1931 2.1578,-63.7026 1.4433,-8.2564 5.6307,-21.6132 7.4848,-23.8735 2.4264,-2.9578 8.0297,-5.0293 15.4893,-5.7258 6.9038,-0.6447 7.8332,-0.4458 11.7262,2.5237 2.7913,2.129 5.9905,6.7196 9.4148,13.5093 5.7485,11.3981 10.6515,19.5359 12.4357,20.6387 0.6431,0.3974 4.9083,5.6962 9.4769,11.7744 4.5685,6.0783 10.9355,13.254 14.1498,15.9452 6.7345,5.6384 24.5076,16.1409 29.2386,17.2776 1.7679,0.4248 5.1568,1.7448 7.5297,2.9328 11.8688,5.9426 43.5075,11.1078 56.6959,9.256 16.0781,-2.2575 36.7463,-6.9551 43.87,-9.9706 1.9444,-0.8231 7.2462,-2.7021 11.7831,-4.1758 10.9047,-3.542 43.0615,-19.5688 44.7522,-22.3044 0.3324,-0.5378 4.5843,-2.8933 9.4493,-5.2339 4.865,-2.3405 8.8451,-4.8344 8.8451,-5.5428 0,-0.7084 -1.523,-2.7107 -3.3851,-4.4502 -1.8621,-1.7394 -4.7296,-5.7981 -6.3714,-9.0177 -1.642,-3.2196 -4.2498,-7.7091 -5.795,-9.9776 -1.5451,-2.2685 -4.0789,-7.3056 -5.6309,-11.1945 -1.5519,-3.8888 -4.0491,-8.2394 -5.5498,-9.6668 -1.5005,-1.4273 -2.7291,-3.2335 -2.7291,-4.0134 0,-0.78 -1.3246,-3.1561 -2.9449,-5.2805 -4.2882,-5.6221 -3.841,-8.229 1.9143,-11.1651 15.8944,-8.1088 41.5839,-27.5818 55.2786,-41.9022 4.883,-5.1061 12.48,-12.4654 16.8806,-16.3542 6.6535,-5.8795 11.362,-11.645 11.362,-13.9115 0,-0.2624 -3.3149,-2.7661 -7.3658,-5.5619 -4.0508,-2.7958 -10.8205,-8.3077 -15.0439,-12.2492 -10.8074,-10.0862 -22.2314,-19.9423 -24.5381,-21.1703 -2.8475,-1.5158 -8.4378,-6.8854 -8.4378,-8.1046 0,-0.575 2.8168,-4.0548 6.2592,-7.7334 3.4425,-3.6787 8.6129,-9.9707 11.4897,-13.9807 2.877,-4.01 7.4666,-10.4212 10.2002,-14.2482 5.1378,-7.1923 15.6516,-26.7062 15.6516,-29.0487 0,-0.7307 0.9401,-2.1322 2.0888,-3.1158 1.1488,-0.9836 2.6979,-3.886 3.442,-6.4492 4.2445,-14.6192 5.3291,-19.3851 4.754,-20.8837 -0.3525,-0.9185 -4.514,-2.6123 -9.249,-3.7631 -4.735,-1.1509 -10.4837,-2.9303 -12.7758,-3.9548 -2.292,-1.0244 -8.6751,-3.9293 -14.1842,-6.4543 -11.7514,-5.3859 -15.9334,-7.2254 -20.2658,-8.9142 -1.7481,-0.6814 -4.0344,-2.5449 -5.0802,-4.1412 -1.5964,-2.4363 -1.6853,-3.7218 -0.5542,-8.0079 0.7412,-2.8082 2.6987,-7.4924 4.3501,-10.409 3.3183,-5.8606 5.712,-15.7049 10.8855,-44.7798 3.2226,-18.1109 5.8088,-29.6641 7.6989,-34.3793 0.9234,-2.3036 -0.5003,-3.1891 -10.5869,-6.5907 -11.8321,-3.9903 -20.7305,-5.0843 -48.9657,-6.0193 -15.6182,-0.5172 -27.5962,-1.4078 -28.291,-2.1025 -0.7397,-0.7397 -1.3424,-12.9934 -1.5605,-31.7365 -0.2714,-23.3193 -0.965,-34.9882 -2.938,-49.3887 -1.4208,-10.3702 -2.8653,-19.7823 -3.2108,-20.9166 -0.4552,-1.4943 -1.8675,-2.0628 -5.1286,-2.0628 -4.1097,0 -39.2854,7.7892 -47.8644,10.599 -1.9905,0.6518 -5.1389,1.1859 -6.9947,1.1859 -1.8558,0 -5.5298,1.0133 -8.165,2.2509 -2.6351,1.2377 -6.6474,2.5257 -8.9159,2.8621 -2.2684,0.3365 -5.665,0.9917 -7.5487,1.4569 -3.993,0.9862 -6.5816,-1.5618 -6.6063,-6.5009 -0.03,-6.0103 -8.0027,-28.3075 -16.8788,-47.2068 -1.9786,-4.2129 -5.1312,-11.901 -7.0068,-17.0861 -5.7132,-15.7945 -6.2965,-17.1509 -8.1875,-19.0418 -2.5179,-2.518 -7.7712,-1.1882 -12.5478,3.1745 -2.0968,1.9152 -5.2418,3.8138 -6.9877,4.2188 -1.7458,0.405 -3.7037,1.3679 -4.3518,2.1405 -0.6481,0.7726 -1.9744,1.7689 -2.9467,2.2148 -5.4396,2.4945 -16.6741,9.2102 -21.2479,12.7015 -2.8987,2.2125 -8.7158,5.5674 -12.9277,7.4538 -8.5811,3.8432 -13.925,7.2853 -16.3507,10.5351 -1.9849,2.6593 -8.4113,5.4738 -12.4995,5.4738 -2.1411,0 -3.6417,-1.0982 -5.2391,-3.8305 -2.733,-4.675 -8.0297,-11.9083 -11.4844,-15.6861 -1.4093,-1.5411 -3.2478,-4.699 -4.086,-7.0171 -0.97,-2.6825 -3.7824,-5.9561 -7.7352,-9.0056 -3.4158,-2.6353 -7.2781,-6.5185 -8.5827,-8.6294 -1.3046,-2.1109 -4.6254,-6.1974 -7.3796,-9.0816 -2.7542,-2.8842 -6.7607,-7.461 -8.9038,-10.1709 -2.143,-2.7098 -4.5293,-4.9256 -5.303,-4.9231 z" id="path69" style="fill:#ffffff"/><path id="path19" style="display:inline;fill:#1a1a1a;stroke-width:0.883822" d="m 4386.6359,2158.681 c -1.4833,0 -10.245,10.2103 -10.245,11.9333 0,0.9265 -14.588,16.7537 -25.0405,27.1672 -2.4305,2.4214 -4.4191,5.0324 -4.4191,5.8018 0,0.7694 -1.7819,3.574 -3.96,6.2333 -2.1781,2.6593 -5.6341,8.1501 -7.6782,12.2009 -2.0441,4.0509 -4.1964,7.3641 -4.7833,7.3641 -0.587,0 -4.2485,-3.1818 -8.1374,-7.0706 -3.8888,-3.8888 -7.5698,-7.0706 -8.1805,-7.0706 -0.6107,0 -9.2705,-4.1552 -19.2438,-9.2352 -9.9734,-5.0801 -23.1711,-11.7927 -29.3284,-14.9163 -6.1574,-3.1235 -13.4058,-7.4518 -16.1073,-9.6184 -5.5554,-4.4552 -7.2339,-4.8372 -8.2306,-1.8764 -0.7443,2.2109 -2.7912,6.8505 -8.5586,19.394 -1.9991,4.3479 -3.6354,8.2229 -3.6354,8.6104 0,0.3874 -1.6469,3.9882 -3.6596,8.0027 -6.0196,12.0062 -11.2991,26.7097 -13.4127,37.3501 -2.1298,10.7223 -4.2834,15.3184 -7.1742,15.3184 -0.9908,0 -3.7622,-1.0059 -6.1591,-2.2371 -4.9305,-2.5327 -14.2307,-5.2727 -23.8028,-7.0119 -3.5647,-0.6477 -9.3974,-1.7938 -12.9621,-2.5462 -3.5647,-0.7524 -9.3974,-1.5441 -12.9622,-1.7607 -3.5647,-0.2166 -10.4591,-1.2944 -15.3201,-2.3943 -13.3139,-3.0124 -14.3955,-2.9268 -15.4324,1.2204 -0.4861,1.9444 -2.2497,15.7533 -3.9202,30.687 -3.0714,27.4578 -3.5551,40.3357 -2.0801,55.339 1.2938,13.1605 1.1185,13.5527 -6.047,13.5439 -5.5341,-0.01 -21.768,1.4527 -52.6529,4.7332 -6.1574,0.6541 -15.3049,1.1835 -20.328,1.1773 -11.0008,-0.014 -10.4861,-2.3935 -5.6309,26.0331 5.3223,31.1611 8.4207,43.3009 16.6045,65.0645 4.3671,11.6137 4.466,15.2923 0.4609,17.1171 -1.6508,0.7522 -3.9928,1.3689 -5.2046,1.3689 -1.2117,0 -2.3801,0.3977 -2.5962,0.8838 -1.0006,2.2513 -35.4155,18.4804 -47.067,22.1957 -3.4953,1.1146 -6.969,2.5004 -7.7196,3.0796 -0.9834,0.7587 0.3326,4.4173 4.7126,13.0933 3.3431,6.622 6.6526,13.3579 7.3537,14.9697 2.5001,5.7488 17.8749,31.68 23.1485,39.0418 2.9515,4.1203 8.6065,11.1495 12.5668,15.6206 3.9604,4.471 7.2001,9.0781 7.2001,10.2381 0,1.1755 -4.622,6.1851 -10.4419,11.3154 -17.132,15.1018 -34.0435,29.5283 -35.1527,29.9878 -0.5711,0.2366 -2.2813,2.2002 -3.801,4.3639 l -2.7637,3.9339 21.0719,20.8476 c 23.9479,23.6951 40.0024,36.6642 55.0248,44.4518 5.7112,2.9606 10.7021,6.2167 11.0927,7.2345 0.6935,1.8074 -2.0357,7.4894 -12.8897,26.834 -9.7215,17.3264 -11.7226,20.6108 -13.1054,21.5035 -2.1416,1.3825 -9.035,13.2617 -9.035,15.5705 0,0.6739 0.9294,1.2255 2.0646,1.2255 2.7172,0 20.3261,9.2493 20.3261,10.6767 0,0.609 0.778,1.1082 1.728,1.1082 0.9499,0 6.9157,2.9014 13.2573,6.4474 6.3416,3.5462 16.302,8.0816 22.1352,10.0794 5.8333,1.9978 11.9323,4.3318 13.5526,5.1856 1.6203,0.8537 5.0667,1.9293 7.6592,2.3908 2.5926,0.4613 6.3052,1.5457 8.2496,2.4097 11.4394,5.0835 48.2501,7.0384 64.5811,3.4301 20.757,-4.5864 37.6628,-11.2129 50.0758,-19.6289 7.1101,-4.8205 27.1225,-25.0179 32.0575,-32.3544 2.2685,-3.3723 4.5217,-6.1563 5.0078,-6.1867 0.4861,-0.03 0.8838,-1.117 0.8838,-2.4133 0,-1.2962 0.3977,-2.3588 0.8838,-2.3614 0.4861,0 3.0056,-3.824 5.5981,-8.4896 2.5926,-4.6655 6.8344,-10.6825 9.4269,-13.3712 4.3336,-4.4944 5.3443,-4.9517 12.5392,-5.6724 11.0088,-1.1026 14.7139,0.7067 18.9935,9.2732 5.7293,11.4682 8.0641,46.9131 5.7829,87.7919 -1.7987,32.2325 -6.9199,50.2876 -21.1151,74.4482 -1.7805,3.0306 -4.491,7.7677 -6.0228,10.5265 -1.5317,2.7587 -6.763,9.1914 -11.6243,14.2948 -8.067,8.4686 -8.7742,9.6002 -8.1028,12.9569 0.4046,2.0229 0.8632,3.7368 1.0185,3.8098 0.1553,0.073 3.1985,1.5394 6.7633,3.2573 16.3927,7.9 29.665,10.4132 58.9606,11.1635 16.4052,0.4201 21.3676,0.1138 31.4136,-1.9334 14.1687,-2.8873 20.5924,-3.0556 25.2252,-0.6629 15.3575,7.9318 21.9736,9.313 40.081,8.367 10.1401,-0.5298 15.9391,-0.3467 18.2651,0.5765 1.8744,0.7441 6.0601,2.0624 9.3008,2.9311 6.7005,1.7964 27.8937,1.3803 35.0491,-0.6887 6.1079,-1.7661 6.774,-5.1843 2.5324,-12.9776 -1.812,-3.3292 -4.6457,-6.7581 -6.2973,-7.6179 -4.7741,-2.4852 -16.9385,-13.5643 -19.2921,-17.5711 -1.182,-2.0122 -4.4686,-5.4236 -7.3037,-7.5798 -2.8493,-2.167 -6.843,-6.9104 -8.9297,-10.6059 -5.4143,-9.5884 -16.5106,-35.3123 -17.6246,-40.8595 -3.513,-17.492 -5.9953,-33.6087 -6.898,-44.7797 -1.1429,-14.145 0.1458,-52.1931 2.1578,-63.7026 1.4433,-8.2564 5.6307,-21.6132 7.4848,-23.8735 2.4264,-2.9578 8.0297,-5.0293 15.4893,-5.7258 6.9038,-0.6447 7.8332,-0.4458 11.7262,2.5237 2.7913,2.129 5.9905,6.7196 9.4148,13.5093 5.7485,11.3981 10.6515,19.5359 12.4357,20.6387 0.6431,0.3974 4.9083,5.6962 9.4769,11.7744 4.5685,6.0783 10.9355,13.254 14.1498,15.9452 6.7345,5.6384 24.5076,16.1409 29.2386,17.2776 1.7679,0.4248 5.1568,1.7448 7.5297,2.9328 11.8688,5.9426 43.5075,11.1078 56.6959,9.256 16.0781,-2.2575 36.7463,-6.9551 43.87,-9.9706 1.9444,-0.8231 7.2462,-2.7021 11.7831,-4.1758 10.9047,-3.542 43.0615,-19.5688 44.7522,-22.3044 0.3324,-0.5378 4.5843,-2.8933 9.4493,-5.2339 4.865,-2.3405 8.8451,-4.8344 8.8451,-5.5428 0,-0.7084 -1.523,-2.7107 -3.3851,-4.4502 -1.8621,-1.7394 -4.7296,-5.7981 -6.3714,-9.0177 -1.642,-3.2196 -4.2498,-7.7091 -5.795,-9.9776 -1.5451,-2.2685 -4.0789,-7.3056 -5.6309,-11.1945 -1.5519,-3.8888 -4.0491,-8.2394 -5.5498,-9.6668 -1.5005,-1.4273 -2.7291,-3.2335 -2.7291,-4.0134 0,-0.78 -1.3246,-3.1561 -2.9449,-5.2805 -4.2882,-5.6221 -3.841,-8.229 1.9143,-11.1651 15.8944,-8.1088 41.5839,-27.5818 55.2786,-41.9022 4.883,-5.1061 12.48,-12.4654 16.8806,-16.3542 6.6535,-5.8795 11.362,-11.645 11.362,-13.9115 0,-0.2624 -3.3149,-2.7661 -7.3658,-5.5619 -4.0508,-2.7958 -10.8205,-8.3077 -15.0439,-12.2492 -10.8074,-10.0862 -22.2314,-19.9423 -24.5381,-21.1703 -2.8475,-1.5158 -8.4378,-6.8854 -8.4378,-8.1046 0,-0.575 2.8168,-4.0548 6.2592,-7.7334 3.4425,-3.6787 8.6129,-9.9707 11.4897,-13.9807 2.877,-4.01 7.4666,-10.4212 10.2002,-14.2482 5.1378,-7.1923 15.6516,-26.7062 15.6516,-29.0487 0,-0.7307 0.9401,-2.1322 2.0888,-3.1158 1.1488,-0.9836 2.6979,-3.886 3.442,-6.4492 4.2445,-14.6192 5.3291,-19.3851 4.754,-20.8837 -0.3525,-0.9185 -4.514,-2.6123 -9.249,-3.7631 -4.735,-1.1509 -10.4837,-2.9303 -12.7758,-3.9548 -2.292,-1.0244 -8.6751,-3.9293 -14.1842,-6.4543 -11.7514,-5.3859 -15.9334,-7.2254 -20.2658,-8.9142 -1.7481,-0.6814 -4.0344,-2.5449 -5.0802,-4.1412 -1.5964,-2.4363 -1.6853,-3.7218 -0.5542,-8.0079 0.7412,-2.8082 2.6987,-7.4924 4.3501,-10.409 3.3183,-5.8606 5.712,-15.7049 10.8855,-44.7798 3.2226,-18.1109 5.8088,-29.6641 7.6989,-34.3793 0.9234,-2.3036 -0.5003,-3.1891 -10.5869,-6.5907 -11.8321,-3.9903 -20.7305,-5.0843 -48.9657,-6.0193 -15.6182,-0.5172 -27.5962,-1.4078 -28.291,-2.1025 -0.7397,-0.7397 -1.3424,-12.9934 -1.5605,-31.7365 -0.2714,-23.3193 -0.965,-34.9882 -2.938,-49.3887 -1.4208,-10.3702 -2.8653,-19.7823 -3.2108,-20.9166 -0.4552,-1.4943 -1.8675,-2.0628 -5.1286,-2.0628 -4.1097,0 -39.2854,7.7892 -47.8644,10.599 -1.9905,0.6518 -5.1389,1.1859 -6.9947,1.1859 -1.8558,0 -5.5298,1.0133 -8.165,2.2509 -2.6351,1.2377 -6.6474,2.5257 -8.9159,2.8621 -2.2684,0.3365 -5.665,0.9917 -7.5487,1.4569 -3.993,0.9862 -6.5816,-1.5618 -6.6063,-6.5009 -0.03,-6.0103 -8.0027,-28.3075 -16.8788,-47.2068 -1.9786,-4.2129 -5.1312,-11.901 -7.0068,-17.0861 -5.7132,-15.7945 -6.2965,-17.1509 -8.1875,-19.0418 -2.5179,-2.518 -7.7712,-1.1882 -12.5478,3.1745 -2.0968,1.9152 -5.2418,3.8138 -6.9877,4.2188 -1.7458,0.405 -3.7037,1.3679 -4.3518,2.1405 -0.6481,0.7726 -1.9744,1.7689 -2.9467,2.2148 -5.4396,2.4945 -16.6741,9.2102 -21.2479,12.7015 -2.8987,2.2125 -8.7158,5.5674 -12.9277,7.4538 -8.5811,3.8432 -13.925,7.2853 -16.3507,10.5351 -1.9849,2.6593 -8.4113,5.4738 -12.4995,5.4738 -2.1411,0 -3.6417,-1.0982 -5.2391,-3.8305 -2.733,-4.675 -8.0297,-11.9083 -11.4844,-15.6861 -1.4093,-1.5411 -3.2478,-4.699 -4.086,-7.0171 -0.97,-2.6825 -3.7824,-5.9561 -7.7352,-9.0056 -3.4158,-2.6353 -7.2781,-6.5185 -8.5827,-8.6294 -1.3046,-2.1109 -4.6254,-6.1974 -7.3796,-9.0816 -2.7542,-2.8842 -6.7607,-7.461 -8.9038,-10.1709 -2.143,-2.7098 -4.5293,-4.9256 -5.303,-4.9231 z m 2.5584,18.5965 c 1.1614,0.2471 2.5503,1.1699 5.1751,2.9829 2.9877,2.0637 5.7427,4.9459 6.1229,6.4042 0.3803,1.4583 1.1924,2.6515 1.8056,2.6515 1.3999,0 9.4458,6.9976 9.4458,8.2151 0,1.248 12.0364,19.6283 16.6132,25.3701 3.7411,4.6935 10.4884,17.667 10.4901,20.1691 6e-4,0.7228 1.05,2.6476 2.3322,4.2776 3.4999,4.4495 8.2755,18.7292 8.2755,24.747 0,2.9188 0.8805,7.6266 1.9575,10.4626 1.5853,4.1745 1.9786,9.8799 2.0628,29.955 0.091,21.7438 -0.151,25.1848 -1.9593,27.9457 -1.1342,1.7318 -2.061,3.9426 -2.061,4.9128 0,2.5325 -8.0009,19.0356 -10.0553,20.7405 -0.9508,0.7892 -1.7296,2.4092 -1.7296,3.5992 0,1.1899 -2.7331,4.7038 -6.0745,7.8094 -3.3415,3.1055 -11.4291,10.7087 -17.9717,16.8962 -13.8904,13.1363 -15.6094,14.527 -16.3973,13.2521 -1.5272,-2.4711 -2.0405,-13.1842 -3.1469,-65.7463 -1.4032,-66.667 -4.9118,-110.1399 -7.5505,-93.5436 -1.2772,8.0334 -3.0912,50.0276 -4.2688,98.8465 -0.6646,27.5458 -1.5145,52.109 -1.8886,54.5846 -0.8675,5.7409 -3.3018,6.6966 -6.5475,2.5704 -1.3899,-1.767 -4.0255,-4.1235 -5.857,-5.2374 -8.0952,-4.9229 -26.7417,-29.4617 -34.3483,-45.2009 -8.7088,-18.0197 -13.0044,-48.1233 -8.6345,-60.509 0.8917,-2.5273 1.987,-8.5601 2.4357,-13.4058 1.107,-11.9563 3.4878,-21.0907 8.2633,-31.7089 2.2065,-4.9057 4.3641,-10.3448 4.7938,-12.0869 0.4296,-1.7422 3.3001,-7.1577 6.3801,-12.0352 3.0799,-4.8775 6.8688,-11.5396 8.4187,-14.804 1.5499,-3.2644 3.4259,-5.9347 4.1706,-5.9347 0.7446,0 2.3045,-1.4595 3.4645,-3.2419 3.2366,-4.973 18.4719,-19.801 22.4684,-21.8677 1.7189,-0.8889 2.6534,-1.3173 3.815,-1.0702 z m -140.1843,14.2637 5.0647,3.0295 c 6.6826,3.9968 28.9781,14.7781 30.5609,14.7781 0.6834,0 2.6504,0.9937 4.3708,2.2079 1.7204,1.2141 6.4649,3.8847 10.5437,5.9347 8.4335,4.2385 23.2701,18.1573 24.4761,22.9621 1.1005,4.3849 0.1269,9.3167 -4.0964,20.7457 -3.1885,8.6289 -3.873,12.5471 -4.9318,28.2823 -1.9912,29.5918 0.3924,48.8026 7.825,63.0621 2.2407,4.2988 4.0738,8.7193 4.0738,9.8239 0,1.1045 2.1943,4.9111 4.8749,8.4584 8.2648,10.9373 8.4617,12.0537 3.7199,21.0754 -2.2443,4.27 -5.1281,11.1118 -6.4077,15.2027 -2.0104,6.4274 -2.6767,7.3881 -4.9076,7.0706 -2.8482,-0.4053 -6.4668,-9.1424 -12.5979,-30.4176 -2.7773,-9.6374 -4.3121,-14.3545 -9.3993,-28.8727 -5.6487,-16.1211 -7.6106,-22.1531 -8.8779,-27.3018 -0.8246,-3.3503 -1.9354,-6.7986 -2.4685,-7.6609 -0.5329,-0.8624 -3.716,-9.7109 -7.0722,-19.6651 -3.3563,-9.9542 -7.2197,-19.612 -8.5863,-21.4603 -1.3665,-1.8483 -2.484,-4.146 -2.484,-5.1061 0,-1.926 -2.1286,-3.6836 -3.1831,-2.6291 -1.0153,1.0153 3.0446,20.0881 6.6804,31.3843 1.7732,5.5092 3.8766,12.4019 4.6746,15.3185 0.7981,2.9166 3.2879,11.9327 5.5326,20.0344 2.2446,8.1017 4.8693,18.1119 5.8329,22.2458 0.9634,4.1338 2.21,8.3756 2.7688,9.4268 1.2526,2.3565 4.3955,15.377 5.4393,22.534 0.4253,2.9166 2.3101,9.1878 4.1895,13.9358 1.8794,4.7479 3.4179,9.3891 3.4179,10.3124 0,2.7219 -6.8712,1.9384 -15.3201,-1.7469 -14.7891,-6.4509 -41.7001,-24.325 -43.4972,-28.89 -0.2663,-0.6764 -1.7974,-2.2628 -3.4041,-3.5266 -4.0259,-3.1668 -11.1598,-14.478 -13.1141,-20.794 -0.8902,-2.8773 -2.8409,-7.8831 -4.3345,-11.1238 -1.4936,-3.2406 -3.5415,-10.3996 -4.5503,-15.9088 -1.0088,-5.5091 -2.7189,-13.7298 -3.8011,-18.2668 -2.7246,-11.4221 -2.7891,-42.5489 -0.1036,-50.0826 1.0396,-2.9167 2.2469,-8.2202 2.6826,-11.7849 1.2189,-9.975 5.1362,-24.9605 7.0896,-27.1189 0.9646,-1.0659 1.7537,-2.9804 1.7537,-4.2551 0,-3.5764 9.9465,-23.0562 13.9738,-27.3674 z m 280.5099,3.6665 c 0.6524,0 2.0686,1.724 3.1486,3.8305 1.0802,2.1064 3.2146,5.3282 4.7437,7.1603 1.5292,1.8321 2.7809,4.1606 2.7809,5.1735 0,1.0128 1.6792,4.5505 3.7304,7.8629 2.0513,3.3123 4.1304,7.8782 4.6211,10.1467 0.4906,2.2684 1.7054,6.2456 2.6998,8.8382 0.9944,2.5925 1.8306,6.5977 1.8591,8.8986 0.028,2.3009 0.6746,4.8038 1.4345,5.5636 1.5148,1.5148 1.6446,2.1717 3.335,16.7667 3.3076,28.5574 2.2475,56.96 -2.4719,66.2108 -1.2347,2.4203 -2.2458,5.029 -2.2458,5.7966 0,0.7676 -2.3863,6.601 -5.303,12.9639 -2.9166,6.3628 -5.3029,12.1151 -5.3029,12.7809 0,2.2682 -10.8956,15.5448 -13.6008,16.5733 -1.4825,0.5637 -3.0163,2.0381 -3.4093,3.2764 -1.1464,3.612 -17.0307,16.7391 -20.2554,16.7391 -0.7329,0 -1.9931,0.7955 -2.7999,1.7677 -0.8069,0.9722 -2.3391,1.7676 -3.4041,1.7676 -1.065,0 -3.7834,1.0557 -6.0418,2.3459 -2.2583,1.2903 -6.6079,3.6766 -9.665,5.303 -6.2309,3.3147 -11.2716,3.8208 -12.2648,1.2325 -0.3638,-0.9481 0.1659,-4.2613 1.1773,-7.3641 1.0114,-3.1027 2.3823,-8.2939 3.045,-11.5345 1.2111,-5.9224 2.5397,-11.0597 7.925,-30.6386 1.6045,-5.8332 3.4814,-12.7276 4.1706,-15.3202 0.6892,-2.5925 2.2384,-6.8694 3.4421,-9.5045 1.2036,-2.6352 2.1871,-5.9426 2.1871,-7.3502 0,-2.4458 4.4828,-20.4884 6.9376,-27.925 3.3576,-10.1709 5.99,-25.2258 4.9181,-28.1235 -0.6494,-1.7554 -1.3464,-0.9376 -3.3903,3.9806 -1.4152,3.4052 -2.5721,6.9714 -2.5721,7.9251 0,0.9537 -1.3263,4.3745 -2.9467,7.6005 -1.6203,3.226 -2.9466,7.1161 -2.9466,8.6449 0,1.5288 -0.4768,3.0748 -1.0599,3.4352 -0.583,0.3603 -1.6965,3.4397 -2.4754,6.8444 -0.7789,3.4047 -2.9203,10.4337 -4.7575,15.6188 -3.8635,10.9044 -6.3265,18.3559 -9.3491,28.2823 -1.1842,3.8888 -3.8618,11.5769 -5.952,17.0861 -2.0903,5.5091 -5.2376,13.9944 -6.9929,18.8554 -1.7553,4.861 -4.3711,11.1314 -5.8139,13.934 -2.1701,4.2155 -2.9185,4.8507 -4.3328,3.6769 -0.9403,-0.7804 -2.0456,-3.5199 -2.4564,-6.0884 -0.4107,-2.5685 -1.9087,-6.0803 -3.3282,-7.8025 -3.0323,-3.679 -6.5113,-13.8201 -6.5113,-18.9832 0,-2.5412 1.5719,-5.5527 5.2546,-10.0742 2.8895,-3.5474 5.8478,-8.7114 6.5735,-11.4741 0.7257,-2.7627 2.5931,-7.7544 4.1515,-11.0927 1.5585,-3.3383 3.6786,-11.2927 4.7109,-17.6764 2.371,-14.6619 2.8034,-45.8171 0.7578,-54.6192 -0.8284,-3.5647 -3.2018,-13.5517 -5.2753,-22.1922 l -3.7701,-15.7086 4.1101,-3.423 c 3.6072,-3.0029 17.8972,-13.2216 21.6192,-15.46 1.1843,-0.7123 14.8961,-6.6487 21.3791,-9.256 7.3074,-2.9388 18.4358,-8.7544 19.7221,-10.3055 1.4931,-1.8006 8.0343,-4.9663 10.2605,-4.9663 z m -399.2165,66.7424 c 1.7108,-0.2988 4.1676,0.3006 8.1891,1.6554 3.8925,1.3113 14.0705,3.4445 22.617,4.7402 25.2604,3.8295 33.9019,5.6882 40.5297,8.7226 7.3658,3.3721 8.3375,5.144 5.7777,10.5385 -2.165,4.5623 -2.346,8.6752 -0.6767,15.4272 0.641,2.5925 1.6603,8.6915 2.2648,13.5525 1.5954,12.8297 11.3451,41.748 15.1026,44.797 1.2099,0.9817 2.7544,3.3754 3.4318,5.3185 1.8166,5.2112 12.6766,21.5508 18.4584,27.7713 2.7674,2.9774 6.4435,5.7676 8.1684,6.2006 1.7251,0.4329 3.7076,1.8555 4.407,3.1624 0.6995,1.3069 3.3724,3.2164 5.9382,4.2431 3.0288,1.2118 4.9033,2.8203 5.3461,4.5848 0.3752,1.4948 0.078,10.4796 -0.6611,19.9654 -1.2651,16.2407 -1.943,20.6541 -3.1711,20.6541 -1.0948,0 -6.2539,-6.6294 -7.566,-9.722 -0.7562,-1.7824 -1.7758,-3.2401 -2.2665,-3.2401 -0.4907,0 -4.0072,-4.6359 -7.8129,-10.3021 -3.8055,-5.6661 -9.1718,-12.8431 -11.9264,-15.9485 -2.7546,-3.1053 -5.0095,-6.7417 -5.0095,-8.0804 0,-1.3386 -1.4577,-3.8651 -3.2401,-5.6136 -1.7824,-1.7485 -5.2029,-5.8056 -7.6022,-9.016 -2.3993,-3.2105 -7.8359,-10.2973 -12.08,-15.75 -4.2442,-5.4527 -7.7162,-10.365 -7.7162,-10.9149 0,-2.1824 -9.6973,-15.0408 -11.8609,-15.7275 -1.2687,-0.4027 -3.1757,-2.4173 -4.2396,-4.4778 -2.2602,-4.3778 -13.2523,-17.2984 -14.716,-17.2984 -1.7962,0 -1.0581,2.6488 1.7746,6.3697 3.415,4.4857 7.8301,13.0186 7.8301,15.1337 0,2.0947 3.697,9.2396 6.8669,13.2694 1.4082,1.7903 2.56,3.9606 2.56,4.8231 0,0.8624 1.5604,3.1617 3.4662,5.1113 1.9058,1.9496 5.6553,7.2958 8.3324,11.8798 2.6772,4.584 6.4204,10.1044 8.3187,12.2665 1.8983,2.1621 3.4524,4.2689 3.4524,4.6815 0,0.4126 2.385,3.7892 5.3012,7.5039 2.9163,3.7147 5.3026,7.3513 5.3029,8.0821 5e-4,0.7308 0.8502,2.0348 1.8886,2.8966 2.7667,2.2962 23.2147,34.009 24.8195,38.4929 l 1.3706,3.8304 -4.3173,-0.1381 c -5.9266,-0.1897 -32.4606,-5.0775 -39.6684,-7.307 -15.6525,-4.8416 -30.114,-12.0147 -32.7584,-16.2489 -0.7664,-1.2271 -1.8188,-2.232 -2.3373,-2.232 -3.3923,0 -19.1808,-17.191 -24.7211,-26.9169 -1.351,-2.3716 -3.1454,-5.1323 -3.9876,-6.1349 -2.5374,-3.0208 -7.4918,-12.8992 -7.4918,-14.9387 0,-1.0489 -0.6863,-2.7451 -1.5259,-3.7683 -1.8029,-2.1973 -5.0716,-11.4801 -6.6719,-18.947 -0.625,-2.9166 -2.205,-9.2801 -3.511,-14.1411 -4.7177,-17.5588 -5.8167,-34.0444 -3.8875,-58.3323 1.0347,-13.026 2.2301,-18.1862 6.1954,-26.7442 1.0371,-2.2382 2.0022,-3.4351 3.7131,-3.7338 z m 516.537,2.3303 c 3.2357,-0.1231 3.505,0.1595 3.1625,3.3299 -0.2058,1.9052 0.1485,4.5561 0.7888,5.8916 4.1563,8.6682 5.1522,14.8888 5.7673,36.014 0.6778,23.2742 -1.0489,45.0964 -4.0359,51.0045 -0.9115,1.8029 -2.6825,7.3983 -3.9357,12.4339 -2.6595,10.6857 -12.3784,31.4678 -18.2789,39.085 -2.2594,2.9166 -5.1342,6.8514 -6.3888,8.745 -2.1052,3.1777 -14.9155,13.644 -16.6993,13.644 -0.4286,0 -1.1124,1.3263 -1.5191,2.9467 -0.4067,1.6203 -1.4634,2.9466 -2.3493,2.9466 -0.8861,0 -4.7885,2.12 -8.6709,4.7126 -3.8823,2.5925 -7.5997,4.7143 -8.2617,4.7143 -0.6619,0 -4.5603,1.6659 -8.662,3.701 -5.6918,2.8239 -9.2782,3.7665 -15.1459,3.9806 -4.2285,0.1543 -11.3995,0.8579 -15.9364,1.564 -11.6353,1.8106 -18.2058,1.7106 -18.9728,-0.2883 -0.348,-0.9068 1.778,-4.8187 4.7246,-8.6932 2.9466,-3.8745 5.8899,-8.4454 6.5406,-10.1571 0.6508,-1.7117 2.5196,-3.6191 4.1516,-4.2396 1.6319,-0.6204 2.9656,-1.8358 2.9656,-2.6998 0,-1.9154 19.6406,-33.2496 28.8986,-46.1054 3.6913,-5.1259 8.8267,-13.3466 11.412,-18.2669 2.5853,-4.9202 5.1207,-9.4761 5.6344,-10.1242 1.244,-1.5697 12.9777,-24.9026 12.9777,-25.8069 0,-0.3894 -0.6987,-0.7078 -1.5519,-0.7078 -0.8532,0 -3.7369,3.3149 -6.4094,7.3658 -9.3159,14.1204 -16.9999,24.9383 -18.5828,26.1642 -1.764,1.3662 -11.3952,14.6882 -21.7848,30.1311 -3.7157,5.523 -7.658,10.7905 -8.7606,11.7055 -1.1025,0.915 -3.0378,3.687 -4.2999,6.1608 -1.2621,2.4739 -2.7952,4.4986 -3.4076,4.4986 -0.6123,0 -4.1797,4.607 -7.9268,10.2381 -3.747,5.6312 -9.9225,13.4524 -13.7233,17.3813 -6.784,7.0124 -6.9274,7.0902 -7.8181,4.1982 -1.0355,-3.3623 -3.5732,-24.7628 -3.556,-29.9861 0.016,-4.9749 5.3305,-12.0659 10.2641,-13.6941 5.2562,-1.7347 12.0223,-6.0291 12.087,-7.6713 0.027,-0.6972 1.4458,-2.5526 3.152,-4.1239 5.7204,-5.2681 17.8617,-24.68 22.168,-35.4427 1.0979,-2.7437 2.956,-6.345 4.1292,-8.0027 2.0033,-2.8309 4.7332,-11.6739 9.1144,-29.5286 1.0974,-4.4724 2.0924,-14.8917 2.3908,-25.0405 0.5088,-17.3075 0.5225,-17.383 3.2763,-17.383 1.5212,0 4.2673,-0.7434 6.1022,-1.652 6.9237,-3.4285 15.5484,-5.3872 28.6724,-6.5113 7.4536,-0.6383 18.3234,-2.3158 24.1567,-3.7286 5.8332,-1.4127 12.1967,-2.6292 14.1411,-2.7033 z m -545.4235,98.4547 c 11.3606,0.3661 12.5863,0.6322 14.6487,3.1814 1.2378,1.5302 2.2534,3.9165 2.2579,5.303 0.01,1.3865 0.8037,4.0493 1.7779,5.9175 0.9743,1.8681 2.1027,5.4632 2.5066,7.9889 0.4038,2.5257 2.2707,6.5255 4.1498,8.89 1.879,2.3645 4.4772,6.6956 5.7724,9.6236 1.2952,2.9281 3.6641,7.0415 5.2649,9.1403 1.601,2.0989 2.9104,4.2736 2.9104,4.8334 0,0.5599 2.1552,3.1138 4.7886,5.6758 2.6333,2.5621 5.8572,6.3814 7.1655,8.4878 1.3083,2.1065 2.9989,3.8314 3.7562,3.8322 0.7574,8e-4 5.3125,3.2185 10.1225,7.15 4.8102,3.9315 10.7405,8.1644 13.178,9.4079 2.4375,1.2435 4.7393,2.7586 5.1148,3.3661 0.3754,0.6075 2.3995,1.4671 4.4985,1.9109 2.099,0.4439 5.4789,1.8172 7.5108,3.0502 2.0317,1.2331 6.6949,2.8437 10.3624,3.5802 3.8545,0.7741 7.077,2.1377 7.6368,3.2298 0.5326,1.0391 1.2651,6.0306 1.6296,11.0926 0.3644,5.062 1.2452,9.9033 1.9558,10.7595 2.2185,2.6732 4.797,14.523 3.7666,17.3087 -0.8143,2.2011 -1.0656,2.2944 -1.7056,0.6267 -0.413,-1.0762 -1.855,-1.9576 -3.2038,-1.9576 -2.9529,0 -8.9233,-2.9457 -10.2313,-5.0491 -1.071,-1.7223 -18.9761,-14.1177 -28.0355,-19.4078 -1.9381,-1.1318 -5.1199,-3.6622 -7.0705,-5.6241 -1.9507,-1.9618 -7.455,-6.1552 -12.232,-9.3181 -4.777,-3.1628 -11.0404,-7.7887 -13.9185,-10.2796 -2.878,-2.4909 -5.7419,-4.5278 -6.3645,-4.5278 -0.6226,0 -1.7041,-1.2589 -2.4046,-2.7965 -0.7941,-1.7428 -3.0119,-3.3157 -5.8882,-4.1774 -2.5377,-0.7604 -7.2007,-3.6119 -10.3624,-6.337 -3.1618,-2.7251 -8.8111,-7.6068 -12.5531,-10.8475 -8.1872,-7.0906 -12.371,-9.9982 -14.4001,-10.0086 -2.6551,-0.014 0.1748,3.5852 12.4979,15.9002 21.472,21.4578 36.2986,34.7872 45.1854,40.6212 4.8277,3.1694 14.8456,11.5553 22.2629,18.6363 7.4173,7.0809 14.5602,13.2148 15.8726,13.6301 1.3124,0.4153 5.7815,4.1821 9.9327,8.3704 6.8801,6.9419 7.4336,7.8646 6.261,10.4385 -1.1426,2.5074 -2.3206,2.9175 -10.5231,3.6544 -5.08,0.4563 -11.357,1.2738 -13.9495,1.8177 -7.3097,1.5334 -31.6092,2.5351 -33.5853,1.3844 -0.9722,-0.5662 -3.7576,-1.3877 -6.1902,-1.8246 -5.8316,-1.0475 -21.1493,-7.511 -22.8102,-9.6254 -0.7196,-0.9161 -1.5873,-1.6658 -1.9281,-1.6658 -1.373,0 -15.0302,-9.6967 -15.0302,-10.6715 0,-0.5765 -2.6351,-2.181 -5.8553,-3.5663 -3.2203,-1.3853 -6.5118,-3.3123 -7.3157,-4.281 -0.8039,-0.9687 -2.6861,-2.2257 -4.1827,-2.7947 -1.4965,-0.569 -3.2784,-2.5026 -3.9582,-4.2966 -0.6797,-1.794 -2.1973,-4.3225 -3.373,-5.6188 -4.1889,-4.6183 -13.3207,-21.007 -20.8838,-37.4796 -4.2239,-9.2001 -8.1773,-17.332 -8.7846,-18.07 -1.7983,-2.1856 -7.7803,-27.5387 -9.168,-38.8537 -1.6884,-13.7673 -1.6296,-21.1149 0.1813,-22.5495 0.8102,-0.6419 6.776,-1.5343 13.2573,-1.9817 6.4813,-0.4474 14.1694,-1.3172 17.0861,-1.9334 13.6775,-2.8893 21.1314,-3.6354 32.5961,-3.266 z m 564.1962,1.2015 c 1.8761,-0.2148 4.8053,-0.057 10.1311,0.3211 6.3423,0.4496 14.6291,1.3247 18.4169,1.9454 6.6541,1.0903 15.1426,2.1023 37.5262,4.4761 5.8333,0.6186 10.8115,1.164 11.0617,1.2101 0.2501,0.046 0.076,6.2343 -0.3867,13.7527 -0.5891,9.5666 -1.5517,15.314 -3.2074,19.1489 -1.301,3.0139 -2.6299,8.3962 -2.9518,11.961 -1.382,15.3066 -9.2152,32.4049 -27.1757,59.3179 -4.3179,6.4701 -11.639,15.3224 -16.57,20.0344 -4.8587,4.643 -10.8243,10.3956 -13.2573,12.7844 -2.7003,2.6511 -11.4629,7.8305 -22.4926,13.2935 l -18.07,8.9505 -21.8246,0.5213 c -21.3391,0.5111 -26.1985,0.086 -31.5051,-2.7654 -1.5727,-0.845 -4.4801,-1.1049 -7.3088,-0.6525 -10.3759,1.6591 -14.12,-2.6017 -6.5787,-7.4866 2.2515,-1.4583 4.3821,-2.6515 4.7351,-2.6515 0.3529,0 2.2703,-1.8572 4.262,-4.1256 1.9918,-2.2685 4.0192,-4.124 4.5037,-4.124 0.4845,0 4.804,-3.7798 9.5995,-8.3997 4.7955,-4.6199 10.6185,-9.6692 12.9397,-11.2204 2.3212,-1.5511 7.0024,-5.5027 10.4039,-8.7813 3.4014,-3.2785 7.6643,-6.4761 9.4734,-7.1068 1.8092,-0.6307 3.7561,-2.0988 4.326,-3.2608 0.8709,-1.7759 14.2721,-14.6544 25.1941,-24.2119 16.8029,-14.7038 22.363,-19.4112 25.6446,-21.7106 6.6902,-4.6876 2.8708,-4.9702 -4.1757,-0.309 -3.706,2.4515 -10.6042,6.9535 -15.3288,10.0051 -7.7882,5.0306 -29.275,21.0166 -49.601,36.9013 -4.2904,3.3529 -11.5009,8.6547 -16.0245,11.7832 -4.5236,3.1285 -9.5573,6.8812 -11.1842,8.3393 -1.6268,1.4581 -4.6429,3.452 -6.7029,4.4295 -2.0599,0.9775 -5.0284,3.3017 -6.5975,5.1666 -1.5692,1.8648 -4.4766,3.747 -6.4595,4.1826 -2.155,0.4733 -3.8455,1.7128 -4.2033,3.0812 -1.0459,3.9994 -4.163,2.6186 -5.7052,-2.5289 -1.158,-3.8652 -1.1405,-5.5584 0.088,-8.5447 0.8426,-2.0481 2.1998,-8.5378 3.0157,-14.4225 0.8159,-5.8847 2.0863,-11.8271 2.8241,-13.2056 1.2354,-2.3083 7.608,-4.9437 11.9903,-4.9594 1.0103,0 2.8657,-0.7867 4.1239,-1.7383 1.2581,-0.9516 3.2273,-1.747 4.376,-1.7676 1.1486,-0.021 6.3393,-2.1747 11.5345,-4.7868 9.8715,-4.9633 28.9733,-20.4163 33.8287,-27.3674 8.1283,-11.6371 11.325,-16.5053 16.4438,-25.0371 8.6487,-14.4147 13.1104,-24.1747 13.9117,-30.4297 0.4331,-3.3815 1.7053,-6.6596 3.1417,-8.0959 1.1148,-1.1148 1.9387,-1.7014 3.8149,-1.9161 z m -319.2117,24.5951 c 0.6809,-0.034 2.7762,2.3736 4.6573,5.3495 1.8811,2.976 5.5678,6.9462 8.1909,8.8227 2.6231,1.8765 7.685,6.0538 11.2497,9.2836 l 6.4819,5.8726 v 46.2884 c -2e-4,45.7806 -0.036,46.459 -3.2004,61.7001 -1.7595,8.4757 -3.5386,16.2969 -3.9547,17.3813 -0.4161,1.0843 -1.6371,1.9713 -2.7119,1.9713 -1.8753,0 -2.4168,-1.107 -8.4377,-17.2552 -1.0011,-2.6849 -2.4335,-5.6215 -3.1849,-6.5269 -0.7514,-0.9053 -1.8668,-3.7474 -2.4788,-6.3145 -0.956,-4.0092 -4.2957,-14.2631 -7.2761,-22.344 -2.1772,-5.9034 -4.6987,-15.7914 -4.6987,-18.4274 0,-1.5958 -0.4941,-3.4046 -1.0979,-4.0203 -1.6283,-1.6606 -8.9809,-24.4938 -11.2998,-35.0888 l -2.0179,-9.2215 9.2698,-18.7052 c 5.0989,-10.2878 9.8283,-18.732 10.5092,-18.7657 z m 84.6984,5.845 c 0.6972,0.01 3.6534,4.6041 6.57,10.2157 2.9166,5.6116 6.7607,12.0421 8.543,14.2896 1.7824,2.2475 3.2419,4.7835 3.2419,5.6344 0,0.8508 0.8519,2.0236 1.8936,2.6066 1.6781,0.939 1.543,1.6159 -1.179,5.9278 -1.6899,2.677 -3.0727,5.976 -3.0727,7.3329 0,1.357 -1.2577,6.274 -2.7964,10.9253 -1.5386,4.6512 -3.9355,12.4339 -5.3254,17.2949 -4.3302,15.1442 -7.3386,25.1312 -9.2318,30.6386 -1.0026,2.9166 -2.9671,9.0155 -4.3638,13.5525 -1.3968,4.5369 -5.036,13.356 -8.0874,19.5977 -3.0513,6.2417 -5.5481,11.8773 -5.5481,12.5237 0,1.923 -3.2218,4.1009 -4.06,2.7447 -1.4807,-2.396 -5.3595,-29.7884 -6.4647,-45.6567 -0.6249,-8.973 -1.4893,-31.5592 -1.9212,-50.1931 l -0.7855,-33.8804 h 2.8811 c 1.8635,0 3.4357,-1.0356 4.4502,-2.9312 0.8627,-1.612 5.3283,-5.5364 9.9222,-8.7208 4.594,-3.1844 9.6371,-7.1688 11.2084,-8.8537 1.5713,-1.685 3.4284,-3.0565 4.1256,-3.0485 z m -147.0476,24.652 c 0.9432,0.2776 2.2975,1.2496 4.7401,3.1141 2.9094,2.2208 6.7088,4.3783 8.4412,4.7954 1.7326,0.4172 6.0974,2.2297 9.6996,4.0273 l 6.5493,3.2695 1.381,8.8796 c 1.7045,10.964 8.6767,35.9585 13.4213,48.1113 1.9479,4.9892 3.1878,9.645 2.755,10.3453 -0.786,1.2718 1.1425,10.321 5.2788,24.7746 1.2057,4.2128 3.0251,10.623 4.0446,14.2447 1.0194,3.6217 1.8539,9.8538 1.8539,13.8477 0,9.0867 -1.8261,9.5079 -7.2121,1.6641 -15.9912,-23.2884 -23.3434,-34.1609 -26.532,-39.2317 -2.032,-3.2316 -5.7588,-8.1225 -8.2806,-10.8683 -2.5218,-2.7458 -8.7783,-11.3557 -13.9046,-19.1333 -5.1265,-7.7776 -10.2589,-15.0671 -11.4051,-16.1988 -2.7988,-2.7632 -3.8283,-8.9622 -2.1993,-13.247 2.1569,-5.673 4.7195,-19.2019 4.7195,-24.9162 0,-5.3444 1.2167,-8.7933 4.3812,-12.427 0.7943,-0.9121 1.325,-1.3288 2.2682,-1.0513 z m 209.8232,3.0727 c 2.3751,0.2999 3.5209,3.1921 4.6935,9.5667 0.8159,4.4352 2.3073,11.7758 3.3144,16.3127 3.365,15.1602 3.474,17.7614 0.8976,21.4172 -1.2904,1.831 -3.5543,5.7143 -5.0302,8.6293 -1.4759,2.915 -5.2575,8.2597 -8.4032,11.8764 -3.1456,3.6166 -5.719,7.3969 -5.719,8.4015 0,1.0046 -0.8832,2.5542 -1.9627,3.4438 -1.0795,0.8895 -3.6664,4.27 -5.7499,7.5107 -2.0837,3.2407 -4.913,6.9027 -6.2869,8.1374 -1.3739,1.2347 -2.4979,2.6859 -2.4979,3.2263 0,0.5403 -3.1358,5.3956 -6.9688,10.7888 -3.8328,5.3932 -8.6309,12.6228 -10.6611,16.0659 -2.0301,3.4431 -5.3892,8.3061 -7.4658,10.8078 -6.1372,7.3936 -7.1942,6.3619 -6.2523,-6.1142 0.4445,-5.8888 1.5061,-12.6501 2.3579,-15.025 3.0075,-8.3847 4.2432,-12.7597 4.2396,-15.0077 -0.01,-2.5342 5.4768,-23.4311 10.6421,-40.5729 1.8554,-6.1573 4.779,-15.9672 6.4975,-21.8004 1.7186,-5.8332 3.8513,-12.1968 4.7385,-14.1412 0.8872,-1.9444 1.9384,-4.9363 2.3372,-6.6476 0.9761,-4.1876 5.9868,-8.6549 11.7297,-10.4574 2.5926,-0.8138 6.9465,-2.7706 9.6755,-4.3501 2.581,-1.4939 4.4492,-2.2479 5.8743,-2.068 z m -43.2107,33.5973 c 0.6697,-0.043 1.4531,0.5489 1.9334,1.8005 0.6649,1.7325 -2.0085,12 -4.6262,17.7679 -0.6338,1.3965 -0.8033,3.105 -0.3764,3.7959 0.427,0.6909 0.019,2.7299 -0.908,4.5314 -0.9266,1.8014 -3.3918,10.169 -5.479,18.5947 -2.087,8.4258 -4.3276,16.3236 -4.9784,17.5522 -0.6507,1.2285 -1.3442,3.955 -1.5398,6.059 -0.3572,3.8441 -2.9523,13.5447 -5.9917,22.3873 -0.8985,2.6142 -1.6347,5.6787 -1.6347,6.8116 0,1.1329 -0.7954,2.3664 -1.7676,2.7395 -1.3183,0.5059 -1.7677,2.6091 -1.7677,8.272 0,7.5011 0.049,7.6134 3.9513,9.2439 3.1036,1.2967 4.8709,1.3679 8.2479,0.3314 2.3642,-0.7256 4.2982,-1.819 4.2982,-2.4305 0,-0.6114 2.0337,-3.572 4.5193,-6.5785 2.4856,-3.0066 6.6588,-8.6488 9.2732,-12.5376 2.6145,-3.8888 6.7579,-9.4569 9.2077,-12.3735 2.4498,-2.9166 5.5687,-7.6898 6.9307,-10.6076 1.3621,-2.9178 3.6703,-6.4973 5.1286,-7.9544 1.4583,-1.4571 2.6515,-3.4451 2.6515,-4.4173 0,-0.9723 0.745,-1.7677 1.6554,-1.7677 1.4538,0 6.1836,-6.9409 11.1582,-16.3731 0.8907,-1.6887 3.5672,-5.4573 5.9486,-8.3739 2.3814,-2.9166 5.5388,-7.0331 7.0153,-9.1472 1.4766,-2.1141 3.1253,-3.5707 3.663,-3.2384 1.619,1.0006 -0.1422,5.6643 -3.6837,9.7566 -1.8332,2.1183 -3.6873,5.3001 -4.1204,7.0706 -0.4333,1.7705 -1.1903,3.4862 -1.6814,3.8132 -0.8829,0.5878 -5.0961,7.1793 -16.0745,25.1457 -10.3047,16.8639 -10.8496,17.8487 -10.9011,19.741 -0.028,1.0338 -0.9786,2.7252 -2.1128,3.758 -5.0663,4.6131 -19.4618,40.206 -18.9107,46.7563 0.3265,3.8815 0.6517,4.195 4.6953,4.5312 3.5757,0.2974 5.9413,-0.6949 13.3505,-5.6015 4.9524,-3.2796 13.0753,-9.6558 18.051,-14.1705 4.9759,-4.5148 11.4302,-9.7542 14.3431,-11.6416 2.913,-1.8874 8.1411,-6.1455 11.6175,-9.4631 3.4764,-3.3176 6.8885,-6.0314 7.5833,-6.0314 0.6947,0 2.3578,-0.9999 3.6958,-2.2216 2.8476,-2.6002 7.7369,-4.3216 7.7369,-2.724 0,0.6083 -1.724,2.2955 -3.8305,3.7493 -2.1064,1.4538 -5.9375,5.2738 -8.5137,8.4895 -2.5761,3.2158 -4.8447,5.3672 -5.0405,4.78 -0.1958,-0.5873 -2.9422,1.3606 -6.1039,4.3293 -3.1618,2.9687 -9.3028,8.5586 -13.6457,12.4218 -4.343,3.8633 -9.9321,9.9622 -12.4202,13.5526 -2.488,3.5902 -6.674,8.872 -9.3025,11.7365 -4.049,4.4125 -4.7782,5.9874 -4.7782,10.3107 0,5.9056 -1.4203,5.5802 17.0861,3.9202 12.1718,-1.0918 23.3388,-4.244 27.9043,-7.8767 0.8569,-0.6818 3.6788,-1.8985 6.2713,-2.7033 2.5925,-0.8048 5.8864,-2.1969 7.3192,-3.095 2.5399,-1.5923 19.6537,-7.5333 21.7019,-7.5333 0.5655,0 1.0288,0.829 1.0288,1.8419 0,1.121 -2.9394,3.1741 -7.5124,5.2477 -4.132,1.8735 -7.8287,4.228 -8.2134,5.2304 -0.3846,1.0025 -1.5265,1.8211 -2.5376,1.8211 -1.011,0 -4.9897,1.5909 -8.8416,3.5353 -3.8518,1.9444 -7.813,3.5353 -8.8037,3.5353 -0.9907,0 -1.8022,0.5209 -1.8022,1.1566 0,0.6358 -1.4577,1.5094 -3.2401,1.9402 -1.7823,0.431 -4.5993,1.7311 -6.2592,2.8898 -1.6599,1.1586 -4.3152,2.4327 -5.9019,2.831 -1.5868,0.3982 -4.9494,2.4576 -7.4728,4.5761 -4.119,3.4582 -4.6443,4.5235 -5.1338,10.4264 -0.5058,6.0995 -0.3443,6.6379 2.2372,7.4572 1.5305,0.4858 3.3923,1.7185 4.1377,2.7379 1.0941,1.4962 4.502,1.9263 17.6816,2.2336 8.9792,0.2093 17.5398,0.64 19.0246,0.9563 3.653,0.7782 2.1172,2.8621 -2.1094,2.8621 -1.8679,0 -3.7251,0.5309 -4.1257,1.179 -0.4005,0.6481 -4.2754,1.1912 -8.612,1.2066 -4.3367,0.015 -12.2851,0.9954 -17.6627,2.1786 -11.6868,2.5713 -16.0253,6.0846 -20.8803,16.9031 -2.7368,6.0984 -3.0553,7.9589 -2.3407,13.6784 0.6922,5.5404 1.5783,7.3959 5.4359,11.3689 4.4075,4.5396 6.6045,8.4221 5.4289,9.5978 -0.3018,0.3018 -6.0509,1.2234 -12.7757,2.0473 -6.7248,0.8239 -13.8008,2.2599 -15.7241,3.1917 -4.7121,2.2831 -7.2551,9.2933 -14.6159,40.3054 -1.6062,6.7671 -1.6931,13.7894 -0.202,16.1471 0.6781,1.072 0.6608,2.2482 -0.045,3.0985 -0.7327,0.8829 -0.6634,6.9755 0.195,17.1258 0.7329,8.666 1.729,22.9158 2.2148,31.6657 0.8631,15.5497 3.476,27.5324 9.9879,45.812 1.0103,2.8361 1.8367,6.6066 1.8367,8.3791 0,1.7724 1.2179,5.0203 2.7067,7.2173 1.4886,2.1968 5.599,9.4894 9.1334,16.2056 3.5344,6.7164 7.2204,12.5024 8.1926,12.8586 0.9722,0.3563 5.2157,4.2017 9.4286,8.5448 4.2128,4.3432 10.7474,9.9033 14.5209,12.3545 7.4244,4.8229 11.2892,9.4132 9.4631,11.2394 -0.612,0.6119 -5.0648,1.351 -9.8964,1.6416 -8.6986,0.5233 -17.0499,-0.7359 -29.0159,-4.3742 -4.7066,-1.431 -9.1779,-1.6996 -19.6789,-1.1825 -15.1474,0.746 -22.4481,-0.6652 -35.6239,-6.8875 -8.545,-4.0356 -12.8452,-4.1962 -25.541,-0.9546 -8.598,2.1952 -12.0248,2.3825 -34.3707,1.8867 -13.6514,-0.3028 -27.4721,-1.1143 -30.7128,-1.8039 -3.2408,-0.6896 -7.7488,-1.6051 -10.0173,-2.0352 -2.2685,-0.4301 -4.6548,-1.1766 -5.3029,-1.6589 -0.6481,-0.4823 -3.1245,-1.5042 -5.5032,-2.27 -7.6578,-2.4652 -7.7808,-4.0592 -0.7181,-9.2766 14.5194,-10.7261 21.1422,-20.6257 31.5379,-47.1395 4.5323,-11.5591 6.227,-19.4879 9.6271,-45.0214 1.6127,-12.1101 0.423,-59.1254 -1.8487,-73.0621 -1.0037,-6.1573 -1.8338,-15.1947 -1.8454,-20.0828 l -0.02,-8.8883 -5.0094,-4.8299 c -7.0579,-6.808 -11.584,-8.7425 -21.9368,-9.3733 -13.3677,-0.8146 -16.6563,-1.4921 -16.6563,-3.4283 0,-0.9429 0.6624,-1.72 1.4726,-1.728 2.9311,-0.029 13.8259,-18.1206 13.8304,-22.9656 0.01,-10.6109 -5.3274,-18.2405 -16.7167,-23.8976 -6.5261,-3.2415 -9.0644,-3.7832 -20.9769,-4.4865 -14.6236,-0.8633 -18.8538,-1.858 -18.8538,-4.4312 0,-1.3241 3.9183,-1.7487 20.0379,-2.1681 18.0861,-0.4705 20.2066,-0.743 21.7641,-2.8016 2.4239,-3.2038 3.4195,-9.2694 1.9679,-11.9817 -1.2069,-2.2551 -21.225,-15.6361 -23.3919,-15.6361 -0.6124,0 -2.3432,-1.3105 -3.8477,-2.9121 -1.5046,-1.6015 -4.6474,-3.5163 -6.9826,-4.2551 -2.3352,-0.7388 -6.5199,-2.645 -9.3009,-4.2361 -2.7808,-1.5912 -7.5996,-3.6481 -10.7076,-4.5711 -9.1827,-2.7269 -12.6277,-8.7726 -4.9992,-8.7726 4.4959,0 14.046,3.3575 18.9746,6.6701 2.2569,1.5169 5.5701,2.7585 7.364,2.7585 2.1137,0 3.2625,0.6221 3.2625,1.7677 0,1.2524 1.2691,1.7676 4.3553,1.7676 2.7641,0 5.9614,1.1119 8.7485,3.0433 3.6872,2.5553 6.4251,3.2203 17.0705,4.1446 8.0481,0.6989 13.093,0.6892 13.8098,-0.027 0.6209,-0.621 1.3766,-3.7089 1.6795,-6.8617 0.5209,-5.4211 0.2875,-6.0059 -4.2913,-10.7716 -2.6629,-2.7715 -4.842,-5.5201 -4.842,-6.1073 0,-0.5871 -1.9886,-2.3379 -4.4191,-3.8909 -2.4306,-1.553 -9.4564,-7.7201 -15.6137,-13.7061 -6.1573,-5.986 -14.0117,-12.9832 -17.4538,-15.5481 -3.442,-2.5647 -6.5473,-5.4176 -6.9014,-6.3403 -0.354,-0.9227 -1.0545,-1.6779 -1.557,-1.6779 -1.1842,0 -10.4261,-9.2305 -12.6843,-12.6687 -4.5527,-6.9319 7.947,1.0619 16.8323,10.7647 1.3166,1.4376 4.763,4.2645 7.6593,6.2817 2.8963,2.0171 8.1646,6.6295 11.7072,10.2502 3.5426,3.6208 7.0581,6.5839 7.8111,6.5839 0.753,0 2.0243,0.7897 2.8258,1.7555 2.9379,3.54 15.3865,11.2066 18.1961,11.2066 1.9472,0 3.5575,1.1262 4.9266,3.4438 3.0089,5.0937 6.7706,6.7878 10.5644,4.7574 4.6785,-2.5038 5.721,-5.3916 3.9807,-11.0218 -2.6502,-8.5738 -15.2055,-35.727 -17.3381,-37.4969 -0.8487,-0.7043 -4.2494,-6.5499 -7.5574,-12.9898 -3.308,-6.4399 -7.1768,-13.1205 -8.5983,-14.8471 -4.7718,-5.7963 -13.879,-20.7251 -18.4394,-30.226 -3.6931,-7.694 -4.2425,-9.6967 -3.0001,-10.9391 1.2423,-1.2423 1.8277,-0.9215 3.1968,1.7539 0.922,1.8015 4.1612,6.1918 7.1984,9.7565 3.0371,3.5648 5.8844,7.9397 6.3283,9.7221 0.4438,1.7823 1.2796,3.2401 1.8574,3.2401 0.5779,0 1.0512,0.5261 1.0512,1.1686 0,0.6425 1.8089,3.5381 4.0204,6.4353 2.2115,2.8972 4.3827,6.9148 4.8248,8.928 0.4422,2.0132 1.505,3.9299 2.3614,4.2586 0.8565,0.3286 3.0603,2.8125 4.8973,5.5187 1.837,2.7062 3.9782,5.596 4.7575,6.4215 0.7792,0.8255 4.4134,6.0036 8.0752,11.507 3.6618,5.5033 7.5302,10.6597 8.5983,11.4603 1.0681,0.8006 2.9185,3.3802 4.1118,5.7311 3.0924,6.0916 8.4848,11.6346 11.3171,11.6346 1.3328,0 3.4836,-1.0617 4.7799,-2.358 3.3333,-3.3333 3.3403,-17.0199 0.012,-23.5438 -1.2895,-2.5279 -3.1734,-9.3972 -4.186,-15.2649 -1.0126,-5.8678 -3.081,-13.4736 -4.5969,-16.9014 -1.516,-3.4279 -3.6156,-11.2771 -4.666,-17.4434 -1.0504,-6.1663 -3.0106,-14.1035 -4.3552,-17.6384 -4.1627,-10.9427 -7.7605,-27.8169 -6.2524,-29.325 1.8803,-1.8803 8.4912,15.567 9.5356,25.1665 0.3579,3.2889 1.4288,6.6026 2.3805,7.364 0.9517,0.7615 2.1829,3.1478 2.736,5.303 5.9608,23.2275 8.5614,32.237 9.9224,34.3775 0.8873,1.3958 2.4526,5.8763 3.4782,9.9585 1.0256,4.0822 3.3514,10.9766 5.17,15.3202 l 3.3075,7.8975 4.8058,-0.092 c 2.6429,-0.05 6.4289,-0.7626 8.4135,-1.5846 4.8194,-1.9963 5.6972,-6.4268 7.295,-36.7908 0.6943,-13.1941 1.8031,-26.6418 2.4633,-29.8825 0.6602,-3.2407 1.4938,-7.6156 1.8523,-9.7221 0.8366,-4.917 2.4782,-4.917 3.228,0 0.5474,3.5907 1.8783,27.2732 2.4995,44.4863 0.4659,12.9056 2.0029,27.5823 3.1176,29.7548 0.5819,1.1342 2.0299,2.0628 3.2159,2.0628 1.1861,0 3.5048,1.06 5.1528,2.3563 3.9335,3.0941 6.9324,2.978 10.0983,-0.3919 2.9129,-3.1005 11.1,-27.3443 17.3762,-51.4584 2.2772,-8.7498 5.1393,-18.0306 6.361,-20.6231 1.2217,-2.5926 2.5815,-6.7078 3.0209,-9.1455 0.4394,-2.4377 1.2689,-4.7216 1.8436,-5.0768 0.5746,-0.3552 1.0621,-1.808 1.0841,-3.228 0.022,-1.4201 1.0643,-4.7042 2.3166,-7.2967 1.2522,-2.5926 2.2962,-5.6412 2.3182,-6.7754 0.025,-1.284 0.5802,-1.9612 1.2498,-2.0042 z m -224.2802,15.2615 5.1821,0.01 c 9.3113,0.016 24.8799,2.2441 27.4313,3.9254 1.373,0.9048 4.7908,5.8247 7.5954,10.9339 10.3652,18.8831 20.1136,35.3183 23.0794,38.9123 1.678,2.0334 3.0503,4.8536 3.0503,6.2662 0,1.4126 1.2852,4.2564 2.8551,6.3196 1.5699,2.0632 3.2185,5.2131 3.6648,7.0016 0.4463,1.7884 1.271,3.5358 1.8315,3.8822 2.0035,1.2382 16.1064,31.8519 16.9359,36.7633 1.0398,6.1562 -1.2524,6.8347 -5.4635,1.6174 -1.5052,-1.865 -4.8578,-4.7794 -7.4503,-6.4768 -2.5926,-1.6974 -6.379,-4.2808 -8.4136,-5.7414 -4.4133,-3.1683 -20.5504,-17.0425 -22.225,-19.1074 -0.6481,-0.7992 -2.7699,-2.2962 -4.7143,-3.3282 -1.9444,-1.032 -5.9216,-4.1431 -8.8382,-6.9135 -2.9167,-2.7703 -9.4943,-8.5042 -14.6176,-12.7412 -13.422,-11.0999 -13.9904,-12.0783 -14.9041,-25.6791 -0.4244,-6.3164 -1.3926,-13.0102 -2.1509,-14.8748 -0.7584,-1.8646 -1.709,-7.3013 -2.1129,-12.0801 z m 324.8806,0.1122 c 0.2402,0.2622 -0.5464,7.6354 -1.7469,16.3852 -1.2005,8.7499 -2.2012,19.6214 -2.2234,24.1584 -0.045,9.2049 -2.9723,15.9088 -6.9463,15.9088 -1.2296,0 -4.3517,1.9886 -6.9394,4.4191 -2.5877,2.4305 -7.3147,6.8684 -10.504,9.8618 -3.1892,2.9935 -7.3652,6.2545 -9.2801,7.2467 -1.915,0.9922 -4.9449,3.4487 -6.7322,5.4583 -1.7874,2.0095 -4.0587,3.6526 -5.0475,3.6526 -0.9888,0 -3.6524,1.8572 -5.921,4.1257 -2.4519,2.452 -5.2877,4.1239 -6.9911,4.1239 -1.777,0 -3.389,1.0071 -4.2448,2.6515 -2.1603,4.151 -10.7013,11.9275 -16.9134,15.3995 -3.1098,1.7382 -6.1192,3.1608 -6.6856,3.1608 -1.9525,0 -1.0224,-5.9056 1.809,-11.4897 1.5613,-3.079 3.9291,-8.0924 5.2616,-11.141 1.3323,-3.0486 3.7665,-6.4237 5.4099,-7.5004 1.6433,-1.0768 2.9881,-2.8552 2.9881,-3.953 0,-1.0979 0.7781,-3.0264 1.7297,-4.2845 0.9515,-1.2581 1.7469,-3.3657 1.7676,-4.6832 0.052,-3.3487 7.5497,-17.1235 11.1721,-20.5265 1.6535,-1.5534 3.007,-3.8885 3.007,-5.189 0,-1.3005 2.993,-6.8164 6.6511,-12.2578 3.6581,-5.4414 7.2528,-11.5767 7.9872,-13.6336 1.7382,-4.8687 6.7073,-12.463 10.3746,-15.8536 2.3593,-2.1813 5.5962,-3.044 17.2432,-4.6003 7.8859,-1.0538 14.5344,-1.7019 14.7746,-1.4397 z m -502.0006,4.7212 c 2.6106,-0.1811 5.2154,0.3477 7.5366,1.6071 1.7503,0.9496 5.5678,4.7073 8.4844,8.3514 7.8144,9.7636 19.0459,20.2585 29.8929,27.9319 8.9918,6.361 15.9403,10.2742 37.842,21.317 l 8.985,4.5313 24.9817,0.9667 c 26.6272,1.0305 30.2831,1.5676 30.2831,4.4519 0,1.0076 0.8154,2.7323 1.8107,3.8322 4.913,5.4288 12.4964,20.2117 14.3328,27.9405 0.5426,2.2833 0.1609,2.6478 -2.7481,2.6256 -1.8579,-0.014 -5.6901,-1.0742 -8.5154,-2.3563 -2.8253,-1.282 -6.1905,-2.3304 -7.4779,-2.3304 -1.2876,0 -3.7484,-0.7668 -5.4687,-1.7037 -5.2643,-2.8671 -10.9787,-5.1833 -20.2157,-8.1927 -4.8611,-1.5836 -16.2618,-5.7622 -25.3357,-9.2853 -9.0739,-3.5231 -19.1727,-7.0373 -22.4408,-7.8111 -3.2682,-0.7738 -9.0549,-2.9778 -12.8603,-4.8973 -6.4867,-3.2719 -35.3418,-11.7123 -40.0413,-11.7123 -4.0452,0 0.1305,2.9462 12.5496,8.8554 6.666,3.1718 12.5052,6.3848 12.976,7.1397 0.4707,0.7548 2.5924,2.0149 4.7142,2.7999 3.6615,1.3547 6.6697,2.711 22.3563,10.0845 3.6928,1.7359 6.8745,3.6292 7.0706,4.2069 0.196,0.5775 4.0682,2.035 8.6051,3.2383 4.537,1.2033 14.3469,5.1272 21.8004,8.7191 7.4535,3.5919 18.2667,8.2004 24.0289,10.2416 5.7623,2.0413 11.8924,4.7195 13.6233,5.952 1.7309,1.2325 4.5734,2.599 6.3163,3.0365 1.7428,0.4374 3.1693,1.2417 3.1693,1.7866 0,4.1749 -33.7919,20.6564 -46.8875,22.8689 -2.7238,0.4601 -5.2514,1.3209 -5.6171,1.9126 -0.7067,1.1436 -2.1511,1.4135 -3.0036,0.5611 -0.2833,-0.2833 -7.1322,-1.3785 -15.2201,-2.434 -16.0868,-2.0993 -29.8929,-5.494 -32.8499,-8.0752 -1.04,-0.9079 -4.6927,-1.9043 -8.1166,-2.2148 -4.2665,-0.3869 -7.1092,-1.3946 -9.0333,-3.2022 -1.8308,-1.7198 -3.6036,-2.3833 -5.0975,-1.9091 -1.3745,0.4362 -2.8869,0.01 -3.7804,-1.0685 -0.819,-0.9868 -2.1359,-1.7936 -2.9277,-1.7936 -0.7918,0 -5.7928,-3.5795 -11.1116,-7.9544 -5.3188,-4.3749 -11.1242,-9.0212 -12.9017,-10.3244 -5.9516,-4.3637 -26.5796,-28.7953 -32.8223,-38.8744 -6.6271,-10.7 -16.6883,-30.8987 -17.4727,-35.0802 -1.3324,-7.1023 4.3793,-14.4067 14.1618,-18.1131 11.4041,-4.3208 25.3062,-10.5698 28.8572,-12.9708 2.3411,-1.5829 4.9572,-2.4738 7.5677,-2.6549 z m 678.3076,3.0778 c 4.8621,0.392 12.8215,3.0618 19.7703,6.8773 4.0732,2.2365 8.1644,4.0669 9.092,4.0669 0.9275,0 5.0205,1.7952 9.0937,3.9893 4.0732,2.1941 8.73,4.3126 10.3504,4.7091 1.6204,0.3965 4.273,1.7644 5.8933,3.0382 l 2.9449,2.3148 -2.4927,1.7694 c -1.5242,1.0809 -2.7989,3.6668 -3.2763,6.6528 -0.4297,2.687 -1.7445,6.8165 -2.9225,9.1766 -9.5498,19.1326 -14.8822,28.6439 -18.6846,33.3228 -2.4419,3.0049 -7.0451,8.7061 -10.2277,12.6687 -3.1828,3.9626 -6.433,7.2052 -7.2243,7.2052 -0.7913,0 -2.8275,1.8199 -4.5244,4.0446 -1.6968,2.2246 -4.1461,4.382 -5.4427,4.7936 -1.2968,0.4116 -2.3581,1.4844 -2.3581,2.3857 0,0.9012 -2.3525,3.0184 -5.2287,4.7039 -2.8761,1.6855 -7.5003,5.1409 -10.2762,7.6782 -2.7758,2.5374 -7.9799,5.7888 -11.5638,7.226 -3.584,1.4372 -8.8492,3.8372 -11.7003,5.3339 -2.8511,1.4968 -6.929,2.7223 -9.0626,2.7223 -2.1337,0 -4.1625,0.4555 -4.5072,1.0133 -0.3447,0.5578 -3.955,1.9404 -8.0235,3.0726 -4.0684,1.1323 -8.1409,2.6653 -9.0505,3.4059 -0.9096,0.7405 -5.1531,1.6544 -9.4286,2.0317 -4.2754,0.3772 -8.5686,0.994 -9.5408,1.3707 -0.9722,0.3766 -3.3585,0.1807 -5.3029,-0.4351 -1.9444,-0.6157 -5.9623,-1.3486 -8.9297,-1.6295 -2.9674,-0.2809 -6.9446,-1.3188 -8.8382,-2.3062 -1.8936,-0.9875 -4.6062,-1.7978 -6.0263,-1.8022 -1.42,0 -2.9169,-0.5492 -3.3263,-1.2118 -0.4095,-0.6626 -4.5351,-3.0789 -9.168,-5.3685 -12.3476,-6.1025 -15.583,-8.3306 -17.1759,-11.8264 -1.2381,-2.7174 -1.114,-3.4307 0.9271,-5.3322 1.2958,-1.2072 2.9993,-2.194 3.7856,-2.194 0.7861,0 2.2669,-0.7068 3.2901,-1.5692 1.0233,-0.8623 4.5117,-2.5164 7.7524,-3.6768 3.2407,-1.1604 12.2551,-5.1659 20.0327,-8.9004 7.7777,-3.7344 17.0584,-7.958 20.6231,-9.3854 3.5648,-1.4274 10.6346,-4.6713 15.7103,-7.2087 5.0757,-2.5374 9.9612,-4.6124 10.8579,-4.6124 1.3644,0 23.863,-10.6546 31.7641,-15.0423 1.2963,-0.7198 4.7426,-2.4306 7.6592,-3.8028 11.4319,-5.3786 14.7921,-10.8566 3.7441,-6.1039 -3.1653,1.3617 -8.0876,2.8004 -10.9373,3.1987 -2.8495,0.3983 -8.2305,2.0396 -11.9591,3.6457 -3.7286,1.6061 -7.2503,2.628 -7.8267,2.2717 -0.5764,-0.3562 -5.0777,1.1878 -10.0017,3.4318 -4.9239,2.2439 -12.2721,4.9365 -16.3299,5.983 -4.0579,1.0465 -8.2155,2.6541 -9.2388,3.5716 -1.0232,0.9174 -2.7637,1.6675 -3.8684,1.6675 -1.1048,0 -4.5107,1.2612 -7.5677,2.8016 -3.0572,1.5405 -7.2761,3.1713 -9.3751,3.6251 -2.0991,0.4537 -4.1184,1.3143 -4.4882,1.9127 -0.3697,0.5982 -1.6199,1.0874 -2.7774,1.0874 -1.1577,0 -2.9892,0.9785 -4.0705,2.1733 -1.0813,1.1949 -5.0079,2.8361 -8.726,3.6476 -3.7181,0.8113 -7.9778,1.9546 -9.4666,2.5409 -1.4888,0.5864 -3.8751,1.0887 -5.3029,1.1152 -1.4278,0.026 -5.778,1.5691 -9.6668,3.4299 -7.4367,3.5585 -10.0172,3.2202 -10.0172,-1.3136 0,-2.606 4.1134,-11.1858 6.8565,-14.3034 1.027,-1.1672 4.013,-6.4376 6.6373,-11.7124 l 4.7712,-9.5908 21.9748,0.3055 c 23.9687,0.3342 33.2784,-0.828 42.7652,-5.3409 3.2,-1.5222 6.708,-2.7689 7.7956,-2.7689 1.0876,0 3.2428,-0.9616 4.7885,-2.137 1.5457,-1.1754 5.6044,-3.5715 9.0195,-5.3254 3.415,-1.7539 8.2469,-5.1683 10.7388,-7.5867 2.4919,-2.4184 8.05,-6.4541 12.3511,-8.9694 4.5349,-2.6521 8.8356,-6.2161 10.2364,-8.4826 1.3286,-2.1496 3.3171,-4.2004 4.4191,-4.5572 1.102,-0.3568 3.2409,-2.8207 4.754,-5.4756 1.5131,-2.6548 4.2944,-5.7044 6.1799,-6.7771 1.8855,-1.0726 3.4307,-2.3297 3.4351,-2.793 0,-0.4633 1.009,-1.3772 2.232,-2.0318 0.7803,-0.4176 2.0562,-0.5397 3.6769,-0.4091 z m -507.5332,56.1451 c 2.4763,0 3.9446,1.0516 8.241,4.6643 3.3609,2.826 10.088,8.0819 14.949,11.6795 4.861,3.5977 10.96,8.7906 13.5525,11.5398 2.5926,2.7492 6.2288,6.3879 8.0805,8.0855 1.8517,1.6978 5.2519,5.0751 7.5574,7.5056 2.3054,2.4306 4.7884,4.4192 5.5169,4.4192 1.9083,0 23.9455,21.9874 25.9796,25.9209 1.5181,2.9357 1.5046,3.3907 -0.1226,4.0151 -2.6862,1.0308 -5.3194,0.7174 -9.3026,-1.1065 -1.9444,-0.8903 -5.2322,-1.6434 -7.3071,-1.6727 -4.6827,-0.066 -15.4562,-2.8184 -19.9585,-5.0992 -1.8556,-0.9401 -5.4948,-2.3672 -8.0873,-3.1728 -2.5925,-0.8056 -10.5846,-4.2576 -17.761,-7.6714 -7.1763,-3.4136 -14.2038,-6.5742 -15.6154,-7.0222 -1.9143,-0.6075 -2.5763,-1.7665 -2.6066,-4.564 -0.022,-2.0629 -1.6104,-7.7284 -3.53,-12.5894 -1.9198,-4.861 -3.493,-9.3733 -3.4956,-10.0276 0,-0.6543 -1.0406,-1.8374 -2.308,-2.629 -2.3277,-1.4536 -5.9451,-11.4238 -5.9451,-16.3869 0,-3.1604 2.2421,-4.5198 9.2094,-5.5843 1.1916,-0.1821 2.1281,-0.3023 2.9535,-0.3039 z m 335.7834,3.4784 c 1.5113,-0.1381 3.1411,-0.058 5.0267,0.1778 9.0069,1.1253 10.5088,2.5584 8.9107,8.4929 -0.7084,2.6311 -2.4801,6.579 -3.9374,8.7744 -3.3773,5.0879 -4.9512,8.5748 -6.8531,15.1872 -3.11,10.8125 -6.4323,15.8984 -11.9074,18.222 -2.8051,1.1904 -7.2227,3.101 -9.8153,4.2465 -2.5925,1.1453 -7.6297,3.0549 -11.1945,4.243 -3.5647,1.1881 -6.7613,2.5296 -7.1034,2.9829 -0.9362,1.2407 -10.907,5.5993 -12.9293,5.6516 -1.9312,0.05 -20.8789,7.5301 -22.0559,8.707 -1.286,1.2861 -5.7091,0.7754 -8.0372,-0.927 -1.8159,-1.3277 -2.0332,-2.2049 -1.1082,-4.464 1.4081,-3.4386 22.6408,-23.7565 44.6191,-42.6962 8.9676,-7.7277 18.9419,-16.621 22.1664,-19.7616 6.2053,-6.0442 9.6848,-8.4225 14.2188,-8.8365 z m -509.8462,57.381 c 1.2221,9e-4 5.2772,2.1209 9.0108,4.7127 3.7336,2.5916 7.5953,4.7125 8.581,4.7125 0.9858,0 2.0894,0.7753 2.453,1.7227 0.3636,0.9476 1.8054,2.0642 3.2039,2.4823 1.3983,0.4182 4.9513,2.2797 7.8957,4.1361 7.785,4.9085 20.8074,10.0122 31.3791,12.2976 5.0748,1.097 11.6129,2.5327 14.5295,3.1899 6.0001,1.3523 5.0374,1.3607 20.0327,-0.176 12.3839,-1.269 21.643,-2.855 27.4244,-4.697 2.0923,-0.6666 7.5173,-2.361 12.0542,-3.7649 4.5369,-1.404 10.315,-3.5894 12.8395,-4.8576 3.6359,-1.8263 5.1661,-2.0441 7.3641,-1.0426 1.5263,0.6954 2.7758,1.8561 2.7758,2.579 0,0.7228 4.8011,6.2256 10.6697,12.2284 19.4648,19.9099 19.6254,19.5177 -7.982,19.458 -11.5248,-0.025 -29.1735,-0.8297 -39.2196,-1.7884 -35.0566,-3.3454 -52.583,-4.4045 -72.7946,-4.4001 -18.6694,0 -22.9577,0.4359 -21.253,2.1405 0.3405,0.3405 5.1633,1.4126 10.718,2.3822 5.5547,0.9695 11.861,2.4931 14.0134,3.3868 2.1741,0.9027 16.7447,2.7227 32.7843,4.0946 35.5345,3.0393 62.4001,5.7082 74.8314,7.4331 5.1851,0.7194 12.4755,1.5376 16.2022,1.8176 4.523,0.34 6.7772,1.0186 6.7772,2.0439 0,0.8448 -3.315,4.5994 -7.3658,8.3428 -4.0508,3.7434 -8.2849,8.3077 -9.4096,10.1433 -1.1247,1.8355 -2.8375,3.3385 -3.8063,3.3385 -0.9688,0 -5.1421,3.0627 -9.2732,6.8064 -9.436,8.5513 -20.1155,13.9573 -30.8354,15.6084 -4.5369,0.6989 -10.6342,1.7604 -13.5508,2.3597 -10.6423,2.1871 -49.0028,0.4628 -55.3873,-2.4891 -1.6204,-0.7492 -4.2712,-2.0007 -5.8916,-2.7809 -1.6203,-0.7803 -5.333,-2.1343 -8.2496,-3.0088 -2.9166,-0.8746 -6.4455,-2.6014 -7.8422,-3.8391 -1.3966,-1.2378 -4.7826,-2.7553 -7.5245,-3.3713 -6.6612,-1.4967 -16.1256,-6.2281 -21.0288,-10.5127 -2.1943,-1.9175 -4.4278,-3.487 -4.9629,-3.487 -0.535,0 -3.7772,-2.2596 -7.2051,-5.0215 -3.428,-2.7618 -7.6805,-5.9479 -9.4493,-7.0809 -1.769,-1.1331 -4.0033,-3.5839 -4.9664,-5.4463 -0.963,-1.8623 -3.061,-3.7155 -4.6608,-4.117 -1.5998,-0.4014 -3.2828,-1.9213 -3.7407,-3.3781 -0.4579,-1.4569 -3.3496,-5.4097 -6.4267,-8.7848 -3.077,-3.375 -6.1481,-7.7235 -6.8237,-9.6616 -1.143,-3.2789 -0.9056,-3.7928 3.4024,-7.4141 4.4626,-3.7513 10.6003,-9.5097 29.5925,-27.7558 4.891,-4.699 9.8928,-8.5422 11.1151,-8.5414 z m 686.8747,2.6533 c 2.3006,0.5143 4.7095,2.4032 8.2203,5.8881 3.428,3.4027 10.6062,10.1639 15.9519,15.025 14.1594,12.8754 14.1429,12.8591 14.1429,14.1187 0,0.6358 1.3246,1.4887 2.9449,1.8954 3.9819,0.9993 4.1346,6.7224 0.2469,9.2697 -1.485,0.9731 -3.3694,3.6198 -4.1879,5.883 -0.955,2.6411 -5.3693,7.6522 -12.3251,13.991 -5.9603,5.4315 -13.6898,12.5374 -17.1759,15.7913 -3.8946,3.6355 -10.7092,8.0593 -17.6764,11.4742 -6.236,3.0566 -12.1332,6.0449 -13.1054,6.6407 -10.1487,6.2212 -29.5878,13.0965 -41.6795,14.7419 -18.3202,2.493 -40.3098,3.0129 -47.2913,1.1169 -3.2408,-0.88 -7.5331,-1.6519 -9.5391,-1.7142 -2.0335,-0.063 -4.5919,-1.1561 -5.7811,-2.4702 -1.1731,-1.2962 -3.3225,-2.3562 -4.7765,-2.3562 -1.4539,0 -7.3372,-2.3712 -13.0743,-5.2702 -8.052,-4.0687 -12.9657,-7.6972 -21.5414,-15.9088 -6.1103,-5.8508 -11.5177,-10.6386 -12.018,-10.6386 -1.9446,0 -7.2882,-8.3548 -6.1021,-9.5408 0.6503,-0.6503 9.6148,-1.4466 19.9205,-1.7711 10.3057,-0.3245 21.9181,-1.0896 25.8069,-1.7003 3.8888,-0.6108 11.0478,-1.1205 15.9088,-1.1324 4.861,-0.012 11.4392,-0.8103 14.6176,-1.7746 3.1784,-0.9642 12.4592,-2.2757 20.6231,-2.9138 18.9634,-1.4822 46.1392,-5.5093 47.6988,-7.0689 0.6608,-0.6608 2.6418,-1.2014 4.4036,-1.2014 4.0935,0 6.9324,-1.092 6.9324,-2.6653 0,-0.846 -8.4202,-0.9826 -26.8098,-0.4368 -71.8731,2.1335 -95.8328,3.1054 -103.4072,4.1947 -12.5859,1.8103 -28.8709,1.6304 -28.8709,-0.3193 0,-1.712 20.0851,-22.7674 26.8357,-28.1321 5.2141,-4.1436 10.6022,-4.2661 20.573,-0.4644 22.0811,8.4192 32.4182,10.3119 51.9539,9.5098 17.477,-0.7176 24.7188,-1.9002 32.3683,-5.284 2.8959,-1.281 5.9023,-2.3287 6.6805,-2.3287 2.7099,0 15.5814,-5.7668 22.8395,-10.2329 4.0196,-2.4735 9.0533,-5.5586 11.1858,-6.8549 2.1326,-1.2962 5.702,-3.5467 7.932,-5.0025 3.0807,-2.0113 5.2741,-2.8723 7.5746,-2.358 z m -518.536,11.3205 c 7.5071,0.2962 23.3253,3.7825 29.753,7.1707 3.752,1.9777 7.4154,3.5957 8.1409,3.5974 0.7255,0 3.9072,2.0439 7.0706,4.5383 3.1633,2.4943 9.9935,6.7501 15.1786,9.4578 15.3615,8.0223 16.0388,9.0137 8.0079,11.6917 -4.1197,1.3738 -31.9462,2.7418 -37.1862,1.8281 -2.0051,-0.3497 -4.315,-2.1331 -6.0244,-4.6487 -2.9149,-4.2896 -12.8015,-15.0921 -15.2373,-16.6494 -1.8218,-1.1647 -13.7856,-15.1343 -13.7856,-16.0969 0,-0.7316 1.5802,-0.9877 4.0825,-0.889 z m 346.17,0.1657 c 2.4502,0 4.4554,0.3227 4.4554,0.7181 0,2.2984 -7.9326,15.0515 -9.9568,16.0072 -2.5419,1.2001 -9.7118,9.8877 -14.9404,18.1028 l -3.0968,4.8645 -10.9304,0.7768 c -18.117,1.286 -26.7283,1.0029 -27.459,-0.9011 -0.3537,-0.9219 -1.8626,-1.8505 -3.354,-2.0629 -4.9622,-0.7063 -3.9147,-4.1269 2.201,-7.1845 7.0013,-3.5002 35.86,-19.6169 37.5244,-20.9562 3.2791,-2.6385 21.6354,-9.3647 25.5566,-9.3647 z m -304.33,56.6095 c 3.6885,0.049 7.0943,0.4946 8.6311,1.3171 3.071,1.6435 8.0815,2.9606 19.2455,5.0595 10.3031,1.9371 14.5795,4.498 14.5934,8.7381 0.01,1.7079 0.3459,5.9007 0.7562,9.3165 0.7348,6.1175 0.6732,6.28 -4.1481,10.8665 -8.1075,7.7125 -8.4157,7.7458 -16.4474,1.8332 -3.8957,-2.8678 -9.369,-6.3807 -12.1629,-7.8059 -2.7939,-1.4254 -6.9468,-4.0501 -9.2283,-5.8347 -2.2816,-1.7845 -6.0508,-3.8454 -8.3756,-4.5796 -2.3249,-0.7343 -5.3522,-2.3839 -6.7271,-3.6647 -1.3749,-1.281 -3.0516,-2.3287 -3.7269,-2.3287 -2.0236,0 -1.3127,-5.1073 1.1168,-8.0218 1.2467,-1.4955 4.01,-3.2195 6.1402,-3.8304 2.6728,-0.7665 6.6447,-1.1141 10.3331,-1.0651 z m 279.9144,3.2711 2.7413,4.143 c 3.6296,5.4854 2.344,7.7567 -6.6857,11.8091 -3.8542,1.7296 -7.311,3.9348 -7.6816,4.9007 -0.3707,0.9659 -1.4038,1.7555 -2.2959,1.7555 -0.8921,0 -2.6321,1.1385 -3.8668,2.529 -3.0545,3.4397 -11.1954,6.9223 -19.1885,8.2098 -18.0691,2.9105 -16.3384,3.1509 -18.9625,-2.6325 -2.6377,-5.8132 -3.0384,-14.4542 -0.8527,-18.3876 1.9664,-3.5388 8.6285,-8.3187 13.7302,-9.8516 2.2953,-0.6895 12.9239,-1.5286 23.6181,-1.8642 z m -308.9597,15.4964 c 2.7635,-0.1651 6.01,1.6168 12.8465,5.1613 36.916,19.1395 43.3867,23.1623 37.2586,23.1623 -1.5584,0 -5.7326,0.8235 -9.2767,1.8298 -3.5439,1.0064 -10.6856,2.8782 -15.8708,4.1585 -5.1851,1.2803 -11.0976,3.1078 -13.1399,4.0618 -2.0424,0.954 -5.1443,1.7348 -6.8928,1.7348 -1.7484,0 -4.8504,0.7451 -6.8927,1.6555 -2.0425,0.9103 -5.6789,1.9329 -8.0805,2.2734 -4.4096,0.6251 -37.9622,9.6865 -51.02,13.7787 -3.8888,1.2187 -12.6387,3.2738 -19.4441,4.5675 -6.8054,1.2936 -14.985,3.372 -18.177,4.6176 -5.377,2.0982 -5.6206,2.3616 -3.3178,3.594 3.0151,1.6136 10.486,1.7583 11.4362,0.221 0.3774,-0.6107 3.194,-1.4215 6.2575,-1.8005 3.0636,-0.3789 7.4232,-1.2858 9.6892,-2.0162 2.2661,-0.7304 10.7514,-2.008 18.8555,-2.8396 8.1041,-0.8316 16.855,-2.047 19.4475,-2.6998 2.5926,-0.6529 9.487,-2.0666 15.3202,-3.1418 18.9321,-3.4894 23.788,-4.6341 25.46,-6.0054 0.904,-0.7415 8.2731,-2.1797 16.3748,-3.1952 22.7454,-2.8512 26.8414,-3.6941 29.451,-6.0556 1.6132,-1.46 2.8146,-1.7978 3.5991,-1.0133 2.2323,2.2322 -17.3216,36.8473 -20.8561,36.9203 -0.7468,0.015 -1.8803,1.5249 -2.5185,3.3557 -1.7068,4.8959 -14.8344,19.1736 -20.1899,21.9575 -2.5478,1.3244 -6.9251,3.7094 -9.7271,5.3012 -9.3791,5.3278 -30.6437,10.8719 -49.8756,13.0019 -15.4398,1.7099 -36.0695,1.4235 -39.4768,-0.5473 -4.6534,-2.6916 -6.408,-3.1034 -27.1051,-6.3628 -2.9166,-0.4593 -6.8938,-1.6482 -8.8382,-2.6428 -9.6181,-4.9201 -11.5141,-5.7535 -13.1036,-5.7535 -2.2408,0 -10.9861,-4.4024 -13.9997,-7.0481 -1.2962,-1.1381 -3.6825,-2.3968 -5.3029,-2.7965 -4.4757,-1.104 -15.0903,-7.558 -16.3732,-9.9551 -1.3543,-2.5307 1.4402,-9.3931 7.604,-18.6794 2.2396,-3.374 5.9827,-9.7516 8.3187,-14.1722 2.3359,-4.4206 4.7344,-8.2203 5.3305,-8.4429 0.5961,-0.2226 2.353,-2.9071 3.903,-5.9658 1.55,-3.0587 3.6591,-6.2612 4.6884,-7.1155 2.7617,-2.292 17.7058,-1.0297 23.6491,1.9973 6.9369,3.5331 21.9397,4.2513 40.9458,1.9592 8.5903,-1.0359 18.8006,-2.9329 22.6894,-4.2154 12.085,-3.9854 36.8376,-18.0229 46.4128,-26.3213 4.8986,-4.2455 7.1778,-6.3583 9.9412,-6.5233 z m 321.1088,0.5765 c 2.1661,-0.3147 3.5971,0.5202 5.5429,2.3235 1.8009,1.669 3.6651,3.0346 4.1429,3.0346 0.4779,0 1.1342,1.0155 1.4587,2.2562 0.3245,1.2408 2.3755,3.1703 4.5572,4.2879 2.1816,1.1176 5.7039,3.5457 7.8283,5.3962 2.1246,1.8505 6.1018,4.5005 8.8383,5.8898 2.7365,1.3894 6.1853,3.4711 7.6627,4.6245 1.4773,1.1535 4.9237,2.4408 7.6592,2.8621 2.7354,0.4213 10.0938,2.3214 16.3524,4.2224 10.4843,3.1843 12.8019,3.4544 29.4613,3.4351 21.5012,-0.025 37.2086,-1.5013 41.9298,-3.9426 1.8866,-0.9757 5.5118,-1.9414 8.0563,-2.1458 l 4.6262,-0.3711 4.1256,8.2634 c 2.2685,4.5451 5.3161,10.1132 6.772,12.3735 1.4559,2.2603 2.6488,4.9731 2.6514,6.0279 0,1.055 0.7992,2.5768 1.7711,3.3834 2.777,2.3047 15.9088,22.0996 15.9088,23.9806 0,0.9297 -1.2664,2.0076 -2.8137,2.396 -2.8182,0.7073 -13.3833,8.0058 -17.8094,12.3027 -1.2962,1.2585 -4.3111,2.9118 -6.7011,3.6734 -2.39,0.7616 -5.5718,2.3401 -7.0706,3.5077 -1.4988,1.1676 -5.9075,2.9647 -9.7963,3.9944 -3.8888,1.0298 -12.374,3.5071 -18.8554,5.505 -6.4814,1.9978 -16.0266,4.4391 -21.2118,5.4237 -5.185,0.9847 -11.0177,2.3402 -12.9621,3.0123 -5.7524,1.988 -6.8677,2.067 -11.1945,0.7974 -2.2685,-0.6656 -9.9583,-1.6213 -17.0878,-2.1249 -18.5148,-1.3078 -43.3586,-8.6328 -54.1721,-15.971 -2.3459,-1.592 -4.5681,-2.8948 -4.9386,-2.8948 -1.842,0 -17.2015,-14.9498 -20.3349,-19.7928 -1.9721,-3.0481 -5.2287,-7.9292 -7.2363,-10.8458 -2.0075,-2.9166 -5.3318,-7.9092 -7.3882,-11.0944 -2.0564,-3.1852 -5.2364,-8.0785 -7.0654,-10.8751 -1.8289,-2.7967 -2.9895,-5.6271 -2.5807,-6.2886 1.0981,-1.7767 13.1836,-1.4597 16.8651,0.4419 1.7502,0.904 7.9533,2.2257 13.7838,2.938 6.7646,0.8265 11.6697,2.0819 13.5526,3.4697 2.089,1.5397 6.0476,2.4043 13.5559,2.9605 5.8333,0.432 15.3785,2.1324 21.2118,3.7787 17.4388,4.9214 18.6458,5.1838 23.9615,5.2131 2.8087,0.015 9.1723,1.0603 14.1412,2.32 11.2211,2.8447 35.5497,4.5916 35.5497,2.5531 0,-0.7608 -0.9286,-1.6948 -2.0628,-2.0766 -1.1342,-0.3819 -4.1829,-1.637 -6.7754,-2.7878 -4.869,-2.1614 -7.3928,-2.8298 -18.0269,-4.7782 -3.4336,-0.6291 -8.4726,-1.9789 -11.1963,-2.9985 -2.7236,-1.0196 -11.5805,-3.4491 -19.6822,-5.3995 -8.1017,-1.9505 -17.3824,-4.2304 -20.6231,-5.0665 -3.2407,-0.8361 -10.6642,-2.6825 -16.4975,-4.1032 -5.8332,-1.4207 -11.4532,-3.3425 -12.4891,-4.2707 -1.0359,-0.9281 -6.604,-2.2621 -12.3735,-2.9656 -5.7696,-0.7035 -11.3838,-1.756 -12.4754,-2.3373 -1.0916,-0.5813 -2.836,-1.0565 -3.8771,-1.0565 -2.4554,0 -8.8675,-4.7434 -8.8675,-6.5596 0,-1.8162 11.9371,-9.7116 32.2439,-21.3273 4.8877,-2.7959 7.7891,-4.2599 9.9551,-4.5745 z"/></g></svg>