<svg version="1.1" id="svg1" width="5078.9116" height="5263.5273" viewBox="2162.789757297391 247.45392999999956 730.9745933489089 797.3136700000001" sodipodi:docname="trees3.svg" inkscape:version="1.4.2 (f4327f4, 2025-05-13)" xmlns:inkscape="http://www.inkscape.org/namespaces/inkscape" xmlns:sodipodi="http://sodipodi.sourceforge.net/DTD/sodipodi-0.dtd" xmlns="http://www.w3.org/2000/svg" xmlns:svg="http://www.w3.org/2000/svg"><defs id="defs1"/><g><path d="m 2526.8477,1039.0871 c -2.2499,-8.1538 -6.8623,-19.0992 -10.5249,-24.9755 -6.2218,-9.9825 -15.6005,-18.00767 -24.5943,-21.04487 -10.4785,-3.5387 -23.1898,-0.6675 -29.8928,6.7519 -2.3607,2.61287 -5.6747,8.71867 -5.6885,10.48027 0,0.4623 -0.2592,0.8406 -0.5678,0.8406 -0.8262,0 0.3392,-7.4728 1.8244,-11.69837 1.8771,-5.3407 4.8881,-9.3111 10.6481,-14.0412 11.992,-9.8476 14.6187,-12.3588 19.3818,-18.5294 8.5287,-11.049 14.1471,-23.9993 18.1986,-41.9468 l 1.6231,-7.1902 -0.055,-56.3672 -0.055,-56.3671 -2.007,4.1705 c -3.4187,7.1036 -5.8753,15.3341 -8.6699,29.0463 -4.5362,22.2571 -7.6997,31.371 -14.3248,41.2683 -3.659,5.4662 -15.2155,17.5863 -14.2697,14.9657 4.7804,-13.2463 4.7264,-12.985 4.7288,-22.8671 0,-7.7601 -0.2658,-10.3621 -1.5224,-14.7964 -2.0545,-7.2493 -7.9932,-19.0409 -12.7385,-25.2928 -5.4116,-7.1299 -8.7816,-11.0605 -9.155,-10.678 -0.1745,0.1787 -0.043,2.8976 0.2919,6.0418 2.6047,24.4405 1.7806,38.0547 -3.2068,52.976 -7.7178,23.09 -24.9166,41.8548 -49.6535,54.1741 -19.1638,9.544 -38.6975,14.3868 -60.5306,15.0067 l -11.4335,0.3246 7.0909,-3.5685 c 9.5425,-4.8022 15.1592,-8.9127 23.1969,-16.9759 12.1441,-12.1827 19.6489,-25.5318 27.4378,-48.8046 2.4141,-7.2132 5.0056,-14.5526 5.7591,-16.3096 0.7533,-1.7571 1.2128,-3.1947 1.0209,-3.1947 -0.1919,0 -7.5204,3.7611 -16.2857,8.3581 -15.3397,8.0449 -23.1949,11.2807 -32.0784,13.2141 -3.2155,0.6997 -4.8871,1.5952 -8.2277,4.4074 -12.2143,10.2823 -24.7277,17.1071 -39.4433,21.5123 -27.4363,8.2131 -59.4947,5.4075 -85.0981,-7.4474 -10.0769,-5.0593 -21.5712,-13.487 -23.6921,-17.371 -0.4751,-0.87 0.981,-0.3811 5.2655,1.7677 12.8067,6.423 25.9879,9.4169 41.568,9.4414 19.2393,0.03 35.3784,-4.8654 49.4068,-14.9873 5.6444,-4.0726 11.3187,-8.8069 10.5555,-8.8069 -0.2607,0 -2.5276,1.0342 -5.0375,2.2981 -4.857,2.446 -14.0257,5.1282 -22.3055,6.5253 -6.5474,1.1048 -27.1619,0.9502 -32.9555,-0.2471 l -4.3717,-0.9035 8.0707,-0.4807 c 16.3617,-0.9743 29.0872,-5.3029 42.3715,-14.4126 6.1478,-4.2159 25.9021,-19.8932 25.5338,-20.2641 -0.1342,-0.1353 -1.2126,0.092 -2.3965,0.5044 -4.2428,1.479 -14.5435,0.924 -22.18,-1.195 -3.8557,-1.07 -10.0369,-2.4453 -13.736,-3.0564 -31.9633,-5.2802 -65.3375,-19.8818 -85.7161,-37.5018 -5.414,-4.681 -15.1607,-15.2322 -14.5943,-15.7988 0.1473,-0.1471 2.0456,0.5274 4.2186,1.499 17.5021,7.8263 36.9836,11.7416 58.4228,11.7416 9.0548,0 26.9365,-1.4857 27.7569,-2.3062 0.1304,-0.1303 -1.9745,-1.0697 -4.6776,-2.0875 -28.4692,-10.7193 -54.8893,-32.9166 -74.8214,-62.8625 -8.6483,-12.9932 -10.8269,-18.0539 -5.5883,-12.9811 11.3206,10.9619 34.5628,21.8295 55.6545,26.0227 13.3769,2.6595 22.7618,3.3413 39.8927,2.8983 l 15.3442,-0.3968 12.2308,3.0324 c 9.8583,2.4441 26.6928,5.5517 30.4597,5.6227 0.5218,0.01 0.4562,-1.5338 -0.2207,-5.1984 -0.5296,-2.8667 -1.1197,-8.1879 -1.3114,-11.8248 l -0.3484,-6.6124 -5.8202,0.5594 c -9.4417,0.9075 -24.6181,0.5753 -34.4041,-0.7531 -8.2714,-1.1228 -9.6482,-1.5167 -15.4689,-4.4261 -7.494,-3.7457 -18.4295,-10.8499 -25.5893,-16.624 -6.9807,-5.6296 -21.009,-20.2968 -25.7243,-26.8959 -3.8497,-5.3876 -11.2347,-17.2416 -11.2347,-18.0334 0,-0.2245 1.7403,1.1538 3.8672,3.0629 9.0153,8.0919 23.0168,16.1611 34.929,20.1299 11.3018,3.7655 16.0115,4.4212 31.4866,4.3838 13.0386,-0.031 14.6147,-0.1678 20.5132,-1.7746 12.3445,-3.3626 23.1707,-8.9206 38.2631,-19.6436 l 7.6616,-5.4435 -5.9801,-0.8486 c -11.7285,-1.6644 -21.1338,-4.5938 -33.1211,-10.3159 -24.2775,-11.5888 -44.1809,-30.2002 -56.2108,-52.5621 l -3.3497,-6.2265 3.3332,2.8915 c 16.3249,14.1621 26.5506,19.928 43.3507,24.444 3.6288,0.9755 8.0638,1.456 15.8052,1.7124 11.9093,0.3944 18.9063,-0.4584 29.2565,-3.5654 6.1291,-1.84 18.1613,-6.8532 18.1559,-7.5647 0,-0.2372 -2.9527,-1.4493 -6.5575,-2.6937 -18.7625,-6.4766 -34.3216,-16.6976 -49.9527,-32.81487 -8.8969,-9.17362 -14.4227,-16.33943 -20.6654,-26.79836 -4.2881,-7.18448 -10.8976,-20.19493 -10.9172,-21.48993 -0.01,-0.35229 4.0005,3.30517 8.9018,8.12764 4.9013,4.82243 10.9453,10.20017 13.4311,11.95046 9.6416,6.78906 22.3215,12.1375 35.5139,14.97991 4.668,1.00577 8.7669,1.22827 22.6269,1.22827 9.3094,0 17.1489,-0.22275 17.4211,-0.49499 0.2723,-0.27229 -0.3835,-1.17767 -1.4572,-2.01199 -18.0589,-14.0326 -31.3483,-33.11498 -39.0039,-56.00594 -2.2392,-6.69524 -5.9356,-22.47547 -5.3921,-23.01899 0.1216,-0.12157 1.9362,2.65307 4.0324,6.16586 9.1153,15.27469 19.5621,25.2401 33.8084,32.25035 10.2883,5.06263 20.4033,7.87887 38.9037,10.8316 12.599,2.01088 16.0414,2.92232 22.9813,6.08494 2.8251,1.28744 5.2554,2.22198 5.4006,2.07681 0.4168,-0.41686 -4.0008,-3.68294 -15.6033,-11.53593 -5.9185,-4.00586 -10.8809,-7.37595 -11.0275,-7.48905 -0.9236,-0.71239 9.9045,-13.99861 14.8522,-18.224 2.0773,-1.77395 3.0073,-2.96736 2.4515,-3.14552 -14.1041,-4.52078 -23.4388,-8.04018 -30.4884,-11.49486 -23.0075,-11.2748 -41.0941,-26.99923 -51.7248,-44.96956 -2.5658,-4.33707 -2.6472,-5.51459 -0.228,-3.29539 4.5029,4.13051 17.664,10.99216 27.9535,14.57365 11.2166,3.90428 20.214,5.37472 32.7426,5.35116 11.0893,-0.0207 16.208,-0.75562 25.7104,-3.6906 l 4.4204,-1.36532 -4.977,-2.68574 c -14.3608,-7.74963 -24.9161,-19.78211 -32.2244,-36.73396 -2.7906,-6.47279 -5.679,-15.98573 -6.3746,-20.99453 l -0.4202,-3.02653 1.478,2.35398 c 7.6335,12.15707 11.6665,16.96153 18.7608,22.34906 6.2519,4.74782 16.5076,9.50704 25.237,11.71141 6.6295,1.67408 8.5975,1.87095 18.9416,1.89486 6.3489,0.0146 11.7305,-0.15934 11.9592,-0.38679 0.2287,-0.22744 -0.6597,-2.04336 -1.9741,-4.03537 -6.6045,-10.00924 -12.005,-23.44033 -14.5002,-36.06257 -2.8201,-14.2655 -1.6708,-32.07648 2.8107,-43.55884 l 1.5749,-4.03537 0.424,6.81227 c 0.7796,12.52615 4.8633,21.94295 12.831,29.58771 3.5411,3.39758 11.1328,8.99797 12.1972,8.99797 0.1519,0 0.4877,-2.607 0.7462,-5.79333 0.998,-12.29947 6.0483,-26.04198 13.7823,-37.5032 1.9193,-2.84438 8.0407,-9.92853 13.603,-15.7426 5.5624,-5.81406 11.8301,-12.84096 13.9282,-15.61528 9.8084,-12.96919 15.7781,-29.56269 20.0224,-55.6545 1.038,-6.38094 2.0606,-11.6017 2.2724,-11.6017 0.2119,0 1.2345,5.22076 2.2725,11.6017 4.2443,26.09181 10.214,42.68531 20.0224,55.6545 2.0981,2.77432 8.3658,9.80122 13.9281,15.61528 5.5624,5.81407 11.6838,12.89822 13.6031,15.7426 7.734,11.46122 12.7843,25.20373 13.7823,37.5032 0.2585,3.18633 0.5943,5.79333 0.7461,5.79333 1.0645,0 8.6562,-5.60039 12.1973,-8.99797 7.9677,-7.64476 12.0514,-17.06156 12.8309,-29.58771 l 0.424,-6.81227 1.575,4.03537 c 4.4815,11.48236 5.6308,29.29334 2.8107,43.55884 -2.4952,12.62224 -7.8957,26.05333 -14.5003,36.06257 -1.3144,1.99201 -2.2027,3.80793 -1.974,4.03537 0.2286,0.22745 5.6103,0.40152 11.9592,0.38679 10.344,-0.0237 12.3121,-0.22078 18.9416,-1.89486 8.7294,-2.20437 18.9851,-6.96359 25.237,-11.71141 7.0943,-5.38753 11.1273,-10.19199 18.7607,-22.34906 l 1.4781,-2.35398 -0.4203,3.02653 c -0.6955,5.0088 -3.5839,14.52174 -6.3745,20.99453 -7.3083,16.95185 -17.8637,28.98433 -32.2245,36.73396 l -4.977,2.68574 4.4205,1.36532 c 9.5024,2.93498 14.6211,3.66977 25.7104,3.6906 12.5286,0.0237 21.526,-1.44688 32.7426,-5.35116 10.2895,-3.58149 23.4506,-10.44314 27.9535,-14.57365 2.4192,-2.2192 2.3377,-1.04168 -0.228,3.29539 -10.6308,17.97033 -28.7173,33.69476 -51.7248,44.96956 -7.0496,3.45468 -16.3844,6.97408 -30.4884,11.49486 -0.5558,0.17816 0.3742,1.37157 2.4514,3.14552 4.9478,4.22539 15.7759,17.51161 14.8523,18.224 -0.1466,0.1131 -5.109,3.48319 -11.0275,7.48905 -11.6025,7.85299 -16.0202,11.11907 -15.6033,11.53593 0.1452,0.14517 2.5755,-0.78937 5.4006,-2.07681 6.9399,-3.16262 10.3822,-4.07406 22.9813,-6.08494 18.5003,-2.95273 28.6154,-5.76897 38.9037,-10.8316 14.2463,-7.01025 24.6931,-16.97566 33.8084,-32.25035 2.0962,-3.51279 3.9108,-6.28743 4.0324,-6.16586 0.5435,0.54352 -3.1529,16.32375 -5.3921,23.01899 -7.6556,22.89096 -20.945,41.97334 -39.0039,56.00594 -1.0737,0.83432 -1.7295,1.7397 -1.4572,2.01199 0.2722,0.27224 8.1117,0.49499 17.4211,0.49499 13.86,0 17.9589,-0.2225 22.6268,-1.22827 13.1925,-2.84241 25.8724,-8.19085 35.514,-14.97991 2.4858,-1.75029 8.5298,-7.12803 13.4311,-11.95046 4.9012,-4.82247 8.907,-8.47993 8.9018,-8.12764 -0.02,1.295 -6.6291,14.30545 -10.9172,21.48993 -6.2427,10.45893 -11.7685,17.62474 -20.6654,26.79836 -15.6312,16.11727 -31.1902,26.33827 -49.9527,32.81487 -3.6048,1.2444 -6.5556,2.4565 -6.5575,2.6937 -0.01,0.7115 12.0268,5.7247 18.1559,7.5647 10.3502,3.107 17.3472,3.9598 29.2565,3.5654 7.7414,-0.2564 12.1764,-0.7369 15.8052,-1.7124 16.8001,-4.516 27.0258,-10.2819 43.3507,-24.444 l 3.3332,-2.8915 -3.3497,6.2265 c -12.0299,22.3619 -31.9333,40.9733 -56.2108,52.5621 -11.9873,5.7221 -21.3927,8.6515 -33.1211,10.3159 l -5.9801,0.8486 7.6615,5.4435 c 15.0925,10.723 25.9186,16.281 38.2632,19.6436 5.8985,1.6068 7.4746,1.7431 20.5132,1.7746 15.4751,0.037 20.1848,-0.6183 31.4866,-4.3838 11.9122,-3.9688 25.9137,-12.038 34.9289,-20.1299 2.127,-1.9091 3.8672,-3.2874 3.8672,-3.0629 0,0.7918 -7.3849,12.6458 -11.2346,18.0334 -4.7153,6.5991 -18.7436,21.2663 -25.7243,26.8959 -7.1598,5.7741 -18.0954,12.8783 -25.5893,16.624 -5.8207,2.9094 -7.1975,3.3033 -15.469,4.4261 -9.7859,1.3284 -24.9623,1.6606 -34.4041,0.7531 l -5.8201,-0.5594 -0.3485,6.6124 c -0.1916,3.6369 -0.7817,8.9581 -1.3113,11.8248 -0.677,3.6646 -0.7425,5.2083 -0.2207,5.1984 3.7669,-0.071 20.6013,-3.1786 30.4596,-5.6227 l 12.2309,-3.0324 15.3442,0.3968 c 17.1309,0.443 26.5158,-0.2388 39.8927,-2.8983 21.0916,-4.1932 44.334,-15.0608 55.6545,-26.0227 5.2386,-5.0728 3.06,-0.012 -5.5883,12.9811 -19.9322,29.9459 -46.3523,52.1432 -74.8214,62.8625 -2.7031,1.0178 -4.808,1.9572 -4.6777,2.0875 0.8205,0.8205 18.7022,2.3062 27.7569,2.3062 21.4393,0 40.9209,-3.9153 58.423,-11.7416 2.1729,-0.9716 4.0713,-1.6461 4.2185,-1.499 0.5665,0.5666 -9.1803,11.1178 -14.5942,15.7988 -15.7924,13.6545 -40.3604,26.0571 -65.5393,33.086 -2.9593,0.8261 -6.5044,2.0728 -7.878,2.7706 -3.1978,1.6243 -19.0432,5.656 -24.7413,6.2951 -7.3501,0.8244 -21.1486,0.4236 -24.3608,-0.7075 -2.3194,-0.8167 -2.6822,-0.8326 -1.8692,-0.082 3.0327,2.8004 22.0437,17.5936 26.2994,20.4646 13.1629,8.8799 25.8381,13.1382 41.9658,14.0986 l 8.0707,0.4807 -4.3717,0.9035 c -5.7937,1.1973 -26.4081,1.3519 -32.9555,0.2471 -8.2798,-1.3971 -17.4485,-4.0793 -22.3055,-6.5253 -2.5099,-1.2639 -4.7768,-2.2981 -5.0375,-2.2981 -0.7632,0 4.9111,4.7343 10.5555,8.8069 14.0284,10.1219 30.1675,15.0176 49.4067,14.9873 15.5802,-0.025 28.7614,-3.0184 41.5681,-9.4414 4.2845,-2.1488 5.7406,-2.6377 5.2656,-1.7677 -2.121,3.884 -13.6153,12.3117 -23.6922,17.371 -25.6033,12.8549 -57.662,15.6605 -85.0981,7.4474 -14.7156,-4.4052 -27.229,-11.23 -39.4433,-21.5123 -3.3406,-2.8122 -5.0122,-3.7077 -8.2277,-4.4074 -8.8835,-1.9334 -16.7388,-5.1692 -32.0784,-13.2141 -8.7653,-4.597 -16.0939,-8.3581 -16.2857,-8.3581 -0.1919,0 0.2675,1.4376 1.0209,3.1947 0.7534,1.757 3.345,9.0964 5.7591,16.3096 7.7889,23.2728 15.2936,36.6219 27.4378,48.8046 8.0376,8.0632 13.6544,12.1737 23.1969,16.9759 l 7.0909,3.5685 -11.4336,-0.3246 c -21.833,-0.6199 -41.3668,-5.4627 -60.5306,-15.0067 -24.7368,-12.3193 -41.9357,-31.0841 -49.6534,-54.1741 -4.9874,-14.9213 -5.8115,-28.5355 -3.2069,-52.976 0.3351,-3.1442 0.4665,-5.8631 0.292,-6.0418 -0.3734,-0.3825 -3.7434,3.5481 -9.1551,10.678 -4.7453,6.2519 -10.684,18.0435 -12.7384,25.2928 -1.2566,4.4343 -1.5244,7.0363 -1.5225,14.7964 0.01,9.8821 -0.051,9.6208 4.7289,22.8671 0.9458,2.6206 -10.6107,-9.4995 -14.2697,-14.9657 -6.6251,-9.8973 -9.7887,-19.0112 -14.3248,-41.2683 -2.7946,-13.7122 -5.2512,-21.9427 -8.6699,-29.0463 l -2.007,-4.1705 -0.055,56.3671 -0.055,56.3672 1.6231,7.1902 c 4.0515,17.9475 9.6699,30.8978 18.1986,41.9468 4.7631,6.1706 7.3898,8.6818 19.3817,18.5294 5.7601,4.7301 8.771,8.7005 10.6482,14.0412 1.4851,4.22557 2.6506,11.69837 1.8244,11.69837 -0.3087,0 -0.5642,-0.3783 -0.5678,-0.8406 -0.014,-1.7616 -3.3278,-7.8674 -5.6885,-10.48027 -4.8246,-5.3403 -11.956,-8.1833 -20.5264,-8.1833 -12.4316,0 -25.232,8.47167 -33.9608,22.47627 -3.6625,5.8763 -8.2749,16.8217 -10.5248,24.9755 -0.8621,3.1243 -1.7304,5.6806 -1.9297,5.6806 -0.1992,0 -1.0676,-2.5563 -1.9296,-5.6806 z" id="path63" style="fill:#ffffff"/><path style="display:inline;fill:#1a1a1a;stroke-width:0.504422" d="m 2526.8477,1039.0871 c -2.2499,-8.1538 -6.8623,-19.0992 -10.5249,-24.9755 -6.2218,-9.9825 -15.6005,-18.00767 -24.5943,-21.04487 -10.4785,-3.5387 -23.1898,-0.6675 -29.8928,6.7519 -2.3607,2.61287 -5.6747,8.71867 -5.6885,10.48027 0,0.4623 -0.2592,0.8406 -0.5678,0.8406 -0.8262,0 0.3392,-7.4728 1.8244,-11.69837 1.8771,-5.3407 4.8881,-9.3111 10.6481,-14.0412 11.992,-9.8476 14.6187,-12.3588 19.3818,-18.5294 8.5287,-11.049 14.1471,-23.9993 18.1986,-41.9468 l 1.6231,-7.1902 -0.055,-56.3672 -0.055,-56.3671 -2.007,4.1705 c -3.4187,7.1036 -5.8753,15.3341 -8.6699,29.0463 -4.5362,22.2571 -7.6997,31.371 -14.3248,41.2683 -3.659,5.4662 -15.2155,17.5863 -14.2697,14.9657 4.7804,-13.2463 4.7264,-12.985 4.7288,-22.8671 0,-7.7601 -0.2658,-10.3621 -1.5224,-14.7964 -2.0545,-7.2493 -7.9932,-19.0409 -12.7385,-25.2928 -5.4116,-7.1299 -8.7816,-11.0605 -9.155,-10.678 -0.1745,0.1787 -0.043,2.8976 0.2919,6.0418 2.6047,24.4405 1.7806,38.0547 -3.2068,52.976 -7.7178,23.09 -24.9166,41.8548 -49.6535,54.1741 -19.1638,9.544 -38.6975,14.3868 -60.5306,15.0067 l -11.4335,0.3246 7.0909,-3.5685 c 9.5425,-4.8022 15.1592,-8.9127 23.1969,-16.9759 12.1441,-12.1827 19.6489,-25.5318 27.4378,-48.8046 2.4141,-7.2132 5.0056,-14.5526 5.7591,-16.3096 0.7533,-1.7571 1.2128,-3.1947 1.0209,-3.1947 -0.1919,0 -7.5204,3.7611 -16.2857,8.3581 -15.3397,8.0449 -23.1949,11.2807 -32.0784,13.2141 -3.2155,0.6997 -4.8871,1.5952 -8.2277,4.4074 -12.2143,10.2823 -24.7277,17.1071 -39.4433,21.5123 -27.4363,8.2131 -59.4947,5.4075 -85.0981,-7.4474 -10.0769,-5.0593 -21.5712,-13.487 -23.6921,-17.371 -0.4751,-0.87 0.981,-0.3811 5.2655,1.7677 12.8067,6.423 25.9879,9.4169 41.568,9.4414 19.2393,0.03 35.3784,-4.8654 49.4068,-14.9873 5.6444,-4.0726 11.3187,-8.8069 10.5555,-8.8069 -0.2607,0 -2.5276,1.0342 -5.0375,2.2981 -4.857,2.446 -14.0257,5.1282 -22.3055,6.5253 -6.5474,1.1048 -27.1619,0.9502 -32.9555,-0.2471 l -4.3717,-0.9035 8.0707,-0.4807 c 16.3617,-0.9743 29.0872,-5.3029 42.3715,-14.4126 6.1478,-4.2159 25.9021,-19.8932 25.5338,-20.2641 -0.1342,-0.1353 -1.2126,0.092 -2.3965,0.5044 -4.2428,1.479 -14.5435,0.924 -22.18,-1.195 -3.8557,-1.07 -10.0369,-2.4453 -13.736,-3.0564 -31.9633,-5.2802 -65.3375,-19.8818 -85.7161,-37.5018 -5.414,-4.681 -15.1607,-15.2322 -14.5943,-15.7988 0.1473,-0.1471 2.0456,0.5274 4.2186,1.499 17.5021,7.8263 36.9836,11.7416 58.4228,11.7416 9.0548,0 26.9365,-1.4857 27.7569,-2.3062 0.1304,-0.1303 -1.9745,-1.0697 -4.6776,-2.0875 -28.4692,-10.7193 -54.8893,-32.9166 -74.8214,-62.8625 -8.6483,-12.9932 -10.8269,-18.0539 -5.5883,-12.9811 11.3206,10.9619 34.5628,21.8295 55.6545,26.0227 13.3769,2.6595 22.7618,3.3413 39.8927,2.8983 l 15.3442,-0.3968 12.2308,3.0324 c 9.8583,2.4441 26.6928,5.5517 30.4597,5.6227 0.5218,0.01 0.4562,-1.5338 -0.2207,-5.1984 -0.5296,-2.8667 -1.1197,-8.1879 -1.3114,-11.8248 l -0.3484,-6.6124 -5.8202,0.5594 c -9.4417,0.9075 -24.6181,0.5753 -34.4041,-0.7531 -8.2714,-1.1228 -9.6482,-1.5167 -15.4689,-4.4261 -7.494,-3.7457 -18.4295,-10.8499 -25.5893,-16.624 -6.9807,-5.6296 -21.009,-20.2968 -25.7243,-26.8959 -3.8497,-5.3876 -11.2347,-17.2416 -11.2347,-18.0334 0,-0.2245 1.7403,1.1538 3.8672,3.0629 9.0153,8.0919 23.0168,16.1611 34.929,20.1299 11.3018,3.7655 16.0115,4.4212 31.4866,4.3838 13.0386,-0.031 14.6147,-0.1678 20.5132,-1.7746 12.3445,-3.3626 23.1707,-8.9206 38.2631,-19.6436 l 7.6616,-5.4435 -5.9801,-0.8486 c -11.7285,-1.6644 -21.1338,-4.5938 -33.1211,-10.3159 -24.2775,-11.5888 -44.1809,-30.2002 -56.2108,-52.5621 l -3.3497,-6.2265 3.3332,2.8915 c 16.3249,14.1621 26.5506,19.928 43.3507,24.444 3.6288,0.9755 8.0638,1.456 15.8052,1.7124 11.9093,0.3944 18.9063,-0.4584 29.2565,-3.5654 6.1291,-1.84 18.1613,-6.8532 18.1559,-7.5647 0,-0.2372 -2.9527,-1.4493 -6.5575,-2.6937 -18.7625,-6.4766 -34.3216,-16.6976 -49.9527,-32.81487 -8.8969,-9.17362 -14.4227,-16.33943 -20.6654,-26.79836 -4.2881,-7.18448 -10.8976,-20.19493 -10.9172,-21.48993 -0.01,-0.35229 4.0005,3.30517 8.9018,8.12764 4.9013,4.82243 10.9453,10.20017 13.4311,11.95046 9.6416,6.78906 22.3215,12.1375 35.5139,14.97991 4.668,1.00577 8.7669,1.22827 22.6269,1.22827 9.3094,0 17.1489,-0.22275 17.4211,-0.49499 0.2723,-0.27229 -0.3835,-1.17767 -1.4572,-2.01199 -18.0589,-14.0326 -31.3483,-33.11498 -39.0039,-56.00594 -2.2392,-6.69524 -5.9356,-22.47547 -5.3921,-23.01899 0.1216,-0.12157 1.9362,2.65307 4.0324,6.16586 9.1153,15.27469 19.5621,25.2401 33.8084,32.25035 10.2883,5.06263 20.4033,7.87887 38.9037,10.8316 12.599,2.01088 16.0414,2.92232 22.9813,6.08494 2.8251,1.28744 5.2554,2.22198 5.4006,2.07681 0.4168,-0.41686 -4.0008,-3.68294 -15.6033,-11.53593 -5.9185,-4.00586 -10.8809,-7.37595 -11.0275,-7.48905 -0.9236,-0.71239 9.9045,-13.99861 14.8522,-18.224 2.0773,-1.77395 3.0073,-2.96736 2.4515,-3.14552 -14.1041,-4.52078 -23.4388,-8.04018 -30.4884,-11.49486 -23.0075,-11.2748 -41.0941,-26.99923 -51.7248,-44.96956 -2.5658,-4.33707 -2.6472,-5.51459 -0.228,-3.29539 4.5029,4.13051 17.664,10.99216 27.9535,14.57365 11.2166,3.90428 20.214,5.37472 32.7426,5.35116 11.0893,-0.0207 16.208,-0.75562 25.7104,-3.6906 l 4.4204,-1.36532 -4.977,-2.68574 c -14.3608,-7.74963 -24.9161,-19.78211 -32.2244,-36.73396 -2.7906,-6.47279 -5.679,-15.98573 -6.3746,-20.99453 l -0.4202,-3.02653 1.478,2.35398 c 7.6335,12.15707 11.6665,16.96153 18.7608,22.34906 6.2519,4.74782 16.5076,9.50704 25.237,11.71141 6.6295,1.67408 8.5975,1.87095 18.9416,1.89486 6.3489,0.0146 11.7305,-0.15934 11.9592,-0.38679 0.2287,-0.22744 -0.6597,-2.04336 -1.9741,-4.03537 -6.6045,-10.00924 -12.005,-23.44033 -14.5002,-36.06257 -2.8201,-14.2655 -1.6708,-32.07648 2.8107,-43.55884 l 1.5749,-4.03537 0.424,6.81227 c 0.7796,12.52615 4.8633,21.94295 12.831,29.58771 3.5411,3.39758 11.1328,8.99797 12.1972,8.99797 0.1519,0 0.4877,-2.607 0.7462,-5.79333 0.998,-12.29947 6.0483,-26.04198 13.7823,-37.5032 1.9193,-2.84438 8.0407,-9.92853 13.603,-15.7426 5.5624,-5.81406 11.8301,-12.84096 13.9282,-15.61528 9.8084,-12.96919 15.7781,-29.56269 20.0224,-55.6545 1.038,-6.38094 2.0606,-11.6017 2.2724,-11.6017 0.2119,0 1.2345,5.22076 2.2725,11.6017 4.2443,26.09181 10.214,42.68531 20.0224,55.6545 2.0981,2.77432 8.3658,9.80122 13.9281,15.61528 5.5624,5.81407 11.6838,12.89822 13.6031,15.7426 7.734,11.46122 12.7843,25.20373 13.7823,37.5032 0.2585,3.18633 0.5943,5.79333 0.7461,5.79333 1.0645,0 8.6562,-5.60039 12.1973,-8.99797 7.9677,-7.64476 12.0514,-17.06156 12.8309,-29.58771 l 0.424,-6.81227 1.575,4.03537 c 4.4815,11.48236 5.6308,29.29334 2.8107,43.55884 -2.4952,12.62224 -7.8957,26.05333 -14.5003,36.06257 -1.3144,1.99201 -2.2027,3.80793 -1.974,4.03537 0.2286,0.22745 5.6103,0.40152 11.9592,0.38679 10.344,-0.0237 12.3121,-0.22078 18.9416,-1.89486 8.7294,-2.20437 18.9851,-6.96359 25.237,-11.71141 7.0943,-5.38753 11.1273,-10.19199 18.7607,-22.34906 l 1.4781,-2.35398 -0.4203,3.02653 c -0.6955,5.0088 -3.5839,14.52174 -6.3745,20.99453 -7.3083,16.95185 -17.8637,28.98433 -32.2245,36.73396 l -4.977,2.68574 4.4205,1.36532 c 9.5024,2.93498 14.6211,3.66977 25.7104,3.6906 12.5286,0.0237 21.526,-1.44688 32.7426,-5.35116 10.2895,-3.58149 23.4506,-10.44314 27.9535,-14.57365 2.4192,-2.2192 2.3377,-1.04168 -0.228,3.29539 -10.6308,17.97033 -28.7173,33.69476 -51.7248,44.96956 -7.0496,3.45468 -16.3844,6.97408 -30.4884,11.49486 -0.5558,0.17816 0.3742,1.37157 2.4514,3.14552 4.9478,4.22539 15.7759,17.51161 14.8523,18.224 -0.1466,0.1131 -5.109,3.48319 -11.0275,7.48905 -11.6025,7.85299 -16.0202,11.11907 -15.6033,11.53593 0.1452,0.14517 2.5755,-0.78937 5.4006,-2.07681 6.9399,-3.16262 10.3822,-4.07406 22.9813,-6.08494 18.5003,-2.95273 28.6154,-5.76897 38.9037,-10.8316 14.2463,-7.01025 24.6931,-16.97566 33.8084,-32.25035 2.0962,-3.51279 3.9108,-6.28743 4.0324,-6.16586 0.5435,0.54352 -3.1529,16.32375 -5.3921,23.01899 -7.6556,22.89096 -20.945,41.97334 -39.0039,56.00594 -1.0737,0.83432 -1.7295,1.7397 -1.4572,2.01199 0.2722,0.27224 8.1117,0.49499 17.4211,0.49499 13.86,0 17.9589,-0.2225 22.6268,-1.22827 13.1925,-2.84241 25.8724,-8.19085 35.514,-14.97991 2.4858,-1.75029 8.5298,-7.12803 13.4311,-11.95046 4.9012,-4.82247 8.907,-8.47993 8.9018,-8.12764 -0.02,1.295 -6.6291,14.30545 -10.9172,21.48993 -6.2427,10.45893 -11.7685,17.62474 -20.6654,26.79836 -15.6312,16.11727 -31.1902,26.33827 -49.9527,32.81487 -3.6048,1.2444 -6.5556,2.4565 -6.5575,2.6937 -0.01,0.7115 12.0268,5.7247 18.1559,7.5647 10.3502,3.107 17.3472,3.9598 29.2565,3.5654 7.7414,-0.2564 12.1764,-0.7369 15.8052,-1.7124 16.8001,-4.516 27.0258,-10.2819 43.3507,-24.444 l 3.3332,-2.8915 -3.3497,6.2265 c -12.0299,22.3619 -31.9333,40.9733 -56.2108,52.5621 -11.9873,5.7221 -21.3927,8.6515 -33.1211,10.3159 l -5.9801,0.8486 7.6615,5.4435 c 15.0925,10.723 25.9186,16.281 38.2632,19.6436 5.8985,1.6068 7.4746,1.7431 20.5132,1.7746 15.4751,0.037 20.1848,-0.6183 31.4866,-4.3838 11.9122,-3.9688 25.9137,-12.038 34.9289,-20.1299 2.127,-1.9091 3.8672,-3.2874 3.8672,-3.0629 0,0.7918 -7.3849,12.6458 -11.2346,18.0334 -4.7153,6.5991 -18.7436,21.2663 -25.7243,26.8959 -7.1598,5.7741 -18.0954,12.8783 -25.5893,16.624 -5.8207,2.9094 -7.1975,3.3033 -15.469,4.4261 -9.7859,1.3284 -24.9623,1.6606 -34.4041,0.7531 l -5.8201,-0.5594 -0.3485,6.6124 c -0.1916,3.6369 -0.7817,8.9581 -1.3113,11.8248 -0.677,3.6646 -0.7425,5.2083 -0.2207,5.1984 3.7669,-0.071 20.6013,-3.1786 30.4596,-5.6227 l 12.2309,-3.0324 15.3442,0.3968 c 17.1309,0.443 26.5158,-0.2388 39.8927,-2.8983 21.0916,-4.1932 44.334,-15.0608 55.6545,-26.0227 5.2386,-5.0728 3.06,-0.012 -5.5883,12.9811 -19.9322,29.9459 -46.3523,52.1432 -74.8214,62.8625 -2.7031,1.0178 -4.808,1.9572 -4.6777,2.0875 0.8205,0.8205 18.7022,2.3062 27.7569,2.3062 21.4393,0 40.9209,-3.9153 58.423,-11.7416 2.1729,-0.9716 4.0713,-1.6461 4.2185,-1.499 0.5665,0.5666 -9.1803,11.1178 -14.5942,15.7988 -15.7924,13.6545 -40.3604,26.0571 -65.5393,33.086 -2.9593,0.8261 -6.5044,2.0728 -7.878,2.7706 -3.1978,1.6243 -19.0432,5.656 -24.7413,6.2951 -7.3501,0.8244 -21.1486,0.4236 -24.3608,-0.7075 -2.3194,-0.8167 -2.6822,-0.8326 -1.8692,-0.082 3.0327,2.8004 22.0437,17.5936 26.2994,20.4646 13.1629,8.8799 25.8381,13.1382 41.9658,14.0986 l 8.0707,0.4807 -4.3717,0.9035 c -5.7937,1.1973 -26.4081,1.3519 -32.9555,0.2471 -8.2798,-1.3971 -17.4485,-4.0793 -22.3055,-6.5253 -2.5099,-1.2639 -4.7768,-2.2981 -5.0375,-2.2981 -0.7632,0 4.9111,4.7343 10.5555,8.8069 14.0284,10.1219 30.1675,15.0176 49.4067,14.9873 15.5802,-0.025 28.7614,-3.0184 41.5681,-9.4414 4.2845,-2.1488 5.7406,-2.6377 5.2656,-1.7677 -2.121,3.884 -13.6153,12.3117 -23.6922,17.371 -25.6033,12.8549 -57.662,15.6605 -85.0981,7.4474 -14.7156,-4.4052 -27.229,-11.23 -39.4433,-21.5123 -3.3406,-2.8122 -5.0122,-3.7077 -8.2277,-4.4074 -8.8835,-1.9334 -16.7388,-5.1692 -32.0784,-13.2141 -8.7653,-4.597 -16.0939,-8.3581 -16.2857,-8.3581 -0.1919,0 0.2675,1.4376 1.0209,3.1947 0.7534,1.757 3.345,9.0964 5.7591,16.3096 7.7889,23.2728 15.2936,36.6219 27.4378,48.8046 8.0376,8.0632 13.6544,12.1737 23.1969,16.9759 l 7.0909,3.5685 -11.4336,-0.3246 c -21.833,-0.6199 -41.3668,-5.4627 -60.5306,-15.0067 -24.7368,-12.3193 -41.9357,-31.0841 -49.6534,-54.1741 -4.9874,-14.9213 -5.8115,-28.5355 -3.2069,-52.976 0.3351,-3.1442 0.4665,-5.8631 0.292,-6.0418 -0.3734,-0.3825 -3.7434,3.5481 -9.1551,10.678 -4.7453,6.2519 -10.684,18.0435 -12.7384,25.2928 -1.2566,4.4343 -1.5244,7.0363 -1.5225,14.7964 0.01,9.8821 -0.051,9.6208 4.7289,22.8671 0.9458,2.6206 -10.6107,-9.4995 -14.2697,-14.9657 -6.6251,-9.8973 -9.7887,-19.0112 -14.3248,-41.2683 -2.7946,-13.7122 -5.2512,-21.9427 -8.6699,-29.0463 l -2.007,-4.1705 -0.055,56.3671 -0.055,56.3672 1.6231,7.1902 c 4.0515,17.9475 9.6699,30.8978 18.1986,41.9468 4.7631,6.1706 7.3898,8.6818 19.3817,18.5294 5.7601,4.7301 8.771,8.7005 10.6482,14.0412 1.4851,4.22557 2.6506,11.69837 1.8244,11.69837 -0.3087,0 -0.5642,-0.3783 -0.5678,-0.8406 -0.014,-1.7616 -3.3278,-7.8674 -5.6885,-10.48027 -4.8246,-5.3403 -11.956,-8.1833 -20.5264,-8.1833 -12.4316,0 -25.232,8.47167 -33.9608,22.47627 -3.6625,5.8763 -8.2749,16.8217 -10.5248,24.9755 -0.8621,3.1243 -1.7304,5.6806 -1.9297,5.6806 -0.1992,0 -1.0676,-2.5563 -1.9296,-5.6806 z M 2374.0429,926.41953 c 6.9453,-3.5061 19.737,-12.5254 24.5035,-17.2774 2.5398,-2.532 5.9812,-6.5092 7.6475,-8.8381 1.6663,-2.329 3.1715,-4.0927 3.3448,-3.9193 0.1734,0.1733 -0.1658,4.2605 -0.7537,9.0826 -0.5879,4.822 -1.0689,8.9683 -1.0689,9.2139 0,1.1092 2.2885,-1.651 5.0733,-6.119 6.3205,-10.1407 9.7599,-21.8599 11.0391,-37.6133 0.3873,-4.7698 0.7972,-8.7653 0.9108,-8.879 0.4454,-0.4453 3.2547,12.605 4.079,18.948 l 0.8714,6.7065 1.5143,-4.708 c 1.9114,-5.9424 2.5288,-14.4174 1.402,-19.2444 -0.465,-1.9925 -2.2065,-6.9519 -3.8698,-11.0209 -4.533,-11.0889 -4.9463,-12.7532 -5.3499,-21.5428 -0.3105,-6.7632 -0.1473,-8.978 0.994,-13.4913 1.3015,-5.147 5.2544,-14.9168 5.8008,-14.3372 0.1422,0.1508 -0.1911,2.3929 -0.7407,4.9822 -1.3562,6.3896 -0.8352,14.1818 1.3295,19.8829 1.8164,4.7837 8.4956,17.057 9.0052,16.5474 0.1721,-0.1722 -0.01,-3.2067 -0.4041,-6.7434 -2.4149,-21.6572 0.4126,-35.8651 10.1286,-50.8957 7.3029,-11.2976 16.09,-19.3824 37.2426,-34.2662 14.6126,-10.282 21.4047,-15.7905 27.7982,-22.5448 4.5334,-4.7892 12.2844,-15.2123 13.8182,-18.5819 0.3542,-0.7781 0.4832,-0.7781 0.8374,0 1.5339,3.3696 9.2848,13.7927 13.8182,18.5819 6.3936,6.7543 13.1857,12.2628 27.7983,22.5448 21.1525,14.8838 29.9396,22.9686 37.2426,34.2662 9.716,15.0306 12.5435,29.2385 10.1285,50.8957 -0.3943,3.5367 -0.5762,6.5712 -0.404,6.7434 0.5096,0.5096 7.1887,-11.7637 9.0051,-16.5474 2.1648,-5.7011 2.6858,-13.4933 1.3295,-19.8829 -0.5496,-2.5893 -0.8829,-4.8314 -0.7407,-4.9822 0.5464,-0.5796 4.4993,9.1902 5.8009,14.3372 1.1413,4.5133 1.3045,6.7281 0.994,13.4913 -0.4036,8.7896 -0.8169,10.4539 -5.3499,21.5428 -1.6634,4.069 -3.4048,9.0284 -3.8698,11.0209 -1.1268,4.827 -0.5094,13.302 1.4019,19.2444 l 1.5144,4.708 0.8714,-6.7065 c 0.8242,-6.343 3.6336,-19.3933 4.079,-18.948 0.1136,0.1137 0.5234,4.1092 0.9107,8.879 1.2793,15.7534 4.7187,27.4726 11.0392,37.6133 2.7848,4.468 5.0732,7.2282 5.0732,6.119 0,-0.2456 -0.4809,-4.3919 -1.0688,-9.2139 -0.5879,-4.8221 -0.9271,-8.9093 -0.7537,-9.0826 0.1733,-0.1734 1.6785,1.5903 3.3448,3.9193 4.756,6.6473 11.5828,12.9845 20.2322,18.7812 7.715,5.1705 15.7701,9.6924 16.3078,9.1546 0.1444,-0.1444 -2.124,-2.1425 -5.0411,-4.4402 -7.0538,-5.5561 -20.303,-19.3199 -25.1447,-26.1215 -4.582,-6.4365 -9.6819,-16.21 -11.7404,-22.4992 -1.6045,-4.9022 -4.3897,-17.8437 -4.0558,-18.8452 0.1151,-0.3454 1.9281,2.0365 4.0289,5.293 3.5256,5.4651 9.5464,13.3122 14.6053,19.0358 l 2.0806,2.3539 -1.6159,-3.6991 c -0.8888,-2.0344 -2.8337,-6.2716 -4.3221,-9.4159 -3.6542,-7.7198 -6.6084,-16.4145 -13.0251,-38.336 -7.2736,-24.8489 -8.4599,-29.5927 -7.4005,-29.5927 0.2869,0 2.3137,2.1942 4.504,4.876 15.0578,18.4367 26.5072,30.0996 38.1486,38.8599 5.1357,3.8647 17.9181,12.0867 18.7906,12.0867 1.0094,0 -9.5077,-12.8862 -15.9185,-19.5042 -3.4042,-3.5142 -9.307,-9.9754 -13.1174,-14.3584 -10.3788,-11.9381 -19.9943,-19.5982 -52.4203,-41.7606 -28.3729,-19.3921 -34.2629,-23.9239 -46.3571,-35.6673 -8.4556,-8.2105 -13.6555,-14.3803 -19.7162,-23.3939 -2.2195,-3.3009 -6.0287,-8.1688 -8.4649,-10.8174 -4.5455,-4.942 -9.9911,-12.7102 -11.5525,-16.4798 -1.1063,-2.6709 -1.6716,-2.6709 -2.778,0 -1.5613,3.7696 -7.0069,11.5378 -11.5524,16.4798 -2.4362,2.6486 -6.2454,7.5165 -8.4649,10.8174 -6.0607,9.0136 -11.2607,15.1834 -19.7163,23.3939 -12.0941,11.7434 -17.9842,16.2752 -46.357,35.6673 -32.4261,22.1624 -42.0415,29.8225 -52.4203,41.7606 -3.8104,4.383 -9.7133,10.8442 -13.1174,14.3584 -6.4108,6.618 -16.928,19.5042 -15.9185,19.5042 0.8725,0 13.6549,-8.222 18.7906,-12.0867 11.6414,-8.7603 23.0908,-20.4232 38.1486,-38.8599 2.1903,-2.6818 4.2171,-4.876 4.504,-4.876 1.0594,0 -0.1269,4.7438 -7.4005,29.5927 -6.4167,21.9215 -9.3709,30.6162 -13.0251,38.336 -1.4884,3.1443 -3.4333,7.3815 -4.3221,9.4159 l -1.6159,3.6991 2.0806,-2.3539 c 5.0589,-5.7236 11.0797,-13.5707 14.6053,-19.0358 2.1008,-3.2565 3.9138,-5.6384 4.0289,-5.293 0.3339,1.0015 -2.4514,13.943 -4.0559,18.8452 -2.0584,6.2892 -7.1583,16.0627 -11.7403,22.4992 -4.8433,6.8037 -18.0917,20.566 -25.1503,26.1259 -6.9333,5.4611 -7.0259,5.8358 -0.6465,2.6155 z m -90.1807,-29.3577 c 3.2006,-0.9231 8.912,-3.1515 12.692,-4.9521 18.5352,-8.8292 30.5888,-20.3451 64.4254,-61.5515 15.7506,-19.181 28.7767,-33.0016 38.2012,-40.5309 2.8888,-2.3079 4.9381,-4.1961 4.5542,-4.1961 -0.384,0 -4.8925,1.344 -10.0188,2.9868 -13.4044,4.2955 -19.8659,5.3424 -33.0794,5.3597 -12.2553,0.016 -18.4477,-0.9548 -27.7994,-4.3584 -7.4216,-2.7011 -12.0811,-5.4628 -24.3528,-14.4341 -5.9028,-4.3152 -12.4077,-8.6955 -14.4552,-9.7339 -3.8741,-1.965 -13.2803,-5.0763 -13.7939,-4.5628 -0.1621,0.1622 1.2048,1.3402 3.0378,2.6177 5.9018,4.1134 16.2229,13.6948 15.0316,13.9543 -1.6464,0.3586 -8.6609,-1.1076 -14.636,-3.0593 -2.937,-0.9593 -9.4441,-3.8577 -14.4601,-6.4408 -7.7404,-3.986 -16.6055,-7.8866 -17.9246,-7.8866 -1.1646,0 3.5972,4.9978 11.2052,11.7606 4.7914,4.259 8.3683,7.7437 7.9486,7.7437 -1.4763,0 -14.4671,-4.6087 -21.7829,-7.7278 -4.069,-1.7349 -10.8787,-5.0544 -15.1326,-7.3767 -10.7756,-5.8827 -12.1061,-6.5299 -12.1061,-5.8889 0,1.0503 14.4182,10.1061 22.603,14.1967 9.4952,4.7454 17.2876,7.7308 24.0347,9.2083 2.7709,0.6068 8.9513,3.0163 14.5654,5.6786 28.3071,13.4233 53.2683,16.3801 82.7188,9.7986 2.4009,-0.5365 4.4903,-0.8504 4.6431,-0.6975 0.5384,0.5383 -7.6437,3.7691 -13.6711,5.3981 -11.4614,3.0977 -21.3997,4.4273 -35.9007,4.8029 -13.8436,0.3586 -19.1328,-0.075 -28.2228,-2.3129 l -4.2202,-1.0391 -5.1956,2.364 c -9.9143,4.5109 -22.1373,6.5513 -39.2457,6.5513 -5.2549,0 -9.3967,0.1577 -9.204,0.3504 0.7851,0.7851 11.5126,2.2218 19.7144,2.6402 4.8088,0.2454 13.5857,0.1379 19.5042,-0.2388 5.9186,-0.3767 13.4849,-0.8544 16.8141,-1.0615 l 6.0531,-0.3765 -5.7168,2.3244 c -3.1442,1.2783 -8.7433,3.132 -12.4424,4.1191 -13.8635,3.6997 -13.8547,3.6925 -4.0354,3.3191 12.213,-0.4646 17.5037,-1.2436 39.1618,-5.7666 10.4417,-2.1806 19.2777,-3.9647 19.6355,-3.9647 0.9408,0 -6.1201,10.045 -10.2325,14.557 l -3.5031,3.8435 7.3982,-3.9096 c 13.0109,-6.8756 16.0418,-8.5927 20.8494,-11.8125 13.0115,-8.7141 12.2854,-6.6434 -3.318,9.4627 -10.8341,11.1831 -16.4068,18.454 -22.3898,29.213 -7.4423,13.3828 -10.6532,18.0859 -16.3273,23.9143 -8.2405,8.4646 -16.3993,13.4699 -29.1195,17.8639 l -6.8626,2.3707 4.2691,-0.4209 c 2.3481,-0.2315 6.8879,-1.1761 10.0885,-2.0991 z m 497.3253,0.094 c -12.5664,-4.2396 -20.8294,-9.293 -29.1195,-17.8086 -5.6741,-5.8284 -8.885,-10.5315 -16.3273,-23.9143 -5.9831,-10.759 -11.5558,-18.0299 -22.3898,-29.213 -9.6816,-9.9935 -12.3976,-13.1319 -12.3976,-14.3257 0,-0.7481 3.5019,1.1275 9.0796,4.863 2.5893,1.7341 6.6752,4.2203 9.0796,5.5249 10.6735,5.7911 17.4866,9.307 17.4866,9.0239 0,-0.1686 -2.8974,-4.0306 -6.4387,-8.5823 -3.5413,-4.5517 -6.1577,-8.3694 -5.8142,-8.4839 0.3434,-0.1145 9.2182,1.5866 19.7218,3.7802 21.7723,4.5469 27.0513,5.3252 39.2742,5.7901 9.8192,0.3734 9.8281,0.3806 -4.0354,-3.3191 -3.6991,-0.9871 -9.2982,-2.8408 -12.4424,-4.1191 l -5.7168,-2.3244 6.0531,0.3765 c 3.3292,0.2071 10.8955,0.6848 16.814,1.0615 5.9186,0.3767 14.6955,0.4842 19.5043,0.2388 8.2018,-0.4184 18.9293,-1.8551 19.7143,-2.6402 0.1928,-0.1927 -3.949,-0.3504 -9.204,-0.3504 -17.1083,0 -29.3314,-2.0404 -39.2456,-6.5513 l -5.1957,-2.364 -4.2202,1.0391 c -9.0899,2.2381 -14.3791,2.6715 -28.2227,2.3129 -14.501,-0.3756 -24.4393,-1.7052 -35.9007,-4.8029 -6.0275,-1.629 -14.2096,-4.8598 -13.6712,-5.3981 0.1529,-0.1529 2.2423,0.161 4.6432,0.6975 13.6388,3.048 25.6922,4.01 37.2859,2.976 16.3978,-1.4626 29.1237,-5.0408 45.4328,-12.7746 5.6142,-2.6623 11.7946,-5.0718 14.5654,-5.6786 6.7472,-1.4775 14.5395,-4.4629 24.0348,-9.2083 8.1848,-4.0906 22.603,-13.1464 22.603,-14.1967 0,-0.641 -1.3305,0.01 -12.1061,5.8889 -4.254,2.3223 -11.0637,5.6418 -15.1327,7.3767 -7.3157,3.1191 -20.3065,7.7278 -21.7828,7.7278 -0.4197,0 3.1572,-3.4847 7.9486,-7.7437 7.608,-6.7628 12.3698,-11.7606 11.2051,-11.7606 -1.319,0 -10.1841,3.9006 -17.9245,7.8866 -5.016,2.5831 -11.5231,5.4815 -14.4601,6.4408 -5.9752,1.9517 -12.9897,3.4179 -14.636,3.0593 -1.1913,-0.2595 9.1298,-9.8409 15.0316,-13.9543 1.8329,-1.2775 3.1999,-2.4555 3.0378,-2.6177 -0.5136,-0.5135 -9.9198,2.5978 -13.7939,4.5628 -2.0475,1.0384 -8.5524,5.4187 -14.4552,9.7339 -12.2717,8.9713 -16.9312,11.733 -24.3529,14.4341 -9.3516,3.4036 -15.544,4.3744 -27.7993,4.3584 -13.2135,-0.017 -19.675,-1.0642 -33.0794,-5.3597 -5.1264,-1.6428 -9.6348,-2.9868 -10.0188,-2.9868 -0.384,0 1.6654,1.8882 4.5541,4.1961 9.4246,7.5293 22.4507,21.3499 38.2012,40.5309 19.7861,24.0955 27.1807,32.4736 37.0994,42.0335 14.3648,13.8451 29.4524,22.4579 45.2961,25.8575 8.5246,1.8292 9.6047,1.1991 2.217,-1.2934 z m -296.1267,-61.2804 c 0,-1.6622 3.8462,-16.6172 5.7505,-22.3591 2.671,-8.054 7.7131,-17.8332 14.0102,-27.173 6.6449,-9.8555 10.1641,-15.8732 9.608,-16.4293 -0.2129,-0.2128 -1.5774,0.6332 -3.0323,1.8801 -1.455,1.247 -6.2356,5.3266 -10.6237,9.0658 -18.5657,15.8205 -23.3699,22.9392 -23.3266,34.564 0.023,6.0392 0.8567,9.3861 4.0653,16.3097 2.3144,4.9941 3.5486,6.4345 3.5486,4.1418 z m 90.9816,-4.1418 c 3.2086,-6.9236 4.0429,-10.2705 4.0654,-16.3097 0.043,-11.6248 -4.761,-18.7435 -23.3266,-34.564 -4.3881,-3.7392 -9.1687,-7.8188 -10.6237,-9.0658 -1.4549,-1.2469 -2.8194,-2.0929 -3.0323,-1.8801 -0.5561,0.5561 2.9631,6.5738 9.608,16.4293 6.2971,9.3398 11.3392,19.119 14.0102,27.173 1.9043,5.7419 5.7505,20.6969 5.7505,22.3591 0,2.2927 1.2342,0.8523 3.5485,-4.1418 z m -108.5353,-19.2391 c 0.1074,-4.1517 2.0059,-10.4885 4.6637,-15.566 3.0048,-5.7405 8.8833,-12.0594 20.9608,-22.5309 15.651,-13.5699 21.9953,-21.157 28.4089,-33.9746 4.7294,-9.4517 4.5022,-9.6466 -2.6332,-2.2569 -7.5309,7.7992 -14.9375,13.8786 -29.8021,24.4616 -12.7242,9.0593 -20.2381,16.329 -23.6993,22.9292 -5.7269,10.9205 -5.9153,19.2963 -0.6643,29.5308 1.6367,3.1899 1.7504,3.2763 2.2119,1.6813 0.2676,-0.9247 0.5168,-2.8483 0.5536,-4.2745 z m 125.4136,2.425 c 5.1351,-10.1408 4.9149,-18.5185 -0.7719,-29.3626 -3.4612,-6.6002 -10.9751,-13.8699 -23.6993,-22.9292 -14.8646,-10.583 -22.2712,-16.6624 -29.8021,-24.4616 -7.1354,-7.3897 -7.3627,-7.1948 -2.6332,2.2569 6.4136,12.8176 12.7579,20.4047 28.4089,33.9746 19.8515,17.2118 23.92,23.569 25.933,40.5219 0.2087,1.7571 0.5071,3.1947 0.6631,3.1947 0.1561,0 1.0117,-1.4376 1.9015,-3.1947 z m -208.0717,-30.0574 c 8.4995,-1.0189 14.2953,-2.2406 22.6501,-4.7746 4.9451,-1.4997 6.1322,-2.2174 11.7698,-7.1156 8.1199,-7.0548 19.5774,-15.3605 37.5443,-27.2163 12.029,-7.9376 15.4906,-10.6005 20.5897,-15.8391 18.8195,-19.3346 28.466,-36.316 36.5558,-64.3527 8.351,-28.9415 8.5158,-45.8363 0.6005,-61.5437 -6.3215,-12.5447 -19.4544,-23.5534 -32.7504,-27.45309 -23.8009,-6.9809 -49.8124,6.16039 -54.8979,27.73499 -1.3757,5.8361 -1.2912,10.1563 0.3218,16.4633 3.1382,12.2699 12.6426,21.9182 25.1474,25.5283 5.8166,1.6792 13.8232,1.1458 18.7134,-1.2469 6.6828,-3.2695 12.222,-10.698 14.2666,-19.1325 l 0.9338,-3.8519 0.056,6.4499 c 0.092,10.5813 -2.7951,19.5391 -10.7686,33.4123 -7.65,13.3102 -21.7817,33.4761 -28.859,41.1815 -2.3679,2.5782 -2.7209,2.7774 -2.3823,1.3451 0.9352,-3.9568 1.1807,-15.2932 0.4109,-18.9793 -2.73,-13.0733 -14.5017,-24.0833 -29.0547,-27.1747 -3.6387,-0.7729 -7.2744,-0.9663 -13.6969,-0.7287 -10.6126,0.3926 -17.1414,2.1312 -28.5839,7.6116 -8.7806,4.2055 -10.7886,5.4224 -23.8759,14.4695 -11.3533,7.8485 -16.9198,10.9594 -23.9915,13.4081 -2.9386,1.0176 -5.0737,2.0165 -4.7447,2.2198 0.329,0.2034 2.5408,0.5653 4.9151,0.8043 5.2702,0.5306 11.3356,-0.5019 18.1043,-3.082 l 5.0442,-1.9227 -5.2287,4.9207 c -5.7862,5.4453 -11.0131,8.5561 -16.9938,10.1139 -4.9465,1.2884 -10.4263,1.2938 -21.1577,0.021 -4.6239,-0.5485 -9.769,-0.9872 -11.4336,-0.975 l -3.0265,0.022 6.8601,3.273 c 11.8672,5.6621 11.8909,5.6049 -2.1522,5.1764 -13.2267,-0.4036 -17.2967,-1.0892 -30.3215,-5.1082 -4.5929,-1.4172 -8.3508,-2.4391 -8.3508,-2.2707 0,0.538 9.5462,4.7176 15.8052,6.92 11.8352,4.1645 18.1532,5.4722 28.4134,5.8809 14.033,0.559 24.4934,-1.5155 35.48,-7.0363 10.3839,-5.218 16.5487,-10.4346 25.1118,-21.2495 7.6935,-9.7166 14.2257,-15.728 20.7927,-19.1348 18.3644,-9.5272 38.0129,-7.008 47.6714,6.112 4.0058,5.4416 5.6292,10.9922 5.6191,19.2131 -0.017,13.92 -4.8019,22.9209 -14.8593,27.9524 -5.8773,2.9403 -10.9994,3.9964 -17.3935,3.5864 -7.512,-0.4817 -12.2864,-2.5616 -17.2315,-7.5067 -3.0162,-3.0162 -4.4894,-5.1518 -5.5951,-8.1109 -5.2494,-14.0486 3.3229,-27.5874 17.4239,-27.5187 8.6649,0.042 14.194,5.2058 14.267,13.3238 0.055,6.1439 -3.1347,9.8046 -8.5437,9.8046 -2.3764,0 -7.2491,-2.0227 -8.0691,-3.3496 -0.2307,-0.3732 -1.064,-1.0235 -1.8517,-1.4451 -1.2133,-0.6494 -1.1207,-0.3429 0.6056,2.0045 4.6249,6.2889 11.1697,9.5158 19.3002,9.5158 9.0558,0 15.3228,-3.1574 18.0106,-9.0738 2.6564,-5.8474 0.8821,-16.2794 -3.9529,-23.2408 -6.9309,-9.9791 -21.7127,-14.3214 -35.3282,-10.3779 -8.9223,2.5841 -18.6297,10.4458 -22.5932,18.2976 -9.2326,18.2895 1.6627,40.0556 22.5079,44.9652 6.2975,1.4833 17.6284,0.9781 24.1429,-1.0765 15.4119,-4.8606 31.3408,-16.2295 44.129,-31.4961 13.6104,-16.2481 27.5087,-41.06 31.3065,-55.8902 4.2035,-16.4144 0.2984,-33.0458 -10.2318,-43.5761 -5.9675,-5.9674 -10.2151,-7.8113 -18.1243,-7.8679 -4.981,-0.036 -6.5295,0.2142 -8.7433,1.411 -2.7364,1.4793 -7.5596,6.0066 -6.9977,6.5685 0.1697,0.1697 1.6622,0 3.3168,-0.3797 10.4418,-2.3891 18.6068,0.5744 21.9993,7.9848 2.3748,5.187 2.0203,11.6528 -0.8636,15.7562 -5.7877,8.2348 -18.5941,8.9513 -26.0861,1.4593 -7.105,-7.1051 -7.7166,-20.0222 -1.4037,-29.6502 4.5,-6.863 10.9968,-9.9528 19.8496,-9.4403 4.3488,0.2517 6.1384,0.7345 10.1736,2.7443 15.0157,7.4788 24.3181,21.4455 26.7599,40.1777 2.6346,20.2104 -4.0868,41.1051 -21.8447,67.9085 -18.4092,27.7863 -37.3266,43.1337 -60.5943,49.159 -7.1569,1.8533 -19.8443,2.194 -25.8486,0.694 -9.5004,-2.3734 -18.9929,-8.4585 -25.2225,-16.1688 -2.1171,-2.6202 -3.9377,-4.764 -4.0459,-4.764 -0.6817,0 2.2259,8.6526 4.4972,13.3834 3.4633,7.2133 10.0652,14.0386 17.1709,17.7519 4.9312,2.577 13.5367,5.1665 17.2919,5.2035 1.6479,0.016 1.8499,0.1538 0.9758,0.6643 -1.962,1.1458 -14.1307,1.5714 -20.0754,0.7021 -11.0282,-1.6125 -18.8545,-5.3645 -25.9573,-12.444 -7.0221,-6.9991 -11.0415,-16.2462 -11.0415,-25.4025 0,-2.1417 -0.2674,-3.8941 -0.5943,-3.8941 -1.1193,0 -5.6094,5.5501 -6.9597,8.6027 -1.0879,2.4595 -1.2899,4.0392 -1.0423,8.1531 0.6719,11.1626 8.6298,20.6386 23.9035,28.4631 l 6.2574,3.2056 h -10.0385 c -11.7194,0 -21.5577,-0.8946 -29.99,-2.7269 -7.9755,-1.733 -8.4057,-1.6706 -5.3364,0.774 14.2873,11.3793 36.4176,16.0923 61.4638,13.0899 z m 316.1043,-0.024 c 13.4611,-1.843 24.6405,-6.2409 33.2162,-13.0671 3.0694,-2.4433 2.6386,-2.5057 -5.3364,-0.7727 -8.4323,1.8323 -18.2706,2.7268 -29.99,2.7268 h -10.0385 l 6.2574,-3.2056 c 15.2736,-7.8245 23.2316,-17.3004 23.9034,-28.4631 0.2477,-4.1139 0.046,-5.6935 -1.0422,-8.1531 -1.3503,-3.0525 -5.8405,-8.6027 -6.9598,-8.6027 -0.3268,0 -0.5943,1.7524 -0.5943,3.8941 0,9.1563 -4.0193,18.4034 -11.0415,25.4026 -7.1028,7.0795 -14.929,10.8314 -25.9573,12.4439 -5.9447,0.8693 -18.1133,0.4437 -20.0753,-0.702 -0.8741,-0.5105 -0.6721,-0.6482 0.9757,-0.6643 3.7553,-0.037 12.3608,-2.6266 17.2919,-5.2035 7.1057,-3.7133 13.7077,-10.5387 17.171,-17.7519 2.2713,-4.7308 5.1788,-13.3835 4.4971,-13.3835 -0.1081,0 -1.9288,2.1439 -4.0458,4.7641 -6.2296,7.7102 -15.7222,13.7954 -25.2226,16.1687 -6.0042,1.5 -18.6917,1.1594 -25.8485,-0.6939 -23.2678,-6.0253 -42.1852,-21.3727 -60.5943,-49.159 -17.7579,-26.8035 -24.4793,-47.6981 -21.8447,-67.9086 2.4418,-18.7321 11.7442,-32.6989 26.7599,-40.1777 8.5763,-4.2715 18.0647,-3.8212 24.976,1.1853 10.6725,7.7311 12.588,26.2164 3.6434,35.161 -7.4919,7.4919 -20.2983,6.7755 -26.086,-1.4594 -1.6504,-2.3482 -2.0554,-3.6836 -2.2703,-7.4854 -0.7125,-12.609 9.2136,-19.5027 23.406,-16.2556 1.6545,0.3786 3.1471,0.5495 3.3168,0.3798 0.5619,-0.5619 -4.2613,-5.0893 -6.9977,-6.5685 -2.2138,-1.1968 -3.7623,-1.4467 -8.7433,-1.4111 -7.9092,0.057 -12.1568,1.9005 -18.1243,7.868 -10.5302,10.5303 -14.4353,27.1616 -10.2318,43.5761 3.7978,14.8302 17.696,39.6421 31.3065,55.8902 12.7882,15.2666 28.7171,26.6355 44.1289,31.4961 6.5145,2.0545 17.8455,2.5597 24.143,1.0765 17.0714,-4.0208 28.2067,-19.8435 25.4164,-36.1154 -2.9899,-17.4355 -22.5027,-31.158 -40.2058,-28.2751 -6.9101,1.1253 -9.4494,2.0415 -13.8462,4.9956 -7.3724,4.9533 -12.0029,13.8202 -11.9704,22.922 0.036,10.2093 6.9283,15.9025 19.2502,15.9025 8.1304,0 14.6753,-3.2268 19.3002,-9.5157 1.7263,-2.3474 1.8189,-2.6539 0.6056,-2.0046 -0.7878,0.4216 -1.621,1.0719 -1.8517,1.4451 -0.8201,1.327 -5.6927,3.3496 -8.0691,3.3496 -5.409,0 -8.5989,-3.6606 -8.5437,-9.8045 0.073,-8.118 5.6021,-13.2816 14.267,-13.3238 14.101,-0.069 22.6733,13.4701 17.4238,27.5187 -2.07,5.5398 -8.1269,11.6074 -13.7247,13.7489 -4.9176,1.8812 -12.7537,2.4872 -18.0217,1.3935 -8.8902,-1.8456 -17.1084,-7.8446 -20.1423,-14.7033 -3.5535,-8.0332 -4.3133,-19.2379 -1.8463,-27.2253 5.9988,-19.4215 29.6773,-26.0128 51.9462,-14.4601 6.567,3.4068 13.0992,9.4181 20.7926,19.1348 8.5631,10.8149 14.7279,16.0315 25.1119,21.2494 10.9866,5.5208 21.447,7.5953 35.48,7.0364 10.2602,-0.4087 16.5781,-1.7164 28.4134,-5.881 6.259,-2.2023 15.8052,-6.382 15.8052,-6.92 0,-0.1683 -3.7579,0.8535 -8.3509,2.2708 -13.0247,4.0189 -17.0948,4.7046 -30.3214,5.1082 -14.0431,0.4285 -14.0194,0.4856 -2.1522,-5.1764 l 6.8601,-3.2731 -3.0265,-0.022 c -1.6646,-0.012 -6.8097,0.4266 -11.4336,0.975 -10.7315,1.2729 -16.2112,1.2674 -21.1578,-0.021 -5.9806,-1.5577 -11.2075,-4.6686 -16.9937,-10.1138 l -5.2288,-4.9206 5.0443,1.9227 c 6.7687,2.5801 12.834,3.6127 18.1043,3.0821 2.3743,-0.239 4.5861,-0.601 4.9151,-0.8043 0.329,-0.2034 -1.8061,-1.2023 -4.7447,-2.2198 -7.0717,-2.4488 -12.6382,-5.5597 -23.9915,-13.4081 -13.0873,-9.0471 -15.0953,-10.264 -23.876,-14.4696 -11.4424,-5.4804 -17.9712,-7.2189 -28.5839,-7.6115 -6.4225,-0.2377 -10.0581,-0.044 -13.6968,0.7287 -14.553,3.0914 -26.3248,14.1014 -29.0548,27.1747 -0.7697,3.6861 -0.5242,15.0224 0.411,18.9793 1.3446,5.6884 -21.0527,-24.7993 -31.2413,-42.5267 -7.9735,-13.8731 -10.8605,-22.8309 -10.7686,-33.4123 l 0.056,-6.4499 0.9338,3.852 c 2.0446,8.4345 7.5837,15.8629 14.2665,19.1325 4.8903,2.3926 12.8969,2.926 18.7135,1.2468 8.8933,-2.5674 16.9071,-8.717 21.6163,-16.5879 2.5355,-4.2377 4.8927,-12.7762 4.8785,-17.6713 -0.062,-21.4939 -21.086,-38.74402 -45.3111,-37.17829 -11.7666,0.76051 -22.4599,5.38258 -31.0823,13.43499 -16.696,15.5922 -21.6182,35.0724 -15.6709,62.0188 2.0699,9.3783 6.346,23.6792 9.59,32.0726 7.3706,19.0707 15.6987,31.8585 30.9567,47.5341 5.0991,5.2386 8.5607,7.9015 20.5897,15.8391 17.9668,11.8558 29.4244,20.1615 37.5443,27.2163 5.6376,4.8982 6.8247,5.6158 11.7698,7.1156 17.3392,5.2587 35.0868,6.9152 50.8977,4.7505 z m -243.4676,-126.0316 3.0266,-0.4836 -4.708,-0.9018 c -13.105,-2.5105 -27.0638,-13.0769 -35.6044,-26.9515 -2.1631,-3.5141 -4.2679,-6.6158 -4.6774,-6.8926 -0.4094,-0.2767 -1.5011,-0.3701 -2.4259,-0.2073 -0.9247,0.1627 -4.6642,0.4955 -8.3099,0.7395 l -6.6285,0.4435 6.6285,3.2099 c 8.1436,3.9435 12.4392,7.0064 29.1593,20.7916 l 13.115,10.8129 3.6991,-0.038 c 2.0345,-0.021 5.061,-0.2561 6.7256,-0.522 z m 166.1229,-10.2523 c 16.7202,-13.7852 21.0157,-16.8481 29.1594,-20.7916 l 6.6285,-3.2099 -6.6285,-0.4435 c -3.6457,-0.244 -7.3852,-0.5768 -8.3099,-0.7395 -0.9248,-0.1628 -2.0165,-0.069 -2.4259,0.2073 -0.4095,0.2768 -2.5143,3.3785 -4.6774,6.8926 -8.5354,13.8662 -22.4638,24.414 -35.6045,26.9628 -4.69,0.9096 -4.6977,0.9147 -2.0176,1.3398 1.4796,0.2347 4.5061,0.4645 6.7256,0.5108 l 4.0353,0.084 z m -253.0114,1.3094 c 13.4292,-4.9554 20.6506,-6.6801 29.7208,-7.0986 5.8851,-0.2714 8.7524,-0.095 11.9922,0.7358 8.3516,2.1431 7.5256,0.6556 -1.8224,-3.2817 -7.4861,-3.1531 -29.9323,-11.1258 -35.3455,-12.5544 -4.8071,-1.2686 -13.238,-1.5728 -18.2046,-0.6568 -3.3421,0.6164 -3.0567,0.79 7.9026,4.8059 4.3464,1.5928 7.9026,3.114 7.9026,3.3807 0,0.8099 -11.6515,2.6733 -16.7163,2.6733 -2.6145,0 -7.3496,-0.6053 -10.5225,-1.3451 -5.9634,-1.3905 -22.1473,-1.9806 -20.8158,-0.759 0.3514,0.3224 3.8168,1.7946 7.7009,3.2715 3.884,1.4769 7.6672,2.9225 8.407,3.2123 2.3944,0.938 -4.0177,1.8034 -13.4513,1.8155 -10.0458,0.013 -15.1582,-0.9046 -26.758,-4.8016 -4.3334,-1.4558 -7.8789,-2.4967 -7.8789,-2.3131 0,0.6646 11.9261,5.8264 18.4954,8.0051 17.423,5.7782 33.8555,5.5771 51.2829,-0.6278 1.5721,-0.5597 2.8584,-0.7651 2.8584,-0.4564 0,0.7697 -9.2799,9.4675 -10.1011,9.4675 -0.3629,0 -0.6599,0.2614 -0.6599,0.5808 0,1.0746 6.7371,-0.6309 16.0135,-4.0539 z m 331.3593,3.3041 c -1.7349,-0.9594 -9.7465,-8.6234 -9.7465,-9.3237 0,-0.2948 1.2862,-0.078 2.8584,0.4816 17.4273,6.2049 33.8599,6.406 51.2829,0.6278 6.5692,-2.1787 18.4954,-7.3405 18.4954,-8.0051 0,-0.1836 -3.5455,0.8573 -7.8789,2.3131 -11.5998,3.897 -16.7122,4.8144 -26.758,4.8016 -9.4336,-0.012 -15.8457,-0.8775 -13.4513,-1.8155 0.7398,-0.2898 4.523,-1.7354 8.407,-3.2123 3.8841,-1.4769 7.3495,-2.9491 7.7008,-3.2715 1.3316,-1.2216 -14.8523,-0.6315 -20.8157,0.759 -3.1729,0.7398 -7.908,1.3451 -10.5226,1.3451 -5.0647,0 -16.7162,-1.8634 -16.7162,-2.6733 0,-0.2667 3.5562,-1.7879 7.9026,-3.3807 10.9592,-4.0159 11.2446,-4.1895 7.9026,-4.8059 -4.9666,-0.916 -13.3976,-0.6118 -18.2047,0.6568 -5.4132,1.4286 -27.8593,9.4013 -35.3454,12.5544 -9.348,3.9373 -10.174,5.4248 -1.8225,3.2817 3.2399,-0.8313 6.1071,-1.0072 11.9923,-0.7358 9.0024,0.4154 16.4735,2.1834 28.9202,6.8442 8.0595,3.018 16.1108,5.2189 16.8085,4.5949 0.1818,-0.1626 -0.2721,-0.6291 -1.0089,-1.0364 z m -293.4991,-40.8891 c 2.812,-0.426 5.419,-0.9715 5.7932,-1.2121 0.3742,-0.2406 1.1347,-1.9508 1.6899,-3.8003 0.5552,-1.8496 1.7935,-5.4057 2.7517,-7.9026 0.9583,-2.4969 1.5018,-4.5398 1.2078,-4.5398 -0.2941,0 -3.534,1.9839 -7.2,4.4087 -10.8915,7.2041 -19.8179,10.8363 -29.7006,12.0853 -1.942,0.2454 -3.5309,0.7054 -3.5309,1.0221 0,1.378 19.7665,1.3361 28.9889,-0.061 z m 264.0801,0.9369 c 3.0518,-0.2375 5.5486,-0.6613 5.5486,-0.9416 0,-0.2805 -1.5889,-0.7107 -3.5309,-0.9561 -9.8826,-1.249 -18.809,-4.8812 -29.7006,-12.0853 -3.6659,-2.4248 -6.9058,-4.4087 -7.1999,-4.4087 -0.294,0 0.2495,2.0429 1.2078,4.5398 0.9582,2.4969 2.1965,6.053 2.7517,7.9026 0.5552,1.8495 1.3266,3.5664 1.7143,3.8154 0.602,0.3865 5.5057,1.1557 13.5719,2.129 3.6593,0.4414 10.0036,0.4435 15.6371,0.01 z m -283.6531,-13.3494 c 4.5254,-1.1011 14.1238,-5.4629 14.1238,-6.4183 0,-0.2987 -1.6095,-1.2799 -3.5768,-2.1806 -1.9672,-0.9006 -6.5565,-3.5338 -10.1986,-5.8515 -9.9257,-6.31665 -15.3762,-8.70665 -20.9003,-9.16466 l -4.6692,-0.3871 11.0973,6.62156 11.0973,6.6215 -2.9946,0.2135 c -4.6335,0.3302 -11.1506,-1.063 -18.6144,-3.9794 -7.2008,-2.8136 -15.4662,-4.8426 -18.3574,-4.5063 -1.4536,0.169 -0.6555,0.8511 4.9572,4.2369 3.6794,2.2194 9.1271,4.8373 12.1061,5.8176 4.9401,1.6255 5.2466,1.8259 3.4848,2.2793 -3.1565,0.8123 -13.9283,-0.2569 -21.2892,-2.1131 -8.5082,-2.1455 -18.603,-6.3294 -27.2406,-11.29001 -7.0287,-4.03673 -8.8595,-4.61071 -4.1831,-1.31149 13.0683,9.2196 36.3252,19.4605 50.1614,22.0879 6.2939,1.1952 18.6838,0.8603 24.9963,-0.6758 z m 304.2523,0.67 c 11.7724,-2.0529 26.1562,-7.7722 41.6595,-16.5645 6.4963,-3.6843 12.0454,-7.37715 11.6616,-7.76087 -0.1251,-0.12504 -3.1909,1.47458 -6.8129,3.55476 -8.6376,4.96061 -18.7324,9.14451 -27.2406,11.29001 -7.3609,1.8562 -18.1328,2.9254 -21.2893,2.1131 -1.7617,-0.4534 -1.4552,-0.6538 3.4849,-2.2793 2.979,-0.9803 8.4267,-3.5982 12.1061,-5.8176 5.6127,-3.3858 6.4108,-4.0679 4.9572,-4.2369 -2.8912,-0.3363 -11.1566,1.6927 -18.3574,4.5063 -7.4638,2.9164 -13.9809,4.3096 -18.6144,3.9794 l -2.9946,-0.2135 11.0973,-6.6215 11.0973,-6.62156 -4.6692,0.3871 c -5.5241,0.45801 -10.9746,2.84801 -20.9004,9.16466 -3.642,2.3177 -8.2313,4.9509 -10.1986,5.8515 -1.9672,0.9007 -3.5767,1.8819 -3.5767,2.1806 0,0.2987 2.1942,1.6262 4.876,2.95 9.6095,4.7433 21.7203,6.2298 33.7142,4.1383 z m -172.5627,-84.0658 c -0.1052,-36.25113 -0.069,-68.33235 0.081,-71.29164 0.358,-7.08163 -0.6898,-10.53465 -7.653,-25.22109 -12.2013,-25.73464 -15.7047,-39.97688 -14.9542,-60.79411 0.5183,-14.37683 2.4452,-22.92809 8.0865,-35.88673 1.3286,-3.05175 2.2001,-5.54506 1.9367,-5.54067 -0.8506,0.0141 -5.3357,6.96137 -9.143,14.16214 -11.2999,21.37099 -13.4882,44.09483 -6.3916,66.3709 1.1488,3.60571 4.6153,12.1549 7.7035,18.99824 6.7015,14.85023 8.0206,19.40445 7.3977,25.53978 -0.7964,7.84371 -6.4637,22.21211 -8.7611,22.21211 -0.5084,0 -1.4793,-0.72919 -2.1575,-1.62046 -4.042,-5.31196 -17.1713,-12.578 -30.4896,-16.87356 l -7.7344,-2.49462 -13.7875,0.44228 c -14.3574,0.46064 -14.629,0.43143 -24.4546,-2.62824 -5.9452,-1.85133 -2.3037,0.67224 5.1776,3.58821 8.1749,3.18623 11.8364,4.14407 24.6574,6.45039 10.2508,1.84396 18.5866,4.1245 19.301,5.28034 0.2634,0.42618 -0.038,0.50891 -0.7947,0.21841 -2.0739,-0.79583 -19.2918,-1.23376 -23.5505,-0.59905 l -4.0354,0.60147 4.708,0.49832 c 21.5308,2.27893 29.374,4.01267 37.5225,8.29466 4.1396,2.17527 11.1172,7.93037 10.4383,8.60937 -0.1467,0.14663 -2.1342,-0.31466 -4.4167,-1.02509 -8.6128,-2.68059 -15.4251,-3.53332 -25.3849,-3.1775 -11.3683,0.40611 -15.2889,1.36607 -30.9152,7.56981 -8.3456,3.31324 -12.5461,4.62126 -15.637,4.86938 -2.3245,0.18659 -4.2263,0.15082 -4.2263,-0.0794 0,-0.23026 1.7403,-1.30932 3.8673,-2.39787 4.8911,-2.50329 11.2786,-8.04814 10.3457,-8.98102 -1.5002,-1.50025 -28.9035,0.73645 -27.9488,2.28119 0.1922,0.31103 2.9074,1.3457 6.0338,2.29931 8.2175,2.50652 7.5411,3.67012 -2.1335,3.67012 -6.4617,0 -13.2938,-1.25132 -20.4133,-3.73872 -2.6862,-0.93848 -5.0063,-1.58409 -5.1557,-1.43468 -0.5048,0.50478 8.8816,4.37087 15.608,6.42866 19.3868,5.93089 36.0063,6.66796 54.6669,2.42445 4.1975,-0.95452 8.1219,-1.64109 8.721,-1.52573 0.6487,0.12495 -0.8416,1.35685 -3.6852,3.04626 -7.9744,4.73748 -20.2424,18.73211 -25.2717,28.82867 l -2.0423,4.09983 1.7994,6.32485 c 0.9896,3.47869 3.3379,9.50275 5.2183,13.38679 2.9817,6.15849 4.1616,7.79478 9.2231,12.79108 6.0309,5.95319 11.6682,9.48338 19.3816,12.13719 4.0327,1.38747 16.1661,3.9919 18.5972,3.9919 0.7853,0 -2.7252,-1.93875 -7.8011,-4.30832 -14.6557,-6.84162 -20.7494,-11.8809 -25.6544,-21.21522 -8.4909,-16.15819 -6.2492,-32.11779 6.2415,-44.43511 9.0792,-8.95319 21.0893,-13.23745 32.298,-11.52136 16.9867,2.60071 28.0876,17.35121 24.9825,33.1961 -2.578,13.15477 -11.419,21.26723 -23.8907,21.92182 -9.0994,0.47759 -16.1929,-2.75747 -20.7618,-9.46865 -5.1638,-7.58509 -4.8431,-14.97881 0.8987,-20.72064 3.8176,-3.81756 7.1989,-4.9518 13.3139,-4.46615 5.2096,0.41378 8.898,2.72776 10.8826,6.8274 2.4745,5.11161 1.2101,10.12914 -3.6214,14.37133 -2.8351,2.48927 -5.9136,3.19324 -10.0793,2.30475 -3.7189,-0.79315 -3.4732,0.10825 0.5243,1.92351 5.7571,2.61432 12.9387,1.04622 18.1332,-3.9593 3.7684,-3.63144 5.3167,-7.08037 5.6808,-12.65509 0.7744,-11.85487 -6.1858,-19.60853 -18.2276,-20.30564 -20.2451,-1.17198 -35.4538,14.71372 -32.0741,33.50197 1.5851,8.81195 6.962,16.88733 14.737,22.13327 2.0708,1.39715 9.3641,5.50581 16.2075,9.13028 20.0675,10.62857 28.3924,16.74489 35.5224,26.09842 l 2.4773,3.2499 0.5338,-2.8991 c 0.2936,-1.5943 0.4477,-32.55897 0.3425,-68.81005 z m 25.3265,62.31258 c 5.863,-6.12116 13.8768,-11.46167 29.9562,-19.9632 6.8433,-3.61821 14.1367,-7.72168 16.2074,-9.11883 13.7123,-9.25175 18.9943,-26.20839 12.3198,-39.54989 -5.3287,-10.65137 -16.7273,-16.83382 -29.6568,-16.08535 -12.0418,0.69711 -19.002,8.45077 -18.2276,20.30564 0.3641,5.57472 1.9123,9.02365 5.6808,12.65509 5.1945,5.00552 12.3761,6.57362 18.1332,3.9593 3.9975,-1.81526 4.2432,-2.71666 0.5242,-1.92351 -4.1656,0.88849 -7.2441,0.18452 -10.0792,-2.30475 -4.8316,-4.24219 -6.096,-9.25972 -3.6215,-14.37133 1.9846,-4.09964 5.673,-6.41362 10.8826,-6.8274 6.115,-0.48565 9.4964,0.64859 13.314,4.46615 5.7418,5.74183 6.0625,13.13555 0.8986,20.72064 -4.5688,6.71118 -11.6624,9.94624 -20.7617,9.46865 -12.4717,-0.65459 -21.3127,-8.76705 -23.8907,-21.92182 -3.1051,-15.84489 7.9958,-30.59539 24.9825,-33.1961 18.0991,-2.77104 37.9043,10.61325 42.6466,28.8205 2.0992,8.05914 0.5545,18.26496 -4.1071,27.13597 -4.905,9.33432 -10.9988,14.3736 -25.6544,21.21522 -5.076,2.36957 -8.5864,4.30832 -7.8011,4.30832 2.4311,0 14.5645,-2.60443 18.5972,-3.9919 7.7134,-2.65381 13.3507,-6.184 19.3816,-12.13719 5.0615,-4.9963 6.2414,-6.63259 9.2231,-12.79108 1.8804,-3.88404 4.2287,-9.9081 5.2183,-13.38679 l 1.7993,-6.32485 -2.0422,-4.09983 c -5.0294,-10.09656 -17.2973,-24.09119 -25.2717,-28.82867 -2.8437,-1.68941 -4.334,-2.92131 -3.6852,-3.04626 0.5991,-0.11536 4.5235,0.57121 8.7209,1.52573 18.6607,4.24351 35.2802,3.50644 54.667,-2.42445 6.7264,-2.05779 16.1128,-5.92388 15.608,-6.42866 -0.1494,-0.14941 -2.4695,0.4962 -5.1557,1.43468 -7.1195,2.4874 -13.9516,3.73872 -20.4133,3.73872 -9.6746,0 -10.3511,-1.1636 -2.1335,-3.67012 3.1263,-0.95361 5.8415,-1.98828 6.0338,-2.29931 0.9547,-1.54474 -26.4486,-3.78144 -27.9488,-2.28119 -0.9329,0.93288 5.4545,6.47773 10.3457,8.98102 2.127,1.08855 3.8673,2.16761 3.8673,2.39787 0,0.23027 -1.9019,0.26604 -4.2263,0.0794 -3.091,-0.24812 -7.2914,-1.55614 -15.6371,-4.86938 -15.6262,-6.20374 -19.5468,-7.1637 -30.9151,-7.56981 -9.9598,-0.35582 -16.7721,0.49691 -25.3849,3.1775 -2.2825,0.71043 -4.2701,1.17172 -4.4167,1.02509 -0.679,-0.679 6.2987,-6.4341 10.4382,-8.60937 8.1486,-4.28199 15.9918,-6.01573 37.5226,-8.29466 l 4.7079,-0.49832 -4.0354,-0.60147 c -4.2587,-0.63471 -21.4765,-0.19678 -23.5504,0.59905 -0.7571,0.2905 -1.0581,0.20777 -0.7947,-0.21841 0.7143,-1.15584 9.0502,-3.43638 19.3009,-5.28034 12.8211,-2.30632 16.4826,-3.26416 24.6575,-6.45039 7.4813,-2.91597 11.1228,-5.43954 5.1776,-3.58821 -9.8256,3.05967 -10.0973,3.08888 -24.4546,2.62824 l -13.7875,-0.44228 -7.7345,2.49462 c -13.3182,4.29556 -26.4475,11.5616 -30.4895,16.87356 -0.6782,0.89127 -1.6491,1.62046 -2.1575,1.62046 -2.2974,0 -7.9647,-14.3684 -8.7611,-22.21211 -0.6229,-6.13533 0.6962,-10.68955 7.3977,-25.53978 3.0882,-6.84334 6.5547,-15.39253 7.7034,-18.99824 7.0967,-22.27607 4.9084,-44.99991 -6.3915,-66.3709 -3.8073,-7.20077 -8.2925,-14.14797 -9.143,-14.16214 -0.2634,-0.005 0.6081,2.48892 1.9367,5.54067 5.6413,12.95864 7.5682,21.5099 8.0864,35.88673 0.7505,20.81723 -2.7528,35.05947 -14.9541,60.79411 -6.9647,14.68977 -8.0114,18.13986 -7.6515,25.22109 0.1505,2.95929 0.1727,34.43379 0.05,69.94342 -0.1234,35.50958 -0.016,66.50517 0.238,68.87907 l 0.4622,4.3163 1.7571,-2.2955 c 0.9664,-1.2625 3.8879,-4.5201 6.4922,-7.23907 z m -123.7889,4.99672 c 3.184,-0.9582 14.5247,-7.67071 14.5247,-8.59703 0,-0.27138 -0.3783,-0.36379 -0.8407,-0.2053 -0.4624,0.15849 -5.3704,1.39891 -10.9066,2.75651 -9.4328,2.31313 -10.5539,2.447 -17.8229,2.12775 l -7.757,-0.34063 3.6991,1.6455 c 7.8932,3.5111 13.5493,4.2848 19.1034,2.6132 z m 225.0635,-0.01 c 2.0198,-0.5303 5.3369,-1.7036 7.3714,-2.6073 l 3.6991,-1.64305 -7.757,0.34063 c -7.269,0.3192 -8.3901,0.18538 -17.8229,-2.12775 -5.5362,-1.3576 -10.4443,-2.59807 -10.9066,-2.75651 -2.3744,-0.81379 -0.2163,1.09197 4.8498,4.28274 8.6576,5.45274 13.1918,6.44734 20.5662,4.51124 z M 2419.552,569.9623 c 5.72,-1.00097 9.113,-1.21283 14.5198,-0.90665 3.8806,0.21973 8.2393,0.16752 9.6861,-0.11601 l 2.6306,-0.51557 -6.3894,-2.1734 c -3.5141,-1.19538 -12.4424,-4.90107 -19.8406,-8.23484 -7.3982,-3.33377 -15.2672,-6.73211 -17.4866,-7.55195 -5.0695,-1.87251 -19.9948,-6.15389 -20.3199,-5.82879 -0.1334,0.13342 4.3116,3.0804 9.8778,6.5488 5.5662,3.46841 9.8052,6.4113 9.4199,6.53973 -1.1071,0.36898 -10.5095,-1.8712 -17.137,-4.08304 -11.3608,-3.79154 -22.5962,-10.18226 -33.0143,-18.77866 -2.6217,-2.16322 -4.9511,-3.93318 -5.1765,-3.93318 -0.7343,0 11.8368,11.65749 17.3493,16.08843 15.442,12.4124 37.6439,24.17859 45.7264,24.23322 1.4796,0.0101 6.0491,-0.56964 10.1544,-1.28809 z m 235.16,-0.10164 c 10.483,-3.54356 27.5247,-13.48168 39.1715,-22.84349 5.5124,-4.43094 18.0835,-16.08843 17.3493,-16.08843 -0.2254,0 -2.5548,1.76996 -5.1765,3.93318 -10.4181,8.5964 -21.6535,14.98712 -33.0144,18.77866 -6.6275,2.21184 -16.0299,4.45202 -17.1369,4.08304 -0.3853,-0.12843 3.8536,-3.07132 9.4199,-6.53973 5.5662,-3.4684 10.0112,-6.41538 9.8777,-6.5488 -0.325,-0.3251 -15.2503,3.95628 -20.3199,5.82879 -2.2194,0.81984 -10.0884,4.21818 -17.4865,7.55195 -7.3982,3.33377 -16.3265,7.03946 -19.8407,8.23484 l -6.3893,2.1734 2.6361,0.51663 c 1.4499,0.28409 5.8384,0.34073 9.7522,0.12585 5.363,-0.29448 8.7728,-0.0887 13.8417,0.83527 9.0428,1.6485 12.3404,1.64063 17.3158,-0.0414 z M 2494.7671,446.44489 c -1.4769,-4.41162 -3.1009,-7.02246 -8.2319,-13.23411 -2.3814,-2.88302 -4.1474,-5.42435 -3.9243,-5.6475 0.8967,-0.89666 9.1193,3.96409 12.1045,7.15557 3.5132,3.75592 3.858,3.15914 1.5111,-2.61638 -1.7877,-4.39972 -4.156,-8.06087 -9.9246,-15.34204 -6.3028,-7.95564 -8.9312,-14.7101 -9.9779,-25.64056 l -0.4909,-5.1271 -0.084,5.71676 c -0.103,7.00143 1.1785,12.70028 4.3286,19.24975 1.3187,2.74168 2.2906,5.30631 2.1596,5.6991 -0.1309,0.3928 -1.8419,-1.20118 -3.8022,-3.54215 -3.6093,-4.31018 -7.006,-7.27613 -10.3372,-9.02627 -1.5434,-0.81081 -0.9897,0.32384 3.531,7.23608 2.9487,4.50877 5.3614,8.43686 5.3614,8.72902 0,0.67678 -1.3091,0.13191 -6.6989,-2.78814 -6.3718,-3.45216 -15.0264,-12.03106 -19.7776,-19.6044 -4.208,-6.70765 -4.4628,-6.03828 -1.06,2.78536 4.7587,12.33972 12.7313,21.96222 28.1618,33.99001 5.3896,4.20107 11.598,9.46335 13.7963,11.69385 2.1983,2.23056 4.1,3.95245 4.2259,3.8265 0.126,-0.12601 -0.2657,-1.70702 -0.8705,-3.51335 z m 86.1633,-12.83098 c 14.3026,-11.04784 22.4997,-21.05365 27.1707,-33.16603 3.4027,-8.82364 3.148,-9.49301 -1.0601,-2.78536 -4.7511,7.57334 -13.4058,16.15224 -19.7776,19.6044 -5.3897,2.92005 -6.6988,3.46492 -6.6988,2.78814 0,-0.29216 2.4126,-4.22025 5.3614,-8.72902 4.5207,-6.91224 5.0744,-8.04689 3.5309,-7.23608 -3.3311,1.75014 -6.7279,4.71609 -10.3371,9.02627 -1.9603,2.34097 -3.6713,3.93495 -3.8022,3.54215 -0.131,-0.39279 0.8409,-2.95742 2.1596,-5.6991 3.1501,-6.54947 4.4316,-12.24832 4.3286,-19.24975 l -0.084,-5.71676 -0.4909,5.1271 c -1.0467,10.93046 -3.6752,17.68492 -9.978,25.64056 -5.7685,7.28117 -8.1368,10.94232 -9.9245,15.34204 -2.3469,5.77552 -2.0022,6.3723 1.5111,2.61638 2.9686,-3.17367 11.2059,-8.05405 12.0944,-7.16556 0.2176,0.21766 -1.7262,2.97028 -4.3195,6.11697 -4.5655,5.53961 -7.5171,10.69752 -8.5099,14.8708 -0.4335,1.82233 0.03,1.52548 4.7866,-3.06653 2.8967,-2.79636 9.2144,-8.13359 14.0395,-11.86062 z m -46.89,-26.93985 c 7.8477,-15.49422 10.3239,-24.31807 11.1827,-39.84931 0.2148,-3.88405 0.1562,-8.56529 -0.1302,-10.40269 l -0.5207,-3.34074 -1.9643,4.68588 c -1.0805,2.57724 -4.1503,9.07434 -6.8219,14.43801 -2.6715,5.36372 -5.2509,10.88714 -5.7318,12.2743 -0.481,1.38716 -1.0556,2.52211 -1.2769,2.52211 -0.2213,0 -0.7958,-1.13495 -1.2768,-2.52211 -0.4809,-1.38716 -3.0603,-6.91058 -5.7319,-12.2743 -2.6715,-5.36367 -5.7413,-11.86077 -6.8218,-14.43801 l -1.9644,-4.68588 -0.5206,3.34074 c -1.2449,7.98671 0.8715,25.37372 4.262,35.01418 2.3118,6.57362 11.1294,24.48554 12.0535,24.48554 0.3186,0 2.687,-4.16148 5.2631,-9.24772 z m -2.7106,-49.43333 c 1.6835,-14.05561 2.1905,-20.9623 2.1753,-29.63245 -0.021,-11.77164 -0.9063,-14.66586 -1.5374,-5.02419 -0.3794,5.79641 -2.3073,14.6479 -3.1904,14.6479 -0.8831,0 -2.811,-8.85149 -3.1903,-14.6479 -0.6312,-9.64167 -1.5168,-6.74745 -1.5374,5.02419 -0.015,8.67015 0.4917,15.57684 2.1752,29.63245 1.2073,10.08002 2.3559,18.32731 2.5525,18.32731 0.1966,0 1.3453,-8.24729 2.5525,-18.32731 z" id="path13"/></g></svg>