<svg version="1.1" id="svg1" width="5078.9116" height="5263.5273" viewBox="1295.1505136269466 4299.6734008347885 531.2179394328593 800.2207607242799" sodipodi:docname="trees3.svg" inkscape:version="1.4.2 (f4327f4, 2025-05-13)" xmlns:inkscape="http://www.inkscape.org/namespaces/inkscape" xmlns:sodipodi="http://sodipodi.sourceforge.net/DTD/sodipodi-0.dtd" xmlns="http://www.w3.org/2000/svg" xmlns:svg="http://www.w3.org/2000/svg"><defs id="defs1"/><g><path d="m 1481.7465,5096.6371 c -6.643,-1.7377 -13.1653,-3.4782 -14.4939,-3.8677 l -2.4156,-0.7082 0.1177,-5.9684 c 0.064,-3.2826 1.0513,-11.0412 2.1924,-17.2413 2.2489,-12.219 4.9279,-32.1476 5.794,-43.0995 l 0.5427,-6.8647 -5.1286,-1.047 c -7.4165,-1.514 -16.0918,-4.5421 -24.9976,-8.7253 l -7.7905,-3.6593 -41.7303,27.3635 c -57.6911,37.8294 -62.8956,41.1084 -67.6443,42.6164 -3.8799,1.2322 -4.4179,1.2314 -7.6496,-0.012 -10.0464,-3.865 -22.3276,-21.0254 -22.3797,-31.2709 -0.035,-7.0077 -1.9753,-5.5988 60.7748,-44.1433 22.5863,-13.8737 41.5028,-25.6195 42.0368,-26.1019 0.7426,-0.6709 0.1869,-2.1067 -2.3655,-6.1108 -4.6697,-7.3259 -9.6736,-17.6588 -12.6367,-26.0942 -4.103,-11.6806 -5.2029,-19.7068 -5.1964,-37.9205 0.01,-15.4031 0.1133,-16.5093 2.4749,-25.4033 5.9824,-22.5315 16.1256,-40.0462 32.1768,-55.5608 3.9172,-3.7862 8.3904,-7.854 9.9404,-9.0396 l 2.8183,-2.1554 -3.2209,-2.6044 c -14.6156,-11.8181 -29.0926,-29.3345 -35.685,-43.1773 -2.4781,-5.2035 -2.9506,-7.0526 -2.9574,-11.5732 -0.01,-4.8602 0.2206,-5.6189 2.357,-7.8508 1.3008,-1.3589 2.8193,-2.4707 3.3747,-2.4707 2.18,0 1.6897,-1.6614 -2.6389,-8.9412 -11.4902,-19.3244 -16.8179,-33.1334 -16.2463,-42.1097 0.2852,-4.4796 0.7255,-5.6689 3.3421,-9.0274 2.2305,-2.863 2.9096,-4.4 2.6132,-5.9153 -2.3334,-11.9316 -3.2203,-22.1297 -3.2476,-37.3429 l -0.03,-16.7757 2.2593,-1.9455 c 1.3298,-1.1453 3.2773,-1.9456 4.734,-1.9456 h 2.4747 l -0.5284,-4.6711 c -0.2906,-2.569 -1.6178,-9.9065 -2.9491,-16.3056 -6.6765,-32.089 -7.8879,-44.5438 -4.7242,-48.566 2.1419,-2.7229 5.2707,-2.7652 10.4938,-0.1418 3.0877,1.5509 3.9417,1.7252 3.9417,0.8046 0,-0.6464 -1.1423,-8.3313 -2.5383,-17.0777 -3.3145,-20.7646 -3.6278,-36.6108 -0.8717,-44.0848 2.2869,-6.2018 5.0908,-8.7848 8.8701,-8.1715 1.5196,0.2466 4.2174,1.2065 5.995,2.1331 1.7777,0.9265 3.4146,1.5023 3.6374,1.2795 0.2228,-0.2229 0.9033,-6.8526 1.5123,-14.7328 2.8182,-36.4698 5.4767,-48.0309 12.7075,-55.2618 4.1339,-4.1338 6.599,-3.9629 14.8144,1.0268 l 6.5475,3.9767 0.4319,-2.5676 c 0.2376,-1.4121 0.9916,-9.271 1.6756,-17.4641 2.9658,-35.527 6.9281,-49.1181 14.3196,-49.1181 1.8203,0 3.2139,0.8827 5.744,3.6386 l 3.3406,3.6386 5.0593,-14.3078 c 10.4677,-29.6032 14.0262,-36.0969 22.0064,-40.1592 6.2375,-3.175 11.1775,-3.9064 15.8664,-2.349 7.1625,2.379 10.8572,7.9972 20.226,30.7562 4.9468,12.0166 10.3892,24.5275 10.9473,25.1656 0.1655,0.1891 1.2936,-0.5706 2.5068,-1.6883 5.8148,-5.3566 9.5384,-6.1183 12.1264,-2.4804 3.4877,4.9025 5.3445,15.1958 8.5883,47.612 1.0805,10.7969 2.1674,19.8337 2.4156,20.0819 0.2481,0.2481 2.1638,-1.2064 4.2572,-3.2321 4.6126,-4.4634 6.4832,-5.4797 10.0853,-5.4797 1.9118,0 3.4163,0.6548 4.8899,2.1285 7.3239,7.3238 8.6636,14.569 10.8943,58.9086 0.3856,7.6626 0.8801,14.1112 1.0991,14.3301 0.2189,0.2189 1.8805,-0.3746 3.6922,-1.3189 2.3173,-1.2079 4.0076,-1.5604 5.6995,-1.1888 2.7587,0.6059 6.9906,5.0438 7.8963,8.2808 0.3386,1.2097 0.6002,9.9901 0.5813,19.5117 -0.028,14.2119 -0.3713,19.3722 -1.9167,28.8157 -1.0354,6.3269 -1.6877,11.6982 -1.4497,11.9363 0.2381,0.238 1.5355,-0.1375 2.8833,-0.8344 4.026,-2.082 7.1568,-1.6332 10.2605,1.4706 2.5537,2.5536 2.7378,3.0906 2.7378,7.9881 0,7.3495 -3.2429,25.499 -7.9028,44.2301 l -3.9564,15.9031 h 4.5969 c 5.6592,0 7.2111,1.4113 8.1834,7.4421 0.8647,5.3626 -0.4464,24.704 -2.5317,37.3484 -2.2029,13.3574 -2.1288,15.5289 0.6041,17.7102 2.1273,1.698 2.2115,2.0472 2.1434,8.8876 -0.1202,12.0917 -3.9034,22.7944 -14.0738,39.8148 -3.0707,5.1389 -5.5831,9.723 -5.5831,10.1871 0,0.4639 1.3165,1.6203 2.9256,2.5697 l 2.9256,1.7261 -0.4029,5.0188 c -0.4657,5.8015 -4.134,14.4222 -9.4989,22.3223 -6.2787,9.2458 -22.4056,25.8711 -36.1455,37.2625 l -2.7399,2.2716 8.0813,8.1962 c 9.8197,9.9592 14.3241,15.5173 18.8394,23.2466 1.891,3.2369 3.5319,6.0176 3.6464,6.1795 0.1146,0.1619 12.6461,-7.3113 27.848,-16.6072 15.2018,-9.2958 29.5278,-17.9434 31.8356,-19.2169 2.3078,-1.2735 4.2012,-2.6089 4.2076,-2.9676 0.01,-0.3587 -1.2567,-2.3131 -2.8067,-4.3432 -1.55,-2.03 -2.8047,-4.4541 -2.7881,-5.3868 0.063,-3.5263 11.101,-13.7448 18.8924,-17.4899 7.5589,-3.6333 10.1348,-3.1715 16.507,2.9593 l 3.6234,3.4862 5.4931,-2.6781 c 7.8291,-3.8169 10.5071,-4.0953 15.5857,-1.6199 5.2637,2.5657 12.7859,10.5378 13.9212,14.7537 1.297,4.8169 -0.111,7.5386 -6.4769,12.5196 l -5.5262,4.324 11.4592,11.1658 c 15.2758,14.8848 26.2621,23.0608 40.4291,30.0873 14.6785,7.2801 22.8618,9.8853 39.053,12.4323 20.5116,3.2266 18.9345,2.6696 18.8545,6.6584 -0.1336,6.6646 -13.3928,30.0778 -24.7453,43.6956 -22.6285,27.1433 -42.7339,39.93 -76.6438,48.7438 -4.4287,1.1511 -10.5966,2.2958 -13.7065,2.5438 -8.1607,0.6508 -8.2929,0.3818 -5.9078,-12.0203 1.7385,-9.0395 1.8995,-11.9593 1.8995,-34.436 0,-24.3118 -0.022,-24.6386 -2.2059,-32.4499 -3.873,-13.8546 -14.3184,-38.1464 -21.2435,-49.4043 l -1.5627,-2.5403 -36.6122,23.482 -36.6122,23.4822 -0.4908,15.2929 c -0.6422,20.0135 -3.0562,30.815 -10.5151,47.05 -10.6897,23.2673 -33.3185,45.5442 -57.3264,56.4352 l -7.9413,3.6025 0.5288,7.2469 c 0.8048,11.0294 3.4471,28.843 6.9275,46.7026 1.7261,8.8574 3.241,17.7349 3.3666,19.7278 0.2161,3.4311 0.079,3.6958 -2.59,4.9848 -1.55,0.7487 -9.1764,2.651 -16.9475,4.2274 -19.5214,3.9598 -25.9665,3.9065 -42.2359,-0.3492 z" id="path65" style="fill:#ffffff"/><path style="fill:#1a1a1a;stroke-width:0.805216" d="m 1481.7465,5096.6371 c -6.643,-1.7377 -13.1653,-3.4782 -14.4939,-3.8677 l -2.4156,-0.7082 0.1177,-5.9684 c 0.064,-3.2826 1.0513,-11.0412 2.1924,-17.2413 2.2489,-12.219 4.9279,-32.1476 5.794,-43.0995 l 0.5427,-6.8647 -5.1286,-1.047 c -7.4165,-1.514 -16.0918,-4.5421 -24.9976,-8.7253 l -7.7905,-3.6593 -41.7303,27.3635 c -57.6911,37.8294 -62.8956,41.1084 -67.6443,42.6164 -3.8799,1.2322 -4.4179,1.2314 -7.6496,-0.012 -10.0464,-3.865 -22.3276,-21.0254 -22.3797,-31.2709 -0.035,-7.0077 -1.9753,-5.5988 60.7748,-44.1433 22.5863,-13.8737 41.5028,-25.6195 42.0368,-26.1019 0.7426,-0.6709 0.1869,-2.1067 -2.3655,-6.1108 -4.6697,-7.3259 -9.6736,-17.6588 -12.6367,-26.0942 -4.103,-11.6806 -5.2029,-19.7068 -5.1964,-37.9205 0.01,-15.4031 0.1133,-16.5093 2.4749,-25.4033 5.9824,-22.5315 16.1256,-40.0462 32.1768,-55.5608 3.9172,-3.7862 8.3904,-7.854 9.9404,-9.0396 l 2.8183,-2.1554 -3.2209,-2.6044 c -14.6156,-11.8181 -29.0926,-29.3345 -35.685,-43.1773 -2.4781,-5.2035 -2.9506,-7.0526 -2.9574,-11.5732 -0.01,-4.8602 0.2206,-5.6189 2.357,-7.8508 1.3008,-1.3589 2.8193,-2.4707 3.3747,-2.4707 2.18,0 1.6897,-1.6614 -2.6389,-8.9412 -11.4902,-19.3244 -16.8179,-33.1334 -16.2463,-42.1097 0.2852,-4.4796 0.7255,-5.6689 3.3421,-9.0274 2.2305,-2.863 2.9096,-4.4 2.6132,-5.9153 -2.3334,-11.9316 -3.2203,-22.1297 -3.2476,-37.3429 l -0.03,-16.7757 2.2593,-1.9455 c 1.3298,-1.1453 3.2773,-1.9456 4.734,-1.9456 h 2.4747 l -0.5284,-4.6711 c -0.2906,-2.569 -1.6178,-9.9065 -2.9491,-16.3056 -6.6765,-32.089 -7.8879,-44.5438 -4.7242,-48.566 2.1419,-2.7229 5.2707,-2.7652 10.4938,-0.1418 3.0877,1.5509 3.9417,1.7252 3.9417,0.8046 0,-0.6464 -1.1423,-8.3313 -2.5383,-17.0777 -3.3145,-20.7646 -3.6278,-36.6108 -0.8717,-44.0848 2.2869,-6.2018 5.0908,-8.7848 8.8701,-8.1715 1.5196,0.2466 4.2174,1.2065 5.995,2.1331 1.7777,0.9265 3.4146,1.5023 3.6374,1.2795 0.2228,-0.2229 0.9033,-6.8526 1.5123,-14.7328 2.8182,-36.4698 5.4767,-48.0309 12.7075,-55.2618 4.1339,-4.1338 6.599,-3.9629 14.8144,1.0268 l 6.5475,3.9767 0.4319,-2.5676 c 0.2376,-1.4121 0.9916,-9.271 1.6756,-17.4641 2.9658,-35.527 6.9281,-49.1181 14.3196,-49.1181 1.8203,0 3.2139,0.8827 5.744,3.6386 l 3.3406,3.6386 5.0593,-14.3078 c 10.4677,-29.6032 14.0262,-36.0969 22.0064,-40.1592 6.2375,-3.175 11.1775,-3.9064 15.8664,-2.349 7.1625,2.379 10.8572,7.9972 20.226,30.7562 4.9468,12.0166 10.3892,24.5275 10.9473,25.1656 0.1655,0.1891 1.2936,-0.5706 2.5068,-1.6883 5.8148,-5.3566 9.5384,-6.1183 12.1264,-2.4804 3.4877,4.9025 5.3445,15.1958 8.5883,47.612 1.0805,10.7969 2.1674,19.8337 2.4156,20.0819 0.2481,0.2481 2.1638,-1.2064 4.2572,-3.2321 4.6126,-4.4634 6.4832,-5.4797 10.0853,-5.4797 1.9118,0 3.4163,0.6548 4.8899,2.1285 7.3239,7.3238 8.6636,14.569 10.8943,58.9086 0.3856,7.6626 0.8801,14.1112 1.0991,14.3301 0.2189,0.2189 1.8805,-0.3746 3.6922,-1.3189 2.3173,-1.2079 4.0076,-1.5604 5.6995,-1.1888 2.7587,0.6059 6.9906,5.0438 7.8963,8.2808 0.3386,1.2097 0.6002,9.9901 0.5813,19.5117 -0.028,14.2119 -0.3713,19.3722 -1.9167,28.8157 -1.0354,6.3269 -1.6877,11.6982 -1.4497,11.9363 0.2381,0.238 1.5355,-0.1375 2.8833,-0.8344 4.026,-2.082 7.1568,-1.6332 10.2605,1.4706 2.5537,2.5536 2.7378,3.0906 2.7378,7.9881 0,7.3495 -3.2429,25.499 -7.9028,44.2301 l -3.9564,15.9031 h 4.5969 c 5.6592,0 7.2111,1.4113 8.1834,7.4421 0.8647,5.3626 -0.4464,24.704 -2.5317,37.3484 -2.2029,13.3574 -2.1288,15.5289 0.6041,17.7102 2.1273,1.698 2.2115,2.0472 2.1434,8.8876 -0.1202,12.0917 -3.9034,22.7944 -14.0738,39.8148 -3.0707,5.1389 -5.5831,9.723 -5.5831,10.1871 0,0.4639 1.3165,1.6203 2.9256,2.5697 l 2.9256,1.7261 -0.4029,5.0188 c -0.4657,5.8015 -4.134,14.4222 -9.4989,22.3223 -6.2787,9.2458 -22.4056,25.8711 -36.1455,37.2625 l -2.7399,2.2716 8.0813,8.1962 c 9.8197,9.9592 14.3241,15.5173 18.8394,23.2466 1.891,3.2369 3.5319,6.0176 3.6464,6.1795 0.1146,0.1619 12.6461,-7.3113 27.848,-16.6072 15.2018,-9.2958 29.5278,-17.9434 31.8356,-19.2169 2.3078,-1.2735 4.2012,-2.6089 4.2076,-2.9676 0.01,-0.3587 -1.2567,-2.3131 -2.8067,-4.3432 -1.55,-2.03 -2.8047,-4.4541 -2.7881,-5.3868 0.063,-3.5263 11.101,-13.7448 18.8924,-17.4899 7.5589,-3.6333 10.1348,-3.1715 16.507,2.9593 l 3.6234,3.4862 5.4931,-2.6781 c 7.8291,-3.8169 10.5071,-4.0953 15.5857,-1.6199 5.2637,2.5657 12.7859,10.5378 13.9212,14.7537 1.297,4.8169 -0.111,7.5386 -6.4769,12.5196 l -5.5262,4.324 11.4592,11.1658 c 15.2758,14.8848 26.2621,23.0608 40.4291,30.0873 14.6785,7.2801 22.8618,9.8853 39.053,12.4323 20.5116,3.2266 18.9345,2.6696 18.8545,6.6584 -0.1336,6.6646 -13.3928,30.0778 -24.7453,43.6956 -22.6285,27.1433 -42.7339,39.93 -76.6438,48.7438 -4.4287,1.1511 -10.5966,2.2958 -13.7065,2.5438 -8.1607,0.6508 -8.2929,0.3818 -5.9078,-12.0203 1.7385,-9.0395 1.8995,-11.9593 1.8995,-34.436 0,-24.3118 -0.022,-24.6386 -2.2059,-32.4499 -3.873,-13.8546 -14.3184,-38.1464 -21.2435,-49.4043 l -1.5627,-2.5403 -36.6122,23.482 -36.6122,23.4822 -0.4908,15.2929 c -0.6422,20.0135 -3.0562,30.815 -10.5151,47.05 -10.6897,23.2673 -33.3185,45.5442 -57.3264,56.4352 l -7.9413,3.6025 0.5288,7.2469 c 0.8048,11.0294 3.4471,28.843 6.9275,46.7026 1.7261,8.8574 3.241,17.7349 3.3666,19.7278 0.2161,3.4311 0.079,3.6958 -2.59,4.9848 -1.55,0.7487 -9.1764,2.651 -16.9475,4.2274 -19.5214,3.9598 -25.9665,3.9065 -42.2359,-0.3492 z m 44.5016,-4.2343 c 6.761,-1.4976 12.5959,-3.0612 12.9663,-3.4745 0.3704,-0.4134 -0.7145,-7.8174 -2.4108,-16.4534 -3.4791,-17.7112 -6.8096,-39.6052 -7.6279,-50.1434 -0.4642,-5.9789 -0.7478,-7.0028 -1.8454,-6.6644 -11.6698,3.5979 -28.2585,5.6106 -40.3609,4.8969 l -9.271,-0.5467 -1.7323,15.9623 c -0.9528,8.7792 -3.0941,24.0343 -4.7583,33.9001 -1.9255,11.4148 -2.7458,18.2181 -2.2556,18.7082 0.4236,0.4236 6.3744,2.2363 13.224,4.0283 11.9809,3.1345 12.8206,3.244 22.1164,2.8839 6.8975,-0.2672 13.1802,-1.1535 21.9555,-3.0973 z m -198.8923,-21.9162 c 2.3303,-1.0849 8.8526,-4.9558 14.4939,-8.6019 26.8248,-17.3377 87.6721,-57.2962 88.587,-58.1751 0.825,-0.7926 -0.3774,-2.0393 -6.0578,-6.2811 -3.8979,-2.9108 -10.4096,-8.7678 -14.4705,-13.0156 l -7.3834,-7.7231 -44.1318,27.2257 c -53.7709,33.1723 -53.2707,32.8562 -56.0086,35.4 -2.5518,2.3707 -2.8546,5.3753 -1.0558,10.4738 3.3679,9.5454 15.3543,22.4809 20.9849,22.6462 0.4428,0.013 2.7118,-0.864 5.0421,-1.9489 z m 187.5563,-55.9261 c 20.7749,-4.259 38.3969,-13.3536 54.0479,-27.8936 33.0073,-30.6646 44.2183,-75.6386 29.439,-118.0985 -5.9089,-16.9756 -12.7465,-27.6149 -26.8362,-41.756 -11.0698,-11.1102 -16.2224,-14.9372 -28.1516,-20.9092 -16.8297,-8.4252 -30.5474,-11.5856 -50.3917,-11.6097 -14.842,-0.018 -24.1001,1.4597 -36.1693,5.7731 -8.9699,3.2058 -21.9849,10.2027 -29.4558,15.8356 -8.5179,6.4223 -19.9942,18.2798 -25.5714,26.4208 -8.0354,11.7292 -14.676,27.2516 -18.025,42.1339 -1.398,6.2127 -1.4138,32.4163 -0.025,40.6635 2.4457,14.5182 11.0534,34.016 20.6791,46.8416 9.6444,12.8505 25.3676,25.9857 39.8024,33.2513 10.0959,5.0817 23.5119,9.1053 36.2837,10.8819 8.1165,1.1291 25.0724,0.372 34.3734,-1.5347 z m -44.036,-18.9719 c -28.1689,-7.7503 -48.7721,-24.8169 -61.2551,-50.7404 -6.3428,-13.1725 -8.1015,-20.369 -8.59,-35.151 -0.4527,-13.6968 0.4366,-22.4371 3.1123,-30.5876 2.4495,-7.4616 8.4415,-20.7596 11.3865,-25.2702 3.5112,-5.3777 5.4266,-5.561 11.136,-1.0652 2.3936,1.8848 31.6516,30.6195 65.0176,63.8547 l 60.6657,60.4279 -3.4953,3.0679 c -3.763,3.303 -18.1831,10.7581 -26.0413,13.4632 -7.6349,2.6282 -18.973,3.9974 -32.6112,3.9382 -10.4827,-0.046 -13.5767,-0.3558 -19.3252,-1.9375 z m 37.8451,-2.8987 c 5.9016,-0.7413 15.7978,-3.5066 17.2217,-4.8121 0.4156,-0.381 0.3241,-7.3327 -0.2186,-16.6086 -0.9313,-15.9192 -0.9382,-15.9581 -3.2198,-18.2416 l -2.2866,-2.2884 -20.2394,13.1588 -20.2393,13.1588 -0.1237,7.0457 c -0.068,3.8751 -0.1598,7.4985 -0.2041,8.0521 -0.1672,2.0896 14.7657,2.3624 29.3098,0.5353 z m -33.0941,-8.612 0.081,-5.0572 -6.2404,4.1604 c -3.4322,2.2883 -6.5558,4.4445 -6.9411,4.7916 -0.3854,0.3472 2.151,1.5334 5.6365,2.6361 l 6.3372,2.005 0.5236,-1.7394 c 0.288,-0.9567 0.5598,-4.0151 0.6039,-6.7965 z m 9.9588,-16.3558 c 15.6031,-10.2271 28.9056,-19.1104 29.5611,-19.7406 1.0428,-1.0026 -0.3675,-2.6974 -11.273,-13.5485 l -12.4649,-12.4026 -32.4907,20.0115 c -17.87,11.0063 -32.6755,20.1963 -32.9013,20.4221 -0.7025,0.7024 7.7988,9.1728 13.8855,13.8349 5.2601,4.0289 15.1527,9.954 16.6955,9.9995 0.3402,0.01 13.3847,-8.3492 28.9878,-18.5763 z m 52.1408,14.9061 c 3.0179,-1.5859 6.1318,-3.5957 6.9196,-4.4663 1.3953,-1.5418 1.2192,-1.7962 -6.7785,-9.7939 l -8.2109,-8.2109 0.01,4.8264 c 0.01,8.8787 1.0355,20.5281 1.8113,20.5281 0.422,0 3.2365,-1.2975 6.2544,-2.8834 z m -86.4728,-40.6748 27.6743,-16.986 v -7.7811 -7.7811 l -17.916,-17.7479 c -24.7688,-24.5363 -39.0647,-38.2012 -39.965,-38.2012 -2.4063,0 -13.3918,25.2476 -15.0649,34.6233 -1.4295,8.011 -1.4291,26.5051 7e-4,33.9505 1.4366,7.4806 3.9532,14.8254 7.5423,22.013 2.9156,5.8387 8.7383,14.8965 9.5761,14.8965 0.263,0 12.9317,-7.6437 28.1525,-16.986 z m 36.5317,-23.2978 c 0,-0.2645 -1.087,-1.5223 -2.4156,-2.7952 l -2.4157,-2.3144 v 4.2222 4.2223 l 2.4157,-1.4269 c 1.3286,-0.7849 2.4156,-1.6434 2.4156,-1.908 z m 12.2616,-20.3453 -65.3649,-65.3872 4.2,-3.088 c 5.0648,-3.7239 17.9803,-9.9906 27.5556,-13.3702 13.0676,-4.6123 35.7174,-5.1727 50.6558,-1.2533 34.5543,9.0661 62.1499,38.914 67.7422,73.2714 2.4196,14.8653 1.1651,33.4093 -3.105,45.8973 -3.536,10.3412 -11.606,25.4561 -15.1349,28.3473 -0.9874,0.809 -12.0313,-9.8811 -66.5488,-64.4173 z m 67.3254,56.7847 c 2.8537,-4.0076 8.8874,-16.7368 10.9978,-23.2021 2.0657,-6.3282 4.372,-20.7884 3.4609,-21.6995 -0.2662,-0.2662 -9.2164,5.2426 -19.8893,12.2418 l -19.4053,12.7258 11.0627,11.084 c 6.0845,6.0962 11.3147,11.084 11.6227,11.084 0.3079,0 1.2757,-1.0053 2.1505,-2.234 z m 1.1149,-41.8018 13.4665,-8.7059 0.021,-4.5246 c 0.011,-2.4884 -0.5289,-7.6779 -1.2011,-11.5321 -1.2232,-7.0144 -4.4144,-17.7623 -5.2739,-17.7623 -0.2512,0 -13.9644,8.295 -30.4738,18.4334 l -30.0169,18.4335 12.262,12.2813 12.262,12.2812 7.744,-5.0993 c 4.2592,-2.8046 13.8038,-9.017 21.2103,-13.8052 z m -46.7137,-15.2722 2.9873,-1.868 -0.4684,-36.8489 c -0.3271,-25.7254 -0.7428,-37.1178 -1.3769,-37.7397 -2.5958,-2.5454 -21.2575,-5.4322 -32.3119,-4.9985 l -6.4418,0.2529 -0.2114,29.7744 -0.2114,29.7745 13.8685,13.8855 13.8686,13.8856 3.655,-2.1249 c 2.0103,-1.1687 4.9994,-2.9655 6.6424,-3.9929 z m 30.3426,-17.9928 21.7199,-13.286 -2.8288,-5.1775 c -5.2966,-9.6936 -13.8067,-19.4678 -23.3307,-26.7964 l -4.7825,-3.6801 -2.7939,1.4731 c -1.5367,0.8101 -4.8775,2.2636 -7.424,3.2299 l -4.63,1.7569 v 8.6288 c 0,17.5102 1.0839,47.581 1.7072,47.3626 0.3536,-0.1239 10.4169,-6.2039 22.3628,-13.5113 z m -72.3829,-24.5843 c 0,-14.2549 -0.1319,-15.7729 -1.4092,-16.2165 -0.775,-0.2691 -7.1483,-3.155 -14.1628,-6.413 l -12.7539,-5.9237 -4.9609,2.8973 c -2.7286,1.5935 -5.1257,3.055 -5.3269,3.2478 -0.4432,0.4247 37.1369,38.1351 38.0033,38.1351 0.3357,0 0.6104,-7.0772 0.6104,-15.727 z m 0,-29.4548 v -8.947 l -3.0196,0.5592 c -3.7956,0.703 -10.6654,2.9947 -15.903,5.3051 l -4.0261,1.7759 10.4678,5.0764 c 5.7573,2.792 10.9207,5.0991 11.4743,5.1269 0.7479,0.038 1.0066,-2.2488 1.0066,-8.8965 z m 55.7612,4.0867 c 1.2179,-0.5692 2.2143,-1.2813 2.2143,-1.5827 0,-0.679 -7.5329,-4.83 -8.765,-4.83 -0.5604,0 -0.8976,1.8187 -0.8976,4.8421 v 4.8421 l 2.617,-1.1185 c 1.4393,-0.6152 3.6134,-1.584 4.8313,-2.153 z m 188.7117,138.89 c 27.0664,-7.0159 42.8092,-15.5137 60.137,-32.4611 11.0101,-10.7684 19.4788,-20.9375 25.5145,-30.6381 5.2134,-8.379 13.0285,-24.1703 12.4361,-25.1288 -0.2413,-0.3903 -1.2907,-0.7096 -2.3321,-0.7096 -4.97,0 -27.5105,-4.4654 -34.9487,-6.9237 -9.7232,-3.2133 -24.9479,-10.6004 -33.0485,-16.0354 -8.1808,-5.4887 -20.077,-15.6119 -29.9826,-25.5142 -8.3805,-8.3775 -8.6985,-8.6018 -11.5417,-8.1405 -2.5456,0.4131 -3.2956,0.1214 -5.7992,-2.2554 -4.1541,-3.9438 -12.117,-14.0507 -14.0405,-17.8212 -1.1438,-2.242 -1.5013,-4.0337 -1.1637,-5.8331 0.4346,-2.3166 0.096,-2.9577 -3.133,-5.9342 -2.0812,-1.9185 -4.4163,-3.3369 -5.4931,-3.3369 -3.4248,0 -10.2337,4.1339 -16.4181,9.9679 l -6.1115,5.7653 4.0925,5.2181 c 14.6611,18.6935 23.631,32.6578 32.3167,50.3103 6.894,14.0107 10.9729,24.3744 14.362,36.4907 2.172,7.7653 2.1805,7.8998 2.1315,33.9658 -0.043,23.204 -0.2372,27.0703 -1.7094,34.1191 l -1.6604,7.9498 4.2149,-0.4954 c 2.3182,-0.2725 7.798,-1.4242 12.1773,-2.5594 z m -79.0011,-105.3166 c 17.7148,-11.349 32.5448,-21.1452 32.9555,-21.7695 0.8758,-1.3311 -3.2855,-8.7068 -10.4085,-18.4488 l -4.5854,-6.2713 -3.7469,2.1783 c -4.4044,2.5606 -52.9461,32.0679 -57.8041,35.1377 l -3.3285,2.1034 2.6709,7.1107 c 1.4689,3.9109 3.4527,10.3646 4.4083,14.3415 0.9556,3.9771 1.8876,7.7185 2.0711,8.3144 0.4134,1.3427 -2.3122,2.9807 37.7676,-22.6964 z m 70.129,-47.9991 c 8.8765,-6.3633 9.3862,-6.8655 9.3862,-9.2511 0,-5.2336 -10.1502,-14.933 -15.6349,-14.9405 -4.8305,-0.01 -15.9699,5.6656 -15.9699,8.1319 0,1.8871 14.5668,20.0466 16.0807,20.0466 0.317,0 3.079,-1.7941 6.1379,-3.9869 z m -138.6037,-16.0424 c 17.7817,-16.6048 27.9804,-29.5973 31.8295,-40.5486 2.3556,-6.7023 2.1472,-8.8114 -1.016,-10.2811 -4.3252,-2.0097 -3.9921,-5.2825 1.4752,-14.4939 9.3117,-15.6887 13.421,-25.4508 14.8381,-35.2497 1.1381,-7.8692 1.0265,-8.918 -1.165,-10.949 -3.721,-3.4485 -3.8541,-5.1267 -1.531,-19.2905 1.7058,-10.4 2.1523,-15.9356 2.2192,-27.5133 l 0.084,-14.4939 h -5.7837 c -3.181,0 -6.1467,-0.3624 -6.5904,-0.8052 -0.5389,-0.5377 0.6605,-6.6902 3.6103,-18.52 4.8558,-19.474 8.3612,-38.3975 8.3612,-45.1376 0,-3.7923 -0.2669,-4.521 -2.0943,-5.7183 -1.7974,-1.1777 -2.4539,-1.2271 -4.63,-0.3482 -6.4602,2.6091 -7.7735,2.8297 -9.0778,1.5254 -1.1311,-1.131 -1.0382,-2.5143 0.9689,-14.4365 1.9313,-11.4717 2.2285,-15.4882 2.2861,-30.9003 0.071,-18.8961 -0.1444,-20.1202 -3.9753,-22.6302 -1.8635,-1.2211 -2.1746,-1.1731 -5.6719,0.8765 -3.9895,2.3381 -7.0183,2.2843 -7.949,-0.1411 -0.2903,-0.7566 -0.8716,-7.5537 -1.2919,-15.1047 -2.5721,-46.2163 -3.3541,-51.1719 -9.0601,-57.4121 -2.58,-2.8217 -5.0031,-2.2802 -9.7075,2.1691 -5.9766,5.6523 -9.207,6.6042 -11.0061,3.2427 -0.4395,-0.8213 -1.699,-10.4825 -2.7989,-21.4693 -2.844,-28.4096 -4.3052,-38.0927 -6.6293,-43.9312 -0.661,-1.6608 -1.6827,-3.0196 -2.2702,-3.0196 -0.5876,0 -3.1675,2.1742 -5.7331,4.8313 -2.5657,2.6572 -4.8897,4.8313 -5.1646,4.8313 -0.7398,0 -7.0168,-13.6945 -14.0252,-30.5982 -9.369,-22.5974 -12.0852,-26.8629 -18.4416,-28.9607 -2.1204,-0.6998 -3.6112,-0.5664 -7.624,0.6825 -11.0312,3.4334 -12.1553,5.389 -27.4434,47.7437 -1.8663,5.1701 -3.9334,9.6076 -4.5939,9.861 -1.8291,0.7019 -3.9425,-0.7787 -6.8088,-4.7699 -1.4302,-1.9915 -3.0741,-3.6209 -3.6532,-3.6209 -4.0879,0 -7.8392,16.6719 -10.327,45.8973 -2.345,27.5462 -1.7918,26.8275 -14.5364,18.8842 -3.1636,-1.9718 -6.3274,-3.5851 -7.0308,-3.5851 -2.1659,0 -6.8966,6.3946 -8.5711,11.586 -2.76,8.5564 -4.0846,17.9908 -5.7222,40.7531 -1.3477,18.7321 -1.9707,21.7408 -4.5022,21.7408 -0.6766,0 -3.5637,-1.1254 -6.4157,-2.5009 -2.852,-1.3755 -5.6926,-2.3063 -6.3124,-2.0685 -0.6198,0.2379 -1.963,2.5409 -2.9848,5.1179 -2.7904,7.0374 -2.543,21.4258 0.7246,42.128 3.2207,20.4056 3.3624,22.4971 1.6016,23.6304 -1.1005,0.7084 -2.4773,0.3556 -6.6582,-1.706 -5.9405,-2.9295 -7.2721,-3.1509 -7.9725,-1.3256 -1.4267,3.7182 0.663,20.2524 5.1655,40.8698 2.1798,9.9813 4.0336,20.8341 4.1676,24.3986 0.1313,3.493 -1.6241,5.1222 -5.5187,5.1222 -1.8862,0 -2.9038,0.5004 -3.5775,1.759 -1.4291,2.6704 -0.3792,30.0725 1.6576,43.2636 1.7818,11.5393 1.6735,13.0387 -1.1675,16.1739 -4.4444,4.9045 -4.7408,9.737 -1.2385,20.1908 2.8571,8.528 5.5991,14.1192 13.0616,26.6348 4.4343,7.4368 5.5413,9.9325 5.3367,12.0318 -0.217,2.2269 -0.6744,2.7559 -2.8709,3.3211 -3.7841,0.9736 -5.3677,3.8107 -4.7444,8.5005 1.4883,11.1984 17.5452,33.2591 34.757,47.7531 l 6.7179,5.657 3.1319,-1.9771 c 10.5176,-6.6395 25.566,-12.5373 39.6678,-15.5469 10.3022,-2.1986 32.1944,-2.0089 43.2115,0.3745 14.6397,3.1671 31.2586,10.0006 42.1355,17.3256 l 4.2802,2.8824 3.257,-2.5787 c 1.7915,-1.4182 6.8947,-5.9755 11.3406,-10.1271 z" id="path15"/></g></svg>